<?xml version="1.0" encoding="utf-8"?>
<!-- Generator: Adobe Illustrator 21.0.0, SVG Export Plug-In . SVG Version: 6.00 Build 0)  -->
<svg version="1.1" xmlns="http://www.w3.org/2000/svg" xmlns:xlink="http://www.w3.org/1999/xlink" x="0px" y="0px"
	 viewBox="0 0 300 300" enable-background="new 0 0 300 300" xml:space="preserve">
<g id="图层_3">
	<rect x="1" y="1" fill="#FFFFFF" width="299" height="299"/>
</g>
<g id="图层_1">
	<g>
		<g>
			<path fill="#5C698C" d="M201.7,191.5c-1,1-2.2,0.8-3.3,0.8c-30.6,0-61.2,0-91.9,0c-1.7,0-3.4,0-5,0c-0.4-0.5-0.9-0.8-1.5-0.8
				c0,0,0,0,0,0c0-0.5-0.2-0.7-0.6-0.9c-0.1-0.6-0.2-1.2-0.2-1.8c0-11.9,0-23.9,0-35.8c0-0.5,0.1-1,0.1-1.5c1.1,0,2.2-0.1,3.3-0.1
				c0.9,0,1.8,0,2.6,0.1c0.3,0.5,0.7,0.4,1.1,0.4c1-0.1,1.5,1.1,2.6,0.8c0.2,1.2,1.6,1.7,1.8,2.9c0.2,1,0.8,1.4,1.7,1.7
				c0.8,0.2,1.6,0.4,2.2,0.9c1.9,1.5,2.9,0.2,4-1c2.5-0.9,4.6,0,6.4,1.7c0.8,0.7,1.4,1.6,2.7,0.9c0.5-0.2,1.1,0,1.6,0.2
				c1.2,0.4,2.3,0.6,3.4-0.5c0.7-0.7,1.7-1,2.7-0.9c1.2,0.1,2.5,0.1,3.3,1c1.9,2,4.3,1.4,6.6,1.7c0.5,0.1,0.8-0.3,1-0.7
				c1.8-0.6,3.6-0.6,5.3-0.2c1.1,0.2,1.7,0,2.5-0.6c2.2-1.9,4.9-2.9,7.9-0.9c0.7,0.4,1.6,1.1,2.5,0.3c0.8,0,1.6-0.2,2.2-0.7
				c0.2,0,0.5,0,0.7,0c0.4,0.5,1,0.3,1.5,0.4c1.1,0.8,2,0.4,2.9-0.5c4.4-4.2,7.3-4.2,11.7,0c0.3,0.3,0.5,0.5,0.8,0.7
				c1.2,0.7,2.2,0.7,2.8-0.8c1.5-3.8,7.8-7.7,12.7-4.7c0.7,0.4,1.1,0.5,1.5-0.3c0.3,0.1,0.5,0.3,0.8,0.4c0,3.3,0.1,6.6,0.1,9.9
				c0,8.6,0,17.1,0.1,25.7C201.6,189.5,202,190.6,201.7,191.5z M119.2,186.1c2.3-0.3,4.5-0.5,6.7-0.8c0.5-0.1,1-0.4,0.9-1
				c-0.1-0.6-0.6-0.4-1-0.3c-2.1,0.3-4.3,0.6-6.4,0.9c-0.5,0.1-1.2,0-1.2,0.6C118.1,186.4,118.9,186.1,119.2,186.1z"/>
			<path fill="#5D6E93" d="M202.5,108.5c0,0.4,0,0.7,0,1.1c-1.3,0.2-0.8,1.2-0.8,1.9c0,8.1,0,16.2,0,24.2c-1.1-0.6-2.5-1-3.4-1.8
				c-2.2-2.1-4.9-3.5-7.5-5c-5.4-3-11.1-5.2-17-7.1c-1.9-0.6-3.5-0.6-5.2,0.5c-0.5,0.3-1.1,0.4-1.6,0.3c-2-0.6-4,0.1-6-0.2
				c-1.3-0.2-2.5-1-3.7-0.7c-2.3,0.6-3.6-0.4-4.6-2.2c-0.5-0.8-1-1-1.8-0.9c-0.7,0-1.5,0-2.2,0c-1.1,0-2.2,0-3.4,0
				c-0.6,0.1-1.3-0.2-1.9,0.4c-1.1,0.2-2.3-0.4-3.4,0.4c-0.7,0-1.5,0-2.2,0c-1.7,0.1-3.4,0.2-4.9,1.1c-0.5,0-1,0-1.5,0
				c-0.3,0-0.6,0.1-0.7,0.4c-0.2,0-0.5,0-0.7,0c-2,0.5-4.2,0.8-6,1.6c-2.8,1.2-5.7,2.2-8.5,3.4c-3,1.3-5.8,2.9-8.8,4.1
				c-0.4,0.2-0.5,0.5-0.5,0.9c-0.1,0-0.2,0-0.4,0c-1.6,0.4-3,1.1-3.7,2.6c-0.1,0-0.2,0-0.4,0c-0.5,0.1-1,0.3-1.5,0.4
				c0-9.4,0-18.9,0-28.3c0-1.2,0.3-1.7,1.6-1.6c0.9,0,1.6,0.5,2,1.2c1.2,2.2,3,3.1,5.4,3.4c0.6,0.1,1.7-0.1,2,1
				c-0.5,0.4-1.2,0.6-1.3,1.3c0.9,0.4,1.4-0.6,2.2-0.6c3.6-0.1,7.2-0.6,10.8-1.1c0.6-0.1,1.3,0,1.2-0.8c-0.1-0.9-0.9-0.8-1.5-0.7
				c-3.3,0.9-6.7,0.7-9.9,1.8c0-0.5,0.2-0.9,0.7-1c2.3-0.3,3.2-2.1,4.3-3.7c1.5-2.2,4.8-2.6,6.8-0.8c2.4,2.2,3.9,2.4,7,0.8
				c1.6-0.8,5.3-0.4,6.7,0.9c1.5,1.3,3.1,1.9,5.1,1.3c0.7-0.2,1.5-0.2,2.2,0.1c3.5,1.7,6.2,1.4,9-1.1c0.8-0.7,1.7-1.4,2.8-0.6
				c1.6,1.1,3.2,0.7,4.6-0.2c1-0.6,1.6-0.4,2.3,0.1c3,2.1,5.6,2,8.3-0.3c1-0.8,1.7-2.1,3.3-1c1,0.7,2.7,0.2,3.3,1.7
				c-0.6,0.8-2-0.1-2.5,1.5c5.2-0.6,10.2-0.9,15.2-1.8c0.1,0.3,0.2,0.5,0.5,0.7c2,1.2,4,0.8,6.1,0.5c1.5-0.2,3.6-1.5,3.8,1.6
				C201.9,108.4,202.3,108.4,202.5,108.5z M169.7,118.8c1.7,0.1,2.1-1.1,2.2-2.2c0.1-1.1-1.1-1.1-1.8-1.1c-1.5,0-2.1,1.1-2.1,2.4
				C168,119,169.2,118.5,169.7,118.8z"/>
			<path fill="#5C698C" d="M202.5,108.5c-0.2-0.1-0.5-0.1-0.5-0.2c-0.2-3-2.3-1.8-3.8-1.6c-2.1,0.3-4.1,0.6-6.1-0.5
				c-0.3-0.2-0.5-0.4-0.5-0.7c0.7-0.1,1.5,0.1,2.2-0.3c0.4-0.2,0.8-0.5,0.6-1c-0.1-0.5-0.6-0.6-1.1-0.5c-3.7,0.6-7.4,1.2-11.1,1.8
				c-0.2-0.9-0.9-1.1-1.6-1.1c-0.9,0.1-0.6,0.9-0.6,1.4c-0.4,0-0.7,0-1.1,0c-0.6-1.5-2.3-1-3.3-1.7c-1.6-1.1-2.3,0.1-3.3,1
				c-2.8,2.3-5.3,2.3-8.3,0.3c-0.7-0.5-1.4-0.8-2.3-0.1c-1.4,0.9-3,1.4-4.6,0.2c-1.1-0.8-2-0.1-2.8,0.6c-2.9,2.5-5.6,2.8-9,1.1
				c-0.7-0.3-1.5-0.3-2.2-0.1c-2,0.5-3.6,0-5.1-1.3c-1.4-1.2-5-1.7-6.7-0.9c-3.1,1.5-4.6,1.4-7-0.8c-2-1.8-5.3-1.4-6.8,0.8
				c-1.1,1.6-2.1,3.4-4.3,3.7c-0.5,0.1-0.6,0.5-0.7,1c-0.5,0-1,0-1.5,0c-0.2-1.1-1.3-0.9-2-1c-2.4-0.3-4.2-1.2-5.4-3.4
				c-0.4-0.7-1-1.2-2-1.2c-1.2-0.1-1.6,0.4-1.6,1.6c0,9.4,0,18.9,0,28.3c0,0.5-0.3,0.7-0.8,0.7c0-3.5-0.1-6.9-0.1-10.4
				c0-8.9,0-17.9,0-26.8c0-0.7,0.1-1.4,0.1-2c3,0.1,6-0.9,9-1c0.5,0,1.5-0.1,1.3-1c-0.2-0.8-0.9-0.5-1.5-0.4c-3,0.2-5.8,1-8.8,1.3
				c0-1.8-0.7-3.8,1.4-5.1c0.4,0.2,0.7,0.1,0.9-0.3c22.1,0,44.1,0,66.2,0c10.8,0,21.6,0,32.4,0c0.2,0.4,0.5,0.5,0.9,0.3
				c0.3,0.2,0.5,0.3,0.8,0.5c-0.1,0.5,0,0.8,0.6,0.9C202.8,96.5,202.6,102.5,202.5,108.5z M136.9,93.3c-0.1-0.6-0.6-0.6-1-0.5
				c-2.9,0.4-5.8,0.8-8.7,1.2c-0.2,0-0.3,0.1-0.5,0.2c-0.3,0.2-0.5,0.4-0.4,0.8c0.2,0.4,0.5,0.3,0.8,0.1c0.8-0.6,1.7-0.3,2.5-0.4
				c2.2-0.2,4.4-0.3,6.6-0.7C136.5,93.8,136.9,93.8,136.9,93.3z M164.1,98.6c2.1,0.9,4,0.3,6,0.1c0.4,0,0.8-0.3,0.7-0.7
				c-0.1-0.6-0.6-0.7-1.1-0.6C167.8,97.8,166,98.2,164.1,98.6z M189.8,90c-2-0.4-3.9-0.3-5.8,0.1c-0.3,0.1-0.6,0.2-0.5,0.6
				c0.1,0.4,0.4,0.5,0.7,0.4C186,90.6,188,91.2,189.8,90z"/>
			<path fill="#F1CB6F" d="M229.8,243.7c-13.1,0.5-24.3-10.9-24.3-23.8c0-14.2,11.2-25,25.1-24.7c12.5,0.3,23.7,10.4,23.6,24.6
				C254.2,232.7,243.3,244.1,229.8,243.7z M226.6,233.2c2.4,0,4.7,0.2,7.1,0c3-0.3,6.1-0.7,8-3.6c2.6-3.7,3-7.9,2.6-12.3
				c-0.3-3.2-1.8-5-4.8-5.6c-1.7-0.3-2.2-1.2-2.1-2.7c0.1-1.3-0.3-2.6-0.7-3.8c-0.9-2.5-2.9-3.8-5.3-3.5c-2.4,0.3-3.4,1.5-3.8,4.4
				c-0.2,1.1-0.2,2.2-0.3,3.3c-0.1,2-1,3.4-2.8,4.3c-1.8,1-3.7,0.8-5.7,0.8c-2.6,0-3.9,1.3-3.9,3.9c0,3.4,0,6.8,0,10.3
				c0,3.1,1.3,4.4,4.5,4.4C221.9,233.2,224.3,233.2,226.6,233.2z"/>
			<path fill="#8992B2" d="M102.6,151.3c-1.1,0-2.2,0.1-3.3,0.1c0-0.7-0.1-1.5-0.1-2.2c0.7-1.6,0.7-3.3,0-4.9c0-1.7,0-3.5,0.1-5.2
				c0.3-0.3,0.5,1.2,0.8,0c1.1,0,1.8-0.5,2.2-1.5l0,0c0.9-0.4,1.8-0.8,2.7-1.1c0.9-0.2,2-0.1,2.6,0.7c0.6,0.8-0.2,1.6-0.7,2.1
				c-0.9,1-1.3,2.1-0.7,3.2c0.6,1.3,1.8,0.2,2.7,0.2c3-0.2,5.8-1,7.9-3.5c0.6-0.7,1.3-1.4,1-2.3c-0.3-0.9-1.2-1.1-2.1-1.3
				c-1-0.2-1.9-0.4-2.9-0.8c-0.8-0.3-1.1-0.8-0.3-1.5c1.7-1.3,5-0.9,5.6,1c0.7,2.2,2.1,2.7,4.1,2.4c0.6-0.1,1.1,0,1.6,0.3
				c0.5,0.3,1,0.6,0.7,1.3c-1.1,2.8-0.9,5.5,0.4,8.1c0.8,1.7,0.1,2.6-1.7,2.5c-1,0-1.8-0.3-2.6-0.8c-0.5-0.3-1.1-0.8-1.7-0.6
				c-2.8,1-5.2-0.9-7.9-0.7c-2.3,0.2-4.9-1.1-6.4,1.8c-0.1,0.2-0.5,0.4-0.8,0.5C102.9,149.7,102.5,150.4,102.6,151.3z"/>
			<path fill="#141415" d="M85.3,63.2c0,6.6-5.1,11.6-11.6,11.8c-6.3,0.2-11.8-5.8-11.9-11.6c-0.1-6.4,6-12,11.8-12
				C79.5,51.5,85.7,57.1,85.3,63.2z M73.5,71.6c5,0,8.5-3.5,8.5-8.4c0-4.7-3.6-8.3-8.2-8.3c-4.9,0-8.5,3.5-8.5,8.4
				C65.2,68.1,68.8,71.6,73.5,71.6z"/>
			<path fill="#141415" d="M228.3,51.6c5.8-0.6,12,5.4,11.9,11.9c-0.1,5.7-5.6,11.7-12,11.5c-6.5-0.2-11.4-5.3-11.5-11.9
				C216.6,56.7,222.8,51,228.3,51.6z M228.4,71.6c4.8,0,8.4-3.5,8.4-8.3c0-4.9-3.6-8.4-8.6-8.4c-4.7,0-8.3,3.8-8.3,8.5
				C220,68,223.8,71.6,228.4,71.6z"/>
			<path fill="#141415" d="M85.3,218.2c0,6.7-5.2,11.5-11.9,11.6c-5.8,0.1-11.9-5.6-11.5-12.1c0.3-6.4,5.4-11.4,12.1-11.4
				C80,206.3,85.7,211.9,85.3,218.2z M73.6,209.6c-4.8,0-8.4,3.6-8.4,8.4c0,4.9,3.5,8.4,8.3,8.5c4.9,0,8.5-3.6,8.5-8.4
				C82,213.4,78.3,209.6,73.6,209.6z"/>
			<path fill="#131313" d="M144.4,40.9c-0.2,0.9-0.2,2.2-1.7,2.3c-1.6,0.1-2.3-0.7-2.5-2.1c-0.5-5.4-1-10.9-1.5-16.3
				c-0.2-2.1-0.4-4.2-0.7-6.3c-0.2-1.4,0-2.7,1.6-3.1c1.7-0.4,2.3,0.7,2.5,2.2c0.6,5.4,1.1,10.9,1.7,16.3
				C144.1,36.1,144.2,38.4,144.4,40.9z"/>
			<path fill="#131313" d="M210.3,143.8c6.7,0.6,13.5,1.2,20.2,1.8c1.5,0.1,2.3,0.8,2.2,2.3c-0.1,1.6-1.4,1.9-2.6,1.8
				c-6.7-0.5-13.4-1.1-20-1.7c-1.5-0.1-2.1-1.2-2-2.6C208.2,144,209.1,143.7,210.3,143.8z"/>
			<path fill="#131313" d="M67.4,200.6c0,1-0.6,1.6-1.3,2.1c-5.1,3.5-10.1,7-15.2,10.5c-1,0.7-2.3,0.9-3.2-0.3
				c-0.8-1.2-0.4-2.4,0.8-3.2c5.1-3.5,10.2-7.1,15.3-10.6c0.8-0.6,1.8-0.7,2.6-0.2C67.1,199.2,67.4,199.9,67.4,200.6z"/>
			<path fill="#131313" d="M230.5,119.8c0.1,1.1-0.5,1.8-1.5,2.1c-5.9,1.6-11.8,3.3-17.8,4.8c-1.3,0.3-2.6-0.1-3-1.6
				c-0.3-1-0.3-2,1.2-2.4c4.3-1.1,8.7-2.3,13-3.4c1.6-0.4,3.2-1,4.8-1.4C229.3,117.4,230.5,118.1,230.5,119.8z"/>
			<path fill="#131313" d="M68.9,104.4c-1.6-0.4-3.4-1.4-5.2-2.3c-4.1-1.9-8.1-3.8-12.2-5.6c-1.5-0.7-2.1-1.6-1.5-3.1
				c0.7-1.5,2-1.3,3.2-0.7c5.6,2.5,11.2,5.1,16.8,7.7c1.1,0.5,1.6,1.5,1.3,2.8C71.1,104.2,70.3,104.5,68.9,104.4z"/>
			<path fill="#131313" d="M93.4,168.5c0.1,0.9-0.4,1.4-1.2,1.8c-5.7,2.6-11.4,5.3-17.1,7.9c-1.1,0.5-2.4,0.7-3-0.8
				c-0.5-1.3-0.1-2.3,1.4-3c5.8-2.7,11.6-5.4,17.4-8.1C92.2,165.7,93.5,166.7,93.4,168.5z"/>
			<path fill="#131313" d="M173.8,64c-0.3,1.1-0.7,2.7-1.2,4.3c-1.2,4.3-2.4,8.6-3.6,12.9c-0.4,1.4-1.3,2.1-2.8,1.9
				c-1.1-0.2-1.8-0.7-1.5-2c1.7-6.1,3.3-12.1,4.9-18.2c0.4-1.4,1.3-1.9,2.7-1.7C173.7,61.4,173.9,62.4,173.8,64z"/>
			<path fill="#141415" d="M145.4,197.8c1.5,0,2.6,1.1,2.5,2.6c-0.4,5-1,10-1.4,15c-0.1,1.4-0.6,2.4-2.2,2.4c-1.7-0.1-2-1.3-1.9-2.6
				c0.4-5.3,0.8-10.5,1.3-15.8C143.7,198.1,144.6,197.8,145.4,197.8z"/>
			<path fill="#141415" d="M159.6,66.1c-0.4,4.9-0.7,9.3-1,13.8c-0.1,1.5-0.3,3.1-2.3,3.3c-1.5,0.2-2.3-0.5-2.1-2
				c0.4-5,0.9-10,1.3-15c0.1-1.5,0.6-2.6,2.3-2.5C159.6,63.7,159.5,65.2,159.6,66.1z"/>
			<path fill="#141415" d="M76.5,149.3c-1.2-0.1-2.4-0.3-2.5-1.9c-0.1-1.6,0.9-2.2,2.3-2.3c5.1-0.4,10.1-0.8,15.2-1.3
				c1.1-0.1,1.8,0.3,1.9,1.5c0.1,1.4-0.4,2.5-1.9,2.7c-2,0.3-4.1,0.4-6.1,0.6C82.4,148.8,79.5,149.1,76.5,149.3z"/>
			<path fill="#141415" d="M215.8,51c-0.1,0.8-0.3,1.5-0.8,2.2c-2.4,3.4-4.8,6.9-7.3,10.4c-1,1.5-2.5,1.9-3.5,1
				c-1.1-1-0.9-2.2-0.1-3.4c2.5-3.6,5-7.3,7.6-10.9c0.7-1,1.6-1.6,2.9-1.2C215.5,49.4,215.8,50.1,215.8,51z"/>
			<path fill="#131313" d="M172.5,213.1c-0.1,1.2-0.3,2.2-1.6,2.4c-1.4,0.2-2.3-0.6-2.6-1.8c-0.8-2.6-1.4-5.3-2.1-7.9
				c-0.5-1.7-0.8-3.5-1.4-5.2c-0.3-1.2-0.3-2.1,1-2.6c1.3-0.4,2.6-0.2,3,1.1C170.1,203.7,171.6,208.4,172.5,213.1z"/>
			<path fill="#131313" d="M225.6,107c-0.1,0.9-0.5,1.5-1.3,1.9c-4.3,2-8.5,4-12.8,6c-1.4,0.7-2.4-0.2-3.1-1.3
				c-0.6-1.2,0-1.9,1.2-2.5c4.3-2,8.5-4,12.8-6C224.1,104.3,225.7,105.2,225.6,107z"/>
			<path fill="#141415" d="M203.5,255c-1.1,0-1.7-0.6-2.2-1.5c-1.9-4-3.7-8-5.6-12c-0.6-1.2-0.9-2.6,0.6-3.4c1.3-0.7,2.4,0,3.2,1.8
				c1.7,3.6,3.4,7.2,5.1,10.8c0.4,0.8,0.7,1.6,0.7,2.5C205.3,254.4,204.6,254.9,203.5,255z"/>
			<path fill="#131313" d="M257.1,167.1c1.9,0.4,3.9,0.8,5.9,1.4c2.5,0.8,5,1.4,7.6,2c1.5,0.4,2.6,1.2,2.1,2.9
				c-0.4,1.8-1.9,1.5-3.2,1.2c-4-1-8.1-2-12.1-3c-0.5-0.1-0.9-0.3-1.4-0.5c-1.1-0.5-1.2-1.5-1-2.5
				C255.2,167.4,256,167.1,257.1,167.1z"/>
			<path fill="#141415" d="M185.1,260.2c-0.2,1.2-0.5,2-1.7,2.2c-1.2,0.2-2.1-0.2-2.5-1.5c-1.2-4.6-2.4-9.3-3.5-13.9
				c-0.2-1,0-2,1.2-2.4c1-0.3,2.2-0.1,2.5,1C182.6,250.5,183.8,255.4,185.1,260.2z"/>
			<path fill="#131313" d="M159.2,209c0,0.7,0.1,1.4,0,2c-0.1,1.1-0.6,1.9-1.9,1.9c-1.3,0.1-2-0.6-2.1-1.8c-0.3-2.7-0.5-5.4-0.8-8.1
				c-0.1-1-0.1-2-0.2-3c-0.1-1.3,0.2-2.2,1.7-2.3c1.4,0,2.4,0.6,2.5,2.1C158.6,202.9,158.9,206,159.2,209
				C159.1,209,159.1,209,159.2,209z"/>
			<path fill="#141415" d="M123.5,29.7c0,1.5-0.3,2.4-1.6,2.7c-1.2,0.2-2.1-0.3-2.4-1.5c-0.8-3-1.7-6-2.3-9
				c-0.3-1.2-0.2-2.5,1.3-2.9c1.5-0.4,2.4,0.5,2.8,1.9C122,23.8,122.8,26.9,123.5,29.7z"/>
			<path fill="#141415" d="M177.6,232c-0.1,1.2-0.4,2.2-1.8,2.4c-1.2,0.2-2.1-0.4-2.4-1.5c-0.8-3-1.7-6-2.3-9
				c-0.3-1.2-0.3-2.6,1.4-2.9c1.6-0.3,2.4,0.7,2.7,2.1C176,226,176.8,229,177.6,232z"/>
			<path fill="#141415" d="M249.7,151.4c-3.1-0.2-6.1-0.5-9-0.7c-1.2-0.1-1.9-0.7-2-2c0-1.3,0.8-2,1.9-2c3.5,0,6.9,0.2,10.3,0.7
				c1.2,0.2,1.5,1.2,1.4,2.3C252.2,151.4,250.7,151.2,249.7,151.4z"/>
			<path fill="#131313" d="M227,84.9c0.1-0.1,0.3-0.3,0.4-0.4c1-0.2,1.6-0.9,2.4-1.4c3-2.1,6-4.2,9-6.3c1.1-0.7,2.4-1.2,3.3,0
				c0.9,1.2,0.2,2.3-1,3.1c-3.5,2.4-6.9,4.8-10.4,7.2c-1,0.7-2,1.1-3.1,0.5C226.5,87,227,85.9,227,84.9z"/>
			<path fill="#141415" d="M52.4,151.4c-1.3-0.2-2.7-0.1-2.8-2c-0.1-1.7,1-2.2,2.5-2.3c2.7-0.2,5.4-0.5,8.1-0.6c0.7,0,1.4,0.1,2,0.3
				c1,0.4,1.1,1.3,1,2.2c-0.1,1.1-0.9,1.6-1.9,1.7C58.4,151,55.4,151.2,52.4,151.4z"/>
			<path fill="#141415" d="M146.1,60.1c-0.1,1.1-0.2,2.5-1.9,2.7c-1.7,0.2-2.1-1-2.3-2.3c-0.4-2.9-0.7-5.8-0.9-8.7
				c-0.1-1.3,0.3-2.6,1.9-2.7c1.5-0.2,2,0.8,2.3,2.1C145.7,54.1,145.6,57,146.1,60.1z"/>
			<path fill="#131313" d="M31.8,106.7c3.2,0.6,6.5,1.5,9.7,2.6c1,0.3,1.4,1.2,1.2,2.3c-0.2,1.1-0.9,1.6-2,1.6c-0.7,0-1.4-0.1-2-0.3
				c-2.6-0.7-5.2-1.3-7.7-2c-1.3-0.4-1.9-1.3-1.7-2.7C29.5,106.9,30.6,106.8,31.8,106.7z"/>
			<path fill="#141415" d="M246.8,112.7c1.1,0.1,2,0.3,2.3,1.5c0.3,1.2-0.1,2.1-1.3,2.5c-3.1,1-6.3,2-9.5,2.5c-0.9,0.1-2,0-2.2-1.2
				c-0.2-1.1-0.1-2.3,1.1-2.7C240.3,114.4,243.6,113.6,246.8,112.7z"/>
			<path fill="#141415" d="M104.9,76.8c-1,0-1.6-0.5-2.1-1.3c-1.6-2.2-3.1-4.5-4.6-6.8c-0.8-1.2-1.1-2.6,0.3-3.5
				c1.3-0.9,2.5-0.1,3.3,1.1c1.5,2.2,3.1,4.4,4.5,6.6c0.6,0.9,0.9,1.9,0.4,3C106.2,76.6,105.6,76.8,104.9,76.8z"/>
			<path fill="#141415" d="M158,245.6c0-1.5,0.4-2.5,1.9-2.6c1.4-0.1,2,0.7,2.2,2c0.3,3,0.8,6,0.9,9.1c0.1,1.1-0.2,2.4-1.8,2.6
				c-1.5,0.1-2.2-0.8-2.3-2.1C158.6,251.5,158.3,248.4,158,245.6z"/>
			<path fill="#141415" d="M191.1,59.4c0.1,0.9-0.5,1.6-0.9,2.3c-1.1,2.3-2.3,4.6-3.3,6.9c-0.6,1.3-1.6,1.7-2.9,1.3
				c-1.4-0.5-1.4-1.8-0.9-2.8c1.1-2.5,2.4-4.9,3.6-7.4c0.2-0.5,0.5-1,0.8-1.5c0.5-1,1.4-1.1,2.4-0.9
				C190.8,57.6,191.1,58.4,191.1,59.4z"/>
			<path fill="#131313" d="M61.7,130.6c3.3,0.4,6.3,0.6,9.2,1c1.3,0.2,2.3,0.7,2.2,2.2c-0.2,1.6-1.5,2.1-2.7,1.9
				c-2.9-0.3-5.9-0.3-8.9-1c-1.3-0.3-2.3-0.7-2.1-2.3C59.6,130.9,60.8,130.7,61.7,130.6z"/>
			<path fill="#141415" d="M29.2,153.6c-0.4,0-0.9,0.1-1.3,0.1c-1.2-0.1-2.2-0.4-2.3-1.8c-0.1-1.5,0.7-2.2,2-2.3
				c2.9-0.3,5.8-0.7,8.7-0.9c1.2-0.1,2.4,0.1,2.6,1.7c0.2,1.6-0.8,2.3-2.1,2.5C34.3,153.1,31.8,153.3,29.2,153.6
				C29.2,153.6,29.2,153.6,29.2,153.6z"/>
			<path fill="#131313" d="M218.2,160.8c-2.7-0.7-5.8-1.4-8.8-2.3c-1.3-0.4-1.5-1.8-1.1-3c0.4-1.3,1.4-1.4,2.5-1
				c2.9,0.8,5.8,1.5,8.6,2.3c1.2,0.3,1.9,1.2,1.6,2.6C220.7,160.7,219.7,160.8,218.2,160.8z"/>
			<path fill="#131313" d="M75.4,86.2c0,1.6-1.6,2.6-3.3,1.6c-2.7-1.6-5.3-3.5-7.8-5.3c-0.9-0.7-1-1.9-0.4-2.9
				c0.6-1,1.8-1.1,2.7-0.6c2.9,1.7,5.6,3.6,8.3,5.7C75.2,85.1,75.3,85.6,75.4,86.2z"/>
			<path fill="#131313" d="M163.8,19.5c-0.2,1.7-0.4,4.2-0.7,6.6c-0.3,2-1.1,2.8-2.6,2.5c-1.7-0.4-1.7-1.7-1.6-3.1
				c0.2-2.4,0.5-4.8,0.7-7.2c0.2-2.4,0.8-3.1,2.4-3C163.6,15.4,164,16.3,163.8,19.5z"/>
			<path fill="#131313" d="M49.9,134c-2.5-0.2-5.1-0.5-7.6-0.7c-1.4-0.2-2.3-0.9-2.2-2.4c0.2-1.6,1.4-1.8,2.6-1.7
				c2.7,0.2,5.4,0.4,8.1,0.7c2.2,0.2,2.9,1,2.6,2.6c-0.3,1.8-1.7,1.6-3.1,1.6C50.2,134,50,134,49.9,134C49.9,134,49.9,134,49.9,134z
				"/>
			<path fill="#131313" d="M82.4,107c1.5,0,2.5,0.6,3.5,1c2.1,1,4.1,2.1,6.2,2.9c1.3,0.5,1.6,1.4,1.2,2.5c-0.4,1.1-1.5,1.9-2.7,1.4
				c-3-1.2-5.9-2.6-8.8-4c-1.1-0.5-1.2-1.5-1-2.6C81.1,107.3,81.8,107,82.4,107z"/>
			<path fill="#131313" d="M134.6,83.1c-0.8,0.1-1.3-0.3-1.5-1.2c-0.7-2.8-1.5-5.5-2.1-8.3c-0.3-1.3-0.2-2.6,1.5-2.9
				c1.5-0.3,2.3,0.5,2.7,1.9c0.6,2.4,1.3,4.8,1.9,7.2C137.3,81.9,136.4,83.1,134.6,83.1z"/>
			<path fill="#131313" d="M211.1,137.6c-2,0-3-0.9-3-2.4c0-1.7,1.1-1.8,2.4-1.9c1.6,0,3.2-0.3,4.8-0.4c1.4-0.1,2.7,0.1,2.9,1.8
				c0.2,1.8-1.1,2.1-2.5,2.3C214.1,137.4,212.4,137.2,211.1,137.6z"/>
			<path fill="#141415" d="M143.2,76.1c0-1.3,0.3-2.6,2-2.7c1.7-0.1,2.1,1.1,2.2,2.4c0.2,1.6,0.4,3.2,0.5,4.8
				c0.1,1.6-0.9,2.5-2.3,2.5c-1.6,0-2-0.9-2-2.3C143.6,79.3,143.3,77.7,143.2,76.1z"/>
			<path fill="#131313" d="M86.2,132.9c2.1,0.1,4,0.3,5.9,0.4c1,0.1,1.3,0.8,1.3,1.7c0.1,1.3-0.5,2.4-1.8,2.4
				c-2.3,0.1-4.6-0.1-6.8-0.7c-1.1-0.3-1.3-1.3-1.1-2.3C84,133.4,84.8,132.9,86.2,132.9z"/>
			<path fill="#171718" d="M217,170.3c0,1.6-1,2.4-2.6,2c-2-0.5-3.9-1.5-5.7-2.6c-1-0.6-0.7-1.7-0.3-2.5c0.4-0.8,1.2-1.6,2.3-1.1
				c1.8,0.7,3.5,1.6,5.2,2.4C216.6,168.9,217,169.6,217,170.3z"/>
			<path fill="#171718" d="M121.3,206.7c-1.4,0-2.2-0.9-1.9-2.5c0.4-2.2,1.6-4,2.6-5.9c0.4-0.8,1.4-0.6,2-0.1
				c0.9,0.6,1.8,1.5,1.3,2.6c-0.6,1.7-1.5,3.3-2.2,4.9C122.8,206.4,122.1,206.6,121.3,206.7z"/>
			<path fill="#171718" d="M130.1,220.2c-1.5,0-2.1-0.9-2-2.3c0.2-1.9,0.9-3.7,1.7-5.5c0.4-0.8,1.2-1,2.1-0.9
				c0.9,0.1,1.6,0.6,1.6,1.5c0.1,2.3-0.8,4.5-1.8,6.5C131.4,220.1,130.7,220.2,130.1,220.2z"/>
			<path fill="#171718" d="M98.7,26.3c0.4,0,1.1,0.1,1.4,0.6c1.1,1.8,2.2,3.6,2.6,5.7c0.1,0.8-0.3,1.6-1.2,1.9
				c-0.9,0.3-1.9,0.3-2.5-0.7c-0.8-1.5-1.7-3.1-2.2-4.7C96.2,27.6,97.1,26.4,98.7,26.3z"/>
			<path fill="#141415" d="M233.5,160.7c1.9,0.2,3.7,0.9,5.5,1.6c1,0.4,1.1,1.5,0.8,2.4c-0.3,1.1-1.3,1.5-2.2,1.3
				c-1.8-0.4-3.6-0.9-5.3-1.5c-1.1-0.4-1.2-1.5-1-2.5C231.6,160.8,232.5,160.7,233.5,160.7z"/>
			<path fill="#171718" d="M62.6,182.9c0,0.7-0.2,1.4-0.9,1.7c-1.6,0.8-3.1,1.6-4.7,2.2c-1,0.4-2.2,0.3-2.7-0.9
				c-0.4-1.3-0.2-2.5,1.3-3c1.3-0.5,2.6-1.2,3.9-1.7C61.3,180.5,62.6,181.3,62.6,182.9z"/>
			<path fill="#141415" d="M178.7,83.1c-1.8,0-2.7-1.3-1.9-2.9c0.6-1.3,1.2-2.6,1.8-3.9c0.6-1.3,1.5-2.1,3-1.5
				c1.4,0.6,1.4,1.9,0.9,3c-0.5,1.4-1.3,2.8-1.9,4.2C180.2,82.9,179.5,83.1,178.7,83.1z"/>
			<path fill="#171718" d="M124.5,231.7c0.3-1.4,0.6-3,1-4.5c0.4-1.4,1.4-1.6,2.6-1.5c1.3,0.2,1.4,1.3,1.3,2.3
				c-0.1,1.6-0.5,3.2-1,4.7c-0.4,1.3-1.2,1.9-2.5,1.6C124.7,234.1,124.6,233,124.5,231.7z"/>
			<path fill="#141415" d="M249,74.2c-1.1,0-1.8-0.1-2.2-0.9c-0.3-0.8-0.4-1.6,0.2-2.3c1.4-1.5,3.2-2.6,5.1-3.3c0.9-0.3,1.9,0,2.4,1
				c0.4,0.9,0.3,1.7-0.5,2.4C252.5,72.5,250.8,73.8,249,74.2z"/>
			<path fill="#171718" d="M117,260.2c0.4-1.6,0.7-3.3,1.1-4.9c0.3-1.2,1.3-1.7,2.4-1.5c1.2,0.2,1.6,1.1,1.6,2.2
				c-0.1,1.8-0.6,3.5-1.1,5.3c-0.4,1.1-1.3,1.4-2.4,1.2C117.3,262.2,117,261.3,117,260.2z"/>
			<path fill="#171718" d="M272.7,153.5c-1.1,0.1-2.1-0.1-3.2-0.4c-1.3-0.3-1.9-1.1-1.8-2.4c0.1-1.4,1.2-1.8,2.2-1.8
				c1.7,0,3.3,0.3,4.9,0.6c1.1,0.2,1.5,1,1.4,2.1c0,1-0.6,1.6-1.5,1.9C274.2,153.8,273.4,153.7,272.7,153.5z"/>
			<path fill="#171718" d="M201.3,37.7c-0.6,1.6-1.4,3.5-2.5,5.2c-0.5,0.8-1.5,0.7-2.4,0.4c-1-0.4-1.2-1.2-1.1-2.1
				c0.4-2,1.5-3.8,2.7-5.4c0.5-0.7,1.4-0.6,2.2-0.3C201.1,35.7,201.3,36.5,201.3,37.7z"/>
			<path fill="#171718" d="M174.8,44.1c0.4-1.6,0.7-3.3,1.1-4.9c0.4-1.3,1.4-1.7,2.6-1.4c1.2,0.3,1.5,1.3,1.3,2.3
				c-0.2,1.6-0.6,3.2-1,4.7c-0.3,1.2-1.2,1.6-2.5,1.5C175.2,46.2,174.9,45.2,174.8,44.1z"/>
			<path fill="#141415" d="M90.1,229.9c0,1.7-2.6,5.8-3.8,6.2c-0.7,0.3-1.5,0.3-2.1-0.2c-0.7-0.6-0.8-1.4-0.6-2.2
				c0.6-1.9,1.9-3.5,3.2-5c0.6-0.7,1.5-0.6,2.3-0.3C89.8,228.8,90.1,229.5,90.1,229.9z"/>
			<path fill="#171718" d="M270.1,106.7c1.5,0,2.4,0.2,2.6,1.5c0.2,1.2-0.2,2.1-1.4,2.5c-1.6,0.4-3.1,0.8-4.7,1.1
				c-1.2,0.2-2.3-0.1-2.5-1.6c-0.2-1.3,0.4-2.2,1.7-2.5C267.4,107.3,268.9,107,270.1,106.7z"/>
			<path fill="#171718" d="M119.3,77c0-1.2,0.4-1.9,1.3-2.2c0.9-0.3,1.8-0.1,2.3,0.7c1,1.6,1.8,3.3,2.3,5c0.3,1.1-0.4,2.1-1.4,2.5
				c-1.1,0.4-1.9,0.1-2.4-1.1C120.6,80.2,119.6,78.5,119.3,77z"/>
			<path fill="#171718" d="M189.5,82.8c0-1.2,3-5.4,4.2-5.7c0.8-0.2,1.6-0.2,2.2,0.5c0.6,0.7,0.7,1.7,0.2,2.4c-1,1.4-2,2.8-3.2,4.1
				c-0.6,0.7-1.5,0.8-2.4,0.4C189.7,84.2,189.5,83.6,189.5,82.8z"/>
			<path fill="#171718" d="M193.2,232.9c-1.5,0-2.1-1-2.4-2.2c-0.5-1.7-2.5-3.3-1-5.3c0.8-1,2.1-1.1,2.9,0c1.2,1.6,2.2,3.3,2.4,5.4
				C195.2,232.1,194.7,233,193.2,232.9z"/>
			<path fill="#141415" d="M246,182.9c2.1,0.6,4,1.6,5.7,2.8c0.7,0.5,0.6,1.5,0.3,2.2c-0.3,0.8-1,1.2-1.8,1.1
				c-2.3-0.3-4.1-1.6-5.9-2.8c-0.6-0.4-0.6-1.3-0.3-2.1C244.4,183.3,245,182.9,246,182.9z"/>
			<path fill="#131313" d="M232.5,104.5c-0.9,0-1.6-0.3-1.8-1.2c-0.3-1.1-0.1-2.1,0.9-2.6c1.6-0.8,3.3-1.5,5-2
				c0.9-0.3,1.8,0,2.2,0.9c0.4,0.9,0.3,1.7-0.3,2.4C237.8,102.7,233.5,104.5,232.5,104.5z"/>
			<path fill="#171718" d="M34.2,130.1c-0.1,1.8-1.2,2.2-2.5,2.2c-1.4,0-2.8-0.4-4.2-0.6c-1.2-0.2-1.9-0.8-1.9-2.1c0.1-1.3,1-2,2-2
				c1.8,0,3.7,0.1,5.5,0.8C33.9,128.8,34.2,129.4,34.2,130.1z"/>
			<path fill="#171718" d="M69.5,164.7c-1.4-0.1-2.4-0.2-2.6-1.5c-0.1-1.1,0.1-2.1,1.4-2.5c1.4-0.4,2.9-0.8,4.3-1
				c1.2-0.2,2.3,0.1,2.6,1.5c0.3,1.3-0.4,2.2-1.6,2.5C72.2,164,70.7,164.4,69.5,164.7z"/>
			<path fill="#171718" d="M132,203.1c0.3-1.2,0.7-2.9,1.2-4.5c0.2-0.8,0.8-0.8,1.5-0.8c1.1,0,1.8,0.5,2.2,1.5
				c0.5,1.2-0.5,5.5-1.5,6.3c-0.7,0.6-1.5,0.7-2.3,0.3C132.2,205.4,132,204.5,132,203.1z"/>
			<path fill="#171718" d="M263,195c-1.8-0.4-3.7-1.2-5.4-2.6c-0.7-0.5-0.8-1.4-0.5-2.2c0.4-0.9,1.2-1.3,2.1-1.1
				c1.9,0.4,3.6,1.3,5.2,2.3c0.8,0.5,0.9,1.5,0.6,2.3C265,194.7,264.2,195,263,195z"/>
			<path fill="#141415" d="M108.7,45.7c0,0.9-0.3,1.7-1.2,1.9c-0.9,0.3-1.9,0.3-2.4-0.7c-0.8-1.5-1.6-2.9-2.2-4.5
				c-0.4-1-0.4-2.3,1-2.8c1.3-0.4,2.3-0.1,2.8,1.3C107.3,42.6,108.6,43.9,108.7,45.7z"/>
			<path fill="#141415" d="M106.6,240.4c-0.4,1.6-1.3,3.5-2.6,5.2c-0.6,0.8-1.5,0.7-2.4,0.3c-0.8-0.4-1.1-1.2-0.9-2
				c0.4-1.9,1.4-3.5,2.4-5.2c0.5-0.9,1.6-0.8,2.5-0.5C106.5,238.4,106.6,239.1,106.6,240.4z"/>
			<path fill="#171718" d="M108.7,232.9c-1.2-0.1-1.9-0.7-1.8-1.9c0.1-2.2,1.3-4,2.5-5.7c0.5-0.8,1.5-0.8,2.4-0.4
				c0.8,0.3,1.2,1,1,1.8c-0.3,2.1-1.5,3.9-2.6,5.7C109.9,232.9,109.3,233,108.7,232.9z"/>
			<path fill="#171718" d="M88.1,159.7c-1.2,0-2.1-0.3-2.3-1.6c-0.2-1.2,0.3-2.1,1.5-2.4c1.2-0.4,2.4-0.6,3.6-1
				c1-0.3,1.9-0.5,2.4,0.7c0.5,1.2,0.4,2.5-0.9,3.1C91,159,89.6,159.6,88.1,159.7z"/>
			<path fill="#141415" d="M90.8,126.6c-1.3-0.2-2.6-0.4-3.8-0.9c-1.1-0.5-1.4-1.4-1.3-2.4c0.2-1.1,1-1.5,2-1.5
				c1.6,0.1,3.2,0.5,4.7,1c1.3,0.4,1,1.5,0.8,2.4C93,126.4,92,126.7,90.8,126.6z"/>
			<path fill="#8992B2" d="M227,84.9c0,1-0.5,2.1,0.6,2.7c1.1,0.7,2.2,0.2,3.1-0.5c3.5-2.4,6.9-4.8,10.4-7.2c1.2-0.8,1.9-1.9,1-3.1
				c-0.9-1.2-2.3-0.7-3.3,0c-3,2.1-6,4.2-9,6.3c-0.8,0.5-1.4,1.2-2.4,1.4c0.5-1.4,1.9-1.8,3-2.6c2.6-1.9,5.3-3.7,7.9-5.6
				c1.5-1.1,3.6-1,4.4,0.1c0.9,1.3,0.4,2.8-1.4,4.1c-3.4,2.3-6.7,4.7-10.1,7c-0.7,0.5-1.4,0.9-2.2,1c-1,0.1-1.9-0.1-2.4-1.1
				C226.2,86.6,225.8,85.6,227,84.9z"/>
			<path fill="#5C698C" d="M201.6,135.8c0-8.1,0-16.2,0-24.2c0-0.7-0.5-1.7,0.8-1.9c0.2,9.1,0.2,18.2,0,27.3c-0.3,0-0.6,0-0.8,0
				C201.6,136.5,201.6,136.1,201.6,135.8z"/>
			<path fill="#5C698C" d="M54.7,164.4c1.4,0,2.2,0.6,2.2,2.1c0,1.4-0.7,2.2-2.1,2.4c-1.3,0.1-2.4-1-2.4-2.3
				C52.5,165.2,53.3,164.4,54.7,164.4z"/>
			<path fill="#1F1F20" d="M180.7,200.1c0,1.2-0.6,1.9-1.9,2c-1.3,0-2.5-1.1-2.4-2.3c0.1-1.3,1-1.9,2.3-2
				C180.3,197.7,180.5,198.8,180.7,200.1z"/>
			<path fill="#1F1F20" d="M109.6,202.4c0,1.3-0.7,1.9-2,2c-1.2,0-2.1-0.5-2.1-1.9c0-1.3,0.7-2.1,2.1-2.1
				C109,200.4,109.6,201.2,109.6,202.4z"/>
			<path fill="#1F1F20" d="M113.1,63.6c0-1.5,0.9-2.1,2.2-2.1c1.2,0,1.9,0.8,1.9,2c0,1.2-0.7,1.9-1.9,2
				C113.8,65.5,113.2,64.8,113.1,63.6z"/>
			<path fill="#1F1F20" d="M128.5,49.1c0,1.1-0.6,1.8-1.9,1.9c-1.3,0-2-0.6-2-1.9c-0.1-1.2,0.5-2.1,1.8-2.2
				C127.6,46.9,128.5,47.5,128.5,49.1z"/>
			<path fill="#1F1F20" d="M40.6,193.1c0,1.3-0.7,2-2,2c-1.2,0-2.1-0.7-2.1-1.9c0-1.3,0.8-2.1,2.1-2.1
				C40,191.1,40.5,191.9,40.6,193.1z"/>
			<path fill="#1F1F20" d="M93.9,61c-1.2-0.1-2.1-0.5-2.2-1.8c-0.1-1.3,0.6-2.2,1.9-2.2c1.3,0,2.1,0.7,2.1,2
				C95.9,60.3,95.1,60.8,93.9,61z"/>
			<path fill="#1F1F20" d="M57.2,73.2c1.3,0,2,0.6,2.1,1.8c0,1.2-0.6,2-1.9,2.1c-1.3,0.1-2.1-0.6-2.2-2
				C55.2,73.9,55.9,73.2,57.2,73.2z"/>
			<path fill="#1F1F20" d="M144.3,240c0.1,1.3-0.5,2.1-1.8,2.1c-1.3,0-2.1-0.6-2.2-2c0-1.4,0.7-2,2-2.1
				C143.7,238.1,144.3,238.7,144.3,240z"/>
			<path fill="#1F1F20" d="M255.2,133.6c-1.3,0.1-2-0.7-2-1.9c0-1.2,0.5-2,1.9-2c1.3,0,2.1,0.5,2.1,1.8
				C257.3,132.8,256.6,133.6,255.2,133.6z"/>
			<path fill="#1F1F20" d="M97,216.3c1,0.1,1.6,0.9,1.5,2.1c-0.1,1.4-1,1.9-2.3,1.8c-1.4-0.1-1.7-1-1.7-2.2
				C94.6,216.7,95.5,216.2,97,216.3z"/>
			<path fill="#1F1F20" d="M43.2,168.9c0.2-1.4,0.9-1.9,2.1-1.9c1.2,0.1,2,0.8,1.9,2c-0.1,1.3-0.9,2-2.2,1.9
				C43.7,170.9,43.3,170.1,43.2,168.9z"/>
			<path fill="#1F1F20" d="M119.2,213.4c-0.1,1.3-0.9,1.9-2.1,1.8c-1.2,0-2-0.7-2-2c0-1.4,0.8-2,2.2-1.9
				C118.6,211.4,119.2,212.1,119.2,213.4z"/>
			<path fill="#1F1F20" d="M249.2,166.5c0,1.3-0.8,2-1.9,2.1c-1.3,0.1-1.9-0.7-2-2c0-1.3,0.6-2,1.9-2
				C248.4,164.6,249.2,165.2,249.2,166.5z"/>
			<path fill="#1F1F20" d="M197,204.5c1.2,0.1,2,0.6,2.1,1.9c0,1.3-0.7,2.1-2.1,2.1c-1.3,0-1.9-0.8-1.9-2
				C195.1,205.2,195.8,204.6,197,204.5z"/>
			<path fill="#1F1F20" d="M102.2,212.4c-1.2-0.1-2-0.7-2-2c0-1.3,0.7-2,2-2c1.3,0,2,0.6,2,1.9C104.2,211.6,103.4,212.2,102.2,212.4
				z"/>
			<path fill="#1F1F20" d="M263.1,86.3c1.5,0,2.2,0.6,2.2,1.9c0,1.3-0.5,2-1.9,2c-1.3,0-2.1-0.6-2.1-2
				C261.3,86.9,262.1,86.4,263.1,86.3z"/>
			<path fill="#1F1F20" d="M276.4,129.8c-0.1,1.4-0.8,1.9-2.1,1.9c-1.3,0-1.9-0.8-1.8-2c0.1-1.3,0.8-2,2-1.9
				C275.8,127.8,276.4,128.6,276.4,129.8z"/>
			<path fill="#1F1F20" d="M131,58.5c-0.1,1.4-0.8,2.1-2.2,2c-1.4-0.1-1.8-0.9-1.7-2.1c0-1.3,0.7-1.9,2-1.9
				C130.4,56.6,131,57.3,131,58.5z"/>
			<path fill="#1F1F20" d="M77.9,242.3c0.1-1.3,0.8-1.9,2-1.9c1.2,0,2,0.7,1.9,2c-0.1,1.2-0.6,2.1-1.9,2
				C78.6,244.4,78.1,243.5,77.9,242.3z"/>
			<path fill="#1F1F20" d="M185,21.1c-0.1,1.4-1.1,1.6-2.2,1.6c-1.4-0.1-1.8-0.9-1.7-2.1c0.1-1.3,0.9-1.9,2.2-1.8
				C184.6,18.9,185,19.8,185,21.1z"/>
			<path fill="#1F1F20" d="M199.8,69c1.1,0.1,2,0.4,2,1.8c0,1.4-0.6,2.1-1.9,2.2c-1.3,0.1-2.1-0.6-2.1-2
				C197.8,69.7,198.5,69.1,199.8,69z"/>
			<path fill="#1F1F20" d="M47.5,191c-1.3-0.1-2-0.7-2-2c0-1.3,0.7-1.9,2-1.9c1.3,0,2,0.6,2,1.9C49.5,190.2,48.8,191,47.5,191z"/>
			<path fill="#1F1F20" d="M73.7,193.2c1.2,0.1,1.7,0.9,1.7,2.2c-0.1,1.3-0.9,1.8-2.2,1.7c-1.4-0.1-1.8-0.9-1.7-2.1
				C71.6,193.6,72.3,193.1,73.7,193.2z"/>
			<path fill="#1F1F20" d="M247.4,132.9c0.1,0.9-0.7,1.5-2,1.5c-1.2,0-2-0.5-2-1.9c0-1.2,0.5-2,1.9-2.1
				C246.6,130.4,247.3,131.1,247.4,132.9z"/>
			<path fill="#1F1F20" d="M33.1,172.6c0,1.2-0.5,2.1-1.8,2.1c-1.2,0-2-0.5-2.1-1.8c-0.1-1.3,0.5-2.1,1.9-2.2
				C32.4,170.6,33,171.3,33.1,172.6z"/>
			<path fill="#1F1F20" d="M160,220.4c-0.1,1.5-0.8,2.1-2.1,2.1c-1.3,0-1.9-0.8-1.9-2c0-1.3,0.8-1.9,2.1-1.9
				C159.4,218.6,160,219.4,160,220.4z"/>
			<path fill="#1F1F20" d="M123,248.3c-1.6,0-2.4-0.6-2.4-1.9c0-1.3,0.8-1.9,2-1.9c1.2,0,2,0.6,2,1.9
				C124.6,247.7,123.9,248.4,123,248.3z"/>
			<path fill="#1F1F20" d="M124,37.7c1.3,0.1,2,0.7,2,2c0,1.4-0.8,2-2.1,2c-1.3,0-1.8-0.8-1.8-2C122.1,38.3,122.8,37.7,124,37.7z"/>
			<path fill="#1F1F20" d="M100.5,253c0.1,1.4-0.7,2-1.9,2c-1.3,0-2-0.7-2-1.9c0-1.2,0.5-2,1.9-2C99.8,251,100.6,251.6,100.5,253z"
				/>
			<path fill="#1F1F20" d="M38.6,90.2c-1.3,0-1.9-0.7-1.9-1.9c0-1.4,0.7-2,2.1-2c1.3,0,1.8,0.8,1.8,2C40.6,89.6,39.9,90.3,38.6,90.2
				z"/>
			<path fill="#1F1F20" d="M216.8,96.6c-1.3-0.1-1.9-0.7-1.9-2c0-1.3,0.6-1.9,2-1.9c1.3,0,1.9,0.8,2,2
				C218.9,95.9,218,96.5,216.8,96.6z"/>
			<path fill="#1F1F20" d="M260,152.2c-1.3,0-2-0.7-2-2c0-1.3,0.6-2,1.9-2c1.3,0,2,0.6,2,1.9C262,151.5,261.2,152.1,260,152.2z"/>
			<path fill="#1F1F20" d="M228.2,174.6c1.3,0.1,2,0.8,1.9,2.1c-0.1,1.3-0.8,1.9-2.1,1.9c-1.3,0-1.9-0.8-1.9-2.1
				C226.2,175.1,227,174.6,228.2,174.6z"/>
			<path fill="#1F1F20" d="M81.9,38.9c-0.1,1.3-0.7,2.1-2,2.1c-1.3,0-2-0.7-2-1.9c0-1.3,0.7-2,2-2C81.2,36.9,81.8,37.7,81.9,38.9z"
				/>
			<path fill="#1F1F20" d="M162.1,262.2c1.3,0.1,1.9,0.8,1.8,2.1c-0.1,1.3-0.9,1.9-2.1,1.8c-1.4-0.1-2-0.9-1.9-2.2
				C160,262.6,160.9,262.1,162.1,262.2z"/>
			<path fill="#1F1F20" d="M49.3,71.6c-1.3-0.1-2.1-0.8-2-2c0-1.2,0.8-1.9,2-1.9c1.3,0,1.9,0.7,1.9,2C51.3,71,50.5,71.5,49.3,71.6z"
				/>
			<path fill="#1F1F20" d="M141.1,256.6c-1.3,0-1.9-0.7-2-1.9c-0.1-1.3,0.6-2,1.9-2c1.2,0,2,0.6,2,1.9
				C143,255.7,142.4,256.6,141.1,256.6z"/>
			<path fill="#1F1F20" d="M161,230.4c-0.1,1.3-0.8,1.9-2,1.9c-1.3,0-1.9-0.7-1.9-2c0-1.4,0.7-2.1,2.1-2
				C160.4,228.4,161,229.1,161,230.4z"/>
			<path fill="#1F1F20" d="M265.1,128.8c1,0,1.8,0.6,1.8,1.9c0,1.3-0.8,2-2,2c-1.3,0-2-0.7-2-1.9
				C262.9,129.5,263.6,128.7,265.1,128.8z"/>
			<path fill="#1F1F20" d="M182.4,30.7c0,0.9-0.6,1.6-1.9,1.6c-1.3,0-2.1-0.7-2.1-2c0-1.3,0.7-1.9,2-1.9
				C181.8,28.4,182.4,29.1,182.4,30.7z"/>
			<path fill="#1F1F20" d="M224,38.9c0,1.3-0.6,2-2,2c-1.3,0-1.9-0.7-1.9-2c0-1.3,0.6-2,1.9-2C223.4,37,224,37.7,224,38.9z"/>
			<path fill="#171718" d="M93.4,102.2c-1.5,0-2.2-0.7-2.2-2c0-1.2,0.6-1.9,1.8-1.9c1.3,0,2,0.6,2.1,1.9
				C95.1,101.5,94.4,102.1,93.4,102.2z"/>
			<path fill="#1F1F20" d="M142,264.1c0,1.3-0.6,2-1.9,2c-1.2,0-2-0.7-2-1.9c0-1.2,0.6-1.9,2-2C141.4,262.2,142,262.8,142,264.1z"/>
			<path fill="#1F1F20" d="M237,178.9c1.3,0,2,0.6,2,1.9c0.1,1.3-0.7,2-1.9,2c-1.2,0-2-0.6-2-1.9C235.1,179.7,235.7,178.9,237,178.9
				z"/>
			<path fill="#1F1F20" d="M85.1,184.8c1.3,0,2,0.5,2,1.8c0,1.2-0.6,2-1.8,2.1c-1.3,0.1-2-0.7-2-1.9
				C83.2,185.7,83.7,184.8,85.1,184.8z"/>
			<path fill="#6A7BA3" d="M99.2,94.3c2.9-0.3,5.8-1.1,8.8-1.3c0.6,0,1.4-0.4,1.5,0.4c0.2,0.9-0.8,1-1.3,1c-3,0-6,1-9,1
				c0-0.1,0-0.3,0.1-0.4c0,0,0.1-0.1,0.1-0.1c0-0.1-0.1-0.2-0.1-0.2C99.3,94.5,99.3,94.4,99.2,94.3z"/>
			<path fill="#5D6E93" d="M201.6,136.9c0.3,0,0.6,0,0.8,0c0,5.5,0,11,0,16.4c-0.3-0.1-0.5-0.3-0.8-0.4
				C201.6,147.6,201.6,142.2,201.6,136.9z"/>
			<path fill="#8992B2" d="M110.7,56.9c-1.4,0.1-2.1-0.8-2.2-2.3c-0.1-1.3,1.1-2.5,2.3-2.4c1.4,0.1,2.3,0.8,2.3,2.4
				C113.1,56.2,112.4,56.9,110.7,56.9z M110.5,53c-0.7,0-1.3,0.5-1.4,1.6c0,1,0.5,1.6,1.5,1.7c1.1,0.1,1.8-0.4,1.9-1.5
				C112.6,53.7,112.1,53,110.5,53z"/>
			<path fill="#ACB1BD" d="M66.6,117.4c-0.1,1.5-1.2,2.3-2.8,2.2c-1.4-0.1-2.3-1.2-2.2-2.6c0.1-1.4,1.2-2.3,2.7-2.2
				C65.7,114.9,66.7,116.1,66.6,117.4z M64.1,119c1.2,0,1.7-0.6,1.7-1.8c0-1.2-0.5-1.8-1.8-1.8c-1.3,0.1-1.7,0.8-1.7,2
				C62.3,118.6,63,119,64.1,119z"/>
			<path fill="#ACB1BD" d="M86.6,52.4c-1-1-1-2.5,0-3.4c1.1-0.9,2.5-0.7,3.4,0.4c1,1.2,0.8,3.1-0.5,3.7
				C88.5,53.6,87.2,54.2,86.6,52.4c0.5,0.1,1.1,0.3,1.6,0.4c0.8,0,1.4-0.3,1.7-1.1c0.2-0.8,0.1-1.5-0.5-2c-0.6-0.5-1.4-0.6-2.1-0.2
				C85.9,50.1,86.6,51.4,86.6,52.4z"/>
			<path fill="#ACB1BD" d="M211.4,78.2c1.6-0.1,2.1,0.9,2.1,2.3c0,1.5-1,2.5-2.4,2.5c-1.4,0-2.4-1.1-2.4-2.6
				C208.8,79,209.7,78.1,211.4,78.2z M211.3,82.4c1.1,0,1.5-0.8,1.6-1.9c0-1.1-0.6-1.7-1.7-1.7c-1.1,0-1.8,0.6-1.8,1.7
				C209.4,81.5,209.8,82.4,211.3,82.4z"/>
			<path fill="#ACB1BD" d="M205.8,28.1c0,1.6-0.7,2.5-2.2,2.6c-1.5,0.1-2.6-0.8-2.6-2.2c-0.1-1.5,1-2.6,2.5-2.6
				C205,25.9,205.7,26.8,205.8,28.1z M205.1,28.5c0-1.2-0.5-1.9-1.6-2c-1.2-0.1-1.9,0.6-1.9,1.8c0,1.1,0.7,1.7,1.8,1.7
				C204.5,30.1,205.1,29.6,205.1,28.5z"/>
			<path fill="#6D7FA7" d="M100,139.1c-0.3,1.2-0.5-0.3-0.8,0c0-1.5,0-3,0-4.5c0.5,0,0.7-0.2,0.8-0.7c0.5-0.1,1-0.3,1.5-0.4
				c-0.7,1.4,0.2,2.7,0,4.1C100.9,138,100,138.1,100,139.1z"/>
			<path fill="#ACB1BD" d="M99.2,144.3c0.7,1.6,0.7,3.3,0,4.9C98.7,147.6,98.7,145.9,99.2,144.3z"/>
			<path fill="#ACB1BD" d="M201.7,191.5c0.3-0.9-0.1-2,0.9-2.7C202.9,189.9,203.1,191,201.7,191.5z"/>
			<path fill="#ACB1BD" d="M100,191.4c0.6,0,1.2,0.2,1.5,0.8C100.7,192.6,100.2,192.2,100,191.4z"/>
			<path fill="#ACB1BD" d="M201,89.2c-0.4,0.2-0.7,0.1-0.9-0.3C200.6,88.5,200.8,88.8,201,89.2z"/>
			<path fill="#ACB1BD" d="M202.4,90.5c-0.6,0-0.7-0.4-0.6-0.9C202.2,89.8,202.4,90.1,202.4,90.5z"/>
			<path fill="#ACB1BD" d="M99.4,190.6c0.4,0.1,0.6,0.4,0.6,0.9C99.4,191.4,99.2,191.1,99.4,190.6z"/>
			<path fill="#ACB1BD" d="M101.5,88.9c-0.2,0.4-0.5,0.5-0.9,0.3C100.8,88.8,101,88.5,101.5,88.9z"/>
			<path fill="#5C698C" d="M99.3,94.7c0,0.1,0.1,0.2,0.1,0.2c0,0-0.1,0.1-0.1,0.1C99.3,94.9,99.2,94.8,99.3,94.7z"/>
			<path fill="#7B88AE" d="M102.6,151.3c-0.1-1,0.3-1.7,1.2-2c0.3-0.1,0.7-0.2,0.8-0.5c1.5-2.9,4.2-1.6,6.4-1.8
				c2.7-0.2,5.2,1.7,7.9,0.7c0.6-0.2,1.2,0.3,1.7,0.6c0.8,0.5,1.7,0.8,2.6,0.8c1.8,0.1,2.5-0.9,1.7-2.5c-1.3-2.7-1.6-5.4-0.4-8.1
				c0.3-0.7-0.2-1-0.7-1.3c-0.5-0.3-1.1-0.4-1.6-0.3c-2,0.2-3.4-0.2-4.1-2.4c-0.6-1.9-3.9-2.3-5.6-1c-0.9,0.7-0.5,1.2,0.3,1.5
				c0.9,0.3,1.9,0.6,2.9,0.8c0.9,0.2,1.8,0.4,2.1,1.3c0.3,0.9-0.4,1.6-1,2.3c-2,2.5-4.9,3.3-7.9,3.5c-0.9,0.1-2,1.1-2.7-0.2
				c-0.6-1.1-0.2-2.2,0.7-3.2c0.5-0.5,1.2-1.3,0.7-2.1c-0.6-0.8-1.6-0.9-2.6-0.7c-0.9,0.2-1.8,0.7-2.7,1.1c0-0.9,0.7-1.3,1.2-1.7
				c1.9-1.4,3.1-3.4,4.4-5.4h0c0.4,0,0.9,0,1.3-0.1c3.8-1.1,7.5-2.5,11.1-4c1.4-0.6,2.7-0.6,3.5,0.9c0.3,0.6,0.9,0.8,1.5,1
				c3.6,1.1,6.3-1.1,9.1-2.6c1.6-0.9,3.2-1.6,5-1.9c0.8-0.1,2,0,2,0.9c-0.1,2.4,1.4,2.2,2.9,2.1c0.5,0,1,0.2,1.4,0.5
				c1.2,0.9,2.5,1,3.8,0.5c1.4-0.5,2.8-0.5,3.8,0.6c1.1,1.1-0.5,2.8,0.4,4.1c0.1,0.2-0.5,0.6-1,0.6c-1.5,0.1-2.6-0.5-2.9-2.2
				c-0.9,1.2-2.1,1.8-3.2,1.8c-2.2-0.1-4.3,0.4-6.7-0.2c-3.7-0.9-7.4,1.1-11.1,1.2c-1.2,0-2,1.3-1.8,2.6c0.1,1,0.8,1.9,1.9,1.6
				c1.8-0.5,3.7,0.2,5.5-0.9c0.6-0.4,1.3,0.1,1.7,0.7c0.4,0.7-0.1,0.9-0.7,1.2c-0.6,0.3-0.6,0.9-0.6,1.5c0,1.4-0.3,2.4-1.9,1.2
				c-0.4-0.3-0.9-0.4-1.2,0c-0.8,1-1.8,0.8-2.9,0.6c-1.5-0.2-2.4,0.8-3.1,1.7c-0.7,0.8,0.6,1.3,0.9,2c0.1,0.2,0.3,0.4,0.4,0.6
				c1.9,3.2,6.6,2.3,8.8,0.5c0.3-0.3,0.6-0.7,0.4-1.1c-0.6-1.4,0-2.5,0.4-3.8c0.7-1.9,2-2.3,3.6-1c0.4,0.4,0.8,0.8,1.5,0.7
				c1.8-0.2,3.7-0.3,5.4-0.7c2-0.5,3.7,0.3,5.2,0.9c2.7,1.2,3.8,1.3,5.6-1.3c0.2-0.3,0.5-0.8,1-0.7c0.3,0.1,0.6,0.4,0.6,0.7
				c-0.2,1.6,0.9,2.6,1.6,3.8c1.2,2,2,2.3,3.8,0.7c0.8-0.7,1.6-1.1,2.5-1.6c0.4-0.2,1-0.7,1.3-0.1c0.3,0.4-0.2,0.9-0.5,1.3
				c-0.7,0.7-1.5,1.2-2.1,2c-2.1,2.5-5,2.7-7.6,0.7c-0.8-0.6-1.7-1.2-2.6-1.4c-2.1-0.4-4.2-0.5-6,0.8c-0.4,0-0.7,0-1.1,0
				c-0.7,0-1.5,0.1-2.2,0c-1.3-0.2-2.5,0.4-3.8,0.2c-1.4-0.2-1,1.5-1.3,2.3c-0.5,1.3-0.9,2.5-2.6,1.8c-1.6-0.7-3.1-0.3-4.6,0.3
				c-0.9,0.4-1.8,0.7-2.8,0.4c-1.1-0.3-2.4-0.5-3.5,0.1c-1.2,0.7-2,0.5-3.1-0.2c-1.4-1-2.9-1.6-4.5-0.3c-0.6,0.5-1.5,0.4-2.1-0.1
				c-1.7-1.5-3.7-1.1-5.7-1.1c-1.1,0-1.9,0.4-2.3,1.5c-0.2,0.5-0.6,0.7-1.1,0.8c-1,0.3-1.6-0.9-2.6-0.8c-0.2-0.8-0.5-1-1.1-0.4
				C104.4,151.4,103.5,151.4,102.6,151.3z"/>
			<path fill="#7183AB" d="M149.7,146.9c1.9-1.3,4-1.3,6-0.8c0.9,0.2,1.8,0.8,2.6,1.4c2.5,2,5.5,1.8,7.6-0.7c0.7-0.8,1.5-1.3,2.1-2
				c0.3-0.4,0.8-0.9,0.5-1.3c-0.3-0.6-0.9-0.1-1.3,0.1c-0.9,0.4-1.8,0.9-2.5,1.6c-1.7,1.6-2.6,1.4-3.8-0.7c-0.7-1.2-1.8-2.2-1.6-3.8
				c0-0.3-0.2-0.6-0.6-0.7c-0.5-0.1-0.8,0.3-1,0.7c-1.8,2.6-2.8,2.5-5.6,1.3c-1.4-0.6-3.1-1.4-5.2-0.9c-1.7,0.4-3.6,0.5-5.4,0.7
				c-0.6,0.1-1-0.3-1.5-0.7c-1.6-1.3-3-0.9-3.6,1c-0.4,1.2-1,2.4-0.4,3.8c0.2,0.5-0.1,0.9-0.4,1.1c-2.1,1.8-6.9,2.7-8.8-0.5
				c-0.1-0.2-0.3-0.4-0.4-0.6c-0.3-0.7-1.6-1.2-0.9-2c0.7-0.9,1.7-1.9,3.1-1.7c1,0.2,2,0.4,2.9-0.6c0.3-0.3,0.8-0.2,1.2,0
				c1.7,1.1,1.9,0.1,1.9-1.2c0-0.6,0-1.2,0.6-1.5c0.6-0.2,1.1-0.4,0.7-1.2c-0.4-0.6-1.1-1.1-1.7-0.7c-1.7,1.1-3.7,0.3-5.5,0.9
				c-1.1,0.3-1.8-0.5-1.9-1.6c-0.2-1.4,0.6-2.6,1.8-2.6c3.8-0.1,7.4-2.1,11.1-1.2c2.3,0.6,4.4,0,6.7,0.2c1.1,0.1,2.3-0.5,3.2-1.8
				c0.3,1.7,1.3,2.3,2.9,2.2c0.5,0,1.1-0.4,1-0.6c-0.9-1.3,0.7-3-0.4-4.1c-1-1.1-2.4-1.1-3.8-0.6c-1.4,0.5-2.7,0.4-3.8-0.5
				c-0.4-0.3-0.8-0.5-1.4-0.5c-1.5,0.1-3,0.3-2.9-2.1c0-0.9-1.2-1-2-0.9c-1.8,0.3-3.3,1-5,1.9c-2.8,1.5-5.5,3.6-9.1,2.6
				c-0.6-0.2-1.2-0.4-1.5-1c-0.8-1.6-2.1-1.5-3.5-0.9c-3.6,1.5-7.3,3-11.1,4c-0.4,0.1-0.9,0.1-1.3,0.1c0.7-1,1.9-1.4,2.9-1.8
				c2.6-1.2,5.9-0.5,8-3.1c0.2-0.2,0.9-0.3,1.2-0.2c1.2,0.4,2.2-0.2,3.2-0.6c2.1-0.8,3.6-2.7,5.9-3c0.4-0.1,0.8-0.4,0.8-0.9
				c0.2,0,0.5,0,0.7,0c0.6,0.6,0.7,0.1,0.7-0.4c0.5,0,1,0,1.5,0c0.7,1.1,0.2,1.6-0.9,2c-1.2,0.4-2.3,0.9-3.4,1.5
				c-0.7,0.4-1.1,1.2-0.9,2.1c0.3,1,1.1,0.4,1.7,0.4c2.6,0.2,4.2-1.9,6.3-2.8c0.6-0.3,0.5-0.7,0-1.2c-1.2-1-1.1-1.5,0.5-2
				c0.7-0.2,1.4-0.3,1.5-1.1c0.7,0,1.5,0,2.2,0c0.4,1.2,1.4,1,2.3,1.1c1,0.1,1.4,0.3,1.2,1.5c-0.4,1.7,0.9,3.5,2.5,3.2
				c2.3-0.5,4.5,0.4,6.8-0.1c3.3-0.7,5.4,0.3,7.2,3.3c0.4,0.6,0.3,1.2-0.1,1.7c-1.3,1.4-0.3,1.6,0.9,1.7c0.9,0.1,1.6-0.2,2.4-0.8
				c1.3-1,2.9-1.5,4.4-0.6c0.9,0.6,1.5,0.5,2.4,0.2c0.7-0.3,1.9-1,2.4-0.2c0.7,1.2,1,2.6,1.6,3.9c0.3,0.6-0.3,1.8-0.7,2.6
				c-0.5,1.1-2.1,1.3-2.5,0.1c-1-3.5-3.3-3.2-5.9-2.2c-0.1,0-0.1,0-0.2,0c-1.3,0.2-1.5,1-1.2,2.2c0.4,1.6,1.9,2.1,2.9,2.9
				c0.7,0.6,1.1,0.7,1.5-0.3c0.4-1.1,1.8-1.5,2.3-0.9c1.4,1.6,2.9,1.4,4.8,1.7c2.2,0.3,4.5,1.4,6,3.5c0.8,1.1,0.7,1.7-0.3,2.2
				c-1.8,0.9-3.4,1.5-5.4-0.1c-2.3-1.9-6.6-1-7.8,1.3c-0.2,0.7-0.5,1.5-0.7,2.2c-0.1,1.2,1,2.1,0.7,3.2c-0.5,2-0.5,3.9,0.4,5.8
				c-0.2,0-0.5,0-0.7,0c-2.1-0.8-2.6-2.6-3.2-4.6c-0.5-1.5-2-2.8-4-3.5c-1.5-0.5-3.1-1.4-4.4-2.3c-0.8-0.5-1.5-0.8-2.4-0.8
				C151.8,147,150.7,146.9,149.7,146.9z M158.3,137.6c1.1,0,2-0.4,2-1.4c0-1.1-1.1-1.8-2.1-1.9c-0.9-0.1-1.8,0.3-1.7,1.4
				C156.6,136.9,157.4,137.5,158.3,137.6z M163.4,143.6c0.9-0.2,2-0.4,2.3-1.6c0.1-0.6-0.4-0.7-0.9-0.6c-1.1,0.1-2.1,0.8-2.6,1.7
				C161.9,143.6,162.8,143.5,163.4,143.6z"/>
			<path fill="#6A7BA3" d="M166.5,149.2c0.2-0.7,0.5-1.5,0.7-2.2c1.3-0.4,2.6-0.6,3.9-0.3c1,0.2,1.9,0.6,1.5,2c-0.2,1,0.3,2,1.6,2
				c0.5,0,0.9,0.3,1.3,0.6c2.6,2.2,2.6,2.2,4.6-0.5c1.1-1.5,3.4-2.2,4.1-1.1c0.8,1.3,2,1.4,3.3,1.8c1.6,0.5,2.1,0,2.2-1.6
				c0.1-1.2-1.3-2.3-0.5-3.3c0.8-1,2.4-0.1,3.5-0.8c0.3-0.2,1,0,0.9-0.7c-0.1-0.6-0.6-0.5-1-0.4c-1.8,0.4-2-0.5-1.7-1.9
				c0.2-0.8,0.2-1.5-0.3-2.3c-0.8-1.4-1.1-2.9,0.3-4.2c0.3-0.3,0.8-0.9,0.2-1.5c-0.6-0.5-0.9,0.1-1.2,0.4c-0.3,0.2-0.6,0.5-1,0.3
				c-0.5-0.3-0.1-0.6-0.1-1c0.1-1.1,0.2-2.4-1.1-2.9c-3-1.2-6-2.5-9.2-2.8c-0.7-0.1-1.5-0.3-1.9-0.7c-1.4-1.5-3.2-2-5.1-2.1
				c-4.4-0.3-8.3-3.5-13-2c-0.1,0-0.3,0-0.4,0c-2.5-0.5-5-1.1-7.5,0c-0.4,0.2-0.9,0.1-1.2-0.4c-0.3-0.4,0.1-0.7,0.4-0.9
				c0.6-0.6,0.3-1.2,0-1.9c-0.3-0.9-1.3-1.3-1.4-2.4c0.7,0,1.5,0,2.2,0c0.8,0,1.4,0.2,1.8,0.9c1,1.7,2.3,2.7,4.6,2.2
				c1.2-0.3,2.4,0.5,3.7,0.7c2,0.3,4-0.4,6,0.2c0.5,0.2,1.1,0.1,1.6-0.3c1.6-1.1,3.3-1.1,5.2-0.5c5.9,1.8,11.6,4,17,7.1
				c2.6,1.5,5.3,2.9,7.5,5c0.9,0.9,2.2,1.2,3.4,1.8c0,0.4,0,0.7,0,1.1c0,5.4,0,10.7,0,16.1c-0.4,0.8-0.8,0.7-1.5,0.3
				c-4.9-2.9-11.2,1-12.7,4.7c-0.6,1.5-1.6,1.6-2.8,0.8c-0.3-0.2-0.6-0.5-0.8-0.7c-4.4-4.2-7.4-4.2-11.7,0c-0.9,0.9-1.8,1.3-2.9,0.5
				c0.8-0.8,2.2-1.7,0-2.5c-0.5-0.2-1.2-0.1-1.1-0.9c0-0.7,0.5-0.9,1.1-1.1c1.1-0.5,1.7-1.6,0.7-2.5
				C168.8,150.6,167.9,149.6,166.5,149.2z"/>
			<path fill="#6D7FA7" d="M149.7,146.9c1.1,0,2.1,0,3.2,0c0.9,0,1.6,0.2,2.4,0.8c1.4,1,2.9,1.8,4.4,2.3c2,0.6,3.5,2,4,3.5
				c0.7,2,1.1,3.8,3.2,4.6c-0.6,0.5-1.4,0.7-2.2,0.7c-0.9-0.8-1.4-1.6-1.3-3.1c0.1-2.6-0.9-3.2-3.6-3.3c-1.8,0-3.5-0.7-5.2,0.4
				c-0.2,0.1-0.6,0.1-0.7,0c-1.8-1.4-3.2,0-4.7,0.7c-0.9,0.5-1.9,0.6-2.9,0.2c-1-0.3-1.8,0.3-2.5,0.9c-0.7,0.6,0.2,1.2,0.3,1.8
				c0.1,0.9,0.8,1.4,1.4,1.9c0.5,0.5,1.1,1,1,1.9c-0.2,0.4-0.5,0.8-1,0.7c-2.2-0.3-4.7,0.3-6.6-1.7c-0.8-0.9-2.1-0.9-3.3-1
				c0.3-1.2-0.7-1.9-1.1-2.9c-0.7-1.6,0.5-4,2-3.7c1,0.2,2,0.2,3,0.9c1.6,1,2.2,0.8,2.9-1c0.4-0.8,0.9-1.8,1.8-1.6
				c2.7,0.6,3.4-1.5,4.5-3.2C148.9,146.9,149.3,146.9,149.7,146.9z"/>
			<path fill="#7183AB" d="M148.6,146.9c-1.1,1.7-1.8,3.7-4.5,3.2c-0.9-0.2-1.4,0.8-1.8,1.6c-0.7,1.8-1.4,2-2.9,1
				c-0.9-0.6-2-0.7-3-0.9c-1.5-0.2-2.7,2.1-2,3.7c0.4,0.9,1.3,1.7,1.1,2.9c-1-0.1-2.1,0.2-2.7,0.9c-1.1,1.1-2.2,0.9-3.4,0.5
				c-0.5-0.2-1.1-0.4-1.6-0.2c-1.3,0.6-1.9-0.2-2.7-0.9c-1.8-1.7-3.9-2.6-6.4-1.7c-2-0.2-1.4-1.8-1.5-3c-0.1-1.9-1.2-3-2.9-2.6
				c-1.4,0.4-2.8,0.2-4.2,0.3c0.4-1.1,1.2-1.5,2.3-1.5c2,0,4-0.3,5.7,1.1c0.6,0.5,1.5,0.6,2.1,0.1c1.6-1.3,3.1-0.7,4.5,0.3
				c1,0.7,1.9,0.9,3.1,0.2c1-0.6,2.3-0.4,3.5-0.1c1.1,0.3,1.9,0.1,2.8-0.4c1.5-0.7,3-1,4.6-0.3c1.6,0.7,2.1-0.5,2.6-1.8
				c0.3-0.8-0.1-2.5,1.3-2.3c1.3,0.2,2.6-0.4,3.8-0.2C147.1,147,147.8,146.9,148.6,146.9z"/>
			<path fill="#6A7BA3" d="M146.3,160.4c0.1-0.9-0.4-1.4-1-1.9c-0.6-0.6-1.2-1-1.4-1.9c-0.1-0.6-1-1.2-0.3-1.8
				c0.7-0.6,1.5-1.2,2.5-0.9c1,0.3,1.9,0.3,2.9-0.2c1.5-0.8,2.9-2.1,4.7-0.7c0.2,0.1,0.5,0.1,0.7,0c1.7-1,3.5-0.4,5.2-0.4
				c2.7,0.1,3.7,0.7,3.6,3.3c-0.1,1.5,0.4,2.2,1.3,3.1c-0.9,0.9-1.9,0.2-2.5-0.3c-3.1-2.1-5.7-1-7.9,0.9c-0.8,0.7-1.4,0.9-2.5,0.6
				C149.9,159.8,148.1,159.8,146.3,160.4z"/>
			<path fill="#6A7BA3" d="M110.1,151.8c1.4-0.1,2.8,0.1,4.2-0.3c1.7-0.4,2.8,0.7,2.9,2.6c0.1,1.2-0.5,2.7,1.5,3
				c-1.1,1.2-2.1,2.5-4,1c-0.6-0.5-1.4-0.7-2.2-0.9c-0.9-0.3-1.5-0.7-1.7-1.7c-0.2-1.2-1.6-1.7-1.8-2.9
				C109.5,152.5,109.9,152.3,110.1,151.8z"/>
			<path fill="#6D7FA7" d="M166.5,149.2c1.4,0.4,2.3,1.5,3.3,2.3c1,0.9,0.4,1.9-0.7,2.5c-0.5,0.2-1,0.4-1.1,1.1
				c0,0.8,0.7,0.7,1.1,0.9c2.1,0.9,0.8,1.7,0,2.5c-0.5,0-1.1,0.2-1.5-0.4c-0.9-1.9-0.9-3.8-0.4-5.8
				C167.5,151.2,166.4,150.3,166.5,149.2z"/>
			<path fill="#5D6E93" d="M119.2,186.1c-0.3-0.1-1.1,0.3-1-0.5c0-0.6,0.7-0.5,1.2-0.6c2.1-0.3,4.3-0.6,6.4-0.9
				c0.4-0.1,0.9-0.3,1,0.3c0.1,0.6-0.3,0.9-0.9,1C123.7,185.6,121.5,185.9,119.2,186.1z"/>
			<path fill="#6A7BA3" d="M105.2,151.4c0.6-0.6,1-0.4,1.1,0.4C105.9,151.8,105.5,151.9,105.2,151.4z"/>
			<path fill="#6D7FA7" d="M148.6,118.6c0.1,1,1.1,1.5,1.4,2.4c0.3,0.7,0.5,1.3,0,1.9c-0.2,0.3-0.6,0.5-0.4,0.9
				c0.3,0.4,0.8,0.5,1.2,0.4c2.5-1,5-0.5,7.5,0c0.1,0,0.3,0,0.4,0c4.7-1.5,8.6,1.7,13,2c1.9,0.1,3.7,0.6,5.1,2.1
				c0.4,0.4,1.2,0.6,1.9,0.7c3.3,0.3,6.2,1.6,9.2,2.8c1.3,0.5,1.2,1.8,1.1,2.9c0,0.3-0.4,0.7,0.1,1c0.4,0.2,0.7-0.1,1-0.3
				c0.4-0.3,0.7-0.9,1.2-0.4c0.6,0.5,0.2,1.1-0.2,1.5c-1.4,1.4-1.1,2.8-0.3,4.2c0.4,0.8,0.5,1.5,0.3,2.3c-0.3,1.3-0.1,2.3,1.7,1.9
				c0.4-0.1,1-0.2,1,0.4c0.1,0.6-0.6,0.5-0.9,0.7c-1.1,0.6-2.7-0.3-3.5,0.8c-0.9,1,0.6,2.1,0.5,3.3c-0.1,1.6-0.6,2.1-2.2,1.6
				c-1.2-0.4-2.4-0.6-3.3-1.8c-0.7-1.1-3.1-0.4-4.1,1.1c-1.9,2.7-2,2.7-4.6,0.5c-0.4-0.3-0.8-0.6-1.3-0.6c-1.3,0-1.9-0.9-1.6-2
				c0.3-1.5-0.5-1.8-1.5-2c-1.3-0.3-2.6-0.1-3.9,0.3c1.2-2.3,5.5-3.2,7.8-1.3c2,1.6,3.6,1,5.4,0.1c1-0.5,1.1-1.1,0.3-2.2
				c-1.5-2.1-3.8-3.2-6-3.5c-1.9-0.2-3.4-0.1-4.8-1.7c-0.5-0.6-1.9-0.1-2.3,0.9c-0.4,1-0.8,0.9-1.5,0.3c-1.1-0.9-2.5-1.4-2.9-2.9
				c-0.3-1.2-0.1-1.9,1.2-2.2c0.1,0,0.1,0,0.2,0c2.6-1,4.8-1.3,5.9,2.2c0.3,1.1,2,1,2.5-0.1c0.4-0.8,1-2,0.7-2.6
				c-0.6-1.3-0.8-2.8-1.6-3.9c-0.5-0.8-1.6-0.1-2.4,0.2c-0.9,0.3-1.4,0.4-2.4-0.2c-1.5-0.9-3.1-0.4-4.4,0.6
				c-0.8,0.6-1.5,0.8-2.4,0.8c-1.2-0.1-2.2-0.3-0.9-1.7c0.5-0.5,0.5-1.1,0.1-1.7c-1.8-3-3.9-4-7.2-3.3c-2.3,0.5-4.5-0.3-6.8,0.1
				c-1.6,0.3-2.8-1.5-2.5-3.2c0.3-1.2-0.2-1.4-1.2-1.5c-0.9-0.1-1.9,0-2.3-1.1c1.1-0.7,2.2-0.2,3.4-0.4c0.7,0.5,1.4,0.8,1.9-0.4
				C146.3,118.6,147.4,118.6,148.6,118.6z"/>
			<path fill="#6D7FA7" d="M129.9,120.8c0,0.5-0.4,0.9-0.8,0.9c-2.3,0.3-3.9,2.2-5.9,3c-1,0.4-2,1-3.2,0.6c-0.4-0.1-1,0-1.2,0.2
				c-2.1,2.6-5.4,1.9-8,3.1c-1,0.5-2.2,0.8-2.9,1.8c0,0,0,0,0,0c-0.6,0.1-1.3,0.2-1.9,0.4c0-0.4,0.1-0.8,0.5-0.9
				c3-1.3,5.8-2.8,8.8-4.1c2.8-1.2,5.7-2.2,8.5-3.4C125.7,121.6,127.9,121.3,129.9,120.8z"/>
			<path fill="#6D7FA7" d="M137.7,119.3c-0.1,0.9-0.8,0.9-1.5,1.1c-1.6,0.5-1.7,1-0.5,2c0.5,0.4,0.6,0.9,0,1.2
				c-2.1,0.9-3.7,3-6.3,2.8c-0.6,0-1.4,0.6-1.7-0.4c-0.2-0.9,0.1-1.7,0.9-2.1c1.1-0.6,2.2-1.1,3.4-1.5c1.2-0.4,1.6-0.9,0.9-2
				C134.4,119.5,136.1,119.4,137.7,119.3z"/>
			<path fill="#8992B2" d="M178.8,105.9c0.4,0,0.7,0,1.1,0c0.8,0.1,1.5-0.2,2.2-0.4c3.7-0.6,7.4-1.2,11.1-1.8c0.5-0.1,0.9,0,1.1,0.5
				c0.1,0.5-0.3,0.8-0.6,1c-0.7,0.4-1.5,0.1-2.2,0.3c-5,0.9-10,1.2-15.2,1.8C176.8,105.8,178.2,106.6,178.8,105.9z"/>
			<path fill="#6A7BA3" d="M110.8,109.6c0.5,0,1,0,1.5,0c3.2-1.1,6.7-0.9,9.9-1.8c0.6-0.2,1.4-0.2,1.5,0.7c0.1,0.8-0.7,0.7-1.2,0.8
				c-3.6,0.5-7.2,1-10.8,1.1c-0.8,0-1.2,1-2.2,0.6C109.7,110.1,110.4,109.9,110.8,109.6z"/>
			<path fill="#7183AB" d="M106,130.9c0.6-0.1,1.3-0.2,1.9-0.4c-1.3,1.9-2.4,3.9-4.4,5.4c-0.6,0.4-1.2,0.9-1.2,1.7c0,0,0,0,0,0
				c-0.3,0-0.5,0-0.8,0c0.2-1.4-0.7-2.7,0-4.1c0.1,0,0.2,0,0.4,0c1.5-0.4,2.9-1.1,3.7-2.6C105.7,130.9,105.8,130.9,106,130.9z"/>
			<path fill="#F1CB6F" d="M169.7,118.8c-0.5-0.3-1.7,0.2-1.7-1c0-1.3,0.6-2.4,2.1-2.4c0.7,0,1.9,0,1.8,1.1
				C171.8,117.7,171.4,118.9,169.7,118.8z"/>
			<path fill="#6D7FA7" d="M105.6,130.9c-0.8,1.5-2.2,2.2-3.7,2.6C102.6,131.9,104,131.2,105.6,130.9z"/>
			<path fill="#6A7BA3" d="M145.2,118.6c-0.4,1.1-1.1,0.9-1.9,0.4C143.9,118.3,144.6,118.6,145.2,118.6z"/>
			<path fill="#6D7FA7" d="M131.4,120.4c-0.1,0.5-0.2,0.9-0.7,0.4C130.8,120.5,131.1,120.4,131.4,120.4z"/>
			<path fill="#5D6E93" d="M136.9,93.3c0,0.5-0.4,0.5-0.8,0.6c-2.2,0.5-4.4,0.5-6.6,0.7c-0.8,0.1-1.7-0.2-2.5,0.4
				c-0.3,0.2-0.6,0.3-0.8-0.1c-0.1-0.3,0.1-0.6,0.4-0.8c0.2-0.1,0.3-0.2,0.5-0.2c2.9-0.4,5.8-0.8,8.7-1.2
				C136.3,92.7,136.8,92.7,136.9,93.3z"/>
			<path fill="#6A7BA3" d="M164.1,98.6c1.9-0.4,3.7-0.8,5.6-1.2c0.5-0.1,1,0,1.1,0.6c0.1,0.4-0.3,0.7-0.7,0.7
				C168.2,98.9,166.2,99.5,164.1,98.6z"/>
			<path fill="#6A7BA3" d="M189.8,90c-1.8,1.2-3.8,0.6-5.7,1.1c-0.3,0.1-0.6,0-0.7-0.4c-0.1-0.4,0.2-0.5,0.5-0.6
				C185.9,89.7,187.8,89.7,189.8,90z"/>
			<path fill="#5D6E93" d="M182.2,105.5c-0.7,0.1-1.5,0.5-2.2,0.4c0.1-0.5-0.3-1.3,0.6-1.4C181.3,104.3,182,104.6,182.2,105.5z"/>
			<path fill="#FDF8E8" d="M226.6,233.2c-2.4,0-4.7,0-7.1,0c-3.1,0-4.4-1.3-4.5-4.4c0-3.4,0-6.8,0-10.3c0-2.6,1.3-3.9,3.9-3.9
				c1.9,0,3.8,0.1,5.7-0.8c1.8-0.9,2.7-2.3,2.8-4.3c0.1-1.1,0.1-2.2,0.3-3.3c0.5-3,1.4-4.2,3.8-4.4c2.4-0.3,4.3,1,5.3,3.5
				c0.5,1.2,0.8,2.5,0.7,3.8c-0.1,1.5,0.4,2.4,2.1,2.7c3,0.6,4.5,2.4,4.8,5.6c0.4,4.4,0,8.5-2.6,12.3c-2,2.8-5,3.3-8,3.6
				C231.4,233.4,229,233.2,226.6,233.2z M226.8,229.9c2.2,0,4.5,0.1,6.7,0c2.3-0.2,4.6-0.4,5.9-2.8c1.6-2.9,2-6.1,1.6-9.4
				c-0.2-1.6-1-2.7-2.9-2.7c-1.7,0-2.9-0.9-3.5-2.6c-0.5-1.3-0.5-2.7-0.6-4c-0.1-1.3-0.1-3.1-2-3c-1.8,0.1-1.3,1.8-1.3,2.9
				c-0.1,1.9-0.1,3.7-1.1,5.4c-2,3.1-5,4.1-8.4,4.3c-2.8,0.1-2.8,0.1-2.8,2.9c0,2.3,0.1,4.6,0,6.9c-0.1,1.6,0.4,2.3,2.1,2.2
				C222.6,229.8,224.7,229.9,226.8,229.9z"/>
			<path fill="#7B88AE" d="M101.5,137.6c0.3,0,0.5,0,0.8,0c-0.4,1-1.2,1.5-2.2,1.5C100,138.1,100.9,138,101.5,137.6z"/>
			<path fill="#F0F0F0" d="M73.5,71.6c-4.7,0-8.2-3.5-8.2-8.3c0-4.9,3.6-8.5,8.5-8.4c4.7,0,8.2,3.6,8.2,8.3
				C82,68.2,78.4,71.6,73.5,71.6z M75,64.8c0.2-0.3,0.3-0.5,0.5-0.8c0.8-0.5,0.8-1.1,0-1.6c-0.2-0.2-0.3-0.5-0.5-0.7
				c-0.9-1.2-1.7-1.1-2.7-0.1c-0.1,0.1-0.3,0.3-0.4,0.4c-1,0.8-1,1.5,0,2.3c0.6,0.8,1.5,0.8,2.4,0.8C74.8,65.6,75,65.4,75,64.8z"/>
			<path fill="#F0F0F0" d="M228.4,71.6c-4.6,0-8.4-3.7-8.4-8.2c0-4.8,3.6-8.5,8.3-8.5c5,0,8.5,3.4,8.6,8.4
				C236.8,68.1,233.2,71.6,228.4,71.6z M230.3,63.3c0-1.4-0.8-1.9-2-1.9c-1.2,0-1.9,0.6-1.8,1.8c0,1.3,0.6,2,1.9,2
				C229.7,65.3,230.2,64.5,230.3,63.3z"/>
			<path fill="#F0F0F0" d="M73.6,209.6c4.6,0,8.4,3.7,8.3,8.4c0,4.9-3.6,8.5-8.5,8.4c-4.8,0-8.2-3.6-8.3-8.5
				C65.2,213.3,68.9,209.7,73.6,209.6z M73.5,220c1.3,0,2-0.6,2-1.9c0-1.3-0.7-1.9-2-1.9c-1.2,0-1.9,0.6-1.9,1.8
				C71.7,219.2,72.2,220,73.5,220z"/>
			<path fill="#131313" d="M110.5,53c1.6,0,2,0.7,2,1.8c-0.1,1.2-0.8,1.6-1.9,1.5c-1-0.1-1.5-0.7-1.5-1.7
				C109.2,53.5,109.8,53,110.5,53z"/>
			<path fill="#131313" d="M64.1,119c-1.1,0-1.8-0.4-1.9-1.6c0-1.1,0.4-1.9,1.7-2c1.3-0.1,1.8,0.6,1.8,1.8
				C65.8,118.4,65.3,119,64.1,119z"/>
			<path fill="#131313" d="M86.6,52.4c0-1.1-0.6-2.3,0.7-3c0.7-0.4,1.5-0.3,2.1,0.2c0.6,0.5,0.8,1.2,0.5,2c-0.3,0.8-0.9,1.2-1.7,1.1
				C87.6,52.7,87.1,52.5,86.6,52.4L86.6,52.4z"/>
			<path fill="#131313" d="M211.3,82.4c-1.5,0-1.9-0.9-1.9-1.9c0-1.1,0.6-1.7,1.8-1.7c1.1,0,1.8,0.6,1.7,1.7
				C212.8,81.6,212.4,82.4,211.3,82.4z"/>
			<path fill="#131313" d="M205.1,28.5c-0.1,1.1-0.7,1.6-1.8,1.6c-1.1-0.1-1.8-0.6-1.8-1.7c0-1.2,0.7-1.8,1.9-1.8
				C204.7,26.6,205.1,27.3,205.1,28.5z"/>
			<path fill="#6D7FA7" d="M158.3,137.6c-1-0.1-1.8-0.7-1.9-1.8c-0.1-1.1,0.9-1.5,1.7-1.4c1,0.1,2.1,0.8,2.1,1.9
				C160.4,137.2,159.4,137.6,158.3,137.6z"/>
			<path fill="#6D7FA7" d="M163.4,143.6c-0.6-0.1-1.5-0.1-1.2-0.6c0.5-0.9,1.5-1.6,2.6-1.7c0.4,0,1,0,0.9,0.6
				C165.4,143.2,164.3,143.4,163.4,143.6z"/>
			<path fill="#F1CB6F" d="M226.8,229.9c-2.1,0-4.2-0.1-6.3,0c-1.7,0.1-2.2-0.6-2.1-2.2c0.1-2.3,0-4.6,0-6.9c0-2.9,0-2.8,2.8-2.9
				c3.4-0.1,6.5-1.2,8.4-4.3c1-1.7,1-3.5,1.1-5.4c0-1.1-0.4-2.9,1.3-2.9c1.9-0.1,1.8,1.7,2,3c0.1,1.4,0,2.7,0.6,4
				c0.7,1.6,1.8,2.6,3.5,2.6c1.9,0,2.7,1.1,2.9,2.7c0.4,3.3,0,6.5-1.6,9.4c-1.3,2.4-3.7,2.6-5.9,2.8
				C231.3,230,229.1,229.9,226.8,229.9z M237.7,218.1c-0.2-0.7-0.7-0.6-1.1-0.4c-0.6,0.4-1.2,0.9-1.8,1.2c-2.5,1.3-4.4,4.4-7.8,2.4
				c-0.3-0.2-0.8,0-0.9,0.4c-0.1,0.4-0.1,0.8,0.2,1c0.7,0.7,1.5,1.5,2.3,2.2c0.9,0.8,1.7,0.9,2.7-0.1c1.9-2,3.8-3.9,5.7-5.8
				C237.2,218.7,237.5,218.4,237.7,218.1z"/>
			<path fill="#131313" d="M71.9,62.1c0.1-0.1,0.3-0.3,0.4-0.4c0.9,0,1.8,0.1,2.7,0.1c0.2,0.2,0.3,0.5,0.5,0.7c0,0.5,0,1.1,0,1.6
				c-0.2,0.3-0.3,0.5-0.5,0.8c-0.3,0-0.6,0.1-0.8,0.4c-0.9,0-1.8,0-2.4-0.8C71.9,63.6,71.9,62.9,71.9,62.1z"/>
			<path fill="#ACB1BD" d="M75,61.7c-0.9,0-1.8-0.1-2.7-0.1C73.2,60.6,74.1,60.5,75,61.7z"/>
			<path fill="#ACB1BD" d="M71.9,62.1c0,0.8,0,1.5,0,2.3C70.9,63.6,70.9,62.9,71.9,62.1z"/>
			<path fill="#ACB1BD" d="M75.5,64.1c0-0.5,0-1.1,0-1.6C76.3,63,76.3,63.5,75.5,64.1z"/>
			<path fill="#ACB1BD" d="M74.2,65.2c0.1-0.3,0.4-0.4,0.8-0.4C75,65.4,74.8,65.6,74.2,65.2z"/>
			<path fill="#1F1F20" d="M230.3,63.3c-0.1,1.2-0.7,1.9-2,1.9c-1.3,0-1.9-0.8-1.9-2c0-1.3,0.7-1.8,1.8-1.8
				C229.5,61.4,230.3,61.9,230.3,63.3z"/>
			<path fill="#1F1F20" d="M73.5,220c-1.3,0-1.9-0.8-1.8-2.1c0-1.2,0.7-1.8,1.9-1.8c1.3,0,2,0.6,2,1.9C75.5,219.4,74.8,220,73.5,220
				z"/>
			<path fill="#FDF8E8" d="M237.7,218.1c-0.3,0.3-0.5,0.6-0.8,0.9c-1.9,1.9-3.9,3.8-5.7,5.8c-0.9,1-1.8,1-2.7,0.1
				c-0.8-0.7-1.5-1.4-2.3-2.2c-0.3-0.3-0.3-0.7-0.2-1c0.2-0.4,0.7-0.6,0.9-0.4c3.5,2.1,5.4-1.1,7.8-2.4c0.7-0.3,1.2-0.9,1.8-1.2
				C237,217.5,237.5,217.4,237.7,218.1z"/>
		</g>
	</g>
</g>
<g id="图层_2">
	<text transform="matrix(1 0 0 1 12.5 284.5)" font-family="'KaiTi'" font-size="14px">您的赞赏是对作者最大的鼓励与支持，谢谢！</text>
</g>
</svg>
