<?xml version="1.0" encoding="utf-8"?>
<!-- Generator: Adobe Illustrator 18.1.1, SVG Export Plug-In . SVG Version: 6.00 Build 0)  -->
<svg version="1.1" xmlns="http://www.w3.org/2000/svg" xmlns:xlink="http://www.w3.org/1999/xlink" x="0px" y="0px"
	 viewBox="0 0 560 560" enable-background="new 0 0 560 560" xml:space="preserve">
<g id="图层_1">
	<g id="构图" display="none">
		<line display="inline" fill="none" stroke="#000000" stroke-miterlimit="10" x1="280.3" y1="63.6" x2="280.3" y2="539.6"/>
	</g>
	<g>
		<g id="图层_3">
			<g>
				<path fill="#F7931E" stroke="#000000" stroke-width="3" stroke-miterlimit="10" d="M405.3,349.1c-1.8-1.1,2.3-9.8,12.7-15.9
					c4.7-2.8,7.3-3,13.8-5.8c5.6-2.4,13.4-6.3,20.8-12.8c-3.2,9.9-9.5,15.4-14.8,18.5c-4.2,2.5-5.9,2.5-16.9,8.2
					C409.3,347.4,406.4,349.8,405.3,349.1z"/>
				<path fill="#F7931E" stroke="#000000" stroke-width="3" stroke-miterlimit="10" d="M407.4,344.6c-1.6-1,4.2-14,16.2-25.5
					c5.5-5.2,8.2-6.2,15.5-12c6.3-4.9,15.2-12.6,24.1-23.6c-5.2,14.5-12.8,23.8-18.8,29.8c-4.8,4.6-6.7,5.2-19.2,16.2
					C411.9,341,408.5,345.2,407.4,344.6z"/>
				<path fill="#F7931E" stroke="#000000" stroke-width="3" stroke-miterlimit="10" d="M391.8,369.3c-2-1.1,7.3-25.5,24.5-49.3
					c7.8-10.8,11.4-13.5,21.8-26.1c8.8-10.7,21.3-27,34.5-49c-8.7,26.7-19.8,45.4-28.6,57.6c-6.8,9.5-9.4,11.3-27,34.5
					C398.2,361.4,393,370,391.8,369.3z"/>
				<path fill="#F7931E" stroke="#000000" stroke-width="3" stroke-miterlimit="10" d="M412.5,345.4c-2.5-0.8,3.2-31.7,18.1-63.6
					c6.8-14.5,10.4-18.5,19.8-35.6c8-14.6,19.1-36.6,29.7-65.5c-4.5,33.4-13.6,57.9-21.2,74.3c-5.8,12.8-8.5,15.5-24.1,46.8
					C418.2,334.8,414,346,412.5,345.4z"/>
				<path fill="#F7931E" stroke="#000000" stroke-width="3" stroke-miterlimit="10" d="M425,314.3c-2.8-0.5-2.1-35.9,8.5-74.2
					c4.8-17.5,8-22.6,15.2-43.3c6.2-17.8,14.3-44.3,20.7-78.5c0.9,37.2-4.4,66.3-9.8,86.8c-4.2,15.4-6.5,18.8-18,56.5
					C429.4,301.3,426.8,314.6,425,314.3z"/>
				<path fill="#F7931E" stroke="#000000" stroke-width="3" stroke-miterlimit="10" d="M426.5,293c-4.7-0.6-3-49.4,2.1-90.8
					c3.8-31.6,7.4-40.9,11.8-69.8c3.6-23.9,3.8-80.5,3.1-125.4c5.2,40,10.2,95.2,10,121c-0.5,56.8-7.6,95.2-10.8,110.8
					C441.9,243.2,431.4,293.7,426.5,293z"/>
			</g>
			<g>
				<path fill="#FBB03B" stroke="#000000" stroke-width="3" stroke-miterlimit="10" d="M157.7,349.1c1.8-1.1-2.3-9.8-12.7-15.9
					c-4.7-2.8-7.3-3-13.8-5.8c-5.6-2.4-13.4-6.3-20.8-12.8c3.2,9.9,9.5,15.4,14.8,18.5c4.2,2.5,5.9,2.5,16.9,8.2
					C153.7,347.4,156.7,349.8,157.7,349.1z"/>
				<path fill="#FBB03B" stroke="#000000" stroke-width="3" stroke-miterlimit="10" d="M155.7,344.6c1.6-1-4.2-14-16.2-25.5
					c-5.5-5.2-8.2-6.2-15.5-12c-6.3-4.9-15.2-12.6-24.1-23.6c5.2,14.5,12.8,23.8,18.8,29.8c4.8,4.6,6.7,5.2,19.2,16.2
					C151.1,341,154.6,345.2,155.7,344.6z"/>
				<path fill="#FBB03B" stroke="#000000" stroke-width="3" stroke-miterlimit="10" d="M171.3,369.3c2-1.1-7.3-25.5-24.5-49.3
					c-7.8-10.8-11.4-13.5-21.8-26.1c-8.8-10.7-21.3-27-34.5-49c8.7,26.7,19.8,45.4,28.6,57.6c6.8,9.5,9.4,11.3,27,34.5
					C164.9,361.4,170,370,171.3,369.3z"/>
				<path fill="#FBB03B" stroke="#000000" stroke-width="3" stroke-miterlimit="10" d="M150.6,345.4c2.5-0.8-3.2-31.7-18.1-63.6
					c-6.8-14.5-10.4-18.5-19.8-35.6c-8-14.6-19.1-36.6-29.7-65.5c4.5,33.4,13.6,57.9,21.2,74.3c5.8,12.8,8.5,15.5,24.1,46.8
					C144.9,334.8,149,346,150.6,345.4z"/>
				<path fill="#FBB03B" stroke="#000000" stroke-width="3" stroke-miterlimit="10" d="M138,314.3c2.8-0.5,2.1-35.9-8.5-74.2
					c-4.8-17.5-8-22.6-15.2-43.3c-6.2-17.8-14.3-44.3-20.7-78.5c-0.9,37.2,4.4,66.3,9.8,86.8c4.2,15.4,6.5,18.8,18,56.5
					C133.7,301.3,136.3,314.6,138,314.3z"/>
				<path fill="#FBB03B" stroke="#000000" stroke-width="3" stroke-miterlimit="10" d="M136.5,293c4.7-0.6,3-49.4-2.1-90.8
					c-3.8-31.6-7.4-40.9-11.8-69.8c-3.6-23.9-3.8-80.5-3.1-125.4c-5.2,40-10.2,95.2-10,121c0.5,56.8,7.6,95.2,10.8,110.8
					C121.2,243.2,131.7,293.7,136.5,293z"/>
			</g>
		</g>
		<g id="图层_2">
			<path fill="#E69435" stroke="#000000" stroke-width="3" stroke-miterlimit="10" d="M281.5,553c0,0,15-5.5,72.9-11.7
				s72.5-16.2,72.5-16.2s-4.3-35.3-2-85.3s5.1-92.8,2-134.3s-22-123.9-22-123.9h-123h-0.8H158c0,0-18.9,82.3-22,123.9
				c-3,41.5-0.3,84.5,2,134.5s-2,85.2-2,85.2s14.6,9.9,72.5,16.1C266.5,547.5,281.5,553,281.5,553"/>
			<polyline fill="#C09050" stroke="#000000" stroke-width="4" stroke-miterlimit="10" points="281.9,157.3 402.3,157.3 
				407.3,181.2 405,181.2 281.9,181.2 281.9,181.2 281.9,181.2 281.9,181.2 281.1,181.2 281.1,181.2 281.1,181.2 281.1,181.2 
				158,181.2 155.7,181.2 160.7,157.3 281.1,157.3 			"/>
			<path fill="#C09050" stroke="#000000" stroke-width="4" stroke-miterlimit="10" d="M281.5,553l-11.3-2.8c0,0,0.9-2.5-6-4.8
				s-11.2-8.5-11.2-8.5s5.4-11.2,8.8-44.2s2.5-148.2,1.5-153.1s-2.5-3.8-5.6-6.6s-10.5-1.1-10.5-1.1h-114c0,0-1-11-1-16.2
				s-0.5-3.5,0-10.2s2.5-11.4,2.5-11.4s103.6,0.5,110.9-0.1c7.2-0.5,9.8-1.5,14.9-3.1c5.2-1.5,2.1-5.6,5.7-40.5s4.2-69.5,4.2-69.5
				l11.3-0.2l11.3,0.2c0,0,0.6,34.6,4.2,69.5s0.5,38.9,5.7,40.5c5.2,1.5,7.7,2.5,14.9,3.1c7.2,0.5,110.9,0,110.9,0s2,4.6,2.5,11.3
				c0.5,6.7,0,5.4,0,10.5c0,5.2-1,16.2-1,16.2H315.8c0,0-7.5-1.8-10.5,1.1c-3.1,2.8-4.6,2-5.6,6.9s-1.9,119.9,1.5,152.9
				s8.8,44.2,8.8,44.2s-4.2,6.2-11.2,8.5s-6,4.7-6,4.7L281.5,553"/>
			<path fill="none" stroke="#000000" stroke-miterlimit="10" d="M155.7,307.6"/>
			<path stroke="#000000" stroke-width="3" stroke-miterlimit="10" d="M248.7,314h-90.8c-1.2,0-2.2-1-2.2-2.2l0,0
				c0-1.2,1-2.2,2.2-2.2h90.8c1.2,0,2.2,1,2.2,2.2l0,0C250.9,313,249.9,314,248.7,314z"/>
			<path stroke="#000000" stroke-width="3" stroke-miterlimit="10" d="M314.4,314h90.8c1.2,0,2.2-1,2.2-2.2l0,0c0-1.2-1-2.2-2.2-2.2
				h-90.8c-1.2,0-2.2,1-2.2,2.2l0,0C312.1,313,313.1,314,314.4,314z"/>
			<path fill="none" stroke="#000000" stroke-miterlimit="10" d="M365.5,492.1"/>
			<path fill="none" stroke="#000000" stroke-miterlimit="10" d="M279.4,552.5"/>
			<path fill="none" stroke="#000000" stroke-miterlimit="10" d="M324,123.7"/>
			<path fill="none" stroke="#000000" stroke-miterlimit="10" d="M404.5,165.8"/>
			<path fill="none" stroke="#000000" stroke-miterlimit="10" d="M300.8,184.3"/>
			<ellipse fill="#A85F1E" stroke="#1E1D00" stroke-width="3" stroke-miterlimit="10" cx="133.8" cy="311.9" rx="4.8" ry="7.5"/>
			<ellipse fill="#A85F1E" stroke="#1E1D00" stroke-width="3" stroke-miterlimit="10" cx="429.2" cy="311.9" rx="4.8" ry="7.5"/>
			<rect x="256.8" y="295.4" fill="#A85F1E" width="2.3" height="32.9"/>
			<rect x="304" y="295.4" fill="#A85F1E" width="2.3" height="32.9"/>
		</g>
		<g id="图层_4">
			<circle fill="#A85F1E" stroke="#1E1D00" stroke-width="3" stroke-miterlimit="10" cx="281.5" cy="169.3" r="7.5"/>
			<circle fill="#A85F1E" stroke="#1E1D00" stroke-width="3" stroke-miterlimit="10" cx="244.6" cy="169.3" r="7.5"/>
			<circle fill="#A85F1E" stroke="#1E1D00" stroke-width="3" stroke-miterlimit="10" cx="211.5" cy="169.3" r="7.5"/>
			<circle fill="#A85F1E" stroke="#1E1D00" stroke-width="3" stroke-miterlimit="10" cx="180" cy="169.3" r="7.5"/>
			<circle fill="#A85F1E" stroke="#1E1D00" stroke-width="3" stroke-miterlimit="10" cx="318.5" cy="169.3" r="7.5"/>
			<circle fill="#A85F1E" stroke="#1E1D00" stroke-width="3" stroke-miterlimit="10" cx="351.5" cy="169.3" r="7.5"/>
			<circle fill="#A85F1E" stroke="#1E1D00" stroke-width="3" stroke-miterlimit="10" cx="383.1" cy="169.3" r="7.5"/>
			<g>
				<circle fill="#A85F1E" stroke="#1E1D00" stroke-width="3" stroke-miterlimit="10" cx="236.9" cy="302.3" r="4.8"/>
				<circle fill="#A85F1E" stroke="#1E1D00" stroke-width="3" stroke-miterlimit="10" cx="200.7" cy="302.3" r="4.8"/>
				<circle fill="#A85F1E" stroke="#1E1D00" stroke-width="3" stroke-miterlimit="10" cx="172.3" cy="302.3" r="4.8"/>
				<circle fill="#A85F1E" stroke="#1E1D00" stroke-width="3" stroke-miterlimit="10" cx="150" cy="302.3" r="4.8"/>
			</g>
			<g>
				<circle fill="#A85F1E" stroke="#1E1D00" stroke-width="3" stroke-miterlimit="10" cx="236.9" cy="323.1" r="4.8"/>
				<circle fill="#A85F1E" stroke="#1E1D00" stroke-width="3" stroke-miterlimit="10" cx="200.7" cy="323.1" r="4.8"/>
				<circle fill="#A85F1E" stroke="#1E1D00" stroke-width="3" stroke-miterlimit="10" cx="172.3" cy="323.1" r="4.8"/>
				<circle fill="#A85F1E" stroke="#1E1D00" stroke-width="3" stroke-miterlimit="10" cx="150" cy="323.1" r="4.8"/>
			</g>
			<g>
				<circle fill="#A85F1E" stroke="#1E1D00" stroke-width="3" stroke-miterlimit="10" cx="326.1" cy="302.3" r="4.8"/>
				<circle fill="#A85F1E" stroke="#1E1D00" stroke-width="3" stroke-miterlimit="10" cx="362.3" cy="302.3" r="4.8"/>
				<circle fill="#A85F1E" stroke="#1E1D00" stroke-width="3" stroke-miterlimit="10" cx="390.8" cy="302.3" r="4.8"/>
				<circle fill="#A85F1E" stroke="#1E1D00" stroke-width="3" stroke-miterlimit="10" cx="413.1" cy="302.3" r="4.8"/>
			</g>
			<g>
				<circle fill="#A85F1E" stroke="#1E1D00" stroke-width="3" stroke-miterlimit="10" cx="326.1" cy="323.1" r="4.8"/>
				<circle fill="#A85F1E" stroke="#1E1D00" stroke-width="3" stroke-miterlimit="10" cx="362.3" cy="323.1" r="4.8"/>
				<circle fill="#A85F1E" stroke="#1E1D00" stroke-width="3" stroke-miterlimit="10" cx="390.8" cy="323.1" r="4.8"/>
				<circle fill="#A85F1E" stroke="#1E1D00" stroke-width="3" stroke-miterlimit="10" cx="413.1" cy="323.1" r="4.8"/>
			</g>
			<path fill="#A85F1E" d="M281.7,551h-1.2c-0.6,0-1.1-0.5-1.1-1.1V181.8c0-0.6,0.5-1.1,1.1-1.1h1.2c0.6,0,1.1,0.5,1.1,1.1V550
				C282.8,550.5,282.3,551,281.7,551z"/>
		</g>
	</g>
	
		<rect x="394.1" y="92.6" transform="matrix(0.9908 0.1356 -0.1356 0.9908 28.6165 -56.835)" fill="none" width="74.6" height="178"/>
</g>
<g id="图层_2_1_">
	
		<text transform="matrix(0.8795 0.1909 -0.2121 0.9772 191.6577 342.158)" fill="#C50A00" stroke="#000000" stroke-width="5" stroke-miterlimit="10" font-family="'AdobeKaitiStd-Regular-GBpc-EUC-H'" font-size="400" letter-spacing="34.4">?</text>
</g>
</svg>
