<svg xmlns="http://www.w3.org/2000/svg" fill-rule="evenodd" stroke-linejoin="round" stroke-miterlimit="1.4" clip-rule="evenodd" viewBox="0 0 41 34"><circle cx="20.2" cy="9.9" r="8.3" fill="#aaa"/><path fill="#aaa" d="M15.8 28.5l4.5 5 4.3-4-4.5-5-4.3 4zM4.2 0S6 4.8 7.8 7c.3.3-.5 2 0 9 0 .2.5 5.4 8 5 .2 0-1.8 1.5-1.9 3 0 .4.2 2-1.2 3-.2.2-4 .2-2.9-3 .1-.3 1.9-.6 1-1.9-.3-.5-4 1.2-5.5-2.6-.1-.4 1.7.3 2.5-.4.1-.2.2-1.5-.4-1.4-.4 0-4.1 1-5.3-3.1 0-.3 2.2.7 3.6.4.3-.1 1-1.5.2-1.9-.5-.1-5.7.6-5.9-5 0-.6 2.2-.8 4.8 2.8.3.4 3 1.2 1.2-2.9C5.8 7.6 3.8 5 2 5c-.3 0-.7-3.3 2.3-5zM36.2 0s-1.7 4.8-3.6 7c-.3.3.5 2 0 9 0 .2-.5 5.4-8 5-.2 0 1.8 1.5 1.9 3 0 .4-.2 2 1.2 3 .2.2 4 .2 2.9-3-.1-.3-1.8-.6-1-1.9.3-.5 4 1.2 5.5-2.6.1-.4-1.7.3-2.5-.4 0-.2-.2-1.5.4-1.4.5 0 4.1 1 5.3-3.1 0-.3-2.2.7-3.6.4-.3-.1-1-1.5-.1-1.9.4-.1 5.6.6 5.8-5 0-.6-2.2-.8-4.8 2.8-.3.4-3 1.2-1.2-2.9.2-.4 2.2-3.1 4.1-3 .3 0 .7-3.3-2.3-5z"/></svg>