<?xml version="1.0" encoding="utf-8"?>
<!-- Generator: Adobe Illustrator 18.1.1, SVG Export Plug-In . SVG Version: 6.00 Build 0)  -->
<svg version="1.1" id="图层_1" xmlns="http://www.w3.org/2000/svg" xmlns:xlink="http://www.w3.org/1999/xlink" x="0px" y="0px"
	 viewBox="0 0 612 792" enable-background="new 0 0 612 792" xml:space="preserve">
<g id="图层_1_1_" display="none">
	<line display="inline" fill="none" stroke="#000000" stroke-miterlimit="10" x1="310.9" y1="112.9" x2="310.9" y2="682.3"/>
	<path display="inline" fill="none" stroke="#000000" stroke-miterlimit="10" d="M315.5,668.4"/>
</g>
<g id="图层_2">
	<path fill="none" stroke="#000000" stroke-miterlimit="10" d="M310.9,305.6"/>
	
		<linearGradient id="SVGID_1_" gradientUnits="userSpaceOnUse" x1="135.2" y1="679.65" x2="285" y2="679.65" gradientTransform="matrix(1.0929 0 0 -1.0929 0 955.5428)">
		<stop  offset="0" style="stop-color:#646464"/>
		<stop  offset="0.105" style="stop-color:#686868"/>
		<stop  offset="0.2004" style="stop-color:#737373"/>
		<stop  offset="0.292" style="stop-color:#858585"/>
		<stop  offset="0.3813" style="stop-color:#9F9F9F"/>
		<stop  offset="0.4682" style="stop-color:#C0C0C0"/>
		<stop  offset="0.4949" style="stop-color:#CCCCCC"/>
		<stop  offset="0.5707" style="stop-color:#B2B2B2"/>
		<stop  offset="0.6636" style="stop-color:#9A9A9A"/>
		<stop  offset="0.7622" style="stop-color:#898989"/>
		<stop  offset="0.8692" style="stop-color:#7F7F7F"/>
		<stop  offset="1" style="stop-color:#7C7C7C"/>
	</linearGradient>
	<path fill="url(#SVGID_1_)" stroke="#000000" stroke-miterlimit="10" d="M311.2,115.5c-4.3,2.4-11.3,6.1-19.9,10.6
		c-18,9.4-31.8,15.1-34.6,16.3c-21,9.2-50.8,33.8-72,63.6c-29,40.8-35.3,83.4-36.9,104.1c54.4,0,163.7,0,163.7,0"/>
	
		<linearGradient id="SVGID_2_" gradientUnits="userSpaceOnUse" x1="284" y1="680.35" x2="433.8" y2="680.35" gradientTransform="matrix(1.0929 0 0 -1.0929 0 955.5428)">
		<stop  offset="0" style="stop-color:#B3B3B3"/>
		<stop  offset="9.985650e-002" style="stop-color:#CCCCCC"/>
		<stop  offset="0.2228" style="stop-color:#E4E4E4"/>
		<stop  offset="0.3371" style="stop-color:#F2F2F2"/>
		<stop  offset="0.4337" style="stop-color:#F7F7F7"/>
		<stop  offset="0.4717" style="stop-color:#E5E5E5"/>
		<stop  offset="0.5391" style="stop-color:#CCCCCC"/>
		<stop  offset="0.6144" style="stop-color:#B8B8B8"/>
		<stop  offset="0.7009" style="stop-color:#AAAAAA"/>
		<stop  offset="0.8082" style="stop-color:#A2A2A2"/>
		<stop  offset="1" style="stop-color:#A0A0A0"/>
	</linearGradient>
	<path fill="url(#SVGID_2_)" stroke="#000000" stroke-miterlimit="10" d="M310.6,114.9c4.3,2.4,11.3,6.4,19.9,10.9
		c18,9.4,31.8,15.2,34.6,16.4c21,9.2,50.8,33.3,72,63.2c29,40.8,35.3,82.9,36.9,103.7c-54.4,0-163.7,0-163.7,0"/>
	
		<linearGradient id="SVGID_3_" gradientUnits="userSpaceOnUse" x1="225.1667" y1="699.7" x2="284.5" y2="699.7" gradientTransform="matrix(1.0929 0 0 -1.0929 0 955.5428)">
		<stop  offset="0" style="stop-color:#97867B"/>
		<stop  offset="0.6925" style="stop-color:#97867B"/>
		<stop  offset="0.8112" style="stop-color:#97867B"/>
		<stop  offset="1" style="stop-color:#4B4C4A"/>
	</linearGradient>
	<path fill="url(#SVGID_3_)" stroke="#42210B" stroke-miterlimit="10" d="M310.9,147.6c-8.6,3.6-19.2,9.2-30.3,17.7
		c-17.9,13.9-28.6,29.5-34.6,40.1c3.5,2.5,7,5,10.6,7.7c9.6,7,18.9,14.1,28.1,21.1c8.7-0.1,17.5-0.2,26.2-0.3"/>
	
		<linearGradient id="SVGID_4_" gradientUnits="userSpaceOnUse" x1="284.5" y1="699.7" x2="343.8333" y2="699.7" gradientTransform="matrix(1.0929 0 0 -1.0929 0 955.5428)">
		<stop  offset="0" style="stop-color:#646464"/>
		<stop  offset="1.539865e-003" style="stop-color:#818181"/>
		<stop  offset="3.604161e-003" style="stop-color:#A0A0A0"/>
		<stop  offset="5.944923e-003" style="stop-color:#BCBCBC"/>
		<stop  offset="8.589423e-003" style="stop-color:#D2D2D2"/>
		<stop  offset="1.167757e-002" style="stop-color:#E3E3E3"/>
		<stop  offset="1.549418e-002" style="stop-color:#EEEEEE"/>
		<stop  offset="2.084796e-002" style="stop-color:#F5F5F5"/>
		<stop  offset="3.571429e-002" style="stop-color:#F7F7F7"/>
		<stop  offset="0.1179" style="stop-color:#EBE8E2"/>
		<stop  offset="0.2177" style="stop-color:#E2DCD1"/>
		<stop  offset="0.3419" style="stop-color:#DBD3C6"/>
		<stop  offset="0.5162" style="stop-color:#D7CEBF"/>
		<stop  offset="1" style="stop-color:#D6CDBD"/>
	</linearGradient>
	<path fill="url(#SVGID_4_)" stroke="#42210B" stroke-miterlimit="10" d="M310.9,147.6c8.6,3.6,19.2,9.2,30.3,17.7
		c17.9,13.9,28.6,29.5,34.6,40.1c-3.5,2.5-7,5-10.6,7.7c-9.6,7-18.9,14.1-28.1,21.1c-8.7-0.1-17.5-0.2-26.2-0.3"/>
	
		<linearGradient id="SVGID_5_" gradientUnits="userSpaceOnUse" x1="121.5" y1="474.15" x2="284.4" y2="474.15" gradientTransform="matrix(1.0929 0 0 -1.0929 0 955.5428)">
		<stop  offset="0" style="stop-color:#595959"/>
		<stop  offset="0.208" style="stop-color:#5B5B5B"/>
		<stop  offset="0.2962" style="stop-color:#626262"/>
		<stop  offset="0.3617" style="stop-color:#6F6F6F"/>
		<stop  offset="0.4161" style="stop-color:#808080"/>
		<stop  offset="0.463" style="stop-color:#979797"/>
		<stop  offset="0.4898" style="stop-color:#A8A8A8"/>
		<stop  offset="0.5496" style="stop-color:#919191"/>
		<stop  offset="0.6205" style="stop-color:#7E7E7E"/>
		<stop  offset="0.7031" style="stop-color:#717170"/>
		<stop  offset="0.8069" style="stop-color:#696968"/>
		<stop  offset="1" style="stop-color:#676766"/>
	</linearGradient>
	<path fill="url(#SVGID_5_)" stroke="#000000" stroke-miterlimit="10" d="M310.2,207.2c-16.8,3.9-41,10.5-69.4,21.2
		c-18.8,7.1-33,12.3-48.5,21.5c-14.9,8.9-37.6,24.6-59.5,52.1c0,23.1,0,68.9,0,68.9c4.4,6.2,8.5,15.5,12,27.3
		c5.6,18.5,6.1,33.8,6.1,45.9c-0.2,43.6-5.6,90.1-7.5,105.7c0.5,3,1.3,6.4,2.6,10.2c0.7,1.9,2.1,6.1,4.4,10.2
		c3.6,6.3,8,10.2,10.6,12.3c22.3,19.1,33.4,28.7,36.4,30.9c17,12.7,25.6,19,30.9,22.6c14.2,9.3,40.3,23.4,82.5,31.6"/>
	
		<linearGradient id="SVGID_6_" gradientUnits="userSpaceOnUse" x1="284.5" y1="474.1" x2="446.6" y2="474.1" gradientTransform="matrix(1.0929 0 0 -1.0929 0 955.5428)">
		<stop  offset="0" style="stop-color:#646464"/>
		<stop  offset="8.073176e-002" style="stop-color:#858585"/>
		<stop  offset="0.2126" style="stop-color:#B6B6B6"/>
		<stop  offset="0.3287" style="stop-color:#D9D9D9"/>
		<stop  offset="0.4234" style="stop-color:#EFEFEF"/>
		<stop  offset="0.4847" style="stop-color:#F7F7F7"/>
		<stop  offset="0.5474" style="stop-color:#E4E4E4"/>
		<stop  offset="0.665" style="stop-color:#C6C6C6"/>
		<stop  offset="0.7812" style="stop-color:#B1B1B1"/>
		<stop  offset="0.8941" style="stop-color:#A4A4A4"/>
		<stop  offset="1" style="stop-color:#A0A0A0"/>
	</linearGradient>
	<path fill="url(#SVGID_6_)" stroke="#000000" stroke-miterlimit="10" d="M311.8,207.2c16.8,3.9,41,10.5,69.4,21.2
		c18.8,7.1,32.5,12.3,48,21.5c14.9,8.9,37,24.6,58.9,52.1c0,23.1,0,68.9,0,68.9c-3.3,6.2-8,15.5-11.5,27.3
		c-5.6,18.5-5.9,33.8-5.8,45.9c0.2,43.6,5.7,90.1,7.6,105.7c-0.5,3-1.3,6.4-2.5,10.2c-0.7,1.9-2.1,6.1-4.4,10.2
		c-3.6,6.3-8,10.2-10.6,12.3c-22.4,19.2-33.7,28.9-36.6,31c-17,12.7-25.6,19-30.9,22.6c-14.2,9.3-40.3,23.4-82.5,31.6"/>
	<path fill="#4D4D4D" stroke="#000000" stroke-miterlimit="10" d="M310.9,680c-23.2-11.6-42.3-20.3-55.5-26.1
		c-31.4-13.8-39.9-15.8-57.2-27c-25.6-16.4-38.3-31.7-43.4-38.3c-7.8-9.9-12.8-19.2-16.1-25.9c-0.4-2.2-1-7,1.1-12.3
		c1.2-3,2.4-5.5,3.6-6.9c5.5,11.8,13.8,26.3,26.2,41.2c5.1,6,27,30.8,63.4,48.1c17.4,8.3,28,10.1,60.9,25.9
		c7.1,3.4,12.9,6.3,16.7,8.4"/>
	<path fill="#808080" stroke="#000000" stroke-miterlimit="10" d="M310.9,680c23.2-11.6,42.3-20.3,55.5-26.1
		c31.4-13.8,39.9-15.8,57.2-27c25.6-16.4,38.3-31.7,43.4-38.3c7.8-9.9,12.8-19.2,16.1-25.9c0.4-2.2,1-7-1.1-12.3
		c-1.2-3-2.4-5.5-3.6-6.9c-5.5,11.8-13.8,26.3-26.2,41.2c-5.1,6-27,30.8-63.4,48.1c-17.4,8.3-28,10.1-60.9,25.9
		c-7.1,3.4-12.9,6.3-16.7,8.4"/>
	
		<linearGradient id="SVGID_7_" gradientUnits="userSpaceOnUse" x1="135.1692" y1="495.2" x2="284.5" y2="495.2" gradientTransform="matrix(1.0929 0 0 -1.0929 0 955.5428)">
		<stop  offset="0" style="stop-color:#97867B"/>
		<stop  offset="0.1572" style="stop-color:#98887D"/>
		<stop  offset="0.2238" style="stop-color:#9D8E84"/>
		<stop  offset="0.2734" style="stop-color:#A69991"/>
		<stop  offset="0.3145" style="stop-color:#B2A9A2"/>
		<stop  offset="0.3499" style="stop-color:#C2BDB9"/>
		<stop  offset="0.3816" style="stop-color:#D5D5D5"/>
		<stop  offset="0.3827" style="stop-color:#D6D6D6"/>
		<stop  offset="0.4177" style="stop-color:#C6C2BF"/>
		<stop  offset="0.4663" style="stop-color:#B5ACA6"/>
		<stop  offset="0.5209" style="stop-color:#A89B93"/>
		<stop  offset="0.5841" style="stop-color:#9E8F85"/>
		<stop  offset="0.6635" style="stop-color:#99887D"/>
		<stop  offset="0.8112" style="stop-color:#97867B"/>
		<stop  offset="1" style="stop-color:#4B4C4A"/>
	</linearGradient>
	<path fill="url(#SVGID_7_)" stroke="#42210B" stroke-miterlimit="10" d="M310.9,200.7c0,0-18,3.8-40.1,9.6l-3.1,76.5
		c0,0,2,28.4-27.9,35.8c-17.4,4.3-26.9,5.6-33.7,6c-0.9,0-6.1,1.5-12.3,0.2c-4.2-0.9-5.6-2.3-6.2-3.1c-1.6-1.9-1.9-4.2-2.2-7.6
		c-0.4-4.9,0.4-6.3-0.9-8.7c-0.3-0.5-1.6-2.6-3.9-3.2c-2.8-0.7-5.8,1.6-8.1,3.9c-10.8,10.7-18.1,30.3-19,32.6
		c-4,11-6.1,16.7-5.8,23.1c0.3,6.2,2.2,10.9,5.7,19.3c3.4,8.3,7,15.2,10.4,20.8c3.1,7.2,7.1,11,9.6,13c2.6,2.1,4.3,2.6,5.7,2.3
		c2-0.4,3.2-2.5,4.6-4.9c2.2-3.7,1.4-4.6,3-6.3c2-2.3,4.9-2.7,9.3-3.3c2.4-0.3,5.9-0.5,10.2,0.1c8.4,0.8,20.2,2.6,33.2,7.9
		c14.2,5.6,21.4,8,26.2,14.5c4.3,5.8,5.5,12,5.9,16.1c4.9,17.6,9.5,39.9,10.7,66c1.9,39.9-4.9,72.9-11.5,95.6
		c3.1,3.8,8.9,9.9,18,14.8c9.1,4.7,17.3,5.9,22.2,6.3"/>
	
		<linearGradient id="SVGID_8_" gradientUnits="userSpaceOnUse" x1="284.5" y1="495.2" x2="433.8308" y2="495.2" gradientTransform="matrix(1.0929 0 0 -1.0929 0 955.5428)">
		<stop  offset="0" style="stop-color:#646464"/>
		<stop  offset="1.539865e-003" style="stop-color:#818181"/>
		<stop  offset="3.604161e-003" style="stop-color:#A0A0A0"/>
		<stop  offset="5.944923e-003" style="stop-color:#BCBCBC"/>
		<stop  offset="8.589423e-003" style="stop-color:#D2D2D2"/>
		<stop  offset="1.167757e-002" style="stop-color:#E3E3E3"/>
		<stop  offset="1.549418e-002" style="stop-color:#EEEEEE"/>
		<stop  offset="2.084796e-002" style="stop-color:#F5F5F5"/>
		<stop  offset="3.571429e-002" style="stop-color:#F7F7F7"/>
		<stop  offset="0.1179" style="stop-color:#EBE8E2"/>
		<stop  offset="0.2177" style="stop-color:#E2DCD1"/>
		<stop  offset="0.3419" style="stop-color:#DBD3C6"/>
		<stop  offset="0.5162" style="stop-color:#D7CEBF"/>
		<stop  offset="1" style="stop-color:#D6CDBD"/>
	</linearGradient>
	<path fill="url(#SVGID_8_)" stroke="#42210B" stroke-miterlimit="10" d="M310.9,200.7c0,0,18,3.8,40.1,9.6l3.1,76.5
		c0,0-2,28.4,27.9,35.8c17.4,4.3,26.9,5.6,33.7,6c0.9,0,6.1,1.5,12.3,0.2c4.2-0.9,5.6-2.3,6.2-3.1c1.6-1.9,1.9-4.2,2.2-7.6
		c0.4-4.9-0.4-6.3,0.9-8.7c0.3-0.5,1.6-2.6,3.9-3.2c2.8-0.7,5.8,1.6,8.1,3.9c10.8,10.7,18.1,30.3,19,32.6c4,11,6.1,16.7,5.8,23.1
		c-0.3,6.2-2.2,10.9-5.7,19.3c-3.4,8.3-7,15.2-10.4,20.8c-3.1,7.2-7.1,11-9.6,13c-2.6,2.1-4.3,2.6-5.7,2.3c-2-0.4-3.2-2.5-4.6-4.9
		c-2.2-3.7-1.4-4.6-3-6.3c-2-2.3-4.9-2.7-9.3-3.3c-2.4-0.3-5.9-0.5-10.2,0.1c-8.4,0.8-20.2,2.6-33.2,7.9c-14.2,5.6-21.4,8-26.2,14.5
		c-4.3,5.8-5.5,12-5.9,16.1c-4.9,17.6-9.5,39.9-10.7,66c-1.9,39.9,4.9,72.9,11.5,95.6c-3.1,3.8-8.9,9.9-18,14.8
		c-9.1,4.7-17.3,5.9-22.2,6.3"/>
	<path stroke="#000000" stroke-miterlimit="10" d="M340.8,355.9c-0.1-0.4-0.4-2.2,0.5-3.8c1.1-1.9,3.4-2.8,5.8-2.5
		c14.4-0.2,30.5,0.2,47.9,2c16,1.5,30.6,3.8,43.7,6.6c0.5,0.2,2.2,0.9,3.3,2.7c0.7,1.1,0.8,2.2,0.9,2.7c0.1,3.1,0.2,6,0.3,9.1
		c0.1,0.3,0.5,2.2-0.5,4.2c-1.3,2.1-3.5,2.4-3.8,2.5c-11.4,1.9-20.8,2.7-27.3,3.3c-12.7,1-25.5,1-50.6,1.1c-5.7,0-10.3,0-13.4,0
		c-1.9,0.8-3.9,0.4-5.5-0.9c-1.5-1.3-2.2-3.5-1.6-5.5C340.3,370.1,340.5,363,340.8,355.9z"/>
	<path stroke="#000000" stroke-miterlimit="10" d="M281.2,355.9c0.1-0.4,0.4-2.2-0.5-3.8c-1.1-1.9-3.4-2.8-5.8-2.5
		c-14.4-0.2-30.5,0.2-47.9,2c-16,1.5-30.6,3.8-43.7,6.6c-0.5,0.2-2.2,0.9-3.3,2.7c-0.7,1.1-0.8,2.2-0.9,2.7c-0.1,3.1-0.2,6-0.3,9.1
		c-0.1,0.3-0.5,2.2,0.5,4.2c1.3,2.1,3.5,2.4,3.8,2.5c11.4,1.9,20.8,2.7,27.3,3.3c12.7,1,25.5,1,50.6,1.1c5.7,0,10.3,0,13.4,0
		c1.9,0.8,3.9,0.4,5.5-0.9c1.5-1.3,2.2-3.5,1.6-5.5C281.5,370.1,281.3,363,281.2,355.9z"/>
	<polygon fill="#97867B" stroke="#1A1A1A" stroke-miterlimit="10" points="132.8,303.7 127.3,303.7 127.3,361 132.8,371.4 	"/>
	<polygon fill="#D6CDBD" stroke="#1A1A1A" stroke-miterlimit="10" points="488.5,303.7 492.3,303.7 492.3,361 487.4,371.4 	"/>
	<g>
		<ellipse stroke="#000000" stroke-miterlimit="10" cx="251.6" cy="449" rx="4.6" ry="6"/>
		<ellipse stroke="#000000" stroke-miterlimit="10" cx="253.8" cy="479.6" rx="4.6" ry="6"/>
		<ellipse stroke="#000000" stroke-miterlimit="10" cx="253.8" cy="514.6" rx="4.6" ry="6"/>
		<ellipse stroke="#000000" stroke-miterlimit="10" cx="258.1" cy="547.4" rx="4.6" ry="6"/>
		<ellipse stroke="#000000" stroke-miterlimit="10" cx="251.6" cy="580.1" rx="4.6" ry="6"/>
		<ellipse stroke="#000000" stroke-miterlimit="10" cx="230.8" cy="535.3" rx="4.6" ry="6"/>
		<ellipse stroke="#000000" stroke-miterlimit="10" cx="229.7" cy="502.6" rx="4.6" ry="6"/>
		<ellipse stroke="#000000" stroke-miterlimit="10" cx="230.8" cy="469.8" rx="4.6" ry="6"/>
		<ellipse stroke="#000000" stroke-miterlimit="10" cx="229.7" cy="442.4" rx="4.6" ry="6"/>
		<ellipse stroke="#000000" stroke-miterlimit="10" cx="209" cy="434.8" rx="4.6" ry="6"/>
		<ellipse stroke="#000000" stroke-miterlimit="10" cx="206.8" cy="463.2" rx="4.6" ry="6"/>
		<ellipse stroke="#000000" stroke-miterlimit="10" cx="187.1" cy="454.5" rx="4.6" ry="6"/>
		<ellipse stroke="#000000" stroke-miterlimit="10" cx="206.8" cy="494.9" rx="4.6" ry="6"/>
		<ellipse stroke="#000000" stroke-miterlimit="10" cx="189.3" cy="486.2" rx="4.6" ry="6"/>
		<ellipse stroke="#000000" stroke-miterlimit="10" cx="209" cy="523.3" rx="4.6" ry="6"/>
		<ellipse stroke="#000000" stroke-miterlimit="10" cx="187.1" cy="514.6" rx="4.6" ry="6"/>
		<ellipse stroke="#000000" stroke-miterlimit="10" cx="230.8" cy="564.8" rx="4.6" ry="6"/>
		<ellipse stroke="#000000" stroke-miterlimit="10" cx="209" cy="549.5" rx="4.6" ry="6"/>
		<ellipse stroke="#000000" stroke-miterlimit="10" cx="226.4" cy="595.4" rx="4.6" ry="6"/>
		<ellipse stroke="#000000" stroke-miterlimit="10" cx="204.6" cy="582.3" rx="4.6" ry="6"/>
	</g>
	<g>
		<ellipse stroke="#000000" stroke-miterlimit="10" cx="370.3" cy="449" rx="4.6" ry="6"/>
		<ellipse stroke="#000000" stroke-miterlimit="10" cx="368.1" cy="479.6" rx="4.6" ry="6"/>
		<ellipse stroke="#000000" stroke-miterlimit="10" cx="368.1" cy="514.6" rx="4.6" ry="6"/>
		<ellipse stroke="#000000" stroke-miterlimit="10" cx="363.7" cy="547.4" rx="4.6" ry="6"/>
		<ellipse stroke="#000000" stroke-miterlimit="10" cx="370.3" cy="580.1" rx="4.6" ry="6"/>
		<ellipse stroke="#000000" stroke-miterlimit="10" cx="391" cy="535.3" rx="4.6" ry="6"/>
		<ellipse stroke="#000000" stroke-miterlimit="10" cx="392.1" cy="502.6" rx="4.6" ry="6"/>
		<ellipse stroke="#000000" stroke-miterlimit="10" cx="391" cy="469.8" rx="4.6" ry="6"/>
		<ellipse stroke="#000000" stroke-miterlimit="10" cx="392.1" cy="442.4" rx="4.6" ry="6"/>
		<ellipse stroke="#000000" stroke-miterlimit="10" cx="412.9" cy="434.8" rx="4.6" ry="6"/>
		<ellipse stroke="#000000" stroke-miterlimit="10" cx="415.1" cy="463.2" rx="4.6" ry="6"/>
		<ellipse stroke="#000000" stroke-miterlimit="10" cx="434.7" cy="454.5" rx="4.6" ry="6"/>
		<ellipse stroke="#000000" stroke-miterlimit="10" cx="415.1" cy="494.9" rx="4.6" ry="6"/>
		<ellipse stroke="#000000" stroke-miterlimit="10" cx="432.6" cy="486.2" rx="4.6" ry="6"/>
		<ellipse stroke="#000000" stroke-miterlimit="10" cx="412.9" cy="523.3" rx="4.6" ry="6"/>
		<ellipse stroke="#000000" stroke-miterlimit="10" cx="434.7" cy="514.6" rx="4.6" ry="6"/>
		<ellipse stroke="#000000" stroke-miterlimit="10" cx="391" cy="564.8" rx="4.6" ry="6"/>
		<ellipse stroke="#000000" stroke-miterlimit="10" cx="412.9" cy="549.5" rx="4.6" ry="6"/>
		<ellipse stroke="#000000" stroke-miterlimit="10" cx="395.4" cy="595.4" rx="4.6" ry="6"/>
		<ellipse stroke="#000000" stroke-miterlimit="10" cx="417.3" cy="582.3" rx="4.6" ry="6"/>
	</g>
</g>
<g>
	<g>
		<path fill="#C4BA98" stroke="#000000" stroke-width="0.5" stroke-miterlimit="10" d="M461.2,648.3v-12.2h9.5v2.2h-7.3v3.2h4v2.2
			h-4v3.8L461.2,648.3z"/>
		<path fill="#C4BA98" stroke="#000000" stroke-width="0.5" stroke-miterlimit="10" d="M473.2,638.9c0-1.1,0.2-1.9,0.5-2.3
			c0.3-0.4,0.9-0.6,1.9-0.6h6.9c0.9,0,1.5,0.2,1.9,0.6c0.3,0.4,0.5,1.2,0.5,2.3v6.5c0,1.1-0.2,1.9-0.5,2.3c-0.3,0.4-0.9,0.6-1.9,0.6
			h-6.9c-0.9,0-1.5-0.2-1.9-0.6s-0.5-1.2-0.5-2.3V638.9z M475.4,646h7.3v-7.8h-7.3V646z"/>
		<path fill="#C4BA98" stroke="#000000" stroke-width="0.5" stroke-miterlimit="10" d="M489.5,646.3v-10.3h8.1
			c0.8,0,1.3,0.2,1.6,0.6c0.3,0.4,0.5,1,0.5,1.8v2.9c0,0.8-0.2,1.4-0.5,1.8c-0.3,0.4-0.9,0.6-1.6,0.6h-1.2l4.4,4.6h-3.2l-3.8-4.6
			h-2.1v2.2L489.5,646.3z M496.6,638.2h-5v3.4h5c0.4,0,0.6-0.1,0.8-0.2c0.1-0.1,0.2-0.4,0.2-0.8v-1.5c0-0.4-0.1-0.6-0.2-0.7
			C497.2,638.2,497,638.2,496.6,638.2z"/>
	</g>
	<g>
		<path fill="#C4BA98" stroke="#000000" stroke-width="0.5" stroke-miterlimit="10" d="M444.6,672.9c0.9-0.1,1.3,0.3,1.3,1.1v1.4
			h2.4c1,0,1.2,0.3,0.6,1h-3c0,1.6,0.1,2.4,0.3,2.4c0.4,0.1,0.8,0,1.1-0.2c1.1-0.2,1.5,0.2,1.4,1.1c-0.1,0.7-0.2,1.8-0.2,3.2
			c0.1,1.1-0.4,1.4-1.6,1.1c-1.3-0.4-2.6-0.4-4,0c-0.9,0.5-1.3,0.3-1.4-0.8c-0.1-1.1-0.3-2.2-0.6-3.5c0.1-0.9,0.7-1.1,1.7-0.8
			c0.9,0.1,1.3-0.1,1.3-0.6c0-1.2,0-2.3-0.2-3.3C443.6,673.5,443.9,672.8,444.6,672.9z M443,680.5c-0.1,1.3,0.1,1.9,0.6,2.1
			c2.4,0.3,3.5,0,3.3-1.1c0.2-1.5-0.8-2.1-3-1.7C443.4,679.7,443,680,443,680.5z M449.4,676.9c0.4,0,0.7,0,0.8-0.2
			c-0.1-1.2-0.2-2.3-0.2-3.3c-0.1-0.7,0.3-1.1,1.1-1c0.5,0,0.8,0.3,0.8,0.8c-0.1,1-0.1,2.1,0,3.3c3.5-0.5,5.2-0.5,5.1,0
			c0.2,0.3,0.2,0.5-0.2,0.5c-1.6,0.2-3.2,0.5-4.8,0.8c0.3,1,0.6,1.7,1,2.4c0.4-0.5,0.9-1.2,1.3-1.9c0.3-0.3,0.6-0.4,1-0.3
			c0.4,0.3,0.6,0.7,0.5,1.1c-0.6,0.9-1.2,1.5-1.7,2.1c1.2,1.2,3.1,1.7,5.7,1.6c0.2,0.1-0.1,0.6-1,1.6c-1.2,1.2-2.4,1.4-3.7,0.6
			c-0.5-0.4-1.4-1.2-2.5-2.4c-1.1,0.7-2.2,1.2-3.3,1.3c-0.5-0.1-0.6-0.3-0.3-0.6c1.1-0.3,2-1,2.9-1.9c-0.4-0.6-0.9-1.7-1.3-3.2
			c-0.5,0.1-1,0.3-1.4,0.5c-0.6,0.1-0.9-0.2-0.8-1C448.3,677.3,448.6,677,449.4,676.9z M454.5,673.2c0.3-0.7,0.7-1,1.3-0.6
			c0.5,0.3,0.7,0.7,0.5,1.3c-0.4,0.6-1.1,1-2.1,1.1c-0.4,0-0.6-0.2-0.5-0.5C454,674.1,454.3,673.6,454.5,673.2z"/>
		<path fill="#C4BA98" stroke="#000000" stroke-width="0.5" stroke-miterlimit="10" d="M467,676.9c0.5,0,0.9,0.2,1.1,0.5
			c-0.1,0.4-0.5,0.6-1.1,0.5c-0.6,0-1.3,0-1.9,0.2c0.2,0.3,0.1,0.6-0.3,1l-0.8,0.8c-0.3,0.4,0,0.7,0.8,0.8c0.6,0.1,1.2-0.1,1.6-0.6
			l-0.5-1c0.1-0.3,0.3-0.4,0.6-0.3c0.3,0.2,0.6,0.4,1,0.6c0.2,0.4,0.5,0.9,0.8,1.4c-0.1,0.2-0.2,0.3-0.3,0.3
			c-0.4,0.1-0.9-0.1-1.3-0.6c-0.6,1.2-1.3,1.6-2.1,1.3c-0.6-0.4-1.2-0.5-1.7-0.2c-0.2,0-0.4-0.2-0.6-0.5c-0.1-0.4,0.1-0.9,0.6-1.3
			c1-0.9,1.3-1.4,1-1.7c-0.4-0.1-1.1,0-1.9,0.3c-0.3,0.2-0.5,0.2-0.6-0.2c0.1-0.7,0.5-1.2,1.1-1.3L467,676.9L467,676.9z M467,674.7
			c0.3,0,0.5,0.2,0.6,0.5c0,0.3-0.1,0.5-0.3,0.5h-2.5c-0.7,0-1.4,0-2.1,0.2c-0.2-0.1-0.3-0.3-0.3-0.6c0.1-0.3,0.3-0.6,0.6-0.8
			C463.8,674.5,465.1,674.7,467,674.7z M471.2,679.1c-0.3-0.1-0.6-0.1-1,0c-0.3,0.2-0.6,0.4-1,0.5c-0.2,0-0.4,0-0.5-0.2
			c-0.2-1.6-0.4-3-0.6-4.3c-0.1-0.6,0.2-1,1-1c0.3,0.2,0.9,0.3,1.6,0.2c0.3-0.3,0.7-0.9,1.1-1.6c0.1-0.2,0.3-0.3,0.6-0.3
			c1,0.3,1.2,0.7,0.8,1.1c-0.3,0.3-0.6,0.6-0.8,0.8c0.7,0,1.7,0.1,2.9,0.3c0.3-0.1,0.6-0.2,0.8-0.3c0.3-0.1,0.6,0,0.8,0.2
			c0.4,0.3,0.5,0.8,0.3,1.4c-0.3,1-0.5,1.9-0.6,3l-0.5,0.3c0.4,0.3,0.5,0.6,0.2,0.8c-0.2,0.2-0.4,0.4-0.6,0.6
			c-0.2,0.1-0.2,0.3,0.2,0.5c0.4,0.1,0.8,0,1.1-0.2c-0.4-0.3-0.5-0.5-0.2-0.6c0.4,0,0.7,0,1,0.2c0.2,0.3,0.4,0.6,0.6,1
			c-0.1,0.1-0.3,0.2-0.5,0.3l-0.6-0.5c-0.2,0.6-0.6,0.9-1.1,0.8c-0.4-0.3-0.9-0.4-1.3-0.3c-0.3-0.2-0.4-0.5-0.3-0.8
			c0.2-0.2,0.4-0.5,0.6-0.8c0.1-0.2,0.3-0.5,0.5-1c-0.9-0.1-1.9-0.2-3-0.2c-0.7,2.4-2.2,4.2-4.3,5.2c-1.7,0.6-3,0.4-3.8-0.8
			c0-0.1,0.2-0.2,0.6-0.2C468.4,683.1,470.4,681.6,471.2,679.1z M471.6,675.1c-0.7,0-1.3,0.1-1.7,0.3c-0.2,0.6-0.1,1,0.3,1l1.7-0.2
			C472.1,675.7,472,675.3,471.6,675.1z M471.8,677c-0.5,0-1.2,0-1.9,0.2c0,0.7,0.2,1.1,0.5,1.1l1.1-0.2L471.8,677z M472.9,679.9
			c0.1-0.4,0.3-0.6,0.6-0.6c0.2,0,0.4,0.1,0.5,0.3c-0.2,0.4-0.4,0.9-0.5,1.3c0,0.4,0,0.7,0.2,1c0.4,0.5,1.3,0.9,2.5,1.1
			c1.1,0.1,2.1,0,3-0.3c0.6-0.3,1.1-0.4,1.3-0.2c-0.1,0.6-0.5,1.4-1.1,2.2c-0.7,0.6-1.4,0.9-1.9,0.6c-1.8-0.3-3.3-1.1-4.5-2.2
			c-0.5-0.6-0.7-1.2-0.6-1.7C472.6,680.8,472.8,680.3,472.9,679.9z M475.3,678.5c0.2-0.4,0.3-0.8,0.2-1.1c-0.4-0.2-1.2-0.3-2.4-0.3
			c-0.1,0.4-0.2,0.9-0.2,1.3C473.8,678.4,474.6,678.5,475.3,678.5z M473.2,676.2l1.7,0.2c0.4,0.1,0.6-0.1,0.6-0.6
			c0-0.4-0.6-0.6-1.9-0.6C473.4,675.2,473.2,675.6,473.2,676.2z"/>
		<path fill="#C4BA98" stroke="#000000" stroke-width="0.5" stroke-miterlimit="10" d="M487.2,676.1c0.2-0.4,0.4-0.6,0.5-0.6
			c0.5-0.1,0.7,0.3,0.5,1.1c-0.3,1-0.8,1.9-1.4,3c-0.5,0.9-1.1,1.5-1.6,1.9c-1.1,1-2.2,0.9-3.3-0.2c-0.3-0.3-0.2-0.6,0.3-1
			C483.9,679.5,485.6,678.1,487.2,676.1z M490.9,672.9c1.1-0.1,1.5,0.5,1.4,1.7c-0.1,2.6,0,5.6,0.2,8.9c0,1.3-1,1.9-3,1.7
			c-1.1-0.1-2.3-0.7-3.7-1.7c-0.2-0.5-0.1-0.8,0.3-0.8c2,0.6,3.2,0.7,3.7,0.3c0.3-0.2,0.4-3.2,0.3-8.9
			C490.1,673.3,490.3,672.9,490.9,672.9z M493.4,676.6c-0.3-0.4-0.3-0.7,0.2-1c0.2-0.1,0.4,0,0.6,0.2c1.5,1.9,3.7,3.5,6.7,4.9
			c-0.3,0.5-0.6,0.9-1,1.1c-1,0.9-1.9,0.9-2.7,0C495.8,680.1,494.6,678.4,493.4,676.6z"/>
		<path fill="#C4BA98" stroke="#000000" stroke-width="0.5" stroke-miterlimit="10" d="M509.1,678.8c-0.3,1.1-0.6,1.9-1,2.4l2.1-0.3
			c-0.1-0.4-0.2-0.9-0.2-1.3c0.1-0.4,0.5-0.7,1.1-0.8c0.4,0,0.8,0.1,1.1,0.3c0.4,0.1,0.7,0.1,1,0v-5.2c0-0.6,0.2-1,0.6-1.1
			c1.1,0,1.6,0.4,1.6,1.1c-0.1,0.5-0.2,1-0.2,1.3c2.2,0.1,4.1,0.2,5.6,0.2c0,0.5-0.2,1-0.5,1.4c-0.4,0.4-0.9,0.5-1.3,0.3
			c-1.7-0.5-3-0.7-3.8-0.5c-0.2,0.9-0.2,1.7,0,2.5c0.7,0.1,1.3,0,1.7-0.2c1.4-0.4,2.1,0,2.1,1.1c-0.2,0.9-0.3,1.9-0.3,3.2
			c0.2,1.4-0.3,1.9-1.4,1.4c-1.5-0.2-3.1-0.3-4.8-0.2c-1.3,0.6-1.9,0.3-2.1-1.1c0-0.3,0-0.9-0.2-1.7c-2.1,1-4.6,1.7-7.5,2.2
			c-1,0.2-1.4-0.2-1.3-1.1c0-0.5,0.5-0.9,1.6-1c1.2-0.1,2.5-0.3,4-0.5c0.3-1.2,0.5-2.3,0.5-3.3c0-0.7,0.2-1.1,0.6-1.1
			C509.2,677,509.5,677.6,509.1,678.8z M507.9,673.8c-0.1,1.3,0,1.9,0.3,1.7l2.2,0.2c0.5,0.4,0.6,0.7,0.2,1
			c-0.2,0.1-0.6,0.2-1.1,0.2c-2.1-0.4-4.3-0.3-6.5,0.5c-0.4,0.1-0.6,0-0.6-0.5c0.2-1,0.6-1.4,1.3-1.3c0.9,0.2,1.5,0.3,1.9,0.2
			c0.3-0.1,0.4-0.7,0.3-1.9c0.1-0.4,0.3-0.6,0.6-0.6C507.1,673.1,507.6,673.3,507.9,673.8z M506.3,680.8c-0.2,0.3-0.5,0.4-0.8,0.2
			c-0.6-1-1-1.8-1.1-2.5s0.2-1.2,0.8-1.3c0.5-0.1,0.8,0.1,0.8,0.6C506.1,678.9,506.2,679.9,506.3,680.8z M515.2,680.2
			c-1.5-0.1-2.4,0-2.9,0.3c-0.3,0.7-0.3,1.5,0,2.2c0.1,0.5,1.3,0.7,3.5,0.5c1,0,1.4-0.5,1.4-1.6
			C517.2,680.6,516.6,680.1,515.2,680.2z"/>
	</g>
	
		<linearGradient id="SVGID_9_" gradientUnits="userSpaceOnUse" x1="394.1686" y1="260.9566" x2="394.1686" y2="260.9566" gradientTransform="matrix(1.0929 0 0 -1.0929 0 955.5428)">
		<stop  offset="0" style="stop-color:#C4BA98"/>
		<stop  offset="1.474962e-002" style="stop-color:#CEC5A9"/>
		<stop  offset="4.332456e-002" style="stop-color:#DDD7C4"/>
		<stop  offset="7.615717e-002" style="stop-color:#EAE6DA"/>
		<stop  offset="0.1145" style="stop-color:#F3F1EB"/>
		<stop  offset="0.162" style="stop-color:#FAF9F6"/>
		<stop  offset="0.2285" style="stop-color:#FEFEFD"/>
		<stop  offset="0.4133" style="stop-color:#FFFFFF"/>
		<stop  offset="0.4696" style="stop-color:#DDDBD8"/>
		<stop  offset="0.5499" style="stop-color:#B2AFA6"/>
		<stop  offset="0.6258" style="stop-color:#908B7F"/>
		<stop  offset="0.6952" style="stop-color:#787263"/>
		<stop  offset="0.7558" style="stop-color:#696252"/>
		<stop  offset="0.801" style="stop-color:#645D4C"/>
		<stop  offset="0.8499" style="stop-color:#776F5B"/>
		<stop  offset="0.9484" style="stop-color:#A89F82"/>
		<stop  offset="1" style="stop-color:#C4BA98"/>
	</linearGradient>
	
		<linearGradient id="SVGID_10_" gradientUnits="userSpaceOnUse" x1="394.1686" y1="260.9566" x2="394.1686" y2="260.9566" gradientTransform="matrix(1.0929 0 0 -1.0929 0 955.5428)">
		<stop  offset="0" style="stop-color:#C4BA98"/>
		<stop  offset="1.389108e-002" style="stop-color:#C7BD9D"/>
		<stop  offset="0.1655" style="stop-color:#E5E1D2"/>
		<stop  offset="0.2794" style="stop-color:#F8F7F3"/>
		<stop  offset="0.3418" style="stop-color:#FFFFFF"/>
		<stop  offset="0.4046" style="stop-color:#E1E0DC"/>
		<stop  offset="0.5083" style="stop-color:#B5B1A9"/>
		<stop  offset="0.6058" style="stop-color:#928D81"/>
		<stop  offset="0.6943" style="stop-color:#797364"/>
		<stop  offset="0.7708" style="stop-color:#696352"/>
		<stop  offset="0.8265" style="stop-color:#645D4C"/>
		<stop  offset="0.8691" style="stop-color:#776F5B"/>
		<stop  offset="0.955" style="stop-color:#A89F82"/>
		<stop  offset="1" style="stop-color:#C4BA98"/>
	</linearGradient>
	<path fill="url(#SVGID_9_)" stroke="url(#SVGID_10_)" stroke-width="0.5" stroke-miterlimit="10" d="M430.8,670.4"/>
	
		<linearGradient id="SVGID_11_" gradientUnits="userSpaceOnUse" x1="402.6975" y1="267.4148" x2="402.6975" y2="267.4148" gradientTransform="matrix(1.0929 0 0 -1.0929 0 955.5428)">
		<stop  offset="0" style="stop-color:#C4BA98"/>
		<stop  offset="1.474962e-002" style="stop-color:#CEC5A9"/>
		<stop  offset="4.332456e-002" style="stop-color:#DDD7C4"/>
		<stop  offset="7.615717e-002" style="stop-color:#EAE6DA"/>
		<stop  offset="0.1145" style="stop-color:#F3F1EB"/>
		<stop  offset="0.162" style="stop-color:#FAF9F6"/>
		<stop  offset="0.2285" style="stop-color:#FEFEFD"/>
		<stop  offset="0.4133" style="stop-color:#FFFFFF"/>
		<stop  offset="0.4696" style="stop-color:#DDDBD8"/>
		<stop  offset="0.5499" style="stop-color:#B2AFA6"/>
		<stop  offset="0.6258" style="stop-color:#908B7F"/>
		<stop  offset="0.6952" style="stop-color:#787263"/>
		<stop  offset="0.7558" style="stop-color:#696252"/>
		<stop  offset="0.801" style="stop-color:#645D4C"/>
		<stop  offset="0.8499" style="stop-color:#776F5B"/>
		<stop  offset="0.9484" style="stop-color:#A89F82"/>
		<stop  offset="1" style="stop-color:#C4BA98"/>
	</linearGradient>
	
		<linearGradient id="SVGID_12_" gradientUnits="userSpaceOnUse" x1="402.6975" y1="267.4148" x2="402.6975" y2="267.4148" gradientTransform="matrix(1.0929 0 0 -1.0929 0 955.5428)">
		<stop  offset="0" style="stop-color:#C4BA98"/>
		<stop  offset="1.389108e-002" style="stop-color:#C7BD9D"/>
		<stop  offset="0.1655" style="stop-color:#E5E1D2"/>
		<stop  offset="0.2794" style="stop-color:#F8F7F3"/>
		<stop  offset="0.3418" style="stop-color:#FFFFFF"/>
		<stop  offset="0.4046" style="stop-color:#E1E0DC"/>
		<stop  offset="0.5083" style="stop-color:#B5B1A9"/>
		<stop  offset="0.6058" style="stop-color:#928D81"/>
		<stop  offset="0.6943" style="stop-color:#797364"/>
		<stop  offset="0.7708" style="stop-color:#696352"/>
		<stop  offset="0.8265" style="stop-color:#645D4C"/>
		<stop  offset="0.8691" style="stop-color:#776F5B"/>
		<stop  offset="0.955" style="stop-color:#A89F82"/>
		<stop  offset="1" style="stop-color:#C4BA98"/>
	</linearGradient>
	<path fill="url(#SVGID_11_)" stroke="url(#SVGID_12_)" stroke-width="0.5" stroke-miterlimit="10" d="M440.1,663.3"/>
	<g>
		<g>
			<path fill="#C4BA98" stroke="#000000" stroke-width="0.5" stroke-miterlimit="10" d="M436,654.8h-6.1v4.8h3.3v3.3h-3.3v5.9
				l-1.8,0.8v-18h8V654.8"/>
			<path fill="#C4BA98" stroke="#000000" stroke-width="0.5" stroke-miterlimit="10" d="M438.2,666.5v-0.9v-14h6.7
				c0.6,0,1.1,0.3,1.4,0.8c0.3,0.6,0.4,1.5,0.4,2.7v4.3c0,1.2-0.1,2.1-0.4,2.7c-0.3,0.6-0.7,0.9-1.4,0.9h-1l3.6,6.9h-2.6l-3.2-6.9
				H440v2.3v1L438.2,666.5z M444.1,654.7H440v5.1h4.1c0.3,0,0.5-0.1,0.6-0.3s0.2-0.6,0.2-1.1v-2.2c0-0.5-0.1-0.9-0.2-1.1
				C444.7,654.8,444.5,654.7,444.1,654.7z"/>
			<path fill="#C4BA98" stroke="#000000" stroke-width="0.5" stroke-miterlimit="10" d="M450.4,669.7v-18.2h1.8v18.2H450.4z"/>
			<path fill="#C4BA98" stroke="#000000" stroke-width="0.5" stroke-miterlimit="10" d="M456.3,669.7v-18.2h8v3.1h-6.2v4.1h3.6v3.1
				h-3.6v4.5h6.3v3.4L456.3,669.7L456.3,669.7z"/>
			<path fill="#C4BA98" stroke="#000000" stroke-width="0.5" stroke-miterlimit="10" d="M467.8,669.7v-18.2h1.3l5.5,10.7
				c0.2,0.4,0.4,0.7,0.5,1c0.1,0.3,0.3,0.6,0.4,1c0-1,0-1.7-0.1-2.2c0-0.4,0-0.7,0-1v-9.5h1.6v18.2h-1.3l-5.8-11.2
				c-0.1-0.3-0.3-0.5-0.4-0.8c-0.1-0.2-0.2-0.5-0.3-0.7c0,0.6,0,1.1,0,1.6s0,0.9,0,1.3v9.8H467.8L467.8,669.7z"/>
			<path fill="#C4BA98" stroke="#000000" stroke-width="0.5" stroke-miterlimit="10" d="M481,669.7v-18.2h5.1c1.4,0,2.6,0.8,3.3,2.3
				c0.8,1.6,1.2,3.8,1.2,6.6c0,1.7-0.2,3.2-0.4,4.6c-0.3,1.4-0.7,2.4-1.3,3.2c-0.3,0.5-0.8,0.9-1.3,1.1c-0.5,0.2-1.2,0.3-1.9,0.3
				L481,669.7L481,669.7z M482.8,666.3h2.4c1.3,0,2.2-0.4,2.7-1.4c0.5-0.9,0.8-2.4,0.8-4.5c0-1.9-0.2-3.3-0.6-4.2
				c-0.4-1-1.1-1.4-1.9-1.4h-3.2L482.8,666.3L482.8,666.3z"/>
			<path fill="#C4BA98" stroke="#000000" stroke-width="0.5" stroke-miterlimit="10" d="M500.7,654.8h-5.2v3.9h4.9
				c0.8,0,1.3,0.3,1.5,0.9c0.3,0.6,0.4,1.7,0.4,3.4v2.5c0,1.7-0.1,2.8-0.4,3.4c-0.3,0.6-0.8,0.9-1.5,0.9h-4.9
				c-0.8,0-1.3-0.3-1.5-0.9c-0.3-0.6-0.4-1.7-0.4-3.4V665l1.6-0.8v2.2h5.6v-4.1h-4.9c-0.8,0-1.3-0.3-1.5-0.9
				c-0.3-0.6-0.4-1.7-0.4-3.4v-2c0-1.7,0.1-2.8,0.4-3.4c0.3-0.6,0.8-0.9,1.5-0.9h4.5c0.7,0,1.3,0.3,1.5,0.9c0.3,0.6,0.4,1.6,0.4,3.1
				v0.4l-1.6,0.9V654.8L500.7,654.8z"/>
			<path fill="#C4BA98" stroke="#000000" stroke-width="0.5" stroke-miterlimit="10" d="M513.7,667v-5.1H508v7.2l-1.8,0.6v-18.2h1.8
				v7.1h5.7v-7.1h1.8v14.8L513.7,667z"/>
			<path fill="#C4BA98" stroke="#000000" stroke-width="0.5" stroke-miterlimit="10" d="M519.6,669.7v-18.2h1.8v18.2H519.6z"/>
			<path fill="#C4BA98" stroke="#000000" stroke-width="0.5" stroke-miterlimit="10" d="M525.4,669.7v-18.2h6.7
				c0.6,0,1.1,0.3,1.4,0.8c0.3,0.6,0.4,1.5,0.4,2.7v4.1c0,1.2-0.1,2.1-0.4,2.7c-0.3,0.6-0.7,0.8-1.4,0.8h-4.9v6.3L525.4,669.7z
				 M531.3,654.7h-4.1v4.8h4.1c0.3,0,0.5-0.1,0.6-0.3c0.1-0.2,0.2-0.6,0.2-1.1v-1.9c0-0.5-0.1-0.9-0.2-1.1
				C531.9,654.8,531.7,654.7,531.3,654.7z"/>
		</g>
	</g>
</g>
</svg>
