<?xml version="1.0" encoding="utf-8"?>
<!-- Generator: Adobe Illustrator 18.1.1, SVG Export Plug-In . SVG Version: 6.00 Build 0)  -->
<svg version="1.1" id="图层_1" xmlns="http://www.w3.org/2000/svg" xmlns:xlink="http://www.w3.org/1999/xlink" x="0px" y="0px"
	 viewBox="0 0 612 792" enable-background="new 0 0 612 792" xml:space="preserve">
<g id="图层_1_1_">
	<g>
		<g id="图层_1_2_" display="none">
		</g>
		<g id="参考系_1_" display="none">
			<line display="inline" fill="none" stroke="#000000" stroke-miterlimit="10" x1="321.5" y1="661" x2="321.5" y2="99.3"/>
		</g>
		<g id="线稿_1_">
			<g>
				<path d="M308.2,203.7c-54.2,0-101.7,29-127.8,72.5l0,0l127.8,76.3l127.8-76.3l0,0C409.8,232.5,362.5,203.7,308.2,203.7z
					 M263.5,320.9c0,0,1.3-3.2,6.7-8.2c4.8-4.6,8.2-6.6,11.4-8.1l23.3,43.1L263.5,320.9z M305.2,345.8l-22.1-42.4c0,0,2.3-2.2,9-4.2
					c6-1.7,10.9-1.3,13.1-1.2V345.8z M309.8,298.3c3.4-0.1,7.4-0.7,13.6,1.2c6.7,2,9.3,4.2,9.3,4.2l-22.7,42.4v-47.8H309.8z
					 M311.5,347.7l23.3-43.1c3.2,1.5,6.8,3.5,11.4,8.1c5.2,5,6.7,8.2,6.7,8.2L311.5,347.7z"/>
				<circle fill="#00D0AA" stroke="#373023" stroke-miterlimit="10" cx="308.2" cy="276.3" r="5.4"/>
				<circle fill="#FFFFFF" stroke="#2B232B" stroke-width="2" stroke-miterlimit="10" cx="240.6" cy="281.5" r="13.8"/>
				<g>
					<path fill="#00D0AA" d="M314.4,224.5l-5.7,36.3c-0.3,2.5-1.1,2.5-1.4,0l-6.1-38.8c-0.3-2.5,0.9-4.3,2.7-4.3c2,0,3.6,0,4,0
						s2.2,0,4,0s3.2,1.4,2.8,3.4C314.6,223.1,314.4,224.5,314.4,224.5"/>
					<path fill="none" stroke="#373023" stroke-miterlimit="10" d="M314.4,224.5l-5.7,36.3c-0.3,2.5-1.1,2.5-1.4,0l-6.1-39.2
						c-0.3-2.5,0.9-4.6,2.7-4.6c2,0,3.6,0,4,0s2.2,0,4,0s3.2,1.7,2.8,3.7C314.6,222.9,314.4,224.5,314.4,224.5"/>
				</g>
				<g>
					<path fill="#00D0AA" d="M292,226.8l10.4,35.2c0.7,2.3,0.1,2.6-1.3,0.5l-22.1-33c-1.4-2.1-1.2-4.5,0.5-5.2
						c1.7-0.9,3.3-1.6,3.6-1.7c0.3-0.1,2-1,3.6-1.7c1.7-0.9,3.5,0.2,4.2,2.2C291.6,225.2,292,226.8,292,226.8"/>
					<path fill="none" stroke="#373023" stroke-miterlimit="10" d="M292,226.8l10.4,35.2c0.7,2.3,0.1,2.6-1.3,0.5l-22.1-33
						c-1.4-2.1-1.2-4.5,0.5-5.2c1.7-0.9,3.3-1.6,3.6-1.7c0.3-0.1,2-1,3.6-1.7c1.7-0.9,3.5,0.2,4.2,2.2
						C291.6,225.2,292,226.8,292,226.8"/>
				</g>
				<g>
					<path fill="#00D0AA" d="M272.7,238.3l24.2,27.5c1.7,2,1.3,2.3-1,1.1L262,246.4c-2.2-1.3-3-3.5-1.7-5c1.2-1.5,2.3-2.8,2.5-3.1
						s1.4-1.6,2.5-3.1c1.3-1.5,3.3-1.4,4.7,0.2C271.6,236.9,272.7,238.3,272.7,238.3"/>
					<path fill="none" stroke="#373023" stroke-miterlimit="10" d="M272.7,238.3l24.2,27.5c1.7,2,1.3,2.3-1,1.1L262,246.4
						c-2.2-1.3-3-3.5-1.7-5c1.2-1.5,2.3-2.8,2.5-3.1s1.4-1.6,2.5-3.1c1.3-1.5,3.3-1.4,4.7,0.2C271.6,236.9,272.7,238.3,272.7,238.3"
						/>
				</g>
				<g>
					<path fill="#00D0AA" d="M259.9,256.9l33.6,14.8c2.2,1.1,2.2,1.6-0.3,1.4l-39.5-4.4c-2.5-0.2-4.2-2-3.6-3.7
						c0.4-1.9,1-3.5,1.1-3.8c0.1-0.3,0.5-2.1,1.1-3.8c0.4-1.9,2.3-2.6,4.4-1.9C258.5,256.1,259.9,256.9,259.9,256.9"/>
					<path fill="none" stroke="#373023" stroke-miterlimit="10" d="M259.9,256.9l33.6,14.8c2.2,1.1,2.2,1.6-0.3,1.4l-39.5-4.4
						c-2.5-0.2-4.2-2-3.6-3.7c0.4-1.9,1-3.5,1.1-3.8c0.1-0.3,0.5-2.1,1.1-3.8c0.4-1.9,2.3-2.6,4.4-1.9
						C258.5,256.1,259.9,256.9,259.9,256.9"/>
				</g>
				<circle fill="#FFFFFF" stroke="#2B232B" stroke-width="2" stroke-miterlimit="10" cx="375.7" cy="281.5" r="13.8"/>
				<g>
					<path fill="#00D0AA" d="M324.3,226.8L313.9,262c-0.7,2.3-0.1,2.6,1.3,0.5l22.1-33c1.4-2.1,1.2-4.5-0.5-5.2s-3.3-1.6-3.6-1.7
						s-2-1-3.6-1.7c-1.7-0.9-3.5,0.2-4.2,2.2C324.8,225.2,324.3,226.8,324.3,226.8"/>
					<path fill="none" stroke="#373023" stroke-miterlimit="10" d="M324.3,226.8L313.9,262c-0.7,2.3-0.1,2.6,1.3,0.5l22.1-33
						c1.4-2.1,1.2-4.5-0.5-5.2s-3.3-1.6-3.6-1.7s-2-1-3.6-1.7c-1.7-0.9-3.5,0.2-4.2,2.2C324.8,225.2,324.3,226.8,324.3,226.8"/>
				</g>
				<g>
					<path fill="#00D0AA" d="M343.7,238.3l-24.2,27.5c-1.7,2-1.3,2.3,1,1.1l33.9-20.5c2.2-1.3,3-3.5,1.7-5c-1.2-1.5-2.3-2.8-2.5-3.1
						s-1.4-1.6-2.5-3.1c-1.3-1.5-3.3-1.4-4.7,0.2C344.7,236.9,343.7,238.3,343.7,238.3"/>
					<path fill="none" stroke="#373023" stroke-miterlimit="10" d="M343.7,238.3l-24.2,27.5c-1.7,2-1.3,2.3,1,1.1l33.9-20.5
						c2.2-1.3,3-3.5,1.7-5c-1.2-1.5-2.3-2.8-2.5-3.1s-1.4-1.6-2.5-3.1c-1.3-1.5-3.3-1.4-4.7,0.2
						C344.7,236.9,343.7,238.3,343.7,238.3"/>
				</g>
				<g>
					<path fill="#00D0AA" d="M356.5,256.9l-33.6,14.8c-2.2,1.1-2.2,1.6,0.3,1.4l39.5-4.4c2.5-0.2,4.2-2,3.6-3.7
						c-0.4-1.9-1-3.5-1.1-3.8c-0.1-0.3-0.5-2.1-1.1-3.8c-0.4-1.9-2.3-2.6-4.4-1.9C358,256.1,356.5,256.9,356.5,256.9"/>
					<path fill="none" stroke="#373023" stroke-miterlimit="10" d="M356.5,256.9l-33.6,14.8c-2.2,1.1-2.2,1.6,0.3,1.4l39.5-4.4
						c2.5-0.2,4.2-2,3.6-3.7c-0.4-1.9-1-3.5-1.1-3.8c-0.1-0.3-0.5-2.1-1.1-3.8c-0.4-1.9-2.3-2.6-4.4-1.9
						C358,256.1,356.5,256.9,356.5,256.9"/>
				</g>
				<path fill="none" stroke="#000000" stroke-miterlimit="10" d="M294.7,299"/>
				<path stroke="#2B232B" stroke-width="2" stroke-miterlimit="10" d="M308.2,358.4"/>
				<path stroke="#000000" stroke-miterlimit="10" d="M308.2,348.1l6.8,14.5c0,0-0.7,1.3-2.8,1.7c-2,0.4-2.7-0.3-3.3-0.5
					L308.2,348.1z"/>
				<path stroke="#000000" stroke-miterlimit="10" d="M308.2,348.1l12.2,10.4c0,0-0.1,1.4-1.9,2.7c-1.6,1.3-2.6,0.9-3.2,1
					L308.2,348.1z"/>
				<path stroke="#000000" stroke-miterlimit="10" d="M308.2,348.1l15.5,4.2c0,0,0.4,1.4-0.4,3.3c-1,1.9-2.1,1.9-2.5,2.2
					L308.2,348.1z"/>
				<path stroke="#000000" stroke-miterlimit="10" d="M308.2,348.1l-6.8,14.5c0,0,0.7,1.3,2.8,1.7c2,0.4,2.7-0.3,3.3-0.5
					L308.2,348.1z"/>
				<path stroke="#000000" stroke-miterlimit="10" d="M308.2,348.1l-12.2,10.4c0,0,0.1,1.4,1.9,2.7c1.6,1.3,2.6,0.9,3.2,1
					L308.2,348.1z"/>
				<path stroke="#000000" stroke-miterlimit="10" d="M308.2,348.1l-15.5,4.2c0,0-0.4,1.4,0.4,3.3c1,1.9,2.1,1.9,2.5,2.2
					L308.2,348.1z"/>
				<path stroke="#2B232B" stroke-miterlimit="10" d="M326.4,358.4"/>
			</g>
			<g>
				<path d="M176.6,314.6c-54.2,0-101.7,29-127.8,72.5l0,0l127.8,76.3L304.4,387l0,0C278.2,343.5,230.9,314.6,176.6,314.6z
					 M131.9,431.8c0,0,1.3-3.2,6.7-8.2c4.8-4.6,8.2-6.6,11.4-8.1l23.3,43.1L131.9,431.8z M173.8,456.9l-22.1-42.4c0,0,2.3-2.2,9-4.2
					c6-1.7,10.9-1.3,13.1-1.2V456.9z M178.2,409.2c3.4-0.1,7.4-0.7,13.6,1.2c6.7,2,9.3,4.2,9.3,4.2L178.4,457v-47.8H178.2z
					 M179.9,458.6l23.3-43.1c3.2,1.5,6.8,3.5,11.4,8.1c5.2,5,6.7,8.2,6.7,8.2L179.9,458.6z"/>
				<circle fill="#00D0AA" stroke="#373023" stroke-miterlimit="10" cx="176.6" cy="387.3" r="5.4"/>
				<circle fill="#FFFFFF" stroke="#2B232B" stroke-width="2" stroke-miterlimit="10" cx="109.2" cy="392.5" r="13.8"/>
				<g>
					<path fill="#00D0AA" d="M182.8,335.6l-5.7,36.3c-0.3,2.5-1.1,2.5-1.4,0l-6.1-38.8c-0.3-2.5,0.9-4.3,2.7-4.3s3.6,0,4,0
						c0.3,0,2.2,0,4,0c1.7,0,3.2,1.4,2.8,3.4C183.1,334.1,182.8,335.6,182.8,335.6"/>
					<path fill="none" stroke="#373023" stroke-miterlimit="10" d="M182.8,335.6l-5.7,36.3c-0.3,2.5-1.1,2.5-1.4,0l-6.1-39.2
						c-0.3-2.5,0.9-4.6,2.7-4.6s3.6,0,4,0c0.3,0,2.2,0,4,0c1.7,0,3.2,1.7,2.8,3.7C183.1,333.9,182.8,335.6,182.8,335.6"/>
				</g>
				<g>
					<path fill="#00D0AA" d="M160.4,337.8l10.4,35.2c0.7,2.3,0.1,2.6-1.3,0.5l-22.1-33c-1.4-2.1-1.2-4.5,0.5-5.2
						c1.7-0.9,3.3-1.6,3.6-1.7c0.3-0.1,2-1,3.6-1.7c1.7-0.9,3.5,0.2,4.2,2.2C160,336,160.4,337.8,160.4,337.8"/>
					<path fill="none" stroke="#373023" stroke-miterlimit="10" d="M160.4,337.8l10.4,35.2c0.7,2.3,0.1,2.6-1.3,0.5l-22.1-33
						c-1.4-2.1-1.2-4.5,0.5-5.2c1.7-0.9,3.3-1.6,3.6-1.7c0.3-0.1,2-1,3.6-1.7c1.7-0.9,3.5,0.2,4.2,2.2
						C160,336,160.4,337.8,160.4,337.8"/>
				</g>
				<g>
					<path fill="#00D0AA" d="M141.1,349.2l24.2,27.5c1.7,2,1.3,2.3-1,1.1l-33.8-20.5c-2.2-1.3-3-3.5-1.7-5c1.3-1.5,2.3-2.8,2.5-3.1
						c0.1-0.2,1.4-1.6,2.5-3.1c1.2-1.5,3.3-1.4,4.7,0.2C140,347.9,141.1,349.2,141.1,349.2"/>
					<path fill="none" stroke="#373023" stroke-miterlimit="10" d="M141.1,349.2l24.2,27.5c1.7,2,1.3,2.3-1,1.1l-33.8-20.5
						c-2.2-1.3-3-3.5-1.7-5c1.3-1.5,2.3-2.8,2.5-3.1c0.1-0.2,1.4-1.6,2.5-3.1c1.2-1.5,3.3-1.4,4.7,0.2
						C140,347.9,141.1,349.2,141.1,349.2"/>
				</g>
				<g>
					<path fill="#00D0AA" d="M128.3,367.7l33.6,14.8c2.2,1.1,2.2,1.6-0.3,1.4l-39.5-4.4c-2.5-0.2-4.2-2-3.6-3.7
						c0.4-1.7,1-3.5,1.1-3.8c0.1-0.3,0.5-2.1,1.1-3.8c0.4-1.9,2.3-2.6,4.4-1.9C126.9,367.1,128.3,367.7,128.3,367.7"/>
					<path fill="none" stroke="#373023" stroke-miterlimit="10" d="M128.3,367.7l33.6,14.8c2.2,1.1,2.2,1.6-0.3,1.4l-39.5-4.4
						c-2.5-0.2-4.2-2-3.6-3.7c0.4-1.7,1-3.5,1.1-3.8c0.1-0.3,0.5-2.1,1.1-3.8c0.4-1.9,2.3-2.6,4.4-1.9
						C126.9,367.1,128.3,367.7,128.3,367.7"/>
				</g>
				<circle fill="#FFFFFF" stroke="#2B232B" stroke-width="2" stroke-miterlimit="10" cx="244.1" cy="392.5" r="13.8"/>
				<g>
					<path fill="#00D0AA" d="M192.8,337.8l-10.4,35.2c-0.7,2.3-0.1,2.6,1.3,0.5l22.1-33c1.4-2.1,1.2-4.5-0.5-5.2
						c-1.7-0.9-3.3-1.6-3.6-1.7c-0.3-0.1-2-1-3.6-1.7c-1.7-0.9-3.5,0.2-4.2,2.2C193.2,336,192.8,337.8,192.8,337.8"/>
					<path fill="none" stroke="#373023" stroke-miterlimit="10" d="M192.8,337.8l-10.4,35.2c-0.7,2.3-0.1,2.6,1.3,0.5l22.1-33
						c1.4-2.1,1.2-4.5-0.5-5.2c-1.7-0.9-3.3-1.6-3.6-1.7c-0.3-0.1-2-1-3.6-1.7c-1.7-0.9-3.5,0.2-4.2,2.2
						C193.2,336,192.8,337.8,192.8,337.8"/>
				</g>
				<g>
					<path fill="#00D0AA" d="M212.1,349.2L188,376.8c-1.7,2-1.3,2.3,1,1.1l33.9-20.5c2.2-1.3,3-3.5,1.7-5c-1.2-1.5-2.3-2.8-2.5-3.1
						s-1.4-1.6-2.5-3.1c-1.3-1.5-3.3-1.4-4.7,0.2C213.2,347.9,212.1,349.2,212.1,349.2"/>
					<path fill="none" stroke="#373023" stroke-miterlimit="10" d="M212.1,349.2L188,376.8c-1.7,2-1.3,2.3,1,1.1l33.9-20.5
						c2.2-1.3,3-3.5,1.7-5c-1.2-1.5-2.3-2.8-2.5-3.1s-1.4-1.6-2.5-3.1c-1.3-1.5-3.3-1.4-4.7,0.2
						C213.2,347.9,212.1,349.2,212.1,349.2"/>
				</g>
				<g>
					<path fill="#00D0AA" d="M224.9,367.7l-33.6,14.8c-2.2,1.1-2.2,1.6,0.3,1.4l39.5-4.4c2.5-0.2,4.2-2,3.6-3.7
						c-0.4-1.9-1-3.5-1.1-3.8c-0.1-0.3-0.5-2.1-1.1-3.8c-0.4-1.9-2.3-2.6-4.4-1.9C226.4,367.1,224.9,367.7,224.9,367.7"/>
					<path fill="none" stroke="#373023" stroke-miterlimit="10" d="M224.9,367.7l-33.6,14.8c-2.2,1.1-2.2,1.6,0.3,1.4l39.5-4.4
						c2.5-0.2,4.2-2,3.6-3.7c-0.4-1.9-1-3.5-1.1-3.8c-0.1-0.3-0.5-2.1-1.1-3.8c-0.4-1.9-2.3-2.6-4.4-1.9
						C226.4,367.1,224.9,367.7,224.9,367.7"/>
				</g>
				<path fill="none" stroke="#000000" stroke-miterlimit="10" d="M163.3,409.9"/>
				<path stroke="#2B232B" stroke-width="2" stroke-miterlimit="10" d="M176.6,469.4"/>
				<path stroke="#000000" stroke-miterlimit="10" d="M176.6,459.1l6.8,14.5c0,0-0.7,1.3-2.8,1.7c-2,0.4-2.7-0.3-3.3-0.5
					L176.6,459.1z"/>
				<path stroke="#000000" stroke-miterlimit="10" d="M176.6,459.1l12.2,10.4c0,0-0.1,1.4-1.9,2.7c-1.6,1.3-2.6,0.9-3.2,1
					L176.6,459.1z"/>
				<path stroke="#000000" stroke-miterlimit="10" d="M176.6,459.1l15.5,4.2c0,0,0.4,1.4-0.4,3.3c-1,1.9-2.1,1.9-2.5,2.2
					L176.6,459.1z"/>
				<path stroke="#000000" stroke-miterlimit="10" d="M176.6,459.1l-6.8,14.5c0,0,0.7,1.3,2.8,1.7c2,0.4,2.7-0.3,3.3-0.5
					L176.6,459.1z"/>
				<path stroke="#000000" stroke-miterlimit="10" d="M176.6,459.1l-12.2,10.4c0,0,0.1,1.4,1.9,2.7c1.6,1.3,2.6,0.9,3.2,1
					L176.6,459.1z"/>
				<path stroke="#000000" stroke-miterlimit="10" d="M176.6,459.1l-15.5,4.2c0,0-0.4,1.4,0.4,3.3c1,1.9,2.1,1.9,2.5,2.2
					L176.6,459.1z"/>
				<path stroke="#2B232B" stroke-miterlimit="10" d="M194.9,469.4"/>
			</g>
			<g>
				<path d="M312.1,387L312.1,387l127.8,76.3L567.6,387l0,0c-25.9-43.4-73.4-72.5-127.8-72.5S338,343.5,312.1,387z M443,458.6
					l23.3-43.1c3.2,1.5,6.8,3.5,11.4,8.1c5.2,5,6.7,8.2,6.7,8.2L443,458.6z M442.6,409.2c2.2-0.1,7.2-0.7,13.1,1.2
					c6.7,2,9,4.2,9,4.2l-22.1,42.3V409.2L442.6,409.2z M438,456.9l-22.6-42.4c0,0,2.6-2.2,9.3-4.2c6-1.7,10.1-1.3,13.6-1.2
					L438,456.9L438,456.9z M395.1,431.8c0,0,1.3-3.2,6.7-8.2c4.8-4.6,8.2-6.6,11.4-8.1l23.3,43.1L395.1,431.8z"/>
				<circle fill="#00D0AA" stroke="#373023" stroke-miterlimit="10" cx="439.7" cy="387.3" r="5.4"/>
				<circle fill="#FFFFFF" stroke="#2B232B" stroke-width="2" stroke-miterlimit="10" cx="507.3" cy="392.5" r="13.8"/>
				<g>
					<path fill="#00D0AA" d="M433.4,335.6l5.7,36.3c0.3,2.5,1.1,2.5,1.4,0l6.1-38.8c0.3-2.5-0.9-4.3-2.7-4.3c-2,0-3.6,0-4,0
						c-0.3,0-2.2,0-4,0c-1.7,0-3.2,1.4-2.8,3.4C433.2,334.1,433.4,335.6,433.4,335.6"/>
					<path fill="none" stroke="#373023" stroke-miterlimit="10" d="M433.4,335.6l5.7,36.3c0.3,2.5,1.1,2.5,1.4,0l6.1-39.2
						c0.3-2.5-0.9-4.6-2.7-4.6c-2,0-3.6,0-4,0c-0.3,0-2.2,0-4,0c-1.7,0-3.2,1.7-2.8,3.7C433.2,333.9,433.4,335.6,433.4,335.6"/>
				</g>
				<g>
					<path fill="#00D0AA" d="M455.8,337.8l-10.4,35.2c-0.7,2.3-0.1,2.6,1.3,0.5l22.1-33c1.4-2.1,1.2-4.5-0.5-5.2
						c-1.7-0.9-3.3-1.6-3.6-1.7s-2-1-3.6-1.7c-1.7-0.9-3.5,0.2-4.2,2.2C456.4,336,455.8,337.8,455.8,337.8"/>
					<path fill="none" stroke="#373023" stroke-miterlimit="10" d="M455.8,337.8l-10.4,35.2c-0.7,2.3-0.1,2.6,1.3,0.5l22.1-33
						c1.4-2.1,1.2-4.5-0.5-5.2c-1.7-0.9-3.3-1.6-3.6-1.7s-2-1-3.6-1.7c-1.7-0.9-3.5,0.2-4.2,2.2C456.4,336,455.8,337.8,455.8,337.8"
						/>
				</g>
				<g>
					<path fill="#00D0AA" d="M475.3,349.2l-24.2,27.5c-1.7,2-1.3,2.3,1,1.1l33.8-20.5c2.2-1.3,3-3.5,1.7-5c-1.2-1.5-2.3-2.8-2.5-3.1
						s-1.4-1.6-2.5-3.1c-1.3-1.5-3.3-1.4-4.7,0.2C476.3,347.9,475.3,349.2,475.3,349.2"/>
					<path fill="none" stroke="#373023" stroke-miterlimit="10" d="M475.3,349.2l-24.2,27.5c-1.7,2-1.3,2.3,1,1.1l33.8-20.5
						c2.2-1.3,3-3.5,1.7-5c-1.2-1.5-2.3-2.8-2.5-3.1s-1.4-1.6-2.5-3.1c-1.3-1.5-3.3-1.4-4.7,0.2
						C476.3,347.9,475.3,349.2,475.3,349.2"/>
				</g>
				<g>
					<path fill="#00D0AA" d="M488.1,367.7l-33.6,14.8c-2.2,1.1-2.2,1.6,0.3,1.4l39.5-4.4c2.5-0.2,4.2-2,3.6-3.7
						c-0.4-1.9-1-3.5-1.1-3.8c-0.1-0.3-0.5-2.1-1.1-3.8c-0.4-1.7-2.3-2.6-4.4-1.9C489.5,367.1,488.1,367.7,488.1,367.7"/>
					<path fill="none" stroke="#373023" stroke-miterlimit="10" d="M488.1,367.7l-33.6,14.8c-2.2,1.1-2.2,1.6,0.3,1.4l39.5-4.4
						c2.5-0.2,4.2-2,3.6-3.7c-0.4-1.9-1-3.5-1.1-3.8c-0.1-0.3-0.5-2.1-1.1-3.8c-0.4-1.7-2.3-2.6-4.4-1.9
						C489.5,367.1,488.1,367.7,488.1,367.7"/>
				</g>
				<circle fill="#FFFFFF" stroke="#2B232B" stroke-width="2" stroke-miterlimit="10" cx="372.2" cy="392.5" r="13.8"/>
				<g>
					<path fill="#00D0AA" d="M423.6,337.8l10.4,35.2c0.7,2.3,0.1,2.6-1.3,0.5l-22.1-33c-1.4-2.1-1.2-4.5,0.5-5.2
						c1.7-0.9,3.3-1.6,3.6-1.7c0.3-0.1,2-1,3.6-1.7c1.7-0.9,3.5,0.2,4.2,2.2C423.2,336,423.6,337.8,423.6,337.8"/>
					<path fill="none" stroke="#373023" stroke-miterlimit="10" d="M423.6,337.8l10.4,35.2c0.7,2.3,0.1,2.6-1.3,0.5l-22.1-33
						c-1.4-2.1-1.2-4.5,0.5-5.2c1.7-0.9,3.3-1.6,3.6-1.7c0.3-0.1,2-1,3.6-1.7c1.7-0.9,3.5,0.2,4.2,2.2
						C423.2,336,423.6,337.8,423.6,337.8"/>
				</g>
				<g>
					<path fill="#00D0AA" d="M404.2,349.2l24.2,27.5c1.7,2,1.3,2.3-1,1.1l-33.8-20.5c-2.2-1.3-3-3.5-1.7-5s2.3-2.8,2.5-3.1
						s1.4-1.6,2.5-3.1c1.3-1.5,3.3-1.4,4.7,0.2C403.2,347.9,404.2,349.2,404.2,349.2"/>
					<path fill="none" stroke="#373023" stroke-miterlimit="10" d="M404.2,349.2l24.2,27.5c1.7,2,1.3,2.3-1,1.1l-33.8-20.5
						c-2.2-1.3-3-3.5-1.7-5s2.3-2.8,2.5-3.1s1.4-1.6,2.5-3.1c1.3-1.5,3.3-1.4,4.7,0.2C403.2,347.9,404.2,349.2,404.2,349.2"/>
				</g>
				<g>
					<path fill="#00D0AA" d="M391.5,367.7l33.6,14.8c2.2,1.1,2.2,1.6-0.3,1.4l-39.5-4.4c-2.5-0.2-4.2-2-3.6-3.7
						c0.4-1.9,1-3.5,1.1-3.8c0.1-0.3,0.5-2.1,1.1-3.8c0.4-1.9,2.3-2.6,4.4-1.9C389.9,367.1,391.5,367.7,391.5,367.7"/>
					<path fill="none" stroke="#373023" stroke-miterlimit="10" d="M391.5,367.7l33.6,14.8c2.2,1.1,2.2,1.6-0.3,1.4l-39.5-4.4
						c-2.5-0.2-4.2-2-3.6-3.7c0.4-1.9,1-3.5,1.1-3.8c0.1-0.3,0.5-2.1,1.1-3.8c0.4-1.9,2.3-2.6,4.4-1.9
						C389.9,367.1,391.5,367.7,391.5,367.7"/>
				</g>
				<path fill="none" stroke="#000000" stroke-miterlimit="10" d="M453.1,409.9"/>
				<path stroke="#2B232B" stroke-width="2" stroke-miterlimit="10" d="M439.7,469.4"/>
				<path stroke="#000000" stroke-miterlimit="10" d="M439.7,459.1l-6.8,14.5c0,0,0.7,1.3,2.8,1.7c2,0.4,2.7-0.3,3.3-0.5
					L439.7,459.1z"/>
				<path stroke="#000000" stroke-miterlimit="10" d="M439.7,459.1l-12.2,10.4c0,0,0.1,1.4,1.9,2.7c1.6,1.3,2.6,0.9,3.2,1
					L439.7,459.1z"/>
				<path stroke="#000000" stroke-miterlimit="10" d="M439.7,459.1l-15.5,4.2c0,0-0.4,1.4,0.4,3.3c1,1.9,2.1,1.9,2.5,2.2
					L439.7,459.1z"/>
				<path stroke="#000000" stroke-miterlimit="10" d="M439.7,459.1l6.8,14.5c0,0-0.7,1.3-2.8,1.7c-2,0.4-2.7-0.3-3.3-0.5
					L439.7,459.1z"/>
				<path stroke="#000000" stroke-miterlimit="10" d="M439.7,459.1l12.2,10.4c0,0-0.1,1.4-1.9,2.7c-1.6,1.3-2.6,0.9-3.2,1
					L439.7,459.1z"/>
				<path stroke="#000000" stroke-miterlimit="10" d="M439.7,459.1l15.5,4.2c0,0,0.4,1.4-0.4,3.3c-1,1.9-2.1,1.9-2.5,2.2
					L439.7,459.1z"/>
				<path stroke="#2B232B" stroke-miterlimit="10" d="M421.5,469.4"/>
			</g>
			<g>
				<path d="M308.2,418.7c-54.2,0-101.7,29-127.8,72.5l0,0l127.8,76.2l127.8-76.3l0,0C409.8,447.7,362.5,418.7,308.2,418.7z
					 M263.5,535.9c0,0,1.3-3.2,6.7-8.2c4.8-4.6,8.2-6.6,11.4-8.1l23.3,43.1L263.5,535.9z M305.2,560.9l-22.1-42.4c0,0,2.3-2.2,9-4.2
					c6-1.7,10.9-1.3,13.1-1.2V560.9z M309.8,513.3c3.4-0.1,7.4-0.7,13.6,1.2c6.7,2,9.3,4.2,9.3,4.2L309.9,561v-47.8H309.8z
					 M311.5,562.7l23.3-43.1c3.2,1.5,6.8,3.5,11.4,8.1c5.2,5,6.7,8.2,6.7,8.2L311.5,562.7z"/>
				<circle fill="#00D0AA" stroke="#373023" stroke-miterlimit="10" cx="308.2" cy="491.3" r="5.4"/>
				<circle fill="#FFFFFF" stroke="#2B232B" stroke-width="2" stroke-miterlimit="10" cx="240.6" cy="496.7" r="13.8"/>
				<g>
					<path fill="#00D0AA" d="M314.4,439.7l-5.7,36.3c-0.3,2.5-1.1,2.5-1.4,0l-6.1-38.8c-0.3-2.5,0.9-4.3,2.7-4.3c2,0,3.6,0,4,0
						s2.2,0,4,0s3.2,1.4,2.8,3.4C314.6,438.3,314.4,439.7,314.4,439.7"/>
					<path fill="none" stroke="#373023" stroke-miterlimit="10" d="M314.4,439.7l-5.7,36.3c-0.3,2.5-1.1,2.5-1.4,0l-6.1-39.2
						c-0.3-2.5,0.9-4.6,2.7-4.6c2,0,3.6,0,4,0s2.2,0,4,0s3.2,1.7,2.8,3.7C314.6,438.1,314.4,439.7,314.4,439.7"/>
				</g>
				<g>
					<path fill="#00D0AA" d="M292,441.8l10.4,35.2c0.7,2.3,0.1,2.6-1.3,0.5l-22.1-33c-1.4-2.1-1.2-4.5,0.5-5.2
						c1.7-0.9,3.3-1.6,3.6-1.7c0.3-0.1,2-1,3.6-1.7c1.7-0.9,3.5,0.2,4.2,2.2C291.6,440.2,292,441.8,292,441.8"/>
					<path fill="none" stroke="#373023" stroke-miterlimit="10" d="M292,441.8l10.4,35.2c0.7,2.3,0.1,2.6-1.3,0.5l-22.1-33
						c-1.4-2.1-1.2-4.5,0.5-5.2c1.7-0.9,3.3-1.6,3.6-1.7c0.3-0.1,2-1,3.6-1.7c1.7-0.9,3.5,0.2,4.2,2.2
						C291.6,440.2,292,441.8,292,441.8"/>
				</g>
				<g>
					<path fill="#00D0AA" d="M272.7,453.3l24.2,27.5c1.7,2,1.3,2.3-1,1.1L262,461.4c-2.2-1.3-3-3.5-1.7-5c1.3-1.5,2.3-2.8,2.5-3.1
						c0.2-0.2,1.4-1.6,2.5-3.1c1.3-1.5,3.3-1.4,4.7,0.2C271.6,452.1,272.7,453.3,272.7,453.3"/>
					<path fill="none" stroke="#373023" stroke-miterlimit="10" d="M272.7,453.3l24.2,27.5c1.7,2,1.3,2.3-1,1.1L262,461.4
						c-2.2-1.3-3-3.5-1.7-5c1.3-1.5,2.3-2.8,2.5-3.1c0.2-0.2,1.4-1.6,2.5-3.1c1.3-1.5,3.3-1.4,4.7,0.2
						C271.6,452.1,272.7,453.3,272.7,453.3"/>
				</g>
				<g>
					<path fill="#00D0AA" d="M259.9,471.8l33.6,14.8c2.2,1.1,2.2,1.6-0.3,1.4l-39.5-4.4c-2.5-0.2-4.2-2-3.6-3.7
						c0.4-1.9,1-3.5,1.1-3.8c0.1-0.3,0.5-2.1,1.1-3.8c0.4-1.9,2.3-2.6,4.4-1.9C258.5,471.3,259.9,471.8,259.9,471.8"/>
					<path fill="none" stroke="#373023" stroke-miterlimit="10" d="M259.9,471.8l33.6,14.8c2.2,1.1,2.2,1.6-0.3,1.4l-39.5-4.4
						c-2.5-0.2-4.2-2-3.6-3.7c0.4-1.9,1-3.5,1.1-3.8c0.1-0.3,0.5-2.1,1.1-3.8c0.4-1.9,2.3-2.6,4.4-1.9
						C258.5,471.3,259.9,471.8,259.9,471.8"/>
				</g>
				<circle fill="#FFFFFF" stroke="#2B232B" stroke-width="2" stroke-miterlimit="10" cx="375.7" cy="496.7" r="13.8"/>
				<g>
					<path fill="#00D0AA" d="M324.3,441.8L313.9,477c-0.7,2.3-0.1,2.6,1.3,0.5l22.1-33c1.4-2.1,1.2-4.5-0.5-5.2
						c-1.7-0.8-3.3-1.6-3.6-1.7s-2-1-3.6-1.7c-1.6-0.9-3.5,0.2-4.2,2.2C324.8,440.2,324.3,441.8,324.3,441.8"/>
					<path fill="none" stroke="#373023" stroke-miterlimit="10" d="M324.3,441.8L313.9,477c-0.7,2.3-0.1,2.6,1.3,0.5l22.1-33
						c1.4-2.1,1.2-4.5-0.5-5.2c-1.7-0.8-3.3-1.6-3.6-1.7s-2-1-3.6-1.7c-1.6-0.9-3.5,0.2-4.2,2.2
						C324.8,440.2,324.3,441.8,324.3,441.8"/>
				</g>
				<g>
					<path fill="#00D0AA" d="M343.7,453.3l-24.2,27.5c-1.7,2-1.3,2.3,1,1.1l33.9-20.5c2.2-1.3,3-3.5,1.7-5c-1.3-1.5-2.3-2.8-2.5-3.1
						c-0.2-0.2-1.4-1.6-2.5-3.1c-1.3-1.5-3.3-1.4-4.7,0.2C344.7,452.1,343.7,453.3,343.7,453.3"/>
					<path fill="none" stroke="#373023" stroke-miterlimit="10" d="M343.7,453.3l-24.2,27.5c-1.7,2-1.3,2.3,1,1.1l33.9-20.5
						c2.2-1.3,3-3.5,1.7-5c-1.3-1.5-2.3-2.8-2.5-3.1c-0.2-0.2-1.4-1.6-2.5-3.1c-1.3-1.5-3.3-1.4-4.7,0.2
						C344.7,452.1,343.7,453.3,343.7,453.3"/>
				</g>
				<g>
					<path fill="#00D0AA" d="M356.5,471.8l-33.6,14.8c-2.2,1.1-2.2,1.6,0.3,1.4l39.5-4.4c2.5-0.2,4.2-2,3.6-3.7
						c-0.4-1.7-1-3.5-1.1-3.8c-0.1-0.3-0.5-2.1-1.1-3.8c-0.4-1.9-2.3-2.6-4.4-1.9C358,471.3,356.5,471.8,356.5,471.8"/>
					<path fill="none" stroke="#373023" stroke-miterlimit="10" d="M356.5,471.8l-33.6,14.8c-2.2,1.1-2.2,1.6,0.3,1.4l39.5-4.4
						c2.5-0.2,4.2-2,3.6-3.7c-0.4-1.7-1-3.5-1.1-3.8c-0.1-0.3-0.5-2.1-1.1-3.8c-0.4-1.9-2.3-2.6-4.4-1.9
						C358,471.3,356.5,471.8,356.5,471.8"/>
				</g>
				<path fill="none" stroke="#000000" stroke-miterlimit="10" d="M294.7,514"/>
				<path stroke="#2B232B" stroke-width="2" stroke-miterlimit="10" d="M308.2,573.5"/>
				<path stroke="#000000" stroke-miterlimit="10" d="M308.2,563.2l6.8,14.5c0,0-0.7,1.3-2.8,1.7c-2,0.4-2.7-0.3-3.3-0.5
					L308.2,563.2z"/>
				<path stroke="#000000" stroke-miterlimit="10" d="M308.2,563.2l12.2,10.4c0,0-0.1,1.4-1.9,2.7c-1.6,1.3-2.6,0.9-3.2,1
					L308.2,563.2z"/>
				<path stroke="#000000" stroke-miterlimit="10" d="M308.2,563.2l15.5,4.2c0,0,0.4,1.4-0.4,3.3c-1,1.9-2.1,1.9-2.5,2.2
					L308.2,563.2z"/>
				<path stroke="#000000" stroke-miterlimit="10" d="M308.2,563.2l-6.8,14.5c0,0,0.7,1.3,2.8,1.7c2,0.4,2.7-0.3,3.3-0.5
					L308.2,563.2z"/>
				<path stroke="#000000" stroke-miterlimit="10" d="M308.2,563.2l-12.2,10.4c0,0,0.1,1.4,1.9,2.7c1.6,1.3,2.6,0.9,3.2,1
					L308.2,563.2z"/>
				<path stroke="#000000" stroke-miterlimit="10" d="M308.2,563.2l-15.5,4.2c0,0-0.4,1.4,0.4,3.3c1,1.9,2.1,1.9,2.5,2.2
					L308.2,563.2z"/>
				<path stroke="#2B232B" stroke-miterlimit="10" d="M326.4,573.5"/>
			</g>
		</g>
	</g>
</g>
<g id="图层_2" display="none">
	<line display="inline" fill="none" stroke="#000000" stroke-miterlimit="10" x1="302.5" y1="107.8" x2="302.5" y2="584.7"/>
</g>
<g id="图层_3">
	<path display="none" fill="none" stroke="#000000" stroke-miterlimit="10" d="M615.7,292.7c-13.3-3.3-32.1-7.5-54.9-11.7
		c-21.2-4-100.9-18-209-17.3c-48.3,0.3-109.3,3.7-179.2,14.9l-6.7-6.2"/>
	<g>
		
			<linearGradient id="SVGID_1_" gradientUnits="userSpaceOnUse" x1="64.8827" y1="783.9745" x2="770.0126" y2="783.9745" gradientTransform="matrix(-0.5777 -0.2697 0.2697 -0.5777 265.6863 955.0213)">
			<stop  offset="7.142857e-002" style="stop-color:#424242"/>
			<stop  offset="0.3316" style="stop-color:#B5B5B5"/>
			<stop  offset="0.6786" style="stop-color:#5C5C5C"/>
		</linearGradient>
		<path fill="url(#SVGID_1_)" stroke="#000000" stroke-miterlimit="10" d="M434,487.8c-72.3-21.3-129.6-44.6-170.7-63.3
			c-38.8-17.6-67.6-33.1-80.2-40c-20-10.9-48.7-26.9-84.4-51.5c-19.6-13.6-35.8-25.9-47.8-35.4c-2.1-1.7-6.4-5.9-8.6-12.5
			c-1.2-3.6-1.4-6.8-1.4-9.1c10.7,8.5,25.9,20.4,44.7,33.8c17.6,12.6,83.7,59,182.1,104c44,20.1,100.5,42.8,168.6,62.3l3.4,8.4
			L434,487.8z"/>
		<path fill="#E6E6E6" stroke="#999999" stroke-width="0.5" stroke-miterlimit="10" d="M439.7,484.6c-1.9,1.1-3.8,2.1-5.8,3.2
			c-72.3-21.3-129.6-44.6-170.7-63.3c-38.8-17.6-67.6-33.1-80.2-40c-20-10.9-48.7-26.9-84.4-51.5c-19.6-13.6-35.8-25.9-47.8-35.4
			c-2.1-1.7-6.4-5.9-8.6-12.5c-1.2-3.6-1.4-6.8-1.4-9.1l5.8,4.6c0,0,1.7,7.3,2.2,8.2c0.5,1,3,3.6,3,3.6c1.1,2.1,2.2,3.4,3.1,4.3
			c2.3,2.2,5.2,3.5,6.4,4c2.2,1,3.2,1.1,4.3,2.2c1.1,1.3,0.7,2,1.5,3.4c1.5,2.6,4,1.6,7.4,4c3.2,2.2,2.1,3.7,5.4,6
			c2.8,1.9,3.8,0.9,6.4,2.7c2.6,1.7,2.3,3.3,4.6,5.4c2.7,2.6,4.4,1.7,8.1,3.6c6.1,3.2,4.9,6.9,10.8,9.8c4,2,4.7,0.3,8.9,2.6
			c4.3,2.3,4,4.4,8.5,7.3c4.4,2.7,5.1,1.3,9.1,3.7c5.1,3.3,4,6.1,8.4,8.6c4.9,2.8,7.3,0,12,3.1c3.6,2.3,3,4.6,7,7.2
			c3.5,2.2,4.9,1.1,9.1,2.7c7,3,6.1,7.6,12.8,10.6c5.4,2.3,6.9-0.3,11.8,2.3c5.2,3,4.6,6.6,9.7,8.6c4.4,1.7,6.1-0.3,10.4,1.9
			c3.8,2,3.1,4,6.9,6.4c5.1,3.3,8.2,0.4,14.1,3.5c4.8,2.6,3.4,4.8,8.2,7.3c6,3.2,9.1,0.1,14.5,3.5c3.7,2.3,2.8,4,6.8,6.2
			c4.3,2.3,6.2,1,11.4,3c5.1,2,4.3,3.7,9.3,6.1c6.8,3.1,9.7,0.2,15.4,3.7c3.6,2.2,2.6,3.5,6.1,5.4c5.8,3.2,8.5,0,14,3.1
			c4,2.2,4.3,5,8,5.5c2.7,0.3,3.3-1,5.8-0.2c3.4,0.9,3.2,3.4,6.8,4.9c3.5,1.5,4.7-0.4,8.4,1.1c3.2,1.3,3.2,3.2,6.1,4.6
			c2.6,1.3,3.5,0.2,8.1,0.5c2.8,0.2,7.8,0.7,12.1,3.6c3.4,2.3,3.2,4.2,6.3,5.1c3.1,1.1,3.7-0.3,7.5,0.2c4.9,1,5.1,4,10.4,5.1
			c4.2,1,4.5-0.7,8.1,0.3c4.7,1.4,4.6,4.6,9,5.7c3.5,0.9,4.8-1.1,9.2-0.9C434,480.8,437.3,482.6,439.7,484.6z"/>
		
			<rect x="431.1" y="475.1" transform="matrix(-0.9609 -0.2769 0.2769 -0.9609 724.3345 1068.0551)" fill="#F7931E" stroke="#000000" stroke-miterlimit="10" width="12.9" height="15.5"/>
		<g>
			
				<rect x="441.1" y="463.8" transform="matrix(-0.9611 -0.2762 0.2762 -0.9611 736.2704 1073.1847)" fill="#A67C52" stroke="#000000" stroke-miterlimit="10" width="5.2" height="42"/>
			
				<rect x="441.1" y="480.5" transform="matrix(-0.9611 -0.2762 0.2762 -0.9611 736.2594 1073.0515)" fill="#534741" stroke="#000000" stroke-miterlimit="10" width="5.2" height="8.4"/>
		</g>
		<path fill="#534741" stroke="#000000" stroke-miterlimit="10" d="M448.4,479.1c22.5,6.8,47.8,13.2,75.5,18.6
			c27.9,5.2,53.7,8.5,77.2,10.6c-0.3,5.2-0.1,9.1-0.3,14.3c-22.8-2.1-42.2-4-58.5-6.8c-13.8-2.3-37.4-6.6-66.2-14.2
			c-12.8-3.4-23.5-6.8-31.6-9.4L448.4,479.1z"/>
		<line fill="none" stroke="#000000" stroke-miterlimit="10" x1="457.9" y1="496.4" x2="457.9" y2="496.4"/>
		<g>
			<polygon fill="#999999" stroke="#000000" stroke-width="0.75" stroke-miterlimit="10" points="453.2,493.3 452.8,486.6 
				456.3,482.6 457.1,488.6 			"/>
			<path fill="none" stroke="#333333" stroke-width="0.75" stroke-miterlimit="10" d="M452.8,493.7c-0.4-2.2-1.1-6.9-1.2-10.1
				c0-1.9,0-3.1,0.2-4.2"/>
			<path fill="none" stroke="#333333" stroke-width="0.75" stroke-miterlimit="10" d="M459.8,495.3c-0.9-2.1-2.5-6.4-3-9.7
				c-0.2-1.9-0.4-3.1-0.4-4.2"/>
			<circle fill="#1A1A1A" cx="455" cy="487.8" r="0.9"/>
		</g>
		<g>
			<polygon fill="#999999" stroke="#000000" stroke-width="0.75" stroke-miterlimit="10" points="458.9,494.6 458.7,488 462.1,484 
				463,489.9 			"/>
			<path fill="none" stroke="#333333" stroke-width="0.75" stroke-miterlimit="10" d="M458.6,495.1c-0.4-2.2-1.1-6.9-1.1-10.1
				c0-1.9,0.1-3.1,0.2-4.2"/>
			<path fill="none" stroke="#333333" stroke-width="0.75" stroke-miterlimit="10" d="M465.4,496.8c-0.9-2.1-2.5-6.6-2.8-9.7
				c-0.2-1.9-0.4-3.1-0.4-4.2"/>
			<circle fill="#1A1A1A" cx="460.9" cy="489.2" r="0.9"/>
		</g>
		<g>
			<polyline fill="#999999" stroke="#000000" stroke-width="0.75" stroke-miterlimit="10" points="464.9,493.6 464.5,489.7 
				467.5,485.4 468.9,491.2 465.2,496.2 464.9,493.6 			"/>
			<path fill="none" stroke="#333333" stroke-width="0.75" stroke-miterlimit="10" d="M465,496.8c-0.5-2.2-1.6-6.8-2-9.9
				c-0.2-1.9-0.2-3.1-0.1-4.2"/>
			<path fill="none" stroke="#333333" stroke-width="0.75" stroke-miterlimit="10" d="M472,497.7c-1.1-2.1-3.1-6.2-3.7-9.5
				c-0.3-1.7-0.7-3-0.9-4.2"/>
			<circle fill="#1A1A1A" cx="466.5" cy="490.6" r="0.9"/>
		</g>
		<g>
			<polygon fill="#999999" stroke="#000000" stroke-width="0.75" stroke-miterlimit="10" points="470.9,498.8 469.7,492.3 
				472.6,487.8 474.2,493.7 			"/>
			<path fill="none" stroke="#333333" stroke-width="0.75" stroke-miterlimit="10" d="M470.7,499.3c-0.7-2.2-2-6.8-2.5-9.8
				c-0.2-1.7-0.3-3.1-0.3-4.2"/>
			<path fill="none" stroke="#333333" stroke-width="0.75" stroke-miterlimit="10" d="M477.6,500c-1.1-2-3.3-6.1-4.2-9.3
				c-0.4-1.7-1-3-1.1-4"/>
			<circle fill="#1A1A1A" cx="472" cy="493.3" r="0.9"/>
		</g>
		<g>
			<polygon fill="#999999" stroke="#000000" stroke-width="0.75" stroke-miterlimit="10" points="476.7,500.3 475.5,493.7 
				478.5,489.2 480.1,495.1 			"/>
			<path fill="none" stroke="#333333" stroke-width="0.75" stroke-miterlimit="10" d="M476.3,500.7c-0.7-2.2-1.9-6.8-2.3-9.9
				c-0.2-1.7-0.3-3.1-0.2-4.2"/>
			<path fill="none" stroke="#333333" stroke-width="0.75" stroke-miterlimit="10" d="M483.4,501.6c-1.1-2-3.2-6.2-4-9.4
				c-0.4-1.7-0.9-3-1.1-4"/>
			<circle fill="#1A1A1A" cx="477.7" cy="494.6" r="0.9"/>
		</g>
		<g>
			<polygon fill="#999999" stroke="#000000" stroke-width="0.75" stroke-miterlimit="10" points="482.6,501.8 481.3,495.2 
				484,490.6 485.9,496.4 			"/>
			<path fill="none" stroke="#333333" stroke-width="0.75" stroke-miterlimit="10" d="M482.4,502.2c-0.9-2.2-2.1-6.7-2.7-9.8
				c-0.3-1.7-0.4-3.1-0.4-4.2"/>
			<path fill="none" stroke="#333333" stroke-width="0.75" stroke-miterlimit="10" d="M489.3,502.8c-1.2-2-3.4-6.1-4.4-9.2
				c-0.4-1.7-1-3-1.2-4"/>
			<circle fill="#1A1A1A" cx="483.6" cy="496" r="0.9"/>
		</g>
		<g>
			<polygon fill="#999999" stroke="#000000" stroke-width="0.75" stroke-miterlimit="10" points="489.6,503.6 488.2,497.1 
				490.8,492.6 492.8,498.3 			"/>
			<path fill="none" stroke="#333333" stroke-width="0.75" stroke-miterlimit="10" d="M489.2,504.1c-0.9-2.2-2.1-6.7-2.7-9.8
				c-0.3-1.7-0.4-3.1-0.4-4.2"/>
			<path fill="none" stroke="#333333" stroke-width="0.75" stroke-miterlimit="10" d="M496.3,504.6c-1.2-2-3.5-6-4.5-9.2
				c-0.4-1.7-1-3-1.2-4"/>
			<circle fill="#1A1A1A" cx="490.4" cy="498" r="0.9"/>
		</g>
		<g>
			<polygon fill="#999999" stroke="#000000" stroke-width="0.75" stroke-miterlimit="10" points="495.2,505.1 494,498.5 496.7,494 
				498.5,499.8 			"/>
			<path fill="none" stroke="#333333" stroke-width="0.75" stroke-miterlimit="10" d="M495,505.5c-0.7-2.2-2-6.7-2.6-9.8
				c-0.3-1.7-0.3-3.1-0.3-4.2"/>
			<path fill="none" stroke="#333333" stroke-width="0.75" stroke-miterlimit="10" d="M501.8,506.2c-1.2-2-3.4-6.1-4.3-9.3
				c-0.4-1.7-1-3-1.1-4"/>
			<circle fill="#1A1A1A" cx="496.3" cy="499.3" r="0.9"/>
		</g>
		<g>
			<polygon fill="#999999" stroke="#000000" stroke-width="0.75" stroke-miterlimit="10" points="501.1,506.5 499.8,499.9 
				502.6,495.4 504.4,501.2 			"/>
			<path fill="none" stroke="#333333" stroke-width="0.75" stroke-miterlimit="10" d="M500.9,506.9c-0.7-2.2-2-6.7-2.6-9.8
				c-0.3-1.7-0.3-3.1-0.3-4.2"/>
			<path fill="none" stroke="#333333" stroke-width="0.75" stroke-miterlimit="10" d="M507.7,507.6c-1.2-2-3.4-6.1-4.3-9.3
				c-0.4-1.7-1-3-1.2-4"/>
			<circle fill="#1A1A1A" cx="501.9" cy="500.7" r="0.9"/>
		</g>
		<g>
			<polygon fill="#999999" stroke="#000000" stroke-width="0.75" stroke-miterlimit="10" points="507,507.9 505.7,501.4 
				508.3,496.9 510.3,502.6 			"/>
			<path fill="none" stroke="#333333" stroke-width="0.75" stroke-miterlimit="10" d="M506.6,508.3c-0.7-2.2-2-6.7-2.6-9.8
				c-0.3-1.7-0.3-3.1-0.3-4.2"/>
			<path fill="none" stroke="#333333" stroke-width="0.75" stroke-miterlimit="10" d="M513.6,508.9c-1.2-2-3.4-6.1-4.3-9.3
				c-0.4-1.7-1-3-1.2-4"/>
			<circle fill="#1A1A1A" cx="507.9" cy="502.2" r="0.9"/>
		</g>
		<g>
			<polygon fill="#999999" stroke="#000000" stroke-width="0.75" stroke-miterlimit="10" points="512.5,509.3 511.5,502.8 
				514.3,498.3 515.9,504.1 			"/>
			<path fill="none" stroke="#333333" stroke-width="0.75" stroke-miterlimit="10" d="M512.3,509.8c-0.7-2.2-1.9-6.8-2.3-9.9
				c-0.2-1.7-0.3-3.1-0.2-4.2"/>
			<path fill="none" stroke="#333333" stroke-width="0.75" stroke-miterlimit="10" d="M519.2,510.5c-1.1-2-3.2-6.2-4-9.4
				c-0.4-1.7-0.9-3-1.1-4"/>
			<circle fill="#1A1A1A" cx="513.8" cy="503.6" r="0.9"/>
		</g>
		<g>
			<polygon fill="#999999" stroke="#000000" stroke-width="0.75" stroke-miterlimit="10" points="518.3,510.8 517.2,504 
				520.2,499.7 521.8,505.5 			"/>
			<path fill="none" stroke="#333333" stroke-width="0.75" stroke-miterlimit="10" d="M518.1,511.2c-0.7-2.2-1.7-6.8-2.2-9.9
				c-0.2-1.7-0.2-3.1-0.2-4.2"/>
			<path fill="none" stroke="#333333" stroke-width="0.75" stroke-miterlimit="10" d="M525,512c-1.1-2.1-3.2-6.2-3.8-9.4
				c-0.4-1.7-0.9-3-1-4"/>
			<circle fill="#1A1A1A" cx="519.5" cy="505.1" r="0.9"/>
		</g>
		<g>
			<polygon fill="#999999" stroke="#000000" stroke-width="0.75" stroke-miterlimit="10" points="523.5,511.7 521.9,505.2 
				524.7,500.6 526.5,506.4 			"/>
			<path fill="none" stroke="#333333" stroke-width="0.75" stroke-miterlimit="10" d="M523.3,512.3c-0.9-2.1-2.2-6.7-2.8-9.7
				c-0.3-1.7-0.4-3.1-0.4-4.2"/>
			<path fill="none" stroke="#333333" stroke-width="0.75" stroke-miterlimit="10" d="M530.1,512.6c-1.2-2-3.5-6-4.6-9.2
				c-0.5-1.7-1.1-3-1.2-4"/>
			<circle fill="#1A1A1A" cx="524.4" cy="506.1" r="0.9"/>
		</g>
		<g>
			<polygon fill="#999999" stroke="#000000" stroke-width="0.75" stroke-miterlimit="10" points="529.6,512 528.3,505.5 531,500.9 
				532.9,506.7 			"/>
			<path fill="none" stroke="#333333" stroke-width="0.75" stroke-miterlimit="10" d="M529.4,512.5c-0.9-2.2-2.1-6.7-2.7-9.8
				c-0.3-1.7-0.4-3.1-0.4-4.2"/>
			<path fill="none" stroke="#333333" stroke-width="0.75" stroke-miterlimit="10" d="M536.4,513c-1.2-2-3.4-6.1-4.4-9.2
				c-0.4-1.7-1-3-1.2-4"/>
			<circle fill="#1A1A1A" cx="530.5" cy="506.4" r="0.9"/>
		</g>
		<g>
			<polygon fill="#999999" stroke="#000000" stroke-width="0.75" stroke-miterlimit="10" points="535.3,513.4 534.2,506.8 
				537,502.3 538.7,508.1 			"/>
			<path fill="none" stroke="#333333" stroke-width="0.75" stroke-miterlimit="10" d="M535.1,513.9c-0.7-2.2-2-6.8-2.5-9.8
				c-0.2-1.7-0.3-3.1-0.3-4.2"/>
			<path fill="none" stroke="#333333" stroke-width="0.75" stroke-miterlimit="10" d="M542.1,514.6c-1.1-2-3.3-6.1-4.2-9.3
				c-0.4-1.7-1-3-1.1-4"/>
			<circle fill="#1A1A1A" cx="536.4" cy="507.8" r="0.9"/>
		</g>
		<g>
			<polygon fill="#999999" stroke="#000000" stroke-width="0.75" stroke-miterlimit="10" points="541.4,514.9 539.9,508.5 
				542.5,503.8 544.5,509.5 			"/>
			<path fill="none" stroke="#333333" stroke-width="0.75" stroke-miterlimit="10" d="M541.2,515.4c-0.9-2.1-2.3-6.7-3-9.7
				c-0.3-1.7-0.4-3.1-0.5-4.2"/>
			<path fill="none" stroke="#333333" stroke-width="0.75" stroke-miterlimit="10" d="M548.3,515.8c-1.2-2-3.6-6-4.7-9.1
				c-0.5-1.7-1.1-3-1.3-4"/>
			<circle fill="#1A1A1A" cx="542.2" cy="509.2" r="0.9"/>
		</g>
		<g>
			<polygon fill="#999999" stroke="#000000" stroke-width="0.75" stroke-miterlimit="10" points="547.5,515.1 546.2,508.6 
				549.1,504.1 550.8,509.9 			"/>
			<path fill="none" stroke="#333333" stroke-width="0.75" stroke-miterlimit="10" d="M547.2,515.7c-0.7-2.2-2-6.7-2.6-9.8
				c-0.3-1.7-0.3-3.1-0.3-4.2"/>
			<path fill="none" stroke="#333333" stroke-width="0.75" stroke-miterlimit="10" d="M554.2,516.3c-1.2-2-3.4-6.1-4.3-9.3
				c-0.4-1.7-1-3-1.1-4"/>
			<circle fill="#1A1A1A" cx="548.5" cy="509.5" r="0.9"/>
		</g>
		<g>
			<polygon fill="#999999" stroke="#000000" stroke-width="0.75" stroke-miterlimit="10" points="553.4,516.7 552.1,510.1 
				554.7,505.5 556.6,511.3 			"/>
			<path fill="none" stroke="#333333" stroke-width="0.75" stroke-miterlimit="10" d="M553.2,517.2c-0.9-2.1-2.2-6.7-2.8-9.8
				c-0.3-1.7-0.4-3.1-0.4-4.2"/>
			<path fill="none" stroke="#333333" stroke-width="0.75" stroke-miterlimit="10" d="M560.2,517.6c-1.2-2-3.5-6-4.5-9.2
				c-0.4-1.7-1-3-1.2-4"/>
			<circle fill="#1A1A1A" cx="554.3" cy="511" r="0.9"/>
		</g>
		<g>
			<polygon fill="#999999" stroke="#000000" stroke-width="0.75" stroke-miterlimit="10" points="559.8,517.1 558.3,510.4 
				561.1,505.9 562.9,511.6 			"/>
			<path fill="none" stroke="#333333" stroke-width="0.75" stroke-miterlimit="10" d="M559.5,517.5c-0.9-2.1-2.2-6.7-2.8-9.7
				c-0.3-1.7-0.4-3.1-0.4-4.2"/>
			<path fill="none" stroke="#333333" stroke-width="0.75" stroke-miterlimit="10" d="M566.5,518c-1.2-2-3.5-6-4.5-9.2
				c-0.5-1.7-1-3-1.2-4"/>
			<circle fill="#1A1A1A" cx="560.5" cy="511.3" r="0.9"/>
		</g>
		<g>
			<polygon fill="#999999" stroke="#000000" stroke-width="0.75" stroke-miterlimit="10" points="565.3,518.3 564.2,511.7 
				567,507.3 568.8,513.2 			"/>
			<path fill="none" stroke="#333333" stroke-width="0.75" stroke-miterlimit="10" d="M565,518.8c-0.7-2.2-1.9-6.8-2.3-9.8
				c-0.2-1.7-0.3-3.1-0.3-4.2"/>
			<path fill="none" stroke="#333333" stroke-width="0.75" stroke-miterlimit="10" d="M572.1,519.6c-1.1-2-3.3-6.1-4-9.4
				c-0.4-1.7-0.9-3-1.1-4"/>
			<circle fill="#1A1A1A" cx="566.4" cy="512.7" r="0.9"/>
		</g>
		<g>
			<polygon fill="#999999" stroke="#000000" stroke-width="0.75" stroke-miterlimit="10" points="571.9,518.8 570.6,512.3 
				573.2,507.7 575.1,513.5 			"/>
			<path fill="none" stroke="#333333" stroke-width="0.75" stroke-miterlimit="10" d="M571.6,519.3c-0.9-2.2-2.1-6.7-2.6-9.8
				c-0.3-1.7-0.4-3.1-0.4-4.2"/>
			<path fill="none" stroke="#333333" stroke-width="0.75" stroke-miterlimit="10" d="M578.6,519.8c-1.2-2-3.4-6.1-4.4-9.3
				c-0.4-1.7-1-3-1.2-4"/>
			<circle fill="#1A1A1A" cx="572.8" cy="513" r="0.9"/>
		</g>
		<g>
			<polygon fill="#999999" stroke="#000000" stroke-width="0.75" stroke-miterlimit="10" points="578.2,519.2 576.8,512.6 
				579.4,508.1 581.3,513.7 			"/>
			<path fill="none" stroke="#333333" stroke-width="0.75" stroke-miterlimit="10" d="M577.9,519.6c-0.9-2.1-2.2-6.7-2.8-9.7
				c-0.3-1.7-0.4-3.1-0.4-4.2"/>
			<path fill="none" stroke="#333333" stroke-width="0.75" stroke-miterlimit="10" d="M585,520c-1.2-2-3.5-6-4.5-9.2
				c-0.5-1.7-1-3-1.2-4"/>
			<circle fill="#1A1A1A" cx="579.1" cy="513.4" r="0.9"/>
		</g>
		<g>
			<polygon fill="#999999" stroke="#000000" stroke-width="0.75" stroke-miterlimit="10" points="584.7,519.5 583.1,513 
				585.7,508.5 587.6,514.1 			"/>
			<path fill="none" stroke="#333333" stroke-width="0.75" stroke-miterlimit="10" d="M584.4,519.9c-0.9-2.1-2.3-6.6-3.1-9.7
				c-0.3-1.7-0.5-3.1-0.5-4.2"/>
			<path fill="none" stroke="#333333" stroke-width="0.75" stroke-miterlimit="10" d="M591.5,520.4c-1.2-2-3.6-5.9-4.7-9.1
				c-0.5-1.7-1.1-3-1.3-4"/>
			<circle fill="#1A1A1A" cx="585.3" cy="513.7" r="0.9"/>
		</g>
		<g>
			<polygon fill="#999999" stroke="#000000" stroke-width="0.75" stroke-miterlimit="10" points="591.2,519.9 589.5,513.5 
				591.8,508.8 594,514.5 			"/>
			<path fill="none" stroke="#333333" stroke-width="0.75" stroke-miterlimit="10" d="M591,520.5c-1-2.1-2.6-6.6-3.3-9.6
				c-0.4-1.7-0.5-3.1-0.7-4.2"/>
			<path fill="none" stroke="#333333" stroke-width="0.75" stroke-miterlimit="10" d="M598,520.5c-1.3-1.9-3.8-5.8-4.9-9
				c-0.5-1.7-1.2-2.8-1.4-3.8"/>
			<circle fill="#1A1A1A" cx="591.7" cy="514.2" r="0.9"/>
		</g>
		<g>
			<polygon fill="#999999" stroke="#000000" stroke-width="0.75" stroke-miterlimit="10" points="597.7,520.4 595.7,514 
				597.9,509.2 600.3,514.7 			"/>
			<path fill="none" stroke="#333333" stroke-width="0.75" stroke-miterlimit="10" d="M597.5,520.8c-1-2.1-2.8-6.4-3.6-9.5
				c-0.4-1.7-0.7-3-0.9-4.2"/>
			<path fill="none" stroke="#333333" stroke-width="0.75" stroke-miterlimit="10" d="M604.5,520.7c-1.3-1.9-4-5.7-5.2-8.6
				c-0.7-1.7-1.3-2.8-1.5-3.8"/>
			<circle fill="#1A1A1A" cx="598" cy="514.6" r="0.9"/>
		</g>
		<path fill="#808080" stroke="#000000" stroke-miterlimit="10" d="M600.6,522.4l0.3-14.3c0,0,3.3,0.1,4.9,1.4
			c1.5,1.4,1.7,3,1.9,5.7s-0.5,4.8-2,6.1C604.5,522.6,600.6,522.4,600.6,522.4z"/>
		
			<rect x="446.5" y="477.8" transform="matrix(0.9586 0.2847 -0.2847 0.9586 156.9058 -107.6056)" fill="#808080" stroke="#000000" stroke-miterlimit="10" width="4.2" height="16.2"/>
		
			<radialGradient id="SVGID_2_" cx="112.1187" cy="969.4297" r="2.3876" gradientTransform="matrix(0.3361 -1.1688 0.4288 0.1233 151.8566 529.3989)" gradientUnits="userSpaceOnUse">
			<stop  offset="0.5459" style="stop-color:#FFFFFF"/>
			<stop  offset="0.5959" style="stop-color:#FAFAFA;stop-opacity:0.8899"/>
			<stop  offset="0.6521" style="stop-color:#EDEDED;stop-opacity:0.7661"/>
			<stop  offset="0.7115" style="stop-color:#D6D6D6;stop-opacity:0.6354"/>
			<stop  offset="0.7729" style="stop-color:#B7B7B7;stop-opacity:0.5"/>
			<stop  offset="0.8361" style="stop-color:#8E8E8E;stop-opacity:0.361"/>
			<stop  offset="0.9006" style="stop-color:#5C5C5C;stop-opacity:0.2189"/>
			<stop  offset="0.965" style="stop-color:#232323;stop-opacity:7.707846e-002"/>
			<stop  offset="1" style="stop-color:#000000;stop-opacity:0"/>
		</radialGradient>
		<path fill="url(#SVGID_2_)" d="M606.2,514.7c0.7,0.2,0.9,1.7,0.3,3.5c-0.4,1.7-1.4,3.1-2.1,2.8c-0.7-0.2-0.9-1.7-0.3-3.5
			C604.7,515.8,605.6,514.5,606.2,514.7z"/>
		<path fill="#E6E6E6" d="M90.9,285.7"/>
	</g>
	<g>
		
			<linearGradient id="SVGID_3_" gradientUnits="userSpaceOnUse" x1="80.596" y1="776.6381" x2="785.7259" y2="776.6381" gradientTransform="matrix(0.5777 -0.2697 -0.2697 -0.5777 339.3011 955.0213)">
			<stop  offset="7.142857e-002" style="stop-color:#424242"/>
			<stop  offset="0.3316" style="stop-color:#B5B5B5"/>
			<stop  offset="0.6786" style="stop-color:#5C5C5C"/>
		</linearGradient>
		<path fill="url(#SVGID_3_)" stroke="#000000" stroke-miterlimit="10" d="M182.1,487.8c72.3-21.3,129.6-44.6,170.7-63.3
			c38.8-17.6,67.6-33.1,80.2-40c20-10.9,48.7-26.9,84.4-51.5c19.6-13.6,35.8-25.9,47.8-35.4c2.1-1.7,6.4-5.9,8.6-12.5
			c1.2-3.6,1.4-6.8,1.4-9.1c-10.7,8.5-25.9,20.4-44.7,33.8c-17.6,12.6-83.7,59-182.1,104c-44,20.1-100.5,42.8-168.6,62.3l-3.4,8.4
			L182.1,487.8z"/>
		<path fill="#E6E6E6" stroke="#999999" stroke-width="0.5" stroke-miterlimit="10" d="M176.3,484.6c1.9,1.1,3.8,2.1,5.8,3.2
			c72.3-21.3,129.6-44.6,170.7-63.3c38.8-17.6,67.6-33.1,80.2-40c20-10.9,48.7-26.9,84.4-51.5c19.6-13.6,35.8-25.9,47.8-35.4
			c2.1-1.7,6.4-5.9,8.6-12.5c1.2-3.6,1.4-6.8,1.4-9.1l-5.8,4.6c0,0-1.7,7.3-2.2,8.2c-0.5,1-3,3.6-3,3.6c-1.1,2.1-2.2,3.4-3.1,4.3
			c-2.3,2.2-5.2,3.5-6.4,4c-2.2,1-3.2,1.1-4.3,2.2c-1.1,1.3-0.7,2-1.5,3.4c-1.5,2.6-4,1.6-7.4,4c-3.2,2.2-2.1,3.7-5.4,6
			c-2.8,1.9-3.8,0.9-6.4,2.7c-2.6,1.7-2.3,3.3-4.6,5.4c-2.7,2.6-4.4,1.7-8.1,3.6c-6.1,3.2-4.9,6.9-10.8,9.8c-4,2-4.7,0.3-8.9,2.6
			c-4.3,2.3-4,4.4-8.5,7.3c-4.4,2.7-5.1,1.3-9.1,3.7c-5.1,3.3-4,6.1-8.4,8.6c-4.9,2.8-7.3,0-12,3.1c-3.6,2.3-3,4.6-7,7.2
			c-3.5,2.2-4.9,1.1-9.1,2.7c-7,3-6.1,7.6-12.8,10.6c-5.4,2.3-6.9-0.3-11.8,2.3c-5.2,3-4.6,6.6-9.7,8.6c-4.4,1.7-6.1-0.3-10.4,1.9
			c-3.8,2-3.1,4-6.9,6.4c-5.1,3.3-8.2,0.4-14.1,3.5c-4.8,2.6-3.4,4.8-8.2,7.3c-6,3.2-9.1,0.1-14.5,3.5c-3.7,2.3-2.8,4-6.8,6.2
			c-4.3,2.3-6.2,1-11.4,3c-5.1,2-4.3,3.7-9.3,6.1c-6.8,3.1-9.7,0.2-15.4,3.7c-3.6,2.2-2.6,3.5-6.1,5.4c-5.8,3.2-8.5,0-14,3.1
			c-4,2.2-4.3,5-8,5.5c-2.7,0.3-3.3-1-5.8-0.2c-3.4,0.9-3.2,3.4-6.8,4.9c-3.5,1.5-4.7-0.4-8.4,1.1c-3.2,1.3-3.2,3.2-6.1,4.6
			c-2.6,1.3-3.5,0.2-8.1,0.5c-2.8,0.2-7.8,0.7-12.1,3.6c-3.4,2.3-3.2,4.2-6.3,5.1c-3.1,1.1-3.7-0.3-7.5,0.2c-4.9,1-5.1,4-10.4,5.1
			c-4.2,1-4.5-0.7-8.1,0.3c-4.7,1.4-4.6,4.6-9,5.7c-3.5,0.9-4.8-1.1-9.2-0.9C182.1,480.8,178.8,482.6,176.3,484.6z"/>
		
			<rect x="171.9" y="475.3" transform="matrix(0.9609 -0.2769 0.2769 0.9609 -126.7843 68.2708)" fill="#F7931E" stroke="#000000" stroke-miterlimit="10" width="12.9" height="15.5"/>
		<g>
			
				<rect x="169.5" y="463.7" transform="matrix(0.9611 -0.2762 0.2762 0.9611 -127.1883 66.3837)" fill="#A67C52" stroke="#000000" stroke-miterlimit="10" width="5.2" height="42"/>
			
				<rect x="169.5" y="480.6" transform="matrix(0.9611 -0.2762 0.2762 0.9611 -127.2015 66.3996)" fill="#534741" stroke="#000000" stroke-miterlimit="10" width="5.2" height="8.4"/>
		</g>
		<path fill="#534741" stroke="#000000" stroke-miterlimit="10" d="M167.6,479.1c-22.5,6.8-47.8,13.2-75.5,18.6
			c-27.9,5.2-53.7,8.5-77.2,10.6c0.3,5.2,0.1,9.1,0.3,14.3c22.8-2.1,42.2-4,58.5-6.8c13.8-2.3,37.4-6.6,66.2-14.2
			c12.8-3.4,23.5-6.8,31.6-9.4L167.6,479.1z"/>
		<line fill="none" stroke="#000000" stroke-miterlimit="10" x1="158.1" y1="496.4" x2="158.1" y2="496.4"/>
		<g>
			<polygon fill="#999999" stroke="#000000" stroke-width="0.75" stroke-miterlimit="10" points="162.8,493.3 163.2,486.6 
				159.8,482.6 158.8,488.6 			"/>
			<path fill="none" stroke="#333333" stroke-width="0.75" stroke-miterlimit="10" d="M163.2,493.7c0.4-2.2,1.1-6.9,1.2-10.1
				c0-1.9,0-3.1-0.2-4.2"/>
			<path fill="none" stroke="#333333" stroke-width="0.75" stroke-miterlimit="10" d="M156.3,495.3c0.9-2.1,2.5-6.4,3-9.7
				c0.2-1.9,0.4-3.1,0.4-4.2"/>
			<circle fill="#1A1A1A" cx="161.1" cy="487.8" r="0.9"/>
		</g>
		<g>
			<polygon fill="#999999" stroke="#000000" stroke-width="0.75" stroke-miterlimit="10" points="157,494.6 157.3,488 153.9,484 
				152.9,489.9 			"/>
			<path fill="none" stroke="#333333" stroke-width="0.75" stroke-miterlimit="10" d="M157.4,495.1c0.4-2.2,1.1-6.9,1.1-10.1
				c0-1.9-0.1-3.1-0.2-4.2"/>
			<path fill="none" stroke="#333333" stroke-width="0.75" stroke-miterlimit="10" d="M150.5,496.8c0.9-2.1,2.5-6.6,2.8-9.7
				c0.2-1.9,0.4-3.1,0.4-4.2"/>
			<circle fill="#1A1A1A" cx="155.2" cy="489.2" r="0.9"/>
		</g>
		<g>
			<polyline fill="#999999" stroke="#000000" stroke-width="0.75" stroke-miterlimit="10" points="151,493.6 151.6,489.7 
				148.5,485.4 147.1,491.2 150.7,496.2 151,493.6 			"/>
			<path fill="none" stroke="#333333" stroke-width="0.75" stroke-miterlimit="10" d="M150.9,496.8c0.5-2.2,1.6-6.8,2-9.9
				c0.2-1.9,0.2-3.1,0.1-4.2"/>
			<path fill="none" stroke="#333333" stroke-width="0.75" stroke-miterlimit="10" d="M144,497.7c1.1-2.1,3.1-6.2,3.7-9.5
				c0.3-1.7,0.7-3,0.9-4.2"/>
			<circle fill="#1A1A1A" cx="149.4" cy="490.6" r="0.9"/>
		</g>
		<g>
			<polygon fill="#999999" stroke="#000000" stroke-width="0.75" stroke-miterlimit="10" points="145,498.8 146.2,492.3 
				143.4,487.8 141.7,493.7 			"/>
			<path fill="none" stroke="#333333" stroke-width="0.75" stroke-miterlimit="10" d="M145.3,499.3c0.7-2.2,2-6.8,2.5-9.8
				c0.2-1.7,0.3-3.1,0.3-4.2"/>
			<path fill="none" stroke="#333333" stroke-width="0.75" stroke-miterlimit="10" d="M138.4,500c1.1-2,3.3-6.1,4.2-9.3
				c0.4-1.7,1-3,1.1-4"/>
			<circle fill="#1A1A1A" cx="144" cy="493.3" r="0.9"/>
		</g>
		<g>
			<polygon fill="#999999" stroke="#000000" stroke-width="0.75" stroke-miterlimit="10" points="139.3,500.3 140.5,493.7 
				137.6,489.2 136,495.1 			"/>
			<path fill="none" stroke="#333333" stroke-width="0.75" stroke-miterlimit="10" d="M139.7,500.7c0.7-2.2,1.9-6.8,2.3-9.9
				c0.2-1.7,0.3-3.1,0.2-4.2"/>
			<path fill="none" stroke="#333333" stroke-width="0.75" stroke-miterlimit="10" d="M132.7,501.6c1.1-2,3.2-6.2,4-9.4
				c0.4-1.7,0.9-3,1.1-4"/>
			<circle fill="#1A1A1A" cx="138.2" cy="494.6" r="0.9"/>
		</g>
		<g>
			<polygon fill="#999999" stroke="#000000" stroke-width="0.75" stroke-miterlimit="10" points="133.3,501.8 134.6,495.2 
				131.9,490.6 130.1,496.4 			"/>
			<path fill="none" stroke="#333333" stroke-width="0.75" stroke-miterlimit="10" d="M133.5,502.2c0.9-2.2,2.1-6.7,2.7-9.8
				c0.3-1.7,0.4-3.1,0.4-4.2"/>
			<path fill="none" stroke="#333333" stroke-width="0.75" stroke-miterlimit="10" d="M126.7,502.8c1.2-2,3.4-6.1,4.4-9.2
				c0.4-1.7,1-3,1.2-4"/>
			<circle fill="#1A1A1A" cx="132.3" cy="496" r="0.9"/>
		</g>
		<g>
			<polygon fill="#999999" stroke="#000000" stroke-width="0.75" stroke-miterlimit="10" points="126.4,503.6 127.9,497.1 
				125.1,492.6 123.3,498.3 			"/>
			<path fill="none" stroke="#333333" stroke-width="0.75" stroke-miterlimit="10" d="M126.8,504.1c0.9-2.2,2.1-6.7,2.7-9.8
				c0.3-1.7,0.4-3.1,0.4-4.2"/>
			<path fill="none" stroke="#333333" stroke-width="0.75" stroke-miterlimit="10" d="M119.7,504.6c1.2-2,3.5-6,4.5-9.2
				c0.4-1.7,1-3,1.2-4"/>
			<circle fill="#1A1A1A" cx="125.6" cy="498" r="0.9"/>
		</g>
		<g>
			<polygon fill="#999999" stroke="#000000" stroke-width="0.75" stroke-miterlimit="10" points="120.8,505.1 122,498.5 119.2,494 
				117.5,499.8 			"/>
			<path fill="none" stroke="#333333" stroke-width="0.75" stroke-miterlimit="10" d="M121,505.5c0.7-2.2,2-6.7,2.6-9.8
				c0.3-1.7,0.3-3.1,0.3-4.2"/>
			<path fill="none" stroke="#333333" stroke-width="0.75" stroke-miterlimit="10" d="M114.1,506.2c1.2-2,3.4-6.1,4.3-9.3
				c0.4-1.7,1-3,1.1-4"/>
			<circle fill="#1A1A1A" cx="119.7" cy="499.3" r="0.9"/>
		</g>
		<g>
			<polygon fill="#999999" stroke="#000000" stroke-width="0.75" stroke-miterlimit="10" points="114.9,506.5 116.2,499.9 
				113.4,495.4 111.6,501.2 			"/>
			<path fill="none" stroke="#333333" stroke-width="0.75" stroke-miterlimit="10" d="M115.2,506.9c0.7-2.2,2-6.7,2.6-9.8
				c0.3-1.7,0.3-3.1,0.3-4.2"/>
			<path fill="none" stroke="#333333" stroke-width="0.75" stroke-miterlimit="10" d="M108.2,507.6c1.2-2,3.4-6.1,4.3-9.3
				c0.4-1.7,1-3,1.2-4"/>
			<circle fill="#1A1A1A" cx="114" cy="500.7" r="0.9"/>
		</g>
		<g>
			<polygon fill="#999999" stroke="#000000" stroke-width="0.75" stroke-miterlimit="10" points="109.1,507.9 110.4,501.4 
				107.6,496.9 105.8,502.6 			"/>
			<path fill="none" stroke="#333333" stroke-width="0.75" stroke-miterlimit="10" d="M109.3,508.3c0.7-2.2,2-6.7,2.6-9.8
				c0.3-1.7,0.3-3.1,0.3-4.2"/>
			<path fill="none" stroke="#333333" stroke-width="0.75" stroke-miterlimit="10" d="M102.4,508.9c1.2-2,3.4-6.1,4.3-9.3
				c0.4-1.7,1-3,1.2-4"/>
			<circle fill="#1A1A1A" cx="108.1" cy="502.2" r="0.9"/>
		</g>
		<g>
			<polygon fill="#999999" stroke="#000000" stroke-width="0.75" stroke-miterlimit="10" points="103.4,509.3 104.5,502.8 
				101.6,498.3 100,504.1 			"/>
			<path fill="none" stroke="#333333" stroke-width="0.75" stroke-miterlimit="10" d="M103.6,509.8c0.7-2.2,1.9-6.8,2.3-9.9
				c0.2-1.7,0.3-3.1,0.2-4.2"/>
			<path fill="none" stroke="#333333" stroke-width="0.75" stroke-miterlimit="10" d="M96.7,510.5c1.1-2,3.2-6.2,4-9.4
				c0.4-1.7,0.9-3,1.1-4"/>
			<circle fill="#1A1A1A" cx="102.2" cy="503.6" r="0.9"/>
		</g>
		<g>
			<polygon fill="#999999" stroke="#000000" stroke-width="0.75" stroke-miterlimit="10" points="97.7,510.8 98.7,504 95.7,499.7 
				94.1,505.5 			"/>
			<path fill="none" stroke="#333333" stroke-width="0.75" stroke-miterlimit="10" d="M97.9,511.2c0.7-2.2,1.7-6.8,2.2-9.9
				c0.2-1.7,0.2-3.1,0.2-4.2"/>
			<path fill="none" stroke="#333333" stroke-width="0.75" stroke-miterlimit="10" d="M90.9,512c1.1-2.1,3.2-6.2,3.8-9.4
				c0.4-1.7,0.9-3,1-4"/>
			<circle fill="#1A1A1A" cx="96.5" cy="505.1" r="0.9"/>
		</g>
		<g>
			<polygon fill="#999999" stroke="#000000" stroke-width="0.75" stroke-miterlimit="10" points="92.5,511.7 94,505.2 91.4,500.6 
				89.4,506.4 			"/>
			<path fill="none" stroke="#333333" stroke-width="0.75" stroke-miterlimit="10" d="M92.7,512.3c0.9-2.1,2.2-6.7,2.8-9.7
				c0.3-1.7,0.4-3.1,0.4-4.2"/>
			<path fill="none" stroke="#333333" stroke-width="0.75" stroke-miterlimit="10" d="M85.8,512.6c1.2-2,3.5-6,4.6-9.2
				c0.5-1.7,1.1-3,1.2-4"/>
			<circle fill="#1A1A1A" cx="91.7" cy="506.1" r="0.9"/>
		</g>
		<g>
			<polygon fill="#999999" stroke="#000000" stroke-width="0.75" stroke-miterlimit="10" points="86.3,512 87.6,505.5 85,500.9 
				83.1,506.7 			"/>
			<path fill="none" stroke="#333333" stroke-width="0.75" stroke-miterlimit="10" d="M86.7,512.5c0.9-2.2,2.1-6.7,2.7-9.8
				c0.3-1.7,0.4-3.1,0.4-4.2"/>
			<path fill="none" stroke="#333333" stroke-width="0.75" stroke-miterlimit="10" d="M79.6,513c1.2-2,3.4-6.1,4.4-9.2
				c0.4-1.7,1-3,1.2-4"/>
			<circle fill="#1A1A1A" cx="85.5" cy="506.4" r="0.9"/>
		</g>
		<g>
			<polygon fill="#999999" stroke="#000000" stroke-width="0.75" stroke-miterlimit="10" points="80.7,513.4 81.9,506.8 79,502.3 
				77.4,508.1 			"/>
			<path fill="none" stroke="#333333" stroke-width="0.75" stroke-miterlimit="10" d="M80.9,513.9c0.7-2.2,2-6.8,2.5-9.8
				c0.2-1.7,0.3-3.1,0.3-4.2"/>
			<path fill="none" stroke="#333333" stroke-width="0.75" stroke-miterlimit="10" d="M74,514.6c1.1-2,3.3-6.1,4.2-9.3
				c0.4-1.7,1-3,1.1-4"/>
			<circle fill="#1A1A1A" cx="79.6" cy="507.8" r="0.9"/>
		</g>
		<g>
			<polygon fill="#999999" stroke="#000000" stroke-width="0.75" stroke-miterlimit="10" points="74.5,514.9 76.1,508.5 73.4,503.8 
				71.5,509.5 			"/>
			<path fill="none" stroke="#333333" stroke-width="0.75" stroke-miterlimit="10" d="M74.8,515.4c0.9-2.1,2.3-6.7,3-9.7
				c0.3-1.7,0.4-3.1,0.5-4.2"/>
			<path fill="none" stroke="#333333" stroke-width="0.75" stroke-miterlimit="10" d="M67.8,515.8c1.2-2,3.6-6,4.7-9.1
				c0.5-1.7,1.1-3,1.3-4"/>
			<circle fill="#1A1A1A" cx="73.9" cy="509.2" r="0.9"/>
		</g>
		<g>
			<polygon fill="#999999" stroke="#000000" stroke-width="0.75" stroke-miterlimit="10" points="68.4,515.1 69.7,508.6 66.9,504.1 
				65.1,509.9 			"/>
			<path fill="none" stroke="#333333" stroke-width="0.75" stroke-miterlimit="10" d="M68.7,515.7c0.7-2.2,2-6.7,2.6-9.8
				c0.3-1.7,0.3-3.1,0.3-4.2"/>
			<path fill="none" stroke="#333333" stroke-width="0.75" stroke-miterlimit="10" d="M61.7,516.3c1.2-2,3.4-6.1,4.3-9.3
				c0.4-1.7,1-3,1.1-4"/>
			<circle fill="#1A1A1A" cx="67.5" cy="509.5" r="0.9"/>
		</g>
		<g>
			<polygon fill="#999999" stroke="#000000" stroke-width="0.75" stroke-miterlimit="10" points="62.5,516.7 63.8,510.1 61.3,505.5 
				59.3,511.3 			"/>
			<path fill="none" stroke="#333333" stroke-width="0.75" stroke-miterlimit="10" d="M62.8,517.2c0.9-2.1,2.2-6.7,2.8-9.8
				c0.3-1.7,0.4-3.1,0.4-4.2"/>
			<path fill="none" stroke="#333333" stroke-width="0.75" stroke-miterlimit="10" d="M55.7,517.6c1.2-2,3.5-6,4.5-9.2
				c0.4-1.7,1-3,1.2-4"/>
			<circle fill="#1A1A1A" cx="61.6" cy="511" r="0.9"/>
		</g>
		<g>
			<polygon fill="#999999" stroke="#000000" stroke-width="0.75" stroke-miterlimit="10" points="56.2,517.1 57.6,510.4 55,505.9 
				53,511.6 			"/>
			<path fill="none" stroke="#333333" stroke-width="0.75" stroke-miterlimit="10" d="M56.5,517.5c0.9-2.1,2.2-6.7,2.8-9.7
				c0.3-1.7,0.4-3.1,0.4-4.2"/>
			<path fill="none" stroke="#333333" stroke-width="0.75" stroke-miterlimit="10" d="M49.4,518c1.2-2,3.5-6,4.5-9.2
				c0.5-1.7,1-3,1.2-4"/>
			<circle fill="#1A1A1A" cx="55.4" cy="511.3" r="0.9"/>
		</g>
		<g>
			<polygon fill="#999999" stroke="#000000" stroke-width="0.75" stroke-miterlimit="10" points="50.6,518.3 51.8,511.7 49,507.3 
				47.2,513.2 			"/>
			<path fill="none" stroke="#333333" stroke-width="0.75" stroke-miterlimit="10" d="M50.9,518.8c0.7-2.2,1.9-6.8,2.3-9.8
				c0.2-1.7,0.3-3.1,0.3-4.2"/>
			<path fill="none" stroke="#333333" stroke-width="0.75" stroke-miterlimit="10" d="M43.9,519.6c1.1-2,3.3-6.1,4-9.4
				c0.4-1.7,0.9-3,1.1-4"/>
			<circle fill="#1A1A1A" cx="49.5" cy="512.7" r="0.9"/>
		</g>
		<g>
			<polygon fill="#999999" stroke="#000000" stroke-width="0.75" stroke-miterlimit="10" points="44.2,518.8 45.5,512.3 42.7,507.7 
				41,513.5 			"/>
			<path fill="none" stroke="#333333" stroke-width="0.75" stroke-miterlimit="10" d="M44.4,519.3c0.9-2.2,2.1-6.7,2.6-9.8
				c0.3-1.7,0.4-3.1,0.4-4.2"/>
			<path fill="none" stroke="#333333" stroke-width="0.75" stroke-miterlimit="10" d="M37.5,519.8c1.2-2,3.4-6.1,4.4-9.3
				c0.4-1.7,1-3,1.2-4"/>
			<circle fill="#1A1A1A" cx="43.2" cy="513" r="0.9"/>
		</g>
		<g>
			<polygon fill="#999999" stroke="#000000" stroke-width="0.75" stroke-miterlimit="10" points="37.8,519.2 39.2,512.6 36.5,508.1 
				34.6,513.7 			"/>
			<path fill="none" stroke="#333333" stroke-width="0.75" stroke-miterlimit="10" d="M38,519.6c0.9-2.1,2.2-6.7,2.8-9.7
				c0.3-1.7,0.4-3.1,0.4-4.2"/>
			<path fill="none" stroke="#333333" stroke-width="0.75" stroke-miterlimit="10" d="M31,520c1.2-2,3.5-6,4.5-9.2
				c0.5-1.7,1-3,1.2-4"/>
			<circle fill="#1A1A1A" cx="36.8" cy="513.4" r="0.9"/>
		</g>
		<g>
			<polygon fill="#999999" stroke="#000000" stroke-width="0.75" stroke-miterlimit="10" points="31.4,519.5 32.9,513 30.3,508.5 
				28.3,514.1 			"/>
			<path fill="none" stroke="#333333" stroke-width="0.75" stroke-miterlimit="10" d="M31.6,519.9c0.9-2.1,2.3-6.6,3.1-9.7
				c0.3-1.7,0.5-3.1,0.5-4.2"/>
			<path fill="none" stroke="#333333" stroke-width="0.75" stroke-miterlimit="10" d="M24.5,520.4c1.2-2,3.6-5.9,4.7-9.1
				c0.5-1.7,1.1-3,1.3-4"/>
			<circle fill="#1A1A1A" cx="30.6" cy="513.7" r="0.9"/>
		</g>
		<g>
			<polygon fill="#999999" stroke="#000000" stroke-width="0.75" stroke-miterlimit="10" points="24.8,519.9 26.6,513.5 24.2,508.8 
				22,514.5 			"/>
			<path fill="none" stroke="#333333" stroke-width="0.75" stroke-miterlimit="10" d="M25,520.5c1-2.1,2.6-6.6,3.3-9.6
				c0.4-1.7,0.5-3.1,0.7-4.2"/>
			<path fill="none" stroke="#333333" stroke-width="0.75" stroke-miterlimit="10" d="M17.9,520.5c1.3-1.9,3.8-5.8,4.9-9
				c0.5-1.7,1.2-2.8,1.4-3.8"/>
			<circle fill="#1A1A1A" cx="24.3" cy="514.2" r="0.9"/>
		</g>
		<g>
			<polygon fill="#999999" stroke="#000000" stroke-width="0.75" stroke-miterlimit="10" points="18.4,520.4 20.3,514 18,509.2 
				15.6,514.7 			"/>
			<path fill="none" stroke="#333333" stroke-width="0.75" stroke-miterlimit="10" d="M18.6,520.8c1-2.1,2.8-6.4,3.6-9.5
				c0.4-1.7,0.7-3,0.9-4.2"/>
			<path fill="none" stroke="#333333" stroke-width="0.75" stroke-miterlimit="10" d="M11.5,520.7c1.3-1.9,4-5.7,5.2-8.6
				c0.7-1.7,1.3-2.8,1.5-3.8"/>
			<circle fill="#1A1A1A" cx="17.9" cy="514.6" r="0.9"/>
		</g>
		<path fill="#808080" stroke="#000000" stroke-miterlimit="10" d="M15.4,522.4l-0.3-14.3c0,0-3.3,0.1-4.9,1.4
			c-1.5,1.4-1.7,3-1.9,5.7s0.5,4.8,2,6.1C11.5,522.6,15.4,522.4,15.4,522.4z"/>
		
			<rect x="165.2" y="478" transform="matrix(-0.9586 0.2847 -0.2847 -0.9586 466.0948 904.3499)" fill="#808080" stroke="#000000" stroke-miterlimit="10" width="4.2" height="16.2"/>
		
			<radialGradient id="SVGID_4_" cx="109.6229" cy="945.769" r="2.3876" gradientTransform="matrix(-0.3361 -1.1688 -0.4288 0.1233 453.1308 529.3989)" gradientUnits="userSpaceOnUse">
			<stop  offset="0.5459" style="stop-color:#FFFFFF"/>
			<stop  offset="0.5959" style="stop-color:#FAFAFA;stop-opacity:0.8899"/>
			<stop  offset="0.6521" style="stop-color:#EDEDED;stop-opacity:0.7661"/>
			<stop  offset="0.7115" style="stop-color:#D6D6D6;stop-opacity:0.6354"/>
			<stop  offset="0.7729" style="stop-color:#B7B7B7;stop-opacity:0.5"/>
			<stop  offset="0.8361" style="stop-color:#8E8E8E;stop-opacity:0.361"/>
			<stop  offset="0.9006" style="stop-color:#5C5C5C;stop-opacity:0.2189"/>
			<stop  offset="0.965" style="stop-color:#232323;stop-opacity:7.707846e-002"/>
			<stop  offset="1" style="stop-color:#000000;stop-opacity:0"/>
		</radialGradient>
		<path fill="url(#SVGID_4_)" d="M9.7,514.7c-0.7,0.2-0.9,1.7-0.3,3.5c0.4,1.7,1.4,3.1,2.1,2.8c0.7-0.2,0.9-1.7,0.3-3.5
			C11.4,515.8,10.5,514.5,9.7,514.7z"/>
		<path fill="#E6E6E6" d="M525,285.7"/>
	</g>
</g>
<g>
	<g>
		<path fill="#C4BA98" stroke="#000000" stroke-width="0.5" stroke-miterlimit="10" d="M432.4,545.5v-13.4h10.5v2.4h-8.1v3.5h4.4
			v2.5h-4.4v4.2L432.4,545.5z"/>
		<path fill="#C4BA98" stroke="#000000" stroke-width="0.5" stroke-miterlimit="10" d="M445.7,535.2c0-1.2,0.2-2.1,0.5-2.5
			c0.3-0.4,1-0.7,2-0.7h7.6c1,0,1.7,0.2,2,0.7c0.3,0.4,0.5,1.3,0.5,2.5v7.1c0,1.2-0.2,2.1-0.5,2.5c-0.3,0.4-1,0.7-2,0.7h-7.6
			c-1,0-1.7-0.2-2-0.7c-0.3-0.4-0.5-1.3-0.5-2.5V535.2z M448.1,542.9h8v-8.5h-8V542.9z"/>
		<path fill="#C4BA98" stroke="#000000" stroke-width="0.5" stroke-miterlimit="10" d="M463.5,543.3v-11.3h8.9
			c0.8,0,1.4,0.2,1.8,0.6c0.4,0.4,0.6,1.1,0.6,2v3.1c0,0.9-0.2,1.6-0.6,2c-0.4,0.4-1,0.6-1.8,0.6H471l4.8,5.1h-3.5l-4.2-5.1h-2.3
			v2.4L463.5,543.3z M471.3,534.4h-5.4v3.7h5.4c0.4,0,0.7-0.1,0.9-0.2c0.1-0.1,0.2-0.4,0.2-0.8v-1.6c0-0.4-0.1-0.7-0.2-0.8
			C472,534.5,471.7,534.4,471.3,534.4z"/>
	</g>
	<g>
		<path fill="#C4BA98" stroke="#000000" stroke-width="0.5" stroke-miterlimit="10" d="M414.3,572.5c0.9-0.1,1.4,0.3,1.4,1.2v1.6
			h2.6c1.1,0,1.3,0.3,0.7,1.1h-3.3c0,1.7,0.1,2.6,0.3,2.6c0.5,0.1,0.9,0,1.2-0.2c1.2-0.2,1.7,0.2,1.6,1.2c-0.1,0.8-0.2,2-0.2,3.5
			c0.1,1.2-0.5,1.6-1.7,1.2c-1.4-0.5-2.9-0.5-4.4,0c-0.9,0.6-1.5,0.3-1.6-0.9c-0.1-1.2-0.3-2.4-0.7-3.8c0.1-0.9,0.8-1.2,1.9-0.9
			c0.9,0.1,1.4-0.1,1.4-0.7c0-1.3,0-2.5-0.2-3.7C413.2,573.1,413.5,572.4,414.3,572.5z M412.5,580.8c-0.1,1.4,0.1,2.1,0.7,2.3
			c2.7,0.3,3.9,0,3.7-1.2c0.2-1.6-0.9-2.3-3.3-1.9C412.9,580,412.5,580.3,412.5,580.8z M419.5,576.8c0.5,0,0.8,0,0.9-0.2
			c-0.1-1.3-0.2-2.5-0.2-3.7c-0.1-0.8,0.3-1.2,1.2-1.1c0.6,0,0.9,0.3,0.9,0.9c-0.1,1.1-0.1,2.3,0,3.7c3.8-0.6,5.7-0.6,5.6,0
			c0.2,0.3,0.2,0.5-0.2,0.5c-1.7,0.2-3.5,0.5-5.2,0.9c0.3,1.1,0.7,1.9,1.1,2.6c0.5-0.6,0.9-1.3,1.4-2.1c0.3-0.3,0.7-0.5,1.1-0.3
			c0.5,0.3,0.6,0.8,0.5,1.2c-0.7,0.9-1.3,1.7-1.9,2.3c1.3,1.3,3.4,1.9,6.3,1.7c0.2,0.1-0.1,0.7-1.1,1.7c-1.3,1.3-2.6,1.5-4,0.7
			c-0.6-0.5-1.5-1.3-2.8-2.6c-1.2,0.8-2.4,1.3-3.7,1.4c-0.6-0.1-0.7-0.3-0.3-0.7c1.2-0.3,2.2-1.1,3.1-2.1c-0.5-0.7-0.9-1.9-1.4-3.5
			c-0.6,0.1-1.1,0.3-1.6,0.5c-0.7,0.1-1-0.2-0.9-1.1C418.3,577.3,418.7,577,419.5,576.8z M425.1,572.8c0.3-0.8,0.8-1.1,1.4-0.7
			c0.6,0.3,0.8,0.8,0.5,1.4c-0.5,0.7-1.2,1.1-2.3,1.2c-0.5,0-0.6-0.2-0.5-0.5C424.6,573.8,424.9,573.3,425.1,572.8z"/>
		<path fill="#C4BA98" stroke="#000000" stroke-width="0.5" stroke-miterlimit="10" d="M438.9,576.8c0.6,0,1,0.2,1.2,0.5
			c-0.1,0.5-0.5,0.6-1.2,0.5c-0.7,0-1.4,0-2.1,0.2c0.2,0.3,0.1,0.7-0.3,1.1l-0.9,0.9c-0.3,0.5,0,0.8,0.9,0.9
			c0.7,0.1,1.3-0.1,1.7-0.7l-0.5-1.1c0.1-0.3,0.3-0.5,0.7-0.3c0.3,0.2,0.7,0.5,1.1,0.7c0.2,0.5,0.5,1,0.9,1.6
			c-0.1,0.2-0.2,0.3-0.3,0.3c-0.5,0.1-0.9-0.1-1.4-0.7c-0.7,1.3-1.5,1.7-2.3,1.4c-0.7-0.5-1.3-0.5-1.9-0.2c-0.2,0-0.5-0.2-0.7-0.5
			c-0.1-0.5,0.1-0.9,0.7-1.4c1.1-0.9,1.4-1.6,1.1-1.9c-0.5-0.1-1.2,0-2.1,0.3c-0.3,0.2-0.6,0.2-0.7-0.2c0.1-0.8,0.5-1.3,1.2-1.4
			L438.9,576.8L438.9,576.8z M438.9,574.4c0.3,0,0.6,0.2,0.7,0.5c0,0.3-0.1,0.5-0.3,0.5h-2.8c-0.8,0-1.6,0-2.3,0.2
			c-0.2-0.1-0.3-0.3-0.3-0.7c0.1-0.3,0.3-0.6,0.7-0.9C435.3,574.3,436.8,574.4,438.9,574.4z M443.4,579.3c-0.3-0.1-0.7-0.1-1.1,0
			c-0.3,0.2-0.7,0.4-1.1,0.5c-0.2,0-0.4,0-0.5-0.2c-0.2-1.7-0.5-3.3-0.7-4.7c-0.1-0.7,0.2-1.1,1.1-1.1c0.3,0.2,0.9,0.3,1.7,0.2
			c0.3-0.3,0.8-0.9,1.2-1.7c0.1-0.2,0.3-0.3,0.7-0.3c1.1,0.3,1.3,0.8,0.9,1.2c-0.3,0.3-0.6,0.6-0.9,0.9c0.8,0,1.9,0.1,3.1,0.3
			c0.3-0.1,0.6-0.2,0.9-0.3c0.3-0.1,0.6,0,0.9,0.2c0.5,0.3,0.6,0.9,0.3,1.6c-0.3,1.1-0.6,2.1-0.7,3.3l-0.5,0.3
			c0.5,0.3,0.5,0.6,0.2,0.9c-0.2,0.2-0.5,0.5-0.7,0.7c-0.2,0.1-0.2,0.3,0.2,0.5c0.5,0.1,0.9,0,1.2-0.2c-0.5-0.3-0.5-0.6-0.2-0.7
			c0.5,0,0.8,0,1.1,0.2c0.2,0.3,0.5,0.7,0.7,1.1c-0.1,0.1-0.3,0.2-0.5,0.3l-0.7-0.5c-0.2,0.7-0.6,1-1.2,0.9
			c-0.5-0.3-0.9-0.5-1.4-0.3c-0.3-0.2-0.5-0.5-0.3-0.9c0.2-0.2,0.5-0.5,0.7-0.9c0.1-0.2,0.3-0.6,0.5-1.1c-0.9-0.1-2-0.2-3.3-0.2
			c-0.8,2.7-2.4,4.6-4.7,5.8c-1.9,0.7-3.2,0.4-4.2-0.9c0-0.1,0.2-0.2,0.7-0.2C440.4,583.7,442.6,582.1,443.4,579.3z M443.9,574.9
			c-0.8,0-1.5,0.1-1.9,0.3c-0.2,0.7-0.1,1.1,0.3,1.1l1.9-0.2C444.4,575.6,444.3,575.1,443.9,574.9z M444.1,577c-0.6,0-1.3,0-2.1,0.2
			c0,0.8,0.2,1.2,0.5,1.2l1.2-0.2L444.1,577z M445.3,580.2c0.1-0.5,0.3-0.7,0.7-0.7c0.2,0,0.4,0.1,0.5,0.3c-0.2,0.5-0.4,0.9-0.5,1.4
			c0,0.5,0,0.8,0.2,1.1c0.5,0.6,1.4,1,2.8,1.2c1.2,0.1,2.3,0,3.3-0.3c0.7-0.3,1.2-0.4,1.4-0.2c-0.1,0.7-0.5,1.5-1.2,2.4
			c-0.8,0.7-1.5,0.9-2.1,0.7c-2-0.3-3.6-1.2-4.9-2.4c-0.6-0.7-0.8-1.3-0.7-1.9C445,581.1,445.2,580.6,445.3,580.2z M447.9,578.6
			c0.2-0.5,0.3-0.9,0.2-1.2c-0.5-0.2-1.3-0.3-2.6-0.3c-0.1,0.5-0.2,0.9-0.2,1.4C446.3,578.5,447.1,578.6,447.9,578.6z M445.7,576.2
			l1.9,0.2c0.5,0.1,0.7-0.1,0.7-0.7c0-0.5-0.7-0.7-2.1-0.7C445.8,575,445.7,575.4,445.7,576.2z"/>
		<path fill="#C4BA98" stroke="#000000" stroke-width="0.5" stroke-miterlimit="10" d="M461,576c0.2-0.5,0.4-0.7,0.5-0.7
			c0.6-0.1,0.8,0.3,0.5,1.2c-0.3,1.1-0.9,2.1-1.6,3.3c-0.6,0.9-1.2,1.6-1.7,2.1c-1.2,1.1-2.4,1-3.7-0.2c-0.3-0.3-0.2-0.7,0.3-1.1
			C457.4,579.7,459.3,578.2,461,576z M465,572.5c1.2-0.1,1.7,0.5,1.6,1.9c-0.1,2.9,0,6.2,0.2,9.8c0,1.4-1.1,2-3.3,1.9
			c-1.2-0.1-2.5-0.8-4-1.9c-0.2-0.6-0.1-0.9,0.3-0.9c2.2,0.7,3.5,0.8,4,0.3c0.3-0.2,0.5-3.5,0.3-9.8
			C464.1,573,464.4,572.5,465,572.5z M467.8,576.5c-0.3-0.5-0.3-0.8,0.2-1.1c0.2-0.1,0.5,0,0.7,0.2c1.6,2.1,4.1,3.9,7.3,5.4
			c-0.3,0.6-0.7,1-1.1,1.2c-1.1,0.9-2,0.9-3,0C470.5,580.4,469.1,578.5,467.8,576.5z"/>
		<path fill="#C4BA98" stroke="#000000" stroke-width="0.5" stroke-miterlimit="10" d="M485.1,578.9c-0.3,1.2-0.7,2-1.1,2.6l2.3-0.3
			c-0.1-0.5-0.2-0.9-0.2-1.4c0.1-0.5,0.5-0.8,1.2-0.9c0.5,0,0.9,0.1,1.2,0.3c0.5,0.1,0.8,0.1,1.1,0v-5.8c0-0.7,0.2-1.1,0.7-1.2
			c1.2,0,1.7,0.4,1.7,1.2c-0.1,0.6-0.2,1.1-0.2,1.4c2.4,0.1,4.5,0.2,6.1,0.2c0,0.6-0.2,1.1-0.5,1.6c-0.5,0.5-0.9,0.6-1.4,0.3
			c-1.9-0.6-3.2-0.8-4.2-0.5c-0.2,0.9-0.2,1.9,0,2.8c0.8,0.1,1.5,0,1.9-0.2c1.5-0.5,2.3,0,2.3,1.2c-0.2,0.9-0.3,2.1-0.3,3.5
			c0.2,1.5-0.3,2-1.6,1.6c-1.6-0.2-3.4-0.3-5.2-0.2c-1.4,0.7-2.1,0.3-2.3-1.2c0-0.3,0-1-0.2-1.9c-2.3,1.1-5.1,1.9-8.2,2.4
			c-1.1,0.2-1.5-0.2-1.4-1.2c0-0.6,0.6-0.9,1.7-1.1c1.3-0.1,2.7-0.3,4.4-0.5c0.3-1.3,0.5-2.5,0.5-3.7c0-0.8,0.2-1.2,0.7-1.2
			C485.1,577,485.4,577.7,485.1,578.9z M483.7,573.5c-0.1,1.4,0,2,0.3,1.9l2.4,0.2c0.6,0.5,0.6,0.8,0.2,1.1
			c-0.2,0.1-0.6,0.2-1.2,0.2c-2.3-0.5-4.7-0.3-7.2,0.5c-0.5,0.1-0.7,0-0.7-0.5c0.2-1.1,0.7-1.5,1.4-1.4c0.9,0.2,1.6,0.3,2.1,0.2
			c0.3-0.1,0.5-0.8,0.3-2.1c0.1-0.5,0.3-0.7,0.7-0.7C482.8,572.7,483.3,573,483.7,573.5z M481.9,581.2c-0.2,0.3-0.5,0.4-0.9,0.2
			c-0.7-1.1-1.1-2-1.2-2.8c-0.1-0.8,0.2-1.3,0.9-1.4c0.6-0.1,0.9,0.1,0.9,0.7C481.7,579.1,481.8,580.2,481.9,581.2z M491.7,580.5
			c-1.6-0.1-2.7,0-3.1,0.3c-0.3,0.8-0.3,1.6,0,2.4c0.1,0.6,1.4,0.8,3.8,0.5c1.1,0,1.6-0.6,1.6-1.7
			C493.9,580.9,493.2,580.4,491.7,580.5z"/>
	</g>
	
		<linearGradient id="SVGID_5_" gradientUnits="userSpaceOnUse" x1="365.171" y1="353.0682" x2="365.171" y2="353.0682" gradientTransform="matrix(1.0929 0 0 -1.0929 0 955.5428)">
		<stop  offset="0" style="stop-color:#C4BA98"/>
		<stop  offset="1.474962e-002" style="stop-color:#CEC5A9"/>
		<stop  offset="4.332456e-002" style="stop-color:#DDD7C4"/>
		<stop  offset="7.615717e-002" style="stop-color:#EAE6DA"/>
		<stop  offset="0.1145" style="stop-color:#F3F1EB"/>
		<stop  offset="0.162" style="stop-color:#FAF9F6"/>
		<stop  offset="0.2285" style="stop-color:#FEFEFD"/>
		<stop  offset="0.4133" style="stop-color:#FFFFFF"/>
		<stop  offset="0.4696" style="stop-color:#DDDBD8"/>
		<stop  offset="0.5499" style="stop-color:#B2AFA6"/>
		<stop  offset="0.6258" style="stop-color:#908B7F"/>
		<stop  offset="0.6952" style="stop-color:#787263"/>
		<stop  offset="0.7558" style="stop-color:#696252"/>
		<stop  offset="0.801" style="stop-color:#645D4C"/>
		<stop  offset="0.8499" style="stop-color:#776F5B"/>
		<stop  offset="0.9484" style="stop-color:#A89F82"/>
		<stop  offset="1" style="stop-color:#C4BA98"/>
	</linearGradient>
	
		<linearGradient id="SVGID_6_" gradientUnits="userSpaceOnUse" x1="365.171" y1="353.0682" x2="365.171" y2="353.0682" gradientTransform="matrix(1.0929 0 0 -1.0929 0 955.5428)">
		<stop  offset="0" style="stop-color:#C4BA98"/>
		<stop  offset="1.389108e-002" style="stop-color:#C7BD9D"/>
		<stop  offset="0.1655" style="stop-color:#E5E1D2"/>
		<stop  offset="0.2794" style="stop-color:#F8F7F3"/>
		<stop  offset="0.3418" style="stop-color:#FFFFFF"/>
		<stop  offset="0.4046" style="stop-color:#E1E0DC"/>
		<stop  offset="0.5083" style="stop-color:#B5B1A9"/>
		<stop  offset="0.6058" style="stop-color:#928D81"/>
		<stop  offset="0.6943" style="stop-color:#797364"/>
		<stop  offset="0.7708" style="stop-color:#696352"/>
		<stop  offset="0.8265" style="stop-color:#645D4C"/>
		<stop  offset="0.8691" style="stop-color:#776F5B"/>
		<stop  offset="0.955" style="stop-color:#A89F82"/>
		<stop  offset="1" style="stop-color:#C4BA98"/>
	</linearGradient>
	<path fill="url(#SVGID_5_)" stroke="url(#SVGID_6_)" stroke-width="0.5" stroke-miterlimit="10" d="M399.1,569.7"/>
	
		<linearGradient id="SVGID_7_" gradientUnits="userSpaceOnUse" x1="374.5278" y1="360.1533" x2="374.5278" y2="360.1533" gradientTransform="matrix(1.0929 0 0 -1.0929 0 955.5428)">
		<stop  offset="0" style="stop-color:#C4BA98"/>
		<stop  offset="1.474962e-002" style="stop-color:#CEC5A9"/>
		<stop  offset="4.332456e-002" style="stop-color:#DDD7C4"/>
		<stop  offset="7.615717e-002" style="stop-color:#EAE6DA"/>
		<stop  offset="0.1145" style="stop-color:#F3F1EB"/>
		<stop  offset="0.162" style="stop-color:#FAF9F6"/>
		<stop  offset="0.2285" style="stop-color:#FEFEFD"/>
		<stop  offset="0.4133" style="stop-color:#FFFFFF"/>
		<stop  offset="0.4696" style="stop-color:#DDDBD8"/>
		<stop  offset="0.5499" style="stop-color:#B2AFA6"/>
		<stop  offset="0.6258" style="stop-color:#908B7F"/>
		<stop  offset="0.6952" style="stop-color:#787263"/>
		<stop  offset="0.7558" style="stop-color:#696252"/>
		<stop  offset="0.801" style="stop-color:#645D4C"/>
		<stop  offset="0.8499" style="stop-color:#776F5B"/>
		<stop  offset="0.9484" style="stop-color:#A89F82"/>
		<stop  offset="1" style="stop-color:#C4BA98"/>
	</linearGradient>
	
		<linearGradient id="SVGID_8_" gradientUnits="userSpaceOnUse" x1="374.5278" y1="360.1533" x2="374.5278" y2="360.1533" gradientTransform="matrix(1.0929 0 0 -1.0929 0 955.5428)">
		<stop  offset="0" style="stop-color:#C4BA98"/>
		<stop  offset="1.389108e-002" style="stop-color:#C7BD9D"/>
		<stop  offset="0.1655" style="stop-color:#E5E1D2"/>
		<stop  offset="0.2794" style="stop-color:#F8F7F3"/>
		<stop  offset="0.3418" style="stop-color:#FFFFFF"/>
		<stop  offset="0.4046" style="stop-color:#E1E0DC"/>
		<stop  offset="0.5083" style="stop-color:#B5B1A9"/>
		<stop  offset="0.6058" style="stop-color:#928D81"/>
		<stop  offset="0.6943" style="stop-color:#797364"/>
		<stop  offset="0.7708" style="stop-color:#696352"/>
		<stop  offset="0.8265" style="stop-color:#645D4C"/>
		<stop  offset="0.8691" style="stop-color:#776F5B"/>
		<stop  offset="0.955" style="stop-color:#A89F82"/>
		<stop  offset="1" style="stop-color:#C4BA98"/>
	</linearGradient>
	<path fill="url(#SVGID_7_)" stroke="url(#SVGID_8_)" stroke-width="0.5" stroke-miterlimit="10" d="M409.3,561.9"/>
	<g>
		<g>
			<path fill="#C4BA98" stroke="#000000" stroke-width="0.5" stroke-miterlimit="10" d="M404.8,552.6h-6.7v5.2h3.6v3.6h-3.6v6.4
				l-2,0.9v-19.7h8.7V552.6"/>
			<path fill="#C4BA98" stroke="#000000" stroke-width="0.5" stroke-miterlimit="10" d="M407.3,565.5v-1v-15.4h7.4
				c0.7,0,1.2,0.3,1.5,0.9c0.3,0.6,0.5,1.6,0.5,2.9v4.7c0,1.4-0.1,2.3-0.5,2.9c-0.3,0.6-0.8,0.9-1.5,0.9h-1.1l4,7.5h-2.9l-3.5-7.5
				h-1.9v2.5v1.1L407.3,565.5z M413.8,552.6h-4.5v5.6h4.5c0.3,0,0.6-0.1,0.7-0.3c0.1-0.2,0.2-0.6,0.2-1.2v-2.4c0-0.6-0.1-1-0.2-1.2
				C414.3,552.7,414.1,552.6,413.8,552.6z"/>
			<path fill="#C4BA98" stroke="#000000" stroke-width="0.5" stroke-miterlimit="10" d="M420.7,569v-19.9h2V569H420.7z"/>
			<path fill="#C4BA98" stroke="#000000" stroke-width="0.5" stroke-miterlimit="10" d="M427.1,569v-19.9h8.8v3.4h-6.8v4.5h4v3.4h-4
				v4.9h6.9v3.8L427.1,569L427.1,569z"/>
			<path fill="#C4BA98" stroke="#000000" stroke-width="0.5" stroke-miterlimit="10" d="M439.7,569v-19.9h1.4l6.1,11.7
				c0.2,0.4,0.4,0.8,0.5,1.1s0.3,0.7,0.4,1.1c0-1.1,0-1.9-0.1-2.4c0-0.5,0-0.8,0-1.1v-10.5h1.8V569h-1.4l-6.3-12.3
				c-0.1-0.3-0.3-0.6-0.4-0.9c-0.1-0.2-0.2-0.5-0.3-0.8c0,0.6,0,1.2,0,1.7s0,1,0,1.4V569H439.7L439.7,569z"/>
			<path fill="#C4BA98" stroke="#000000" stroke-width="0.5" stroke-miterlimit="10" d="M454.2,569v-19.9h5.6c1.6,0,2.8,0.9,3.6,2.6
				c0.9,1.7,1.3,4.1,1.3,7.3c0,1.9-0.2,3.5-0.5,5c-0.3,1.5-0.8,2.7-1.4,3.5c-0.4,0.5-0.8,0.9-1.4,1.2c-0.6,0.2-1.3,0.4-2.1,0.4
				L454.2,569L454.2,569z M456.2,565.3h2.6c1.4,0,2.4-0.5,2.9-1.5c0.6-1,0.9-2.6,0.9-4.9c0-2-0.2-3.6-0.7-4.6
				c-0.5-1.1-1.2-1.6-2.1-1.6h-3.6L456.2,565.3L456.2,565.3z"/>
			<path fill="#C4BA98" stroke="#000000" stroke-width="0.5" stroke-miterlimit="10" d="M475.8,552.6h-5.7v4.3h5.4
				c0.8,0,1.4,0.3,1.7,1c0.3,0.7,0.4,1.9,0.4,3.7v2.8c0,1.8-0.1,3-0.4,3.7c-0.3,0.7-0.9,1-1.7,1h-5.3c-0.8,0-1.4-0.3-1.7-1
				c-0.3-0.7-0.4-1.9-0.4-3.7v-0.5l1.8-0.9v2.4h6.1v-4.5h-5.4c-0.8,0-1.4-0.3-1.7-1c-0.3-0.7-0.4-1.9-0.4-3.7v-2.2
				c0-1.8,0.1-3,0.4-3.7c0.3-0.7,0.9-1,1.7-1h4.9c0.8,0,1.4,0.3,1.7,1c0.3,0.6,0.5,1.8,0.5,3.4v0.4l-1.8,1V552.6L475.8,552.6z"/>
			<path fill="#C4BA98" stroke="#000000" stroke-width="0.5" stroke-miterlimit="10" d="M490.1,566.1v-5.6h-6.3v7.9l-2,0.7v-19.9h2
				v7.7h6.3v-7.7h2v16.2L490.1,566.1z"/>
			<path fill="#C4BA98" stroke="#000000" stroke-width="0.5" stroke-miterlimit="10" d="M496.5,569v-19.9h2V569H496.5z"/>
			<path fill="#C4BA98" stroke="#000000" stroke-width="0.5" stroke-miterlimit="10" d="M502.9,569v-19.9h7.4c0.7,0,1.2,0.3,1.5,0.9
				c0.3,0.6,0.5,1.6,0.5,2.9v4.4c0,1.4-0.1,2.3-0.5,2.9c-0.3,0.6-0.8,0.9-1.5,0.9h-5.4v6.9L502.9,569z M509.4,552.6h-4.5v5.3h4.5
				c0.3,0,0.6-0.1,0.7-0.3c0.1-0.2,0.2-0.6,0.2-1.2v-2.1c0-0.6-0.1-1-0.2-1.2C510,552.7,509.8,552.6,509.4,552.6z"/>
		</g>
	</g>
</g>
</svg>
