<?xml version="1.0" encoding="utf-8"?>
<!-- Generator: Adobe Illustrator 18.1.1, SVG Export Plug-In . SVG Version: 6.00 Build 0)  -->
<svg version="1.1" id="图层_1" xmlns="http://www.w3.org/2000/svg" xmlns:xlink="http://www.w3.org/1999/xlink" x="0px" y="0px"
	 viewBox="0 0 612 792" enable-background="new 0 0 612 792" xml:space="preserve">
<g id="图层_1_1_" display="none">
</g>
<g id="图层_2">
	<line fill="none" x1="313.1" y1="381.8" x2="313.1" y2="605.5"/>
	<path fill="#0B0B0B" stroke="#000000" stroke-miterlimit="10" d="M314.1,386.8l155,8L558.5,532l33.2,21.5c0,0-46.3-3.3-58.2-0.1
		c-11.9,3.2-43.1,24.6-64,31.8c-20.9,7.2-90.8,31.6-107.2,31.3c-16.4-0.2-49.1-1.9-49.1-1.9s-32.7,1.5-49.1,1.7
		c-16.5,0.2-86.4-24.2-107.2-31.4c-20.8-7.2-52-28.4-64-31.8s-58.4,0.2-58.4,0.2l33.2-21.5L157,394.9l155-8"/>
</g>
<g id="图层_5">
</g>
<g id="图层_3">
	<path fill="#491D1A" stroke="#000000" stroke-width="2" stroke-miterlimit="10" d="M312.4,450.6c-3.3,0-8.1-0.3-13.1,2
		c-4.8,2.2-6.6,4.7-12.9,11.1c-8.9,9.1-13.4,13.7-19.1,16.1c-2.1,0.9-8.9,3.6-17.3,2.4c-2.8-0.4-6.2-1.7-12.9-4.4
		c-10.4-4.2-9-4.4-12.8-5.4c-6.2-1.7-11.4-1.2-21.6-0.5c-3.8,0.2-5.7,1.2-9.3,0.9c-4.8-0.3-8.5-2-11-3.2
		c-1.2,12.3-1.7,29.2,1.4,48.7c3.8,25,11.8,43.1,14.2,48.4c8.4,18.6,18.8,30.8,39.2,55.4c14.8,17.8,21.4,23.6,29.4,27.8
		c12.9,6.7,25.1,9,33.3,9h26.2c8.1,0,20.5-2.2,33.3-9c7.9-4.3,14.4-9.8,29.4-27.5c20.5-24.7,30.8-37.2,39.2-55.5
		c2.4-5.4,10.4-23.4,14.2-48.4c3.1-19.6,2.6-36.4,1.4-48.9c-2.5,1.4-6.2,2.8-11,3.2c-3.6,0.2-5.4-0.7-9.3-0.9
		c-10.3-0.7-15.4-1.1-21.6,0.5c-3.6,1-2.4,1.2-12.8,5.4c-6.7,2.6-10.1,3.9-12.9,4.4c-8.3,1.2-15.3-1.6-17.3-2.5
		c-5.8-2.5-10.3-7.1-19.1-16.2c-6.2-6.3-8.1-8.9-12.9-11c-5-2.2-9.8-2-13.1-2h-1.4v0.1H312.4z"/>
	<path fill="#C69C6D" stroke="#000000" stroke-miterlimit="10" d="M313.6,653.9c10.9,0,25.2,0.7,40.8-6c22.5-9.7,34.4-28.1,39-35.2
		c3.9-6.1,3.4-7,15.4-29.2c5.7-10.6,10.5-19.1,13.7-24.8c4.4,1.5,8.7,2.8,13.1,4.3c-4.4,7.5-10.6,18.4-18.8,30.9
		c-10.6,16.5-15.8,24.7-23.7,33.6c-10.7,12.3-20.3,23.5-36.8,30.6c-7.2,3.2-23.4,5.8-43.6,5.8h0.5c-20.2,0-36.3-2.7-43.6-5.8
		c-16.3-7.1-26-18.3-36.8-30.5c-7.8-8.9-13.1-17.2-23.7-33.6c-8.2-12.7-14.4-23.5-18.8-31c4.4-1.5,8.7-2.8,13.1-4.4
		c3.2,5.7,8,14.2,13.7,24.7c11.9,22.2,11.4,22.8,15.4,29.1c4.6,7.1,16.5,25.6,39,35.3c15.4,6.6,29.8,5.9,40.8,5.9h1.2v0.3H313.6z"/>
	<g>
		<path fill="#A67C52" stroke="#000000" stroke-miterlimit="10" d="M171.6,440.4c2.4,4.8,5.6,12.1,8.3,21.6c4.2,14.1,4.6,24,6,39.6
			c1,9.9,2.7,24.4,5.7,42.1c-5.6,3.6-11.1,7.3-16.7,11c-2.5-13.3-4.8-27.1-6.9-41.3c-3.8-27.2-6.2-53.2-7.6-77.4
			C164.1,437.3,167.8,438.9,171.6,440.4z"/>
		
			<ellipse transform="matrix(-0.7046 0.7096 -0.7096 -0.7046 701.1779 796.0769)" fill="#A67C52" stroke="#000000" stroke-miterlimit="10" cx="184.9" cy="544" rx="19.6" ry="8.4"/>
		
			<ellipse transform="matrix(-0.7046 0.7096 -0.7096 -0.7046 715.8881 815.1351)" fill="#A67C52" stroke="#000000" stroke-miterlimit="10" cx="188.3" cy="556.6" rx="19.6" ry="8.4"/>
		<polygon fill="#A67C52" stroke="#000000" stroke-miterlimit="10" points="188.4,566.2 203.7,566.2 203.3,619.7 188.4,619.7 		"/>
		
			<ellipse transform="matrix(-0.7046 0.7096 -0.7096 -0.7046 732.8981 828.5276)" fill="#A67C52" stroke="#000000" stroke-miterlimit="10" cx="194" cy="566.8" rx="19.6" ry="8.4"/>
		<ellipse fill="#A67C52" stroke="#000000" stroke-miterlimit="10" cx="196.4" cy="608.2" rx="11.4" ry="6"/>
		<path fill="#C69C6D" stroke="#000000" stroke-miterlimit="10" d="M194.9,694.5c-3.1,0.2-6.6,0.2-10.5-0.2
			c-5.2-0.4-9.7-1.6-13.3-2.6c3.7-14,5.1-25.5,5.7-33.3c0.8-10.4,3.4-20.7,4.3-30.9c0.2-3.5,0.7-9.3,4.9-13.1
			c3.2-2.7,7.1-3.5,9.7-3.5h1.5c2.6,0,6.4,0.7,9.7,3.5c4.4,3.7,4.7,9.7,4.9,13.2c0.8,10.4,3.4,20.7,4.3,30.9
			c0.5,7.9,2,19.3,5.7,33.3c-3.6,1.1-8.1,2.2-13.3,2.6c-3.8,0.3-7.4,0.3-10.5,0.2L194.9,694.5z"/>
	</g>
	<g>
		<path fill="#A67C52" stroke="#000000" stroke-miterlimit="10" d="M454.6,440.4c-2.4,4.8-5.6,12.1-8.3,21.6
			c-4.2,14.1-4.6,24-6,39.6c-1,9.9-2.7,24.4-5.7,42.1c5.6,3.6,11.1,7.3,16.7,11c2.5-13.3,4.8-27.1,6.9-41.3
			c3.8-27.2,6.2-53.2,7.6-77.4C462,437.3,458.3,438.9,454.6,440.4z"/>
		
			<ellipse transform="matrix(0.7046 0.7096 -0.7096 0.7046 516.2899 -152.4171)" fill="#A67C52" stroke="#000000" stroke-miterlimit="10" cx="441.2" cy="543.9" rx="19.6" ry="8.4"/>
		
			<ellipse transform="matrix(0.7046 0.7096 -0.7096 0.7046 524.1446 -146.2608)" fill="#A67C52" stroke="#000000" stroke-miterlimit="10" cx="437.7" cy="556.4" rx="19.6" ry="8.4"/>
		<polygon fill="#A67C52" stroke="#000000" stroke-miterlimit="10" points="437.7,566.2 422.4,566.2 422.8,619.7 437.7,619.7 		"/>
		
			<ellipse transform="matrix(0.7046 0.7096 -0.7096 0.7046 529.7181 -139.1795)" fill="#A67C52" stroke="#000000" stroke-miterlimit="10" cx="432" cy="566.7" rx="19.6" ry="8.4"/>
		<ellipse fill="#A67C52" stroke="#000000" stroke-miterlimit="10" cx="429.7" cy="608.2" rx="11.4" ry="6"/>
		<path fill="#C69C6D" stroke="#000000" stroke-miterlimit="10" d="M431.2,694.5c3.1,0.2,6.6,0.2,10.5-0.2c5.2-0.4,9.7-1.6,13.3-2.6
			c-3.7-14-5.1-25.5-5.7-33.3c-0.8-10.4-3.4-20.7-4.3-30.9c-0.2-3.5-0.7-9.3-4.9-13.1c-3.2-2.7-7.1-3.5-9.7-3.5h-1.5
			c-2.6,0-6.4,0.7-9.7,3.5c-4.4,3.7-4.7,9.7-4.9,13.2c-0.8,10.4-3.4,20.7-4.3,30.9c-0.5,7.9-2,19.3-5.7,33.3
			c3.6,1.1,8.1,2.2,13.3,2.6c3.8,0.3,7.4,0.3,10.5,0.2L431.2,694.5z"/>
	</g>
	<path fill="#1A1A1A" stroke="#000000" stroke-width="3" stroke-miterlimit="10" d="M312.4,417.4c50.3,0.4,100.5,0.9,150.8,1.5
		c3.1-31.5,1.6-57.2-0.5-75.5c-2.6-22.7-6.7-37.2-8.3-42.5c-3.5-12-8.1-26.8-18.6-43.3c-2-3.2-8.9-14-18.8-24.3
		c-2.7-2.8-8.5-8.5-13.9-13.8c-2.3-2.2-4.6-4.4-6.9-6.4c-11-10.3-21.9-19.7-32.5-28.4c0,0-15.6-15.5-33.3-27.6
		c-2.2-1.5-6.4-3.9-12.6-5.7c-2-0.5-3.7-0.9-5.5-0.9h0.5c-1.7,0-3.5,0.3-5.5,0.9c-6,1.7-10.4,4.4-12.6,5.8
		c-17.6,12.1-33.2,27.5-33.3,27.5c-10.6,8.7-21.4,18.1-32.5,28.4c-2.3,2.2-4.6,4.4-6.9,6.4c-5.4,5.1-11.1,10.8-13.9,13.7
		c-9.9,10.3-16.8,21.1-18.8,24.2c-10.5,16.5-14.9,31.1-18.6,43.3c-1.6,5.4-5.6,19.6-8.3,42.4c-2.2,18.3-3.6,44-0.5,75.4
		c50.3-0.4,100.5-0.9,150.8-1.5"/>
	<path fill="#4D4D4D" stroke="#000000" stroke-miterlimit="10" d="M313.1,378.6c0,0,1.1-5.1-1.5-7.8c-2.6-2.6-15.4-1.7-15.4-1.7
		s-81.7-0.8-94.5-0.1c-12.8,0.7-47.2,4.7-47.2,4.7s3.9,65,5.1,68.6c1.1,3.6,4.6,7.4,6.2,8.5c1.7,1.1,4.6,4.4,11.9,3.4
		c7.4-0.9,39.7-6.6,45.9-6.6s33.3-1.1,42.1-1.1s23.1,0.3,23.1,0.3s8.9,1.1,11.4-0.3c2.5-1.5,6.2-3.9,7.4-6c1.1-2.1,3.2-6.2,3.4-10.6
		S313.1,378.6,313.1,378.6z"/>
	<path fill="#48668A" stroke="#000000" stroke-miterlimit="10" d="M221.3,402.9c2.4,0.5,4.8,1.2,7.3,2c9.3,2.5,13.4,4.3,23.1,7.1
		c7.4,2.2,18.3,5.1,31.6,8c-0.5-0.9-2.8-4.4-2.5-9.1c0.4-4.7,3.2-7.6,3.9-8.4c1.6,1.9,4.8,5.9,6.1,12c1.2,5.7,0.3,10.5-0.3,12.9
		c-15.1-2.7-27.4-3.5-36.2-3.7c-9.6-0.2-15.6,0.2-24.5-2c-15.8-3.7-21.5-8.5-23.4-10.5c-4.5-4.7-6.4-9.9-7.4-13.3
		C206.2,399.3,213.7,401,221.3,402.9"/>
	<path fill="#4B3B55" stroke="#000000" stroke-miterlimit="10" d="M284.7,402.6c-0.2,2.4-0.3,5.5,0.2,9c0.7,4.8,2.3,8.5,3.5,11.1
		c-4.5-0.4-10.6-1-17.8-2.1c-13.7-1.9-23.1-3.6-31.8-5.4c-18.1-3.5-21.6-5-24.7-6.4c-7-3.5-11.7-7.9-14.8-11c0.5,2.3,1.6,5.6,3.8,9
		c4.6,6.7,10.9,9.3,16.3,11.5c9.1,3.6,16.8,4.3,30.1,5c7.7,0.4,8.4,0.1,15.6,0.5c10.9,0.7,19.8,2.2,25.6,3.4
		c0.5-2.3,1.5-7.1,0.2-12.9C289.5,408.3,286.3,404.4,284.7,402.6z"/>
	<path fill="#4D4D4D" stroke="#000000" stroke-miterlimit="10" d="M313.1,378.6c0,0-1.1-5.1,1.5-7.8c2.6-2.6,15.4-1.7,15.4-1.7
		s81.7-0.8,94.5-0.1c12.8,0.7,47.2,4.7,47.2,4.7s-3.9,65-5.1,68.6s-4.6,7.4-6.2,8.5c-1.7,1.1-4.6,4.4-11.9,3.4
		c-7.4-0.9-39.7-6.6-45.9-6.6c-6.2,0-33.3-1.1-42.1-1.1s-23.1,0.3-23.1,0.3s-8.9,1.1-11.4-0.3c-2.5-1.5-6.2-3.9-7.4-6
		c-1.1-2.1-3.2-6.2-3.4-10.6C315.1,425.6,313.1,378.6,313.1,378.6z"/>
	<path fill="#48668A" stroke="#000000" stroke-miterlimit="10" d="M341.4,402.3c-1.6,1.9-4.8,5.9-6.1,12c-1.2,5.7-0.3,10.5,0.3,12.9
		c15.1-2.7,27.4-3.5,36.2-3.7c9.6-0.2,15.6,0.2,24.5-2c15.8-3.7,21.5-8.5,23.4-10.5c4.5-4.7,6.4-9.9,7.4-13.3
		c-9.3,2-19.1,4.3-29.4,7.1c-9.3,2.5-13.4,4.3-23.1,7.1c-7.4,2.2-18.3,5.1-31.6,8c0.5-0.9,2.8-4.4,2.5-9.1
		C344.9,406.2,342.2,403.1,341.4,402.3z"/>
	<path fill="#4B3B55" stroke="#000000" stroke-miterlimit="10" d="M341.4,402.6c0.2,2.4,0.3,5.5-0.2,9c-0.7,4.8-2.3,8.5-3.5,11.1
		c4.5-0.4,10.6-1,17.8-2.1c13.7-1.9,23.1-3.6,31.8-5.4c18.1-3.5,21.6-5,24.7-6.4c7-3.5,11.7-7.9,14.8-11c-0.5,2.3-1.6,5.6-3.8,9
		c-4.6,6.7-10.9,9.3-16.3,11.5c-9.1,3.6-16.8,4.3-30.1,5c-7.6,0.4-8.4,0.1-15.6,0.5c-10.9,0.7-19.8,2.2-25.6,3.4
		c-0.5-2.3-1.5-7.1-0.2-12.9C336.6,408.3,339.8,404.4,341.4,402.6z"/>
	<path fill="none" stroke="#000000" stroke-miterlimit="10" d="M178.1,440.4"/>
	<path fill="none" stroke="#000000" stroke-miterlimit="10" d="M179.9,454.6"/>
	<path fill="#491D1A" stroke="#000000" stroke-width="2" stroke-miterlimit="10" d="M313.6,449.1c12.3,0,14,0.9,24.8,7.1
		c9,5,13.4,12.1,21.6,14.8c5.5,1.7,6.6,0.8,22.5,2.3c16.8,1.6,19.3,3,21.3,4.8c6.7,6.3,4.8,17.3,4.8,17.9c-2,10.3-11,15.7-16.5,19
		c-5.1,3.1-7.9,3.4-16.3,6.2c-22.1,7.3-24.2,12.8-37.9,15.7c-5.6,1.2-13.9,2.6-24.5,2.6h-0.8c-10.6,0-18.9-1.5-24.5-2.6
		c-13.8-3-16-7.9-37.9-15.2c-8.4-2.8-11.1-3.5-16.3-6.6c-5.5-3.3-14.5-8.9-16.5-19.1c-0.1-0.4-2-11.5,4.8-17.9
		c2-1.9,4.5-3.2,21.3-4.8c16-1.5,17-0.5,22.5-2.3c8.2-2.6,12.7-9.8,21.6-14.8c10.8-6,12.6-7.1,24.8-7.1"/>
	<path stroke="#000000" stroke-miterlimit="10" d="M313.6,583.3c26.6,1.1,37.3,2.3,41.7,3.8c0.8,0.3,5.4,2.1,9.2,0.4
		c0.5-0.2,2.7-1.1,3.5-3.2c0.3-1,0.3-2,0.3-2.5c-0.2-3.2-1.1-8.6-4.6-14c-4.5-7.1-10.6-10.2-15.6-12.6c-13.8-6.6-27.3-6.4-35.3-5.7
		c-8-0.8-21.5-0.9-35.3,5.7c-4.9,2.4-11.1,5.5-15.6,12.6c-3.4,5.5-4.4,10.8-4.6,14c0,0.5-0.1,1.5,0.3,2.5c0.8,2.1,3,3,3.5,3.2
		c3.8,1.7,8.4-0.2,9.2-0.4c4.5-1.7,15.2-2.7,41.7-3.8H313.6z"/>
	<g>
		<path fill="#999999" stroke="#000000" stroke-miterlimit="10" d="M357,574H267c-1.6,0-3-1.4-3-3l0,0c0-1.6,1.4-3,3-3H357
			c1.6,0,3,1.4,3,3l0,0C360.1,572.7,358.7,574,357,574z"/>
		<path fill="#999999" stroke="#000000" stroke-miterlimit="10" d="M310.7,582.6L310.7,582.6c-1.7,0.1-3.3-1.2-3.4-3.1l-1.4-24.6
			c-0.1-1.7,1.2-3.3,3.1-3.4l0,0c1.7-0.1,3.3,1.2,3.4,3.1l1.4,24.6C313.8,581,312.4,582.4,310.7,582.6z"/>
		<path fill="#999999" stroke="#000000" stroke-miterlimit="10" d="M325,583.5L325,583.5c-2.1-0.2-3.5-2.2-3.2-4.3l3.2-24.4
			c0.2-2.1,2.2-3.5,4.3-3.2l0,0c2.1,0.2,3.5,2.2,3.2,4.3l-3.2,24.4C328.9,582.3,327.1,583.9,325,583.5z"/>
		<path fill="#999999" stroke="#000000" stroke-miterlimit="10" d="M341.4,584.8l-1.5-0.4c-1.5-0.4-2.3-2.1-1.9-3.4l6.1-20
			c0.4-1.5,2.1-2.3,3.4-1.9l1.5,0.4c1.5,0.4,2.3,2.1,1.9,3.4l-6.1,20C344.5,584.5,342.9,585.3,341.4,584.8z"/>
		<path fill="#999999" stroke="#000000" stroke-miterlimit="10" d="M292,583.4l-1.7,0.3c-1.7,0.3-3.4-0.9-3.6-2.6l-4.2-23.7
			c-0.3-1.7,0.9-3.4,2.6-3.6l1.7-0.3c1.7-0.3,3.4,0.9,3.6,2.6l4.2,23.7C295,581.3,293.7,583.1,292,583.4z"/>
		<path fill="#999999" stroke="#000000" stroke-miterlimit="10" d="M277.1,584.5l-1.4,0.4c-1.4,0.3-2.7-0.3-3.1-1.7l-5.1-17.2
			c-0.3-1.4,0.3-2.7,1.7-3.1l1.4-0.4c1.4-0.3,2.7,0.3,3.1,1.7l5.1,17.2C279.2,582.7,278.5,584.1,277.1,584.5z"/>
	</g>
	<path fill="none" stroke="#000000" stroke-miterlimit="10" d="M257,588.8c0.9,2.4,2.7,5.8,6.2,8.3c6,4.3,12.9,2.7,27,1.7
		c0,0,10.3-0.8,20.5-0.8c22.9,0,36.1,1.1,36.1,1.1c5.2,0.4,10.5,1.1,15.4-2.1c3.7-2.5,5.6-6.1,6.6-8.7"/>
	<path fill="#A79F9C" stroke="#4D4D4D" stroke-width="2" stroke-miterlimit="10" d="M312.4,553.2c3.2,2,8,4.6,14,7.2
		c15.8,6.9,30.2,8.9,37.3,9.7c16.1,1.7,24.5,2.1,24.5,2.1c3.8,0.2,9.2,0.3,15.1,3.4c3.6,2,6.1,4.4,7.8,6c-0.3-1.2-1-3.1-2.3-4.9
		c-2.5-3.8-6-5.9-5.9-6c0.2-0.2,2.8,2.4,6.9,3.9c6.9,2.7,14.2,1,14.2,0.2c0-0.5-3.2-0.3-6-2.3c-4.3-2.8-5.4-8.7-5.5-13.9
		c0.7,2,2.5,6.3,7.1,10.1c3.7,3.1,7.6,4.2,9.7,4.6c-1.1-1.2-2.6-3.3-3.4-6c-0.7-2.3-0.4-3.5-0.9-6c-0.3-1.9-1.1-4.6-3.1-7.8
		c-0.5-0.9-1.2-1.9-2.1-2.8c-1.6-1.9-3.2-3.1-4.5-3.8c1.2-0.2,2.8-0.4,4.7-0.3c2.8,0.1,5.2,0.8,6.7,1.5c-0.9-1.6-2.7-3.9-5.8-6
		c-2.2-1.5-4.4-2.3-5.8-2.7c0.9-0.4,2.1-0.9,3.3-1.2c2.6-0.7,4.9-0.4,6.3-0.3c-1-1.2-2.6-3-4.9-4.5c-4.6-2.8-9.2-3-11.1-2.8
		c1.2-0.5,3.3-1.7,5-3.7c3-3.5,3.2-7.4,3.2-8.7c-3.8,2-12,3.2-19.8,2.8c-17-0.7-40.3,3.7-51.1,6c-10.3,2.2-12,3.8-32.8,7.2
		c-20.7-3.3-22.4-4.9-32.8-7.2c-10.8-2.3-33.9-6.6-51.1-6c-7.8,0.3-15.8-0.9-19.8-2.8c0,1.4,0.3,5.2,3.2,8.7c1.9,2.2,3.7,3.3,5,3.7
		c-2-0.1-6.6,0-11.1,2.8c-2.3,1.5-3.8,3.2-4.9,4.5c1.5-0.2,3.7-0.3,6.3,0.3c1.4,0.3,2.4,0.8,3.3,1.2c-1.5,0.4-3.6,1.2-5.8,2.7
		c-3.1,2.1-4.8,4.6-5.8,6c1.6-0.5,3.8-1.4,6.7-1.5c1.9-0.1,3.4,0.1,4.7,0.3c-1.2,0.9-3,2.2-4.5,3.8c-0.9,1-1.6,2-2.1,2.8
		c-2,3.2-2.7,5.8-3.1,7.8c-0.4,2.5-0.2,3.7-0.9,6c-0.8,2.8-2.3,4.8-3.4,6c2.1-0.4,5.9-1.5,9.7-4.6c4.6-3.6,6.3-8.1,7.1-10.1
		c-0.1,5-1.2,10.9-5.5,13.9c-3,2-6.1,1.7-6,2.3c0,0.9,7.4,2.5,14.2-0.2c3.9-1.6,6.6-4.3,6.9-3.9c0.1,0.1-3.3,2.2-5.9,6
		c-1.2,1.9-2,3.6-2.3,4.9c1.6-1.7,4.2-4.2,7.8-6c5.8-3.1,11-3.2,15.1-3.4c0,0,8.4-0.4,24.5-2.1c7.1-0.8,21.4-2.8,37.3-9.7
		c6-2.6,10.8-5.2,14-7.2"/>
	<path fill="#491D1A" stroke="#000000" stroke-width="3" stroke-miterlimit="10" d="M335.5,494.7c2,0.2,5.4,0.8,8.9,3.1
		c1.6,1,5.1,3.3,7.2,7.8c2.1,4.4,1.5,8.2,1.1,11.1c-0.4,3.9-0.8,6.3-2.6,7.4c-2.8,1.7-5.9-2-11.1-1c-1.6,0.2-3.1,1.2-6,3.2
		c-6,3.8-7,6-10.8,8c-2,0.9-4.9,2.1-9,2.1c-4.2-0.1-7.1-1.1-9-2.1c-3.8-2-4.8-4.2-10.8-8c-3-2-4.5-3-6-3.2c-5.2-0.9-8.3,2.7-11.1,1
		c-1.9-1-2.1-3.4-2.6-7.4c-0.3-3-0.9-6.9,1.1-11.1c2.1-4.6,5.6-6.9,7.2-7.8c3.5-2.3,7.1-2.8,8.9-3.1"/>
	<g>
		<g>
			<g>
				<polygon fill="#865C34" stroke="#000000" stroke-miterlimit="10" points="117.8,503.5 127.4,503.5 127.2,577.6 117.8,577.6 				
					"/>
				<path fill="#865C34" stroke="#000000" stroke-miterlimit="10" d="M122,617.4c-1.9,0-3.9,0-6.3-0.2c-3.2-0.3-5.9-1.1-8.2-2
					c2.3-9.8,3.2-17.8,3.5-23.3c0.4-7.2,2.1-14.3,2.6-21.5c0.1-2.5,0.4-6.3,3.1-9c2-2,4.4-2.3,5.9-2.3h0.9c1.6,0,3.9,0.3,5.9,2.3
					c2.6,2.6,2.8,6.6,3.1,9.1c0.4,7.2,2.1,14.2,2.6,21.4c0.3,5.5,1.2,13.4,3.5,23.3c-2.2,0.8-5,1.6-8.2,2c-2.4,0.2-4.6,0.2-6.3,0.2
					H122L122,617.4z"/>
				<ellipse fill="#865C34" stroke="#000000" stroke-miterlimit="10" cx="122.9" cy="557.4" rx="7.1" ry="4.2"/>
				<ellipse fill="#865C34" stroke="#000000" stroke-miterlimit="10" cx="122.9" cy="551.7" rx="7.1" ry="4.2"/>
				<ellipse fill="#865C34" stroke="#000000" stroke-miterlimit="10" cx="122.9" cy="546" rx="7.1" ry="4.2"/>
			</g>
			<g>
				<polygon fill="#865C34" stroke="#000000" stroke-miterlimit="10" points="67.6,542.3 77.4,542.3 77.2,623.1 67.6,623.1 				"/>
				<path fill="#865C34" stroke="#000000" stroke-miterlimit="10" d="M71.9,666.4c-1.9,0-3.9,0.1-6.3-0.2c-3.2-0.3-5.9-1.2-8.2-2.1
					c2.3-10.7,3.2-19.3,3.5-25.2c0.4-7.9,2.1-15.6,2.6-23.5c0.1-2.6,0.4-7.2,3.1-10.1c2-2.1,4.4-2.7,5.9-2.7h0.9
					c1.6,0,3.9,0.5,5.9,2.7c2.6,2.8,2.8,7.3,3.1,10.1c0.4,7.9,2.1,15.6,2.6,23.5c0.3,6,1.2,14.6,3.5,25.2c-2.2,0.8-5,1.7-8.2,2.1
					c-2.4,0.2-4.6,0.2-6.3,0.2H71.9z"/>
				<ellipse fill="#865C34" stroke="#000000" stroke-miterlimit="10" cx="72.8" cy="600.9" rx="7.1" ry="4.6"/>
				<ellipse fill="#865C34" stroke="#000000" stroke-miterlimit="10" cx="72.8" cy="594.7" rx="7.1" ry="4.6"/>
				<ellipse fill="#865C34" stroke="#000000" stroke-miterlimit="10" cx="72.8" cy="588.6" rx="7.1" ry="4.6"/>
			</g>
			<g>
				<polygon fill="#865C34" stroke="#000000" stroke-miterlimit="10" points="91.6,556 101.3,556 101.1,636.8 91.6,636.8 				"/>
				<path fill="#865C34" stroke="#000000" stroke-miterlimit="10" d="M95.8,680c-1.9,0-3.9,0.1-6.3-0.2c-3.2-0.3-5.9-1.2-8.2-2.1
					c2.3-10.7,3.2-19.3,3.5-25.2c0.4-7.9,2.1-15.6,2.6-23.5c0.1-2.6,0.4-7.2,3.1-10.1c2-2.1,4.4-2.7,5.9-2.7h0.9
					c1.6,0,3.9,0.5,5.9,2.7c2.6,2.8,2.8,7.3,3.1,10.1c0.4,7.9,2.1,15.6,2.6,23.5c0.3,6,1.2,14.6,3.5,25.2c-2.2,0.8-5,1.7-8.2,2.1
					c-2.4,0.2-4.6,0.2-6.3,0.2H95.8z"/>
				<ellipse fill="#865C34" stroke="#000000" stroke-miterlimit="10" cx="96.7" cy="614.6" rx="7.1" ry="4.6"/>
				<ellipse fill="#865C34" stroke="#000000" stroke-miterlimit="10" cx="96.7" cy="608.3" rx="7.1" ry="4.6"/>
				<ellipse fill="#865C34" stroke="#000000" stroke-miterlimit="10" cx="96.7" cy="602.2" rx="7.1" ry="4.6"/>
			</g>
		</g>
		<path fill="#2D2824" stroke="#000000" stroke-width="2" stroke-miterlimit="10" d="M154.5,439.1l-30.2,82.5c0,0-2.3,6.2-7.8,9.1
			c-5.5,2.8-16.8,0-16.8,0l-22.4-15.2l30.2-79.7L154.5,439.1z"/>
		<path fill="#2D2824" stroke="#000000" stroke-width="2" stroke-miterlimit="10" d="M94.2,499.6c0,0,11.1-0.3,15.2,5.1
			c3.9,5.5,3.4,19.6,3.4,24.2s-3.4,19-8,27.6c-4.6,8.5-18,25-24.5,29.9s-7.5,6.2-10.9,6.4c-3.4,0.2-3.2,1.1-7.4,0
			c-4.3-1.1-6-3.4-7.8-6s-6-8.9-9.7-13.3c-3.7-4.5-10.1-11.8-14.2-14.6s-1.5-5.7-1.5-5.7s8.5-6.2,15.2-13.9c6.6-7.7,18-25,22-30.7
			c3.9-5.7,3.9-7.8,8.9-9.1C79.8,498.1,94.2,499.6,94.2,499.6z"/>
		<path fill="#B3B3B3" stroke="#000000" stroke-width="2" stroke-miterlimit="10" d="M119,466.4H98.6c-3.2,0-5.8-2.6-5.8-5.8
			s2.6-5.8,5.8-5.8h20.5c3.2,0,5.8,2.6,5.8,5.8C124.8,463.8,122.2,466.4,119,466.4z"/>
		<path fill="#B3B3B3" stroke="#000000" stroke-width="2" stroke-miterlimit="10" d="M92.1,515c4.3,2.6,1.5,13.8-0.5,19.1
			c-1.6,4.3-3.3,8.5-7.8,10.6c-0.3,0.1-5.7,2.5-9.1,0c-4.7-3.5-1.7-13.2-1.1-15.2c0.4-1.6,3.5-10.8,11.9-14
			C87.8,514.7,90.3,513.8,92.1,515z"/>
		<path fill="#B3B3B3" stroke="#000000" stroke-width="2" stroke-miterlimit="10" d="M67.6,511.8c2.1,5.7-3.7,12.7-6.9,16.3
			c0,0-2.5,3-6.9,5.7c-3.1,2-4.3,2-4.9,1.7c-2.3-0.8-2.7-4.8-2.8-5.5c-0.4-4.3,1.7-7.6,3.4-10.3c2.1-3.1,4.4-4.9,8.9-8.5
			c3.2-2.5,4.6-3.2,6-2.8C66.6,508.9,67.4,511.3,67.6,511.8z"/>
		<path fill="#C1AB34" stroke="#000000" stroke-width="3" stroke-miterlimit="10" d="M173.2,371l-15.6,93.3l-5,2.1
			c0,0-3.5-6.3-12.7-10.3c-9.2-3.9-12-4.5-17.2-4.5c-5.1,0-19.5-7-23.1-9.1c-3.6-2.2-16.4-8.9-17-25.4c-0.7-16.5,0-25.6,3.9-33.7
			c3.9-8.1,1.2-6.9,10.1-15.4c8.9-8.5,13.4-10.3,20.5-11.4c7.1-1.1,23.8-1.1,30.7,3.2c7,4.4,8.5,8.4,11.4,9.4
			C162.1,370.3,173.2,371,173.2,371z"/>
	</g>
	<g>
		<g>
			<g>
				<polygon fill="#865C34" stroke="#000000" stroke-miterlimit="10" points="508.3,503.5 498.7,503.5 498.9,577.6 508.3,577.6 				
					"/>
				<path fill="#865C34" stroke="#000000" stroke-miterlimit="10" d="M504.1,617.4c1.9,0,3.9,0,6.3-0.2c3.2-0.3,5.9-1.1,8.2-2
					c-2.3-9.8-3.2-17.8-3.5-23.3c-0.4-7.2-2.1-14.3-2.6-21.5c-0.1-2.5-0.4-6.3-3.1-9c-2-2-4.4-2.3-5.9-2.3h-0.9
					c-1.6,0-3.9,0.3-5.9,2.3c-2.6,2.6-2.8,6.6-3.1,9.1c-0.4,7.2-2.1,14.2-2.6,21.4c-0.3,5.5-1.2,13.4-3.5,23.3c2.2,0.8,5,1.6,8.2,2
					c2.4,0.2,4.6,0.2,6.3,0.2H504.1L504.1,617.4z"/>
				<ellipse fill="#865C34" stroke="#000000" stroke-miterlimit="10" cx="503.2" cy="557.4" rx="7.1" ry="4.2"/>
				<ellipse fill="#865C34" stroke="#000000" stroke-miterlimit="10" cx="503.2" cy="551.7" rx="7.1" ry="4.2"/>
				<ellipse fill="#865C34" stroke="#000000" stroke-miterlimit="10" cx="503.2" cy="546" rx="7.1" ry="4.2"/>
			</g>
			<g>
				<polygon fill="#865C34" stroke="#000000" stroke-miterlimit="10" points="558.5,542.3 548.7,542.3 548.9,623.1 558.5,623.1 				
					"/>
				<path fill="#865C34" stroke="#000000" stroke-miterlimit="10" d="M554.2,666.4c1.9,0,3.9,0.1,6.3-0.2c3.2-0.3,5.9-1.2,8.2-2.1
					c-2.3-10.7-3.2-19.3-3.5-25.2c-0.4-7.9-2.1-15.6-2.6-23.5c-0.1-2.6-0.4-7.2-3.1-10.1c-2-2.1-4.4-2.7-5.9-2.7h-0.9
					c-1.6,0-3.9,0.5-5.9,2.7c-2.6,2.8-2.8,7.3-3.1,10.1c-0.4,7.9-2.1,15.6-2.6,23.5c-0.3,6-1.2,14.6-3.5,25.2c2.2,0.8,5,1.7,8.2,2.1
					c2.4,0.2,4.6,0.2,6.3,0.2H554.2z"/>
				<ellipse fill="#865C34" stroke="#000000" stroke-miterlimit="10" cx="553.3" cy="600.9" rx="7.1" ry="4.6"/>
				<ellipse fill="#865C34" stroke="#000000" stroke-miterlimit="10" cx="553.3" cy="594.7" rx="7.1" ry="4.6"/>
				<ellipse fill="#865C34" stroke="#000000" stroke-miterlimit="10" cx="553.3" cy="588.6" rx="7.1" ry="4.6"/>
			</g>
			<g>
				<polygon fill="#865C34" stroke="#000000" stroke-miterlimit="10" points="534.5,556 524.8,556 525,636.8 534.5,636.8 				"/>
				<path fill="#865C34" stroke="#000000" stroke-miterlimit="10" d="M530.3,680c1.9,0,3.9,0.1,6.3-0.2c3.2-0.3,5.9-1.2,8.2-2.1
					c-2.3-10.7-3.2-19.3-3.5-25.2c-0.4-7.9-2.1-15.6-2.6-23.5c-0.1-2.6-0.4-7.2-3.1-10.1c-2-2.1-4.4-2.7-5.9-2.7h-0.9
					c-1.6,0-3.9,0.5-5.9,2.7c-2.6,2.8-2.8,7.3-3.1,10.1c-0.4,7.9-2.1,15.6-2.6,23.5c-0.3,6-1.2,14.6-3.5,25.2c2.2,0.8,5,1.7,8.2,2.1
					c2.4,0.2,4.6,0.2,6.3,0.2H530.3z"/>
				<ellipse fill="#865C34" stroke="#000000" stroke-miterlimit="10" cx="529.4" cy="614.6" rx="7.1" ry="4.6"/>
				<ellipse fill="#865C34" stroke="#000000" stroke-miterlimit="10" cx="529.4" cy="608.3" rx="7.1" ry="4.6"/>
				<ellipse fill="#865C34" stroke="#000000" stroke-miterlimit="10" cx="529.4" cy="602.2" rx="7.1" ry="4.6"/>
			</g>
		</g>
		<path fill="#2D2824" stroke="#000000" stroke-width="2" stroke-miterlimit="10" d="M471.7,439.1l30.2,82.5c0,0,2.3,6.2,7.8,9.1
			c5.5,2.8,16.8,0,16.8,0l22.3-15.2l-30.2-79.7L471.7,439.1z"/>
		<path fill="#2D2824" stroke="#000000" stroke-width="2" stroke-miterlimit="10" d="M532,499.6c0,0-11.1-0.3-15.2,5.1
			c-3.9,5.5-3.4,19.6-3.4,24.2s3.4,19,8,27.6c4.6,8.5,18,25,24.5,29.9c6.4,4.9,7.4,6.2,10.8,6.6c3.4,0.3,3.2,1.1,7.4,0s6-3.4,7.8-6
			c1.7-2.6,6-8.9,9.7-13.3c3.6-4.5,10.1-11.8,14.2-14.6c4.2-2.8,1.5-5.7,1.5-5.7s-8.5-6.2-15.2-13.9c-6.6-7.6-18-25-22-30.7
			c-3.9-5.7-3.9-7.8-8.9-9.1C546.3,498.2,532,499.6,532,499.6z"/>
		<path fill="#B3B3B3" stroke="#000000" stroke-width="2" stroke-miterlimit="10" d="M507.1,466.4h20.5c3.2,0,5.8-2.6,5.8-5.8
			s-2.6-5.8-5.8-5.8h-20.5c-3.2,0-5.8,2.6-5.8,5.8S503.9,466.4,507.1,466.4z"/>
		<path fill="#B3B3B3" stroke="#000000" stroke-width="2" stroke-miterlimit="10" d="M534,515c-4.3,2.6-1.5,13.8,0.5,19.1
			c1.6,4.3,3.3,8.5,7.8,10.6c0.3,0.1,5.7,2.5,9.1,0c4.7-3.5,1.7-13.2,1.1-15.2c-0.4-1.6-3.5-10.8-11.9-14
			C538.3,514.7,535.8,513.8,534,515z"/>
		<path fill="#B3B3B3" stroke="#000000" stroke-width="2" stroke-miterlimit="10" d="M558.5,511.8c-2.1,5.7,3.7,12.7,6.9,16.3
			c0,0,2.5,3,6.9,5.7c3.1,2,4.3,2,4.9,1.7c2.3-0.8,2.7-4.8,2.8-5.5c0.4-4.3-1.7-7.6-3.4-10.3c-2.1-3.1-4.4-4.9-8.9-8.5
			c-3.2-2.5-4.6-3.2-6-2.8C559.5,508.9,558.7,511.3,558.5,511.8z"/>
		<path fill="#C1AB34" stroke="#000000" stroke-width="3" stroke-miterlimit="10" d="M452.9,371l15.6,93.3l5,2.1
			c0,0,3.5-6.3,12.7-10.3c9.1-3.8,12-4.5,17.2-4.5s19.5-7,23.1-9.1c3.6-2.2,16.4-8.9,17-25.4c0.7-16.5,0-25.6-3.9-33.7
			c-3.9-8.1-1.2-6.9-10.1-15.4c-8.7-8.5-13.4-10.3-20.5-11.4c-7.1-1.1-23.8-1.1-30.7,3.2c-7,4.4-8.5,8.4-11.4,9.4
			C464,370.3,452.9,371,452.9,371z"/>
	</g>
</g>
<g id="图层_4">
	<g>
		<path fill="#F7931E" stroke="#000000" stroke-miterlimit="10" d="M230.3,275c-2.6-12.9-3.7-23.7-4.4-31.4
			c-0.2-3.6-1.4-21.1,2.3-42.7c1.9-10.6,3.7-16.6,9.1-20.5c4.3-3.1,9-3.6,12.3-3.7c0.4-2.8,0.8-6.9,0.3-11.7
			c-0.8-6.7-3-11.5-4.4-14.2c-2.7-5.8-7.3-10.5-16.3-19.7c-1-1-2.8-2.8-5.7-3.7c-2.2-0.7-3.9-0.4-5.5-0.3
			c-10.1,1.1-15.1,1.7-18.8,2.6c-2.2,0.4-4.3,1-6.9,0.3c-2.3-0.5-3.6-1.9-4.9-2.8c-18.6-15.8-12.3-9.6-15.7-12.9
			c-1.1-1-2.4-2.3-4.6-3.2c-3.2-1.2-6.1-0.7-7.2-0.5c-5.1,0.8-10.5,0.4-21.1-0.3c-8.3-0.5-8.6-2.5-21.1-5.5
			c-5.5-1.2-12.7-2.5-21.4-3.2c6.9,4.7,15.8,11.5,25.4,21.1c19.7,19.7,29.8,38.9,37,52.9c6.6,12.8,19.7,38.4,26,72
			c1.7,9.2,3.2,21.1,9.4,37.4c4.7,12.3,10.1,21.9,14,28.2C215.8,300.7,223.1,287.8,230.3,275z"/>
		<path fill="#F7931E" stroke="#000000" stroke-miterlimit="10" d="M395.9,275c2.6-12.9,3.7-23.7,4.4-31.4
			c0.2-3.6,1.4-21.1-2.3-42.7c-1.9-10.6-3.7-16.6-9.1-20.5c-4.3-3.1-9-3.6-12.3-3.7c-0.4-2.8-0.8-6.9-0.3-11.7
			c0.8-6.7,3-11.5,4.4-14.2c2.7-5.8,7.3-10.5,16.3-19.7c1-1,2.8-2.8,5.7-3.7c2.2-0.7,3.9-0.4,5.5-0.3c10.1,1.1,15.1,1.7,18.8,2.6
			c2.2,0.4,4.3,1,6.9,0.3c2.3-0.5,3.6-1.9,4.9-2.8c18.6-15.8,12.3-9.6,15.7-12.9c1.1-1,2.4-2.3,4.6-3.2c3.2-1.2,6.1-0.7,7.2-0.5
			c5.1,0.8,10.5,0.4,21.1-0.3c8.3-0.5,8.6-2.5,21.1-5.5c5.5-1.2,12.7-2.5,21.4-3.2c-6.9,4.7-15.8,11.5-25.4,21.1
			c-19.7,19.7-29.8,38.9-37,52.9c-6.6,12.8-19.7,38.4-26,72c-1.7,9.2-3.2,21.1-9.4,37.4c-4.7,12.3-10.1,21.9-14,28.2
			C410.3,300.7,403.2,287.8,395.9,275z"/>
	</g>
	<circle fill="none" stroke="#000000" stroke-miterlimit="10" cx="313.1" cy="337.1" r="18.3"/>
	<circle fill="none" stroke="#000000" stroke-miterlimit="10" cx="313.1" cy="337.1" r="11.1"/>
	<path fill="none" stroke="#000000" stroke-miterlimit="10" d="M279.8,319"/>
	<rect x="285.8" y="295.6" fill="#F7931E" stroke="#000000" stroke-miterlimit="10" width="55.7" height="20.2"/>
	<path fill="#F7931E" stroke="#000000" stroke-miterlimit="10" d="M338.5,301.2h-51.3c-4.6,0-8.3-3.7-8.3-8.3l0,0
		c0-4.6,3.7-8.3,8.3-8.3h51.3c4.6,0,8.3,3.7,8.3,8.3l0,0C346.7,297.5,343,301.2,338.5,301.2z"/>
	<path fill="#F7931E" stroke="#000000" stroke-miterlimit="10" d="M271.5,222.9v32.2l22,19.5l19-15.8v-71.8L271.5,222.9z
		 M306.8,247.4l-15.5,13.9l-9.6-8.7v-24.7l25-20v39.6H306.8z"/>
	<path fill="#F7931E" stroke="#000000" stroke-miterlimit="10" d="M313.6,186.8v71.8l19,15.8l22-19.5v-32.1L313.6,186.8z
		 M319.3,207.9l25,20v24.6l-9.6,8.7l-15.4-13.9V207.9z"/>
	<path fill="#F7931E" stroke="#000000" stroke-miterlimit="10" d="M339.2,284.7H288c-4.6,0-8.3-3.7-8.3-8.3l0,0
		c0-4.6,3.7-8.3,8.3-8.3h51.3c4.6,0,8.3,3.7,8.3,8.3l0,0C347.5,281,343.8,284.7,339.2,284.7z"/>
	<path fill="#FBB03B" stroke="#000000" stroke-width="3" stroke-miterlimit="10" d="M313.1,360.2c0,0,39.9,0,41.5,0
		c1.7,0,22.2,0,32.5-5c11.9-5.8,16.2-10.9,25.6-23.8c9.7-13,19.9-38.4,19.9-38.4l-12.9-4.8l-12.9,2V280l-12.6-15.2
		c0,0-10.6,25-15.2,30.5c-4.6,5.5-11.9,10.6-18.6,13.4c-6.6,2.8-10.3,2.3-10.3,2.3h-25h-12.6H300h-25c0,0-3.7,0.5-10.3-2.3
		c-6.4-2.8-14-8-18.6-13.4c-4.6-5.5-14.4-30.3-14.4-30.3l-12.6,15.1v10.1l-12.9-2l-12.9,4.8c0,0,10.3,25.4,19.9,38.4
		c9.4,12.9,13.7,17.9,25.6,23.8c10.3,5,30.7,5,32.5,5C273,360.3,313.1,360.2,313.1,360.2z"/>
</g>
<g>
	<g>
		<path fill="#C4BA98" stroke="#000000" stroke-width="0.5" stroke-miterlimit="10" d="M504.7,249.7v-14.6h11.4v2.6h-8.8v3.9h4.8
			v2.7h-4.8v4.5L504.7,249.7z"/>
		<path fill="#C4BA98" stroke="#000000" stroke-width="0.5" stroke-miterlimit="10" d="M519.1,238.5c0-1.3,0.2-2.2,0.6-2.7
			c0.4-0.5,1.1-0.7,2.2-0.7h8.3c1.1,0,1.8,0.2,2.2,0.7c0.4,0.5,0.6,1.4,0.6,2.7v7.7c0,1.3-0.2,2.2-0.6,2.7c-0.4,0.5-1.1,0.7-2.2,0.7
			h-8.3c-1.1,0-1.8-0.2-2.2-0.7s-0.6-1.4-0.6-2.7V238.5z M521.7,246.9h8.7v-9.3h-8.7V246.9z"/>
		<path fill="#C4BA98" stroke="#000000" stroke-width="0.5" stroke-miterlimit="10" d="M538.5,247.3v-12.3h9.7c0.9,0,1.6,0.2,2,0.7
			c0.4,0.5,0.6,1.2,0.6,2.2v3.4c0,1-0.2,1.7-0.6,2.2c-0.4,0.5-1,0.7-2,0.7h-1.5l5.2,5.5h-3.8l-4.5-5.5h-2.5v2.6L538.5,247.3z
			 M547,237.6h-5.9v4.1h5.9c0.5,0,0.8-0.1,0.9-0.3c0.2-0.2,0.2-0.5,0.2-0.9v-1.8c0-0.4-0.1-0.7-0.2-0.9
			C547.8,237.7,547.5,237.6,547,237.6z"/>
	</g>
	<g>
		<path fill="#C4BA98" stroke="#000000" stroke-width="0.5" stroke-miterlimit="10" d="M484.9,279.1c1-0.1,1.5,0.3,1.5,1.3v1.7h2.8
			c1.2,0,1.4,0.4,0.7,1.2h-3.6c0,1.9,0.1,2.8,0.4,2.8c0.5,0.1,0.9,0.1,1.3-0.2c1.3-0.2,1.8,0.2,1.7,1.3c-0.1,0.9-0.2,2.1-0.2,3.8
			c0.1,1.3-0.5,1.7-1.9,1.3c-1.5-0.5-3.1-0.5-4.7,0c-1,0.6-1.6,0.3-1.7-0.9c-0.1-1.3-0.4-2.6-0.7-4.2c0.1-1,0.8-1.3,2.1-0.9
			c1,0.1,1.5-0.1,1.5-0.7c0-1.4-0.1-2.7-0.2-4C483.7,279.8,484,278.9,484.9,279.1z M483,288.2c-0.1,1.5,0.1,2.3,0.7,2.5
			c2.9,0.4,4.2-0.1,4-1.3c0.2-1.8-0.9-2.5-3.6-2.1C483.4,287.2,483,287.6,483,288.2z M490.6,283.8c0.5,0,0.8-0.1,0.9-0.2
			c-0.1-1.4-0.2-2.7-0.2-4c-0.1-0.9,0.3-1.3,1.3-1.2c0.6,0,0.9,0.3,0.9,0.9c-0.1,1.2-0.1,2.5,0,4c4.2-0.6,6.2-0.6,6.1,0
			c0.2,0.4,0.2,0.6-0.2,0.6c-1.9,0.2-3.8,0.6-5.7,0.9c0.4,1.2,0.7,2.1,1.2,2.8c0.5-0.6,1-1.4,1.5-2.3c0.4-0.4,0.7-0.5,1.2-0.4
			c0.5,0.4,0.7,0.8,0.6,1.3c-0.7,1-1.4,1.8-2.1,2.5c1.4,1.4,3.7,2,6.8,1.9c0.2,0.1-0.1,0.7-1.2,1.9c-1.4,1.4-2.8,1.6-4.4,0.7
			c-0.6-0.5-1.6-1.4-3-2.8c-1.3,0.9-2.6,1.4-4,1.5c-0.6-0.1-0.7-0.4-0.4-0.7c1.3-0.4,2.4-1.2,3.4-2.3c-0.5-0.7-1-2-1.5-3.8
			c-0.6,0.1-1.2,0.3-1.7,0.6c-0.7,0.1-1.1-0.2-0.9-1.2C489.3,284.3,489.7,284,490.6,283.8z M496.7,279.5c0.4-0.9,0.9-1.2,1.5-0.7
			c0.6,0.4,0.8,0.9,0.6,1.5c-0.5,0.7-1.3,1.2-2.5,1.3c-0.5,0-0.7-0.2-0.6-0.6C496.1,280.5,496.4,280,496.7,279.5z"/>
		<path fill="#C4BA98" stroke="#000000" stroke-width="0.5" stroke-miterlimit="10" d="M511.7,283.8c0.6,0,1.1,0.2,1.3,0.6
			c-0.1,0.5-0.6,0.7-1.3,0.6c-0.7,0-1.5,0.1-2.3,0.2c0.2,0.4,0.1,0.7-0.4,1.2l-0.9,0.9c-0.4,0.5-0.1,0.8,0.9,0.9
			c0.7,0.1,1.4-0.1,1.9-0.7l-0.6-1.2c0.1-0.4,0.4-0.5,0.7-0.4c0.4,0.2,0.7,0.5,1.2,0.7c0.2,0.5,0.6,1.1,0.9,1.7
			c-0.1,0.2-0.2,0.4-0.4,0.4c-0.5,0.1-1-0.1-1.5-0.7c-0.7,1.4-1.6,1.9-2.5,1.5c-0.7-0.5-1.4-0.6-2.1-0.2c-0.2,0-0.5-0.2-0.7-0.6
			c-0.1-0.5,0.1-1,0.7-1.5c1.2-1,1.5-1.7,1.2-2.1c-0.5-0.1-1.3,0-2.3,0.4c-0.4,0.2-0.6,0.2-0.7-0.2c0.1-0.9,0.6-1.4,1.3-1.5
			L511.7,283.8L511.7,283.8z M511.7,281.2c0.4,0,0.6,0.2,0.7,0.6c0,0.4-0.1,0.6-0.4,0.6h-3c-0.9,0-1.7,0.1-2.5,0.2
			c-0.2-0.1-0.4-0.4-0.4-0.7c0.1-0.4,0.4-0.7,0.7-0.9C507.8,281,509.4,281.2,511.7,281.2z M516.6,286.5c-0.4-0.1-0.7-0.1-1.2,0
			c-0.4,0.2-0.7,0.5-1.2,0.6c-0.2,0-0.5-0.1-0.6-0.2c-0.2-1.9-0.5-3.6-0.7-5.1c-0.1-0.7,0.2-1.2,1.2-1.2c0.4,0.2,1,0.3,1.9,0.2
			c0.4-0.4,0.8-1,1.3-1.9c0.1-0.2,0.4-0.4,0.7-0.4c1.2,0.4,1.4,0.8,0.9,1.3c-0.4,0.4-0.7,0.7-0.9,0.9c0.9,0,2,0.1,3.4,0.4
			c0.4-0.1,0.7-0.2,0.9-0.4c0.4-0.1,0.7-0.1,0.9,0.2c0.5,0.4,0.6,0.9,0.4,1.7c-0.4,1.2-0.6,2.3-0.7,3.6l-0.6,0.4
			c0.5,0.4,0.6,0.7,0.2,0.9c-0.2,0.2-0.5,0.5-0.7,0.7c-0.2,0.1-0.2,0.3,0.2,0.6c0.5,0.1,0.9,0.1,1.3-0.2c-0.5-0.4-0.6-0.6-0.2-0.7
			c0.5,0,0.9,0.1,1.2,0.2c0.2,0.4,0.5,0.7,0.7,1.2c-0.1,0.1-0.3,0.2-0.6,0.4l-0.7-0.6c-0.2,0.7-0.7,1.1-1.3,0.9
			c-0.5-0.4-1-0.5-1.5-0.4c-0.4-0.2-0.5-0.6-0.4-0.9c0.2-0.2,0.5-0.6,0.7-0.9c0.1-0.2,0.3-0.6,0.6-1.2c-1-0.1-2.2-0.2-3.6-0.2
			c-0.9,2.9-2.6,5-5.1,6.3c-2,0.7-3.5,0.5-4.5-0.9c0-0.1,0.2-0.2,0.7-0.2C513.3,291.2,515.7,289.5,516.6,286.5z M517.2,281.7
			c-0.9,0-1.6,0.1-2.1,0.4c-0.2,0.7-0.1,1.2,0.4,1.2l2.1-0.2C517.7,282.4,517.6,282,517.2,281.7z M517.4,284c-0.6,0-1.4,0.1-2.3,0.2
			c0,0.9,0.2,1.3,0.6,1.3l1.3-0.2L517.4,284z M518.7,287.4c0.1-0.5,0.4-0.7,0.7-0.7c0.2,0,0.5,0.1,0.6,0.4c-0.2,0.5-0.5,1-0.6,1.5
			c0,0.5,0.1,0.9,0.2,1.2c0.5,0.6,1.5,1.1,3,1.3c1.3,0.1,2.5,0,3.6-0.4c0.7-0.4,1.3-0.5,1.5-0.2c-0.1,0.7-0.6,1.7-1.3,2.6
			c-0.9,0.7-1.7,1-2.3,0.7c-2.1-0.4-3.9-1.3-5.3-2.6c-0.6-0.7-0.9-1.4-0.7-2.1C518.4,288.5,518.6,287.9,518.7,287.4z M521.6,285.7
			c0.2-0.5,0.3-0.9,0.2-1.3c-0.5-0.2-1.4-0.4-2.8-0.4c-0.1,0.5-0.2,1-0.2,1.5C519.7,285.7,520.7,285.7,521.6,285.7z M519.1,283.1
			l2.1,0.2c0.5,0.1,0.7-0.1,0.7-0.7c0-0.5-0.7-0.7-2.3-0.7C519.3,281.9,519.1,282.3,519.1,283.1z"/>
		<path fill="#C4BA98" stroke="#000000" stroke-width="0.5" stroke-miterlimit="10" d="M535.8,282.9c0.2-0.5,0.5-0.7,0.6-0.7
			c0.6-0.1,0.8,0.3,0.6,1.3c-0.4,1.2-0.9,2.3-1.7,3.6c-0.6,1-1.3,1.8-1.9,2.3c-1.3,1.2-2.6,1.1-4-0.2c-0.4-0.4-0.2-0.7,0.4-1.2
			C531.9,287,533.9,285.3,535.8,282.9z M540.1,279.1c1.3-0.1,1.8,0.6,1.7,2.1c-0.1,3.2-0.1,6.7,0.2,10.6c0,1.5-1.2,2.2-3.6,2.1
			c-1.3-0.1-2.7-0.8-4.4-2.1c-0.2-0.6-0.1-0.9,0.4-0.9c2.4,0.7,3.9,0.9,4.4,0.4c0.4-0.2,0.5-3.8,0.4-10.6
			C539.2,279.6,539.5,279.1,540.1,279.1z M543.2,283.4c-0.4-0.5-0.3-0.9,0.2-1.2c0.2-0.1,0.5-0.1,0.7,0.2c1.8,2.3,4.4,4.2,8,5.9
			c-0.4,0.6-0.7,1.1-1.2,1.3c-1.2,1-2.2,1-3.2,0C546.1,287.7,544.6,285.6,543.2,283.4z"/>
		<path fill="#C4BA98" stroke="#000000" stroke-width="0.5" stroke-miterlimit="10" d="M562,286.1c-0.4,1.3-0.7,2.2-1.2,2.8l2.5-0.4
			c-0.1-0.5-0.2-1-0.2-1.5c0.1-0.5,0.6-0.8,1.3-0.9c0.5,0,0.9,0.1,1.3,0.4c0.5,0.1,0.9,0.1,1.2,0v-6.3c0-0.7,0.2-1.2,0.7-1.3
			c1.3,0,1.9,0.5,1.9,1.3c-0.1,0.6-0.2,1.2-0.2,1.5c2.6,0.1,4.9,0.2,6.6,0.2c0,0.6-0.2,1.2-0.6,1.7c-0.5,0.5-1,0.6-1.5,0.4
			c-2-0.6-3.5-0.8-4.5-0.6c-0.2,1-0.2,2,0,3c0.9,0.1,1.6,0.1,2.1-0.2c1.6-0.5,2.5-0.1,2.5,1.3c-0.2,1-0.4,2.3-0.4,3.8
			c0.2,1.6-0.3,2.2-1.7,1.7c-1.8-0.2-3.7-0.3-5.7-0.2c-1.5,0.7-2.3,0.3-2.5-1.3c0-0.4-0.1-1.1-0.2-2.1c-2.5,1.2-5.5,2-8.9,2.6
			c-1.2,0.2-1.7-0.2-1.5-1.3c0-0.6,0.6-1,1.9-1.2c1.4-0.1,3-0.3,4.7-0.6c0.4-1.4,0.6-2.7,0.6-4c0-0.9,0.2-1.3,0.7-1.3
			C562,284,562.4,284.7,562,286.1z M560.5,280.2c-0.1,1.5,0,2.2,0.4,2.1l2.6,0.2c0.6,0.5,0.7,0.9,0.2,1.2c-0.2,0.1-0.7,0.2-1.3,0.2
			c-2.5-0.5-5.1-0.3-7.8,0.6c-0.5,0.1-0.7-0.1-0.7-0.6c0.2-1.2,0.7-1.6,1.5-1.5c1,0.2,1.8,0.3,2.3,0.2c0.4-0.1,0.5-0.9,0.4-2.3
			c0.1-0.5,0.4-0.7,0.7-0.7C559.5,279.3,560.1,279.6,560.5,280.2z M558.6,288.6c-0.2,0.4-0.6,0.5-0.9,0.2c-0.7-1.2-1.2-2.1-1.3-3
			c-0.1-0.9,0.2-1.4,0.9-1.5c0.6-0.1,0.9,0.1,0.9,0.7C558.3,286.2,558.4,287.4,558.6,288.6z M569.2,287.8c-1.8-0.1-2.9,0-3.4,0.4
			c-0.4,0.9-0.4,1.8,0,2.6c0.1,0.6,1.5,0.8,4.2,0.6c1.2,0,1.7-0.6,1.7-1.9C571.6,288.3,570.8,287.7,569.2,287.8z"/>
	</g>
	
		<linearGradient id="SVGID_1_" gradientUnits="userSpaceOnUse" x1="428.5787" y1="621.7737" x2="428.5787" y2="621.7737" gradientTransform="matrix(1.0929 0 0 -1.0929 0 955.5428)">
		<stop  offset="0" style="stop-color:#C4BA98"/>
		<stop  offset="1.474962e-002" style="stop-color:#CEC5A9"/>
		<stop  offset="4.332456e-002" style="stop-color:#DDD7C4"/>
		<stop  offset="7.615717e-002" style="stop-color:#EAE6DA"/>
		<stop  offset="0.1145" style="stop-color:#F3F1EB"/>
		<stop  offset="0.162" style="stop-color:#FAF9F6"/>
		<stop  offset="0.2285" style="stop-color:#FEFEFD"/>
		<stop  offset="0.4133" style="stop-color:#FFFFFF"/>
		<stop  offset="0.4696" style="stop-color:#DDDBD8"/>
		<stop  offset="0.5499" style="stop-color:#B2AFA6"/>
		<stop  offset="0.6258" style="stop-color:#908B7F"/>
		<stop  offset="0.6952" style="stop-color:#787263"/>
		<stop  offset="0.7558" style="stop-color:#696252"/>
		<stop  offset="0.801" style="stop-color:#645D4C"/>
		<stop  offset="0.8499" style="stop-color:#776F5B"/>
		<stop  offset="0.9484" style="stop-color:#A89F82"/>
		<stop  offset="1" style="stop-color:#C4BA98"/>
	</linearGradient>
	
		<linearGradient id="SVGID_2_" gradientUnits="userSpaceOnUse" x1="428.5787" y1="621.7737" x2="428.5787" y2="621.7737" gradientTransform="matrix(1.0929 0 0 -1.0929 0 955.5428)">
		<stop  offset="0" style="stop-color:#C4BA98"/>
		<stop  offset="1.389108e-002" style="stop-color:#C7BD9D"/>
		<stop  offset="0.1655" style="stop-color:#E5E1D2"/>
		<stop  offset="0.2794" style="stop-color:#F8F7F3"/>
		<stop  offset="0.3418" style="stop-color:#FFFFFF"/>
		<stop  offset="0.4046" style="stop-color:#E1E0DC"/>
		<stop  offset="0.5083" style="stop-color:#B5B1A9"/>
		<stop  offset="0.6058" style="stop-color:#928D81"/>
		<stop  offset="0.6943" style="stop-color:#797364"/>
		<stop  offset="0.7708" style="stop-color:#696352"/>
		<stop  offset="0.8265" style="stop-color:#645D4C"/>
		<stop  offset="0.8691" style="stop-color:#776F5B"/>
		<stop  offset="0.955" style="stop-color:#A89F82"/>
		<stop  offset="1" style="stop-color:#C4BA98"/>
	</linearGradient>
	<path fill="url(#SVGID_1_)" stroke="url(#SVGID_2_)" stroke-width="0.5" stroke-miterlimit="10" d="M468.4,276"/>
	
		<linearGradient id="SVGID_3_" gradientUnits="userSpaceOnUse" x1="438.7655" y1="629.4874" x2="438.7655" y2="629.4874" gradientTransform="matrix(1.0929 0 0 -1.0929 0 955.5428)">
		<stop  offset="0" style="stop-color:#C4BA98"/>
		<stop  offset="1.474962e-002" style="stop-color:#CEC5A9"/>
		<stop  offset="4.332456e-002" style="stop-color:#DDD7C4"/>
		<stop  offset="7.615717e-002" style="stop-color:#EAE6DA"/>
		<stop  offset="0.1145" style="stop-color:#F3F1EB"/>
		<stop  offset="0.162" style="stop-color:#FAF9F6"/>
		<stop  offset="0.2285" style="stop-color:#FEFEFD"/>
		<stop  offset="0.4133" style="stop-color:#FFFFFF"/>
		<stop  offset="0.4696" style="stop-color:#DDDBD8"/>
		<stop  offset="0.5499" style="stop-color:#B2AFA6"/>
		<stop  offset="0.6258" style="stop-color:#908B7F"/>
		<stop  offset="0.6952" style="stop-color:#787263"/>
		<stop  offset="0.7558" style="stop-color:#696252"/>
		<stop  offset="0.801" style="stop-color:#645D4C"/>
		<stop  offset="0.8499" style="stop-color:#776F5B"/>
		<stop  offset="0.9484" style="stop-color:#A89F82"/>
		<stop  offset="1" style="stop-color:#C4BA98"/>
	</linearGradient>
	
		<linearGradient id="SVGID_4_" gradientUnits="userSpaceOnUse" x1="438.7655" y1="629.4874" x2="438.7655" y2="629.4874" gradientTransform="matrix(1.0929 0 0 -1.0929 0 955.5428)">
		<stop  offset="0" style="stop-color:#C4BA98"/>
		<stop  offset="1.389108e-002" style="stop-color:#C7BD9D"/>
		<stop  offset="0.1655" style="stop-color:#E5E1D2"/>
		<stop  offset="0.2794" style="stop-color:#F8F7F3"/>
		<stop  offset="0.3418" style="stop-color:#FFFFFF"/>
		<stop  offset="0.4046" style="stop-color:#E1E0DC"/>
		<stop  offset="0.5083" style="stop-color:#B5B1A9"/>
		<stop  offset="0.6058" style="stop-color:#928D81"/>
		<stop  offset="0.6943" style="stop-color:#797364"/>
		<stop  offset="0.7708" style="stop-color:#696352"/>
		<stop  offset="0.8265" style="stop-color:#645D4C"/>
		<stop  offset="0.8691" style="stop-color:#776F5B"/>
		<stop  offset="0.955" style="stop-color:#A89F82"/>
		<stop  offset="1" style="stop-color:#C4BA98"/>
	</linearGradient>
	<path fill="url(#SVGID_3_)" stroke="url(#SVGID_4_)" stroke-width="0.5" stroke-miterlimit="10" d="M479.5,267.6"/>
	<g>
		<g>
			<path fill="#C4BA98" stroke="#000000" stroke-width="0.5" stroke-miterlimit="10" d="M474.6,257.4h-7.3v5.7h4v4h-4v7l-2.2,1
				v-21.5h9.5V257.4"/>
			<path fill="#C4BA98" stroke="#000000" stroke-width="0.5" stroke-miterlimit="10" d="M477.3,271.4v-1.1v-16.7h8
				c0.7,0,1.3,0.3,1.6,1c0.3,0.7,0.5,1.7,0.5,3.2v5.1c0,1.5-0.2,2.5-0.5,3.2c-0.3,0.7-0.9,1-1.6,1h-1.2l4.3,8.2h-3.1l-3.8-8.2h-2.1
				v2.7v1.2L477.3,271.4z M484.4,257.4h-4.9v6h4.9c0.4,0,0.6-0.1,0.8-0.4c0.1-0.2,0.2-0.7,0.2-1.3v-2.6c0-0.6-0.1-1.1-0.2-1.3
				C485,257.5,484.7,257.4,484.4,257.4z"/>
			<path fill="#C4BA98" stroke="#000000" stroke-width="0.5" stroke-miterlimit="10" d="M491.9,275.3v-21.7h2.2v21.7H491.9z"/>
			<path fill="#C4BA98" stroke="#000000" stroke-width="0.5" stroke-miterlimit="10" d="M498.8,275.3v-21.7h9.6v3.7H501v4.9h4.3v3.7
				H501v5.4h7.5v4.1L498.8,275.3L498.8,275.3z"/>
			<path fill="#C4BA98" stroke="#000000" stroke-width="0.5" stroke-miterlimit="10" d="M512.6,275.3v-21.7h1.5l6.6,12.8
				c0.2,0.4,0.4,0.8,0.6,1.2c0.2,0.4,0.3,0.8,0.5,1.2c0-1.2-0.1-2.1-0.1-2.6c0-0.5,0-0.9,0-1.2v-11.4h2v21.7h-1.5l-6.9-13.4
				c-0.2-0.3-0.3-0.6-0.4-0.9c-0.1-0.3-0.2-0.6-0.3-0.8c0,0.7,0.1,1.3,0.1,1.9c0,0.6,0,1.1,0,1.6v11.7H512.6L512.6,275.3z"/>
			<path fill="#C4BA98" stroke="#000000" stroke-width="0.5" stroke-miterlimit="10" d="M528.4,275.3v-21.7h6c1.7,0,3.1,0.9,4,2.8
				c0.9,1.9,1.4,4.5,1.4,7.9c0,2-0.2,3.9-0.5,5.5c-0.3,1.6-0.9,2.9-1.5,3.8c-0.4,0.6-0.9,1-1.5,1.3c-0.6,0.3-1.4,0.4-2.3,0.4
				L528.4,275.3L528.4,275.3z M530.5,271.2h2.8c1.5,0,2.6-0.5,3.2-1.6c0.6-1.1,0.9-2.9,0.9-5.4c0-2.2-0.3-3.9-0.8-5
				c-0.5-1.2-1.3-1.7-2.3-1.7h-3.9L530.5,271.2L530.5,271.2z"/>
			<path fill="#C4BA98" stroke="#000000" stroke-width="0.5" stroke-miterlimit="10" d="M551.9,257.4h-6.2v4.7h5.9
				c0.9,0,1.5,0.4,1.8,1.1c0.3,0.7,0.5,2.1,0.5,4v3c0,2-0.2,3.3-0.5,4c-0.3,0.7-0.9,1.1-1.8,1.1h-5.8c-0.9,0-1.5-0.4-1.8-1.1
				c-0.3-0.7-0.5-2.1-0.5-4v-0.6l1.9-0.9v2.6h6.6v-5h-5.9c-0.9,0-1.5-0.4-1.8-1.1c-0.3-0.7-0.5-2.1-0.5-4v-2.4c0-2,0.2-3.3,0.5-4
				c0.3-0.7,0.9-1.1,1.8-1.1h5.3c0.9,0,1.5,0.3,1.8,1c0.3,0.7,0.5,1.9,0.5,3.7v0.5l-1.9,1V257.4L551.9,257.4z"/>
			<path fill="#C4BA98" stroke="#000000" stroke-width="0.5" stroke-miterlimit="10" d="M567.5,272.1V266h-6.8v8.6l-2.2,0.8v-21.7
				h2.2v8.4h6.8v-8.4h2.2v17.7L567.5,272.1z"/>
			<path fill="#C4BA98" stroke="#000000" stroke-width="0.5" stroke-miterlimit="10" d="M574.5,275.3v-21.7h2.2v21.7H574.5z"/>
			<path fill="#C4BA98" stroke="#000000" stroke-width="0.5" stroke-miterlimit="10" d="M581.4,275.3v-21.7h8c0.7,0,1.3,0.3,1.6,1
				c0.3,0.7,0.5,1.7,0.5,3.2v4.8c0,1.5-0.2,2.5-0.5,3.2c-0.3,0.7-0.9,1-1.6,1h-5.9v7.5L581.4,275.3z M588.5,257.4h-4.9v5.8h4.9
				c0.4,0,0.6-0.1,0.8-0.4c0.1-0.2,0.2-0.7,0.2-1.3v-2.3c0-0.6-0.1-1.1-0.2-1.3C589.1,257.5,588.9,257.4,588.5,257.4z"/>
		</g>
	</g>
</g>
</svg>
