<?xml version="1.0" encoding="utf-8"?>
<!-- Generator: Adobe Illustrator 18.1.1, SVG Export Plug-In . SVG Version: 6.00 Build 0)  -->
<svg version="1.1" id="图层_1" xmlns="http://www.w3.org/2000/svg" xmlns:xlink="http://www.w3.org/1999/xlink" x="0px" y="0px"
	 viewBox="0 0 612 792" enable-background="new 0 0 612 792" xml:space="preserve">
<g id="图层_2" display="none">
	<line display="inline" fill="none" stroke="#000000" stroke-miterlimit="10" x1="310.2" y1="165.2" x2="310.2" y2="740.3"/>
</g>
<g id="盾牌">
	<circle fill="#4D4D4D" stroke="#000000" stroke-miterlimit="10" cx="299.1" cy="396.3" r="268.3"/>
	<circle fill="#A67C52" stroke="#000000" stroke-miterlimit="10" cx="299.1" cy="396.3" r="232.5"/>
	<g>
		<g>
			<g>
				<path fill="#4D4D4D" d="M349.3,402c0,4.3-0.4,8.6,0.1,12.8c1.3,9.1-2.3,16.8-6.7,24.3c-1.7,2.8-5,4.6-7.2,7.3
					c-5.4,6.1-13,5.1-19.9,5.8c-13.1,1.2-26.4,1.1-39.7,1.5c-1.3,0.1-3-0.8-4.2,1.1c-0.3,0.4-2.5,0.2-3.7-0.2
					c-7.2-2.3-13-6.3-17.5-12.5c-3.1-4.2-3.8-8.5-3.9-13.1c-0.7-12.7-1.3-25.5-2.1-38.1c-0.2-3.2-0.9-6.1-1.1-9.3
					c-0.5-7.8,0-15.3,4.7-21.7c1.7-2.4,4.5-4,7-5.8c5.8-3.9,12.5-4.2,19.2-4.6c18.3-1.4,36.6-0.9,54.6,1.2c0.8,0.1,1.5,0.2,2.2,0.5
					c8.1,4.2,14,10.2,15.3,19.2c1.3,10.5,2.1,21.1,3,31.8C349.5,401.9,349.4,402,349.3,402z M273.7,400.2
					c-0.1,12.7,6.3,21.5,16.1,23.8c16.6,3.9,31.3-9.7,28.5-26.6c-1.5-9.3-11.6-17.9-21.2-18.7c-8.2-0.7-15.1,1.5-19.8,8.5
					C274.3,391.7,273.7,396.9,273.7,400.2z"/>
				<path fill="#4D4D4D" d="M117.9,404.9c31.7-0.3,61.7,6.7,89.5,21.6c14.8,7.9,27.9,17.9,39,30.3c8.4,9.3,17,18.5,23.6,29.2
					c0.3,0.5,0,2-0.4,2.4c-7.8,5.4-16.5,7.3-25.8,6.9c-0.8,0-2-0.4-2.2-1.1c-2.1-5.9-6.3-10.4-10.7-14.1
					c-13-11.6-26.6-22.5-41.4-31.7c-14.6-9-30.6-13.7-47.8-14.4c-4.5-0.2-4.4-0.2-4.3,4.2c0.2,6.3,1.9,12.5,4.9,18
					c4.2,7.3,8.7,14.3,13,21.5c0.5,1,0.9,2.1,1.1,3.3c2.2,11.3,4.2,22.4,6.1,33.7c0.2,0.9,0,1.9-0.1,2.6c-0.9-0.3-2-0.3-2.6-0.8
					c-6.3-4.7-13-9.6-19.2-14.6c-20.5-16.8-36.1-37.5-47.2-61.1c-4.3-9-6.2-19-9.3-28.7c-0.3-1-0.9-1.9-0.7-2.7
					c0.1-0.9,1-2.2,1.5-2.2c10.9-1.1,21.9-2.1,32.8-3.2C117.9,404.3,117.9,404.5,117.9,404.9z"/>
				<path fill="#4D4D4D" d="M289.5,225.2c1.3,20.5-1.6,40.4-8.4,60c-11.6,33.3-30.2,62-59.2,83.4c-4.6,3.4-9.4,6.4-14.1,9.6
					c-1.6,1.1-2.8,1.1-3.2-1.4c-1.1-7.1-2.4-14.2-3.7-21.3c-0.4-2.1,0.4-3.5,2.1-4.8c13.8-11.9,26.4-24.7,37.3-39.1
					c12.1-16.1,19.2-33.9,22.8-53.3c0.4-2.3,1.1-4.5,1.3-6.8c0.4-3.9-1.3-5.4-4.9-4c-11.1,4.2-22.5,7.5-32.9,13
					c-8.2,4.4-16.9,4.6-25.6,6.4c-7.2,1.5-14.4,3-21.5,4.3c-1.1,0.2-2.2,0.5-3.2,0.7c-0.5,0-1.1-0.3-1.6-0.7
					c0.3-0.5,0.4-1.4,0.8-1.5c4.7-1.4,6.1-5.8,8.7-9.2c17.3-22.5,38.1-41.1,64.8-52.2c11.9-4.9,24.5-8.1,36.7-12.1
					c2-0.7,2.8-0.3,2.8,1.9C288.8,206.9,289.3,216,289.5,225.2z"/>
				<path fill="#4D4D4D" d="M302.3,585.1c-2-20.4,0.1-40.3,5.6-60.1c5.1-18.5,14.5-35.1,26.3-50.3c8.4-10.9,17-21.5,28.3-29.7
					c5.4-3.9,11.5-6.9,17.2-10.4c1.1-0.7,2-1.7,3-2.5c0.4-0.3,1-0.7,1.3-0.5c1,0.3,2.2,0.9,2.8,1.6c1.2,1.5,2.1,3.3,3,4.9
					c2,3.7,3.8,7.4,5.5,11.1c0.3,0.7-0.4,2.4-1.2,2.7c-16.7,9.5-29.1,23.2-39.9,38.5c-13.4,19.1-22.7,39.9-26.4,63.1
					c-0.8,4.7-1,4.6,4,3.9c12.6-2,24.7-5.4,35.2-12.6c3.6-2.5,6.9-2.6,10.7-2.8c10.1-0.4,20-1.4,29.9-2c1.3-0.1,2.5,0.7,3.8,1
					c-0.4,1-0.8,2.1-1.4,3c-13,16.7-29.6,29.5-47.6,40.5c-17.3,10.5-34.6,20.8-54,27.3c-5.8,2-5.8,2.1-5.8-3.8
					C302.3,600.4,302.3,592.7,302.3,585.1z"/>
				<path fill="#4D4D4D" d="M485.1,396.4c-24.4,0-48.7-1.1-71.5-10.1c-36.4-14.5-67.2-36.4-88.8-69.4c-1-1.5-2-3-2.8-4.5
					c-0.2-0.3,0.2-1,0.3-1.4c0.4,0.1,1,0.2,1.3,0.3c1.1,0.2,2.2,0.7,3.1,0.4c6-1.1,12-2.2,18-3.3c0.4-0.1,1-0.1,1.3-0.3
					c2.8-2.5,3.8-0.3,5.2,1.7c15.3,21.5,36.1,36.6,60,47.9c13.1,6.2,26.9,10.6,41.4,12.8c2.3,0.3,2.8-0.2,2.6-2.3
					c-1.6-12-4.5-23.7-13-32.9c-3.5-3.8-3.6-7.3-3.9-11.5c-1.1-10.1-2.2-20-3.5-29.8c-0.2-1.6-0.9-3.3-1.1-4.8
					c0-0.3,1.1-1.1,1.3-1.1c1.2,0.4,2.2,1.2,3.3,1.9c14.8,10.1,26.6,23.1,36.7,37.5c9.7,13.8,19,27.9,26,43.2
					c3.2,6.9,5.7,14.1,5.8,22c0,2.5-1,2.5-2.6,2.6C497.9,395.9,491.5,396.2,485.1,396.4z"/>
				<path fill="#4D4D4D" d="M217.7,270.9c8,0.3,15.7,0.7,23.7,0.9c2.8,0.1,3,1.1,2.2,3.3c-3,7.2-5.5,14.5-8.3,21.6
					c-0.4,1-1.5,2.1-2.4,2.2c-4.4,0.4-8.9,0.3-13.1,1c-7.4,1.1-15.1,1.7-22.3,3.7c-25,6.9-45.1,20.9-58.1,43.3
					c-3.1,5.2-4.8,11.4-7.1,17c-0.8,2-0.4,3.7,2.5,3.7c7.5,0.1,15.1,0.4,22.7,0.4c3,0,4,0.8,4.2,3.6c0.4,6.9,1.3,13.9,1.6,20.9
					c0.1,1.2,0,3.3-2.6,1.9c-1-0.5-2.5-0.4-3.7-0.3c-23.2,0.8-46.3,1.6-69.6,2.5c-0.5,0-1.1,0-1.6,0c-7.7-0.4-6.6,1.1-5.6-7
					c0.5-4.5,2.2-9.1,4.2-13.1c9-17.4,18.1-34.6,30.6-50.1c13.9-17.3,29.9-32.5,49.4-43.8c11.9-6.8,24.9-10.3,38.6-11.1
					c4.8-0.3,9.8-0.1,14.8-0.1C217.7,271.1,217.7,271,217.7,270.9z"/>
				<path fill="#4D4D4D" d="M289.3,545.6c-0.4,16.6-1,33.1-1.2,49.6c-0.1,5.5,0.4,11.1,0.7,16.7c0,1.1-0.1,2.1-0.4,3.2
					c-0.1,0.3-1.1,0.7-1.4,0.5c-10.6-4.4-21.5-8.1-31.5-13.4c-19-10.3-37.5-21.1-52.8-36.5c-16.4-16.4-29.4-35.2-36-57.6
					c-3.6-12.3-4.2-24.9-4.4-37.6c-0.1-6.1-0.1-12.5-0.2-18.6c-0.1-3,1.5-2.3,3.1-1.5c4,1.9,8,3.9,12.1,5.8c4,2,8,4.2,12,6
					c1.6,0.8,2.1,1.3,2,3.5c-0.4,4.6,0.1,9.2,0.4,13.8c0.7,8.2,2.1,16.4,4.6,24.3c4.2,11.9,10.6,22.4,19.6,31.4
					c10.9,10.8,22.3,20.8,36.8,26.9c7.1,3.2,7,3.2,7.2-4.5c0.1-4.6,0.4-9.2,0.7-13.8c0-0.7,0.3-1.4,0-1.9c-1.3-2.2,0.3-2.4,1.9-3
					c7.4-2.7,14.9-5.6,22.3-8.4c0.4-0.2,0.8-0.3,1.2-0.4c3.8-1.9,3.8-1.9,3.8,2.5c0,4.4,0,8.9,0,13.1
					C289.5,545.6,289.3,545.6,289.3,545.6z"/>
				<path fill="#4D4D4D" d="M303.2,216.4c0-8.1-0.1-16.1,0-24.2c0.1-4.9,0.4-5.1,5.4-4.6c2,0.2,3.8,0.7,5.6,1.2
					c23.3,7.1,45.1,16.9,62.7,34c12.8,12.5,25,25.2,35.1,39.9c8.5,12.5,12.5,26.7,14.8,41.1c1.5,9.7,2.2,19.7,2.5,29.3
					c0.1,5.4-1.3,11-2.3,16.4c-0.1,0.3-1.5,1.1-2.1,0.8c-7.5-3.9-15.1-7.8-22.6-11.8c-0.4-0.3-0.8-1.4-0.7-2.1
					c2.1-18.3-1.3-35.6-10.1-51.9c-5.1-9.6-9.7-19.5-17.5-27.4c-10.8-11.1-24.4-17-39.7-19.2c-1.3-0.2-2.4-0.2-2.5,1.9
					c-0.3,6-0.8,11.9-1.2,17.9c0,0.3-0.2,1,0,1.2c2.3,3.9-1.3,4.2-3.5,5.2c-5.8,3-11.7,5.6-17.4,8.6c-3.5,1.9-4.4,1.4-4.7-2.5
					c-0.5-5.4-1.1-10.6-1.3-16c-0.8-12.6-1.3-25.4-2.1-37.9C302.2,216.4,302.7,216.4,303.2,216.4z"/>
				<path fill="#4D4D4D" d="M374.7,534.1c-7.9,0-15.6,0-23.4,0c-3,0-3.3-0.8-2.1-3.3c3.7-7,7.2-14,10.8-21c0.2-0.4,0.5-1.1,1-1.1
					c3.4-0.5,6.7-1.1,10.1-1.5c0.7-0.1,1.5,0.3,2.2,0.1c14.9-4.4,30.2-7.5,44-15.1c15-8.2,28.4-18.3,37.9-32.6
					c3.6-5.4,6.4-10.8,7.5-17.2c0.4-2.5-0.1-3.6-3-3.9c-7.3-0.8-14.6-1.9-21.9-2.8c-1.5-0.2-2.2-0.8-2.4-2.5
					c-0.8-7.2-2.2-14.2-5.5-20.8c-0.3-0.7-0.2-1.5-0.3-2.3c0.5,0.2,1.3,0.5,1.9,0.7c1.1,0.2,2.2,0.4,3.1,0.3
					c7.6-0.7,15.3-1.7,22.9-1.9c16.6-0.4,33.3-0.4,50.1-0.8c0.9,0,1.7,0.1,2.6-0.1c0.8-0.2,1.5-0.5,2.3-0.9c-0.1,1.1,0,2.1-0.3,3.1
					c-7.4,27.8-20.8,52.5-40.1,73.9c-10.4,11.4-21.7,21.1-34.2,30.3c-11.4,8.2-24.4,12.3-37.6,16.1
					C392,533.5,383.6,535.2,374.7,534.1z"/>
				<path fill="#4D4D4D" d="M160.9,347.3c0.5-5.1,1.3-10.4,1.7-15.5c0.1-0.9-0.4-1.9-0.5-2.6c0-0.7,0.2-1.7,0.5-1.9
					c9.5-5,19-10.1,28.5-14.9c1.1-0.5,2.8,0.2,4.2,0.3c-0.2,1.1-0.3,2.2-0.7,3.2c-5.9,17.3-8.3,34.6-1.5,52.2
					c2.8,7.3,7.2,13.3,13.9,17.5c8.1,5,16.5,9.7,24.7,14.4c1.4,0.9,2.1,1.4,0.8,2.7c-0.9,1-1.6,2-2.6,2.7c-4.5,3.3-9.2,6.4-13.7,9.8
					c-1.1,0.8-1.6,2.2-2.7,2.7c-1.2,0.7-3.1,1.2-3.9,0.8c-25.5-14.8-43.9-34.8-48.2-64.6C161,351.7,161,349.6,160.9,347.3
					C161,347.4,161,347.3,160.9,347.3z"/>
				<path fill="#4D4D4D" d="M230.5,532.7c-1.9-0.2-5.5-0.5-9-1.2c-0.9-0.1-1.9-0.9-2.3-1.5c-6.3-8.2-11-17.2-11.6-27.8
					c-0.1-1-0.2-2,0.2-2.8c0.1-0.3,1.5-0.7,1.9-0.4c3.7,2.7,7.4,5,12.2,5.6c12.3,1.6,24.7,2.1,36.7-2.2c7.5-2.6,14.3-6.6,19.9-12.5
					c3.8-4.2,7.6-8.2,11.3-12.5c2.5-3.1,4.5-6.3,4.7-10.4c0.1-0.7,0.9-1.3,1.3-2c0.4,0.4,0.9,1.1,1.3,1.5c0.3,0.3,0.5,0.9,0.9,1.3
					c4.3,5.6,8.7,11.1,13,16.8c3.3,4.2,3.2,4.3,0.3,9c-5.8,9.6-14.1,16.8-23.7,22.5C270.4,526.5,251.9,531.6,230.5,532.7z"/>
				<path fill="#4D4D4D" d="M386,298.4c-0.4,0.3-0.8,0.8-1.2,0.8c-0.4,0-1-0.3-1.4-0.5c-6-3.8-12.6-4.5-19.7-4.8
					c-20.4-1-37.3,6.6-51.9,19.9c-6.7,6.1-10.8,14.1-14.8,22.3c-1.9,3.8-3.3,4-5.4,0.4c-3.5-6-6.3-12.3-9.5-18.5
					c-0.4-0.7-0.5-1.7-0.3-2.4c1.6-3.8,3.2-7.5,5.2-11.1c7.9-13,19.9-21.3,33.2-28.2c9.8-4.9,20.5-7.3,31.5-7.4
					c4.6,0,9.2,1.7,13.8,2.5c4.2,0.7,6.6,3.1,8.4,6.6c3.5,6.6,7.3,12.9,11.1,19.5C385.6,297.6,385.7,297.9,386,298.4z"/>
				<path fill="#4D4D4D" d="M428.2,457.1c-0.5,5.2-1.2,10.6-1.9,15.8c-0.3,2.4-1.3,4.2-3.8,5.2c-7.2,3.4-14.2,7-21.4,10.5
					c-0.9,0.3-2,0.2-3,0.3c0.4-0.8,0.9-1.4,1.2-2.2c1.2-3.2,3-6.1,3.4-9.4c1.7-11.7,2.1-23.3-0.5-35c-1.3-6-4-11.6-8-16.2
					c-6.7-8-13.3-15.8-23.8-19.6c-2.2-0.8-4.3-1.2-6.3-1.9c-3-0.9-3.4-2.2-1.2-4.3c6-6.1,12.9-11.3,20.8-15c1.4-0.7,3-1.5,4,0.7
					c0.2,0.3,0.7,0.4,1.1,0.7c7.7,3.9,13,10.2,18.9,16c13.6,13.4,19.7,29.8,20.2,48.4c0.1,1.9,0,3.8,0,5.6
					C427.7,457.1,428,457.1,428.2,457.1z"/>
			</g>
		</g>
	</g>
	<g>
		<path fill="#666666" stroke="#000000" stroke-miterlimit="10" d="M294.2,330.6c9.9-16,11.9-29,11.9-37.7
			c-0.1-21.5-12-31.4-14.5-56.1c-1.6-15.3,1.2-28.3,3.8-36.7c-1.1,7.1-0.9,18.9,1.6,32c1.5,8.2,8.2,16.6,14.1,29.9
			c3.6,8,3.5,7.1,4.7,11.8c0.7,2.4,1,3.6,3.3,11.6c4.6,17.2-4.8,41.7-6.4,45.8c-1.1,3.1-2.3,5.5-3.1,7.2
			C304.4,335.9,299.3,333.3,294.2,330.6z"/>
		<path fill="#666666" stroke="#000000" stroke-miterlimit="10" d="M277.4,334.1c5.5-17.9,4-30.9,1.7-39.6
			c-5.7-20.8-19.7-27.2-28.6-50.4c-5.5-14.4-6.1-27.6-5.8-36.4c0.8,7.2,4.2,18.5,9.8,30.5c3.6,7.5,12.2,14,21.3,25.4
			c5.5,6.8,5.1,6,7.6,10.2c1.3,2.1,2,3.3,6,10.4c9,15.4,6,41.6,5.7,45.9c-0.3,3.3-0.8,5.8-1.1,7.8
			C288.6,336.5,283,335.3,277.4,334.1z"/>
		<path fill="#666666" stroke="#000000" stroke-miterlimit="10" d="M262,341.9c0.7-18.8-4.2-30.9-8.6-38.6
			c-10.9-18.6-26-21.1-40.7-41.3c-9.1-12.5-13-25.1-15.1-33.7c2.6,6.7,8.7,16.7,17.4,26.9c5.4,6.3,15.4,10.4,27.2,19
			c7,5,6.4,4.5,10.1,7.8c1.7,1.7,2.7,2.6,8.5,8.4c12.6,12.5,16.6,38.6,17.4,42.9c0.5,3.2,0.8,5.8,1,7.8
			C273.5,341.4,267.8,341.7,262,341.9z"/>
		<path fill="#666666" stroke="#000000" stroke-miterlimit="10" d="M249.2,353.3c-4.2-18.4-12-28.9-18.4-35.1
			c-15.3-15.1-30.6-13.7-49.9-29.3c-12-9.7-19.2-20.8-23.3-28.6c4.2,5.8,12.7,13.9,23.7,21.4c6.8,4.7,17.6,6,31.1,11.3
			c8.1,3.2,7.4,2.7,11.7,4.9c2.2,1.2,3.3,1.9,10.5,5.9c15.5,8.9,26.1,33,28,37c1.3,3,2.3,5.4,3,7.2
			C260.1,349.9,254.6,351.5,249.2,353.3z"/>
		<path fill="#666666" stroke="#000000" stroke-miterlimit="10" d="M239.8,367.7c-8.9-16.6-19.1-24.8-26.8-29.1
			c-18.7-10.7-33.1-5.2-55.8-15.4c-14.1-6.2-23.9-15.2-29.8-21.5c5.6,4.5,15.8,10.2,28.5,14.5c7.9,2.8,18.6,1.3,33,2.8
			c8.6,0.9,7.9,0.7,12.5,1.7c2.4,0.5,3.6,0.9,11.7,3.1c17.3,4.5,33.8,25.1,36.6,28.5c2.1,2.5,3.6,4.6,4.7,6.2
			C249.5,361.5,244.6,364.6,239.8,367.7z"/>
		<path fill="#666666" stroke="#000000" stroke-miterlimit="10" d="M234.3,384c-12.8-13.7-24.8-19-33.4-21.2
			c-20.8-5.5-33.3,3.5-57.9-0.4c-15.2-2.4-27-8.5-34.4-13.1c6.6,3,18,5.7,31.3,6.7c8.3,0.7,18.3-3.6,32.7-5.8
			c8.6-1.4,7.8-1.4,12.6-1.5c2.5-0.1,3.7,0,12-0.1c17.8-0.1,39.1,15.5,42.6,18.1c2.6,1.9,4.7,3.6,6.1,4.8
			C242.1,375.6,238.2,379.8,234.3,384z"/>
		<path fill="#666666" stroke="#000000" stroke-miterlimit="10" d="M233.4,401.1c-16-9.9-29-11.9-37.7-11.9
			c-21.5,0.1-31.4,12-56.1,14.5c-15.3,1.6-28.3-1.2-36.7-3.8c7.1,1.1,18.9,0.9,32-1.6c8.2-1.5,16.6-8.2,29.9-14.1
			c8-3.6,7.1-3.5,11.8-4.7c2.4-0.7,3.6-1,11.6-3.3c17.2-4.6,41.7,4.8,45.8,6.4c3.1,1.1,5.5,2.3,7.2,3.1
			C238.7,391.1,235.9,396.1,233.4,401.1z"/>
		<path fill="#666666" stroke="#000000" stroke-miterlimit="10" d="M236.8,418c-17.9-5.5-30.9-4-39.6-1.7
			c-20.8,5.7-27.2,19.7-50.4,28.6c-14.4,5.5-27.6,6.1-36.4,5.8c7.2-0.8,18.5-4.2,30.5-9.8c7.5-3.6,14-12.2,25.4-21.3
			c6.8-5.5,6-5.1,10.2-7.6c2.1-1.3,3.3-2,10.4-6c15.4-9,41.6-6,45.9-5.7c3.3,0.3,5.8,0.8,7.8,1.1C239.3,406.8,238.1,412.4,236.8,418
			z"/>
		<path fill="#666666" stroke="#000000" stroke-miterlimit="10" d="M244.6,433.5c-18.8-0.7-30.9,4.2-38.6,8.6
			c-18.6,10.9-21.1,26-41.3,40.7c-12.5,9.1-25.1,13-33.7,15.1c6.7-2.6,16.7-8.7,26.9-17.4c6.3-5.4,10.4-15.4,19-27.2
			c5-7,4.5-6.4,7.8-10.1c1.7-1.7,2.6-2.7,8.4-8.5c12.5-12.6,38.6-16.6,42.9-17.4c3.2-0.5,5.8-0.8,7.8-1
			C244,421.9,244.4,427.6,244.6,433.5z"/>
		<path fill="#666666" stroke="#000000" stroke-miterlimit="10" d="M256.1,446.3c-18.4,4.2-28.9,12-35.1,18.4
			c-15.1,15.3-13.7,30.6-29.3,49.9c-9.7,12-20.8,19.2-28.6,23.3c5.8-4.2,13.9-12.7,21.4-23.7c4.7-6.8,6-17.6,11.3-31.1
			c3.2-8.1,2.7-7.4,4.9-11.7c1.2-2.2,1.9-3.3,5.9-10.5c8.9-15.5,33-26.1,37-28c3-1.3,5.4-2.3,7.2-3
			C252.6,435.2,254.3,440.8,256.1,446.3z"/>
		<path fill="#666666" stroke="#000000" stroke-miterlimit="10" d="M270.4,455.7c-16.6,8.9-24.8,19.1-29.1,26.8
			c-10.7,18.7-5.2,33.1-15.4,55.8c-6.2,14.1-15.2,23.9-21.5,29.8c4.5-5.6,10.2-15.8,14.5-28.5c2.8-7.9,1.3-18.6,2.8-33
			c0.9-8.6,0.7-7.9,1.7-12.5c0.5-2.4,0.9-3.6,3.1-11.7c4.5-17.3,25.1-33.8,28.5-36.6c2.5-2.1,4.6-3.6,6.2-4.7
			C264.3,446.1,267.3,450.8,270.4,455.7z"/>
		<path fill="#666666" stroke="#000000" stroke-miterlimit="10" d="M286.8,461c-13.7,12.8-19,24.8-21.2,33.4
			c-5.5,20.8,3.5,33.3-0.4,57.9c-2.4,15.2-8.5,27-13.1,34.4c3-6.6,5.7-18,6.7-31.3c0.7-8.3-3.6-18.3-5.8-32.7
			c-1.4-8.6-1.4-7.8-1.5-12.6c-0.1-2.5,0-3.7-0.1-12c-0.1-17.8,15.5-39.1,18.1-42.6c1.9-2.6,3.6-4.7,4.8-6.1
			C278.2,453.3,282.6,457.2,286.8,461z"/>
		<path fill="#666666" stroke="#000000" stroke-miterlimit="10" d="M303.9,462c-9.9,16-11.9,29-11.9,37.7
			c0.1,21.5,12,31.4,14.5,56.1c1.6,15.3-1.2,28.3-3.8,36.7c1.1-7.1,0.9-18.9-1.6-32c-1.5-8.2-8.2-16.6-14.1-29.9
			c-3.6-8-3.5-7.1-4.7-11.8c-0.7-2.4-1-3.6-3.3-11.6c-4.6-17.2,4.8-41.7,6.4-45.8c1.1-3.1,2.3-5.5,3.1-7.2
			C293.8,456.8,298.9,459.4,303.9,462z"/>
		<path fill="#666666" stroke="#000000" stroke-miterlimit="10" d="M320.8,458.5c-5.5,17.9-4,30.9-1.7,39.6
			c5.7,20.8,19.7,27.2,28.6,50.4c5.5,14.4,6.1,27.6,5.8,36.4c-0.8-7.2-4.2-18.5-9.8-30.5c-3.6-7.5-12.2-14-21.3-25.4
			c-5.5-6.8-5.1-6-7.7-10.2c-1.3-2.1-2-3.3-6-10.4c-9-15.4-6-41.6-5.7-45.9c0.3-3.3,0.8-5.8,1.1-7.8
			C309.5,456.1,315.2,457.3,320.8,458.5z"/>
		<path fill="#666666" stroke="#000000" stroke-miterlimit="10" d="M336.2,450.8c-0.7,18.8,4.2,30.9,8.6,38.6
			c10.9,18.6,26,21.1,40.7,41.3c9.1,12.5,13,25.1,15.1,33.7c-2.6-6.7-8.7-16.7-17.4-26.9c-5.4-6.3-15.4-10.4-27.2-19
			c-7-5-6.4-4.5-10.1-7.8c-1.7-1.7-2.7-2.6-8.5-8.4c-12.6-12.5-16.6-38.6-17.4-42.9c-0.5-3.2-0.8-5.8-1-7.8
			C324.6,451.3,330.4,451.1,336.2,450.8z"/>
		<path fill="#666666" stroke="#000000" stroke-miterlimit="10" d="M349.1,439.4c4.2,18.4,12,28.9,18.4,35.1
			c15.3,15.1,30.6,13.7,49.9,29.3c12,9.7,19.2,20.8,23.3,28.6c-4.2-5.8-12.7-13.9-23.7-21.4c-6.8-4.7-17.6-6-31.1-11.3
			c-8.1-3.2-7.4-2.7-11.7-4.9c-2.2-1.2-3.3-1.9-10.5-5.9c-15.5-8.9-26.1-33-28-37c-1.3-3-2.3-5.4-3-7.2
			C338,442.8,343.5,441.1,349.1,439.4z"/>
		<path fill="#666666" stroke="#000000" stroke-miterlimit="10" d="M358.3,425.1c8.9,16.6,19.1,24.8,26.8,29.1
			c18.7,10.7,33.1,5.2,55.8,15.4c14.1,6.2,23.9,15.2,29.8,21.5c-5.6-4.5-15.8-10.2-28.5-14.5c-7.9-2.8-18.6-1.3-33-2.8
			c-8.6-0.9-7.9-0.7-12.5-1.7c-2.4-0.5-3.6-0.9-11.7-3.1c-17.3-4.5-33.8-25.1-36.6-28.5c-2.1-2.5-3.6-4.6-4.7-6.2
			C348.7,431.2,353.5,428,358.3,425.1z"/>
		<path fill="#666666" stroke="#000000" stroke-miterlimit="10" d="M363.8,408.7c12.8,13.7,24.8,19,33.4,21.2
			c20.8,5.5,33.3-3.5,57.9,0.4c15.2,2.4,27,8.5,34.4,13.1c-6.6-3-18-5.7-31.3-6.7c-8.3-0.7-18.3,3.6-32.7,5.8
			c-8.6,1.4-7.8,1.4-12.6,1.5c-2.5,0.1-3.7,0-12,0.1c-17.8,0.1-39.1-15.5-42.6-18.1c-2.6-1.9-4.7-3.6-6.1-4.8
			C356.1,417.1,359.9,412.9,363.8,408.7z"/>
		<path fill="#666666" stroke="#000000" stroke-miterlimit="10" d="M364.8,391.5c16,9.9,29,11.9,37.7,11.9
			c21.5-0.1,31.4-12,56.1-14.5c15.3-1.6,28.3,1.2,36.7,3.8c-7.1-1.1-18.9-0.9-32,1.6c-8.2,1.5-16.6,8.2-29.9,14.1
			c-8,3.6-7.1,3.5-11.8,4.7c-2.4,0.7-3.6,1-11.6,3.3c-17.2,4.6-41.7-4.8-45.8-6.4c-3.1-1.1-5.5-2.3-7.2-3.1
			C359.4,401.7,362.2,396.5,364.8,391.5z"/>
		<path fill="#666666" stroke="#000000" stroke-miterlimit="10" d="M361.3,374.7c17.9,5.5,30.9,4,39.6,1.7
			c20.8-5.7,27.2-19.7,50.4-28.6c14.4-5.5,27.6-6.1,36.4-5.8c-7.2,0.8-18.5,4.2-30.5,9.8c-7.5,3.6-14,12.2-25.4,21.3
			c-6.8,5.5-6,5.1-10.2,7.6c-2.1,1.3-3.3,2-10.4,6c-15.4,9-41.6,6-45.9,5.7c-3.3-0.3-5.8-0.8-7.8-1.1
			C358.8,385.8,360,380.3,361.3,374.7z"/>
		<path fill="#666666" stroke="#000000" stroke-miterlimit="10" d="M353.5,359.3c18.8,0.7,30.9-4.2,38.6-8.6
			c18.6-10.9,21.1-26,41.3-40.7c12.5-9.1,25.1-13,33.7-15.1c-6.7,2.6-16.7,8.7-26.9,17.4c-6.3,5.4-10.4,15.4-19,27.2
			c-5,7-4.5,6.4-7.8,10.1c-1.7,1.7-2.6,2.7-8.4,8.5c-12.5,12.6-38.6,16.6-42.9,17.4c-3.2,0.5-5.8,0.8-7.8,1
			C354.1,370.8,353.8,365.1,353.5,359.3z"/>
		<path fill="#666666" stroke="#000000" stroke-miterlimit="10" d="M342.1,346.5c18.4-4.2,28.9-12,35.1-18.4
			c15.1-15.3,13.7-30.6,29.3-49.9c9.7-12,20.8-19.2,28.6-23.3c-5.8,4.2-13.9,12.7-21.4,23.7c-4.7,6.8-6,17.6-11.3,31.1
			c-3.2,8.1-2.7,7.4-4.9,11.7c-1.2,2.2-1.9,3.3-5.9,10.5c-8.9,15.5-33,26.1-37,28c-3,1.3-5.4,2.3-7.2,3
			C345.6,357.4,343.8,351.8,342.1,346.5z"/>
		<path fill="#666666" stroke="#000000" stroke-miterlimit="10" d="M327.7,337c16.6-8.9,24.8-19.1,29.1-26.8
			c10.7-18.7,5.2-33.1,15.4-55.8c6.2-14.1,15.2-23.9,21.5-29.8c-4.5,5.6-10.2,15.8-14.5,28.5c-2.8,7.9-1.3,18.6-2.8,33
			c-0.9,8.6-0.7,7.9-1.7,12.5c-0.5,2.4-0.9,3.6-3.1,11.7c-4.5,17.3-25.1,33.8-28.5,36.6c-2.5,2.1-4.6,3.6-6.2,4.7
			C333.9,346.7,330.8,341.9,327.7,337z"/>
		<path fill="#666666" stroke="#000000" stroke-miterlimit="10" d="M311.4,331.6c13.7-12.8,19-24.8,21.2-33.4
			c5.5-20.8-3.5-33.3,0.4-57.9c2.4-15.2,8.5-27,13.1-34.4c-3,6.6-5.7,18-6.7,31.3c-0.7,8.3,3.6,18.3,5.8,32.7
			c1.4,8.6,1.4,7.8,1.5,12.6c0.1,2.5,0,3.7,0.1,12c0.1,17.8-15.5,39.1-18.1,42.6c-1.9,2.6-3.6,4.7-4.8,6.1
			C319.9,339.4,315.6,335.5,311.4,331.6z"/>
	</g>
	<circle fill="#666666" stroke="#000000" stroke-miterlimit="10" cx="299.1" cy="396.3" r="66.3"/>
	
		<radialGradient id="SVGID_1_" cx="269.2153" cy="712.5097" r="71.8327" gradientTransform="matrix(0.6375 0 0 0.6375 127.5 -57.8711)" gradientUnits="userSpaceOnUse">
		<stop  offset="6.632653e-002" style="stop-color:#FFFFFF"/>
		<stop  offset="0.8827" style="stop-color:#000000"/>
	</radialGradient>
	<circle fill="url(#SVGID_1_)" stroke="#000000" stroke-miterlimit="10" cx="299.1" cy="396.3" r="45.8"/>
	
		<radialGradient id="SVGID_2_" cx="269.9742" cy="319.1287" r="21.171" gradientTransform="matrix(0.6375 0 0 0.6375 127.5 -57.8711)" gradientUnits="userSpaceOnUse">
		<stop  offset="0" style="stop-color:#FFFFFF"/>
		<stop  offset="0.3214" style="stop-color:#171717"/>
		<stop  offset="0.5663" style="stop-color:#000000"/>
	</radialGradient>
	<circle fill="url(#SVGID_2_)" stroke="#666666" stroke-miterlimit="10" cx="299.7" cy="145.5" r="13.4"/>
	
		<radialGradient id="SVGID_3_" cx="246.1291" cy="312.9416" r="21.1261" gradientTransform="matrix(0.6157 -0.165 0.165 0.6157 31.4488 1.8657)" gradientUnits="userSpaceOnUse">
		<stop  offset="0" style="stop-color:#FFFFFF"/>
		<stop  offset="0.3214" style="stop-color:#171717"/>
		<stop  offset="0.5663" style="stop-color:#000000"/>
	</radialGradient>
	<circle fill="url(#SVGID_3_)" stroke="#666666" stroke-miterlimit="10" cx="234.6" cy="153.9" r="13.4"/>
	
		<radialGradient id="SVGID_4_" cx="224.7229" cy="300.8477" r="21.1167" gradientTransform="matrix(0.5521 -0.3188 0.3188 0.5521 -45.849 84.3446)" gradientUnits="userSpaceOnUse">
		<stop  offset="0" style="stop-color:#FFFFFF"/>
		<stop  offset="0.3214" style="stop-color:#171717"/>
		<stop  offset="0.5663" style="stop-color:#000000"/>
	</radialGradient>
	<circle fill="url(#SVGID_4_)" stroke="#666666" stroke-miterlimit="10" cx="174.2" cy="178.8" r="13.4"/>
	
		<radialGradient id="SVGID_5_" cx="207.1089" cy="283.6208" r="21.147" gradientTransform="matrix(0.4508 -0.4508 0.4508 0.4508 -99.1381 184.0856)" gradientUnits="userSpaceOnUse">
		<stop  offset="0" style="stop-color:#FFFFFF"/>
		<stop  offset="0.3214" style="stop-color:#171717"/>
		<stop  offset="0.5663" style="stop-color:#000000"/>
	</radialGradient>
	<circle fill="url(#SVGID_5_)" stroke="#666666" stroke-miterlimit="10" cx="122.1" cy="218.5" r="13.4"/>
	
		<radialGradient id="SVGID_6_" cx="194.5749" cy="262.4625" r="21.1789" gradientTransform="matrix(0.3188 -0.5521 0.5521 0.3188 -124.81 294.21)" gradientUnits="userSpaceOnUse">
		<stop  offset="0" style="stop-color:#FFFFFF"/>
		<stop  offset="0.3214" style="stop-color:#171717"/>
		<stop  offset="0.5663" style="stop-color:#000000"/>
	</radialGradient>
	<circle fill="url(#SVGID_6_)" stroke="#666666" stroke-miterlimit="10" cx="82.2" cy="270.4" r="13.4"/>
	
		<radialGradient id="SVGID_7_" cx="187.9998" cy="238.661" r="21.1198" gradientTransform="matrix(0.165 -0.6157 0.6157 0.165 -121.0335 407.236)" gradientUnits="userSpaceOnUse">
		<stop  offset="0" style="stop-color:#FFFFFF"/>
		<stop  offset="0.3214" style="stop-color:#171717"/>
		<stop  offset="0.5663" style="stop-color:#000000"/>
	</radialGradient>
	<circle fill="url(#SVGID_7_)" stroke="#666666" stroke-miterlimit="10" cx="56.9" cy="330.9" r="13.4"/>
	
		<radialGradient id="SVGID_8_" cx="187.7627" cy="214.0931" r="21.1141" gradientTransform="matrix(2.862183e-011 -0.6375 0.6375 2.862183e-011 -88.2069 515.4733)" gradientUnits="userSpaceOnUse">
		<stop  offset="0" style="stop-color:#FFFFFF"/>
		<stop  offset="0.3214" style="stop-color:#171717"/>
		<stop  offset="0.5663" style="stop-color:#000000"/>
	</radialGradient>
	<circle fill="url(#SVGID_8_)" stroke="#666666" stroke-miterlimit="10" cx="48.3" cy="395.8" r="13.4"/>
	
		<radialGradient id="SVGID_9_" cx="193.8625" cy="190.2432" r="21.1447" gradientTransform="matrix(-0.165 -0.6157 0.6157 -0.165 -28.4701 611.5244)" gradientUnits="userSpaceOnUse">
		<stop  offset="0" style="stop-color:#FFFFFF"/>
		<stop  offset="0.3214" style="stop-color:#171717"/>
		<stop  offset="0.5663" style="stop-color:#000000"/>
	</radialGradient>
	<circle fill="url(#SVGID_9_)" stroke="#666666" stroke-miterlimit="10" cx="56.7" cy="460.7" r="13.4"/>
	
		<radialGradient id="SVGID_10_" cx="205.9678" cy="168.7997" r="21.1236" gradientTransform="matrix(-0.3188 -0.5521 0.5521 -0.3188 54.0088 688.8223)" gradientUnits="userSpaceOnUse">
		<stop  offset="0" style="stop-color:#FFFFFF"/>
		<stop  offset="0.3214" style="stop-color:#171717"/>
		<stop  offset="0.5663" style="stop-color:#000000"/>
	</radialGradient>
	<circle fill="url(#SVGID_10_)" stroke="#666666" stroke-miterlimit="10" cx="81.6" cy="521.2" r="13.4"/>
	
		<radialGradient id="SVGID_11_" cx="223.1912" cy="151.2215" r="21.147" gradientTransform="matrix(-0.4508 -0.4508 0.4508 -0.4508 153.7498 742.1113)" gradientUnits="userSpaceOnUse">
		<stop  offset="0" style="stop-color:#FFFFFF"/>
		<stop  offset="0.3214" style="stop-color:#171717"/>
		<stop  offset="0.5663" style="stop-color:#000000"/>
	</radialGradient>
	<circle fill="url(#SVGID_11_)" stroke="#666666" stroke-miterlimit="10" cx="121.3" cy="573.4" r="13.4"/>
	
		<radialGradient id="SVGID_12_" cx="244.3396" cy="138.6981" r="21.167" gradientTransform="matrix(-0.5521 -0.3188 0.3188 -0.5521 263.8741 767.7832)" gradientUnits="userSpaceOnUse">
		<stop  offset="0" style="stop-color:#FFFFFF"/>
		<stop  offset="0.3214" style="stop-color:#171717"/>
		<stop  offset="0.5663" style="stop-color:#000000"/>
	</radialGradient>
	<circle fill="url(#SVGID_12_)" stroke="#666666" stroke-miterlimit="10" cx="173.2" cy="613.3" r="13.4"/>
	
		<radialGradient id="SVGID_13_" cx="268.0966" cy="132.0602" r="21.1382" gradientTransform="matrix(-0.6157 -0.165 0.165 -0.6157 376.9002 764.0067)" gradientUnits="userSpaceOnUse">
		<stop  offset="0" style="stop-color:#FFFFFF"/>
		<stop  offset="0.3214" style="stop-color:#171717"/>
		<stop  offset="0.5663" style="stop-color:#000000"/>
	</radialGradient>
	<circle fill="url(#SVGID_13_)" stroke="#666666" stroke-miterlimit="10" cx="233.5" cy="638.5" r="13.4"/>
	
		<radialGradient id="SVGID_14_" cx="292.7177" cy="131.8377" r="21.1527" gradientTransform="matrix(-0.6375 0 0 -0.6375 485.1375 731.1802)" gradientUnits="userSpaceOnUse">
		<stop  offset="0" style="stop-color:#FFFFFF"/>
		<stop  offset="0.3214" style="stop-color:#171717"/>
		<stop  offset="0.5663" style="stop-color:#000000"/>
	</radialGradient>
	<circle fill="url(#SVGID_14_)" stroke="#666666" stroke-miterlimit="10" cx="298.6" cy="647.1" r="13.4"/>
	
		<radialGradient id="SVGID_15_" cx="316.5503" cy="137.9935" r="21.1417" gradientTransform="matrix(-0.6157 0.165 -0.165 -0.6157 581.1887 671.4434)" gradientUnits="userSpaceOnUse">
		<stop  offset="0" style="stop-color:#FFFFFF"/>
		<stop  offset="0.3214" style="stop-color:#171717"/>
		<stop  offset="0.5663" style="stop-color:#000000"/>
	</radialGradient>
	<circle fill="url(#SVGID_15_)" stroke="#666666" stroke-miterlimit="10" cx="363.5" cy="638.7" r="13.4"/>
	
		<radialGradient id="SVGID_16_" cx="338.0299" cy="150.0654" r="21.1357" gradientTransform="matrix(-0.5521 0.3188 -0.3188 -0.5521 658.4864 588.9645)" gradientUnits="userSpaceOnUse">
		<stop  offset="0" style="stop-color:#FFFFFF"/>
		<stop  offset="0.3214" style="stop-color:#171717"/>
		<stop  offset="0.5663" style="stop-color:#000000"/>
	</radialGradient>
	<circle fill="url(#SVGID_16_)" stroke="#666666" stroke-miterlimit="10" cx="424" cy="613.8" r="13.4"/>
	
		<radialGradient id="SVGID_17_" cx="355.5715" cy="167.2732" r="21.1875" gradientTransform="matrix(-0.4508 0.4508 -0.4508 -0.4508 711.7756 489.2234)" gradientUnits="userSpaceOnUse">
		<stop  offset="0" style="stop-color:#FFFFFF"/>
		<stop  offset="0.3214" style="stop-color:#171717"/>
		<stop  offset="0.5663" style="stop-color:#000000"/>
	</radialGradient>
	<circle fill="url(#SVGID_17_)" stroke="#666666" stroke-miterlimit="10" cx="476" cy="574.1" r="13.4"/>
	
		<radialGradient id="SVGID_18_" cx="368.1512" cy="188.5014" r="21.1196" gradientTransform="matrix(-0.3188 0.5521 -0.5521 -0.3188 737.4476 379.0991)" gradientUnits="userSpaceOnUse">
		<stop  offset="0" style="stop-color:#FFFFFF"/>
		<stop  offset="0.3214" style="stop-color:#171717"/>
		<stop  offset="0.5663" style="stop-color:#000000"/>
	</radialGradient>
	<circle fill="url(#SVGID_18_)" stroke="#666666" stroke-miterlimit="10" cx="515.9" cy="522.2" r="13.4"/>
	
		<radialGradient id="SVGID_19_" cx="374.7389" cy="212.189" r="21.1201" gradientTransform="matrix(-0.165 0.6157 -0.6157 -0.165 733.6709 266.0732)" gradientUnits="userSpaceOnUse">
		<stop  offset="0" style="stop-color:#FFFFFF"/>
		<stop  offset="0.3214" style="stop-color:#171717"/>
		<stop  offset="0.5663" style="stop-color:#000000"/>
	</radialGradient>
	<circle fill="url(#SVGID_19_)" stroke="#666666" stroke-miterlimit="10" cx="541.2" cy="461.8" r="13.4"/>
	
		<radialGradient id="SVGID_20_" cx="374.9837" cy="236.8366" r="21.1288" gradientTransform="matrix(-2.862183e-011 0.6375 -0.6375 -2.862183e-011 700.8445 157.8358)" gradientUnits="userSpaceOnUse">
		<stop  offset="0" style="stop-color:#FFFFFF"/>
		<stop  offset="0.3214" style="stop-color:#171717"/>
		<stop  offset="0.5663" style="stop-color:#000000"/>
	</radialGradient>
	<circle fill="url(#SVGID_20_)" stroke="#666666" stroke-miterlimit="10" cx="549.8" cy="396.9" r="13.4"/>
	
		<radialGradient id="SVGID_21_" cx="368.8152" cy="260.6751" r="21.1531" gradientTransform="matrix(0.165 0.6157 -0.6157 0.165 641.1075 61.7846)" gradientUnits="userSpaceOnUse">
		<stop  offset="0" style="stop-color:#FFFFFF"/>
		<stop  offset="0.3214" style="stop-color:#171717"/>
		<stop  offset="0.5663" style="stop-color:#000000"/>
	</radialGradient>
	<circle fill="url(#SVGID_21_)" stroke="#666666" stroke-miterlimit="10" cx="541.4" cy="332" r="13.4"/>
	
		<radialGradient id="SVGID_22_" cx="356.7568" cy="282.1133" r="21.1473" gradientTransform="matrix(0.3188 0.5521 -0.5521 0.3188 558.6287 -15.5132)" gradientUnits="userSpaceOnUse">
		<stop  offset="0" style="stop-color:#FFFFFF"/>
		<stop  offset="0.3214" style="stop-color:#171717"/>
		<stop  offset="0.5663" style="stop-color:#000000"/>
	</radialGradient>
	<circle fill="url(#SVGID_22_)" stroke="#666666" stroke-miterlimit="10" cx="516.5" cy="271.4" r="13.4"/>
	
		<radialGradient id="SVGID_23_" cx="339.4892" cy="299.7031" r="21.1565" gradientTransform="matrix(0.4508 0.4508 -0.4508 0.4508 458.8876 -68.8023)" gradientUnits="userSpaceOnUse">
		<stop  offset="0" style="stop-color:#FFFFFF"/>
		<stop  offset="0.3214" style="stop-color:#171717"/>
		<stop  offset="0.5663" style="stop-color:#000000"/>
	</radialGradient>
	<circle fill="url(#SVGID_23_)" stroke="#666666" stroke-miterlimit="10" cx="476.8" cy="219.3" r="13.4"/>
	
		<radialGradient id="SVGID_24_" cx="318.3345" cy="312.2989" r="21.1334" gradientTransform="matrix(0.5521 0.3188 -0.3188 0.5521 348.7633 -94.4742)" gradientUnits="userSpaceOnUse">
		<stop  offset="0" style="stop-color:#FFFFFF"/>
		<stop  offset="0.3214" style="stop-color:#171717"/>
		<stop  offset="0.5663" style="stop-color:#000000"/>
	</radialGradient>
	<circle fill="url(#SVGID_24_)" stroke="#666666" stroke-miterlimit="10" cx="424.9" cy="179.4" r="13.4"/>
	
		<radialGradient id="SVGID_25_" cx="294.5901" cy="318.7857" r="21.1299" gradientTransform="matrix(0.6157 0.165 -0.165 0.6157 235.7374 -90.6977)" gradientUnits="userSpaceOnUse">
		<stop  offset="0" style="stop-color:#FFFFFF"/>
		<stop  offset="0.3214" style="stop-color:#171717"/>
		<stop  offset="0.5663" style="stop-color:#000000"/>
	</radialGradient>
	<circle fill="url(#SVGID_25_)" stroke="#666666" stroke-miterlimit="10" cx="364.6" cy="154.2" r="13.4"/>
	<circle fill="#B3B3B3" stroke="#1A1A1A" stroke-miterlimit="10" cx="298.6" cy="340.7" r="5.7"/>
	<circle fill="#B3B3B3" stroke="#1A1A1A" stroke-miterlimit="10" cx="270.8" cy="348.5" r="5.7"/>
	<circle fill="#B3B3B3" stroke="#1A1A1A" stroke-miterlimit="10" cx="250.6" cy="369" r="5.7"/>
	<circle fill="#B3B3B3" stroke="#1A1A1A" stroke-miterlimit="10" cx="243.4" cy="396.9" r="5.7"/>
	<circle fill="#B3B3B3" stroke="#1A1A1A" stroke-miterlimit="10" cx="251.1" cy="424.6" r="5.7"/>
	<circle fill="#B3B3B3" stroke="#1A1A1A" stroke-miterlimit="10" cx="271.7" cy="444.7" r="5.7"/>
	<circle fill="#B3B3B3" stroke="#1A1A1A" stroke-miterlimit="10" cx="299.7" cy="452" r="5.7"/>
	<circle fill="#B3B3B3" stroke="#1A1A1A" stroke-miterlimit="10" cx="327.3" cy="444.2" r="5.7"/>
	<circle fill="#B3B3B3" stroke="#1A1A1A" stroke-miterlimit="10" cx="347.5" cy="423.8" r="5.7"/>
	<circle fill="#B3B3B3" stroke="#1A1A1A" stroke-miterlimit="10" cx="354.7" cy="395.8" r="5.7"/>
	<circle fill="#B3B3B3" stroke="#1A1A1A" stroke-miterlimit="10" cx="347" cy="368" r="5.7"/>
	<circle fill="#B3B3B3" stroke="#1A1A1A" stroke-miterlimit="10" cx="326.4" cy="347.9" r="5.7"/>
	<g id="维京剑">
	</g>
</g>
<g id="图层_4">
	<g>
		<path fill="#754C24" stroke="#000000" stroke-miterlimit="10" d="M564.1,179.9l-18.7-14.8c-9.3,9.7-18.9,20.4-28.6,31.9
			c-15.3,18-24.8,30.8-27,33.7c-2,2.6-3.6,4.7-4.6,6.3c3.7,3.2,7.2,6.4,11,9.5l0.2,0.2c3.8,3.1,7.8,5.6,11.8,8.4
			c1.3-1.4,3.1-3.5,5-5.9c2.3-2.7,12.5-15,26.6-34.1C548.6,202.9,556.8,191.2,564.1,179.9z"/>
		<path fill="#B3B3B3" stroke="#000000" stroke-miterlimit="10" d="M158.7,674.6c0,0-4.9-3.8-3.1-19.7c1.9-15.5,9.7-24.5,9.7-24.5
			L460,234.3l28,22"/>
		<path fill="#666666" stroke="#000000" stroke-miterlimit="10" d="M158.7,674.6c0,0,4.9,4.4,19.9-1.6c16.4-6.7,21.5-15.1,21.5-15.1
			l316.6-378.8l-28-22"/>
		<polygon fill="#808080" stroke="#000000" stroke-miterlimit="10" points="193.2,630.3 500.1,266.2 475.9,247.2 		"/>
		<g>
			<polyline fill="#4D4D4D" stroke="#000000" stroke-miterlimit="10" points="193.2,630.7 488.7,257.2 476.2,247.7 193.2,630.7 			
				"/>
		</g>
		<line fill="none" stroke="#000000" stroke-miterlimit="10" x1="475.9" y1="247.2" x2="500.5" y2="266.5"/>
		<path fill="#4D4D4D" stroke="#000000" stroke-miterlimit="10" d="M485.1,261.1c2.3,1.6,5.6,4,9.5,7.1
			c16.9,13.7,27.1,27.4,31.1,33.2c4.6,6.6,8.4,13,11.5,19c6.9-3.5,13.9-6.9,20.8-10.4c-1.5-3.1-3.7-7.2-6.3-11.9
			c-2.4-4-9.4-15.5-21-28.6c-10.8-12.1-21.5-21.1-30.7-27.8c-8.5-7.3-19.8-15.7-34.1-23.4c-15.5-8.3-28.4-12.5-32.7-13.8
			c-5.2-1.6-9.7-2.7-13-3.5c-1.7,7.5-3.5,15.1-5.1,22.6c6.4,1.6,13.6,3.8,21.1,6.7c4.4,1.7,12.7,5.2,22.8,11.4
			c5.1,3.2,10.8,6.8,16.6,11.3c3.9,3.1,7,5.7,9.2,7.5"/>
		
			<rect x="521.1" y="151.4" transform="matrix(0.7851 0.6194 -0.6194 0.7851 223.0941 -311.1531)" fill="#F7931E" stroke="#000000" stroke-miterlimit="10" width="77.7" height="29.1"/>
		<path fill="#B3B3B3" stroke="#000000" stroke-miterlimit="10" d="M497.7,244.9c-7.5-5.8-14.2-10.3-19.2-13.4
			c-9.1-5.7-21.7-13.6-39.8-19.8c-5.6-2-10.5-3.2-13.7-4c-1.2,4.5-2.4,9.1-3.6,13.7c9,1.7,16.2,4.2,21.2,6.1
			c18.1,7,31.4,17,40.7,24.2c2.5,2,4.5,3.6,5.9,4.7"/>
		<path fill="#B3B3B3" stroke="#000000" stroke-miterlimit="10" d="M497.7,244.9c7.4,5.9,13.2,11.5,17.6,15.6
			c7.7,7.5,18.4,18.1,28.4,34.1c3.2,5,5.5,9.4,7,12.5c-4.2,2.3-8.3,4.4-12.5,6.7c-3.8-8.3-7.9-14.8-10.9-19.3
			c-11-16-23.8-26.6-33-34c-2.5-2.1-4.5-3.6-5.9-4.6"/>
		<circle fill="#666666" stroke="#000000" stroke-miterlimit="10" cx="493.6" cy="250.9" r="3.9"/>
		<g>
			<circle fill="#666666" stroke="#000000" stroke-miterlimit="10" cx="476.9" cy="239.1" r="3.9"/>
			<circle fill="#666666" stroke="#000000" stroke-miterlimit="10" cx="457.1" cy="227.5" r="3.9"/>
			<circle fill="#666666" stroke="#000000" stroke-miterlimit="10" cx="436.8" cy="218.3" r="3.9"/>
		</g>
		<g>
			<circle fill="#666666" stroke="#000000" stroke-miterlimit="10" cx="509.1" cy="264.4" r="3.9"/>
			<circle fill="#666666" stroke="#000000" stroke-miterlimit="10" cx="524.8" cy="281" r="3.9"/>
			<circle fill="#666666" stroke="#000000" stroke-miterlimit="10" cx="538.5" cy="298.6" r="3.9"/>
		</g>
		<path fill="#F7931E" stroke="#4D4D4D" stroke-miterlimit="10" d="M570.3,190.2l-35.8-28.3c-5.5-4.3-6.4-12.5-2.2-17.9l0,0
			c4.3-5.5,12.5-6.4,17.9-2.2l35.8,28.3c5.5,4.3,6.4,12.5,2.2,17.9l0,0C583.8,193.6,575.7,194.6,570.3,190.2z"/>
		<g>
			<g>
				<g>
					<path d="M562.3,167.9c-0.1,0.2-0.3,0.3-0.4,0.5c-0.2,0.4-0.7,0.7-1.1,0.8c-0.2,0.1-0.4,0-0.5,0c-0.4,0.1-0.8-0.2-1.1-0.4
						c-0.7-0.4-1.3-1-2-1.4c-0.1,0-0.1-0.1-0.2-0.1c0,0-0.1-0.1-0.2-0.1c-0.2-0.3-0.4-0.8-0.4-1.2c0-0.3,0.1-0.5,0.2-0.8
						c0.4-0.5,0.8-1.1,1.2-1.7c0.1-0.1,0.2-0.3,0.2-0.4c0.2-0.3,0.5-0.7,1-0.8c0.1,0,0.3,0,0.5,0c0.4,0,0.8,0.3,1.1,0.5
						c0.9,0.7,1.7,1.3,2.5,2.1l0.1,0.1c0.2,0.4,0.3,1,0.1,1.4C562.9,166.9,562.6,167.5,562.3,167.9L562.3,167.9z M558.8,165.1
						c-0.4,0.5-0.4,1.2,0,1.6c0.7,0.8,1.9,0.8,2.3-0.1c0.2-0.4,0.1-1.2-0.3-1.6c-0.3-0.3-0.8-0.5-1.2-0.3
						C559.1,164.8,558.9,164.9,558.8,165.1z"/>
					<path d="M551.3,159.5c1.5,1.2,2.7,2.6,3.5,4.2c0.4,0.9,0.7,1.9,0.8,2.7c0.1,0.8,0.2,1.4,0.1,2.2l-0.1,0.1
						c-0.5-0.1-1-0.3-1.4-0.7l-0.1-0.1c0.1-0.3,0-0.7,0-1c-0.2-1-0.4-2-0.9-3c-0.4-1-1-1.7-1.7-2.4c-0.2-0.2-0.2-0.2-0.3,0
						c-0.2,0.3-0.3,0.7-0.3,1c0,0.4-0.1,1-0.1,1.4c0,0.1,0,0.1-0.1,0.2c-0.3,0.5-0.5,1.1-0.9,1.6l-0.1,0.1l-0.1-0.1
						c-0.1-0.4-0.3-0.9-0.4-1.3c-0.4-1.5-0.4-3-0.1-4.3c0.1-0.5,0.3-1.1,0.5-1.5c0,0,0-0.1,0.1-0.1c0,0,0.1-0.1,0.1,0
						C550.3,158.7,550.8,159.2,551.3,159.5L551.3,159.5z"/>
					<path d="M565.3,158.2c-0.7,1-1.4,1.6-2.4,2.3c-1.6,1-3.5,1.5-5.6,1.4c-0.3,0-0.7-0.1-1-0.1c-0.1,0-0.2-0.1-0.1-0.2
						c0.2-0.3,0.3-0.7,0.5-1.1c0-0.1,0.1-0.1,0.2-0.1c1.1,0,2.1-0.1,3.1-0.3c1.1-0.2,2.1-0.8,2.8-1.4c0.1-0.1,0.2-0.1,0.3-0.2
						c0.1-0.1,0.1-0.3-0.1-0.3c-0.7-0.2-1.3-0.5-2-0.7c-0.5-0.1-1-0.4-1.4-0.7s-0.8-0.4-1.2-0.7c-0.1,0-0.1,0-0.2-0.1v-0.1h0.1
						c0.3,0.1,0.4,0,0.8-0.1c1.5-0.3,3.2-0.3,4.7,0.2c0.8,0.2,1.4,0.5,2.2,0.9c0.1,0,0.1,0.1,0.1,0.2
						C565.9,157.4,565.7,157.8,565.3,158.2z"/>
					<path d="M554,173.9c0.7-1,1.4-1.7,2.3-2.4c0.9-0.7,1.9-1,3-1.2c0.8-0.1,1.5-0.3,2.4-0.2c0.4,0,0.8,0.1,1.2,0.2
						c0.1,0,0.1,0,0.2,0h0.1c0,0,0.1,0.1,0.1,0.2s0,0.2,0,0.3c0,0.2-0.1,0.4-0.1,0.7l-0.1,0.1c-1.1-0.2-2.2-0.1-3.2,0.2
						c-1.3,0.3-2.4,0.9-3.4,1.7c-0.2,0.2-0.2,0.2,0.1,0.3c0.7,0.4,1.3,0.7,2.1,0.8c0.2,0,0.4,0.1,0.7,0.3c0.4,0.3,1,0.7,1.5,1
						c0.1,0,0.1,0.1,0.1,0.2c0,0-0.1,0.1-0.2,0.1c-1.2,0.2-2.4,0.2-3.6,0c-1.2-0.2-2.3-0.4-3.5-0.9c-0.3-0.1-0.3-0.1-0.1-0.3
						C553.4,174.6,553.6,174.4,554,173.9z"/>
					<path d="M568.7,172.6c-1.2-0.9-2.3-1.9-3.1-3.1c-1.2-2-2-4-1.9-6.2c0-0.1,0-0.2,0-0.3c0,0,0,0,0.1,0c0,0,0,0,0,0.1l0.1,0.1
						c0.3,0.2,0.7,0.3,1,0.5c0,0,0,0,0.1,0c0.2,0,0.2,0.1,0.2,0.2c0,1.5,0.4,3,1.2,4.2c0.4,0.8,0.9,1.4,1.5,2.1
						c0.1,0.1,0.1,0.1,0.2,0c0.3-0.5,0.5-1.2,0.5-1.9c0-0.3,0.1-0.4,0.2-0.7c0.3-0.4,0.5-1,0.9-1.4c0-0.1,0.1-0.2,0.1-0.2h0.1
						c0,0.1,0.1,0.1,0.1,0.2c0.3,1,0.4,2,0.4,3c0,1,0,1.9-0.2,2.8c-0.1,0.4-0.2,0.9-0.4,1.2c-0.1,0.1-0.1,0.1-0.2,0
						C569.4,173.2,569.1,172.9,568.7,172.6z"/>
					<path d="M560.5,157.5c0.3,0.3,0.8,0.7,1.1,0.9c0.1,0.1,0.1,0.1,0,0.2c-0.3,0.2-0.8,0.4-1.1,0.7c0,0-0.1,0-0.2,0
						c-0.2-0.1-0.4-0.3-0.7-0.4c-0.4-0.2-0.8-0.4-1.2-0.7c-1.4-0.7-2.8-0.8-4.2-0.3c-0.3,0.1-0.7,0.3-0.9,0.4
						c-0.1,0.1-0.1,0.1,0,0.2c0.3,0.3,0.7,0.5,1.1,0.9c0.1,0.1,0.2,0.2,0.1,0.3c-0.2,0.3-0.4,0.7-0.7,1c0,0.1-0.1,0.1-0.2,0
						c0-0.1-0.1-0.1-0.1-0.1c-1.1-0.9-2.3-1.6-3.4-2.5c0,0,0,0-0.1-0.1c-0.3-0.3-0.3-0.2,0-0.5c0.2-0.2,0.4-0.3,0.7-0.4
						c1-0.4,2.1-0.8,3.2-1c1.2-0.2,2.5-0.3,3.8,0c0.8,0.1,1.5,0.4,2.2,1C560.1,157.1,560.3,157.3,560.5,157.5L560.5,157.5z"/>
					<path d="M554.6,171.7c-0.5,0.7-1.2,1.4-1.7,2.1c-0.2,0.2-0.3,0.5-0.5,0.8l-0.1,0.1h-0.1c-0.3-0.5-0.8-1.2-1-1.7
						c-0.5-1.1-1.1-2.3-1.2-3.5c-0.2-1.3-0.2-2.6,0.2-3.8c0.2-0.7,0.7-1.2,1.1-1.7c0.2-0.2,0.4-0.5,0.7-0.8c0.1-0.1,0.1,0,0.2,0
						c0.1,0.2,0.2,0.4,0.3,0.7s0.2,0.4,0.3,0.7c0,0.1,0,0.1,0,0.2c-0.2,0.2-0.3,0.4-0.4,0.7c-0.2,0.3-0.4,0.8-0.7,1.2
						c-0.2,0.7-0.2,1.3-0.1,2.1c0.1,0.9,0.3,1.7,0.9,2.5c0.2,0.4,0.2,0.4,0.5,0.1c0.1-0.2,0.3-0.3,0.5-0.5c0,0,0.1,0,0.1-0.1
						s0.1-0.1,0.2-0.1c0.4,0.1,0.9,0.3,1.3,0.4c0,0,0,0,0.1,0c0.2,0.1,0.2,0.1,0.1,0.2C555,171.4,554.8,171.6,554.6,171.7
						L554.6,171.7z"/>
					<path d="M566.3,158.3c0.3-0.3,0.5-0.7,0.9-1.1c0.2-0.2,0.2-0.2,0.4,0c0.1,0.1,0.1,0.2,0.2,0.2c0.9,1.2,1.5,2.4,1.9,3.8
						c0.2,1,0.3,2.1,0.3,3.1c0,0.9-0.3,1.6-0.7,2.3c-0.2,0.4-0.5,0.9-0.9,1.3c-0.2,0.2-0.4,0.4-0.7,0.7h-0.1
						c-0.2-0.4-0.4-0.9-0.7-1.3v-0.1c0.8-0.8,1.2-1.5,1.3-2.6c0.1-0.7,0.2-1.2,0.1-1.9c-0.1-0.9-0.5-1.6-1.2-2.3
						c-0.1-0.1-0.1-0.1-0.2,0c-0.2,0.2-0.4,0.4-0.7,0.8l0,0c0,0.2-0.2,0.1-0.3,0.1c-0.3-0.1-0.8-0.2-1.1-0.3c-0.2,0-0.2-0.1-0.1-0.3
						c0.1-0.2,0.3-0.5,0.4-0.8C565.4,159.4,565.9,158.9,566.3,158.3C566.2,158.3,566.3,158.3,566.3,158.3z"/>
					<path d="M559,174.5c-0.3-0.3-0.8-0.5-1.1-0.9c-0.1-0.1-0.1-0.1,0-0.2c0.4-0.2,0.8-0.3,1.2-0.5h0.1c0.2,0.1,0.3,0.2,0.5,0.3
						l0.1,0.1c0.9,0.3,1.6,0.8,2.6,1c1,0.2,2,0.2,3,0c0.3-0.1,0.7-0.2,1-0.4c0.1-0.1,0.1-0.1,0-0.3c-0.3-0.3-0.7-0.7-1-1
						c-0.1-0.1-0.1-0.1,0-0.2c0.2-0.3,0.3-0.7,0.4-1.1c0,0,0-0.1,0.1-0.1c0,0,0,0.1,0.1,0.1l0.1,0.1c0.4,0.2,0.8,0.5,1.2,0.8
						c0.8,0.5,1.6,1.2,2.4,1.9l0.1,0.1h0.1l-0.1,0.1c-1.3,0.9-2.7,1.5-4.3,1.6c-0.9,0.1-1.7,0.1-2.6,0c-0.8-0.1-1.5-0.3-2.3-0.8
						C559.8,175.1,559.3,174.9,559,174.5z"/>
					<path d="M555.3,158.6c0.2-0.2,0.4-0.4,0.7-0.7c0,0,0-0.1,0.1-0.1l0.1-0.1c0.7,0.1,1.2,0.3,1.9,0.4c0.1,0,0.1,0.1,0.2,0.2
						l-0.1,0.1c-0.9,0.5-1.5,1.2-1.9,2.2c-0.1,0.4-0.1,0.9,0.1,1.3c0.2,0.5,0.4,1,0.7,1.5c0,0.1,0,0.1-0.1,0.1c-0.1,0-0.1,0-0.2,0
						c-0.3,0-0.7-0.1-1-0.1c-0.1,0-0.1,0-0.2,0c-0.1,0-0.2-0.1-0.2-0.1c-0.7-1.6-0.9-3.2-0.1-4.5
						C555.2,158.9,555.3,158.7,555.3,158.6L555.3,158.6z"/>
					<path d="M552.3,169c-0.1-0.1-0.2-0.2-0.4-0.4l-0.1-0.1c0-0.5,0.1-1.2,0.4-1.6l0.1-0.1h0.1c0.1,0.2,0.2,0.5,0.4,0.7
						c0.5,0.5,1.1,1,1.9,1.3c0.4,0.2,0.9,0.2,1.3,0.2c0.3,0,0.7-0.1,1-0.1c0.2,0,0.4-0.1,0.5-0.2h0.1v0.1v0.1c0,0.4,0,0.8,0,1.2
						c0,0.3,0,0.3-0.3,0.4c-0.7,0.2-1.2,0.2-1.9,0.1C554.4,170.2,553.3,169.8,552.3,169z"/>
					<path d="M567.4,164.9C567.4,164.9,567.3,164.9,567.4,164.9C567.3,164.9,567.3,164.8,567.4,164.9c-0.2-0.5-0.5-0.8-0.9-1.1
						c-1-0.8-2-1.1-3.2-1.1c-0.5,0-1,0.2-1.4,0.4c-0.2,0.1-0.3,0-0.2-0.2c0-0.4,0.1-0.8,0.2-1.2c0,0,0-0.1,0.1-0.1
						c0.2-0.1,0.4-0.2,0.7-0.3c0.8-0.2,1.6-0.2,2.5,0c0.7,0.1,1.2,0.4,1.7,0.9c0.2,0.2,0.3,0.4,0.5,0.7s0.2,0.3,0.2,0.5
						C567.5,164,567.4,164.3,567.4,164.9C567.4,164.8,567.4,164.9,567.4,164.9z"/>
					<path d="M564.1,173.2c-0.2,0.2-0.4,0.4-0.7,0.7c-0.1,0.1-0.2,0.1-0.3,0.1c-0.4-0.1-0.9-0.2-1.4-0.3l-0.1-0.1h0.1
						c0.1-0.1,0.3-0.1,0.4-0.3c0.4-0.4,0.9-1,1.2-1.5c0.1-0.3,0.2-0.7,0.2-1c0-0.5-0.1-1.2-0.4-1.7c-0.1-0.1-0.1-0.2-0.2-0.3
						c-0.1-0.1-0.1-0.2,0.1-0.2c0.5,0,1,0,1.5,0.1c0.1,0,0.2,0,0.2,0.2c0,0,0,0,0,0.1c0.2,0.4,0.2,0.9,0.3,1.4
						c0.2,1.1-0.1,2-0.7,2.8C564.2,172.9,564.1,173.1,564.1,173.2L564.1,173.2z"/>
				</g>
			</g>
		</g>
	</g>
	<g>
		<path fill="#754C24" stroke="#000000" stroke-miterlimit="10" d="M47,179.9l18.7-14.8c9.3,9.7,18.9,20.4,28.6,31.9
			c15.3,18,24.8,30.8,27,33.7c2,2.6,3.6,4.7,4.6,6.3c-3.7,3.2-7.2,6.4-11,9.5l-0.2,0.2c-3.8,3.1-7.8,5.6-11.8,8.4
			c-1.3-1.4-3.1-3.5-5-5.9c-2.3-2.7-12.5-15-26.6-34.1C62.4,202.9,54.3,191.2,47,179.9z"/>
		<path fill="#B3B3B3" stroke="#000000" stroke-miterlimit="10" d="M452.4,674.6c0,0,4.9-3.8,3.1-19.7c-1.9-15.5-9.7-24.5-9.7-24.5
			L151.1,234.5l-28,22"/>
		<path fill="#666666" stroke="#000000" stroke-miterlimit="10" d="M452.4,674.6c0,0-4.9,4.4-19.9-1.6
			c-16.4-6.7-21.5-15.1-21.5-15.1L94.4,279.2l28-22"/>
		<polygon fill="#808080" stroke="#000000" stroke-miterlimit="10" points="417.8,630.3 110.9,266.2 135.1,247.2 		"/>
		<g>
			<polyline fill="#4D4D4D" stroke="#000000" stroke-miterlimit="10" points="417.8,630.7 122.4,257.2 134.9,247.7 417.8,630.7 			
				"/>
		</g>
		<line fill="none" stroke="#000000" stroke-miterlimit="10" x1="135.1" y1="247.2" x2="110.5" y2="266.5"/>
		<path fill="#4D4D4D" stroke="#000000" stroke-miterlimit="10" d="M125.9,261.1c-2.3,1.6-5.6,4-9.5,7.1
			c-16.9,13.7-27.1,27.4-31.1,33.2c-4.6,6.6-8.4,13-11.5,19c-6.9-3.5-13.9-6.9-20.8-10.4c1.5-3.1,3.7-7.2,6.3-11.9
			c2.4-4,9.4-15.5,21-28.6c10.8-12.1,21.5-21.1,30.7-27.8c8.5-7.3,19.8-15.7,34.1-23.4c15.5-8.3,28.4-12.5,32.7-13.8
			c5.2-1.6,9.7-2.7,13-3.5c1.7,7.5,3.5,15.1,5.1,22.6c-6.4,1.6-13.6,3.8-21.1,6.7c-4.4,1.7-12.7,5.2-22.8,11.4
			c-5.1,3.2-10.8,6.8-16.6,11.3c-3.9,3.1-7,5.7-9.2,7.5"/>
		
			<rect x="12.2" y="151.3" transform="matrix(-0.7851 0.6194 -0.6194 -0.7851 193.9237 264.4326)" fill="#F7931E" stroke="#000000" stroke-miterlimit="10" width="77.7" height="29.1"/>
		<path fill="#B3B3B3" stroke="#000000" stroke-miterlimit="10" d="M113.4,244.9c7.5-5.8,14.2-10.3,19.2-13.4
			c9.1-5.7,21.7-13.6,39.8-19.8c5.6-2,10.5-3.2,13.7-4c1.2,4.5,2.4,9.1,3.6,13.7c-9,1.7-16.2,4.2-21.2,6.1
			c-18.1,7-31.4,17-40.7,24.2c-2.5,2-4.5,3.6-5.9,4.7"/>
		<path fill="#B3B3B3" stroke="#000000" stroke-miterlimit="10" d="M113.4,244.9c-7.4,5.9-13.2,11.5-17.6,15.6
			c-7.7,7.5-18.4,18.1-28.4,34.1c-3.2,5-5.5,9.4-7,12.5c4.2,2.3,8.3,4.4,12.5,6.7c3.8-8.3,7.9-14.8,10.9-19.3c11-16,23.8-26.6,33-34
			c2.5-2.1,4.5-3.6,5.9-4.6"/>
		<circle fill="#666666" stroke="#000000" stroke-miterlimit="10" cx="117.4" cy="250.9" r="3.9"/>
		<g>
			<circle fill="#666666" stroke="#000000" stroke-miterlimit="10" cx="134.1" cy="239.1" r="3.9"/>
			<circle fill="#666666" stroke="#000000" stroke-miterlimit="10" cx="154" cy="227.5" r="3.9"/>
			<circle fill="#666666" stroke="#000000" stroke-miterlimit="10" cx="174.3" cy="218.3" r="3.9"/>
		</g>
		<g>
			<circle fill="#666666" stroke="#000000" stroke-miterlimit="10" cx="102" cy="264.4" r="3.9"/>
			<circle fill="#666666" stroke="#000000" stroke-miterlimit="10" cx="86.2" cy="281" r="3.9"/>
			<circle fill="#666666" stroke="#000000" stroke-miterlimit="10" cx="72.7" cy="298.6" r="3.9"/>
		</g>
		<path fill="#F7931E" stroke="#4D4D4D" stroke-miterlimit="10" d="M40.9,190.2l35.8-28.3c5.5-4.3,6.4-12.5,2.2-17.9l0,0
			c-4.3-5.5-12.5-6.4-17.9-2.2l-35.8,28.3c-5.5,4.3-6.4,12.5-2.2,17.9l0,0C27.2,193.6,35.3,194.6,40.9,190.2z"/>
		<g>
			<g>
				<g>
					<path d="M48.9,167.9c-0.3-0.5-0.7-1-1-1.5c-0.2-0.4-0.2-0.9,0.1-1.4c0,0,0-0.1,0.1-0.1c0.8-0.8,1.6-1.4,2.5-2.1
						c0.3-0.2,0.7-0.4,1.1-0.5c0.2,0,0.3,0,0.5,0c0.4,0.1,0.8,0.4,1,0.8c0.1,0.1,0.2,0.3,0.2,0.4c0.4,0.5,0.8,1.2,1.2,1.7
						c0.1,0.2,0.2,0.4,0.2,0.8c0,0.4-0.1,0.9-0.4,1.2c0,0.1-0.1,0.1-0.2,0.1c-0.1,0-0.2,0.1-0.2,0.1c-0.7,0.4-1.3,1-2,1.4
						c-0.3,0.2-0.7,0.5-1.1,0.4c-0.2,0-0.4,0-0.5,0c-0.4-0.1-0.9-0.3-1.1-0.8C49.2,168.2,49,168.1,48.9,167.9L48.9,167.9z
						 M51.7,164.6c-0.4-0.1-0.9,0-1.2,0.3c-0.4,0.4-0.7,1.1-0.3,1.6c0.4,0.9,1.6,0.9,2.3,0.1c0.4-0.4,0.4-1.1,0-1.6
						C52.1,164.9,51.9,164.8,51.7,164.6z"/>
					<path d="M59.7,159.5c0.5-0.3,1.1-0.8,1.6-1.1h0.1c0,0,0,0.1,0.1,0.1c0.2,0.5,0.4,1,0.5,1.5c0.3,1.4,0.2,3-0.1,4.3
						c-0.1,0.4-0.2,0.9-0.4,1.3l-0.1,0.1l-0.1-0.1c-0.3-0.5-0.5-1.1-0.9-1.6c0-0.1,0-0.1-0.1-0.2c0-0.4-0.1-1-0.1-1.4
						c0-0.3-0.2-0.7-0.3-1c-0.1-0.2-0.1-0.2-0.3,0c-0.8,0.7-1.4,1.4-1.7,2.4c-0.4,1-0.7,2-0.9,3c-0.1,0.3-0.1,0.7,0,1
						c0,0,0,0.1-0.1,0.1c-0.4,0.3-0.9,0.7-1.4,0.7c0,0-0.1,0-0.1-0.1c0-0.8,0-1.4,0.1-2.2c0.1-1,0.4-1.9,0.8-2.7
						C57,162,58.2,160.6,59.7,159.5L59.7,159.5z"/>
					<path d="M44.8,157c-0.1-0.1,0-0.1,0.1-0.2c0.8-0.3,1.4-0.7,2.2-0.9c1.6-0.5,3.3-0.5,4.7-0.2c0.2,0,0.4,0.2,0.8,0.1
						c0,0,0,0,0.1,0v0.1c0,0-0.1,0.1-0.2,0.1c-0.4,0.2-0.8,0.4-1.2,0.7c-0.4,0.2-0.9,0.5-1.4,0.7c-0.7,0.1-1.3,0.4-2,0.7
						c-0.2,0.1-0.2,0.2-0.1,0.3c0.1,0.1,0.2,0.1,0.3,0.2c0.9,0.7,1.7,1.2,2.8,1.4c1,0.2,2.1,0.3,3.1,0.3c0.1,0,0.2,0,0.2,0.1
						c0.2,0.3,0.3,0.8,0.5,1.1c0.1,0.1,0,0.2-0.1,0.2c-0.3,0-0.7,0.1-1,0.1c-2.1,0.1-3.9-0.3-5.6-1.4c-1-0.5-1.7-1.3-2.4-2.3
						C45.4,157.8,45.1,157.4,44.8,157z"/>
					<path d="M58,174.9c0.2,0.2,0.2,0.2-0.1,0.3c-1.1,0.4-2.3,0.7-3.5,0.9c-1.2,0.2-2.4,0.2-3.6,0c-0.1,0-0.1,0-0.2-0.1
						c0-0.1,0.1-0.1,0.1-0.2c0.5-0.3,1-0.7,1.5-1c0.2-0.1,0.3-0.2,0.7-0.3c0.8-0.1,1.4-0.3,2.1-0.8c0.2-0.1,0.2-0.1,0.1-0.3
						c-1-0.9-2.1-1.4-3.4-1.7c-1-0.2-2.1-0.4-3.2-0.2c0,0-0.1,0-0.1-0.1c0-0.2-0.1-0.4-0.1-0.7c0-0.1,0-0.2,0-0.3c0,0,0-0.1,0.1-0.2
						c0,0,0,0,0.1,0s0.1,0,0.2,0c0.4-0.1,0.8-0.1,1.2-0.2c0.8-0.1,1.6,0.1,2.4,0.2c1.1,0.2,2.1,0.5,3,1.2c1,0.7,1.7,1.4,2.3,2.4
						C57.5,174.4,57.7,174.6,58,174.9z"/>
					<path d="M41.4,173.4c-0.1,0.1-0.1,0.1-0.2,0c-0.2-0.3-0.4-0.8-0.4-1.2c-0.2-0.9-0.2-1.9-0.2-2.8c0-1,0.1-2,0.4-3
						c0-0.1,0-0.1,0.1-0.2h0.1c0,0.1,0.1,0.2,0.1,0.2c0.3,0.4,0.5,1,0.9,1.4c0.1,0.2,0.2,0.3,0.2,0.7c-0.1,0.8,0.2,1.3,0.5,1.9
						c0.1,0.1,0.1,0.1,0.2,0c0.7-0.7,1.1-1.3,1.5-2.1c0.8-1.4,1.2-2.8,1.2-4.2c0-0.1,0-0.2,0.2-0.2c0,0,0,0,0.1,0
						c0.3-0.2,0.7-0.3,1-0.5l0.1-0.1c0,0,0,0,0-0.1h0.1c0,0.1,0,0.2,0,0.3c0.1,2.2-0.7,4.3-1.9,6.2c-0.8,1.2-1.9,2.2-3.1,3.1
						C42.1,172.9,41.7,173.2,41.4,173.4z"/>
					<path d="M50.6,157.5c0.2-0.2,0.4-0.3,0.7-0.5c0.7-0.4,1.4-0.8,2.2-1c1.3-0.2,2.6-0.2,3.8,0c1.1,0.2,2.2,0.7,3.2,1
						c0.2,0.1,0.4,0.2,0.7,0.4c0.3,0.3,0.3,0.2,0,0.5c0,0,0,0-0.1,0.1c-1.1,0.9-2.3,1.6-3.4,2.5c-0.1,0-0.1,0.1-0.1,0.1
						c-0.1,0.1-0.1,0.1-0.2,0c-0.2-0.3-0.4-0.7-0.7-1c-0.1-0.1-0.1-0.2,0.1-0.3c0.3-0.3,0.7-0.5,1.1-0.9c0.1-0.1,0.1-0.2,0-0.2
						c-0.3-0.2-0.5-0.3-0.9-0.4c-1.4-0.4-2.8-0.3-4.2,0.3c-0.4,0.2-0.8,0.4-1.2,0.7c-0.2,0.1-0.4,0.3-0.7,0.4c0,0-0.1,0-0.2,0
						c-0.3-0.2-0.8-0.4-1.1-0.7c-0.1-0.1-0.1-0.1,0-0.2C49.9,158.1,50.3,157.8,50.6,157.5L50.6,157.5z"/>
					<path d="M56.5,171.9c-0.1-0.2-0.3-0.3-0.4-0.5c-0.1-0.2-0.1-0.2,0.1-0.2c0,0,0,0,0.1,0c0.4-0.1,0.9-0.3,1.3-0.4
						c0.1,0,0.2-0.1,0.2,0.1c0,0,0,0,0.1,0.1c0.2,0.2,0.3,0.3,0.5,0.5c0.2,0.3,0.2,0.3,0.5-0.1c0.4-0.8,0.7-1.6,0.9-2.5
						c0.1-0.8,0.1-1.4-0.1-2.1c-0.1-0.4-0.3-0.9-0.7-1.2c-0.1-0.2-0.2-0.4-0.4-0.7c-0.1-0.1-0.1-0.1,0-0.2c0.1-0.2,0.2-0.4,0.3-0.7
						c0.1-0.2,0.2-0.4,0.3-0.7c0-0.1,0.1-0.2,0.2,0c0.2,0.2,0.4,0.5,0.7,0.8c0.4,0.5,0.9,1.1,1.1,1.7c0.4,1.2,0.4,2.5,0.2,3.8
						c-0.2,1.2-0.7,2.4-1.2,3.5c-0.3,0.7-0.7,1.2-1,1.7h-0.1l-0.1-0.1c-0.2-0.2-0.3-0.5-0.5-0.8C57.7,173.2,57,172.5,56.5,171.9
						C56.5,171.7,56.5,171.7,56.5,171.9z"/>
					<path d="M44.8,158.3c0.4,0.5,0.8,1.1,1.2,1.7c0.2,0.2,0.3,0.4,0.4,0.8c0.1,0.2,0.1,0.2-0.1,0.3c-0.3,0.1-0.8,0.2-1.1,0.3
						c-0.1,0-0.3,0.1-0.3-0.1l0,0c-0.2-0.2-0.4-0.4-0.7-0.8c-0.1-0.1-0.1,0-0.2,0c-0.7,0.7-1.1,1.4-1.2,2.3c-0.1,0.7,0,1.2,0.1,1.9
						c0.1,1,0.5,1.9,1.3,2.6v0.1c-0.2,0.4-0.4,0.9-0.7,1.3c0,0-0.1,0.1-0.1,0c-0.2-0.2-0.4-0.4-0.7-0.7c-0.3-0.4-0.7-0.9-0.9-1.3
						c-0.4-0.8-0.7-1.4-0.7-2.3c0-1,0.1-2,0.3-3.1c0.2-1.4,1-2.6,1.9-3.8c0.1-0.1,0.1-0.2,0.2-0.2c0.2-0.2,0.2-0.2,0.4,0
						C44.2,157.6,44.5,158,44.8,158.3C44.7,158.3,44.8,158.3,44.8,158.3z"/>
					<path d="M50.8,175.4c-0.8,0.3-1.5,0.7-2.3,0.8c-0.9,0.1-1.7,0.1-2.6,0c-1.6-0.2-3.2-0.8-4.3-1.6l-0.1-0.1h0.1l0.1-0.1
						c0.8-0.7,1.6-1.2,2.4-1.9c0.3-0.3,0.8-0.5,1.2-0.8l0.1-0.1c0,0,0-0.1,0.1-0.1c0,0,0,0.1,0.1,0.1c0.1,0.4,0.2,0.8,0.4,1.1
						c0,0.1,0,0.1,0,0.2c-0.3,0.3-0.7,0.7-1,1c-0.1,0.1-0.1,0.2,0,0.3c0.2,0.2,0.5,0.3,1,0.4c1,0.2,2,0.2,3,0c0.9-0.2,1.7-0.7,2.6-1
						l0.1-0.1c0.2-0.1,0.3-0.2,0.5-0.3h0.1c0.4,0.1,0.8,0.3,1.2,0.5c0.1,0.1,0.1,0.1,0,0.2c-0.3,0.3-0.8,0.5-1.1,0.9
						C51.7,174.9,51.3,175.1,50.8,175.4z"/>
					<path d="M55.8,158.6c0.1,0.1,0.1,0.2,0.2,0.3c0.8,1.4,0.7,3-0.1,4.5c0,0-0.1,0.1-0.2,0.1c-0.1,0-0.1,0-0.2,0
						c-0.3,0-0.7,0.1-1,0.1c-0.1,0-0.1,0-0.2,0c-0.1,0-0.1-0.1-0.1-0.1c0.2-0.5,0.4-1,0.7-1.5c0.2-0.4,0.2-0.9,0.1-1.3
						c-0.3-1-1-1.6-1.9-2.2l-0.1-0.1c0.1-0.1,0.1-0.1,0.2-0.2c0.7-0.1,1.2-0.3,1.9-0.4c0,0,0.1,0,0.1,0.1c0,0,0,0.1,0.1,0.1
						C55.4,158.3,55.6,158.4,55.8,158.6L55.8,158.6z"/>
					<path d="M55.6,170.4c-0.7,0.1-1.3,0.1-1.9-0.1c-0.3-0.1-0.3-0.1-0.3-0.4c0-0.4,0-0.8,0-1.2v-0.1v-0.1h0.1
						c0.1,0.1,0.3,0.2,0.5,0.2c0.3,0,0.7,0.1,1,0.1c0.4,0,0.9,0,1.3-0.2c0.8-0.2,1.3-0.8,1.9-1.3c0.2-0.2,0.3-0.4,0.4-0.7
						c0,0,0.1-0.1,0.1,0l0.1,0.1c0.3,0.4,0.4,1,0.4,1.6c0,0,0,0.1-0.1,0.1c-0.1,0.1-0.3,0.3-0.4,0.4
						C57.8,169.8,56.7,170.2,55.6,170.4z"/>
					<path d="M43.6,164.8c0-0.4-0.1-0.9-0.1-1.2c0-0.2,0-0.4,0.2-0.5c0.2-0.2,0.3-0.4,0.5-0.7c0.5-0.4,1.1-0.7,1.7-0.9
						c0.9-0.2,1.7-0.3,2.5,0c0.2,0.1,0.4,0.2,0.7,0.3l0.1,0.1c0.1,0.4,0.1,0.8,0.2,1.2c0,0.2-0.1,0.3-0.2,0.2
						c-0.4-0.2-0.9-0.4-1.4-0.4c-1.1,0-2.2,0.3-3.2,1.1c-0.3,0.3-0.7,0.5-0.8,1C43.7,164.8,43.7,164.9,43.6,164.8
						C43.7,164.9,43.6,164.9,43.6,164.8C43.6,164.9,43.6,164.8,43.6,164.8z"/>
					<path d="M47,173.2c-0.1-0.1-0.1-0.1-0.2-0.2c-0.7-0.9-0.9-1.7-0.7-2.8c0.1-0.4,0.1-1,0.3-1.4c0,0,0,0,0-0.1s0.1-0.1,0.2-0.2
						c0.5-0.1,1-0.2,1.5-0.1c0.2,0,0.2,0.1,0.1,0.2c-0.1,0.1-0.2,0.2-0.2,0.3c-0.3,0.5-0.4,1.1-0.4,1.7c0,0.3,0,0.7,0.2,1
						c0.2,0.5,0.7,1.1,1.2,1.5c0.1,0.1,0.3,0.2,0.4,0.3h0.1l-0.1,0.1c-0.4,0.1-0.9,0.2-1.4,0.3c-0.1,0-0.2,0-0.3-0.1
						C47.4,173.6,47.2,173.4,47,173.2L47,173.2z"/>
				</g>
			</g>
		</g>
	</g>
</g>
<g>
	<g>
		<path fill="#C4BA98" stroke="#000000" stroke-width="0.5" stroke-miterlimit="10" d="M502.4,626.1v-13h10.2v2.3h-7.8v3.4h4.2v2.4
			h-4.2v4L502.4,626.1z"/>
		<path fill="#C4BA98" stroke="#000000" stroke-width="0.5" stroke-miterlimit="10" d="M515.3,616.2c0-1.2,0.2-2,0.5-2.4
			c0.3-0.4,1-0.6,2-0.6h7.4c1,0,1.6,0.2,2,0.6c0.3,0.4,0.5,1.2,0.5,2.4v6.9c0,1.2-0.2,2-0.5,2.4c-0.3,0.4-1,0.6-2,0.6h-7.4
			c-1,0-1.6-0.2-2-0.6c-0.3-0.4-0.5-1.2-0.5-2.4V616.2z M517.7,623.7h7.7v-8.3h-7.7V623.7z"/>
		<path fill="#C4BA98" stroke="#000000" stroke-width="0.5" stroke-miterlimit="10" d="M532.6,624.1v-11h8.6c0.8,0,1.4,0.2,1.7,0.6
			c0.4,0.4,0.5,1,0.5,1.9v3.1c0,0.9-0.2,1.5-0.5,1.9c-0.4,0.4-0.9,0.6-1.7,0.6h-1.3l4.7,4.9h-3.4l-4.1-4.9h-2.2v2.3L532.6,624.1z
			 M540.2,615.3h-5.3v3.6h5.3c0.4,0,0.7-0.1,0.8-0.2c0.1-0.1,0.2-0.4,0.2-0.8v-1.6c0-0.4-0.1-0.6-0.2-0.8
			C540.9,615.4,540.6,615.3,540.2,615.3z"/>
	</g>
	<g>
		<path fill="#C4BA98" stroke="#000000" stroke-width="0.5" stroke-miterlimit="10" d="M484.8,652.4c0.9-0.1,1.4,0.3,1.4,1.2v1.5
			h2.5c1,0,1.2,0.3,0.7,1h-3.2c0,1.7,0.1,2.5,0.3,2.5c0.5,0.1,0.8,0,1.2-0.2c1.1-0.2,1.6,0.2,1.5,1.2c-0.1,0.8-0.2,1.9-0.2,3.4
			c0.1,1.1-0.5,1.5-1.7,1.2c-1.4-0.5-2.8-0.5-4.2,0c-0.9,0.6-1.4,0.3-1.5-0.8c-0.1-1.1-0.3-2.4-0.7-3.7c0.1-0.9,0.7-1.2,1.9-0.8
			c0.9,0.1,1.4-0.1,1.4-0.7c0-1.2,0-2.4-0.2-3.6C483.7,653,484,652.2,484.8,652.4z M483.1,660.5c-0.1,1.4,0.1,2.1,0.7,2.2
			c2.6,0.3,3.8,0,3.6-1.2c0.2-1.6-0.8-2.2-3.2-1.9C483.5,659.6,483.1,659.9,483.1,660.5z M489.9,656.6c0.5,0,0.7,0,0.8-0.2
			c-0.1-1.2-0.2-2.4-0.2-3.6c-0.1-0.8,0.3-1.1,1.2-1c0.6,0,0.8,0.3,0.8,0.8c-0.1,1-0.1,2.2,0,3.6c3.7-0.6,5.5-0.6,5.4,0
			c0.2,0.3,0.2,0.5-0.2,0.5c-1.7,0.2-3.4,0.5-5.1,0.8c0.3,1,0.7,1.9,1,2.5c0.5-0.6,0.9-1.2,1.4-2c0.3-0.3,0.7-0.5,1-0.3
			c0.5,0.3,0.6,0.7,0.5,1.2c-0.7,0.9-1.3,1.6-1.9,2.2c1.2,1.2,3.3,1.8,6.1,1.7c0.2,0.1-0.1,0.7-1,1.7c-1.2,1.2-2.5,1.5-3.9,0.7
			c-0.6-0.5-1.5-1.3-2.7-2.5c-1.1,0.8-2.3,1.2-3.6,1.4c-0.6-0.1-0.7-0.3-0.3-0.7c1.1-0.3,2.1-1,3.1-2c-0.5-0.7-0.9-1.8-1.4-3.4
			c-0.6,0.1-1.1,0.3-1.5,0.5c-0.7,0.1-1-0.2-0.8-1C488.7,657,489.1,656.7,489.9,656.6z M495.3,652.7c0.3-0.8,0.8-1,1.4-0.7
			c0.6,0.3,0.7,0.8,0.5,1.4c-0.5,0.7-1.2,1.1-2.2,1.2c-0.5,0-0.6-0.2-0.5-0.5C494.8,653.6,495.1,653.1,495.3,652.7z"/>
		<path fill="#C4BA98" stroke="#000000" stroke-width="0.5" stroke-miterlimit="10" d="M508.7,656.6c0.6,0,1,0.2,1.2,0.5
			c-0.1,0.5-0.5,0.6-1.2,0.5c-0.7,0-1.4,0-2,0.2c0.2,0.3,0.1,0.7-0.3,1l-0.8,0.8c-0.3,0.5,0,0.7,0.8,0.8c0.7,0.1,1.2-0.1,1.7-0.7
			l-0.5-1c0.1-0.3,0.3-0.5,0.7-0.3c0.3,0.2,0.7,0.5,1,0.7c0.2,0.5,0.5,1,0.8,1.5c-0.1,0.2-0.2,0.3-0.3,0.3c-0.5,0.1-0.9-0.1-1.4-0.7
			c-0.7,1.2-1.4,1.7-2.2,1.4c-0.7-0.5-1.3-0.5-1.9-0.2c-0.2,0-0.5-0.2-0.7-0.5c-0.1-0.5,0.1-0.9,0.7-1.4c1-0.9,1.4-1.5,1-1.9
			c-0.5-0.1-1.1,0-2,0.3c-0.3,0.2-0.6,0.2-0.7-0.2c0.1-0.8,0.5-1.2,1.2-1.4L508.7,656.6L508.7,656.6z M508.7,654.2
			c0.3,0,0.6,0.2,0.7,0.5c0,0.3-0.1,0.5-0.3,0.5h-2.7c-0.8,0-1.5,0-2.2,0.2c-0.2-0.1-0.3-0.3-0.3-0.7c0.1-0.3,0.3-0.6,0.7-0.8
			C505.2,654.1,506.7,654.2,508.7,654.2z M513.1,658.9c-0.3-0.1-0.7-0.1-1,0c-0.3,0.2-0.7,0.4-1,0.5c-0.2,0-0.4,0-0.5-0.2
			c-0.2-1.7-0.5-3.2-0.7-4.6c-0.1-0.7,0.2-1,1-1c0.3,0.2,0.9,0.3,1.7,0.2c0.3-0.3,0.7-0.9,1.2-1.7c0.1-0.2,0.3-0.3,0.7-0.3
			c1,0.3,1.3,0.7,0.8,1.2c-0.3,0.3-0.6,0.6-0.8,0.8c0.8,0,1.8,0.1,3.1,0.3c0.3-0.1,0.6-0.2,0.8-0.3c0.3-0.1,0.6,0,0.8,0.2
			c0.5,0.3,0.6,0.8,0.3,1.5c-0.3,1-0.6,2.1-0.7,3.2l-0.5,0.3c0.5,0.3,0.5,0.6,0.2,0.8c-0.2,0.2-0.5,0.5-0.7,0.7
			c-0.2,0.1-0.2,0.3,0.2,0.5c0.5,0.1,0.8,0,1.2-0.2c-0.5-0.3-0.5-0.6-0.2-0.7c0.5,0,0.8,0,1,0.2c0.2,0.3,0.5,0.7,0.7,1
			c-0.1,0.1-0.3,0.2-0.5,0.3l-0.7-0.5c-0.2,0.7-0.6,1-1.2,0.8c-0.5-0.3-0.9-0.5-1.4-0.3c-0.3-0.2-0.5-0.5-0.3-0.8
			c0.2-0.2,0.5-0.5,0.7-0.8c0.1-0.2,0.3-0.6,0.5-1c-0.9-0.1-2-0.2-3.2-0.2c-0.8,2.6-2.3,4.5-4.6,5.6c-1.8,0.7-3.1,0.4-4.1-0.8
			c0-0.1,0.2-0.2,0.7-0.2C510.2,663.2,512.3,661.7,513.1,658.9z M513.6,654.7c-0.8,0-1.4,0.1-1.9,0.3c-0.2,0.7-0.1,1,0.3,1l1.9-0.2
			C514,655.3,513.9,654.9,513.6,654.7z M513.8,656.7c-0.6,0-1.2,0-2,0.2c0,0.8,0.2,1.2,0.5,1.2l1.2-0.2L513.8,656.7z M515,659.8
			c0.1-0.5,0.3-0.7,0.7-0.7c0.2,0,0.4,0.1,0.5,0.3c-0.2,0.5-0.4,0.9-0.5,1.4c0,0.5,0,0.8,0.2,1c0.5,0.6,1.4,1,2.7,1.2
			c1.1,0.1,2.2,0,3.2-0.3c0.7-0.3,1.1-0.4,1.4-0.2c-0.1,0.7-0.5,1.5-1.2,2.4c-0.8,0.7-1.5,0.9-2,0.7c-1.9-0.3-3.5-1.1-4.7-2.4
			c-0.6-0.7-0.8-1.3-0.7-1.9C514.7,660.7,514.8,660.2,515,659.8z M517.5,658.3c0.2-0.5,0.3-0.8,0.2-1.2c-0.5-0.2-1.3-0.3-2.5-0.3
			c-0.1,0.5-0.2,0.9-0.2,1.4C515.9,658.2,516.7,658.3,517.5,658.3z M515.3,655.9l1.9,0.2c0.5,0.1,0.7-0.1,0.7-0.7
			c0-0.5-0.7-0.7-2-0.7C515.5,654.8,515.3,655.2,515.3,655.9z"/>
		<path fill="#C4BA98" stroke="#000000" stroke-width="0.5" stroke-miterlimit="10" d="M530.2,655.7c0.2-0.5,0.4-0.7,0.5-0.7
			c0.6-0.1,0.7,0.3,0.5,1.2c-0.3,1-0.8,2.1-1.5,3.2c-0.6,0.9-1.1,1.6-1.7,2c-1.1,1-2.3,1-3.6-0.2c-0.3-0.3-0.2-0.7,0.3-1
			C526.7,659.4,528.5,657.9,530.2,655.7z M534.1,652.4c1.1-0.1,1.6,0.5,1.5,1.9c-0.1,2.8,0,6,0.2,9.5c0,1.4-1.1,2-3.2,1.9
			c-1.1-0.1-2.4-0.7-3.9-1.9c-0.2-0.6-0.1-0.8,0.3-0.8c2.1,0.7,3.4,0.8,3.9,0.3c0.3-0.2,0.5-3.4,0.3-9.5
			C533.2,652.8,533.5,652.4,534.1,652.4z M536.8,656.2c-0.3-0.5-0.3-0.8,0.2-1c0.2-0.1,0.5,0,0.7,0.2c1.6,2,3.9,3.8,7.1,5.2
			c-0.3,0.6-0.7,1-1,1.2c-1,0.9-2,0.9-2.9,0C539.4,660,538,658.1,536.8,656.2z"/>
		<path fill="#C4BA98" stroke="#000000" stroke-width="0.5" stroke-miterlimit="10" d="M553.5,658.6c-0.3,1.1-0.7,2-1,2.5l2.2-0.3
			c-0.1-0.5-0.2-0.9-0.2-1.4c0.1-0.5,0.5-0.7,1.2-0.8c0.5,0,0.8,0.1,1.2,0.3c0.5,0.1,0.8,0.1,1,0v-5.6c0-0.7,0.2-1.1,0.7-1.2
			c1.1,0,1.7,0.4,1.7,1.2c-0.1,0.6-0.2,1-0.2,1.4c2.4,0.1,4.3,0.2,5.9,0.2c0,0.6-0.2,1.1-0.5,1.5c-0.5,0.5-0.9,0.6-1.4,0.3
			c-1.8-0.6-3.1-0.7-4.1-0.5c-0.2,0.9-0.2,1.8,0,2.7c0.8,0.1,1.4,0,1.9-0.2c1.5-0.5,2.2,0,2.2,1.2c-0.2,0.9-0.3,2-0.3,3.4
			c0.2,1.5-0.3,2-1.5,1.5c-1.6-0.2-3.3-0.3-5.1-0.2c-1.4,0.7-2.1,0.3-2.2-1.2c0-0.3,0-1-0.2-1.9c-2.3,1-4.9,1.8-7.9,2.4
			c-1,0.2-1.5-0.2-1.4-1.2c0-0.6,0.6-0.9,1.7-1c1.2-0.1,2.6-0.3,4.2-0.5c0.3-1.2,0.5-2.4,0.5-3.6c0-0.8,0.2-1.2,0.7-1.2
			C553.6,656.7,553.9,657.4,553.5,658.6z M552.2,653.4c-0.1,1.4,0,2,0.3,1.9l2.4,0.2c0.6,0.5,0.6,0.8,0.2,1
			c-0.2,0.1-0.6,0.2-1.2,0.2c-2.3-0.5-4.6-0.3-6.9,0.5c-0.5,0.1-0.7,0-0.7-0.5c0.2-1,0.7-1.5,1.4-1.4c0.9,0.2,1.6,0.3,2,0.2
			c0.3-0.1,0.5-0.8,0.3-2c0.1-0.5,0.3-0.7,0.7-0.7C551.3,652.6,551.8,652.8,552.2,653.4z M550.5,660.8c-0.2,0.3-0.5,0.4-0.8,0.2
			c-0.7-1-1.1-1.9-1.2-2.7c-0.1-0.8,0.2-1.2,0.8-1.4c0.6-0.1,0.8,0.1,0.8,0.7C550.3,658.7,550.4,659.8,550.5,660.8z M560,660.1
			c-1.6-0.1-2.6,0-3.1,0.3c-0.3,0.8-0.3,1.6,0,2.4c0.1,0.6,1.4,0.7,3.7,0.5c1,0,1.5-0.6,1.5-1.7C562.1,660.5,561.4,660,560,660.1z"
			/>
	</g>
	
		<linearGradient id="SVGID_26_" gradientUnits="userSpaceOnUse" x1="430.1352" y1="279.9186" x2="430.1352" y2="279.9186" gradientTransform="matrix(1.0929 0 0 -1.0929 0 955.5428)">
		<stop  offset="0" style="stop-color:#C4BA98"/>
		<stop  offset="1.474962e-002" style="stop-color:#CEC5A9"/>
		<stop  offset="4.332456e-002" style="stop-color:#DDD7C4"/>
		<stop  offset="7.615717e-002" style="stop-color:#EAE6DA"/>
		<stop  offset="0.1145" style="stop-color:#F3F1EB"/>
		<stop  offset="0.162" style="stop-color:#FAF9F6"/>
		<stop  offset="0.2285" style="stop-color:#FEFEFD"/>
		<stop  offset="0.4133" style="stop-color:#FFFFFF"/>
		<stop  offset="0.4696" style="stop-color:#DDDBD8"/>
		<stop  offset="0.5499" style="stop-color:#B2AFA6"/>
		<stop  offset="0.6258" style="stop-color:#908B7F"/>
		<stop  offset="0.6952" style="stop-color:#787263"/>
		<stop  offset="0.7558" style="stop-color:#696252"/>
		<stop  offset="0.801" style="stop-color:#645D4C"/>
		<stop  offset="0.8499" style="stop-color:#776F5B"/>
		<stop  offset="0.9484" style="stop-color:#A89F82"/>
		<stop  offset="1" style="stop-color:#C4BA98"/>
	</linearGradient>
	
		<linearGradient id="SVGID_27_" gradientUnits="userSpaceOnUse" x1="430.1352" y1="279.9186" x2="430.1352" y2="279.9186" gradientTransform="matrix(1.0929 0 0 -1.0929 0 955.5428)">
		<stop  offset="0" style="stop-color:#C4BA98"/>
		<stop  offset="1.389108e-002" style="stop-color:#C7BD9D"/>
		<stop  offset="0.1655" style="stop-color:#E5E1D2"/>
		<stop  offset="0.2794" style="stop-color:#F8F7F3"/>
		<stop  offset="0.3418" style="stop-color:#FFFFFF"/>
		<stop  offset="0.4046" style="stop-color:#E1E0DC"/>
		<stop  offset="0.5083" style="stop-color:#B5B1A9"/>
		<stop  offset="0.6058" style="stop-color:#928D81"/>
		<stop  offset="0.6943" style="stop-color:#797364"/>
		<stop  offset="0.7708" style="stop-color:#696352"/>
		<stop  offset="0.8265" style="stop-color:#645D4C"/>
		<stop  offset="0.8691" style="stop-color:#776F5B"/>
		<stop  offset="0.955" style="stop-color:#A89F82"/>
		<stop  offset="1" style="stop-color:#C4BA98"/>
	</linearGradient>
	<path fill="url(#SVGID_26_)" stroke="url(#SVGID_27_)" stroke-width="0.5" stroke-miterlimit="10" d="M470.1,649.6"/>
	
		<linearGradient id="SVGID_28_" gradientUnits="userSpaceOnUse" x1="439.2171" y1="286.7955" x2="439.2171" y2="286.7955" gradientTransform="matrix(1.0929 0 0 -1.0929 0 955.5428)">
		<stop  offset="0" style="stop-color:#C4BA98"/>
		<stop  offset="1.474962e-002" style="stop-color:#CEC5A9"/>
		<stop  offset="4.332456e-002" style="stop-color:#DDD7C4"/>
		<stop  offset="7.615717e-002" style="stop-color:#EAE6DA"/>
		<stop  offset="0.1145" style="stop-color:#F3F1EB"/>
		<stop  offset="0.162" style="stop-color:#FAF9F6"/>
		<stop  offset="0.2285" style="stop-color:#FEFEFD"/>
		<stop  offset="0.4133" style="stop-color:#FFFFFF"/>
		<stop  offset="0.4696" style="stop-color:#DDDBD8"/>
		<stop  offset="0.5499" style="stop-color:#B2AFA6"/>
		<stop  offset="0.6258" style="stop-color:#908B7F"/>
		<stop  offset="0.6952" style="stop-color:#787263"/>
		<stop  offset="0.7558" style="stop-color:#696252"/>
		<stop  offset="0.801" style="stop-color:#645D4C"/>
		<stop  offset="0.8499" style="stop-color:#776F5B"/>
		<stop  offset="0.9484" style="stop-color:#A89F82"/>
		<stop  offset="1" style="stop-color:#C4BA98"/>
	</linearGradient>
	
		<linearGradient id="SVGID_29_" gradientUnits="userSpaceOnUse" x1="439.2171" y1="286.7955" x2="439.2171" y2="286.7955" gradientTransform="matrix(1.0929 0 0 -1.0929 0 955.5428)">
		<stop  offset="0" style="stop-color:#C4BA98"/>
		<stop  offset="1.389108e-002" style="stop-color:#C7BD9D"/>
		<stop  offset="0.1655" style="stop-color:#E5E1D2"/>
		<stop  offset="0.2794" style="stop-color:#F8F7F3"/>
		<stop  offset="0.3418" style="stop-color:#FFFFFF"/>
		<stop  offset="0.4046" style="stop-color:#E1E0DC"/>
		<stop  offset="0.5083" style="stop-color:#B5B1A9"/>
		<stop  offset="0.6058" style="stop-color:#928D81"/>
		<stop  offset="0.6943" style="stop-color:#797364"/>
		<stop  offset="0.7708" style="stop-color:#696352"/>
		<stop  offset="0.8265" style="stop-color:#645D4C"/>
		<stop  offset="0.8691" style="stop-color:#776F5B"/>
		<stop  offset="0.955" style="stop-color:#A89F82"/>
		<stop  offset="1" style="stop-color:#C4BA98"/>
	</linearGradient>
	<path fill="url(#SVGID_28_)" stroke="url(#SVGID_29_)" stroke-width="0.5" stroke-miterlimit="10" d="M480,642.1"/>
	<g>
		<g>
			<path fill="#C4BA98" stroke="#000000" stroke-width="0.5" stroke-miterlimit="10" d="M475.6,633h-6.5v5.1h3.5v3.5h-3.5v6.3
				l-2,0.9v-19.2h8.5V633"/>
			<path fill="#C4BA98" stroke="#000000" stroke-width="0.5" stroke-miterlimit="10" d="M478,645.5v-1v-14.9h7.2
				c0.7,0,1.1,0.3,1.5,0.9c0.3,0.6,0.5,1.6,0.5,2.9v4.5c0,1.3-0.1,2.3-0.5,2.9c-0.3,0.6-0.8,0.9-1.5,0.9h-1.1l3.9,7.3h-2.8l-3.4-7.3
				H480v2.4v1.1L478,645.5z M484.3,633h-4.4v5.4h4.4c0.3,0,0.6-0.1,0.7-0.3s0.2-0.6,0.2-1.2v-2.3c0-0.6-0.1-1-0.2-1.2
				C484.9,633.1,484.7,633,484.3,633z"/>
			<path fill="#C4BA98" stroke="#000000" stroke-width="0.5" stroke-miterlimit="10" d="M491,649v-19.3h2V649H491z"/>
			<path fill="#C4BA98" stroke="#000000" stroke-width="0.5" stroke-miterlimit="10" d="M497.2,649v-19.3h8.6v3.3h-6.6v4.3h3.9v3.3
				h-3.9v4.8h6.7v3.7L497.2,649L497.2,649z"/>
			<path fill="#C4BA98" stroke="#000000" stroke-width="0.5" stroke-miterlimit="10" d="M509.5,649v-19.3h1.3l5.9,11.4
				c0.2,0.4,0.4,0.7,0.5,1.1c0.1,0.3,0.3,0.7,0.4,1c0-1.1,0-1.9-0.1-2.3c0-0.5,0-0.8,0-1v-10.2h1.7V649H518l-6.1-11.9
				c-0.1-0.3-0.3-0.6-0.4-0.8c-0.1-0.2-0.2-0.5-0.3-0.7c0,0.6,0,1.2,0,1.7c0,0.5,0,1,0,1.4V649H509.5L509.5,649z"/>
			<path fill="#C4BA98" stroke="#000000" stroke-width="0.5" stroke-miterlimit="10" d="M523.6,649v-19.3h5.4c1.5,0,2.7,0.8,3.5,2.5
				c0.8,1.7,1.2,4,1.2,7.1c0,1.8-0.2,3.4-0.5,4.9c-0.3,1.5-0.8,2.6-1.4,3.4c-0.4,0.5-0.8,0.9-1.4,1.1c-0.5,0.2-1.2,0.4-2.1,0.4
				L523.6,649L523.6,649z M525.5,645.4h2.5c1.3,0,2.3-0.5,2.8-1.5c0.5-1,0.8-2.6,0.8-4.8c0-2-0.2-3.5-0.7-4.5
				c-0.5-1-1.1-1.5-2.1-1.5h-3.5L525.5,645.4L525.5,645.4z"/>
			<path fill="#C4BA98" stroke="#000000" stroke-width="0.5" stroke-miterlimit="10" d="M544.5,633h-5.5v4.2h5.2
				c0.8,0,1.4,0.3,1.6,1c0.3,0.6,0.4,1.8,0.4,3.6v2.7c0,1.8-0.1,3-0.4,3.6s-0.8,1-1.6,1h-5.2c-0.8,0-1.4-0.3-1.6-1s-0.4-1.8-0.4-3.6
				v-0.5l1.7-0.8v2.3h5.9v-4.4h-5.2c-0.8,0-1.4-0.3-1.6-1c-0.3-0.6-0.4-1.8-0.4-3.6v-2.1c0-1.8,0.1-3,0.4-3.6c0.3-0.6,0.8-1,1.6-1
				h4.7c0.8,0,1.3,0.3,1.6,0.9c0.3,0.6,0.5,1.7,0.5,3.3v0.4l-1.7,0.9V633L544.5,633z"/>
			<path fill="#C4BA98" stroke="#000000" stroke-width="0.5" stroke-miterlimit="10" d="M558.4,646.1v-5.4h-6.1v7.6l-2,0.7v-19.3h2
				v7.5h6.1v-7.5h2v15.7L558.4,646.1z"/>
			<path fill="#C4BA98" stroke="#000000" stroke-width="0.5" stroke-miterlimit="10" d="M564.7,649v-19.3h2V649H564.7z"/>
			<path fill="#C4BA98" stroke="#000000" stroke-width="0.5" stroke-miterlimit="10" d="M570.9,649v-19.3h7.2c0.7,0,1.1,0.3,1.5,0.9
				c0.3,0.6,0.5,1.6,0.5,2.9v4.3c0,1.3-0.1,2.2-0.5,2.8c-0.3,0.6-0.8,0.9-1.5,0.9h-5.2v6.7L570.9,649z M577.2,633h-4.4v5.1h4.4
				c0.3,0,0.6-0.1,0.7-0.3c0.1-0.2,0.2-0.6,0.2-1.2v-2.1c0-0.6-0.1-1-0.2-1.2C577.8,633.1,577.5,633,577.2,633z"/>
		</g>
	</g>
</g>
</svg>
