<?xml version="1.0" encoding="utf-8"?>
<!-- Generator: Adobe Illustrator 18.1.1, SVG Export Plug-In . SVG Version: 6.00 Build 0)  -->
<svg version="1.1" id="图层_1" xmlns="http://www.w3.org/2000/svg" xmlns:xlink="http://www.w3.org/1999/xlink" x="0px" y="0px"
	 viewBox="0 0 612 792" enable-background="new 0 0 612 792" xml:space="preserve">
<g id="参考线" display="none">
	<line display="inline" fill="none" stroke="#000000" stroke-miterlimit="10" x1="306.3" y1="473.8" x2="306.3" y2="702"/>
	<line display="inline" fill="none" stroke="#000000" stroke-miterlimit="10" x1="306.3" y1="90" x2="306.3" y2="473.8"/>
</g>
<g id="图层_2">
	<path fill="#0D0800" stroke="#000000" stroke-width="2" stroke-miterlimit="10" d="M185.8,641.8c30.3,14,120.5,12.7,120.5,12.7
		s90.3,1.2,120.5-12.7s93.3-61.2,93.3-61.2s-31.4,20.9-61.3-58.1c-27.5-72.7-14.4-109-14.4-109l-138.1-23.2l-138.1,23.2
		c0,0,13.1,36.3-14.4,109c-29.9,79-61.3,58.1-61.3,58.1S155.4,627.9,185.8,641.8s120.5,12.7,120.5,12.7"/>
	<g>
		<path fill="#736357" stroke="#000000" stroke-width="2" stroke-miterlimit="10" d="M155.1,414.3l-10.4-3.6c0,0,2.3,30.1,0,46.6
			c-2.3,16.5-9,53.7-26.2,68.7c-17.2,15-53.2,37.9-62.8,49.3c-9.7,11.3-16.5,17.2-21.7,42.8c0,0-4.5,17.2,0,30.8
			c4.5,13.6,13.3,33.6,13.3,33.6l94.2-125.9l26.2-113.1v-30.1L155.1,414.3z"/>
		<path fill="#C69C6D" stroke="#000000" stroke-width="2" stroke-miterlimit="10" d="M175.2,407.1c0,68.3-3.1,80.1-3.1,80.1
			c-12.6,50.6-29.6,91.4-43.1,120.2c-18,38.7-32.5,61.6-57.9,76.4c-3.1,1.7-20.8,11.9-24.9,7.7c-3.7-3.7,4.7-17,13-29.6
			c24.2-36.4,41.5-57.9,49.9-69.7c0,0,44.5-61.9,49-145.9c0.7-10.9,4.8-21.6,3.4-32.6c-0.2-2.2-1.2-8.1,2.3-12.5
			c2.1-2.5,5.8-4.9,8.2-3.8C175.2,398.6,175.2,404.5,175.2,407.1z"/>
	</g>
	<g>
		<path fill="#736357" stroke="#000000" stroke-width="2" stroke-miterlimit="10" d="M456.9,414.3l10.7-3.6c0,0-2.2,30.1,0.1,46.6
			c2.3,16.5,9.1,53.7,26.3,68.7c17.2,15,53.2,37.9,63.1,49.3c9.7,11.4,16.5,17.2,21.6,42.9c0,0,4.5,17.2,0,30.8
			c-4.5,13.6-13.3,33.6-13.3,33.6l-94.8-125.9l-26.8-112.9v-30.3L456.9,414.3z"/>
		<path fill="#C69C6D" stroke="#000000" stroke-width="2" stroke-miterlimit="10" d="M437.5,407.1c0,68.3,3.1,80.1,3.1,80.1
			c12.6,50.6,29.6,91.4,43.1,120.2c18,38.7,32.5,61.6,57.9,76.4c3.1,1.7,20.8,11.9,24.9,7.7c3.7-3.7-4.7-17-13-29.6
			c-24.2-36.4-41.5-57.9-49.9-69.7c0,0-44.5-61.9-49-145.9c-0.7-10.9-4.8-21.6-3.4-32.6c0.2-2.2,1.2-8.1-2.3-12.5
			c-2.1-2.5-5.8-4.9-8.2-3.8C437.5,398.6,437.5,404.5,437.5,407.1z"/>
	</g>
	<path fill="#999999" stroke="#000000" stroke-width="2" stroke-miterlimit="10" d="M311.2,150.7c14.8,4.8,36.3,13.7,58.9,31.4
		c8.2,6.4,27.6,22.4,46,49.6c33.1,48.6,40.4,99.6,44,125.5c4.2,29.9,3.5,55.2,2.1,74.5H305.6h-1.1H148c-1.4-19.3-2-44.5,2.1-74.5
		c3.5-25.8,10.9-76.7,44-125.1c18.6-27.1,37.8-43.3,46-49.7c22.6-17.8,44-26.7,58.8-31.5"/>
	<path fill="#F7931E" stroke="#000000" stroke-width="2" stroke-miterlimit="10" d="M260.9,420.6h90.3l-0.3-1
		c6.6-30.4,15.6-43.6,23.3-49.8c7.8-6.3,12.9-15.8,19.6-23.5c1-1.1,3.3-3.7,3-6.9c-0.3-3.4-3.5-5.7-6.7-7.6
		c-11.8-7.6-17.9-10.8-26.8-12.9c-3.5-0.9-8.5-2.4-14.6-2.2c-0.4,0.1-4,1.1-8.1-1.5c-4-2.5-3.4-8-3.3-8.5c0.9-3.5,2.1-5.8,2.5-6.4
		c9.6-17.9,19.2-38.7,28.5-61.9c7.1-17.8,12.9-34.8,17.6-50.5c-4-3.4-9.6-7.9-16.6-13c-7.6-5.5-15.2-10.7-23.3-14.8
		c-7.5-3.7-20-7.5-37.4-8.7h-4.2c-17.4,1.2-29.7,4.9-37.4,8.7c-8.1,4-15.6,9.3-23.3,14.9c-7,5.1-12.6,9.6-16.6,12.9
		c4.7,15.7,10.4,32.7,17.4,50.4c9.1,23.2,18.9,43.7,28.5,61.9c0.7,0.8,1.9,3,2.5,6.4c0.1,0.4,0.7,5.9-3.3,8.5
		c-4.2,2.6-7.6,1.7-8.1,1.5c-6.2-0.2-11.1,1.3-14.6,2.2c-8.9,2.1-15,5.2-26.8,12.9c-3.2,2.1-6.3,4.3-6.7,7.7c-0.2,3.2,2.1,5.8,3,6.9
		c6.7,7.6,11.8,17,19.6,23.4c7.7,6.2,16.5,19.6,23.1,50.1"/>
	<path fill="#808080" stroke="#000000" stroke-width="3" stroke-miterlimit="10" d="M306.9,282.5c2.2-2.3,12.7-19.8,15.2-24.7
		c7.9-16.1,7-15.8,11.9-39.5c4.6-22.4,6.8-42.5,8.9-59.3c-0.7-3.2-1.4-7.4-3.3-12.1c-4.4-12.1-10.9-20.1-13-22.3
		c-7.4-8.4-15.3-13.4-20.2-15.8H306c-4.9,2.4-12.9,7.4-20.2,15.8c-2,2.3-8.5,10.1-13,22.3c-1.7,4.7-2.6,9-3.3,12.1
		c2.1,16.8,4.3,36.9,8.9,59.3c4.9,23.6,4.2,23.4,11.9,39.5c2.4,4.9,13,22.4,15.2,24.7"/>
	<path fill="#754C24" stroke="#000000" stroke-miterlimit="10" d="M464.9,369.8H147.6c-2.2,0-4-1.9-4-4l0,0c0-2.2,1.9-4,4-4h317.3
		c2.2,0,4,1.9,4,4l0,0C468.9,367.9,467.1,369.8,464.9,369.8z"/>
	<path fill="#754C24" stroke="#000000" stroke-miterlimit="10" d="M464.7,415.8H148c-2.3,0-4.3,2-4.3,4.3l0,0c0,2.3,2,4.3,4.3,4.3
		h316.6c2.3,0,4.3-2,4.3-4.3l0,0C468.9,417.7,467,415.8,464.7,415.8z"/>
</g>
<g id="图层_3">
	<g>
		<g>
			<path fill="#333333" stroke="#000000" stroke-width="2" stroke-miterlimit="10" d="M189.4,433.9c2.4,4.8,10.3,19,28.5,27.9
				c3.3,1.5,17.4,8.1,36.5,6.7c21.2-1.5,35.2-12,39.8-15.7c-0.4,24-0.9,48.1-1.3,72.1c-11.4-9.7-22.1-16-29.8-20
				c-13.2-6.9-23.3-12-37.8-12.7c-5.2-0.2-17.9-0.8-31.1,6c-5.8,3.1-9.9,6.4-12.6,9.1c-5.9-9-15-25.5-15.8-47.2
				c-0.3-8.6,0.7-16.3,2-22.4C174.9,436.4,182.1,435.1,189.4,433.9z"/>
			<path fill="#333333" stroke="#000000" stroke-width="2" stroke-miterlimit="10" d="M423.3,433.9c-2.4,4.8-10.3,19-28.5,27.9
				c-3.3,1.5-17.4,8.1-36.5,6.7c-21.2-1.5-35.2-12-39.8-15.7c0.4,24,0.9,48.1,1.3,72.1c11.4-9.7,22.1-16,29.8-20
				c13.2-6.9,23.3-12,37.8-12.7c5.2-0.2,17.9-0.8,31.1,6c5.8,3.1,9.9,6.4,12.6,9.1c5.9-9,15-25.5,15.8-47.2c0.3-8.6-0.7-16.3-2-22.4
				C437.8,436.4,430.5,435.1,423.3,433.9z"/>
		</g>
		<path fill="none" stroke="#000000" stroke-width="2" stroke-miterlimit="10" d="M294,463c-6.3,4.4-18.8,11.5-36,13.7
			c-8.2,1.1-27.4,3.6-46.9-7.6c-17.6-10.2-25.2-25.9-27.9-32.3"/>
		<path fill="none" stroke="#000000" stroke-width="2" stroke-miterlimit="10" d="M294,515.6c-4.7-4.8-12-11.3-22.2-16.9
			c-3.3-1.9-17.4-9.3-37.6-11.8c-9.6-1.1-27.2-3.2-46.4,4.8c-2.5,1.1-4.7,2.1-6,2.8c-3.1-4.9-6.7-12.2-8.9-21.4
			c-3.6-15.3-1.7-28.1,0-35.2"/>
		<path fill="none" stroke="#000000" stroke-width="2" stroke-miterlimit="10" d="M318.7,463c6.3,4.4,18.8,11.5,36,13.7
			c8.2,1.1,27.4,3.6,46.9-7.6c17.6-10.2,25.2-25.9,27.9-32.3"/>
		<path fill="none" stroke="#000000" stroke-width="2" stroke-miterlimit="10" d="M318.7,515.6c4.7-4.8,12-11.3,22.2-16.9
			c3.3-1.9,17.4-9.3,37.6-11.8c9.6-1.1,27.2-3.2,46.4,4.8c2.5,1.1,4.7,2.1,6,2.8c3.1-4.9,6.7-12.2,8.9-21.4
			c3.6-15.3,1.7-28.1,0-35.2"/>
	</g>
	<path fill="none" stroke="#000000" stroke-width="2" stroke-miterlimit="10" d="M215.2,469.1"/>
	<g>
		<path fill="#DA8000" stroke="#000000" stroke-miterlimit="10" d="M308.2,413.9h-3.6h-0.1c-6.7-7.3-19.7-29.4-35.6-39
			c-17.2-10.3-34.4-12.3-54.3-0.7c-16.5,9.8-24.4,22.6-28.6,33.9c-3.4,9.1-3.2,16.9-10.9,24c-5.4,4.9-18.1,13.1-21.3,15.2
			c3,1.9,14.8,0.2,21.4,0.8c2.3,0.1,9.9-1,21.1-8.4c12-7.9,13.4-12,23.3-16.1c12.5-5.2,24.5-3.6,27.8-3.3
			c4.3,0.7,22.1,3.5,32.6,17.4c6.4,8.5,7.4,17.5,7.9,27c1.2,31.8-5.1,60.5-15.2,96.6c-2.4,8.5-6,21.2-10.9,36.5
			c2.6,4,9.3,13,21.6,18.8c9.2,4.3,17.7,4.4,22.5,5.6h0.4c4.8-1.2,13.3-1.2,22.5-5.6c12.3-5.8,19-14.6,21.6-18.8
			c-4.8-15.3-8.5-28-10.9-36.5c-10.2-36-16.5-64.8-15.2-96.6c0.3-9.6,1.3-18.7,7.9-27c10.5-13.8,28.3-16.8,32.6-17.4
			c3.4-0.4,15.3-2,27.8,3.3c9.9,4.2,11.3,8.2,23.3,16.1c11.1,7.3,18.8,8.5,21.1,8.4c6.7-0.4,18.6,1.1,21.4-0.8
			c-3.2-2.1-15.8-10.2-21.3-15.2c-7.6-7.1-7.5-14.9-10.9-24c-4.3-11.3-12.1-24.3-28.6-33.9c-19.8-11.8-37-9.7-54.3,0.7
			c-16,9.6-29,31.8-35.6,39H308.2z"/>
		<g>
			<path fill="#DA8000" stroke="#42210B" stroke-width="2" stroke-miterlimit="10" d="M288.4,394.8c-2.5,1.4-5.7,3.7-8.5,7.3
				c-1.5,2-5.2,6.7-6,13.7c-0.2,2.3-0.1,4.3,0,5.7"/>
			<path fill="#DA8000" stroke="#42210B" stroke-width="2" stroke-miterlimit="10" d="M263.3,374.3c-4.9,4-7.8,8.2-9.3,10.9
				c-4.7,8.5-4.8,16.6-4.8,21c0,4.6,0.7,8.4,1.2,10.9"/>
			<path fill="#DA8000" stroke="#42210B" stroke-width="2" stroke-miterlimit="10" d="M215.2,373.4c-1.5,3-4.6,9.4-4.5,18.1
				c0.2,9.7,4.4,16.4,5.2,17.8c3.8,6,8.7,9.3,11.3,10.9"/>
			<path fill="#DA8000" stroke="#42210B" stroke-width="2" stroke-miterlimit="10" d="M187,405.3c-2.4,6.7-0.9,14.1,4,19
				c4.6,4.7,11.4,6.6,17.8,4.8"/>
			<path fill="#DA8000" stroke="#42210B" stroke-width="2" stroke-miterlimit="10" d="M173.7,434.4c0,0.7-0.4,4.8,2.8,8.1
				c2.6,2.6,6.8,3.4,10.5,2.1"/>
		</g>
		<g>
			<path fill="#DA8000" stroke="#42210B" stroke-width="2" stroke-miterlimit="10" d="M324.3,394.8c2.5,1.4,5.7,3.7,8.5,7.3
				c1.5,2,5.2,6.7,6,13.7c0.2,2.3,0.1,4.3,0,5.7"/>
			<path fill="#DA8000" stroke="#42210B" stroke-width="2" stroke-miterlimit="10" d="M349.4,374.3c4.9,4,7.8,8.2,9.3,10.9
				c4.7,8.5,4.8,16.6,4.8,21c0,4.6-0.7,8.4-1.2,10.9"/>
			<path fill="#DA8000" stroke="#42210B" stroke-width="2" stroke-miterlimit="10" d="M397.5,373.4c1.5,3,4.6,9.4,4.5,18.1
				c-0.2,9.7-4.4,16.4-5.2,17.8c-3.8,6-8.7,9.3-11.3,10.9"/>
			<path fill="#DA8000" stroke="#42210B" stroke-width="2" stroke-miterlimit="10" d="M425.7,405.3c2.4,6.7,0.9,14.1-4,19
				c-4.6,4.7-11.4,6.6-17.8,4.8"/>
			<path fill="#DA8000" stroke="#42210B" stroke-width="2" stroke-miterlimit="10" d="M439,434.4c0,0.7,0.4,4.8-2.8,8.1
				c-2.6,2.6-6.8,3.4-10.5,2.1"/>
		</g>
	</g>
	
		<linearGradient id="SVGID_1_" gradientUnits="userSpaceOnUse" x1="323.2699" y1="812.4583" x2="237.7301" y2="812.4583" gradientTransform="matrix(-0.6375 0 0 0.6375 485.1375 -57.8711)">
		<stop  offset="0" style="stop-color:#ECECEC"/>
		<stop  offset="5.703344e-003" style="stop-color:#EEEEEE"/>
		<stop  offset="4.700690e-002" style="stop-color:#FBFBFB"/>
		<stop  offset="8.673470e-002" style="stop-color:#FFFFFF"/>
		<stop  offset="0.1169" style="stop-color:#EDEDED"/>
		<stop  offset="0.2175" style="stop-color:#B6B6B6"/>
		<stop  offset="0.3215" style="stop-color:#858585"/>
		<stop  offset="0.4268" style="stop-color:#5C5C5C"/>
		<stop  offset="0.5336" style="stop-color:#3B3B3B"/>
		<stop  offset="0.6426" style="stop-color:#212121"/>
		<stop  offset="0.7544" style="stop-color:#0F0F0F"/>
		<stop  offset="0.871" style="stop-color:#040404"/>
		<stop  offset="1" style="stop-color:#000000"/>
	</linearGradient>
	<path fill="url(#SVGID_1_)" stroke="#000000" stroke-miterlimit="10" d="M312.4,321.8c0,0,1.7,6.3,5.9,12.3c4.3,6,9.4,8.9,9.4,8.9
		s-6.4,61-9.4,87.9c-3,26.9-8.2,72.5-3.1,93.9c5.2,21.4,18.1,57.3,18.1,57.3s-4.2,8.1-10.5,11.8c-6.4,3.6-16.7,4.5-16.7,4.5
		s-10.3-0.9-16.7-4.5C283.1,590.2,279,582,279,582s13-36,18.1-57.3s0-67-3.1-93.9c-3.1-26.9-9.4-87.9-9.4-87.9s5.2-2.8,9.4-8.9
		c4.3-6,5.9-12.3,5.9-12.3"/>
	
		<linearGradient id="SVGID_2_" gradientUnits="userSpaceOnUse" x1="270.0452" y1="424.579" x2="290.9607" y2="424.579" gradientTransform="matrix(0.6375 0 0 0.6375 127.5 -57.8711)">
		<stop  offset="0" style="stop-color:#FFFFFF"/>
		<stop  offset="1" style="stop-color:#000000"/>
	</linearGradient>
	<path fill="url(#SVGID_2_)" stroke="#000000" stroke-miterlimit="10" d="M306.3,326.1L306.3,326.1c-3.6,0-6.7-3.1-6.7-6.7V106.2
		c0-3.6,3.1-6.7,6.7-6.7l0,0c3.6,0,6.7,3.1,6.7,6.7v213.3C313,323.1,309.9,326.1,306.3,326.1z"/>
	<path fill="none" stroke="#000000" stroke-width="3" stroke-miterlimit="10" d="M374.7,420.4c-3.5-0.7-8.4-1.1-14.3-1
		c-4.5,0.1-11.4,0.4-19.1,3.4c-1.1,0.3-11.3,5.1-17.4,12.7c-6.4,8.1-6.3,17-6.3,44.8c0,21.1,3.6,36.7,8.9,59.1
		c3.4,14.4,8.5,33.3,16.4,55.2c-0.4,0.9-1.3,2.1-2.4,3.4c-3.7,4.4-7.9,6.2-10.7,7.8c-9.2,5.1-18,5.9-23.1,5.9h-1.2
		c-4.9,0-13.8-0.9-23.1-5.9c-2.8-1.4-6.9-3.4-10.7-7.8c-1.1-1.3-2-2.4-2.4-3.3c7.9-21.9,13-40.8,16.4-55.2c5.2-22.4,8.7-38,8.9-59
		c0.1-27.8,0.1-36.7-6.3-44.8c-6-7.6-16.4-12.3-17.4-12.7c-7.8-3-14.5-3.2-19.1-3.3c-5.8-0.2-10.7,0.3-14.3,1"/>
</g>
<g>
	<g>
		<path fill="#C4BA98" stroke="#000000" stroke-width="0.5" stroke-miterlimit="10" d="M395.8,671.4v-14.7h11.5v2.6h-8.8v3.9h4.8
			v2.7h-4.8v4.6L395.8,671.4z"/>
		<path fill="#C4BA98" stroke="#000000" stroke-width="0.5" stroke-miterlimit="10" d="M410.3,660.2c0-1.3,0.2-2.3,0.6-2.7
			c0.4-0.5,1.1-0.7,2.2-0.7h8.3c1.1,0,1.9,0.2,2.2,0.7s0.6,1.4,0.6,2.7v7.8c0,1.3-0.2,2.3-0.6,2.7c-0.4,0.5-1.1,0.7-2.2,0.7h-8.3
			c-1.1,0-1.9-0.2-2.2-0.7c-0.4-0.5-0.6-1.4-0.6-2.7V660.2z M413,668.6h8.7v-9.3H413V668.6z"/>
		<path fill="#C4BA98" stroke="#000000" stroke-width="0.5" stroke-miterlimit="10" d="M429.9,669.1v-12.4h9.7c0.9,0,1.6,0.2,2,0.7
			c0.4,0.5,0.6,1.2,0.6,2.2v3.4c0,1-0.2,1.7-0.6,2.2c-0.4,0.5-1.1,0.7-2,0.7h-1.5l5.3,5.5h-3.8l-4.6-5.5h-2.5v2.6L429.9,669.1z
			 M438.5,659.2h-6v4.1h6c0.5,0,0.8-0.1,0.9-0.3c0.2-0.2,0.2-0.5,0.2-0.9v-1.8c0-0.4-0.1-0.7-0.2-0.9
			C439.2,659.4,438.9,659.2,438.5,659.2z"/>
	</g>
	<g>
		<path fill="#C4BA98" stroke="#000000" stroke-width="0.5" stroke-miterlimit="10" d="M375.9,701c1-0.1,1.5,0.3,1.5,1.3v1.7h2.9
			c1.2,0,1.4,0.4,0.8,1.2h-3.6c0,1.9,0.1,2.9,0.4,2.9c0.5,0.1,0.9,0.1,1.3-0.2c1.3-0.2,1.9,0.2,1.7,1.3c-0.1,0.9-0.2,2.2-0.2,3.8
			c0.1,1.3-0.5,1.7-1.9,1.3c-1.5-0.5-3.1-0.5-4.8,0c-1,0.6-1.6,0.3-1.7-0.9c-0.1-1.3-0.4-2.7-0.8-4.2c0.1-1,0.8-1.3,2.1-0.9
			c1,0.1,1.5-0.1,1.5-0.8c0-1.4-0.1-2.7-0.2-4C374.7,701.7,375.1,700.9,375.9,701z M374,710.2c-0.1,1.5,0.1,2.3,0.8,2.5
			c2.9,0.4,4.3-0.1,4-1.3c0.2-1.8-0.9-2.5-3.6-2.1C374.4,709.2,374,709.6,374,710.2z M381.7,705.8c0.5,0,0.8-0.1,0.9-0.2
			c-0.1-1.4-0.2-2.7-0.2-4c-0.1-0.9,0.3-1.3,1.3-1.2c0.6,0,0.9,0.3,0.9,0.9c-0.1,1.2-0.1,2.5,0,4c4.2-0.6,6.2-0.6,6.1,0
			c0.2,0.4,0.2,0.6-0.2,0.6c-1.9,0.2-3.8,0.6-5.7,0.9c0.4,1.2,0.8,2.1,1.2,2.9c0.5-0.6,1-1.4,1.5-2.3c0.4-0.4,0.8-0.5,1.2-0.4
			c0.5,0.4,0.7,0.8,0.6,1.3c-0.8,1-1.5,1.9-2.1,2.5c1.4,1.4,3.7,2,6.9,1.9c0.2,0.1-0.1,0.8-1.2,1.9c-1.4,1.4-2.9,1.6-4.4,0.8
			c-0.6-0.5-1.6-1.5-3-2.9c-1.3,0.9-2.6,1.4-4,1.5c-0.6-0.1-0.8-0.4-0.4-0.8c1.3-0.4,2.4-1.2,3.4-2.3c-0.5-0.8-1-2-1.5-3.8
			c-0.6,0.1-1.2,0.3-1.7,0.6c-0.8,0.1-1.1-0.2-0.9-1.2C380.3,706.2,380.8,705.9,381.7,705.8z M387.8,701.4c0.4-0.9,0.9-1.2,1.5-0.8
			c0.6,0.4,0.8,0.9,0.6,1.5c-0.5,0.8-1.3,1.2-2.5,1.3c-0.5,0-0.7-0.2-0.6-0.6C387.2,702.4,387.6,701.9,387.8,701.4z"/>
		<path fill="#C4BA98" stroke="#000000" stroke-width="0.5" stroke-miterlimit="10" d="M402.9,705.8c0.6,0,1.1,0.2,1.3,0.6
			c-0.1,0.5-0.6,0.7-1.3,0.6c-0.8,0-1.5,0.1-2.3,0.2c0.2,0.4,0.1,0.8-0.4,1.2l-0.9,0.9c-0.4,0.5-0.1,0.8,0.9,0.9
			c0.8,0.1,1.4-0.1,1.9-0.8l-0.6-1.2c0.1-0.4,0.4-0.5,0.8-0.4c0.4,0.2,0.8,0.5,1.2,0.8c0.2,0.5,0.6,1.1,0.9,1.7
			c-0.1,0.2-0.2,0.4-0.4,0.4c-0.5,0.1-1-0.1-1.5-0.8c-0.8,1.4-1.6,1.9-2.5,1.5c-0.8-0.5-1.5-0.6-2.1-0.2c-0.2,0-0.5-0.2-0.8-0.6
			c-0.1-0.5,0.1-1,0.8-1.5c1.2-1,1.5-1.7,1.2-2.1c-0.5-0.1-1.3,0-2.3,0.4c-0.4,0.2-0.6,0.2-0.8-0.2c0.1-0.9,0.6-1.4,1.3-1.5
			L402.9,705.8L402.9,705.8z M402.9,703.1c0.4,0,0.6,0.2,0.8,0.6c0,0.4-0.1,0.6-0.4,0.6h-3c-0.9,0-1.7,0.1-2.5,0.2
			c-0.2-0.1-0.4-0.4-0.4-0.8c0.1-0.4,0.4-0.7,0.8-0.9C399,703,400.6,703.1,402.9,703.1z M407.9,708.5c-0.4-0.1-0.8-0.1-1.2,0
			c-0.4,0.2-0.8,0.5-1.2,0.6c-0.2,0-0.5-0.1-0.6-0.2c-0.2-1.9-0.5-3.6-0.8-5.1c-0.1-0.8,0.2-1.2,1.2-1.2c0.4,0.2,1,0.3,1.9,0.2
			c0.4-0.4,0.8-1,1.3-1.9c0.1-0.2,0.4-0.4,0.8-0.4c1.2,0.4,1.5,0.8,0.9,1.3c-0.4,0.4-0.7,0.7-0.9,0.9c0.9,0,2,0.1,3.4,0.4
			c0.4-0.1,0.7-0.2,0.9-0.4c0.4-0.1,0.7-0.1,0.9,0.2c0.5,0.4,0.6,0.9,0.4,1.7c-0.4,1.2-0.6,2.3-0.8,3.6l-0.6,0.4
			c0.5,0.4,0.6,0.7,0.2,0.9c-0.2,0.2-0.5,0.5-0.8,0.8c-0.2,0.1-0.2,0.3,0.2,0.6c0.5,0.1,0.9,0.1,1.3-0.2c-0.5-0.4-0.6-0.6-0.2-0.8
			c0.5,0,0.9,0.1,1.2,0.2c0.2,0.4,0.5,0.8,0.8,1.2c-0.1,0.1-0.3,0.2-0.6,0.4l-0.8-0.6c-0.2,0.8-0.7,1.1-1.3,0.9
			c-0.5-0.4-1-0.5-1.5-0.4c-0.4-0.2-0.5-0.6-0.4-0.9c0.2-0.2,0.5-0.6,0.8-0.9c0.1-0.2,0.3-0.6,0.6-1.2c-1-0.1-2.2-0.2-3.6-0.2
			c-0.9,2.9-2.6,5-5.1,6.3c-2,0.8-3.6,0.5-4.6-0.9c0-0.1,0.2-0.2,0.8-0.2C404.5,713.2,407,711.5,407.9,708.5z M408.4,703.7
			c-0.9,0-1.6,0.1-2.1,0.4c-0.2,0.8-0.1,1.2,0.4,1.2l2.1-0.2C408.9,704.4,408.8,703.9,408.4,703.7z M408.6,706
			c-0.6,0-1.4,0.1-2.3,0.2c0,0.9,0.2,1.3,0.6,1.3l1.3-0.2L408.6,706z M410,709.4c0.1-0.5,0.4-0.8,0.8-0.8c0.2,0,0.5,0.1,0.6,0.4
			c-0.2,0.5-0.5,1-0.6,1.5c0,0.5,0.1,0.9,0.2,1.2c0.5,0.6,1.5,1.1,3,1.3c1.3,0.1,2.5,0,3.6-0.4c0.8-0.4,1.3-0.5,1.5-0.2
			c-0.1,0.8-0.6,1.7-1.3,2.7c-0.9,0.8-1.7,1-2.3,0.8c-2.2-0.4-4-1.3-5.4-2.7c-0.6-0.8-0.9-1.5-0.8-2.1
			C409.6,710.5,409.8,709.9,410,709.4z M412.8,707.7c0.2-0.5,0.3-0.9,0.2-1.3c-0.5-0.2-1.5-0.4-2.9-0.4c-0.1,0.5-0.2,1-0.2,1.5
			C411,707.6,411.9,707.7,412.8,707.7z M410.3,705l2.1,0.2c0.5,0.1,0.8-0.1,0.8-0.8c0-0.5-0.8-0.8-2.3-0.8
			C410.5,703.8,410.3,704.2,410.3,705z"/>
		<path fill="#C4BA98" stroke="#000000" stroke-width="0.5" stroke-miterlimit="10" d="M427.1,704.8c0.2-0.5,0.5-0.8,0.6-0.8
			c0.6-0.1,0.8,0.3,0.6,1.3c-0.4,1.2-0.9,2.3-1.7,3.6c-0.6,1-1.3,1.8-1.9,2.3c-1.3,1.2-2.6,1.1-4-0.2c-0.4-0.4-0.2-0.8,0.4-1.2
			C423.2,709,425.2,707.2,427.1,704.8z M431.5,701c1.3-0.1,1.9,0.6,1.7,2.1c-0.1,3.2-0.1,6.8,0.2,10.7c0,1.5-1.2,2.2-3.6,2.1
			c-1.3-0.1-2.7-0.8-4.4-2.1c-0.2-0.6-0.1-0.9,0.4-0.9c2.4,0.8,3.9,0.9,4.4,0.4c0.4-0.2,0.5-3.8,0.4-10.7
			C430.6,701.5,430.9,701,431.5,701z M434.6,705.4c-0.4-0.5-0.3-0.9,0.2-1.2c0.2-0.1,0.5-0.1,0.8,0.2c1.8,2.3,4.4,4.3,8,5.9
			c-0.4,0.6-0.8,1.1-1.2,1.3c-1.2,1-2.2,1-3.3,0C437.5,709.7,436,707.6,434.6,705.4z"/>
		<path fill="#C4BA98" stroke="#000000" stroke-width="0.5" stroke-miterlimit="10" d="M453.5,708.1c-0.4,1.3-0.8,2.2-1.2,2.9
			l2.5-0.4c-0.1-0.5-0.2-1-0.2-1.5c0.1-0.5,0.6-0.8,1.3-0.9c0.5,0,0.9,0.1,1.3,0.4c0.5,0.1,0.9,0.1,1.2,0v-6.3
			c0-0.8,0.2-1.2,0.8-1.3c1.3,0,1.9,0.5,1.9,1.3c-0.1,0.6-0.2,1.2-0.2,1.5c2.7,0.1,4.9,0.2,6.7,0.2c0,0.6-0.2,1.2-0.6,1.7
			c-0.5,0.5-1,0.6-1.5,0.4c-2-0.6-3.6-0.8-4.6-0.6c-0.2,1-0.2,2,0,3c0.9,0.1,1.6,0.1,2.1-0.2c1.6-0.5,2.5-0.1,2.5,1.3
			c-0.2,1-0.4,2.3-0.4,3.8c0.2,1.6-0.3,2.2-1.7,1.7c-1.8-0.2-3.7-0.3-5.7-0.2c-1.5,0.8-2.3,0.3-2.5-1.3c0-0.4-0.1-1.1-0.2-2.1
			c-2.6,1.2-5.5,2-9,2.7c-1.2,0.2-1.7-0.2-1.5-1.3c0-0.6,0.6-1,1.9-1.2c1.4-0.1,3-0.3,4.8-0.6c0.4-1.4,0.6-2.7,0.6-4
			c0-0.9,0.2-1.3,0.8-1.3C453.6,705.9,453.9,706.7,453.5,708.1z M452,702.1c-0.1,1.5,0,2.2,0.4,2.1l2.7,0.2c0.6,0.5,0.7,0.9,0.2,1.2
			c-0.2,0.1-0.7,0.2-1.3,0.2c-2.6-0.5-5.1-0.3-7.8,0.6c-0.5,0.1-0.8-0.1-0.8-0.6c0.2-1.2,0.8-1.6,1.5-1.5c1,0.2,1.8,0.3,2.3,0.2
			c0.4-0.1,0.5-0.9,0.4-2.3c0.1-0.5,0.4-0.8,0.8-0.8C451,701.3,451.6,701.5,452,702.1z M450.1,710.6c-0.2,0.4-0.6,0.5-0.9,0.2
			c-0.8-1.2-1.2-2.2-1.3-3s0.2-1.4,0.9-1.5c0.6-0.1,0.9,0.1,0.9,0.8C449.8,708.2,449.9,709.4,450.1,710.6z M460.8,709.8
			c-1.8-0.1-2.9,0-3.4,0.4c-0.4,0.9-0.4,1.8,0,2.7c0.1,0.6,1.5,0.8,4.2,0.6c1.2,0,1.7-0.6,1.7-1.9
			C463.2,710.3,462.4,709.7,460.8,709.8z"/>
	</g>
	
		<linearGradient id="SVGID_3_" gradientUnits="userSpaceOnUse" x1="328.7688" y1="235.7084" x2="328.7688" y2="235.7084" gradientTransform="matrix(1.0929 0 0 -1.0929 0 955.5428)">
		<stop  offset="0" style="stop-color:#C4BA98"/>
		<stop  offset="1.474962e-002" style="stop-color:#CEC5A9"/>
		<stop  offset="4.332456e-002" style="stop-color:#DDD7C4"/>
		<stop  offset="7.615717e-002" style="stop-color:#EAE6DA"/>
		<stop  offset="0.1145" style="stop-color:#F3F1EB"/>
		<stop  offset="0.162" style="stop-color:#FAF9F6"/>
		<stop  offset="0.2285" style="stop-color:#FEFEFD"/>
		<stop  offset="0.4133" style="stop-color:#FFFFFF"/>
		<stop  offset="0.4696" style="stop-color:#DDDBD8"/>
		<stop  offset="0.5499" style="stop-color:#B2AFA6"/>
		<stop  offset="0.6258" style="stop-color:#908B7F"/>
		<stop  offset="0.6952" style="stop-color:#787263"/>
		<stop  offset="0.7558" style="stop-color:#696252"/>
		<stop  offset="0.801" style="stop-color:#645D4C"/>
		<stop  offset="0.8499" style="stop-color:#776F5B"/>
		<stop  offset="0.9484" style="stop-color:#A89F82"/>
		<stop  offset="1" style="stop-color:#C4BA98"/>
	</linearGradient>
	
		<linearGradient id="SVGID_4_" gradientUnits="userSpaceOnUse" x1="328.7688" y1="235.7084" x2="328.7688" y2="235.7084" gradientTransform="matrix(1.0929 0 0 -1.0929 0 955.5428)">
		<stop  offset="0" style="stop-color:#C4BA98"/>
		<stop  offset="1.389108e-002" style="stop-color:#C7BD9D"/>
		<stop  offset="0.1655" style="stop-color:#E5E1D2"/>
		<stop  offset="0.2794" style="stop-color:#F8F7F3"/>
		<stop  offset="0.3418" style="stop-color:#FFFFFF"/>
		<stop  offset="0.4046" style="stop-color:#E1E0DC"/>
		<stop  offset="0.5083" style="stop-color:#B5B1A9"/>
		<stop  offset="0.6058" style="stop-color:#928D81"/>
		<stop  offset="0.6943" style="stop-color:#797364"/>
		<stop  offset="0.7708" style="stop-color:#696352"/>
		<stop  offset="0.8265" style="stop-color:#645D4C"/>
		<stop  offset="0.8691" style="stop-color:#776F5B"/>
		<stop  offset="0.955" style="stop-color:#A89F82"/>
		<stop  offset="1" style="stop-color:#C4BA98"/>
	</linearGradient>
	<path fill="url(#SVGID_3_)" stroke="url(#SVGID_4_)" stroke-width="0.5" stroke-miterlimit="10" d="M359.3,697.9"/>
	
		<linearGradient id="SVGID_5_" gradientUnits="userSpaceOnUse" x1="339.021" y1="243.4715" x2="339.021" y2="243.4715" gradientTransform="matrix(1.0929 0 0 -1.0929 0 955.5428)">
		<stop  offset="0" style="stop-color:#C4BA98"/>
		<stop  offset="1.474962e-002" style="stop-color:#CEC5A9"/>
		<stop  offset="4.332456e-002" style="stop-color:#DDD7C4"/>
		<stop  offset="7.615717e-002" style="stop-color:#EAE6DA"/>
		<stop  offset="0.1145" style="stop-color:#F3F1EB"/>
		<stop  offset="0.162" style="stop-color:#FAF9F6"/>
		<stop  offset="0.2285" style="stop-color:#FEFEFD"/>
		<stop  offset="0.4133" style="stop-color:#FFFFFF"/>
		<stop  offset="0.4696" style="stop-color:#DDDBD8"/>
		<stop  offset="0.5499" style="stop-color:#B2AFA6"/>
		<stop  offset="0.6258" style="stop-color:#908B7F"/>
		<stop  offset="0.6952" style="stop-color:#787263"/>
		<stop  offset="0.7558" style="stop-color:#696252"/>
		<stop  offset="0.801" style="stop-color:#645D4C"/>
		<stop  offset="0.8499" style="stop-color:#776F5B"/>
		<stop  offset="0.9484" style="stop-color:#A89F82"/>
		<stop  offset="1" style="stop-color:#C4BA98"/>
	</linearGradient>
	
		<linearGradient id="SVGID_6_" gradientUnits="userSpaceOnUse" x1="339.021" y1="243.4715" x2="339.021" y2="243.4715" gradientTransform="matrix(1.0929 0 0 -1.0929 0 955.5428)">
		<stop  offset="0" style="stop-color:#C4BA98"/>
		<stop  offset="1.389108e-002" style="stop-color:#C7BD9D"/>
		<stop  offset="0.1655" style="stop-color:#E5E1D2"/>
		<stop  offset="0.2794" style="stop-color:#F8F7F3"/>
		<stop  offset="0.3418" style="stop-color:#FFFFFF"/>
		<stop  offset="0.4046" style="stop-color:#E1E0DC"/>
		<stop  offset="0.5083" style="stop-color:#B5B1A9"/>
		<stop  offset="0.6058" style="stop-color:#928D81"/>
		<stop  offset="0.6943" style="stop-color:#797364"/>
		<stop  offset="0.7708" style="stop-color:#696352"/>
		<stop  offset="0.8265" style="stop-color:#645D4C"/>
		<stop  offset="0.8691" style="stop-color:#776F5B"/>
		<stop  offset="0.955" style="stop-color:#A89F82"/>
		<stop  offset="1" style="stop-color:#C4BA98"/>
	</linearGradient>
	<path fill="url(#SVGID_5_)" stroke="url(#SVGID_6_)" stroke-width="0.5" stroke-miterlimit="10" d="M370.5,689.5"/>
	<g>
		<g>
			<path fill="#C4BA98" stroke="#000000" stroke-width="0.5" stroke-miterlimit="10" d="M365.5,679.2h-7.4v5.7h4v4h-4v7.1l-2.2,1
				v-21.6h9.6V679.2"/>
			<path fill="#C4BA98" stroke="#000000" stroke-width="0.5" stroke-miterlimit="10" d="M368.3,693.3v-1.1v-16.8h8.1
				c0.8,0,1.3,0.3,1.6,1c0.3,0.7,0.5,1.8,0.5,3.2v5.1c0,1.5-0.2,2.6-0.5,3.2c-0.3,0.7-0.9,1-1.6,1h-1.2l4.4,8.2h-3.2l-3.8-8.2h-2.1
				v2.7v1.2L368.3,693.3z M375.4,679.2h-5v6.1h4.9c0.4,0,0.6-0.1,0.8-0.4c0.1-0.2,0.2-0.7,0.2-1.3v-2.6c0-0.6-0.1-1.1-0.2-1.3
				C376,679.3,375.8,679.2,375.4,679.2z"/>
			<path fill="#C4BA98" stroke="#000000" stroke-width="0.5" stroke-miterlimit="10" d="M382.9,697.2v-21.8h2.2v21.8H382.9z"/>
			<path fill="#C4BA98" stroke="#000000" stroke-width="0.5" stroke-miterlimit="10" d="M389.9,697.2v-21.8h9.7v3.7h-7.5v4.9h4.4
				v3.7h-4.4v5.4h7.6v4.1L389.9,697.2L389.9,697.2z"/>
			<path fill="#C4BA98" stroke="#000000" stroke-width="0.5" stroke-miterlimit="10" d="M403.8,697.2v-21.8h1.5l6.7,12.9
				c0.2,0.4,0.4,0.8,0.6,1.2s0.3,0.8,0.5,1.2c0-1.2-0.1-2.1-0.1-2.6c0-0.5,0-0.9,0-1.2v-11.5h2v21.8h-1.5l-6.9-13.5
				c-0.2-0.4-0.3-0.6-0.4-0.9c-0.1-0.3-0.2-0.6-0.4-0.8c0,0.7,0.1,1.3,0.1,1.9s0,1.1,0,1.6v11.8H403.8L403.8,697.2z"/>
			<path fill="#C4BA98" stroke="#000000" stroke-width="0.5" stroke-miterlimit="10" d="M419.7,697.2v-21.8h6.1c1.7,0,3.1,0.9,4,2.8
				c0.9,1.9,1.4,4.5,1.4,8c0,2-0.2,3.9-0.5,5.5c-0.4,1.6-0.9,2.9-1.5,3.9c-0.4,0.6-0.9,1-1.5,1.3s-1.4,0.4-2.3,0.4L419.7,697.2
				L419.7,697.2z M421.9,693.1h2.8c1.5,0,2.6-0.5,3.2-1.6c0.6-1.1,0.9-2.9,0.9-5.4c0-2.2-0.3-3.9-0.8-5.1c-0.5-1.2-1.3-1.7-2.3-1.7
				h-3.9L421.9,693.1L421.9,693.1z"/>
			<path fill="#C4BA98" stroke="#000000" stroke-width="0.5" stroke-miterlimit="10" d="M443.4,679.2h-6.2v4.7h5.9
				c0.9,0,1.5,0.4,1.9,1.1c0.3,0.7,0.5,2.1,0.5,4.1v3c0,2-0.2,3.3-0.5,4.1c-0.3,0.7-0.9,1.1-1.9,1.1h-5.8c-0.9,0-1.5-0.4-1.9-1.1
				c-0.3-0.7-0.5-2.1-0.5-4.1v-0.6l1.9-0.9v2.6h6.7v-5h-5.9c-0.9,0-1.5-0.4-1.9-1.1c-0.3-0.7-0.5-2.1-0.5-4.1v-2.4
				c0-2,0.2-3.3,0.5-4.1c0.3-0.7,0.9-1.1,1.9-1.1h5.4c0.9,0,1.5,0.4,1.8,1.1c0.3,0.7,0.5,1.9,0.5,3.7v0.5l-1.9,1.1V679.2
				L443.4,679.2z"/>
			<path fill="#C4BA98" stroke="#000000" stroke-width="0.5" stroke-miterlimit="10" d="M459,694v-6.1h-6.9v8.6l-2.2,0.8v-21.8h2.2
				v8.5h6.9v-8.5h2.2v17.8L459,694z"/>
			<path fill="#C4BA98" stroke="#000000" stroke-width="0.5" stroke-miterlimit="10" d="M466.1,697.2v-21.8h2.2v21.8H466.1z"/>
			<path fill="#C4BA98" stroke="#000000" stroke-width="0.5" stroke-miterlimit="10" d="M473.1,697.2v-21.8h8.1c0.8,0,1.3,0.3,1.6,1
				c0.3,0.7,0.5,1.8,0.5,3.2v4.9c0,1.5-0.2,2.5-0.5,3.2c-0.3,0.7-0.9,1-1.6,1h-5.9v7.5L473.1,697.2z M480.2,679.2h-5v5.8h4.9
				c0.4,0,0.6-0.1,0.8-0.4c0.1-0.2,0.2-0.7,0.2-1.3v-2.3c0-0.6-0.1-1.1-0.2-1.3C480.8,679.3,480.6,679.2,480.2,679.2z"/>
		</g>
	</g>
</g>
</svg>
