<?xml version="1.0" encoding="utf-8"?>
<!-- Generator: Adobe Illustrator 18.1.1, SVG Export Plug-In . SVG Version: 6.00 Build 0)  -->
<svg version="1.1" id="图层_1" xmlns="http://www.w3.org/2000/svg" xmlns:xlink="http://www.w3.org/1999/xlink" x="0px" y="0px"
	 viewBox="0 0 612 792" enable-background="new 0 0 612 792" xml:space="preserve">
<g id="图层_1_1_" display="none">
</g>
<g id="图层_2" display="none">
	<line display="inline" fill="none" stroke="#000000" stroke-miterlimit="10" x1="310.8" y1="145.5" x2="310.8" y2="592.9"/>
</g>
<g id="图层_3">
	<g>
		<path fill="#A91C1E" stroke="#F15A24" stroke-width="3" stroke-miterlimit="10" d="M308.2,644.1c-38.3-0.8-76.3-1.6-114.5-3
			c-20.2-0.5-40.4-1.2-60.7-2c0,0,2-32.8,3-56.9c0.9-24.2,1.3-82.7,3.1-98.5c1.6-15.7,4.3-18.9,4.9-20.9c0.5-1.9,3.6-6.9,3.6-6.9
			c0.8-0.9,7.3-8.1,15.2-7c1.4,0.2,6,0.9,7.8,4.5c0.9,1.7,0.7,3.6,0.5,4.6c-1.1-1-2.7-1.3-4-0.9c-2.3,0.8-2.6,3.3-2.6,3.5
			c-0.3,2.6,2,4.5,2.4,4.7c3.3,2.5,7.8,0.5,8.1,0.4c4.3-1.9,5.6-6.4,5.9-7.5c1.4-5.2-0.5-9.9-2.3-13.8c-5.7-12.6-8.5-18.8-10.8-22.5
			c-11-16.8-15-34.8-17.3-45.7c-0.7-3.4-4-20.1-1.4-41c0.7-5.7,2.7-19,10.5-24.5c1-0.7,4.3-3,8.6-3c1.6,0,5.1,0,7.3,2.6
			c1.5,2,1.5,4.4,1.4,5.2c-0.3-0.2-1.6-1-3.4-0.7c-1.4,0.2-3.2,1.3-3.5,3c-0.5,2.6,3.2,4.7,3.4,4.9c3.2,1.7,7.6,1.2,10.1-1.1
			c2.4-2.3,2.7-6.1,1.6-12.7c-0.8-5.5-2.4-13.1-5.8-22c-0.7-1.6-1.4-3.5-2.3-5.4c-3.7-9.5-8.6-23.7-12.3-41.9
			c-3.1-15-4.6-23.1-3.5-34.1c0.5-5.4,3.2-26.8,19.6-44.3c9.6-10.2,20.2-15,34.5-21.5c9.4-4.3,17.7-7,23.6-8.7l0.8-0.2
			c19.8-5.4,34.2-9.3,37.9-10.3c0.3-0.1,1-0.2,1.4-0.8c1.3-1.9-1.4-6-2.7-9.9c-1.4-4.7-0.7-11.3-0.7-11.3h32.2v545.1H308.2z"/>
		<path fill="#A91C1E" stroke="#F15A24" stroke-width="3" stroke-miterlimit="10" d="M308.2,644.1c38.3-0.8,76.3-1.6,114.5-3
			c20.2-0.5,40.4-1.2,60.7-2c0,0-2-32.8-3-56.9c-0.9-24.2-1.3-82.7-3.1-98.5c-1.6-15.7-4.3-18.9-4.9-20.9c-0.5-1.9-3.6-6.9-3.6-6.9
			c-0.8-0.9-7.3-8.1-15.2-7c-1.4,0.2-6,0.9-7.8,4.5c-0.9,1.7-0.7,3.6-0.5,4.6c1.1-1,2.7-1.3,4-0.9c2.3,0.8,2.6,3.3,2.6,3.5
			c0.3,2.6-2,4.5-2.4,4.7c-3.3,2.5-7.8,0.5-8.1,0.4c-4.3-1.9-5.6-6.4-5.9-7.5c-1.4-5.2,0.5-9.9,2.3-13.8
			c5.7-12.6,8.5-18.8,10.8-22.5c11-16.8,15-34.8,17.3-45.7c0.7-3.4,4-20.1,1.4-41c-0.7-5.7-2.7-19-10.5-24.5c-1-0.7-4.3-3-8.6-3
			c-1.6,0-5.1,0-7.3,2.6c-1.5,2-1.5,4.4-1.4,5.2c0.3-0.2,1.6-1,3.4-0.7c1.4,0.2,3.2,1.3,3.5,3c0.5,2.6-3.2,4.7-3.4,4.9
			c-3.2,1.7-7.7,1.2-10.1-1.1c-2.4-2.3-2.7-6.1-1.6-12.7c0.8-5.5,2.4-13.1,5.8-22c0.7-1.6,1.4-3.5,2.3-5.4
			c3.7-9.5,8.6-23.7,12.3-41.9c3.1-15,4.6-23.1,3.5-34.1c-0.5-5.4-3.2-26.8-19.6-44.3c-9.6-10.2-20.2-15-34.5-21.5
			c-9.4-4.3-17.7-7-23.6-8.7l-0.8-0.2c-19.8-5.4-34.2-9.3-37.9-10.3c-0.3-0.1-1-0.2-1.4-0.8c-1.3-1.9,1.4-6,2.7-9.9
			c1.4-4.7,0.7-11.3,0.7-11.3h-32.2v545.1H308.2z"/>
		<path fill="none" stroke="#000000" stroke-miterlimit="10" d="M308.2,110.4"/>
		<path fill="#1A1A1A" d="M308.2,98.7c0,173.2,0,346.3-0.1,519.5c-31.1-1.5-62.9-2.8-95.5-3.6c-19.5-0.4-38.8-0.8-57.7-0.9
			c1.4-22.4,2.7-45.1,3.7-68.4c0.9-21.4,1.6-42.4,2.1-63.1c2.1,0.5,21.1,5,31.9-5.8c10.1-10.1,6.4-27,4.3-37.6
			c-2.3-10.7-4.6-10.1-12.6-29.7c-5.8-14.5-11.6-28.5-12.6-46.6c-0.4-7.6,0-14.4,0.7-20.5c8-1.1,23.4-4.7,30.3-16.8
			c4.4-7.8,1.5-15.4-1.6-37.2c-5.2-34.6-17.3-44.5-16-71c0.4-8.9,1.2-26.3,13.1-40.9c16.8-20.8,48.2-26.6,53-27.1
			c0.5-0.1,22.1-2.5,36.8-11.5c3.7-2.3,7.9-5.4,9.8-10.7c1.6-4.4,1.3-8.5,0.9-10.8c0,0-1.1-3.7-3.5-5.7c-2.4-2-5.7-2.5-9.3-1.1
			c-3.5,1.3-4.4,3.4-4.4,3.4s5-3,7.3-0.9c0.9,0.8,1.2,1.5,1.3,2.4c0.1,1.4-1,2.6-1.6,3.3c-3.1,3.1-8.3,3.4-9.9,3.5
			c0.2-0.3,0.5-0.9,0.7-1.5c0.9-3.5-1.9-6.3-3.3-9.6c-1-2.3-1.6-5.7-0.3-11C286.7,98.6,297.4,98.7,308.2,98.7z"/>
		<path d="M308.2,98.7c0,173.2,0,346.3,0.1,519.5c31.1-1.5,62.9-2.8,95.5-3.6c19.5-0.4,38.8-0.8,57.7-0.9
			c-1.4-22.4-2.7-45.1-3.7-68.4c-0.9-21.4-1.6-42.4-2.1-63.1c-2.1,0.5-21.1,5-31.9-5.8c-10.1-10.1-6.4-27-4.3-37.6
			c2.3-10.7,4.6-10.1,12.6-29.7c5.8-14.5,11.6-28.5,12.6-46.6c0.4-7.6,0-14.4-0.7-20.5c-8-1.1-23.4-4.7-30.3-16.8
			c-4.4-7.8-1.5-15.4,1.6-37.2c5.2-34.6,17.3-44.5,16-71c-0.4-8.9-1.2-26.3-13.1-40.9c-16.8-20.8-48.2-26.6-53-27.1
			c-0.5-0.1-22.1-2.5-36.8-11.5c-3.7-2.3-7.9-5.4-9.8-10.7c-1.6-4.4-1.3-8.5-0.9-10.8c0,0,1.1-3.7,3.5-5.7s5.7-2.5,9.3-1.1
			c3.5,1.3,4.4,3.4,4.4,3.4s-5-3-7.3-0.9c-0.9,0.8-1.2,1.5-1.3,2.4c-0.1,1.4,1,2.6,1.6,3.3c3.1,3.1,8.3,3.4,9.9,3.5
			c-0.2-0.3-0.5-0.9-0.7-1.5c-0.9-3.5,1.9-6.3,3.3-9.6c1-2.3,1.6-5.7,0.3-11C329.7,98.6,318.9,98.7,308.2,98.7z"/>
		<g opacity="0.51">
			<g id="图层_1_2_" display="none">
			</g>
			<g id="图层_2_2_">
				<path fill="#F15A24" d="M351.6,215.1"/>
				<g>
					<path fill="#F15A24" d="M383.7,428.7l-0.2-0.4C383.5,426.8,383.7,428.7,383.7,428.7z"/>
					<path fill="#F15A24" d="M406.2,421.5C406,421.5,406.2,421.2,406.2,421.5L406.2,421.5z"/>
					<path fill="#F15A24" d="M429.1,427.7c-0.4-2-0.9-1.4-2-2.7c-1.1-1.2-3-0.4-3-0.4h-6.3c0,0-2.1,0.2-4,0
						c-1.9-0.2-0.7-0.9-0.2-1.6s0.8-0.5,1.7-1.3s0.3-2.1,0.3-2.1s4.2-0.2,5.2-0.2s2,0.3,2.3,1.4c0.2,1-0.7,3-0.7,3.2
						c0,0,0.7-0.5,2-2.4c1.3-1.7,0.8-2.7,0.8-2.7s-0.4-1.3-1.5-1.3s-0.4-0.2-0.8-1c-0.4-0.7-1.1-1.1-6.3-1.7
						c-5.2-0.7-1.7-0.3-3.8,1.3c-2,1.6-1.4,1.3-4.5,4c-1.3,1.2-1.7,1.4-2,1.4c0,0,0,0.1,0,0.2c-0.2,0.9-0.1,1.2,0.2,2.4
						c0.3,1.1,2.8,1.2,2.6,3.7c-0.2,2.5-1.4,8.1-3.4,9.9c-1.9,1.9-3.5,2.6-4.4,3.4s-4.7,1.2-8.7,1.5s-6.1-0.7-6.1-0.7v-1.7
						c0,0-1-0.7-2.4-1.5c-1.3-1-0.3-1.4-0.7-7.4c0-1.5-0.1-2.5-0.1-3l-2-3.4l-5.6,0.8c0,0-1,0.7-1.6-0.5c-0.7-1.2-1.5-8.5-1.2-9.5
						c0.4-1.1,2.6-11.8,3.3-13.9c0.7-2.1-0.8-9.3-1.2-11.5c-0.4-2.1-3.3-5.8-6.9-6.9s-4.4,0.5-7.3,2.5c-2.8,2-1.6,2.7-1.6,2.7l0.9,6
						l3.4-0.1l0.5-2.7c0,0,1.7-0.8,2.5-0.8c0.8,0,0.9,2.5,0.9,2.5l-1.2,4c0,0-3.8,4-7.5,1.5c-3.7-2.5-4.7-11.3-1.7-14.3
						c2.8-3.2,4.2-4.9,11.4-3.9c7.2,1.1,6.9,4.3,10.1,8.9c3.3,4.6,1,15.8,0.9,19c-0.1,3.2-3,11.3-3,11.4l0.9-0.9c0.9-1,5.1-8,5.1-8
						s1.6-5.9,3.3-13.6c1.5-7.6,0.7-17.8,0-20.7s-8.4-10.2-11.4-11.8c-2.8-1.5-11.8-3.5-18.4-4.2c-6.7-0.7-7.4-1.7-7.4-1.7
						s-0.1,4.6-6.1,8s-3.8,1.6-8.5,2.3c-4.8,0.5-5.6-2.3-5.6-2.3s1.4,0.2,3.1,0c1.5-0.2,7.1-1.4,8.5-2.5c1.4-1,3.6-1.6,4.6-4.7
						c0.9-3.1,0.4-2,0.3-3.9c-0.1-1.7-3.5-4.2-3.5-4.6c-0.1,0.4-3.3,6.2-7.5,9c-4.6,2.8-4.4,1.2-8.9,1.4c-4.5,0.2-8.9-2.8-12.3-6.7
						c-3.4-3.7-4.5-7.4-4-9.9c0.4-2.7,0-2.7-0.4-3.9c-0.4-1.2-0.2-2.8-0.2-2.8s1.7-1.7,2.1-2.3c0.3-0.4,1-0.4,1.6-0.7
						c0.7-0.2,3.2,0.3,4.7,0.2c1.4-0.1,1.4,0.9,1.2,1.6c-0.2,0.8-0.7,0.5-3.7,1.2c-3,0.7-1.1,0.7-1.9,2.5c-0.7,1.6-0.3,1.4,1.4,4.9
						c1.7,3.5,0.8,1.5,2.8,2.1c2,0.5,2-0.2,6.3-4.3c4.4-4,0.2-1.2,0.7-1.9c0.4-0.5,0.5-0.3,1.5-1.2s0-1.2,0.2-3.6
						c0.2-2.4,0-1.3,0.1-3.4c0-1.9,0-1-0.4-2.4c-0.5-1.3-0.9-0.3-1.6-1s-0.4-1-1.6-2.6s-1.3-0.8-2.6-1.7c-1.1-1-2.7-0.9-1.9-1.9
						c0.8-1,3,0.2,3,0.2s5.4,2.5,7,4c1.5,1.5,2.4,0,4.2,3.3c1.7,3.3-0.2,0.8-2.6,3.2c-2.4,2.3-0.9,1.5-0.9,3.5
						c0,1.9,0.5,2.1-0.8,3.3s-0.7,0.5-1.5,2.5c-0.9,1.9-0.3,1.2,1.4,2.4c1.7,1.1,1.2,0.1,4.9,0.1c3.8,0,2.3-0.1,2.8-1.5
						c0.7-1.3-1.6-2.8,0.4-4.2c2-1.3,1.1,1.5,5.2,2.4c4.2,0.8,3.2,1.1,7,1c3.8-0.2,8.1-0.3,8.1-0.3s1,0.5,1.2,0.9
						c0.2,0.3,0.4,1.4,0.4,1.4l2.3,0.4c0,0,0,1,0,1.2c0,0.1,0.5,1.2,0.5,1.2l2.7,0.9c0,0,0,0,1-0.8c1-0.8,0.1-0.7,0-1.2
						c-0.1-0.4,0.1-0.8,0.3-2.3c0.2-1.4,0.7-1.2,1.1-1.5s1.3-0.7,1.9-1.9c0.5-1.2,0.4-3.2,0.2-4.3c-0.2-1.2,0.3-4.2,0.3-4.2
						s-0.5-0.8-1.6-0.8c-1.2,0-1.1,0.1-2,1.2c-0.8,1-0.1,1-1.2,1.9c-1.1,0.9-0.7,0.9-2,1.4c-1.3,0.7-0.7,0.4-2.3,0.4
						c-1.4,0-0.9-0.1-1.6-0.8c-0.7-0.7-0.8-1.6-1.1-2.4c-0.2-0.7-1.6-2.7-3-3.7c-1.2-1-3.1-1.2-3.1-1.2s0.8-0.4,3.3-1.2
						c2.5-0.8,2.6-1.1,3.8-2c1.2-0.9,2.8-1.5,4.2-2.3s3.6-0.1,5-0.1c1.4,0.1,2,0.2,3.4,1.9c1.3,1.6,0.1,2.6,0.1,2.6s0.9,4.3,1.3,4.2
						c0.5-0.1,1.4-2,1.4-2s0-1.5,0.5-3.4c0.5-1.9,2-1.2,2-1.2s1.3-3.4,1.5-4.8c0.2-1.4,0.5-3.3,0.5-3.3l-0.7-3.7l0.5-6.2
						c0,0,4,0.5,5.1,0.5c1.1,0,3.4-1.5,3.4-1.5l-0.7-0.4l0.7-2.1c0,0-0.7-0.7-2-1c-1.3-0.2-1-1.2-1.6-2.6c-0.7-1.3-2.8,0-2.8,0
						s-1.2,1.1-1.6,2c-0.5,1-2,0-4.6,0s-2.6,0.8-3.8,1.9s-1.6,5.9-1.6,5.9s-3,0.7-4.8,0.2c-1.9-0.4-6,0.1-8.2,0.1
						c-2.1-0.1-6.3,1.6-6.3,1.6s0.5-2.7,0-3.6c-0.5-0.9-0.2-2-2.6-3.2c-2.4-1.1-3.2,0-7.3,1.2s-7,5.2-7,5.2s-0.3,0.1-1.2-0.2
						c-0.9-0.3-1.3,0-3.2,0c-1.9,0-3.2,0.9-3.2,0.9s0-0.4,0-0.9s-1.4-1.7-1.4-1.7s1.1,0,2.6,0c1.4,0,2.6-0.4,4.8-2.1
						c2.3-1.6,1-4-0.5-6.1c-1.5-2.1-2.7-2.8-5.1-3.3c-2.4-0.4-4.4,3.8-9.4,7.8c-5,3.8-1.9,11.3-1.9,11.3c-3.6,1-10.5,5.2-13.2,7.2
						c-2.7,1.9-9.8,10.3-13.1,12.5c-3.3,2.2-8.3,0.1-9.7-1.6s-1.2-5.7-1.2-9.4s4.6-2.6,7.9-2c3.4,0.4,1.6,4,1.4,6
						c-0.2,2-4,1.9-4,1.9c0.7,0.2,2.3,1.4,4.8,1.1c2.6-0.4,3.8-3.2,4-9c0.2-5.9-4.2-6.1-5.6-6.9c-1.4-0.8-11-3-13.9,5.5
						c-2.8,8.5-1.2,1.3-4.6,9.8c-3.4,8.5,0.2,9.5,3.6,11.5c3.4,2,7.5,1.9,14.3,0.8c6.8-1.1,11-7,11-7s-1.3,13,0.4,22.7
						c1.7,9.7,5.8,11.4,6.9,12.7c0.9,1.3,15.5,13.8,20.5,14.1c5,0.4,9.5,0.5,13.7,3c4.3,2.4,2.6,12,2.7,15.1
						c0.1,3.2-6.9,8.4-7.4,8.5c-0.5,0.1-5.4,2.3-7.5,0.8c-2.1-1.4-2.1-6.1-2.7-8.9c-0.5-2.7,0.5-6.1,4.8-6.4
						c4.3-0.2,3.9,4.5,3.6,7.2c-0.3,2.7-3.4,4.9-3.4,4.9s1,0.2,5.6-2.4c4.7-2.6,2.6-3.6,3.4-6.7c0.8-3.1-2.7-7-5.1-9.8
						c-2.5-3-8.1-1.7-10.1-0.7s-4.9,3.3-7.5,13.6c-2.6,10.2,0.1,16.4,1.2,17.4c1.1,1,7.2,3.9,10.3,3.8c3.2-0.1,8.2-1.7,11.7-4
						c3.4-2.3,9.9-10.4,10.2-10.7c-0.1,0.3-5.8,10.7-8.9,14.1c-3.2,3.5-13,4.5-18,4.5c-5,0-11.8-6-11.8-6s1.2-4.3,2-19.6
						c0.8-15.2-1.9-12.9-2.7-18.7c-0.8-5.9-9-11.3-10.2-12.8c-1.3-1.4-19.9-10.6-30.7-7.3c-10.8,3.4-11.5,5.2-21.9,12.9
						c-10.5,7.7-21.7,8.2-27.2,6.2c-5.5-1.9-8.9-11.1-8.5-16.6c0.2-5.5,4.6-9.5,10.3-12.5c5.8-3,12.1,1.4,13,3
						c0.9,1.4,1.3,5,1.5,6.9c0.2,1.7-2.3,6.3-2.8,6.8c-0.7,0.2-7.8,1.3-8.5,0.7c-0.8-0.7-3.9-4.2-1.3-7.3c2.5-3,4.2-1.7,4.4-1.5
						c-0.3-0.2-3.8-3.6-6.2-1.9c-2.6,1.7-3.3,3.9-2.8,9.9c0.4,6,4.7,6.1,11.1,6.2c6.4,0.1,8.2-3.5,10.6-6.3c2.5-3,3.2-7.4,0.1-15.1
						c-3.1-7.6-12.7-9.9-15.7-9.6c-3.1,0.2-14.4,1.2-19,11.3c-4.6,9.9-2.4,19.9,0.2,26.7c2.6,6.9,11.7,11.6,18.9,11.7
						c7.3,0.1,16.1-2.8,18.8-3.9c2.7-1.1,6.8-4.3,11.8-7c5-2.7,10.8-2.5,18-2.8c7.2-0.4,12.2,1.9,16,5.5c3.8,3.7,4.9,13.9,5.1,18.7
						c0.2,4.4-3.5,11-4,11.9c0.3-0.5,1-2.8,1-6.7c0-4-1.3-9.4-2.4-14.6c-1-5.2-9.8-10.8-13-11.5c-3.2-0.5-13.7,0.8-18.5,4.7
						c-4.8,3.9-7.8,7.7-9.1,13.9c-1.3,6.2,0.1,12.6,4.3,17c4.2,4.5,12.9,7.4,16.8,6c4-1.3,7.7-6.2,8.3-11.5c0.7-5-0.2-3.5-0.2-3.5
						s-0.4-1-0.5-2.4c-0.1-1.3-5.8-5.6-5.8-5.6s8.7,2.4,9.3,9.3c0.7,7,2,9.5-4.7,15.7c-6.7,6.1-16.8,4-20.5,2.5
						c-3.6-1.5-12.5-11.5-13.1-18.7c-0.7-7.2,1.5-16.4,1.5-16.4s-6.4,3.3-8.1,6.1c-1.5,3-7.8,2.5-7.8,2.5s-10.6-0.4-14.1-2.5
						c-3.5-2-4.2-5.4-4.2-5.4s-2.6,3.2-2.1,4.5c0.4,1.3-4.4,11.3-6.3,12.6c-2,1.4-3.9-0.5-3.9-0.5l-1.1-1.5l-3.9-1l-3.4,1.7
						c0,0-0.3,0-1.4,1.9c-1.2,1.9-0.5,4-0.3,5.1c0.2,1.1,2,2.8,2.1,3c0-0.1-0.8-1.7-0.5-3.4c0.2-1.5,0.5-1.5,2.4-2.6
						c1.7-0.9,3.6,0,3.6,0s0.3,0.8,0.8,1.4c0.4,0.8,1.7,0.2,1.6,1.1s0,0.9,0.4,4.3c0.4,3.4,1.3,5,1.3,5.4c0,0.3-0.7,2.5-2,2.6
						c-1.3,0.1-2.1,2.1-2.1,2.1s0.3,2-0.9,2c-1.3,0.1-4.5-0.4-4.5-0.4s3.2,2.4,6.1,2.5c3.1,0.1,3.1-1.4,3.1-1.4s1.9-1.2,2-1.2
						c0.1,0,1.6,0.1,1.6,0.1s-0.1,3.7-0.1,3.8c0,0.1-0.3,3.6-0.3,3.6s-2.3-0.1-4,0.2c-1.7,0.3-3.9,1.4-3.5,1.4
						c0.3,0,1.5,0.1,3.1,0.2c1.4,0.1,3.4,1.2,3.4,1.2s3.3,1.2,5-0.9c1.9-2.1,0.4-1.5,1-4.9c0.5-3.4,0-0.7,1-2
						c0.9-1.3,1.3-1.2,1.5-1.6s-1.1-3.7-1.2-3.8c-0.1-0.1-1.3-0.9-1.3-0.9l-0.7-1.2c0,0-2.8-0.4-2.1-1.2c0.7-0.8,2.3-3.2,2.3-3.2
						s0,0,0.5-3c0.3-2.1,0.2-2.5,0.1-2.5c0.1,0,0.7-0.2,1.9-0.7c2-0.7,0.7-0.8,2.6-3.3c1.9-2.5,1.3-2.4,3.6-1.9
						c2.4,0.4,0.4,1,7.5,1.1c7.1,0.1,10.3-1.1,10.3-1.1v2.4l2.1-0.1c0,0,0.2,3.9,1.3,6.9c1.1,3,3.3,9.4,7.8,14.2
						c4.5,4.8,10.8,6.7,14.6,7.5c3.8,0.9,14.3,1.1,18.9-1c4.5-2,9.1-5.6,9.1-5.6s5.1,2,9.3,3.5c4.2,1.4,9.2,6.1,9.2,6.1
						s-2.3-0.7-3.3-0.8c-1-0.1-3.6-0.4-5.6-0.4c-2,0-6.1,0.5-10.1,2.5c-3.8,1.9-5.9,4.9-6,5.1c0.1,0,2.6-1.2,4.9-2
						c2.5-0.9,8.2-1.1,13.9-0.2c5.7,0.9,6.9,4.9,12.2,6.1c5.5,1.2,4.8,2.7,14.8,1.5c9.9-1.1,12.9-3.4,17-5.9
						c4.3-2.5,5.5-1.5,8.2-3.7c2.7-2,0.3-2.8-2.4-4.3c-2.7-1.4-3.6-2.4-4-5.9c-0.3-3.6,2.4-12.7,3.1-13.3c0.7-0.7,2.1-2.8,4-4.5
						c2-1.6,1.3-1.2,3.5-1.7c2.3-0.5,3.3,2,3.3,2s-0.4,1.9-1.7,2c-1.3,0.1-0.7,0-1.3-0.3c-0.7-0.3-2.1,0.1-3.6,3.1
						c-1.4,2.8-1.3,4.9-2.4,7.4c-0.9,2.5-1.9,5.8,1.2,8.9c3.2,3.1,7.8,1.1,12.8,1.1c5,0,8.9-1.7,11-2c2-0.2,1.6-0.8,3.1-2.5
						c1.3-1.6,0.8-3.5,0.5-5.1c-0.2-1.7-1.1-2.6-4-3.3s-1.7,1.9-1.7,1.9s2.7,2.5,0.3,3.7c-2.4,1.3-4.7-0.8-4.9-2.6
						c-0.3-1.7,1.5-4.7,3.7-5.2c2.1-0.5,4.2-0.4,7.2,2.4c3.2,2.7,1.2,5.9,1,9.1s-0.2,0.4-1.2,0.9c-1,0.4-1,0.4-1.3,1.4
						c-0.3,1.1,1.2,1.2,1.7,1.2c0.7,0,1.5,0.9,4.2,2.6c2.6,1.6,1.2,2.4,3.9,6.3c2.7,4.2,0.7,0.7,3.6,0.5c3-0.1,3.1,0.5,3.1,0
						c0-0.5,0.2-1.3,2.8-2.4c2.6-1,2,0.1,4,0c2.1-0.1,2.3-2.6,4.2-4c1.9-1.4,2-0.5,3.2-1.3c1-0.8-0.5-1.5-0.5-1.5s0,0,3.6,0.1
						c3.6,0.1,5.4,0.2,5.4,0.2l0.7,1.4l2,0.5v1.7c0,0,2.8,1.2,3.6,1.2s3.6-0.2,3.8-0.7c0.1-0.4,1-2.4,1.6-3.2s3.4-4.4,3.5-5
						c0.1-0.7-0.1-2.5-0.3-3.8c-0.2-1.4-3.1-1.9-3.1-1.9s0.9,0.7,1.2,2.6c0.2,1.9,0.3,0.7-0.9,3.7c-1.3,3.1-1.7,0.4-3.3,0.8
						c-1.3,0.3-2.6,0-3.1,0s-2.5-2.7-2.5-2.7s-0.1-0.4-0.1-0.8c0-0.3,0.4-4.9,0.4-7.2s0.2-1.6,0.2-1.6s1.5-1,1.6-1.2
						c0.1-0.2,0-2.1,0-2.1s0,0,2.7-0.1c2.7-0.1,2.7-0.7,4-1c1.3-0.3,0.7-0.1,2.6,0.4c1.9,0.5,1.9,1.2,1.9,1.2
						S429.5,429.8,429.1,427.7z M344.4,318.7c3,0.5,2.8,0.8,4.3,1.4c1.4,0.7,1.1,2.7,1.2,2.7l-0.1,0.3c0,0-0.5,0.4-3,0.3
						s-1.3-0.7-2-1.7c-0.7-1.1-2.3-1-3.3-1.6c-1-0.7-1-2.3-1-2.3C341,318.3,341.4,318.2,344.4,318.7z M323.6,385.8
						c0.1-0.2,1.6-4.5,1.1-6.4c-0.7-2.1,2-5.4-1.1-6.3c-3.2-1.1-7.1-0.7-7.1-0.7s-3.4,0.3-5.6-0.3c-2.1-0.7-4.2-2.6-4.3-2.7
						c0.1,0,3.4,1.3,4.8,0.3c1.4-1,1.7-0.4,1.7-3.1c0-2.6-1.3-3.1-2.1-3.5c-0.8-0.4,2.7-1.3-1.7-1.3c-4.5,0-6.7-0.8-6.7-0.8
						s3.4-0.3,3.4-1c0.1-0.7-1.9-2.1-1.9-2.1s-2,0.1-3-0.4c-1-0.5,0.1-2.6-1.1-4.8c-1.2-2.2-2.3-3.1-3.8-3.1c-1.5,0-1.6,0-1.6,0
						s2.1-1.2,2.7-1.1c0.5,0.1,1.2,0.3,1.2,0.3s5,2.6,6.7,5.1c1.5,2.6,1.5,3.6,2.3,4.2c0.7,0.7,4-0.9,5,0.7c1.1,1.5,1.6,1.6,2.4,4.5
						c0.7,2.8,0,5.7,0,5.7s6.9-0.7,9.2,1c2.4,1.5,3.8,5.2,3.7,8C327.6,380.5,323.8,385.5,323.6,385.8z"/>
					<path fill="#F15A24" d="M389.2,339.1c0,0-2.4,0.9-2.7,2.1c-0.3,1.2-1.1,1.1-0.2,3.9s1.4,3.2,1.4,3.2s2.6,0.4,3.1,0.4
						s-0.4-4,0-5.8s4.2-4.9,5.2-5.5c1.1-0.7,4.9-1.3,6.3-1.2c1.4,0.1,2.7,0.8,2.7,0.8s-4.3,0.5-5,1.4c-0.7,1-3.6,4.3-3.5,4.8
						c0.1,0.5-0.4,2.6-0.4,2.6l2.3,1.4l0.4,1.9c0,0,0.8-0.4,1,0.4c0.2,0.9,0.2,1,0.2,1s2.7-0.2,4.4,1.1c1.6,1.3,3.4,2.3,4.7,1.9
						c1.3-0.2,1.3-0.8,1.3-0.8s-0.5-0.9,0.4-1.6c0.9-0.8,1.5-0.8,2-0.9c0,0,1.3-0.5,0-2.8c-1.3-2.3-0.8-2.6-2.5-3
						c-1.6-0.3-3.4,0.2-3.4,0.2s3-2.5,4.2-2.3c1.2,0.2,3.1,0.2,3.4,1c0.4,0.7,0.1,3.9,2.4,4.8c2.1,0.9,3.5,3.2,3.5,3.4
						c0,0.2,0.4,2.4-1.5,3.3c-2,0.9-5.5,0.7-6,1.4c-0.5,0.8-0.4,4.3-0.4,5.4c0,1.1-0.8,5.7,0.3,9.4c1.1,3.7,3.6,6.2,4.9,9.7
						c1.3,3.5,1.6,7.6-1,7.9c-2.7,0.2-3.5,0.2-5,0c-1.5-0.2-3.3,0.4-3.8,1.5c-0.5,1.2,1.3,2.5-5.8,9.5c-7.1,7-12.6,9.5-16.1,14.1
						c-3.5,4.6-4.5,4.9-4.5,4.9s5.5-7.9,7.1-12.2c1.5-4.3,2.7-15,3.2-18.3c0.3-3.3,2.6-5.9,3.2-7.6c0.5-1.7,3.6-2,4-0.7
						c0.4,1.3,0,3.6,1.7,2.8c1.6-0.7,1.3-1,2.3-2.6c0.9-1.6,0.7-1.9,0.5-4.7c-0.1-2.8-0.2-5.8-0.2-8.9c0-3.1,0.9-3.9,0-4.8
						c-0.9-0.9-3.8-1-5.4-3.6c-1.4-2.5-3.5-2.5-5.2-3.1c-1.7-0.5-6.1-0.1-7-1.1c-0.9-1,0.8-0.4-1.4-3.4c-2.3-3-2.7-1.2-2.1-5
						c0.7-3.9,0.5-5.4,2.1-6.3c1.6-1.1,3.5-2,5.6-1.9c2,0.1,2.7,0.3,2.7,0.3L389.2,339.1z"/>
				</g>
			</g>
		</g>
	</g>
	<g id="图层_5">
	</g>
</g>
<g id="图层_4">
	<g>
		
			<linearGradient id="SVGID_1_" gradientUnits="userSpaceOnUse" x1="169.5443" y1="194.126" x2="191.8469" y2="194.126" gradientTransform="matrix(-0.3758 -0.515 0.515 -0.3758 67.8231 800.2045)">
			<stop  offset="0" style="stop-color:#000000"/>
			<stop  offset="3.450290e-002" style="stop-color:#060606"/>
			<stop  offset="7.972690e-002" style="stop-color:#161616"/>
			<stop  offset="0.1309" style="stop-color:#313131"/>
			<stop  offset="0.1865" style="stop-color:#575757"/>
			<stop  offset="0.2449" style="stop-color:#878787"/>
			<stop  offset="0.2651" style="stop-color:#767676"/>
			<stop  offset="0.3095" style="stop-color:#575757"/>
			<stop  offset="0.3598" style="stop-color:#3B3B3B"/>
			<stop  offset="0.4167" style="stop-color:#252525"/>
			<stop  offset="0.4831" style="stop-color:#141414"/>
			<stop  offset="0.5652" style="stop-color:#090909"/>
			<stop  offset="0.6803" style="stop-color:#020202"/>
			<stop  offset="1" style="stop-color:#000000"/>
		</linearGradient>
		<polygon fill="url(#SVGID_1_)" stroke="#000000" stroke-width="0.75" stroke-miterlimit="10" points="159.7,581.7 168.1,593.2 
			40,686.6 31.6,675.1 		"/>
		<path fill="#E6E6E6" stroke="#000000" stroke-miterlimit="10" d="M164.4,588l7.1,9.7c0,0,207.8-155.4,268.3-199.2
			s111.1-82.8,124.8-95.1c13.6-12.3,14-18.3,14-18.3"/>
		<path fill="#999999" stroke="#000000" stroke-miterlimit="10" d="M164.4,588l-7.8-10.6c0,0,211.4-150.6,271.7-194.7
			s112.8-80.7,128.6-89.8s21.6-7.6,21.6-7.6"/>
		<path fill="#4D4D4D" stroke="#000000" stroke-miterlimit="10" d="M163.9,587.5l-0.5-0.5l-3.4-4.7l381-274.9c0,0,10.7-7,16-10.3
			c7.8-4.9,16-8,16-8"/>
		<path fill="#808080" stroke="#000000" stroke-miterlimit="10" d="M573.1,289.1c0,0-5.4,7.3-12.6,13.2
			c-4.7,3.9-14.8,11.9-14.8,11.9L167.9,592.9l-3.4-4.7l-0.4-0.7"/>
		<path fill="#FBB03B" stroke="#000000" stroke-miterlimit="10" d="M166.6,585.9c0,0,1.1,2.6,3.2,5.9c2,3.3,5.8,9.2,5.8,9.2
			s1.4,2,0.9,2.4c-0.4,0.4-3.9,2.8-3.9,2.8s-0.4,0.3-1.2-0.5c-0.7-1.1-7.4-10.2-7.4-10.2s0-0.4,0.3-0.7c0.3-0.2,1.4-1.1,1.4-1.1
			l-3.5-4.8L166.6,585.9z"/>
		<path fill="#FF931E" stroke="#000000" stroke-miterlimit="10" d="M166.4,585.7c0,0-2.1-1.7-4.6-4.7c-2.5-3-7.1-8.5-7.1-8.5
			s-1.5-2-2.1-1.6c-0.5,0.3-3.9,2.8-3.9,2.8s-0.5,0.3,0.2,1.3c0.7,1.1,7.4,10.2,7.4,10.2s0.3,0.1,0.7-0.1c0.3-0.2,1.4-1.1,1.4-1.1
			l3.7,4.8L166.4,585.7z"/>
		
			<linearGradient id="SVGID_2_" gradientUnits="userSpaceOnUse" x1="162.6163" y1="66.3107" x2="198.5536" y2="66.3107" gradientTransform="matrix(-0.3758 -0.515 0.515 -0.3758 67.8231 800.2045)">
			<stop  offset="2.551020e-002" style="stop-color:#F7931E"/>
			<stop  offset="8.505297e-002" style="stop-color:#F79421"/>
			<stop  offset="0.1265" style="stop-color:#F7992A"/>
			<stop  offset="0.1624" style="stop-color:#F8A039"/>
			<stop  offset="0.1952" style="stop-color:#F9AB4F"/>
			<stop  offset="0.2258" style="stop-color:#FAB86C"/>
			<stop  offset="0.2549" style="stop-color:#FBC98E"/>
			<stop  offset="0.2828" style="stop-color:#FCDDB7"/>
			<stop  offset="0.309" style="stop-color:#FEF3E6"/>
			<stop  offset="0.3214" style="stop-color:#FFFFFF"/>
			<stop  offset="0.3524" style="stop-color:#FEEFD6"/>
			<stop  offset="0.3862" style="stop-color:#FDE0B2"/>
			<stop  offset="0.4241" style="stop-color:#FDD392"/>
			<stop  offset="0.4661" style="stop-color:#FCC876"/>
			<stop  offset="0.5135" style="stop-color:#FCBF60"/>
			<stop  offset="0.5689" style="stop-color:#FBB84F"/>
			<stop  offset="0.6374" style="stop-color:#FBB344"/>
			<stop  offset="0.7334" style="stop-color:#FBB13D"/>
			<stop  offset="1" style="stop-color:#FBB03B"/>
		</linearGradient>
		<path fill="url(#SVGID_2_)" stroke="#000000" stroke-miterlimit="10" d="M35.5,680.5l-4.3-5.9c0,0-1.3-0.9-2.6-0.2
			c-1.3,0.7-3.1,0.3-3.3,0s6.8,9.2,6.8,9.2s7,9.6,6.8,9.2c-0.2-0.3,0-2.1,1.1-3.1c1.1-1.1,0.5-2.5,0.5-2.5l-4.3-5.9"/>
	</g>
</g>
<g id="图层_6">
	<path fill="#CCCCCC" stroke="#000000" stroke-miterlimit="10" d="M331.9,693.4"/>
	<g>
		
			<linearGradient id="SVGID_3_" gradientUnits="userSpaceOnUse" x1="399.6854" y1="214.2694" x2="422.9625" y2="214.2694" gradientTransform="matrix(-0.3752 0.5154 -0.5154 -0.3752 763.1458 492.1328)">
			<stop  offset="0" style="stop-color:#808080"/>
			<stop  offset="1.065067e-002" style="stop-color:#7E7B7A"/>
			<stop  offset="2.542570e-002" style="stop-color:#786F68"/>
			<stop  offset="3.571429e-002" style="stop-color:#736357"/>
			<stop  offset="0.174" style="stop-color:#6C5E53"/>
			<stop  offset="0.3757" style="stop-color:#584F48"/>
			<stop  offset="0.6153" style="stop-color:#393736"/>
			<stop  offset="0.6531" style="stop-color:#333333"/>
			<stop  offset="1" style="stop-color:#534741"/>
		</linearGradient>
		<polygon fill="url(#SVGID_3_)" stroke="#000000" stroke-miterlimit="10" points="430.8,583.9 439.5,571.8 565.9,663.8 
			557.1,675.8 		"/>
		
			<linearGradient id="SVGID_4_" gradientUnits="userSpaceOnUse" x1="411.2485" y1="1087.4553" x2="411.2485" y2="337.1528" gradientTransform="matrix(-0.3752 0.5154 -0.5154 -0.3752 763.1458 492.1328)">
			<stop  offset="0.2041" style="stop-color:#666666"/>
			<stop  offset="0.2744" style="stop-color:#6B6B6B"/>
			<stop  offset="0.3584" style="stop-color:#7A7A7A"/>
			<stop  offset="0.4491" style="stop-color:#929292"/>
			<stop  offset="0.5102" style="stop-color:#A6A6A6"/>
			<stop  offset="0.5382" style="stop-color:#989898"/>
			<stop  offset="0.6061" style="stop-color:#7D7D7D"/>
			<stop  offset="0.6798" style="stop-color:#686868"/>
			<stop  offset="0.7614" style="stop-color:#595959"/>
			<stop  offset="0.8569" style="stop-color:#505050"/>
			<stop  offset="1" style="stop-color:#4D4D4D"/>
		</linearGradient>
		<polygon fill="url(#SVGID_4_)" stroke="#000000" stroke-miterlimit="10" points="435.3,577.1 441.2,569.2 54.4,287.8 51.8,306.1 
			428.9,585.9 		"/>
		<polygon fill="#CCCCCC" stroke="#1A1A1A" stroke-miterlimit="10" points="431.5,580.5 55.3,303 50.4,305.1 428.1,585.3 		"/>
		<polygon fill="#F2F2F2" stroke="#000000" stroke-miterlimit="10" points="56.5,303.7 58.4,290.5 54.4,287.7 52,306.2 		"/>
		
			<rect x="424" y="569" transform="matrix(-0.5886 0.8084 -0.8084 -0.5886 1159.2179 566.437)" fill="#F7931E" stroke="#000000" stroke-width="0.75" stroke-miterlimit="10" width="23.1" height="18.3"/>
		
			<rect x="422.9" y="573.7" transform="matrix(-0.5886 0.8084 -0.8084 -0.5886 1162.0841 566.1742)" fill="#736357" stroke="#000000" stroke-miterlimit="10" width="28.1" height="10.2"/>
		
			<rect x="417.5" y="575" transform="matrix(-0.5886 0.8084 -0.8084 -0.5886 1161.9447 566.1688)" fill="#998675" stroke="#000000" stroke-miterlimit="10" width="38.9" height="7.4"/>
		
			<radialGradient id="SVGID_5_" cx="700.8459" cy="1155.4208" r="22.5037" gradientTransform="matrix(0.6375 0 0 0.6375 127.5 -57.8711)" gradientUnits="userSpaceOnUse">
			<stop  offset="0.7755" style="stop-color:#F7931E"/>
			<stop  offset="0.7924" style="stop-color:#F69422"/>
			<stop  offset="0.8102" style="stop-color:#F3992F"/>
			<stop  offset="0.8285" style="stop-color:#EE9F44"/>
			<stop  offset="0.8472" style="stop-color:#E6A962"/>
			<stop  offset="0.866" style="stop-color:#DDB688"/>
			<stop  offset="0.8849" style="stop-color:#D1C5B6"/>
			<stop  offset="0.8929" style="stop-color:#CCCCCC"/>
			<stop  offset="0.9101" style="stop-color:#CDCBC9"/>
			<stop  offset="0.9227" style="stop-color:#D0CAC0"/>
			<stop  offset="0.9338" style="stop-color:#D5C7B0"/>
			<stop  offset="0.9441" style="stop-color:#DCC299"/>
			<stop  offset="0.9537" style="stop-color:#E6BD7C"/>
			<stop  offset="0.9628" style="stop-color:#F1B659"/>
			<stop  offset="0.9694" style="stop-color:#FBB03B"/>
		</radialGradient>
		<path fill="url(#SVGID_5_)" stroke="#000000" stroke-miterlimit="10" d="M586.1,687.2c4.6-6.2,3.1-15.2-3.5-20
			c-6.4-4.7-15.5-3.5-20.1,2.8c-4.6,6.2-3.1,15.2,3.5,20C572.5,694.8,581.5,693.6,586.1,687.2z M566.9,673.3c3-4,8.6-4.8,12.8-1.7
			c4.2,3.1,5.1,8.7,2.3,12.7c-3,4-8.6,4.8-12.8,1.7C564.9,682.9,563.9,677.2,566.9,673.3z"/>
		
			<linearGradient id="SVGID_6_" gradientUnits="userSpaceOnUse" x1="396.6927" y1="95.893" x2="425.0201" y2="95.893" gradientTransform="matrix(-0.3752 0.5154 -0.5154 -0.3752 763.1458 492.1328)">
			<stop  offset="0" style="stop-color:#F7931E"/>
			<stop  offset="5.807546e-002" style="stop-color:#DD841B"/>
			<stop  offset="0.2439" style="stop-color:#905511"/>
			<stop  offset="0.4096" style="stop-color:#52310A"/>
			<stop  offset="0.5489" style="stop-color:#251605"/>
			<stop  offset="0.6565" style="stop-color:#0A0601"/>
			<stop  offset="0.7194" style="stop-color:#000000"/>
			<stop  offset="0.7469" style="stop-color:#0F0902"/>
			<stop  offset="0.8002" style="stop-color:#382107"/>
			<stop  offset="0.8739" style="stop-color:#79480F"/>
			<stop  offset="0.9643" style="stop-color:#D27D1A"/>
			<stop  offset="1" style="stop-color:#F7931E"/>
		</linearGradient>
		<polygon fill="url(#SVGID_6_)" stroke="#000000" stroke-width="0.75" stroke-miterlimit="10" points="550.6,672.6 561.2,658.1 
			568.5,663.3 557.8,677.8 		"/>
		
			<radialGradient id="SVGID_7_" cx="411.4539" cy="197.5866" r="5.2053" gradientTransform="matrix(-0.3752 0.5154 -0.5342 -0.3889 770.6185 497.6583)" gradientUnits="userSpaceOnUse">
			<stop  offset="0" style="stop-color:#FFFFFF"/>
			<stop  offset="0.7092" style="stop-color:#080808"/>
			<stop  offset="1" style="stop-color:#4D4D4D"/>
		</radialGradient>
		<path fill="url(#SVGID_7_)" stroke="#000000" stroke-width="0.5" stroke-miterlimit="10" d="M508.7,635.6
			c-1.5-1.1-1.9-3.3-0.8-4.7c1.1-1.4,3.3-1.7,4.7-0.7c1.5,1.1,1.9,3.3,0.8,4.7C512.4,636.4,510.4,636.6,508.7,635.6z"/>
		
			<rect x="432.2" y="574.9" transform="matrix(-0.5886 0.8084 -0.8084 -0.5886 1162.0498 565.827)" fill="#333333" stroke="#000000" stroke-width="0.75" stroke-miterlimit="10" width="9.7" height="7.4"/>
	</g>
</g>
<g>
	<g>
		<path fill="#C4BA98" stroke="#000000" stroke-width="0.5" stroke-miterlimit="10" d="M424.2,672.6v-14.5h11.3v2.6h-8.7v3.8h4.7
			v2.7h-4.7v4.5L424.2,672.6z"/>
		<path fill="#C4BA98" stroke="#000000" stroke-width="0.5" stroke-miterlimit="10" d="M438.6,661.6c0-1.3,0.2-2.2,0.6-2.7
			c0.4-0.5,1.1-0.7,2.2-0.7h8.2c1.1,0,1.8,0.2,2.2,0.7c0.4,0.5,0.6,1.4,0.6,2.7v7.7c0,1.3-0.2,2.2-0.6,2.7c-0.4,0.5-1.1,0.7-2.2,0.7
			h-8.2c-1.1,0-1.8-0.2-2.2-0.7s-0.6-1.4-0.6-2.7V661.6z M441.2,669.9h8.6v-9.2h-8.6V669.9z"/>
		<path fill="#C4BA98" stroke="#000000" stroke-width="0.5" stroke-miterlimit="10" d="M457.9,670.3v-12.2h9.6
			c0.9,0,1.5,0.2,1.9,0.7s0.6,1.2,0.6,2.2v3.4c0,1-0.2,1.7-0.6,2.2s-1,0.7-1.9,0.7H466l5.2,5.5h-3.7l-4.5-5.5h-2.5v2.6L457.9,670.3z
			 M466.3,660.6h-5.9v4h5.9c0.5,0,0.8-0.1,0.9-0.3c0.2-0.2,0.2-0.5,0.2-0.9v-1.8c0-0.4-0.1-0.7-0.2-0.9
			C467.1,660.7,466.8,660.6,466.3,660.6z"/>
	</g>
	<g>
		<path fill="#C4BA98" stroke="#000000" stroke-width="0.5" stroke-miterlimit="10" d="M404.6,701.9c1-0.1,1.5,0.3,1.5,1.3v1.7h2.8
			c1.1,0,1.4,0.4,0.7,1.1h-3.6c0,1.9,0.1,2.8,0.4,2.8c0.5,0.1,0.9,0.1,1.3-0.2c1.2-0.2,1.8,0.2,1.7,1.3c-0.1,0.9-0.2,2.1-0.2,3.8
			c0.1,1.2-0.5,1.7-1.9,1.3c-1.5-0.5-3.1-0.5-4.7,0c-1,0.6-1.6,0.3-1.7-0.9c-0.1-1.2-0.4-2.6-0.7-4.1c0.1-1,0.8-1.3,2.1-0.9
			c1,0.1,1.5-0.1,1.5-0.7c0-1.4-0.1-2.7-0.2-4C403.4,702.6,403.7,701.7,404.6,701.9z M402.7,710.9c-0.1,1.5,0.1,2.3,0.7,2.4
			c2.9,0.4,4.2-0.1,4-1.3c0.2-1.8-0.9-2.4-3.6-2.1C403.1,710,402.7,710.3,402.7,710.9z M410.3,706.6c0.5,0,0.8-0.1,0.9-0.2
			c-0.1-1.4-0.2-2.7-0.2-4c-0.1-0.9,0.3-1.2,1.3-1.1c0.6,0,0.9,0.3,0.9,0.9c-0.1,1.1-0.1,2.4,0,4c4.1-0.6,6.2-0.6,6,0
			c0.2,0.4,0.2,0.6-0.2,0.6c-1.9,0.2-3.8,0.6-5.7,0.9c0.4,1.1,0.7,2.1,1.1,2.8c0.5-0.6,1-1.4,1.5-2.3c0.4-0.4,0.7-0.5,1.1-0.4
			c0.5,0.4,0.7,0.8,0.6,1.3c-0.7,1-1.4,1.8-2.1,2.4c1.4,1.4,3.6,2,6.8,1.9c0.2,0.1-0.1,0.7-1.1,1.9c-1.4,1.4-2.8,1.6-4.3,0.7
			c-0.6-0.5-1.6-1.4-3-2.8c-1.2,0.9-2.6,1.4-4,1.5c-0.6-0.1-0.7-0.4-0.4-0.7c1.2-0.4,2.4-1.1,3.4-2.3c-0.5-0.7-1-2-1.5-3.8
			c-0.6,0.1-1.2,0.3-1.7,0.6c-0.7,0.1-1.1-0.2-0.9-1.1C408.9,707,409.4,706.7,410.3,706.6z M416.3,702.2c0.4-0.9,0.9-1.1,1.5-0.7
			c0.6,0.4,0.8,0.9,0.6,1.5c-0.5,0.7-1.3,1.2-2.4,1.3c-0.5,0-0.7-0.2-0.6-0.6C415.8,703.3,416.1,702.7,416.3,702.2z"/>
		<path fill="#C4BA98" stroke="#000000" stroke-width="0.5" stroke-miterlimit="10" d="M431.2,706.6c0.6,0,1.1,0.2,1.3,0.6
			c-0.1,0.5-0.6,0.7-1.3,0.6c-0.7,0-1.5,0.1-2.3,0.2c0.2,0.4,0.1,0.7-0.4,1.1l-0.9,0.9c-0.4,0.5-0.1,0.8,0.9,0.9
			c0.7,0.1,1.4-0.1,1.9-0.7l-0.6-1.1c0.1-0.4,0.4-0.5,0.7-0.4c0.4,0.2,0.7,0.5,1.1,0.7c0.2,0.5,0.6,1.1,0.9,1.7
			c-0.1,0.2-0.2,0.4-0.4,0.4c-0.5,0.1-1-0.1-1.5-0.7c-0.7,1.4-1.6,1.9-2.4,1.5c-0.7-0.5-1.4-0.6-2.1-0.2c-0.2,0-0.5-0.2-0.7-0.6
			c-0.1-0.5,0.1-1,0.7-1.5c1.1-1,1.5-1.7,1.1-2.1c-0.5-0.1-1.2,0-2.3,0.4c-0.4,0.2-0.6,0.2-0.7-0.2c0.1-0.9,0.6-1.4,1.3-1.5
			L431.2,706.6L431.2,706.6z M431.2,703.9c0.4,0,0.6,0.2,0.7,0.6c0,0.4-0.1,0.6-0.4,0.6h-3c-0.9,0-1.7,0.1-2.4,0.2
			c-0.2-0.1-0.4-0.4-0.4-0.7c0.1-0.4,0.4-0.7,0.7-0.9C427.4,703.8,428.9,703.9,431.2,703.9z M436.1,709.2c-0.4-0.1-0.7-0.1-1.1,0
			c-0.4,0.2-0.7,0.5-1.1,0.6c-0.2,0-0.5-0.1-0.6-0.2c-0.2-1.9-0.5-3.6-0.7-5.1c-0.1-0.7,0.2-1.1,1.1-1.1c0.4,0.2,1,0.3,1.9,0.2
			c0.4-0.4,0.8-1,1.3-1.9c0.1-0.2,0.4-0.4,0.7-0.4c1.1,0.4,1.4,0.8,0.9,1.3c-0.4,0.4-0.7,0.7-0.9,0.9c0.9,0,2,0.1,3.4,0.4
			c0.4-0.1,0.7-0.2,0.9-0.4c0.4-0.1,0.7-0.1,0.9,0.2c0.5,0.4,0.6,0.9,0.4,1.7c-0.4,1.1-0.6,2.3-0.7,3.6l-0.6,0.4
			c0.5,0.4,0.6,0.7,0.2,0.9c-0.2,0.2-0.5,0.5-0.7,0.7c-0.2,0.1-0.2,0.3,0.2,0.6c0.5,0.1,0.9,0.1,1.3-0.2c-0.5-0.4-0.6-0.6-0.2-0.7
			c0.5,0,0.9,0.1,1.1,0.2c0.2,0.4,0.5,0.7,0.7,1.1c-0.1,0.1-0.3,0.2-0.6,0.4l-0.7-0.6c-0.2,0.7-0.7,1.1-1.3,0.9
			c-0.5-0.4-1-0.5-1.5-0.4c-0.4-0.2-0.5-0.6-0.4-0.9c0.2-0.2,0.5-0.6,0.7-0.9c0.1-0.2,0.3-0.6,0.6-1.1c-1-0.1-2.2-0.2-3.6-0.2
			c-0.9,2.9-2.6,5-5.1,6.2c-2,0.7-3.5,0.5-4.5-0.9c0-0.1,0.2-0.2,0.7-0.2C432.9,713.9,435.2,712.2,436.1,709.2z M436.7,704.5
			c-0.9,0-1.6,0.1-2.1,0.4c-0.2,0.7-0.1,1.1,0.4,1.1l2.1-0.2C437.2,705.2,437.1,704.7,436.7,704.5z M436.9,706.8
			c-0.6,0-1.4,0.1-2.3,0.2c0,0.9,0.2,1.3,0.6,1.3l1.3-0.2L436.9,706.8z M438.2,710.2c0.1-0.5,0.4-0.7,0.7-0.7c0.2,0,0.5,0.1,0.6,0.4
			c-0.2,0.5-0.5,1-0.6,1.5c0,0.5,0.1,0.9,0.2,1.1c0.5,0.6,1.5,1.1,3,1.3c1.2,0.1,2.4,0,3.6-0.4c0.7-0.4,1.2-0.5,1.5-0.2
			c-0.1,0.7-0.6,1.6-1.3,2.6c-0.9,0.7-1.6,1-2.3,0.7c-2.1-0.4-3.9-1.2-5.3-2.6c-0.6-0.7-0.9-1.4-0.7-2.1
			C437.9,711.2,438.1,710.7,438.2,710.2z M441,708.5c0.2-0.5,0.3-0.9,0.2-1.3c-0.5-0.2-1.4-0.4-2.8-0.4c-0.1,0.5-0.2,1-0.2,1.5
			C439.2,708.4,440.1,708.5,441,708.5z M438.6,705.8l2.1,0.2c0.5,0.1,0.7-0.1,0.7-0.7c0-0.5-0.7-0.7-2.3-0.7
			C438.8,704.6,438.6,705.1,438.6,705.8z"/>
		<path fill="#C4BA98" stroke="#000000" stroke-width="0.5" stroke-miterlimit="10" d="M455.2,705.6c0.2-0.5,0.5-0.7,0.6-0.7
			c0.6-0.1,0.8,0.3,0.6,1.3c-0.4,1.1-0.9,2.3-1.7,3.6c-0.6,1-1.2,1.8-1.9,2.3c-1.2,1.1-2.6,1.1-4-0.2c-0.4-0.4-0.2-0.7,0.4-1.1
			C451.3,709.7,453.3,708,455.2,705.6z M459.5,701.9c1.2-0.1,1.8,0.6,1.7,2.1c-0.1,3.1-0.1,6.7,0.2,10.6c0,1.5-1.2,2.2-3.6,2.1
			c-1.2-0.1-2.7-0.8-4.3-2.1c-0.2-0.6-0.1-0.9,0.4-0.9c2.4,0.7,3.8,0.9,4.3,0.4c0.4-0.2,0.5-3.8,0.4-10.6
			C458.6,702.4,458.9,701.9,459.5,701.9z M462.5,706.2c-0.4-0.5-0.3-0.9,0.2-1.1c0.2-0.1,0.5-0.1,0.7,0.2c1.8,2.3,4.4,4.2,7.9,5.8
			c-0.4,0.6-0.7,1.1-1.1,1.3c-1.1,1-2.2,1-3.2,0C465.4,710.4,463.9,708.3,462.5,706.2z"/>
		<path fill="#C4BA98" stroke="#000000" stroke-width="0.5" stroke-miterlimit="10" d="M481.2,708.8c-0.4,1.2-0.7,2.2-1.1,2.8
			l2.4-0.4c-0.1-0.5-0.2-1-0.2-1.5c0.1-0.5,0.6-0.8,1.3-0.9c0.5,0,0.9,0.1,1.3,0.4c0.5,0.1,0.9,0.1,1.1,0V703c0-0.7,0.2-1.2,0.7-1.3
			c1.2,0,1.9,0.5,1.9,1.3c-0.1,0.6-0.2,1.1-0.2,1.5c2.6,0.1,4.8,0.2,6.6,0.2c0,0.6-0.2,1.2-0.6,1.7c-0.5,0.5-1,0.6-1.5,0.4
			c-2-0.6-3.5-0.8-4.5-0.6c-0.2,1-0.2,2,0,3c0.9,0.1,1.6,0.1,2.1-0.2c1.6-0.5,2.4-0.1,2.4,1.3c-0.2,1-0.4,2.3-0.4,3.8
			c0.2,1.6-0.3,2.2-1.7,1.7c-1.8-0.2-3.6-0.3-5.7-0.2c-1.5,0.7-2.3,0.3-2.4-1.3c0-0.4-0.1-1.1-0.2-2.1c-2.5,1.1-5.5,2-8.9,2.6
			c-1.1,0.2-1.6-0.2-1.5-1.3c0-0.6,0.6-1,1.9-1.1c1.4-0.1,3-0.3,4.7-0.6c0.4-1.4,0.6-2.7,0.6-4c0-0.9,0.2-1.3,0.7-1.3
			C481.2,706.7,481.6,707.5,481.2,708.8z M479.7,703c-0.1,1.5,0,2.2,0.4,2.1l2.6,0.2c0.6,0.5,0.7,0.9,0.2,1.1
			c-0.2,0.1-0.7,0.2-1.3,0.2c-2.5-0.5-5.1-0.3-7.7,0.6c-0.5,0.1-0.7-0.1-0.7-0.6c0.2-1.1,0.7-1.6,1.5-1.5c1,0.2,1.8,0.3,2.3,0.2
			c0.4-0.1,0.5-0.9,0.4-2.3c0.1-0.5,0.4-0.7,0.7-0.7C478.7,702.1,479.3,702.4,479.7,703z M477.8,711.3c-0.2,0.4-0.6,0.5-0.9,0.2
			c-0.7-1.1-1.2-2.1-1.3-3c-0.1-0.9,0.2-1.4,0.9-1.5c0.6-0.1,0.9,0.1,0.9,0.7C477.6,709,477.7,710.2,477.8,711.3z M488.3,710.5
			c-1.8-0.1-2.9,0-3.4,0.4c-0.4,0.9-0.4,1.8,0,2.6c0.1,0.6,1.5,0.8,4.1,0.6c1.1,0,1.7-0.6,1.7-1.9C490.8,711,490,710.4,488.3,710.5z
			"/>
	</g>
	
		<linearGradient id="SVGID_8_" gradientUnits="userSpaceOnUse" x1="355.1984" y1="234.8931" x2="355.1984" y2="234.8931" gradientTransform="matrix(1.0929 0 0 -1.0929 0 955.5428)">
		<stop  offset="0" style="stop-color:#C4BA98"/>
		<stop  offset="1.474962e-002" style="stop-color:#CEC5A9"/>
		<stop  offset="4.332456e-002" style="stop-color:#DDD7C4"/>
		<stop  offset="7.615717e-002" style="stop-color:#EAE6DA"/>
		<stop  offset="0.1145" style="stop-color:#F3F1EB"/>
		<stop  offset="0.162" style="stop-color:#FAF9F6"/>
		<stop  offset="0.2285" style="stop-color:#FEFEFD"/>
		<stop  offset="0.4133" style="stop-color:#FFFFFF"/>
		<stop  offset="0.4696" style="stop-color:#DDDBD8"/>
		<stop  offset="0.5499" style="stop-color:#B2AFA6"/>
		<stop  offset="0.6258" style="stop-color:#908B7F"/>
		<stop  offset="0.6952" style="stop-color:#787263"/>
		<stop  offset="0.7558" style="stop-color:#696252"/>
		<stop  offset="0.801" style="stop-color:#645D4C"/>
		<stop  offset="0.8499" style="stop-color:#776F5B"/>
		<stop  offset="0.9484" style="stop-color:#A89F82"/>
		<stop  offset="1" style="stop-color:#C4BA98"/>
	</linearGradient>
	
		<linearGradient id="SVGID_9_" gradientUnits="userSpaceOnUse" x1="355.1984" y1="234.8931" x2="355.1984" y2="234.8931" gradientTransform="matrix(1.0929 0 0 -1.0929 0 955.5428)">
		<stop  offset="0" style="stop-color:#C4BA98"/>
		<stop  offset="1.389108e-002" style="stop-color:#C7BD9D"/>
		<stop  offset="0.1655" style="stop-color:#E5E1D2"/>
		<stop  offset="0.2794" style="stop-color:#F8F7F3"/>
		<stop  offset="0.3418" style="stop-color:#FFFFFF"/>
		<stop  offset="0.4046" style="stop-color:#E1E0DC"/>
		<stop  offset="0.5083" style="stop-color:#B5B1A9"/>
		<stop  offset="0.6058" style="stop-color:#928D81"/>
		<stop  offset="0.6943" style="stop-color:#797364"/>
		<stop  offset="0.7708" style="stop-color:#696352"/>
		<stop  offset="0.8265" style="stop-color:#645D4C"/>
		<stop  offset="0.8691" style="stop-color:#776F5B"/>
		<stop  offset="0.955" style="stop-color:#A89F82"/>
		<stop  offset="1" style="stop-color:#C4BA98"/>
	</linearGradient>
	<path fill="url(#SVGID_8_)" stroke="url(#SVGID_9_)" stroke-width="0.5" stroke-miterlimit="10" d="M388.2,698.8"/>
	
		<linearGradient id="SVGID_10_" gradientUnits="userSpaceOnUse" x1="365.3203" y1="242.5574" x2="365.3203" y2="242.5574" gradientTransform="matrix(1.0929 0 0 -1.0929 0 955.5428)">
		<stop  offset="0" style="stop-color:#C4BA98"/>
		<stop  offset="1.474962e-002" style="stop-color:#CEC5A9"/>
		<stop  offset="4.332456e-002" style="stop-color:#DDD7C4"/>
		<stop  offset="7.615717e-002" style="stop-color:#EAE6DA"/>
		<stop  offset="0.1145" style="stop-color:#F3F1EB"/>
		<stop  offset="0.162" style="stop-color:#FAF9F6"/>
		<stop  offset="0.2285" style="stop-color:#FEFEFD"/>
		<stop  offset="0.4133" style="stop-color:#FFFFFF"/>
		<stop  offset="0.4696" style="stop-color:#DDDBD8"/>
		<stop  offset="0.5499" style="stop-color:#B2AFA6"/>
		<stop  offset="0.6258" style="stop-color:#908B7F"/>
		<stop  offset="0.6952" style="stop-color:#787263"/>
		<stop  offset="0.7558" style="stop-color:#696252"/>
		<stop  offset="0.801" style="stop-color:#645D4C"/>
		<stop  offset="0.8499" style="stop-color:#776F5B"/>
		<stop  offset="0.9484" style="stop-color:#A89F82"/>
		<stop  offset="1" style="stop-color:#C4BA98"/>
	</linearGradient>
	
		<linearGradient id="SVGID_11_" gradientUnits="userSpaceOnUse" x1="365.3203" y1="242.5574" x2="365.3203" y2="242.5574" gradientTransform="matrix(1.0929 0 0 -1.0929 0 955.5428)">
		<stop  offset="0" style="stop-color:#C4BA98"/>
		<stop  offset="1.389108e-002" style="stop-color:#C7BD9D"/>
		<stop  offset="0.1655" style="stop-color:#E5E1D2"/>
		<stop  offset="0.2794" style="stop-color:#F8F7F3"/>
		<stop  offset="0.3418" style="stop-color:#FFFFFF"/>
		<stop  offset="0.4046" style="stop-color:#E1E0DC"/>
		<stop  offset="0.5083" style="stop-color:#B5B1A9"/>
		<stop  offset="0.6058" style="stop-color:#928D81"/>
		<stop  offset="0.6943" style="stop-color:#797364"/>
		<stop  offset="0.7708" style="stop-color:#696352"/>
		<stop  offset="0.8265" style="stop-color:#645D4C"/>
		<stop  offset="0.8691" style="stop-color:#776F5B"/>
		<stop  offset="0.955" style="stop-color:#A89F82"/>
		<stop  offset="1" style="stop-color:#C4BA98"/>
	</linearGradient>
	<path fill="url(#SVGID_10_)" stroke="url(#SVGID_11_)" stroke-width="0.5" stroke-miterlimit="10" d="M399.2,690.5"/>
	<g>
		<g>
			<path fill="#C4BA98" stroke="#000000" stroke-width="0.5" stroke-miterlimit="10" d="M394.4,680.3h-7.3v5.7h3.9v3.9h-3.9v7
				l-2.2,1v-21.4h9.4V680.3"/>
			<path fill="#C4BA98" stroke="#000000" stroke-width="0.5" stroke-miterlimit="10" d="M397,694.3v-1.1v-16.6h8
				c0.7,0,1.3,0.3,1.6,1c0.3,0.7,0.5,1.7,0.5,3.2v5.1c0,1.5-0.2,2.5-0.5,3.2c-0.3,0.7-0.9,1-1.6,1h-1.2l4.3,8.1H405l-3.7-8.1h-2v2.7
				v1.2L397,694.3z M404.1,680.3h-4.9v6h4.9c0.4,0,0.6-0.1,0.8-0.4c0.1-0.2,0.2-0.7,0.2-1.3V682c0-0.6-0.1-1.1-0.2-1.3
				C404.7,680.4,404.4,680.3,404.1,680.3z"/>
			<path fill="#C4BA98" stroke="#000000" stroke-width="0.5" stroke-miterlimit="10" d="M411.5,698.1v-21.6h2.2v21.6H411.5z"/>
			<path fill="#C4BA98" stroke="#000000" stroke-width="0.5" stroke-miterlimit="10" d="M418.4,698.1v-21.6h9.5v3.7h-7.4v4.8h4.3
				v3.7h-4.3v5.3h7.5v4.1L418.4,698.1L418.4,698.1z"/>
			<path fill="#C4BA98" stroke="#000000" stroke-width="0.5" stroke-miterlimit="10" d="M432.1,698.1v-21.6h1.5l6.6,12.7
				c0.2,0.4,0.4,0.8,0.6,1.2s0.3,0.8,0.5,1.1c0-1.2-0.1-2.1-0.1-2.6c0-0.5,0-0.9,0-1.2v-11.3h1.9v21.6h-1.5l-6.8-13.3
				c-0.2-0.3-0.3-0.6-0.4-0.9c-0.1-0.3-0.2-0.6-0.3-0.8c0,0.7,0.1,1.3,0.1,1.9c0,0.6,0,1.1,0,1.5v11.6H432.1L432.1,698.1z"/>
			<path fill="#C4BA98" stroke="#000000" stroke-width="0.5" stroke-miterlimit="10" d="M447.8,698.1v-21.6h6c1.7,0,3,0.9,3.9,2.8
				c0.9,1.9,1.4,4.5,1.4,7.9c0,2-0.2,3.8-0.5,5.4c-0.3,1.6-0.9,2.9-1.5,3.8c-0.4,0.6-0.9,1-1.5,1.3c-0.6,0.3-1.4,0.4-2.3,0.4
				L447.8,698.1L447.8,698.1z M450,694.1h2.8c1.5,0,2.6-0.5,3.2-1.6c0.6-1.1,0.9-2.8,0.9-5.3c0-2.2-0.3-3.9-0.8-5
				c-0.5-1.1-1.3-1.7-2.3-1.7h-3.9L450,694.1L450,694.1z"/>
			<path fill="#C4BA98" stroke="#000000" stroke-width="0.5" stroke-miterlimit="10" d="M471.2,680.3h-6.1v4.6h5.8
				c0.9,0,1.5,0.4,1.8,1.1c0.3,0.7,0.5,2,0.5,4v3c0,2-0.2,3.3-0.5,4c-0.3,0.7-0.9,1.1-1.8,1.1h-5.8c-0.9,0-1.5-0.4-1.8-1.1
				c-0.3-0.7-0.5-2-0.5-4v-0.6l1.9-0.9v2.6h6.6v-4.9h-5.8c-0.9,0-1.5-0.4-1.8-1.1c-0.3-0.7-0.5-2-0.5-4v-2.4c0-2,0.2-3.3,0.5-4
				s0.9-1.1,1.8-1.1h5.3c0.9,0,1.5,0.3,1.8,1c0.3,0.7,0.5,1.9,0.5,3.7v0.5l-1.9,1V680.3L471.2,680.3z"/>
			<path fill="#C4BA98" stroke="#000000" stroke-width="0.5" stroke-miterlimit="10" d="M486.6,694.9v-6.1h-6.8v8.5l-2.2,0.8v-21.6
				h2.2v8.4h6.8v-8.4h2.2v17.5L486.6,694.9z"/>
			<path fill="#C4BA98" stroke="#000000" stroke-width="0.5" stroke-miterlimit="10" d="M493.6,698.1v-21.6h2.2v21.6H493.6z"/>
			<path fill="#C4BA98" stroke="#000000" stroke-width="0.5" stroke-miterlimit="10" d="M500.5,698.1v-21.6h8c0.7,0,1.3,0.3,1.6,1
				c0.3,0.7,0.5,1.7,0.5,3.2v4.8c0,1.5-0.2,2.5-0.5,3.2c-0.3,0.7-0.9,1-1.6,1h-5.8v7.4L500.5,698.1z M507.5,680.3h-4.9v5.7h4.9
				c0.4,0,0.6-0.1,0.8-0.4c0.1-0.2,0.2-0.7,0.2-1.3V682c0-0.6-0.1-1.1-0.2-1.3C508.2,680.4,507.9,680.3,507.5,680.3z"/>
		</g>
	</g>
</g>
</svg>
