<?xml version="1.0" encoding="utf-8"?>
<!-- Generator: Adobe Illustrator 18.1.1, SVG Export Plug-In . SVG Version: 6.00 Build 0)  -->
<svg version="1.1" id="图层_1" xmlns="http://www.w3.org/2000/svg" xmlns:xlink="http://www.w3.org/1999/xlink" x="0px" y="0px"
	 viewBox="0 0 612 792" enable-background="new 0 0 612 792" xml:space="preserve">
<g id="图层_1_1_" display="none">
	<line display="inline" fill="none" stroke="#000000" stroke-miterlimit="10" x1="306.3" y1="90" x2="306.3" y2="692.5"/>
	<circle display="inline" fill="none" stroke="#000000" stroke-miterlimit="10" cx="306.7" cy="353.9" r="109.5"/>
</g>
<g id="图层_2">
	<path fill="#333333" stroke="#000000" stroke-miterlimit="10" d="M309.2,640.5c16.5,1.4,39.1,1.6,64.9-3.9
		c37.6-8.1,51.8-23.6,85.7-25.9c26.9-1.9,49.3,2.1,64.7,6.2c-30.4-72.5-60.9-145-91.3-217.5c-40.9-13.6-83.1-26.1-124-39.6
		c-40.9,13.6-83.1,26.1-124,39.6c-30.4,72.5-60.9,145-91.3,217.5c15.4-4,37.8-8.1,64.7-6.2c33.9,2.3,48,17.8,85.7,25.9
		C270,642.1,292.8,642,309.2,640.5z"/>
	<g>
		<path fill="#603813" stroke="#000000" stroke-miterlimit="10" d="M105.8,689.2c2.5,0.3,4.9,0.7,7.4,0.9c7.9-6.1,18.3-15,28.6-27.3
			c18.9-22.1,27.8-42.7,33.8-56.8c15.1-35.6,18.7-65.8,21.3-89.2c2.1-17.9,2.1-34,2.3-56.4c0.3-19-0.1-35.1-0.4-46.7
			c-2.3,0.7-4.6,1.2-6.9,1.9c0.1,6.8,0.2,16.7-0.2,28.9c-0.9,34.4-1.9,72.8-13.7,117.9c-11.6,43.8-25.7,64.7-30.1,71
			c-9.2,12.9-17.3,21.3-19.5,23.1c-4.5,3.8-8.5,6.6-11.4,8.3C113.3,672.8,109.6,681.1,105.8,689.2z"/>
		<g>
			<g>
				<path fill="#808080" stroke="#000000" stroke-miterlimit="10" d="M147.2,462.3c1.1-6.6,2.5-13.4,4.3-20.7
					c1.3-5.6,2.7-10.9,4.3-16c0.3-0.4,1.1-1.6,2.6-2c1.2-0.2,2.1,0.3,3.5,1.1c1.9,1,4.2,2.4,4.8,4.8c0.2,0.7,0.2,1.5,0.2,3.1
					c0,0,0,2-0.3,3.8c-0.3,2.5-3.4,16-7.7,34.4c-0.1,0.4-0.3,1.5-1.3,2.4c-1.2,0.9-2.7,0.8-3.2,0.7c-3.5-0.4-6.4-4.5-7.1-8.2
					C146.9,464.3,147,463.1,147.2,462.3z"/>
				<path fill="#808080" stroke="#000000" stroke-miterlimit="10" d="M135.1,503.2c1.6-6.4,3.6-13.2,5.8-20.1
					c1.7-5.5,3.6-10.6,5.5-15.6c0.3-0.4,1.3-1.5,2.7-1.7c1.2-0.1,2.1,0.4,3.4,1.4c1.7,1.2,3.9,2.7,4.5,5.1c0.1,0.7,0.1,1.5-0.1,3.1
					c0,0-0.2,2-0.7,3.7c-0.5,2.4-4.6,15.7-10.4,33.8c-0.1,0.4-0.4,1.5-1.5,2.3c-1.3,0.9-2.7,0.5-3.3,0.4c-3.5-0.8-6.1-4.9-6.4-8.7
					C134.6,505.2,134.9,504,135.1,503.2z"/>
				<path fill="#808080" stroke="#000000" stroke-miterlimit="10" d="M125.2,533c1.5-6.4,3.3-13.3,5.2-20.3
					c1.5-5.5,3.3-10.7,5.1-15.7c0.3-0.4,1.2-1.6,2.7-1.9c1.2-0.2,2.1,0.3,3.5,1.3c1.7,1.1,4,2.6,4.6,5.1c0.2,0.7,0.1,1.5,0,3.1
					c0,0-0.1,2-0.5,3.7c-0.5,2.5-4.2,15.8-9.4,34c-0.1,0.4-0.3,1.5-1.5,2.3c-1.2,0.9-2.7,0.7-3.3,0.5c-3.5-0.7-6.2-4.8-6.7-8.6
					C124.9,535,125,533.8,125.2,533z"/>
				<path fill="#808080" stroke="#000000" stroke-miterlimit="10" d="M112.2,562.8c2-6.3,4.3-13,6.9-19.9c2.1-5.4,4.2-10.5,6.3-15.3
					c0.3-0.3,1.4-1.5,2.8-1.5c1.2-0.1,2.1,0.5,3.4,1.5c1.6,1.3,3.8,2.8,4.2,5.4c0.1,0.7,0,1.5-0.3,3c0,0-0.3,2-0.9,3.7
					c-0.8,2.4-5.4,15.4-12,33.2c-0.1,0.4-0.5,1.5-1.5,2.2c-1.3,0.8-2.7,0.3-3.3,0.3c-3.4-0.9-5.8-5.2-6-9.1
					C111.8,564.6,112,563.4,112.2,562.8z"/>
				<path fill="#808080" stroke="#000000" stroke-miterlimit="10" d="M98.8,589c2.2-6.3,4.7-12.9,7.6-19.6
					c2.2-5.2,4.5-10.3,6.9-15.1c0.3-0.3,1.4-1.5,2.8-1.5c1.2,0,2.1,0.7,3.3,1.6c1.6,1.3,3.7,3.1,3.9,5.6c0.1,0.7-0.1,1.5-0.3,3
					c0,0-0.3,2-0.9,3.7c-0.9,2.4-6,15.2-13.3,32.7c-0.2,0.3-0.5,1.5-1.6,2.1c-1.3,0.8-2.7,0.3-3.3,0.2c-3.4-1-5.7-5.5-5.7-9.3
					C98.2,591,98.6,589.8,98.8,589z"/>
				<path fill="#808080" stroke="#000000" stroke-miterlimit="10" d="M102.6,603c-3.1,5.5-8.1,14.2-14.2,24.8
					c-0.2,0.3-0.8,1.4-2,1.9c-1.4,0.5-2.7-0.1-3.3-0.3c-3.3-1.5-4.9-6.1-4.4-9.9c0.2-1.5,0.7-2.6,1-3.3c3.1-5.9,6.3-12.1,10.1-18.4
					c2.8-4.9,5.8-9.6,8.7-14.1c0.3-0.3,1.5-1.3,3.1-1.1c1.2,0.1,2,0.9,3.1,2.1c1.5,1.5,3.3,3.5,3.3,6c0,0.7-0.3,1.4-0.8,3
					c0,0-0.7,1.9-1.4,3.5C105.5,597.9,104.4,599.9,102.6,603"/>
			</g>
			<g>
				<path fill="#808080" stroke="#000000" stroke-miterlimit="10" d="M151.4,465.6c1-6.6,2.2-13.4,3.8-20.7c1.2-5.7,2.5-11,3.9-16.1
					c0.3-0.4,1.1-1.6,2.6-2.1c1.2-0.3,2.1,0.2,3.6,1c1.9,1,4.3,2.3,4.9,4.7c0.2,0.7,0.2,1.5,0.2,3c0,0,0,2-0.3,3.8
					c-0.3,2.5-3.1,16.1-7,34.5c-0.1,0.4-0.3,1.5-1.3,2.4c-1.2,0.9-2.7,0.9-3.2,0.8c-3.5-0.3-6.6-4.4-7.3-8.1
					C151.1,467.6,151.3,466.4,151.4,465.6z"/>
				<path fill="#808080" stroke="#000000" stroke-miterlimit="10" d="M140.1,506.6c1.5-6.4,3.3-13.2,5.5-20.3
					c1.6-5.5,3.4-10.7,5.1-15.7c0.3-0.4,1.2-1.5,2.7-1.9c1.2-0.2,2.1,0.3,3.5,1.3c1.7,1.1,4,2.6,4.5,5.1c0.2,0.7,0.1,1.5,0,3.1
					c0,0-0.2,2-0.5,3.7c-0.5,2.5-4.3,15.8-9.6,33.9c-0.1,0.4-0.3,1.5-1.5,2.3c-1.2,0.9-2.7,0.7-3.3,0.5c-3.5-0.7-6.2-4.8-6.7-8.7
					C139.8,508.6,140,507.4,140.1,506.6z"/>
				<path fill="#808080" stroke="#000000" stroke-miterlimit="10" d="M130.9,536.7c1.3-6.4,3-13.3,4.9-20.4
					c1.5-5.6,3.1-10.8,4.7-15.8c0.3-0.4,1.2-1.6,2.7-1.9c1.2-0.2,2.1,0.3,3.5,1.2c1.9,1.1,4,2.5,4.7,5c0.2,0.7,0.1,1.5,0.1,3.1
					c0,0-0.1,2-0.4,3.8c-0.4,2.5-3.9,15.8-8.7,34.2c-0.1,0.4-0.3,1.5-1.4,2.3c-1.2,0.9-2.7,0.7-3.3,0.5c-3.5-0.5-6.3-4.6-6.9-8.5
					C130.6,538.6,130.7,537.4,130.9,536.7z"/>
				<path fill="#808080" stroke="#000000" stroke-miterlimit="10" d="M118.5,566.6c1.9-6.3,3.9-13,6.4-20c2-5.4,3.9-10.5,5.9-15.4
					c0.3-0.3,1.3-1.5,2.7-1.6c1.2-0.1,2.1,0.4,3.4,1.5c1.7,1.2,3.9,2.7,4.4,5.2c0.1,0.7,0,1.5-0.2,3c0,0-0.3,2-0.8,3.7
					c-0.7,2.4-5.1,15.5-11.4,33.3c-0.1,0.4-0.4,1.5-1.5,2.2c-1.3,0.9-2.7,0.4-3.3,0.3c-3.4-0.9-5.9-5.1-6.2-9
					C118,568.6,118.4,567.4,118.5,566.6z"/>
				<path fill="#808080" stroke="#000000" stroke-miterlimit="10" d="M105.6,593.2c2.1-6.3,4.5-12.9,7.2-19.7
					c2.1-5.2,4.4-10.4,6.6-15.2c0.3-0.3,1.4-1.5,2.8-1.5c1.2-0.1,2.1,0.5,3.3,1.6c1.6,1.3,3.8,3,4,5.5c0.1,0.7,0,1.5-0.3,3
					c0,0-0.3,2-0.9,3.7c-0.8,2.4-5.7,15.3-12.7,32.9c-0.1,0.3-0.5,1.5-1.6,2.1c-1.3,0.8-2.7,0.3-3.3,0.2c-3.4-0.9-5.7-5.4-5.8-9.3
					C105.1,595.1,105.4,593.9,105.6,593.2z"/>
				<path fill="#808080" stroke="#000000" stroke-miterlimit="10" d="M109.7,607c-3,5.6-7.8,14.4-13.7,25c-0.2,0.3-0.8,1.5-2,2
					c-1.4,0.5-2.7,0-3.3-0.2c-3.3-1.4-5-6-4.5-9.9c0.2-1.5,0.7-2.6,0.9-3.3c2.8-6,6.1-12.2,9.7-18.7c2.7-5,5.7-9.7,8.4-14.2
					c0.3-0.3,1.5-1.3,3.1-1.2c1.2,0.1,2,0.9,3.2,2.1c1.5,1.5,3.3,3.4,3.3,5.9c0,0.7-0.3,1.5-0.7,3c0,0-0.5,1.9-1.4,3.5
					C112.5,602,111.4,604,109.7,607"/>
			</g>
			<g>
				<path fill="#808080" stroke="#000000" stroke-miterlimit="10" d="M154.7,469.4c0.8-6.6,1.9-13.4,3.2-20.8c1-5.7,2.1-11,3.4-16.2
					c0.3-0.4,1-1.7,2.5-2.1c1.1-0.3,2.1,0.2,3.6,0.9c1.9,0.9,4.3,2.1,5.1,4.5c0.2,0.7,0.3,1.5,0.3,3c0,0,0.1,2-0.1,3.8
					c-0.3,2.5-2.5,16.2-5.8,34.8c-0.1,0.4-0.3,1.5-1.2,2.4c-1.1,1-2.6,0.9-3.2,0.9c-3.5-0.3-6.7-4-7.5-7.9
					C154.5,471.4,154.6,470.2,154.7,469.4z"/>
				<path fill="#808080" stroke="#000000" stroke-miterlimit="10" d="M144.8,510.9c1.3-6.6,2.8-13.4,4.7-20.4
					c1.5-5.6,3.1-10.8,4.6-15.8c0.3-0.4,1.2-1.6,2.7-2c1.2-0.2,2.1,0.3,3.5,1.2c1.9,1.1,4,2.5,4.7,4.9c0.2,0.7,0.1,1.5,0.1,3.1
					c0,0-0.1,2-0.4,3.8c-0.4,2.5-3.8,15.8-8.5,34.2c-0.1,0.4-0.3,1.5-1.4,2.3c-1.2,0.9-2.7,0.8-3.3,0.7c-3.5-0.5-6.3-4.6-6.9-8.4
					C144.6,512.8,144.7,511.6,144.8,510.9z"/>
				<path fill="#808080" stroke="#000000" stroke-miterlimit="10" d="M136.6,541.2c1.1-6.6,2.5-13.4,4.2-20.7
					c1.3-5.6,2.7-10.9,4.2-16c0.3-0.4,1.1-1.6,2.6-2c1.2-0.2,2.1,0.3,3.5,1.1c1.9,1,4.2,2.3,4.9,4.8c0.2,0.7,0.2,1.5,0.2,3.1
					c0,0,0,2-0.3,3.8c-0.3,2.5-3.3,16-7.5,34.4c-0.1,0.4-0.3,1.5-1.3,2.4c-1.2,0.9-2.7,0.8-3.2,0.8c-3.5-0.3-6.4-4.5-7.1-8.2
					C136.4,543.2,136.5,542,136.6,541.2z"/>
				<path fill="#808080" stroke="#000000" stroke-miterlimit="10" d="M125.2,571.5c1.5-6.4,3.5-13.2,5.7-20.2
					c1.7-5.5,3.5-10.6,5.5-15.6c0.3-0.4,1.3-1.5,2.7-1.7c1.2-0.2,2.1,0.4,3.4,1.4c1.7,1.2,3.9,2.7,4.5,5.1c0.1,0.7,0.1,1.5-0.1,3.1
					c0,0-0.2,2-0.7,3.7c-0.5,2.4-4.5,15.7-10.2,33.8c-0.1,0.4-0.4,1.5-1.5,2.3c-1.3,0.9-2.7,0.5-3.3,0.4c-3.5-0.7-6.1-4.9-6.4-8.7
					C124.9,573.5,125,572.3,125.2,571.5z"/>
				<path fill="#808080" stroke="#000000" stroke-miterlimit="10" d="M113.3,598.5c1.9-6.3,4-13,6.6-20c2-5.4,3.9-10.5,6-15.4
					c0.3-0.3,1.3-1.5,2.7-1.6c1.2-0.1,2.1,0.4,3.4,1.5c1.6,1.3,3.9,2.8,4.3,5.4c0.1,0.7,0,1.5-0.2,3c0,0-0.3,2-0.8,3.7
					c-0.7,2.4-5.1,15.5-11.6,33.3c-0.1,0.4-0.4,1.5-1.5,2.2c-1.3,0.9-2.7,0.4-3.3,0.3c-3.4-0.9-5.9-5.1-6.1-9
					C112.9,600.5,113,599.3,113.3,598.5z"/>
				<path fill="#808080" stroke="#000000" stroke-miterlimit="10" d="M117.8,612.3c-2.7,5.7-7.3,14.6-12.9,25.5
					c-0.2,0.3-0.7,1.5-1.9,2.1c-1.4,0.7-2.7,0.1-3.3-0.1c-3.3-1.3-5.1-5.9-4.9-9.7c0.1-1.5,0.5-2.6,0.9-3.3
					c2.7-6.1,5.7-12.3,9.1-18.9c2.7-5.1,5.2-9.9,8-14.5c0.3-0.3,1.5-1.4,3-1.3c1.2,0.1,2,0.8,3.2,2c1.5,1.5,3.5,3.3,3.5,5.8
					c0,0.7-0.2,1.5-0.5,3c0,0-0.4,1.9-1.2,3.6C120.4,607,119.4,609.1,117.8,612.3"/>
			</g>
			<g>
				<path fill="#808080" stroke="#000000" stroke-miterlimit="10" d="M160.4,472.4c0.5-6.7,1.3-13.6,2.3-20.9
					c0.9-5.7,1.7-11,2.7-16.3c0.3-0.4,1-1.7,2.4-2.2c1.1-0.3,2.1,0.1,3.6,0.8c2,0.9,4.4,2,5.2,4.4c0.3,0.7,0.3,1.4,0.4,3
					c0,0,0.2,2,0,3.8c-0.2,2.5-1.9,16.3-4.5,35.1c0,0.4-0.2,1.5-1.1,2.5c-1.1,1-2.6,1-3.2,1c-3.5-0.1-6.9-3.8-7.9-7.5
					C160.3,474.4,160.3,473.2,160.4,472.4z"/>
				<path fill="#808080" stroke="#000000" stroke-miterlimit="10" d="M152.1,514.1c1-6.6,2.3-13.4,3.9-20.7
					c1.2-5.6,2.6-10.9,3.9-16.1c0.3-0.4,1.1-1.6,2.6-2.1c1.2-0.3,2.1,0.3,3.6,1c1.9,1,4.2,2.3,4.9,4.7c0.2,0.7,0.2,1.5,0.2,3
					c0,0,0,2-0.3,3.8c-0.3,2.5-3.2,16.1-7.1,34.5c-0.1,0.4-0.3,1.5-1.3,2.4c-1.2,0.9-2.7,0.9-3.2,0.8c-3.5-0.3-6.6-4.4-7.2-8.1
					C152,516.2,152,514.9,152.1,514.1z"/>
				<path fill="#808080" stroke="#000000" stroke-miterlimit="10" d="M145.2,544.8c0.9-6.6,2-13.4,3.3-20.7c1.1-5.7,2.3-11,3.6-16.2
					c0.3-0.4,1.1-1.7,2.5-2.1c1.2-0.3,2.1,0.2,3.6,0.9c1.9,0.9,4.3,2.2,5.1,4.6c0.2,0.7,0.3,1.5,0.3,3c0,0,0,2-0.2,3.8
					c-0.3,2.5-2.7,16.1-6.2,34.8c-0.1,0.4-0.3,1.5-1.2,2.4c-1.1,1-2.6,0.9-3.2,0.9c-3.5-0.3-6.7-4.2-7.5-8
					C145,546.8,145.1,545.6,145.2,544.8z"/>
				<path fill="#808080" stroke="#000000" stroke-miterlimit="10" d="M135.1,575.6c1.4-6.4,3-13.3,5-20.4c1.5-5.6,3.2-10.8,4.8-15.8
					c0.3-0.4,1.2-1.6,2.7-1.9c1.2-0.2,2.1,0.3,3.5,1.2c1.7,1.1,4,2.5,4.7,5c0.2,0.7,0.1,1.5,0,3.1c0,0-0.1,2-0.4,3.8
					c-0.4,2.5-3.9,15.8-8.9,34.1c-0.1,0.4-0.3,1.5-1.4,2.3c-1.2,0.9-2.7,0.7-3.3,0.5c-3.5-0.5-6.3-4.7-6.9-8.5
					C134.6,577.5,134.9,576.3,135.1,575.6z"/>
				<path fill="#808080" stroke="#000000" stroke-miterlimit="10" d="M124,603.1c1.6-6.4,3.5-13.2,5.8-20.1
					c1.7-5.5,3.6-10.6,5.5-15.6c0.3-0.4,1.3-1.5,2.7-1.7c1.2-0.1,2.1,0.4,3.4,1.4c1.7,1.2,3.9,2.7,4.5,5.1c0.1,0.7,0.1,1.5-0.1,3.1
					c0,0-0.2,2-0.7,3.7c-0.5,2.4-4.5,15.7-10.3,33.8c-0.1,0.4-0.4,1.5-1.5,2.3c-1.3,0.9-2.7,0.5-3.3,0.4c-3.5-0.7-6.1-4.9-6.4-8.7
					C123.7,605,123.8,603.8,124,603.1z"/>
				<path fill="#808080" stroke="#000000" stroke-miterlimit="10" d="M129.2,616.5c-2.6,5.7-6.8,14.9-11.9,26
					c-0.2,0.3-0.7,1.5-1.7,2.1c-1.4,0.7-2.7,0.2-3.3,0c-3.3-1.1-5.5-5.7-5.2-9.5c0.1-1.5,0.4-2.7,0.7-3.3c2.4-6.2,5.1-12.7,8.3-19.3
					c2.4-5.1,4.9-10.1,7.4-14.8c0.3-0.3,1.5-1.4,3-1.4c1.2,0,2,0.7,3.3,1.9c1.5,1.4,3.6,3.2,3.8,5.7c0,0.7-0.1,1.5-0.4,3
					c0,0-0.4,1.9-1.1,3.6C131.6,611.2,130.6,613.4,129.2,616.5"/>
			</g>
			<g>
				<path fill="#808080" stroke="#000000" stroke-miterlimit="10" d="M165,476.5c0.3-6.7,0.9-13.6,1.7-20.9
					c0.7-5.7,1.4-11.1,2.3-16.4c0.2-0.4,0.9-1.9,2.3-2.3c1.1-0.3,2.1,0,3.7,0.7c2,0.9,4.5,1.9,5.4,4.2c0.3,0.7,0.3,1.4,0.4,3
					c0,0,0.2,2,0.1,3.8c-0.1,2.5-1.4,16.3-3.5,35.1c0,0.4-0.1,1.5-1,2.5c-1,1.1-2.5,1.1-3.1,1.1c-3.5,0-6.9-3.6-8.1-7.3
					C165,478.5,165,477.3,165,476.5z"/>
				<path fill="#808080" stroke="#000000" stroke-miterlimit="10" d="M158,518.5c0.9-6.6,2-13.4,3.3-20.7c1.1-5.7,2.3-11,3.5-16.2
					c0.3-0.4,1-1.7,2.5-2.1c1.2-0.3,2.1,0.2,3.6,0.9c1.9,0.9,4.3,2.2,5.1,4.6c0.2,0.7,0.3,1.5,0.3,3c0,0,0,2-0.2,3.8
					c-0.3,2.5-2.7,16.1-6.2,34.8c-0.1,0.4-0.3,1.5-1.2,2.4c-1.1,1-2.6,0.9-3.2,0.9c-3.5-0.3-6.7-4.2-7.5-8
					C157.8,520.5,157.9,519.3,158,518.5z"/>
				<path fill="#808080" stroke="#000000" stroke-miterlimit="10" d="M151.8,549.3c0.7-6.7,1.5-13.6,2.7-20.8c0.9-5.7,2-11,3.2-16.3
					c0.3-0.4,1-1.7,2.5-2.1c1.1-0.3,2.1,0.1,3.6,0.9c2,0.9,4.4,2.1,5.1,4.5c0.3,0.7,0.3,1.4,0.3,3c0,0,0.1,2-0.1,3.8
					c-0.2,2.5-2.2,16.2-5.2,34.9c0,0.4-0.2,1.5-1.1,2.5c-1.1,1-2.6,0.9-3.2,0.9c-3.5-0.2-6.8-3.9-7.6-7.8
					C151.7,551.3,151.8,550.1,151.8,549.3z"/>
				<path fill="#808080" stroke="#000000" stroke-miterlimit="10" d="M142.5,580.4c1.2-6.6,2.6-13.4,4.4-20.5
					c1.4-5.6,2.8-10.9,4.4-16c0.3-0.4,1.1-1.6,2.6-2c1.2-0.2,2.1,0.3,3.5,1.1c1.9,1,4.2,2.4,4.8,4.8c0.2,0.7,0.2,1.5,0.1,3.1
					c0,0-0.1,2-0.3,3.8c-0.3,2.5-3.5,16-8,34.4c-0.1,0.4-0.3,1.5-1.3,2.4c-1.2,0.9-2.7,0.8-3.2,0.7c-3.5-0.4-6.4-4.5-7-8.3
					C142.3,582.3,142.4,581.1,142.5,580.4z"/>
				<path fill="#808080" stroke="#000000" stroke-miterlimit="10" d="M132.3,608.1c1.5-6.4,3.2-13.3,5.1-20.3
					c1.5-5.6,3.3-10.7,5-15.8c0.3-0.4,1.2-1.6,2.7-1.9c1.2-0.2,2.1,0.3,3.5,1.3c1.7,1.1,4,2.6,4.6,5c0.2,0.7,0.1,1.5,0,3.1
					c0,0-0.1,2-0.4,3.7c-0.5,2.5-4.2,15.8-9.3,34c-0.1,0.4-0.3,1.5-1.5,2.3c-1.2,0.9-2.7,0.7-3.3,0.5c-3.5-0.5-6.3-4.7-6.8-8.6
					C132.1,610.1,132.2,608.9,132.3,608.1z"/>
				<path fill="#808080" stroke="#000000" stroke-miterlimit="10" d="M137.9,621.5c-2.4,5.8-6.3,15.2-11,26.3
					c-0.2,0.3-0.5,1.5-1.7,2.1c-1.3,0.8-2.7,0.3-3.3,0.1c-3.4-1-5.6-5.6-5.6-9.3c0-1.5,0.3-2.7,0.5-3.3c2.3-6.3,4.8-12.8,7.8-19.5
					c2.3-5.2,4.6-10.3,6.9-15c0.3-0.3,1.4-1.5,2.8-1.5c1.2,0,2.1,0.7,3.3,1.7c1.6,1.4,3.7,3.1,3.9,5.6c0.1,0.7-0.1,1.5-0.3,3
					c0,0-0.3,2-1,3.6C140,616.1,139.2,618.3,137.9,621.5"/>
			</g>
			<path fill="#8C6239" stroke="#000000" stroke-miterlimit="10" d="M193,421.6c1.3,7.2,1.2,17.4,0.8,29.6
				c-0.3,8.9,2.1,35.6-5.6,78.6c-5.9,33.2-9.5,53.7-21.7,80c-18.3,39.6-42.3,62.5-47.6,67.4c-10.5,9.9-6.4,7-13.7,11.7
				c-7.7-7.6-16.4-11.6-26.3-28.5c-8.5-14.5-9.4-28.1-9-37.7c4.2-3.6,6.3-8.9,10.4-14.6c3.6-5.1,5.8-10.2,8.5-14.3
				c1.3,0.2,1.2,0.7,2.6,0.9c-0.7,6.7-3.4,21.1,2.2,30.8c7.1,12.2,16.5,14.8,22.2,19.3c12.1-9.6,14.5-16,26.8-37.2
				c21.3-36.7,24.9-71.6,30.3-105.4c2.8-18.8,3.3-46.2-0.3-79.5C178.1,422.2,187.1,421.9,193,421.6z"/>
		</g>
	</g>
	<g>
		<path fill="#603813" stroke="#000000" stroke-miterlimit="10" d="M512.5,689.2c-2.5,0.3-4.9,0.7-7.4,0.9
			c-7.9-6.1-18.3-15-28.6-27.3c-18.9-22.1-27.8-42.7-33.8-56.8c-15.1-35.6-18.7-65.8-21.3-89.2c-2.1-17.9-2.1-34-2.3-56.4
			c-0.3-19,0.1-35.1,0.4-46.7c2.3,0.7,4.6,1.2,6.9,1.9c-0.1,6.8-0.2,16.7,0.2,28.9c0.9,34.4,1.9,72.8,13.7,117.9
			c11.6,43.8,25.7,64.7,30.1,71c9.2,12.9,17.3,21.3,19.5,23.1c4.5,3.8,8.5,6.6,11.4,8.3C505.1,672.8,508.7,681.1,512.5,689.2z"/>
		<g>
			<g>
				<path fill="#4D4D4D" stroke="#000000" stroke-miterlimit="10" d="M471.2,462.3c-1.1-6.6-2.5-13.4-4.3-20.7
					c-1.3-5.6-2.7-10.9-4.3-16c-0.3-0.4-1.1-1.6-2.6-2c-1.2-0.2-2.1,0.3-3.5,1.1c-1.9,1-4.2,2.4-4.8,4.8c-0.2,0.7-0.2,1.5-0.2,3.1
					c0,0,0,2,0.3,3.8c0.3,2.5,3.4,16,7.6,34.4c0.1,0.4,0.3,1.5,1.3,2.4c1.2,0.9,2.7,0.8,3.2,0.7c3.5-0.4,6.4-4.5,7.1-8.2
					C471.6,464.3,471.5,463.1,471.2,462.3z"/>
				<path fill="#4D4D4D" stroke="#000000" stroke-miterlimit="10" d="M483.4,503.2c-1.6-6.4-3.6-13.2-5.8-20.1
					c-1.7-5.5-3.6-10.6-5.5-15.6c-0.3-0.4-1.3-1.5-2.7-1.7c-1.2-0.1-2.1,0.4-3.4,1.4c-1.7,1.2-3.9,2.7-4.5,5.1
					c-0.1,0.7-0.1,1.5,0.1,3.1c0,0,0.2,2,0.7,3.7c0.5,2.4,4.6,15.7,10.4,33.8c0.1,0.4,0.4,1.5,1.5,2.3c1.3,0.9,2.7,0.5,3.3,0.4
					c3.5-0.8,6.1-4.9,6.4-8.7C483.7,505.2,483.6,504,483.4,503.2z"/>
				<path fill="#4D4D4D" stroke="#000000" stroke-miterlimit="10" d="M493.1,533c-1.5-6.4-3.3-13.3-5.2-20.3
					c-1.5-5.5-3.3-10.7-5.1-15.7c-0.3-0.4-1.2-1.6-2.7-1.9c-1.2-0.2-2.1,0.3-3.5,1.3c-1.7,1.1-4,2.6-4.6,5.1c-0.2,0.7-0.1,1.5,0,3.1
					c0,0,0.1,2,0.5,3.7c0.5,2.5,4.2,15.8,9.4,34c0.1,0.4,0.3,1.5,1.5,2.3c1.2,0.9,2.7,0.7,3.3,0.5c3.5-0.7,6.2-4.8,6.7-8.6
					C493.5,535,493.3,533.8,493.1,533z"/>
				<path fill="#4D4D4D" stroke="#000000" stroke-miterlimit="10" d="M506.2,562.8c-2-6.3-4.3-13-6.9-19.9
					c-2.1-5.4-4.2-10.5-6.3-15.3c-0.3-0.3-1.4-1.5-2.8-1.5c-1.2-0.1-2.1,0.5-3.4,1.5c-1.6,1.3-3.8,2.8-4.2,5.4c-0.1,0.7,0,1.5,0.3,3
					c0,0,0.3,2,0.9,3.7c0.8,2.4,5.4,15.4,12,33.2c0.1,0.4,0.5,1.5,1.5,2.2c1.3,0.8,2.7,0.3,3.3,0.3c3.4-0.9,5.8-5.2,6-9.1
					C506.6,564.6,506.3,563.4,506.2,562.8z"/>
				<path fill="#4D4D4D" stroke="#000000" stroke-miterlimit="10" d="M519.5,589c-2.2-6.3-4.7-12.9-7.6-19.6
					c-2.2-5.2-4.5-10.3-6.9-15.1c-0.3-0.3-1.4-1.5-2.8-1.5c-1.2,0-2.1,0.7-3.3,1.6c-1.6,1.3-3.7,3.1-3.9,5.6c-0.1,0.7,0.1,1.5,0.3,3
					c0,0,0.3,2,0.9,3.7c0.9,2.4,6,15.2,13.3,32.7c0.2,0.3,0.5,1.5,1.6,2.1c1.3,0.8,2.7,0.3,3.3,0.2c3.4-1,5.7-5.5,5.7-9.3
					C520.1,591,519.9,589.8,519.5,589z"/>
				<path fill="#4D4D4D" stroke="#000000" stroke-miterlimit="10" d="M515.8,603c3.1,5.5,8.1,14.2,14.2,24.8c0.2,0.3,0.8,1.4,2,1.9
					c1.4,0.5,2.7-0.1,3.3-0.3c3.3-1.5,4.9-6.1,4.4-9.9c-0.2-1.5-0.7-2.6-1-3.3c-3.1-5.9-6.3-12.1-10.1-18.4
					c-2.8-4.9-5.8-9.6-8.7-14.1c-0.3-0.3-1.5-1.3-3.1-1.1c-1.2,0.1-2,0.9-3.1,2.1c-1.5,1.5-3.3,3.5-3.3,6c0,0.7,0.3,1.4,0.8,3
					c0,0,0.7,1.9,1.4,3.5C512.9,597.9,514.1,599.9,515.8,603"/>
			</g>
			<g>
				<path fill="#4D4D4D" stroke="#000000" stroke-miterlimit="10" d="M467,465.6c-1-6.6-2.2-13.4-3.8-20.7c-1.2-5.7-2.5-11-3.9-16.1
					c-0.3-0.4-1.1-1.6-2.6-2.1c-1.2-0.3-2.1,0.2-3.6,1c-1.9,1-4.3,2.3-4.9,4.7c-0.2,0.7-0.2,1.5-0.2,3c0,0,0,2,0.3,3.8
					c0.3,2.5,3.1,16.1,7,34.5c0.1,0.4,0.3,1.5,1.3,2.4c1.2,0.9,2.7,0.9,3.2,0.8c3.5-0.3,6.6-4.4,7.3-8.1
					C467.3,467.6,467.2,466.4,467,465.6z"/>
				<path fill="#4D4D4D" stroke="#000000" stroke-miterlimit="10" d="M478.2,506.6c-1.5-6.4-3.3-13.2-5.5-20.3
					c-1.6-5.5-3.4-10.7-5.1-15.7c-0.3-0.4-1.2-1.5-2.7-1.9c-1.2-0.2-2.1,0.3-3.5,1.3c-1.7,1.1-4,2.6-4.5,5.1c-0.2,0.7-0.1,1.5,0,3.1
					c0,0,0.2,2,0.5,3.7c0.5,2.5,4.3,15.8,9.6,33.9c0.1,0.4,0.3,1.5,1.5,2.3c1.2,0.9,2.7,0.7,3.3,0.5c3.5-0.7,6.2-4.8,6.7-8.7
					C478.7,508.6,478.5,507.4,478.2,506.6z"/>
				<path fill="#4D4D4D" stroke="#000000" stroke-miterlimit="10" d="M487.5,536.7c-1.3-6.4-3-13.3-4.9-20.4
					c-1.5-5.6-3.1-10.8-4.7-15.8c-0.3-0.4-1.2-1.6-2.7-1.9c-1.2-0.2-2.1,0.3-3.5,1.2c-1.9,1.1-4,2.5-4.7,5c-0.2,0.7-0.1,1.5-0.1,3.1
					c0,0,0.1,2,0.4,3.8c0.4,2.5,3.9,15.8,8.7,34.2c0.1,0.4,0.3,1.5,1.4,2.3c1.2,0.9,2.7,0.7,3.3,0.5c3.5-0.5,6.3-4.6,6.9-8.5
					C487.7,538.6,487.7,537.4,487.5,536.7z"/>
				<path fill="#4D4D4D" stroke="#000000" stroke-miterlimit="10" d="M499.9,566.6c-1.9-6.3-3.9-13-6.4-20c-2-5.4-3.9-10.5-5.9-15.4
					c-0.3-0.3-1.3-1.5-2.7-1.6c-1.2-0.1-2.1,0.4-3.4,1.5c-1.7,1.2-3.9,2.7-4.4,5.2c-0.1,0.7,0,1.5,0.2,3c0,0,0.3,2,0.8,3.7
					c0.7,2.4,5.1,15.5,11.4,33.3c0.1,0.4,0.4,1.5,1.5,2.2c1.3,0.9,2.7,0.4,3.3,0.3c3.4-0.9,5.9-5.1,6.2-9
					C500.3,568.6,500.1,567.4,499.9,566.6z"/>
				<path fill="#4D4D4D" stroke="#000000" stroke-miterlimit="10" d="M512.9,593.2c-2.1-6.3-4.5-12.9-7.2-19.7
					c-2.1-5.2-4.4-10.4-6.6-15.2c-0.3-0.3-1.4-1.5-2.8-1.5c-1.2-0.1-2.1,0.5-3.3,1.6c-1.6,1.3-3.8,3-4,5.5c-0.1,0.7,0,1.5,0.3,3
					c0,0,0.3,2,0.9,3.7c0.8,2.4,5.7,15.3,12.7,32.9c0.1,0.3,0.5,1.5,1.6,2.1c1.3,0.8,2.7,0.3,3.3,0.2c3.4-0.9,5.7-5.4,5.8-9.3
					C513.3,595.1,513,593.9,512.9,593.2z"/>
				<path fill="#4D4D4D" stroke="#000000" stroke-miterlimit="10" d="M508.7,607c3,5.6,7.8,14.4,13.7,25c0.2,0.3,0.8,1.5,2,2
					c1.4,0.5,2.7,0,3.3-0.2c3.3-1.4,5-6,4.5-9.9c-0.2-1.5-0.7-2.6-0.9-3.3c-2.8-6-6.1-12.2-9.7-18.7c-2.7-5-5.7-9.7-8.4-14.2
					c-0.3-0.3-1.5-1.3-3.1-1.2c-1.2,0.1-2,0.9-3.2,2.1c-1.5,1.5-3.3,3.4-3.3,5.9c0,0.7,0.3,1.5,0.7,3c0,0,0.5,1.9,1.4,3.5
					C505.9,602,507,604,508.7,607"/>
			</g>
			<g>
				<path fill="#4D4D4D" stroke="#000000" stroke-miterlimit="10" d="M463.7,469.4c-0.8-6.6-1.9-13.4-3.2-20.8
					c-1-5.7-2.1-11-3.4-16.2c-0.3-0.4-1-1.7-2.5-2.1c-1.1-0.3-2.1,0.2-3.6,0.9c-1.9,0.9-4.3,2.1-5.1,4.5c-0.2,0.7-0.3,1.5-0.3,3
					c0,0-0.1,2,0.1,3.8c0.3,2.5,2.5,16.2,5.8,34.8c0.1,0.4,0.3,1.5,1.2,2.4c1.1,1,2.6,0.9,3.2,0.9c3.5-0.3,6.7-4,7.5-7.9
					C463.8,471.4,463.7,470.2,463.7,469.4z"/>
				<path fill="#4D4D4D" stroke="#000000" stroke-miterlimit="10" d="M473.5,510.9c-1.3-6.6-2.8-13.4-4.7-20.4
					c-1.5-5.6-3.1-10.8-4.6-15.8c-0.3-0.4-1.2-1.6-2.7-2c-1.2-0.2-2.1,0.3-3.5,1.2c-1.9,1.1-4,2.5-4.7,4.9c-0.2,0.7-0.1,1.5-0.1,3.1
					c0,0,0.1,2,0.4,3.8c0.4,2.5,3.8,15.8,8.5,34.2c0.1,0.4,0.3,1.5,1.4,2.3c1.2,0.9,2.7,0.8,3.3,0.7c3.5-0.5,6.3-4.6,6.9-8.4
					C473.9,512.8,473.8,511.6,473.5,510.9z"/>
				<path fill="#4D4D4D" stroke="#000000" stroke-miterlimit="10" d="M481.7,541.2c-1.1-6.6-2.5-13.4-4.2-20.7
					c-1.3-5.6-2.7-10.9-4.2-16c-0.3-0.4-1.1-1.6-2.6-2c-1.2-0.2-2.1,0.3-3.5,1.1c-1.9,1-4.2,2.3-4.9,4.8c-0.2,0.7-0.2,1.5-0.2,3.1
					c0,0,0,2,0.3,3.8c0.3,2.5,3.3,16,7.5,34.4c0.1,0.4,0.3,1.5,1.3,2.4c1.2,0.9,2.7,0.8,3.2,0.8c3.5-0.3,6.4-4.5,7.1-8.2
					C481.9,543.2,481.8,542,481.7,541.2z"/>
				<path fill="#4D4D4D" stroke="#000000" stroke-miterlimit="10" d="M493.1,571.5c-1.5-6.4-3.5-13.2-5.7-20.2
					c-1.7-5.5-3.5-10.6-5.5-15.6c-0.3-0.4-1.3-1.5-2.7-1.7c-1.2-0.2-2.1,0.4-3.4,1.4c-1.7,1.2-3.9,2.7-4.5,5.1
					c-0.1,0.7-0.1,1.5,0.1,3.1c0,0,0.2,2,0.7,3.7c0.5,2.4,4.5,15.7,10.2,33.8c0.1,0.4,0.4,1.5,1.5,2.3c1.3,0.9,2.7,0.5,3.3,0.4
					c3.5-0.7,6.1-4.9,6.4-8.7C493.5,573.5,493.3,572.3,493.1,571.5z"/>
				<path fill="#4D4D4D" stroke="#000000" stroke-miterlimit="10" d="M505.1,598.5c-1.9-6.3-4-13-6.6-20c-2-5.4-3.9-10.5-6-15.4
					c-0.3-0.3-1.3-1.5-2.7-1.6c-1.2-0.1-2.1,0.4-3.4,1.5c-1.6,1.3-3.9,2.8-4.3,5.4c-0.1,0.7,0,1.5,0.2,3c0,0,0.3,2,0.8,3.7
					c0.7,2.4,5.1,15.5,11.6,33.3c0.1,0.4,0.4,1.5,1.5,2.2c1.3,0.9,2.7,0.4,3.3,0.3c3.4-0.9,5.9-5.1,6.1-9
					C505.6,600.5,505.3,599.3,505.1,598.5z"/>
				<path fill="#4D4D4D" stroke="#000000" stroke-miterlimit="10" d="M500.5,612.3c2.7,5.7,7.3,14.6,12.9,25.5
					c0.2,0.3,0.7,1.5,1.9,2.1c1.4,0.7,2.7,0.1,3.3-0.1c3.3-1.3,5.1-5.9,4.9-9.7c-0.1-1.5-0.5-2.6-0.9-3.3
					c-2.7-6.1-5.7-12.3-9.1-18.9c-2.7-5.1-5.2-9.9-8-14.5c-0.3-0.3-1.5-1.4-3-1.3c-1.2,0.1-2,0.8-3.2,2c-1.5,1.5-3.5,3.3-3.5,5.8
					c0,0.7,0.2,1.5,0.5,3c0,0,0.4,1.9,1.2,3.6C497.9,607,499,609.1,500.5,612.3"/>
			</g>
			<g>
				<path fill="#4D4D4D" stroke="#000000" stroke-miterlimit="10" d="M457.9,472.4c-0.5-6.7-1.3-13.6-2.3-20.9
					c-0.9-5.7-1.7-11-2.7-16.3c-0.3-0.4-1-1.7-2.4-2.2c-1.1-0.3-2.1,0.1-3.6,0.8c-2,0.9-4.4,2-5.2,4.4c-0.3,0.7-0.3,1.4-0.4,3
					c0,0-0.2,2,0,3.8c0.2,2.5,1.9,16.3,4.5,35.1c0,0.4,0.2,1.5,1.1,2.5c1.1,1,2.6,1,3.2,1c3.5-0.1,6.9-3.8,7.9-7.5
					C458,474.4,458,473.2,457.9,472.4z"/>
				<path fill="#4D4D4D" stroke="#000000" stroke-miterlimit="10" d="M466.2,514.1c-1-6.6-2.3-13.4-3.9-20.7
					c-1.2-5.6-2.6-10.9-3.9-16.1c-0.3-0.4-1.1-1.6-2.6-2.1c-1.2-0.3-2.1,0.3-3.6,1c-1.9,1-4.2,2.3-4.9,4.7c-0.2,0.7-0.2,1.5-0.2,3
					c0,0,0,2,0.3,3.8c0.3,2.5,3.2,16.1,7.1,34.5c0.1,0.4,0.3,1.5,1.3,2.4c1.2,0.9,2.7,0.9,3.2,0.8c3.5-0.3,6.6-4.4,7.2-8.1
					C466.4,516.2,466.3,514.9,466.2,514.1z"/>
				<path fill="#4D4D4D" stroke="#000000" stroke-miterlimit="10" d="M473.2,544.8c-0.9-6.6-2-13.4-3.3-20.7
					c-1.1-5.7-2.3-11-3.6-16.2c-0.3-0.4-1.1-1.7-2.5-2.1c-1.2-0.3-2.1,0.2-3.6,0.9c-1.9,0.9-4.3,2.2-5.1,4.6c-0.2,0.7-0.3,1.5-0.3,3
					c0,0,0,2,0.2,3.8c0.3,2.5,2.7,16.1,6.2,34.8c0.1,0.4,0.3,1.5,1.2,2.4c1.1,1,2.6,0.9,3.2,0.9c3.5-0.3,6.7-4.2,7.5-8
					C473.3,546.8,473.3,545.6,473.2,544.8z"/>
				<path fill="#4D4D4D" stroke="#000000" stroke-miterlimit="10" d="M483.4,575.6c-1.4-6.4-3-13.3-5-20.4
					c-1.5-5.6-3.2-10.8-4.8-15.8c-0.3-0.4-1.2-1.6-2.7-1.9c-1.2-0.2-2.1,0.3-3.5,1.2c-1.7,1.1-4,2.5-4.7,5c-0.2,0.7-0.1,1.5,0,3.1
					c0,0,0.1,2,0.4,3.8c0.4,2.5,3.9,15.8,8.9,34.1c0.1,0.4,0.3,1.5,1.4,2.3c1.2,0.9,2.7,0.7,3.3,0.5c3.5-0.5,6.3-4.7,6.9-8.5
					C483.7,577.5,483.6,576.3,483.4,575.6z"/>
				<path fill="#4D4D4D" stroke="#000000" stroke-miterlimit="10" d="M494.3,603.1c-1.6-6.4-3.5-13.2-5.8-20.1
					c-1.7-5.5-3.6-10.6-5.5-15.6c-0.3-0.4-1.3-1.5-2.7-1.7c-1.2-0.1-2.1,0.4-3.4,1.4c-1.7,1.2-3.9,2.7-4.5,5.1
					c-0.1,0.7-0.1,1.5,0.1,3.1c0,0,0.2,2,0.7,3.7c0.5,2.4,4.5,15.7,10.3,33.8c0.1,0.4,0.4,1.5,1.5,2.3c1.3,0.9,2.7,0.5,3.3,0.4
					c3.5-0.7,6.1-4.9,6.4-8.7C494.7,605,494.5,603.8,494.3,603.1z"/>
				<path fill="#4D4D4D" stroke="#000000" stroke-miterlimit="10" d="M489.2,616.5c2.6,5.7,6.8,14.9,11.8,26
					c0.2,0.3,0.7,1.5,1.7,2.1c1.4,0.7,2.7,0.2,3.3,0c3.3-1.1,5.5-5.7,5.2-9.5c-0.1-1.5-0.4-2.7-0.7-3.3c-2.4-6.2-5.1-12.7-8.3-19.3
					c-2.4-5.1-4.9-10.1-7.4-14.8c-0.3-0.3-1.5-1.4-3-1.4c-1.2,0-2,0.7-3.3,1.9c-1.5,1.4-3.6,3.2-3.8,5.7c0,0.7,0.1,1.5,0.4,3
					c0,0,0.4,1.9,1.1,3.6C486.9,611.2,487.7,613.4,489.2,616.5"/>
			</g>
			<g>
				<path fill="#4D4D4D" stroke="#000000" stroke-miterlimit="10" d="M453.4,476.5c-0.3-6.7-0.9-13.6-1.7-20.9
					c-0.7-5.7-1.4-11.1-2.3-16.4c-0.2-0.4-0.9-1.9-2.3-2.3c-1.1-0.3-2.1,0-3.7,0.7c-2,0.9-4.5,1.9-5.4,4.2c-0.3,0.7-0.3,1.4-0.4,3
					c0,0-0.2,2-0.1,3.8c0.1,2.5,1.4,16.3,3.5,35.1c0,0.4,0.1,1.5,1,2.5c1,1.1,2.5,1.1,3.1,1.1c3.5,0,6.9-3.6,8.1-7.3
					C453.4,478.5,453.4,477.3,453.4,476.5z"/>
				<path fill="#4D4D4D" stroke="#000000" stroke-miterlimit="10" d="M460.4,518.5c-0.9-6.6-2-13.4-3.3-20.7
					c-1.1-5.7-2.3-11-3.5-16.2c-0.3-0.4-1-1.7-2.5-2.1c-1.2-0.3-2.1,0.2-3.6,0.9c-1.9,0.9-4.3,2.2-5.1,4.6c-0.2,0.7-0.3,1.5-0.3,3
					c0,0,0,2,0.2,3.8c0.3,2.5,2.7,16.1,6.2,34.8c0.1,0.4,0.3,1.5,1.2,2.4c1.1,1,2.6,0.9,3.2,0.9c3.5-0.3,6.7-4.2,7.5-8
					C460.6,520.5,460.5,519.3,460.4,518.5z"/>
				<path fill="#4D4D4D" stroke="#000000" stroke-miterlimit="10" d="M466.6,549.3c-0.7-6.7-1.5-13.6-2.7-20.8
					c-0.9-5.7-2-11-3.2-16.3c-0.3-0.4-1-1.7-2.5-2.1c-1.1-0.3-2.1,0.1-3.6,0.9c-2,0.9-4.4,2.1-5.1,4.5c-0.3,0.7-0.3,1.4-0.3,3
					c0,0-0.1,2,0.1,3.8c0.2,2.5,2.2,16.2,5.2,34.9c0,0.4,0.2,1.5,1.1,2.5c1.1,1,2.6,0.9,3.2,0.9c3.5-0.2,6.8-3.9,7.6-7.8
					C466.8,551.3,466.6,550.1,466.6,549.3z"/>
				<path fill="#4D4D4D" stroke="#000000" stroke-miterlimit="10" d="M475.8,580.4c-1.2-6.6-2.6-13.4-4.4-20.5
					c-1.4-5.6-2.8-10.9-4.4-16c-0.3-0.4-1.1-1.6-2.6-2c-1.2-0.2-2.1,0.3-3.5,1.1c-1.9,1-4.2,2.4-4.8,4.8c-0.2,0.7-0.2,1.5-0.1,3.1
					c0,0,0.1,2,0.3,3.8c0.3,2.5,3.5,16,8,34.4c0.1,0.4,0.3,1.5,1.3,2.4c1.2,0.9,2.7,0.8,3.2,0.7c3.5-0.4,6.4-4.5,7-8.3
					C476.2,582.3,475.9,581.1,475.8,580.4z"/>
				<path fill="#4D4D4D" stroke="#000000" stroke-miterlimit="10" d="M486,608.1c-1.5-6.4-3.2-13.3-5.1-20.3
					c-1.5-5.6-3.3-10.7-5-15.8c-0.3-0.4-1.2-1.6-2.7-1.9c-1.2-0.2-2.1,0.3-3.5,1.3c-1.7,1.1-4,2.6-4.6,5c-0.2,0.7-0.1,1.5,0,3.1
					c0,0,0.1,2,0.4,3.7c0.5,2.5,4.2,15.8,9.3,34c0.1,0.4,0.3,1.5,1.5,2.3c1.2,0.9,2.7,0.7,3.3,0.5c3.5-0.5,6.3-4.7,6.8-8.6
					C486.3,610.1,486.1,608.9,486,608.1z"/>
				<path fill="#4D4D4D" stroke="#000000" stroke-miterlimit="10" d="M480.5,621.5c2.4,5.8,6.3,15.2,11,26.3
					c0.2,0.3,0.5,1.5,1.7,2.1c1.3,0.8,2.7,0.3,3.3,0.1c3.4-1,5.6-5.6,5.6-9.3c0-1.5-0.3-2.7-0.5-3.3c-2.3-6.3-4.8-12.8-7.8-19.5
					c-2.3-5.2-4.6-10.3-6.9-15c-0.3-0.3-1.4-1.5-2.8-1.5c-1.2,0-2.1,0.7-3.3,1.7c-1.6,1.4-3.7,3.1-3.9,5.6c-0.1,0.7,0.1,1.5,0.3,3
					c0,0,0.3,2,1,3.6C478.3,616.1,479.2,618.3,480.5,621.5"/>
			</g>
			<path fill="#8C6239" stroke="#000000" stroke-miterlimit="10" d="M425.4,421.6c-1.3,7.2-1.2,17.4-0.8,29.6
				c0.3,8.9-2.1,35.6,5.6,78.6c5.9,33.2,9.5,53.7,21.7,80c18.3,39.6,42.3,62.5,47.6,67.4c10.5,9.9,6.4,7,13.7,11.7
				c7.7-7.6,16.4-11.6,26.3-28.5c8.5-14.5,9.4-28.1,9-37.7c-4.2-3.6-6.3-8.9-10.4-14.6c-3.6-5.1-5.8-10.2-8.5-14.3
				c-1.3,0.2-1.2,0.7-2.6,0.9c0.7,6.7,3.4,21.1-2.2,30.8c-7.1,12.2-16.5,14.8-22.2,19.3c-12.1-9.6-14.5-16-26.8-37.2
				c-21.3-36.7-24.9-71.6-30.3-105.4c-2.8-18.8-3.3-46.2,0.3-79.5C440.3,422.2,431.4,421.9,425.4,421.6z"/>
		</g>
	</g>
	
		<radialGradient id="SVGID_1_" cx="164.9767" cy="547.7574" r="140.3084" gradientTransform="matrix(0.6375 0 0 0.6375 127.5 -57.8711)" gradientUnits="userSpaceOnUse">
		<stop  offset="0" style="stop-color:#FFFFFF"/>
		<stop  offset="0.8724" style="stop-color:#080808"/>
		<stop  offset="1" style="stop-color:#000000"/>
	</radialGradient>
	<path fill="url(#SVGID_1_)" stroke="#000000" stroke-miterlimit="10" d="M308.2,190.3c-11,0.4-26.8,2.8-44.5,10.5
		c-15,6.6-26.3,14.1-34.5,22.4c26,0,79.6,0,79.6,0h-83.1c0,0-12.1,9.9-16.3,15.8c-4.3,6-11.1,17.4-11.1,17.4h110.5H194.5
		c0,0-7.2,11.1-10.6,20.1c-3.4,8.9-5.6,15.1-5.6,15.1h130.4H174.2c0,0-4.4,9.3-6.9,32.3h141.5H163.9c0,0-3.2,12-3.4,30.5h148.2H158
		c0,0-1.6,16.3-1.5,26.1c0.2,9.9,0,11.7,0,11.7h152.2"/>
	
		<radialGradient id="SVGID_2_" cx="405.2558" cy="547.7574" r="140.2719" gradientTransform="matrix(0.6375 0 0 0.6375 127.5 -57.8711)" gradientUnits="userSpaceOnUse">
		<stop  offset="0" style="stop-color:#FFFFFF"/>
		<stop  offset="0.7908" style="stop-color:#080808"/>
		<stop  offset="0.852" style="stop-color:#000000"/>
	</radialGradient>
	<path fill="url(#SVGID_2_)" stroke="#000000" stroke-miterlimit="10" d="M310.3,190.3c11,0.4,26.8,2.8,44.5,10.5
		c15,6.6,26.3,14.1,34.5,22.4c-26,0-79.6,0-79.6,0h83.1c0,0,12.1,9.9,16.3,15.8c4.3,6,11.1,17.4,11.1,17.4H309.7H424
		c0,0,7.2,11.1,10.6,20.1c3.4,8.9,5.6,15.1,5.6,15.1H309.7h134.6c0,0,4.4,9.3,6.9,32.3H309.7h144.8c0,0,3.2,12,3.4,30.5H309.7h150.7
		c0,0,1.6,16.3,1.5,26.1c-0.2,9.9,0,11.7,0,11.7H309.7"/>
	<path fill="#1A1A1A" stroke="#000000" stroke-miterlimit="10" d="M309.2,186.6c-6.6,0.3-16,1.3-25.1,3.9
		c-8.1,2.4-26.7,11.6-32.1,14.4c1.3,15.4,3.4,30.5-2.4,53.2c-3.2,12.1-7.2,21.9-18.6,37.9c-14.1,20.1-28.5,27.3-38,31.8
		c-13.7,4.6-20.4,6.7-34.1,11.3c-0.9,2-1.2,14.2-2.2,16.2c-0.4,14.9-2,29.7-2.4,44.6c51.4,0,155.1,0.1,155.1,0.1"/>
	<path fill="#1A1A1A" stroke="#000000" stroke-miterlimit="10" d="M309.2,186.6c6.6,0.3,16,1.3,25.1,3.9
		c8.1,2.4,26.7,11.6,32.1,14.4c-1.3,15.4-3.4,30.5,2.4,53.2c3.2,12.1,7.2,21.9,18.6,37.9c14.1,20.1,28.5,27.3,38,31.8
		c13.7,4.6,20.4,6.7,34.1,11.3c0.9,2,1.2,14.2,2.2,16.2c0.4,14.9,2,29.7,2.4,44.6c-51.4,0-155.1,0.1-155.1,0.1"/>
	<path fill="#754C24" stroke="#000000" stroke-miterlimit="10" d="M238.1,210.7c1.5,7.5,3.1,20.3,0.3,35.6
		c-3.9,22-14.5,36.9-21.1,44.7c-13.8,16.1-29.1,22.4-35.8,25c-8.9,3.5-16.7,5-22.5,5.7c-0.9,5.7-1.6,11.4-2.5,17
		c8.6-0.2,23.7-1.7,40.4-10.3c8.1-4.2,21.4-12.3,33.4-27.8c5.2-6.7,13.2-18.5,18.3-35.3c4.8-15.8,4.9-29.1,4.9-36.4
		c0-10.5-1.2-19.5-2.5-25.8C246.8,205.8,242.5,208.2,238.1,210.7z"/>
	<path fill="#754C24" stroke="#000000" stroke-miterlimit="10" d="M380.3,210.7c-1.5,7.5-3.1,20.3-0.3,35.6
		c3.9,22,14.5,36.9,21.1,44.7c13.8,16.1,29.1,22.4,35.8,25c8.9,3.5,16.7,5,22.5,5.7c0.9,5.7,1.6,11.4,2.5,17
		c-8.6-0.2-23.7-1.7-40.4-10.3c-8.1-4.2-21.4-12.3-33.4-27.8c-5.2-6.7-13.2-18.5-18.3-35.3c-4.8-15.8-4.9-29.1-4.9-36.4
		c0-10.5,1.2-19.5,2.5-25.8C371.6,205.8,375.9,208.2,380.3,210.7z"/>
	
		<linearGradient id="SVGID_3_" gradientUnits="userSpaceOnUse" x1="227.0195" y1="523.8418" x2="343.0185" y2="523.8418" gradientTransform="matrix(0.6375 0 0 0.6375 127.5 -57.8711)">
		<stop  offset="8.163265e-002" style="stop-color:#B8B8B8"/>
		<stop  offset="0.3007" style="stop-color:#B6B6B6"/>
		<stop  offset="0.3796" style="stop-color:#AFAFAF"/>
		<stop  offset="0.4358" style="stop-color:#A4A4A4"/>
		<stop  offset="0.481" style="stop-color:#939393"/>
		<stop  offset="0.5195" style="stop-color:#7D7D7D"/>
		<stop  offset="0.5255" style="stop-color:#797979"/>
		<stop  offset="0.5694" style="stop-color:#7E7E7E"/>
		<stop  offset="0.6235" style="stop-color:#8D8D8D"/>
		<stop  offset="0.6831" style="stop-color:#A6A6A6"/>
		<stop  offset="0.7461" style="stop-color:#C9C9C9"/>
		<stop  offset="0.7755" style="stop-color:#DCDCDC"/>
		<stop  offset="0.8859" style="stop-color:#DADADA"/>
		<stop  offset="0.9257" style="stop-color:#D3D3D3"/>
		<stop  offset="0.9541" style="stop-color:#C8C8C8"/>
		<stop  offset="0.977" style="stop-color:#B7B7B7"/>
		<stop  offset="0.9964" style="stop-color:#A1A1A1"/>
		<stop  offset="1" style="stop-color:#9C9C9C"/>
		<stop  offset="1" style="stop-color:#606060"/>
		<stop  offset="1" style="stop-color:#424242"/>
	</linearGradient>
	<path fill="url(#SVGID_3_)" stroke="#000000" stroke-miterlimit="10" d="M309.7,369.3c0,0,23.3,0,36.5,0
		c-2.3-5.6-4.8-12.7-8.3-22.6c-2.8-8.1-11.6-47.8-16.7-103.9c-1.4-15.2-2.6-35.6-2-59.7c-3.1-0.2-6.9-0.4-10.1-0.4l0,0
		c-3.1,0-6.9,0.3-10.1,0.4c0.8,24.2-0.5,44.5-2,59.7c-5.1,56.1-13.8,95.8-16.7,104c-3.5,9.9-6,17-8.3,22.6c13.2,0,36.5,0,36.5,0"/>
	
		<linearGradient id="SVGID_4_" gradientUnits="userSpaceOnUse" x1="26.63" y1="709.681" x2="285.3304" y2="709.681" gradientTransform="matrix(0.6375 0 0 0.6375 127.5 -57.8711)">
		<stop  offset="0.1786" style="stop-color:#787878"/>
		<stop  offset="0.4631" style="stop-color:#7A7A7A"/>
		<stop  offset="0.5656" style="stop-color:#818181"/>
		<stop  offset="0.6386" style="stop-color:#8C8C8C"/>
		<stop  offset="0.6977" style="stop-color:#9D9D9D"/>
		<stop  offset="0.7483" style="stop-color:#B3B3B3"/>
		<stop  offset="0.7923" style="stop-color:#CECECE"/>
		<stop  offset="0.8112" style="stop-color:#DCDCDC"/>
		<stop  offset="0.9041" style="stop-color:#DADADA"/>
		<stop  offset="0.9375" style="stop-color:#D3D3D3"/>
		<stop  offset="0.9614" style="stop-color:#C8C8C8"/>
		<stop  offset="0.9807" style="stop-color:#B7B7B7"/>
		<stop  offset="0.997" style="stop-color:#A1A1A1"/>
		<stop  offset="1" style="stop-color:#9C9C9C"/>
		<stop  offset="1" style="stop-color:#606060"/>
		<stop  offset="1" style="stop-color:#424242"/>
	</linearGradient>
	<path fill="url(#SVGID_4_)" stroke="#000000" stroke-miterlimit="10" d="M309.2,413.9c-6.1-3.7-16-9-28.6-11.7
		c-19.3-4.2-34.8-0.7-42.7,1.2c-20.8,4.9-34.3,14.6-36.8,16.6c-13.1,9.7-13.7,15.7-27,25.7c-11,8.3-21.9,9-29.5,9
		c2.5-31.3,5-56.4,7.5-87.6l-0.2,0.2c24.5,1.3,45-0.3,60.2-2.2c17.8-2.2,43.6-5.7,74-18.6c10.5-4.5,17.7-8.9,23.4-12.1L309.2,413.9
		L309.2,413.9z"/>
	
		<linearGradient id="SVGID_5_" gradientUnits="userSpaceOnUse" x1="284.6449" y1="709.681" x2="543.3453" y2="709.681" gradientTransform="matrix(0.6375 0 0 0.6375 127.5 -57.8711)">
		<stop  offset="0.1071" style="stop-color:#454545"/>
		<stop  offset="0.3824" style="stop-color:#474747"/>
		<stop  offset="0.4816" style="stop-color:#4E4E4E"/>
		<stop  offset="0.5523" style="stop-color:#595959"/>
		<stop  offset="0.6094" style="stop-color:#6A6A6A"/>
		<stop  offset="0.6578" style="stop-color:#808080"/>
		<stop  offset="0.6939" style="stop-color:#969696"/>
		<stop  offset="0.7101" style="stop-color:#898989"/>
		<stop  offset="0.7486" style="stop-color:#6F6F6F"/>
		<stop  offset="0.7914" style="stop-color:#5B5B5B"/>
		<stop  offset="0.84" style="stop-color:#4D4D4D"/>
		<stop  offset="0.8993" style="stop-color:#444444"/>
		<stop  offset="1" style="stop-color:#424242"/>
	</linearGradient>
	<path fill="url(#SVGID_5_)" stroke="#000000" stroke-miterlimit="10" d="M309.2,413.9c6.4-3.7,16-9,28.6-11.7
		c19.3-4.2,34.8-0.7,42.7,1.2c20.8,4.9,34.3,14.6,36.8,16.6c13.1,9.7,13.7,15.7,27,25.7c11,8.3,21.9,9,29.5,9
		c-2.5-31.3-5-56.4-7.5-87.6l0.2,0.2c-24.5,1.3-45-0.3-60.2-2.2c-17.8-2.2-43.6-5.7-74-18.6c-10.5-4.5-17.8-8.9-23.4-12.1
		L309.2,413.9L309.2,413.9z"/>
	<line fill="none" stroke="#000000" stroke-miterlimit="10" x1="309.2" y1="335" x2="309.2" y2="335"/>
	<g>
		<path fill="#FBB03B" stroke="#000000" stroke-miterlimit="10" d="M143.4,360.9c3.2-13.7,6.1-31,7.5-51.5c2.6-35.7-0.8-65.7-4-85.2
			c1.2,26.7,0.3,48.7-0.8,64.8c-2,27.1-5.7,51.3-9.6,76.5c-1.4,9.1-2.7,16.6-3.6,22C136.4,378.5,139.9,369.8,143.4,360.9z"/>
		<path fill="#FBB03B" stroke="#000000" stroke-miterlimit="10" d="M133.8,381.4c-0.1-10.9-0.9-24.6-3.5-39.9
			c-4.6-27-12.9-47.9-19.3-61.4c6,19.2,9.5,35.6,11.6,47.6c3.5,20.4,5.1,39.2,6.6,58.9c0.5,7.1,0.9,13,1.2,17.2
			C131.5,396.3,132.6,388.9,133.8,381.4z"/>
		<path fill="#FBB03B" stroke="#000000" stroke-miterlimit="10" d="M129.4,400.6c-3-8.3-7.1-18.4-13.1-29.2
			c-10.5-18.9-22.3-32-30.5-40c9.5,12.6,16.5,23.8,21.2,32.3c8.1,14.3,14.1,28.1,20.3,42.5c2.3,5.1,4.2,9.5,5.4,12.7
			C131.6,412.8,130.5,406.7,129.4,400.6z"/>
		<path fill="#FBB03B" stroke="#000000" stroke-miterlimit="10" d="M131,421.1c-4.2-4.7-9.7-10.1-16.6-15.4
			c-12.2-9.3-23.7-14.2-31.5-16.8c9.9,5.2,17.6,10.6,23.1,14.8c9.3,7,17,14.4,25.1,22.1c3,2.7,5.4,5.1,7,6.8
			C135.8,428.7,133.4,425,131,421.1z"/>
		<path fill="#FBB03B" stroke="#000000" stroke-miterlimit="10" d="M131.7,432.1c-3.9-2.1-8.7-4.4-14.6-5.7
			c-10.3-2.6-19-1.9-24.9-0.8c7.8,0.3,14.1,1.5,18.8,2.6c7.8,2,14.6,4.7,21.9,7.6c2.6,1,4.7,2.1,6.2,2.7
			C136.5,436.3,134.1,434.1,131.7,432.1z"/>
		<path fill="#FBB03B" stroke="#000000" stroke-miterlimit="10" d="M135.8,441.4c-3.2-0.2-6.9,0-11.1,1.1c-7.4,2-12.9,5.7-16.4,8.7
			c5.1-2.7,9.6-4.2,12.9-5.1c5.7-1.5,10.9-1.9,16.4-2.3c2-0.2,3.6-0.3,4.8-0.3C140.3,442.9,138.1,442.1,135.8,441.4z"/>
		<path fill="#FBB03B" stroke="#000000" stroke-miterlimit="10" d="M138,452.3c-2.5,0.8-5.5,2.1-8.3,4.2c-5.1,3.8-8.1,8.7-9.9,12.2
			c3.2-3.9,6.1-6.3,8.4-8.1c3.9-2.8,7.9-4.8,12-6.8c1.5-0.8,2.7-1.3,3.7-1.6C141.9,452.3,140,452.3,138,452.3z"/>
		<path fill="#FBB03B" stroke="#000000" stroke-miterlimit="10" d="M143.4,456.9c-1.6,1.7-3.5,4-4.9,7.1c-2.5,5.2-2.6,10.5-2.3,14
			c0.8-4.4,2.1-7.8,3.1-10.1c1.9-3.9,4.3-7.3,6.7-10.8c0.9-1.2,1.6-2.3,2.2-3C146.6,455,144.9,455.9,143.4,456.9z"/>
		<path fill="#FBB03B" stroke="#000000" stroke-miterlimit="10" d="M147.9,463.4c-0.5,2-1,4.4-0.9,6.9c0.2,4.6,1.9,8,3.3,10.2
			c-1-3.2-1.4-5.9-1.5-8.1c-0.1-3.5,0.3-6.8,0.9-10.2c0.2-1.2,0.3-2.3,0.4-3C149.5,460.6,148.7,462,147.9,463.4z"/>
		<path fill="#FBB03B" stroke="#000000" stroke-miterlimit="10" d="M151.7,464.2c0.1,1.7,0.4,3.7,1.4,5.6c1.5,3.3,3.9,4.6,5.8,5.2
			c-1.9-1.6-3-3.4-3.6-4.9c-1.2-2.4-1.7-5.1-2.4-7.9c-0.2-1-0.3-1.9-0.4-2.5C152.1,461.2,151.9,462.8,151.7,464.2z"/>
		<path fill="#FBB03B" stroke="#000000" stroke-miterlimit="10" d="M143.9,360.8c0.9,12.6,3.9,19.7,6.6,23.8
			c3.4,5.6,5.1,5,10.8,12.2c3.3,4.3,7.5,10.4,9.4,19.5c3.5,16.5-3.3,31.6-3.9,33.2c-5,10.9-12.1,14.9-14.6,16.1
			c-4.7-3.3-13.7-10.8-18.9-25.8C125,416.4,129.2,384.6,143.9,360.8z"/>
	</g>
	<g>
		<path fill="#FBB03B" stroke="#000000" stroke-miterlimit="10" d="M475.1,360.9c-3.2-13.7-6.1-31-7.5-51.5
			c-2.6-35.7,0.8-65.7,4-85.2c-1.2,26.7-0.3,48.7,0.8,64.8c2,27.1,5.7,51.3,9.6,76.5c1.4,9.1,2.7,16.6,3.6,22
			C482.1,378.5,478.6,369.8,475.1,360.9z"/>
		<path fill="#FBB03B" stroke="#000000" stroke-miterlimit="10" d="M484.7,381.4c0.1-10.9,0.9-24.6,3.5-39.9
			c4.6-27,12.9-47.9,19.3-61.4c-6,19.2-9.5,35.6-11.6,47.6c-3.5,20.4-5.1,39.2-6.6,58.9c-0.5,7.1-0.9,13-1.2,17.2
			C487,396.3,485.9,388.9,484.7,381.4z"/>
		<path fill="#FBB03B" stroke="#000000" stroke-miterlimit="10" d="M488.9,400.6c3-8.3,7.1-18.4,13.1-29.2
			c10.5-18.9,22.3-32,30.5-40c-9.5,12.6-16.5,23.8-21.2,32.3c-8.1,14.3-14.1,28.1-20.3,42.5c-2.3,5.1-4.2,9.5-5.4,12.7
			C486.9,412.8,487.9,406.7,488.9,400.6z"/>
		<path fill="#FBB03B" stroke="#000000" stroke-miterlimit="10" d="M487.3,421.1c4.2-4.7,9.7-10.1,16.6-15.4
			c12.2-9.3,23.7-14.2,31.5-16.8c-9.9,5.2-17.6,10.6-23.1,14.8c-9.3,7-17,14.4-25.1,22.1c-3,2.7-5.4,5.1-7,6.8
			C482.6,428.7,484.9,425,487.3,421.1z"/>
		<path fill="#FBB03B" stroke="#000000" stroke-miterlimit="10" d="M486.6,432.1c3.9-2.1,8.7-4.4,14.6-5.7c10.3-2.6,19-1.9,24.9-0.8
			c-7.8,0.3-14.1,1.5-18.8,2.6c-7.8,2-14.6,4.7-21.9,7.6c-2.6,1-4.7,2.1-6.2,2.7C481.8,436.3,484.2,434.1,486.6,432.1z"/>
		<path fill="#FBB03B" stroke="#000000" stroke-miterlimit="10" d="M482.5,441.4c3.2-0.2,6.9,0,11.1,1.1c7.4,2,12.9,5.7,16.4,8.7
			c-5.1-2.7-9.6-4.2-12.9-5.1c-5.7-1.5-10.9-1.9-16.4-2.3c-2-0.2-3.6-0.3-4.8-0.3C478.1,442.9,480.3,442.1,482.5,441.4z"/>
		<path fill="#FBB03B" stroke="#000000" stroke-miterlimit="10" d="M480.4,452.3c2.5,0.8,5.5,2.1,8.3,4.2c5.1,3.8,8.1,8.7,9.9,12.2
			c-3.2-3.9-6.1-6.3-8.4-8.1c-3.9-2.8-7.9-4.8-12-6.8c-1.5-0.8-2.7-1.3-3.7-1.6C476.5,452.3,478.5,452.3,480.4,452.3z"/>
		<path fill="#FBB03B" stroke="#000000" stroke-miterlimit="10" d="M475.1,456.9c1.6,1.7,3.5,4,4.9,7.1c2.5,5.2,2.6,10.5,2.3,14
			c-0.8-4.4-2.1-7.8-3.1-10.1c-1.9-3.9-4.3-7.3-6.7-10.8c-0.9-1.2-1.6-2.3-2.2-3C471.9,455,473.4,455.9,475.1,456.9z"/>
		<path fill="#FBB03B" stroke="#000000" stroke-miterlimit="10" d="M470.5,463.4c0.5,2,1,4.4,0.9,6.9c-0.2,4.6-1.9,8-3.3,10.2
			c1-3.2,1.4-5.9,1.5-8.1c0.1-3.5-0.3-6.8-0.9-10.2c-0.2-1.2-0.3-2.3-0.4-3C468.9,460.6,469.7,462,470.5,463.4z"/>
		<path fill="#FBB03B" stroke="#000000" stroke-miterlimit="10" d="M466.8,464.2c-0.1,1.7-0.4,3.7-1.4,5.6c-1.5,3.3-3.9,4.6-5.8,5.2
			c1.9-1.6,3-3.4,3.6-4.9c1.2-2.4,1.7-5.1,2.4-7.9c0.2-1,0.3-1.9,0.4-2.5C466.2,461.2,466.5,462.8,466.8,464.2z"/>
		<path fill="#FBB03B" stroke="#000000" stroke-miterlimit="10" d="M474.5,360.8c-0.9,12.6-3.9,19.7-6.6,23.8
			c-3.4,5.6-5.1,5-10.8,12.2c-3.3,4.3-7.5,10.4-9.4,19.5c-3.5,16.5,3.3,31.6,3.9,33.2c5,10.9,12.1,14.9,14.6,16.1
			c4.7-3.3,13.7-10.8,18.9-25.8C493.4,416.4,489.3,384.6,474.5,360.8z"/>
	</g>
	<g>
		<path fill="#FBB03B" stroke="#000000" stroke-miterlimit="10" d="M309.1,101.9c0.4,0.5,1.3,1.5,1.7,3.1c0.5,1.6,0.5,3.1,0.5,3.5
			c0,2.8,0.3,26.7,0.7,59.3c-0.9,0-2,0-2.8,0h0.2c-0.9,0-2,0-2.8,0c0.3-32.7,0.7-56.5,0.7-59.3c0-0.4,0-1.9,0.5-3.5
			c0.5-1.5,1.3-2.6,1.7-3.1"/>
		<path fill="#FBB03B" stroke="#000000" stroke-miterlimit="10" d="M313,183h-7.8c-3.3,0-6-2.7-6-6v-5.1c0-3.3,2.7-6,6-6h7.8
			c3.3,0,6,2.7,6,6v5.1C319,180.3,316.3,183,313,183z"/>
		<path fill="#FBB03B" stroke="#000000" stroke-miterlimit="10" d="M309.3,174.5l14.2-0.1c0.8,1.9,4.6,5.7,8.2,6.8
			c3.6,1.1,6.8,1.3,10.4,4.7c3.6,3.4,4,8.9,4,8.9h-36.8h-0.2h-36.8c0,0,0.5-5.6,4-9c3.6-3.4,6.8-3.6,10.4-4.7
			c3.6-1.1,7.5-4.8,8.2-6.7l14.2,0.1"/>
	</g>
	
		<radialGradient id="SVGID_6_" cx="284.3019" cy="582.5161" r="11.596" gradientTransform="matrix(0.6375 0 0 0.6375 127.5 -57.8711)" gradientUnits="userSpaceOnUse">
		<stop  offset="0" style="stop-color:#FFFFFF"/>
		<stop  offset="1" style="stop-color:#000000"/>
	</radialGradient>
	<circle fill="url(#SVGID_6_)" stroke="#000000" stroke-miterlimit="10" cx="308.7" cy="313.5" r="7.4"/>
	
		<radialGradient id="SVGID_7_" cx="285.019" cy="523.7915" r="7.9749" gradientTransform="matrix(0.6375 0 0 0.6375 127.5 -57.8711)" gradientUnits="userSpaceOnUse">
		<stop  offset="0" style="stop-color:#FFFFFF"/>
		<stop  offset="1" style="stop-color:#000000"/>
	</radialGradient>
	<circle fill="url(#SVGID_7_)" stroke="#000000" stroke-miterlimit="10" cx="309.2" cy="276" r="5.1"/>
	
		<radialGradient id="SVGID_8_" cx="285.6831" cy="472.3246" r="7.307" gradientTransform="matrix(0.6375 0 0 0.6375 127.5 -57.8711)" gradientUnits="userSpaceOnUse">
		<stop  offset="0" style="stop-color:#FFFFFF"/>
		<stop  offset="1" style="stop-color:#000000"/>
	</radialGradient>
	<circle fill="url(#SVGID_8_)" stroke="#000000" stroke-miterlimit="10" cx="309.7" cy="243.2" r="4.6"/>
	
		<radialGradient id="SVGID_9_" cx="285.6831" cy="433.8922" r="7.3108" gradientTransform="matrix(0.6375 0 0 0.6375 127.5 -57.8711)" gradientUnits="userSpaceOnUse">
		<stop  offset="0" style="stop-color:#FFFFFF"/>
		<stop  offset="1" style="stop-color:#000000"/>
	</radialGradient>
	<circle fill="url(#SVGID_9_)" stroke="#000000" stroke-miterlimit="10" cx="309.7" cy="218.7" r="4.6"/>
	
		<radialGradient id="SVGID_10_" cx="285.6831" cy="404.8925" r="7.3099" gradientTransform="matrix(0.6375 0 0 0.6375 127.5 -57.8711)" gradientUnits="userSpaceOnUse">
		<stop  offset="0" style="stop-color:#FFFFFF"/>
		<stop  offset="1" style="stop-color:#000000"/>
	</radialGradient>
	<circle fill="url(#SVGID_10_)" stroke="#000000" stroke-miterlimit="10" cx="309.7" cy="200.3" r="4.6"/>
</g>
<g>
	<g>
		<path fill="#C4BA98" stroke="#000000" stroke-width="0.5" stroke-miterlimit="10" d="M288.1,669.6v-12.7h9.9v2.2h-7.7v3.4h4.2v2.3
			h-4.2v3.9L288.1,669.6z"/>
		<path fill="#C4BA98" stroke="#000000" stroke-width="0.5" stroke-miterlimit="10" d="M300.7,659.9c0-1.2,0.2-2,0.5-2.4
			c0.3-0.4,1-0.6,1.9-0.6h7.2c1,0,1.6,0.2,1.9,0.6s0.5,1.2,0.5,2.4v6.7c0,1.2-0.2,2-0.5,2.4c-0.3,0.4-1,0.6-1.9,0.6h-7.2
			c-1,0-1.6-0.2-1.9-0.6s-0.5-1.2-0.5-2.4V659.9z M303,667.2h7.6v-8.1H303V667.2z"/>
		<path fill="#C4BA98" stroke="#000000" stroke-width="0.5" stroke-miterlimit="10" d="M317.6,667.6v-10.7h8.4
			c0.8,0,1.4,0.2,1.7,0.6c0.4,0.4,0.5,1,0.5,1.9v3c0,0.9-0.2,1.5-0.5,1.9c-0.3,0.4-0.9,0.6-1.7,0.6h-1.3l4.5,4.8H326l-4-4.8h-2.2
			v2.3L317.6,667.6z M325,659.1h-5.2v3.5h5.2c0.4,0,0.7-0.1,0.8-0.2c0.1-0.1,0.2-0.4,0.2-0.8v-1.5c0-0.4-0.1-0.6-0.2-0.8
			C325.7,659.2,325.4,659.1,325,659.1z"/>
	</g>
	<g>
		<path fill="#C4BA98" stroke="#000000" stroke-width="0.5" stroke-miterlimit="10" d="M270.9,695.3c0.9-0.1,1.3,0.3,1.3,1.2v1.5
			h2.5c1,0,1.2,0.3,0.7,1h-3.1c0,1.7,0.1,2.5,0.3,2.5c0.4,0.1,0.8,0,1.2-0.2c1.1-0.2,1.6,0.2,1.5,1.2c-0.1,0.8-0.2,1.9-0.2,3.3
			c0.1,1.1-0.4,1.5-1.7,1.2c-1.3-0.4-2.7-0.4-4.1,0c-0.9,0.6-1.4,0.3-1.5-0.8c-0.1-1.1-0.3-2.3-0.7-3.6c0.1-0.9,0.7-1.2,1.8-0.8
			c0.9,0.1,1.3-0.1,1.3-0.7c0-1.2,0-2.4-0.2-3.5C269.8,695.9,270.1,695.2,270.9,695.3z M269.2,703.2c-0.1,1.3,0.1,2,0.7,2.1
			c2.5,0.3,3.7,0,3.5-1.2c0.2-1.5-0.8-2.1-3.1-1.8C269.6,702.4,269.2,702.7,269.2,703.2z M275.8,699.4c0.4,0,0.7,0,0.8-0.2
			c-0.1-1.2-0.2-2.4-0.2-3.5c-0.1-0.8,0.3-1.1,1.2-1c0.6,0,0.8,0.3,0.8,0.8c-0.1,1-0.1,2.1,0,3.5c3.6-0.6,5.4-0.6,5.3,0
			c0.2,0.3,0.2,0.5-0.2,0.5c-1.7,0.2-3.3,0.5-5,0.8c0.3,1,0.7,1.8,1,2.5c0.4-0.6,0.9-1.2,1.3-2c0.3-0.3,0.7-0.4,1-0.3
			c0.4,0.3,0.6,0.7,0.5,1.2c-0.7,0.9-1.3,1.6-1.8,2.1c1.2,1.2,3.2,1.8,5.9,1.7c0.2,0.1-0.1,0.7-1,1.7c-1.2,1.2-2.5,1.4-3.8,0.7
			c-0.6-0.4-1.4-1.3-2.6-2.5c-1.1,0.8-2.3,1.2-3.5,1.3c-0.6-0.1-0.7-0.3-0.3-0.7c1.1-0.3,2.1-1,3-2c-0.4-0.7-0.9-1.8-1.3-3.3
			c-0.6,0.1-1,0.3-1.5,0.5c-0.7,0.1-0.9-0.2-0.8-1C274.7,699.8,275.1,699.5,275.8,699.4z M281.1,695.6c0.3-0.8,0.8-1,1.3-0.7
			c0.6,0.3,0.7,0.8,0.5,1.3c-0.4,0.7-1.2,1-2.1,1.2c-0.4,0-0.6-0.2-0.5-0.5C280.6,696.5,280.9,696,281.1,695.6z"/>
		<path fill="#C4BA98" stroke="#000000" stroke-width="0.5" stroke-miterlimit="10" d="M294.2,699.4c0.6,0,0.9,0.2,1.2,0.5
			c-0.1,0.4-0.5,0.6-1.2,0.5c-0.7,0-1.3,0-2,0.2c0.2,0.3,0.1,0.7-0.3,1l-0.8,0.8c-0.3,0.4,0,0.7,0.8,0.8c0.7,0.1,1.2-0.1,1.7-0.7
			l-0.5-1c0.1-0.3,0.3-0.4,0.7-0.3c0.3,0.2,0.7,0.4,1,0.7c0.2,0.4,0.5,0.9,0.8,1.5c-0.1,0.2-0.2,0.3-0.3,0.3
			c-0.4,0.1-0.9-0.1-1.3-0.7c-0.7,1.2-1.4,1.7-2.1,1.3c-0.7-0.4-1.3-0.5-1.8-0.2c-0.2,0-0.4-0.2-0.7-0.5c-0.1-0.4,0.1-0.9,0.7-1.3
			c1-0.9,1.3-1.5,1-1.8c-0.4-0.1-1.1,0-2,0.3c-0.3,0.2-0.6,0.2-0.7-0.2c0.1-0.8,0.5-1.2,1.2-1.3L294.2,699.4L294.2,699.4z
			 M294.2,697.1c0.3,0,0.6,0.2,0.7,0.5c0,0.3-0.1,0.5-0.3,0.5h-2.6c-0.8,0-1.5,0-2.1,0.2c-0.2-0.1-0.3-0.3-0.3-0.7
			c0.1-0.3,0.3-0.6,0.7-0.8C290.8,697,292.2,697.1,294.2,697.1z M298.5,701.7c-0.3-0.1-0.7-0.1-1,0c-0.3,0.2-0.7,0.4-1,0.5
			c-0.2,0-0.4,0-0.5-0.2c-0.2-1.7-0.4-3.1-0.7-4.5c-0.1-0.7,0.2-1,1-1c0.3,0.2,0.9,0.3,1.7,0.2c0.3-0.3,0.7-0.9,1.2-1.7
			c0.1-0.2,0.3-0.3,0.7-0.3c1,0.3,1.3,0.7,0.8,1.2c-0.3,0.3-0.6,0.6-0.8,0.8c0.8,0,1.8,0.1,3,0.3c0.3-0.1,0.6-0.2,0.8-0.3
			c0.3-0.1,0.6,0,0.8,0.2c0.4,0.3,0.6,0.8,0.3,1.5c-0.3,1-0.6,2-0.7,3.1l-0.5,0.3c0.4,0.3,0.5,0.6,0.2,0.8c-0.2,0.2-0.4,0.4-0.7,0.7
			c-0.2,0.1-0.2,0.3,0.2,0.5c0.4,0.1,0.8,0,1.2-0.2c-0.4-0.3-0.5-0.6-0.2-0.7c0.4,0,0.8,0,1,0.2c0.2,0.3,0.4,0.7,0.7,1
			c-0.1,0.1-0.3,0.2-0.5,0.3l-0.7-0.5c-0.2,0.7-0.6,0.9-1.2,0.8c-0.4-0.3-0.9-0.4-1.3-0.3c-0.3-0.2-0.4-0.5-0.3-0.8
			c0.2-0.2,0.4-0.5,0.7-0.8c0.1-0.2,0.3-0.6,0.5-1c-0.9-0.1-1.9-0.2-3.1-0.2c-0.8,2.5-2.3,4.4-4.5,5.5c-1.8,0.7-3.1,0.4-4-0.8
			c0-0.1,0.2-0.2,0.7-0.2C295.6,705.9,297.7,704.4,298.5,701.7z M299,697.6c-0.8,0-1.4,0.1-1.8,0.3c-0.2,0.7-0.1,1,0.3,1l1.8-0.2
			C299.4,698.2,299.3,697.8,299,697.6z M299.2,699.6c-0.6,0-1.2,0-2,0.2c0,0.8,0.2,1.2,0.5,1.2l1.2-0.2L299.2,699.6z M300.3,702.6
			c0.1-0.4,0.3-0.7,0.7-0.7c0.2,0,0.4,0.1,0.5,0.3c-0.2,0.4-0.4,0.9-0.5,1.3c0,0.4,0,0.8,0.2,1c0.4,0.6,1.3,0.9,2.6,1.2
			c1.1,0.1,2.1,0,3.1-0.3c0.7-0.3,1.1-0.4,1.3-0.2c-0.1,0.7-0.5,1.4-1.2,2.3c-0.8,0.7-1.4,0.9-2,0.7c-1.9-0.3-3.4-1.1-4.6-2.3
			c-0.6-0.7-0.8-1.3-0.7-1.8C300.1,703.5,300.2,703,300.3,702.6z M302.8,701.1c0.2-0.4,0.3-0.8,0.2-1.2c-0.4-0.2-1.3-0.3-2.5-0.3
			c-0.1,0.4-0.2,0.9-0.2,1.3C301.2,701,302,701.1,302.8,701.1z M300.7,698.8l1.8,0.2c0.4,0.1,0.7-0.1,0.7-0.7c0-0.4-0.7-0.7-2-0.7
			C300.8,697.7,300.7,698.1,300.7,698.8z"/>
		<path fill="#C4BA98" stroke="#000000" stroke-width="0.5" stroke-miterlimit="10" d="M315.2,698.6c0.2-0.4,0.4-0.7,0.5-0.7
			c0.6-0.1,0.7,0.3,0.5,1.2c-0.3,1-0.8,2-1.5,3.1c-0.6,0.9-1.1,1.5-1.7,2c-1.1,1-2.3,0.9-3.5-0.2c-0.3-0.3-0.2-0.7,0.3-1
			C311.8,702.2,313.6,700.7,315.2,698.6z M319,695.3c1.1-0.1,1.6,0.5,1.5,1.8c-0.1,2.8,0,5.9,0.2,9.3c0,1.3-1,1.9-3.1,1.8
			c-1.1-0.1-2.4-0.7-3.8-1.8c-0.2-0.6-0.1-0.8,0.3-0.8c2.1,0.7,3.4,0.8,3.8,0.3c0.3-0.2,0.4-3.3,0.3-9.3
			C318.2,695.7,318.5,695.3,319,695.3z M321.7,699.1c-0.3-0.4-0.3-0.8,0.2-1c0.2-0.1,0.4,0,0.7,0.2c1.5,2,3.8,3.7,7,5.1
			c-0.3,0.6-0.7,0.9-1,1.2c-1,0.9-1.9,0.9-2.8,0C324.2,702.8,322.9,700.9,321.7,699.1z"/>
		<path fill="#C4BA98" stroke="#000000" stroke-width="0.5" stroke-miterlimit="10" d="M338.1,701.4c-0.3,1.1-0.7,1.9-1,2.5l2.1-0.3
			c-0.1-0.4-0.2-0.9-0.2-1.3c0.1-0.4,0.5-0.7,1.2-0.8c0.4,0,0.8,0.1,1.2,0.3c0.4,0.1,0.8,0.1,1,0v-5.5c0-0.7,0.2-1,0.7-1.2
			c1.1,0,1.7,0.4,1.7,1.2c-0.1,0.6-0.2,1-0.2,1.3c2.3,0.1,4.2,0.2,5.8,0.2c0,0.6-0.2,1-0.5,1.5c-0.4,0.4-0.9,0.6-1.3,0.3
			c-1.8-0.6-3.1-0.7-4-0.5c-0.2,0.9-0.2,1.8,0,2.6c0.8,0.1,1.4,0,1.8-0.2c1.4-0.4,2.1,0,2.1,1.2c-0.2,0.9-0.3,2-0.3,3.3
			c0.2,1.4-0.3,1.9-1.5,1.5c-1.5-0.2-3.2-0.3-5-0.2c-1.3,0.7-2,0.3-2.1-1.2c0-0.3,0-0.9-0.2-1.8c-2.2,1-4.8,1.8-7.8,2.3
			c-1,0.2-1.4-0.2-1.3-1.2c0-0.6,0.6-0.9,1.7-1c1.2-0.1,2.6-0.3,4.1-0.5c0.3-1.2,0.5-2.4,0.5-3.5c0-0.8,0.2-1.2,0.7-1.2
			C338.1,699.5,338.4,700.2,338.1,701.4z M336.7,696.3c-0.1,1.3,0,1.9,0.3,1.8l2.3,0.2c0.6,0.4,0.6,0.8,0.2,1
			c-0.2,0.1-0.6,0.2-1.2,0.2c-2.2-0.4-4.5-0.3-6.8,0.5c-0.4,0.1-0.7,0-0.7-0.5c0.2-1,0.7-1.4,1.3-1.3c0.9,0.2,1.5,0.3,2,0.2
			c0.3-0.1,0.4-0.8,0.3-2c0.1-0.4,0.3-0.7,0.7-0.7C335.9,695.5,336.4,695.7,336.7,696.3z M335.1,703.5c-0.2,0.3-0.5,0.4-0.8,0.2
			c-0.7-1-1-1.9-1.2-2.6c-0.1-0.8,0.2-1.2,0.8-1.3c0.6-0.1,0.8,0.1,0.8,0.7C334.9,701.5,335,702.6,335.1,703.5z M344.3,702.9
			c-1.5-0.1-2.5,0-3,0.3c-0.3,0.8-0.3,1.5,0,2.3c0.1,0.6,1.3,0.7,3.6,0.5c1,0,1.5-0.6,1.5-1.7C346.5,703.3,345.8,702.8,344.3,702.9z
			"/>
	</g>
	
		<linearGradient id="SVGID_11_" gradientUnits="userSpaceOnUse" x1="234.654" y1="240.5869" x2="234.654" y2="240.5869" gradientTransform="matrix(1.0929 0 0 -1.0929 0 955.5428)">
		<stop  offset="0" style="stop-color:#C4BA98"/>
		<stop  offset="1.474962e-002" style="stop-color:#CEC5A9"/>
		<stop  offset="4.332456e-002" style="stop-color:#DDD7C4"/>
		<stop  offset="7.615717e-002" style="stop-color:#EAE6DA"/>
		<stop  offset="0.1145" style="stop-color:#F3F1EB"/>
		<stop  offset="0.162" style="stop-color:#FAF9F6"/>
		<stop  offset="0.2285" style="stop-color:#FEFEFD"/>
		<stop  offset="0.4133" style="stop-color:#FFFFFF"/>
		<stop  offset="0.4696" style="stop-color:#DDDBD8"/>
		<stop  offset="0.5499" style="stop-color:#B2AFA6"/>
		<stop  offset="0.6258" style="stop-color:#908B7F"/>
		<stop  offset="0.6952" style="stop-color:#787263"/>
		<stop  offset="0.7558" style="stop-color:#696252"/>
		<stop  offset="0.801" style="stop-color:#645D4C"/>
		<stop  offset="0.8499" style="stop-color:#776F5B"/>
		<stop  offset="0.9484" style="stop-color:#A89F82"/>
		<stop  offset="1" style="stop-color:#C4BA98"/>
	</linearGradient>
	
		<linearGradient id="SVGID_12_" gradientUnits="userSpaceOnUse" x1="234.654" y1="240.5869" x2="234.654" y2="240.5869" gradientTransform="matrix(1.0929 0 0 -1.0929 0 955.5428)">
		<stop  offset="0" style="stop-color:#C4BA98"/>
		<stop  offset="1.389108e-002" style="stop-color:#C7BD9D"/>
		<stop  offset="0.1655" style="stop-color:#E5E1D2"/>
		<stop  offset="0.2794" style="stop-color:#F8F7F3"/>
		<stop  offset="0.3418" style="stop-color:#FFFFFF"/>
		<stop  offset="0.4046" style="stop-color:#E1E0DC"/>
		<stop  offset="0.5083" style="stop-color:#B5B1A9"/>
		<stop  offset="0.6058" style="stop-color:#928D81"/>
		<stop  offset="0.6943" style="stop-color:#797364"/>
		<stop  offset="0.7708" style="stop-color:#696352"/>
		<stop  offset="0.8265" style="stop-color:#645D4C"/>
		<stop  offset="0.8691" style="stop-color:#776F5B"/>
		<stop  offset="0.955" style="stop-color:#A89F82"/>
		<stop  offset="1" style="stop-color:#C4BA98"/>
	</linearGradient>
	<path fill="url(#SVGID_11_)" stroke="url(#SVGID_12_)" stroke-width="0.5" stroke-miterlimit="10" d="M256.4,692.6"/>
	
		<linearGradient id="SVGID_13_" gradientUnits="userSpaceOnUse" x1="243.5357" y1="247.3122" x2="243.5357" y2="247.3122" gradientTransform="matrix(1.0929 0 0 -1.0929 0 955.5428)">
		<stop  offset="0" style="stop-color:#C4BA98"/>
		<stop  offset="1.474962e-002" style="stop-color:#CEC5A9"/>
		<stop  offset="4.332456e-002" style="stop-color:#DDD7C4"/>
		<stop  offset="7.615717e-002" style="stop-color:#EAE6DA"/>
		<stop  offset="0.1145" style="stop-color:#F3F1EB"/>
		<stop  offset="0.162" style="stop-color:#FAF9F6"/>
		<stop  offset="0.2285" style="stop-color:#FEFEFD"/>
		<stop  offset="0.4133" style="stop-color:#FFFFFF"/>
		<stop  offset="0.4696" style="stop-color:#DDDBD8"/>
		<stop  offset="0.5499" style="stop-color:#B2AFA6"/>
		<stop  offset="0.6258" style="stop-color:#908B7F"/>
		<stop  offset="0.6952" style="stop-color:#787263"/>
		<stop  offset="0.7558" style="stop-color:#696252"/>
		<stop  offset="0.801" style="stop-color:#645D4C"/>
		<stop  offset="0.8499" style="stop-color:#776F5B"/>
		<stop  offset="0.9484" style="stop-color:#A89F82"/>
		<stop  offset="1" style="stop-color:#C4BA98"/>
	</linearGradient>
	
		<linearGradient id="SVGID_14_" gradientUnits="userSpaceOnUse" x1="243.5357" y1="247.3122" x2="243.5357" y2="247.3122" gradientTransform="matrix(1.0929 0 0 -1.0929 0 955.5428)">
		<stop  offset="0" style="stop-color:#C4BA98"/>
		<stop  offset="1.389108e-002" style="stop-color:#C7BD9D"/>
		<stop  offset="0.1655" style="stop-color:#E5E1D2"/>
		<stop  offset="0.2794" style="stop-color:#F8F7F3"/>
		<stop  offset="0.3418" style="stop-color:#FFFFFF"/>
		<stop  offset="0.4046" style="stop-color:#E1E0DC"/>
		<stop  offset="0.5083" style="stop-color:#B5B1A9"/>
		<stop  offset="0.6058" style="stop-color:#928D81"/>
		<stop  offset="0.6943" style="stop-color:#797364"/>
		<stop  offset="0.7708" style="stop-color:#696352"/>
		<stop  offset="0.8265" style="stop-color:#645D4C"/>
		<stop  offset="0.8691" style="stop-color:#776F5B"/>
		<stop  offset="0.955" style="stop-color:#A89F82"/>
		<stop  offset="1" style="stop-color:#C4BA98"/>
	</linearGradient>
	<path fill="url(#SVGID_13_)" stroke="url(#SVGID_14_)" stroke-width="0.5" stroke-miterlimit="10" d="M266.1,685.3"/>
	<g>
		<g>
			<path fill="#C4BA98" stroke="#000000" stroke-width="0.5" stroke-miterlimit="10" d="M261.9,676.4h-6.4v5h3.5v3.5h-3.5v6.1
				l-1.9,0.9V673h8.3V676.4"/>
			<path fill="#C4BA98" stroke="#000000" stroke-width="0.5" stroke-miterlimit="10" d="M264.2,688.6v-0.9v-14.6h7
				c0.7,0,1.1,0.3,1.4,0.9c0.3,0.6,0.4,1.5,0.4,2.8v4.4c0,1.3-0.1,2.2-0.4,2.8c-0.3,0.6-0.8,0.9-1.4,0.9h-1.1l3.8,7.1h-2.7l-3.3-7.1
				h-1.8v2.4v1.1L264.2,688.6z M270.4,676.4h-4.3v5.3h4.3c0.3,0,0.6-0.1,0.7-0.3c0.1-0.2,0.2-0.6,0.2-1.2v-2.3
				c0-0.6-0.1-0.9-0.2-1.1C270.9,676.5,270.7,676.4,270.4,676.4z"/>
			<path fill="#C4BA98" stroke="#000000" stroke-width="0.5" stroke-miterlimit="10" d="M276.9,692v-18.9h1.9V692H276.9z"/>
			<path fill="#C4BA98" stroke="#000000" stroke-width="0.5" stroke-miterlimit="10" d="M283,692v-18.9h8.4v3.2h-6.5v4.2h3.8v3.2
				h-3.8v4.7h6.6v3.6L283,692L283,692z"/>
			<path fill="#C4BA98" stroke="#000000" stroke-width="0.5" stroke-miterlimit="10" d="M295,692v-18.9h1.3l5.8,11.2
				c0.2,0.4,0.4,0.7,0.5,1s0.3,0.7,0.4,1c0-1.1,0-1.8-0.1-2.3c0-0.4,0-0.8,0-1V673h1.7V692h-1.3l-6-11.7c-0.1-0.3-0.3-0.6-0.4-0.8
				c-0.1-0.2-0.2-0.5-0.3-0.7c0,0.6,0,1.1,0,1.7c0,0.5,0,1,0,1.4V692H295L295,692z"/>
			<path fill="#C4BA98" stroke="#000000" stroke-width="0.5" stroke-miterlimit="10" d="M308.8,692v-18.9h5.3c1.5,0,2.7,0.8,3.5,2.4
				c0.8,1.6,1.2,3.9,1.2,6.9c0,1.8-0.2,3.4-0.5,4.8c-0.3,1.4-0.8,2.5-1.3,3.3c-0.4,0.5-0.8,0.9-1.3,1.1c-0.5,0.2-1.2,0.3-2,0.3
				L308.8,692L308.8,692z M310.6,688.4h2.4c1.3,0,2.2-0.5,2.8-1.4c0.5-0.9,0.8-2.5,0.8-4.7c0-1.9-0.2-3.4-0.7-4.4
				c-0.4-1-1.1-1.5-2-1.5h-3.4L310.6,688.4L310.6,688.4z"/>
			<path fill="#C4BA98" stroke="#000000" stroke-width="0.5" stroke-miterlimit="10" d="M329.3,676.4h-5.4v4.1h5.1
				c0.8,0,1.3,0.3,1.6,1c0.3,0.6,0.4,1.8,0.4,3.5v2.6c0,1.7-0.1,2.9-0.4,3.5c-0.3,0.6-0.8,1-1.6,1h-5.1c-0.8,0-1.3-0.3-1.6-1
				c-0.3-0.6-0.4-1.8-0.4-3.5V687l1.7-0.8v2.2h5.8v-4.3h-5.1c-0.8,0-1.3-0.3-1.6-1c-0.3-0.6-0.4-1.8-0.4-3.5v-2.1
				c0-1.7,0.1-2.9,0.4-3.5c0.3-0.6,0.8-1,1.6-1h4.6c0.8,0,1.3,0.3,1.6,0.9c0.3,0.6,0.4,1.7,0.4,3.2v0.4l-1.7,0.9L329.3,676.4
				L329.3,676.4z"/>
			<path fill="#C4BA98" stroke="#000000" stroke-width="0.5" stroke-miterlimit="10" d="M342.8,689.2v-5.3h-5.9v7.5L335,692v-18.9
				h1.9v7.3h5.9v-7.3h1.9v15.4L342.8,689.2z"/>
			<path fill="#C4BA98" stroke="#000000" stroke-width="0.5" stroke-miterlimit="10" d="M348.9,692v-18.9h1.9V692H348.9z"/>
			<path fill="#C4BA98" stroke="#000000" stroke-width="0.5" stroke-miterlimit="10" d="M355,692v-18.9h7c0.7,0,1.1,0.3,1.4,0.9
				c0.3,0.6,0.4,1.5,0.4,2.8v4.2c0,1.3-0.1,2.2-0.4,2.8c-0.3,0.6-0.8,0.9-1.4,0.9h-5.1v6.5L355,692z M361.2,676.4h-4.3v5h4.3
				c0.3,0,0.6-0.1,0.7-0.3c0.1-0.2,0.2-0.6,0.2-1.2v-2c0-0.6-0.1-0.9-0.2-1.1C361.7,676.5,361.5,676.4,361.2,676.4z"/>
		</g>
	</g>
</g>
</svg>
