<?xml version="1.0" encoding="utf-8"?>
<!-- Generator: Adobe Illustrator 18.1.1, SVG Export Plug-In . SVG Version: 6.00 Build 0)  -->
<svg version="1.1" id="图层_1" xmlns="http://www.w3.org/2000/svg" xmlns:xlink="http://www.w3.org/1999/xlink" x="0px" y="0px"
	 viewBox="0 0 560 560" enable-background="new 0 0 560 560" xml:space="preserve">
	 <style type="text/css">
	.st0{fill:#FFFFFF;}
</style>
<g>
	<g>
		<path class="st0" d="M353.4,422.6c9.5-7.3,14.4-17.6,17.3-29.5c5.3,7.4,9,14.6,6,23.4c-3.1,9.1-6.1,18.3-9.5,27.3
			c-5.1,13.5-14.5,23.4-26.3,31.3c-6.5,4.3-13.4,7.9-20.6,11.3c6.3-9.6,9.1-20.3,12-31.4c-1.3,0.7-1.4,1.7-1.9,2.5
			c-7.9,13.9-15.6,28-26.9,39.6c-3.2,3.2-6.5,6.2-10.4,8.4c-3.1,1.7-5.7,4-8.5,6.2c-1.6,1.3-3.1,1.7-4.6-0.2c-0.4-0.5-1-0.8-1.5-1.1
			c-4.7-2.2-8.9-5.1-12.6-8.7c-4.5-4.3-9.5-7.9-15-11c-1.1-0.6-2.3-1.1-3.4-2.8c7.4,2.8,13.8,6.3,21.3,8.8c-1.3-1.8-2.7-2.3-3.9-2.9
			c-7.6-3.6-15.2-7.3-22.9-10.8c-7.9-3.6-14.7-8.7-21-14.5c-0.7-0.6-1.3-1.2-1.8-2c-9.8-15.5-19.7-31-24.6-48.9
			c-1.4-5.1-2.4-10.3-2.5-15.7c0-6.1,2.4-10.8,7.8-13.8c2.6-1.4,5.1-3.1,7.7-4.5c1.4-0.7,1.7-1.5,1.5-2.9
			c-0.9-5.9-2.7-11.6-4.7-17.1c-2.5-6.7-4.9-13.5-7.6-20.7c-1.2,4.5-2.2,8.5-3.3,12.5c-1.1,4.1-1.7,8.2-1.5,12.5
			c-1.3-2.4-1-4.8-0.6-7.3c0.9-5.7,2.4-11.2,3.8-16.8c1.2-4.6,1.1-9.1-2.2-13c-1.5-1.8-3.2-3.6-5.3-5.9c0.5,6.9,2.2,13.1,1.4,19.6
			c-0.7-17.5-7.4-33.5-12.4-50c-0.5,0.2-0.4,0.7-0.3,1.1c1.4,8.3,0.3,17,3.6,25.1c0.1,0.2,0,0.5,0,1.5c-2.8-5.9-3.3-11.8-5.1-17.4
			c-2.2,8-2.4,15.9,1.5,23.9c-2.2-0.5-2.8-1.8-3.2-3.4c-1-4.6-0.6-9.3-0.5-14c0-0.5,0-1.1,0.1-1.6c0.3-6.1,0.2-6-5.9-6.8
			c-14.1-2-28.3-2.3-42.5-2.2c-10.9,0.1-21.4-2.2-32.1-3.9c-11.1-1.8-22.3-2.5-33.3-5.2c-8.5-2.1-16.6-5.3-24.9-8
			c-5.5-1.8-6.4-3.6-5.9-9.3c0.8-10.4,2.2-20.7,2.1-31.2c0-1.7,0.4-3.3,0.6-5.2c-6.7,0-13.3,0.9-20.2,0.4c0.9-1.5,2-1.2,3-1.3
			c4.7-0.3,9.3-0.6,14-0.7c2.8-0.1,4.7-0.9,5.8-3.8c1.2-3.1,3.4-5.8,6.3-7.5c15.7-9.5,30.2-20.8,46-30.1c8.4-5,16.5-10.6,25.8-13.9
			c1.3-0.5,2.5-1.4,3.6-2.3c16.1-11.6,32.6-22.6,50.6-31.3c0.8-0.4,1.6-1.2,2.9-0.8c-39.5,23.8-77.2,49.9-115.2,75.5
			c0.2,0.3,0.3,0.5,0.5,0.8c4.5-2.7,9-5.4,13.5-8.2c4.6-2.8,9.2-5.6,13.7-8.6c4.5-2.9,8.9-5.9,13.7-9.1c-0.1,2.1-1.5,3-2.5,3.9
			c-6.6,5.8-14.2,10.2-21.4,15c-1.3,0.9-2.7,1.7-3.6,3.3c1.4,0.7,2.2-0.2,3-0.7c12.4-6.7,23.6-15,35.1-23.2
			c24.6-17.4,50.6-32.7,76.3-48.3c16.4-10,32.5-20.3,47.2-32.6c3.4-2.8,7.4-4.4,11.3-6.2c2.1-0.9,4-2,4.9-4.3
			c0.5-1.2,1.7-1.8,2.7-2.5c2.1-1.4,4.2-2.8,6.8-4.4c-2.1-0.1-3,1.4-4.7,1.4c0.2-1.1,1.1-1.6,1.7-2.2c2.8-2.3,6-3.7,9.5-4.2
			c21.5-3.1,41.5,0.7,59.9,12.4c1.9,1.2,3.7,2,5.8,2.5c7,1.8,13.6,4.7,19.9,8.2c26.7,14.4,53.3,28.9,78.3,46.1
			c7.2,5,14.4,10.1,22.1,15.5c-1.7,0.1-2.5-0.5-3.3-0.9c-12.9-6.5-24.9-14.4-37-22.2c-18.8-12.2-38.4-23.1-58.1-33.7
			c-5.8-3.1-11.5-6.3-17.3-9.4c-1.3-0.7-2.7-1.2-4.3-1.3c3.4,2,6.8,4,10.2,5.9c30.9,17.3,60.8,36.3,90.8,55.2
			c7.8,4.9,15.9,9.2,24.3,12.9c10.8,4.8,20.6,11.4,30.2,18.2c10.4,7.4,21.3,14.1,32.1,20.9c4.5,2.8,8.6,6.2,11.8,10.5
			c1.8,2.5,4.8,3.1,7.4,4.3c7.2,3.2,10.2,8.3,9,16.1c-0.7,4.9-1.8,9.7-2.4,14.6c-0.5,3.5-1,7-0.7,10.5c0.4,5.9-5.3,12.8-11.1,14.4
			c-3,0.8-5.7,2-8.3,3.7c-3.1,2-6.7,2-10.2,2c-18.2,0.2-36.5,1.2-54.7,1.8c-1,0-2.2-0.1-3.4,0.6c2,4.4,4.4,8.3,8.2,11.4
			c10.8,8.6,21.4,17.3,32.1,26c0.7,0.6,1.6,1.1,2.4,2.8c-12.6-7.2-21.9-17.6-33.7-25c4.4,7.9,8.8,15.9,13.2,23.8
			c-0.1,0.1-0.2,0.2-0.4,0.3c-1-1.4-2.1-2.7-3.1-4.1c-4.4-6.2-7.8-12.9-11.5-19.5c-4.4-7.9-11.1-13.6-17.9-19.2
			c-0.9-0.8-1.9-0.7-3-0.6c-15.8,1.9-31.7,3.1-47.6,3.9c-1,0-2.1,0.3-3.4-0.4c0.5-3.2,0.9-6.4,1.4-9.7c-1.2,0.9-1.3,2.1-1.5,3.3
			c-1.9,14.1-8.3,25.9-17.6,36.3c-2.4,2.7-5.7,4-9.4,4.7c1.7,6.5,2.1,12.9,2.5,19.3c0.1,1.7,1.3,2.9,2.4,4.1
			c1.5,1.5,2.9,3.1,3.6,5.3c-1.7-1.8-3.5-3.6-5.6-5.8c-0.5,3.7,0.6,6.7,0.7,9.8c-2.1-7.5-4.2-15-6.5-23.1c1.7,2.2,1.7,4.4,3.2,6.1
			c0.9-1,0.7-2.1,0.6-3.1c-0.4-3.6-1-7.1-1.5-10.7c-0.2-1.2-0.6-2.4-2-2.5c-1.5-0.2-1.5,1.3-1.9,2.2c-1.2,2.7-2,5.6-2.4,8.6
			c-1.9,16.4-9,30.5-19,43.4c-8.6,11-17.9,21.3-28.2,30.8c-8.1,7.5-17.9,10.3-28.5,11.3c-1.1,0.1-2.1-0.3-3.1-0.8
			c-7.8-4-15.2-8.6-21.1-15.2c-2.2-2.4-5.2-4.2-7.4-6.6c-8.5-9.4-13.7-20.6-18.1-32.3c-5.3-14.3-7.7-29.4-10.1-44.4
			c-1.1-6.6-2.5-12-9.3-15.1c-4-1.8-7-5.6-10.3-8.6c-0.6-0.6-1.2-1.4-2.5-1.6c0.3,4.2,0.6,8.2,1,12.2c1.4,13.9,4.1,27.5,10.1,40.4
			c3,6.4,4.8,13.4,7.6,19.9c3.9,9.1,10,16.8,16.9,23.9c7.3,7.4,15,14.5,22.5,21.7c13.9,13.6,31.7,11.1,44.2,4.4
			c4.7-2.5,8.7-6.1,12.5-9.8c14.3-13.8,27.2-28.7,36.9-46.2c3.5-6.4,6-13.3,7.5-20.4c0.2-1.1,0.5-2.2,0.8-3.3c1.3,0.1,1.2,1,1.4,1.6
			c2.8,9.7,5.5,19.4,8.3,29c1.4,4.9,0.8,9.8-0.5,14.6c-2.2,8.3-5.8,16.1-9.6,23.7c-0.8,1.6-2,2.9-3,4.4
			C352.9,422.3,353.2,422.4,353.4,422.6z M302.2,193.7c4,0.1,7.9,1.8,12,1.5C310.2,194.5,306.4,192.8,302.2,193.7
			c-1-1.5-2.6-1.1-3.9-1.3c-8.4-1.4-16.9-2.2-25.5-2.3c-24.1-0.2-48.2-0.4-72.1,2.9c-3.6,0.5-7.3,0.8-11.5,1.3
			c15.8-20.2,31.2-39.7,47.1-59.9c-1.8,0.7-2.2,1.6-2.8,2.3c-14.5,17.3-28.6,34.9-42.5,52.7c-1.7,2.2-3.5,4.5-6.3,5.3
			c-5.7,1.6-11.6,1.2-17.6,1.5c11.6-11.3,23.1-22.7,34.7-34c-1,0.2-1.6,0.8-2.3,1.4c-11.6,10.6-23.3,21.2-34.9,31.8
			c-1.3,1.2-2.7,2.3-4.6,2.7c-22.3,4.5-44.4,9.7-66.5,15.1c-1.2,0.3-2.3,0.8-3.6,0.3c1.6-1.7,11.8-8.4,14.3-9.2
			c-1.4,1.9-3.4,2.9-4.2,4.8c38.1-26.6,77.1-51.7,114-79.8c-43.5,29.2-87.6,57.4-131.9,86.6c3.4,1,5.9,0.3,8.3-0.2
			c32.5-6.4,64.6-15.1,97.7-18.4c14.2-1.4,28.4-3.5,42.6-4.6c18.5-1.5,37-1.1,55.5-0.6C291.6,192.2,297,192.4,302.2,193.7z
			 M210.8,384.1c-1.2,1.2-1.8,2.4-1.9,3.7c-0.4,4.7-2.7,8.3-6.1,11.3c-2.4,2.1-3.3,4.8-2.6,7.8c1.3,5.4,2.2,11,4.2,16.1
			c6.7,17,18.5,29.7,34.5,38.5c0.3,0.2,0.7,0.3,1.2-0.2c-1.9-3.2-4.8-5.6-7.3-8.3c-8.8-9.5-16.2-19.9-20.2-32.5
			c-1.5-4.7-2.4-9.5-1.5-14.7c6.2,12,14.9,21.4,26,28.9c11.3,7.7,23.6,10.8,37.4,10.9c-0.9-1.9-2.2-1.9-3.3-2.1
			c-4.1-0.9-8.2-2-12.2-3.4c-13.5-4.5-25.1-11.5-32.8-24c-4-6.4-7.7-13-10.2-20.1C214.7,392.1,213,388.1,210.8,384.1z M139.9,197.3
			c1.8,0.4,2.5-0.6,3.3-1.2c8.3-6,16-12.7,24-19.2c17.1-13.7,33.4-28.4,51.3-41.2c8.2-5.9,16.5-11.5,24.4-17.8
			c2.1-1.7,4-3.6,6.2-6.1c-2,0.4-3.1,1.2-3.9,2c-7.3,7.5-17.2,11.3-25.2,17.9c-9.6,7.9-20.7,14-31.1,20.8c-0.7,0.4-1.3,1.1-2.6,1.1
			c10.7-8,21.8-14.7,32.9-22.1c-1.3-0.2-1.7,0.4-2.2,0.7c-14.5,8.8-28.6,18.3-42.5,28.1c-18,12.8-35.5,26.3-54.7,37.5
			c-0.5,0.3-1,0.5-1.1,1.2c1.1,0.4,2.1-0.3,3-0.7c2.9-1.3,5.5-3,8.1-4.7c16.1-10.5,31.4-22.2,47.3-33.1c0.6-0.4,1.1-1.2,2.5-0.9
			c-16.5,12.2-32.6,24.3-47.7,37.7c19.8-14.3,39.2-28.9,59.4-42.6C174.8,169.5,157,182.7,139.9,197.3z M507.3,232.3
			c0.1-0.2,0.2-0.5,0.2-0.7c-14.9-4.6-29.7-9.9-45.1-12.5c-38.6-6.5-77.2-13.6-116-18.7c-11.8-1.6-23.3-4.8-35.3-4.6
			c-11.6,0.2-23.2-0.6-34.8-1.1c-4.2-0.2-8.4-0.5-12.6-0.7c4.6,1,9.2,1.4,13.8,1.8c12.1,0.9,24.2,1.1,36.3,2.1
			c9.5,0.8,18.7,3.4,28.1,4.9c12.3,2,24.8,3.3,37.1,5.2c18.6,2.8,37,6.6,55.6,9c19.8,2.6,39.6,5.3,58.7,11.2
			C497.9,229.8,502.6,231,507.3,232.3z M87.6,272.4c1.7-2.8,1.9-2.9,5.2-3.6c18.6-3.8,37.4-6.3,56.4-7c1.9-0.1,3.9-0.8,4.3,2.3
			c2.4-3,2.6-3.1,4.6-3.4c10-1.3,20.1-1.6,30.1-1.2c2.6,0.1,5.1,0.4,7.9-0.3c-3,0.1-3-1.6-3-3.8c0.2-8.4,0.2-16.7,0.3-25.1
			c0-4,0-8.1,0-12.1c-1.6,13.4-1.1,27-2.3,40.8c-11.9,0.1-23.5-1.2-35.4,1.3c1-12.1,1.6-23.8,1.1-35.5c-0.4,1.5-0.6,3-0.7,4.5
			c-0.6,9.2-1.2,18.5-1.9,27.7c-0.1,1.3,0,2.9-1.8,3.2c-2.8,0.5-5.6,0.6-8.8,0.5c0-12.4,0-24.4,0-36.5c-2,12.2-1.3,24.5-2,36.9
			c-3,0.1-5.6,0.3-8.4,0.4c0.3-10.6,0.5-20.8-0.3-31c-0.3,0.5-0.4,1-0.4,1.5c-0.3,8.7-0.7,17.4-0.9,26.1c-0.1,2.6-0.6,3.8-3.5,3.9
			c-7.6,0.4-15.2,1.8-22.7,3.2c-4,0.8-8.1,1.5-12.2,2.2c-1.5-8.4-0.8-16.6-1.3-24.7c-1.3,7.3-1.4,14.6-0.9,22c0.1,1.2,1,3.1-1,3.3
			c-2.4,0.3-1.7-1.9-1.8-3.1c-1.1-7.9-2-15.9-2.9-23.8c-0.1-0.9-0.3-1.9-0.5-2.8c-0.4,9,0.6,17.9,1.5,26.7c0.4,4,0.4,4-3.6,4.7
			c-5.6,1-11.2,2-16.8,3c0.5,0.4,1,0.5,1.5,0.4c5.6-0.9,11.2-1.8,16.8-2.7C85.7,270.3,87,270.2,87.6,272.4z M456.3,193.8
			c-4.8-5-122-77.9-124.3-77.4C335.1,121.4,452.5,194.6,456.3,193.8z M269.3,306.5c-1.4,0.9-1.6,2.2-2,3.4
			c-2.9,9.5-4.5,19.4-6.8,29.1c-0.4,1.9-0.1,3.6,1.1,5.1c2.3,2.9,5.2,5.2,8.9,6.3c0.7,0.2,1.6,0.8,2.3,0c0.6-0.7,0.6-1.7,0.3-2.6
			c-0.2-0.7-0.6-1.3-1.1-1.8c-2.8-3.1-3.5-6.7-3.3-10.8c0.4-6.4,0.8-12.7,1.1-19.1C269.8,313,269.9,309.9,269.3,306.5z M322.6,113.6
			c1.2,1.5,2.3,3,3.5,4.4c15,17.3,32.2,32.6,48.4,48.8c7,7.1,14.8,13.4,22.6,19.5c1,0.8,2,1.9,4,1.1
			C374.7,162.9,348.2,138.8,322.6,113.6z M291.9,475.1c-1.1-0.6-2.1,0.1-3.1,0.4c-4.5,1.4-8.9,1.4-13.1-0.6
			c-5.5-2.5-10.5-5.8-14.8-10.1c-7.4-7.4-15.3-14.4-23.8-20.6c-0.7-0.5-1.4-1.2-2.3-0.4c-0.3,1,0.4,1.5,1,2
			c6.7,5.4,12.2,11.9,18,18.1c4.6,4.9,9.1,9.9,15.3,13c6.8,3.3,13.7,4.2,20.7,0.7C290.8,477,292.1,476.7,291.9,475.1z M317.2,114.8
			c-0.2,0.1-0.4,0.3-0.6,0.4c0.7,1.2,1.4,2.5,2.1,3.6c7.7,12,15,24.3,22,36.7c5.3,9.4,11.2,18.4,17.8,27c0.8,1,1.5,2.4,3.6,2.3
			C346.8,161.5,334.1,136.8,317.2,114.8z M275.3,108.2c-5.3,23.7-10.5,47.1-16.4,70.7c1.7,0,2.1-0.9,2.5-1.7
			c0.7-1.9,1.6-3.8,2.1-5.8c5.6-19.8,9.4-40,13.1-60.2C276.8,110.1,277.2,109,275.3,108.2z M355.7,370.6
			c-4.9,21.3-10.2,42.1-25.4,58.6c1-0.4,1.7-1,2.5-1.6c5.3-3.8,7.8-9.7,11.3-14.9c7.8-11.3,11.5-23.9,12.9-37.3
			C357.2,373.8,357.2,372.2,355.7,370.6z M262.1,115.8c-0.3-0.2-0.7-0.3-1-0.5c-12,22.5-24,45-36,67.5
			C240.2,162,249.3,137.9,262.1,115.8z M313.4,141.6c1.2,3.1,2.4,6.3,3.7,9.4c3.5,8.8,7,17.5,11.2,26c0.6,1.3,1.2,2.6,3.5,2
			C326.4,166,320.6,153.5,313.4,141.6z M211.6,177c13.8-16.7,27.7-33.3,39-51.9C238,142.8,223.7,159.1,211.6,177z M268.8,456.1
			c2.1,1.5,4.6,2.6,7,3.6c4.4,1.8,7.4,0.8,9.8-3.3c0.6-1,1.5-2,0.5-3.2c-0.9-1.1-2-0.5-3-0.1c-3.9,1.4-8,2.2-12.2,1.6
			C270,454.6,269.1,454.6,268.8,456.1z M268.5,115.5c-7.2,19.3-15.1,38.3-21.6,57.9C255.7,154.7,262.6,135.3,268.5,115.5z
			 M503.2,275.7c-27.1-8-54.3-15.7-82.8-16.4C448.7,260.9,475.8,269,503.2,275.7z M212.3,251c0.4,0,0.8,0,1.2,0
			c0.5-15,0.9-30,1.4-45.1c-0.3,0-0.7,0-1,0C213.4,221,211.6,236,212.3,251z M201.2,427.6c-1.7-6.8-2.7-13.5-3.8-20.2
			c-0.7-4.2-0.7-8.2,1.9-11.9c0.2-0.3,0.5-0.7-0.1-1.2c-3.6,4-5.1,8.6-4.2,13.9c1,5.8,2.4,11.6,4.7,17.1
			C199.9,426,200,427,201.2,427.6z M204.6,252.6c-0.7-13.6-0.3-27.3-1.1-41C202,225.3,201.8,239,204.6,252.6z M62.4,273.8
			c-3,0.7-3.7-0.8-4-3.4c-0.8-7.4-1.9-14.8-2.8-22.2c-0.2-1.8-0.5-3.6-0.8-5.4c0.1,11.4,1,22.6,3.4,33.8
			C58.8,274.4,60.6,274.2,62.4,273.8z M281,385.7c-6.3-0.4-11.7-1.4-16.9-4.4c0.4,3.4,1.3,4.7,4.1,5.5
			C272.3,388,276.4,389.4,281,385.7z M358,393.7c1.6,0.6,2.4,0.1,3.1-0.6c1.7-1.8,2-9.4,0.5-11.3c-0.8-1.1-2-1-2.2,0.3
			C358.8,385.9,358.5,389.9,358,393.7z M76,268.4c-0.8-11-1.6-22.1-2-33.2C72.9,246.4,73,257.5,76,268.4z M185.7,216
			c-1.9,11.1-2.5,22.1-1.8,33.2c0.2,0,0.5,0,0.7,0C185,238.2,185.3,227.1,185.7,216z M510.9,233c1.5,0.9,1,2,0.8,3.1
			c-1.1,6-2.2,12-3.1,18c-0.3,1.6-0.9,3.4,0.8,5.7c1.4-9.4,2.8-18.1,4.1-26.7C512.5,232.5,511.9,232.8,510.9,233z M256.9,379.1
			c2.9-0.6,5.7,0.2,8.5,0.7c2.7,0.5,5.4,1.5,8.2-0.2C269,375.9,261.2,375.7,256.9,379.1z M521.6,272.2c1.6-10.4,3-20.9,3.3-31.4
			C523.1,247.2,521,266.3,521.6,272.2z M165.9,257.2c2.6-2.6,5-21.7,3.9-27C168.4,239.5,167.1,248.4,165.9,257.2z M537,277.2
			c0.2,0,0.5,0,0.7,0c0.3-8.7,0.6-17.5,0.8-26.2C536.3,259.6,535.8,268.4,537,277.2z M121.8,227.3c-0.3,9.6,0.3,19.2,2,28.7
			C123.9,246.3,123.2,236.8,121.8,227.3z M63.5,241.8c-0.1,9.2,0.8,18.3,2,27.4C66.4,260,64.7,250.9,63.5,241.8z M52.4,272
			c0.7-7.9,1.2-15.8-0.2-23.7C52.3,256.2,50.7,264.1,52.4,272z M113.5,258.7c0.7-8.2,0.2-16.3-1-24.4
			C112.2,242.4,112.2,250.6,113.5,258.7z M72.3,266.3c1-8.5-0.9-16.5-3-24.6C70.2,249.9,71.3,258.1,72.3,266.3z M529.8,272.1
			c2-4.8,3.3-18.5,2.3-23.2C531.2,256.8,530.1,264.4,529.8,272.1z M45,270.3c1.2-5.6,1.6-11.3,1.5-17.1
			C44.8,258.8,44,264.5,45,270.3z M102.7,261.4c0.3-6,0.6-12,0.9-18.5C101.8,246.9,100.9,258.6,102.7,261.4z M78.7,240.7
			c-1.6,10.7-1.6,19.8,0,22.9C78.7,256,78.7,248.7,78.7,240.7z M96.3,237.4c-1.4,6.3-1.6,17.8,0,20.8
			C96.3,250.8,96.3,244,96.3,237.4z M185.5,312.2c1,4.5,2.4,8.8,5.9,12.1C190.6,319.7,188.1,315.9,185.5,312.2z M82.4,262.1
			c0-5.4,0-10.8,0-16.3C81.3,251.2,81.1,256.6,82.4,262.1z M451,303.4c-0.7-3.2-3-3.9-5.9-5.1C447.1,300.7,448.7,302.2,451,303.4z
			 M280.1,378.3c2.6,0,4.7,0,7.4,0C284.7,376.5,282.7,376.5,280.1,378.3z"/>
		<path class="st0" d="M201.9,106.2c-7.2,14-16.7,26.3-28.2,37.1C183,130.8,192.8,118.8,201.9,106.2z"/>
		<path class="st0" d="M202.8,132.8c-6.3,4.5-12.9,8.3-20,11.4c6.5-4,13.1-8,19.6-12C202.6,132.4,202.7,132.6,202.8,132.8z"/>
		<path class="st0" d="M377.8,330.9c2.7,6.5,4.5,13.1,4.7,20C381,344.2,379.4,337.5,377.8,330.9z"/>
		<path class="st0" d="M141.5,166.6c-4,2.4-8,4.8-12,7.2c-0.1-0.2-0.2-0.4-0.4-0.6c4-2.4,8-4.8,12-7.2C141.3,166.2,141.4,166.4,141.5,166.6z"/>
	</g>
</g>
</svg>
