<?xml version="1.0" encoding="utf-8"?>
<!-- Generator: Adobe Illustrator 18.1.1, SVG Export Plug-In . SVG Version: 6.00 Build 0)  -->
<svg version="1.1" id="图层_1" xmlns="http://www.w3.org/2000/svg" xmlns:xlink="http://www.w3.org/1999/xlink" x="0px" y="0px"
	 viewBox="0 0 612 792" enable-background="new 0 0 612 792" xml:space="preserve">
<g>
	<g>
		<path d="M386.2,551.8c10.4-8,15.7-19.2,18.9-32.2c5.8,8.1,9.8,16,6.6,25.6c-3.4,9.9-6.7,20-10.4,29.8
			c-5.6,14.8-15.8,25.6-28.7,34.2c-7.1,4.7-14.6,8.6-22.5,12.3c6.9-10.5,9.9-22.2,13.1-34.3c-1.4,0.8-1.5,1.9-2.1,2.7
			c-8.6,15.2-17,30.6-29.4,43.3c-3.5,3.5-7.1,6.8-11.4,9.2c-3.4,1.9-6.2,4.4-9.3,6.8c-1.7,1.4-3.4,1.9-5-0.2
			c-0.4-0.5-1.1-0.9-1.6-1.2c-5.1-2.4-9.7-5.6-13.8-9.5c-4.9-4.7-10.4-8.6-16.4-12c-1.2-0.7-2.5-1.2-3.7-3.1
			c8.1,3.1,15.1,6.9,23.3,9.6c-1.4-2-3-2.5-4.3-3.2c-8.3-3.9-16.6-8-25-11.8c-8.6-3.9-16.1-9.5-23-15.8c-0.8-0.7-1.4-1.3-2-2.2
			c-10.7-16.9-21.5-33.9-26.9-53.4c-1.5-5.6-2.6-11.3-2.7-17.2c0-6.7,2.6-11.8,8.5-15.1c2.8-1.5,5.6-3.4,8.4-4.9
			c1.5-0.8,1.9-1.6,1.6-3.2c-1-6.4-3-12.7-5.1-18.7c-2.7-7.3-5.4-14.8-8.3-22.6c-1.3,4.9-2.4,9.3-3.6,13.7c-1.2,4.5-1.9,9-1.6,13.7
			c-1.4-2.6-1.1-5.2-0.7-8c1-6.2,2.6-12.2,4.2-18.4c1.3-5,1.2-9.9-2.4-14.2c-1.6-2-3.5-3.9-5.8-6.4c0.5,7.5,2.4,14.3,1.5,21.4
			c-0.8-19.1-8.1-36.6-13.6-54.6c-0.5,0.2-0.4,0.8-0.3,1.2c1.5,9.1,0.3,18.6,3.9,27.4c0.1,0.2,0,0.5,0,1.6c-3.1-6.4-3.6-12.9-5.6-19
			c-2.4,8.7-2.6,17.4,1.6,26.1c-2.4-0.5-3.1-2-3.5-3.7c-1.1-5-0.7-10.2-0.5-15.3c0-0.5,0-1.2,0.1-1.7c0.3-6.7,0.2-6.6-6.4-7.4
			c-15.4-2.2-30.9-2.5-46.4-2.4c-11.9,0.1-23.4-2.4-35.1-4.3c-12.1-2-24.4-2.7-36.4-5.7c-9.3-2.3-18.1-5.8-27.2-8.7
			c-6-2-7-3.9-6.4-10.2c0.9-11.4,2.4-22.6,2.3-34.1c0-1.9,0.4-3.6,0.7-5.7c-7.3,0-14.5,1-22.1,0.4c1-1.6,2.2-1.3,3.3-1.4
			c5.1-0.3,10.2-0.7,15.3-0.8c3.1-0.1,5.1-1,6.3-4.2c1.3-3.4,3.7-6.3,6.9-8.2c17.2-10.4,33-22.7,50.3-32.9
			c9.2-5.5,18-11.6,28.2-15.2c1.4-0.5,2.7-1.5,3.9-2.5c17.6-12.7,35.6-24.7,55.3-34.2c0.9-0.4,1.7-1.3,3.2-0.9
			c-43.2,26-84.4,54.5-125.9,82.5c0.2,0.3,0.3,0.5,0.5,0.9c4.9-3,9.8-5.9,14.8-9s10.1-6.1,15-9.4c4.9-3.2,9.7-6.4,15-9.9
			c-0.1,2.3-1.6,3.3-2.7,4.3c-7.2,6.3-15.5,11.1-23.4,16.4c-1.4,1-3,1.9-3.9,3.6c1.5,0.8,2.4-0.2,3.3-0.8
			c13.6-7.3,25.8-16.4,38.4-25.4c26.9-19,55.3-35.7,83.4-52.8c17.9-10.9,35.5-22.2,51.6-35.6c3.7-3.1,8.1-4.8,12.3-6.8
			c2.3-1,4.4-2.2,5.4-4.7c0.5-1.3,1.9-2,3-2.7c2.3-1.5,4.6-3.1,7.4-4.8c-2.3-0.1-3.3,1.5-5.1,1.5c0.2-1.2,1.2-1.7,1.9-2.4
			c3.1-2.5,6.6-4,10.4-4.6c23.5-3.4,45.4,0.8,65.5,13.6c2.1,1.3,4,2.2,6.3,2.7c7.7,2,14.9,5.1,21.7,9c29.2,15.7,58.2,31.6,85.6,50.4
			c7.9,5.5,15.7,11,24.2,16.9c-1.9,0.1-2.7-0.5-3.6-1c-14.1-7.1-27.2-15.7-40.4-24.3c-20.5-13.3-42-25.2-63.5-36.8
			c-6.3-3.4-12.6-6.9-18.9-10.3c-1.4-0.8-3-1.3-4.7-1.4c3.7,2.2,7.4,4.4,11.1,6.4c33.8,18.9,66.4,39.7,99.2,60.3
			c8.5,5.4,17.4,10.1,26.6,14.1c11.8,5.2,22.5,12.5,33,19.9c11.4,8.1,23.3,15.4,35.1,22.8c4.9,3.1,9.4,6.8,12.9,11.5
			c2,2.7,5.2,3.4,8.1,4.7c7.9,3.5,11.1,9.1,9.8,17.6c-0.8,5.4-2,10.6-2.6,16c-0.5,3.8-1.1,7.7-0.8,11.5c0.4,6.4-5.8,14-12.1,15.7
			c-3.3,0.9-6.2,2.2-9.1,4c-3.4,2.2-7.3,2.2-11.1,2.2c-19.9,0.2-39.9,1.3-59.8,2c-1.1,0-2.4-0.1-3.7,0.7c2.2,4.8,4.8,9.1,9,12.5
			c11.8,9.4,23.4,18.9,35.1,28.4c0.8,0.7,1.7,1.2,2.6,3.1c-13.8-7.9-23.9-19.2-36.8-27.3c4.8,8.6,9.6,17.4,14.4,26
			c-0.1,0.1-0.2,0.2-0.4,0.3c-1.1-1.5-2.3-3-3.4-4.5c-4.8-6.8-8.5-14.1-12.6-21.3c-4.8-8.6-12.1-14.9-19.6-21
			c-1-0.9-2.1-0.8-3.3-0.7c-17.3,2.1-34.6,3.4-52,4.3c-1.1,0-2.3,0.3-3.7-0.4c0.5-3.5,1-7,1.5-10.6c-1.3,1-1.4,2.3-1.6,3.6
			c-2.1,15.4-9.1,28.3-19.2,39.7c-2.6,3-6.2,4.4-10.3,5.1c1.9,7.1,2.3,14.1,2.7,21.1c0.1,1.9,1.4,3.2,2.6,4.5
			c1.6,1.6,3.2,3.4,3.9,5.8c-1.9-2-3.8-3.9-6.1-6.3c-0.5,4,0.7,7.3,0.8,10.7c-2.3-8.2-4.6-16.4-7.1-25.2c1.9,2.4,1.9,4.8,3.5,6.7
			c1-1.1,0.8-2.3,0.7-3.4c-0.4-3.9-1.1-7.8-1.6-11.7c-0.2-1.3-0.7-2.6-2.2-2.7c-1.6-0.2-1.6,1.4-2.1,2.4c-1.3,3-2.2,6.1-2.6,9.4
			c-2.1,17.9-9.8,33.3-20.8,47.4c-9.4,12-19.6,23.3-30.8,33.7c-8.9,8.2-19.6,11.3-31.1,12.3c-1.2,0.1-2.3-0.3-3.4-0.9
			c-8.5-4.4-16.6-9.4-23.1-16.6c-2.4-2.6-5.7-4.6-8.1-7.2c-9.3-10.3-15-22.5-19.8-35.3c-5.8-15.6-8.4-32.1-11-48.5
			c-1.2-7.2-2.7-13.1-10.2-16.5c-4.4-2-7.7-6.1-11.3-9.4c-0.7-0.7-1.3-1.5-2.7-1.7c0.3,4.6,0.7,9,1.1,13.3
			c1.5,15.2,4.5,30.1,11,44.2c3.3,7,5.2,14.6,8.3,21.7c4.3,9.9,10.9,18.4,18.5,26.1c8,8.1,16.4,15.8,24.6,23.7
			c15.2,14.9,34.6,12.1,48.3,4.8c5.1-2.7,9.5-6.7,13.7-10.7c15.6-15.1,29.7-31.4,40.3-50.5c3.8-7,6.6-14.5,8.2-22.3
			c0.2-1.2,0.5-2.4,0.9-3.6c1.4,0.1,1.3,1.1,1.5,1.7c3.1,10.6,6,21.2,9.1,31.7c1.5,5.4,0.9,10.7-0.5,16c-2.4,9.1-6.3,17.6-10.5,25.9
			c-0.9,1.7-2.2,3.2-3.3,4.8C385.7,551.5,386,551.6,386.2,551.8z M330.3,301.7c4.4,0.1,8.6,2,13.1,1.6
			C339,302.6,334.9,300.7,330.3,301.7c-1.1-1.6-2.8-1.2-4.3-1.4c-9.2-1.5-18.5-2.4-27.9-2.5c-26.3-0.2-52.7-0.4-78.8,3.2
			c-3.9,0.5-8,0.9-12.6,1.4c17.3-22.1,34.1-43.4,51.5-65.5c-2,0.8-2.4,1.7-3.1,2.5c-15.8,18.9-31.3,38.1-46.4,57.6
			c-1.9,2.4-3.8,4.9-6.9,5.8c-6.2,1.7-12.7,1.3-19.2,1.6c12.7-12.3,25.2-24.8,37.9-37.2c-1.1,0.2-1.7,0.9-2.5,1.5
			c-12.7,11.6-25.5,23.2-38.1,34.8c-1.4,1.3-3,2.5-5,3c-24.4,4.9-48.5,10.6-72.7,16.5c-1.3,0.3-2.5,0.9-3.9,0.3
			c1.7-1.9,12.9-9.2,15.6-10.1c-1.5,2.1-3.7,3.2-4.6,5.2c41.6-29.1,84.3-56.5,124.6-87.2c-47.5,31.9-95.7,62.7-144.1,94.6
			c3.7,1.1,6.4,0.3,9.1-0.2c35.5-7,70.6-16.5,106.8-20.1c15.5-1.5,31-3.8,46.6-5c20.2-1.6,40.4-1.2,60.7-0.7
			C318.7,300,324.6,300.3,330.3,301.7z M230.4,509.8c-1.3,1.3-2,2.6-2.1,4c-0.4,5.1-3,9.1-6.7,12.3c-2.6,2.3-3.6,5.2-2.8,8.5
			c1.4,5.9,2.4,12,4.6,17.6c7.3,18.6,20.2,32.5,37.7,42.1c0.3,0.2,0.8,0.3,1.3-0.2c-2.1-3.5-5.2-6.1-8-9.1
			c-9.6-10.4-17.7-21.7-22.1-35.5c-1.6-5.1-2.6-10.4-1.6-16.1c6.8,13.1,16.3,23.4,28.4,31.6c12.3,8.4,25.8,11.8,40.9,11.9
			c-1-2.1-2.4-2.1-3.6-2.3c-4.5-1-9-2.2-13.3-3.7c-14.8-4.9-27.4-12.6-35.8-26.2c-4.4-7-8.4-14.2-11.1-22
			C234.6,518.5,232.8,514.1,230.4,509.8z M152.9,305.6c2,0.4,2.7-0.7,3.6-1.3c9.1-6.6,17.5-13.9,26.2-21c18.7-15,36.5-31,56.1-45
			c9-6.4,18-12.6,26.7-19.5c2.3-1.9,4.4-3.9,6.8-6.7c-2.2,0.4-3.4,1.3-4.3,2.2c-8,8.2-18.8,12.3-27.5,19.6
			c-10.5,8.6-22.6,15.3-34,22.7c-0.8,0.4-1.4,1.2-2.8,1.2c11.7-8.7,23.8-16.1,36-24.2c-1.4-0.2-1.9,0.4-2.4,0.8
			c-15.8,9.6-31.3,20-46.4,30.7c-19.7,14-38.8,28.7-59.8,41c-0.5,0.3-1.1,0.5-1.2,1.3c1.2,0.4,2.3-0.3,3.3-0.8
			c3.2-1.4,6-3.3,8.9-5.1c17.6-11.5,34.3-24.3,51.7-36.2c0.7-0.4,1.2-1.3,2.7-1c-18,13.3-35.6,26.6-52.1,41.2
			c21.6-15.6,42.8-31.6,64.9-46.6C191,275.2,171.6,289.7,152.9,305.6z M554.4,343.9c0.1-0.2,0.2-0.5,0.2-0.8
			c-16.3-5-32.5-10.8-49.3-13.7c-42.2-7.1-84.4-14.9-126.8-20.4c-12.9-1.7-25.5-5.2-38.6-5c-12.7,0.2-25.4-0.7-38-1.2
			c-4.6-0.2-9.2-0.5-13.8-0.8c5,1.1,10.1,1.5,15.1,2c13.2,1,26.4,1.2,39.7,2.3c10.4,0.9,20.4,3.7,30.7,5.4
			c13.4,2.2,27.1,3.6,40.5,5.7c20.3,3.1,40.4,7.2,60.8,9.8c21.6,2.8,43.3,5.8,64.2,12.2C544.1,341.1,549.3,342.4,554.4,343.9z
			 M95.7,387.7c1.9-3.1,2.1-3.2,5.7-3.9c20.3-4.2,40.9-6.9,61.6-7.6c2.1-0.1,4.3-0.9,4.7,2.5c2.6-3.3,2.8-3.4,5-3.7
			c10.9-1.4,22-1.7,32.9-1.3c2.8,0.1,5.6,0.4,8.6-0.3c-3.3,0.1-3.3-1.7-3.3-4.2c0.2-9.2,0.2-18.3,0.3-27.4c0-4.4,0-8.9,0-13.2
			c-1.7,14.6-1.2,29.5-2.5,44.6c-13,0.1-25.7-1.3-38.7,1.4c1.1-13.2,1.7-26,1.2-38.8c-0.4,1.6-0.7,3.3-0.8,4.9
			c-0.7,10.1-1.3,20.2-2.1,30.3c-0.1,1.4,0,3.2-2,3.5c-3.1,0.5-6.1,0.7-9.6,0.5c0-13.6,0-26.7,0-39.9c-2.2,13.3-1.4,26.8-2.2,40.3
			c-3.3,0.1-6.1,0.3-9.2,0.4c0.3-11.6,0.5-22.7-0.3-33.9c-0.3,0.5-0.4,1.1-0.4,1.6c-0.3,9.5-0.8,19-1,28.5c-0.1,2.8-0.7,4.2-3.8,4.3
			c-8.3,0.4-16.6,2-24.8,3.5c-4.4,0.9-8.9,1.6-13.3,2.4c-1.6-9.2-0.9-18.1-1.4-27c-1.4,8-1.5,16-1,24c0.1,1.3,1.1,3.4-1.1,3.6
			c-2.6,0.3-1.9-2.1-2-3.4c-1.2-8.6-2.2-17.4-3.2-26c-0.1-1-0.3-2.1-0.5-3.1c-0.4,9.8,0.7,19.6,1.6,29.2c0.4,4.4,0.4,4.4-3.9,5.1
			c-6.1,1.1-12.2,2.2-18.4,3.3c0.5,0.4,1.1,0.5,1.6,0.4c6.1-1,12.2-2,18.4-3C93.7,385.4,95.1,385.3,95.7,387.7z M498.7,301.8
			c-5.2-5.5-133.3-85.1-135.8-84.6C366.2,222.7,494.5,302.7,498.7,301.8z M294.3,425c-1.5,1-1.7,2.4-2.2,3.7
			c-3.2,10.4-4.9,21.2-7.4,31.8c-0.4,2.1-0.1,3.9,1.2,5.6c2.5,3.2,5.7,5.7,9.7,6.9c0.8,0.2,1.7,0.9,2.5,0c0.7-0.8,0.7-1.9,0.3-2.8
			c-0.2-0.8-0.7-1.4-1.2-2c-3.1-3.4-3.8-7.3-3.6-11.8c0.4-7,0.9-13.9,1.2-20.9C294.9,432.1,295,428.7,294.3,425z M352.6,214.1
			c1.3,1.6,2.5,3.3,3.8,4.8c16.4,18.9,35.2,35.6,52.9,53.3c7.6,7.8,16.2,14.6,24.7,21.3c1.1,0.9,2.2,2.1,4.4,1.2
			C409.5,268,380.5,241.7,352.6,214.1z M319,609.2c-1.2-0.7-2.3,0.1-3.4,0.4c-4.9,1.5-9.7,1.5-14.3-0.7c-6-2.7-11.5-6.3-16.2-11
			c-8.1-8.1-16.7-15.7-26-22.5c-0.8-0.5-1.5-1.3-2.5-0.4c-0.3,1.1,0.4,1.6,1.1,2.2c7.3,5.9,13.3,13,19.7,19.8
			c5,5.4,9.9,10.8,16.7,14.2c7.4,3.6,15,4.6,22.6,0.8C317.8,611.3,319.2,611,319,609.2z M346.7,215.5c-0.2,0.1-0.4,0.3-0.7,0.4
			c0.8,1.3,1.5,2.7,2.3,3.9c8.4,13.1,16.4,26.6,24,40.1c5.8,10.3,12.2,20.1,19.5,29.5c0.9,1.1,1.6,2.6,3.9,2.5
			C379,266.5,365.1,239.5,346.7,215.5z M300.9,208.2c-5.8,25.9-11.5,51.5-17.9,77.3c1.9,0,2.3-1,2.7-1.9c0.8-2.1,1.7-4.2,2.3-6.3
			c6.1-21.6,10.3-43.7,14.3-65.8C302.5,210.3,302.9,209.1,300.9,208.2z M388.7,495c-5.4,23.3-11.1,46-27.8,64
			c1.1-0.4,1.9-1.1,2.7-1.7c5.8-4.2,8.5-10.6,12.3-16.3c8.5-12.3,12.6-26.1,14.1-40.8C390.4,498.5,390.4,496.8,388.7,495z
			 M286.4,216.6c-0.3-0.2-0.8-0.3-1.1-0.5c-13.1,24.6-26.2,49.2-39.3,73.8C262.5,267,272.4,240.7,286.4,216.6z M342.5,244.7
			c1.3,3.4,2.6,6.9,4,10.3c3.8,9.6,7.6,19.1,12.2,28.4c0.7,1.4,1.3,2.8,3.8,2.2C356.7,271.4,350.4,257.8,342.5,244.7z M231.2,283.4
			c15.1-18.3,30.3-36.4,42.6-56.7C260.1,246.1,244.5,263.9,231.2,283.4z M293.8,588.5c2.3,1.6,5,2.8,7.6,3.9c4.8,2,8.1,0.9,10.7-3.6
			c0.7-1.1,1.6-2.2,0.5-3.5c-1-1.2-2.2-0.5-3.3-0.1c-4.3,1.5-8.7,2.4-13.3,1.7C295.1,586.8,294.1,586.8,293.8,588.5z M293.4,216.2
			c-7.9,21.1-16.5,41.9-23.6,63.3C279.4,259.1,287,237.9,293.4,216.2z M549.9,391.3c-29.6-8.7-59.3-17.2-90.5-17.9
			C490.4,375.1,520,384,549.9,391.3z M232,364.3c0.4,0,0.9,0,1.3,0c0.5-16.4,1-32.8,1.5-49.3c-0.3,0-0.8,0-1.1,0
			C233.2,331.5,231.2,347.9,232,364.3z M219.9,557.3c-1.9-7.4-3-14.8-4.2-22.1c-0.8-4.6-0.8-9,2.1-13c0.2-0.3,0.5-0.8-0.1-1.3
			c-3.9,4.4-5.6,9.4-4.6,15.2c1.1,6.3,2.6,12.7,5.1,18.7C218.5,555.6,218.6,556.6,219.9,557.3z M223.6,366.1
			c-0.8-14.9-0.3-29.8-1.2-44.8C220.8,336.2,220.5,351.2,223.6,366.1z M68.2,389.2c-3.3,0.8-4-0.9-4.4-3.7
			c-0.9-8.1-2.1-16.2-3.1-24.3c-0.2-2-0.5-3.9-0.9-5.9c0.1,12.5,1.1,24.7,3.7,36.9C64.3,389.9,66.2,389.7,68.2,389.2z M307.1,511.5
			c-6.9-0.4-12.8-1.5-18.5-4.8c0.4,3.7,1.4,5.1,4.5,6C297.6,514,302.1,515.6,307.1,511.5z M391.2,520.3c1.7,0.7,2.6,0.1,3.4-0.7
			c1.9-2,2.2-10.3,0.5-12.3c-0.9-1.2-2.2-1.1-2.4,0.3C392.1,511.7,391.8,516.1,391.2,520.3z M83.1,383.3c-0.9-12-1.7-24.2-2.2-36.3
			C79.7,359.3,79.8,371.4,83.1,383.3z M202.9,326.1c-2.1,12.1-2.7,24.2-2,36.3c0.2,0,0.5,0,0.8,0
			C202.2,350.3,202.5,338.2,202.9,326.1z M558.3,344.6c1.6,1,1.1,2.2,0.9,3.4c-1.2,6.6-2.4,13.1-3.4,19.7c-0.3,1.7-1,3.7,0.9,6.2
			c1.5-10.3,3.1-19.8,4.5-29.2C560.1,344.1,559.4,344.4,558.3,344.6z M280.8,504.3c3.2-0.7,6.2,0.2,9.3,0.8c3,0.5,5.9,1.6,9-0.2
			C294,500.8,285.5,500.6,280.8,504.3z M570,387.5c1.7-11.4,3.3-22.8,3.6-34.3C571.7,360.2,569.4,381,570,387.5z M181.3,371.1
			c2.8-2.8,5.5-23.7,4.3-29.5C184,351.7,182.6,361.5,181.3,371.1z M586.9,392.9c0.2,0,0.5,0,0.8,0c0.3-9.5,0.7-19.1,0.9-28.6
			C586.1,373.7,585.6,383.3,586.9,392.9z M133.1,338.4c-0.3,10.5,0.3,21,2.2,31.4C135.4,359.2,134.6,348.8,133.1,338.4z M69.4,354.3
			c-0.1,10.1,0.9,20,2.2,29.9C72.6,374.1,70.7,364.2,69.4,354.3z M57.3,387.3c0.8-8.6,1.3-17.3-0.2-25.9
			C57.2,370,55.4,378.6,57.3,387.3z M124,372.7c0.8-9,0.2-17.8-1.1-26.7C122.6,354.9,122.6,363.9,124,372.7z M79,381
			c1.1-9.3-1-18-3.3-26.9C76.7,363.1,77.9,372.1,79,381z M579,387.4c2.2-5.2,3.6-20.2,2.5-25.4C580.5,370.6,579.3,379,579,387.4z
			 M49.2,385.4c1.3-6.1,1.7-12.3,1.6-18.7C49,372.8,48.1,379.1,49.2,385.4z M112.2,375.7c0.3-6.6,0.7-13.1,1-20.2
			C111.3,359.8,110.3,372.6,112.2,375.7z M86,353.1c-1.7,11.7-1.7,21.6,0,25C86,369.8,86,361.8,86,353.1z M105.2,349.4
			c-1.5,6.9-1.7,19.5,0,22.7C105.2,364.1,105.2,356.7,105.2,349.4z M202.7,431.2c1.1,4.9,2.6,9.6,6.4,13.2
			C208.3,439.4,205.6,435.2,202.7,431.2z M90.1,376.4c0-5.9,0-11.8,0-17.8C88.8,364.5,88.6,370.4,90.1,376.4z M492.9,421.6
			c-0.8-3.5-3.3-4.3-6.4-5.6C488.6,418.6,490.4,420.3,492.9,421.6z M306.1,503.4c2.8,0,5.1,0,8.1,0
			C311.1,501.5,309,501.5,306.1,503.4z"/>
		<path d="M220.6,206.1c-7.9,15.3-18.3,28.7-30.8,40.5C200,232.9,210.7,219.8,220.6,206.1z"/>
		<path d="M221.6,235.1c-6.9,4.9-14.1,9.1-21.9,12.5c7.1-4.4,14.3-8.7,21.4-13.1C221.4,234.7,221.5,234.9,221.6,235.1z"/>
		<path d="M412.9,451.6c3,7.1,4.9,14.3,5.1,21.9C416.4,466.2,414.6,458.8,412.9,451.6z"/>
		<path d="M154.6,272.1c-4.4,2.6-8.7,5.2-13.1,7.9c-0.1-0.2-0.2-0.4-0.4-0.7c4.4-2.6,8.7-5.2,13.1-7.9
			C154.4,271.6,154.5,271.9,154.6,272.1z"/>
	</g>
</g>
<g>
	<g>
		<path fill="#C4BA98" stroke="#000000" stroke-width="0.5" stroke-miterlimit="10" d="M470.1,513.9v-15.3h12v2.7h-9.2v4h5v2.8h-5
			v4.7L470.1,513.9z"/>
		<path fill="#C4BA98" stroke="#000000" stroke-width="0.5" stroke-miterlimit="10" d="M485.2,502.1c0-1.4,0.2-2.4,0.6-2.9
			c0.4-0.5,1.2-0.8,2.3-0.8h8.7c1.2,0,1.9,0.3,2.3,0.8s0.6,1.5,0.6,2.9v8.1c0,1.4-0.2,2.4-0.6,2.9c-0.4,0.5-1.2,0.8-2.3,0.8h-8.7
			c-1.2,0-1.9-0.3-2.3-0.8c-0.4-0.5-0.6-1.5-0.6-2.9V502.1z M488,511h9.1v-9.7H488V511z"/>
		<path fill="#C4BA98" stroke="#000000" stroke-width="0.5" stroke-miterlimit="10" d="M505.6,511.4v-12.9h10.1c1,0,1.6,0.2,2.1,0.7
			c0.4,0.5,0.6,1.2,0.6,2.3v3.6c0,1-0.2,1.8-0.6,2.3c-0.4,0.5-1.1,0.7-2.1,0.7h-1.5l5.5,5.8h-4l-4.8-5.8h-2.6v2.8L505.6,511.4z
			 M514.6,501.2h-6.2v4.3h6.2c0.5,0,0.8-0.1,1-0.3c0.2-0.2,0.3-0.5,0.3-1v-1.9c0-0.4-0.1-0.8-0.3-0.9
			C515.3,501.3,515,501.2,514.6,501.2z"/>
	</g>
	<g>
		<path fill="#C4BA98" stroke="#000000" stroke-width="0.5" stroke-miterlimit="10" d="M449.3,544.7c1.1-0.1,1.6,0.3,1.6,1.4v1.8h3
			c1.2,0,1.5,0.4,0.8,1.2h-3.8c0,2,0.1,3,0.4,3c0.5,0.1,1,0.1,1.4-0.2c1.3-0.3,1.9,0.2,1.8,1.4c-0.1,0.9-0.2,2.2-0.2,4
			c0.1,1.3-0.5,1.8-2,1.4c-1.6-0.5-3.3-0.5-5,0c-1.1,0.7-1.7,0.3-1.8-1c-0.1-1.3-0.4-2.8-0.8-4.4c0.1-1.1,0.9-1.4,2.2-1
			c1.1,0.1,1.6-0.1,1.6-0.8c0-1.5-0.1-2.9-0.2-4.2C448.1,545.5,448.4,544.6,449.3,544.7z M447.3,554.3c-0.1,1.6,0.1,2.4,0.8,2.6
			c3.1,0.4,4.4-0.1,4.2-1.4c0.3-1.9-1-2.6-3.8-2.2C447.8,553.3,447.3,553.7,447.3,554.3z M455.3,549.7c0.5,0,0.9-0.1,1-0.2
			c-0.1-1.5-0.2-2.9-0.2-4.2c-0.1-0.9,0.3-1.3,1.4-1.2c0.7,0,1,0.3,1,1c-0.1,1.2-0.1,2.6,0,4.2c4.4-0.7,6.5-0.7,6.4,0
			c0.3,0.4,0.2,0.6-0.2,0.6c-2,0.3-4,0.6-6,1c0.4,1.2,0.8,2.2,1.2,3c0.5-0.7,1.1-1.5,1.6-2.4c0.4-0.4,0.8-0.5,1.2-0.4
			c0.5,0.4,0.7,0.9,0.6,1.4c-0.8,1.1-1.5,1.9-2.2,2.6c1.5,1.5,3.9,2.1,7.2,2c0.3,0.1-0.1,0.8-1.2,2c-1.5,1.5-3,1.7-4.6,0.8
			c-0.7-0.5-1.7-1.5-3.2-3c-1.3,0.9-2.7,1.5-4.2,1.6c-0.7-0.1-0.8-0.4-0.4-0.8c1.3-0.4,2.5-1.2,3.6-2.4c-0.5-0.8-1.1-2.1-1.6-4
			c-0.7,0.1-1.3,0.3-1.8,0.6c-0.8,0.1-1.1-0.3-1-1.2C453.9,550.2,454.4,549.9,455.3,549.7z M461.7,545.1c0.4-0.9,0.9-1.2,1.6-0.8
			c0.7,0.4,0.9,0.9,0.6,1.6c-0.5,0.8-1.4,1.3-2.6,1.4c-0.5,0-0.7-0.2-0.6-0.6C461.1,546.2,461.4,545.7,461.7,545.1z"/>
		<path fill="#C4BA98" stroke="#000000" stroke-width="0.5" stroke-miterlimit="10" d="M477.4,549.7c0.7,0,1.1,0.2,1.4,0.6
			c-0.1,0.5-0.6,0.7-1.4,0.6c-0.8,0-1.6,0.1-2.4,0.2c0.3,0.4,0.1,0.8-0.4,1.2l-1,1c-0.4,0.5-0.1,0.9,1,1c0.8,0.1,1.5-0.1,2-0.8
			l-0.6-1.2c0.1-0.4,0.4-0.5,0.8-0.4c0.4,0.3,0.8,0.5,1.2,0.8c0.3,0.5,0.6,1.1,1,1.8c-0.1,0.3-0.3,0.4-0.4,0.4
			c-0.5,0.1-1.1-0.1-1.6-0.8c-0.8,1.5-1.7,2-2.6,1.6c-0.8-0.5-1.5-0.6-2.2-0.2c-0.3,0-0.5-0.2-0.8-0.6c-0.1-0.5,0.1-1.1,0.8-1.6
			c1.2-1.1,1.6-1.8,1.2-2.2c-0.5-0.1-1.3,0-2.4,0.4c-0.4,0.3-0.7,0.2-0.8-0.2c0.1-0.9,0.6-1.5,1.4-1.6L477.4,549.7L477.4,549.7z
			 M477.4,546.9c0.4,0,0.7,0.2,0.8,0.6c0,0.4-0.1,0.6-0.4,0.6h-3.2c-0.9,0-1.8,0.1-2.6,0.2c-0.3-0.1-0.4-0.4-0.4-0.8
			c0.1-0.4,0.4-0.7,0.8-1C473.4,546.8,475,546.9,477.4,546.9z M482.6,552.5c-0.4-0.1-0.8-0.1-1.2,0c-0.4,0.3-0.8,0.5-1.2,0.6
			c-0.3,0-0.5-0.1-0.6-0.2c-0.3-2-0.5-3.8-0.8-5.4c-0.1-0.8,0.3-1.2,1.2-1.2c0.4,0.3,1.1,0.3,2,0.2c0.4-0.4,0.9-1.1,1.4-2
			c0.1-0.3,0.4-0.4,0.8-0.4c1.2,0.4,1.5,0.9,1,1.4c-0.4,0.4-0.7,0.7-1,1c0.9,0,2.1,0.1,3.6,0.4c0.4-0.1,0.7-0.3,1-0.4
			c0.4-0.1,0.7-0.1,1,0.2c0.5,0.4,0.7,1,0.4,1.8c-0.4,1.2-0.7,2.4-0.8,3.8l-0.6,0.4c0.5,0.4,0.6,0.7,0.2,1c-0.3,0.3-0.5,0.5-0.8,0.8
			c-0.3,0.1-0.2,0.3,0.2,0.6c0.5,0.1,1,0.1,1.4-0.2c-0.5-0.4-0.6-0.7-0.2-0.8c0.5,0,0.9,0.1,1.2,0.2c0.3,0.4,0.5,0.8,0.8,1.2
			c-0.1,0.1-0.3,0.3-0.6,0.4l-0.8-0.6c-0.3,0.8-0.7,1.1-1.4,1c-0.5-0.4-1.1-0.5-1.6-0.4c-0.4-0.3-0.5-0.6-0.4-1
			c0.3-0.3,0.5-0.6,0.8-1c0.1-0.3,0.3-0.7,0.6-1.2c-1.1-0.1-2.3-0.2-3.8-0.2c-0.9,3.1-2.7,5.3-5.4,6.6c-2.1,0.8-3.7,0.5-4.8-1
			c0-0.1,0.3-0.2,0.8-0.2C479.2,557.5,481.7,555.7,482.6,552.5z M483.2,547.5c-0.9,0-1.7,0.1-2.2,0.4c-0.3,0.8-0.1,1.2,0.4,1.2
			l2.2-0.2C483.8,548.3,483.6,547.8,483.2,547.5z M483.4,549.9c-0.7,0-1.5,0.1-2.4,0.2c0,0.9,0.2,1.4,0.6,1.4l1.4-0.2L483.4,549.9z
			 M484.8,553.5c0.1-0.5,0.4-0.8,0.8-0.8c0.3,0,0.5,0.1,0.6,0.4c-0.3,0.5-0.5,1.1-0.6,1.6c0,0.5,0.1,0.9,0.2,1.2
			c0.5,0.7,1.6,1.1,3.2,1.4c1.3,0.1,2.6,0,3.8-0.4c0.8-0.4,1.3-0.5,1.6-0.2c-0.1,0.8-0.6,1.7-1.4,2.8c-0.9,0.8-1.7,1.1-2.4,0.8
			c-2.2-0.4-4.1-1.3-5.6-2.8c-0.7-0.8-0.9-1.5-0.8-2.2C484.5,554.6,484.7,554,484.8,553.5z M487.8,551.7c0.3-0.5,0.3-1,0.2-1.4
			c-0.5-0.3-1.5-0.4-3-0.4c-0.1,0.5-0.2,1.1-0.2,1.6C485.9,551.7,486.9,551.7,487.8,551.7z M485.2,548.9l2.2,0.2
			c0.5,0.1,0.8-0.1,0.8-0.8c0-0.5-0.8-0.8-2.4-0.8C485.4,547.7,485.2,548.1,485.2,548.9z"/>
		<path fill="#C4BA98" stroke="#000000" stroke-width="0.5" stroke-miterlimit="10" d="M502.8,548.7c0.3-0.5,0.5-0.8,0.6-0.8
			c0.7-0.1,0.9,0.3,0.6,1.4c-0.4,1.2-1,2.4-1.8,3.8c-0.7,1.1-1.3,1.9-2,2.4c-1.3,1.2-2.7,1.1-4.2-0.2c-0.4-0.4-0.3-0.8,0.4-1.2
			C498.6,553,500.8,551.2,502.8,548.7z M507.3,544.7c1.3-0.1,1.9,0.6,1.8,2.2c-0.1,3.3-0.1,7.1,0.2,11.2c0,1.6-1.3,2.3-3.8,2.2
			c-1.3-0.1-2.9-0.9-4.6-2.2c-0.3-0.7-0.1-1,0.4-1c2.5,0.8,4,0.9,4.6,0.4c0.4-0.3,0.5-4,0.4-11.2
			C506.4,545.3,506.7,544.7,507.3,544.7z M510.5,549.3c-0.4-0.5-0.3-0.9,0.2-1.2c0.3-0.1,0.5-0.1,0.8,0.2c1.9,2.4,4.6,4.4,8.4,6.2
			c-0.4,0.7-0.8,1.1-1.2,1.4c-1.2,1.1-2.3,1.1-3.4,0C513.6,553.8,512,551.6,510.5,549.3z"/>
		<path fill="#C4BA98" stroke="#000000" stroke-width="0.5" stroke-miterlimit="10" d="M530.3,552.1c-0.4,1.3-0.8,2.3-1.2,3l2.6-0.4
			c-0.1-0.5-0.2-1.1-0.2-1.6c0.1-0.5,0.6-0.9,1.4-1c0.5,0,1,0.1,1.4,0.4c0.5,0.1,0.9,0.1,1.2,0v-6.6c0-0.8,0.3-1.3,0.8-1.4
			c1.3,0,2,0.5,2,1.4c-0.1,0.7-0.2,1.2-0.2,1.6c2.8,0.1,5.1,0.2,7,0.2c0,0.7-0.2,1.3-0.6,1.8c-0.5,0.5-1.1,0.7-1.6,0.4
			c-2.1-0.7-3.7-0.9-4.8-0.6c-0.3,1.1-0.3,2.1,0,3.2c0.9,0.1,1.7,0.1,2.2-0.2c1.7-0.5,2.6-0.1,2.6,1.4c-0.3,1.1-0.4,2.4-0.4,4
			c0.3,1.7-0.3,2.3-1.8,1.8c-1.9-0.3-3.9-0.3-6-0.2c-1.6,0.8-2.4,0.3-2.6-1.4c0-0.4-0.1-1.1-0.2-2.2c-2.7,1.2-5.8,2.1-9.4,2.8
			c-1.2,0.3-1.7-0.2-1.6-1.4c0-0.7,0.7-1.1,2-1.2c1.5-0.1,3.1-0.3,5-0.6c0.4-1.5,0.6-2.9,0.6-4.2c0-0.9,0.3-1.4,0.8-1.4
			C530.3,549.9,530.7,550.6,530.3,552.1z M528.7,545.9c-0.1,1.6,0,2.3,0.4,2.2l2.8,0.2c0.7,0.5,0.7,0.9,0.2,1.2
			c-0.3,0.1-0.7,0.2-1.4,0.2c-2.7-0.5-5.4-0.3-8.2,0.6c-0.5,0.1-0.8-0.1-0.8-0.6c0.3-1.2,0.8-1.7,1.6-1.6c1.1,0.3,1.9,0.3,2.4,0.2
			c0.4-0.1,0.5-0.9,0.4-2.4c0.1-0.5,0.4-0.8,0.8-0.8C527.7,545,528.3,545.3,528.7,545.9z M526.7,554.7c-0.3,0.4-0.6,0.5-1,0.2
			c-0.8-1.2-1.3-2.2-1.4-3.2c-0.1-0.9,0.2-1.5,1-1.6c0.7-0.1,1,0.1,1,0.8C526.4,552.3,526.5,553.5,526.7,554.7z M537.8,553.9
			c-1.9-0.1-3.1,0-3.6,0.4c-0.4,0.9-0.4,1.9,0,2.8c0.1,0.7,1.6,0.9,4.4,0.6c1.2,0,1.8-0.7,1.8-2
			C540.4,554.4,539.6,553.8,537.8,553.9z"/>
	</g>
	
		<linearGradient id="SVGID_1_" gradientUnits="userSpaceOnUse" x1="395.2608" y1="378.8225" x2="395.2608" y2="378.8225" gradientTransform="matrix(1.0929 0 0 -1.0929 0 955.5428)">
		<stop  offset="0" style="stop-color:#C4BA98"/>
		<stop  offset="1.474962e-002" style="stop-color:#CEC5A9"/>
		<stop  offset="4.332456e-002" style="stop-color:#DDD7C4"/>
		<stop  offset="7.615717e-002" style="stop-color:#EAE6DA"/>
		<stop  offset="0.1145" style="stop-color:#F3F1EB"/>
		<stop  offset="0.162" style="stop-color:#FAF9F6"/>
		<stop  offset="0.2285" style="stop-color:#FEFEFD"/>
		<stop  offset="0.4133" style="stop-color:#FFFFFF"/>
		<stop  offset="0.4696" style="stop-color:#DDDBD8"/>
		<stop  offset="0.5499" style="stop-color:#B2AFA6"/>
		<stop  offset="0.6258" style="stop-color:#908B7F"/>
		<stop  offset="0.6952" style="stop-color:#787263"/>
		<stop  offset="0.7558" style="stop-color:#696252"/>
		<stop  offset="0.801" style="stop-color:#645D4C"/>
		<stop  offset="0.8499" style="stop-color:#776F5B"/>
		<stop  offset="0.9484" style="stop-color:#A89F82"/>
		<stop  offset="1" style="stop-color:#C4BA98"/>
	</linearGradient>
	
		<linearGradient id="SVGID_2_" gradientUnits="userSpaceOnUse" x1="395.2608" y1="378.8225" x2="395.2608" y2="378.8225" gradientTransform="matrix(1.0929 0 0 -1.0929 0 955.5428)">
		<stop  offset="0" style="stop-color:#C4BA98"/>
		<stop  offset="1.389108e-002" style="stop-color:#C7BD9D"/>
		<stop  offset="0.1655" style="stop-color:#E5E1D2"/>
		<stop  offset="0.2794" style="stop-color:#F8F7F3"/>
		<stop  offset="0.3418" style="stop-color:#FFFFFF"/>
		<stop  offset="0.4046" style="stop-color:#E1E0DC"/>
		<stop  offset="0.5083" style="stop-color:#B5B1A9"/>
		<stop  offset="0.6058" style="stop-color:#928D81"/>
		<stop  offset="0.6943" style="stop-color:#797364"/>
		<stop  offset="0.7708" style="stop-color:#696352"/>
		<stop  offset="0.8265" style="stop-color:#645D4C"/>
		<stop  offset="0.8691" style="stop-color:#776F5B"/>
		<stop  offset="0.955" style="stop-color:#A89F82"/>
		<stop  offset="1" style="stop-color:#C4BA98"/>
	</linearGradient>
	<path fill="url(#SVGID_1_)" stroke="url(#SVGID_2_)" stroke-width="0.5" stroke-miterlimit="10" d="M432,541.5"/>
	
		<linearGradient id="SVGID_3_" gradientUnits="userSpaceOnUse" x1="405.9583" y1="386.9228" x2="405.9583" y2="386.9228" gradientTransform="matrix(1.0929 0 0 -1.0929 0 955.5428)">
		<stop  offset="0" style="stop-color:#C4BA98"/>
		<stop  offset="1.474962e-002" style="stop-color:#CEC5A9"/>
		<stop  offset="4.332456e-002" style="stop-color:#DDD7C4"/>
		<stop  offset="7.615717e-002" style="stop-color:#EAE6DA"/>
		<stop  offset="0.1145" style="stop-color:#F3F1EB"/>
		<stop  offset="0.162" style="stop-color:#FAF9F6"/>
		<stop  offset="0.2285" style="stop-color:#FEFEFD"/>
		<stop  offset="0.4133" style="stop-color:#FFFFFF"/>
		<stop  offset="0.4696" style="stop-color:#DDDBD8"/>
		<stop  offset="0.5499" style="stop-color:#B2AFA6"/>
		<stop  offset="0.6258" style="stop-color:#908B7F"/>
		<stop  offset="0.6952" style="stop-color:#787263"/>
		<stop  offset="0.7558" style="stop-color:#696252"/>
		<stop  offset="0.801" style="stop-color:#645D4C"/>
		<stop  offset="0.8499" style="stop-color:#776F5B"/>
		<stop  offset="0.9484" style="stop-color:#A89F82"/>
		<stop  offset="1" style="stop-color:#C4BA98"/>
	</linearGradient>
	
		<linearGradient id="SVGID_4_" gradientUnits="userSpaceOnUse" x1="405.9583" y1="386.9228" x2="405.9583" y2="386.9228" gradientTransform="matrix(1.0929 0 0 -1.0929 0 955.5428)">
		<stop  offset="0" style="stop-color:#C4BA98"/>
		<stop  offset="1.389108e-002" style="stop-color:#C7BD9D"/>
		<stop  offset="0.1655" style="stop-color:#E5E1D2"/>
		<stop  offset="0.2794" style="stop-color:#F8F7F3"/>
		<stop  offset="0.3418" style="stop-color:#FFFFFF"/>
		<stop  offset="0.4046" style="stop-color:#E1E0DC"/>
		<stop  offset="0.5083" style="stop-color:#B5B1A9"/>
		<stop  offset="0.6058" style="stop-color:#928D81"/>
		<stop  offset="0.6943" style="stop-color:#797364"/>
		<stop  offset="0.7708" style="stop-color:#696352"/>
		<stop  offset="0.8265" style="stop-color:#645D4C"/>
		<stop  offset="0.8691" style="stop-color:#776F5B"/>
		<stop  offset="0.955" style="stop-color:#A89F82"/>
		<stop  offset="1" style="stop-color:#C4BA98"/>
	</linearGradient>
	<path fill="url(#SVGID_3_)" stroke="url(#SVGID_4_)" stroke-width="0.5" stroke-miterlimit="10" d="M443.7,532.7"/>
	<g>
		<g>
			<path fill="#C4BA98" stroke="#000000" stroke-width="0.5" stroke-miterlimit="10" d="M438.5,522h-7.7v6h4.2v4.2h-4.2v7.4l-2.3,1
				V518h10V522"/>
			<path fill="#C4BA98" stroke="#000000" stroke-width="0.5" stroke-miterlimit="10" d="M441.3,536.7v-1.1V518h8.4
				c0.8,0,1.3,0.3,1.7,1c0.3,0.7,0.5,1.8,0.5,3.4v5.3c0,1.5-0.2,2.7-0.5,3.4c-0.3,0.7-0.9,1.1-1.7,1.1h-1.3l4.6,8.6h-3.3l-4-8.6
				h-2.2v2.8v1.3L441.3,536.7z M448.7,522h-5.2v6.4h5.1c0.4,0,0.7-0.1,0.8-0.4c0.1-0.3,0.2-0.7,0.2-1.4v-2.7c0-0.7-0.1-1.1-0.2-1.4
				C449.4,522.1,449.1,522,448.7,522z"/>
			<path fill="#C4BA98" stroke="#000000" stroke-width="0.5" stroke-miterlimit="10" d="M456.6,540.8V518h2.3v22.8H456.6z"/>
			<path fill="#C4BA98" stroke="#000000" stroke-width="0.5" stroke-miterlimit="10" d="M463.9,540.8V518H474v3.9h-7.8v5.1h4.6v3.9
				h-4.6v5.6h7.9v4.3L463.9,540.8L463.9,540.8z"/>
			<path fill="#C4BA98" stroke="#000000" stroke-width="0.5" stroke-miterlimit="10" d="M478.4,540.8V518h1.6l6.9,13.4
				c0.2,0.4,0.4,0.9,0.6,1.3c0.2,0.4,0.3,0.8,0.5,1.2c0-1.3-0.1-2.2-0.1-2.7c0-0.5,0-0.9,0-1.2v-12h2.1v22.8h-1.6l-7.2-14.1
				c-0.2-0.4-0.3-0.7-0.4-1c-0.1-0.3-0.3-0.6-0.4-0.9c0,0.7,0.1,1.4,0.1,2c0,0.6,0,1.2,0,1.6v12.3H478.4L478.4,540.8z"/>
			<path fill="#C4BA98" stroke="#000000" stroke-width="0.5" stroke-miterlimit="10" d="M495,540.8V518h6.4c1.8,0,3.2,1,4.2,2.9
				c1,2,1.5,4.7,1.5,8.3c0,2.1-0.2,4-0.6,5.7c-0.4,1.7-0.9,3-1.6,4c-0.4,0.6-1,1.1-1.6,1.3c-0.6,0.3-1.5,0.4-2.4,0.4L495,540.8
				L495,540.8z M497.2,536.5h3c1.6,0,2.7-0.6,3.3-1.7c0.6-1.1,1-3,1-5.6c0-2.3-0.3-4.1-0.8-5.3c-0.5-1.2-1.3-1.8-2.4-1.8h-4.1
				L497.2,536.5L497.2,536.5z"/>
			<path fill="#C4BA98" stroke="#000000" stroke-width="0.5" stroke-miterlimit="10" d="M519.7,522h-6.5v4.9h6.2
				c1,0,1.6,0.4,1.9,1.2c0.3,0.8,0.5,2.2,0.5,4.2v3.1c0,2.1-0.2,3.5-0.5,4.2s-1,1.2-1.9,1.2h-6.1c-1,0-1.6-0.4-1.9-1.2
				s-0.5-2.2-0.5-4.2v-0.6l2-1v2.7h7v-5.2h-6.2c-1,0-1.6-0.4-1.9-1.2c-0.3-0.8-0.5-2.2-0.5-4.2v-2.5c0-2.1,0.2-3.5,0.5-4.2
				c0.3-0.8,1-1.2,1.9-1.2h5.6c0.9,0,1.6,0.4,1.9,1.1c0.3,0.7,0.5,2,0.5,3.9v0.5l-2,1.1L519.7,522L519.7,522z"/>
			<path fill="#C4BA98" stroke="#000000" stroke-width="0.5" stroke-miterlimit="10" d="M536,537.4V531h-7.2v9l-2.3,0.8V518h2.3v8.9
				h7.2V518h2.3v18.5L536,537.4z"/>
			<path fill="#C4BA98" stroke="#000000" stroke-width="0.5" stroke-miterlimit="10" d="M543.4,540.8V518h2.3v22.8H543.4z"/>
			<path fill="#C4BA98" stroke="#000000" stroke-width="0.5" stroke-miterlimit="10" d="M550.7,540.8V518h8.4c0.8,0,1.3,0.3,1.7,1
				c0.3,0.7,0.5,1.8,0.5,3.4v5.1c0,1.5-0.2,2.6-0.5,3.3c-0.3,0.7-0.9,1-1.7,1h-6.2v7.9L550.7,540.8z M558.1,522h-5.2v6h5.1
				c0.4,0,0.7-0.1,0.8-0.4c0.1-0.3,0.2-0.7,0.2-1.4v-2.4c0-0.7-0.1-1.1-0.2-1.4C558.8,522.1,558.5,522,558.1,522z"/>
		</g>
	</g>
</g>
</svg>
