<?xml version="1.0" encoding="utf-8"?>
<!-- Generator: Adobe Illustrator 18.1.1, SVG Export Plug-In . SVG Version: 6.00 Build 0)  -->
<svg version="1.1" id="图层_1" xmlns="http://www.w3.org/2000/svg" xmlns:xlink="http://www.w3.org/1999/xlink" x="0px" y="0px"
	 viewBox="0 0 560 560" enable-background="new 0 0 560 560" xml:space="preserve">
	 <style type="text/css">
	.st0{fill:#FFFFFF;}
</style>
<g>
	<g>
		<path class="st0" d="M109.6,164.4c-1.2-6.6-1.9-12.9-0.5-19.1c1.1-4.9,3.4-6.7,8.6-6.7c19.5-0.3,39-0.5,58.6-1c31.5-0.8,63-1.9,94.6-2.8
			c4.6-0.1,9.2,0.1,13.7,0.9c10.4,1.9,20.7,1.3,31.2,1c6.4-0.2,12.7,0.1,19.1,0.1c11,0,22,0.5,32.9,0c15.5-0.7,30.9,0.8,46.4,1.9
			c10.3,0.7,20.6,1.3,30.9,2c6.1,0.4,8.7,2.9,9.3,9.1c0.4,4.4,0.5,8.8,1,13.2c0.1,1,1,2.4,2,2.9c11.5,5.9,15.8,19.6,9.5,31
			c-3,5.4-10.1,8.5-17.3,7.5c-2.4-0.4-4.8-0.9-7.4-1.4c-0.2,0.7-0.5,1.3-0.7,2c-2.1,9.3-4.2,18.7-6.3,28c-1.2,5.3-2.6,6.7-8.1,7.2
			c-2.3,0.2-4.7,0.2-7,0.1c-5.8-0.4-7.8-2.7-6.9-8.4c1.2-7.8,2.5-15.6,3.8-23.3c2.1-11.7,2.7-23.5,1.8-35.3c-0.2-3.2-1-6.3-1.7-9.4
			c-1.1-5.2,0.9-8.3,6.2-8.7c3.1-0.2,6.2-0.2,9.3-0.3c3.7-0.2,6.1,1.5,7.4,4.9c0.8,2.1,1.7,4.1,2.5,6.3c2.3-0.6,2.3-2.3,2.3-3.8
			c0.3-9.6-5.9-15.1-15.7-13.9c-6.5,0.8-13,1.6-19.6,2.3c-1.4,0.1-3.2,0-4.3-0.7c-8-4.7-16.8-6.5-25.8-7c-12.3-0.7-24.6-2-36.8-1.4
			c-19.4,0.9-37.6,6.8-54.5,16.5c-4.6,2.6-7.9,2.6-12.3-0.1c-12-7.5-24.9-12.8-38.9-15c-8.6-1.4-17.2-1.1-25.8,0.2
			c-15.5,2.4-31,4.8-46.3,7.9c-7.3,1.5-14.3,4.5-21.3,7.2c-1.5,0.5-2.5,2.2-3.8,3.4c0.2,0.3,0.4,0.6,0.7,1c3.4-0.9,6.9-1.5,10.2-2.8
			c23.4-9.3,48-12.8,72.9-13.9c12.6-0.6,24.4,2.7,35.6,8.1c6.5,3.1,12.7,6.8,19,10.4c3.1,1.8,5.6,1.7,8.4-0.6
			c7.2-5.7,15.8-8.5,24.2-11.6c23.6-8.8,47.8-8.5,72.2-4.8c7.6,1.1,15,2.8,21.5,6.9c1.5,0.9,3.1,2.5,3.4,4.1
			c2.2,10.2,4.3,20.4,5.8,30.6c1.7,11.2-0.5,22.2-3,33.2c-1.1,5-2.3,10-3.5,15.1c-0.9,4.2,0.1,5.7,4.4,6.2c6.2,0.8,12.4,1.6,19,2.5
			c-1.2,6.9-1.7,13.8-4.9,19.9c-7.9,15-15.7,30.1-24.5,44.6c-3.9,6.4-9.7,11.9-15.3,17.1c-9.7,9-20,17.3-31.6,23.9
			c-11.8,6.6-24.4,11.1-37.4,14.7c-1.5,0.4-2.2-0.1-2.9-1.3c-3.4-6.1-5.1-12.7-5.6-19.6c-1.2-16.8-2.3-33.7-3.4-50.6
			c-0.2-3.4,0-6.9,0-10.6c0.7,0.2,1.2,0.2,1.5,0.4c12.1,7,24.7,7.6,37.6,2.7c11.1-4.2,21.1-10.1,29.7-18.3
			c10.9-10.3,20.7-21.4,28.5-34.3c4.5-7.4,5.9-15.7,7.7-24c0.5-2.5-0.7-3.8-3.1-3.8c-20.3,0-40.6,1.2-60.2,7
			c-9,2.6-17.7,6.1-26.4,9.6c-4.8,1.9-8,5.7-10.4,10.2c-6,11.3-7.9,23.5-9.7,35.9c-3.3,22.9-0.7,45.5,1.5,68.2
			c0.7,6.9,1.9,13.7,3.2,20.5c0.4,2.3-0.3,3.1-2.1,4.1c-12,6.5-24.2,6.4-36.7,2c-7.8-2.8-7.4-2.7-5.7-10.8c3.6-17,7.2-34,9.6-51.1
			c1-7.5-0.9-15.5-1.9-23.2c-1.7-11.9-4-23.8-10.1-34.4c-2.8-4.9-6.5-9.4-10.2-13.7c-2.8-3.3-6.5-5.4-10.7-6.9
			c-20.5-7.2-41.8-10.6-63.3-12.8c-6.3-0.7-12.6-2-18.9-2.9c-1.6-0.2-3.4-0.3-5,0c-2,0.4-2.9-0.1-3.3-2.2c-2-11.6-4.2-23.2-6.2-34.9
			c-0.3-1.9-0.6-3.9-0.7-5.9c-0.1-1.9-1-2.4-2.8-2.6C127.9,161.8,118.9,162.3,109.6,164.4z M448.1,195.1c6.1-0.1,11.5-5.3,11.7-11.4
			c0.2-4.7-3-7.8-8.6-8.5c-5.8-0.7-8,1-8.6,6.7c-0.2,2.2-0.2,4.5-0.5,6.7C441.7,193,443.7,195.1,448.1,195.1z"/>
		<path class="st0" d="M287.8,78.1c0.8-25.1-7.2-46.8-24.6-65c8-4.1,15.9-7.2,24.7-7.8c4.1-0.3,7.6,1,10.5,3.9c6.8,6.9,9.9,15.5,9.9,25
			c0,9.5-0.8,18.9-1.3,28.4c-0.2,5-0.5,9.9-0.7,14.9c0,1,0.1,1.9,0.2,2.9c0.3,0.1,0.6,0.1,0.8,0.2c0.4-1,0.9-1.9,1.2-2.9
			c4.1-13.1,5.7-26.6,6-40.2c0.1-5.3-0.1-10.7-0.2-16c-0.1-4.1,1.2-5.4,5.2-4.8c3.5,0.5,7.1,1.1,10.4,2.4
			c9.2,3.6,13.2,13.2,9.1,22.2c-3.6,8-7.7,15.7-11.5,23.5c-0.4,0.9-0.9,1.8-1,3.2c1.1-0.7,2.3-1.4,3.2-2.3c7.8-8,13.8-17,15.5-28.4
			c0.2-1.4,0.6-2,2.1-1.9c3.6,0.3,7.1,0.3,10.7,0.6c5.3,0.5,9.3,3.6,12.4,7.6c2.4,3.1,1.5,6.6-0.7,9.4c-2.6,3.3-5.3,6.7-8.6,9.3
			c-7.9,6.3-16.2,12.1-24.4,18.1c-4.1,3-8.2,5.9-12.7,9.1c0.8,0.2,1,0.3,1.2,0.3c13.6-6.2,27.1-12.8,38.1-23.1
			c4.5-4.2,8.2-9.2,12-14.1c1.5-2,2.5-2.2,4.5-1c8,4.9,11.9,12.2,12.4,21.4c0,0.7-0.8,2-1.5,2.2c-20.1,4.6-38,14.6-56.4,23.1
			c-15.7,7.2-32.1,12.1-49.3,14.2c-9.3,1.1-18.2-0.8-26.7-4.3c-15.3-6.2-30.4-12.8-45.5-19.4c-12-5.3-23.9-11-37-13
			c-3.6-0.6-7.2-1-11.1-1.6c3.1-7.2,6-13.9,12.9-17.9c5.4-3.1,10.7-2.9,15.9,0.7c9,6.3,17.9,12.7,27.1,18.8
			c4.9,3.3,10.1,6.2,15.2,9.1c0.7,0.4,1.8,0.2,2.7,0.4c-0.5-0.7-0.8-1.6-1.5-2c-13.2-9.8-26.4-19.6-39.6-29.4
			c-1-0.8-2.1-1.6-3.1-2.3c3.3-10.3,12.2-17.9,21.1-18.2c2.9-0.1,5.4,0.8,7.3,3c10.1,11.1,20.5,22,27.7,35.4
			c0.8,1.6,2.1,2.9,3.2,4.4c0.3-0.1,0.6-0.2,0.9-0.3c-0.2-1.7-0.2-3.4-0.7-5c-2.2-7.9-7-14.3-12.3-20.3c-4.7-5.4-9.4-10.7-14.2-16
			c-1.8-2-1.9-3.7-0.6-6c3-5.1,6.2-9.8,11.4-13c7.3-4.5,14-3.9,20.8,1.4c8.9,6.9,14.1,16.2,17.6,26.6c3.3,9.6,6.2,19.3,9.3,28.9
			C286.5,74,287.1,76,287.8,78.1z"/>
		<path class="st0" d="M340.5,489.7c-4.2-0.2-6.9-2.1-8.4-4.8c-3.1-5.5-5.9-11.3-8.5-17c-1.3-2.9-2-6-3.1-9.6c-4.1,7.5-6.5,15-6.1,23
			c0.3,7.7,1.8,15.3,2.8,23.2c-3.6-0.9-7.1-3.1-9.1-6.8c-2.1-4-3.7-8.2-5.3-12.4c-1.2-3.2-2.1-6.6-3.2-10.3
			c-0.4,0.7-0.7,0.9-0.7,1.2c-1.1,8.9-0.5,17.6,2.5,26.1c2,5.6,5.1,9.6,11.6,9.6c0.4,0,0.8,0.3,1.3,0.5c-2.5,2.9-6,3.8-9.3,2.5
			c-7-2.7-12-7.6-15.7-14c-0.8-1.4-1.7-2.8-2.9-4.9c-0.5,3.1-0.7,5.3-1.2,7.6c-0.9,4.5-3,8.5-6.1,11.9c-0.5,0.5-1.4,0.6-2.1,0.9
			c-0.1-0.7-0.5-1.6-0.2-2.2c2.6-4.9,1-8.7-2.4-12.7c-5.8-6.8-10.9-14.1-16.4-21.1c-1.2-1.6-2.8-3-4.5-4.3c1.3,4.7,2.7,9.4,3.7,14.2
			c0.8,3.9,1.1,8,1.5,12c0.1,0.9-0.5,1.9-0.8,2.8c-0.8-0.6-1.9-1-2.5-1.8c-1.4-1.7-2.7-3.6-3.9-5.5c-7.6-12.7-17.6-23.6-27-34.9
			c-0.4-0.5-0.9-0.9-1.8-1.7c1,4.7,2,8.9,2.9,13.2c-0.7-0.1-1.1,0-1.2-0.2c-4.3-4.2-8.6-8.4-12.8-12.7c-2.6-2.6-3.8-5.8-4.3-9.6
			c-2.4-18.5,0-36.2,8.5-52.8c5.7-11.2,11.5-22.3,17.6-33.3c2.5-4.6,2.9-4.4,8-3.2c4.7,1.1,9.5,2.3,14.2,3.5c1,0.3,2,0.8,3.5,1.4
			c-1.5,1-2.3,1.6-3.3,2.1c-8,4.6-13.9,11.1-18.3,19c-3.4,6.1-6.6,12.4-11.7,17.5c-1,0.9-1.2,2.6-2,4.5c8.1-2.4,13.1-8.7,20.3-12
			c-0.3,3.9-0.5,7.2-0.8,10.6c0.3,0.2,0.6,0.4,0.9,0.6c4.4-4.7,8.8-9.4,13.4-14.4c1.3,4.6-0.4,10.2,5.8,12.5c0.8-2.6,1.5-5,2.3-7.4
			c0.3-1.1,0.7-2.2,1.3-3.1c1.3-2,2.9-2.1,4.2-0.1c1,1.6,1.6,3.4,2.4,5.1c1.4,3,3.4,5.1,7.1,5.6c0.4-3.3,0.8-6.4,0.9-9.4
			c0-0.6-0.9-1.5-1.6-1.8c-3.2-1.1-6.4-2-9.6-3.2c-1.2-0.4-2.3-1.4-3.4-2.1c0-0.4,0.1-0.8,0.1-1.1c1.5-0.3,3.1-1,4.5-0.8
			c8.2,1.1,16.3-0.5,24.3-1.5c1.2-0.1,2.5-0.2,3.8,0.1c-3.6,4-8.7,5.9-13.2,9.4c6.2,4.3,12.2,8.3,18.1,12.4c0.2-0.2,0.5-0.4,0.7-0.6
			c-1.6-3.5-3.2-7.1-4.8-10.6c0.3-0.2,0.5-0.3,0.8-0.5c8.3,2.9,14.3,8.8,19.4,16.6c2.1-7.2-2.9-11.9-4.4-17.5
			c0.2-0.2,0.4-0.4,0.6-0.5c3.4,2.5,6.9,4.9,10.2,7.5c2.1,1.7,3.9,3.8,5.9,5.6c0.8,0.7,1.9,1.2,2.9,1.8c-0.2-1.1-0.1-2.3-0.5-3.2
			c-2.2-5.2-4.5-10.3-6.8-15.5c-0.4-0.9-0.5-1.8-1-3.5c1.5,0.8,2.2,1.1,2.9,1.5c6.2,4,12.3,7.9,18.4,12c0.9,0.6,1.9,1.6,2,2.5
			c1.3,9.5,3,19,1.4,28.6c-0.9,5.3-2.6,10.5-4.6,15.6c-3,7.5-6.6,14.7-9.7,22.2c-1,2.4-1.6,5-2.1,7.6
			C335.4,483.5,337.2,486.7,340.5,489.7z"/>
		<path class="st0" d="M124.1,133.2c2.8-10.3,6.6-19.4,11.8-28c5.7-9.4,13.4-16.9,21.6-23.9c5.3-4.6,11.8-3.7,18-1.8c14.9,4.6,29.3,10.5,43.5,17
			c10.2,4.7,20.5,9.3,30.9,13.6c17.6,7.3,35.7,7.9,54.1,3.2c13.7-3.4,26.7-8.7,39.5-14.6c8.9-4.2,17.7-8.7,26.9-12.3
			c6.6-2.6,13.6-4,20.6-5.6c4.5-1,9,0.4,12.3,3.5c4.3,4.1,8.3,8.6,12.1,13.2c7.3,9.1,14,18.6,19,29.2c1.1,2.3,1.8,4.8,2.8,7.3
			C332.6,127.7,228.6,127.6,124.1,133.2z"/>
		<path class="st0" d="M464.3,362c-8.7,0.2-13.8-6.1-20.1-11.5c-0.2,1.6-0.3,2.8-0.4,3.9c-0.6,8-1.1,15.9-1.9,23.9c-0.3,3.1-0.9,6.1-1.8,9.1
			c-3.8,12.6-4.4,25.5-3.8,38.5c0.2,4.2,1.7,8.4,2.6,12.6c0.2,1,0.6,1.9,0.9,2.9c-0.2,0.2-0.5,0.3-0.7,0.5c-1.1-1.6-2.5-3-3.3-4.7
			c-7.8-17.7-13.6-35.9-16.4-55.1c-0.2-1.3-0.4-2.6-0.7-3.9c0-0.2-0.3-0.5-0.8-1.4c-0.7,2.4-1.7,4.3-1.8,6.2
			c-1.2,14.8-2.3,29.6-3.4,44.3c-0.1,1.9-0.3,3.7-0.5,5.6c-0.3,2.9,0,5.6,2.5,7.7c-2,1.7-5.1,2-7.6-0.3c-3.4-3.1-6.4-6.8-9.4-10.3
			c-1-1.2-1.7-2.6-3.1-4.7c-1.2,6.3-2.2,11.8-3.2,17.3c-0.2,0.8-0.2,1.7-0.4,2.5c-1.4,4.5-2,9,1.2,13.4c-1.2,0.6-2.1,1.2-3.2,1.8
			c-4.1-6.5-6.4-13.4-7.2-20.8c-1-9.3-1.5-18.7-2.1-28.1c-0.6-9.1-2.4-17.9-5.5-26.4c-3.5-9.6-7.1-19.2-10.8-28.7
			c-0.9-2.2-0.7-3.4,1.3-4.8c5.1-3.5,10-7.2,15-10.9c6.2-4.5,11.2-10.2,15.7-16.4c7.7-10.7,15.7-21.3,23.3-32.1
			c10.3-14.5,15.7-31,20.4-47.9c0.8-2.7,1.4-5.5,2.4-8.2c1.6,7.1,3.1,14.2,5,21.2c3.2,11.7,6.7,23.2,10.2,34.8
			c0.6,2.1,1.6,4,2.6,5.9c2.6,5,5.5,9.9,11.2,12.2c0.1,0.3,0.1,0.6,0.2,0.9c-1.2,0.6-2.3,1.5-3.5,1.6c-5.2,0.5-9.1-2.3-12.9-5.3
			c-1.8-1.4-3.4-2.9-5.4-4.6c-0.1,0.8-0.3,1.3-0.3,1.8c1,16.2,4.4,31.9,7.8,47.7c0.8,3.9,2.8,6.9,6.5,8.6
			C463.3,361.2,463.8,361.6,464.3,362z"/>
		<path class="st0" d="M210,348.7c-4,6-8,11.9-11.9,17.7c-0.4,0.6-0.9,1.2-1.2,1.9c-8.6,18.5-14.7,37.8-18,57.9c-0.9,5.5-0.4,7.6,2.9,13.3
			c-3.6,0.7-6-0.5-7.8-4.2c-2.3-4.7-4.4-9.5-6.6-14.3c-0.4-0.9-0.9-1.8-1.6-3.2c-2.2,5.3-4,10.1-6.1,14.8c-0.9,2.1-2,4-3.2,5.9
			c-0.3,0.5-1.1,0.8-1.7,1.2c-0.3-0.6-0.8-1.3-0.8-1.9c-0.1-1.8-0.1-3.6,0-5.3c0.2-5.9-1.3-11.5-3.6-16.9c-2.2-5.1-4-10.3-5.9-15.4
			c-1.2-3.2-2.2-6.5-3.5-10.5c-5.8,7.3-8.9,15.6-16.2,21.6c0.3-2.6,0.4-4.6,0.7-6.5c2.5-14.3,3.3-28.7,2.1-43.2
			c-0.7-7.9-0.6-15.8,0.9-23.6c0.2-0.8,0.1-1.6,0.2-3.1c-4.9,5.8-9.3,11.2-13.8,16.5c-4.6,5.4-10.2,9.4-17.4,11.5
			c2-3.5,3.9-7,5.9-10.4c6.7-11.5,10.8-23.9,13.1-36.9c0.8-4.2,2.6-8.2,3.9-12.3c0.3-1,0.7-1.9,0.7-3.3c-2.8,1.9-5.5,3.8-9,6.1
			c0.1-1.6,0-2.4,0.3-3.2c2.9-8.1,5.8-16.3,8.9-24.3c1.8-4.6,2.5-9.2,1.3-14c-0.3-1.2-0.2-2.5-0.4-4.2c3.6,1.2,6.7,2.1,9.7,3.3
			c0.8,0.3,1.4,1.5,1.8,2.3c4.4,8.9,8.8,17.8,13.3,26.7c0.7,1.5,1.8,2.9,2.9,4.1c4.5,5,9.4,9.8,13.6,15c9,11,20.2,19.3,31.8,27.1
			C200.2,342.1,205,345.3,210,348.7z"/>
		<path class="st0" d="M147.8,210.3c2.6,6.7,4.9,13.6,7.9,20.1c9.9,21.5,24.2,39.4,45.2,51.3c8.8,5,18.2,6.7,28.1,6.6
			c10.8-0.1,21.1-2.1,30.5-7.7c1-0.6,2.1-0.9,3.5-1.5c0.1,1.2,0.3,2.1,0.4,3.1c1.8,16.1-0.1,31.8-3.6,47.5c-1,4.6-1.8,9.2-2.5,13.8
			c-0.8,4.9-3.1,9.2-5.9,13.2c-1.8,2.6-4.5,2.7-7.1,1.7c-9-3.7-18.4-6.8-26.8-11.6c-11.9-6.8-23.7-14.3-34.4-22.8
			c-16.3-12.9-28.5-29.4-37.4-48.3c-1.7-3.5-4.1-6.6-6.2-9.9c-0.4-0.7-0.8-1.5-0.8-2.2c0-0.3,1.2-0.7,1.9-0.8
			c2.6-0.4,5.2-0.6,7.8-1.2c4.2-1,6.1-3.1,5.7-7.4c-0.7-7-1.8-13.9-3-20.8c-0.9-5.4-2.4-10.6-3.4-16c-0.4-2.3-0.4-4.8-0.5-7.2
			C147.3,210.3,147.6,210.3,147.8,210.3z"/>
		<path class="st0" d="M114.3,186.5c0.3-2.5,0.5-4.7,0.8-6.9c1.3-8.1,5.1-11.4,13.2-11.7c5.1-0.2,4.7-0.1,5.1,4.9c0.7,10.2,1.7,20.4,2.8,30.5
			c1.3,11.6,2.6,23.1,4.3,34.6c0.7,4.7,2.7,9.1,4,13.7c0.4,1.3,0.8,2.6,1.3,4.3c-5.1,0.7-9.9,1.9-14.4,0.2c-2-0.7-4.2-2.7-4.9-4.6
			c-3.1-7.8-5.7-15.8-8.3-23.8c-0.7-2.3-0.6-4.9-0.9-7.9c-2.3,0.8-4.1,1.5-5.9,2.1c-10.3,3.2-19.9-0.4-24.3-9.2
			c-3.3-6.6-2.3-12.8,1.7-18.9c4.1-6.3,10.1-8.7,17.3-8.2C108.8,185.6,111.4,186.1,114.3,186.5z M94.7,204.6
			c0.4,7.2,4.1,10.8,11.1,10.4c5.5-0.3,9.1-4.2,8.8-9.5c-0.4-7.9-4.9-12.1-12.4-11.6C97.4,194.3,94.3,198.6,94.7,204.6z"/>
		<path class="st0" d="M182.2,473.6c0-9-1-17.4,2.4-25.4c0.7-1.7,1.1-3.6,1.1-5.5c0.4-27.2,9.3-52.1,20.3-76.4c2.1-4.7,5.3-8.8,8.1-13.2
			c0.3-0.5,0.7-0.9,1.2-1.5c5.3,2.6,10.4,5.2,15.9,8c-0.7,1.4-1.3,2.5-1.9,3.6c-7.6,13.1-15,26.2-20.6,40.3
			c-6.2,15.7-7.9,31.8-6.4,48.3c0.5,5.7,1.3,11.4,1.8,17.1c0.3,4.1-0.4,4.7-4.5,4.7C193.8,473.5,188.2,473.6,182.2,473.6z"/>
		<path class="st0" d="M340.8,362c3.5-1.6,6.6-3.2,9.9-4.5c3.5-1.3,6-0.4,7.9,2.9c1.7,2.9,3.1,6,4.2,9.2c6,18,8.9,36.6,10.8,55.4
			c1.1,10.9,3.5,21.6,5.3,32.5c0.3,2.1,0.8,4.3,0.8,6.4c0,3.5-1.8,5.4-5.3,5.8c-2.1,0.2-4.3,0.3-6.4,0.5c-4.8,0.4-7.8-2-8.1-6.8
			c-0.6-9.3-1-18.6-1.6-27.8c-0.6-9.9-0.6-20-2.4-29.7c-2.1-11.2-5.6-22.1-9-33C345.9,369.1,343.2,366,340.8,362z"/>
		<path class="st0" d="M389.1,528.1c-1-0.7-2.1-1.5-3.2-2.3c-1.3,5.6-2.6,11-3.7,16.4c-0.4,2.2,0,4.5,0,6.7c0,0.7-0.3,1.5-0.4,2.2
			c-0.9-0.3-2.2-0.3-2.6-1c-1.5-2.5-2.8-5.1-4.1-7.7c-0.4-0.8-0.8-1.6-2-2.4c-0.3,1.8-0.9,3.7-1,5.5c-0.1,4.1-1.7,7.5-4.9,10
			c-0.8,0.6-2,0.8-3,1.2c-0.4-1.1-1.2-2.2-1.1-3.3c0.3-3.3,0.9-6.5,1.4-9.7c0.4-2.8,0.9-5.5,1.3-8.3c0.2-1.2,0-2.5,0-3.8
			c-0.3-0.1-0.6-0.2-1-0.3c-1.4,2.3-2.7,4.7-4.3,6.9c-0.9,1.2-2.3,2.1-3.5,3.1c-0.6-1.6-1.5-3.1-1.8-4.7c-0.3-1.8-0.2-3.7-0.1-5.6
			c0.1-2,0-3.5-2.5-3.8c-0.5-0.1-1.4-1.8-1.3-2.6c0.9-4.6,1.8-9.2,3.2-13.6c1.2-3.9,3-7.7,4.9-11.4c0.6-1.1,2.1-2.3,3.3-2.4
			c5-0.2,9.9-0.1,14.9,0.1c3.6,0.1,5.9,2,6.9,5.5c1.9,6.5,4,12.9,5.7,19.4c0.5,1.7,0.1,3.7,0.1,5.5
			C389.9,528,389.5,528.1,389.1,528.1z"/>
		<path class="st0" d="M181.7,529c-0.4,1.5-0.4,2.4-0.8,2.9c-0.7,0.9-1.6,1.6-2.5,2.4c-0.8-1.1-2.3-2.1-2.4-3.3c-0.2-2.2,0.2-4.5,0.7-6.7
			c1.4-7.2,3-14.3,4.4-21.5c0.8-3.8,1.6-4.5,5.5-4.5c4,0,8.1,0,12.1-0.2c2.7-0.1,4.4,0.9,5.5,3.4c3.5,7.8,6.9,15.7,7.4,24.4
			c0.3,4.6-0.2,9.3-0.6,14c-0.2,3.3-0.7,6.5-1.4,9.7c-0.4,1.7-1.4,3.3-2.2,5c-0.4,0-0.8,0-1.2-0.1c-0.8-1.4-1.9-2.7-2.3-4.2
			c-1.4-4.9-2.3-9.9-3.7-14.7c-0.6-2.2-1.9-4.1-3.3-6c-0.9,3.9-1.1,7.5,1.7,10.8c0.8,0.9,0.7,2.5,1.1,3.8c-1.4,0-3,0.5-4.1,0
			c-4.9-2.1-8.5-5.7-11-10.4C183.8,532.4,182.9,531,181.7,529z"/>
		<path class="st0" d="M193.5,495.6c-3.9,0-7.9-0.1-11.8,0c-2.2,0-3.3-0.8-3.6-3c-0.4-3-1-5.9-1.5-8.9c-0.8-5.2,1.5-8.1,6.7-8.2
			c7.5-0.1,15,0.1,22.5,0.2c2.5,0,3.4,1.5,3.3,3.9c-0.1,4-0.3,8-0.2,12.1c0.1,2.6-0.8,3.7-3.3,3.6c-4,0-8.1,0-12.1,0
			C193.5,495.5,193.5,495.5,193.5,495.6z"/>
		<path class="st0" d="M372.7,494.1c-3.4,0-6.7,0.1-10.1,0c-3.2-0.1-4.7-1.5-5-4.6c-0.4-4.2-0.7-8.4-1-12.6c-0.1-2.2,1.1-3.3,3.2-3.3
			c7.4-0.2,14.8-0.4,22.2-0.6c2.4-0.1,3.7,1,3.6,3.5c-0.2,5.1-0.3,10.1-0.4,15.2c0,2-1,2.9-3,2.8c-3.2,0-6.4,0-9.5,0
			C372.7,494.5,372.7,494.3,372.7,494.1z"/>
		<path class="st0" d="M326.9,381.5c-2.8,2.8-5.5,2.4-8.3,1.6c-7.6-2.1-15.2-4.1-22.8-6.3c-2.7-0.8-4.9-0.3-7.4,1.4c-1.8,1.2-4.5,1.7-6.6,1.5
			c-6.5-0.9-12.6-0.8-18.8,1.8c-2.1,0.9-4.6,0.8-6.9,0.7c-0.7,0-1.7-1.3-1.9-2.2c-0.1-0.4,1.3-1.8,2-1.7c4.6,0.5,8.4-1.6,12.2-3.6
			c3.6-1.9,7.1-2.9,11.2-0.9c3.1,1.5,6.5,0.4,9.5-1c3.1-1.5,6-1.4,9.2-0.5c7.7,2,15.6,3.4,23.2,5.5
			C323.5,378.1,325,380.1,326.9,381.5z"/>
		<path class="st0" d="M346.1,384.6c-10.8-5.2-21.6-10.4-32.4-15.6c0-0.2,0.1-0.4,0.1-0.7c5.8-1,11.5-1.9,17.3-2.8c6-0.9,6-0.9,8.7,4.5
			c2.3,4.7,4.6,9.4,6.9,14.1C346.4,384.3,346.3,384.5,346.1,384.6z"/>
		<path class="st0" d="M337.5,384.8c8.1,1.2,11.2,4.8,10.6,12.3C344.5,393,341.2,389.2,337.5,384.8z"/>
	</g>
</g>
</svg>
