<?xml version="1.0" encoding="utf-8"?>
<!-- Generator: Adobe Illustrator 18.1.1, SVG Export Plug-In . SVG Version: 6.00 Build 0)  -->
<svg version="1.1" id="图层_1" xmlns="http://www.w3.org/2000/svg" xmlns:xlink="http://www.w3.org/1999/xlink" x="0px" y="0px"
	 viewBox="0 0 612 792" enable-background="new 0 0 612 792" xml:space="preserve">
<g>
	<g>
		<path d="M119.8,269.7c-1.3-7.2-2.1-14.1-0.5-20.9c1.2-5.4,3.7-7.3,9.4-7.3c21.3-0.3,42.6-0.5,64-1.1c34.4-0.9,68.8-2.1,103.4-3.1
			c5-0.1,10.1,0.1,15,1c11.4,2.1,22.6,1.4,34.1,1.1c7-0.2,13.9,0.1,20.9,0.1c12,0,24,0.5,36,0c16.9-0.8,33.8,0.9,50.7,2.1
			c11.3,0.8,22.5,1.4,33.8,2.2c6.7,0.4,9.5,3.2,10.2,9.9c0.4,4.8,0.5,9.6,1.1,14.4c0.1,1.1,1.1,2.6,2.2,3.2
			c12.6,6.4,17.3,21.4,10.4,33.9c-3.3,5.9-11,9.3-18.9,8.2c-2.6-0.4-5.2-1-8.1-1.5c-0.2,0.8-0.5,1.4-0.8,2.2
			c-2.3,10.2-4.6,20.4-6.9,30.6c-1.3,5.8-2.8,7.3-8.9,7.9c-2.5,0.2-5.1,0.2-7.6,0.1c-6.3-0.4-8.5-3-7.5-9.2c1.3-8.5,2.7-17,4.2-25.5
			c2.3-12.8,3-25.7,2-38.6c-0.2-3.5-1.1-6.9-1.9-10.3c-1.2-5.7,1-9.1,6.8-9.5c3.4-0.2,6.8-0.2,10.2-0.3c4-0.2,6.7,1.6,8.1,5.4
			c0.9,2.3,1.9,4.5,2.7,6.9c2.5-0.7,2.5-2.5,2.5-4.2c0.3-10.5-6.4-16.5-17.2-15.2c-7.1,0.9-14.2,1.7-21.4,2.5
			c-1.5,0.1-3.5,0-4.7-0.8c-8.7-5.1-18.4-7.1-28.2-7.7c-13.4-0.8-26.9-2.2-40.2-1.5c-21.2,1-41.1,7.4-59.6,18
			c-5,2.8-8.6,2.8-13.4-0.1c-13.1-8.2-27.2-14-42.5-16.4c-9.4-1.5-18.8-1.2-28.2,0.2c-16.9,2.6-33.9,5.2-50.6,8.6
			c-8,1.6-15.6,4.9-23.3,7.9c-1.6,0.5-2.7,2.4-4.2,3.7c0.2,0.3,0.4,0.7,0.8,1.1c3.7-1,7.5-1.6,11.1-3.1c25.6-10.2,52.5-14,79.7-15.2
			c13.8-0.7,26.7,3,38.9,8.9c7.1,3.4,13.9,7.4,20.8,11.4c3.4,2,6.1,1.9,9.2-0.7c7.9-6.2,17.3-9.3,26.4-12.7
			c25.8-9.6,52.2-9.3,78.9-5.2c8.3,1.2,16.4,3.1,23.5,7.5c1.6,1,3.4,2.7,3.7,4.5c2.4,11.1,4.7,22.3,6.3,33.4
			c1.9,12.2-0.5,24.3-3.3,36.3c-1.2,5.5-2.5,10.9-3.8,16.5c-1,4.6,0.1,6.2,4.8,6.8c6.8,0.9,13.6,1.7,20.8,2.7
			c-1.3,7.5-1.9,15.1-5.4,21.7c-8.6,16.4-17.2,32.9-26.8,48.7c-4.3,7-10.6,13-16.7,18.7c-10.6,9.8-21.9,18.9-34.5,26.1
			c-12.9,7.2-26.7,12.1-40.9,16.1c-1.6,0.4-2.4-0.1-3.2-1.4c-3.7-6.7-5.6-13.9-6.1-21.4c-1.3-18.4-2.5-36.8-3.7-55.3
			c-0.2-3.7,0-7.5,0-11.6c0.8,0.2,1.3,0.2,1.6,0.4c13.2,7.7,27,8.3,41.1,3c12.1-4.6,23.1-11,32.5-20c11.9-11.3,22.6-23.4,31.1-37.5
			c4.9-8.1,6.4-17.2,8.4-26.2c0.5-2.7-0.8-4.2-3.4-4.2c-22.2,0-44.4,1.3-65.8,7.7c-9.8,2.8-19.3,6.7-28.9,10.5
			c-5.2,2.1-8.7,6.2-11.4,11.1c-6.6,12.3-8.6,25.7-10.6,39.2c-3.6,25-0.8,49.7,1.6,74.5c0.8,7.5,2.1,15,3.5,22.4
			c0.4,2.5-0.3,3.4-2.3,4.5c-13.1,7.1-26.4,7-40.1,2.2c-8.5-3.1-8.1-3-6.2-11.8c3.9-18.6,7.9-37.2,10.5-55.8
			c1.1-8.2-1-16.9-2.1-25.4c-1.9-13-4.4-26-11-37.6c-3.1-5.4-7.1-10.3-11.1-15c-3.1-3.6-7.1-5.9-11.7-7.5
			c-22.4-7.9-45.7-11.6-69.2-14c-6.9-0.8-13.8-2.2-20.7-3.2c-1.7-0.2-3.7-0.3-5.5,0c-2.2,0.4-3.2-0.1-3.6-2.4
			c-2.2-12.7-4.6-25.4-6.8-38.1c-0.3-2.1-0.7-4.3-0.8-6.4s-1.1-2.6-3.1-2.8C139.8,266.8,129.9,267.4,119.8,269.7z M489.7,303.2
			c6.7-0.1,12.6-5.8,12.8-12.5c0.2-5.1-3.3-8.5-9.4-9.3c-6.3-0.8-8.7,1.1-9.4,7.3c-0.2,2.4-0.2,4.9-0.5,7.3
			C482.7,300.9,484.9,303.2,489.7,303.2z"/>
		<path d="M314.5,175.4c0.9-27.4-7.9-51.1-26.9-71c8.7-4.5,17.4-7.9,27-8.5c4.5-0.3,8.3,1.1,11.5,4.3c7.4,7.5,10.8,16.9,10.8,27.3
			s-0.9,20.7-1.4,31c-0.2,5.5-0.5,10.8-0.8,16.3c0,1.1,0.1,2.1,0.2,3.2c0.3,0.1,0.7,0.1,0.9,0.2c0.4-1.1,1-2.1,1.3-3.2
			c4.5-14.3,6.2-29.1,6.6-43.9c0.1-5.8-0.1-11.7-0.2-17.5c-0.1-4.5,1.3-5.9,5.7-5.2c3.8,0.5,7.8,1.2,11.4,2.6
			c10.1,3.9,14.4,14.4,9.9,24.3c-3.9,8.7-8.4,17.2-12.6,25.7c-0.4,1-1,2-1.1,3.5c1.2-0.8,2.5-1.5,3.5-2.5c8.5-8.7,15.1-18.6,16.9-31
			c0.2-1.5,0.7-2.2,2.3-2.1c3.9,0.3,7.8,0.3,11.7,0.7c5.8,0.5,10.2,3.9,13.6,8.3c2.6,3.4,1.6,7.2-0.8,10.3
			c-2.8,3.6-5.8,7.3-9.4,10.2c-8.6,6.9-17.7,13.2-26.7,19.8c-4.5,3.3-9,6.4-13.9,9.9c0.9,0.2,1.1,0.3,1.3,0.3
			c14.9-6.8,29.6-14,41.6-25.2c4.9-4.6,9-10.1,13.1-15.4c1.6-2.2,2.7-2.4,4.9-1.1c8.7,5.4,13,13.3,13.6,23.4c0,0.8-0.9,2.2-1.6,2.4
			c-22,5-41.5,16-61.6,25.2c-17.2,7.9-35.1,13.2-53.9,15.5c-10.2,1.2-19.9-0.9-29.2-4.7c-16.7-6.8-33.2-14-49.7-21.2
			c-13.1-5.8-26.1-12-40.4-14.2c-3.9-0.7-7.9-1.1-12.1-1.7c3.4-7.9,6.6-15.2,14.1-19.6c5.9-3.4,11.7-3.2,17.4,0.8
			c9.8,6.9,19.6,13.9,29.6,20.5c5.4,3.6,11,6.8,16.6,9.9c0.8,0.4,2,0.2,3,0.4c-0.5-0.8-0.9-1.7-1.6-2.2
			c-14.4-10.7-28.9-21.4-43.3-32.1c-1.1-0.9-2.3-1.7-3.4-2.5c3.6-11.3,13.3-19.6,23.1-19.9c3.2-0.1,5.9,0.9,8,3.3
			c11,12.1,22.4,24,30.3,38.7c0.9,1.7,2.3,3.2,3.5,4.8c0.3-0.1,0.7-0.2,1-0.3c-0.2-1.9-0.2-3.7-0.8-5.5c-2.4-8.6-7.6-15.6-13.4-22.2
			c-5.1-5.9-10.3-11.7-15.5-17.5c-2-2.2-2.1-4-0.7-6.6c3.3-5.6,6.8-10.7,12.5-14.2c8-4.9,15.3-4.3,22.7,1.5
			c9.7,7.5,15.4,17.7,19.2,29.1c3.6,10.5,6.8,21.1,10.2,31.6C313.1,170.9,313.8,173.1,314.5,175.4z"/>
		<path d="M372.1,625.2c-4.6-0.2-7.5-2.3-9.2-5.2c-3.4-6-6.4-12.3-9.3-18.6c-1.4-3.2-2.2-6.6-3.4-10.5c-4.5,8.2-7.1,16.4-6.7,25.1
			c0.3,8.4,2,16.7,3.1,25.4c-3.9-1-7.8-3.4-9.9-7.4c-2.3-4.4-4-9-5.8-13.6c-1.3-3.5-2.3-7.2-3.5-11.3c-0.4,0.8-0.8,1-0.8,1.3
			c-1.2,9.7-0.5,19.2,2.7,28.5c2.2,6.1,5.6,10.5,12.7,10.5c0.4,0,0.9,0.3,1.4,0.5c-2.7,3.2-6.6,4.2-10.2,2.7
			c-7.6-3-13.1-8.3-17.2-15.3c-0.9-1.5-1.9-3.1-3.2-5.4c-0.5,3.4-0.8,5.8-1.3,8.3c-1,4.9-3.3,9.3-6.7,13c-0.5,0.5-1.5,0.7-2.3,1
			c-0.1-0.8-0.5-1.7-0.2-2.4c2.8-5.4,1.1-9.5-2.6-13.9c-6.3-7.4-11.9-15.4-17.9-23.1c-1.3-1.7-3.1-3.3-4.9-4.7
			c1.4,5.1,3,10.3,4,15.5c0.9,4.3,1.2,8.7,1.6,13.1c0.1,1-0.5,2.1-0.9,3.1c-0.9-0.7-2.1-1.1-2.7-2c-1.5-1.9-3-3.9-4.3-6
			c-8.3-13.9-19.2-25.8-29.5-38.1c-0.4-0.5-1-1-2-1.9c1.1,5.1,2.2,9.7,3.2,14.4c-0.8-0.1-1.2,0-1.3-0.2c-4.7-4.6-9.4-9.2-14-13.9
			c-2.8-2.8-4.2-6.3-4.7-10.5c-2.6-20.2,0-39.6,9.3-57.7c6.2-12.2,12.6-24.4,19.2-36.4c2.7-5,3.2-4.8,8.7-3.5
			c5.1,1.2,10.4,2.5,15.5,3.8c1.1,0.3,2.2,0.9,3.8,1.5c-1.6,1.1-2.5,1.7-3.6,2.3c-8.7,5-15.2,12.1-20,20.8
			c-3.7,6.7-7.2,13.6-12.8,19.1c-1.1,1-1.3,2.8-2.2,4.9c8.9-2.6,14.3-9.5,22.2-13.1c-0.3,4.3-0.5,7.9-0.9,11.6
			c0.3,0.2,0.7,0.4,1,0.7c4.8-5.1,9.6-10.3,14.6-15.7c1.4,5-0.4,11.1,6.3,13.7c0.9-2.8,1.6-5.5,2.5-8.1c0.3-1.2,0.8-2.4,1.4-3.4
			c1.4-2.2,3.2-2.3,4.6-0.1c1.1,1.7,1.7,3.7,2.6,5.6c1.5,3.3,3.7,5.6,7.8,6.1c0.4-3.6,0.9-7,1-10.3c0-0.7-1-1.6-1.7-2
			c-3.5-1.2-7-2.2-10.5-3.5c-1.3-0.4-2.5-1.5-3.7-2.3c0-0.4,0.1-0.9,0.1-1.2c1.6-0.3,3.4-1.1,4.9-0.9c9,1.2,17.8-0.5,26.6-1.6
			c1.3-0.1,2.7-0.2,4.2,0.1c-3.9,4.4-9.5,6.4-14.4,10.3c6.8,4.7,13.3,9.1,19.8,13.6c0.2-0.2,0.5-0.4,0.8-0.7
			c-1.7-3.8-3.5-7.8-5.2-11.6c0.3-0.2,0.5-0.3,0.9-0.5c9.1,3.2,15.6,9.6,21.2,18.1c2.3-7.9-3.2-13-4.8-19.1c0.2-0.2,0.4-0.4,0.7-0.5
			c3.7,2.7,7.5,5.4,11.1,8.2c2.3,1.9,4.3,4.2,6.4,6.1c0.9,0.8,2.1,1.3,3.2,2c-0.2-1.2-0.1-2.5-0.5-3.5c-2.4-5.7-4.9-11.3-7.4-16.9
			c-0.4-1-0.5-2-1.1-3.8c1.6,0.9,2.4,1.2,3.2,1.6c6.8,4.4,13.4,8.6,20.1,13.1c1,0.7,2.1,1.7,2.2,2.7c1.4,10.4,3.3,20.8,1.5,31.3
			c-1,5.8-2.8,11.5-5,17c-3.3,8.2-7.2,16.1-10.6,24.3c-1.1,2.6-1.7,5.5-2.3,8.3C366.5,618.4,368.5,621.9,372.1,625.2z"/>
		<path d="M135.6,235.6c3.1-11.3,7.2-21.2,12.9-30.6c6.2-10.3,14.6-18.5,23.6-26.1c5.8-5,12.9-4,19.7-2c16.3,5,32,11.5,47.5,18.6
			c11.1,5.1,22.4,10.2,33.8,14.9c19.2,8,39,8.6,59.1,3.5c15-3.7,29.2-9.5,43.2-16c9.7-4.6,19.3-9.5,29.4-13.4
			c7.2-2.8,14.9-4.4,22.5-6.1c4.9-1.1,9.8,0.4,13.4,3.8c4.7,4.5,9.1,9.4,13.2,14.4c8,9.9,15.3,20.3,20.8,31.9c1.2,2.5,2,5.2,3.1,8
			C363.5,229.6,249.8,229.4,135.6,235.6z"/>
		<path d="M507.4,485.6c-9.5,0.2-15.1-6.7-22-12.6c-0.2,1.7-0.3,3.1-0.4,4.3c-0.7,8.7-1.2,17.4-2.1,26.1c-0.3,3.4-1,6.7-2,9.9
			c-4.2,13.8-4.8,27.9-4.2,42.1c0.2,4.6,1.9,9.2,2.8,13.8c0.2,1.1,0.7,2.1,1,3.2c-0.2,0.2-0.5,0.3-0.8,0.5c-1.2-1.7-2.7-3.3-3.6-5.1
			c-8.5-19.3-14.9-39.2-17.9-60.2c-0.2-1.4-0.4-2.8-0.8-4.3c0-0.2-0.3-0.5-0.9-1.5c-0.8,2.6-1.9,4.7-2,6.8
			c-1.3,16.2-2.5,32.3-3.7,48.4c-0.1,2.1-0.3,4-0.5,6.1c-0.3,3.2,0,6.1,2.7,8.4c-2.2,1.9-5.6,2.2-8.3-0.3c-3.7-3.4-7-7.4-10.3-11.3
			c-1.1-1.3-1.9-2.8-3.4-5.1c-1.3,6.9-2.4,12.9-3.5,18.9c-0.2,0.9-0.2,1.9-0.4,2.7c-1.5,4.9-2.2,9.8,1.3,14.6
			c-1.3,0.7-2.3,1.3-3.5,2c-4.5-7.1-7-14.6-7.9-22.7c-1.1-10.2-1.6-20.4-2.3-30.7c-0.7-9.9-2.6-19.6-6-28.9
			c-3.8-10.5-7.8-21-11.8-31.4c-1-2.4-0.8-3.7,1.4-5.2c5.6-3.8,10.9-7.9,16.4-11.9c6.8-4.9,12.2-11.1,17.2-17.9
			c8.4-11.7,17.2-23.3,25.5-35.1c11.3-15.8,17.2-33.9,22.3-52.3c0.9-3,1.5-6,2.6-9c1.7,7.8,3.4,15.5,5.5,23.2
			c3.5,12.8,7.3,25.4,11.1,38c0.7,2.3,1.7,4.4,2.8,6.4c2.8,5.5,6,10.8,12.2,13.3c0.1,0.3,0.1,0.7,0.2,1c-1.3,0.7-2.5,1.6-3.8,1.7
			c-5.7,0.5-9.9-2.5-14.1-5.8c-2-1.5-3.7-3.2-5.9-5c-0.1,0.9-0.3,1.4-0.3,2c1.1,17.7,4.8,34.9,8.5,52.1c0.9,4.3,3.1,7.5,7.1,9.4
			C506.3,484.7,506.9,485.2,507.4,485.6z"/>
		<path d="M229.5,471.1c-4.4,6.6-8.7,13-13,19.3c-0.4,0.7-1,1.3-1.3,2.1c-9.4,20.2-16.1,41.3-19.7,63.3c-1,6-0.4,8.3,3.2,14.5
			c-3.9,0.8-6.6-0.5-8.5-4.6c-2.5-5.1-4.8-10.4-7.2-15.6c-0.4-1-1-2-1.7-3.5c-2.4,5.8-4.4,11-6.7,16.2c-1,2.3-2.2,4.4-3.5,6.4
			c-0.3,0.5-1.2,0.9-1.9,1.3c-0.3-0.7-0.9-1.4-0.9-2.1c-0.1-2-0.1-3.9,0-5.8c0.2-6.4-1.4-12.6-3.9-18.5c-2.4-5.6-4.4-11.3-6.4-16.8
			c-1.3-3.5-2.4-7.1-3.8-11.5c-6.3,8-9.7,17-17.7,23.6c0.3-2.8,0.4-5,0.8-7.1c2.7-15.6,3.6-31.4,2.3-47.2c-0.8-8.6-0.7-17.3,1-25.8
			c0.2-0.9,0.1-1.7,0.2-3.4c-5.4,6.3-10.2,12.2-15.1,18c-5,5.9-11.1,10.3-19,12.6c2.2-3.8,4.3-7.6,6.4-11.4
			c7.3-12.6,11.8-26.1,14.3-40.3c0.9-4.6,2.8-9,4.3-13.4c0.3-1.1,0.8-2.1,0.8-3.6c-3.1,2.1-6,4.2-9.8,6.7c0.1-1.7,0-2.6,0.3-3.5
			c3.2-8.9,6.3-17.8,9.7-26.6c2-5,2.7-10.1,1.4-15.3c-0.3-1.3-0.2-2.7-0.4-4.6c3.9,1.3,7.3,2.3,10.6,3.6c0.9,0.3,1.5,1.6,2,2.5
			c4.8,9.7,9.6,19.5,14.5,29.2c0.8,1.6,2,3.2,3.2,4.5c4.9,5.5,10.3,10.7,14.9,16.4c9.8,12,22.1,21.1,34.8,29.6
			C218.8,463.9,224,467.4,229.5,471.1z"/>
		<path d="M161.5,319.8c2.8,7.3,5.4,14.9,8.6,22c10.8,23.5,26.4,43.1,49.4,56.1c9.6,5.5,19.9,7.3,30.7,7.2
			c11.8-0.1,23.1-2.3,33.3-8.4c1.1-0.7,2.3-1,3.8-1.6c0.1,1.3,0.3,2.3,0.4,3.4c2,17.6-0.1,34.8-3.9,51.9c-1.1,5-2,10.1-2.7,15.1
			c-0.9,5.4-3.4,10.1-6.4,14.4c-2,2.8-4.9,3-7.8,1.9c-9.8-4-20.1-7.4-29.3-12.7c-13-7.4-25.9-15.6-37.6-24.9
			c-17.7-14.2-31-32.2-40.8-52.9c-1.9-3.8-4.5-7.2-6.8-10.8c-0.4-0.8-0.9-1.6-0.9-2.4c0-0.3,1.3-0.8,2.1-0.9
			c2.8-0.4,5.7-0.7,8.5-1.3c4.6-1.1,6.7-3.4,6.2-8.1c-0.8-7.6-2-15.2-3.3-22.7c-1-5.9-2.6-11.6-3.7-17.5c-0.4-2.5-0.4-5.2-0.5-7.9
			C161,319.8,161.3,319.8,161.5,319.8z"/>
		<path d="M124.9,293.8c0.3-2.7,0.5-5.1,0.9-7.5c1.4-8.9,5.6-12.5,14.4-12.8c5.6-0.2,5.1-0.1,5.6,5.4c0.8,11.1,1.9,22.3,3.1,33.3
			c1.4,12.7,2.8,25.2,4.7,37.8c0.8,5.1,3,9.9,4.4,15c0.4,1.4,0.9,2.8,1.4,4.7c-5.6,0.8-10.8,2.1-15.7,0.2c-2.2-0.8-4.6-3-5.4-5
			c-3.4-8.5-6.2-17.3-9.1-26c-0.8-2.5-0.7-5.4-1-8.6c-2.5,0.9-4.5,1.6-6.4,2.3c-11.3,3.5-21.7-0.4-26.6-10.1
			c-3.6-7.2-2.5-14,1.9-20.7c4.5-6.9,11-9.5,18.9-9C118.9,292.8,121.7,293.4,124.9,293.8z M103.5,313.6c0.4,7.9,4.5,11.8,12.1,11.4
			c6-0.3,9.9-4.6,9.6-10.4c-0.4-8.6-5.4-13.2-13.6-12.7C106.4,302.3,103.1,307,103.5,313.6z"/>
		<path d="M199.1,607.6c0-9.8-1.1-19,2.6-27.8c0.8-1.9,1.2-3.9,1.2-6c0.4-29.7,10.2-56.9,22.2-83.5c2.3-5.1,5.8-9.6,8.9-14.4
			c0.3-0.5,0.8-1,1.3-1.6c5.8,2.8,11.4,5.7,17.4,8.7c-0.8,1.5-1.4,2.7-2.1,3.9c-8.3,14.3-16.4,28.6-22.5,44
			c-6.8,17.2-8.6,34.8-7,52.8c0.5,6.2,1.4,12.5,2,18.7c0.3,4.5-0.4,5.1-4.9,5.1C211.8,607.5,205.7,607.6,199.1,607.6z"/>
		<path d="M372.4,485.6c3.8-1.7,7.2-3.5,10.8-4.9c3.8-1.4,6.6-0.4,8.6,3.2c1.9,3.2,3.4,6.6,4.6,10.1c6.6,19.7,9.7,40,11.8,60.5
			c1.2,11.9,3.8,23.6,5.8,35.5c0.3,2.3,0.9,4.7,0.9,7c0,3.8-2,5.9-5.8,6.3c-2.3,0.2-4.7,0.3-7,0.5c-5.2,0.4-8.5-2.2-8.9-7.4
			c-0.7-10.2-1.1-20.3-1.7-30.4c-0.7-10.8-0.7-21.9-2.6-32.5c-2.3-12.2-6.1-24.2-9.8-36.1C378,493.4,375.1,490,372.4,485.6z"/>
		<path d="M425.2,667.1c-1.1-0.8-2.3-1.6-3.5-2.5c-1.4,6.1-2.8,12-4,17.9c-0.4,2.4,0,4.9,0,7.3c0,0.8-0.3,1.6-0.4,2.4
			c-1-0.3-2.4-0.3-2.8-1.1c-1.6-2.7-3.1-5.6-4.5-8.4c-0.4-0.9-0.9-1.7-2.2-2.6c-0.3,2-1,4-1.1,6c-0.1,4.5-1.9,8.2-5.4,10.9
			c-0.9,0.7-2.2,0.9-3.3,1.3c-0.4-1.2-1.3-2.4-1.2-3.6c0.3-3.6,1-7.1,1.5-10.6c0.4-3.1,1-6,1.4-9.1c0.2-1.3,0-2.7,0-4.2
			c-0.3-0.1-0.7-0.2-1.1-0.3c-1.5,2.5-3,5.1-4.7,7.5c-1,1.3-2.5,2.3-3.8,3.4c-0.7-1.7-1.6-3.4-2-5.1c-0.3-2-0.2-4-0.1-6.1
			c0.1-2.2,0-3.8-2.7-4.2c-0.5-0.1-1.5-2-1.4-2.8c1-5,2-10.1,3.5-14.9c1.3-4.3,3.3-8.4,5.4-12.5c0.7-1.2,2.3-2.5,3.6-2.6
			c5.5-0.2,10.8-0.1,16.3,0.1c3.9,0.1,6.4,2.2,7.5,6c2.1,7.1,4.4,14.1,6.2,21.2c0.5,1.9,0.1,4,0.1,6
			C426.1,667,425.7,667.1,425.2,667.1z"/>
		<path d="M198.6,668.1c-0.4,1.6-0.4,2.6-0.9,3.2c-0.8,1-1.7,1.7-2.7,2.6c-0.9-1.2-2.5-2.3-2.6-3.6c-0.2-2.4,0.2-4.9,0.8-7.3
			c1.5-7.9,3.3-15.6,4.8-23.5c0.9-4.2,1.7-4.9,6-4.9c4.4,0,8.9,0,13.2-0.2c3-0.1,4.8,1,6,3.7c3.8,8.5,7.5,17.2,8.1,26.7
			c0.3,5-0.2,10.2-0.7,15.3c-0.2,3.6-0.8,7.1-1.5,10.6c-0.4,1.9-1.5,3.6-2.4,5.5c-0.4,0-0.9,0-1.3-0.1c-0.9-1.5-2.1-3-2.5-4.6
			c-1.5-5.4-2.5-10.8-4-16.1c-0.7-2.4-2.1-4.5-3.6-6.6c-1,4.3-1.2,8.2,1.9,11.8c0.9,1,0.8,2.7,1.2,4.2c-1.5,0-3.3,0.5-4.5,0
			c-5.4-2.3-9.3-6.2-12-11.4C200.9,671.8,199.9,670.3,198.6,668.1z"/>
		<path d="M211.5,631.6c-4.3,0-8.6-0.1-12.9,0c-2.4,0-3.6-0.9-3.9-3.3c-0.4-3.3-1.1-6.4-1.6-9.7c-0.9-5.7,1.6-8.9,7.3-9
			c8.2-0.1,16.4,0.1,24.6,0.2c2.7,0,3.7,1.6,3.6,4.3c-0.1,4.4-0.3,8.7-0.2,13.2c0.1,2.8-0.9,4-3.6,3.9c-4.4,0-8.9,0-13.2,0
			C211.5,631.5,211.5,631.5,211.5,631.6z"/>
		<path d="M407.3,630c-3.7,0-7.3,0.1-11,0c-3.5-0.1-5.1-1.6-5.5-5c-0.4-4.6-0.8-9.2-1.1-13.8c-0.1-2.4,1.2-3.6,3.5-3.6
			c8.1-0.2,16.2-0.4,24.3-0.7c2.6-0.1,4,1.1,3.9,3.8c-0.2,5.6-0.3,11-0.4,16.6c0,2.2-1.1,3.2-3.3,3.1c-3.5,0-7,0-10.4,0
			C407.3,630.4,407.3,630.2,407.3,630z"/>
		<path d="M357.3,506.9c-3.1,3.1-6,2.6-9.1,1.7c-8.3-2.3-16.6-4.5-24.9-6.9c-3-0.9-5.4-0.3-8.1,1.5c-2,1.3-4.9,1.9-7.2,1.6
			c-7.1-1-13.8-0.9-20.5,2c-2.3,1-5,0.9-7.5,0.8c-0.8,0-1.9-1.4-2.1-2.4c-0.1-0.4,1.4-2,2.2-1.9c5,0.5,9.2-1.7,13.3-3.9
			c3.9-2.1,7.8-3.2,12.2-1c3.4,1.6,7.1,0.4,10.4-1.1c3.4-1.6,6.6-1.5,10.1-0.5c8.4,2.2,17,3.7,25.4,6
			C353.5,503.2,355.2,505.4,357.3,506.9z"/>
		<path d="M378.2,510.3c-11.8-5.7-23.6-11.4-35.4-17c0-0.2,0.1-0.4,0.1-0.8c6.3-1.1,12.6-2.1,18.9-3.1c6.6-1,6.6-1,9.5,4.9
			c2.5,5.1,5,10.3,7.5,15.4C378.6,510,378.5,510.2,378.2,510.3z"/>
		<path d="M368.8,510.5c8.9,1.3,12.2,5.2,11.6,13.4C376.5,519.5,372.9,515.3,368.8,510.5z"/>
	</g>
</g>
<g>
	<g>
		<path fill="#C4BA98" stroke="#000000" stroke-width="0.5" stroke-miterlimit="10" d="M475.4,612.7v-12.3h9.6v2.2h-7.4v3.2h4v2.3
			h-4v3.8L475.4,612.7z"/>
		<path fill="#C4BA98" stroke="#000000" stroke-width="0.5" stroke-miterlimit="10" d="M487.6,603.3c0-1.1,0.2-1.9,0.5-2.3
			c0.3-0.4,0.9-0.6,1.9-0.6h7c0.9,0,1.6,0.2,1.9,0.6c0.3,0.4,0.5,1.2,0.5,2.3v6.5c0,1.1-0.2,1.9-0.5,2.3c-0.3,0.4-0.9,0.6-1.9,0.6
			h-7c-0.9,0-1.6-0.2-1.9-0.6c-0.3-0.4-0.5-1.2-0.5-2.3V603.3z M489.8,610.4h7.3v-7.8h-7.3V610.4z"/>
		<path fill="#C4BA98" stroke="#000000" stroke-width="0.5" stroke-miterlimit="10" d="M504,610.8v-10.4h8.1c0.8,0,1.3,0.2,1.6,0.6
			c0.3,0.4,0.5,1,0.5,1.8v2.9c0,0.8-0.2,1.4-0.5,1.8c-0.3,0.4-0.9,0.6-1.6,0.6h-1.2l4.4,4.6h-3.2l-3.8-4.6h-2.1v2.2L504,610.8z
			 M511.1,602.5h-5v3.4h5c0.4,0,0.7-0.1,0.8-0.2c0.1-0.1,0.2-0.4,0.2-0.8v-1.5c0-0.4-0.1-0.6-0.2-0.7
			C511.8,602.6,511.5,602.5,511.1,602.5z"/>
	</g>
	<g>
		<path fill="#C4BA98" stroke="#000000" stroke-width="0.5" stroke-miterlimit="10" d="M458.8,637.5c0.9-0.1,1.3,0.3,1.3,1.1v1.4
			h2.4c1,0,1.2,0.3,0.6,1h-3c0,1.6,0.1,2.4,0.3,2.4c0.4,0.1,0.8,0,1.1-0.2c1.1-0.2,1.6,0.2,1.4,1.1c-0.1,0.7-0.2,1.8-0.2,3.2
			c0.1,1.1-0.4,1.4-1.6,1.1c-1.3-0.4-2.6-0.4-4,0c-0.9,0.5-1.3,0.3-1.4-0.8s-0.3-2.2-0.6-3.5c0.1-0.9,0.7-1.1,1.8-0.8
			c0.9,0.1,1.3-0.1,1.3-0.6c0-1.2,0-2.3-0.2-3.4C457.7,638.1,458,637.4,458.8,637.5z M457.2,645.2c-0.1,1.3,0.1,2,0.6,2.1
			c2.5,0.3,3.6,0,3.4-1.1c0.2-1.5-0.8-2.1-3-1.8C457.5,644.4,457.2,644.7,457.2,645.2z M463.6,641.5c0.4,0,0.7,0,0.8-0.2
			c-0.1-1.2-0.2-2.3-0.2-3.4c-0.1-0.7,0.3-1.1,1.1-1c0.5,0,0.8,0.3,0.8,0.8c-0.1,1-0.1,2.1,0,3.4c3.5-0.5,5.2-0.5,5.1,0
			c0.2,0.3,0.2,0.5-0.2,0.5c-1.6,0.2-3.2,0.5-4.8,0.8c0.3,1,0.6,1.8,1,2.4c0.4-0.5,0.9-1.2,1.3-1.9c0.3-0.3,0.6-0.4,1-0.3
			c0.4,0.3,0.6,0.7,0.5,1.1c-0.6,0.9-1.2,1.6-1.8,2.1c1.2,1.2,3.1,1.7,5.8,1.6c0.2,0.1-0.1,0.6-1,1.6c-1.2,1.2-2.4,1.4-3.7,0.6
			c-0.5-0.4-1.4-1.2-2.5-2.4c-1.1,0.7-2.2,1.2-3.4,1.3c-0.5-0.1-0.6-0.3-0.3-0.6c1.1-0.3,2-1,2.9-1.9c-0.4-0.6-0.9-1.7-1.3-3.2
			c-0.5,0.1-1,0.3-1.4,0.5c-0.6,0.1-0.9-0.2-0.8-1C462.4,641.9,462.8,641.6,463.6,641.5z M468.7,637.8c0.3-0.7,0.7-1,1.3-0.6
			c0.5,0.3,0.7,0.7,0.5,1.3c-0.4,0.6-1.1,1-2.1,1.1c-0.4,0-0.6-0.2-0.5-0.5C468.2,638.7,468.5,638.3,468.7,637.8z"/>
		<path fill="#C4BA98" stroke="#000000" stroke-width="0.5" stroke-miterlimit="10" d="M481.3,641.5c0.5,0,0.9,0.2,1.1,0.5
			c-0.1,0.4-0.5,0.6-1.1,0.5c-0.6,0-1.3,0-1.9,0.2c0.2,0.3,0.1,0.6-0.3,1l-0.8,0.8c-0.3,0.4,0,0.7,0.8,0.8c0.6,0.1,1.2-0.1,1.6-0.6
			l-0.5-1c0.1-0.3,0.3-0.4,0.6-0.3c0.3,0.2,0.6,0.4,1,0.6c0.2,0.4,0.5,0.9,0.8,1.4c-0.1,0.2-0.2,0.3-0.3,0.3
			c-0.4,0.1-0.9-0.1-1.3-0.6c-0.6,1.2-1.3,1.6-2.1,1.3c-0.6-0.4-1.2-0.5-1.8-0.2c-0.2,0-0.4-0.2-0.6-0.5c-0.1-0.4,0.1-0.9,0.6-1.3
			c1-0.9,1.3-1.4,1-1.8c-0.4-0.1-1.1,0-1.9,0.3c-0.3,0.2-0.5,0.2-0.6-0.2c0.1-0.7,0.5-1.2,1.1-1.3L481.3,641.5L481.3,641.5z
			 M481.3,639.3c0.3,0,0.5,0.2,0.6,0.5c0,0.3-0.1,0.5-0.3,0.5h-2.5c-0.7,0-1.4,0-2.1,0.2c-0.2-0.1-0.3-0.3-0.3-0.6
			c0.1-0.3,0.3-0.6,0.6-0.8C478.1,639.2,479.4,639.3,481.3,639.3z M485.5,643.8c-0.3-0.1-0.6-0.1-1,0c-0.3,0.2-0.6,0.4-1,0.5
			c-0.2,0-0.4,0-0.5-0.2c-0.2-1.6-0.4-3-0.6-4.3c-0.1-0.6,0.2-1,1-1c0.3,0.2,0.9,0.3,1.6,0.2c0.3-0.3,0.7-0.9,1.1-1.6
			c0.1-0.2,0.3-0.3,0.6-0.3c1,0.3,1.2,0.7,0.8,1.1c-0.3,0.3-0.6,0.6-0.8,0.8c0.7,0,1.7,0.1,2.9,0.3c0.3-0.1,0.6-0.2,0.8-0.3
			c0.3-0.1,0.6,0,0.8,0.2c0.4,0.3,0.5,0.8,0.3,1.4c-0.3,1-0.5,2-0.6,3l-0.5,0.3c0.4,0.3,0.5,0.6,0.2,0.8c-0.2,0.2-0.4,0.4-0.6,0.6
			c-0.2,0.1-0.2,0.3,0.2,0.5c0.4,0.1,0.8,0,1.1-0.2c-0.4-0.3-0.5-0.5-0.2-0.6c0.4,0,0.7,0,1,0.2c0.2,0.3,0.4,0.6,0.6,1
			c-0.1,0.1-0.3,0.2-0.5,0.3l-0.6-0.5c-0.2,0.6-0.6,0.9-1.1,0.8c-0.4-0.3-0.9-0.4-1.3-0.3c-0.3-0.2-0.4-0.5-0.3-0.8
			c0.2-0.2,0.4-0.5,0.6-0.8c0.1-0.2,0.3-0.5,0.5-1c-0.9-0.1-1.9-0.2-3-0.2c-0.7,2.5-2.2,4.2-4.3,5.3c-1.7,0.6-3,0.4-3.8-0.8
			c0-0.1,0.2-0.2,0.6-0.2C482.7,647.8,484.8,646.3,485.5,643.8z M486,639.8c-0.7,0-1.3,0.1-1.8,0.3c-0.2,0.6-0.1,1,0.3,1l1.8-0.2
			C486.4,640.3,486.3,640,486,639.8z M486.1,641.7c-0.5,0-1.2,0-1.9,0.2c0,0.7,0.2,1.1,0.5,1.1l1.1-0.2L486.1,641.7z M487.3,644.6
			c0.1-0.4,0.3-0.6,0.6-0.6c0.2,0,0.4,0.1,0.5,0.3c-0.2,0.4-0.4,0.9-0.5,1.3c0,0.4,0,0.7,0.2,1c0.4,0.5,1.3,0.9,2.5,1.1
			c1.1,0.1,2.1,0,3-0.3c0.6-0.3,1.1-0.4,1.3-0.2c-0.1,0.6-0.5,1.4-1.1,2.2c-0.7,0.6-1.4,0.9-1.9,0.6c-1.8-0.3-3.3-1.1-4.5-2.2
			c-0.5-0.6-0.7-1.2-0.6-1.8C487,645.5,487.1,645,487.3,644.6z M489.7,643.1c0.2-0.4,0.3-0.8,0.2-1.1c-0.4-0.2-1.2-0.3-2.4-0.3
			c-0.1,0.4-0.2,0.9-0.2,1.3C488.1,643.1,488.9,643.1,489.7,643.1z M487.6,640.9l1.8,0.2c0.4,0.1,0.6-0.1,0.6-0.6
			c0-0.4-0.6-0.6-1.9-0.6C487.7,639.9,487.6,640.2,487.6,640.9z"/>
		<path fill="#C4BA98" stroke="#000000" stroke-width="0.5" stroke-miterlimit="10" d="M501.7,640.7c0.2-0.4,0.4-0.6,0.5-0.6
			c0.5-0.1,0.7,0.3,0.5,1.1c-0.3,1-0.8,2-1.4,3c-0.5,0.9-1.1,1.5-1.6,1.9c-1.1,1-2.2,0.9-3.4-0.2c-0.3-0.3-0.2-0.6,0.3-1
			C498.3,644.2,500.1,642.7,501.7,640.7z M505.3,637.5c1.1-0.1,1.6,0.5,1.4,1.8c-0.1,2.7,0,5.7,0.2,9c0,1.3-1,1.9-3,1.8
			c-1.1-0.1-2.3-0.7-3.7-1.8c-0.2-0.5-0.1-0.8,0.3-0.8c2,0.6,3.2,0.7,3.7,0.3c0.3-0.2,0.4-3.2,0.3-9
			C504.5,638,504.8,637.5,505.3,637.5z M507.9,641.2c-0.3-0.4-0.3-0.7,0.2-1c0.2-0.1,0.4,0,0.6,0.2c1.5,1.9,3.7,3.6,6.7,5
			c-0.3,0.5-0.6,0.9-1,1.1c-1,0.9-1.9,0.9-2.7,0C510.3,644.8,509.1,643,507.9,641.2z"/>
		<path fill="#C4BA98" stroke="#000000" stroke-width="0.5" stroke-miterlimit="10" d="M523.7,643.4c-0.3,1.1-0.6,1.9-1,2.4l2.1-0.3
			c-0.1-0.4-0.2-0.9-0.2-1.3c0.1-0.4,0.5-0.7,1.1-0.8c0.4,0,0.8,0.1,1.1,0.3c0.4,0.1,0.7,0.1,1,0v-5.3c0-0.6,0.2-1,0.6-1.1
			c1.1,0,1.6,0.4,1.6,1.1c-0.1,0.5-0.2,1-0.2,1.3c2.2,0.1,4.1,0.2,5.6,0.2c0,0.5-0.2,1-0.5,1.4c-0.4,0.4-0.9,0.5-1.3,0.3
			c-1.7-0.5-3-0.7-3.8-0.5c-0.2,0.9-0.2,1.7,0,2.5c0.7,0.1,1.3,0,1.8-0.2c1.4-0.4,2.1,0,2.1,1.1c-0.2,0.9-0.3,1.9-0.3,3.2
			c0.2,1.4-0.3,1.9-1.4,1.4c-1.5-0.2-3.1-0.3-4.8-0.2c-1.3,0.6-2,0.3-2.1-1.1c0-0.3,0-0.9-0.2-1.8c-2.1,1-4.6,1.7-7.5,2.2
			c-1,0.2-1.4-0.2-1.3-1.1c0-0.5,0.5-0.9,1.6-1c1.2-0.1,2.5-0.3,4-0.5c0.3-1.2,0.5-2.3,0.5-3.4c0-0.7,0.2-1.1,0.6-1.1
			C523.8,641.6,524.1,642.3,523.7,643.4z M522.5,638.5c-0.1,1.3,0,1.9,0.3,1.8l2.2,0.2c0.5,0.4,0.6,0.7,0.2,1
			c-0.2,0.1-0.6,0.2-1.1,0.2c-2.1-0.4-4.3-0.3-6.6,0.5c-0.4,0.1-0.6,0-0.6-0.5c0.2-1,0.6-1.4,1.3-1.3c0.9,0.2,1.5,0.3,1.9,0.2
			c0.3-0.1,0.4-0.7,0.3-1.9c0.1-0.4,0.3-0.6,0.6-0.6C521.7,637.7,522.1,638,522.5,638.5z M520.9,645.5c-0.2,0.3-0.5,0.4-0.8,0.2
			c-0.6-1-1-1.8-1.1-2.5c-0.1-0.7,0.2-1.2,0.8-1.3c0.5-0.1,0.8,0.1,0.8,0.6C520.7,643.6,520.7,644.6,520.9,645.5z M529.8,644.9
			c-1.5-0.1-2.5,0-2.9,0.3c-0.3,0.7-0.3,1.5,0,2.2c0.1,0.5,1.3,0.7,3.5,0.5c1,0,1.4-0.5,1.4-1.6
			C531.9,645.3,531.2,644.8,529.8,644.9z"/>
	</g>
	
		<linearGradient id="SVGID_1_" gradientUnits="userSpaceOnUse" x1="407.0211" y1="293.3474" x2="407.0211" y2="293.3474" gradientTransform="matrix(1.0929 0 0 -1.0929 0 955.5428)">
		<stop  offset="0" style="stop-color:#C4BA98"/>
		<stop  offset="1.474962e-002" style="stop-color:#CEC5A9"/>
		<stop  offset="4.332456e-002" style="stop-color:#DDD7C4"/>
		<stop  offset="7.615717e-002" style="stop-color:#EAE6DA"/>
		<stop  offset="0.1145" style="stop-color:#F3F1EB"/>
		<stop  offset="0.162" style="stop-color:#FAF9F6"/>
		<stop  offset="0.2285" style="stop-color:#FEFEFD"/>
		<stop  offset="0.4133" style="stop-color:#FFFFFF"/>
		<stop  offset="0.4696" style="stop-color:#DDDBD8"/>
		<stop  offset="0.5499" style="stop-color:#B2AFA6"/>
		<stop  offset="0.6258" style="stop-color:#908B7F"/>
		<stop  offset="0.6952" style="stop-color:#787263"/>
		<stop  offset="0.7558" style="stop-color:#696252"/>
		<stop  offset="0.801" style="stop-color:#645D4C"/>
		<stop  offset="0.8499" style="stop-color:#776F5B"/>
		<stop  offset="0.9484" style="stop-color:#A89F82"/>
		<stop  offset="1" style="stop-color:#C4BA98"/>
	</linearGradient>
	
		<linearGradient id="SVGID_2_" gradientUnits="userSpaceOnUse" x1="407.0211" y1="293.3474" x2="407.0211" y2="293.3474" gradientTransform="matrix(1.0929 0 0 -1.0929 0 955.5428)">
		<stop  offset="0" style="stop-color:#C4BA98"/>
		<stop  offset="1.389108e-002" style="stop-color:#C7BD9D"/>
		<stop  offset="0.1655" style="stop-color:#E5E1D2"/>
		<stop  offset="0.2794" style="stop-color:#F8F7F3"/>
		<stop  offset="0.3418" style="stop-color:#FFFFFF"/>
		<stop  offset="0.4046" style="stop-color:#E1E0DC"/>
		<stop  offset="0.5083" style="stop-color:#B5B1A9"/>
		<stop  offset="0.6058" style="stop-color:#928D81"/>
		<stop  offset="0.6943" style="stop-color:#797364"/>
		<stop  offset="0.7708" style="stop-color:#696352"/>
		<stop  offset="0.8265" style="stop-color:#645D4C"/>
		<stop  offset="0.8691" style="stop-color:#776F5B"/>
		<stop  offset="0.955" style="stop-color:#A89F82"/>
		<stop  offset="1" style="stop-color:#C4BA98"/>
	</linearGradient>
	<path fill="url(#SVGID_1_)" stroke="url(#SVGID_2_)" stroke-width="0.5" stroke-miterlimit="10" d="M444.8,635"/>
	
		<linearGradient id="SVGID_3_" gradientUnits="userSpaceOnUse" x1="415.6104" y1="299.8513" x2="415.6104" y2="299.8513" gradientTransform="matrix(1.0929 0 0 -1.0929 0 955.5428)">
		<stop  offset="0" style="stop-color:#C4BA98"/>
		<stop  offset="1.474962e-002" style="stop-color:#CEC5A9"/>
		<stop  offset="4.332456e-002" style="stop-color:#DDD7C4"/>
		<stop  offset="7.615717e-002" style="stop-color:#EAE6DA"/>
		<stop  offset="0.1145" style="stop-color:#F3F1EB"/>
		<stop  offset="0.162" style="stop-color:#FAF9F6"/>
		<stop  offset="0.2285" style="stop-color:#FEFEFD"/>
		<stop  offset="0.4133" style="stop-color:#FFFFFF"/>
		<stop  offset="0.4696" style="stop-color:#DDDBD8"/>
		<stop  offset="0.5499" style="stop-color:#B2AFA6"/>
		<stop  offset="0.6258" style="stop-color:#908B7F"/>
		<stop  offset="0.6952" style="stop-color:#787263"/>
		<stop  offset="0.7558" style="stop-color:#696252"/>
		<stop  offset="0.801" style="stop-color:#645D4C"/>
		<stop  offset="0.8499" style="stop-color:#776F5B"/>
		<stop  offset="0.9484" style="stop-color:#A89F82"/>
		<stop  offset="1" style="stop-color:#C4BA98"/>
	</linearGradient>
	
		<linearGradient id="SVGID_4_" gradientUnits="userSpaceOnUse" x1="415.6104" y1="299.8513" x2="415.6104" y2="299.8513" gradientTransform="matrix(1.0929 0 0 -1.0929 0 955.5428)">
		<stop  offset="0" style="stop-color:#C4BA98"/>
		<stop  offset="1.389108e-002" style="stop-color:#C7BD9D"/>
		<stop  offset="0.1655" style="stop-color:#E5E1D2"/>
		<stop  offset="0.2794" style="stop-color:#F8F7F3"/>
		<stop  offset="0.3418" style="stop-color:#FFFFFF"/>
		<stop  offset="0.4046" style="stop-color:#E1E0DC"/>
		<stop  offset="0.5083" style="stop-color:#B5B1A9"/>
		<stop  offset="0.6058" style="stop-color:#928D81"/>
		<stop  offset="0.6943" style="stop-color:#797364"/>
		<stop  offset="0.7708" style="stop-color:#696352"/>
		<stop  offset="0.8265" style="stop-color:#645D4C"/>
		<stop  offset="0.8691" style="stop-color:#776F5B"/>
		<stop  offset="0.955" style="stop-color:#A89F82"/>
		<stop  offset="1" style="stop-color:#C4BA98"/>
	</linearGradient>
	<path fill="url(#SVGID_3_)" stroke="url(#SVGID_4_)" stroke-width="0.5" stroke-miterlimit="10" d="M454.2,627.8"/>
	<g>
		<g>
			<path fill="#C4BA98" stroke="#000000" stroke-width="0.5" stroke-miterlimit="10" d="M450.1,619.3h-6.2v4.8h3.3v3.3h-3.3v5.9
				l-1.9,0.8V616h8V619.3"/>
			<path fill="#C4BA98" stroke="#000000" stroke-width="0.5" stroke-miterlimit="10" d="M452.3,631.1v-0.9v-14.1h6.8
				c0.6,0,1.1,0.3,1.4,0.8c0.3,0.6,0.4,1.5,0.4,2.7v4.3c0,1.2-0.1,2.1-0.4,2.7c-0.3,0.6-0.7,0.9-1.4,0.9h-1l3.7,6.9h-2.6l-3.2-6.9
				h-1.7v2.3v1L452.3,631.1z M458.3,619.2h-4.2v5.1h4.1c0.3,0,0.5-0.1,0.7-0.3c0.1-0.2,0.2-0.6,0.2-1.1v-2.2c0-0.5-0.1-0.9-0.2-1.1
				C458.8,619.3,458.6,619.2,458.3,619.2z"/>
			<path fill="#C4BA98" stroke="#000000" stroke-width="0.5" stroke-miterlimit="10" d="M464.6,634.3V616h1.9v18.3H464.6z"/>
			<path fill="#C4BA98" stroke="#000000" stroke-width="0.5" stroke-miterlimit="10" d="M470.5,634.3V616h8.1v3.1h-6.3v4.1h3.7v3.1
				h-3.7v4.5h6.3v3.5L470.5,634.3L470.5,634.3z"/>
			<path fill="#C4BA98" stroke="#000000" stroke-width="0.5" stroke-miterlimit="10" d="M482.1,634.3V616h1.3l5.6,10.8
				c0.2,0.4,0.4,0.7,0.5,1c0.1,0.3,0.3,0.7,0.4,1c0-1,0-1.8-0.1-2.2c0-0.4,0-0.7,0-1V616h1.6v18.3h-1.3l-5.8-11.3
				c-0.1-0.3-0.3-0.5-0.4-0.8c-0.1-0.2-0.2-0.5-0.3-0.7c0,0.6,0,1.1,0,1.6s0,0.9,0,1.3v9.9H482.1L482.1,634.3z"/>
			<path fill="#C4BA98" stroke="#000000" stroke-width="0.5" stroke-miterlimit="10" d="M495.4,634.3V616h5.1c1.4,0,2.6,0.8,3.3,2.3
				c0.8,1.6,1.2,3.8,1.2,6.7c0,1.7-0.2,3.2-0.5,4.6c-0.3,1.4-0.7,2.4-1.3,3.2c-0.3,0.5-0.8,0.9-1.3,1.1c-0.5,0.2-1.2,0.3-2,0.3
				L495.4,634.3L495.4,634.3z M497.2,630.9h2.4c1.3,0,2.2-0.5,2.7-1.4c0.5-0.9,0.8-2.4,0.8-4.5c0-1.9-0.2-3.3-0.7-4.2
				c-0.4-1-1.1-1.4-1.9-1.4h-3.3L497.2,630.9L497.2,630.9z"/>
			<path fill="#C4BA98" stroke="#000000" stroke-width="0.5" stroke-miterlimit="10" d="M515.2,619.3H510v3.9h4.9
				c0.8,0,1.3,0.3,1.6,0.9c0.3,0.6,0.4,1.7,0.4,3.4v2.5c0,1.7-0.1,2.8-0.4,3.4c-0.3,0.6-0.8,0.9-1.6,0.9h-4.9
				c-0.8,0-1.3-0.3-1.6-0.9c-0.3-0.6-0.4-1.7-0.4-3.4v-0.5l1.6-0.8v2.2h5.6v-4.2h-4.9c-0.8,0-1.3-0.3-1.6-0.9
				c-0.3-0.6-0.4-1.7-0.4-3.4v-2c0-1.7,0.1-2.8,0.4-3.4c0.3-0.6,0.8-0.9,1.6-0.9h4.5c0.7,0,1.3,0.3,1.5,0.9c0.3,0.6,0.4,1.6,0.4,3.1
				v0.4l-1.6,0.9V619.3L515.2,619.3z"/>
			<path fill="#C4BA98" stroke="#000000" stroke-width="0.5" stroke-miterlimit="10" d="M528.4,631.6v-5.1h-5.8v7.2l-1.9,0.7V616
				h1.9v7.1h5.8V616h1.9v14.9L528.4,631.6z"/>
			<path fill="#C4BA98" stroke="#000000" stroke-width="0.5" stroke-miterlimit="10" d="M534.3,634.3V616h1.9v18.3H534.3z"/>
			<path fill="#C4BA98" stroke="#000000" stroke-width="0.5" stroke-miterlimit="10" d="M540.2,634.3V616h6.8c0.6,0,1.1,0.3,1.4,0.8
				c0.3,0.6,0.4,1.5,0.4,2.7v4.1c0,1.2-0.1,2.1-0.4,2.7c-0.3,0.6-0.7,0.8-1.4,0.8h-5v6.3L540.2,634.3z M546.1,619.2H542v4.9h4.1
				c0.3,0,0.5-0.1,0.7-0.3c0.1-0.2,0.2-0.6,0.2-1.1v-2c0-0.5-0.1-0.9-0.2-1.1C546.6,619.3,546.4,619.2,546.1,619.2z"/>
		</g>
	</g>
</g>
</svg>
