<?xml version="1.0" encoding="utf-8"?>
<!-- Generator: Adobe Illustrator 18.1.1, SVG Export Plug-In . SVG Version: 6.00 Build 0)  -->
<svg version="1.1" id="图层_1" xmlns="http://www.w3.org/2000/svg" xmlns:xlink="http://www.w3.org/1999/xlink" x="0px" y="0px"
	 viewBox="0 0 612 792" enable-background="new 0 0 612 792" xml:space="preserve">
<g>
	<g>
		<path d="M142,455.5c1.5,14.8,0.5,29.7,9.4,42.5c-3.6-17.5-5.5-35.1-3.7-53c5.9,18.5,12.6,36.5,21.6,53.7c0.3-0.1,0.8-0.2,1.1-0.3
			c-0.3-1.5-0.5-3-1.1-4.4c-4.5-12.3-9.1-24.6-13.3-37c-5.7-16.4-8.2-33.3-10.3-50.5c-2.4-19.2-0.1-38.3,0.3-57.4
			c0-2.4-0.1-4.7-0.1-7.1c0.1-4.8,1.2-9.3,3.8-13.2c2.7-4.2,5.6-8.2,8.4-12.2c0.3,0,0.7,0.1,1,0.1c3,14.5,5.8,29.2,8.6,43.2
			c1.3-1.7,2.4-7.9,1.7-12.1c-2-12.5-3.9-24.9-6.1-37.4c-1.2-7.1-0.5-14,0.4-21c0.5-4,1.2-8.2,2.3-12.2c0.5-2.2,1.9-4.3,3.3-5.9
			c1.1-1.2,3-2.3,4.5-2.4c9.6-0.9,19.2-1.4,29-2.1c3.3-0.2,3.5-0.1,3.7,3.2c1,12.1,1.9,24.2,2.8,36.3c0.2,3.3,1,6.1,4.7,8
			c1.3-15.7,2.7-31.3,4-47c0.9-0.1,1.7-0.1,2.5-0.1c22.6-0.1,45.2-0.2,67.9-0.3c5.7,0,7.2,1.1,9.4,6.2c2.1,4.9,4.3,9.7,6.7,15.2
			c1.3-2.3,2.2-3.8,3.1-5.5c2.4-4.6,4.8-9.2,7.1-13.8c1-2.1,2.5-3.1,4.8-3.1c18,0.2,36.1,0.4,54.2,0.7c2.6,0,5.2,0.2,7.9,0.1
			c2.3-0.1,3.3,0.8,3.7,3.1c2.2,13.3,4.5,26.8,6.9,40.1c0.2,1.4,0.9,2.8,1.2,4.4c0.3,0,0.7-0.1,1-0.1c2.1-15.8,4.3-31.7,6.3-47.9
			c10.8,0.4,21.6,0.8,32.8,1.2c1.1,13.3,2.1,26.6,3.2,39.7c0.3,0,0.5,0.1,0.9,0.1c2.5-10.8,5-21.5,7.5-32.3c0.3-0.1,0.7-0.1,1-0.2
			c0.4,1.2,1.3,2.3,1.3,3.5c0.4,6.8,1.1,13.6,0.9,20.3c-0.3,8.4,0.7,16.5,3.8,24.4c3.5,8.7,4.6,18,5.7,27.3c1.7,15,3.3,29.9,4.9,45
			c0.2,1.7,0,3.6,0,5.4c-0.2,0.1-0.4,0.1-0.7,0.2c-0.9-1.7-1.9-3.5-2.6-5.4c-7.1-17.3-14.2-34.6-21.2-52c-1.5-3.6-3.6-6.8-6.8-9.8
			c0.1,0.8,0.2,1.1,0.3,1.4c10.3,26.7,20.5,53.3,30.8,79.9c3.6,9.2,8.5,17.5,14.8,25.1c4.8,6,9.4,12.2,14.6,17.8
			c3.8,4.2,8.5,7.4,12.9,11.1c0.4,0.4,1.1,0.5,2,0.7c-15-16.1-27.3-33.8-35.8-54c8.5,8.4,19.5,13.1,28.9,20.1
			c4.9,3.6,9.8,7.3,14.1,11.6c6.3,6.3,8.6,14.5,8,23.4c-0.7,10.4-1.7,20.8-2.4,31.1c-0.2,2.7-0.1,5.6,0.3,8.3
			c0.2,1.6,1.5,3.1,2.8,4.5c-1.6-12.3,2-23.8,4.9-35.8c1.9,1.7,3.4,3.2,4.9,4.6c4.9,4.6,9.9,8.9,16.5,11.1c5.1,1.7,7.9,5.9,9,11.1
			c0.8,3.5,1.2,7,2.1,10.5c1,4.4,2.2,8.7,3.4,13c0.9,3,0.4,3.9-2.6,3.8c-4.9-0.3-9.7-1-14.6-1.6c-8.7-1.2-13.4,1.6-16.4,9.9
			c-0.5,1.5-1.1,3.1-1.4,4.6c-0.8,3-2.5,4.6-5.6,5c-9.4,1.5-18.9,3.2-28.3,4.9c-31.1,6-61.1,15.3-88.7,31.3
			c-8.3,4.8-16.2,10.3-22.4,17.7c-1.1,1.3-2,2.6-3,4c0.2,0.2,0.3,0.4,0.5,0.8c1.1-0.5,2.3-1,3.4-1.7c3.3-2.2,6.6-4.5,9.8-6.8
			c6.7-4.8,13.9-8.7,21.9-11.1c13.8-4.2,27.5-8.5,41.4-12.3c5.1-1.4,10.6-1.6,16-2.4c0.1,0.3,0.3,0.7,0.4,1c-0.7,0.7-1.2,1.3-2,1.9
			c-6.1,4.3-12.3,8.4-18.3,12.9c-15.5,11.7-29,25.7-40,41.7c-8.4,12.3-19.6,21-32.2,28.1c-11.7,6.6-24.3,10.9-37.4,13.7
			c-1.1,0.2-2.1,0.5-3.1,1.1c11.4,1.6,21.6-3.9,33.2-5c-1.1,1.2-1.6,2-2.4,2.7c-7.9,7.5-17.2,12.1-27.8,14.6
			c-12.3,3-24.8,5.6-37.6,6.2c-16.1,0.9-31.6-2.3-46.8-7.1c-19.1-6-36.9-14.9-54-25.4c-11.9-7.3-20.7-17.9-29.2-28.7
			c-14.3-18.4-22.2-39.3-26-62.2c-3.1-18.3-6.4-36.5-10.3-54.8c-2.4-11.4-5.4-22.6-6.6-34.2c-0.3-3.6-1.2-7.2-1.4-10.8
			c-0.2-3.7,1.2-6.8,4-9.2C137.8,459.6,139.7,457.6,142,455.5z M398.7,333.4c0.2,0.2,0.4,0.4,0.5,0.7c-2.2,4.4-4.6,8.7-6.4,13.2
			c-7.2,18.4-11.6,37.6-15.8,56.7c-3.6,16.2-6.2,32.5-9.1,48.7c-2,11.3-5.8,21.5-13.1,30.4c-5.2,6.3-9.8,13.2-15.3,19.3
			c-5.8,6.4-12.7,11.7-21.5,13.1c-6.1,0.9-12.3,1.1-18.5,1.7c-7.3,0.9-14.5,0.7-21.7-0.5c-1.1-0.2-2.3-0.5-3.3-1.2
			c-5.7-4-10.9-8.6-15.4-14.2c-12-15.3-23.7-30.7-32.7-48.1c-4.7-9.2-7.2-18.3-6.8-28.5c0.7-14.8,1.1-29.5,1.6-44.3
			c0-0.9,0-1.7,0-2.6c-0.2-0.1-0.4-0.1-0.5-0.2c-4,5.4-8.1,10.8-12.1,16.2c-0.3-0.1-0.5-0.3-0.9-0.4c0.4-4.9,3.5-9,4.4-13.8
			c0.9-4.7,2-9.5,2.4-14.3s0.1-9.6,0.1-14.4c-1,17.4-4.8,34.3-11.3,50.6c0.3,0.2,0.7,0.3,1,0.5c4.3-5.2,8.4-10.5,12.7-15.7
			c0.2,0.1,0.5,0.2,0.8,0.4c0,1.7,0.1,3.5,0,5.2c-0.7,15.2-0.9,30.4-2.4,45.5c-1.1,10.6-4,21-6.1,31.4c-0.3,1.9-0.5,3.8-0.9,5.8
			c6.6-10.1,8.4-21.6,11.5-32.8c4.4,29.2,6.8,58.6,18.1,86.1c11.3,27.2,22.9,54.1,40.4,78.2c-1,0-1.7-0.1-2.2-0.7
			c-1.9-2-3.7-3.9-5.4-6.1c-10.5-13.9-20.9-27.8-31.1-41.7c-10.6-14.4-20.5-29.3-27.6-45.8c-0.2-0.4-0.4-0.9-0.8-1.3
			c-0.2,0.1-0.4,0.2-0.7,0.2c1.7,4.6,3.2,9.4,5.4,13.9c7.2,14.5,14.6,28.9,22,43.3c4.2,8.3,9.5,15.8,15.5,23
			c16.8,19.8,37.8,34.3,60.2,47.1c3,1.6,6.8,2.4,10.2,2.5c5,0.1,10.2-0.7,15.2-1.4c12-1.9,21.6-8.6,30.6-16.3
			c-1.7,0.7-3.3,1.6-4.8,2.6c-4.2,2.5-8.2,5.2-12.5,7.4c-11.9,6.2-24.4,8-36.6,1.9c-12.1-6.1-23.9-13-30.4-26c-0.2-0.5-0.7-1-1-1.4
			c-2.7-3.9-2.7-4.7-0.1-8.6c5.2-8,12.5-13.8,19.9-19.5c5.8-4.4,11.7-8.7,17.5-13.1c0.5-0.4,0.9-1.1,1.5-2
			c-16.4,9.9-32.2,19.6-48.3,29.4c-3.2-5.2-6-10.2-9.2-15.3c2.7,0,4.9,0.1,7.1,0c11.4-0.4,21.5-4.3,31.1-10.1
			c11.7-7,23.2-14.4,34.8-21.6c1.3-0.9,2.6-1.6,3.9-2.4c0.2,0.2,0.4,0.4,0.7,0.7c-7.9,23.2-19.5,44.3-35.3,63.1
			c1.2-0.4,2.1-1.1,2.8-2c6.8-7.1,13.6-14.3,20.1-21.5c2.3-2.5,4.5-5.4,6.1-8.4c10.6-18.4,18.9-37.7,23.5-58.5
			c0.5-2.6,1.5-5.2,2.6-7.7c10.2-22.6,20.4-45.2,30.6-67.9c7.8-17.3,10.9-35.5,11.3-54.4c0-0.9-0.1-1.6-0.2-2.5c-0.2,0-0.5,0-0.8,0
			c-0.3,1.1-0.7,2.2-0.9,3.3c-1.7,10.5-3.3,21.2-7.5,31c-9.6,22.1-19.5,44-29.3,66c-0.2,0.4-0.7,0.8-1.4,1.6
			c0.1-1.7,0.2-2.7,0.3-3.7c1.5-10.1,3.3-20.1,4.7-30.2c3.9-28.6,9.6-56.8,18.4-84.4c3.4-10.8,6.7-21.7,12.7-31.5
			c1.2-2,3-3.7,4.7-5.9c-1.1,0-2.1-0.2-3,0c-5.5,1.3-10.9,2.8-16.4,4.3c-6.1,1.5-12.2,3.3-18.5,4.6c-3,0.7-3.8-0.4-3.9-3.5
			c-0.2-5.2,0.1-10.5,2.3-15.4c0.3-0.8,0.4-1.5,0.9-3.1c-2.1,1.2-3.7,1.9-4.9,3c-3.7,3.4-7.4,6.9-10.9,10.6
			c-1.7,1.7-3.4,2.4-5.6,0.9c-4.5-3.2-9.2-6.1-13.6-9.4c-7.2-5.5-15.1-7.9-24-6.6c-3.4,0.5-6.8,1.3-10.1,2c-0.9-3-1.6-5.6-2.6-8.5
			c-6.9,7.9-15,7.1-23.4,4.2c-2.8-1-5.6-2.4-8.2-4c-5.2-3.1-10.1-2.6-14.8,1.2c-2.7,2.3-4.5,1.5-4.9-2c-0.3-2.4-0.5-4.8-0.9-7.4
			c-5.2,2.1-10.2,4-15,5.9c-4,1.5-5.8,4.5-5.8,8.6c-0.1,6-0.3,12-0.5,18c0,1.1-0.3,2.1-0.5,3.2c-0.2,0-0.4,0-0.7,0
			c-2.4-3.7-4.7-7.3-7.1-11c-0.1,0.1-0.3,0.1-0.4,0.2c0.4,5,1,10.1,1.4,15.2c0.1,0,0.2,0,0.3,0c0-3,0-5.9,0-9
			c0.2-0.1,0.4-0.2,0.7-0.2c0.9,1.1,2,2.1,2.6,3.3c1.5,2.8,3.6,4.2,7,4.2c3,0,6,0.1,8.9,0.8c9.7,2.4,19.5,5,29.2,7.9
			c5.1,1.4,9.5,0.4,13.6-2.8c4.2-3.5,8.5-6.8,12.7-10.3c1.2-1,2.1-1,3.4-0.2c4.7,3,7.2,7,6.7,12.5c-0.3,3.7-1.2,7.3-2,11
			c-2.5,11.8-5,23.5-7.5,35.3c-0.7,2.8,0.1,5.4,2.4,7.3c1.9,1.6,3.7,3.3,5.2,5.1c2.6,3.1,5.9,4.9,9.6,6.8c0-1.1,0.1-2,0.1-2.7
			c0.5-19.7,1.1-39.3,1.6-59c0.2-6.6,1-13,4-19c2.7-5.4,6.3-7.3,12.3-6.3c4.4,0.8,8.1,2.8,11.8,5.2c3.8,2.5,7.8,4.8,11.6,7.3
			c4.6-3.6,7.9-8.6,14-10.6c-1,5.1-1.7,9.8-2.7,14.9c2.3,0.2,4.4,0.4,6.3,0.4c6,0,11.5-1.9,16.9-4
			C388.6,337.3,393.6,335.3,398.7,333.4z M278.6,639.6c0.1-0.2,0.2-0.4,0.2-0.8c-0.8-0.4-1.4-1-2.2-1.3
			c-18.3-7.2-34.9-17.4-50.3-29.4c-13.7-10.6-25.7-22.6-33.8-38.1c-5.4-10.3-10.5-20.7-15.8-31c-0.8-1.4-1.7-2.7-2.5-4
			c-0.3,0.1-0.5,0.2-0.9,0.3c0.2,1.5,0.3,3.1,0.8,4.6c2.3,7.4,4.6,14.9,7,22.3c2.1,6.7,4.5,13.2,9.3,18.5c3.1,3.3,6.4,6.2,9.6,9.5
			c11.8,12.1,24.8,22.7,38.8,32.3c11,7.7,22.8,13.7,36,16.6C275.9,639.4,277.3,639.4,278.6,639.6z M395.4,552.8
			c0.1,0.2,0.2,0.4,0.3,0.5c1.4-0.5,2.8-1.1,4.2-1.7c8.3-3.9,16.6-7.8,24.8-11.7c9.8-4.7,17.9-11.5,24.2-20.4
			c4.6-6.7,9.3-13.3,14-20c1.9-2.6,3.9-5.2,5.9-7.8c-0.2-0.2-0.3-0.4-0.5-0.8c-3.8,2.3-8,4-11.3,6.9c-4.8,4-9.1,8.9-13.4,13.4
			c-11.1,11.9-22.1,24-35.5,33.3C403.7,547.5,399.5,550.1,395.4,552.8z"/>
		<path d="M203.7,217.3c-0.2-2.3-0.5-4.5-0.4-6.7c0.1-3.9,0-8,0.8-11.8c2.3-11.6,5-22.9,7.6-34.4c0.2-1.1,1.1-2.1,1.7-3.1
			c0.7,1.2,1.7,2.3,1.9,3.6c0.7,6.9,1,13.9,1.4,20.8c0.5,9.4,1.1,18.8-0.2,28.2c-0.5,3.7-0.3,3.7,3.4,3.7c18.7,0,37.5,0,56.2,0
			c0.9,0,1.9,0,3.2,0c0-3.8,0.1-7.4,0-11c0-1.6,0.3-2.6,2-3.3c2.4-1,4.7-2.4,7-3.5c1.9-0.9,2.6-2.2,1.5-4c-2.8-5.1-2.1-9.9,0.7-15
			c4.4-8.2,8.3-16.6,12.5-25c0.4-0.9,0.8-1.6,1.4-3c0.9,1.3,1.6,2.3,2.2,3.4c4.6,9,9.1,18,13.8,27c1.6,3.1,1.7,5.9,0.8,9.1
			c-1.4,4.8-1.2,5.1,3.2,7.3c5.1,2.6,7,6.2,6.3,12c-0.7,6.1-0.7,6.1,5.5,6.1c14.9,0,29.7-0.1,44.5,0.1c2.5,0,3.5-0.5,3.6-3.3
			c1-17,5.4-33.6,8.5-50.3c0.1-0.4,0.3-0.9,0.7-1.9c0.4,0.8,0.9,1.2,1,1.6c2.5,13.3,5,26.7,7.3,40c0.7,3.8,0.7,7.8,0.8,11.7
			c0.1,1.7,0.8,2.4,2.4,2.4c9,0.1,17.9,0.3,27,0.4c2.8,0,3.6-1.1,3.5-4.4c-0.3-14.8-0.8-29.5-1.1-44.3c-0.1-3.8,0-7.5,0-11.4
			c0.3-0.1,0.8-0.2,1.1-0.3c0.5,1,1.4,2,1.6,3c1.5,5.1,2.8,10.3,4.3,15.4c2.4,8.7,4.9,17.5,7,26.2c0.7,2.7,0.7,5.7,0.3,8.5
			c-1,10.5-2.3,20.9-3.5,31.4c-1.9,16.8-3.7,33.7-5.6,50.5c-0.2,1.6-0.7,3.2-1,4.7c-0.1,0.5-0.5,1-0.8,1.5c-0.2,0-0.4-0.1-0.7-0.1
			c-0.1-1-0.2-1.9-0.2-2.8c0-10.1,0-20.2,0-30.3c0-1.4-0.1-2.4-2-2.4c-11.8,0.1-23.6,0-35.4,0c-0.3,0-0.7,0.1-1.2,0.2
			c-1.3,13-2.7,26.1-4,39.2c-0.3,0-0.7,0.1-0.9,0.1c-0.2-0.8-0.5-1.5-0.7-2.3c-1.3-11.6-2.7-23.3-3.9-34.9c-0.2-1.9-0.9-2.4-2.6-2.4
			c-23.4,0-46.8,0-70.2,0c-1.7,0-2.5,0.5-3.3,2.1c-2.3,5.1-4.7,10.2-7.8,15.4c-1.5-3.3-3.4-6.6-4.7-9.9c-3.2-8.4-2.7-7.9-11.7-7.9
			c-23.3,0-46.7,0-69.9,0c-1,0-2,0-3.4,0c-0.7,14.4-1.4,28.5-2.1,42.7c-0.4,0-0.9,0-1.3,0.1c-0.7-3.9-1.4-7.8-1.9-11.7
			c-0.9-8.9-1.3-17.7-2.1-26.6c-0.3-4.3-0.5-4.3-4.8-4.3c-13.8,0-27.4,0-41.2,0c-0.9,0-1.9,0-3,0c-0.1,1.1-0.1,1.9-0.1,2.7
			c0,13,0,25.9,0,38.9c0,1.2-0.4,2.3-0.8,3.5c-0.3,0-0.7,0-1,0.1c-0.8-1.7-1.7-3.4-2.1-5.2c-1.1-6.7-2.1-13.3-3-20.1
			c-2.5-19.2-4.9-38.5-7.5-57.7c-0.9-6-0.8-11.6,1.2-17.5c3.6-10.8,6.6-21.7,9.7-32.7c0.4-1.3,1-2.6,1.4-3.8c0.3,0,0.7,0,1,0.1
			c0.2,1.6,0.7,3.3,0.7,4.9c0,12.5,0,24.9,0,37.4c0,1,0,2,0,3.2C173.9,217.3,188.6,217.3,203.7,217.3z"/>
		<path d="M213.7,148.8c-2.3,8.6-4.6,16.7-6.7,24.8c-1.4,5.2-2.5,10.5-4,15.7c-1.7,6.1-2,12.3-1.6,18.7c0.3,4.8-0.4,5.4-5.2,5.5
			c-10.2,0.2-20.3,0.4-30.5,0.7c-1.1,0-2.2,0-3.6,0c0.7-4.4,2.2-7.9,4.4-11.3c8.3-12.6,16.7-25.1,25-37.7c1.6-2.5,3.2-5,4.5-7.7
			c4.4-9.2,10.8-16.7,18.4-23.5c0.9-0.8,1.9-1.5,2.8-2.1c13.8-7.7,27.8-14.8,42.6-20.4c6.6-2.5,13.2-3.8,20.1-4
			c10.1-0.3,20.2-0.8,30.3-0.3c18.4,1,35.5,6.3,50.6,17c9.2,6.4,18.1,13.1,27,19.9c7.6,5.8,13.6,13.2,18.7,21.3
			c4.8,7.4,9.7,14.6,14.9,21.9c5.8,8.1,6.9,17.2,6.1,26.7c0,0.5-1.2,1.5-1.9,1.5c-6.2,0.2-12.3,0.1-18.6,0.2c-1.7,0-3.1-0.7-2.7-2.4
			c1.4-8.5-0.8-16.6-2.7-24.8c-2.1-8.5-3.8-17-5.7-25.6c-0.3-1.4-0.8-2.7-1.4-4c-0.2-0.5-0.9-0.8-1.4-1.2c-0.3,0.5-1,1-1.1,1.5
			c-1.3,5.1-2.5,10.4-3.6,15.6c-2.5,11.8-4.8,23.7-7.3,35.6c-0.9,4.3-1.5,4.8-5.9,4.8c-13,0-26.1,0-39.1-0.1c-0.9,0-1.9,0-3,0
			c0-2.8-0.2-5.5,0-8.1c0.2-3-0.8-5.1-3.4-6.4c-0.7-0.3-1.3-0.8-2-1.1c-3.6-2.2-4.3-3.4-3.3-7.5c0.7-2.8,0.3-5.4-1.1-8
			c-5.8-10.9-11.5-22-17.2-32.9c-0.4-0.9-1-1.7-1.7-3c-0.8,1.2-1.3,2-1.7,2.8c-5.6,10.7-11,21.4-16.6,32c-1.6,3-1.7,5.7,0,8.6
			c1.9,3.2,1.6,3.6-1.3,5.9c-0.7,0.5-1.3,1-2.1,1.5c-4.8,3.4-6.1,7.1-4.8,12.8c0.1,0.5,0.2,1.2,0.3,2c-1.1,0-2,0-2.8,0
			c-18-0.3-36.1-0.8-54.2-1c-2.5,0-3-1-3-3.2c0.2-14.4,0.4-28.9,0.5-43.3C218.7,160.3,217.2,154.9,213.7,148.8z"/>
		<path d="M127.5,524.8c-5.7-4.6-13-3.9-20-5.7c4.2-6.9,8.1-13.7,12.3-20.1c2.2-3.3,8.2-4.6,11.8-3c0.9,0.3,1.7,1.7,1.7,2.6
			c-0.1,8.1,2.5,15.4,4.6,23.1c1.7,6.3,2.5,13,3.7,19.5c0.7,3.6,1.3,7.2,1.9,10.8c0.3,2.6,0.3,5.2,0.5,8.4c-1.3-0.7-2.2-0.9-3-1.4
			c-6.3-4.2-13.2-5.8-20.9-5.8c-11.7,0-23.4-1.1-35-1.3c-9.8-0.2-19.8,0.2-29.7,0.4c-0.5,0-1.2,0.1-2.2-0.4c1.9-1.7,3.5-3.7,5.5-5.2
			c5.9-4.5,12.5-7.5,19.6-9.4c6.1-1.5,11.5-4.4,16-9c6-6.1,13.7-6.7,21.5-5.1c3.8,0.7,7.5,1.5,11.4,2.4
			C127.4,525.3,127.5,525.1,127.5,524.8z"/>
	</g>
</g>
<g>
	<g>
		<path fill="#C4BA98" stroke="#000000" stroke-width="0.5" stroke-miterlimit="10" d="M479.5,614.3v-12.7h9.9v2.2h-7.7v3.4h4.2v2.3
			h-4.2v3.9L479.5,614.3z"/>
		<path fill="#C4BA98" stroke="#000000" stroke-width="0.5" stroke-miterlimit="10" d="M492.1,604.6c0-1.2,0.2-2,0.5-2.4
			c0.3-0.4,1-0.6,1.9-0.6h7.2c1,0,1.6,0.2,1.9,0.6c0.3,0.4,0.5,1.2,0.5,2.4v6.7c0,1.2-0.2,2-0.5,2.4c-0.3,0.4-1,0.6-1.9,0.6h-7.2
			c-1,0-1.6-0.2-1.9-0.6c-0.3-0.4-0.5-1.2-0.5-2.4V604.6z M494.4,611.9h7.6v-8.1h-7.6V611.9z"/>
		<path fill="#C4BA98" stroke="#000000" stroke-width="0.5" stroke-miterlimit="10" d="M509,612.3v-10.7h8.4c0.8,0,1.4,0.2,1.7,0.6
			c0.3,0.4,0.5,1,0.5,1.9v3c0,0.9-0.2,1.5-0.5,1.9c-0.3,0.4-0.9,0.6-1.7,0.6h-1.3l4.5,4.8h-3.3l-4-4.8h-2.2v2.3L509,612.3z
			 M516.5,603.8h-5.2v3.5h5.2c0.4,0,0.7-0.1,0.8-0.2c0.1-0.1,0.2-0.4,0.2-0.8v-1.5c0-0.4-0.1-0.6-0.2-0.8
			C517.1,603.9,516.9,603.8,516.5,603.8z"/>
	</g>
	<g>
		<path fill="#C4BA98" stroke="#000000" stroke-width="0.5" stroke-miterlimit="10" d="M462.3,640c0.9-0.1,1.3,0.3,1.3,1.2v1.5h2.5
			c1,0,1.2,0.3,0.7,1h-3.1c0,1.7,0.1,2.5,0.3,2.5c0.4,0.1,0.8,0,1.2-0.2c1.1-0.2,1.6,0.2,1.5,1.2c-0.1,0.8-0.2,1.9-0.2,3.3
			c0.1,1.1-0.4,1.5-1.7,1.2c-1.3-0.4-2.7-0.4-4.1,0c-0.9,0.6-1.4,0.3-1.5-0.8c-0.1-1.1-0.3-2.3-0.7-3.6c0.1-0.9,0.7-1.2,1.8-0.8
			c0.9,0.1,1.3-0.1,1.3-0.7c0-1.2,0-2.4-0.2-3.5C461.3,640.6,461.5,639.9,462.3,640z M460.7,647.9c-0.1,1.3,0.1,2,0.7,2.1
			c2.5,0.3,3.7,0,3.5-1.2c0.2-1.5-0.8-2.1-3.1-1.8C461,647.1,460.7,647.4,460.7,647.9z M467.3,644.1c0.4,0,0.7,0,0.8-0.2
			c-0.1-1.2-0.2-2.4-0.2-3.5c-0.1-0.8,0.3-1.1,1.2-1c0.6,0,0.8,0.3,0.8,0.8c-0.1,1-0.1,2.1,0,3.5c3.6-0.6,5.4-0.6,5.3,0
			c0.2,0.3,0.2,0.5-0.2,0.5c-1.7,0.2-3.3,0.5-5,0.8c0.3,1,0.7,1.8,1,2.5c0.4-0.6,0.9-1.2,1.3-2c0.3-0.3,0.7-0.4,1-0.3
			c0.4,0.3,0.6,0.7,0.5,1.2c-0.7,0.9-1.3,1.6-1.8,2.1c1.2,1.2,3.2,1.8,5.9,1.7c0.2,0.1-0.1,0.7-1,1.7c-1.2,1.2-2.5,1.4-3.8,0.7
			c-0.6-0.4-1.4-1.3-2.6-2.5c-1.1,0.8-2.3,1.2-3.5,1.3c-0.6-0.1-0.7-0.3-0.3-0.7c1.1-0.3,2.1-1,3-2c-0.4-0.7-0.9-1.8-1.3-3.3
			c-0.6,0.1-1,0.3-1.5,0.5c-0.7,0.1-0.9-0.2-0.8-1C466.1,644.5,466.5,644.2,467.3,644.1z M472.6,640.3c0.3-0.8,0.8-1,1.3-0.7
			c0.6,0.3,0.7,0.8,0.5,1.3c-0.4,0.7-1.2,1-2.1,1.2c-0.4,0-0.6-0.2-0.5-0.5C472.1,641.2,472.4,640.8,472.6,640.3z"/>
		<path fill="#C4BA98" stroke="#000000" stroke-width="0.5" stroke-miterlimit="10" d="M485.6,644.1c0.6,0,0.9,0.2,1.2,0.5
			c-0.1,0.4-0.5,0.6-1.2,0.5c-0.7,0-1.3,0-2,0.2c0.2,0.3,0.1,0.7-0.3,1l-0.8,0.8c-0.3,0.4,0,0.7,0.8,0.8c0.7,0.1,1.2-0.1,1.7-0.7
			l-0.5-1c0.1-0.3,0.3-0.4,0.7-0.3c0.3,0.2,0.7,0.4,1,0.7c0.2,0.4,0.5,0.9,0.8,1.5c-0.1,0.2-0.2,0.3-0.3,0.3
			c-0.4,0.1-0.9-0.1-1.3-0.7c-0.7,1.2-1.4,1.7-2.1,1.3c-0.7-0.4-1.3-0.5-1.8-0.2c-0.2,0-0.4-0.2-0.7-0.5c-0.1-0.4,0.1-0.9,0.7-1.3
			c1-0.9,1.3-1.5,1-1.8c-0.4-0.1-1.1,0-2,0.3c-0.3,0.2-0.6,0.2-0.7-0.2c0.1-0.8,0.5-1.2,1.2-1.3L485.6,644.1L485.6,644.1z
			 M485.6,641.8c0.3,0,0.6,0.2,0.7,0.5c0,0.3-0.1,0.5-0.3,0.5h-2.6c-0.8,0-1.5,0-2.1,0.2c-0.2-0.1-0.3-0.3-0.3-0.7
			c0.1-0.3,0.3-0.6,0.7-0.8C482.3,641.7,483.7,641.8,485.6,641.8z M490,646.4c-0.3-0.1-0.7-0.1-1,0c-0.3,0.2-0.7,0.4-1,0.5
			c-0.2,0-0.4,0-0.5-0.2c-0.2-1.7-0.4-3.1-0.7-4.5c-0.1-0.7,0.2-1,1-1c0.3,0.2,0.9,0.3,1.7,0.2c0.3-0.3,0.7-0.9,1.2-1.7
			c0.1-0.2,0.3-0.3,0.7-0.3c1,0.3,1.3,0.7,0.8,1.2c-0.3,0.3-0.6,0.6-0.8,0.8c0.8,0,1.8,0.1,3,0.3c0.3-0.1,0.6-0.2,0.8-0.3
			c0.3-0.1,0.6,0,0.8,0.2c0.4,0.3,0.6,0.8,0.3,1.5c-0.3,1-0.6,2-0.7,3.1l-0.5,0.3c0.4,0.3,0.5,0.6,0.2,0.8c-0.2,0.2-0.4,0.4-0.7,0.7
			c-0.2,0.1-0.2,0.3,0.2,0.5c0.4,0.1,0.8,0,1.2-0.2c-0.4-0.3-0.5-0.6-0.2-0.7c0.4,0,0.8,0,1,0.2c0.2,0.3,0.4,0.7,0.7,1
			c-0.1,0.1-0.3,0.2-0.5,0.3l-0.7-0.5c-0.2,0.7-0.6,0.9-1.2,0.8c-0.4-0.3-0.9-0.4-1.3-0.3c-0.3-0.2-0.4-0.5-0.3-0.8
			c0.2-0.2,0.4-0.5,0.7-0.8c0.1-0.2,0.3-0.6,0.5-1c-0.9-0.1-1.9-0.2-3.1-0.2c-0.8,2.5-2.3,4.4-4.5,5.5c-1.8,0.7-3.1,0.4-4-0.8
			c0-0.1,0.2-0.2,0.7-0.2C487.1,650.6,489.2,649.1,490,646.4z M490.5,642.3c-0.8,0-1.4,0.1-1.8,0.3c-0.2,0.7-0.1,1,0.3,1l1.8-0.2
			C490.9,642.9,490.8,642.5,490.5,642.3z M490.6,644.3c-0.6,0-1.2,0-2,0.2c0,0.8,0.2,1.2,0.5,1.2l1.2-0.2L490.6,644.3z M491.8,647.3
			c0.1-0.4,0.3-0.7,0.7-0.7c0.2,0,0.4,0.1,0.5,0.3c-0.2,0.4-0.4,0.9-0.5,1.3c0,0.4,0,0.8,0.2,1c0.4,0.6,1.3,0.9,2.6,1.2
			c1.1,0.1,2.1,0,3.1-0.3c0.7-0.3,1.1-0.4,1.3-0.2c-0.1,0.7-0.5,1.4-1.2,2.3c-0.8,0.7-1.4,0.9-2,0.7c-1.9-0.3-3.4-1.1-4.6-2.3
			c-0.6-0.7-0.8-1.3-0.7-1.8C491.5,648.2,491.7,647.7,491.8,647.3z M494.3,645.8c0.2-0.4,0.3-0.8,0.2-1.2c-0.4-0.2-1.3-0.3-2.5-0.3
			c-0.1,0.4-0.2,0.9-0.2,1.3C492.7,645.7,493.5,645.8,494.3,645.8z M492.1,643.5l1.8,0.2c0.4,0.1,0.7-0.1,0.7-0.7
			c0-0.4-0.7-0.7-2-0.7C492.3,642.4,492.1,642.8,492.1,643.5z"/>
		<path fill="#C4BA98" stroke="#000000" stroke-width="0.5" stroke-miterlimit="10" d="M506.7,643.3c0.2-0.4,0.4-0.7,0.5-0.7
			c0.6-0.1,0.7,0.3,0.5,1.2c-0.3,1-0.8,2-1.5,3.1c-0.6,0.9-1.1,1.5-1.7,2c-1.1,1-2.3,0.9-3.5-0.2c-0.3-0.3-0.2-0.7,0.3-1
			C503.2,646.9,505,645.4,506.7,643.3z M510.5,640c1.1-0.1,1.6,0.5,1.5,1.8c-0.1,2.8,0,5.9,0.2,9.3c0,1.3-1,1.9-3.1,1.8
			c-1.1-0.1-2.4-0.7-3.8-1.8c-0.2-0.6-0.1-0.8,0.3-0.8c2.1,0.7,3.4,0.8,3.8,0.3c0.3-0.2,0.4-3.3,0.3-9.3
			C509.7,640.4,509.9,640,510.5,640z M513.1,643.8c-0.3-0.4-0.3-0.8,0.2-1c0.2-0.1,0.4,0,0.7,0.2c1.5,2,3.8,3.7,7,5.1
			c-0.3,0.6-0.7,0.9-1,1.2c-1,0.9-1.9,0.9-2.8,0C515.6,647.5,514.3,645.7,513.1,643.8z"/>
		<path fill="#C4BA98" stroke="#000000" stroke-width="0.5" stroke-miterlimit="10" d="M529.5,646.1c-0.3,1.1-0.7,1.9-1,2.5l2.1-0.3
			c-0.1-0.4-0.2-0.9-0.2-1.3c0.1-0.4,0.5-0.7,1.2-0.8c0.4,0,0.8,0.1,1.2,0.3c0.4,0.1,0.8,0.1,1,0V641c0-0.7,0.2-1,0.7-1.2
			c1.1,0,1.7,0.4,1.7,1.2c-0.1,0.6-0.2,1-0.2,1.3c2.3,0.1,4.2,0.2,5.8,0.2c0,0.6-0.2,1-0.5,1.5c-0.4,0.4-0.9,0.6-1.3,0.3
			c-1.8-0.6-3.1-0.7-4-0.5c-0.2,0.9-0.2,1.8,0,2.6c0.8,0.1,1.4,0,1.8-0.2c1.4-0.4,2.1,0,2.1,1.2c-0.2,0.9-0.3,2-0.3,3.3
			c0.2,1.4-0.3,1.9-1.5,1.5c-1.5-0.2-3.2-0.3-5-0.2c-1.3,0.7-2,0.3-2.1-1.2c0-0.3,0-0.9-0.2-1.8c-2.2,1-4.8,1.8-7.8,2.3
			c-1,0.2-1.4-0.2-1.3-1.2c0-0.6,0.6-0.9,1.7-1c1.2-0.1,2.6-0.3,4.1-0.5c0.3-1.2,0.5-2.4,0.5-3.5c0-0.8,0.2-1.2,0.7-1.2
			C529.6,644.2,529.8,644.9,529.5,646.1z M528.2,641c-0.1,1.3,0,1.9,0.3,1.8l2.3,0.2c0.6,0.4,0.6,0.8,0.2,1
			c-0.2,0.1-0.6,0.2-1.2,0.2c-2.2-0.4-4.5-0.3-6.8,0.5c-0.4,0.1-0.7,0-0.7-0.5c0.2-1,0.7-1.4,1.3-1.3c0.9,0.2,1.5,0.3,2,0.2
			c0.3-0.1,0.4-0.8,0.3-2c0.1-0.4,0.3-0.7,0.7-0.7C527.4,640.2,527.9,640.4,528.2,641z M526.5,648.2c-0.2,0.3-0.5,0.4-0.8,0.2
			c-0.7-1-1-1.9-1.2-2.6c-0.1-0.8,0.2-1.2,0.8-1.3c0.6-0.1,0.8,0.1,0.8,0.7C526.3,646.2,526.4,647.3,526.5,648.2z M535.8,647.6
			c-1.5-0.1-2.5,0-3,0.3c-0.3,0.8-0.3,1.5,0,2.3c0.1,0.6,1.3,0.7,3.6,0.5c1,0,1.5-0.6,1.5-1.7C537.9,648,537.2,647.5,535.8,647.6z"
			/>
	</g>
	
		<linearGradient id="SVGID_1_" gradientUnits="userSpaceOnUse" x1="409.8424" y1="291.1822" x2="409.8424" y2="291.1822" gradientTransform="matrix(1.0929 0 0 -1.0929 0 955.5428)">
		<stop  offset="0" style="stop-color:#C4BA98"/>
		<stop  offset="1.474962e-002" style="stop-color:#CEC5A9"/>
		<stop  offset="4.332456e-002" style="stop-color:#DDD7C4"/>
		<stop  offset="7.615717e-002" style="stop-color:#EAE6DA"/>
		<stop  offset="0.1145" style="stop-color:#F3F1EB"/>
		<stop  offset="0.162" style="stop-color:#FAF9F6"/>
		<stop  offset="0.2285" style="stop-color:#FEFEFD"/>
		<stop  offset="0.4133" style="stop-color:#FFFFFF"/>
		<stop  offset="0.4696" style="stop-color:#DDDBD8"/>
		<stop  offset="0.5499" style="stop-color:#B2AFA6"/>
		<stop  offset="0.6258" style="stop-color:#908B7F"/>
		<stop  offset="0.6952" style="stop-color:#787263"/>
		<stop  offset="0.7558" style="stop-color:#696252"/>
		<stop  offset="0.801" style="stop-color:#645D4C"/>
		<stop  offset="0.8499" style="stop-color:#776F5B"/>
		<stop  offset="0.9484" style="stop-color:#A89F82"/>
		<stop  offset="1" style="stop-color:#C4BA98"/>
	</linearGradient>
	
		<linearGradient id="SVGID_2_" gradientUnits="userSpaceOnUse" x1="409.8424" y1="291.1822" x2="409.8424" y2="291.1822" gradientTransform="matrix(1.0929 0 0 -1.0929 0 955.5428)">
		<stop  offset="0" style="stop-color:#C4BA98"/>
		<stop  offset="1.389108e-002" style="stop-color:#C7BD9D"/>
		<stop  offset="0.1655" style="stop-color:#E5E1D2"/>
		<stop  offset="0.2794" style="stop-color:#F8F7F3"/>
		<stop  offset="0.3418" style="stop-color:#FFFFFF"/>
		<stop  offset="0.4046" style="stop-color:#E1E0DC"/>
		<stop  offset="0.5083" style="stop-color:#B5B1A9"/>
		<stop  offset="0.6058" style="stop-color:#928D81"/>
		<stop  offset="0.6943" style="stop-color:#797364"/>
		<stop  offset="0.7708" style="stop-color:#696352"/>
		<stop  offset="0.8265" style="stop-color:#645D4C"/>
		<stop  offset="0.8691" style="stop-color:#776F5B"/>
		<stop  offset="0.955" style="stop-color:#A89F82"/>
		<stop  offset="1" style="stop-color:#C4BA98"/>
	</linearGradient>
	<path fill="url(#SVGID_1_)" stroke="url(#SVGID_2_)" stroke-width="0.5" stroke-miterlimit="10" d="M447.9,637.3"/>
	
		<linearGradient id="SVGID_3_" gradientUnits="userSpaceOnUse" x1="418.7229" y1="297.9066" x2="418.7229" y2="297.9066" gradientTransform="matrix(1.0929 0 0 -1.0929 0 955.5428)">
		<stop  offset="0" style="stop-color:#C4BA98"/>
		<stop  offset="1.474962e-002" style="stop-color:#CEC5A9"/>
		<stop  offset="4.332456e-002" style="stop-color:#DDD7C4"/>
		<stop  offset="7.615717e-002" style="stop-color:#EAE6DA"/>
		<stop  offset="0.1145" style="stop-color:#F3F1EB"/>
		<stop  offset="0.162" style="stop-color:#FAF9F6"/>
		<stop  offset="0.2285" style="stop-color:#FEFEFD"/>
		<stop  offset="0.4133" style="stop-color:#FFFFFF"/>
		<stop  offset="0.4696" style="stop-color:#DDDBD8"/>
		<stop  offset="0.5499" style="stop-color:#B2AFA6"/>
		<stop  offset="0.6258" style="stop-color:#908B7F"/>
		<stop  offset="0.6952" style="stop-color:#787263"/>
		<stop  offset="0.7558" style="stop-color:#696252"/>
		<stop  offset="0.801" style="stop-color:#645D4C"/>
		<stop  offset="0.8499" style="stop-color:#776F5B"/>
		<stop  offset="0.9484" style="stop-color:#A89F82"/>
		<stop  offset="1" style="stop-color:#C4BA98"/>
	</linearGradient>
	
		<linearGradient id="SVGID_4_" gradientUnits="userSpaceOnUse" x1="418.7229" y1="297.9066" x2="418.7229" y2="297.9066" gradientTransform="matrix(1.0929 0 0 -1.0929 0 955.5428)">
		<stop  offset="0" style="stop-color:#C4BA98"/>
		<stop  offset="1.389108e-002" style="stop-color:#C7BD9D"/>
		<stop  offset="0.1655" style="stop-color:#E5E1D2"/>
		<stop  offset="0.2794" style="stop-color:#F8F7F3"/>
		<stop  offset="0.3418" style="stop-color:#FFFFFF"/>
		<stop  offset="0.4046" style="stop-color:#E1E0DC"/>
		<stop  offset="0.5083" style="stop-color:#B5B1A9"/>
		<stop  offset="0.6058" style="stop-color:#928D81"/>
		<stop  offset="0.6943" style="stop-color:#797364"/>
		<stop  offset="0.7708" style="stop-color:#696352"/>
		<stop  offset="0.8265" style="stop-color:#645D4C"/>
		<stop  offset="0.8691" style="stop-color:#776F5B"/>
		<stop  offset="0.955" style="stop-color:#A89F82"/>
		<stop  offset="1" style="stop-color:#C4BA98"/>
	</linearGradient>
	<path fill="url(#SVGID_3_)" stroke="url(#SVGID_4_)" stroke-width="0.5" stroke-miterlimit="10" d="M457.6,630"/>
	<g>
		<g>
			<path fill="#C4BA98" stroke="#000000" stroke-width="0.5" stroke-miterlimit="10" d="M453.3,621.1h-6.4v5h3.5v3.5h-3.5v6.1
				l-1.9,0.9v-18.7h8.3V621.1"/>
			<path fill="#C4BA98" stroke="#000000" stroke-width="0.5" stroke-miterlimit="10" d="M455.7,633.3v-0.9v-14.6h7
				c0.7,0,1.1,0.3,1.4,0.9c0.3,0.6,0.4,1.5,0.4,2.8v4.4c0,1.3-0.1,2.2-0.4,2.8c-0.3,0.6-0.8,0.9-1.4,0.9h-1.1l3.8,7.1h-2.7l-3.3-7.1
				h-1.8v2.4v1.1L455.7,633.3z M461.8,621.1h-4.3v5.3h4.3c0.3,0,0.6-0.1,0.7-0.3c0.1-0.2,0.2-0.6,0.2-1.2v-2.3
				c0-0.6-0.1-0.9-0.2-1.1C462.4,621.2,462.2,621.1,461.8,621.1z"/>
			<path fill="#C4BA98" stroke="#000000" stroke-width="0.5" stroke-miterlimit="10" d="M468.4,636.7v-18.9h1.9v18.9H468.4z"/>
			<path fill="#C4BA98" stroke="#000000" stroke-width="0.5" stroke-miterlimit="10" d="M474.4,636.7v-18.9h8.4v3.2h-6.5v4.2h3.8
				v3.2h-3.8v4.7h6.6v3.6L474.4,636.7L474.4,636.7z"/>
			<path fill="#C4BA98" stroke="#000000" stroke-width="0.5" stroke-miterlimit="10" d="M486.4,636.7v-18.9h1.3l5.8,11.2
				c0.2,0.4,0.4,0.7,0.5,1c0.1,0.3,0.3,0.7,0.4,1c0-1.1,0-1.8-0.1-2.3c0-0.4,0-0.8,0-1v-9.9h1.7v18.9h-1.3l-6-11.7
				c-0.1-0.3-0.3-0.6-0.4-0.8c-0.1-0.2-0.2-0.5-0.3-0.7c0,0.6,0,1.1,0,1.7s0,1,0,1.4v10.2H486.4L486.4,636.7z"/>
			<path fill="#C4BA98" stroke="#000000" stroke-width="0.5" stroke-miterlimit="10" d="M500.2,636.7v-18.9h5.3
				c1.5,0,2.7,0.8,3.5,2.4c0.8,1.6,1.2,3.9,1.2,6.9c0,1.8-0.2,3.4-0.5,4.8c-0.3,1.4-0.8,2.5-1.3,3.3c-0.3,0.5-0.8,0.9-1.3,1.1
				s-1.2,0.3-2,0.3L500.2,636.7L500.2,636.7z M502.1,633.1h2.4c1.3,0,2.2-0.5,2.8-1.4c0.5-0.9,0.8-2.5,0.8-4.7
				c0-1.9-0.2-3.4-0.7-4.4c-0.4-1-1.1-1.5-2-1.5h-3.4L502.1,633.1L502.1,633.1z"/>
			<path fill="#C4BA98" stroke="#000000" stroke-width="0.5" stroke-miterlimit="10" d="M520.7,621.1h-5.4v4.1h5.1
				c0.8,0,1.3,0.3,1.6,1c0.3,0.6,0.4,1.8,0.4,3.5v2.6c0,1.7-0.1,2.9-0.4,3.5c-0.3,0.6-0.8,1-1.6,1h-5.1c-0.8,0-1.3-0.3-1.6-1
				c-0.3-0.6-0.4-1.8-0.4-3.5v-0.5l1.7-0.8v2.2h5.8v-4.3h-5.1c-0.8,0-1.3-0.3-1.6-1c-0.3-0.6-0.4-1.8-0.4-3.5v-2.1
				c0-1.7,0.1-2.9,0.4-3.5c0.3-0.6,0.8-1,1.6-1h4.6c0.8,0,1.3,0.3,1.6,0.9c0.3,0.6,0.4,1.7,0.4,3.2v0.4l-1.7,0.9V621.1L520.7,621.1z
				"/>
			<path fill="#C4BA98" stroke="#000000" stroke-width="0.5" stroke-miterlimit="10" d="M534.3,633.9v-5.3h-5.9v7.5l-1.9,0.7v-18.9
				h1.9v7.3h5.9v-7.3h1.9v15.4L534.3,633.9z"/>
			<path fill="#C4BA98" stroke="#000000" stroke-width="0.5" stroke-miterlimit="10" d="M540.4,636.7v-18.9h1.9v18.9H540.4z"/>
			<path fill="#C4BA98" stroke="#000000" stroke-width="0.5" stroke-miterlimit="10" d="M546.5,636.7v-18.9h7c0.7,0,1.1,0.3,1.4,0.9
				c0.3,0.6,0.4,1.5,0.4,2.8v4.2c0,1.3-0.1,2.2-0.4,2.8c-0.3,0.6-0.8,0.9-1.4,0.9h-5.1v6.5L546.5,636.7z M552.6,621.1h-4.3v5h4.3
				c0.3,0,0.6-0.1,0.7-0.3s0.2-0.6,0.2-1.2v-2c0-0.6-0.1-0.9-0.2-1.1C553.2,621.2,553,621.1,552.6,621.1z"/>
		</g>
	</g>
</g>
</svg>
