<?xml version="1.0" encoding="utf-8"?>
<!-- Generator: Adobe Illustrator 18.1.1, SVG Export Plug-In . SVG Version: 6.00 Build 0)  -->
<svg version="1.1" id="图层_1" xmlns="http://www.w3.org/2000/svg" xmlns:xlink="http://www.w3.org/1999/xlink" x="0px" y="0px"
	 viewBox="0 0 560 560" enable-background="new 0 0 560 560" xml:space="preserve">
	 <style type="text/css">
	.st0{fill:#FFFFFF;}
</style>
<g>
	<g>
		<path class="st0" d="M129.9,334.4c1.4,13.5,0.5,27.2,8.6,38.9c-3.3-16-5-32.1-3.4-48.5c5.4,16.9,11.5,33.4,19.8,49.1c0.3-0.1,0.7-0.2,1-0.3
			c-0.3-1.4-0.5-2.7-1-4c-4.1-11.3-8.3-22.5-12.2-33.9c-5.2-15-7.5-30.5-9.4-46.2c-2.2-17.6-0.1-35,0.3-52.5c0-2.2-0.1-4.3-0.1-6.5
			c0.1-4.4,1.1-8.5,3.5-12.1c2.5-3.8,5.1-7.5,7.7-11.2c0.3,0,0.6,0.1,0.9,0.1c2.7,13.3,5.3,26.7,7.9,39.5c1.2-1.6,2.2-7.2,1.6-11.1
			c-1.8-11.4-3.6-22.8-5.6-34.2c-1.1-6.5-0.5-12.8,0.4-19.2c0.5-3.7,1.1-7.5,2.1-11.2c0.5-2,1.7-3.9,3-5.4c1-1.1,2.7-2.1,4.1-2.2
			c8.8-0.8,17.6-1.3,26.5-1.9c3-0.2,3.2-0.1,3.4,2.9c0.9,11.1,1.7,22.1,2.6,33.2c0.2,3,0.9,5.6,4.3,7.3c1.2-14.4,2.5-28.6,3.7-43
			c0.8-0.1,1.6-0.1,2.3-0.1c20.7-0.1,41.4-0.2,62.1-0.3c5.2,0,6.6,1,8.6,5.7c1.9,4.5,3.9,8.9,6.1,13.9c1.2-2.1,2-3.5,2.8-5
			c2.2-4.2,4.4-8.4,6.5-12.6c0.9-1.9,2.3-2.8,4.4-2.8c16.5,0.2,33,0.4,49.6,0.6c2.4,0,4.8,0.2,7.2,0.1c2.1-0.1,3,0.7,3.4,2.8
			c2,12.2,4.1,24.5,6.3,36.7c0.2,1.3,0.8,2.6,1.1,4c0.3,0,0.6-0.1,0.9-0.1c1.9-14.5,3.9-29,5.8-43.8c9.9,0.4,19.8,0.7,30,1.1
			c1,12.2,1.9,24.3,2.9,36.3c0.3,0,0.5,0.1,0.8,0.1c2.3-9.9,4.6-19.7,6.9-29.6c0.3-0.1,0.6-0.1,0.9-0.2c0.4,1.1,1.2,2.1,1.2,3.2
			c0.4,6.2,1,12.4,0.8,18.6c-0.3,7.7,0.6,15.1,3.5,22.3c3.2,8,4.2,16.5,5.2,25c1.6,13.7,3,27.4,4.5,41.2c0.2,1.6,0,3.3,0,4.9
			c-0.2,0.1-0.4,0.1-0.6,0.2c-0.8-1.6-1.7-3.2-2.4-4.9c-6.5-15.8-13-31.7-19.4-47.6c-1.4-3.3-3.3-6.2-6.2-9c0.1,0.7,0.2,1,0.3,1.3
			c9.4,24.4,18.8,48.8,28.2,73.1c3.3,8.4,7.8,16,13.5,23c4.4,5.5,8.6,11.2,13.4,16.3c3.5,3.8,7.8,6.8,11.8,10.2
			c0.4,0.4,1,0.5,1.8,0.6c-13.7-14.7-25-30.9-32.8-49.4c7.8,7.7,17.8,12,26.4,18.4c4.5,3.3,9,6.7,12.9,10.6
			c5.8,5.8,7.9,13.3,7.3,21.4c-0.6,9.5-1.6,19-2.2,28.5c-0.2,2.5-0.1,5.1,0.3,7.6c0.2,1.5,1.4,2.8,2.6,4.1
			c-1.5-11.3,1.8-21.8,4.5-32.8c1.7,1.6,3.1,2.9,4.5,4.2c4.5,4.2,9.1,8.1,15.1,10.2c4.7,1.6,7.2,5.4,8.2,10.2
			c0.7,3.2,1.1,6.4,1.9,9.6c0.9,4,2,8,3.1,11.9c0.8,2.7,0.4,3.6-2.4,3.5c-4.5-0.3-8.9-0.9-13.4-1.5c-8-1.1-12.3,1.5-15,9.1
			c-0.5,1.4-1,2.8-1.3,4.2c-0.7,2.7-2.3,4.2-5.1,4.6c-8.6,1.4-17.3,2.9-25.9,4.5c-28.5,5.5-55.9,14-81.2,28.6
			c-7.6,4.4-14.8,9.4-20.5,16.2c-1,1.2-1.8,2.4-2.7,3.7c0.2,0.2,0.3,0.4,0.5,0.7c1-0.5,2.1-0.9,3.1-1.6c3-2,6-4.1,9-6.2
			c6.1-4.4,12.7-8,20-10.2c12.6-3.8,25.2-7.8,37.9-11.3c4.7-1.3,9.7-1.5,14.6-2.2c0.1,0.3,0.3,0.6,0.4,0.9c-0.6,0.6-1.1,1.2-1.8,1.7
			c-5.6,3.9-11.3,7.7-16.7,11.8c-14.2,10.7-26.5,23.5-36.6,38.2c-7.7,11.3-17.9,19.2-29.5,25.7c-10.7,6-22.2,10-34.2,12.5
			c-1,0.2-1.9,0.5-2.8,1c10.4,1.5,19.8-3.6,30.4-4.6c-1,1.1-1.5,1.8-2.2,2.5c-7.2,6.9-15.7,11.1-25.4,13.4
			c-11.3,2.7-22.7,5.1-34.4,5.7c-14.7,0.8-28.9-2.1-42.8-6.5c-17.5-5.5-33.8-13.6-49.4-23.2c-10.9-6.7-18.9-16.4-26.7-26.3
			c-13.1-16.8-20.3-36-23.8-56.9c-2.8-16.7-5.9-33.4-9.4-50.1c-2.2-10.4-4.9-20.7-6-31.3c-0.3-3.3-1.1-6.6-1.3-9.9
			c-0.2-3.4,1.1-6.2,3.7-8.4C126.1,338.2,127.8,336.4,129.9,334.4z M364.8,222.7c0.2,0.2,0.4,0.4,0.5,0.6c-2,4-4.2,8-5.9,12.1
			c-6.6,16.8-10.6,34.4-14.5,51.9c-3.3,14.8-5.7,29.7-8.3,44.6c-1.8,10.3-5.3,19.7-12,27.8c-4.8,5.8-9,12.1-14,17.7
			c-5.3,5.9-11.6,10.7-19.7,12c-5.6,0.8-11.3,1-16.9,1.6c-6.7,0.8-13.3,0.6-19.9-0.5c-1-0.2-2.1-0.5-3-1.1c-5.2-3.7-10-7.9-14.1-13
			c-11-14-21.7-28.1-29.9-44c-4.3-8.4-6.6-16.7-6.2-26.1c0.6-13.5,1-27,1.5-40.5c0-0.8,0-1.6,0-2.4c-0.2-0.1-0.4-0.1-0.5-0.2
			c-3.7,4.9-7.4,9.9-11.1,14.8c-0.3-0.1-0.5-0.3-0.8-0.4c0.4-4.5,3.2-8.2,4-12.6c0.8-4.3,1.8-8.7,2.2-13.1c0.4-4.4,0.1-8.8,0.1-13.2
			c-0.9,15.9-4.4,31.4-10.3,46.3c0.3,0.2,0.6,0.3,0.9,0.5c3.9-4.8,7.7-9.6,11.6-14.4c0.2,0.1,0.5,0.2,0.7,0.4c0,1.6,0.1,3.2,0,4.8
			c-0.6,13.9-0.8,27.8-2.2,41.6c-1,9.7-3.7,19.2-5.6,28.7c-0.3,1.7-0.5,3.5-0.8,5.3c6-9.2,7.7-19.8,10.5-30
			c4,26.7,6.2,53.6,16.6,78.8c10.3,24.9,21,49.5,37,71.6c-0.9,0-1.6-0.1-2-0.6c-1.7-1.8-3.4-3.6-4.9-5.6
			c-9.6-12.7-19.1-25.4-28.5-38.2c-9.7-13.2-18.8-26.8-25.3-41.9c-0.2-0.4-0.4-0.8-0.7-1.2c-0.2,0.1-0.4,0.2-0.6,0.2
			c1.6,4.2,2.9,8.6,4.9,12.7c6.6,13.3,13.4,26.4,20.1,39.6c3.8,7.6,8.7,14.5,14.2,21c15.4,18.1,34.6,31.4,55.1,43.1
			c2.7,1.5,6.2,2.2,9.3,2.3c4.6,0.1,9.3-0.6,13.9-1.3c11-1.7,19.8-7.9,28-14.9c-1.6,0.6-3,1.5-4.4,2.4c-3.8,2.3-7.5,4.8-11.4,6.8
			c-10.9,5.7-22.3,7.3-33.5,1.7c-11.1-5.6-21.9-11.9-27.8-23.8c-0.2-0.5-0.6-0.9-0.9-1.3c-2.5-3.6-2.5-4.3-0.1-7.9
			c4.8-7.3,11.4-12.6,18.2-17.8c5.3-4,10.7-8,16-12c0.5-0.4,0.8-1,1.4-1.8c-15,9.1-29.5,17.9-44.2,26.9c-2.9-4.8-5.5-9.3-8.4-14
			c2.5,0,4.5,0.1,6.5,0c10.4-0.4,19.7-3.9,28.5-9.2c10.7-6.4,21.2-13.2,31.8-19.8c1.2-0.8,2.4-1.5,3.6-2.2c0.2,0.2,0.4,0.4,0.6,0.6
			c-7.2,21.2-17.8,40.5-32.3,57.7c1.1-0.4,1.9-1,2.6-1.8c6.2-6.5,12.4-13.1,18.4-19.7c2.1-2.3,4.1-4.9,5.6-7.7
			c9.7-16.8,17.3-34.5,21.5-53.5c0.5-2.4,1.4-4.8,2.4-7c9.3-20.7,18.7-41.4,28-62.1c7.1-15.8,10-32.5,10.3-49.8
			c0-0.8-0.1-1.5-0.2-2.3c-0.2,0-0.5,0-0.7,0c-0.3,1-0.6,2-0.8,3c-1.6,9.6-3,19.4-6.9,28.4c-8.8,20.2-17.8,40.3-26.8,60.4
			c-0.2,0.4-0.6,0.7-1.3,1.5c0.1-1.6,0.2-2.5,0.3-3.4c1.4-9.2,3-18.4,4.3-27.6c3.6-26.2,8.8-52,16.8-77.2
			c3.1-9.9,6.1-19.9,11.6-28.8c1.1-1.8,2.7-3.4,4.3-5.4c-1,0-1.9-0.2-2.7,0c-5,1.2-10,2.6-15,3.9c-5.6,1.4-11.2,3-16.9,4.2
			c-2.7,0.6-3.5-0.4-3.6-3.2c-0.2-4.8,0.1-9.6,2.1-14.1c0.3-0.7,0.4-1.4,0.8-2.8c-1.9,1.1-3.4,1.7-4.5,2.7c-3.4,3.1-6.8,6.3-10,9.7
			c-1.6,1.6-3.1,2.2-5.1,0.8c-4.1-2.9-8.4-5.6-12.4-8.6c-6.6-5-13.8-7.2-22-6c-3.1,0.5-6.2,1.2-9.2,1.8c-0.8-2.7-1.5-5.1-2.4-7.8
			c-6.3,7.2-13.7,6.5-21.4,3.8c-2.6-0.9-5.1-2.2-7.5-3.7c-4.8-2.8-9.2-2.4-13.5,1.1c-2.5,2.1-4.1,1.4-4.5-1.8
			c-0.3-2.2-0.5-4.4-0.8-6.8c-4.8,1.9-9.3,3.7-13.7,5.4c-3.7,1.4-5.3,4.1-5.3,7.9c-0.1,5.5-0.3,11-0.5,16.5c0,1-0.3,1.9-0.5,2.9
			c-0.2,0-0.4,0-0.6,0c-2.2-3.4-4.3-6.7-6.5-10.1c-0.1,0.1-0.3,0.1-0.4,0.2c0.4,4.6,0.9,9.2,1.3,13.9c0.1,0,0.2,0,0.3,0
			c0-2.7,0-5.4,0-8.2c0.2-0.1,0.4-0.2,0.6-0.2c0.8,1,1.8,1.9,2.4,3c1.4,2.6,3.3,3.8,6.4,3.8c2.7,0,5.5,0.1,8.1,0.7
			c8.9,2.2,17.8,4.6,26.7,7.2c4.7,1.3,8.7,0.4,12.4-2.6c3.8-3.2,7.8-6.2,11.6-9.4c1.1-0.9,1.9-0.9,3.1-0.2c4.3,2.7,6.6,6.4,6.1,11.4
			c-0.3,3.4-1.1,6.7-1.8,10.1c-2.3,10.8-4.6,21.5-6.9,32.3c-0.6,2.6,0.1,4.9,2.2,6.7c1.7,1.5,3.4,3,4.8,4.7c2.4,2.8,5.4,4.5,8.8,6.2
			c0-1,0.1-1.8,0.1-2.5c0.5-18,1-36,1.5-54c0.2-6,0.9-11.9,3.7-17.4c2.5-4.9,5.8-6.7,11.3-5.8c4,0.7,7.4,2.6,10.8,4.8
			c3.5,2.3,7.1,4.4,10.6,6.7c4.2-3.3,7.2-7.9,12.8-9.7c-0.9,4.7-1.6,9-2.5,13.6c2.1,0.2,4,0.4,5.8,0.4c5.5,0,10.5-1.7,15.5-3.7
			C355.6,226.3,360.2,224.5,364.8,222.7z M254.9,502.9c0.1-0.2,0.2-0.4,0.2-0.7c-0.7-0.4-1.3-0.9-2-1.2c-16.7-6.6-31.9-15.9-46-26.9
			c-12.5-9.7-23.5-20.7-30.9-34.9c-4.9-9.4-9.6-18.9-14.5-28.4c-0.7-1.3-1.6-2.5-2.3-3.7c-0.3,0.1-0.5,0.2-0.8,0.3
			c0.2,1.4,0.3,2.8,0.7,4.2c2.1,6.8,4.2,13.6,6.4,20.4c1.9,6.1,4.1,12.1,8.5,16.9c2.8,3,5.9,5.7,8.8,8.7
			c10.8,11.1,22.7,20.8,35.5,29.6c10.1,7,20.9,12.5,32.9,15.2C252.5,502.7,253.7,502.7,254.9,502.9z M361.8,423.5
			c0.1,0.2,0.2,0.4,0.3,0.5c1.3-0.5,2.6-1,3.8-1.6c7.6-3.6,15.2-7.1,22.7-10.7c9-4.3,16.4-10.5,22.1-18.7
			c4.2-6.1,8.5-12.2,12.8-18.3c1.7-2.4,3.6-4.8,5.4-7.1c-0.2-0.2-0.3-0.4-0.5-0.7c-3.5,2.1-7.3,3.7-10.3,6.3
			c-4.4,3.7-8.3,8.1-12.3,12.3c-10.2,10.9-20.2,22-32.5,30.5C369.4,418.6,365.6,421,361.8,423.5z"/>
		<path class="st0" d="M186.4,116.5c-0.2-2.1-0.5-4.1-0.4-6.1c0.1-3.6,0-7.3,0.7-10.8c2.1-10.6,4.6-21,7-31.5c0.2-1,1-1.9,1.6-2.8
			c0.6,1.1,1.6,2.1,1.7,3.3c0.6,6.3,0.9,12.7,1.3,19c0.5,8.6,1,17.2-0.2,25.8c-0.5,3.4-0.3,3.4,3.1,3.4c17.1,0,34.3,0,51.4,0
			c0.8,0,1.7,0,2.9,0c0-3.5,0.1-6.8,0-10.1c0-1.5,0.3-2.4,1.8-3c2.2-0.9,4.3-2.2,6.4-3.2c1.7-0.8,2.4-2,1.4-3.7
			c-2.6-4.7-1.9-9.1,0.6-13.7c4-7.5,7.6-15.2,11.4-22.9c0.4-0.8,0.7-1.5,1.3-2.7c0.8,1.2,1.5,2.1,2,3.1c4.2,8.2,8.3,16.5,12.6,24.7
			c1.5,2.8,1.6,5.4,0.7,8.3c-1.3,4.4-1.1,4.7,2.9,6.7c4.7,2.4,6.4,5.7,5.8,11c-0.6,5.6-0.6,5.6,5,5.6c13.6,0,27.2-0.1,40.7,0.1
			c2.3,0,3.2-0.5,3.3-3c0.9-15.6,4.9-30.7,7.8-46c0.1-0.4,0.3-0.8,0.6-1.7c0.4,0.7,0.8,1.1,0.9,1.5c2.3,12.2,4.6,24.4,6.7,36.6
			c0.6,3.5,0.6,7.1,0.7,10.7c0.1,1.6,0.7,2.2,2.2,2.2c8.2,0.1,16.4,0.3,24.7,0.4c2.6,0,3.3-1,3.2-4c-0.3-13.5-0.7-27-1-40.5
			c-0.1-3.5,0-6.9,0-10.4c0.3-0.1,0.7-0.2,1-0.3c0.5,0.9,1.3,1.8,1.5,2.7c1.4,4.7,2.6,9.4,3.9,14.1c2.2,8,4.5,16,6.4,24
			c0.6,2.5,0.6,5.2,0.3,7.8c-0.9,9.6-2.1,19.1-3.2,28.7c-1.7,15.4-3.4,30.8-5.1,46.2c-0.2,1.5-0.6,2.9-0.9,4.3
			c-0.1,0.5-0.5,0.9-0.7,1.4c-0.2,0-0.4-0.1-0.6-0.1c-0.1-0.9-0.2-1.7-0.2-2.6c0-9.2,0-18.5,0-27.7c0-1.3-0.1-2.2-1.8-2.2
			c-10.8,0.1-21.6,0-32.4,0c-0.3,0-0.6,0.1-1.1,0.2c-1.2,11.9-2.5,23.9-3.7,35.9c-0.3,0-0.6,0.1-0.8,0.1c-0.2-0.7-0.5-1.4-0.6-2.1
			c-1.2-10.6-2.5-21.3-3.6-31.9c-0.2-1.7-0.8-2.2-2.4-2.2c-21.4,0-42.8,0-64.2,0c-1.6,0-2.3,0.5-3,1.9c-2.1,4.7-4.3,9.3-7.1,14.1
			c-1.4-3-3.1-6-4.3-9.1c-2.9-7.7-2.5-7.2-10.7-7.2c-21.3,0-42.7,0-64,0c-0.9,0-1.8,0-3.1,0c-0.6,13.2-1.3,26.1-1.9,39.1
			c-0.4,0-0.8,0-1.2,0.1c-0.6-3.6-1.3-7.1-1.7-10.7c-0.8-8.1-1.2-16.2-1.9-24.3c-0.3-3.9-0.5-3.9-4.4-3.9c-12.6,0-25.1,0-37.7,0
			c-0.8,0-1.7,0-2.7,0c-0.1,1-0.1,1.7-0.1,2.5c0,11.9,0,23.7,0,35.6c0,1.1-0.4,2.1-0.7,3.2c-0.3,0-0.6,0-0.9,0.1
			c-0.7-1.6-1.6-3.1-1.9-4.8c-1-6.1-1.9-12.2-2.7-18.4c-2.3-17.6-4.5-35.2-6.9-52.8c-0.8-5.5-0.7-10.6,1.1-16
			c3.3-9.9,6-19.9,8.9-29.9c0.4-1.2,0.9-2.4,1.3-3.5c0.3,0,0.6,0,0.9,0.1c0.2,1.5,0.6,3,0.6,4.5c0,11.4,0,22.8,0,34.2
			c0,0.9,0,1.8,0,2.9C159.1,116.5,172.6,116.5,186.4,116.5z"/>
		<path class="st0" d="M195.5,53.8c-2.1,7.9-4.2,15.3-6.1,22.7c-1.3,4.8-2.3,9.6-3.7,14.4c-1.6,5.6-1.8,11.3-1.5,17.1c0.3,4.4-0.4,4.9-4.8,5
			c-9.3,0.2-18.6,0.4-27.9,0.6c-1,0-2,0-3.3,0c0.6-4,2-7.2,4-10.3c7.6-11.5,15.3-23,22.9-34.5c1.5-2.3,2.9-4.6,4.1-7
			c4-8.4,9.9-15.3,16.8-21.5c0.8-0.7,1.7-1.4,2.6-1.9c12.6-7,25.4-13.5,39-18.7c6-2.3,12.1-3.5,18.4-3.7c9.2-0.3,18.5-0.7,27.7-0.3
			c16.8,0.9,32.5,5.8,46.3,15.6c8.4,5.9,16.6,12,24.7,18.2c7,5.3,12.4,12.1,17.1,19.5c4.4,6.8,8.9,13.4,13.6,20
			c5.3,7.4,6.3,15.7,5.6,24.4c0,0.5-1.1,1.4-1.7,1.4c-5.7,0.2-11.3,0.1-17,0.2c-1.6,0-2.8-0.6-2.5-2.2c1.3-7.8-0.7-15.2-2.5-22.7
			c-1.9-7.8-3.5-15.6-5.2-23.4c-0.3-1.3-0.7-2.5-1.3-3.7c-0.2-0.5-0.8-0.7-1.3-1.1c-0.3,0.5-0.9,0.9-1,1.4
			c-1.2,4.7-2.3,9.5-3.3,14.3c-2.3,10.8-4.4,21.7-6.7,32.6c-0.8,3.9-1.4,4.4-5.4,4.4c-11.9,0-23.9,0-35.8-0.1c-0.8,0-1.7,0-2.7,0
			c0-2.6-0.2-5,0-7.4c0.2-2.7-0.7-4.7-3.1-5.9c-0.6-0.3-1.2-0.7-1.8-1c-3.3-2-3.9-3.1-3-6.9c0.6-2.6,0.3-4.9-1-7.3
			c-5.3-10-10.5-20.1-15.7-30.1c-0.4-0.8-0.9-1.6-1.6-2.7c-0.7,1.1-1.2,1.8-1.6,2.6c-5.1,9.8-10.1,19.6-15.2,29.3
			c-1.5,2.7-1.6,5.2,0,7.9c1.7,2.9,1.5,3.3-1.2,5.4c-0.6,0.5-1.2,0.9-1.9,1.4c-4.4,3.1-5.6,6.5-4.4,11.7c0.1,0.5,0.2,1.1,0.3,1.8
			c-1,0-1.8,0-2.6,0c-16.5-0.3-33-0.7-49.6-0.9c-2.3,0-2.7-0.9-2.7-2.9c0.2-13.2,0.4-26.4,0.5-39.6
			C200.1,64.3,198.7,59.4,195.5,53.8z"/>
		<path class="st0" d="M116.7,397.9c-5.2-4.2-11.9-3.6-18.3-5.2c3.8-6.3,7.4-12.5,11.3-18.4c2-3,7.5-4.2,10.8-2.7c0.8,0.3,1.6,1.6,1.6,2.4
			c-0.1,7.4,2.3,14.1,4.2,21.1c1.6,5.8,2.3,11.9,3.4,17.8c0.6,3.3,1.2,6.6,1.7,9.9c0.3,2.4,0.3,4.8,0.5,7.7c-1.2-0.6-2-0.8-2.7-1.3
			c-5.8-3.8-12.1-5.3-19.1-5.3c-10.7,0-21.4-1-32-1.2c-9-0.2-18.1,0.2-27.2,0.4c-0.5,0-1.1,0.1-2-0.4c1.7-1.6,3.2-3.4,5-4.8
			c5.4-4.1,11.4-6.9,17.9-8.6c5.6-1.4,10.5-4,14.6-8.2c5.5-5.6,12.5-6.1,19.7-4.7c3.5,0.6,6.9,1.4,10.4,2.2
			C116.6,398.3,116.7,398.1,116.7,397.9z"/>
	</g>
</g>
</svg>
