<?xml version="1.0" encoding="utf-8"?>
<!-- Generator: Adobe Illustrator 18.1.1, SVG Export Plug-In . SVG Version: 6.00 Build 0)  -->
<svg version="1.1" id="图层_1" xmlns="http://www.w3.org/2000/svg" xmlns:xlink="http://www.w3.org/1999/xlink" x="0px" y="0px"
	 viewBox="0 0 560 560" enable-background="new 0 0 560 560" xml:space="preserve">
	 <style type="text/css">
	.st0{fill:#FFFFFF;}
</style>
<g>
	<g>
		<path class="st0" d="M201.5,472.1c4-4.1,7.7-8.1,11.8-12.2c-2.5-2.4-5.1-4.9-7.5-7.5c-14.8-15.5-26-33.4-32-53.8c-7.8-26.4-0.3-49.6,18.5-69.2
			c1.6-1.6,2.2-3,1.9-5.2c-1.1-8.2-2.1-16.4-3.1-24.6c-0.2-1.6-0.9-2.2-2.4-2.6c-12.3-2.6-20.2-10.3-24.8-21.7
			c-3.2-7.9-4.6-16.2-4.4-24.8c0-2,0.5-2.8,2.7-2.8c27-0.3,54-0.9,81.1-1.2c25.1-0.2,50.3-0.3,75.4-0.1c28.7,0.2,57.5,0.9,86.2,1.4
			c1.3,0,2.5,0,2.5,1.8c0,15.1-2.4,29.4-14.4,40.1c-4.1,3.7-9,6-14.4,7c-1.6,0.3-2.2,0.9-2.4,2.5c-1,8.7-2.1,17.3-3.1,26
			c-0.1,1,0.5,2.4,1.2,3.2c15.4,15.3,22.8,33.7,22,55.4c-0.3,7.7-2.2,15-5.2,22c-8.5,20.3-20.1,38.5-36.3,53.5
			c-0.3,0.2-0.5,0.6-0.8,1c3.7,3.6,7.3,7.2,11.1,11c-7.9,7.3-15.1,14.6-23.1,20.9c-4.3,3.4-9.7,5.7-15,7.1
			c-12.6,3.3-25.5,5.9-38.3,8.5c-3.2,0.6-6.7,0.7-9.8,0c-13-2.6-26-5.5-38.9-8.5c-8.1-1.9-15.2-6-21.4-11.5
			C212.8,482.7,207.2,477.4,201.5,472.1z M319.6,263.5c0.1,0.3,0.1,0.6,0.2,0.9c0.2,0.1,0.5,0.3,0.7,0.3c13.5,2.5,27.1,5.2,40.9,4.5
			c6.3-0.3,12.6-1.5,18.8-2.7c1.4-0.3,2.5-2.2,3.7-3.4c-1.2-0.9-2.3-1.9-3.6-2.7c-0.6-0.4-1.4-0.4-2.2-0.6
			c-16.5-2.5-33-2.7-49.5,0.7C325.6,261.2,322.6,262.5,319.6,263.5z M247.4,265.1c0.1-0.5,0.1-1.1,0.2-1.6c-3.7-1.1-7.3-2.6-11-3.3
			c-15.5-2.9-31.1-2.7-46.7-0.5c-1.4,0.2-2.8,0.5-4.1,1c-3.1,1.1-3.4,2.8-0.9,4.9c0.6,0.5,1.5,0.9,2.3,1c8.9,2.1,18,3.4,27.1,2.4
			C225.2,268,236.3,266.4,247.4,265.1z M328.8,418.2c0.1-0.5,0.1-1.1,0.2-1.6c-2.2-0.3-4.4-0.7-6.6-1c-6.4-0.9-12.8-1.5-19.1-2.9
			c-11.8-2.6-23.5-2.2-35.3-0.6c-8.4,1.1-16.8,2.7-25.2,4c-1.4,0.2-2.8,0.6-4.2,0.9c0,0.4,0.1,0.8,0.1,1.2
			C268.7,414.3,298.7,414.3,328.8,418.2z M294,368.7c-1.6,3.5-1.3,6,0.8,8.1c1.6,1.7,3.5,1.2,5-0.3c1.6-1.4,1.1-3-0.3-4.1
			C298,371.1,296.1,370.1,294,368.7z M273,368.8c-2,1.3-3.8,2.2-5.4,3.5c-1.4,1.2-2.1,2.8-0.3,4.4c1.6,1.4,3.5,1.6,5-0.1
			C274.3,374.5,274.7,372.1,273,368.8z"/>
		<path class="st0" d="M276.4,68.5c0-4.2,0.1-8.1-0.1-12c0-0.9-1.1-1.9-1.8-2.7c-3.6-3.6-4.5-9.8-2-14.2c2.6-4.8,8-7.2,13.3-6.1
			c4.9,1.1,8.6,5.4,8.9,10.5c0.2,4-1.2,7.3-4.3,9.8c-1.4,1.2-1.9,2.4-1.8,4.1c0.1,3.4,0,6.8,0,10.5c1.3,0.1,2.4,0.3,3.5,0.3
			c30.1,1.5,58.3,9.4,84.2,25.1c22.5,13.7,40.6,31.7,51.9,55.9c5.8,12.4,9,25.5,9.4,39.3c0.1,2.6-0.6,3.6-3.4,3.6
			c-100.4-0.1-200.7-0.1-301.1,0c-2.6,0-3.3-0.7-3.3-3.4c0.6-22.7,8.2-42.9,21.7-60.9c18.9-25.2,44.3-41.3,74-51
			c15.4-5,31.3-7.8,47.4-8.6C274,68.7,275,68.6,276.4,68.5z"/>
		<path class="st0" d="M124.8,241.8c0-15.9,0-31.3,0-47.2c1.2,0,2.3,0,3.4,0c103.8,0,207.5,0,311.3-0.1c2.6,0,3.4,0.7,3.3,3.3
			c-0.1,13.5-0.2,26.9,0,40.4c0,3-0.9,3.6-3.7,3.6c-101.3-0.1-202.6-0.1-303.9-0.1C131.9,241.8,128.5,241.8,124.8,241.8z"/>
		<path class="st0" d="M209.1,460.8c-7.2,7.5-14,14.7-21.3,22.2c-4.9-5.2-9.7-9.9-14.2-15c-23-26.1-36.3-56.7-41.3-91.1
			c-6-41.7-9.1-83.5-8.2-125.6c0-0.9,0.1-1.9,0.2-3c11,0,21.8,0,32.9,0c-0.1,1.3-0.2,2.1-0.3,2.9c-1.2,12.3,1.4,23.8,7.6,34.4
			c4.6,7.8,11.6,12.7,20.8,13.8c1.7,0.2,2.2,0.9,2.4,2.5c0.9,7.9,2,15.8,2.8,23.7c0.1,1.1-0.9,2.6-1.8,3.5c-9,9-15.5,19.3-18.8,31.6
			c-3.7,13.7-3,27.3,1.2,40.7c7,22.2,18.4,41.7,35.8,57.5C207.7,459.7,208.6,460.3,209.1,460.8z"/>
		<path class="st0" d="M410.2,248.3c10.9,0,21.8,0,33.2,0c0,6.7,0,13.2,0,19.7c-0.1,29.3-2,58.6-5.5,87.7c-2.3,18.8-4.9,37.6-11,55.7
			c-8.7,25.4-23.2,47.2-42.1,66.1c-1.7,1.7-3.1,3.6-4.8,5.5c-7.3-7.8-14.2-15.1-21-22.3c3.7-3.9,8.5-8.3,12.6-13.4
			c14.6-18.3,25.4-38.5,27.8-62.2c2.3-21.7-5.1-40.1-20.4-55.4c-1.8-1.8-2.4-3.4-2-6c1.1-7.2,1.9-14.5,2.7-21.7
			c0.2-1.5,0.5-2.4,2.3-2.6c10.6-1.3,17.9-7.4,22.5-16.7c5.1-10.2,7.4-21.1,5.8-32.5C410.1,249.7,410.2,249.2,410.2,248.3z"/>
		<path class="st0" d="M122.8,324.6c1.4,16.3,2.1,32.6,4.3,48.7c2.2,16.1,5.7,32.1,14.5,47.3c-1.4-0.7-2.2-1.1-2.9-1.5
			c-16.6-10.9-34.3-12.1-52.1-4.3c-24.9,10.9-54.1-4.3-63.8-19.4c-4.7-7.3-5.5-14.8-2-22.7c2.4-5.5,6.7-7.1,11.5-3.6
			c11.4,8.5,23.4,7,35.8,3c23.5-7.6,40.2-23.4,52.8-44C121.5,326.8,122.2,325.6,122.8,324.6z"/>
		<path class="st0" d="M426.1,420.4c0.1-0.7,0-1,0.2-1.2c9.3-16.4,12.6-34.7,14.9-53c1.6-12.8,1.7-25.7,2.4-38.6c0.1-1,0.1-2,0.7-3.2
			c0.6,1,1.2,2,1.8,3c7.2,11.7,15.5,22.6,26.7,30.8c12.6,9.3,26.5,15.9,42.4,17.1c6.6,0.5,12.6-1.1,17.9-5.1c0.7-0.5,1.4-1,2.2-1.4
			c4.7-2.6,8.4-1.7,10.8,3.2c3.9,8,3.4,15.9-1.6,23.2c-7.7,11.3-18.8,17.7-31.6,21.4c-11.2,3.3-22,2.4-32.8-2.1
			c-12.7-5.3-25.8-6.3-38.9-1.7c-3.9,1.4-7.5,3.6-11.2,5.4C428.7,418.7,427.6,419.5,426.1,420.4z"/>
	</g>
</g>
</svg>
