<?xml version="1.0" encoding="utf-8"?>
<!-- Generator: Adobe Illustrator 18.1.1, SVG Export Plug-In . SVG Version: 6.00 Build 0)  -->
<svg version="1.1" id="图层_1" xmlns="http://www.w3.org/2000/svg" xmlns:xlink="http://www.w3.org/1999/xlink" x="0px" y="0px"
	 viewBox="0 0 612 792" enable-background="new 0 0 612 792" xml:space="preserve">
<g>
	<g>
		<path d="M220.2,605.9c4.4-4.5,8.4-8.9,12.9-13.3c-2.7-2.6-5.6-5.4-8.2-8.2c-16.2-16.9-28.4-36.5-35-58.8
			c-8.5-28.9-0.3-54.2,20.2-75.6c1.7-1.7,2.4-3.3,2.1-5.7c-1.2-9-2.3-17.9-3.4-26.9c-0.2-1.7-1-2.4-2.6-2.8
			c-13.4-2.8-22.1-11.3-27.1-23.7c-3.5-8.6-5-17.7-4.8-27.1c0-2.2,0.5-3.1,3-3.1c29.5-0.3,59-1,88.6-1.3c27.4-0.2,55-0.3,82.4-0.1
			c31.4,0.2,62.8,1,94.2,1.5c1.4,0,2.7,0,2.7,2c0,16.5-2.6,32.1-15.7,43.8c-4.5,4-9.8,6.6-15.7,7.7c-1.7,0.3-2.4,1-2.6,2.7
			c-1.1,9.5-2.3,18.9-3.4,28.4c-0.1,1.1,0.5,2.6,1.3,3.5c16.8,16.7,24.9,36.8,24,60.5c-0.3,8.4-2.4,16.4-5.7,24
			c-9.3,22.2-22,42.1-39.7,58.5c-0.3,0.2-0.5,0.7-0.9,1.1c4,3.9,8,7.9,12.1,12c-8.6,8-16.5,16-25.2,22.8c-4.7,3.7-10.6,6.2-16.4,7.8
			c-13.8,3.6-27.9,6.4-41.9,9.3c-3.5,0.7-7.3,0.8-10.7,0c-14.2-2.8-28.4-6-42.5-9.3c-8.9-2.1-16.6-6.6-23.4-12.6
			C232.6,617.5,226.4,611.7,220.2,605.9z M349.3,378c0.1,0.3,0.1,0.7,0.2,1c0.2,0.1,0.5,0.3,0.8,0.3c14.8,2.7,29.6,5.7,44.7,4.9
			c6.9-0.3,13.8-1.6,20.5-3c1.5-0.3,2.7-2.4,4-3.7c-1.3-1-2.5-2.1-3.9-3c-0.7-0.4-1.5-0.4-2.4-0.7c-18-2.7-36.1-3-54.1,0.8
			C355.8,375.5,352.6,376.9,349.3,378z M270.4,379.7c0.1-0.5,0.1-1.2,0.2-1.7c-4-1.2-8-2.8-12-3.6c-16.9-3.2-34-3-51-0.5
			c-1.5,0.2-3.1,0.5-4.5,1.1c-3.4,1.2-3.7,3.1-1,5.4c0.7,0.5,1.6,1,2.5,1.1c9.7,2.3,19.7,3.7,29.6,2.6
			C246.1,382.9,258.2,381.1,270.4,379.7z M359.3,547c0.1-0.5,0.1-1.2,0.2-1.7c-2.4-0.3-4.8-0.8-7.2-1.1c-7-1-14-1.6-20.9-3.2
			c-12.9-2.8-25.7-2.4-38.6-0.7c-9.2,1.2-18.4,3-27.5,4.4c-1.5,0.2-3.1,0.7-4.6,1c0,0.4,0.1,0.9,0.1,1.3
			C293.7,542.8,326.4,542.8,359.3,547z M321.3,492.9c-1.7,3.8-1.4,6.6,0.9,8.9c1.7,1.9,3.8,1.3,5.5-0.3c1.7-1.5,1.2-3.3-0.3-4.5
			C325.7,495.6,323.6,494.5,321.3,492.9z M298.4,493c-2.2,1.4-4.2,2.4-5.9,3.8c-1.5,1.3-2.3,3.1-0.3,4.8c1.7,1.5,3.8,1.7,5.5-0.1
			C299.8,499.3,300.2,496.7,298.4,493z"/>
		<path d="M302.1,164.9c0-4.6,0.1-8.9-0.1-13.1c0-1-1.2-2.1-2-3c-3.9-3.9-4.9-10.7-2.2-15.5c2.8-5.2,8.7-7.9,14.5-6.7
			c5.4,1.2,9.4,5.9,9.7,11.5c0.2,4.4-1.3,8-4.7,10.7c-1.5,1.3-2.1,2.6-2,4.5c0.1,3.7,0,7.4,0,11.5c1.4,0.1,2.6,0.3,3.8,0.3
			c32.9,1.6,63.7,10.3,92,27.4c24.6,15,44.4,34.6,56.7,61.1c6.3,13.6,9.8,27.9,10.3,42.9c0.1,2.8-0.7,3.9-3.7,3.9
			c-109.7-0.1-219.3-0.1-329.1,0c-2.8,0-3.6-0.8-3.6-3.7c0.7-24.8,9-46.9,23.7-66.6c20.7-27.5,48.4-45.1,80.9-55.7
			c16.8-5.5,34.2-8.5,51.8-9.4C299.4,165.1,300.5,165,302.1,164.9z"/>
		<path d="M136.4,354.3c0-17.4,0-34.2,0-51.6c1.3,0,2.5,0,3.7,0c113.4,0,226.8,0,340.2-0.1c2.8,0,3.7,0.8,3.6,3.6
			c-0.1,14.8-0.2,29.4,0,44.2c0,3.3-1,3.9-4,3.9c-110.7-0.1-221.4-0.1-332.1-0.1C144.1,354.3,140.4,354.3,136.4,354.3z"/>
		<path d="M228.5,593.6c-7.9,8.2-15.3,16.1-23.3,24.3c-5.4-5.7-10.6-10.8-15.5-16.4c-25.1-28.5-39.7-62-45.1-99.6
			c-6.6-45.6-9.9-91.3-9-137.3c0-1,0.1-2.1,0.2-3.3c12,0,23.8,0,36,0c-0.1,1.4-0.2,2.3-0.3,3.2c-1.3,13.4,1.5,26,8.3,37.6
			c5,8.5,12.7,13.9,22.7,15.1c1.9,0.2,2.4,1,2.6,2.7c1,8.6,2.2,17.3,3.1,25.9c0.1,1.2-1,2.8-2,3.8c-9.8,9.8-16.9,21.1-20.5,34.5
			c-4,15-3.3,29.8,1.3,44.5c7.7,24.3,20.1,45.6,39.1,62.8C227,592.4,228,593,228.5,593.6z"/>
		<path d="M448.3,361.4c11.9,0,23.8,0,36.3,0c0,7.3,0,14.4,0,21.5c-0.1,32-2.2,64-6,95.8c-2.5,20.5-5.4,41.1-12,60.9
			c-9.5,27.8-25.4,51.6-46,72.2c-1.9,1.9-3.4,3.9-5.2,6c-8-8.5-15.5-16.5-22.9-24.4c4-4.3,9.3-9.1,13.8-14.6
			c16-20,27.8-42.1,30.4-68c2.5-23.7-5.6-43.8-22.3-60.5c-2-2-2.6-3.7-2.2-6.6c1.2-7.9,2.1-15.8,3-23.7c0.2-1.6,0.5-2.6,2.5-2.8
			c11.6-1.4,19.6-8.1,24.6-18.3c5.6-11.1,8.1-23.1,6.3-35.5C448.2,362.9,448.3,362.3,448.3,361.4z"/>
		<path d="M134.2,444.7c1.5,17.8,2.3,35.6,4.7,53.2c2.4,17.6,6.2,35.1,15.8,51.7c-1.5-0.8-2.4-1.2-3.2-1.6
			c-18.1-11.9-37.5-13.2-56.9-4.7c-27.2,11.9-59.1-4.7-69.7-21.2c-5.1-8-6-16.2-2.2-24.8c2.6-6,7.3-7.8,12.6-3.9
			c12.5,9.3,25.6,7.6,39.1,3.3c25.7-8.3,43.9-25.6,57.7-48.1C132.8,447.1,133.5,445.8,134.2,444.7z"/>
		<path d="M465.7,549.4c0.1-0.8,0-1.1,0.2-1.3c10.2-17.9,13.8-37.9,16.3-57.9c1.7-14,1.9-28.1,2.6-42.2c0.1-1.1,0.1-2.2,0.8-3.5
			c0.7,1.1,1.3,2.2,2,3.3c7.9,12.8,16.9,24.7,29.2,33.7c13.8,10.2,29,17.4,46.3,18.7c7.2,0.5,13.8-1.2,19.6-5.6
			c0.8-0.5,1.5-1.1,2.4-1.5c5.1-2.8,9.2-1.9,11.8,3.5c4.3,8.7,3.7,17.4-1.7,25.4c-8.4,12.3-20.5,19.3-34.5,23.4
			c-12.2,3.6-24,2.6-35.8-2.3c-13.9-5.8-28.2-6.9-42.5-1.9c-4.3,1.5-8.2,3.9-12.2,5.9C468.5,547.6,467.3,548.5,465.7,549.4z"/>
	</g>
</g>
<g>
	<g>
		<path fill="#C4BA98" stroke="#000000" stroke-width="0.5" stroke-miterlimit="10" d="M496.2,569.3V558h8.8v2h-6.7v3h3.7v2.1h-3.7
			v3.5L496.2,569.3z"/>
		<path fill="#C4BA98" stroke="#000000" stroke-width="0.5" stroke-miterlimit="10" d="M507.2,560.7c0-1,0.1-1.7,0.5-2.1
			c0.3-0.4,0.9-0.6,1.7-0.6h6.4c0.8,0,1.4,0.2,1.7,0.6c0.3,0.4,0.5,1.1,0.5,2.1v5.9c0,1-0.1,1.7-0.5,2.1c-0.3,0.4-0.9,0.6-1.7,0.6
			h-6.4c-0.8,0-1.4-0.2-1.7-0.6s-0.5-1.1-0.5-2.1V560.7z M509.3,567.2h6.7V560h-6.7V567.2z"/>
		<path fill="#C4BA98" stroke="#000000" stroke-width="0.5" stroke-miterlimit="10" d="M522.2,567.5V558h7.4c0.7,0,1.2,0.2,1.5,0.5
			c0.3,0.3,0.5,0.9,0.5,1.7v2.6c0,0.8-0.2,1.3-0.5,1.7c-0.3,0.3-0.8,0.5-1.5,0.5h-1.1l4,4.2h-2.9l-3.5-4.2h-1.9v2L522.2,567.5z
			 M528.7,560h-4.5v3.1h4.5c0.3,0,0.6-0.1,0.7-0.2c0.1-0.1,0.2-0.4,0.2-0.7v-1.4c0-0.3-0.1-0.6-0.2-0.7
			C529.3,560.1,529.1,560,528.7,560z"/>
	</g>
	<g>
		<path fill="#C4BA98" stroke="#000000" stroke-width="0.5" stroke-miterlimit="10" d="M481,591.9c0.8-0.1,1.2,0.2,1.2,1v1.3h2.2
			c0.9,0,1.1,0.3,0.6,0.9h-2.8c0,1.5,0.1,2.2,0.3,2.2c0.4,0.1,0.7,0,1-0.1c1-0.2,1.4,0.1,1.3,1c-0.1,0.7-0.1,1.6-0.1,2.9
			c0.1,1-0.4,1.3-1.5,1c-1.2-0.4-2.4-0.4-3.6,0c-0.8,0.5-1.2,0.2-1.3-0.7c-0.1-1-0.3-2-0.6-3.2c0.1-0.8,0.6-1,1.6-0.7
			c0.8,0.1,1.2-0.1,1.2-0.6c0-1.1,0-2.1-0.1-3.1C480.1,592.4,480.3,591.8,481,591.9z M479.5,598.9c-0.1,1.2,0.1,1.8,0.6,1.9
			c2.2,0.3,3.2,0,3.1-1c0.2-1.4-0.7-1.9-2.8-1.6C479.8,598.1,479.5,598.4,479.5,598.9z M485.4,595.5c0.4,0,0.6,0,0.7-0.1
			c-0.1-1.1-0.1-2.1-0.1-3.1c-0.1-0.7,0.2-1,1-0.9c0.5,0,0.7,0.2,0.7,0.7c-0.1,0.9-0.1,1.9,0,3.1c3.2-0.5,4.8-0.5,4.7,0
			c0.2,0.3,0.1,0.4-0.1,0.4c-1.5,0.2-2.9,0.4-4.4,0.7c0.3,0.9,0.6,1.6,0.9,2.2c0.4-0.5,0.8-1.1,1.2-1.7c0.3-0.3,0.6-0.4,0.9-0.3
			c0.4,0.3,0.5,0.6,0.4,1c-0.6,0.8-1.1,1.4-1.6,1.9c1.1,1.1,2.8,1.6,5.2,1.5c0.2,0.1-0.1,0.6-0.9,1.5c-1.1,1.1-2.2,1.3-3.4,0.6
			c-0.5-0.4-1.3-1.1-2.3-2.2c-1,0.7-2,1.1-3.1,1.2c-0.5-0.1-0.6-0.3-0.3-0.6c1-0.3,1.9-0.9,2.6-1.7c-0.4-0.6-0.8-1.6-1.2-2.9
			c-0.5,0.1-0.9,0.2-1.3,0.4c-0.6,0.1-0.8-0.2-0.7-0.9C484.3,595.9,484.7,595.6,485.4,595.5z M490,592.2c0.3-0.7,0.7-0.9,1.2-0.6
			c0.5,0.3,0.6,0.7,0.4,1.2c-0.4,0.6-1,0.9-1.9,1c-0.4,0-0.5-0.1-0.4-0.4C489.6,592.9,489.8,592.5,490,592.2z"/>
		<path fill="#C4BA98" stroke="#000000" stroke-width="0.5" stroke-miterlimit="10" d="M501.5,595.5c0.5,0,0.8,0.1,1,0.4
			c-0.1,0.4-0.4,0.5-1,0.4c-0.6,0-1.2,0-1.7,0.1c0.2,0.3,0.1,0.6-0.3,0.9l-0.7,0.7c-0.3,0.4,0,0.6,0.7,0.7c0.6,0.1,1.1-0.1,1.5-0.6
			l-0.4-0.9c0.1-0.3,0.3-0.4,0.6-0.3c0.3,0.2,0.6,0.4,0.9,0.6c0.2,0.4,0.4,0.8,0.7,1.3c-0.1,0.2-0.2,0.3-0.3,0.3
			c-0.4,0.1-0.8-0.1-1.2-0.6c-0.6,1.1-1.2,1.5-1.9,1.2c-0.6-0.4-1.1-0.4-1.6-0.1c-0.2,0-0.4-0.1-0.6-0.4c-0.1-0.4,0.1-0.8,0.6-1.2
			c0.9-0.8,1.2-1.3,0.9-1.6c-0.4-0.1-1,0-1.7,0.3c-0.3,0.2-0.5,0.1-0.6-0.1c0.1-0.7,0.4-1.1,1-1.2L501.5,595.5L501.5,595.5z
			 M501.5,593.5c0.3,0,0.5,0.1,0.6,0.4c0,0.3-0.1,0.4-0.3,0.4h-2.3c-0.7,0-1.3,0-1.9,0.1c-0.2-0.1-0.3-0.3-0.3-0.6
			c0.1-0.3,0.3-0.5,0.6-0.7C498.6,593.4,499.8,593.5,501.5,593.5z M505.3,597.5c-0.3-0.1-0.6-0.1-0.9,0c-0.3,0.2-0.6,0.3-0.9,0.4
			c-0.2,0-0.3,0-0.4-0.1c-0.2-1.5-0.4-2.8-0.6-3.9c-0.1-0.6,0.2-0.9,0.9-0.9c0.3,0.2,0.8,0.2,1.5,0.1c0.3-0.3,0.6-0.8,1-1.5
			c0.1-0.2,0.3-0.3,0.6-0.3c0.9,0.3,1.1,0.6,0.7,1c-0.3,0.3-0.5,0.5-0.7,0.7c0.7,0,1.6,0.1,2.6,0.3c0.3-0.1,0.5-0.2,0.7-0.3
			c0.3-0.1,0.5,0,0.7,0.1c0.4,0.3,0.5,0.7,0.3,1.3c-0.3,0.9-0.5,1.8-0.6,2.8l-0.4,0.3c0.4,0.3,0.4,0.5,0.1,0.7
			c-0.2,0.2-0.4,0.4-0.6,0.6c-0.2,0.1-0.1,0.2,0.1,0.4c0.4,0.1,0.7,0,1-0.1c-0.4-0.3-0.4-0.5-0.1-0.6c0.4,0,0.7,0,0.9,0.1
			c0.2,0.3,0.4,0.6,0.6,0.9c-0.1,0.1-0.2,0.2-0.4,0.3l-0.6-0.4c-0.2,0.6-0.5,0.8-1,0.7c-0.4-0.3-0.8-0.4-1.2-0.3
			c-0.3-0.2-0.4-0.4-0.3-0.7c0.2-0.2,0.4-0.4,0.6-0.7c0.1-0.2,0.2-0.5,0.4-0.9c-0.8-0.1-1.7-0.1-2.8-0.1c-0.7,2.2-2,3.8-3.9,4.8
			c-1.6,0.6-2.7,0.3-3.5-0.7c0-0.1,0.2-0.1,0.6-0.1C502.8,601.2,504.7,599.9,505.3,597.5z M505.8,593.9c-0.7,0-1.2,0.1-1.6,0.3
			c-0.2,0.6-0.1,0.9,0.3,0.9l1.6-0.1C506.2,594.4,506.1,594.1,505.8,593.9z M505.9,595.7c-0.5,0-1.1,0-1.7,0.1c0,0.7,0.1,1,0.4,1
			l1-0.1L505.9,595.7z M506.9,598.3c0.1-0.4,0.3-0.6,0.6-0.6c0.2,0,0.3,0.1,0.4,0.3c-0.2,0.4-0.3,0.8-0.4,1.2c0,0.4,0,0.7,0.1,0.9
			c0.4,0.5,1.2,0.8,2.3,1c1,0.1,1.9,0,2.8-0.3c0.6-0.3,1-0.3,1.2-0.1c-0.1,0.6-0.4,1.3-1,2c-0.7,0.6-1.3,0.8-1.7,0.6
			c-1.6-0.3-3-1-4.1-2c-0.5-0.6-0.7-1.1-0.6-1.6C506.7,599.1,506.8,598.7,506.9,598.3z M509.1,597c0.2-0.4,0.2-0.7,0.1-1
			c-0.4-0.2-1.1-0.3-2.2-0.3c-0.1,0.4-0.1,0.8-0.1,1.2C507.7,596.9,508.4,597,509.1,597z M507.2,594.9l1.6,0.1
			c0.4,0.1,0.6-0.1,0.6-0.6c0-0.4-0.6-0.6-1.7-0.6C507.4,594,507.2,594.3,507.2,594.9z"/>
		<path fill="#C4BA98" stroke="#000000" stroke-width="0.5" stroke-miterlimit="10" d="M520.1,594.8c0.2-0.4,0.3-0.6,0.4-0.6
			c0.5-0.1,0.6,0.2,0.4,1c-0.3,0.9-0.7,1.8-1.3,2.8c-0.5,0.8-1,1.4-1.5,1.7c-1,0.9-2,0.8-3.1-0.1c-0.3-0.3-0.2-0.6,0.3-0.9
			C517,597.9,518.6,596.6,520.1,594.8z M523.4,591.9c1-0.1,1.4,0.4,1.3,1.6c-0.1,2.4,0,5.2,0.1,8.2c0,1.2-0.9,1.7-2.8,1.6
			c-1-0.1-2.1-0.6-3.4-1.6c-0.2-0.5-0.1-0.7,0.3-0.7c1.9,0.6,3,0.7,3.4,0.3c0.3-0.2,0.4-2.9,0.3-8.2
			C522.7,592.3,522.9,591.9,523.4,591.9z M525.8,595.2c-0.3-0.4-0.2-0.7,0.1-0.9c0.2-0.1,0.4,0,0.6,0.1c1.4,1.7,3.4,3.2,6.1,4.5
			c-0.3,0.5-0.6,0.8-0.9,1c-0.9,0.8-1.7,0.8-2.5,0C528,598.5,526.8,596.9,525.8,595.2z"/>
		<path fill="#C4BA98" stroke="#000000" stroke-width="0.5" stroke-miterlimit="10" d="M540.2,597.3c-0.3,1-0.6,1.7-0.9,2.2l1.9-0.3
			c-0.1-0.4-0.1-0.8-0.1-1.2c0.1-0.4,0.4-0.6,1-0.7c0.4,0,0.7,0.1,1,0.3c0.4,0.1,0.7,0.1,0.9,0v-4.8c0-0.6,0.2-0.9,0.6-1
			c1,0,1.5,0.3,1.5,1c-0.1,0.5-0.1,0.9-0.1,1.2c2,0.1,3.7,0.1,5.1,0.1c0,0.5-0.1,0.9-0.4,1.3c-0.4,0.4-0.8,0.5-1.2,0.3
			c-1.6-0.5-2.7-0.6-3.5-0.4c-0.2,0.8-0.2,1.6,0,2.3c0.7,0.1,1.2,0,1.6-0.1c1.3-0.4,1.9,0,1.9,1c-0.2,0.8-0.3,1.7-0.3,2.9
			c0.2,1.3-0.2,1.7-1.3,1.3c-1.4-0.2-2.8-0.2-4.4-0.1c-1.2,0.6-1.8,0.2-1.9-1c0-0.3,0-0.8-0.1-1.6c-2,0.9-4.2,1.6-6.8,2
			c-0.9,0.2-1.3-0.1-1.2-1c0-0.5,0.5-0.8,1.5-0.9c1.1-0.1,2.3-0.2,3.6-0.4c0.3-1.1,0.4-2.1,0.4-3.1c0-0.7,0.2-1,0.6-1
			C540.2,595.6,540.5,596.2,540.2,597.3z M539,592.7c-0.1,1.2,0,1.7,0.3,1.6l2,0.1c0.5,0.4,0.5,0.7,0.1,0.9c-0.2,0.1-0.5,0.1-1,0.1
			c-2-0.4-3.9-0.2-6,0.4c-0.4,0.1-0.6,0-0.6-0.4c0.2-0.9,0.6-1.3,1.2-1.2c0.8,0.2,1.4,0.2,1.7,0.1c0.3-0.1,0.4-0.7,0.3-1.7
			c0.1-0.4,0.3-0.6,0.6-0.6C538.3,592.1,538.7,592.3,539,592.7z M537.6,599.1c-0.2,0.3-0.4,0.3-0.7,0.1c-0.6-0.9-0.9-1.6-1-2.3
			s0.1-1.1,0.7-1.2c0.5-0.1,0.7,0.1,0.7,0.6C537.4,597.4,537.5,598.3,537.6,599.1z M545.7,598.6c-1.4-0.1-2.2,0-2.6,0.3
			c-0.3,0.7-0.3,1.4,0,2c0.1,0.5,1.2,0.6,3.2,0.4c0.9,0,1.3-0.5,1.3-1.5C547.6,598.9,547,598.5,545.7,598.6z"/>
	</g>
	
		<linearGradient id="SVGID_1_" gradientUnits="userSpaceOnUse" x1="428.4877" y1="334.9194" x2="428.4877" y2="334.9194" gradientTransform="matrix(1.0929 0 0 -1.0929 0 955.5428)">
		<stop  offset="0" style="stop-color:#C4BA98"/>
		<stop  offset="1.474962e-002" style="stop-color:#CEC5A9"/>
		<stop  offset="4.332456e-002" style="stop-color:#DDD7C4"/>
		<stop  offset="7.615717e-002" style="stop-color:#EAE6DA"/>
		<stop  offset="0.1145" style="stop-color:#F3F1EB"/>
		<stop  offset="0.162" style="stop-color:#FAF9F6"/>
		<stop  offset="0.2285" style="stop-color:#FEFEFD"/>
		<stop  offset="0.4133" style="stop-color:#FFFFFF"/>
		<stop  offset="0.4696" style="stop-color:#DDDBD8"/>
		<stop  offset="0.5499" style="stop-color:#B2AFA6"/>
		<stop  offset="0.6258" style="stop-color:#908B7F"/>
		<stop  offset="0.6952" style="stop-color:#787263"/>
		<stop  offset="0.7558" style="stop-color:#696252"/>
		<stop  offset="0.801" style="stop-color:#645D4C"/>
		<stop  offset="0.8499" style="stop-color:#776F5B"/>
		<stop  offset="0.9484" style="stop-color:#A89F82"/>
		<stop  offset="1" style="stop-color:#C4BA98"/>
	</linearGradient>
	
		<linearGradient id="SVGID_2_" gradientUnits="userSpaceOnUse" x1="428.4877" y1="334.9194" x2="428.4877" y2="334.9194" gradientTransform="matrix(1.0929 0 0 -1.0929 0 955.5428)">
		<stop  offset="0" style="stop-color:#C4BA98"/>
		<stop  offset="1.389108e-002" style="stop-color:#C7BD9D"/>
		<stop  offset="0.1655" style="stop-color:#E5E1D2"/>
		<stop  offset="0.2794" style="stop-color:#F8F7F3"/>
		<stop  offset="0.3418" style="stop-color:#FFFFFF"/>
		<stop  offset="0.4046" style="stop-color:#E1E0DC"/>
		<stop  offset="0.5083" style="stop-color:#B5B1A9"/>
		<stop  offset="0.6058" style="stop-color:#928D81"/>
		<stop  offset="0.6943" style="stop-color:#797364"/>
		<stop  offset="0.7708" style="stop-color:#696352"/>
		<stop  offset="0.8265" style="stop-color:#645D4C"/>
		<stop  offset="0.8691" style="stop-color:#776F5B"/>
		<stop  offset="0.955" style="stop-color:#A89F82"/>
		<stop  offset="1" style="stop-color:#C4BA98"/>
	</linearGradient>
	<path fill="url(#SVGID_1_)" stroke="url(#SVGID_2_)" stroke-width="0.5" stroke-miterlimit="10" d="M468.3,589.5"/>
	
		<linearGradient id="SVGID_3_" gradientUnits="userSpaceOnUse" x1="436.3138" y1="340.8454" x2="436.3138" y2="340.8454" gradientTransform="matrix(1.0929 0 0 -1.0929 0 955.5428)">
		<stop  offset="0" style="stop-color:#C4BA98"/>
		<stop  offset="1.474962e-002" style="stop-color:#CEC5A9"/>
		<stop  offset="4.332456e-002" style="stop-color:#DDD7C4"/>
		<stop  offset="7.615717e-002" style="stop-color:#EAE6DA"/>
		<stop  offset="0.1145" style="stop-color:#F3F1EB"/>
		<stop  offset="0.162" style="stop-color:#FAF9F6"/>
		<stop  offset="0.2285" style="stop-color:#FEFEFD"/>
		<stop  offset="0.4133" style="stop-color:#FFFFFF"/>
		<stop  offset="0.4696" style="stop-color:#DDDBD8"/>
		<stop  offset="0.5499" style="stop-color:#B2AFA6"/>
		<stop  offset="0.6258" style="stop-color:#908B7F"/>
		<stop  offset="0.6952" style="stop-color:#787263"/>
		<stop  offset="0.7558" style="stop-color:#696252"/>
		<stop  offset="0.801" style="stop-color:#645D4C"/>
		<stop  offset="0.8499" style="stop-color:#776F5B"/>
		<stop  offset="0.9484" style="stop-color:#A89F82"/>
		<stop  offset="1" style="stop-color:#C4BA98"/>
	</linearGradient>
	
		<linearGradient id="SVGID_4_" gradientUnits="userSpaceOnUse" x1="436.3138" y1="340.8454" x2="436.3138" y2="340.8454" gradientTransform="matrix(1.0929 0 0 -1.0929 0 955.5428)">
		<stop  offset="0" style="stop-color:#C4BA98"/>
		<stop  offset="1.389108e-002" style="stop-color:#C7BD9D"/>
		<stop  offset="0.1655" style="stop-color:#E5E1D2"/>
		<stop  offset="0.2794" style="stop-color:#F8F7F3"/>
		<stop  offset="0.3418" style="stop-color:#FFFFFF"/>
		<stop  offset="0.4046" style="stop-color:#E1E0DC"/>
		<stop  offset="0.5083" style="stop-color:#B5B1A9"/>
		<stop  offset="0.6058" style="stop-color:#928D81"/>
		<stop  offset="0.6943" style="stop-color:#797364"/>
		<stop  offset="0.7708" style="stop-color:#696352"/>
		<stop  offset="0.8265" style="stop-color:#645D4C"/>
		<stop  offset="0.8691" style="stop-color:#776F5B"/>
		<stop  offset="0.955" style="stop-color:#A89F82"/>
		<stop  offset="1" style="stop-color:#C4BA98"/>
	</linearGradient>
	<path fill="url(#SVGID_3_)" stroke="url(#SVGID_4_)" stroke-width="0.5" stroke-miterlimit="10" d="M476.8,583"/>
	<g>
		<g>
			<path fill="#C4BA98" stroke="#000000" stroke-width="0.5" stroke-miterlimit="10" d="M473,575.2h-5.6v4.4h3v3h-3v5.4l-1.7,0.8
				v-16.5h7.3V575.2"/>
			<path fill="#C4BA98" stroke="#000000" stroke-width="0.5" stroke-miterlimit="10" d="M475.1,586v-0.8v-12.8h6.2
				c0.6,0,1,0.2,1.3,0.8c0.2,0.5,0.4,1.3,0.4,2.5v3.9c0,1.1-0.1,2-0.4,2.5c-0.2,0.5-0.7,0.8-1.3,0.8h-0.9l3.3,6.3h-2.4l-2.9-6.3
				h-1.6v2.1v0.9L475.1,586z M480.5,575.2h-3.8v4.6h3.8c0.3,0,0.5-0.1,0.6-0.3c0.1-0.2,0.2-0.5,0.2-1v-2c0-0.5-0.1-0.8-0.2-1
				C481,575.3,480.8,575.2,480.5,575.2z"/>
			<path fill="#C4BA98" stroke="#000000" stroke-width="0.5" stroke-miterlimit="10" d="M486.3,589v-16.7h1.7V589H486.3z"/>
			<path fill="#C4BA98" stroke="#000000" stroke-width="0.5" stroke-miterlimit="10" d="M491.7,589v-16.7h7.4v2.8h-5.7v3.7h3.3v2.8
				h-3.3v4.1h5.8v3.1L491.7,589L491.7,589z"/>
			<path fill="#C4BA98" stroke="#000000" stroke-width="0.5" stroke-miterlimit="10" d="M502.2,589v-16.7h1.2l5.1,9.8
				c0.2,0.3,0.3,0.6,0.5,0.9s0.2,0.6,0.4,0.9c0-0.9,0-1.6-0.1-2c0-0.4,0-0.7,0-0.9v-8.8h1.5v16.7h-1.2l-5.3-10.3
				c-0.1-0.3-0.2-0.5-0.3-0.7c-0.1-0.2-0.2-0.4-0.3-0.6c0,0.5,0,1,0,1.5c0,0.5,0,0.9,0,1.2v9H502.2L502.2,589z"/>
			<path fill="#C4BA98" stroke="#000000" stroke-width="0.5" stroke-miterlimit="10" d="M514.4,589v-16.7h4.6c1.3,0,2.3,0.7,3,2.1
				c0.7,1.4,1.1,3.5,1.1,6.1c0,1.6-0.1,3-0.4,4.2c-0.3,1.3-0.7,2.2-1.2,2.9c-0.3,0.5-0.7,0.8-1.2,1c-0.5,0.2-1.1,0.3-1.8,0.3
				L514.4,589L514.4,589z M516,585.8h2.2c1.2,0,2-0.4,2.4-1.3c0.5-0.8,0.7-2.2,0.7-4.1c0-1.7-0.2-3-0.6-3.9c-0.4-0.9-1-1.3-1.8-1.3
				h-3L516,585.8L516,585.8z"/>
			<path fill="#C4BA98" stroke="#000000" stroke-width="0.5" stroke-miterlimit="10" d="M532.4,575.2h-4.7v3.6h4.5
				c0.7,0,1.2,0.3,1.4,0.8s0.4,1.6,0.4,3.1v2.3c0,1.5-0.1,2.5-0.4,3.1s-0.7,0.8-1.4,0.8h-4.5c-0.7,0-1.2-0.3-1.4-0.8
				c-0.2-0.6-0.4-1.6-0.4-3.1v-0.5l1.5-0.7v2h5.1V582H528c-0.7,0-1.2-0.3-1.4-0.8c-0.2-0.6-0.4-1.6-0.4-3.1v-1.9
				c0-1.5,0.1-2.5,0.4-3.1c0.2-0.6,0.7-0.8,1.4-0.8h4.1c0.7,0,1.2,0.3,1.4,0.8c0.2,0.5,0.4,1.5,0.4,2.9v0.3l-1.5,0.8L532.4,575.2
				L532.4,575.2z"/>
			<path fill="#C4BA98" stroke="#000000" stroke-width="0.5" stroke-miterlimit="10" d="M544.4,586.5v-4.7h-5.2v6.6l-1.7,0.6v-16.7
				h1.7v6.5h5.2v-6.5h1.7v13.6L544.4,586.5z"/>
			<path fill="#C4BA98" stroke="#000000" stroke-width="0.5" stroke-miterlimit="10" d="M549.8,589v-16.7h1.7V589H549.8z"/>
			<path fill="#C4BA98" stroke="#000000" stroke-width="0.5" stroke-miterlimit="10" d="M555.1,589v-16.7h6.2c0.6,0,1,0.2,1.3,0.8
				c0.2,0.5,0.4,1.3,0.4,2.5v3.7c0,1.1-0.1,1.9-0.4,2.4c-0.2,0.5-0.7,0.8-1.3,0.8h-4.5v5.8L555.1,589z M560.6,575.2h-3.8v4.4h3.8
				c0.3,0,0.5-0.1,0.6-0.3c0.1-0.2,0.2-0.5,0.2-1v-1.8c0-0.5-0.1-0.8-0.2-1C561.1,575.3,560.9,575.2,560.6,575.2z"/>
		</g>
	</g>
</g>
</svg>
