<?xml version="1.0" encoding="utf-8"?>
<!-- Generator: Adobe Illustrator 18.1.1, SVG Export Plug-In . SVG Version: 6.00 Build 0)  -->
<svg version="1.1" id="图层_1" xmlns="http://www.w3.org/2000/svg" xmlns:xlink="http://www.w3.org/1999/xlink" x="0px" y="0px"
	 viewBox="0 0 612 792" enable-background="new 0 0 612 792" xml:space="preserve">
<g>
	<g>
		<path d="M517.5,610.4c-116,116-295.5,115-411.1-0.1c2.5-3.3,5.1-6.3,7.4-9.7c12.5-18.4,18.5-38.9,18.5-61
			c0.1-130.4,0.1-260.8,0-391.1c0-4.5,1.4-6.8,5.4-8.9c35.7-18.3,73.5-29.5,113-35.7c67.2-10.6,132.8-4,196.7,19.2
			c13.2,4.8,25.9,11.4,38.9,16.9c3.5,1.5,4.4,3.7,4.4,7.4c-0.1,129.7-0.2,259.6,0,389.3c0,26.9,8,51.1,25.8,71.9
			C516.8,609.1,517,609.7,517.5,610.4z M356.7,639.3c-5.8-8.1-11.5-15.6-16.6-23.4c-1.5-2.4-2.7-5.6-2.7-8.4
			c-0.1-66.2-0.1-132.3-0.1-198.6c0-3.9,0.2-8,1-11.9c2-10.4,9.8-17.7,19.8-18.4c3.8-0.2,7.6-0.4,11.5-0.4c22.5,0,44.9,0,67.4,0
			c10.1,0,20.3-1.1,29.6,5.8c-0.4-14.9,3.3-27.5,12-38.7c0.7-0.9,0.2-3.1-0.2-4.5c-2.5-7.5-5.9-14.9-7.4-22.6
			c-1.2-6.2-0.2-12.8-0.2-19.9c-6,7.1-12.7,12.6-21.7,12.7c-28.7,0.2-57.6,0.2-86.3,0.1c-12.6-0.1-20.1-5.7-24.4-17.4
			c-0.9-2.4-1.7-5-1.9-7.5c-0.4-5.8-0.7-11.7-0.7-17.5c0-19.2,0-38.5,0.5-57.7c0.1-3.1,2.3-6.6,4.6-9c5.5-5.7,11.6-10.8,17.2-15.8
			c-14.4-14.6-28.3-28.7-42.2-42.8c-2.6-2.6-4-0.5-5.7,1.1c-11.9,11.8-23.8,23.6-35.7,35.4c-2,1.9-4,3.6-6.2,5.7
			c5.9,5.5,11.5,10.2,16.4,15.4c2.2,2.4,4.4,6,4.5,9.1c0.3,25.2,0.8,50.5-0.1,75.7c-0.4,14-7.5,26-27.2,25.6
			c-26.8-0.5-53.6-0.3-80.3,0c-8.3,0.1-14.9-3.2-20.8-8.3c-1.3-1.2-2.3-2.7-4.2-5c-0.1,2.2-0.2,2.7-0.1,3.3
			c2,14.2-1.1,27.4-7.9,40.1c-0.7,1.2-0.2,3.8,0.8,5c5.1,7.4,8.9,15.5,10.1,24.5c0.5,4.2,0.8,8.4,1.1,11.4
			c6.1-1.3,12.1-3.7,18.3-3.7c29.4-0.3,58.8,0,88.2,0.2c8.3,0.1,14.5,4.3,17.7,11.9c1.7,4.3,3,9.2,3,13.9
			c0.2,68.2,0.1,136.4,0,204.6c0,2.1-0.9,4.6-2,6.3c-5.2,8-10.7,15.7-16.3,24c14.3,12.8,28.3,25.4,42.5,37.8
			c0.8,0.7,3.1,0.4,3.9-0.3C329.2,664.5,342.7,652.1,356.7,639.3z M242.5,480c0-6.6-5.4-12-11.9-12.1c-6.6-0.1-12.3,5.7-12.3,12.3
			c0.1,6.6,5.6,11.8,12.2,11.8C237.1,492.1,242.5,486.7,242.5,480z M250,578.3c-6.7,0-12,5.4-12,12s5.5,12,12.1,12
			c6.7-0.1,12-5.6,12-12.1C262.1,583.5,256.8,578.3,250,578.3z M203.4,517.3c0-6.8-5.4-11.9-12.1-11.9c-6.6,0.1-12.1,5.7-12,12.1
			c0.1,6.6,5.7,12,12.2,11.9C198.2,529.4,203.5,524,203.4,517.3z M203.3,467.4c-0.1-6.8-5.4-11.9-12-11.8c-6.8,0-12.1,5.6-12,12.5
			c0.2,6.6,5.7,11.8,12.3,11.6C198.1,479.4,203.4,474,203.3,467.4z M268,499.1c6.7-0.1,11.9-5.4,11.9-12s-5.4-12-11.9-12
			c-6.8,0-12.2,5.6-12.1,12.3C255.9,494,261.3,499.2,268,499.1z M268.2,525c-6.4-0.1-12,5.4-12.2,11.8c-0.2,6.6,5.1,12,11.7,12.2
			c7,0.2,12.3-5,12.3-11.9C280,530.2,274.9,525,268.2,525z M178.4,556.3c-0.1-6.7-5.6-12-12.1-11.9c-6.6,0.1-12,5.6-11.9,12.2
			c0,6.7,5.5,11.9,12.1,11.8C173.2,568.3,178.5,563,178.4,556.3z M222.8,574.7c0.2-6.8-4.8-12.2-11.5-12.6
			c-6.4-0.3-12.2,5-12.6,11.6c-0.3,6.4,5,12.2,11.7,12.5C217,586.6,222.6,581.3,222.8,574.7z M223.5,440.2c6.8,0,12.1-5.5,12-12
			c-0.1-6.7-5.7-12-12.1-12c-6.6,0.1-12,5.6-11.9,12.2C211.4,434.9,216.7,440.2,223.5,440.2z M262.6,419.6c-6.4,0-12,5.4-12.2,11.9
			c-0.1,6.6,5.2,12,11.8,12.1c7,0.1,12.3-5.1,12.3-12C274.4,425,269.3,419.7,262.6,419.6z M370.7,487.1c0-6.7-5.4-12.1-11.9-12.1
			c-6.4,0-12,5.6-12.1,12.1c-0.1,6.6,5.2,11.9,12,11.9C365.5,499.2,370.7,493.9,370.7,487.1z M370.7,536.8
			c-0.1-6.7-5.6-12-12.1-11.9c-6.4,0.1-11.9,5.8-11.9,12.3c0.1,6.7,5.5,11.8,12.2,11.7C365.7,548.9,370.7,543.6,370.7,536.8z
			 M438.8,407.3c-6.7,0.1-12,5.5-11.9,12.1c0,6.6,5.6,12,12.1,12c6.7,0,11.9-5.5,11.9-12.1C450.8,412.4,445.6,407.3,438.8,407.3z
			 M364.1,419.8c-6.6,0.1-12.1,5.7-12,12.1c0,6.6,5.5,11.8,12.2,11.8s11.9-5.2,11.9-12C376.2,425.1,370.8,419.7,364.1,419.8z
			 M447.3,467.6c0.1-6.8-5-12.1-11.8-12.2c-6.7-0.1-12.2,5.2-12.3,11.8c-0.1,6.4,5.4,12.1,11.9,12.3
			C441.5,479.7,447.2,474.2,447.3,467.6z M435.4,505.2c-6.7,0-12.1,5.5-12.2,11.9c0,6.4,5.6,12,12,12.1c6.6,0.1,12-5.4,12-12
			C447.3,510.5,442.1,505.2,435.4,505.2z M427.7,574.4c0.1-6.7-5.1-12.1-11.8-12.2c-6.4-0.1-12.1,5.4-12.2,11.9
			c-0.1,6.7,5.2,12.1,11.9,12.2C422.2,586.4,427.6,581,427.7,574.4z M388.5,590.4c0.1-6.8-5.1-12-11.8-12.1c-6.8,0-12,5-12.1,11.8
			c-0.1,6.7,5.1,12.1,11.8,12.2C382.9,602.4,388.4,597.1,388.5,590.4z M242.7,528.3c0.1-6.7-5.2-12.2-11.8-12.3s-12.1,5.2-12.2,11.9
			c-0.1,6.7,5,12.1,11.8,12.2C236.9,540.4,242.6,534.9,242.7,528.3z M408.3,528.1c0-6.7-5.4-12.1-12-12.1s-12.1,5.5-12.1,12
			c0,6.6,5.5,12.1,12,12.1C402.8,540.1,408.3,534.8,408.3,528.1z M460.4,568.5c6.7-0.1,11.9-5.5,11.7-12.2
			c-0.1-6.7-5.7-12-12.2-11.8c-6.6,0.2-12,5.9-11.9,12.3C448.3,563.2,453.8,568.5,460.4,568.5z M199.8,419.5c0-7-4.9-12-11.8-12
			c-6.7,0-12.1,5.2-12.1,11.9c-0.1,6.6,5.4,12.1,12,12.1S199.8,426.3,199.8,419.5z M403.5,440.4c6.6,0,12.1-5.5,12.1-12.1
			s-5.6-12.1-12.1-12.1c-6.7,0-12,5.5-12,12.1C391.4,435,396.8,440.5,403.5,440.4z M408.2,479.7c-0.1-6.6-5.8-12-12.3-11.9
			c-6.6,0.2-11.8,5.7-11.7,12.5c0.1,6.7,5.5,11.8,12.2,11.7C403,491.8,408.3,486.4,408.2,479.7z"/>
		<path d="M186.1,361.8c0-10.8,0-21.2,0-32c84.2,0,168.1,0,252.3,0c0,10.6,0,21.1,0,32C354.5,361.8,270.6,361.8,186.1,361.8z"/>
	</g>
</g>
<g>
	<g>
		<path fill="#C4BA98" stroke="#000000" stroke-width="0.5" stroke-miterlimit="10" d="M485,665.1v-11.8h9.2v2.1h-7.1v3.1h3.8v2.2
			h-3.8v3.6L485,665.1z"/>
		<path fill="#C4BA98" stroke="#000000" stroke-width="0.5" stroke-miterlimit="10" d="M496.6,656.1c0-1.1,0.2-1.8,0.5-2.2
			c0.3-0.4,0.9-0.6,1.8-0.6h6.7c0.9,0,1.5,0.2,1.8,0.6c0.3,0.4,0.5,1.1,0.5,2.2v6.2c0,1.1-0.2,1.8-0.5,2.2c-0.3,0.4-0.9,0.6-1.8,0.6
			h-6.7c-0.9,0-1.5-0.2-1.8-0.6s-0.5-1.1-0.5-2.2V656.1z M498.7,662.9h7v-7.5h-7V662.9z"/>
		<path fill="#C4BA98" stroke="#000000" stroke-width="0.5" stroke-miterlimit="10" d="M512.2,663.2v-9.9h7.8c0.7,0,1.3,0.2,1.6,0.5
			c0.3,0.4,0.5,0.9,0.5,1.7v2.8c0,0.8-0.2,1.4-0.5,1.7c-0.3,0.4-0.8,0.5-1.6,0.5h-1.2l4.2,4.4h-3l-3.7-4.4h-2v2.1L512.2,663.2z
			 M519.1,655.4h-4.8v3.3h4.8c0.4,0,0.6-0.1,0.8-0.2c0.1-0.1,0.2-0.4,0.2-0.7v-1.4c0-0.3-0.1-0.6-0.2-0.7
			C519.7,655.4,519.4,655.4,519.1,655.4z"/>
	</g>
	<g>
		<path fill="#C4BA98" stroke="#000000" stroke-width="0.5" stroke-miterlimit="10" d="M469,688.8c0.8-0.1,1.2,0.3,1.2,1.1v1.4h2.3
			c0.9,0,1.1,0.3,0.6,0.9h-2.9c0,1.5,0.1,2.3,0.3,2.3c0.4,0.1,0.8,0,1.1-0.2c1-0.2,1.5,0.2,1.4,1.1c-0.1,0.7-0.2,1.7-0.2,3.1
			c0.1,1-0.4,1.4-1.5,1.1c-1.2-0.4-2.5-0.4-3.8,0c-0.8,0.5-1.3,0.3-1.4-0.8c-0.1-1-0.3-2.1-0.6-3.4c0.1-0.8,0.7-1.1,1.7-0.8
			c0.8,0.1,1.2-0.1,1.2-0.6c0-1.1,0-2.2-0.2-3.2C468.1,689.3,468.3,688.7,469,688.8z M467.5,696.1c-0.1,1.2,0.1,1.9,0.6,2
			c2.3,0.3,3.4,0,3.2-1.1c0.2-1.4-0.8-2-2.9-1.7C467.8,695.4,467.5,695.6,467.5,696.1z M473.6,692.6c0.4,0,0.7,0,0.8-0.2
			c-0.1-1.1-0.2-2.2-0.2-3.2c-0.1-0.7,0.3-1,1.1-0.9c0.5,0,0.8,0.3,0.8,0.8c-0.1,0.9-0.1,2,0,3.2c3.4-0.5,5-0.5,4.9,0
			c0.2,0.3,0.2,0.5-0.2,0.5c-1.5,0.2-3.1,0.5-4.6,0.8c0.3,0.9,0.6,1.7,0.9,2.3c0.4-0.5,0.8-1.1,1.2-1.8c0.3-0.3,0.6-0.4,0.9-0.3
			c0.4,0.3,0.6,0.7,0.5,1.1c-0.6,0.8-1.2,1.5-1.7,2c1.1,1.1,3,1.6,5.5,1.5c0.2,0.1-0.1,0.6-0.9,1.5c-1.1,1.1-2.3,1.3-3.5,0.6
			c-0.5-0.4-1.3-1.2-2.4-2.3c-1,0.7-2.1,1.1-3.2,1.2c-0.5-0.1-0.6-0.3-0.3-0.6c1-0.3,1.9-0.9,2.8-1.8c-0.4-0.6-0.8-1.6-1.2-3.1
			c-0.5,0.1-1,0.3-1.4,0.5c-0.6,0.1-0.9-0.2-0.8-0.9C472.6,693,472.9,692.7,473.6,692.6z M478.5,689.1c0.3-0.7,0.7-0.9,1.2-0.6
			c0.5,0.3,0.7,0.7,0.5,1.2c-0.4,0.6-1.1,1-2,1.1c-0.4,0-0.6-0.2-0.5-0.5C478.1,689.9,478.3,689.5,478.5,689.1z"/>
		<path fill="#C4BA98" stroke="#000000" stroke-width="0.5" stroke-miterlimit="10" d="M490.6,692.6c0.5,0,0.9,0.2,1.1,0.5
			c-0.1,0.4-0.5,0.6-1.1,0.5c-0.6,0-1.2,0-1.8,0.2c0.2,0.3,0.1,0.6-0.3,0.9l-0.8,0.8c-0.3,0.4,0,0.7,0.8,0.8
			c0.6,0.1,1.1-0.1,1.5-0.6l-0.5-0.9c0.1-0.3,0.3-0.4,0.6-0.3c0.3,0.2,0.6,0.4,0.9,0.6c0.2,0.4,0.5,0.9,0.8,1.4
			c-0.1,0.2-0.2,0.3-0.3,0.3c-0.4,0.1-0.8-0.1-1.2-0.6c-0.6,1.1-1.3,1.5-2,1.2c-0.6-0.4-1.2-0.5-1.7-0.2c-0.2,0-0.4-0.2-0.6-0.5
			c-0.1-0.4,0.1-0.8,0.6-1.2c0.9-0.8,1.2-1.4,0.9-1.7c-0.4-0.1-1,0-1.8,0.3c-0.3,0.2-0.5,0.2-0.6-0.2c0.1-0.7,0.5-1.1,1.1-1.2
			L490.6,692.6L490.6,692.6z M490.6,690.5c0.3,0,0.5,0.2,0.6,0.5c0,0.3-0.1,0.5-0.3,0.5h-2.4c-0.7,0-1.4,0-2,0.2
			c-0.2-0.1-0.3-0.3-0.3-0.6c0.1-0.3,0.3-0.6,0.6-0.8C487.5,690.4,488.8,690.5,490.6,690.5z M494.6,694.7c-0.3-0.1-0.6-0.1-0.9,0
			c-0.3,0.2-0.6,0.4-0.9,0.5c-0.2,0-0.4,0-0.5-0.2c-0.2-1.5-0.4-2.9-0.6-4.1c-0.1-0.6,0.2-0.9,0.9-0.9c0.3,0.2,0.8,0.3,1.5,0.2
			c0.3-0.3,0.7-0.8,1.1-1.5c0.1-0.2,0.3-0.3,0.6-0.3c0.9,0.3,1.2,0.7,0.8,1.1c-0.3,0.3-0.6,0.6-0.8,0.8c0.7,0,1.6,0.1,2.8,0.3
			c0.3-0.1,0.6-0.2,0.8-0.3c0.3-0.1,0.6,0,0.8,0.2c0.4,0.3,0.5,0.8,0.3,1.4c-0.3,0.9-0.5,1.9-0.6,2.9l-0.5,0.3
			c0.4,0.3,0.5,0.6,0.2,0.8c-0.2,0.2-0.4,0.4-0.6,0.6c-0.2,0.1-0.2,0.3,0.2,0.5c0.4,0.1,0.8,0,1.1-0.2c-0.4-0.3-0.5-0.5-0.2-0.6
			c0.4,0,0.7,0,0.9,0.2c0.2,0.3,0.4,0.6,0.6,0.9c-0.1,0.1-0.3,0.2-0.5,0.3l-0.6-0.5c-0.2,0.6-0.6,0.9-1.1,0.8
			c-0.4-0.3-0.8-0.4-1.2-0.3c-0.3-0.2-0.4-0.5-0.3-0.8c0.2-0.2,0.4-0.5,0.6-0.8c0.1-0.2,0.3-0.5,0.5-0.9c-0.8-0.1-1.8-0.2-2.9-0.2
			c-0.7,2.3-2.1,4-4.1,5c-1.6,0.6-2.8,0.4-3.7-0.8c0-0.1,0.2-0.2,0.6-0.2C491.9,698.6,493.9,697.2,494.6,694.7z M495,690.9
			c-0.7,0-1.3,0.1-1.7,0.3c-0.2,0.6-0.1,0.9,0.3,0.9l1.7-0.2C495.5,691.5,495.3,691.1,495,690.9z M495.2,692.7c-0.5,0-1.1,0-1.8,0.2
			c0,0.7,0.2,1.1,0.5,1.1l1.1-0.2L495.2,692.7z M496.3,695.5c0.1-0.4,0.3-0.6,0.6-0.6c0.2,0,0.4,0.1,0.5,0.3
			c-0.2,0.4-0.4,0.8-0.5,1.2c0,0.4,0,0.7,0.2,0.9c0.4,0.5,1.2,0.9,2.4,1.1c1,0.1,2,0,2.9-0.3c0.6-0.3,1-0.4,1.2-0.2
			c-0.1,0.6-0.5,1.3-1.1,2.1c-0.7,0.6-1.3,0.8-1.8,0.6c-1.7-0.3-3.2-1-4.3-2.1c-0.5-0.6-0.7-1.2-0.6-1.7
			C496,696.4,496.2,695.9,496.3,695.5z M498.6,694.1c0.2-0.4,0.3-0.8,0.2-1.1c-0.4-0.2-1.2-0.3-2.3-0.3c-0.1,0.4-0.2,0.8-0.2,1.2
			C497.1,694.1,497.8,694.1,498.6,694.1z M496.6,692l1.7,0.2c0.4,0.1,0.6-0.1,0.6-0.6c0-0.4-0.6-0.6-1.8-0.6
			C496.7,691,496.6,691.4,496.6,692z"/>
		<path fill="#C4BA98" stroke="#000000" stroke-width="0.5" stroke-miterlimit="10" d="M510,691.8c0.2-0.4,0.4-0.6,0.5-0.6
			c0.5-0.1,0.7,0.3,0.5,1.1c-0.3,0.9-0.8,1.9-1.4,2.9c-0.5,0.8-1,1.4-1.5,1.8c-1,0.9-2.1,0.9-3.2-0.2c-0.3-0.3-0.2-0.6,0.3-0.9
			C506.9,695.1,508.5,693.8,510,691.8z M513.5,688.8c1-0.1,1.5,0.5,1.4,1.7c-0.1,2.5,0,5.4,0.2,8.6c0,1.2-1,1.8-2.9,1.7
			c-1-0.1-2.2-0.7-3.5-1.7c-0.2-0.5-0.1-0.8,0.3-0.8c1.9,0.6,3.1,0.7,3.5,0.3c0.3-0.2,0.4-3.1,0.3-8.6
			C512.8,689.2,513,688.8,513.5,688.8z M516,692.3c-0.3-0.4-0.3-0.7,0.2-0.9c0.2-0.1,0.4,0,0.6,0.2c1.4,1.8,3.6,3.4,6.4,4.7
			c-0.3,0.5-0.6,0.9-0.9,1.1c-0.9,0.8-1.8,0.8-2.6,0C518.3,695.7,517.1,694,516,692.3z"/>
		<path fill="#C4BA98" stroke="#000000" stroke-width="0.5" stroke-miterlimit="10" d="M531.1,694.4c-0.3,1-0.6,1.8-0.9,2.3l2-0.3
			c-0.1-0.4-0.2-0.8-0.2-1.2c0.1-0.4,0.5-0.7,1.1-0.8c0.4,0,0.8,0.1,1.1,0.3c0.4,0.1,0.7,0.1,0.9,0v-5c0-0.6,0.2-1,0.6-1.1
			c1,0,1.5,0.4,1.5,1.1c-0.1,0.5-0.2,0.9-0.2,1.2c2.1,0.1,3.9,0.2,5.3,0.2c0,0.5-0.2,1-0.5,1.4c-0.4,0.4-0.8,0.5-1.2,0.3
			c-1.6-0.5-2.8-0.7-3.7-0.5c-0.2,0.8-0.2,1.6,0,2.4c0.7,0.1,1.3,0,1.7-0.2c1.3-0.4,2,0,2,1.1c-0.2,0.8-0.3,1.8-0.3,3.1
			c0.2,1.3-0.3,1.8-1.4,1.4c-1.4-0.2-3-0.3-4.6-0.2c-1.2,0.6-1.9,0.3-2-1.1c0-0.3,0-0.9-0.2-1.7c-2,0.9-4.4,1.6-7.2,2.1
			c-0.9,0.2-1.3-0.2-1.2-1.1c0-0.5,0.5-0.8,1.5-0.9c1.1-0.1,2.4-0.3,3.8-0.5c0.3-1.1,0.5-2.2,0.5-3.2c0-0.7,0.2-1.1,0.6-1.1
			C531.2,692.7,531.4,693.3,531.1,694.4z M529.9,689.7c-0.1,1.2,0,1.8,0.3,1.7l2.1,0.2c0.5,0.4,0.6,0.7,0.2,0.9
			c-0.2,0.1-0.6,0.2-1.1,0.2c-2-0.4-4.1-0.3-6.3,0.5c-0.4,0.1-0.6,0-0.6-0.5c0.2-0.9,0.6-1.3,1.2-1.2c0.8,0.2,1.4,0.3,1.8,0.2
			c0.3-0.1,0.4-0.7,0.3-1.8c0.1-0.4,0.3-0.6,0.6-0.6C529.1,689,529.6,689.2,529.9,689.7z M528.4,696.4c-0.2,0.3-0.5,0.4-0.8,0.2
			c-0.6-0.9-1-1.7-1.1-2.4c-0.1-0.7,0.2-1.1,0.8-1.2c0.5-0.1,0.8,0.1,0.8,0.6C528.2,694.5,528.3,695.5,528.4,696.4z M536.9,695.8
			c-1.4-0.1-2.3,0-2.8,0.3c-0.3,0.7-0.3,1.4,0,2.1c0.1,0.5,1.2,0.7,3.4,0.5c0.9,0,1.4-0.5,1.4-1.5
			C538.9,696.2,538.3,695.7,536.9,695.8z"/>
	</g>
	
		<linearGradient id="SVGID_1_" gradientUnits="userSpaceOnUse" x1="417.0043" y1="246.3432" x2="417.0043" y2="246.3432" gradientTransform="matrix(1.0929 0 0 -1.0929 0 955.5428)">
		<stop  offset="0" style="stop-color:#C4BA98"/>
		<stop  offset="1.474962e-002" style="stop-color:#CEC5A9"/>
		<stop  offset="4.332456e-002" style="stop-color:#DDD7C4"/>
		<stop  offset="7.615717e-002" style="stop-color:#EAE6DA"/>
		<stop  offset="0.1145" style="stop-color:#F3F1EB"/>
		<stop  offset="0.162" style="stop-color:#FAF9F6"/>
		<stop  offset="0.2285" style="stop-color:#FEFEFD"/>
		<stop  offset="0.4133" style="stop-color:#FFFFFF"/>
		<stop  offset="0.4696" style="stop-color:#DDDBD8"/>
		<stop  offset="0.5499" style="stop-color:#B2AFA6"/>
		<stop  offset="0.6258" style="stop-color:#908B7F"/>
		<stop  offset="0.6952" style="stop-color:#787263"/>
		<stop  offset="0.7558" style="stop-color:#696252"/>
		<stop  offset="0.801" style="stop-color:#645D4C"/>
		<stop  offset="0.8499" style="stop-color:#776F5B"/>
		<stop  offset="0.9484" style="stop-color:#A89F82"/>
		<stop  offset="1" style="stop-color:#C4BA98"/>
	</linearGradient>
	
		<linearGradient id="SVGID_2_" gradientUnits="userSpaceOnUse" x1="417.0043" y1="246.3432" x2="417.0043" y2="246.3432" gradientTransform="matrix(1.0929 0 0 -1.0929 0 955.5428)">
		<stop  offset="0" style="stop-color:#C4BA98"/>
		<stop  offset="1.389108e-002" style="stop-color:#C7BD9D"/>
		<stop  offset="0.1655" style="stop-color:#E5E1D2"/>
		<stop  offset="0.2794" style="stop-color:#F8F7F3"/>
		<stop  offset="0.3418" style="stop-color:#FFFFFF"/>
		<stop  offset="0.4046" style="stop-color:#E1E0DC"/>
		<stop  offset="0.5083" style="stop-color:#B5B1A9"/>
		<stop  offset="0.6058" style="stop-color:#928D81"/>
		<stop  offset="0.6943" style="stop-color:#797364"/>
		<stop  offset="0.7708" style="stop-color:#696352"/>
		<stop  offset="0.8265" style="stop-color:#645D4C"/>
		<stop  offset="0.8691" style="stop-color:#776F5B"/>
		<stop  offset="0.955" style="stop-color:#A89F82"/>
		<stop  offset="1" style="stop-color:#C4BA98"/>
	</linearGradient>
	<path fill="url(#SVGID_1_)" stroke="url(#SVGID_2_)" stroke-width="0.5" stroke-miterlimit="10" d="M455.7,686.3"/>
	
		<linearGradient id="SVGID_3_" gradientUnits="userSpaceOnUse" x1="425.2093" y1="252.5561" x2="425.2093" y2="252.5561" gradientTransform="matrix(1.0929 0 0 -1.0929 0 955.5428)">
		<stop  offset="0" style="stop-color:#C4BA98"/>
		<stop  offset="1.474962e-002" style="stop-color:#CEC5A9"/>
		<stop  offset="4.332456e-002" style="stop-color:#DDD7C4"/>
		<stop  offset="7.615717e-002" style="stop-color:#EAE6DA"/>
		<stop  offset="0.1145" style="stop-color:#F3F1EB"/>
		<stop  offset="0.162" style="stop-color:#FAF9F6"/>
		<stop  offset="0.2285" style="stop-color:#FEFEFD"/>
		<stop  offset="0.4133" style="stop-color:#FFFFFF"/>
		<stop  offset="0.4696" style="stop-color:#DDDBD8"/>
		<stop  offset="0.5499" style="stop-color:#B2AFA6"/>
		<stop  offset="0.6258" style="stop-color:#908B7F"/>
		<stop  offset="0.6952" style="stop-color:#787263"/>
		<stop  offset="0.7558" style="stop-color:#696252"/>
		<stop  offset="0.801" style="stop-color:#645D4C"/>
		<stop  offset="0.8499" style="stop-color:#776F5B"/>
		<stop  offset="0.9484" style="stop-color:#A89F82"/>
		<stop  offset="1" style="stop-color:#C4BA98"/>
	</linearGradient>
	
		<linearGradient id="SVGID_4_" gradientUnits="userSpaceOnUse" x1="425.2093" y1="252.5561" x2="425.2093" y2="252.5561" gradientTransform="matrix(1.0929 0 0 -1.0929 0 955.5428)">
		<stop  offset="0" style="stop-color:#C4BA98"/>
		<stop  offset="1.389108e-002" style="stop-color:#C7BD9D"/>
		<stop  offset="0.1655" style="stop-color:#E5E1D2"/>
		<stop  offset="0.2794" style="stop-color:#F8F7F3"/>
		<stop  offset="0.3418" style="stop-color:#FFFFFF"/>
		<stop  offset="0.4046" style="stop-color:#E1E0DC"/>
		<stop  offset="0.5083" style="stop-color:#B5B1A9"/>
		<stop  offset="0.6058" style="stop-color:#928D81"/>
		<stop  offset="0.6943" style="stop-color:#797364"/>
		<stop  offset="0.7708" style="stop-color:#696352"/>
		<stop  offset="0.8265" style="stop-color:#645D4C"/>
		<stop  offset="0.8691" style="stop-color:#776F5B"/>
		<stop  offset="0.955" style="stop-color:#A89F82"/>
		<stop  offset="1" style="stop-color:#C4BA98"/>
	</linearGradient>
	<path fill="url(#SVGID_3_)" stroke="url(#SVGID_4_)" stroke-width="0.5" stroke-miterlimit="10" d="M464.7,679.5"/>
	<g>
		<g>
			<path fill="#C4BA98" stroke="#000000" stroke-width="0.5" stroke-miterlimit="10" d="M460.7,671.3h-5.9v4.6h3.2v3.2h-3.2v5.6
				l-1.8,0.8v-17.3h7.7V671.3"/>
			<path fill="#C4BA98" stroke="#000000" stroke-width="0.5" stroke-miterlimit="10" d="M462.9,682.6v-0.9v-13.5h6.5
				c0.6,0,1,0.3,1.3,0.8c0.3,0.5,0.4,1.4,0.4,2.6v4.1c0,1.2-0.1,2-0.4,2.6c-0.3,0.5-0.7,0.8-1.3,0.8h-1l3.5,6.6h-2.5l-3-6.6h-1.7
				v2.2v1L462.9,682.6z M468.6,671.3h-4v4.9h3.9c0.3,0,0.5-0.1,0.6-0.3c0.1-0.2,0.2-0.6,0.2-1.1v-2.1c0-0.5-0.1-0.9-0.2-1.1
				C469.1,671.4,468.9,671.3,468.6,671.3z"/>
			<path fill="#C4BA98" stroke="#000000" stroke-width="0.5" stroke-miterlimit="10" d="M474.7,685.7v-17.5h1.8v17.5H474.7z"/>
			<path fill="#C4BA98" stroke="#000000" stroke-width="0.5" stroke-miterlimit="10" d="M480.3,685.7v-17.5h7.7v3h-6v3.9h3.5v3H482
				v4.3h6.1v3.3L480.3,685.7L480.3,685.7z"/>
			<path fill="#C4BA98" stroke="#000000" stroke-width="0.5" stroke-miterlimit="10" d="M491.3,685.7v-17.5h1.2l5.3,10.3
				c0.2,0.3,0.3,0.7,0.5,1c0.1,0.3,0.3,0.6,0.4,0.9c0-1,0-1.7-0.1-2.1c0-0.4,0-0.7,0-0.9v-9.2h1.6v17.5H499l-5.5-10.8
				c-0.1-0.3-0.3-0.5-0.3-0.8c-0.1-0.2-0.2-0.5-0.3-0.7c0,0.5,0,1.1,0,1.5c0,0.5,0,0.9,0,1.3v9.4H491.3L491.3,685.7z"/>
			<path fill="#C4BA98" stroke="#000000" stroke-width="0.5" stroke-miterlimit="10" d="M504.1,685.7v-17.5h4.9
				c1.4,0,2.5,0.8,3.2,2.2c0.8,1.5,1.1,3.6,1.1,6.4c0,1.6-0.2,3.1-0.4,4.4c-0.3,1.3-0.7,2.3-1.2,3.1c-0.3,0.5-0.7,0.8-1.2,1
				c-0.5,0.2-1.1,0.3-1.9,0.3L504.1,685.7L504.1,685.7z M505.8,682.5h2.3c1.2,0,2.1-0.4,2.6-1.3c0.5-0.9,0.8-2.3,0.8-4.3
				c0-1.8-0.2-3.1-0.6-4.1c-0.4-0.9-1-1.4-1.9-1.4h-3.1L505.8,682.5L505.8,682.5z"/>
			<path fill="#C4BA98" stroke="#000000" stroke-width="0.5" stroke-miterlimit="10" d="M523,671.3h-5v3.8h4.7
				c0.7,0,1.2,0.3,1.5,0.9c0.3,0.6,0.4,1.7,0.4,3.3v2.4c0,1.6-0.1,2.7-0.4,3.3c-0.3,0.6-0.8,0.9-1.5,0.9h-4.7
				c-0.7,0-1.2-0.3-1.5-0.9c-0.3-0.6-0.4-1.7-0.4-3.3v-0.5l1.6-0.8v2.1h5.3v-4h-4.7c-0.7,0-1.2-0.3-1.5-0.9
				c-0.3-0.6-0.4-1.7-0.4-3.3v-1.9c0-1.6,0.1-2.7,0.4-3.3s0.8-0.9,1.5-0.9h4.3c0.7,0,1.2,0.3,1.5,0.8c0.3,0.6,0.4,1.6,0.4,3v0.4
				l-1.6,0.8L523,671.3L523,671.3z"/>
			<path fill="#C4BA98" stroke="#000000" stroke-width="0.5" stroke-miterlimit="10" d="M535.5,683.1v-4.9H530v6.9l-1.8,0.6v-17.5
				h1.8v6.8h5.5v-6.8h1.8v14.2L535.5,683.1z"/>
			<path fill="#C4BA98" stroke="#000000" stroke-width="0.5" stroke-miterlimit="10" d="M541.2,685.7v-17.5h1.8v17.5H541.2z"/>
			<path fill="#C4BA98" stroke="#000000" stroke-width="0.5" stroke-miterlimit="10" d="M546.8,685.7v-17.5h6.5c0.6,0,1,0.3,1.3,0.8
				c0.3,0.5,0.4,1.4,0.4,2.6v3.9c0,1.2-0.1,2-0.4,2.6c-0.3,0.5-0.7,0.8-1.3,0.8h-4.7v6L546.8,685.7z M552.5,671.3h-4v4.6h3.9
				c0.3,0,0.5-0.1,0.6-0.3c0.1-0.2,0.2-0.6,0.2-1.1v-1.9c0-0.5-0.1-0.9-0.2-1.1C553,671.4,552.8,671.3,552.5,671.3z"/>
		</g>
	</g>
</g>
</svg>
