<?xml version="1.0" encoding="utf-8"?>
<!-- Generator: Adobe Illustrator 18.1.1, SVG Export Plug-In . SVG Version: 6.00 Build 0)  -->
<svg version="1.1" id="图层_1" xmlns="http://www.w3.org/2000/svg" xmlns:xlink="http://www.w3.org/1999/xlink" x="0px" y="0px"
	 viewBox="0 0 560 560" enable-background="new 0 0 560 560" xml:space="preserve">
	 <style type="text/css">
	.st0{fill:#FFFFFF;}
</style>
<g>
	<g>
		<path class="st0" d="M473.5,476.2c-106.1,106.1-270.4,105.2-376.2-0.1c2.3-3,4.7-5.8,6.8-8.9c11.4-16.8,16.9-35.6,16.9-55.8
			c0.1-119.3,0.1-238.6,0-357.9c0-4.1,1.3-6.2,4.9-8.1c32.7-16.7,67.3-27,103.4-32.7c61.5-9.7,121.5-3.7,180,17.6
			c12.1,4.4,23.7,10.4,35.6,15.5c3.2,1.4,4,3.4,4,6.8c-0.1,118.7-0.2,237.5,0,356.2c0,24.6,7.3,46.8,23.6,65.8
			C472.9,475,473.1,475.5,473.5,476.2z M326.4,502.6c-5.3-7.4-10.5-14.3-15.2-21.4c-1.4-2.2-2.5-5.1-2.5-7.7
			c-0.1-60.6-0.1-121.1-0.1-181.7c0-3.6,0.2-7.3,0.9-10.9c1.8-9.5,9-16.2,18.1-16.8c3.5-0.2,7-0.4,10.5-0.4c20.6,0,41.1,0,61.7,0
			c9.2,0,18.6-1,27.1,5.3c-0.4-13.6,3-25.2,11-35.4c0.6-0.8,0.2-2.8-0.2-4.1c-2.3-6.9-5.4-13.6-6.8-20.7c-1.1-5.7-0.2-11.7-0.2-18.2
			c-5.5,6.5-11.6,11.5-19.9,11.6c-26.3,0.2-52.7,0.2-79,0.1c-11.5-0.1-18.4-5.2-22.3-15.9c-0.8-2.2-1.6-4.6-1.7-6.9
			c-0.4-5.3-0.6-10.7-0.6-16c0-17.6,0-35.2,0.5-52.8c0.1-2.8,2.1-6,4.2-8.2c5-5.2,10.6-9.9,15.7-14.5
			c-13.2-13.4-25.9-26.3-38.6-39.2c-2.4-2.4-3.7-0.5-5.2,1c-10.9,10.8-21.8,21.6-32.7,32.4c-1.8,1.7-3.7,3.3-5.7,5.2
			c5.4,5,10.5,9.3,15,14.1c2,2.2,4,5.5,4.1,8.3c0.3,23.1,0.7,46.2-0.1,69.3c-0.4,12.8-6.9,23.8-24.9,23.4c-24.5-0.5-49-0.3-73.5,0
			c-7.6,0.1-13.6-2.9-19-7.6c-1.2-1.1-2.1-2.5-3.8-4.6c-0.1,2-0.2,2.5-0.1,3c1.8,13-1,25.1-7.2,36.7c-0.6,1.1-0.2,3.5,0.7,4.6
			c4.7,6.8,8.1,14.2,9.2,22.4c0.5,3.8,0.7,7.7,1,10.4c5.6-1.2,11.1-3.4,16.7-3.4c26.9-0.3,53.8,0,80.7,0.2
			c7.6,0.1,13.3,3.9,16.2,10.9c1.6,3.9,2.7,8.4,2.7,12.7c0.2,62.4,0.1,124.8,0,187.2c0,1.9-0.8,4.2-1.8,5.8
			c-4.8,7.3-9.8,14.4-14.9,22c13.1,11.7,25.9,23.2,38.9,34.6c0.7,0.6,2.8,0.4,3.6-0.3C301.2,525.7,313.6,514.3,326.4,502.6z
			 M221.9,356.9c0-6-4.9-11-10.9-11.1c-6-0.1-11.3,5.2-11.3,11.3c0.1,6,5.1,10.8,11.2,10.8C217,367.9,221.9,363,221.9,356.9z
			 M228.8,446.8c-6.1,0-11,4.9-11,11c0,6.1,5,11,11.1,11c6.1-0.1,11-5.1,11-11.1C239.8,451.6,235,446.8,228.8,446.8z M186.1,391
			c0-6.2-4.9-10.9-11.1-10.9c-6,0.1-11.1,5.2-11,11.1c0.1,6,5.2,11,11.2,10.9C181.4,402.1,186.2,397.1,186.1,391z M186,345.3
			c-0.1-6.2-4.9-10.9-11-10.8c-6.2,0-11.1,5.1-11,11.4c0.2,6,5.2,10.8,11.3,10.6C181.3,356.3,186.1,351.4,186,345.3z M245.2,374.3
			c6.1-0.1,10.9-4.9,10.9-11c0-6.1-4.9-11-10.9-11c-6.2,0-11.2,5.1-11.1,11.3C234.2,369.7,239.1,374.4,245.2,374.3z M245.4,398
			c-5.9-0.1-11,4.9-11.2,10.8c-0.2,6,4.7,11,10.7,11.2c6.4,0.2,11.3-4.6,11.3-10.9C256.2,402.8,251.5,398,245.4,398z M163.2,426.7
			c-0.1-6.1-5.1-11-11.1-10.9c-6,0.1-11,5.1-10.9,11.2c0,6.1,5,10.9,11.1,10.8C158.5,437.7,163.3,432.8,163.2,426.7z M203.9,443.5
			c0.2-6.2-4.4-11.2-10.5-11.5c-5.9-0.3-11.2,4.6-11.5,10.6c-0.3,5.9,4.6,11.2,10.7,11.4C198.6,454.4,203.7,449.6,203.9,443.5z
			 M204.5,320.4c6.2,0,11.1-5,11-11c-0.1-6.1-5.2-11-11.1-11c-6,0.1-11,5.1-10.9,11.2C193.4,315.6,198.3,320.4,204.5,320.4z
			 M240.3,301.6c-5.9,0-11,4.9-11.2,10.9c-0.1,6,4.8,11,10.8,11.1c6.4,0.1,11.3-4.7,11.3-11C251.1,306.5,246.4,301.7,240.3,301.6z
			 M339.2,363.4c0-6.1-4.9-11.1-10.9-11.1c-5.9,0-11,5.1-11.1,11.1c-0.1,6,4.8,10.9,11,10.9C334.4,374.4,339.2,369.6,339.2,363.4z
			 M339.2,408.8c-0.1-6.1-5.1-11-11.1-10.9c-5.9,0.1-10.9,5.3-10.9,11.3c0.1,6.1,5,10.8,11.2,10.7
			C334.6,419.9,339.2,415.1,339.2,408.8z M401.5,290.3c-6.1,0.1-11,5-10.9,11.1c0,6,5.1,11,11.1,11c6.1,0,10.9-5,10.9-11.1
			C412.5,295,407.7,290.3,401.5,290.3z M333.2,301.8c-6,0.1-11.1,5.2-11,11.1c0,6,5,10.8,11.2,10.8c6.2,0,10.9-4.8,10.9-11
			C344.2,306.6,339.3,301.7,333.2,301.8z M409.3,345.5c0.1-6.2-4.6-11.1-10.8-11.2c-6.1-0.1-11.2,4.8-11.3,10.8
			c-0.1,5.9,4.9,11.1,10.9,11.3C404,356.6,409.2,351.6,409.3,345.5z M398.4,379.9c-6.1,0-11.1,5-11.2,10.9c0,5.9,5.1,11,11,11.1
			c6,0.1,11-4.9,11-11C409.3,384.8,404.5,379.9,398.4,379.9z M391.4,443.2c0.1-6.1-4.7-11.1-10.8-11.2c-5.9-0.1-11.1,4.9-11.2,10.9
			c-0.1,6.1,4.8,11.1,10.9,11.2C386.3,454.2,391.3,449.3,391.4,443.2z M355.5,457.9c0.1-6.2-4.7-11-10.8-11.1
			c-6.2,0-11,4.6-11.1,10.8c-0.1,6.1,4.7,11.1,10.8,11.2C350.4,468.9,355.4,464,355.5,457.9z M222.1,401.1
			c0.1-6.1-4.8-11.2-10.8-11.3c-6-0.1-11.1,4.8-11.2,10.9c-0.1,6.1,4.6,11.1,10.8,11.2C216.8,412.1,222,407.1,222.1,401.1z
			 M373.6,400.9c0-6.1-4.9-11.1-11-11.1c-6,0-11.1,5-11.1,11c0,6,5,11.1,11,11.1C368.6,411.9,373.6,407,373.6,400.9z M421.3,437.8
			c6.1-0.1,10.9-5,10.7-11.2c-0.1-6.1-5.2-11-11.2-10.8c-6,0.2-11,5.4-10.9,11.3C410.2,433,415.2,437.8,421.3,437.8z M182.8,301.5
			c0-6.4-4.5-11-10.8-11c-6.1,0-11.1,4.8-11.1,10.9c-0.1,6,4.9,11.1,11,11.1C178,312.5,182.8,307.7,182.8,301.5z M369.2,320.6
			c6,0,11.1-5,11.1-11.1c0-6-5.1-11.1-11.1-11.1c-6.1,0-11,5-11,11.1C358.1,315.7,363.1,320.7,369.2,320.6z M373.5,356.6
			c-0.1-6-5.3-11-11.3-10.9c-6,0.2-10.8,5.2-10.7,11.4c0.1,6.1,5,10.8,11.2,10.7C368.8,367.7,373.6,362.7,373.5,356.6z"/>
		<path class="st0" d="M170.3,248.7c0-9.9,0-19.4,0-29.3c77,0,153.8,0,230.9,0c0,9.7,0,19.3,0,29.3C324.4,248.7,247.6,248.7,170.3,248.7z"/>
	</g>
</g>
</svg>
