<?xml version="1.0" encoding="utf-8"?>
<!-- Generator: Adobe Illustrator 18.1.1, SVG Export Plug-In . SVG Version: 6.00 Build 0)  -->
<svg version="1.1" id="图层_1" xmlns="http://www.w3.org/2000/svg" xmlns:xlink="http://www.w3.org/1999/xlink" x="0px" y="0px"
	 viewBox="0 0 560 560" enable-background="new 0 0 560 560" xml:space="preserve">
	 <style type="text/css">
	.st0{fill:#FFFFFF;}
</style>
<g>
	<g>
		<path class="st0" d="M287.4,155.2c8.9,1.2,17.2,2.2,25.4,3.5c3,0.5,6,1.3,8.9,2.2c19.5,6.3,37.7,15.2,53,28.9c12.8,11.4,22.4,25.4,29.9,40.8
			c8.6,17.6,15.6,35.6,18.1,55.2c1.4,11.1,1.1,22.1,0,33.2c-1.2,12.4-3.5,24.8-4.2,37.3c-1,18.2,2.3,35.7,11.5,51.8
			c3.4,5.9,6.2,12.2,10,17.9c4,6.1,8.9,11.5,16.9,13.3c-0.5,0.6-0.8,1.3-1.3,1.8c-8,8.1-15.5,16.9-24.2,24.1
			c-6.1,5-13.7,8.3-21.1,11.3c-20.1,8.2-41.2,13.4-62.6,16.7c-13.9,2.2-28,3.3-42,5c-1.7,0.2-2.8-0.3-3.8-1.7
			c-9.6-12.7-14.4-27.1-14.4-43c-0.1-98.1-0.1-196.3-0.1-294.4C287.4,158.2,287.4,157.2,287.4,155.2z M313,394.3
			c-0.7,6.9,1.1,13.4,4.7,19.3c2.7,4.5,6.3,8.2,11.3,10.2c5.7,2.3,13.4,0.7,15.8-3.7c2.7-4.9,4.8-10.1,4.9-16
			c0.2-6.1-1.4-11.8-3.3-17.6c-1.9-6-5.6-10.1-10.9-12.8c-6.7-3.4-13.9-1.5-18.3,4.5C313.8,383,312.5,388.3,313,394.3z M380.5,287.7
			c1.1-1.4,1.7-2.3,2.4-3.2c2.8-3.4,5.5-6.7,8.3-10.1c1.7-2,4.5-3.7,4.8-5.8c0.3-2.1-1.9-4.6-3-6.9c-2.8-5.9-5.7-11.7-8.6-17.7
			c-0.5,0.3-0.8,0.4-1,0.6c-4.9,5.4-9.7,10.7-14.5,16.1c-0.4,0.5-0.4,1.8-0.1,2.4c1.6,3.4,3.5,6.8,5.2,10.2
			C376.2,277.9,378.1,282.4,380.5,287.7z M364.1,265.9c-5.1,5.5-9.9,10.5-14.5,15.7c-0.5,0.6-0.4,2.1-0.1,3c1.4,3.1,3.1,6.1,4.7,9.2
			c2.4,4.6,4.8,9.2,7.4,14.1c5-5.3,9.7-10.3,14.2-15.4c0.5-0.5,0.5-2,0.1-2.8C372.2,282,368.3,274.3,364.1,265.9z M371.3,217.2
			c-5.5,6-10.8,11.8-15.9,17.6c-0.4,0.5-0.4,1.8,0,2.5c1.6,3.4,3.4,6.6,5.1,9.9c1.6,3,3.1,6,4.9,9.4c5.3-5.9,10.2-11.5,15.1-17.1
			c0.4-0.5,0.6-1.6,0.3-2.2C377.7,230.8,374.6,224.3,371.3,217.2z M345.1,288c-3,3.2-6,6.4-9.1,9.7c-4.7,5-4.7,5-1.6,11.1
			c3.2,6.1,6.4,12.3,9.5,18.3c4.1-4.6,8.2-9,12.1-13.5c0.6-0.7,0.9-2.2,0.6-2.9C352.9,303.1,349,295.6,345.1,288z M328.5,297.7
			c4.7-5.1,9.2-9.8,13.5-14.6c0.5-0.5,0.7-1.7,0.5-2.3c-3.3-6.6-6.8-13.1-10.4-20c-3.4,3.6-6.3,7.2-9.7,10.2
			c-3.7,3.2-4.9,6.1-1.9,10.7C323.6,286.7,325.7,292.1,328.5,297.7z M359,193.9c-4.4,4.7-8.6,9.1-12.7,13.7
			c-2.1,2.3-3.3,4.8-1.4,8.2c2.5,4.6,4.2,9.7,6.4,15c5.8-6.4,11.2-12.2,16.4-18.1c0.4-0.4,0.1-1.6-0.2-2.3
			C364.9,205,362.1,199.7,359,193.9z M346.6,276.7c4.7-5,9.4-10,14-15.1c0.3-0.4,0.5-1.3,0.2-1.7c-3.4-6.5-6.8-12.9-10.7-20.3
			c-0.8,1.2-1.3,2.1-1.9,2.8c-2.6,3.3-5.1,6.6-7.9,9.7c-4,4.5-4,4.5-1.2,9.9C341.6,266.8,344,271.6,346.6,276.7z M333.5,251.3
			c4-4.4,7.7-8.6,11.5-12.7c2.4-2.7,2.3-5.5,0.7-8.5c-0.3-0.6-0.4-1.3-0.7-1.9c-1.8-4-3.7-8-5.7-12.3c-5.2,5.8-9.9,11-14.5,16.2
			c-0.4,0.4-0.6,1.5-0.3,2C327.4,239.8,330.3,245.3,333.5,251.3z M328.5,195.2c-5.9,3.3-10.8,7.2-14.9,12.1c-0.7,0.8-1,2.7-0.5,3.6
			c2.5,5.6,5.4,11.2,8.1,16.9c5-5.5,9.8-10.7,14.5-15.9c0.4-0.5,0.6-1.6,0.3-2.2C333.6,205,331.1,200.3,328.5,195.2z M319.8,237.3
			c-4.5,5.2-8.8,9.9-12.9,14.7c-0.4,0.4-0.4,1.5-0.2,2c2.7,5.5,5.5,11,8.4,16.8c4.5-4.8,9-9.6,13.4-14.5c0.4-0.4,0.5-1.5,0.2-2
			C325.9,248.8,323,243.3,319.8,237.3z M313.6,313.6c3.5-3.8,6.8-7.2,9.9-10.6c0.4-0.5,0.7-1.6,0.5-2.2c-3.3-6.7-6.8-13.3-10.2-19.9
			c-1.2,1.5-2.3,3-3.5,4.4c-1.3,1.5-2.7,2.9-4.1,4.4c-4,4.2-4.2,5.3-1.2,10.4C307.6,304.6,310.6,308.9,313.6,313.6z M371.3,326.3
			c6.1-3.5,11.2-7.8,15.7-12.9c0.3-0.3,0.2-1.1,0-1.5c-2.5-5-5.2-10-7.8-15c-0.4,0.2-0.7,0.3-0.9,0.5c-4.4,4.9-8.8,9.7-13.1,14.7
			c-0.4,0.5-0.5,1.7-0.2,2.2C366.9,318.2,369,322.1,371.3,326.3z M399,227.4c-3.2,3.4-6,6.6-9,9.5c-1.8,1.7-1.8,3.4-0.8,5.4
			c2.2,4.2,4.4,8.5,6.6,12.7c1.6,3,3.2,6,5.1,9.7c1.7-2.6,4.1-4.6,4.2-6.6C405.4,247.7,403.1,237.7,399,227.4z M384.4,203.3
			c-0.4,0.1-0.9,0.1-1.3,0.2c-2.3,2.8-4.7,5.5-6.9,8.3c-0.4,0.6-0.5,1.8-0.2,2.5c1.3,3.4,2.7,6.7,4.2,9.9c1.6,3.3,3.4,6.5,5.3,10
			c3.5-4.1,6.6-7.9,9.7-11.7c0.4-0.5,0.7-1.7,0.4-2.2C392,214.6,388.2,209,384.4,203.3z M398.9,273.7c-3.7,4.5-7.4,9-11,13.5
			c-1.5,1.8-3.9,3.6-4.1,5.5c-0.2,2,1.9,4.2,2.9,6.4c1.4,2.9,2.6,5.7,4.2,9.1c4.9-6.6,7.8-13.5,10.5-20.5
			C403.3,282.5,402.9,278.2,398.9,273.7z M303.8,247.5c4.3-4.9,8.6-9.6,12.7-14.5c0.4-0.5,0.2-1.8-0.2-2.5c-1-2.3-2.3-4.4-3.3-6.7
			c-1.4-3.1-2.6-6.2-4.1-9.9c-1.1,1.6-1.8,2.5-2.3,3.5c-2.1,5-4,10-6.2,15c-1.6,3.5-1.5,6.7,0.8,9.9
			C302.3,243.8,302.8,245.5,303.8,247.5z M300.7,288.8c0.9-1.2,1.5-2,2-2.7c2.4-3,4.8-6.1,7.3-9c1.2-1.4,1.4-2.4,0.5-4
			c-2.8-5.1-5.4-10.2-8.2-15.6c-1.7,1.8-3.6,3.7-5.3,5.7c-0.5,0.5-1,1.3-1,1.9C296.5,273,297.9,280.6,300.7,288.8z M327.3,307.1
			c-3.4,3.6-6.5,7-9.7,10.4c6.4,5.6,13,9.9,21.6,12.2C335,321.8,331.2,314.6,327.3,307.1z M333.5,193c2.4,4.6,4.7,9,7.2,13.7
			c4.9-5.8,9.6-11.4,14.4-17.1C347.4,188.8,340.4,190.1,333.5,193z M360.3,317.3c-4.3,4.6-8.4,8.9-12.9,13.8
			c6.8,0.5,12.7-0.5,18.7-2.7C364.1,324.7,362.3,321.2,360.3,317.3z M364,191.3c3,5.8,5.6,10.8,8.5,16.3c2.4-2.8,4.4-5.3,6.6-7.8
			C374.9,195.7,370,193.4,364,191.3z M296,255.9c4.4-4.2,4.4-5.2,0.8-8.7C296.6,250,296.3,252.6,296,255.9z"/>
		<path class="st0" d="M103.3,439.2c5.8-1,9.6-4,12.9-7.5c7-7.6,11.8-16.5,15.8-26c2.9-6.8,6.1-13.7,7.8-20.8c3.2-13.5,3.5-27.3,1.6-41.2
			c-1.9-13.5-3.2-27.1-3.7-40.7c-0.8-21.6,4.9-41.9,13.9-61.4c5.5-12,11.2-23.7,19.2-34.3c11.8-15.7,26.6-27.5,44.1-36.4
			c14.4-7.4,29.4-12.5,45.4-14.3c4-0.4,8-0.6,12.3-0.9c0.1,1.3,0.2,2.3,0.2,3.3c0,98.3,0,196.6,0,295c0,14.1-4,26.9-11.2,39.1
			c-2.8,4.6-5.7,5.3-10.3,5c-21.2-1.6-42.1-4.6-62.7-9.8c-17.4-4.3-34.8-8.9-50.7-17.6c-4.2-2.3-8.4-4.8-11.7-8
			C118.3,455.1,111.2,447.3,103.3,439.2z M211.5,402.1c0,6.3,1.4,12.2,5.3,17.5c3,4.2,7.2,6.3,12.2,5.1c2.6-0.6,5.3-1.7,7.5-3.3
			c12.2-8.9,16.1-30.2,8-42.4c-6.5-9.8-18.8-9.3-25.7,0.3C214.1,385.8,211.2,393.6,211.5,402.1z M176.9,243.5
			c-1.4,3.1-2.4,5.8-3.6,8.3c-2.5,4.9-5,9.9-7.7,14.7c-0.8,1.5-0.9,2.4,0.4,3.7c2.4,2.3,4.7,4.8,6.8,7.3c2.6,3.1,5.1,6.3,7.8,9.8
			c0.9-1.8,1.6-3,2.2-4.3c2.6-5.5,5.1-11,7.8-16.5c2.4-4.9,2.4-4.8-1.3-9C185.3,253.1,181.3,248.5,176.9,243.5z M199.4,308.1
			c4.4-8.4,8.4-16.1,12.4-23.9c0.3-0.7,0.2-2-0.3-2.6c-4.6-5.2-9.4-10.2-14.7-15.9c-4.1,8.6-7.9,16.8-11.7,24.9
			c-0.2,0.4,0.1,1.3,0.5,1.7C190.1,297.5,194.6,302.6,199.4,308.1z M190.1,217.4c-3.4,6.9-6.7,13.6-9.8,20.2
			c-0.3,0.6,0.3,1.8,0.8,2.4c1.8,2.1,3.8,4,5.6,6.1c3,3.4,5.9,6.8,9.2,10.5c2.5-4.9,4.8-9.2,7.1-13.6c1.2-2.4,3.5-4.9,3.2-7.1
			c-0.3-2.2-3.1-4-4.9-6c-0.1-0.1-0.2-0.3-0.4-0.4C197.3,225.5,193.8,221.5,190.1,217.4z M217.6,327.3c0.7-1.8,1.2-3.2,1.9-4.5
			c3.1-6,6.2-12,9.4-18c0.7-1.4,0.7-2.2-0.4-3.4c-4.1-4.3-8-8.8-12.2-13.4c-4,7.6-8.1,15.5-12,23.4c-0.3,0.5,0.3,1.8,0.8,2.4
			C209.2,318.2,213.3,322.7,217.6,327.3z M209.4,230.6c2.7-5.5,5.3-10.5,7.6-15.7c0.6-1.4,1.8-3.1,0-4.9c-5-5.2-9.9-10.5-15.1-16.1
			c-3.3,6.3-6.3,12.2-9.3,18C198.2,218.1,203.7,224.2,209.4,230.6z M229,260.7c-3.6,6.8-6.9,13.2-10.2,19.7c-0.3,0.7-0.2,2,0.3,2.6
			c4.3,4.8,8.7,9.5,13.5,14.6c3.5-7.1,6.9-13.8,10.2-20.5c0.2-0.5,0-1.5-0.4-2C238.1,270.4,233.8,265.8,229,260.7z M211.4,240.3
			c-0.4,0.2-0.6,0.3-0.7,0.4c-2.2,4.1-4.4,8.2-6.6,12.3c-1.3,2.5-3.8,5.3-3.5,7.6c0.3,2.3,3.4,4.3,5.3,6.4c3.1,3.3,6.1,6.6,9.2,9.9
			c3.3-6.8,6.4-13.3,9.4-19.8c0.2-0.4,0-1.2-0.3-1.5C220,250.6,215.7,245.4,211.4,240.3z M239.9,227.8c2.5-4.8,4.8-9.4,7.1-14
			c2.4-4.7,2.5-4.7-1.2-8.5c-3.9-3.9-8-7.5-13.2-9.9c-2.6,4.9-5,9.5-7.4,14.2c-0.3,0.6-0.3,1.8,0.1,2.2
			C230.1,217.1,234.9,222.3,239.9,227.8z M221.8,216.2c-0.5,0.9-0.9,1.3-1.1,1.8c-1.6,4-2.9,8.2-4.9,12c-1.7,3.2-2.7,5.7,0.8,8.2
			c0.8,0.6,1.1,1.8,1.7,2.6c2.9,3.4,6,6.8,9.2,10.5c3.2-6.1,6.1-11.6,9-17.2c0.2-0.5,0-1.5-0.4-1.9
			C231.5,226.9,226.8,221.7,221.8,216.2z M246.2,271c3-6.3,5.8-12.2,8.7-18.3c-4.4-5-8.9-10.1-13.6-15.5c-3.1,6-6,11.4-8.8,16.8
			c-0.3,0.6-0.3,1.8,0.1,2.3C237,261.2,241.5,266,246.2,271z M247.4,280.8c-3.3,6.5-6.6,12.9-9.8,19.2c-0.4,0.7-0.7,2-0.3,2.5
			c3.3,3.7,6.7,7.3,10.6,11.4c4-6.8,7.8-13.2,11.4-19.3C255,289.6,251.2,285.2,247.4,280.8z M182,296.6c-1.7,3.1-3.2,6-4.7,8.8
			c-4.2,8-4.2,8.2,2.9,14c3,2.4,6.2,4.6,9.5,7c1.9-3.5,3.3-6.7,5.1-9.5c1.9-2.9,1.4-4.8-1-7.2C189.7,305.6,186.1,301.2,182,296.6z
			 M162.3,227.5c-4,9.3-5.5,18.5-6.5,27.9c-0.4,4.3,2.2,6.2,4.8,8.7c4.2-8,8.2-15.7,12.2-23.4c0.3-0.6,0.1-1.7-0.3-2.2
			C169.3,234.9,165.9,231.4,162.3,227.5z M177.2,202.9c-4.2,6.1-8.1,11.8-11.9,17.6c-0.3,0.4,0.1,1.6,0.6,2.2
			c3.2,3.8,6.4,7.5,9.9,11.5c3.4-6.8,6.7-13.4,10-20c0.3-0.5,0.3-1.6,0-2C183.2,209.3,180.5,206.5,177.2,202.9z M161.9,273.5
			c-1.6,3.8-4.4,6.3-3.2,10.5c2.5,8,5.6,15.6,10.3,22.5c0.4,0.5,0.5,1.2,0.8,1.8c2.5-4,3.8-7.6,5.6-10.9c1.7-3.1,2.7-5.4-0.5-8.6
			C170.4,284.2,166.5,278.9,161.9,273.5z M252.5,214.5c-2.9,5.9-5.5,11.3-8.1,16.8c-0.3,0.6,0.3,1.8,0.8,2.4
			c1.7,2.1,3.5,4.2,5.4,6.2c2.3,2.5,4.6,5,7.1,7.8c2.5-5.4,6-10.1,2.7-16c-0.2-0.3-0.1-0.7-0.2-1.1
			C258.7,224.8,256.1,219.6,252.5,214.5z M260.8,288.1c2.4-7.7,3.8-15.1,4.3-22.7c0.1-0.7-0.5-1.6-1-2.2c-1.6-1.9-3.3-3.6-5-5.5
			c-0.2,0.1-0.5,0.2-0.6,0.4c-2.6,5-5.4,9.9-7.7,15c-0.5,1.1,0,3.2,0.8,4.3C254.5,281,257.6,284.3,260.8,288.1z M243.6,317.4
			c-3.3-3.5-6.4-6.8-9.7-10.3c-4,7.6-7.8,14.8-11.8,22.5C230.6,327.3,237.3,323.1,243.6,317.4z M220.7,206.3c2.3-4.4,4.6-8.8,7-13.5
			c-7.1-2.8-14-4.3-21.5-3.2C211,195.3,215.8,200.7,220.7,206.3z M200.9,317.4c-2,3.9-3.9,7.4-5.8,11.1c6.1,2.2,11.9,3.2,18.7,2.6
			C209.2,326.3,205.2,321.9,200.9,317.4z M188.8,207.6c2.8-5.4,5.4-10.5,8.3-16c-6.1,1.5-10.7,4.5-14.9,8.3
			C184.3,202.4,186.4,204.8,188.8,207.6z M265.1,255.1c-0.3-2.5-0.6-5-0.9-7.5C260.6,253,260.6,251.6,265.1,255.1z"/>
		<path class="st0" d="M279,152.4c-8,0.4-17.2,0.2-26.2,1.5c-10.2,1.5-20.7,3.4-30.3,7.1c-12.3,4.6-24.4,10.3-34.9,18.7c-10,8-18.5,17.7-26,28
			c-12.3,16.7-23,34.5-27.6,55.1c-3.5,15.9-4.3,32.2-2.7,48.4c1.4,14.4-0.2,28.4-3.7,42.3c-1.5,5.9-2.4,12-4,17.9
			c-2,7.3-6.5,13.1-12.6,17.6c-8.9,6.5-18.9,9.6-29.9,9.8c-11.4,0.1-22.7-0.3-33.8-3.4C30.4,390.5,19,379.5,11.7,364
			c-3.9-8.3-3.5-16.7,1.5-24.6c3.8-6,9.3-7.4,15.6-4.3c11.1,5.4,21.7,3.4,32-2.2c10.2-5.5,15.2-15.4,20-25.1c3.9-7.8,7-16,10.2-24.2
			c1.4-3.5,2.2-7.3,3.2-10.9c4.5-15.7,12.5-29.6,21.6-43.1c6.7-9.9,13.3-20,21.9-28.5c10.8-10.6,22.5-20,35.3-28.1
			c14.3-9,29.3-16.2,45.7-20.3c9.8-2.5,19.8-4.5,29.8-5.5c26.4-2.5,52.8-2.6,79.1,2.1c14.7,2.7,29.1,6.9,42.4,13.6
			c13,6.5,25.5,14.2,36.8,23.5c6.7,5.5,13,11.6,19.1,17.7c9.6,9.7,16.2,21.6,23.8,32.8c9.5,14,15.3,29.6,20.3,45.6
			c4.2,13.6,9.7,26.7,17.7,38.5c8.2,12.2,19.9,17.8,34.5,16.9c3.6-0.2,7.2-1.7,10.6-3.1c7.2-2.8,13.1-0.2,16.3,6.8
			c4.1,9.2,3,17.8-1.7,26.3c-10.5,19-27.2,28.2-48.3,30.1c-11.1,1-22.3,1.5-33.1-1.2c-10.7-2.7-20.2-8.4-25.5-18.4
			c-3-5.6-4.2-12.2-5.6-18.5c-3.6-15.1-6.2-30.3-4.8-45.9c1-10.8,1-21.5,0-32.3c-1.7-19.2-7.9-36.8-17.4-53.5
			c-6.6-11.6-14.5-22.1-23-32.3c-11.3-13.5-25.3-22.7-40.9-30.4c-13.5-6.6-27.7-9.9-42.3-11.8C297.8,152.6,289,152.8,279,152.4z"/>
		<path class="st0" d="M296.2,140c0-21.9,0-43.4,0-65.4c3.5,0.3,7,0.4,10.4,0.9c12.2,1.5,24.4,3.4,36,7.9c11.5,4.5,23.1,9.2,32.6,17.1
			c11.2,9.3,21.9,19.3,31.9,29.8c7.8,8.3,14.5,17.8,19.3,28.3c6.8,15.2,12.4,30.7,13.4,47.6c0.2,4,0.6,7.9,0.7,12
			c-8.6-13.5-18.8-25.7-31.3-35.6c-7.7-6.1-15.6-11.9-23.5-17.6c-15-10.7-32.1-16.6-49.7-20.9c-11.9-2.9-24.1-3.9-36.4-3.9
			C298.5,140,297.5,140,296.2,140z"/>
		<path class="st0" d="M265,74.7c0,21.8,0,43.3,0,65c-6.1,0.3-12,0.5-17.9,0.9c-21.6,1.6-41.9,7.7-61.1,17.7c-10.2,5.4-19.8,11.9-28.6,19.3
			c-8.6,7.2-16.6,15.2-24.2,23.5c-4.3,4.6-7.4,10.3-11,15.5c-0.4,0.6-0.9,1.2-2,1.6c0.5-4.9,0.8-9.8,1.5-14.6
			c1.7-12.5,5-24.5,9.5-36.4c4.8-12.6,12.1-23.2,20.2-33.6c8.4-10.7,18.7-19.4,28.8-28.4c10.7-9.5,23.2-15.4,36.2-20.8
			c14.8-6.1,30.3-8.1,46-9.6C263.2,74.6,264,74.7,265,74.7z"/>
		<path class="st0" d="M290.9,137.8c-7,0-13.7,0-20.7,0c0-25.6,0-51.2,0-76.9c6.9,0,13.7,0,20.7,0C290.9,86.6,290.9,112,290.9,137.8z"/>
	</g>
</g>
</svg>
