<?xml version="1.0" encoding="utf-8"?>
<!-- Generator: Adobe Illustrator 18.1.1, SVG Export Plug-In . SVG Version: 6.00 Build 0)  -->
<svg version="1.1" id="图层_1" xmlns="http://www.w3.org/2000/svg" xmlns:xlink="http://www.w3.org/1999/xlink" x="0px" y="0px"
	 viewBox="0 0 612 792" enable-background="new 0 0 612 792" xml:space="preserve">
<g>
	<g>
		<path d="M314.1,259.6c9.7,1.3,18.8,2.4,27.8,3.8c3.3,0.5,6.6,1.4,9.7,2.4c21.3,6.9,41.2,16.6,57.9,31.6
			c14,12.5,24.5,27.8,32.7,44.6c9.4,19.2,17,38.9,19.8,60.3c1.5,12.1,1.2,24.2,0,36.3c-1.3,13.6-3.8,27.1-4.6,40.8
			c-1.1,19.9,2.5,39,12.6,56.6c3.7,6.4,6.8,13.3,10.9,19.6c4.4,6.7,9.7,12.6,18.5,14.5c-0.5,0.7-0.9,1.4-1.4,2
			c-8.7,8.9-16.9,18.5-26.4,26.3c-6.7,5.5-15,9.1-23.1,12.3c-22,9-45,14.6-68.4,18.3c-15.2,2.4-30.6,3.6-45.9,5.5
			c-1.9,0.2-3.1-0.3-4.2-1.9c-10.5-13.9-15.7-29.6-15.7-47c-0.1-107.2-0.1-214.5-0.1-321.7C314.1,262.9,314.1,261.8,314.1,259.6z
			 M342.1,520.9c-0.8,7.5,1.2,14.6,5.1,21.1c3,4.9,6.9,9,12.3,11.1c6.2,2.5,14.6,0.8,17.3-4c3-5.4,5.2-11,5.4-17.5
			c0.2-6.7-1.5-12.9-3.6-19.2c-2.1-6.6-6.1-11-11.9-14c-7.3-3.7-15.2-1.6-20,4.9C342.9,508.6,341.5,514.4,342.1,520.9z M415.8,404.4
			c1.2-1.5,1.9-2.5,2.6-3.5c3.1-3.7,6-7.3,9.1-11c1.9-2.2,4.9-4,5.2-6.3c0.3-2.3-2.1-5-3.3-7.5c-3.1-6.4-6.2-12.8-9.4-19.3
			c-0.5,0.3-0.9,0.4-1.1,0.7c-5.4,5.9-10.6,11.7-15.8,17.6c-0.4,0.5-0.4,2-0.1,2.6c1.7,3.7,3.8,7.4,5.7,11.1
			C411.1,393.7,413.2,398.6,415.8,404.4z M397.9,380.6c-5.6,6-10.8,11.5-15.8,17.2c-0.5,0.7-0.4,2.3-0.1,3.3
			c1.5,3.4,3.4,6.7,5.1,10.1c2.6,5,5.2,10.1,8.1,15.4c5.5-5.8,10.6-11.3,15.5-16.8c0.5-0.5,0.5-2.2,0.1-3.1
			C406.8,398.2,402.5,389.8,397.9,380.6z M405.8,327.4c-6,6.6-11.8,12.9-17.4,19.2c-0.4,0.5-0.4,2,0,2.7c1.7,3.7,3.7,7.2,5.6,10.8
			c1.7,3.3,3.4,6.6,5.4,10.3c5.8-6.4,11.1-12.6,16.5-18.7c0.4-0.5,0.7-1.7,0.3-2.4C412.8,342.2,409.4,335.1,405.8,327.4z
			 M377.1,404.7c-3.3,3.5-6.6,7-9.9,10.6c-5.1,5.5-5.1,5.5-1.7,12.1c3.5,6.7,7,13.4,10.4,20c4.5-5,9-9.8,13.2-14.8
			c0.7-0.8,1-2.4,0.7-3.2C385.7,421.2,381.4,413,377.1,404.7z M359,415.3c5.1-5.6,10.1-10.7,14.8-16c0.5-0.5,0.8-1.9,0.5-2.5
			c-3.6-7.2-7.4-14.3-11.4-21.9c-3.7,3.9-6.9,7.9-10.6,11.1c-4,3.5-5.4,6.7-2.1,11.7C353.6,403.3,355.9,409.2,359,415.3z
			 M392.3,301.9c-4.8,5.1-9.4,9.9-13.9,15c-2.3,2.5-3.6,5.2-1.5,9c2.7,5,4.6,10.6,7,16.4c6.3-7,12.2-13.3,17.9-19.8
			c0.4-0.4,0.1-1.7-0.2-2.5C398.8,314,395.7,308.2,392.3,301.9z M378.8,392.4c5.1-5.5,10.3-10.9,15.3-16.5c0.3-0.4,0.5-1.4,0.2-1.9
			c-3.7-7.1-7.4-14.1-11.7-22.2c-0.9,1.3-1.4,2.3-2.1,3.1c-2.8,3.6-5.6,7.2-8.6,10.6c-4.4,4.9-4.4,4.9-1.3,10.8
			C373.3,381.6,375.9,386.8,378.8,392.4z M364.5,364.6c4.4-4.8,8.4-9.4,12.6-13.9c2.6-3,2.5-6,0.8-9.3c-0.3-0.7-0.4-1.4-0.8-2.1
			c-2-4.4-4-8.7-6.2-13.4c-5.7,6.3-10.8,12-15.8,17.7c-0.4,0.4-0.7,1.6-0.3,2.2C357.8,352.1,361,358.1,364.5,364.6z M359,303.3
			c-6.4,3.6-11.8,7.9-16.3,13.2c-0.8,0.9-1.1,3-0.5,3.9c2.7,6.1,5.9,12.2,8.9,18.5c5.5-6,10.7-11.7,15.8-17.4
			c0.4-0.5,0.7-1.7,0.3-2.4C364.6,314,361.8,308.9,359,303.3z M349.5,349.3c-4.9,5.7-9.6,10.8-14.1,16.1c-0.4,0.4-0.4,1.6-0.2,2.2
			c3,6,6,12,9.2,18.4c4.9-5.2,9.8-10.5,14.6-15.8c0.4-0.4,0.5-1.6,0.2-2.2C356.2,361.9,353,355.9,349.5,349.3z M342.7,432.7
			c3.8-4.2,7.4-7.9,10.8-11.6c0.4-0.5,0.8-1.7,0.5-2.4c-3.6-7.3-7.4-14.5-11.1-21.7c-1.3,1.6-2.5,3.3-3.8,4.8
			c-1.4,1.6-3,3.2-4.5,4.8c-4.4,4.6-4.6,5.8-1.3,11.4C336.2,422.9,339.4,427.6,342.7,432.7z M405.8,446.6
			c6.7-3.8,12.2-8.5,17.2-14.1c0.3-0.3,0.2-1.2,0-1.6c-2.7-5.5-5.7-10.9-8.5-16.4c-0.4,0.2-0.8,0.3-1,0.5
			c-4.8,5.4-9.6,10.6-14.3,16.1c-0.4,0.5-0.5,1.9-0.2,2.4C401,437.7,403.3,442,405.8,446.6z M436,338.5c-3.5,3.7-6.6,7.2-9.8,10.4
			c-2,1.9-2,3.7-0.9,5.9c2.4,4.6,4.8,9.3,7.2,13.9c1.7,3.3,3.5,6.6,5.6,10.6c1.9-2.8,4.5-5,4.6-7.2C443,360.7,440.5,349.8,436,338.5
			z M420.1,312.2c-0.4,0.1-1,0.1-1.4,0.2c-2.5,3.1-5.1,6-7.5,9.1c-0.4,0.7-0.5,2-0.2,2.7c1.4,3.7,3,7.3,4.6,10.8
			c1.7,3.6,3.7,7.1,5.8,10.9c3.8-4.5,7.2-8.6,10.6-12.8c0.4-0.5,0.8-1.9,0.4-2.4C428.4,324.5,424.2,318.4,420.1,312.2z M435.9,389.1
			c-4,4.9-8.1,9.8-12,14.8c-1.6,2-4.3,3.9-4.5,6c-0.2,2.2,2.1,4.6,3.2,7c1.5,3.2,2.8,6.2,4.6,9.9c5.4-7.2,8.5-14.8,11.5-22.4
			C440.7,398.7,440.3,394,435.9,389.1z M332,360.5c4.7-5.4,9.4-10.5,13.9-15.8c0.4-0.5,0.2-2-0.2-2.7c-1.1-2.5-2.5-4.8-3.6-7.3
			c-1.5-3.4-2.8-6.8-4.5-10.8c-1.2,1.7-2,2.7-2.5,3.8c-2.3,5.5-4.4,10.9-6.8,16.4c-1.7,3.8-1.6,7.3,0.9,10.8
			C330.4,356.4,330.9,358.3,332,360.5z M328.6,405.6c1-1.3,1.6-2.2,2.2-3c2.6-3.3,5.2-6.7,8-9.8c1.3-1.5,1.5-2.6,0.5-4.4
			c-3.1-5.6-5.9-11.1-9-17c-1.9,2-3.9,4-5.8,6.2c-0.5,0.5-1.1,1.4-1.1,2.1C324,388.4,325.6,396.7,328.6,405.6z M357.7,425.6
			c-3.7,3.9-7.1,7.6-10.6,11.4c7,6.1,14.2,10.8,23.6,13.3C366.1,441.7,362,433.8,357.7,425.6z M364.5,300.9c2.6,5,5.1,9.8,7.9,15
			c5.4-6.3,10.5-12.5,15.7-18.7C379.7,296.3,372,297.8,364.5,300.9z M393.8,436.8c-4.7,5-9.2,9.7-14.1,15.1c7.4,0.5,13.9-0.5,20.4-3
			C397.9,444.9,395.9,441,393.8,436.8z M397.8,299.1c3.3,6.3,6.1,11.8,9.3,17.8c2.6-3.1,4.8-5.8,7.2-8.5
			C409.7,303.9,404.4,301.4,397.8,299.1z M323.5,369.7c4.8-4.6,4.8-5.7,0.9-9.5C324.1,363.2,323.8,366.1,323.5,369.7z"/>
		<path d="M112.9,570c6.3-1.1,10.5-4.4,14.1-8.2c7.6-8.3,12.9-18,17.3-28.4c3.2-7.4,6.7-15,8.5-22.7c3.5-14.8,3.8-29.8,1.7-45
			c-2.1-14.8-3.5-29.6-4-44.5c-0.9-23.6,5.4-45.8,15.2-67.1c6-13.1,12.2-25.9,21-37.5c12.9-17.2,29.1-30.1,48.2-39.8
			c15.7-8.1,32.1-13.7,49.6-15.6c4.4-0.4,8.7-0.7,13.4-1c0.1,1.4,0.2,2.5,0.2,3.6c0,107.4,0,214.9,0,322.4
			c0,15.4-4.4,29.4-12.2,42.7c-3.1,5-6.2,5.8-11.3,5.5c-23.2-1.7-46-5-68.5-10.7c-19-4.7-38-9.7-55.4-19.2
			c-4.6-2.5-9.2-5.2-12.8-8.7C129.3,587.4,121.5,578.8,112.9,570z M231.1,529.4c0,6.9,1.5,13.3,5.8,19.1c3.3,4.6,7.9,6.9,13.3,5.6
			c2.8-0.7,5.8-1.9,8.2-3.6c13.3-9.7,17.6-33,8.7-46.3c-7.1-10.7-20.5-10.2-28.1,0.3C234,511.6,230.8,520.1,231.1,529.4z
			 M193.3,356.1c-1.5,3.4-2.6,6.3-3.9,9.1c-2.7,5.4-5.5,10.8-8.4,16.1c-0.9,1.6-1,2.6,0.4,4c2.6,2.5,5.1,5.2,7.4,8
			c2.8,3.4,5.6,6.9,8.5,10.7c1-2,1.7-3.3,2.4-4.7c2.8-6,5.6-12,8.5-18c2.6-5.4,2.6-5.2-1.4-9.8C202.5,366.6,198.1,361.6,193.3,356.1
			z M217.9,426.7c4.8-9.2,9.2-17.6,13.6-26.1c0.3-0.8,0.2-2.2-0.3-2.8c-5-5.7-10.3-11.1-16.1-17.4c-4.5,9.4-8.6,18.4-12.8,27.2
			c-0.2,0.4,0.1,1.4,0.5,1.9C207.8,415.1,212.7,420.7,217.9,426.7z M207.8,327.6c-3.7,7.5-7.3,14.9-10.7,22.1
			c-0.3,0.7,0.3,2,0.9,2.6c2,2.3,4.2,4.4,6.1,6.7c3.3,3.7,6.4,7.4,10.1,11.5c2.7-5.4,5.2-10.1,7.8-14.9c1.3-2.6,3.8-5.4,3.5-7.8
			s-3.4-4.4-5.4-6.6c-0.1-0.1-0.2-0.3-0.4-0.4C215.6,336.4,211.8,332.1,207.8,327.6z M237.8,447.7c0.8-2,1.3-3.5,2.1-4.9
			c3.4-6.6,6.8-13.1,10.3-19.7c0.8-1.5,0.8-2.4-0.4-3.7c-4.5-4.7-8.7-9.6-13.3-14.6c-4.4,8.3-8.9,16.9-13.1,25.6
			c-0.3,0.5,0.3,2,0.9,2.6C228.6,437.7,233.1,442.7,237.8,447.7z M228.8,342c3-6,5.8-11.5,8.3-17.2c0.7-1.5,2-3.4,0-5.4
			c-5.5-5.7-10.8-11.5-16.5-17.6c-3.6,6.9-6.9,13.3-10.2,19.7C216.6,328.4,222.6,335,228.8,342z M250.3,374.9
			c-3.9,7.4-7.5,14.4-11.1,21.5c-0.3,0.8-0.2,2.2,0.3,2.8c4.7,5.2,9.5,10.4,14.8,16c3.8-7.8,7.5-15.1,11.1-22.4
			c0.2-0.5,0-1.6-0.4-2.2C260.2,385.5,255.5,380.5,250.3,374.9z M231,352.6c-0.4,0.2-0.7,0.3-0.8,0.4c-2.4,4.5-4.8,9-7.2,13.4
			c-1.4,2.7-4.2,5.8-3.8,8.3c0.3,2.5,3.7,4.7,5.8,7c3.4,3.6,6.7,7.2,10.1,10.8c3.6-7.4,7-14.5,10.3-21.6c0.2-0.4,0-1.3-0.3-1.6
			C240.4,363.9,235.7,358.2,231,352.6z M262.2,339c2.7-5.2,5.2-10.3,7.8-15.3c2.6-5.1,2.7-5.1-1.3-9.3c-4.3-4.3-8.7-8.2-14.4-10.8
			c-2.8,5.4-5.5,10.4-8.1,15.5c-0.3,0.7-0.3,2,0.1,2.4C251.5,327.3,256.7,332.9,262.2,339z M242.4,326.3c-0.5,1-1,1.4-1.2,2
			c-1.7,4.4-3.2,9-5.4,13.1c-1.9,3.5-3,6.2,0.9,9c0.9,0.7,1.2,2,1.9,2.8c3.2,3.7,6.6,7.4,10.1,11.5c3.5-6.7,6.7-12.7,9.8-18.8
			c0.2-0.5,0-1.6-0.4-2.1C253,338,247.9,332.3,242.4,326.3z M269.1,386.2c3.3-6.9,6.3-13.3,9.5-20c-4.8-5.5-9.7-11-14.9-16.9
			c-3.4,6.6-6.6,12.5-9.6,18.4c-0.3,0.7-0.3,2,0.1,2.5C259,375.5,263.9,380.7,269.1,386.2z M270.4,396.9c-3.6,7.1-7.2,14.1-10.7,21
			c-0.4,0.8-0.8,2.2-0.3,2.7c3.6,4,7.3,8,11.6,12.5c4.4-7.4,8.5-14.4,12.5-21.1C278.7,406.5,274.5,401.7,270.4,396.9z M198.9,414.1
			c-1.9,3.4-3.5,6.6-5.1,9.6c-4.6,8.7-4.6,9,3.2,15.3c3.3,2.6,6.8,5,10.4,7.6c2.1-3.8,3.6-7.3,5.6-10.4c2.1-3.2,1.5-5.2-1.1-7.9
			C207.3,424,203.4,419.2,198.9,414.1z M177.4,338.6c-4.4,10.2-6,20.2-7.1,30.5c-0.4,4.7,2.4,6.8,5.2,9.5c4.6-8.7,9-17.2,13.3-25.6
			c0.3-0.7,0.1-1.9-0.3-2.4C185,346.7,181.3,342.9,177.4,338.6z M193.7,311.7c-4.6,6.7-8.9,12.9-13,19.2c-0.3,0.4,0.1,1.7,0.7,2.4
			c3.5,4.2,7,8.2,10.8,12.6c3.7-7.4,7.3-14.6,10.9-21.9c0.3-0.5,0.3-1.7,0-2.2C200.2,318.7,197.3,315.7,193.7,311.7z M176.9,388.9
			c-1.7,4.2-4.8,6.9-3.5,11.5c2.7,8.7,6.1,17,11.3,24.6c0.4,0.5,0.5,1.3,0.9,2c2.7-4.4,4.2-8.3,6.1-11.9c1.9-3.4,3-5.9-0.5-9.4
			C186.2,400.6,182,394.8,176.9,388.9z M275.9,324.4c-3.2,6.4-6,12.3-8.9,18.4c-0.3,0.7,0.3,2,0.9,2.6c1.9,2.3,3.8,4.6,5.9,6.8
			c2.5,2.7,5,5.5,7.8,8.5c2.7-5.9,6.6-11,3-17.5c-0.2-0.3-0.1-0.8-0.2-1.2C282.7,335.7,279.9,330,275.9,324.4z M285,404.9
			c2.6-8.4,4.2-16.5,4.7-24.8c0.1-0.8-0.5-1.7-1.1-2.4c-1.7-2.1-3.6-3.9-5.5-6c-0.2,0.1-0.5,0.2-0.7,0.4c-2.8,5.5-5.9,10.8-8.4,16.4
			c-0.5,1.2,0,3.5,0.9,4.7C278.1,397.1,281.5,400.7,285,404.9z M266.2,436.9c-3.6-3.8-7-7.4-10.6-11.3c-4.4,8.3-8.5,16.2-12.9,24.6
			C252,447.7,259.3,443.1,266.2,436.9z M241.2,315.5c2.5-4.8,5-9.6,7.7-14.8c-7.8-3.1-15.3-4.7-23.5-3.5
			C230.6,303.4,235.8,309.3,241.2,315.5z M219.6,436.9c-2.2,4.3-4.3,8.1-6.3,12.1c6.7,2.4,13,3.5,20.4,2.8
			C228.6,446.6,224.3,441.8,219.6,436.9z M206.3,316.9c3.1-5.9,5.9-11.5,9.1-17.5c-6.7,1.6-11.7,4.9-16.3,9.1
			C201.4,311.2,203.7,313.8,206.3,316.9z M289.7,368.8c-0.3-2.7-0.7-5.5-1-8.2C284.8,366.5,284.8,365,289.7,368.8z"/>
		<path d="M304.9,256.6c-8.7,0.4-18.8,0.2-28.6,1.6c-11.1,1.6-22.6,3.7-33.1,7.8c-13.4,5-26.7,11.3-38.1,20.4
			c-10.9,8.7-20.2,19.3-28.4,30.6c-13.4,18.3-25.1,37.7-30.2,60.2c-3.8,17.4-4.7,35.2-3,52.9c1.5,15.7-0.2,31-4,46.2
			c-1.6,6.4-2.6,13.1-4.4,19.6c-2.2,8-7.1,14.3-13.8,19.2c-9.7,7.1-20.7,10.5-32.7,10.7c-12.5,0.1-24.8-0.3-36.9-3.7
			c-18.5-5.4-30.9-17.4-38.9-34.3c-4.3-9.1-3.8-18.3,1.6-26.9c4.2-6.6,10.2-8.1,17-4.7c12.1,5.9,23.7,3.7,35-2.4
			c11.1-6,16.6-16.8,21.9-27.4c4.3-8.5,7.7-17.5,11.1-26.4c1.5-3.8,2.4-8,3.5-11.9c4.9-17.2,13.7-32.3,23.6-47.1
			c7.3-10.8,14.5-21.9,23.9-31.1c11.8-11.6,24.6-21.9,38.6-30.7c15.6-9.8,32-17.7,49.9-22.2c10.7-2.7,21.6-4.9,32.6-6
			c28.9-2.7,57.7-2.8,86.4,2.3c16.1,3,31.8,7.5,46.3,14.9c14.2,7.1,27.9,15.5,40.2,25.7c7.3,6,14.2,12.7,20.9,19.3
			c10.5,10.6,17.7,23.6,26,35.8c10.4,15.3,16.7,32.3,22.2,49.8c4.6,14.9,10.6,29.2,19.3,42.1c9,13.3,21.7,19.5,37.7,18.5
			c3.9-0.2,7.9-1.9,11.6-3.4c7.9-3.1,14.3-0.2,17.8,7.4c4.5,10.1,3.3,19.5-1.9,28.7c-11.5,20.8-29.7,30.8-52.8,32.9
			c-12.1,1.1-24.4,1.6-36.2-1.3c-11.7-3-22.1-9.2-27.9-20.1c-3.3-6.1-4.6-13.3-6.1-20.2c-3.9-16.5-6.8-33.1-5.2-50.2
			c1.1-11.8,1.1-23.5,0-35.3c-1.9-21-8.6-40.2-19-58.5c-7.2-12.7-15.8-24.2-25.1-35.3c-12.3-14.8-27.6-24.8-44.7-33.2
			c-14.8-7.2-30.3-10.8-46.2-12.9C325.5,256.8,315.8,257,304.9,256.6z"/>
		<path d="M323.7,243c0-23.9,0-47.4,0-71.5c3.8,0.3,7.6,0.4,11.4,1c13.3,1.6,26.7,3.7,39.3,8.6c12.6,4.9,25.2,10.1,35.6,18.7
			c12.2,10.2,23.9,21.1,34.9,32.6c8.5,9.1,15.8,19.5,21.1,30.9c7.4,16.6,13.6,33.6,14.6,52c0.2,4.4,0.7,8.6,0.8,13.1
			c-9.4-14.8-20.5-28.1-34.2-38.9c-8.4-6.7-17-13-25.7-19.2c-16.4-11.7-35.1-18.1-54.3-22.8c-13-3.2-26.3-4.3-39.8-4.3
			C326.2,243,325.1,243,323.7,243z"/>
		<path d="M289.6,171.6c0,23.8,0,47.3,0,71c-6.7,0.3-13.1,0.5-19.6,1c-23.6,1.7-45.8,8.4-66.8,19.3c-11.1,5.9-21.6,13-31.3,21.1
			c-9.4,7.9-18.1,16.6-26.4,25.7c-4.7,5-8.1,11.3-12,16.9c-0.4,0.7-1,1.3-2.2,1.7c0.5-5.4,0.9-10.7,1.6-16
			c1.9-13.7,5.5-26.8,10.4-39.8c5.2-13.8,13.2-25.4,22.1-36.7c9.2-11.7,20.4-21.2,31.5-31c11.7-10.4,25.4-16.8,39.6-22.7
			c16.2-6.7,33.1-8.9,50.3-10.5C287.6,171.5,288.5,171.6,289.6,171.6z"/>
		<path d="M317.9,240.6c-7.7,0-15,0-22.6,0c0-28,0-56,0-84c7.5,0,15,0,22.6,0C317.9,184.6,317.9,212.4,317.9,240.6z"/>
	</g>
</g>
<g>
	<g>
		<path fill="#C4BA98" stroke="#000000" stroke-width="0.5" stroke-miterlimit="10" d="M528.5,540v-11.3h8.8v2h-6.8v3h3.7v2.1h-3.7
			v3.5L528.5,540z"/>
		<path fill="#C4BA98" stroke="#000000" stroke-width="0.5" stroke-miterlimit="10" d="M539.7,531.3c0-1,0.1-1.7,0.5-2.1
			c0.3-0.4,0.9-0.6,1.7-0.6h6.4c0.9,0,1.4,0.2,1.7,0.6c0.3,0.4,0.5,1.1,0.5,2.1v6c0,1-0.1,1.7-0.5,2.1c-0.3,0.4-0.9,0.6-1.7,0.6
			h-6.4c-0.9,0-1.4-0.2-1.7-0.6s-0.5-1.1-0.5-2.1V531.3z M541.8,537.8h6.7v-7.2h-6.7V537.8z"/>
		<path fill="#C4BA98" stroke="#000000" stroke-width="0.5" stroke-miterlimit="10" d="M554.8,538.2v-9.5h7.5c0.7,0,1.2,0.2,1.5,0.5
			c0.3,0.4,0.5,0.9,0.5,1.7v2.7c0,0.8-0.2,1.3-0.5,1.7c-0.3,0.4-0.8,0.5-1.5,0.5h-1.1l4,4.3h-2.9l-3.5-4.3h-1.9v2L554.8,538.2z
			 M561.4,530.6h-4.6v3.2h4.6c0.4,0,0.6-0.1,0.7-0.2c0.1-0.1,0.2-0.4,0.2-0.7v-1.4c0-0.3-0.1-0.6-0.2-0.7
			C562,530.7,561.7,530.6,561.4,530.6z"/>
	</g>
	<g>
		<path fill="#C4BA98" stroke="#000000" stroke-width="0.5" stroke-miterlimit="10" d="M513.2,562.8c0.8-0.1,1.2,0.2,1.2,1v1.3h2.2
			c0.9,0,1.1,0.3,0.6,0.9h-2.8c0,1.5,0.1,2.2,0.3,2.2c0.4,0.1,0.7,0,1-0.1c1-0.2,1.4,0.1,1.3,1c-0.1,0.7-0.1,1.7-0.1,2.9
			c0.1,1-0.4,1.3-1.5,1c-1.2-0.4-2.4-0.4-3.7,0c-0.8,0.5-1.2,0.2-1.3-0.7c-0.1-1-0.3-2.1-0.6-3.2c0.1-0.8,0.6-1,1.6-0.7
			c0.8,0.1,1.2-0.1,1.2-0.6c0-1.1,0-2.1-0.1-3.1C512.3,563.3,512.5,562.7,513.2,562.8z M511.7,569.8c-0.1,1.2,0.1,1.8,0.6,1.9
			c2.3,0.3,3.3,0,3.1-1c0.2-1.4-0.7-1.9-2.8-1.6C512.1,569.1,511.7,569.4,511.7,569.8z M517.6,566.5c0.4,0,0.6,0,0.7-0.1
			c-0.1-1.1-0.1-2.1-0.1-3.1c-0.1-0.7,0.2-1,1-0.9c0.5,0,0.7,0.2,0.7,0.7c-0.1,0.9-0.1,1.9,0,3.1c3.2-0.5,4.8-0.5,4.7,0
			c0.2,0.3,0.1,0.4-0.1,0.4c-1.5,0.2-2.9,0.4-4.4,0.7c0.3,0.9,0.6,1.6,0.9,2.2c0.4-0.5,0.8-1.1,1.2-1.8c0.3-0.3,0.6-0.4,0.9-0.3
			c0.4,0.3,0.5,0.6,0.4,1c-0.6,0.8-1.1,1.4-1.6,1.9c1.1,1.1,2.8,1.6,5.3,1.5c0.2,0.1-0.1,0.6-0.9,1.5c-1.1,1.1-2.2,1.3-3.4,0.6
			c-0.5-0.4-1.3-1.1-2.3-2.2c-1,0.7-2,1.1-3.1,1.2c-0.5-0.1-0.6-0.3-0.3-0.6c1-0.3,1.9-0.9,2.7-1.8c-0.4-0.6-0.8-1.6-1.2-2.9
			c-0.5,0.1-0.9,0.2-1.3,0.4c-0.6,0.1-0.8-0.2-0.7-0.9C516.6,566.8,517,566.6,517.6,566.5z M522.3,563.1c0.3-0.7,0.7-0.9,1.2-0.6
			c0.5,0.3,0.6,0.7,0.4,1.2c-0.4,0.6-1,0.9-1.9,1c-0.4,0-0.5-0.1-0.4-0.4C521.9,563.9,522.2,563.5,522.3,563.1z"/>
		<path fill="#C4BA98" stroke="#000000" stroke-width="0.5" stroke-miterlimit="10" d="M534,566.5c0.5,0,0.8,0.1,1,0.4
			c-0.1,0.4-0.4,0.5-1,0.4c-0.6,0-1.2,0-1.8,0.1c0.2,0.3,0.1,0.6-0.3,0.9l-0.7,0.7c-0.3,0.4,0,0.6,0.7,0.7c0.6,0.1,1.1-0.1,1.5-0.6
			l-0.4-0.9c0.1-0.3,0.3-0.4,0.6-0.3c0.3,0.2,0.6,0.4,0.9,0.6c0.2,0.4,0.4,0.8,0.7,1.3c-0.1,0.2-0.2,0.3-0.3,0.3
			c-0.4,0.1-0.8-0.1-1.2-0.6c-0.6,1.1-1.2,1.5-1.9,1.2c-0.6-0.4-1.1-0.4-1.6-0.1c-0.2,0-0.4-0.1-0.6-0.4c-0.1-0.4,0.1-0.8,0.6-1.2
			c0.9-0.8,1.2-1.3,0.9-1.6c-0.4-0.1-1,0-1.8,0.3c-0.3,0.2-0.5,0.1-0.6-0.1c0.1-0.7,0.4-1.1,1-1.2L534,566.5L534,566.5z M534,564.4
			c0.3,0,0.5,0.1,0.6,0.4c0,0.3-0.1,0.4-0.3,0.4h-2.3c-0.7,0-1.3,0-1.9,0.1c-0.2-0.1-0.3-0.3-0.3-0.6c0.1-0.3,0.3-0.5,0.6-0.7
			C531,564.3,532.2,564.4,534,564.4z M537.8,568.5c-0.3-0.1-0.6-0.1-0.9,0c-0.3,0.2-0.6,0.4-0.9,0.4c-0.2,0-0.4,0-0.4-0.1
			c-0.2-1.5-0.4-2.8-0.6-4c-0.1-0.6,0.2-0.9,0.9-0.9c0.3,0.2,0.8,0.2,1.5,0.1c0.3-0.3,0.6-0.8,1-1.5c0.1-0.2,0.3-0.3,0.6-0.3
			c0.9,0.3,1.1,0.6,0.7,1c-0.3,0.3-0.5,0.5-0.7,0.7c0.7,0,1.6,0.1,2.7,0.3c0.3-0.1,0.5-0.2,0.7-0.3c0.3-0.1,0.5,0,0.7,0.1
			c0.4,0.3,0.5,0.7,0.3,1.3c-0.3,0.9-0.5,1.8-0.6,2.8l-0.4,0.3c0.4,0.3,0.4,0.5,0.1,0.7c-0.2,0.2-0.4,0.4-0.6,0.6
			c-0.2,0.1-0.1,0.2,0.1,0.4c0.4,0.1,0.7,0,1-0.1c-0.4-0.3-0.4-0.5-0.1-0.6c0.4,0,0.7,0,0.9,0.1c0.2,0.3,0.4,0.6,0.6,0.9
			c-0.1,0.1-0.2,0.2-0.4,0.3l-0.6-0.4c-0.2,0.6-0.5,0.8-1,0.7c-0.4-0.3-0.8-0.4-1.2-0.3c-0.3-0.2-0.4-0.4-0.3-0.7
			c0.2-0.2,0.4-0.4,0.6-0.7c0.1-0.2,0.2-0.5,0.4-0.9c-0.8-0.1-1.7-0.1-2.8-0.1c-0.7,2.3-2,3.9-4,4.9c-1.6,0.6-2.7,0.4-3.5-0.7
			c0-0.1,0.2-0.1,0.6-0.1C535.3,572.2,537.1,570.9,537.8,568.5z M538.2,564.8c-0.7,0-1.2,0.1-1.6,0.3c-0.2,0.6-0.1,0.9,0.3,0.9
			l1.6-0.1C538.6,565.4,538.5,565,538.2,564.8z M538.4,566.6c-0.5,0-1.1,0-1.8,0.1c0,0.7,0.1,1,0.4,1l1-0.1L538.4,566.6z
			 M539.4,569.3c0.1-0.4,0.3-0.6,0.6-0.6c0.2,0,0.4,0.1,0.4,0.3c-0.2,0.4-0.4,0.8-0.4,1.2c0,0.4,0,0.7,0.1,0.9
			c0.4,0.5,1.2,0.8,2.3,1c1,0.1,1.9,0,2.8-0.3c0.6-0.3,1-0.4,1.2-0.1c-0.1,0.6-0.4,1.3-1,2.1c-0.7,0.6-1.3,0.8-1.8,0.6
			c-1.7-0.3-3.1-1-4.1-2.1c-0.5-0.6-0.7-1.1-0.6-1.6C539.2,570.1,539.3,569.7,539.4,569.3z M541.6,567.9c0.2-0.4,0.2-0.7,0.1-1
			c-0.4-0.2-1.1-0.3-2.2-0.3c-0.1,0.4-0.1,0.8-0.1,1.2C540.2,567.9,540.9,567.9,541.6,567.9z M539.7,565.9l1.6,0.1
			c0.4,0.1,0.6-0.1,0.6-0.6c0-0.4-0.6-0.6-1.8-0.6C539.9,564.9,539.7,565.3,539.7,565.9z"/>
		<path fill="#C4BA98" stroke="#000000" stroke-width="0.5" stroke-miterlimit="10" d="M552.7,565.7c0.2-0.4,0.4-0.6,0.4-0.6
			c0.5-0.1,0.6,0.2,0.4,1c-0.3,0.9-0.7,1.8-1.3,2.8c-0.5,0.8-1,1.4-1.5,1.8c-1,0.9-2,0.8-3.1-0.1c-0.3-0.3-0.2-0.6,0.3-0.9
			C549.6,568.9,551.2,567.6,552.7,565.7z M556.1,562.8c1-0.1,1.4,0.4,1.3,1.6c-0.1,2.4,0,5.2,0.1,8.2c0,1.2-0.9,1.7-2.8,1.6
			c-1-0.1-2.1-0.6-3.4-1.6c-0.2-0.5-0.1-0.7,0.3-0.7c1.9,0.6,3,0.7,3.4,0.3c0.3-0.2,0.4-2.9,0.3-8.2
			C555.3,563.2,555.6,562.8,556.1,562.8z M558.4,566.2c-0.3-0.4-0.2-0.7,0.1-0.9c0.2-0.1,0.4,0,0.6,0.1c1.4,1.8,3.4,3.3,6.2,4.6
			c-0.3,0.5-0.6,0.8-0.9,1c-0.9,0.8-1.7,0.8-2.5,0C560.7,569.4,559.5,567.8,558.4,566.2z"/>
		<path fill="#C4BA98" stroke="#000000" stroke-width="0.5" stroke-miterlimit="10" d="M573,568.2c-0.3,1-0.6,1.7-0.9,2.2l1.9-0.3
			c-0.1-0.4-0.1-0.8-0.1-1.2c0.1-0.4,0.4-0.6,1-0.7c0.4,0,0.7,0.1,1,0.3c0.4,0.1,0.7,0.1,0.9,0v-4.9c0-0.6,0.2-0.9,0.6-1
			c1,0,1.5,0.4,1.5,1c-0.1,0.5-0.1,0.9-0.1,1.2c2.1,0.1,3.8,0.1,5.1,0.1c0,0.5-0.1,0.9-0.4,1.3c-0.4,0.4-0.8,0.5-1.2,0.3
			c-1.6-0.5-2.7-0.6-3.5-0.4c-0.2,0.8-0.2,1.6,0,2.3c0.7,0.1,1.2,0,1.6-0.1c1.3-0.4,1.9,0,1.9,1c-0.2,0.8-0.3,1.8-0.3,2.9
			c0.2,1.3-0.2,1.7-1.3,1.3c-1.4-0.2-2.8-0.2-4.4-0.1c-1.2,0.6-1.8,0.2-1.9-1c0-0.3,0-0.8-0.1-1.6c-2,0.9-4.3,1.6-6.9,2.1
			c-0.9,0.2-1.3-0.1-1.2-1c0-0.5,0.5-0.8,1.5-0.9c1.1-0.1,2.3-0.2,3.7-0.4c0.3-1.1,0.4-2.1,0.4-3.1c0-0.7,0.2-1,0.6-1
			C573,566.6,573.3,567.1,573,568.2z M571.8,563.7c-0.1,1.2,0,1.7,0.3,1.6l2.1,0.1c0.5,0.4,0.5,0.7,0.1,0.9c-0.2,0.1-0.5,0.1-1,0.1
			c-2-0.4-4-0.2-6,0.4c-0.4,0.1-0.6,0-0.6-0.4c0.2-0.9,0.6-1.3,1.2-1.2c0.8,0.2,1.4,0.2,1.8,0.1c0.3-0.1,0.4-0.7,0.3-1.8
			c0.1-0.4,0.3-0.6,0.6-0.6C571.1,563,571.5,563.2,571.8,563.7z M570.3,570.1c-0.2,0.3-0.4,0.4-0.7,0.1c-0.6-0.9-0.9-1.7-1-2.3
			c-0.1-0.7,0.1-1.1,0.7-1.2c0.5-0.1,0.7,0.1,0.7,0.6C570.2,568.3,570.2,569.3,570.3,570.1z M578.6,569.5c-1.4-0.1-2.3,0-2.7,0.3
			c-0.3,0.7-0.3,1.4,0,2.1c0.1,0.5,1.2,0.6,3.2,0.4c0.9,0,1.3-0.5,1.3-1.5C580.5,569.9,579.9,569.4,578.6,569.5z"/>
	</g>
	
		<linearGradient id="SVGID_1_" gradientUnits="userSpaceOnUse" x1="457.8702" y1="361.5563" x2="457.8702" y2="361.5563" gradientTransform="matrix(1.0929 0 0 -1.0929 0 955.5428)">
		<stop  offset="0" style="stop-color:#C4BA98"/>
		<stop  offset="1.474962e-002" style="stop-color:#CEC5A9"/>
		<stop  offset="4.332456e-002" style="stop-color:#DDD7C4"/>
		<stop  offset="7.615717e-002" style="stop-color:#EAE6DA"/>
		<stop  offset="0.1145" style="stop-color:#F3F1EB"/>
		<stop  offset="0.162" style="stop-color:#FAF9F6"/>
		<stop  offset="0.2285" style="stop-color:#FEFEFD"/>
		<stop  offset="0.4133" style="stop-color:#FFFFFF"/>
		<stop  offset="0.4696" style="stop-color:#DDDBD8"/>
		<stop  offset="0.5499" style="stop-color:#B2AFA6"/>
		<stop  offset="0.6258" style="stop-color:#908B7F"/>
		<stop  offset="0.6952" style="stop-color:#787263"/>
		<stop  offset="0.7558" style="stop-color:#696252"/>
		<stop  offset="0.801" style="stop-color:#645D4C"/>
		<stop  offset="0.8499" style="stop-color:#776F5B"/>
		<stop  offset="0.9484" style="stop-color:#A89F82"/>
		<stop  offset="1" style="stop-color:#C4BA98"/>
	</linearGradient>
	
		<linearGradient id="SVGID_2_" gradientUnits="userSpaceOnUse" x1="457.8702" y1="361.5563" x2="457.8702" y2="361.5563" gradientTransform="matrix(1.0929 0 0 -1.0929 0 955.5428)">
		<stop  offset="0" style="stop-color:#C4BA98"/>
		<stop  offset="1.389108e-002" style="stop-color:#C7BD9D"/>
		<stop  offset="0.1655" style="stop-color:#E5E1D2"/>
		<stop  offset="0.2794" style="stop-color:#F8F7F3"/>
		<stop  offset="0.3418" style="stop-color:#FFFFFF"/>
		<stop  offset="0.4046" style="stop-color:#E1E0DC"/>
		<stop  offset="0.5083" style="stop-color:#B5B1A9"/>
		<stop  offset="0.6058" style="stop-color:#928D81"/>
		<stop  offset="0.6943" style="stop-color:#797364"/>
		<stop  offset="0.7708" style="stop-color:#696352"/>
		<stop  offset="0.8265" style="stop-color:#645D4C"/>
		<stop  offset="0.8691" style="stop-color:#776F5B"/>
		<stop  offset="0.955" style="stop-color:#A89F82"/>
		<stop  offset="1" style="stop-color:#C4BA98"/>
	</linearGradient>
	<path fill="url(#SVGID_1_)" stroke="url(#SVGID_2_)" stroke-width="0.5" stroke-miterlimit="10" d="M500.4,560.4"/>
	
		<linearGradient id="SVGID_3_" gradientUnits="userSpaceOnUse" x1="465.7716" y1="367.5394" x2="465.7716" y2="367.5394" gradientTransform="matrix(1.0929 0 0 -1.0929 0 955.5428)">
		<stop  offset="0" style="stop-color:#C4BA98"/>
		<stop  offset="1.474962e-002" style="stop-color:#CEC5A9"/>
		<stop  offset="4.332456e-002" style="stop-color:#DDD7C4"/>
		<stop  offset="7.615717e-002" style="stop-color:#EAE6DA"/>
		<stop  offset="0.1145" style="stop-color:#F3F1EB"/>
		<stop  offset="0.162" style="stop-color:#FAF9F6"/>
		<stop  offset="0.2285" style="stop-color:#FEFEFD"/>
		<stop  offset="0.4133" style="stop-color:#FFFFFF"/>
		<stop  offset="0.4696" style="stop-color:#DDDBD8"/>
		<stop  offset="0.5499" style="stop-color:#B2AFA6"/>
		<stop  offset="0.6258" style="stop-color:#908B7F"/>
		<stop  offset="0.6952" style="stop-color:#787263"/>
		<stop  offset="0.7558" style="stop-color:#696252"/>
		<stop  offset="0.801" style="stop-color:#645D4C"/>
		<stop  offset="0.8499" style="stop-color:#776F5B"/>
		<stop  offset="0.9484" style="stop-color:#A89F82"/>
		<stop  offset="1" style="stop-color:#C4BA98"/>
	</linearGradient>
	
		<linearGradient id="SVGID_4_" gradientUnits="userSpaceOnUse" x1="465.7716" y1="367.5394" x2="465.7716" y2="367.5394" gradientTransform="matrix(1.0929 0 0 -1.0929 0 955.5428)">
		<stop  offset="0" style="stop-color:#C4BA98"/>
		<stop  offset="1.389108e-002" style="stop-color:#C7BD9D"/>
		<stop  offset="0.1655" style="stop-color:#E5E1D2"/>
		<stop  offset="0.2794" style="stop-color:#F8F7F3"/>
		<stop  offset="0.3418" style="stop-color:#FFFFFF"/>
		<stop  offset="0.4046" style="stop-color:#E1E0DC"/>
		<stop  offset="0.5083" style="stop-color:#B5B1A9"/>
		<stop  offset="0.6058" style="stop-color:#928D81"/>
		<stop  offset="0.6943" style="stop-color:#797364"/>
		<stop  offset="0.7708" style="stop-color:#696352"/>
		<stop  offset="0.8265" style="stop-color:#645D4C"/>
		<stop  offset="0.8691" style="stop-color:#776F5B"/>
		<stop  offset="0.955" style="stop-color:#A89F82"/>
		<stop  offset="1" style="stop-color:#C4BA98"/>
	</linearGradient>
	<path fill="url(#SVGID_3_)" stroke="url(#SVGID_4_)" stroke-width="0.5" stroke-miterlimit="10" d="M509,553.9"/>
	<g>
		<g>
			<path fill="#C4BA98" stroke="#000000" stroke-width="0.5" stroke-miterlimit="10" d="M505.2,546h-5.7v4.4h3.1v3.1h-3.1v5.4
				l-1.7,0.8V543h7.4V546"/>
			<path fill="#C4BA98" stroke="#000000" stroke-width="0.5" stroke-miterlimit="10" d="M507.3,556.8V556v-13h6.2
				c0.6,0,1,0.2,1.3,0.8c0.2,0.5,0.4,1.3,0.4,2.5v3.9c0,1.1-0.1,2-0.4,2.5c-0.2,0.5-0.7,0.8-1.3,0.8h-1l3.4,6.4h-2.4l-2.9-6.4H509
				v2.1v1L507.3,556.8z M512.8,545.9H509v4.7h3.8c0.3,0,0.5-0.1,0.6-0.3c0.1-0.2,0.2-0.5,0.2-1v-2c0-0.5-0.1-0.8-0.2-1
				C513.3,546,513.1,545.9,512.8,545.9z"/>
			<path fill="#C4BA98" stroke="#000000" stroke-width="0.5" stroke-miterlimit="10" d="M518.6,559.9V543h1.7v16.8H518.6z"/>
			<path fill="#C4BA98" stroke="#000000" stroke-width="0.5" stroke-miterlimit="10" d="M524,559.9V543h7.5v2.9h-5.7v3.8h3.4v2.9
				h-3.4v4.2h5.8v3.2L524,559.9L524,559.9z"/>
			<path fill="#C4BA98" stroke="#000000" stroke-width="0.5" stroke-miterlimit="10" d="M534.7,559.9V543h1.2l5.1,9.9
				c0.2,0.3,0.3,0.6,0.5,0.9c0.1,0.3,0.2,0.6,0.4,0.9c0-1,0-1.6-0.1-2c0-0.4,0-0.7,0-0.9V543h1.5v16.8H542l-5.3-10.4
				c-0.1-0.3-0.2-0.5-0.3-0.7c-0.1-0.2-0.2-0.4-0.3-0.6c0,0.5,0,1,0,1.5s0,0.9,0,1.2v9.1H534.7L534.7,559.9z"/>
			<path fill="#C4BA98" stroke="#000000" stroke-width="0.5" stroke-miterlimit="10" d="M546.9,559.9V543h4.7c1.3,0,2.4,0.7,3.1,2.2
				c0.7,1.5,1.1,3.5,1.1,6.1c0,1.6-0.1,3-0.4,4.2c-0.3,1.3-0.7,2.2-1.2,3c-0.3,0.5-0.7,0.8-1.2,1s-1.1,0.3-1.8,0.3L546.9,559.9
				L546.9,559.9z M548.6,556.7h2.2c1.2,0,2-0.4,2.5-1.3c0.5-0.8,0.7-2.2,0.7-4.2c0-1.7-0.2-3-0.6-3.9c-0.4-0.9-1-1.3-1.8-1.3h-3
				L548.6,556.7L548.6,556.7z"/>
			<path fill="#C4BA98" stroke="#000000" stroke-width="0.5" stroke-miterlimit="10" d="M565.2,546h-4.8v3.6h4.5
				c0.7,0,1.2,0.3,1.4,0.9c0.2,0.6,0.4,1.6,0.4,3.1v2.3c0,1.5-0.1,2.6-0.4,3.1c-0.2,0.6-0.7,0.9-1.4,0.9h-4.5
				c-0.7,0-1.2-0.3-1.4-0.9c-0.2-0.6-0.4-1.6-0.4-3.1v-0.5l1.5-0.7v2h5.1v-3.8h-4.5c-0.7,0-1.2-0.3-1.4-0.9
				c-0.2-0.6-0.4-1.6-0.4-3.1V547c0-1.5,0.1-2.6,0.4-3.1c0.2-0.6,0.7-0.9,1.4-0.9h4.1c0.7,0,1.2,0.3,1.4,0.8
				c0.2,0.5,0.4,1.5,0.4,2.9v0.4l-1.5,0.8V546L565.2,546z"/>
			<path fill="#C4BA98" stroke="#000000" stroke-width="0.5" stroke-miterlimit="10" d="M577.3,557.3v-4.7H572v6.6l-1.7,0.6V543h1.7
				v6.5h5.3V543h1.7v13.7L577.3,557.3z"/>
			<path fill="#C4BA98" stroke="#000000" stroke-width="0.5" stroke-miterlimit="10" d="M582.7,559.9V543h1.7v16.8H582.7z"/>
			<path fill="#C4BA98" stroke="#000000" stroke-width="0.5" stroke-miterlimit="10" d="M588.1,559.9V543h6.2c0.6,0,1,0.2,1.3,0.8
				c0.2,0.5,0.4,1.3,0.4,2.5v3.8c0,1.1-0.1,2-0.4,2.5c-0.2,0.5-0.7,0.8-1.3,0.8h-4.6v5.8L588.1,559.9z M593.6,545.9h-3.8v4.5h3.8
				c0.3,0,0.5-0.1,0.6-0.3c0.1-0.2,0.2-0.5,0.2-1v-1.8c0-0.5-0.1-0.8-0.2-1C594.1,546,593.9,545.9,593.6,545.9z"/>
		</g>
	</g>
</g>
</svg>
