<?xml version="1.0" encoding="utf-8"?>
<!-- Generator: Adobe Illustrator 21.0.0, SVG Export Plug-In . SVG Version: 6.00 Build 0)  -->
<svg version="1.1" id="图层_1" xmlns="http://www.w3.org/2000/svg" xmlns:xlink="http://www.w3.org/1999/xlink" x="0px" y="0px"
	 viewBox="0 0 560 560" style="enable-background:new 0 0 560 560;" xml:space="preserve">
	 <style type="text/css">
	.st0{fill:#FFFFFF;}
</style>
<g>
	<title>格里芬</title>
	<path class="st0" d="M249.3,532.6c-5.3-6.4-5.3-14.2-5.3-21.9c0-2.8,0.7-5.7,1.2-8.5c0.1-0.8,0.4-1.5,0.6-2.4c-2,1.3-3.1,3.5-4.4,8.3
		c-0.8,3.1-1.6,6.1-2.6,9.6c-0.9-3.1-1.5-6.3-1.6-9.5c-0.5-6.8,1.4-13.1,4.7-19c2.3-4,4.7-7.8,7.1-11.7c0.3-0.5,0.4-1.1,0.4-1.6
		c-7.9,8.1-14.6,17.3-19.7,27.4l-0.5-0.2c0.5-2.9,0.9-5.8,1.4-8.7s1-6,1.6-9.2c-1.4,0.3-2.1,1.3-2.9,2.1c-0.8,0.9-1.7,1.7-2.6,2.4
		c0.6-3.3,1.6-6.5,2.9-9.5c1.3-3,2.8-5.9,4.3-9c-0.4-0.1-0.7-0.2-0.9-0.1c-5.2,3.5-10,7.3-13.6,12.4c-1.2,1.8-2.3,3.6-3.2,5.6
		c-0.5,0.9-0.9,1.4-2,1c-2.6-8.1-0.1-15.7,2.6-23.3l-0.6-0.2c-1.1,2-2.1,4.1-3.1,6.1s-2,4.2-3.3,6.8c-2-9.5-0.8-18.2,1.3-27.2
		l-11.6,17.1c0-2.2,0-4,0-5.8c-0.2-7.5,0.1-15,1.1-22.5c0.3-1.8,0.8-3.7,1.4-5.4c0.5-1,0.3-2.1-0.3-2.9c-0.2,0.1-0.5,0.1-0.5,0.2
		c-0.8,3.8-3,7-4.9,10.4c-1.6,2.8-3.1,5.8-4.9,9.1c-1-4.2-1.1-8.6-0.3-12.8c0.6-4.1,0.9-8.3,2.6-12.2c-1.8,0.7-2.2,2.6-3.1,3.9
		c-1,1.5-2,3-2.8,4.6c-0.9,1.5-1.9,3-2.7,4.6c-0.8,1.5-1.5,3.1-2.1,4.6c-0.7,1.7-1.2,3.4-1.8,5.1c-0.6,1.7-1.3,3.3-1.9,4.9h-0.5
		c-0.6-3.3-1.3-6.5-1.8-9.8c-0.2-1.6-0.3-3.4,0.8-4.9c0.3-0.4,0.2-1.2,0.3-1.8c0.5-2.4,1.1-4.9,1.6-7.3c0.2-0.7,0.3-1.4,0.2-2
		c-1.5,3.7-5.1,6-6.3,9.9c-1.1-5.6-1.6-11.1-0.2-16.7l-7.6,15c-1.4-3.9-2.3-8-2.7-12.2c-0.3-4,0.1-8.1,0-12.1
		c-2,3.8-3.1,7.8-4.4,11.9c-1.9-8-1.5-16-0.7-24.3c-0.5,0.4-0.9,0.8-1.3,1.3c-1.7,2.8-3.4,5.7-5.1,8.5c-0.4,0.6-0.7,1.1-1.3,2
		c0.2-10.3,2.6-19.6,7.9-28.1l-0.6-0.4c-1.2,1.3-2.5,2.5-3.7,3.8c-1.3,1.2-2.5,2.6-3.6,4c-1,1.6-1.9,3.3-2.5,5
		c-0.6,1.7-1.3,3.4-2.2,5c0-0.9-0.1-1.8-0.1-2.7c0.2-6.5,1.5-13,2.6-19.4c0.7-4.1,1.2-8.3,1.7-12.5c0.2-1.4,0-2.8-0.5-4.2l-6.8,11.4
		l-0.5-0.2c0-1.8,0-3.6,0-5.5c0-2.6,0-5.2,0-7.8c0-3.1,0.1-6.2,0.2-9.5l-1.9,1.3l1.1-19.9c-2,1.7-2.8,4-4,6.1
		c0-8.2,0.6-16.4,1.8-24.6c-2.5,9.2-2.4,18.7-3.3,28c-1.5-4.4-1.7-8.9-1.7-13.5c-0.2,0.6-0.5,1.2-0.6,1.8c-0.5,2.2-1.5,4.2-2.8,6
		c-1.6,2-1.5,2.7-0.2,4.8c1.3,2.2,2.6,4.5,3.9,6.7c0.4,0.5,0.7,1,1.2,1.5c1.5-1.5,0.1-3.1,0.7-4.5c0.5-1.3,1.2-2.6,2.1-3.7
		l-2.6,23.3h-0.5c-0.2-0.3-0.4-0.7-0.5-1.1c-0.1-2.4-1.3-4.2-2.8-6c-5.5-6.5-9.2-14.4-10.7-22.7c-1.8-9.5-4.6-18.8-6.3-28.3
		c-1.6-9.5-4.7-18.9-5.7-28.6c-0.9-9.7-2.1-19.4-2.1-29.1c0-2.1-0.3-4.1-0.4-6.2c-0.2-1.7-0.1-3.4,0.1-5.1c1.7-8,5-10.2,11.9-10.8
		c4.4-0.3,8.8,0.2,13.1,1.4c1.3,2.5,1.6,5.6,4.1,8c-0.6-2.9-1.2-5.6-1.5-8.2c-1.1-8.6-2.1-17.2-3.1-25.8c-0.8-7-1.4-14.1-1.9-21.1
		c-0.3-3.6-0.2-7.1-0.1-10.7c0.3-9.4,2.1-18.6,3.3-27.9c1.6-13.5,6.2-26,10.8-38.6c1.5-3.9,3-7.9,4.7-11.7c1.6-3.7,3.6-7.2,6-10.4
		c3-4.2,5.6-8.7,8.3-13.2c3.1-5.2,6.8-10.1,10.9-14.7c3.2-3.5,6.2-7.2,9.9-10.1c2.3-1.8,4.3-4.1,6.5-6s4.7-3.6,7.1-5.3
		c2.4-1.7,5.1-3.1,7.4-4.9c6.7-5.4,14.4-9,22.5-11.7c11.9-4,24.1-6.8,36.5-8.4c7.6-1,15.2-0.8,22.7-0.4c10.1,0.5,20.1,2.3,30.1,3.5
		c10.1,1.3,20,4,29.4,8.1c4.7,2,9.3,4.6,13.9,6.9c1.6,0.8,3.1,1.8,4.7,2.6c8.5,4.6,15.7,10.9,22.6,17.6
		c19.2,18.5,32.8,40.7,41.8,65.7c2.3,6.5,3.8,13.2,4.6,20.1c1,8.4,2.4,16.8,4.3,25.1c2.1,8.9,2.7,18,3.2,27.1
		c0.6,11.5,0.5,23.1-0.3,34.6c-0.1,2-0.1,3.9-0.2,5.9c-0.3,4.8-0.7,9.6-0.8,14.4c0.1,1.2,0.5,2.4,1.3,3.4c1.1,1.4,2.3,2.8,3.5,4
		c1-3.1,0.8-6.4-0.5-9.3c0-0.1-0.1-0.1-0.1-0.2c-1.8-6.9,0.6-8.5,6.9-9.6c0.8-0.1,1.6,0.2,2.2,0.7c3.7,3.2,6.3,7.3,7.6,12
		c0.8,3.3,1,6.7,0.6,10.1c-0.2,3-0.5,6-0.7,9c0,0.5-0.2,1.1-0.3,1.6c-4.7,13.3-7.2,27.3-10.6,41c-1.8,7.4-2.6,15-3.7,22.5
		c-1.1,7.3-2.6,14.4-5.4,21.2c-1.1,2.2-2.2,4.3-3.5,6.3l-2.2,3.9v-5.7l-0.9,0.7l-0.4-9.1h-0.4c0,2.7,0.1,5.3,0,8
		c-0.1,4.6-0.2,9.3-0.6,13.9c-0.2,1.9-0.7,3.9-1.3,5.7c-1.4,4.8-2.8,9.6-4.2,14.4c-0.4,1.5-0.6,3.1-1,5.3l-2-6.6l-0.4,0.1l-1.7,19
		l-2.8-4.3c1.2,6.5-1,12.9-0.7,19.4l-2.2-3.2c-0.2,1-0.4,2-0.5,3c-0.2,5.4-2.2,10.3-4.4,15.1c-1.7,3.6-3.4,7.2-5.3,11.1l-2.9-7.6
		l-0.3,0.2c0,2.2,0,4.5,0,6.8c0,1.4-0.4,2.8-1.2,4c-2.4,4.1-4.7,8.2-8.1,11.6c-0.5,0.5-0.5,2.1-2,1.3c-0.3,0.2-0.5,0.5-0.6,0.8
		c-2.2,6-6.5,10.6-10.3,15.6c-0.7,1-1.4,2-2.5,3.6l4.7-20.3l-0.6-0.2c-5,12.5-8.6,25.6-16.6,36.8c0.3-0.7,0.5-1.4,0.8-2.1
		c0.4-0.7,0.6-1.5,0.6-2.3l-5.1,7.4L361,498c0.4-3.7,0.9-7.5,1.2-11.2c0.3-3.7,0.1-7.4-0.5-11c-0.7,3.1-1.3,6.2-2,9.3
		c-1,4.1-2.8,8-5.3,11.3c-4.1,5.4-8.4,10.7-12.8,16c1.5-3.5,2.4-7,1.9-10.8c-1.2,0.2-1,1.2-1.2,1.9c-1.4,5.7-4.5,10.8-8.7,14.8
		c-0.3,0.2-0.6,0.4-0.9,0.5c0.4-2.9,1.5-5.6,0.5-8.3c-1.2,8.6-5.5,13.8-13.8,20.2l1.1-2.9c-2.7,0.9-4.4,3.1-6.5,4.3
		c-2.3,1.3-4.6,2.7-6.8,4.3c-2.2,1.5-4.1,3.1-6.5,4.5l5-8.9l-0.2-0.4c-0.5,0.3-1.1,0.6-1.5,0.9c-3.6,3.9-7.1,7.8-10.6,11.7
		c-2.1,2.5-3.7,5.3-4.8,8.4l-1.9-5.3c-2.8-0.7-2.8-0.7-4.7,4c-0.8-1.3-1.4-2.5-2.1-3.6c-1.8-2.8-3.5-5.8-5.4-8.6
		c-2.3-3.3-4.5-6.6-5.7-10.6c-0.1-0.3-0.4-0.6-0.7-0.8c0.5,5.8,3.8,10.7,5.2,16.8c-3.7-3.3-7.5-5.8-9.7-9.5
		c-2.2-3.6-3.7-7.6-5.8-11.4c-0.5,4.2,0.4,8.4,0.5,12.6c-4.7-7.3-5.9-15.6-6.5-24.3c-0.3,0.4-0.6,0.9-0.7,1.3
		c-1.3,5.8-1.7,11.7-1.3,17.6C249.8,531.6,250.2,532.2,249.3,532.6L249.3,532.6z M261.1,419.4c-1.4,0.5-1.5,1.7-1.5,3l1.7-2.7
		c1.6-0.5,0.9-2.2,1.8-3.1c0.5-1.5,1.8-1.3,2.9-1.2c6.3,0.2,12.6,1.1,18.8,2.5c4.2,1,8.2,1.7,12.3-0.1c0.3-0.1,0.5-0.1,0.8-0.2
		c4.1-0.7,8.2-0.3,12.2-0.3c8.5,0,17,0.1,25.5,0.3c1.7,0,3.6-0.8,5,0.9c0.1,0.2,0.7,0.1,1,0c1.7-0.5,3.1,0.3,4.5,1.2
		c1.7,1.1,3.5,2.1,5.2,3.3c0.7,0.4,1.1,1.1,1.4,1.8c0.7,3.8,2.1,7.5,1.3,11.6c-0.7,3.5-0.4,7.2,0.9,10.5v-13
		c0.5,0.3,0.8,0.6,0.9,0.9c0.9,3.9,1.8,7.8,2.6,11.4c0.9-2.5,0.6-5.8,2.4-9c0.6,2.7,0.9,5,2.4,7.5c0-3.9,0.1-7.2,1.5-10.4
		c0.9,5.3,4.2,9.9,3.6,15.4c0.5-3.3,0.8-6.6,1.5-9.8c1.5-6.5,1.4-13.2-0.2-19.7l-0.7,3.8c-1.1-2.1-2.1-4.2-2.9-6.4
		c-1.2-2.8-2.6-5.7-2.9-8.9c0-0.1-0.3-0.2-0.5-0.5l0.9,9.5c-0.6-0.4-1.1-0.9-1.6-1.4c-1.8-2-4.1-3.5-6.5-4.6c-0.4-0.2-1-0.6-1.2-0.4
		c-1.1,0.9-1.8,0-2.5-0.4c-1.8-0.9-3.6-1.9-5.3-2.8l-0.2,0.3l2,2.9c-2.3-1.1-4-1.7-5.9-0.8c-0.5,0.2-1.1,0.1-1.5-0.2
		c-1.8-1.5-3.8-1-5.8-1.1c-4.6-0.2-9.3-0.4-13.9-0.9c-6-0.7-12-1.7-18-2.5c-2.3-0.4-4.7,0.1-6.7,1.3c-1.7,0.9-3.5,1.7-5.3,2.6
		c-1.5,0.8-3.2,0.8-4.7,0.1c0.1-0.5,0.1-0.9,0.2-1.4c0.2-2-0.5-3.1-2.4-3.4c-0.6-0.1-1.3-0.2-1.9-0.1c-3.2,0.5-6.4,0.6-9.6,0.1
		c-0.9,0-1.8,0.1-2.7,0.3c-1.4,0.2-2.8,0.4-4.6,0.7c4.5-4.9,6.4-6.4,8.5-6.9l-1.5,3.2l-0.4-0.5c3.1-2.7,6.5-5.1,9.2-8.2
		c2.6-3.1,4.6-6.9,7-10.8c1.7,4.5,2,9,4.7,12.6c0.2-0.9,0.2-1.7,0.2-2.6c0-1.1,0-2.1,0.2-3.2c0.1-0.6,0.4-1.1,0.9-1.3
		c0.4-0.1,0.9,0.5,1.4,0.9c0.1,0.1,0.2,0.3,0.2,0.5c2.4,4.2,6.1,7.5,10.6,9.2c-2-2.3-3.7-4.9-5.1-7.7c4.5,0,6.6,4.2,10.4,6.3
		c-0.7-1.8-2.4-2.4-2.5-4.4c1.9,1.8,3.9,3.5,6,5c2.1,1.2,4.4,2.3,6.6,3.3l0.3-0.4c-6-4.9-9.4-11.7-14-17.6
		c6.8,5.7,13.8,11.2,21.7,15.3c-0.7-0.8-1.4-1.6-2.3-2.2c-0.5-0.4-1.4-0.7-1.5-1.1c-0.3-2.1-2.3-2.8-3.3-4.3c-0.8-1-1.6-1.9-2.5-2.8
		l1.4-1.1c-0.8-2-2.5-3.4-2.9-5.6c3.5,4.3,8.8,5.6,13.1,8.5c0.2,0.1,0.5,0.2,0.8,0.3l0.2-0.4l-8.3-8.4c4,2.1,7.8,4.4,12.7,5.2
		c-2.3-3.1-5.8-4.4-7.4-8.4c1.5,0.9,2.6,1.5,3.6,2.2c5,3.2,9.9,6.4,14.9,9.5c1.1,0.6,2.3,1.2,3.5,1.7l0.3-0.5l-0.6-0.4
		c-6-3.4-10.8-8.2-15.4-13.2c-2.8-3-5.8-5.8-8.8-8.6c-0.5-0.5-0.9-0.9-1.4-1.3c2.5,0.6,4.9,1.2,6.8,3c2.4,2.3,4.7,4.6,7.1,6.9
		c0.6,0.6,1.2,1.1,1.9,1.6l0.5-0.5L331,365.6l0.1,0.1l-1.7-2.8c2.9,0.3,5.8,1.3,8.2,2.9c2.1,1.5,4.2,3,6.4,4.4
		c0.9,0.6,1.8,1,2.7,1.5c-4.7-6-11.4-8.9-18.1-11.6c0.2-1.3,0.5-2.5,0.7-3.7c0.2-1.7,0.3-3.3,0.3-5c0.2-2,0.2-4.1,0.1-6.1
		c-0.2-2-0.8-4-1.1-6c-0.3-1.7-0.5-3.4-0.8-5.1c-0.2,1.3-0.2,2.7-0.1,4c0.2,5,0.9,10,0.2,15c-0.3,1.8-0.2,3.6-0.4,5.3
		c0,0.6-0.2,1.2-0.5,1.7c-1.3,1.6-2.6,3-3.9,4.6l-0.7-0.3c0.3-1.8,0.5-3.6,0.8-5.4c0.5-2.6-0.2-3.4-2.8-3.4c-0.7,0-1.4,0.1-2.1,0.3
		c-7.7,2.8-14.2,7.1-17.4,15.2c-1.4,3.5-4.3,5.2-7.8,5.8c-2.2,0.2-4.5,0.2-6.7,0c-1.2,0.1-2.3-0.5-3-1.4c0.5-0.9,1.1-1.7,1.5-2.6
		c1.9-4,2.5-8,0.6-12.2c-1.5-3.2-3.2-3.7-6.1-1.6c-1.4,1.1-2.7,2.3-4.2,3.4c-2.3,1.7-4.2,1.8-6.3-0.2c-2.6-2.5-5.6-2.8-8.9-2.2
		c-1.3,0.2-2.6,0.3-3.9,0.5c-1.6-3.5-1.4-6.9-1.1-10.5c-0.6,0.3-1.3,0.7-1.4,1.2c-0.8,3.9-3.7,7.7-0.8,12c-0.6,0-0.8,0.1-1.1,0
		c-7.9-0.4-15.8,2.1-22,7.1c-4.8,3.7-9,8.1-13.5,12.2c-0.8,0.4-1.1,1.4-0.9,2.2c5-4.9,10.1-9.2,16.2-12.3l-1.1,1.6
		c4.7-3.1,9.9-4.7,15.3-5.8c-0.1,0.3-0.4,0.6-0.7,0.7c-2.2,0.5-4.2,1.6-5.8,3.2c-2.8,2.5-5.5,5.1-8.2,7.7c-1.2,1.2-2.3,2.5-3.3,3.9
		c-1.9,3-4.1,5.8-6.8,8.3c-0.1,0,0,0.3,0.1,0.6c7.5-5.7,13.6-13.2,23-16.2l-7.1,5.6l0.3,0.5c4-2.1,8.1-4.1,12.5-4.9
		s8.7-1.9,13.1-2.8c-0.4,0.5-0.9,0.9-1.5,1.1c-6,2.1-11.3,5.4-16.6,8.6c-3.6,2.2-6.8,5-9.5,8.2c-0.6,0.8-1.1,1.6-1.7,2.4
		c1.8-1,3.5-2.3,5.1-3.7c5.9-5,12.7-8.7,20.2-10.8c2.7-0.7,5.5-1.2,8.3-1.5c-1.5,1.2-2.9,1.9-3.7,3.1c-1.3,1.7-2.8,3.2-4.6,4.5
		c-3.8,2.9-7.7,5.8-11.6,8.7c-0.5,0.4-0.9,0.8-1.4,1.2c2.7-1.1,5.4-2.5,7.9-3.9c2.7-1.5,5.4-2.8,8-4.4c2.6-1.6,4.8-3.2,7.2-4.7
		c-0.9,2.8-3.3,4.5-4.3,7c0.5-0.2,1-0.5,1.4-0.9c2.6-2.4,5.1-4.7,7.7-7.1c1.3-1.4,3.2-2,5-1.8c0.1,1.3,0.7,2.8,0.2,3.7
		c-1.7,2.7-0.8,6.2-2.8,8.6c-1,1.4-2,2.7-3.2,3.9c-5.2,5-11.4,8.3-17.9,11.1c-2.6,1.1-5.3,2.2-8,3.3l-0.4-0.5
		c1.8-4.3,5.2-7.5,8.4-11.2c-0.8,0-1.4-0.3-1.8-0.1c-4.2,2.1-8.4,4.2-12.5,6.3l1-2l-0.3-0.4l-8.7,3.9l1.3-2.3l-0.3-0.4l-7.9,5.2
		l1.5-3.7c-3.6,0.6-6.1,7.2-7.8,15.5c-2.3-5.1-0.9-10-0.9-15.2c-3.5,1.8-2.8,5.5-4.6,8.1l-1.5-6.3c-0.3,1.1-0.5,1.6-0.7,2.2
		c-0.7,3.5-0.9,7.1-0.5,10.7c0,0.7-0.1,1.9-0.3,1.9c-1.5,0.2-1.2,1.4-1.2,2.2c0.2,5.4,0,10.9,1.4,16.3c0.2,0.4,0.4,0.8,0.7,1.2
		c-0.3-4.7,0.2-9,2.7-13.3c0.3,3.2,0.3,6,0.8,8.8c0.8,3.9,0.9,8,0.3,12c0,0.2,0.2,0.5,0.6,1.4c0.3-1.5,0.5-2.3,0.7-3.1
		c0.9-3.9,1.9-7.8,2.8-11.7c0.3-1,0.7-2,1.9-1.1c0.1,2.1,0.3,4.1,0.7,6.2c0.9,3.6,1.5,7.1,0.5,10.8l0.6,0.1l1.8-6.3l0.3,0.1v3.1
		l0.5,0c0.1-0.9,0.5-1.9,0.2-2.7c-0.9-2.6-0.5-5.1,0.1-7.6c0.8-3.3,0.9-6.8,0.4-10.1c-0.2-2-0.3-3.9-0.2-5.9c-0.1-1.9,1-3.8,2.7-4.6
		c2.3-1,4.6-2.2,7-2.4c7.6-0.6,15.2-0.8,22.7-1.2l-1.4,2.6c1.5-0.5,2-1.3,1.4-2.6c0.7,0,1.4,0,2.1-0.1c0.7-0.2,1.5,0.3,1.6,1.1
		c0,0,0,0.1,0,0.1C262,417.1,261.2,418.1,261.1,419.4z M424,366.6c1.4-3.9,1.2-8.1-0.5-9.5c0.2,1.6,0.5,3.2,0.6,4.7
		C424.2,363.5,424.1,365.1,424,366.6l-1.3-2.9l-0.4,0.1l1.3,5h0.4L424,366.6z M391,406.4l0.1,2.3l0.5-0.1L391,406.4l-1-12.4
		c-0.4,3.8-0.7,7.7,0.2,11.5C390.3,405.9,390.7,406.2,391,406.4L391,406.4z M383.4,408.3c-1.7-0.9-1.1-3-2.5-4.6l1.6,9.9l0.5-0.1
		C383.2,411.8,383.3,410.1,383.4,408.3v-3.4h-0.2L383.4,408.3z M385.3,216.3c1.8,4.8,4.3,8,6.6,8.7c-0.7-1.2-1.5-2.5-2.4-3.7
		C388.2,219.6,386.7,218,385.3,216.3c-0.1-0.2-0.1-0.5-0.2-0.7c-2.5-2.1-4.4-4.7-5.6-7.7c0-0.1-0.3-0.2-0.5-0.4
		c-0.5,1.6-0.5,2.9,0.8,4.1L385.3,216.3z M244.8,458c3.8-2,7.7-4.1,11.5-6.1c0.3-0.2,0.5-0.6,0.8-0.9c-0.1,0.5-0.1,1.2-0.4,1.6
		c-2.1,2.5-4.3,5-6.5,7.5c-1.2,1.4-2.2,2.8-1.9,4.9c3.1-3,5.3-7.1,10.2-8.2c-0.4,1.7-0.9,3.1-1.1,4.6c-0.2,1.5-1.1,2.8-0.6,4.4
		c1.1-1.7,1.9-3.4,2.8-5.2c1.2-2.3,2-3.1,3.7-4.1c-3,8.3-3.4,10.8-2.2,13.4c1-2.3,1.9-4.6,3-6.6c1.1-2,2.8-4,4.2-6l0.7,0.3l-0.6,5
		l0.4,0.2l2.4-5.2l0.5,0.1l0.6,6c0.7-2,1.6-4,2.6-5.9c1.2-1.9,2.5-3.7,3.9-5.4c0.1-0.2,0.4-0.2,0.6-0.3l0.6,2.2
		c1.9-2.1,2.2-4.8,4.1-6.9l0.9,5.5h0.6c0.1-0.7,0.2-1.5,0.4-2.2c0.4-1.7,0.7-3.5,1.1-5.2c0.1-0.3,0.6-0.8,0.9-0.7
		c0.5,0.1,0.9,0.4,1.2,0.8c0.2,0.2,0.2,0.7,0.3,1c1.5,4.9,3,9.7,4.5,14.6c0,0.1,0.3,0.2,0.8,0.4l-0.6-11.1c2.2,1.7,3.1,3.6,4.2,5.4
		c1.1,1.9,2.1,3.9,2.9,6c0.8,1.9,1.2,3.9,1.8,5.9l0.8-0.2c-0.1-3.3-1.7-6.5-1.5-10.4c0.6,1.2,0.9,1.9,1.4,2.5
		c0.4,0.6,0.9,1.2,1.3,1.9c-1.5-4.2-1.7-8.8-0.4-13.1c0.8,4,1.3,8.2,3.8,12.3c-0.2-2.5-0.3-4.4-0.4-6.3s-0.4-3.9-0.7-5.9
		c4.5,5.7,7.1,12.4,12.3,17.4l-1.7-4l0.4-0.2l14.9,17.6c-0.2-3.3-2.2-8.9-4.3-11.1l1.8,5.7c-6-5.7-11.3-12-16-18.7l0.6,3
		c-2.9-3.6-5.4-7.6-7.2-11.9c3.2,0.3,6.3-0.5,9-2.2c-5.3,1.5-9.5-0.4-13.6-4.1c3.6-0.5,6.8-0.9,10-1.3c6.3-0.8,10-2.5,13.9-6.4
		c-0.7,0.3-1.1,0.4-1.5,0.6c-7,3.1-14.5,3.7-22,4.2c-1.2,0.1-2.5-0.6-3.6-0.4c-3.6,0.7-7.1,0-10.6-0.7c-0.5-0.2-1-0.4-1.5-0.7
		l4.9-2.3c-0.8-0.3-1.7-0.4-2.5-0.2c-1.9,0.2-3.8,0.7-5.6,0.4c-1.8-0.2-3.5-0.1-5.2,0.5c-5.1,1.5-10,1.6-14.8-1.1
		c-0.7-0.4-1.4-0.6-2.1-0.9l-0.3,0.3l2.2,4l-4.8-2.3c-0.3-0.5,0.1-2-1.5-2.2c0.5-1.1,0.4-2.3-0.3-3.3c-0.3,2.1-0.3,2.1,0.4,3.3
		l-0.2,1.6c-2.9-0.7-5.6-2-7.9-4c-3.4-2.6-7.5-4.1-11.7-4.4c3.3,3.2,6.6,6.2,10.1,9.1c1.4,1.3,3,2.4,4.7,3.1c3.1,0.9,5.3,3.1,7.7,5
		c0.7,0.7,1.1,1.8,0.9,2.8c-0.5,2.3-1.3,4.4-3.8,5.4c-0.4,0.2-0.7,0.7-1.1,1c-3.4,1.7-6.8,3.4-10.2,5.1c-0.8,0.5-1.6,1.1-2.3,1.8
		c-0.9-0.2-0.6-0.7-0.3-1.1c1.4-2,2.7-4,4.3-6.2c-3.3,2-4.8,4.3-6.2,9.1L244.8,458z M160.4,166.4c-0.7,0.1-1.4,0.2-2.1,0.4
		c-4.7,1.8-9.5,3.6-14.2,5.5c-0.5,0.2-1,0.5-1.9,0.9c0.4,0,0.8,0,1.2,0c5.4-2.1,10.8-4.1,16.2-6.2
		C159.9,166.9,160.1,166.6,160.4,166.4l2-0.6l-0.2-0.5L160.4,166.4z M164.2,206.7c-0.5,0-1,0.1-1.6,0.2c-5.1,2-10.1,4-15.2,6
		c-0.7,0.3-1.4,0.7-2.1,1.1c0.4,0,0.8,0,1.2,0c5.6-2.2,11.1-4.4,16.7-6.6C163.6,207.3,163.9,206.9,164.2,206.7l2.2-0.6l-0.2-0.5
		L164.2,206.7z M353.2,456.8c-0.7-0.7-1.5-1.5-2.3-2.2c-3-2.4-6.1-4.7-9.2-7.1l-0.4,0.5c2.8,2.3,5.6,4.7,8.4,6.9
		C350.8,455.6,351.9,456.2,353.2,456.8l1.9,2.2c0.2-7.3-2-13.5-5.8-16.3c1,1.7,1.8,3.4,2.6,5.2c0.9,2.5,1.6,5.1,2.3,7.6
		C354.4,456.3,354.2,456.9,353.2,456.8z M353.2,192.2c-0.4-1.2-0.8-2.4-1-3.6c-0.1-1.3-0.1-2.6,0-3.9c-1.7,3.3-5.3,2.2-8.5,3.5
		c1.4,0.1,2.1,0.2,2.8,0.2c2.2,0,4.3,1,5.6,2.7C352.4,191.4,352.8,191.8,353.2,192.2c-0.3,2.5,1,4.3,2.8,5.9c2.6,2.3,2.5,3,0.2,5.4
		c-1.8,1.9-2.1,4.2-2.5,7.1l7.3-10c-1.6-1.2-3.2-2.3-4.7-3.6c-0.8-0.8-1.5-1.7-2.1-2.7C353.8,193.6,353.5,192.9,353.2,192.2
		L353.2,192.2z M162.9,395.5c-0.1,0.1-0.3,0.2-0.4,0.4c-1.5,4.7-2.4,9.5-2.8,14.3c0,0.4,0.1,0.8,0.2,1.2c0.4-0.4,0.6-0.9,0.6-1.5
		c0.5-3.5,1.7-6.8,3.6-9.7c1-1.6,1.8-3.3,2.4-5.1c2-5.6,4.9-10.9,8.4-15.8c0.4-0.5,0.7-1.1,1-1.7l-0.5-0.3
		c-2.5,3.4-5.2,6.6-7.6,10.1c-1.5,2.2-2.7,4.6-4,6.9C163.5,394.8,163.2,395.2,162.9,395.5l0-15.5
		C162.2,385.2,162.2,390.4,162.9,395.5z M197.9,407.5c0.4-0.9,0.8-2,1.3-2.9c2.3-4,5.1-7.8,8.3-11.1c0.4-0.5,0.8-1,1.1-1.5
		c-1.3,0.7-2.5,1.6-3.4,2.7c-2.2,2.5-4.2,5.1-6.5,7.4c-3.6,3.7-6.3,8-8,12.9c-0.2,0.5-0.5,1-0.8,1.5c-0.2-2.8-0.2-5.6,0.1-8.4
		c0.3-2.6,0.9-5.3,1.4-8.1c-8.4,5.7-10.5,13.2-9.1,18.8c0.6-2.9,1.3-5.7,2.1-8.5c1.1-3.2,3.5-5.8,5.2-6.6c-0.2,4.3-0.5,8.7-0.5,13.2
		c0,2.5-0.6,5-1.8,7.2c-0.5,0.8-0.8,1.7-1.2,2.5c2.5-1.5,3.4-3.9,4.3-6.3c0.8-2.2,1.4-4.4,2.2-6.6c1.1-2.8,2.7-5.3,4.7-7.5l0.4,1.9
		l-0.8,1.5c2.4-1.5,4.1-3.7,5-6.4L197.9,407.5z M373.5,390.2c0.4,1.4,0.8,2.8,1.1,4.3c0.6,3.1,1.1,6.3,1.6,9.5
		c-0.2-4.2-0.6-8.3-1.3-12.4c-0.1-0.4-0.2-0.9-0.5-1.2C374.3,390.2,373.8,390.3,373.5,390.2c-0.4-0.7-0.8-1.5-1.3-2.2
		c-1.7-2.2-3.4-4.4-5.1-6.5c-3.7-4.6-7.1-9.5-9.9-14.6c-6.2-11.4-12.8-22.6-22.7-31.4c-1.7-1.5-3.1-3.2-4.7-4.7
		c-0.5-0.4-1.1-0.8-1.7-1.1c0.2,1.2,0.2,2,0.4,2.8c0.9,3.6,1.7,7.3,2.7,10.9c0.9,3.2,2.6,6.1,4.9,8.5c3.7,4,7.6,7.8,11.3,11.8
		c2.5,2.7,4.7,5.6,7.1,8.4c2.4,3.1,5,6,7.8,8.8C365.8,384.3,369.8,387.2,373.5,390.2L373.5,390.2z M163,251.2c2.9-0.1,5.2-2.2,8.1-2
		c-0.6,2.1-1.4,4.2-2.2,6.2c-1.1,1.9-2.2,3.7-3.5,5.4c0.5,0,1.1-0.1,1.5-0.5c2.3-2.1,4.6-4.2,7-6.3c0.7-0.6,1.4-1.4,2.5-1.1
		l-6.6,12.7l0.4,0.3l4.1-4.2c0.1,0.9,0.1,1.8,0,2.7c-0.2,1.4-0.6,2.8-0.7,4.2c-0.2,2,0.4,2.6,2.5,2.8c0.6,0.1,1.2,0.2,1.8,0.4
		c1.9,0.4,3.9,0.3,5.8-0.3c2.5-0.8,5.2-0.9,7.5-2.6c0.2-0.1,0.3-0.1,0.5-0.1c2.1,0.2,3.3-0.9,4.4-2.5c1.1-1.6,1.8-1.4,3-0.2
		c0.7,0.7,1.3,1.4,2,2.2c1.5,1.6,3.5,2.2,6.1,2.8c-2.6-3.2-5.3-5.6-6.5-9.5c0.6,0.1,0.9,0.2,1.3,0.3c2.7,0.8,3.5,0.3,3.6-2.4
		c0-0.7,0.1-1.4,0.1-2.1c1.8,1.1,3,1.2,4.2-0.2c0.9-1.2,1.4-2.8,2.1-4.2c2.5,0,3.1,0.6,2.8,3c-0.1,0.8-0.2,1.6-0.2,2.4
		c-0.1,3.4,0,6.8,2.5,9.6c0.4,0.4,0.3,1.4,0.4,2.2c-3.1,0.2-6-0.2-8.6,1c4.5,0.3,9,0.1,13.5,0.4c4.6,0.2,9.1,1,13.4,2.6
		c-4.2,0.6-8.3,0.9-12.5,1.1c-4.2,0.2-8.2-0.4-12.7,0.7c3.3,2.1,7.4,1.9,9.5,5l-15.4,4l12.7,3.8c-1,1.1-3,0.9-3.4,2.9l2.8,0.3
		l0.1,0.4l-19.4,7.3c0.7,0.2,1.4,0.1,2.1-0.1c4-1.1,8-2.6,12.1-3.4c6-1.1,12-1.8,18-2.7c4.4-0.7,8.9-0.9,12.9-3.2
		c0.3-0.1,0.7-0.2,1.1-0.3c-1.3,1.1-2.6,2.2-4.1,3.1c-6,4.7-12.8,7.4-20,9.4c-3.1,0.9-6.1,2-9,3.3c-1.3,0.6-2.5,1.4-3.4,2.5
		c-1.5,1.8-2.7,3.7-4.1,5.6c-0.5,0.7-0.3,1.1,0.7,1.5c1.3-2.1,3.4-3.7,5.8-4.3c8.5-2,17-4.3,25.6-6.1c4.8-0.9,9.2-2.9,13-6
		c6-5.1,12.1-10.1,18-15.3c2.1-2,4-4.1,5.7-6.4c2.1-2.7,4-5.5,6-8.2c0.6-0.8,1.3-1.5,2.1-2.1c1.6-1.2,3-1.3,4.2-0.5
		c1.4,0.9,1.1,2.3,0.8,3.6c-1.6,8.4-3.1,16.9-5.4,25.1c-0.7,2.1-0.9,4.4-0.6,6.6c0.9,5.7,1.2,11.5,0.8,17.3
		c-0.3,3.2-0.2,6.4-0.7,9.6c-0.6,3.3-0.5,6.8,0.3,10.1c1.1,3.4,1.5,7,1.1,10.6c-0.1,1.4,0.5,2.8,1.5,3.8c0.7,0.7,1.3,1.4,1.8,2.3
		c0.8,1.5,1.4,3,2.8,4.2c1.2,1,2,2.6,3.1,4.1c1.6-2.4,3-4.7,3.2-7.4c0.1-1.5,0.1-3,0-4.5c0-2.5-0.1-5-0.4-7.5
		c-1.1-6.2-2.6-12.4-3.7-18.6c-0.6-3.2-0.9-6.4-0.9-9.6c-0.3-8.9,1-17.8,0.6-26.8c-0.2-3.1,0.4-6.2,0.5-9.4c0.2-3.1,0.2-6,0.5-9
		c0.1-2,0.4-3.9,0.7-5.8c0.1-0.9,0.3-1.8,0.6-2.6c0.5-1.1,0.4-2.3-0.3-3.3c-1.3-2.1-2.4-4.3-2.2-7c0.2-1.5-0.5-2.9-1.8-3.7
		c-1.3-0.8-1.4-1.9-1.4-3.2c0-3.2-0.3-6.4-0.3-9.6c-0.1-1.2,0-2.5,0.3-3.7c0.8-2.7,1.8-5.3,2.6-7.9c0.3-0.8,0.9-1.7,0.4-2.7
		c-3.1,1.6-3.8,4.9-5.4,7.6c-1.8-1.5-1.6-4.2-4.1-4.7c0.6,2.1,1.2,4,1.6,5.9c0.3,1.3,0.3,2.7,0.7,4c1.2,3.7,0.3,7.1-1.2,10.4
		c-1.4,3-2.9,5.9-4.4,8.9c-0.2,0.8-1.1,1.2-1.9,1c-0.1,0-0.2-0.1-0.3-0.1c-0.1-0.2-0.2-0.5-0.3-0.7c-2-6.4-6.4-11.8-12.4-14.8
		c-4.3-2.4-8.8-4.5-13.5-6.9l1.8,2.8c-0.7-0.2-1.3-0.5-1.9-0.9c-2.7-1.6-5.4-3.1-8.2-4.5c-3.5-1.5-7.1-2.9-10.2-5.2
		c-0.1-0.1-0.3,0.1-0.5,0.2l2.2,3.7c-7.9-3.7-15.7-4.6-23.8-4.2l2.8,1.5c-1.8,0.1-3.5-0.2-5.2-0.2c-1.5,0.1-2.8-0.7-3.5-2
		c-1-1.5-1.9-3.2-2.8-4.7c0.9-0.7,2.3-0.2,2.8-1.7c-0.6-0.1-1.3-0.2-1.9-0.1c-2.1,0.5-4.2-0.5-5.1-2.5c-0.6-1.2-1.1-2.4-1.6-3.7
		c-0.9-2.1-1.8-4.3-2.8-6.4c-0.3-0.7-0.8-1.6-2.1-1.3c0.1,0.4,0.2,0.7,0.3,1.1c2.2,3.1,3.4,6.7,3.6,10.5c-0.1,1.5,0.8,2.9,2.2,3.4
		c0.8,0.5,1.6,1.1,2.4,1.7c2.2,1.4,2.8,3.5,3,6l-5.4,0.5l-0.4,0.6l1.8,0.6c-5.4,1.3-9.7,3.9-14.2,6.2l2.7,0.3l0.1,0.5l-9.9,4.1
		l2.3,0.9c-1.6,0.8-3,1.5-4.3,2.2s-3,0.9-4.4,2.3l3.8,0.5L163,251.2z M308.2,264.1c2-2.8,5.1-3.9,8.3-4.6c4.7-0.9,9.5-1.7,14.2-2.4
		c0.6,0,1.2,0.1,1.7,0.2c-1.1,0.9-1.7,1.5-2.4,2c-2.8,1.9-5.7,3.7-8.5,5.5c-0.8,0.5-1.5,1.1-1.2,2.2c0.3,1.1-0.3,2.2-1.3,2.7
		c-2.6,1.6-3.4,4.1-2.1,7.2c0.4,0.8,0.7,1.6,1.1,2.4c2.3,4.6,5.3,8.7,8.8,12.4c3.5,3.6,7.2,6.9,10.7,10.4c4.7,4.8,10.9,7.7,17.6,8.1
		c1.7,0.1,3.3,0.7,5,0.9c1.5,0.2,3,0.4,4.5,0.5c0.1-1.4,1.2-1,2-1.1c0.9-0.1,2-0.2,2.9-0.2c1,0,1.9,0,2.8,0l0.7-1.8
		c-0.2-0.1-0.4-0.2-0.7-0.2c-0.6,0-1.3,0-1.9,0.1c-5.5,0.5-10.8,0.5-16.3-1.8c-4.9-2-9.4-5.1-13-9.1c-0.3-0.4-0.6-0.9-0.6-1.4
		c-0.1-1.1,0-2.1,0.2-3.2c0.2-0.8,0.7-1.6,1.3-2.2c1.2-1.1,2.6-1.2,4.2-0.5c5.4,2.3,10.6,5.3,16.6,5.9c0.3,0.1,0.7,0.2,0.9,0.4
		c2,0.9,4.1,1.9,6.1,2.8c2.7,1.3,5.2,2.7,7.2,5c0.8,0.9,1.9,1.6,3.1,1.9c1.8,0.5,3.6,0.8,5.4,1.1c-1.4-0.8-2.9-1.4-4.4-1.9
		c-0.8-0.2-1.5-0.5-2.1-1c-3.4-3.8-7.8-5.8-12.3-7.9c-2.5-1.2-4.9-2.7-7.4-4.2c2.4-1.7,2.5-1.7,5-1.6c2.9,0.1,5.7-0.2,7.8-2.1
		c-2.8,0.1-5.8,0.3-8.7,0.1c-5.6-0.4-8.9-3.4-10.2-9.1c0.2-0.1,0.5-0.2,0.7-0.3c0.7,0,1.4,0,2.1,0c4.8,0.4,9.5-0.7,13.7-3
		c2.4-1.4,4.7-2.9,7-4.4c1.2-0.7,2.4-1.5,3.5-2.3c1.3,0.7,2.6,1.6,3.8,2.5c1.7,1.4,2,2.7,1,4.7c-1.3,2.6-2.7,5.2-4,7.8
		c-0.2,0.4-0.4,0.8-0.7,1.6l9.5-4.3c-1.1-2.3,1.5-2.7,2-4c-0.7-0.7-1.3-1.5-1.9-2.3c-0.4-0.7-0.2-1.6,0.5-2.1c0.1,0,0.2-0.1,0.2-0.1
		l-0.8-0.9l1.1-0.5c-0.5-1.5-1.6-1.5-2.7-1.5c-2.3-0.1-4.5-0.8-6.5-1.9l0.9-1.4c-3.3,0.3-3.3,0.3-4.3-1.6l1.6-0.4
		c-1.4-0.9-2.7-1.6-4-2.4c-2.1-1.4-2.1-1.5-2.8-3.4c1.7,0.7,3.3,1.3,4.8,2.1c2.5,1.3,4.9,2.6,7.3,4c0.9,0.5,1.8,1.1,3,0.1l-4.8-3
		l2.4-0.5c-0.7-0.4-1.5-0.8-2.3-1.1c-6.2-1.7-12.2-4-18.7-4.5c-4.7-0.6-9.5-0.8-14.2-0.6c-2.8,0.3-5.5,0.3-8.3,0
		c-4.2-0.5-8.3-1.4-12.4-2.2c2.1-0.9,4.2-1.6,6.4-2c2.2-0.4,4.5-0.5,6.7-0.8c-2-1.4-4.2-1.6-6.4-2.4c3.9-0.1,7.7-1.8,11.7-0.9
		c0.3,0.1,0.7-0.7,1.5-1.5c2.2,0,5-0.2,7.7,0s5.5,0.9,8.2,1.4l0.2-0.5l-3.5-2.7c0.5,0,1.1,0.1,1.5,0.3c6.1,3.1,12.4,5.9,18.8,8.4
		c0.9,0.4,1.7,1.3,2.9,0.4c0.2-0.2,1,0.2,1.4,0.5c1.4,0.9,2.8,1.9,4.2,2.8c0.6,0.4,1.2,0.8,1.8,1.2l0.3-0.3l-1.1-2.5
		c0.9,0.3,1.7,0.9,2.4,1.7c1.3,1.5,2.6,3,3.9,4.4c0.6,0.4,1.2,0.7,1.8,0.9l-0.3-5.1l2.1,2.4l0.3-0.2l-1.2-5.1l1.9,0.1
		c-0.4-1.8-0.9-3.7-1.5-5.4c-0.8-1.7-1.7-3.3-2.7-4.9c3,1.1,5.5,2.8,8.7,1.9c-2.2-1.2-4.2-2.3-6.1-3.4c-1.9-1.2-3.9-2.6-6.3-4.1
		c2.4-0.2,4.5,0.5,6.3-0.8c-3.2-1-6.1-2.1-9.1-2.8c-1.7-0.4-3.3-0.6-5-0.7c-0.9-0.1-1.9,0-2.8,0c2-1.5,4.5-1.8,6.3-4.4
		c-1,0.2-1.9,0.6-2.8,0.9c-3.2,1.7-6.5,0.7-9.7,0.4c-0.3,0-0.7-0.2-0.7-0.2c0.1-0.9-0.5-0.9-1.2-0.8c-2.8,0.6-5.7,0.6-8.5,0
		c-3.7-0.7-7.5-0.7-11.2,0c-0.6,0.1-1.3,0.2-2,0.3c2.1-1.5,4.4-2.5,6.2-4.5c-2.9,0.6-5.5,1.3-8.1,1.8c-8.7,1.6-16.7,4.5-23.6,10.2
		c-0.7,0.6-1.6,1.2-2.4,1.7c-1.7,0.9-3.4,1.7-5.1,2.4c-3.2,1.3-6.5,2.4-9.8,3.6c-1.3,0.5-2.5,1-3.8,1.4c-1.6,0.5-3.3,0.5-4.8-0.2
		c-0.6-3.1,2-5.8,0.5-9c-0.8,1.1-1.4,2-2,2.8c-0.5,1-1.6,1.5-2.7,1.2c-1.1-0.3-1.1-1.3-1.2-2.2c-0.5-3.2-0.2-6.4,0.9-9.5
		c0.1-0.2-0.1-0.4-0.2-0.8l-1.5,1.8c-0.7-1.5,0.1-3.3-1.5-4.9c-0.4,2.8-0.7,5.4-1.1,7.8c-0.9,5.6,0.5,10.7,3.5,15.3
		c1.4,2,2.3,4.3,2.7,6.6C302,259.7,304.1,262.4,308.2,264.1z M136.1,319.7h0.3c-0.3-3.1-0.5-6.2-0.9-9.3c-0.5-2.8-0.4-5.4,1.5-7.9
		c0.7-0.9,1-2.1,0.8-3.2c-0.5-5.1-1.3-10.3-1.9-15.4c-0.3-2.2-0.6-4.4-0.9-6.6c-0.4-3.4-0.8-6.7-1.2-10.1c-0.4-2.6-1.6-4.9-3.5-6.8
		c-1.8-1.9-3.3-4-4.5-6.3c-1.6-3.3-2.8-6.8-3.8-10.3c-0.6-1.9-1.5-3.7-2.7-5.4c-0.7-1.2-1.8-2.4-3.4-2.2c-1.6,0.2-1.9,1.8-2.3,3
		c-0.6,2.3-1.1,4.7-1.5,7.1c-0.4,1.9-0.9,3.8,0.4,5.7c0.3,0.4,0.2,1,0.2,1.6c0.6,4.2,1.6,8.3,3.1,12.3c0.2-0.9,0.1-1.9-0.1-2.8
		c-1-3.1-0.9-6.4-1-9.6c-0.1-3.7,1.4-6.9,3.6-10c0.6,0.4,1.2,0.6,1.4,1c0.7,1.6,1.5,3.2,1.3,5.1c-0.4,3.6-0.9,7.3-1.1,10.9
		c-0.3,3.2-0.3,6.4,0,9.6c0.4,3,0.4,6.1-0.1,9.1c-0.1,0.8-0.2,1.6-0.3,2.5l0.6,0.2l2.4-3.8c0.5,2.8,1.1,5.3,1.4,7.7
		c0.1,1.1,0.1,2.1-0.2,3.2c-0.3,1.2-1.1,2.2-1.5,3.4s-0.4,2.4-0.8,3.5c-1.1,2.8-1,3.4,1.7,4.5c1.8,0.7,2.7,1.7,2.7,3.7
		c0,0.9-0.1,2.3,1.3,2.7c1.1,0.4,2,1.3,2.2,2.5c1.3,3.9,2.6,7.8,2.8,12c0.1,0.5,0.2,1.1,0.4,1.6l0.5-0.1c0-0.9,0-1.7,0-2.5
		c0-4.3-0.2-8.6,0-12.9c0.3-3,0.8-6,1.6-9c0.1-0.4,0.7-0.7,1-0.9c0.3,0.4,0.8,0.7,0.9,1.1c0.5,1.3,0.2,2.8-0.7,3.8
		c-1.9,2.3-2,4.8-1.4,7.6C135.1,313.1,135.5,316.4,136.1,319.7z M263.1,328.6c-0.1-0.5-0.2-1-0.4-1.5c-0.8-1.1-2.1-1.8-3.4-1.8
		c-3.8,0-7.5-0.2-11.2,0c-1.4,0.2-2.7,0.8-3.8,1.7c-6,4.7-11.2,10.3-15.5,16.6c-3.2,4.6-6.2,9.4-9.1,14.2
		c-4.6,7.8-8.9,15.7-13.3,23.6c-1.1,2-2,4.1-3,6.2c-0.3,0.6-0.7,1.1-0.9,1.7c0.3,0,0.6-0.1,0.8-0.3c6.8-7.4,13.7-14.9,20.5-22.3
		c1-1.1,1.9-2.3,2.8-3.6c2.2-3.1,4.9-5.7,8.1-7.8c5.4-3.3,9.5-8.2,11.7-14.1c0.7-1.7,1.4-3.3,2.1-4.9c1.3-2.5,3.3-4.5,5.7-5.8
		C256.9,328.8,259.9,328.7,263.1,328.6z M446.1,288.8c0.5-2.8,0.9-5.5,1.6-8c0.6-2.2,0.6-4.5,0.1-6.6c-0.9-3.5-1.8-6.9-2.6-10.4
		c-0.5-2.2-1.1-4.4-0.3-6.6c0.1-0.4,0-0.8-0.1-1.2l-0.5-0.1c-0.4,1.3-0.8,2.6-1.3,3.8c-0.5,1.3-1,2.7-1.6,4.4l-0.9-2.4
		c-2.1,4.2-4,7.9-5.7,11.6c-0.6,1.3-0.9,2.7-1.1,4.1c-0.8,5.6-0.7,11.3,0.4,16.8c0.4,2.1,1,4.1,1.9,6.1c0.9,2,1.3,4.1,1.2,6.2
		c-0.1,1.9-0.9,3.8-0.2,5.7c0.2,0.6-0.4,1.4-0.6,2.1c-2-0.8-2.5-2.2-1.9-4.5c-1.5,2.4-1.6,3.2-0.2,4.3s2.5,2.4,1.9,4.6
		c1.5-1.6,1.4-3.5,1.3-5.3c0-1.9,0.6-3.7,1.8-5.1c1.5-2.1,3.3-4.1,4.2-6.5c1.7-4.3,2.8-8.8,4.2-13.6L446.1,288.8z M249.6,177.8
		l0,0.3c0.7,0,1.4,0.1,2.1,0.1c6.9,0.6,13.7,0.9,20.6,1.8c5.9,0.7,11.8,1,17.7,0.9c4.7-0.1,9.3-0.3,13.9-0.5
		c2.4-0.1,4.8-0.1,7.2-0.4c4.7-0.6,9.4-1.4,14-2.1c1.9-0.3,3.8-0.5,5.8-0.8c-0.3-0.3-0.6-0.5-1-0.5c-3.2-0.7-6.4-0.2-9.6-0.1
		c-12.9,0.4-25.8-0.2-38.6,0.9c-0.3,0-0.5,0-0.8,0l-30.6,0.3C250.1,177.7,249.9,177.7,249.6,177.8z M232.7,156.6l-0.1,0.5
		c0.9,0.2,1.9,0.5,2.8,0.7c4.1,0.9,8.2,1.7,12.3,2.8c11.6,3.1,23.5,3.4,35.4,3c8.5-0.3,17.1-1.5,25.6-2.2c2.4-0.2,4.8-0.4,7.2-0.6
		c-0.4-0.4-1-0.6-1.6-0.6c-4.4,0-8.7,0-13.1,0.1c-3,0.1-6.1,0.4-9.1,0.3c-9.6-0.3-19.3-0.7-28.9-1.1c-1.9-0.1-3.8,0-5.6-0.2
		c-5.1-0.5-10.1-1.2-15.2-1.8C239.2,157.1,236,156.9,232.7,156.6z M453.9,270.6c3.9-6.1,5.4-13.3,4.4-20.4c-0.3-1.6-0.4-3.1-0.4-4.7
		c0.1-3.4-0.2-6.7-0.7-10c-2.1,2.8-5.7,3.1-7.7,6.4h5c0.6,2.1,0.5,4.3-0.1,6.3c-0.9,2.8-1.8,5.9-1.2,8.9
		C454,261.5,454.3,266,453.9,270.6z M179.9,348.3c-2.3-3.2-5.3-5.7-7-9.4c-0.9-2-1.5-3.8-0.9-5.9c0.1-0.4,0.4-1.1,0.2-1.3
		c-1.6-1.4-0.8-3.6-2-5.3l-0.9,5.5c-0.8-0.3-1.5-0.7-2.2-1.2c-0.9-1-2.2-1.3-3.4-0.8c1.6,1.3,3.1,2.6,4.7,3.8
		c0.9,0.5,1.4,1.4,1.2,2.4c-0.2,1.9,0.6,3.7,2,5c2.6,2.5,5.3,5.2,6.5,8.8c1.9,5.3,6.2,8.4,10.1,12.1c-0.9-1.5-1.9-2.9-2.9-4.3
		c-1-1.4-1.9-3-2.8-4.5c-0.6-0.9-0.9-2-0.8-3c0.1-0.9,1.1-1.7,1.7-2.6C181.5,346.8,181.5,346.8,179.9,348.3L179.9,348.3z
		 M380.3,184.3l-0.4-0.2c-1.3,1.3-2.7,2.5-4.2,3.6c-2.2,1.5-3.6,3.9-3.7,6.5c-0.1,0.8-0.2,1.6-0.5,2.3c-1.3,3.2-0.2,6.1,3.1,8
		c-0.3-0.9-0.5-1.9-0.6-2.8c-0.1-0.8,0-1.7,0.3-2.5c2.5-3.5,4.1-7.5,4.9-11.8C379.5,186.4,379.8,185.3,380.3,184.3L380.3,184.3z
		 M277.4,504.9c-1.5-9.5-0.1-19,0.9-28.7c-0.6,0.3-0.8,0.3-0.8,0.5c-2,5.3-4.3,10.5-2.8,16.6C275.7,497.1,275.7,501.1,277.4,504.9z
		 M260,482.6c-1.1,6.3-1.4,11.9,0.8,17.6l0.9-0.8l3.4,6.2l0.5-0.2c-0.5-1-0.9-2-1.2-3.1c-0.3-1.4-0.2-2.8-0.5-4.2
		c-1-4.7-2.1-9.4-3.2-14.1C260.4,483.5,260.2,483.1,260,482.6z M182.3,385.2c-0.2,4.7-4,6.9-6.1,10.3l1.6-1.1
		c-2.7,3.3-4.1,7.1-5.7,11.2c2.1-2.3,4-4.2,5.8-6.2c2-2.2,3.9-4.4,4.7-7.4C183.3,389.8,183.2,387.4,182.3,385.2L182.3,385.2z
		 M143.5,362.1l0.6,0.1c0.1-0.4,0.2-0.8,0.3-1.3c0.2-3.7,0.9-7.4,2.3-10.9c1.3-3.2,1.8-6.7,1.5-10.2c0-0.4-0.4-0.7-0.7-1.2
		c-1.2,4.1-2.5,7.9-3.5,11.8C143.1,354.2,143,358.2,143.5,362.1L143.5,362.1z M361.1,135.2l-0.1-0.4c-0.4-0.1-0.8-0.2-1.3-0.3
		c-2.8-0.4-3.8,0.3-4.3,3.1c-0.2,1.1-0.3,2.1-0.2,3.2c0.5,4.9-0.3,9.6-1.2,14.4c-1.2,5.7-0.8,11.6,1.3,17.1c0.9,2.4,2.5,4.5,3.9,6.8
		c-0.1-2.1-0.7-4-1.9-5.8c-3.2-5-3.5-10.6-2.8-16.3c0.3-2.2,0.9-4.4,1.1-6.6c0.3-4.2,0.4-8.5,0.5-12.8c0.1-1.9,0.2-2.1,2.1-2.3
		C359.3,135.3,360.2,135.2,361.1,135.2z M366.1,193.2c1.8-1.5,2.8-3.8,2.6-6.2c0-1.4-1.1-1.9-2.4-1.9c-1.7,0-3.4-0.2-4.6,1.5
		c-0.1,0.2-0.1,0.3-0.1,0.5C361.4,189.1,363.8,192.4,366.1,193.2L366.1,193.2z M384.1,435.6l-0.4,0.1c-0.6,4-0.9,8.1-1.8,12.1
		s-2.2,7.6-3.3,11.7c0.5-0.5,0.9-1,1.3-1.6c1.6-3.5,3.2-7,4.7-10.4c0.8-2,1-4.2,0.6-6.3C384.9,439.3,384.5,437.4,384.1,435.6
		L384.1,435.6z M214.1,462.9l5.2-11.9l0.5,0.1l-0.7,7.8c1.5-3.7,2-7.8,1.5-11.8l-6.1,11.9l-0.3-0.1l1.5-16.7
		C213.8,448.9,212.8,455.6,214.1,462.9z M177.8,419.9c0.5-2.3,0.9-4.5,1.4-6.8c0.9-3.8,2.6-7.4,5-10.6c1.1-1.2,1.9-2.7,2.5-4.3
		c-2.7,0.7-3.1,3.9-5.7,4.4C179.2,408.3,176.1,413.7,177.8,419.9L177.8,419.9z M268.3,486c0.2-0.4,0.3-0.9,0.4-1.3
		c0.9-4.1,1.8-8.2,2.9-12.2c0.6-2.2,0.3-4.2-0.3-6.6C268,472,266.9,479.2,268.3,486L268.3,486z M368.6,478.1
		c1.2-2.4,3.3-19.6,3-25.5c-0.3,0.6-0.5,0.9-0.6,1.4c-1.8,5-2.6,10.2-2.3,15.5C368.7,472.4,368.6,475.3,368.6,478.1z M249.8,163.1
		c-10.2-2.8-20.9-3.6-31.4-2.3L249.8,163.1z M365.2,208.5c-1.1,2.7,0.4,5.3,0.2,8.1c1-0.1,1.8-0.2,2.5-0.3c0.9-0.2,1.9-0.4,2.8-0.6
		c1.8-0.3,1.9-0.3,2-2.8C369.3,213.3,367.7,210.2,365.2,208.5L365.2,208.5z M234.5,455.9l-5.7,7.9l0.3,0.3l6.9-5.7l0.4,0.4l-4.6,4.9
		l0.4,0.4c2.6-2.1,5.2-4.2,7.8-6.3c0.1-0.1,0-0.3,0.1-0.5l-1.8,0.9l-0.2-0.3l2.5-3.7l-0.5-0.4l-5.8,4.3L234.5,455.9z M243.8,179.5
		c-10.2-2.7-20.7-4.4-31.3-5.2c5.2,1.1,9.9,2.2,14.5,3.2C232.6,178.8,238.2,179.4,243.8,179.5L243.8,179.5z M162.1,358.3
		c-5.8,8.2-9,13.5-8.3,21c0.6-1.8,0.9-3.2,1.5-4.6c1.5-3.3,2.9-6.7,4.7-9.9C161.1,362.8,161.8,360.6,162.1,358.3z M337.9,178.1
		c1.6,1.8,3.6,2,5.5,2c2.1,0.1,4-1.5,4.1-3.7c0-0.1,0-0.2,0-0.3c0.2-3.5-0.5-6.9-1.4-10.3c-0.3,1.1-0.4,2.2-0.4,3.3
		c-0.1,2-0.1,4.1-0.3,6.1c-0.3,2.7-1.2,3.4-4,3.2C340.1,178.4,339,178.3,337.9,178.1z M170.1,75.3c3.9,0.2,24.7-3.6,28-5
		C188.7,71.4,179.3,72.7,170.1,75.3z M189.9,45.6l0.2,0.6l26-5.5C207.2,41.3,198.4,42.6,189.9,45.6L189.9,45.6z M256.2,135.1
		c-6.6-1.6-13.2-2.6-19.5,1.3C243.2,135,249.8,135.7,256.2,135.1L256.2,135.1z M168,112.7l-0.2-0.7c-8.3,2.3-16.7,4.3-24.6,7.8
		l0.2,0.6L168,112.7z M204.7,423.5h-0.2c0,1.6-0.1,3.2,0,4.7c0.4,4,1.6,7.9,0.6,12c2.8-4.4,3.1-9.3,3.1-14.2l-1.6,7.4l-0.5,0
		L204.7,423.5z M189.9,79.5c-8.7,0.8-22.8,4.4-25.4,6.4L189.9,79.5z M164.3,153.8c-4.8,0.9-20.3,7.7-22.8,10
		C149.3,160.9,156.9,157.6,164.3,153.8L164.3,153.8z M147,196.2c7.5-2.5,14.8-5.8,21.6-9.8C161.1,189,153.9,192.3,147,196.2
		L147,196.2z M335.9,469.1l-3.3-11.2l0.4-0.2l4.6,5.9c-0.8-2.9-4.7-8.3-7-9.9C331.9,459.1,333.1,464.3,335.9,469.1L335.9,469.1z
		 M428.6,355.4c0.3-0.5,0.5-0.9,0.6-1.5c0.1-3.2,1.5-6,2.5-8.9c0.9-2.6,0.4-5.2,0-7.8C429.7,343.1,429.1,349.1,428.6,355.4
		L428.6,355.4z M167.9,197.1c-7.5,2-14.9,4.6-22.1,7.8C149.5,204.6,162.8,199.9,167.9,197.1L167.9,197.1z M153.3,112.3
		c4.8-0.7,19.8-5.8,22.8-7.8C168.2,106.8,160.6,109.1,153.3,112.3z M225.4,455.1l0.2,0.2l-3.5,8.3l0.6,0.2c2.1-4.1,4.2-8.1,5.1-12.7
		c-2.9,3.3-6.2,6.2-8.4,10l0.4,0.4L225.4,455.1z M150.7,229.7c4-0.7,15.6-7.8,17.9-10.9L150.7,229.7z M164.7,231.3l-0.4-0.4
		c-5.3,2.4-16.7,10.2-18.2,12.7L164.7,231.3z M168.9,118.3c-7.7,2.2-15.3,4.6-22.5,8.1C154.1,124.4,161.6,121.6,168.9,118.3
		L168.9,118.3z M202.2,54.1l-0.2-0.6c-7.3,1.7-14.5,3.4-21.3,6.6l0.2,0.6L202.2,54.1z M185.2,52.9c7.2-1.2,14.2-3,21.1-5.5
		C199.1,48.5,191.9,50.1,185.2,52.9L185.2,52.9z M151.3,353l0.5,0.1l1.8,12.1h0.3l-1.4-15.4c-1.8,1.9-2.1,4.3-3.1,6.7l-0.5-1.6
		l-0.3,0.1l0.7,6.2L151.3,353z M198.9,62.8c-3.5-0.4-17.8,3.5-20,5.5L198.9,62.8z M162.3,93.5c6.7-1.1,13.2-2.9,19.6-5.4
		C175.2,89.1,168.6,90.9,162.3,93.5L162.3,93.5z M216.8,35.4l-0.2-0.6c-6.6,1.2-13.3,2.3-19.5,4.9l0.1,0.6L216.8,35.4z M147.3,134.1
		c6.6-1.8,13-4.3,19.1-7.4C159.8,128.6,153.4,131,147.3,134.1z M401.8,369.3l0.6-0.1l2.4,7.5c-0.2-3.5-1.2-6.9-3.1-9.9
		c-0.3,2.2-0.1,4.3-0.3,6.4s-0.7,4.4-0.9,6.6c-0.2,2-1,4-0.4,6.4C401.2,380.5,402.5,375,401.8,369.3z M382.2,223.3l0.4-0.5l-6.7-6.3
		l-5.3,3.8c1.1-0.1,2.3-0.3,3.4-0.6c1.6-0.8,2.9-0.3,4.1,0.8c0.6,0.6,1.2,1.1,1.8,1.5C380.6,222.5,381.4,222.8,382.2,223.3z
		 M149.8,141.7l0.4,0.6l19.1-8.2l-0.2-0.6C162.5,135.8,156,138.6,149.8,141.7z M172.8,102.6c-6.3,0.9-12.5,2.6-18.5,5.1
		C160.7,106.6,166.9,104.9,172.8,102.6z M228.5,26.1l-0.1-0.5c-5.9,0.8-11.8,1.7-17.3,4.1c3-0.3,6-0.8,8.9-1.5
		C222.8,27.7,225.6,26.9,228.5,26.1L228.5,26.1z M169.2,212.6c-4.4,0.9-15.5,6.2-18.1,8.6C157.3,218.8,163.4,215.9,169.2,212.6z
		 M144.5,152l0.4,0.6l18.2-8.2l-0.2-0.5C156.6,146.2,150.5,148.8,144.5,152L144.5,152z M383.9,398.8c0.2,4.2,1.2,7.1,3,8.7
		c-0.5-5.9,1.1-11.5,2-17.1c-1.8,4.5-2.7,9.3-2.6,14.1h-0.5L383.9,398.8z M200.4,424.9c-0.8-6.4-0.6-12.6,1.6-18.8
		C198.7,411.8,198.1,418.7,200.4,424.9z M205.7,33.2l0.1,0.6l16.1-2.7l-0.1-0.6C216.4,31,210.9,31.5,205.7,33.2L205.7,33.2z
		 M380.2,179.8c-1.9-0.2-3.8-0.3-5.7-0.3c-3.9,0.3-7.7,0.9-11.3,1.3c2.5,0.7,5.2,0.8,7.8,0.4C373.9,180.9,376.8,180.3,380.2,179.8
		L380.2,179.8z M163.1,100.8c5.9-1,11.7-2.8,17.2-5.1C174.4,96.8,168.7,98.5,163.1,100.8L163.1,100.8z M237.6,22.3
		c-5.1,0.2-10.3,0.1-15.2,1.7C227.5,24.3,232.7,23.7,237.6,22.3L237.6,22.3z M406.3,300.3c-3.4,1.8-6.8-0.1-10.5,0.3
		c0.9,1.3,2.2,1.1,3.2,1.6C402,303.7,404.3,302.8,406.3,300.3L406.3,300.3z M348.3,150.2c2-3.4,2.7-7.3,3.1-11.2
		c0.2-2.7-0.8-3.6-3.9-3.7c3.1,1.2,3.3,1.6,2.8,4.9c0,0.3-0.1,0.5-0.2,0.8L348.3,150.2z M361.6,391.3l0.2-0.2
		c-1.4-3.1-2.8-6.2-4.1-9.2c-0.1-0.2-0.2-0.4-0.4-0.6c-1.5,0.8-1.6-0.9-2.3-1.4c-0.5-0.4-1-0.9-1.4-1.4l-0.2,0.2L361.6,391.3z
		 M408.8,404.4c0.4-5.4,0.5-9.6-1.1-12.1C407.2,396.2,407.7,402.3,408.8,404.4L408.8,404.4z M399.2,416.6h0.6V403
		C398.5,407.4,398.3,412.1,399.2,416.6L399.2,416.6z M164.2,181.8l-0.3-0.6l-15.5,6l0.2,0.6C154,186.1,159.2,184.1,164.2,181.8z
		 M403.9,273.3c-1.4-3.4-3.9-3.1-6.5-3.3l1.2,2l-0.8,0.3v0.5L403.9,273.3z M359.9,115.1c-3.3,4.6-4.9,10-4.3,12.7L359.9,115.1z
		 M337.6,447.1l7.2,13.6C343.6,455.7,341.1,451,337.6,447.1z M147.7,180.8c3.1-0.3,12-5,13.7-6.9L147.7,180.8z M403.8,283.6l0.1-0.7
		c-3.4-2.2-5.3-2.3-8.3,0.1L403.8,283.6z M237.5,450.1c-4.7,2.2-8.1,5.8-11,9.9L237.5,450.1z M345.1,465.3l0.3-0.4
		c-1.4-1.3-2.9-2.6-4.3-4c-1.4-1.4-2.6-2.8-3.9-4.1l-0.4,0.2l0.9,3.6c0.3-0.2,0.6-0.5,0.7-0.4C340.6,461.9,342.8,463.6,345.1,465.3z
		 M160.1,367.5l-0.2,0.1L159,380c0.7-1.2,1.6-2.5,1.6-3.8C160.7,373.3,160.3,370.4,160.1,367.5z M418.8,365.9l-0.4-0.2l-2.1,5.7
		c-0.2,0.8-0.5,1.5-0.8,2.2c-1.1,1.4-1.3,3.3-0.4,4.9L418.8,365.9z M410.4,379.3c-1-4.3-2.5-8.4-4.5-12.3c-0.1,0.6-0.1,1.2,0.1,1.8
		C406.9,372.5,409.3,375.6,410.4,379.3z M382.5,349.3c1.3,3.8,2.5,7.6,4.8,10.9C386.3,356.3,385.1,352.5,382.5,349.3L382.5,349.3z
		 M426.4,351.2l-0.6,0.1c-0.1,2.8-0.9,5.5,0.1,8.3l0.3-4h0.3l0.9,2.3l0.5-0.2L426.4,351.2z M172.6,395l3.8-14.5
		C174.2,385.1,172.9,390,172.6,395z M338.4,135.9c-2.9-0.6-5.9-0.6-8.9,0C332.6,137,333.6,137,338.4,135.9z M335.3,156.1
		c2.1,0,4.3,0,6.4,0c1.4,0,2.8-0.2,3.1-2.2c-1.1,1.5-2.6,1.2-4.1,1.2C338.9,155,337,154.7,335.3,156.1z M393.8,263.7
		c1.4,0.4,1.5,1.4,1.1,2.8l4.3-0.3l-1.7-2.8c-1.1-0.1-2.1-0.2-3.1-0.2C394.4,263.3,394.3,263.4,393.8,263.7z M396.3,390.7l-0.6-0.1
		l-3.5,14l0.7,0.2L396.3,390.7z M366.4,172.8v0.6l11-0.5v-0.7L366.4,172.8z M354.1,109.5c-0.8,2-2.8,3.3-3.3,5.8
		C354.5,113,355,112,354.1,109.5L354.1,109.5z M362.2,386.5c0.8,2.7,4.7,7.9,6.6,9.1L362.2,386.5z M339.9,131.7
		c4.6,0.6,7.1,0.4,8.5-0.6C345.6,131.2,342.9,130.4,339.9,131.7L339.9,131.7z M202.1,429.7l1.3-7.8
		C202,424.3,200.9,426.8,202.1,429.7z M333.9,472.7l-0.4,0.4c1.7,2.5,3.4,4.1,5.5,4.9L333.9,472.7z M361.7,209.7l-0.5-0.4
		c-1.5,1.9-3.8,3.1-4.7,5.5c1-0.7,2-1.4,2.9-2.3C360.2,211.6,360.9,210.6,361.7,209.7z M397.5,291.4c1.6,0.5,3.3,1.3,5.4,0.4
		C401.3,290.7,399.3,290.6,397.5,291.4L397.5,291.4z M388,325.7c0.4,2.8,0.7,5.7,3,8.3L388,325.7z M413.3,378.6
		c-1.2,2.3-2.5,4.6-1.3,7.4L413.3,378.6z M346,162.7c0.3-1.6,0.5-3-1-3.9c-1.3-0.7-2.4-0.1-3.6,0.8C345,159.4,345,159.4,346,162.7
		L346,162.7z M349.6,113.2c-1.5-1.2-3.4-1.7-5.3-1.4C345.9,113.4,347.8,113.3,349.6,113.2L349.6,113.2z M355.7,130
		c1.7,1.3,4,1.3,5.7,0H355.7z M375.1,406l2.8,6.4C378,409.9,377,407.6,375.1,406z M288,425.9c0.3-1.6,1.2-3.2,0.3-5
		C287.5,422.4,287.4,424.2,288,425.9L288,425.9z M209.3,390.9c2.6-1.5,2.6-1.5,3-3.2L209.3,390.9z M349.5,129.4l0.7,0.1
		c0.5-1.2,0.5-2.6-0.2-3.8L349.5,129.4z M398.7,387.6l-0.6,0.3l1.3,4l0.7-0.2L398.7,387.6z M349.4,374.2l-0.2,0.2
		c0.4,0.5,0.8,0.9,1.3,1.4s0.9,0.9,1.3,1.3l0.3-0.3L349.4,374.2z M269,429.7l-0.3-3.1C267.5,427.7,267.7,428.7,269,429.7L269,429.7z
		 M350.3,123.7c-0.9-2-0.9-2-2.4-1.1L350.3,123.7z M279.2,421.5h0.6l-0.2-2.3h-0.4L279.2,421.5z M397.5,262.1l-0.2-0.7l-1.6,0.6
		l0.1,0.5L397.5,262.1z M320.1,418.9h-0.4c-0.1,0.3-0.1,0.6-0.1,0.9c0.1,0.3,0.3,0.6,0.4,0.8l0.3-0.1L320.1,418.9z M209.3,174v0.1
		h1.3V174H209.3z"/>
	<path class="st0" d="M136.4,372.2c-0.9-2.7,0.4-6.6,3-9.3L136.4,372.2z"/>
	<path class="st0" d="M249.3,532.6c0.3,0.6,0.6,1.2,0.8,1.9c0.2,0.6,0.3,1.3,0.3,1.9C249.2,533.9,249.2,533.9,249.3,532.6L249.3,532.6z"/>
	<path class="st0" d="M330.8,529.2l1.3-1.2l0.4,0.4l-1.1,1.4L330.8,529.2z"/>
	<path class="st0" d="M198.7,488.2l-0.3-1.2l0.5-0.1l0.2,1.2L198.7,488.2z"/>
	<path class="st0" d="M331,365.6l2,3.6l-8.6-4l2.8-2.5L331,365.6L331,365.6z"/>
	<path class="st0" d="M203.3,246.1l-1.8,2.8l0.3,0.5c3.7-1.8,7.5-2.8,11.7-1.8c-2.1,0.6-4.2,1.4-6.3,1.9c-2.2,0.5-4.2,1.6-5.8,3.1
		c-1.3,1.1-2.7,2-4.1,3c-0.4,0.2-0.7,0.5-1,0.9c-0.8,1.2-1.6,2.3-3.3,2.1c-0.5,0-0.9,0.3-1.1,0.6c-0.9,1.3-2.3,1.8-3.7,2.5
		c-1.9,1-3.7,2.2-5.2,3.7c-2.3,2.1-4.8,3.9-7.5,5.4c-0.3,0.1-0.5,0.2-0.8,0.2c-0.8-4.9,1.9-8.7,3.8-12.9l1.1,1.7
		c1.7-3.6,4.3-6.7,7.6-8.9l-0.1,1.6c5.1-2.9,10.5-5.2,16.1-6.9L203.3,246.1z"/>
	<path class="st0" d="M233.7,268.6c2.7-2.9,2.8-6.6,3.4-10.4c3.4-0.1,6.6,1.1,9.2,3.3c1.5,1.3,1.8,3.1,1.2,5.1c-0.6,2.2-2.5,2.8-4,2.9
		c-3.2,0.1-6.3,0-9.5-0.3L233.7,268.6z"/>
	<path class="st0" d="M231.9,262.6c0,1.3-1,2.3-2.3,2.4c-1.2-0.1-2.1-1.1-2.1-2.3c0-1.4,1.1-2.5,2.4-2.5c0,0,0.1,0,0.1,0
		C231.4,260.3,232,261.1,231.9,262.6z"/>
	<path class="st0" d="M312.5,376.8c2.5,0.3,3.2,2,3.5,3.9L312.5,376.8z"/>
	<path class="st0" d="M342.3,258.7c-0.9,3.6-1.1,6.8,0.6,9.9c2.8,5.3,9.8,7.8,15.2,2.9c3.1-2.8,3.6-6.8,3.5-10.9c0-0.6-0.1-1.2-0.2-1.8
		c0-0.1,0.1-0.2,0.3-0.5c2-0.4,4.1-0.1,6,0.8c1.6,0.9,3.2,2,4.6,3.2c0.8,0.6,1.4,1.6,1.6,2.6c0.1,2.3-0.1,4.6-0.4,6.9
		c-0.1,0.5-0.8,1.2-1.4,1.4c-2.8,1.3-5.7,2.5-8.6,3.6c-0.8,0.3-1.7,0.2-2.4-0.2c-1.8-0.5-3.7-0.7-5.5-0.7c-1.2-0.1-2.3-0.1-3.5,0
		c-5.2,0.6-10-0.8-14.5-3c-2.4-1.3-4.7-2.9-6.7-4.7c-1.2-0.9-1.2-2-0.2-3.3c1.5-1.8,3-3.5,4.6-5.2c0.6-0.5,1.3-0.9,2.1-0.9
		C338.9,258.6,340.5,258.7,342.3,258.7z"/>
	<path class="st0" d="M354.8,263.1c1.3,0,2,0.9,2,2.4c0,1.3-1,2.3-2.3,2.3c-0.1,0-0.1,0-0.2,0c-1.2,0.1-2.2-0.8-2.3-2c0-0.1,0-0.2,0-0.4
		c0.1-1.4,1.3-2.4,2.6-2.3C354.8,263.1,354.8,263.1,354.8,263.1z"/>
	<path class="st0" d="M456.6,240.9l-2.2,0.1l2.2-2.6V240.9z"/>
</g>
</svg>
