<?xml version="1.0" encoding="utf-8"?>
<!-- Generator: Adobe Illustrator 18.1.1, SVG Export Plug-In . SVG Version: 6.00 Build 0)  -->
<svg version="1.1" id="图层_1" xmlns="http://www.w3.org/2000/svg" xmlns:xlink="http://www.w3.org/1999/xlink" x="0px" y="0px"
	 viewBox="0 0 560 560" enable-background="new 0 0 560 560" xml:space="preserve">
	 <style type="text/css">
	.st0{fill:#FFFFFF;}
</style>
<g>
	<g>
		<path class="st0" d="M395.6,404c-3.8-8.9-6.3-17.8-7.8-27.1c2.7,5.1,5.4,10.1,8.1,15.2c2.2-1.2,2.8-3,2.6-5.1c-0.6-4.7-1.3-9.4-1.9-14.1
			c-0.8-6-2.1-12-2.4-18.2c0-0.6,0-1.1,0.1-1.7c1.6,3.7,1.9,8,4.6,11.1c0.6,0,0.7-0.4,0.7-0.8c0.8-16.1,4.9-31.5,9.4-46.9
			c3.4-11.7,4.4-23.8,4.8-36c0.1-1.9,0.6-3.9-0.7-5.8c-0.3,2.1-0.6,4.3-0.8,6.4c-1.6,17-5.4,33.5-10.1,49.8c-2,7-2.6,14.2-3.2,21.4
			c-0.1,0.9,0,1.9-0.9,2.8c-1.1-6.8-2.1-13.5-3.3-20.6c-1.2,1.7-1.6,3-2,4.5c-2.3,9.6-1.7,19.1,0.2,28.7c1.3,6.4,2.4,12.8,3.5,19.3
			c-4.8-7.2-6.9-16.1-14.9-21.9c1.5,11.6,5.1,22.1,7.9,32.9c-2.4-2.2-4.9-4.4-7.3-6.6c-1.1-1-2.3-2.3-3.9-1.5
			c-1.5,0.8-0.9,2.5-0.7,3.9c1.3,7.9,2.1,15.9,4.6,23.5c-0.2,0.1-0.3,0.2-0.5,0.3c-3-2.5-5.9-5.1-8.9-7.6c-1.6,1-0.5,2.9-1.5,4.1
			c-0.9-0.5-1.1-1.4-1.6-2.1c-2.3-3.7-4.5-7.6-7.3-11c-0.8-1-1.8-1.8-3.1-2.1c-1,0.3-0.8,1.6-1.8,1.9c-6.4-9.1-12.9-18.2-19.6-27.8
			c-1.1,3.7,0.8,6.5,0.8,9.7c-2-1.1-3.4-2.5-4.9-3.8c-8.2-6.8-16.3-13.7-24.5-20.5c-0.6-0.5-1.2-1.3-2-0.7c-0.9,0.6-0.6,1.5-0.2,2.3
			c0.8,1.5,1.6,3,2.6,4.9c-1.5-0.3-2.4-1.1-3.2-1.7c-3.8-2.7-7.7-5.4-11.5-8.1c-1-0.7-2.1-1.4-3.4-1.6c-2.2,3.2,0.2,6.3,0.1,9.9
			c-3-2.6-5.6-5.4-9.1-7.5c0.2,2.4,0.3,4.5,0.5,7.3c-2.6-1.8-4.8-3.4-7-5c-1.8-1.3-3.5-2.2-5.7-0.6c-1-1.3-1.9-2.5-2.8-3.6
			c-2.5-3-4-2.8-5.9,0.6c-0.6,1-1.2,2.1-2,3.5c-0.2-1.9-0.5-3.2-1.2-4.5c-1.4,0.1-2.3,0.8-3.3,1.7c-3,3-5.4,6.4-8,9.7
			c-0.7,0.9-1.4,2-2.6,2.8c0-1.8,0.5-3.3,0.8-4.8c0.4-2.8-0.2-3.3-2.8-2.3c-4.5,1.6-7.9,4.9-11.3,8.1c-2.2,2.1-4.4,4.1-6.6,6.1
			c0-1.5,0-3.3,0-5.1c-0.2-0.1-0.4-0.2-0.6-0.4c-7.3,8.6-15.1,16.7-23,25.5c0.2-5.1,4.5-7.1,6.2-10.7c-5.8,2.3-10.1,6.5-14,11.3
			c-3.7,4.7-6.6,10.1-10.1,15c-0.1-11.8-5.9-22.6-5.7-34.4c-3,1.6-2.6,4.7-4.2,7.1c-2.7-10.6-3.5-21.3-5.4-31.8
			c-2.6,4.6-4.3,9.5-7.1,14c0.1-15.6-2.5-30.9-3.3-46.4c0.9,3.9,1.8,7.8,2.7,11.9c1.1-0.9,0.6-1.8,0.5-2.5c-1.6-12-3-24.1-5-36.1
			c-2-11.7-1.3-23.2,0.4-34.8c0.5-3.2,0.9-6.5,1.3-9.7c0.1-0.5,0.3-1.1-0.5-1.6c-2.4,4.7-3,10-4.5,15c-0.7-0.5-0.6-1.1-0.7-1.7
			c-0.3-2.7-0.6-5.5-1.3-8.2c-0.5-2-0.4-4,0.9-5.7c2.7-3.5,5.9-6.5,8.9-9.6c1,0.4,0.9,1.1,0.9,1.7c-0.2,8.6-0.6,17.2-0.5,25.8
			c0.2,13.9-0.9,27.9,2.2,41.6c1.9,8.5,5.2,16.5,8.6,24.5c3.1,7.1,3.7,14.7,4.6,22.2c0.9,7.6,4.2,14.2,8.9,20c2.5,3.1,6,5.6,8.5,8.9
			c1.5,2,3.2,1.8,4.3-0.2c6.2-11.6,15.4-20.9,23.8-30.8c12.5-14.7,24.4-29.8,35.6-45.4c0.2-0.3,0.5-0.7,0.9-1.3
			c-1.9,0.2-2.8,1.2-3.7,2.2c-5.4,6-10.6,12-15.3,18.6c-0.7,1-1.5,2-2.7,2.7c1.3-3,2.6-5.9,3.9-8.8c0.9-2,1.8-4,1.5-6.3
			c-0.1-0.5,0.1-1.1,0.3-1.7c2.8-10.2,2.5-20.7,3.8-31c0-0.2,0-0.4,0-0.6c-0.3-6.5-2.2-7.9-8.5-6.4c-3.4,0.8-6.6,2.1-10.1,2.7
			c-3.4,0.5-6.6,0-9.8-1.2c-5.2-2.1-10-4.7-14.7-7.7c-1.2-0.8-2.5-1.7-4.4-1.4c2.7,4.3,3.9,9.5,9.6,11c-2.5,2.1-4.5,2.1-6.9-0.2
			c-3.3-3.1-6.5-6.3-9.8-9.5c-1.2-1.2-2.5-2.1-4.3-1.8c-1.4,0.2-2.5-0.5-2.8-1.8c-0.3-1.5,1.2-1.8,2.3-1.9c8.3-0.8,15.9-4,23.6-6.9
			c5-1.9,9.9-3,15.2-1.3c0.4,0.1,1,0.1,2.1,0.2c-4.7-3.5-8.9-6.5-13.6-8.8c-4.1-2-8.4-3.1-12.9-3.5c-3.7-0.3-7.3-1.1-11-1.4
			c-4.9-0.3-9.5,0.3-13.7,3.1c-0.5-2.4-0.5-2.4,3.3-5.7c-0.7-0.8-1.9-0.1-2.7-1.1c1-1,2.3-1.6,3.6-2.1c1.9-0.7,3.6-1.6,5-3.2
			c2.3-2.5,5.1-2.9,8.4-1.4c-0.3-2.5,1-2.6,2.6-2.5c5.7,0.4,10.9,2.2,15.5,5.7c7.2,5.5,14.6,10.9,21,17.4c0.4,0.4,1,0.8,1.7,1.4
			c0-13.9,0-27.5,0-41.4c-4-0.3-8-0.1-12,0.4c-14.4,1.8-28.6,4.7-42.2,9.8c-11.7,4.4-22.2,10.5-30.7,19.7c-2.7,2.9-4.4,6.4-6.2,9.9
			c-0.4,0.8-0.5,1.9-1.8,1.7c-1.2-0.3-1.3-1.3-1.4-2.3c-0.2-3.8-0.6-7.5-0.7-11.3c-0.5-8.9-2.2-17.8-2-26.8
			c0.2-10,1.4-19.8,2.8-29.7c0.6-4.5,3.3-7.9,6.4-11c15.3-15,33.5-24.7,54.3-29.4c8.3-1.9,16.7-3.5,25.1-4.5c3-0.4,6.1-0.3,9.1-0.5
			c1.9-0.1,2,1.1,2,2.5c0,10.1,0,20.2,0,30.3c0,16.3,0,32.7-0.1,49c-0.1,10.6-0.5,21.2,0.1,31.7c0.2,3.7,0.5,7.4,0.8,11
			c0.2,2.9,0.9,3.6,3.8,3.6c9.7,0,19.3,0,29,0c10.1,0,20.2,0,30.3,0c1,0,2-0.1,3,0.3c0.2,1.8-0.3,3.5-0.7,5.2
			c-0.7,3,0.1,5.3,2.7,6.9c4.6,2.9,8.6,6.5,12.5,10.2c4.7,4.5,10.3,6.2,16.8,5c4.7-0.9,9.6-1,13.8-3.8c1-0.7,2-1.2,2.6-2.5
			c-1.2-0.4-2.2,0.1-3.1,0.5c-3.4,1.3-6.8,2-10.4,2.3c-5.4,0.4-9.7-1.6-13.1-5.7c-3.1-3.8-6.4-7.5-9.8-11c-0.2-0.2-0.3-0.5-0.4-0.7
			c0.5-0.6,1-0.3,1.4-0.2c6,1.2,12,2.4,17.9,3.6c3.5,0.7,6.9,0.5,10.2-1.1c4.9-2.3,9.8-4.4,15.2-5.3c2.4-0.4,4.5-2.1,7-2.5
			c1-0.1,2-0.4,3-0.1c3.2,1.1,6.6,0.5,9.9,0.9c0.7,0.1,1.5-0.1,2.2-0.5c-0.2-1.2-1.2-1-1.8-1.2c-4.9-1.6-10.1-2.2-14.8-4.7
			c-5.5-2.9-11.3-5-16.9-7.4c-4.1-1.8-8.5-1.4-12.8-1c-2.5,0.2-5.1,0.6-7.7,0.9c-0.2-1.4,0.8-1.7,1.5-2.1c9.9-6.1,20.8-9.4,32-11.7
			c8.2-1.7,16.4-2.5,24.6,0.3c1.1,0.4,2.1,0.8,3.1,1.3c1.5-2.1,1.4-3.3-0.4-4.9c-2.1-1.8-4.6-3-7.2-4c-1.6-0.6-3.1-1.4-4.4-2.5
			c-2.6-2.3-5.8-2.5-9-2.1c-2.2,0.3-4.5,0.7-6.7,1c-0.7-0.6,0.2-1.2,0-1.8c-0.3-0.4-0.8-0.3-1.1-0.1c-3.2,1.4-6.4,2.8-9.3,4.7
			c-4.8,3.1-9.5,6.2-14.2,9.4c-5.9,4-12.5,6.4-19.1,8.7c-0.2,0.1-0.4,0-0.6,0c0-38.8,0-77.6,0-116.5c7.5-0.1,14.8-0.3,22.2,0.9
			c10,1.7,19.4,5.3,28.6,9.5c9.8,4.4,20,8.1,29.3,13.8c9.3,5.6,18.5,11.4,27.6,17.3c8.6,5.6,11.6,14.3,12.5,24
			c0.8,9,0,17.9-0.3,26.8c-0.3,9.2-0.6,18.4-0.9,27.7c-0.3,8.4-3.2,15.9-8.3,22.6c-1.1,1.5-2.4,2.7-4.4,2.3
			c-0.8-0.2-1.2-0.5-1.3-1.4c-0.7-12.3-6.4-22.5-13.5-32.1c-7.5-10.2-17.8-17.2-28.4-23.8c-11.8-7.3-24.4-12.4-38.2-14.2
			c-7-0.9-14-1.2-21-0.3c-0.9,0.1-1.8,0.2-2.6,1c0.6,0.9,1.6,0.7,2.5,0.8c8.6,0.4,17.1,1.1,25.5,3.2c10.9,2.8,20.5,8.2,30,13.9
			c8.3,4.9,16.3,10.2,22.9,17.2c6.3,6.6,11,14.3,16,21.8c2.1,3.2,3.8,6.7,4.7,10.4c0.2,0.7,0.4,1.4,0.7,2c1.8,4.1,5.4,5.1,9,2.5
			c1.4-1,2.6-2.2,4.1-3.5c0.5,3.3,0.3,6.3-1,9c-1.1,2.3-1.6,4.5-1.4,7c0.2,2.9-0.5,5.5-2.1,8c-2.2,3.3-2.6,7.2-2.9,11
			c-0.8,9.6-3.4,18.8-5.6,28.1c-3.6,15.2-1.8,30.1,4.4,44.3c3.2,7.4,8.8,12.8,16.2,16.2c0.8,0.4,1.5,0.7,2.3,1.1
			c-4.2,2.2-12.1-0.3-14.5-4.7c-2.8-5.2-6.1-10.1-9.3-15c-0.4-0.6-0.6-1.3-1.4-1.5c-0.5,0.9,0.1,1.6,0.5,2.2
			c4.6,7.7,9.2,15.4,13.7,23.1c3.5,5.9,8.3,10.6,13.9,14.5c0.9,0.6,2,1.1,2.9,2.4c-1.9,0.2-3.5,0.1-5-0.7c-3.6-1.7-7.2-3.4-10.8-5.1
			c-1.4-0.7-2.4-1.6-3.3-2.9c-3.2-4.6-6.5-9.2-9.7-13.7c-0.7-1-1.5-2.1-2.8-3c0,1.3,0.6,2,1.1,2.8c3.8,6,8.2,11.6,11.7,17.8
			c2.5,4.5,4.4,9.2,6,14.1c2.5,7.5,5.1,14.9,10.4,21c0.4,0.4,0.6,1,0.9,1.6c-2,0.8-3.8,0.2-5.3-0.8c-6.2-3.8-10.9-8.8-12.8-16
			c-1-3.7-2.3-7.3-3.5-10.9c-0.3-1-0.6-2.1-1.6-3.1c-0.4,1.1,0.1,2,0.3,2.8c2.4,8.8,5.3,17.5,6.8,26.6c0.9,4.9,1.1,9.9,2.4,14.7
			c1.5,5.8,3.9,11.2,6.5,16.6c0.3,0.6,0.8,1.2,0.6,2.2c-1.7-0.3-3.1-1.1-4.4-2.1c-5.3-4-9.7-8.7-12.1-15.1c-1.5-3.9-3.7-7.3-5.7-11
			c-0.4-0.7-0.9-1.4-1.8-1.7c-0.4,0.7,0.1,1.2,0.3,1.7c6.4,11.5,10.2,24,12.9,36.8c1.5,7.1,3.8,14,8.3,19.9c0.2,0.2,0.2,0.5,0.3,0.8
			c-1.1,0.2-1.7-0.4-2.3-1c-4.5-4.1-9.1-8.1-13.6-12.3c-4.1-3.8-6.7-8.4-7.9-13.8c-0.5-2.3-1.3-4.6-2.5-7.2c-0.4,1.7-0.1,3,0.2,4.2
			c1.3,6.3,3.2,12.5,4.1,18.9c0.8,5.7,0.2,11.2-1.6,16.6c-2.9,8.6-5.3,17.4-8.6,25.8c-0.9,2.4-0.9,4.8-0.4,7.7
			c-1.8-1.2-2.4-2.7-2.9-4.2c-1.7-5.8-1.7-11.8-2.4-17.7c-0.9-8.6-0.3-17,2.4-25.2c1.1-3.2,1.3-6.7,0.8-10.4c-0.9,1.2-0.9,2.4-1,3.5
			c-0.7,8.9-4.3,16.5-9.9,23.3c-4.2,5.1-8.3,10.5-12.1,15.9c-2.9,4.1-5,8.3-3.7,13.6c-2.3-0.7-2.6-2.3-2.5-4.1
			c0.4-8,1.5-15.8,3.6-23.5c0.4-1.4,0.8-2.9,1.1-4.3c0.7-3.4,2.2-6.5,4.3-9.4c3.6-4.8,5.6-10.3,6.6-16.2c0.1-0.7,0.3-1.5-0.1-2.5
			c-1,3.9-2.1,7.4-3.7,10.8c-4.5,9.5-11.5,16.8-19.7,23.1c-6.6,5.1-13.6,9.9-19.9,15.3c-5,4.3-9.3,9.3-12.6,15.1
			c-0.9,1.6-1.9,3.1-3.9,4.7c0.3-1.8,0.3-3.2,0.7-4.5c1.3-4.8,2.9-9.5,5.6-13.8c4.1-6.6,7.5-13.7,13.3-19.2c2.7-2.5,5.3-5.1,8-7.7
			c1.4-1.4,2.4-3.1,2.9-5.1c-4.8,6.5-11.7,10.5-18.1,15.2c-4.4,3.3-8.7,6.9-12.3,11.1c-0.1,0.1-0.3,0.2-0.9,0.5
			c6.4-28.5,9.8-56.8,6.7-85.6c-1,1.4-1,2.9-1.1,4.5c-0.6,13.8-0.8,27.5-2.2,41.3c-1.1,10.8-2.5,21.7-6.1,31.9
			c-6.5,18.2-14.5,35.7-30.3,48.2c-3.3,2.6-7,3.9-10.7,5.5c-7.1,3-14.5,5.2-21.9,6.7c-7.8,1.6-18-0.3-23.2-7.6
			c-4-5.7-4-10.9,0.2-16.4c0.5-0.7,1-1.3,0.6-2.3c-0.4-1.1,0.5-1.8,1.2-2.5c5.7-6.7,13.1-11.2,20.6-15.7c11-6.7,22.3-12.8,34.2-17.8
			c0.8-0.3,1.7-0.6,2.6-1.7c-2,0.1-3.7,0.6-5.2,1.2c-19.7,7.3-38.4,16.3-54.1,30.7c-1.4,1.3-2.5,1.3-4.1,0.4c-5.1-3-9-7.2-12-12.2
			c-5.6-9.2-9-19.4-12.6-29.5c-1.4-3.9-2.7-7.9-4.1-11.9c-0.3-0.8-0.6-1.5-1-2.7c-0.9,3.9,1.1,11.9,6.5,27.4c3.1,8.9,7,17.3,13,25
			c-3.3,1.6-6.4,2.9-9.6,3.9c-6.3,1.9-12.7,3.8-19,5.7c-0.9,0.3-1.6,0.3-2.4-0.3c-6.6-4.7-13-9.7-19.8-14.1
			c-9.4-5.9-14.5-14.7-18.2-24.7c-2.4-6.4-3.2-13.2-4.6-19.9c-1-4.8-2.6-9.4-3.9-14.1c-0.1-0.3-0.2-0.7-0.7-0.7
			c-0.1,1.9,0.5,3.6,1,5.3c2.7,9.3,3.5,18.8,2.3,28.4c-0.4,3.3-1.7,6.3-3,9.3c-0.4,0.9-0.8,1.8-2,2.3c-0.1-1.5,0.5-2.8,0.9-4.1
			c2.7-9.2,2.7-18.3-2.3-26.8c-3.5-5.8-4.2-12-4.2-18.6c0-2.7,0.1-5.5-0.8-8.1c-0.5,8.8-1,17.6-1.5,26.5c-1.4-0.5-1.1-1.2-1.1-1.8
			c-0.2-4.1-0.5-8.2-0.6-12.3c-0.2-6.1-2.3-11.8-3.4-17.7c-0.7-3.6-1.2-7.1-1.2-10.8c0-6.4,1.7-12.2,7-16.6
			c-1.7,0.2-2.4,0.7-3.8,2.3c-3,3.6-4,7.9-4.7,12.4c-0.6,3.9-1.3,7.7-2.2,11.5c-2-2.4-2.8-11.3-2.7-16.5c0.1-5.7,0.2-11.5,2.2-17
			c2-5.3,5.2-10,8.4-15.3c-2.1,0.8-2.9,2-3.8,3.2c-5.4,8.1-8.3,17.2-10.9,26.4c-0.3,1.1-0.4,2.2-1.4,3.3c-0.8-1.9-1.1-3.7-0.9-5.5
			c1.2-11.7,2.9-23.5,7.6-34.2c7.8-17.8,11.3-36.7,16.5-55.2c0.8-2.8,1.6-5.6,2-8.5c0.1-0.8,0-1.5,0-2.6c-4.1,2.2-4.9,6.6-7.3,10
			c-0.1-6.4,7.7-42.2,13.9-48.8c0.9,2.9,1,5.7,1.5,8.5c1.2,7.1,2.2,14.2,3.3,21.3c0.1,1,0.2,2,0.2,3c0,11.2,0,22.3,0,33.5
			c0,2.6-0.8,5.2-0.3,8.1c1.8-1,2.5-2.6,3.2-4.1c1.8-4.1,3.4-8.3,5.1-12.4c0.3-0.7,0.4-1.5,1.3-2.1c1.4,13.5,6,26.4,5.7,40.4
			c2.4-1.3,2.9-3.2,3-5.4c0.1-2.1,0.2-4.1,1.1-6.1c3.4,9.4,4.4,19,3.5,29c5.6-9.8,11.4-19.4,18.9-28.2c0.5,1.2-0.2,1.8-0.5,2.5
			c-0.6,1.7-1.5,3.2-1.7,5c-0.1,0.6-0.1,1.2,0.5,1.5c0.7,0.4,1.2,0.1,1.7-0.4c0.3-0.4,0.7-0.8,1-1.1c7.1-8.3,14.1-16.5,21.2-24.8
			c0.4-0.4,0.6-1,1.4-1.1c0,1-0.2,2-0.1,2.9c0.1,0.7,0.2,1.6,1,2c0.9,0.4,1.7-0.1,2.3-0.8c1.1-1.3,2.2-2.6,3.3-3.9
			c3.5-4.2,7-8.4,11.4-11.8c0.7-0.5,1.2-1.2,2.4-1.3c-0.3,4.9-2.5,9.7-0.8,14.8c2.9-8,9.2-13.4,14.7-19.8c1.2,2.9,0.2,6,2.3,8.8
			c0.9-4.7,3.9-7.7,6.1-11.6c2.4,2.5,4.7,4.9,7.1,7.4c0.6-0.9,1.1-1.6,1.6-2.4c4.5,2.5,9,5,13.7,7.6c0.5-1.9-1-3.3-0.6-5.4
			c5.9,5.8,11.5,11.4,17.2,16.9c0.5-0.6-0.1-1.2-0.4-1.8c-0.8-1.2-1.5-2.4-2.4-3.5c-4-5.2-5.8-9.3-6.7-16.3c0.8-0.2,1.3,0.4,1.7,0.9
			c5.2,4.6,10.9,8.4,17.1,11.5c1,0.5,1.9,0.9,3.3,0.5c-1.3-1.8-2.5-3.6-3.8-5.5c1.3-0.3,1.8,0.5,2.4,0.9c6.1,4.7,12.2,9.5,18.3,14.3
			c2.6,2.1,4.6,4.9,6.6,7.5c0.4,0.4,0.7,0.9,1.1,1.3c1.4,1.2,2.5,0.8,2.8-1.1c0.1-0.8,0-1.5,0-2.7c6.8,9.2,12.6,18.8,20.3,27.6
			c0.3-2.6-0.9-4.3-0.8-6.8c2.5,3.6,4.5,6.8,6.8,9.8c2.4,3.2,2.8,7.1,4,11.1c2.6-3.7,1.1-7.6,1.5-11.8c4.1,4.4,8.7,7.5,13.6,10.4
			c-4.9-10-6.5-20.9-9.1-32.1C385.5,396.9,389.3,401.9,395.6,404z M357,393c0.2-0.1,0.3-0.2,0.5-0.4c-0.4-1.7-1.4-3.2-2.4-4.7
			c-7.5-11.1-15.2-22-23.2-32.6c-10.6-14.1-20.5-28.6-26.8-45.3c-0.2-0.6-0.4-1.4-1.4-1.3c-0.5,1.2-0.2,2.3,0.1,3.5
			c3,11.4,8.5,21.6,15.3,31.2c11.3,16.1,23.7,31.4,35.6,47C355.3,391.3,356.2,392.1,357,393z M275.9,389.6c0.4,0.5,0.9,0.4,1.2,0.4
			c11.5,0.3,22.6,2.5,33.6,5.9c8.2,2.5,16.8,4.1,22.3,11.7c0.3,0.5,0.9,0.7,1.5,0.4c0.6-0.3,0.7-0.9,0.7-1.4
			c-0.2-2.3-0.4-4.5-0.7-6.8c-0.1-0.9-0.8-1.6-1.8-1c-1.7,1-3.3,0.4-4.9-0.4c-14.2-6.9-29.1-11.1-45-10.8
			C280.3,387.5,277.8,387.6,275.9,389.6z M268,390.5c0.6,0,0.9,0,1.3,0c1.1-0.1,2.5,0.4,2.6-1.3c0.1-1.6-1.2-1.8-2.3-2
			c-2.4-0.4-4.9-0.9-7.4-0.5c-9.8,1.4-19.5,2.9-28.6,7c-5.4,2.4-10.8,4.8-16.8,5.2c-1.9,0.1-2.4,1.4-2,3c0.3,1.4,0.7,2.7,1.2,4.1
			c0.8,2.4,2,2.7,3.8,0.9c2.2-2.2,4.6-4.1,7.3-5.5c5-2.6,10.1-5.2,15.2-7.7c6.6-3.3,13.5-5.1,21-3.7
			C265,390.2,266.6,390.3,268,390.5z M291.1,408c-0.8-0.7-1.5-0.8-2.4-0.8c-5.4,0.1-10.8,0.1-16.2,0.2c-5.6,0.1-11.1-0.1-16.3-2.3
			c-1.3-0.5-2.8-1.2-3.5,0.4c-0.7,1.5,0.7,2.4,1.9,3.1c0.6,0.4,1.4,0.6,2.2,0.8c2.1,0.6,4.2,1.1,6.4,1.6c8.8,2,17.5,3,26-1.1
			C290.1,409.6,291.1,409.4,291.1,408z M365,329.6c0.3-0.3,0.5-0.5,0.8-0.8c-8.3-10.9-18.1-20.4-27.2-27
			C346.2,309.9,355.6,319.8,365,329.6z M302.2,342.4c-1.9-1.1-3.6-1.7-5.5-1c-3.8,1.4-6.7,3.9-8.5,7.6c-0.6,1.1-0.6,2.2,0.6,3
			c1.3,0.8,2.5,0.7,3.4-0.6c1.4-2,2.9-3.9,4.8-5.3C298.5,344.9,300.3,343.7,302.2,342.4z M246.5,344c2.1,3.9,7.5,6.3,11.7,5.1
			c0.5-3.2-0.1-4.7-2.4-5.9C252.6,341.5,248.9,341.8,246.5,344z M356.7,308.9c6.5,4.6,21.8,0,25.9-7.9
			C374.4,305.8,366.6,310.8,356.7,308.9z M273.6,352.6c-0.3-0.9-0.9-1.2-1.4-1.5c-3.1-1.5-5.1-4-6.7-6.9c-1.1-1.9-2.6-3.5-4.3-5
			c-1.2-1-2.6-1.8-4.7-1.4c3.3,2.4,5.8,5,7.2,8.5C265.8,351.2,268.2,352.7,273.6,352.6z M365.3,272c2.4,2.6,7.8,3.3,11.5,1.9
			c1.9-0.8,3.3-2,3.5-4.5C375.2,270.3,370.4,271.1,365.3,272z M274.5,379.3c0,0,0,0.1,0,0.1c-1.2,0-2.4,0-3.6,0
			c-0.5,0-1,0.2-1.1,0.8c-0.1,0.4,0.1,0.8,0.4,1.1c1.9,1.7,6.9,1.7,8.9,0c0.3-0.3,0.6-0.6,0.5-1.1c-0.1-0.5-0.5-0.6-0.9-0.7
			C277.3,379.5,275.9,379.4,274.5,379.3z"/>
		<path class="st0" d="M419.3,163.1c-3.6-2-6-4.7-7.5-8.3c-5.3-12.5-11.7-24.3-19.5-35.4c-6.9-9.8-14.7-18.8-24.8-25.5c-3.8-2.6-7.8-5-12.2-6.5
			c-0.4-0.2-0.8-0.6-1.4-0.2c-0.1,0.7,0.5,0.8,0.9,1c12.5,5.9,21.5,15.8,29.9,26.4c8.8,11.2,16.1,23.2,21.1,36.6
			c0.2,0.6,0.7,1.2,0.5,2c-0.8,0.5-1.2-0.2-1.7-0.5c-17.8-10.9-37.1-18.5-57.4-23.3c-6.4-1.5-12.8-1.3-19.3-1
			c-3.7,0.2-7.4,0.4-11.1,0.6c-0.5-1.9-0.2-3.7-0.3-5.6c-0.2-4-1.2-5.1-5.1-5.1c-23.2,0-46.5,0-69.7,0c-3.4,0-4.3,0.9-4.3,4.3
			c0,2.4,0,4.8,0,7.2c0,1-0.1,1.9-1.4,1.8c-1.3-0.1-3.1,0.4-3.2-1.5c-0.1-4.5,0.3-9.1,0.8-13.6c0.1-1,0.9-1.4,1.8-1.5
			c3.7-0.7,7.4-1.4,11.2-0.2c1.2,0.4,2.3,0.4,3.1-0.6c1-1.2-0.2-1.9-0.7-2.8c-0.6-1-0.7-2.1-1-3.2c-1.5-7.2-3.8-14-8.7-19.7
			c-0.9-1-0.9-2.1-0.6-3.4c2.3-8.4,5.1-16.7,9.3-24.4c4.7-8.7,8.8-17.7,14.9-25.5c10.9-14.2,25.3-22.7,42.8-26.3
			c13.9-2.9,27.8-2.5,41.8-1.1c6.5,0.7,12.9,2.2,19.4,2.5c8.4,0.4,16.5-1.3,24.4-4.3c2.2-0.8,3.8-2.8,6.5-3.4
			c-0.5,1.7-1.5,2.9-2.5,4c-6,6.5-13.2,10.4-22,11.2c-3.7,0.3-7.3,0.7-11,0.8c-0.9,0-1.8-0.1-2.8,0.6c2,0.8,3.8,1,5.7,1
			c3.1-0.1,6.3-0.2,9.4-0.5c3.1-0.3,5.9,0.1,8.7,1.3c6.5,2.8,12.9,5.5,19.5,8c8.8,3.4,17.8,3.9,27,1.2c0.5-0.1,1-0.5,1.8-0.1
			c-1.4,2.5-3,4.9-5.5,6.4c-12.7,7.6-25.8,9.5-39.6,3.1c-4.9-2.3-9.8-4.5-14.7-6.7c-2.3-1-4.6-1.9-7.2-1.5c0.3,0.9,1.1,1,1.7,1.2
			c5.4,2.5,10.7,5.3,16.3,7.4c7.2,2.7,12.2,7.9,16.4,13.9c5.2,7.3,8.1,15.8,11.7,23.8c5.8,12.8,8.3,26.3,9.8,40.2
			c0.4,4.1,1.2,8.1,1.9,12.2c0.5,3.1,2.4,5.6,3.9,8.2c0.3,0.6,1,1,0.8,1.8c-0.6,0.6-1,0.1-1.5-0.2c-1.8-1.6-3.4-3.3-4.7-5.5
			c-4.9-8.1-8.9-16.7-13.6-24.8c-8.4-14.4-19.5-26.1-33.2-35.4c-5.1-3.5-10.8-4.3-16.9-2.9c1.1,0.1,2.3,0.1,3.4,0.2
			c1.2,0.1,2.4,0.3,3.6,0.5c6.1,1,10.9,4.4,15.3,8.3c8.7,7.7,15.7,16.8,21.6,27c6.9,11.8,9.4,25,13.8,37.7c1.8,5.2,3,10.5,4.5,15.8
			C419.3,161.5,419.6,162.2,419.3,163.1z M318.1,58.7c-0.2,0.1-0.3,0.3-0.5,0.4c0.2,1,0.9,1.7,1.4,2.5c2.1,3,4.3,6,6.5,9
			c7.2,9.9,9.9,20.9,8.3,33c-0.5,3.6-1.1,7.2-1.7,10.8c0.2,0,0.4,0,0.6,0c4.6-11.6,5.1-23.3,0.4-35.3c1.1,0.4,1.3,1.1,1.7,1.6
			c2.3,3,4.5,6.1,6.8,9c3.8,4.7,7.8,9.1,13.4,11.6c0.8,0.4,1.7,0.9,3,0.5c-5.8-4.6-7.6-11.2-9.8-17.5c-1.9-5.3-3.6-10.8-5.9-16
			c-4.3-9.8-11.6-16.1-21.9-19.1c-1.5-0.4-3-0.8-4.6-0.3c0.9,0.5,1.9,0.9,2.9,1.3c4.5,1.5,8.6,3.6,12.3,6.6
			c5.7,4.8,9.1,11.1,11.7,18c2.5,6.6,4.2,13.4,7.6,19.6c0.1,0.3,0.1,0.5-0.2,0.9c-6.6-6.8-12.6-14.1-18-21.9
			c-0.7,0.5,0.1,1.1-0.6,1.7C326.9,69.7,322.5,64.2,318.1,58.7z M330.6,110.8c0.4-0.5,0.2-1,0.1-1.4c-1.3-6.4-3.4-12.6-6.9-18.2
			c-3.6-5.9-8.3-10.9-14.5-14.1c-9.6-4.9-18.3-2.3-26.5,3.6c-1.8,1.3-3.4,2.9-4.3,5c1-0.6,1.9-1.3,2.8-2.1
			c11.5-10,26.4-8.8,36.2,2.9c5.5,6.6,9.2,14.1,11.9,22.2C329.7,109.3,329.8,110.3,330.6,110.8z"/>
		<path class="st0" d="M243.8,124.8c22.1,0,43.9,0,65.9,0c0,43.8,0,87.5,0,131.3c-22,0-43.9,0-65.9,0C243.8,212.4,243.8,168.7,243.8,124.8z
			 M275.8,232.7c9.3,0.2,17.2-7.5,17.4-17c0.2-9.6-7.4-17.7-17-17.9c-9.1-0.3-17.1,7.4-17.3,16.6
			C258.7,224.7,265.9,232.5,275.8,232.7z M292.1,163.5c0-9.1-7.4-16.5-16.3-16.4c-8.7,0.1-16.2,7.6-16.2,16.3
			c0,9.3,7.3,16.5,16.9,16.5C285,179.9,292.1,172.4,292.1,163.5z"/>
		<path class="st0" d="M307.9,573c1.8,6.5,1.1,12.4-0.3,18.5c-1.5,6.5-5.1,11.1-10.5,15.1c-9.5,7-20.4,9.7-31.6,11.8
			c-7.8,1.5-15.5-3.6-18.3-11.3c-0.4-1.1-0.6-2.3-0.9-3.5c-1.7-6.1,1.8-9.8,6.1-13c0.9-0.7,2-0.7,3.1-0.6c4,0.3,8.1,0.5,12.1,0.8
			c3.6,0.2,7-0.4,10.5-1.4c8.7-2.6,16.9-6.2,23.9-12.1C303.8,575.7,305.7,574.5,307.9,573z"/>
		<path class="st0" d="M136.3,350.5c-1.1-1.9-1.6-3.8-1.5-5.8c0.6-8.2-0.7-16.3-1.7-24.4c-0.2-1.9-0.4-3.8-0.4-5.8c1,1,1.1,2.3,1.5,3.4
			c0.4,0.9,0.6,1.9,1,2.8c0.6,1.2,1.9,1.3,3,1c1.2-0.3,1-1.4,0.9-2.3c-0.3-2.7-1.1-5.3-2-7.8c-1.8-5.1-3.6-10.2-5.5-15.2
			c-0.9-2.3-1.2-4.6-0.9-7.1c0.7-5.9,1.1-11.9,1.7-17.8c0.4-4.5,2.8-7.9,6.6-10.1c2.6-1.6,4.6-3.4,5.8-6.3c0.7-1.7,1.8-3.2,3-4.6
			c0.9,0.3,0.7,1.1,0.8,1.6c1.2,9.4,2.5,18.9,2.3,28.4c-0.2,7.5,0.6,15,0.9,22.5c0.1,1.4,0.1,2.7-0.8,3.9
			c-6.5,8.3-9.6,18.1-11.6,28.3C138.3,340.3,137.3,345.4,136.3,350.5z"/>
		<path class="st0" d="M288.9,688.7c0.1-7.2,0.5-14.1-1.4-20.9c-0.3,2.3-0.4,4.6-0.9,6.9c-1,5.2-3.6,9.7-7.2,13.5c-2.3,2.5-4.8,4.8-7.3,7.1
			c-1.6,1.5-2.5,1.6-4.5,1.1c0.6-0.7,1.2-1.4,1.9-2.1c5.2-5.1,5.8-12.5,1.6-18.4c-1.1-1.6-2.1-3.3-3.4-5.2c-1.8,4.2-3.5,8-3.6,12.4
			c0,0.7,0.4,1.8-0.8,1.9c-1.2,0.1-1.4-1.1-1.6-1.9c-0.8-4.6-0.9-9.2,0.6-13.7c1.5-4.6,3.6-8.9,5.4-13.4c0.3-0.8,0.7-1.5,1.2-2.6
			c9.1,2.7,17.8,2.7,25-4.8C301.9,660,299.3,681.3,288.9,688.7z"/>
		<path class="st0" d="M301.3,609.5c1.4,2.6,1.1,4.8-0.2,7c-7.4,12.1-17.8,21-30.4,27.5c-5.4,2.8-9.6,1.1-12.3-4.3c-2.7-5.5-2.7-10.8,1.4-15.7
			c1.6-1.9,3.4-3,5.9-1.9c0.9,0.4,2,0.5,2.9,0.3c9-2.3,18.1-4.2,26.3-8.9C297.1,612.2,299.1,610.8,301.3,609.5z"/>
		<path class="st0" d="M194.8,631.8c0,4.6-0.9,8.9-0.4,13.2c0.5,4.2,1.3,8.4,2,13.2c-1.6-1.9-2.9-3.4-4.4-5.1c-0.9,2.6-0.5,4.9-0.2,7.2
			c0.3,2.2,1.3,4.3,2.2,6.9c-6.4-5.4-12-10.7-14.3-18.7c-0.7,2.6-0.2,5.2-0.6,7.9c-1.6-0.6-2.3-1.8-2.4-3.2
			c-0.5-6.8,0.5-13.3,3.7-19.4c0.5-0.9,1.3-1,2.2-0.9C186.7,633.7,190.7,633.7,194.8,631.8z"/>
		<path class="st0" d="M192.2,591.2c-1.1-1.5-1.2-2.9-1.5-4.1c-0.8-2.9-1.5-5.9-2.2-8.9c-0.9-4.3,0.3-7.8,4-9.6c6.8-3.4,14-5.9,21.4-8.6
			c-0.3,3.2-1.4,5.7-2.8,8c-3.5,5.7-8.1,10.6-12.4,15.7C196.6,586.1,194.5,588.5,192.2,591.2z"/>
		<path class="st0" d="M192.8,564.2c-3.5,3.4-8.3,5.3-8.1,10.9c-15.1-5.2-20.9-20.6-15-28.2C177.4,552.7,185,558.4,192.8,564.2z"/>
		<path class="st0" d="M234,71.2c-7.4,3.7-14.3,7.5-20.9,11.8c-14.9,9.6-28.9,20.5-40.1,34.4c-5,6.2-9.1,12.8-12.2,20.1
			c-1.6,3.9-1.8,7.7-0.3,11.6c0.7,1.7,0.5,2.8-0.9,4.1c-3.7,3.3-7.3,6.8-10.9,10.1c-0.5,0.5-1.1,1.4-2,0.8c-0.9-0.5-0.8-1.5-0.5-2.3
			c0.6-1.8,1.4-3.6,2.1-5.3c7-16,15.4-31.2,26.9-44.4c9.5-11,20.7-20,33.1-27.6c7.6-4.6,15.1-9.3,23.3-12.7
			C232.2,71.5,232.8,71,234,71.2z"/>
		<path class="st0" d="M212.4,571.5c0.6,1.2,0.8,2.3,0.6,3.3c-1.2,7.7-3.7,14.6-10.1,19.7c-4.3,3.4-8.2,7.4-12.3,11.1c-0.5,0.4-0.9,1.3-1.8,0.8
			c-0.8-0.6-0.2-1.3,0-1.9c1.4-4.8,3.7-9.1,7.2-12.6c5.5-5.7,10.9-11.6,14.9-18.5C211.2,572.7,211.7,572.2,212.4,571.5z"/>
		<path class="st0" d="M206.7,284.4c0.9-1.2,2.1-1.4,3.4-1.4c2.7,0,5.4,0,8.1,0c1.3,0,2.4-0.3,3-1.6c0.5-1,1.4-1.5,2.4-1.9
			c5.6-2.2,11.2-4.3,16.9-6.5c0.8-0.3,1.8-0.7,2.3,0.1c0.6,0.8,0.1,1.8-0.7,2.4c-3.7,3.5-7.4,7-11.5,10.1c-2,1.6-4.3,2.3-6.9,2.4
			c-4.8,0.2-9.5-0.3-14-1.9C208.7,285.9,207.6,285.4,206.7,284.4z"/>
		<path class="st0" d="M172.8,571.4c9,2.8,15.9,15.4,14.1,25.5C176.9,590.4,170.4,580.4,172.8,571.4z"/>
		<path class="st0" d="M302.3,623.2c1.2,5,1.7,10-1.2,14.7c-0.8,1.3-1.9,2.3-3.5,2.6c-3,0.6-6,1.1-9,1.6c-1.5,0.2-2.7,0-3.3-1.6
			c-0.5-1.5,0.3-2.5,1.5-3.2c4.5-2.6,8.1-6.1,11.1-10.4c1-1.5,2.4-2.8,3.6-4.2C301.7,622.9,302,623,302.3,623.2z"/>
		<path class="st0" d="M173.5,589.4c6.6,6.2,11,13.3,12.2,22.2C176.8,610.9,170.2,599.1,173.5,589.4z"/>
		<path class="st0" d="M178.1,621c4.5,1.7,8.7,2.5,13,1.7c1.3-0.2,2.5-0.6,3.7-0.9c1.5-0.3,2.1,0.3,1.9,1.9c-0.5,2.6-1.8,4.5-4.4,5.3
			c-2.9,0.9-5.9,1.5-9,1.5c-3.2,0-5-1.7-5.3-4.8C178,624.2,178.1,622.8,178.1,621z"/>
		<path class="st0" d="M292.3,644.8c-4.2,3.6-8.4,6.6-14.1,6.3c-1-0.1-2-0.1-3,0.2c-2.2,0.6-4-0.1-5.7-1.6C275.9,643,283.8,643.2,292.3,644.8z"
			/>
		<path class="st0" d="M188.5,613.5c4.2-4.6,8.4-9.2,12.6-13.8c2.4,3.4,2,7.1-0.6,9.6c-2.7,2.6-5.9,4.1-9.6,4.5
			C189.9,613.9,189,613.9,188.5,613.5z"/>
		<path class="st0" d="M175.9,610.3c6.2,4.5,12.7,7.9,21.1,5.8c-1.3,2.7-3,4.3-5.5,4.6c-5.3,0.6-10-1.1-13.9-4.5
			C175.9,614.6,175.8,612.5,175.9,610.3z"/>
		<path class="st0" d="M184.9,294.4c1.3,0.8,1.7,1.8,2.3,2.7c3.6,5.5,8.7,7.4,15,6.1c2.6-0.5,5.3-1.1,7.9-1.7c0.4-0.1,0.8-0.4,1.1,0.1
			c-4.7,4.2-15.1,5.4-20.3,2.2C187.4,301.8,185.9,298.5,184.9,294.4z"/>
		<path class="st0" d="M276.2,204c5.8,0,10.7,5.2,10.6,11.3c-0.1,6-5,10.9-10.8,10.9c-6.2,0-10.8-4.9-10.8-11.3C265.3,208.9,270.2,204,276.2,204
			z"/>
		<path class="st0" d="M285.7,163.4c0,5.8-4.2,10-9.9,10c-5.5,0-9.8-4.6-9.8-10.2c0-5.6,4.5-10,10.1-9.9C281.5,153.4,285.7,157.9,285.7,163.4z"
			/>
	</g>
</g>
</svg>
