<?xml version="1.0" encoding="utf-8"?>
<!-- Generator: Adobe Illustrator 18.1.1, SVG Export Plug-In . SVG Version: 6.00 Build 0)  -->
<svg version="1.1" id="图层_1" xmlns="http://www.w3.org/2000/svg" xmlns:xlink="http://www.w3.org/1999/xlink" x="0px" y="0px"
	 viewBox="0 0 612 792" enable-background="new 0 0 612 792" xml:space="preserve">
<g>
	<g>
		<path d="M432.3,531.5c-4.2-9.7-6.9-19.5-8.5-29.6c3,5.6,5.9,11,8.9,16.6c2.4-1.3,3.1-3.3,2.8-5.6c-0.7-5.1-1.4-10.3-2.1-15.4
			c-0.9-6.6-2.3-13.1-2.6-19.9c0-0.7,0-1.2,0.1-1.9c1.7,4,2.1,8.7,5,12.1c0.7,0,0.8-0.4,0.8-0.9c0.9-17.6,5.4-34.4,10.3-51.3
			c3.7-12.8,4.8-26,5.2-39.3c0.1-2.1,0.7-4.3-0.8-6.3c-0.3,2.3-0.7,4.7-0.9,7c-1.7,18.6-5.9,36.6-11,54.4
			c-2.2,7.6-2.8,15.5-3.5,23.4c-0.1,1,0,2.1-1,3.1c-1.2-7.4-2.3-14.8-3.6-22.5c-1.3,1.9-1.7,3.3-2.2,4.9
			c-2.5,10.5-1.9,20.9,0.2,31.4c1.4,7,2.6,14,3.8,21.1c-5.2-7.9-7.5-17.6-16.3-23.9c1.6,12.7,5.6,24.2,8.6,36
			c-2.6-2.4-5.4-4.8-8-7.2c-1.2-1.1-2.5-2.5-4.3-1.6c-1.6,0.9-1,2.7-0.8,4.3c1.4,8.6,2.3,17.4,5,25.7c-0.2,0.1-0.3,0.2-0.5,0.3
			c-3.3-2.7-6.4-5.6-9.7-8.3c-1.7,1.1-0.5,3.2-1.6,4.5c-1-0.5-1.2-1.5-1.7-2.3c-2.5-4-4.9-8.3-8-12c-0.9-1.1-2-2-3.4-2.3
			c-1.1,0.3-0.9,1.7-2,2.1c-7-9.9-14.1-19.9-21.4-30.4c-1.2,4,0.9,7.1,0.9,10.6c-2.2-1.2-3.7-2.7-5.4-4.2c-9-7.4-17.8-15-26.8-22.4
			c-0.7-0.5-1.3-1.4-2.2-0.8c-1,0.7-0.7,1.6-0.2,2.5c0.9,1.6,1.7,3.3,2.8,5.4c-1.6-0.3-2.6-1.2-3.5-1.9c-4.2-3-8.4-5.9-12.6-8.9
			c-1.1-0.8-2.3-1.5-3.7-1.7c-2.4,3.5,0.2,6.9,0.1,10.8c-3.3-2.8-6.1-5.9-9.9-8.2c0.2,2.6,0.3,4.9,0.5,8c-2.8-2-5.2-3.7-7.7-5.5
			c-2-1.4-3.8-2.4-6.2-0.7c-1.1-1.4-2.1-2.7-3.1-3.9c-2.7-3.3-4.4-3.1-6.4,0.7c-0.7,1.1-1.3,2.3-2.2,3.8c-0.2-2.1-0.5-3.5-1.3-4.9
			c-1.5,0.1-2.5,0.9-3.6,1.9c-3.3,3.3-5.9,7-8.7,10.6c-0.8,1-1.5,2.2-2.8,3.1c0-2,0.5-3.6,0.9-5.2c0.4-3.1-0.2-3.6-3.1-2.5
			c-4.9,1.7-8.6,5.4-12.3,8.9c-2.4,2.3-4.8,4.5-7.2,6.7c0-1.6,0-3.6,0-5.6c-0.2-0.1-0.4-0.2-0.7-0.4c-8,9.4-16.5,18.3-25.1,27.9
			c0.2-5.6,4.9-7.8,6.8-11.7c-6.3,2.5-11,7.1-15.3,12.3c-4,5.1-7.2,11-11,16.4c-0.1-12.9-6.4-24.7-6.2-37.6
			c-3.3,1.7-2.8,5.1-4.6,7.8c-3-11.6-3.8-23.3-5.9-34.8c-2.8,5-4.7,10.4-7.8,15.3c0.1-17-2.7-33.8-3.6-50.7c1,4.3,2,8.5,3,13
			c1.2-1,0.7-2,0.5-2.7c-1.7-13.1-3.3-26.3-5.5-39.5c-2.2-12.8-1.4-25.4,0.4-38c0.5-3.5,1-7.1,1.4-10.6c0.1-0.5,0.3-1.2-0.5-1.7
			c-2.6,5.1-3.3,10.9-4.9,16.4c-0.8-0.5-0.7-1.2-0.8-1.9c-0.3-3-0.7-6-1.4-9c-0.5-2.2-0.4-4.4,1-6.2c3-3.8,6.4-7.1,9.7-10.5
			c1.1,0.4,1,1.2,1,1.9c-0.2,9.4-0.7,18.8-0.5,28.2c0.2,15.2-1,30.5,2.4,45.5c2.1,9.3,5.7,18,9.4,26.8c3.4,7.8,4,16.1,5,24.3
			c1,8.3,4.6,15.5,9.7,21.9c2.7,3.4,6.6,6.1,9.3,9.7c1.6,2.2,3.5,2,4.7-0.2c6.8-12.7,16.8-22.8,26-33.7
			c13.7-16.1,26.7-32.6,38.9-49.6c0.2-0.3,0.5-0.8,1-1.4c-2.1,0.2-3.1,1.3-4,2.4c-5.9,6.6-11.6,13.1-16.7,20.3c-0.8,1.1-1.6,2.2-3,3
			c1.4-3.3,2.8-6.4,4.3-9.6c1-2.2,2-4.4,1.6-6.9c-0.1-0.5,0.1-1.2,0.3-1.9c3.1-11.1,2.7-22.6,4.2-33.9c0-0.2,0-0.4,0-0.7
			c-0.3-7.1-2.4-8.6-9.3-7c-3.7,0.9-7.2,2.3-11,3c-3.7,0.5-7.2,0-10.7-1.3c-5.7-2.3-10.9-5.1-16.1-8.4c-1.3-0.9-2.7-1.9-4.8-1.5
			c3,4.7,4.3,10.4,10.5,12c-2.7,2.3-4.9,2.3-7.5-0.2c-3.6-3.4-7.1-6.9-10.7-10.4c-1.3-1.3-2.7-2.3-4.7-2c-1.5,0.2-2.7-0.5-3.1-2
			c-0.3-1.6,1.3-2,2.5-2.1c9.1-0.9,17.4-4.4,25.8-7.5c5.5-2.1,10.8-3.3,16.6-1.4c0.4,0.1,1.1,0.1,2.3,0.2c-5.1-3.8-9.7-7.1-14.9-9.6
			c-4.5-2.2-9.2-3.4-14.1-3.8c-4-0.3-8-1.2-12-1.5c-5.4-0.3-10.4,0.3-15,3.4c-0.5-2.6-0.5-2.6,3.6-6.2c-0.8-0.9-2.1-0.1-3-1.2
			c1.1-1.1,2.5-1.7,3.9-2.3c2.1-0.8,3.9-1.7,5.5-3.5c2.5-2.7,5.6-3.2,9.2-1.5c-0.3-2.7,1.1-2.8,2.8-2.7c6.2,0.4,11.9,2.4,16.9,6.2
			c7.9,6,16,11.9,22.9,19c0.4,0.4,1.1,0.9,1.9,1.5c0-15.2,0-30.1,0-45.2c-4.4-0.3-8.7-0.1-13.1,0.4c-15.7,2-31.3,5.1-46.1,10.7
			c-12.8,4.8-24.3,11.5-33.6,21.5c-3,3.2-4.8,7-6.8,10.8c-0.4,0.9-0.5,2.1-2,1.9c-1.3-0.3-1.4-1.4-1.5-2.5
			c-0.2-4.2-0.7-8.2-0.8-12.3c-0.5-9.7-2.4-19.5-2.2-29.3c0.2-10.9,1.5-21.6,3.1-32.5c0.7-4.9,3.6-8.6,7-12
			c16.7-16.4,36.6-27,59.3-32.1c9.1-2.1,18.3-3.8,27.4-4.9c3.3-0.4,6.7-0.3,9.9-0.5c2.1-0.1,2.2,1.2,2.2,2.7c0,11,0,22.1,0,33.1
			c0,17.8,0,35.7-0.1,53.6c-0.1,11.6-0.5,23.2,0.1,34.6c0.2,4,0.5,8.1,0.9,12c0.2,3.2,1,3.9,4.2,3.9c10.6,0,21.1,0,31.7,0
			c11,0,22.1,0,33.1,0c1.1,0,2.2-0.1,3.3,0.3c0.2,2-0.3,3.8-0.8,5.7c-0.8,3.3,0.1,5.8,3,7.5c5,3.2,9.4,7.1,13.7,11.1
			c5.1,4.9,11.3,6.8,18.4,5.5c5.1-1,10.5-1.1,15.1-4.2c1.1-0.8,2.2-1.3,2.8-2.7c-1.3-0.4-2.4,0.1-3.4,0.5c-3.7,1.4-7.4,2.2-11.4,2.5
			c-5.9,0.4-10.6-1.7-14.3-6.2c-3.4-4.2-7-8.2-10.7-12c-0.2-0.2-0.3-0.5-0.4-0.8c0.5-0.7,1.1-0.3,1.5-0.2c6.6,1.3,13.1,2.6,19.6,3.9
			c3.8,0.8,7.5,0.5,11.1-1.2c5.4-2.5,10.7-4.8,16.6-5.8c2.6-0.4,4.9-2.3,7.7-2.7c1.1-0.1,2.2-0.4,3.3-0.1c3.5,1.2,7.2,0.5,10.8,1
			c0.8,0.1,1.6-0.1,2.4-0.5c-0.2-1.3-1.3-1.1-2-1.3c-5.4-1.7-11-2.4-16.2-5.1c-6-3.2-12.3-5.5-18.5-8.1c-4.5-2-9.3-1.5-14-1.1
			c-2.7,0.2-5.6,0.7-8.4,1c-0.2-1.5,0.9-1.9,1.6-2.3c10.8-6.7,22.7-10.3,35-12.8c9-1.9,17.9-2.7,26.9,0.3c1.2,0.4,2.3,0.9,3.4,1.4
			c1.6-2.3,1.5-3.6-0.4-5.4c-2.3-2-5-3.3-7.9-4.4c-1.7-0.7-3.4-1.5-4.8-2.7c-2.8-2.5-6.3-2.7-9.8-2.3c-2.4,0.3-4.9,0.8-7.3,1.1
			c-0.8-0.7,0.2-1.3,0-2c-0.3-0.4-0.9-0.3-1.2-0.1c-3.5,1.5-7,3.1-10.2,5.1c-5.2,3.4-10.4,6.8-15.5,10.3c-6.4,4.4-13.7,7-20.9,9.5
			c-0.2,0.1-0.4,0-0.7,0c0-42.4,0-84.8,0-127.3c8.2-0.1,16.2-0.3,24.3,1c10.9,1.9,21.2,5.8,31.3,10.4c10.7,4.8,21.9,8.9,32,15.1
			c10.2,6.1,20.2,12.5,30.2,18.9c9.4,6.1,12.7,15.6,13.7,26.2c0.9,9.8,0,19.6-0.3,29.3c-0.3,10.1-0.7,20.1-1,30.3
			c-0.3,9.2-3.5,17.4-9.1,24.7c-1.2,1.6-2.6,3-4.8,2.5c-0.9-0.2-1.3-0.5-1.4-1.5c-0.8-13.4-7-24.6-14.8-35.1
			c-8.2-11.1-19.5-18.8-31-26c-12.9-8-26.7-13.6-41.7-15.5c-7.6-1-15.3-1.3-23-0.3c-1,0.1-2,0.2-2.8,1.1c0.7,1,1.7,0.8,2.7,0.9
			c9.4,0.4,18.7,1.2,27.9,3.5c11.9,3.1,22.4,9,32.8,15.2c9.1,5.4,17.8,11.1,25,18.8c6.9,7.2,12,15.6,17.5,23.8
			c2.3,3.5,4.2,7.3,5.1,11.4c0.2,0.8,0.4,1.5,0.8,2.2c2,4.5,5.9,5.6,9.8,2.7c1.5-1.1,2.8-2.4,4.5-3.8c0.5,3.6,0.3,6.9-1.1,9.8
			c-1.2,2.5-1.7,4.9-1.5,7.6c0.2,3.2-0.5,6-2.3,8.7c-2.4,3.6-2.8,7.9-3.2,12c-0.9,10.5-3.7,20.5-6.1,30.7c-3.9,16.6-2,32.9,4.8,48.4
			c3.5,8.1,9.6,14,17.7,17.7c0.9,0.4,1.6,0.8,2.5,1.2c-4.6,2.4-13.2-0.3-15.8-5.1c-3.1-5.7-6.7-11-10.2-16.4
			c-0.4-0.7-0.7-1.4-1.5-1.6c-0.5,1,0.1,1.7,0.5,2.4c5,8.4,10.1,16.8,15,25.2c3.8,6.4,9.1,11.6,15.2,15.8c1,0.7,2.2,1.2,3.2,2.6
			c-2.1,0.2-3.8,0.1-5.5-0.8c-3.9-1.9-7.9-3.7-11.8-5.6c-1.5-0.8-2.6-1.7-3.6-3.2c-3.5-5-7.1-10.1-10.6-15c-0.8-1.1-1.6-2.3-3.1-3.3
			c0,1.4,0.7,2.2,1.2,3.1c4.2,6.6,9,12.7,12.8,19.5c2.7,4.9,4.8,10.1,6.6,15.4c2.7,8.2,5.6,16.3,11.4,23c0.4,0.4,0.7,1.1,1,1.7
			c-2.2,0.9-4.2,0.2-5.8-0.9c-6.8-4.2-11.9-9.6-14-17.5c-1.1-4-2.5-8-3.8-11.9c-0.3-1.1-0.7-2.3-1.7-3.4c-0.4,1.2,0.1,2.2,0.3,3.1
			c2.6,9.6,5.8,19.1,7.4,29.1c1,5.4,1.2,10.8,2.6,16.1c1.6,6.3,4.3,12.2,7.1,18.1c0.3,0.7,0.9,1.3,0.7,2.4c-1.9-0.3-3.4-1.2-4.8-2.3
			c-5.8-4.4-10.6-9.5-13.2-16.5c-1.6-4.3-4-8-6.2-12c-0.4-0.8-1-1.5-2-1.9c-0.4,0.8,0.1,1.3,0.3,1.9c7,12.6,11.1,26.2,14.1,40.2
			c1.6,7.8,4.2,15.3,9.1,21.7c0.2,0.2,0.2,0.5,0.3,0.9c-1.2,0.2-1.9-0.4-2.5-1.1c-4.9-4.5-9.9-8.9-14.9-13.4
			c-4.5-4.2-7.3-9.2-8.6-15.1c-0.5-2.5-1.4-5-2.7-7.9c-0.4,1.9-0.1,3.3,0.2,4.6c1.4,6.9,3.5,13.7,4.5,20.7
			c0.9,6.2,0.2,12.2-1.7,18.1c-3.2,9.4-5.8,19-9.4,28.2c-1,2.6-1,5.2-0.4,8.4c-2-1.3-2.6-3-3.2-4.6c-1.9-6.3-1.9-12.9-2.6-19.3
			c-1-9.4-0.3-18.6,2.6-27.5c1.2-3.5,1.4-7.3,0.9-11.4c-1,1.3-1,2.6-1.1,3.8c-0.8,9.7-4.7,18-10.8,25.5c-4.6,5.6-9.1,11.5-13.2,17.4
			c-3.2,4.5-5.5,9.1-4,14.9c-2.5-0.8-2.8-2.5-2.7-4.5c0.4-8.7,1.6-17.3,3.9-25.7c0.4-1.5,0.9-3.2,1.2-4.7c0.8-3.7,2.4-7.1,4.7-10.3
			c3.9-5.2,6.1-11.3,7.2-17.7c0.1-0.8,0.3-1.6-0.1-2.7c-1.1,4.3-2.3,8.1-4,11.8c-4.9,10.4-12.6,18.4-21.5,25.2
			c-7.2,5.6-14.9,10.8-21.7,16.7c-5.5,4.7-10.2,10.2-13.8,16.5c-1,1.7-2.1,3.4-4.3,5.1c0.3-2,0.3-3.5,0.8-4.9
			c1.4-5.2,3.2-10.4,6.1-15.1c4.5-7.2,8.2-15,14.5-21c3-2.7,5.8-5.6,8.7-8.4c1.5-1.5,2.6-3.4,3.2-5.6c-5.2,7.1-12.8,11.5-19.8,16.6
			c-4.8,3.6-9.5,7.5-13.4,12.1c-0.1,0.1-0.3,0.2-1,0.5c7-31.1,10.7-62.1,7.3-93.5c-1.1,1.5-1.1,3.2-1.2,4.9
			c-0.7,15.1-0.9,30.1-2.4,45.1c-1.2,11.8-2.7,23.7-6.7,34.9c-7.1,19.9-15.8,39-33.1,52.7c-3.6,2.8-7.6,4.3-11.7,6
			c-7.8,3.3-15.8,5.7-23.9,7.3c-8.5,1.7-19.7-0.3-25.4-8.3c-4.4-6.2-4.4-11.9,0.2-17.9c0.5-0.8,1.1-1.4,0.7-2.5
			c-0.4-1.2,0.5-2,1.3-2.7c6.2-7.3,14.3-12.2,22.5-17.2c12-7.3,24.4-14,37.4-19.5c0.9-0.3,1.9-0.7,2.8-1.9c-2.2,0.1-4,0.7-5.7,1.3
			c-21.5,8-42,17.8-59.1,33.6c-1.5,1.4-2.7,1.4-4.5,0.4c-5.6-3.3-9.8-7.9-13.1-13.3c-6.1-10.1-9.8-21.2-13.8-32.2
			c-1.5-4.3-3-8.6-4.5-13c-0.3-0.9-0.7-1.6-1.1-3c-1,4.3,1.2,13,7.1,29.9c3.4,9.7,7.6,18.9,14.2,27.3c-3.6,1.7-7,3.2-10.5,4.3
			c-6.9,2.1-13.9,4.2-20.8,6.2c-1,0.3-1.7,0.3-2.6-0.3c-7.2-5.1-14.2-10.6-21.6-15.4c-10.3-6.4-15.8-16.1-19.9-27
			c-2.6-7-3.5-14.4-5-21.7c-1.1-5.2-2.8-10.3-4.3-15.4c-0.1-0.3-0.2-0.8-0.8-0.8c-0.1,2.1,0.5,3.9,1.1,5.8c3,10.2,3.8,20.5,2.5,31
			c-0.4,3.6-1.9,6.9-3.3,10.2c-0.4,1-0.9,2-2.2,2.5c-0.1-1.6,0.5-3.1,1-4.5c3-10.1,3-20-2.5-29.3c-3.8-6.3-4.6-13.1-4.6-20.3
			c0-3,0.1-6-0.9-8.9c-0.5,9.6-1.1,19.2-1.6,29c-1.5-0.5-1.2-1.3-1.2-2c-0.2-4.5-0.5-9-0.7-13.4c-0.2-6.7-2.5-12.9-3.7-19.3
			c-0.8-3.9-1.3-7.8-1.3-11.8c0-7,1.9-13.3,7.6-18.1c-1.9,0.2-2.6,0.8-4.2,2.5c-3.3,3.9-4.4,8.6-5.1,13.6c-0.7,4.3-1.4,8.4-2.4,12.6
			c-2.2-2.6-3.1-12.3-3-18c0.1-6.2,0.2-12.6,2.4-18.6c2.2-5.8,5.7-10.9,9.2-16.7c-2.3,0.9-3.2,2.2-4.2,3.5
			c-5.9,8.9-9.1,18.8-11.9,28.9c-0.3,1.2-0.4,2.4-1.5,3.6c-0.9-2.1-1.2-4-1-6c1.3-12.8,3.2-25.7,8.3-37.4
			c8.5-19.5,12.3-40.1,18-60.3c0.9-3.1,1.7-6.1,2.2-9.3c0.1-0.9,0-1.6,0-2.8c-4.5,2.4-5.4,7.2-8,10.9c-0.1-7,8.4-46.1,15.2-53.3
			c1,3.2,1.1,6.2,1.6,9.3c1.3,7.8,2.4,15.5,3.6,23.3c0.1,1.1,0.2,2.2,0.2,3.3c0,12.2,0,24.4,0,36.6c0,2.8-0.9,5.7-0.3,8.9
			c2-1.1,2.7-2.8,3.5-4.5c2-4.5,3.7-9.1,5.6-13.6c0.3-0.8,0.4-1.6,1.4-2.3c1.5,14.8,6.6,28.9,6.2,44.2c2.6-1.4,3.2-3.5,3.3-5.9
			c0.1-2.3,0.2-4.5,1.2-6.7c3.7,10.3,4.8,20.8,3.8,31.7c6.1-10.7,12.5-21.2,20.7-30.8c0.5,1.3-0.2,2-0.5,2.7
			c-0.7,1.9-1.6,3.5-1.9,5.5c-0.1,0.7-0.1,1.3,0.5,1.6c0.8,0.4,1.3,0.1,1.9-0.4c0.3-0.4,0.8-0.9,1.1-1.2c7.8-9.1,15.4-18,23.2-27.1
			c0.4-0.4,0.7-1.1,1.5-1.2c0,1.1-0.2,2.2-0.1,3.2c0.1,0.8,0.2,1.7,1.1,2.2c1,0.4,1.9-0.1,2.5-0.9c1.2-1.4,2.4-2.8,3.6-4.3
			c3.8-4.6,7.7-9.2,12.5-12.9c0.8-0.5,1.3-1.3,2.6-1.4c-0.3,5.4-2.7,10.6-0.9,16.2c3.2-8.7,10.1-14.6,16.1-21.6
			c1.3,3.2,0.2,6.6,2.5,9.6c1-5.1,4.3-8.4,6.7-12.7c2.6,2.7,5.1,5.4,7.8,8.1c0.7-1,1.2-1.7,1.7-2.6c4.9,2.7,9.8,5.5,15,8.3
			c0.5-2.1-1.1-3.6-0.7-5.9c6.4,6.3,12.6,12.5,18.8,18.5c0.5-0.7-0.1-1.3-0.4-2c-0.9-1.3-1.6-2.6-2.6-3.8
			c-4.4-5.7-6.3-10.2-7.3-17.8c0.9-0.2,1.4,0.4,1.9,1c5.7,5,11.9,9.2,18.7,12.6c1.1,0.5,2.1,1,3.6,0.5c-1.4-2-2.7-3.9-4.2-6
			c1.4-0.3,2,0.5,2.6,1c6.7,5.1,13.3,10.4,20,15.6c2.8,2.3,5,5.4,7.2,8.2c0.4,0.4,0.8,1,1.2,1.4c1.5,1.3,2.7,0.9,3.1-1.2
			c0.1-0.9,0-1.6,0-3c7.4,10.1,13.8,20.5,22.2,30.2c0.3-2.8-1-4.7-0.9-7.4c2.7,3.9,4.9,7.4,7.4,10.7c2.6,3.5,3.1,7.8,4.4,12.1
			c2.8-4,1.2-8.3,1.6-12.9c4.5,4.8,9.5,8.2,14.9,11.4c-5.4-10.9-7.1-22.8-9.9-35.1C421.3,523.8,425.4,529.2,432.3,531.5z
			 M390.1,519.5c0.2-0.1,0.3-0.2,0.5-0.4c-0.4-1.9-1.5-3.5-2.6-5.1c-8.2-12.1-16.6-24-25.4-35.6c-11.6-15.4-22.4-31.3-29.3-49.5
			c-0.2-0.7-0.4-1.5-1.5-1.4c-0.5,1.3-0.2,2.5,0.1,3.8c3.3,12.5,9.3,23.6,16.7,34.1c12.3,17.6,25.9,34.3,38.9,51.4
			C388.3,517.6,389.3,518.5,390.1,519.5z M301.5,515.8c0.4,0.5,1,0.4,1.3,0.4c12.6,0.3,24.7,2.7,36.7,6.4c9,2.7,18.4,4.5,24.4,12.8
			c0.3,0.5,1,0.8,1.6,0.4c0.7-0.3,0.8-1,0.8-1.5c-0.2-2.5-0.4-4.9-0.8-7.4c-0.1-1-0.9-1.7-2-1.1c-1.9,1.1-3.6,0.4-5.4-0.4
			c-15.5-7.5-31.8-12.1-49.2-11.8C306.3,513.5,303.6,513.6,301.5,515.8z M292.9,516.8c0.7,0,1,0,1.4,0c1.2-0.1,2.7,0.4,2.8-1.4
			c0.1-1.7-1.3-2-2.5-2.2c-2.6-0.4-5.4-1-8.1-0.5c-10.7,1.5-21.3,3.2-31.3,7.7c-5.9,2.6-11.8,5.2-18.4,5.7c-2.1,0.1-2.6,1.5-2.2,3.3
			c0.3,1.5,0.8,3,1.3,4.5c0.9,2.6,2.2,3,4.2,1c2.4-2.4,5-4.5,8-6c5.5-2.8,11-5.7,16.6-8.4c7.2-3.6,14.8-5.6,22.9-4
			C289.6,516.4,291.4,516.5,292.9,516.8z M318.1,535.9c-0.9-0.8-1.6-0.9-2.6-0.9c-5.9,0.1-11.8,0.1-17.7,0.2
			c-6.1,0.1-12.1-0.1-17.8-2.5c-1.4-0.5-3.1-1.3-3.8,0.4c-0.8,1.6,0.8,2.6,2.1,3.4c0.7,0.4,1.5,0.7,2.4,0.9c2.3,0.7,4.6,1.2,7,1.7
			c9.6,2.2,19.1,3.3,28.4-1.2C317,537.6,318.1,537.4,318.1,535.9z M398.9,450.2c0.3-0.3,0.5-0.5,0.9-0.9
			c-9.1-11.9-19.8-22.3-29.7-29.5C378.3,428.7,388.6,439.5,398.9,450.2z M330.3,464.2c-2.1-1.2-3.9-1.9-6-1.1
			c-4.2,1.5-7.3,4.3-9.3,8.3c-0.7,1.2-0.7,2.4,0.7,3.3c1.4,0.9,2.7,0.8,3.7-0.7c1.5-2.2,3.2-4.3,5.2-5.8
			C326.2,466.9,328.2,465.6,330.3,464.2z M269.4,465.9c2.3,4.3,8.2,6.9,12.8,5.6c0.5-3.5-0.1-5.1-2.6-6.4
			C276.1,463.2,272,463.5,269.4,465.9z M389.8,427.6c7.1,5,23.8,0,28.3-8.6C409.2,424.2,400.6,429.7,389.8,427.6z M299,475.3
			c-0.3-1-1-1.3-1.5-1.6c-3.4-1.6-5.6-4.4-7.3-7.5c-1.2-2.1-2.8-3.8-4.7-5.5c-1.3-1.1-2.8-2-5.1-1.5c3.6,2.6,6.3,5.5,7.9,9.3
			C290.5,473.8,293.1,475.5,299,475.3z M399.2,387.3c2.6,2.8,8.5,3.6,12.6,2.1c2.1-0.9,3.6-2.2,3.8-4.9
			C410,385.4,404.8,386.3,399.2,387.3z M300,504.5v0.1c-1.3,0-2.6,0-3.9,0c-0.5,0-1.1,0.2-1.2,0.9c-0.1,0.4,0.1,0.9,0.4,1.2
			c2.1,1.9,7.5,1.9,9.7,0c0.3-0.3,0.7-0.7,0.5-1.2c-0.1-0.5-0.5-0.7-1-0.8C303,504.7,301.5,504.6,300,504.5z"/>
		<path d="M458.2,268.2c-3.9-2.2-6.6-5.1-8.2-9.1c-5.8-13.7-12.8-26.6-21.3-38.7c-7.5-10.7-16.1-20.5-27.1-27.9
			c-4.2-2.8-8.5-5.5-13.3-7.1c-0.4-0.2-0.9-0.7-1.5-0.2c-0.1,0.8,0.5,0.9,1,1.1c13.7,6.4,23.5,17.3,32.7,28.9
			c9.6,12.2,17.6,25.4,23.1,40c0.2,0.7,0.8,1.3,0.5,2.2c-0.9,0.5-1.3-0.2-1.9-0.5c-19.5-11.9-40.5-20.2-62.7-25.5
			c-7-1.6-14-1.4-21.1-1.1c-4,0.2-8.1,0.4-12.1,0.7c-0.5-2.1-0.2-4-0.3-6.1c-0.2-4.4-1.3-5.6-5.6-5.6c-25.4,0-50.8,0-76.2,0
			c-3.7,0-4.7,1-4.7,4.7c0,2.6,0,5.2,0,7.9c0,1.1-0.1,2.1-1.5,2c-1.4-0.1-3.4,0.4-3.5-1.6c-0.1-4.9,0.3-9.9,0.9-14.9
			c0.1-1.1,1-1.5,2-1.6c4-0.8,8.1-1.5,12.2-0.2c1.3,0.4,2.5,0.4,3.4-0.7c1.1-1.3-0.2-2.1-0.8-3.1c-0.7-1.1-0.8-2.3-1.1-3.5
			c-1.6-7.9-4.2-15.3-9.5-21.5c-1-1.1-1-2.3-0.7-3.7c2.5-9.2,5.6-18.3,10.2-26.7c5.1-9.5,9.6-19.3,16.3-27.9
			c11.9-15.5,27.6-24.8,46.8-28.7c15.2-3.2,30.4-2.7,45.7-1.2c7.1,0.8,14.1,2.4,21.2,2.7c9.2,0.4,18-1.4,26.7-4.7
			c2.4-0.9,4.2-3.1,7.1-3.7c-0.5,1.9-1.6,3.2-2.7,4.4c-6.6,7.1-14.4,11.4-24,12.2c-4,0.3-8,0.8-12,0.9c-1,0-2-0.1-3.1,0.7
			c2.2,0.9,4.2,1.1,6.2,1.1c3.4-0.1,6.9-0.2,10.3-0.5c3.4-0.3,6.4,0.1,9.5,1.4c7.1,3.1,14.1,6,21.3,8.7c9.6,3.7,19.5,4.3,29.5,1.3
			c0.5-0.1,1.1-0.5,2-0.1c-1.5,2.7-3.3,5.4-6,7c-13.9,8.3-28.2,10.4-43.3,3.4c-5.4-2.5-10.7-4.9-16.1-7.3c-2.5-1.1-5-2.1-7.9-1.6
			c0.3,1,1.2,1.1,1.9,1.3c5.9,2.7,11.7,5.8,17.8,8.1c7.9,3,13.3,8.6,17.9,15.2c5.7,8,8.9,17.3,12.8,26c6.3,14,9.1,28.7,10.7,43.9
			c0.4,4.5,1.3,8.9,2.1,13.3c0.5,3.4,2.6,6.1,4.3,9c0.3,0.7,1.1,1.1,0.9,2c-0.7,0.7-1.1,0.1-1.6-0.2c-2-1.7-3.7-3.6-5.1-6
			c-5.4-8.9-9.7-18.3-14.9-27.1c-9.2-15.7-21.3-28.5-36.3-38.7c-5.6-3.8-11.8-4.7-18.5-3.2c1.2,0.1,2.5,0.1,3.7,0.2
			c1.3,0.1,2.6,0.3,3.9,0.5c6.7,1.1,11.9,4.8,16.7,9.1c9.5,8.4,17.2,18.4,23.6,29.5c7.5,12.9,10.3,27.3,15.1,41.2
			c2,5.7,3.3,11.5,4.9,17.3C458.2,266.5,458.6,267.3,458.2,268.2z M347.6,154.2c-0.2,0.1-0.3,0.3-0.5,0.4c0.2,1.1,1,1.9,1.5,2.7
			c2.3,3.3,4.7,6.6,7.1,9.8c7.9,10.8,10.8,22.8,9.1,36.1c-0.5,3.9-1.2,7.9-1.9,11.8c0.2,0,0.4,0,0.7,0c5-12.7,5.6-25.5,0.4-38.6
			c1.2,0.4,1.4,1.2,1.9,1.7c2.5,3.3,4.9,6.7,7.4,9.8c4.2,5.1,8.5,9.9,14.6,12.7c0.9,0.4,1.9,1,3.3,0.5c-6.3-5-8.3-12.2-10.7-19.1
			c-2.1-5.8-3.9-11.8-6.4-17.5c-4.7-10.7-12.7-17.6-23.9-20.9c-1.6-0.4-3.3-0.9-5-0.3c1,0.5,2.1,1,3.2,1.4c4.9,1.6,9.4,3.9,13.4,7.2
			c6.2,5.2,9.9,12.1,12.8,19.7c2.7,7.2,4.6,14.6,8.3,21.4c0.1,0.3,0.1,0.5-0.2,1c-7.2-7.4-13.8-15.4-19.7-23.9
			c-0.8,0.5,0.1,1.2-0.7,1.9C357.3,166.2,352.4,160.2,347.6,154.2z M361.3,211.1c0.4-0.5,0.2-1.1,0.1-1.5c-1.4-7-3.7-13.8-7.5-19.9
			c-3.9-6.4-9.1-11.9-15.8-15.4c-10.5-5.4-20-2.5-29,3.9c-2,1.4-3.7,3.2-4.7,5.5c1.1-0.7,2.1-1.4,3.1-2.3
			c12.6-10.9,28.9-9.6,39.6,3.2c6,7.2,10.1,15.4,13,24.3C360.3,209.4,360.4,210.5,361.3,211.1z"/>
		<path d="M266.4,226.4c24.2,0,48,0,72,0c0,47.9,0,95.6,0,143.5c-24,0-48,0-72,0C266.4,322.1,266.4,274.4,266.4,226.4z M301.4,344.3
			c10.2,0.2,18.8-8.2,19-18.6c0.2-10.5-8.1-19.3-18.6-19.6c-9.9-0.3-18.7,8.1-18.9,18.1C282.7,335.6,290.6,344.1,301.4,344.3z
			 M319.2,268.7c0-9.9-8.1-18-17.8-17.9c-9.5,0.1-17.7,8.3-17.7,17.8c0,10.2,8,18,18.5,18C311.5,286.6,319.2,278.4,319.2,268.7z"/>
		<path d="M336.5,716.2c2,7.1,1.2,13.6-0.3,20.2c-1.6,7.1-5.6,12.1-11.5,16.5c-10.4,7.6-22.3,10.6-34.5,12.9
			c-8.5,1.6-16.9-3.9-20-12.3c-0.4-1.2-0.7-2.5-1-3.8c-1.9-6.7,2-10.7,6.7-14.2c1-0.8,2.2-0.8,3.4-0.7c4.4,0.3,8.9,0.5,13.2,0.9
			c3.9,0.2,7.6-0.4,11.5-1.5c9.5-2.8,18.5-6.8,26.1-13.2C332,719.2,334.1,717.8,336.5,716.2z"/>
		<path d="M149,473c-1.2-2.1-1.7-4.2-1.6-6.3c0.7-9-0.8-17.8-1.9-26.7c-0.2-2.1-0.4-4.2-0.4-6.3c1.1,1.1,1.2,2.5,1.6,3.7
			c0.4,1,0.7,2.1,1.1,3.1c0.7,1.3,2.1,1.4,3.3,1.1c1.3-0.3,1.1-1.5,1-2.5c-0.3-3-1.2-5.8-2.2-8.5c-2-5.6-3.9-11.1-6-16.6
			c-1-2.5-1.3-5-1-7.8c0.8-6.4,1.2-13,1.9-19.5c0.4-4.9,3.1-8.6,7.2-11c2.8-1.7,5-3.7,6.3-6.9c0.8-1.9,2-3.5,3.3-5
			c1,0.3,0.8,1.2,0.9,1.7c1.3,10.3,2.7,20.7,2.5,31c-0.2,8.2,0.7,16.4,1,24.6c0.1,1.5,0.1,3-0.9,4.3c-7.1,9.1-10.5,19.8-12.7,30.9
			C151.1,461.9,150,467.5,149,473z"/>
		<path d="M315.7,842.7c0.1-7.9,0.5-15.4-1.5-22.8c-0.3,2.5-0.4,5-1,7.5c-1.1,5.7-3.9,10.6-7.9,14.8c-2.5,2.7-5.2,5.2-8,7.8
			c-1.7,1.6-2.7,1.7-4.9,1.2c0.7-0.8,1.3-1.5,2.1-2.3c5.7-5.6,6.3-13.7,1.7-20.1c-1.2-1.7-2.3-3.6-3.7-5.7c-2,4.6-3.8,8.7-3.9,13.6
			c0,0.8,0.4,2-0.9,2.1c-1.3,0.1-1.5-1.2-1.7-2.1c-0.9-5-1-10.1,0.7-15c1.6-5,3.9-9.7,5.9-14.6c0.3-0.9,0.8-1.6,1.3-2.8
			c9.9,3,19.5,3,27.3-5.2C329.9,811.3,327.1,834.6,315.7,842.7z"/>
		<path d="M329.3,756.1c1.5,2.8,1.2,5.2-0.2,7.6c-8.1,13.2-19.5,23-33.2,30.1c-5.9,3.1-10.5,1.2-13.4-4.7c-3-6-3-11.8,1.5-17.2
			c1.7-2.1,3.7-3.3,6.4-2.1c1,0.4,2.2,0.5,3.2,0.3c9.8-2.5,19.8-4.6,28.7-9.7C324.7,759,326.9,757.5,329.3,756.1z"/>
		<path d="M212.9,780.5c0,5-1,9.7-0.4,14.4c0.5,4.6,1.4,9.2,2.2,14.4c-1.7-2.1-3.2-3.7-4.8-5.6c-1,2.8-0.5,5.4-0.2,7.9
			c0.3,2.4,1.4,4.7,2.4,7.5c-7-5.9-13.1-11.7-15.6-20.4c-0.8,2.8-0.2,5.7-0.7,8.6c-1.7-0.7-2.5-2-2.6-3.5c-0.5-7.4,0.5-14.5,4-21.2
			c0.5-1,1.4-1.1,2.4-1C204,782.5,208.4,782.5,212.9,780.5z"/>
		<path d="M210,736.1c-1.2-1.6-1.3-3.2-1.6-4.5c-0.9-3.2-1.6-6.4-2.4-9.7c-1-4.7,0.3-8.5,4.4-10.5c7.4-3.7,15.3-6.4,23.4-9.4
			c-0.3,3.5-1.5,6.2-3.1,8.7c-3.8,6.2-8.9,11.6-13.6,17.2C214.9,730.5,212.6,733.1,210,736.1z"/>
		<path d="M210.7,706.6c-3.8,3.7-9.1,5.8-8.9,11.9c-16.5-5.7-22.8-22.5-16.4-30.8C193.9,694,202.2,700.3,210.7,706.6z"/>
		<path d="M255.7,167.8c-8.1,4-15.6,8.2-22.8,12.9c-16.3,10.5-31.6,22.4-43.8,37.6c-5.5,6.8-9.9,14-13.3,22c-1.7,4.3-2,8.4-0.3,12.7
			c0.8,1.9,0.5,3.1-1,4.5c-4,3.6-8,7.4-11.9,11c-0.5,0.5-1.2,1.5-2.2,0.9c-1-0.5-0.9-1.6-0.5-2.5c0.7-2,1.5-3.9,2.3-5.8
			c7.7-17.5,16.8-34.1,29.4-48.5c10.4-12,22.6-21.9,36.2-30.2c8.3-5,16.5-10.2,25.5-13.9C253.8,168.1,254.4,167.6,255.7,167.8z"/>
		<path d="M232.1,714.6c0.7,1.3,0.9,2.5,0.7,3.6c-1.3,8.4-4,16-11,21.5c-4.7,3.7-9,8.1-13.4,12.1c-0.5,0.4-1,1.4-2,0.9
			c-0.9-0.7-0.2-1.4,0-2.1c1.5-5.2,4-9.9,7.9-13.8c6-6.2,11.9-12.7,16.3-20.2C230.8,715.9,231.4,715.3,232.1,714.6z"/>
		<path d="M225.9,400.8c1-1.3,2.3-1.5,3.7-1.5c3,0,5.9,0,8.9,0c1.4,0,2.6-0.3,3.3-1.7c0.5-1.1,1.5-1.6,2.6-2.1
			c6.1-2.4,12.2-4.7,18.5-7.1c0.9-0.3,2-0.8,2.5,0.1c0.7,0.9,0.1,2-0.8,2.6c-4,3.8-8.1,7.7-12.6,11c-2.2,1.7-4.7,2.5-7.5,2.6
			c-5.2,0.2-10.4-0.3-15.3-2.1C228.1,402.4,226.9,401.9,225.9,400.8z"/>
		<path d="M188.8,714.5c9.8,3.1,17.4,16.8,15.4,27.9C193.3,735.2,186.2,724.3,188.8,714.5z"/>
		<path d="M330.4,771.1c1.3,5.5,1.9,10.9-1.3,16.1c-0.9,1.4-2.1,2.5-3.8,2.8c-3.3,0.7-6.6,1.2-9.8,1.7c-1.6,0.2-3,0-3.6-1.7
			c-0.5-1.6,0.3-2.7,1.6-3.5c4.9-2.8,8.9-6.7,12.1-11.4c1.1-1.6,2.6-3.1,3.9-4.6C329.7,770.7,330,770.8,330.4,771.1z"/>
		<path d="M189.6,734.1c7.2,6.8,12,14.5,13.3,24.3C193.2,757.6,186,744.7,189.6,734.1z"/>
		<path d="M194.6,768.7c4.9,1.9,9.5,2.7,14.2,1.9c1.4-0.2,2.7-0.7,4-1c1.6-0.3,2.3,0.3,2.1,2.1c-0.5,2.8-2,4.9-4.8,5.8
			c-3.2,1-6.4,1.6-9.8,1.6c-3.5,0-5.5-1.9-5.8-5.2C194.5,772.2,194.6,770.6,194.6,768.7z"/>
		<path d="M319.4,794.7c-4.6,3.9-9.2,7.2-15.4,6.9c-1.1-0.1-2.2-0.1-3.3,0.2c-2.4,0.7-4.4-0.1-6.2-1.7
			C301.5,792.7,310.2,792.9,319.4,794.7z"/>
		<path d="M206,760.5c4.6-5,9.2-10.1,13.8-15.1c2.6,3.7,2.2,7.8-0.7,10.5c-3,2.8-6.4,4.5-10.5,4.9
			C207.5,760.9,206.6,760.9,206,760.5z"/>
		<path d="M192.2,757c6.8,4.9,13.9,8.6,23.1,6.3c-1.4,3-3.3,4.7-6,5c-5.8,0.7-10.9-1.2-15.2-4.9C192.2,761.7,192.1,759.4,192.2,757z
			"/>
		<path d="M202.1,411.7c1.4,0.9,1.9,2,2.5,3c3.9,6,9.5,8.1,16.4,6.7c2.8-0.5,5.8-1.2,8.6-1.9c0.4-0.1,0.9-0.4,1.2,0.1
			c-5.1,4.6-16.5,5.9-22.2,2.4C204.8,419.8,203.2,416.2,202.1,411.7z"/>
		<path d="M301.8,312.9c6.3,0,11.7,5.7,11.6,12.3c-0.1,6.6-5.5,11.9-11.8,11.9c-6.8,0-11.8-5.4-11.8-12.3
			C289.9,318.3,295.3,312.9,301.8,312.9z"/>
		<path d="M312.2,268.6c0,6.3-4.6,10.9-10.8,10.9c-6,0-10.7-5-10.7-11.1s4.9-10.9,11-10.8C307.6,257.6,312.2,262.6,312.2,268.6z"/>
	</g>
</g>
<g>
	<g>
		<path fill="#C4BA98" stroke="#000000" stroke-width="0.5" stroke-miterlimit="10" d="M426.6,711.6v-13.5h10.5v2.4H429v3.6h4.4v2.5
			H429v4.2L426.6,711.6z"/>
		<path fill="#C4BA98" stroke="#000000" stroke-width="0.5" stroke-miterlimit="10" d="M439.9,701.2c0-1.2,0.2-2.1,0.5-2.5
			c0.3-0.4,1-0.7,2.1-0.7h7.7c1,0,1.7,0.2,2.1,0.7s0.5,1.3,0.5,2.5v7.1c0,1.2-0.2,2.1-0.5,2.5c-0.3,0.4-1,0.7-2.1,0.7h-7.7
			c-1,0-1.7-0.2-2.1-0.7c-0.3-0.4-0.5-1.3-0.5-2.5V701.2z M442.4,709h8v-8.6h-8V709z"/>
		<path fill="#C4BA98" stroke="#000000" stroke-width="0.5" stroke-miterlimit="10" d="M457.9,709.4v-11.3h8.9
			c0.8,0,1.4,0.2,1.8,0.6c0.4,0.4,0.6,1.1,0.6,2v3.2c0,0.9-0.2,1.6-0.6,2c-0.4,0.4-1,0.6-1.8,0.6h-1.4l4.8,5.1h-3.5l-4.2-5.1h-2.3
			v2.4L457.9,709.4z M465.8,700.4h-5.5v3.8h5.5c0.4,0,0.7-0.1,0.9-0.2c0.1-0.1,0.2-0.4,0.2-0.8v-1.6c0-0.4-0.1-0.7-0.2-0.8
			C466.4,700.5,466.2,700.4,465.8,700.4z"/>
	</g>
	<g>
		<path fill="#C4BA98" stroke="#000000" stroke-width="0.5" stroke-miterlimit="10" d="M408.4,738.7c0.9-0.1,1.4,0.3,1.4,1.2v1.6
			h2.6c1.1,0,1.3,0.3,0.7,1.1h-3.3c0,1.8,0.1,2.6,0.3,2.6c0.5,0.1,0.9,0,1.2-0.2c1.2-0.2,1.7,0.2,1.6,1.2c-0.1,0.8-0.2,2-0.2,3.5
			c0.1,1.2-0.5,1.6-1.8,1.2c-1.4-0.5-2.9-0.5-4.4,0c-0.9,0.6-1.5,0.3-1.6-0.9c-0.1-1.2-0.3-2.4-0.7-3.9c0.1-0.9,0.8-1.2,1.9-0.9
			c0.9,0.1,1.4-0.1,1.4-0.7c0-1.3,0-2.5-0.2-3.7C407.3,739.4,407.6,738.6,408.4,738.7z M406.6,747.1c-0.1,1.4,0.1,2.2,0.7,2.3
			c2.7,0.3,3.9,0,3.7-1.2c0.2-1.6-0.9-2.3-3.3-1.9C407,746.3,406.6,746.6,406.6,747.1z M413.6,743.1c0.5,0,0.8,0,0.9-0.2
			c-0.1-1.3-0.2-2.5-0.2-3.7c-0.1-0.8,0.3-1.2,1.2-1.1c0.6,0,0.9,0.3,0.9,0.9c-0.1,1.1-0.1,2.3,0,3.7c3.9-0.6,5.7-0.6,5.6,0
			c0.2,0.3,0.2,0.5-0.2,0.5c-1.8,0.2-3.5,0.5-5.3,0.9c0.3,1.1,0.7,1.9,1.1,2.6c0.5-0.6,0.9-1.3,1.4-2.1c0.3-0.3,0.7-0.5,1.1-0.3
			c0.5,0.3,0.6,0.8,0.5,1.2c-0.7,0.9-1.3,1.7-1.9,2.3c1.3,1.3,3.4,1.9,6.3,1.8c0.2,0.1-0.1,0.7-1.1,1.8c-1.3,1.3-2.6,1.5-4,0.7
			c-0.6-0.5-1.5-1.3-2.8-2.6c-1.2,0.8-2.4,1.3-3.7,1.4c-0.6-0.1-0.7-0.3-0.3-0.7c1.2-0.3,2.2-1.1,3.2-2.1c-0.5-0.7-0.9-1.9-1.4-3.5
			c-0.6,0.1-1.1,0.3-1.6,0.5c-0.7,0.1-1-0.2-0.9-1.1C412.4,743.5,412.8,743.2,413.6,743.1z M419.3,739.1c0.3-0.8,0.8-1.1,1.4-0.7
			c0.6,0.3,0.8,0.8,0.5,1.4c-0.5,0.7-1.2,1.1-2.3,1.2c-0.5,0-0.6-0.2-0.5-0.5C418.7,740,419,739.5,419.3,739.1z"/>
		<path fill="#C4BA98" stroke="#000000" stroke-width="0.5" stroke-miterlimit="10" d="M433.1,743.1c0.6,0,1,0.2,1.2,0.5
			c-0.1,0.5-0.5,0.6-1.2,0.5c-0.7,0-1.4,0-2.1,0.2c0.2,0.3,0.1,0.7-0.3,1.1l-0.9,0.9c-0.3,0.5,0,0.8,0.9,0.9
			c0.7,0.1,1.3-0.1,1.8-0.7l-0.5-1.1c0.1-0.3,0.3-0.5,0.7-0.3c0.3,0.2,0.7,0.5,1.1,0.7c0.2,0.5,0.5,1,0.9,1.6
			c-0.1,0.2-0.2,0.3-0.3,0.3c-0.5,0.1-0.9-0.1-1.4-0.7c-0.7,1.3-1.5,1.8-2.3,1.4c-0.7-0.5-1.3-0.5-1.9-0.2c-0.2,0-0.5-0.2-0.7-0.5
			c-0.1-0.5,0.1-0.9,0.7-1.4c1.1-0.9,1.4-1.6,1.1-1.9c-0.5-0.1-1.2,0-2.1,0.3c-0.3,0.2-0.6,0.2-0.7-0.2c0.1-0.8,0.5-1.3,1.2-1.4
			L433.1,743.1L433.1,743.1z M433.1,740.7c0.3,0,0.6,0.2,0.7,0.5c0,0.3-0.1,0.5-0.3,0.5h-2.8c-0.8,0-1.6,0-2.3,0.2
			c-0.2-0.1-0.3-0.3-0.3-0.7c0.1-0.3,0.3-0.6,0.7-0.9C429.5,740.5,431,740.7,433.1,740.7z M437.7,745.5c-0.3-0.1-0.7-0.1-1.1,0
			c-0.3,0.2-0.7,0.4-1.1,0.5c-0.2,0-0.4,0-0.5-0.2c-0.2-1.8-0.5-3.3-0.7-4.7c-0.1-0.7,0.2-1.1,1.1-1.1c0.3,0.2,0.9,0.3,1.8,0.2
			c0.3-0.3,0.8-0.9,1.2-1.8c0.1-0.2,0.3-0.3,0.7-0.3c1.1,0.3,1.3,0.8,0.9,1.2c-0.3,0.3-0.6,0.6-0.9,0.9c0.8,0,1.9,0.1,3.2,0.3
			c0.3-0.1,0.6-0.2,0.9-0.3c0.3-0.1,0.6,0,0.9,0.2c0.5,0.3,0.6,0.9,0.3,1.6c-0.3,1.1-0.6,2.2-0.7,3.3l-0.5,0.3
			c0.5,0.3,0.5,0.6,0.2,0.9c-0.2,0.2-0.5,0.5-0.7,0.7c-0.2,0.1-0.2,0.3,0.2,0.5c0.5,0.1,0.9,0,1.2-0.2c-0.5-0.3-0.5-0.6-0.2-0.7
			c0.5,0,0.8,0,1.1,0.2c0.2,0.3,0.5,0.7,0.7,1.1c-0.1,0.1-0.3,0.2-0.5,0.3l-0.7-0.5c-0.2,0.7-0.6,1-1.2,0.9
			c-0.5-0.3-0.9-0.5-1.4-0.3c-0.3-0.2-0.5-0.5-0.3-0.9c0.2-0.2,0.5-0.5,0.7-0.9c0.1-0.2,0.3-0.6,0.5-1.1c-0.9-0.1-2.1-0.2-3.3-0.2
			c-0.8,2.7-2.4,4.6-4.7,5.8c-1.9,0.7-3.3,0.4-4.2-0.9c0-0.1,0.2-0.2,0.7-0.2C434.6,749.9,436.9,748.4,437.7,745.5z M438.2,741.2
			c-0.8,0-1.5,0.1-1.9,0.3c-0.2,0.7-0.1,1.1,0.3,1.1l1.9-0.2C438.7,741.8,438.5,741.4,438.2,741.2z M438.4,743.3
			c-0.6,0-1.3,0-2.1,0.2c0,0.8,0.2,1.2,0.5,1.2l1.2-0.2L438.4,743.3z M439.6,746.4c0.1-0.5,0.3-0.7,0.7-0.7c0.2,0,0.4,0.1,0.5,0.3
			c-0.2,0.5-0.4,0.9-0.5,1.4c0,0.5,0,0.8,0.2,1.1c0.5,0.6,1.4,1,2.8,1.2c1.2,0.1,2.3,0,3.3-0.3c0.7-0.3,1.2-0.4,1.4-0.2
			c-0.1,0.7-0.5,1.5-1.2,2.4c-0.8,0.7-1.5,0.9-2.1,0.7c-2-0.3-3.6-1.2-4.9-2.4c-0.6-0.7-0.8-1.3-0.7-1.9
			C439.3,747.4,439.5,746.9,439.6,746.4z M442.2,744.9c0.2-0.5,0.3-0.9,0.2-1.2c-0.5-0.2-1.3-0.3-2.6-0.3c-0.1,0.5-0.2,0.9-0.2,1.4
			C440.5,744.8,441.4,744.9,442.2,744.9z M439.9,742.4l1.9,0.2c0.5,0.1,0.7-0.1,0.7-0.7c0-0.5-0.7-0.7-2.1-0.7
			C440.1,741.3,439.9,741.7,439.9,742.4z"/>
		<path fill="#C4BA98" stroke="#000000" stroke-width="0.5" stroke-miterlimit="10" d="M455.4,742.2c0.2-0.5,0.4-0.7,0.5-0.7
			c0.6-0.1,0.8,0.3,0.5,1.2c-0.3,1.1-0.9,2.2-1.6,3.3c-0.6,0.9-1.2,1.6-1.8,2.1c-1.2,1.1-2.4,1-3.7-0.2c-0.3-0.3-0.2-0.7,0.3-1.1
			C451.7,746,453.6,744.4,455.4,742.2z M459.4,738.7c1.2-0.1,1.7,0.5,1.6,1.9c-0.1,2.9,0,6.2,0.2,9.8c0,1.4-1.1,2.1-3.3,1.9
			c-1.2-0.1-2.5-0.8-4-1.9c-0.2-0.6-0.1-0.9,0.3-0.9c2.2,0.7,3.6,0.8,4,0.3c0.3-0.2,0.5-3.5,0.3-9.8
			C458.5,739.2,458.8,738.7,459.4,738.7z M462.2,742.8c-0.3-0.5-0.3-0.8,0.2-1.1c0.2-0.1,0.5,0,0.7,0.2c1.6,2.1,4.1,3.9,7.4,5.4
			c-0.3,0.6-0.7,1-1.1,1.2c-1.1,0.9-2.1,0.9-3,0C464.9,746.7,463.5,744.7,462.2,742.8z"/>
		<path fill="#C4BA98" stroke="#000000" stroke-width="0.5" stroke-miterlimit="10" d="M479.6,745.2c-0.3,1.2-0.7,2.1-1.1,2.6
			l2.3-0.3c-0.1-0.5-0.2-0.9-0.2-1.4c0.1-0.5,0.5-0.8,1.2-0.9c0.5,0,0.9,0.1,1.2,0.3c0.5,0.1,0.8,0.1,1.1,0v-5.8
			c0-0.7,0.2-1.1,0.7-1.2c1.2,0,1.8,0.4,1.8,1.2c-0.1,0.6-0.2,1.1-0.2,1.4c2.4,0.1,4.5,0.2,6.1,0.2c0,0.6-0.2,1.1-0.5,1.6
			c-0.5,0.5-0.9,0.6-1.4,0.3c-1.9-0.6-3.3-0.8-4.2-0.5c-0.2,0.9-0.2,1.9,0,2.8c0.8,0.1,1.5,0,1.9-0.2c1.5-0.5,2.3,0,2.3,1.2
			c-0.2,0.9-0.3,2.1-0.3,3.5c0.2,1.5-0.3,2.1-1.6,1.6c-1.6-0.2-3.4-0.3-5.3-0.2c-1.4,0.7-2.2,0.3-2.3-1.2c0-0.3,0-1-0.2-1.9
			c-2.3,1.1-5.1,1.9-8.2,2.4c-1.1,0.2-1.5-0.2-1.4-1.2c0-0.6,0.6-0.9,1.8-1.1c1.3-0.1,2.7-0.3,4.4-0.5c0.3-1.3,0.5-2.5,0.5-3.7
			c0-0.8,0.2-1.2,0.7-1.2C479.6,743.2,479.9,743.9,479.6,745.2z M478.2,739.8c-0.1,1.4,0,2.1,0.3,1.9l2.4,0.2
			c0.6,0.5,0.6,0.8,0.2,1.1c-0.2,0.1-0.6,0.2-1.2,0.2c-2.3-0.5-4.7-0.3-7.2,0.5c-0.5,0.1-0.7,0-0.7-0.5c0.2-1.1,0.7-1.5,1.4-1.4
			c0.9,0.2,1.6,0.3,2.1,0.2c0.3-0.1,0.5-0.8,0.3-2.1c0.1-0.5,0.3-0.7,0.7-0.7C477.3,738.9,477.8,739.2,478.2,739.8z M476.4,747.5
			c-0.2,0.3-0.5,0.4-0.9,0.2c-0.7-1.1-1.1-2-1.2-2.8c-0.1-0.8,0.2-1.3,0.9-1.4c0.6-0.1,0.9,0.1,0.9,0.7
			C476.2,745.3,476.3,746.4,476.4,747.5z M486.2,746.8c-1.6-0.1-2.7,0-3.2,0.3c-0.3,0.8-0.3,1.6,0,2.4c0.1,0.6,1.4,0.8,3.9,0.5
			c1.1,0,1.6-0.6,1.6-1.8C488.5,747.2,487.8,746.7,486.2,746.8z"/>
	</g>
	
		<linearGradient id="SVGID_1_" gradientUnits="userSpaceOnUse" x1="359.697" y1="200.9746" x2="359.697" y2="200.9746" gradientTransform="matrix(1.0929 0 0 -1.0929 0 955.5428)">
		<stop  offset="0" style="stop-color:#C4BA98"/>
		<stop  offset="1.474962e-002" style="stop-color:#CEC5A9"/>
		<stop  offset="4.332456e-002" style="stop-color:#DDD7C4"/>
		<stop  offset="7.615717e-002" style="stop-color:#EAE6DA"/>
		<stop  offset="0.1145" style="stop-color:#F3F1EB"/>
		<stop  offset="0.162" style="stop-color:#FAF9F6"/>
		<stop  offset="0.2285" style="stop-color:#FEFEFD"/>
		<stop  offset="0.4133" style="stop-color:#FFFFFF"/>
		<stop  offset="0.4696" style="stop-color:#DDDBD8"/>
		<stop  offset="0.5499" style="stop-color:#B2AFA6"/>
		<stop  offset="0.6258" style="stop-color:#908B7F"/>
		<stop  offset="0.6952" style="stop-color:#787263"/>
		<stop  offset="0.7558" style="stop-color:#696252"/>
		<stop  offset="0.801" style="stop-color:#645D4C"/>
		<stop  offset="0.8499" style="stop-color:#776F5B"/>
		<stop  offset="0.9484" style="stop-color:#A89F82"/>
		<stop  offset="1" style="stop-color:#C4BA98"/>
	</linearGradient>
	
		<linearGradient id="SVGID_2_" gradientUnits="userSpaceOnUse" x1="359.697" y1="200.9746" x2="359.697" y2="200.9746" gradientTransform="matrix(1.0929 0 0 -1.0929 0 955.5428)">
		<stop  offset="0" style="stop-color:#C4BA98"/>
		<stop  offset="1.389108e-002" style="stop-color:#C7BD9D"/>
		<stop  offset="0.1655" style="stop-color:#E5E1D2"/>
		<stop  offset="0.2794" style="stop-color:#F8F7F3"/>
		<stop  offset="0.3418" style="stop-color:#FFFFFF"/>
		<stop  offset="0.4046" style="stop-color:#E1E0DC"/>
		<stop  offset="0.5083" style="stop-color:#B5B1A9"/>
		<stop  offset="0.6058" style="stop-color:#928D81"/>
		<stop  offset="0.6943" style="stop-color:#797364"/>
		<stop  offset="0.7708" style="stop-color:#696352"/>
		<stop  offset="0.8265" style="stop-color:#645D4C"/>
		<stop  offset="0.8691" style="stop-color:#776F5B"/>
		<stop  offset="0.955" style="stop-color:#A89F82"/>
		<stop  offset="1" style="stop-color:#C4BA98"/>
	</linearGradient>
	<path fill="url(#SVGID_1_)" stroke="url(#SVGID_2_)" stroke-width="0.5" stroke-miterlimit="10" d="M393.1,735.9"/>
	
		<linearGradient id="SVGID_3_" gradientUnits="userSpaceOnUse" x1="369.1076" y1="208.1004" x2="369.1076" y2="208.1004" gradientTransform="matrix(1.0929 0 0 -1.0929 0 955.5428)">
		<stop  offset="0" style="stop-color:#C4BA98"/>
		<stop  offset="1.474962e-002" style="stop-color:#CEC5A9"/>
		<stop  offset="4.332456e-002" style="stop-color:#DDD7C4"/>
		<stop  offset="7.615717e-002" style="stop-color:#EAE6DA"/>
		<stop  offset="0.1145" style="stop-color:#F3F1EB"/>
		<stop  offset="0.162" style="stop-color:#FAF9F6"/>
		<stop  offset="0.2285" style="stop-color:#FEFEFD"/>
		<stop  offset="0.4133" style="stop-color:#FFFFFF"/>
		<stop  offset="0.4696" style="stop-color:#DDDBD8"/>
		<stop  offset="0.5499" style="stop-color:#B2AFA6"/>
		<stop  offset="0.6258" style="stop-color:#908B7F"/>
		<stop  offset="0.6952" style="stop-color:#787263"/>
		<stop  offset="0.7558" style="stop-color:#696252"/>
		<stop  offset="0.801" style="stop-color:#645D4C"/>
		<stop  offset="0.8499" style="stop-color:#776F5B"/>
		<stop  offset="0.9484" style="stop-color:#A89F82"/>
		<stop  offset="1" style="stop-color:#C4BA98"/>
	</linearGradient>
	
		<linearGradient id="SVGID_4_" gradientUnits="userSpaceOnUse" x1="369.1076" y1="208.1004" x2="369.1076" y2="208.1004" gradientTransform="matrix(1.0929 0 0 -1.0929 0 955.5428)">
		<stop  offset="0" style="stop-color:#C4BA98"/>
		<stop  offset="1.389108e-002" style="stop-color:#C7BD9D"/>
		<stop  offset="0.1655" style="stop-color:#E5E1D2"/>
		<stop  offset="0.2794" style="stop-color:#F8F7F3"/>
		<stop  offset="0.3418" style="stop-color:#FFFFFF"/>
		<stop  offset="0.4046" style="stop-color:#E1E0DC"/>
		<stop  offset="0.5083" style="stop-color:#B5B1A9"/>
		<stop  offset="0.6058" style="stop-color:#928D81"/>
		<stop  offset="0.6943" style="stop-color:#797364"/>
		<stop  offset="0.7708" style="stop-color:#696352"/>
		<stop  offset="0.8265" style="stop-color:#645D4C"/>
		<stop  offset="0.8691" style="stop-color:#776F5B"/>
		<stop  offset="0.955" style="stop-color:#A89F82"/>
		<stop  offset="1" style="stop-color:#C4BA98"/>
	</linearGradient>
	<path fill="url(#SVGID_3_)" stroke="url(#SVGID_4_)" stroke-width="0.5" stroke-miterlimit="10" d="M403.4,728.1"/>
	<g>
		<g>
			<path fill="#C4BA98" stroke="#000000" stroke-width="0.5" stroke-miterlimit="10" d="M398.8,718.7h-6.7v5.3h3.7v3.7h-3.7v6.5
				l-2,0.9v-19.9h8.8V718.7"/>
			<path fill="#C4BA98" stroke="#000000" stroke-width="0.5" stroke-miterlimit="10" d="M401.3,731.7v-1v-15.5h7.4
				c0.7,0,1.2,0.3,1.5,0.9c0.3,0.6,0.5,1.6,0.5,3v4.7c0,1.4-0.1,2.3-0.5,3c-0.3,0.6-0.8,0.9-1.5,0.9h-1.1l4,7.6h-2.9l-3.5-7.6h-1.9
				v2.5v1.1L401.3,731.7z M407.9,718.7h-4.5v5.6h4.5c0.3,0,0.6-0.1,0.7-0.3c0.1-0.2,0.2-0.6,0.2-1.2v-2.4c0-0.6-0.1-1-0.2-1.2
				C408.4,718.8,408.2,718.7,407.9,718.7z"/>
			<path fill="#C4BA98" stroke="#000000" stroke-width="0.5" stroke-miterlimit="10" d="M414.8,735.2v-20h2v20H414.8z"/>
			<path fill="#C4BA98" stroke="#000000" stroke-width="0.5" stroke-miterlimit="10" d="M421.2,735.2v-20h8.9v3.4h-6.8v4.5h4v3.4h-4
				v5h6.9v3.8L421.2,735.2L421.2,735.2z"/>
			<path fill="#C4BA98" stroke="#000000" stroke-width="0.5" stroke-miterlimit="10" d="M433.9,735.2v-20h1.4l6.1,11.8
				c0.2,0.4,0.4,0.8,0.5,1.1c0.1,0.3,0.3,0.7,0.4,1.1c0-1.1,0-1.9-0.1-2.4c0-0.5,0-0.8,0-1.1v-10.5h1.8v20h-1.4l-6.4-12.4
				c-0.1-0.3-0.3-0.6-0.4-0.9c-0.1-0.2-0.2-0.5-0.3-0.8c0,0.6,0,1.2,0,1.8c0,0.5,0,1,0,1.4v10.8H433.9L433.9,735.2z"/>
			<path fill="#C4BA98" stroke="#000000" stroke-width="0.5" stroke-miterlimit="10" d="M448.5,735.2v-20h5.6c1.6,0,2.8,0.9,3.7,2.6
				c0.9,1.7,1.3,4.2,1.3,7.3c0,1.9-0.2,3.6-0.5,5c-0.3,1.5-0.8,2.7-1.4,3.5c-0.4,0.5-0.8,0.9-1.4,1.2c-0.6,0.2-1.3,0.4-2.2,0.4
				L448.5,735.2L448.5,735.2z M450.5,731.5h2.6c1.4,0,2.4-0.5,2.9-1.5c0.6-1,0.9-2.6,0.9-4.9c0-2.1-0.2-3.6-0.7-4.6
				c-0.5-1.1-1.2-1.6-2.1-1.6h-3.6L450.5,731.5L450.5,731.5z"/>
			<path fill="#C4BA98" stroke="#000000" stroke-width="0.5" stroke-miterlimit="10" d="M470.3,718.7h-5.7v4.3h5.4
				c0.8,0,1.4,0.3,1.7,1c0.3,0.7,0.4,1.9,0.4,3.7v2.8c0,1.8-0.1,3.1-0.4,3.7c-0.3,0.7-0.9,1-1.7,1h-5.4c-0.8,0-1.4-0.3-1.7-1
				c-0.3-0.7-0.4-1.9-0.4-3.7V730l1.8-0.9v2.4h6.1v-4.6H465c-0.8,0-1.4-0.3-1.7-1c-0.3-0.7-0.4-1.9-0.4-3.7v-2.2
				c0-1.8,0.1-3.1,0.4-3.7c0.3-0.7,0.9-1,1.7-1h4.9c0.8,0,1.4,0.3,1.7,1c0.3,0.6,0.5,1.8,0.5,3.4v0.4l-1.8,1V718.7L470.3,718.7z"/>
			<path fill="#C4BA98" stroke="#000000" stroke-width="0.5" stroke-miterlimit="10" d="M484.6,732.2v-5.6h-6.3v7.9l-2,0.7v-20h2
				v7.8h6.3v-7.8h2v16.3L484.6,732.2z"/>
			<path fill="#C4BA98" stroke="#000000" stroke-width="0.5" stroke-miterlimit="10" d="M491.1,735.2v-20h2v20H491.1z"/>
			<path fill="#C4BA98" stroke="#000000" stroke-width="0.5" stroke-miterlimit="10" d="M497.5,735.2v-20h7.4c0.7,0,1.2,0.3,1.5,0.9
				c0.3,0.6,0.5,1.6,0.5,3v4.5c0,1.4-0.1,2.3-0.5,2.9c-0.3,0.6-0.8,0.9-1.5,0.9h-5.4v6.9L497.5,735.2z M504.1,718.7h-4.5v5.3h4.5
				c0.3,0,0.6-0.1,0.7-0.3c0.1-0.2,0.2-0.6,0.2-1.2v-2.2c0-0.6-0.1-1-0.2-1.2C504.7,718.8,504.4,718.7,504.1,718.7z"/>
		</g>
	</g>
</g>
</svg>
