<?xml version="1.0" encoding="utf-8"?>
<!-- Generator: Adobe Illustrator 18.1.1, SVG Export Plug-In . SVG Version: 6.00 Build 0)  -->
<svg version="1.1" id="图层_1" xmlns="http://www.w3.org/2000/svg" xmlns:xlink="http://www.w3.org/1999/xlink" x="0px" y="0px"
	 viewBox="0 0 612 792" enable-background="new 0 0 612 792" xml:space="preserve">
<g>
	<g>
		<path d="M162.8,273.8c-1,1.5-2.2,1.6-3.5,1.7c-3.9,0.4-5.1,1.9-4.5,5.8c0.9,5.5,1.6,10.9,1.2,16.5c-0.1,1.4,0.5,2.1,1.9,2.5
			c5.5,1.7,11.1,2.2,16.7,3c15.1,2.2,30.3,2.4,45.4,2c13.1-0.4,26.3-0.2,39.5,0.7c3.1,0.2,6.2,0.4,9.3,0.7c1.1-4-0.1-5.9-4.5-6.9
			c-14-3.2-28.1-5.8-42.3-8c-16.2-2.5-32.5-4.9-48.6-7.5c-3.1-0.4-6.1-1.3-9.1-2.1c-1.1-0.2-2.3-0.5-2.7-2.3c0.1,0,0.3-0.3,0.7-0.3
			c3,0,2.5-2.2,2.6-4c1.2-19.6,5.9-38.1,16.6-54.9c0.4-0.7,1.1-1.3,0.3-2.2c-0.5-0.5-0.1-1.2,0.3-1.6c15-18.5,31.3-35.6,51.8-48.1
			c22.4-13.7,46.8-20.2,72.9-20c10.3,0.1,20.4,0.8,30.4,4c8.9,3,17.3,7.3,25.7,11.1c11,5.1,21.7,10.6,31.5,17.9
			c23.4,17.6,41.2,39.7,54.4,65.7c2.8,5.6,5.4,11.3,7.5,17c1,2.8,1.6,3.2,4.7,3c6.1-0.5,12.2-0.7,18.7-0.5c-0.8,1.6-0.1,2.8,0.5,4.2
			c3.9,7.1,6.8,14.5,6.1,22.9c0,0.2,0,0.4,0,0.7c-0.3,3.7-1,4.4-4.8,4.6c0.3,9-4.7,15.6-9.9,22.4c3.2,1.9,4.8-1.3,7.1-1.9
			c0.9,2.4,0.9,4.8,0.9,7.2c0,3.3,0.5,4,3.8,4.9c2.6,0.7,3.8,2.2,4.3,5.2c0.5,4.9-0.4,9.5-2.5,13.9c-0.9,1.7-1.9,3.4-2.7,5.1
			c-1,1.9-2.1,3.1-4.6,2.6c-1.7-0.3-2,1.4-2.2,2.7c-0.9,4.9-1.6,9.9-2.7,14.9c-2.4,11.6-5.6,23.1-7.4,34.8
			c-3,18.7-6.7,37.2-8.4,56.1c-1.1,11.5-3,22.9-3.4,34.5c-0.1,1.5-0.4,3.1,0.8,5c3-14.5,8-27.9,11.8-42.2c0.2,0.9,0.4,1.3,0.4,1.6
			c1,12.7,1.9,25.4,1.6,38.1c-0.3,16.2,0.2,32.3,0.8,48.6c0.3,9.9,0.4,19.9,0.8,29.9c0.5,19.6,0.1,39,0.9,58.6
			c0.3,9.1,0.8,18.1,1.2,27.2c0.1,1.7-0.4,2.4-2.2,2.7c-5.8,1.1-11.7,1.5-17.6,1.6c-10.2,0.1-20.3-0.2-30.5,0.8
			c-9.8,0.9-19.1,3.7-28.2,7.6c-1.9,0.8-2.8,2.1-3.3,3.9c-0.4,1.6-1.1,3.1-3.4,4.2c1.4-21,2.8-41.4,4.2-62.2
			c-2.7-0.1-5.5-0.3-8.1-0.4c-6.9-0.2-13.7-0.5-20.5-1.2c-1.6-0.1-1.7,0.7-1.9,1.9c-0.4,6.1-0.5,12.3-0.7,18.5
			c-0.1,7.2-0.1,14.4-0.2,21.6c-0.1,4-3,7.2-6.9,7.8c-15.1,2.3-30.2,3.1-45.4,2.2c-14.1-0.8-27.8,1.7-41,6.6c-1.2,0.4-2.3,1.1-3.8,1
			c0.1-2.8,0.3-5.8,0.1-8.6c-0.7-14.5-0.7-29.1-1-43.6c0-1-0.1-2.1-0.1-3.1c-0.1-4.5-3.9-8.1-8.3-7.7c-6.4,0.5-12.9,1.7-19.5,1.9
			c-1.4,0-1.2,1.1-1.3,2c-0.5,6.1-0.9,12.1-1.4,18.3c-0.8,9.2-2,18.3-4,27.3c-0.8,3.5-2.5,5.1-6,5.8c-10.3,2-20.4,1.3-30.6-0.4
			c-10.1-1.7-20-3.9-30.2-4.8c-0.3,0-0.7-0.1-1.1-0.3c0.4-3.7,0.9-7.3,1.3-10.9c2.3-16.6,3.2-33.3,3.3-50.2
			c0.1-19.6,0.3-39.2,1-58.8c0.7-20,2.1-40,4.3-59.9c1.1-9.9,1-20,1-30.1c0-3.4-0.4-4.3-2-5.9c-0.5,4.9-1.1,9.6-1.6,14.3
			c-3.1,27.2-5.5,54.5-7.8,81.9c-2,23.6-3.9,47.2-6,70.8c-1.4,15.8-3.1,31.7-4.6,47.5c-0.1,1.3-0.5,2.1-2.1,2.3
			c-3.7,0.8-7.3,2-10.8,3.5c-0.4,0.2-0.9,0.5-1.5,0.2c0.2-2.6,1-5.2,1.5-7.9c3.2-13.3,4.6-27,6.2-40.7c2.3-20.1,3.9-40.4,4.9-60.7
			c0.8-16.1,1.3-32.2,1.9-48.3c0.8-21.3,2-42.6,3.5-63.8c0.9-11.8,1.3-23.6,2.2-35.4c1-13.1,2.1-26.2,2.5-39.3
			c0.2-5.8,0-11.6,0.8-17.4c0.2-2.2-0.9-3.5-3.2-4.2c-2.8-0.8-5.5-2-7.5-4.2c-4.6-5-4.9-12.3-0.5-18.1c1.4-1.9,1.9-3.7,1.1-6
			c-0.4-1.2-0.7-2.5-0.9-3.8c-0.8-4.5,0.4-8.3,4.6-10.7c1.7-1.1,2.3-2.5,2.4-4.5c0.8-9.1,0-17.9-2.3-26.8c-0.5-2.1-0.8-4-0.8-6.1
			c0.1-3.6,1.4-5.2,4.9-6.2C157.6,271.9,160.2,272.3,162.8,273.8z M267.2,297.9c0.3-1.2,0.2-2.1-0.1-3c-1.3-3.3-1.2-3.5,1.6-5.7
			c0.5-0.4,1.2-1,1.7-1.5c2.3-2,3.5-2.1,6.2-0.7c5.4,2.6,10.8,3.4,16.5,1.2c1.7-0.7,3.5-1.4,5.2-2.1c6-2.4,9.7-1,12.1,5
			c0.9,2,1.7,2.3,3.7,1.6c42.7-13.4,86.4-21,131-24.4c2-0.1,3.9-0.3,6.1-0.5c-5.1-8.5-8.9-17.5-12.8-26.2
			c-3.9-8.7-8.7-16.9-14.5-24.7c-0.8-1-1.6-2-2.4-3c5,10.2,11.5,19.7,15.6,30.3c-0.7-0.4-1.2-1-1.7-1.5
			c-5.5-6.1-10.3-12.7-15.2-19.2c-6-8-11.9-16-19-23.1c-0.8-0.8-1.4-1.4-2.2-2.2c-0.7-0.7-1.2-1.4-2.3-1.6
			c6.1,7.7,12.3,15.2,16.7,24.2c-2.6-1.2-5.1-2.7-7.6-4.2c-6-3.5-11.3-7.6-15.6-13.2c-2.7-3.5-6.2-6.6-9.6-9.5
			c-1.6-1.5-3.6-2.7-6.3-3.6c6,6.7,12,12.6,17.2,20c-4.3-1-8-1.9-11.8-2.7c-1.3-0.3-2.3-1-3.1-2c-8.1-10.3-17.6-19.1-27.5-27.6
			c-0.5-0.4-1-1.1-2.5-1.2c9,9.7,18.9,17.9,26,29.2c-1.5-0.2-2.6-0.3-3.6-0.4c-2.3-0.2-4.5-0.7-6.8-0.8c-8.1-0.5-8.2-0.7-10.5-8.5
			c-0.9-2.8-2.2-5.5-4.6-7.5c1.2,4.9,2.3,9.9,3.5,15.1c-7.2-0.4-14.1-0.1-21,0.1c-1.6,0.1-2-0.5-2.1-2.1c-0.1-3.1-0.2-6.2-0.4-9.3
			c-0.2-2.3-0.3-4.6-1.4-6.7c-0.1,4.3-0.1,8.5-0.1,12.7c0,5.5,0,5.5-5.4,6.4c-3.9,0.7-7.9,1.3-12,2.1c-0.7-8.3,0.5-16.3-0.2-24.3
			c-2,8-1.9,16.2-2.1,24.5c-5.9-0.9-11.5-1.7-17.4-2.7c0.8-7.3,3.7-13.9,6-20.5c-0.5,0.4-1,1-1.4,1.6c-3.4,5.2-5.6,11-7.8,16.7
			c-0.5,1.4-1.2,1.7-2.6,1.5c-2-0.4-3.9-0.7-6-0.9c-3.5-0.3-7-0.5-10.6-0.8c3.6-12.5,12.3-21.2,20.7-30.6c-2,0.5-2.1,0.7-3.9,2.2
			c-8.7,7.3-14.9,16.6-20,26.6c-0.9,1.6-1.9,2.3-3.5,2.3c-3.5,0.1-6.9,0.7-10.3,1.2c-2.1,0.3-4.2,0.7-6.9,1.1
			c8.6-11.1,16.6-22,26.7-31c-0.3-0.1-0.5,0-0.7,0.1c-0.4,0.3-0.9,0.7-1.3,1c-10.3,8-19.6,16.9-27.4,27.3c-4.6,6-11.4,7.6-18.3,10.5
			c7-11.7,15.1-22,23.4-32c-0.4,0-0.7,0.2-0.9,0.4c-1,0.9-1.9,1.6-2.7,2.5c-8.3,8.6-16.2,17.5-22.7,27.5
			c-4.6,6.9-12.1,9.5-18.3,14.2c1.9-8.5,6.4-15.7,10.7-23.2c-1.2,0.5-1.9,1.4-2.5,2.4c-5.7,7.4-10.2,15.5-14.5,23.7
			c-1.9,3.5-4.6,6.2-7.9,9.3c1.2-5.9,2-11.4,3.8-16.6c-1.5,2-2.6,4-3.7,6.2c-2.4,5.2-3.7,10.7-4.9,16.3c-0.4,2.2-1.3,4.3-3.4,6.2
			c0.7-4.8,1.2-9.2,1.7-13.8c-1,0.2-1.1,1-1.3,1.4c-1,2.2-1.4,4.6-1.6,7c-0.8,7.2-1.9,14.2-5,20.9c-2.1,4.3-2.7,9.1-3.5,14
			C201.5,283.2,235.1,287.2,267.2,297.9z M476.5,355.8c1-0.8,1.3-1.5,1.7-2.3c2.4-4.3,3.8-9,4.9-13.7c0.9-3.4-0.1-4.6-3.4-5.7
			c-1-0.3-2-0.5-3.1-0.8c-7-1.5-14.1-3.1-21.1-4.5c-24.7-5-49.4-9.2-74.4-11.8c-14.4-1.5-29-2.7-43.4-4c-9.6-0.9-19.1-1.7-28.7-2.5
			c-3.8-0.3-4-0.1-3.4,3.6c1,5.4,2,10.6,3,16c0.4,2.3,0.9,4.5,1.2,6.8c0.8,4.9-2.2,9.7-6.2,10.3c-4.2,0.4-8.2-0.2-12.8-0.8
			c2.8-2.2,6.3-1.3,8.7-3.2c-0.7-1.1-1.6-1.2-2.5-1.2c-1.6,0-3.3,0-5,0.1c-4.6,0.3-8.9,2.1-13.2,3.6c-3.4,1.2-4.9,0.4-5.9-3.1
			c-1.3-4.4-2.3-8.7-2.1-13.2c0.1-1.6-0.1-3.2-0.1-4.8s-0.7-2.4-2.4-2.5c-8-0.8-16-0.4-23.8-0.3c-0.7,0-1.4,0.2-2.3-0.3
			c1.3-0.4,2.4-0.9,3.4-1.2c6.9-2.2,14-3.3,21.1-4.8c3.9-0.9,3.9-0.9,3.5-5.1c-0.2-1.4-0.8-2-2.3-1.9c-13.6,0.5-27.1,1.1-40.7,1.3
			c-22.6,0.5-45,2.6-67.3,6.9c-2.3,0.4-4.4,1.3-6.1,2.8c-2.8,2.4-3.9,8.5-2,10.7c2.8-2.1,5.1-5.1,8.7-6.6c0.2,1.2-0.4,1.9-1,2.5
			c-2.8,3.4-5.8,6.8-8.6,10.2c-2.3,2.7-3.4,5.8-3.7,9.3c-0.3,4.2,0.9,5.1,4.7,3.6c9.2-3.5,18.7-6.1,28.3-8.2
			c20.2-4.4,40.8-6.6,61.4-7.1c7.4-0.2,14.9-0.5,22.2-0.2c1.2,0,2.1,0.2,2.1,1.9c0,3.8,1.5,7.1,3.3,10.4c2.7,5,5.6,6.1,11,4.2
			c2.3-0.9,4.6-1.5,7.1-1.5c5.2-0.1,10.3,1.1,15.4,2.1c4.2,0.8,7.2-0.4,9.4-3.9c1.2-2,2.1-4,2.6-6.3c0.7-3.3-0.1-6.4-0.9-9.6
			c0.3-0.1,0.5-0.2,0.8-0.2c9.8,1,19.7,1.9,29.5,3.1c5.5,0.7,10.8,2.1,16.3,1.6c12.5-1.1,25-1.6,37.6-1.7c4.9-0.1,9.8-0.5,14.8,0.3
			c1.3,0.2,2.6,0.3,3.7,1.6c-8.1,1.1-16.2,1.1-23.5,4.9c0.7,0.3,1.3,0.4,2.1,0.5c11.6,2,23.2,4,34.8,6.4c13.7,3,27.3,6,41,9
			c1,0.2,2.2,0.8,3-0.1C474.5,354.6,475.4,354.9,476.5,355.8z M339.6,308.9c5.8,0.4,11.6,0.9,17.4,1.3c2.5,0.2,4.9,0.3,7.4-0.2
			c24.3-5,48.9-8.3,73.5-10.3c12.5-1,25-1.1,37.5-2.3c6.9-0.7,6.9-0.8,5.9-7.8c-1-6.4-3.4-12.5-4.8-18.7c-0.5-2.2-1.5-2.4-3.5-2.2
			c-8,1-16,1.9-23.9,2.7c-24.7,2.6-49.2,6.4-73.5,10.9c-22.8,4.3-45.1,11.3-68.1,15.3c-1,0.2-1.7,0.7-2,1.6c-0.4,2.3-0.9,4.6-0.9,7
			c0,1.1,0.4,1.5,1.6,1.5c1.9-0.1,3.7-0.1,5.6,0.1c4.7,0.3,9.3-0.2,13.9-1.6c12.7-3.9,25.2-7.8,37.7-12.3c1-0.3,2.1-0.9,3.8-0.4
			C357.6,298.3,348.4,303.1,339.6,308.9z M357.4,371.7c-0.5,0.7-0.3,1.2-0.3,1.6c0.4,9.7,1.5,19.5,0.8,29.3c-0.3,4.5,1,8.9,3.6,12.6
			c3.2,4.5,7.4,7.5,11.9,10.5c1.4,1,3.1,0.9,4.6,0.1c1.7-0.9,3.4-2,5.1-2.6c3.2-1.2,4-3.4,4-6.4c-0.1-7.6-0.3-15.4-0.3-23.1
			c0-4.9-0.4-9.8-1-14.8c-0.1-1.2-0.5-1.9-1.9-1.9c-3.6-0.2-7.1-1.1-10.6-1.9C368.1,373.9,362.8,372.4,357.4,371.7z M261.7,374.4
			c-1-0.3-1.4-0.1-2,0c-5.1,1.2-10.3,2.4-15.4,3.6c-2.3,0.5-4.5,1.3-6.7,2.2c-1.9,0.8-2.7,2.1-3,4.2c-0.8,12-1.6,24-2.5,36.1
			c-0.1,1.6-0.3,3.4,0,5.1c0.4,0,0.8,0,1.1-0.1c8.7-1.2,17.2-3.9,25.4-7.1c1.9-0.7,2.5-1.7,2.6-3.7c0.5-12,0.3-23.9,0.3-36
			C261.7,377.3,261.7,375.8,261.7,374.4z M386.1,499.9c0-3.5,0-6.9,0-10.4c0-3.3-0.4-3.8-3.7-4.3c-2.3-0.3-4.5-0.7-6.7-1.5
			c-3.2-1.2-6-0.7-8.6,1.1c-2,1.3-3.8,3-6,4c-0.9,0.4-0.9,1.1-0.9,1.9c-0.2,7.6,0.8,15.3,0.5,22.9c0,0.2,0,0.4,0,0.7
			c0.4,3.3,2,4.6,5.2,4.4c0.9,0,1.6-0.2,2.4-0.4c5-1.4,9.9-2.8,15-4.2c1.7-0.4,2.6-1.4,2.6-3.4C386,507.1,386.1,503.5,386.1,499.9z
			 M232,529.9c0,4.8,0,9.3,0,13.7c0,3.7,1.1,5.2,4.6,6.6c2.1,0.8,4.3,1.4,6,2.7c5.4,3.6,10.5,3.6,15.6-0.7c1.2-1,1.9-2,1.9-3.4
			c-0.1-6.6-0.1-13-0.1-19.6c0-1.4-0.7-2.1-2.1-2.3c-2.6-0.3-5.1-0.9-7.8-1.4c-5.7-1.1-11-1-15.7,3.1c-0.1,0.1-0.3,0.1-0.7,0.1
			c-0.3-1.2-0.9-2.2-2.3-1.9c-4.2,0.9-8,2.7-11.7,4.8c-0.8,0.4-1,1.1-0.7,2c0.3,0.8,1,1.2,1.7,1.1c0.8-0.1,1.5-0.3,2.2-0.5
			C226.2,533,229,531.5,232,529.9z M361,569.9h0.1c0,3.3,0,6.6,0,9.7c0,1.5,0.5,2.6,2.1,3.3c6.2,2.7,12.2,6.2,17.9,10.1
			c1.4,1,2.8,1,4.3,0.1c0.5-0.3,1.2-0.8,1.9-1c1.6-0.4,1.9-1.5,1.9-3.1c-0.3-5.6-0.7-11.1-0.9-16.8c-0.1-1.5-0.8-2.5-2.1-3.3
			c-5.5-3.2-10.8-6.6-15.8-10.3c-2.4-1.9-4.7-1.9-7.4-1c-1.3,0.4-1.9,1.2-1.7,2.6C361.1,563.5,361,566.7,361,569.9z M233.1,576.1
			c-0.1,0.3-0.2,0.5-0.2,0.9c0,4.5,0,8.9,0,13.3c0,1.2,0.5,2.1,1.3,3c6.9,7.8,14.2,15,21.9,21.9c0.9,0.8,1.9,1.4,3.2,1.5
			c1.3,0.1,2-0.3,2-1.7c0-1.2-0.1-2.3-0.1-3.5c0-7.4-0.5-14.8-0.1-22.2c0.2-3.4-1.1-5.1-4.2-5.8c-6.7-1.3-12.8-3.9-19.2-5.9
			C236.1,576.9,234.7,576.2,233.1,576.1z M231.6,491.3c1,0.2,1.5-0.4,2.2-0.9c7.9-4.6,15.6-9.3,24-12.7c1-0.4,1.5-1.1,1.7-2.1
			c0.8-3.1,0.8-6.1,0.2-9.3c-0.2-1.3-1.1-2-2.3-2.4c-4.2-1.4-8.4-2.8-12.6-4.4c-1.2-0.4-2.3-0.4-3.5-0.1c-3,0.9-5.7,2.1-8.3,3.6
			c-1.5,0.9-2.2,2.1-2.1,3.9c0.1,7.4,0,14.9,0,22.2C231.2,490,231,490.6,231.6,491.3z M386.7,448c0.1-1.3,0.1-2.6,0.2-3.9
			c0.1-1.4-0.4-2.6-1.2-3.6c-3.4-4.4-9-6.1-14.3-4.6c-1.7,0.5-3.5,1.3-5.1,2.2c-6.3,3.3-7.8,6.2-7,13.4c0.2,1.5,0.8,2.5,2.2,3.3
			c7.2,3.7,14.4,7.5,21.7,11.4c2.5,1.3,3.4,0.8,3.4-2.1C386.2,458.6,386.7,453.4,386.7,448z M386.9,540.1c0-2.3,0-4.2,0-5.9
			c0.1-2-0.8-3.3-2.7-3.9c-4.7-1.5-9.4-3.2-14.2-4.8c-2.4-0.8-4.7-0.8-7.1,0.1c-1.4,0.4-2,1.2-1.9,2.7c0.1,3.7,0.4,7.5-0.1,11.1
			c-0.9,6.7,7.4,12.5,12.7,10.8c3.6-1.1,7.4-1.7,11.1-2.3c1.7-0.2,2.5-1.3,2.4-3.1C387,543.3,386.9,541.5,386.9,540.1z M391.2,621.2
			c-0.4-5.4-0.8-10.5-1.2-15.5c-0.1-0.8-0.5-1.1-1.1-1.3c-2-1.1-3.9-2.1-5.8-3.2c-1-0.5-2.1-0.5-3.2-0.2c-5.7,1.7-11.4,3.5-17,5.2
			c-1.6,0.4-2.4,1.3-2.3,3.1c0.1,3.2,0.1,6.3,0.1,9.5c0,1.5,0.5,1.9,2,1.9c5,0.1,10.1,0.3,15.1,0.5
			C382.2,621.3,386.5,621.6,391.2,621.2z M259.9,483c-0.7,0.2-0.9,0.2-1.2,0.3c-8.9,3.7-16.9,8.6-25.1,13.7
			c-0.9,0.5-1.4,1.2-1.9,2.2c-1.2,2.8-0.1,4.6,2.8,4.6c0.8,0,1.5,0,2.3,0c7.2-0.2,14.3-0.8,21.3-3c0.8-0.2,1.7-0.3,1.7-1.4
			C259.9,494,259.9,488.6,259.9,483z M235,570.2c8.3,3.2,16.5,6.3,25.4,8.6c0-2.8,0-5.4,0-7.9c-0.1-6.9,1.2-5.2-5.8-7.4
			c-3.1-1-6-0.7-8.6,1.3c-1.9,1.4-4,2.3-6.2,3.3C238,568.8,236.5,569.4,235,570.2z M231.2,436c0,3.9,0,7.5,0,11.1c0,1.7,1,3,2.7,3.5
			c2.1,0.7,4.2,1.1,6.2,1.6c1.3,0.3,2.4,0,3.6-0.7c3.7-1.9,7.5-3.8,11.3-5.7c0.4-0.2,1-0.2,1-1.1C247.9,442.3,239.8,439.3,231.2,436
			z M235.5,431.1c8,3.9,16.2,7.1,24.9,9.2c0-5.7,0-11.1,0-16.7C252.1,426.5,243.9,429.1,235.5,431.1z M254.6,508.3
			c-7.7,0.7-15.3,0.4-22.8,1c-0.5,3-0.3,5.7,0.1,8.6c-1.3-0.1-2.2-0.2-3.1-0.3c-1.5-0.2-3.1-0.3-4.6-0.1c-1.1,0.2-2.4,0.3-2.4,1.9
			c0,1.4,1.2,1.6,2.4,1.7c2,0.2,3.9,0.4,6,0.5c3,0.1,3.6-0.9,2.4-3.5c0.7-0.3,1.4-0.1,2.1,0c4.5,0.7,8.3-0.4,11.7-3.7
			C249,512.2,251.9,510.4,254.6,508.3z M359.8,460.3c0,4.3,0,8.2,0,12.1c0,0.9,0.4,1.7,1.2,2.1c2.7,1,5.7,2.6,8.5,2
			c3.7-0.9,6.4-3.7,9.8-6C372.7,466.8,366.5,463.2,359.8,460.3z M248.4,617c-5.6-5.2-10.7-10.3-15.8-15.1c0,4.7,0,9.8,0,14.9
			c0,1.2,0.5,1.7,1.7,1.7C238.9,618.5,243.5,618,248.4,617z M209.6,417.4c1.1,5.7,6.2,7.8,9.8,11.3c-3.6,1.2-7.5,0.7-10.2,3.4
			c1.9,1.6,4,2,7.8,1.3c3.8-0.7,7.7-2,11.9-0.9c-0.9-2,1-3.1,1-4.9c-3.3,0.1-6.1-0.9-8.6-2.6c-1.7-1.3-3.5-2.7-5.2-4
			C214.2,419.5,212.3,418.2,209.6,417.4z M260.5,446.8c4.8-1.7,9.1-0.3,13.4,0.9c2,0.5,4,0.8,6.1,0.8c1.2,0,2.5,0.2,2.7-1.4
			c0.2-1.5-1.1-1.6-2.2-1.9c-3.2-0.8-6.2-1.5-9.7-2.3c2.4-2.6,6.1-3.7,6.9-7.4c-2.8-0.3-4.8,1.2-6.9,2.4c-1.9,1.1-3.4,2.7-5.6,3.2
			C262.3,441.5,261.1,443.5,260.5,446.8z M282.4,305.7l-0.1,0.1c2.5,7.1,5,14.2,5.8,21.7c0,0.2,0.1,0.4,0.1,0.5
			c0.2,0.8,0.7,1.2,1.4,1.3c0.9,0.1,1-0.7,1.1-1.2c0.5-2,1.3-3.9,1.6-6C293.7,315,289.1,307.5,282.4,305.7z M398.9,480.3
			c1.4,0,2.2-1.2,1.3-2.4c-0.4-0.7-1.1-1.1-1.6-1.5c-2.4-1.9-4.2-4.2-5.6-6.9c-0.5-1.1-0.4-1.7,0.7-2.4c1.3-0.8,2.6-1.7,3.9-2.7
			c0.8-0.7,1-1.5,0.4-2.4c-0.5-0.9-1.3-0.9-2.2-0.4c-2.6,1.1-5.1,2.4-7.2,4.4c-1.7,1.6-2,2.8-0.8,4.9c2.1,3.7,5,6.6,8.6,8.7
			C397.1,479.9,398,480.3,398.9,480.3z M376.5,596.4c-5.1-3.3-9.7-6.3-15.2-8.2c0,4.3,0,8.3,0,12.7
			C366.4,599.5,371.1,598.1,376.5,596.4z M230.2,567.6c-3.4,0.3-3.9,0.1-6.6-1.9c-1-0.8-2.1-1.4-3.1-2.1c-0.7-0.4-1.5-0.3-2.1,0.3
			c-0.7,0.8-0.7,1.5-0.1,2.3c0.4,0.8,1.2,1.3,2,1.9c0.7,0.4,1.5,0.8,1.5,1.9c-1.3,0.8-2.7,1.5-4,2.4c-0.7,0.4-1.3,0.9-1,1.9
			c0.3,0.9,1.1,1,1.9,1c1.3,0,2.6-0.3,3.8-0.9c2.4-1.2,4.9-2.2,7.9-1.5C229.6,571,229.6,569.3,230.2,567.6z M359,436.1
			c3.7-2,7.2-3.8,11-5.8c-3.7-3.2-7.2-6-11-9.2C359,426.4,359,431.1,359,436.1z M230.3,453.6c0-0.3,0-0.4,0-0.5
			c-4.9-4.3-10.8-6.7-17.3-7.4c-1-0.1-2.1,0.2-2.2,1.4c-0.2,1.2,0.8,1.7,1.6,2c3.5,1.1,7,2.2,10.5,3.2
			C225.3,452.9,227.8,453.5,230.3,453.6z M244.6,559.6c-4.3-2-8-3.6-11.9-5.5c-0.4,3.7-0.3,7,0.4,10.5
			C236.9,563.3,240.4,561.5,244.6,559.6z M392.8,603.1c-0.4,0-0.8,0.2-1,0.7c-0.4,0.8,0,1.3,0.4,1.9c3,4.2,6.4,7.8,10.7,10.5
			c0.8,0.4,1.5,1.3,2.4,0.4c0.9-1,0.3-1.9-0.3-2.7c-3.1-3.8-6.4-7.2-10.5-9.9C394,603.5,393.4,603.1,392.8,603.1z M273.7,497.9
			c-2.7-1.2-10.2,0.8-11.6,3c-0.3,0.4-0.5,0.9-0.2,1.3c0.9,1.2,0.5,2.3,0.1,3.5c-0.3,0.8-0.3,1.5,0.4,2.1c0.9,0.5,1.6,0.3,2.2-0.3
			C267.6,504.2,270.6,501,273.7,497.9z M391.2,517.4c5.1-1.2,9.8-3.8,14.6-6.4c0.5-0.3,0.7-1,0.4-1.6c-0.3-0.7-0.8-1.2-1.5-1.2
			c-0.9-0.1-1.6,0.2-2.4,0.5c-2.8,1.2-5.6,2.5-8.2,4c-1.3,0.8-2.5,1.6-3.7,2.6c-0.5,0.4-0.8,1-0.5,1.6
			C389.9,517.3,390.5,517.3,391.2,517.4z M360.5,486.2c-1.1-0.5-2.1-0.5-3.1-0.5c-4.2-0.1-8,1.2-11.8,3c-0.9,0.4-2,0.8-1.5,2.1
			c0.3,1.2,1.4,1.4,2.5,1.3c2.8-0.3,5.7-0.7,8.4-1.4C357.4,489.8,359.3,488.6,360.5,486.2z M402.3,576.8c0-0.2,0-0.3,0-0.4
			c-3.3-4.8-7.6-8.3-12.7-11.1c-0.9-0.4-1.7-0.4-2.4,0.4c-0.8,1-0.3,1.9,0.5,2.5c3.7,3.1,7.5,6.1,11.8,8.4
			C400.4,577,401.3,577.3,402.3,576.8z M343.2,574.5c2.2,4.5,12.7,10.7,16.6,9.9C358.2,580.1,347.4,573.6,343.2,574.5z M375.8,555.6
			c0,0.2-0.1,0.3-0.1,0.5c3.7,2.4,7.4,4.8,11.4,7.3c0-3.7,0-6.9,0-10.3C383.3,553.9,379.5,554.8,375.8,555.6z M343,607.6
			c4,2.2,16.4-0.9,17.8-4.5C355.7,601.6,345.1,604.2,343,607.6z M391,624.7c5.4,1.9,10.6,2.6,16.1,1.7c1-0.1,2-0.5,2-1.7
			c0-1.3-1.1-1.5-2.2-1.7c-4.4-0.8-8.6-0.5-13,0.1C392.9,623.3,392,623.5,391,624.7z M215,505.1c4.5-1.4,9-3.3,13-6.3
			c0.7-0.4,0.8-1.2,0.3-1.9c-0.5-0.8-1.3-0.7-2.1-0.4c-4.4,1.4-8.6,3.4-12.6,5.8c-0.7,0.4-1.2,1-0.9,1.9
			C213.1,504.8,213.8,505.1,215,505.1z M248.5,519.8c4,0.7,7.5,1.2,11.1,1.9c0-3.4,0-6.6,0-10.1C255.9,514.4,252.4,517,248.5,519.8z
			 M344.7,512.1c-1.2-0.1-1.9,0.2-2.1,1.1c-0.3,1,0.4,1.5,1.2,2c4.2,2.1,8.5,3.7,13.1,4.5c0.7,0.1,1.3,0.1,1.6-0.5
			c0.4-0.8-0.2-1.1-0.7-1.5C353.9,514.2,349.2,512.9,344.7,512.1z M345,529c4.8-0.7,9.3-1.7,13.6-3.8c0.5-0.2,0.9-0.7,0.8-1.3
			c-0.1-0.7-0.8-0.5-1.2-0.5c-4.8-0.3-9.4,0.5-13.9,2.1c-1,0.3-1.7,1-1.5,2.2C343.2,528.7,344,529,345,529z M274.5,631.6
			c-0.3-0.9-0.9-1.4-1.3-2c-2.7-3-5.9-5.4-9.4-7.4c-0.8-0.4-1.6-1.4-2.5-0.3c-0.9,1,0.1,1.9,0.5,2.6c2.2,3.1,5.4,5.2,8.5,7.1
			C271.6,632.4,273,632.3,274.5,631.6z M260.1,449.5c-3.7,1.9-7.1,3.5-10.6,5.2c0,0.2,0.1,0.3,0.1,0.5c3.4,1.2,6.9,2.3,10.5,3.6
			C260.1,455.8,260.1,452.8,260.1,449.5z M348.6,470.4c-1.3,0.1-2.2,0.1-2.4,1.1c-0.3,1,0.2,1.9,1.1,2.2c3.6,1.4,7.2,2.7,10.8,4
			c0.9,0.3,1.6,0,2.1-0.9c0.4-0.8,0.1-1.5-0.5-2C356.3,472.5,352.2,471.6,348.6,470.4z M277.4,411.1c-5.1,1.2-9.5,3-13.6,5.7
			c-0.8,0.5-1.6,1.3-1.1,2.4c0.5,1.2,1.7,1.1,2.7,0.8c3.6-1,6.6-3.2,9.4-5.6C275.7,413.6,276.7,412.8,277.4,411.1z M358.3,546.8
			c-1.7-4.9-5.2-8.4-9.1-11.6c-0.7-0.5-1.4-0.5-2.1,0.1c-0.7,0.5-0.8,1.4-0.3,2.1C349.8,541.6,353.3,545.2,358.3,546.8z
			 M263.8,461.9c-0.8-0.1-1.3,0.2-1.5,0.7c-0.3,0.7-0.2,1.2,0.3,1.7c3.2,2.8,6.9,4.8,11,6c0.7,0.2,1.2-0.1,1.6-0.7
			c0.4-0.4,0.1-0.9-0.2-1.3C271.9,465,267.9,463.3,263.8,461.9z M344.9,620.4c3.5,4.7,12.7,6.2,15.8,2.8
			C355.8,620.4,350.7,619.7,344.9,620.4z M216.1,621.8c4.5,2,9.1,2.7,13.8,1.6c0.7-0.1,1.3-0.7,1.2-1.4c0-0.9-0.8-1.2-1.5-1.5
			c-3.8-1.2-7.7-0.9-11.5-0.4C217.4,620.1,216.7,620.6,216.1,621.8z M229.4,550.6c-2.6-4.2-6-6.9-9.9-8.9c-0.3-0.1-0.7-0.2-1-0.2
			c-0.8-0.1-1.5,0-2,0.9c-0.3,0.8-0.1,1.4,0.5,2c2,1.6,3.8,3.2,6,4.4C225,549.8,226.9,550.5,229.4,550.6z M349.4,406.7
			c1,4.5,3.3,8.1,6.8,11c0.3,0.3,0.9,0.4,1.3,0.5c1.5,0.2,2.5-1.1,1.6-2.4C356.7,412.1,353.6,408.8,349.4,406.7z M359.1,555.6
			c-3.5-2.4-11.4-1.4-14,1.6C348.8,559.7,355.9,558.9,359.1,555.6z M261,562.3c3,4,6.4,6.1,10.8,6.9c0.5,0.1,1.1-0.1,1.6-0.3
			c1-0.4,1.2-1.4,0.3-2C270,564.3,266.2,562.1,261,562.3z M219.2,467.7c4.9,0,8.7-2.1,12.1-5c0.7-0.5,0.7-1.3,0.2-2.1
			c-0.5-0.8-1.2-0.8-2.1-0.4c-2.3,0.9-4.6,2-6.6,3.5C221.4,464.6,220.1,465.7,219.2,467.7z M396.5,445c0.9,0.1,1.4-0.1,1.7-0.7
			c0.3-0.7,0.2-1.2-0.2-1.7c-2.6-2.6-5.7-4.6-9.4-5.4c-1.2-0.2-1.9,0.5-1.1,1.5C389.7,442,392.9,444.1,396.5,445z M402.1,534
			c-3.3-3.7-7-5-11.1-5.7c-0.8-0.1-1.6-0.4-2,0.5c-0.4,0.9,0.1,1.6,0.8,2.2C393.2,533.5,397.1,534.5,402.1,534z M272,546.7
			c0-1.3-1.3-1.9-2.8-1.1c-2.7,1.3-4.9,3.2-6.9,5.6c-0.4,0.5-1.1,1.2-0.5,2.1c0.5,0.9,1.4,0.7,2.2,0.3c2.7-1.2,5.1-3,7.2-5.1
			C271.8,547.9,272,547.4,272,546.7z M230.8,596.5c-0.5-4.2-2.3-7.4-5.5-10.1c-0.4-0.4-1.1-0.7-1.7-0.5c-1.3,0.1-2.1,1-1.4,2.1
			C224.4,591.5,226.9,594.7,230.8,596.5z M261.6,582.2c3.3,3,6.8,4.7,10.9,5c0.3,0,0.7-0.1,1-0.2c0.7-0.3,1.2-0.8,1.1-1.5
			c0-0.7-0.4-1.2-1.1-1.4c-1.6-0.5-3.2-1.2-4.9-1.6C266.5,581.8,264.4,581.3,261.6,582.2z M261.4,523.5c3,2.6,6,3.5,9.4,3.6
			c0.9,0,1.6-0.1,2.4-0.5c0.5-0.3,1.1-0.8,1.1-1.4c0-0.8-0.5-1.1-1.1-1.3C269.5,522.4,265.7,522.3,261.4,523.5z M403,587.8
			c-4.2-0.4-7.5,0.8-10.6,3c-0.8,0.5-1.1,1.4-0.7,2.4c0.5,1.1,1.4,0.9,2.3,0.5c1.4-0.4,2.8-0.8,4-1.4
			C400.1,591.3,402,590.2,403,587.8z M263.4,619.3c3.8,1.9,7.2,1.3,10.6,0c0.8-0.3,1.1-1,1-1.9c-0.1-0.8-0.5-1.4-1.3-1.4
			C270,616.1,266.5,616.4,263.4,619.3z M387.1,550c2.7,1,8.1,0.5,10.2-0.8c0.7-0.4,1.3-0.9,1.2-1.7c-0.1-0.8-0.8-1.1-1.4-1.3
			C394.5,545.2,388.7,547.4,387.1,550z M388.4,424.3c4,0.5,7-1.3,9.8-3.4c0.5-0.3,0.8-1,0.4-1.6c-0.3-0.8-1-0.9-1.7-1
			C394.2,418.1,389.6,421.2,388.4,424.3z M221.4,503.5c1.6,2.6,7.1,5,9.6,4.4c0.7-0.2,1.2-0.4,1.3-1.1c0.2-0.7-0.1-1.3-0.7-1.6
			C228.6,503.4,225.2,502.4,221.4,503.5z M349.5,442.9c3,0.9,7.5-0.4,9.3-2.6c0.4-0.5,0.9-1.1,0.7-1.9c-0.2-0.7-0.8-1-1.4-1
			C355.6,437.2,350.5,440.5,349.5,442.9z M376.8,522.2c3.1,1.1,6.1,2.1,9.5,3.3c-0.1-2.3,0.4-4.2-0.7-6
			C382.6,519.8,379.7,520.7,376.8,522.2z M386.1,480c0-1.7,0-3.3,0-4.8c0-1.2-0.7-1.9-1.7-1.2c-2.3,1.3-4.5,2.7-7.2,4.5
			C380.4,479.3,383,480,386.1,480z M264.1,480.8c2.2-0.2,4.4-1.1,6.3-2.5c0.7-0.4,1-1.2,0.7-2c-0.3-0.9-1.1-1-1.9-0.9
			c-2.3,0.2-4.4,1.1-6.3,2.4c-0.8,0.5-1.2,1.1-0.9,2.1C262.4,480.8,263.2,480.8,264.1,480.8z M386.7,482.9c2.2,2.6,4.4,4.2,7.6,3.9
			c0.9-0.1,1.5-0.4,1.9-1.4c0.2-0.7,0-1.3-0.5-1.6C392.8,482.6,390,481.5,386.7,482.9z M381.1,430.9c1.9,1.1,3.4,2.3,5.6,3.1
			c-0.1-2.3,0.2-4.3-0.2-6.3C384.5,428.5,382.8,429.2,381.1,430.9z"/>
		<path d="M479.8,668.3c-0.2-3.2-0.4-6.1-0.5-9.1c-1.7-29.8-3.6-59.6-5.4-89.4c-0.9-14.2-0.9-28.4-1.3-42.6
			c-0.4-16.9-1.1-33.8-1.6-50.7c-0.1-5-0.1-10.2,0.1-15.2c0.2-3.5,0.2-6.9-0.1-10.4c-0.5-5.7,0.4-11.4,1.6-16.9
			c0.7-3.3,1.4-6.4,1.6-9.8c0-0.7,0.1-1.3,1-1.3c0.7,0.5,0.4,1.2,0.4,1.9c-1,24,2.1,47.6,5.8,71.4c1.6,10.4,1.9,20.9,2.7,31.3
			c1.7,18.6,3.5,37,5.2,55.6c2,21,4.5,41.9,7.2,62.7c0.5,4.5,1.1,9,1.7,13.3c0.2,1.4-0.1,2.1-1.4,2.7c-5.1,2.2-9.9,5.1-15.6,6.2
			C480.9,668.2,480.5,668.2,479.8,668.3z"/>
		<path d="M154.2,361.2c-3.1,18.9-3.7,37.9-4.8,56.9c-1.5-3.2-3.2-6.3-4.9-9.4c-0.5-1-0.4-2.2-0.2-3.3c0.7-3,1.4-5.9,2.1-9
			c-1.1,0.2-1.4,0.9-1.7,1.5c-3.5,5-4.7,10.4-2.7,16.3c2.2,6.4,4.5,12.8,5.5,19.6c1.1,7.1,0,14.1-0.2,21.1
			c-0.1,3.5-0.4,6.9-0.7,10.3c-0.7,0.1-0.8-0.2-0.9-0.5c-5.6-15-11.5-29.8-15.4-45.4c-2.7-10.6-3.1-21.2,0-31.8
			c1.4-5.2,2.3-10.7,3.5-16.1c0.3-1.7,1-3.3,1.6-4.9c1.7-3.7,4.5-5.9,8.5-6.3C147.3,360,150.6,360.4,154.2,361.2z M134.2,399.8
			c3.1-11.1,3.2-22.7,9.1-33C135.3,370,128.5,394.4,134.2,399.8z"/>
		<path d="M483.7,390.4c0,8.6-1.3,16.9-4.7,25c-1.6-4.7-1.6-42.8,0.2-51.7c2.3-0.1,4.4,0.7,6.2,2c2.1,1.5,3.7,3.7,4.4,6.2
			c1.7,7.5,4.8,14.6,7.4,21.9c3,8.1,3,16.2,0.3,24.4c-4.5,13.7-10.1,26.9-15.2,40.2c-0.1,0.3-0.3,0.5-0.7,1.2c-0.9-3-1-5.7-1.2-8.4
			c-1.1-14.1,0.9-27.9,4.8-41.4c1.7-6,1.6-11.7-0.4-17.5C484.6,391.6,484.6,390.9,483.7,390.4z M486,372c0,5.4,1.2,10.5,4.2,15
			C490.1,381.5,489.3,376.4,486,372z"/>
		<path d="M308.7,130.4c-7.9-0.2-15.5-3.5-20.8-11.3c-2-2.8-2.2-5.6-0.4-8.5c2.1-3.7,5-6.3,9.1-7.4c9-2.3,17.8-1.9,26.6,1.3
			c2.5,1,4.8,2.4,6.7,4.5c3.8,4.6,2.7,10.9-2.6,15.3C322.2,128.1,316.7,130.1,308.7,130.4z"/>
		<path d="M330,127.8c0.3,0.3,0.2,0.7,0.1,1c-1.6,5.1-3.5,10.2-6.4,14.9c-0.5,1-1.3,1.5-2.5,1.4c-8.4-1.2-16.9-1-25.5-0.7
			c-4.4,0.1-4.4,0.1-5.9-4c-2.1-5.8-3.4-11.7-4.2-17.7c0-0.3,0-0.8,0-1c1.5,1.3,3.1,2.7,4.5,4c4.6,4.4,9.7,7.8,16.1,9.1
			c8.3,1.7,15.5-0.9,22.2-5.8C328.9,128.5,329.4,127.9,330,127.8z"/>
		<path d="M219.7,321.9c-0.3,2.1-1.9,2.2-3.3,2.3c-6.7,1-13.3,1.9-19.9,3c-8.3,1.3-16.5,2.6-24.7,4.5c-1.6,0.3-3.4,0.7-5.1,0.4
			C173,323.3,205.8,317,219.7,321.9z"/>
	</g>
</g>
<g>
	<g>
		<path fill="#C4BA98" stroke="#000000" stroke-width="0.5" stroke-miterlimit="10" d="M489.8,695.7v-12.9h10.1v2.3h-7.8v3.4h4.2
			v2.4h-4.2v4L489.8,695.7z"/>
		<path fill="#C4BA98" stroke="#000000" stroke-width="0.5" stroke-miterlimit="10" d="M502.6,685.8c0-1.2,0.2-2,0.5-2.4
			c0.3-0.4,1-0.6,2-0.6h7.4c1,0,1.6,0.2,2,0.6s0.5,1.2,0.5,2.4v6.8c0,1.2-0.2,2-0.5,2.4c-0.3,0.4-1,0.6-2,0.6h-7.4
			c-1,0-1.6-0.2-2-0.6c-0.3-0.4-0.5-1.2-0.5-2.4V685.8z M505,693.3h7.7v-8.2H505V693.3z"/>
		<path fill="#C4BA98" stroke="#000000" stroke-width="0.5" stroke-miterlimit="10" d="M519.8,693.6v-10.9h8.6
			c0.8,0,1.4,0.2,1.7,0.6c0.4,0.4,0.5,1,0.5,1.9v3c0,0.9-0.2,1.5-0.5,1.9c-0.4,0.4-0.9,0.6-1.7,0.6h-1.3l4.6,4.9h-3.3l-4-4.9h-2.2
			v2.3L519.8,693.6z M527.4,685h-5.2v3.6h5.2c0.4,0,0.7-0.1,0.8-0.2c0.1-0.1,0.2-0.4,0.2-0.8V686c0-0.4-0.1-0.6-0.2-0.8
			C528,685.1,527.8,685,527.4,685z"/>
	</g>
	<g>
		<path fill="#C4BA98" stroke="#000000" stroke-width="0.5" stroke-miterlimit="10" d="M472.3,721.8c0.9-0.1,1.4,0.3,1.4,1.2v1.5
			h2.5c1,0,1.2,0.3,0.7,1h-3.2c0,1.7,0.1,2.5,0.3,2.5c0.5,0.1,0.8,0,1.2-0.2c1.1-0.2,1.6,0.2,1.5,1.2c-0.1,0.8-0.2,1.9-0.2,3.4
			c0.1,1.1-0.5,1.5-1.7,1.2c-1.4-0.5-2.8-0.5-4.2,0c-0.9,0.6-1.4,0.3-1.5-0.8c-0.1-1.1-0.3-2.3-0.7-3.7c0.1-0.9,0.7-1.2,1.8-0.8
			c0.9,0.1,1.4-0.1,1.4-0.7c0-1.2,0-2.4-0.2-3.5C471.3,722.4,471.5,721.7,472.3,721.8z M470.6,729.8c-0.1,1.4,0.1,2.1,0.7,2.2
			c2.6,0.3,3.7,0,3.5-1.2c0.2-1.6-0.8-2.2-3.2-1.8C471,729,470.6,729.3,470.6,729.8z M477.4,726c0.5,0,0.7,0,0.8-0.2
			c-0.1-1.2-0.2-2.4-0.2-3.5c-0.1-0.8,0.3-1.1,1.2-1c0.6,0,0.8,0.3,0.8,0.8c-0.1,1-0.1,2.2,0,3.5c3.7-0.6,5.5-0.6,5.4,0
			c0.2,0.3,0.2,0.5-0.2,0.5c-1.7,0.2-3.4,0.5-5.1,0.8c0.3,1,0.7,1.8,1,2.5c0.5-0.6,0.9-1.2,1.4-2c0.3-0.3,0.7-0.5,1-0.3
			c0.5,0.3,0.6,0.7,0.5,1.2c-0.7,0.9-1.3,1.6-1.8,2.2c1.2,1.2,3.2,1.8,6,1.7c0.2,0.1-0.1,0.7-1,1.7c-1.2,1.2-2.5,1.4-3.9,0.7
			c-0.6-0.5-1.4-1.3-2.7-2.5c-1.1,0.8-2.3,1.2-3.5,1.4c-0.6-0.1-0.7-0.3-0.3-0.7c1.1-0.3,2.1-1,3-2c-0.5-0.7-0.9-1.8-1.4-3.4
			c-0.6,0.1-1.1,0.3-1.5,0.5c-0.7,0.1-0.9-0.2-0.8-1C476.2,726.4,476.6,726.1,477.4,726z M482.8,722.1c0.3-0.8,0.8-1,1.4-0.7
			c0.6,0.3,0.7,0.8,0.5,1.4c-0.5,0.7-1.2,1.1-2.2,1.2c-0.5,0-0.6-0.2-0.5-0.5C482.3,723,482.5,722.6,482.8,722.1z"/>
		<path fill="#C4BA98" stroke="#000000" stroke-width="0.5" stroke-miterlimit="10" d="M496,726c0.6,0,0.9,0.2,1.2,0.5
			c-0.1,0.5-0.5,0.6-1.2,0.5c-0.7,0-1.4,0-2,0.2c0.2,0.3,0.1,0.7-0.3,1l-0.8,0.8c-0.3,0.5,0,0.7,0.8,0.8c0.7,0.1,1.2-0.1,1.7-0.7
			l-0.5-1c0.1-0.3,0.3-0.5,0.7-0.3c0.3,0.2,0.7,0.5,1,0.7c0.2,0.5,0.5,0.9,0.8,1.5c-0.1,0.2-0.2,0.3-0.3,0.3
			c-0.5,0.1-0.9-0.1-1.4-0.7c-0.7,1.2-1.4,1.7-2.2,1.4c-0.7-0.5-1.3-0.5-1.8-0.2c-0.2,0-0.5-0.2-0.7-0.5c-0.1-0.5,0.1-0.9,0.7-1.4
			c1-0.9,1.4-1.5,1-1.8c-0.5-0.1-1.1,0-2,0.3c-0.3,0.2-0.6,0.2-0.7-0.2c0.1-0.8,0.5-1.2,1.2-1.4L496,726L496,726z M496,723.6
			c0.3,0,0.6,0.2,0.7,0.5c0,0.3-0.1,0.5-0.3,0.5h-2.7c-0.8,0-1.5,0-2.2,0.2c-0.2-0.1-0.3-0.3-0.3-0.7c0.1-0.3,0.3-0.6,0.7-0.8
			C492.6,723.5,494,723.6,496,723.6z M500.4,728.3c-0.3-0.1-0.7-0.1-1,0c-0.3,0.2-0.7,0.4-1,0.5c-0.2,0-0.4,0-0.5-0.2
			c-0.2-1.7-0.5-3.2-0.7-4.5c-0.1-0.7,0.2-1,1-1c0.3,0.2,0.9,0.3,1.7,0.2c0.3-0.3,0.7-0.9,1.2-1.7c0.1-0.2,0.3-0.3,0.7-0.3
			c1,0.3,1.3,0.7,0.8,1.2c-0.3,0.3-0.6,0.6-0.8,0.8c0.8,0,1.8,0.1,3,0.3c0.3-0.1,0.6-0.2,0.8-0.3c0.3-0.1,0.6,0,0.8,0.2
			c0.5,0.3,0.6,0.8,0.3,1.5c-0.3,1-0.6,2.1-0.7,3.2l-0.5,0.3c0.5,0.3,0.5,0.6,0.2,0.8c-0.2,0.2-0.5,0.5-0.7,0.7
			c-0.2,0.1-0.2,0.3,0.2,0.5c0.5,0.1,0.8,0,1.2-0.2c-0.5-0.3-0.5-0.6-0.2-0.7c0.5,0,0.8,0,1,0.2c0.2,0.3,0.5,0.7,0.7,1
			c-0.1,0.1-0.3,0.2-0.5,0.3l-0.7-0.5c-0.2,0.7-0.6,0.9-1.2,0.8c-0.5-0.3-0.9-0.5-1.4-0.3c-0.3-0.2-0.5-0.5-0.3-0.8
			c0.2-0.2,0.5-0.5,0.7-0.8c0.1-0.2,0.3-0.6,0.5-1c-0.9-0.1-2-0.2-3.2-0.2c-0.8,2.6-2.3,4.4-4.5,5.5c-1.8,0.7-3.1,0.4-4-0.8
			c0-0.1,0.2-0.2,0.7-0.2C497.5,732.5,499.6,731,500.4,728.3z M500.9,724.1c-0.8,0-1.4,0.1-1.8,0.3c-0.2,0.7-0.1,1,0.3,1l1.8-0.2
			C501.4,724.7,501.3,724.3,500.9,724.1z M501.1,726.1c-0.6,0-1.2,0-2,0.2c0,0.8,0.2,1.2,0.5,1.2l1.2-0.2L501.1,726.1z M502.3,729.2
			c0.1-0.5,0.3-0.7,0.7-0.7c0.2,0,0.4,0.1,0.5,0.3c-0.2,0.5-0.4,0.9-0.5,1.4c0,0.5,0,0.8,0.2,1c0.5,0.6,1.4,0.9,2.7,1.2
			c1.1,0.1,2.2,0,3.2-0.3c0.7-0.3,1.1-0.4,1.4-0.2c-0.1,0.7-0.5,1.5-1.2,2.3c-0.8,0.7-1.5,0.9-2,0.7c-1.9-0.3-3.5-1.1-4.7-2.3
			c-0.6-0.7-0.8-1.3-0.7-1.8C502,730.1,502.2,729.6,502.3,729.2z M504.8,727.7c0.2-0.5,0.3-0.8,0.2-1.2c-0.5-0.2-1.3-0.3-2.5-0.3
			c-0.1,0.5-0.2,0.9-0.2,1.4C503.2,727.6,504,727.7,504.8,727.7z M502.6,725.3l1.8,0.2c0.5,0.1,0.7-0.1,0.7-0.7c0-0.5-0.7-0.7-2-0.7
			C502.8,724.2,502.6,724.6,502.6,725.3z"/>
		<path fill="#C4BA98" stroke="#000000" stroke-width="0.5" stroke-miterlimit="10" d="M517.4,725.1c0.2-0.5,0.4-0.7,0.5-0.7
			c0.6-0.1,0.7,0.3,0.5,1.2c-0.3,1-0.8,2.1-1.5,3.2c-0.6,0.9-1.1,1.6-1.7,2c-1.1,1-2.3,0.9-3.5-0.2c-0.3-0.3-0.2-0.7,0.3-1
			C513.9,728.8,515.7,727.3,517.4,725.1z M521.3,721.8c1.1-0.1,1.6,0.5,1.5,1.8c-0.1,2.8,0,6,0.2,9.4c0,1.4-1.1,2-3.2,1.8
			c-1.1-0.1-2.4-0.7-3.9-1.8c-0.2-0.6-0.1-0.8,0.3-0.8c2.1,0.7,3.4,0.8,3.9,0.3c0.3-0.2,0.5-3.4,0.3-9.4
			C520.4,722.2,520.7,721.8,521.3,721.8z M524,725.6c-0.3-0.5-0.3-0.8,0.2-1c0.2-0.1,0.5,0,0.7,0.2c1.6,2,3.9,3.7,7.1,5.2
			c-0.3,0.6-0.7,0.9-1,1.2c-1,0.9-2,0.9-2.9,0C526.5,729.4,525.2,727.5,524,725.6z"/>
		<path fill="#C4BA98" stroke="#000000" stroke-width="0.5" stroke-miterlimit="10" d="M540.6,728c-0.3,1.1-0.7,2-1,2.5l2.2-0.3
			c-0.1-0.5-0.2-0.9-0.2-1.4c0.1-0.5,0.5-0.7,1.2-0.8c0.5,0,0.8,0.1,1.2,0.3c0.5,0.1,0.8,0.1,1,0v-5.5c0-0.7,0.2-1.1,0.7-1.2
			c1.1,0,1.7,0.4,1.7,1.2c-0.1,0.6-0.2,1-0.2,1.4c2.3,0.1,4.3,0.2,5.9,0.2c0,0.6-0.2,1.1-0.5,1.5c-0.5,0.5-0.9,0.6-1.4,0.3
			c-1.8-0.6-3.1-0.7-4-0.5c-0.2,0.9-0.2,1.8,0,2.7c0.8,0.1,1.4,0,1.8-0.2c1.4-0.5,2.2,0,2.2,1.2c-0.2,0.9-0.3,2-0.3,3.4
			c0.2,1.4-0.3,2-1.5,1.5c-1.6-0.2-3.2-0.3-5.1-0.2c-1.4,0.7-2.1,0.3-2.2-1.2c0-0.3,0-0.9-0.2-1.8c-2.3,1-4.9,1.8-7.9,2.3
			c-1,0.2-1.5-0.2-1.4-1.2c0-0.6,0.6-0.9,1.7-1c1.2-0.1,2.6-0.3,4.2-0.5c0.3-1.2,0.5-2.4,0.5-3.5c0-0.8,0.2-1.2,0.7-1.2
			C540.7,726.1,541,726.8,540.6,728z M539.3,722.8c-0.1,1.4,0,2,0.3,1.8l2.3,0.2c0.6,0.5,0.6,0.8,0.2,1c-0.2,0.1-0.6,0.2-1.2,0.2
			c-2.3-0.5-4.5-0.3-6.9,0.5c-0.5,0.1-0.7,0-0.7-0.5c0.2-1,0.7-1.4,1.4-1.4c0.9,0.2,1.6,0.3,2,0.2c0.3-0.1,0.5-0.8,0.3-2
			c0.1-0.5,0.3-0.7,0.7-0.7C538.4,722,538.9,722.2,539.3,722.8z M537.6,730.2c-0.2,0.3-0.5,0.4-0.8,0.2c-0.7-1-1.1-1.9-1.2-2.7
			c-0.1-0.8,0.2-1.2,0.8-1.4c0.6-0.1,0.8,0.1,0.8,0.7C537.4,728.1,537.5,729.2,537.6,730.2z M547,729.5c-1.6-0.1-2.6,0-3,0.3
			c-0.3,0.8-0.3,1.6,0,2.3c0.1,0.6,1.4,0.7,3.7,0.5c1,0,1.5-0.6,1.5-1.7C549.2,729.9,548.5,729.4,547,729.5z"/>
	</g>
	
		<linearGradient id="SVGID_1_" gradientUnits="userSpaceOnUse" x1="418.7818" y1="216.3801" x2="418.7818" y2="216.3801" gradientTransform="matrix(1.0929 0 0 -1.0929 0 955.5428)">
		<stop  offset="0" style="stop-color:#C4BA98"/>
		<stop  offset="1.474962e-002" style="stop-color:#CEC5A9"/>
		<stop  offset="4.332456e-002" style="stop-color:#DDD7C4"/>
		<stop  offset="7.615717e-002" style="stop-color:#EAE6DA"/>
		<stop  offset="0.1145" style="stop-color:#F3F1EB"/>
		<stop  offset="0.162" style="stop-color:#FAF9F6"/>
		<stop  offset="0.2285" style="stop-color:#FEFEFD"/>
		<stop  offset="0.4133" style="stop-color:#FFFFFF"/>
		<stop  offset="0.4696" style="stop-color:#DDDBD8"/>
		<stop  offset="0.5499" style="stop-color:#B2AFA6"/>
		<stop  offset="0.6258" style="stop-color:#908B7F"/>
		<stop  offset="0.6952" style="stop-color:#787263"/>
		<stop  offset="0.7558" style="stop-color:#696252"/>
		<stop  offset="0.801" style="stop-color:#645D4C"/>
		<stop  offset="0.8499" style="stop-color:#776F5B"/>
		<stop  offset="0.9484" style="stop-color:#A89F82"/>
		<stop  offset="1" style="stop-color:#C4BA98"/>
	</linearGradient>
	
		<linearGradient id="SVGID_2_" gradientUnits="userSpaceOnUse" x1="418.7818" y1="216.3801" x2="418.7818" y2="216.3801" gradientTransform="matrix(1.0929 0 0 -1.0929 0 955.5428)">
		<stop  offset="0" style="stop-color:#C4BA98"/>
		<stop  offset="1.389108e-002" style="stop-color:#C7BD9D"/>
		<stop  offset="0.1655" style="stop-color:#E5E1D2"/>
		<stop  offset="0.2794" style="stop-color:#F8F7F3"/>
		<stop  offset="0.3418" style="stop-color:#FFFFFF"/>
		<stop  offset="0.4046" style="stop-color:#E1E0DC"/>
		<stop  offset="0.5083" style="stop-color:#B5B1A9"/>
		<stop  offset="0.6058" style="stop-color:#928D81"/>
		<stop  offset="0.6943" style="stop-color:#797364"/>
		<stop  offset="0.7708" style="stop-color:#696352"/>
		<stop  offset="0.8265" style="stop-color:#645D4C"/>
		<stop  offset="0.8691" style="stop-color:#776F5B"/>
		<stop  offset="0.955" style="stop-color:#A89F82"/>
		<stop  offset="1" style="stop-color:#C4BA98"/>
	</linearGradient>
	<path fill="url(#SVGID_1_)" stroke="url(#SVGID_2_)" stroke-width="0.5" stroke-miterlimit="10" d="M457.7,719.1"/>
	
		<linearGradient id="SVGID_3_" gradientUnits="userSpaceOnUse" x1="427.8093" y1="223.2158" x2="427.8093" y2="223.2158" gradientTransform="matrix(1.0929 0 0 -1.0929 0 955.5428)">
		<stop  offset="0" style="stop-color:#C4BA98"/>
		<stop  offset="1.474962e-002" style="stop-color:#CEC5A9"/>
		<stop  offset="4.332456e-002" style="stop-color:#DDD7C4"/>
		<stop  offset="7.615717e-002" style="stop-color:#EAE6DA"/>
		<stop  offset="0.1145" style="stop-color:#F3F1EB"/>
		<stop  offset="0.162" style="stop-color:#FAF9F6"/>
		<stop  offset="0.2285" style="stop-color:#FEFEFD"/>
		<stop  offset="0.4133" style="stop-color:#FFFFFF"/>
		<stop  offset="0.4696" style="stop-color:#DDDBD8"/>
		<stop  offset="0.5499" style="stop-color:#B2AFA6"/>
		<stop  offset="0.6258" style="stop-color:#908B7F"/>
		<stop  offset="0.6952" style="stop-color:#787263"/>
		<stop  offset="0.7558" style="stop-color:#696252"/>
		<stop  offset="0.801" style="stop-color:#645D4C"/>
		<stop  offset="0.8499" style="stop-color:#776F5B"/>
		<stop  offset="0.9484" style="stop-color:#A89F82"/>
		<stop  offset="1" style="stop-color:#C4BA98"/>
	</linearGradient>
	
		<linearGradient id="SVGID_4_" gradientUnits="userSpaceOnUse" x1="427.8093" y1="223.2158" x2="427.8093" y2="223.2158" gradientTransform="matrix(1.0929 0 0 -1.0929 0 955.5428)">
		<stop  offset="0" style="stop-color:#C4BA98"/>
		<stop  offset="1.389108e-002" style="stop-color:#C7BD9D"/>
		<stop  offset="0.1655" style="stop-color:#E5E1D2"/>
		<stop  offset="0.2794" style="stop-color:#F8F7F3"/>
		<stop  offset="0.3418" style="stop-color:#FFFFFF"/>
		<stop  offset="0.4046" style="stop-color:#E1E0DC"/>
		<stop  offset="0.5083" style="stop-color:#B5B1A9"/>
		<stop  offset="0.6058" style="stop-color:#928D81"/>
		<stop  offset="0.6943" style="stop-color:#797364"/>
		<stop  offset="0.7708" style="stop-color:#696352"/>
		<stop  offset="0.8265" style="stop-color:#645D4C"/>
		<stop  offset="0.8691" style="stop-color:#776F5B"/>
		<stop  offset="0.955" style="stop-color:#A89F82"/>
		<stop  offset="1" style="stop-color:#C4BA98"/>
	</linearGradient>
	<path fill="url(#SVGID_3_)" stroke="url(#SVGID_4_)" stroke-width="0.5" stroke-miterlimit="10" d="M467.5,711.6"/>
	<g>
		<g>
			<path fill="#C4BA98" stroke="#000000" stroke-width="0.5" stroke-miterlimit="10" d="M463.2,702.6h-6.5v5.1h3.5v3.5h-3.5v6.2
				l-1.9,0.9v-19h8.4V702.6"/>
			<path fill="#C4BA98" stroke="#000000" stroke-width="0.5" stroke-miterlimit="10" d="M465.6,715V714v-14.8h7.1
				c0.7,0,1.1,0.3,1.4,0.9c0.3,0.6,0.5,1.5,0.5,2.8v4.5c0,1.3-0.1,2.3-0.5,2.8c-0.3,0.6-0.8,0.9-1.4,0.9h-1.1l3.8,7.3h-2.8l-3.3-7.3
				h-1.8v2.4v1.1L465.6,715z M471.8,702.5h-4.4v5.4h4.3c0.3,0,0.6-0.1,0.7-0.3s0.2-0.6,0.2-1.2v-2.3c0-0.6-0.1-0.9-0.2-1.2
				C472.4,702.7,472.2,702.5,471.8,702.5z"/>
			<path fill="#C4BA98" stroke="#000000" stroke-width="0.5" stroke-miterlimit="10" d="M478.5,718.4v-19.2h1.9v19.2H478.5z"/>
			<path fill="#C4BA98" stroke="#000000" stroke-width="0.5" stroke-miterlimit="10" d="M484.7,718.4v-19.2h8.5v3.3h-6.6v4.3h3.8
				v3.3h-3.8v4.8h6.7v3.6L484.7,718.4L484.7,718.4z"/>
			<path fill="#C4BA98" stroke="#000000" stroke-width="0.5" stroke-miterlimit="10" d="M496.8,718.4v-19.2h1.3l5.9,11.3
				c0.2,0.4,0.4,0.7,0.5,1.1c0.1,0.3,0.3,0.7,0.4,1c0-1.1,0-1.8-0.1-2.3c0-0.5,0-0.8,0-1v-10.1h1.7v19.2h-1.3l-6.1-11.9
				c-0.1-0.3-0.3-0.6-0.4-0.8c-0.1-0.2-0.2-0.5-0.3-0.7c0,0.6,0,1.2,0,1.7c0,0.5,0,1,0,1.4v10.4H496.8L496.8,718.4z"/>
			<path fill="#C4BA98" stroke="#000000" stroke-width="0.5" stroke-miterlimit="10" d="M510.8,718.4v-19.2h5.4
				c1.5,0,2.7,0.8,3.5,2.5c0.8,1.7,1.2,4,1.2,7c0,1.8-0.2,3.4-0.5,4.8c-0.3,1.4-0.8,2.6-1.4,3.4c-0.4,0.5-0.8,0.9-1.4,1.1
				c-0.5,0.2-1.2,0.4-2.1,0.4L510.8,718.4L510.8,718.4z M512.8,714.8h2.5c1.3,0,2.3-0.5,2.8-1.4c0.5-0.9,0.8-2.5,0.8-4.7
				c0-2-0.2-3.5-0.7-4.5c-0.5-1-1.1-1.5-2-1.5h-3.4L512.8,714.8L512.8,714.8z"/>
			<path fill="#C4BA98" stroke="#000000" stroke-width="0.5" stroke-miterlimit="10" d="M531.7,702.6h-5.5v4.1h5.2
				c0.8,0,1.4,0.3,1.6,1c0.3,0.6,0.4,1.8,0.4,3.6v2.7c0,1.8-0.1,2.9-0.4,3.6c-0.3,0.6-0.8,1-1.6,1h-5.1c-0.8,0-1.4-0.3-1.6-1
				c-0.3-0.6-0.4-1.8-0.4-3.6v-0.5l1.7-0.8v2.3h5.9v-4.4h-5.2c-0.8,0-1.4-0.3-1.6-1c-0.3-0.6-0.4-1.8-0.4-3.6v-2.1
				c0-1.8,0.1-2.9,0.4-3.6c0.3-0.6,0.8-1,1.6-1h4.7c0.8,0,1.3,0.3,1.6,0.9c0.3,0.6,0.5,1.7,0.5,3.3v0.4l-1.7,0.9V702.6L531.7,702.6z
				"/>
			<path fill="#C4BA98" stroke="#000000" stroke-width="0.5" stroke-miterlimit="10" d="M545.5,715.6v-5.4h-6v7.6l-1.9,0.7v-19.2
				h1.9v7.5h6v-7.5h1.9v15.7L545.5,715.6z"/>
			<path fill="#C4BA98" stroke="#000000" stroke-width="0.5" stroke-miterlimit="10" d="M551.7,718.4v-19.2h1.9v19.2H551.7z"/>
			<path fill="#C4BA98" stroke="#000000" stroke-width="0.5" stroke-miterlimit="10" d="M557.9,718.4v-19.2h7.1
				c0.7,0,1.1,0.3,1.4,0.9c0.3,0.6,0.5,1.5,0.5,2.8v4.3c0,1.3-0.1,2.2-0.5,2.8c-0.3,0.6-0.8,0.9-1.4,0.9h-5.2v6.6L557.9,718.4z
				 M564.1,702.5h-4.4v5.1h4.3c0.3,0,0.6-0.1,0.7-0.3c0.1-0.2,0.2-0.6,0.2-1.2v-2.1c0-0.6-0.1-0.9-0.2-1.2
				C564.7,702.7,564.5,702.5,564.1,702.5z"/>
		</g>
	</g>
</g>
</svg>
