<?xml version="1.0" encoding="utf-8"?>
<!-- Generator: Adobe Illustrator 18.1.1, SVG Export Plug-In . SVG Version: 6.00 Build 0)  -->
<svg version="1.1" id="图层_1" xmlns="http://www.w3.org/2000/svg" xmlns:xlink="http://www.w3.org/1999/xlink" x="0px" y="0px"
	 viewBox="0 0 560 560" enable-background="new 0 0 560 560" xml:space="preserve">
	 <style type="text/css">
	.st0{fill:#FFFFFF;}
</style>
<g>
	<g>
		<path class="st0" d="M149,168.2c-0.9,1.4-2,1.5-3.2,1.6c-3.6,0.4-4.7,1.7-4.1,5.3c0.8,5,1.5,10,1.1,15.1c-0.1,1.3,0.5,1.9,1.7,2.3
			c5,1.6,10.2,2,15.3,2.7c13.8,2,27.7,2.2,41.5,1.8c12-0.4,24.1-0.2,36.1,0.6c2.8,0.2,5.7,0.4,8.5,0.6c1-3.7-0.1-5.4-4.1-6.3
			c-12.8-2.9-25.7-5.3-38.7-7.3c-14.8-2.3-29.7-4.5-44.5-6.9c-2.8-0.4-5.6-1.2-8.3-1.9c-1-0.2-2.1-0.5-2.5-2.1
			c0.1,0,0.3-0.3,0.6-0.3c2.7,0,2.3-2,2.4-3.7c1.1-17.9,5.4-34.9,15.2-50.2c0.4-0.6,1-1.2,0.3-2c-0.5-0.5-0.1-1.1,0.3-1.5
			c13.7-16.9,28.6-32.6,47.4-44c20.5-12.5,42.8-18.5,66.7-18.3c9.4,0.1,18.7,0.7,27.8,3.7c8.1,2.7,15.8,6.7,23.5,10.2
			c10.1,4.7,19.9,9.7,28.8,16.4c21.4,16.1,37.7,36.3,49.8,60.1c2.6,5.1,4.9,10.3,6.9,15.6c0.9,2.6,1.5,2.9,4.3,2.7
			c5.6-0.5,11.2-0.6,17.1-0.5c-0.7,1.5-0.1,2.6,0.5,3.8c3.6,6.5,6.2,13.3,5.6,21c0,0.2,0,0.4,0,0.6c-0.3,3.4-0.9,4-4.4,4.2
			c0.3,8.2-4.3,14.3-9.1,20.5c2.9,1.7,4.4-1.2,6.5-1.7c0.8,2.2,0.8,4.4,0.8,6.6c0,3,0.5,3.7,3.5,4.5c2.4,0.6,3.5,2,3.9,4.8
			c0.5,4.5-0.4,8.7-2.3,12.7c-0.8,1.6-1.7,3.1-2.5,4.7c-0.9,1.7-1.9,2.8-4.2,2.4c-1.6-0.3-1.8,1.3-2,2.5c-0.8,4.5-1.5,9.1-2.5,13.6
			c-2.2,10.6-5.1,21.1-6.8,31.8c-2.7,17.1-6.1,34-7.7,51.3c-1,10.5-2.7,21-3.1,31.6c-0.1,1.4-0.4,2.8,0.7,4.6
			c2.7-13.3,7.3-25.5,10.8-38.6c0.2,0.8,0.4,1.2,0.4,1.5c0.9,11.6,1.7,23.2,1.5,34.9c-0.3,14.8,0.2,29.6,0.7,44.5
			c0.3,9.1,0.4,18.2,0.7,27.4c0.5,17.9,0.1,35.7,0.8,53.6c0.3,8.3,0.7,16.6,1.1,24.9c0.1,1.6-0.4,2.2-2,2.5
			c-5.3,1-10.7,1.4-16.1,1.5c-9.3,0.1-18.6-0.2-27.9,0.7c-9,0.8-17.5,3.4-25.8,7c-1.7,0.7-2.6,1.9-3,3.6c-0.4,1.5-1,2.8-3.1,3.8
			c1.3-19.2,2.6-37.9,3.8-56.9c-2.5-0.1-5-0.3-7.4-0.4c-6.3-0.2-12.5-0.5-18.8-1.1c-1.5-0.1-1.6,0.6-1.7,1.7
			c-0.4,5.6-0.5,11.3-0.6,16.9c-0.1,6.6-0.1,13.2-0.2,19.8c-0.1,3.7-2.7,6.6-6.3,7.1c-13.8,2.1-27.6,2.8-41.5,2
			c-12.9-0.7-25.4,1.6-37.5,6c-1.1,0.4-2.1,1-3.5,0.9c0.1-2.6,0.3-5.3,0.1-7.9c-0.6-13.3-0.6-26.6-0.9-39.9c0-0.9-0.1-1.9-0.1-2.8
			c-0.1-4.1-3.6-7.4-7.6-7c-5.9,0.5-11.8,1.6-17.8,1.7c-1.3,0-1.1,1-1.2,1.8c-0.5,5.6-0.8,11.1-1.3,16.7c-0.7,8.4-1.8,16.7-3.7,25
			c-0.7,3.2-2.3,4.7-5.5,5.3c-9.4,1.8-18.7,1.2-28-0.4c-9.2-1.6-18.3-3.6-27.6-4.4c-0.3,0-0.6-0.1-1-0.3c0.4-3.4,0.8-6.7,1.2-10
			c2.1-15.2,2.9-30.5,3-45.9c0.1-17.9,0.3-35.9,0.9-53.8c0.6-18.3,1.9-36.6,3.9-54.8c1-9.1,0.9-18.3,0.9-27.5c0-3.1-0.4-3.9-1.8-5.4
			c-0.5,4.5-1,8.8-1.5,13.1c-2.8,24.9-5,49.9-7.1,74.9c-1.8,21.6-3.6,43.2-5.5,64.8c-1.3,14.5-2.8,29-4.2,43.5
			c-0.1,1.2-0.5,1.9-1.9,2.1c-3.4,0.7-6.7,1.8-9.9,3.2c-0.4,0.2-0.8,0.5-1.4,0.2c0.2-2.4,0.9-4.8,1.4-7.2
			c2.9-12.2,4.2-24.7,5.7-37.2c2.1-18.4,3.6-37,4.5-55.5c0.7-14.7,1.2-29.5,1.7-44.2c0.7-19.5,1.8-39,3.2-58.4
			c0.8-10.8,1.2-21.6,2-32.4c0.9-12,1.9-24,2.3-36c0.2-5.3,0-10.6,0.7-15.9c0.2-2-0.8-3.2-2.9-3.8c-2.6-0.7-5-1.8-6.9-3.8
			c-4.2-4.6-4.5-11.3-0.5-16.6c1.3-1.7,1.7-3.4,1-5.5c-0.4-1.1-0.6-2.3-0.8-3.5c-0.7-4.1,0.4-7.6,4.2-9.8c1.6-1,2.1-2.3,2.2-4.1
			c0.7-8.3,0-16.4-2.1-24.5c-0.5-1.9-0.7-3.7-0.7-5.6c0.1-3.3,1.3-4.8,4.5-5.7C144.2,166.4,146.6,166.8,149,168.2z M244.5,190.2
			c0.3-1.1,0.2-1.9-0.1-2.7c-1.2-3-1.1-3.2,1.5-5.2c0.5-0.4,1.1-0.9,1.6-1.4c2.1-1.8,3.2-1.9,5.7-0.6c4.9,2.4,9.9,3.1,15.1,1.1
			c1.6-0.6,3.2-1.3,4.8-1.9c5.5-2.2,8.9-0.9,11.1,4.6c0.8,1.8,1.6,2.1,3.4,1.5c39.1-12.3,79.1-19.2,119.9-22.3
			c1.8-0.1,3.6-0.3,5.6-0.5c-4.7-7.8-8.1-16-11.7-24c-3.6-8-8-15.5-13.3-22.6c-0.7-0.9-1.5-1.8-2.2-2.7c4.6,9.3,10.5,18,14.3,27.7
			c-0.6-0.4-1.1-0.9-1.6-1.4c-5-5.6-9.4-11.6-13.9-17.6c-5.5-7.3-10.9-14.6-17.4-21.1c-0.7-0.7-1.3-1.3-2-2
			c-0.6-0.6-1.1-1.3-2.1-1.5c5.6,7,11.3,13.9,15.3,22.1c-2.4-1.1-4.7-2.5-7-3.8c-5.5-3.2-10.3-7-14.3-12.1c-2.5-3.2-5.7-6-8.8-8.7
			c-1.5-1.4-3.3-2.5-5.8-3.3c5.5,6.1,11,11.5,15.7,18.3c-3.9-0.9-7.3-1.7-10.8-2.5c-1.2-0.3-2.1-0.9-2.8-1.8
			c-7.4-9.4-16.1-17.5-25.2-25.3c-0.5-0.4-0.9-1-2.3-1.1c8.2,8.9,17.3,16.4,23.8,26.7c-1.4-0.2-2.4-0.3-3.3-0.4
			c-2.1-0.2-4.1-0.6-6.2-0.7c-7.4-0.5-7.5-0.6-9.6-7.8c-0.8-2.6-2-5-4.2-6.9c1.1,4.5,2.1,9.1,3.2,13.8c-6.6-0.4-12.9-0.1-19.2,0.1
			c-1.5,0.1-1.8-0.5-1.9-1.9c-0.1-2.8-0.2-5.7-0.4-8.5c-0.2-2.1-0.3-4.2-1.3-6.1c-0.1,3.9-0.1,7.8-0.1,11.6c0,5,0,5-4.9,5.9
			c-3.6,0.6-7.2,1.2-11,1.9c-0.6-7.6,0.5-14.9-0.2-22.2c-1.8,7.3-1.7,14.8-1.9,22.4c-5.4-0.8-10.5-1.6-15.9-2.5
			c0.7-6.7,3.4-12.7,5.5-18.8c-0.5,0.4-0.9,0.9-1.3,1.5c-3.1,4.8-5.1,10.1-7.1,15.3c-0.5,1.3-1.1,1.6-2.4,1.4
			c-1.8-0.4-3.6-0.6-5.5-0.8c-3.2-0.3-6.4-0.5-9.7-0.7c3.3-11.4,11.3-19.4,18.9-28c-1.8,0.5-1.9,0.6-3.6,2
			c-8,6.7-13.6,15.2-18.3,24.3c-0.8,1.5-1.7,2.1-3.2,2.1c-3.2,0.1-6.3,0.6-9.4,1.1c-1.9,0.3-3.8,0.6-6.3,1
			c7.9-10.2,15.2-20.1,24.4-28.4c-0.3-0.1-0.5,0-0.6,0.1c-0.4,0.3-0.8,0.6-1.2,0.9c-9.4,7.3-17.9,15.5-25.1,25
			c-4.2,5.5-10.4,7-16.7,9.6c6.4-10.7,13.8-20.1,21.4-29.3c-0.4,0-0.6,0.2-0.8,0.4c-0.9,0.8-1.7,1.5-2.5,2.3
			c-7.6,7.9-14.8,16-20.8,25.2c-4.2,6.3-11.1,8.7-16.7,13c1.7-7.8,5.9-14.4,9.8-21.2c-1.1,0.5-1.7,1.3-2.3,2.2
			c-5.2,6.8-9.3,14.2-13.3,21.7c-1.7,3.2-4.2,5.7-7.2,8.5c1.1-5.4,1.8-10.4,3.5-15.2c-1.4,1.8-2.4,3.7-3.4,5.7
			c-2.2,4.8-3.4,9.8-4.5,14.9c-0.4,2-1.2,3.9-3.1,5.7c0.6-4.4,1.1-8.4,1.6-12.6c-0.9,0.2-1,0.9-1.2,1.3c-0.9,2-1.3,4.2-1.5,6.4
			c-0.7,6.6-1.7,13-4.6,19.1c-1.9,3.9-2.5,8.3-3.2,12.8C184.4,176.8,215.1,180.4,244.5,190.2z M436,243.2c0.9-0.7,1.2-1.4,1.6-2.1
			c2.2-3.9,3.5-8.2,4.5-12.5c0.8-3.1-0.1-4.2-3.1-5.2c-0.9-0.3-1.8-0.5-2.8-0.7c-6.4-1.4-12.9-2.8-19.3-4.1
			c-22.6-4.6-45.2-8.4-68.1-10.8c-13.2-1.4-26.5-2.5-39.7-3.7c-8.8-0.8-17.5-1.6-26.3-2.3c-3.5-0.3-3.7-0.1-3.1,3.3
			c0.9,4.9,1.8,9.7,2.7,14.6c0.4,2.1,0.8,4.1,1.1,6.2c0.7,4.5-2,8.9-5.7,9.4c-3.8,0.4-7.5-0.2-11.7-0.7c2.6-2,5.8-1.2,8-2.9
			c-0.6-1-1.5-1.1-2.3-1.1c-1.5,0-3,0-4.6,0.1c-4.2,0.3-8.1,1.9-12.1,3.3c-3.1,1.1-4.5,0.4-5.4-2.8c-1.2-4-2.1-8-1.9-12.1
			c0.1-1.5-0.1-2.9-0.1-4.4c0-1.5-0.6-2.2-2.2-2.3c-7.3-0.7-14.6-0.4-21.8-0.3c-0.6,0-1.3,0.2-2.1-0.3c1.2-0.4,2.2-0.8,3.1-1.1
			c6.3-2,12.8-3,19.3-4.4c3.6-0.8,3.6-0.8,3.2-4.7c-0.2-1.3-0.7-1.8-2.1-1.7c-12.4,0.5-24.8,1-37.2,1.2c-20.7,0.5-41.2,2.4-61.6,6.3
			c-2.1,0.4-4,1.2-5.6,2.6c-2.6,2.2-3.6,7.8-1.8,9.8c2.6-1.9,4.7-4.7,8-6c0.2,1.1-0.4,1.7-0.9,2.3c-2.6,3.1-5.3,6.2-7.9,9.3
			c-2.1,2.5-3.1,5.3-3.4,8.5c-0.3,3.8,0.8,4.7,4.3,3.3c8.4-3.2,17.1-5.6,25.9-7.5c18.5-4,37.3-6,56.2-6.5c6.8-0.2,13.6-0.5,20.3-0.2
			c1.1,0,1.9,0.2,1.9,1.7c0,3.5,1.4,6.5,3,9.5c2.5,4.6,5.1,5.6,10.1,3.8c2.1-0.8,4.2-1.4,6.5-1.4c4.8-0.1,9.4,1,14.1,1.9
			c3.8,0.7,6.6-0.4,8.6-3.6c1.1-1.8,1.9-3.7,2.4-5.8c0.6-3-0.1-5.9-0.8-8.8c0.3-0.1,0.5-0.2,0.7-0.2c9,0.9,18,1.7,27,2.8
			c5,0.6,9.9,1.9,14.9,1.5c11.4-1,22.9-1.5,34.4-1.6c4.5-0.1,9-0.5,13.5,0.3c1.2,0.2,2.4,0.3,3.4,1.5c-7.4,1-14.8,1-21.5,4.5
			c0.6,0.3,1.2,0.4,1.9,0.5c10.6,1.8,21.2,3.7,31.8,5.9c12.5,2.7,25,5.5,37.5,8.2c0.9,0.2,2,0.7,2.7-0.1
			C434.2,242.1,435,242.4,436,243.2z M310.7,200.3c5.3,0.4,10.6,0.8,15.9,1.2c2.3,0.2,4.5,0.3,6.8-0.2c22.2-4.6,44.7-7.6,67.3-9.4
			c11.4-0.9,22.9-1,34.3-2.1c6.3-0.6,6.3-0.7,5.4-7.1c-0.9-5.9-3.1-11.4-4.4-17.1c-0.5-2-1.4-2.2-3.2-2c-7.3,0.9-14.6,1.7-21.9,2.5
			c-22.6,2.4-45,5.9-67.3,10c-20.9,3.9-41.3,10.3-62.3,14c-0.9,0.2-1.6,0.6-1.8,1.5c-0.4,2.1-0.8,4.2-0.8,6.4c0,1,0.4,1.4,1.5,1.4
			c1.7-0.1,3.4-0.1,5.1,0.1c4.3,0.3,8.5-0.2,12.7-1.5c11.6-3.6,23.1-7.1,34.5-11.3c0.9-0.3,1.9-0.8,3.5-0.4
			C327.2,190.6,318.8,195,310.7,200.3z M327,257.8c-0.5,0.6-0.3,1.1-0.3,1.5c0.4,8.9,1.4,17.8,0.7,26.8c-0.3,4.1,0.9,8.1,3.3,11.5
			c2.9,4.1,6.8,6.9,10.9,9.6c1.3,0.9,2.8,0.8,4.2,0.1c1.6-0.8,3.1-1.8,4.7-2.4c2.9-1.1,3.7-3.1,3.7-5.9c-0.1-7-0.3-14.1-0.3-21.1
			c0-4.5-0.4-9-0.9-13.5c-0.1-1.1-0.5-1.7-1.7-1.7c-3.3-0.2-6.5-1-9.7-1.7C336.8,259.8,332,258.4,327,257.8z M239.5,260.2
			c-0.9-0.3-1.3-0.1-1.8,0c-4.7,1.1-9.4,2.2-14.1,3.3c-2.1,0.5-4.1,1.2-6.1,2c-1.7,0.7-2.5,1.9-2.7,3.8c-0.7,11-1.5,22-2.3,33
			c-0.1,1.5-0.3,3.1,0,4.7c0.4,0,0.7,0,1-0.1c8-1.1,15.7-3.6,23.2-6.5c1.7-0.6,2.3-1.6,2.4-3.4c0.5-11,0.3-21.9,0.3-32.9
			C239.5,262.9,239.5,261.5,239.5,260.2z M353.3,375.1c0-3.2,0-6.3,0-9.5c0-3-0.4-3.5-3.4-3.9c-2.1-0.3-4.1-0.6-6.1-1.4
			c-2.9-1.1-5.5-0.6-7.9,1c-1.8,1.2-3.5,2.7-5.5,3.7c-0.8,0.4-0.8,1-0.8,1.7c-0.2,7,0.7,14,0.5,21c0,0.2,0,0.4,0,0.6
			c0.4,3,1.8,4.2,4.8,4c0.8,0,1.5-0.2,2.2-0.4c4.6-1.3,9.1-2.6,13.7-3.8c1.6-0.4,2.4-1.3,2.4-3.1
			C353.2,381.7,353.3,378.4,353.3,375.1z M212.3,402.5c0,4.4,0,8.5,0,12.5c0,3.4,1,4.8,4.2,6c1.9,0.7,3.9,1.3,5.5,2.5
			c4.9,3.3,9.6,3.3,14.3-0.6c1.1-0.9,1.7-1.8,1.7-3.1c-0.1-6-0.1-11.9-0.1-17.9c0-1.3-0.6-1.9-1.9-2.1c-2.4-0.3-4.7-0.8-7.1-1.3
			c-5.2-1-10.1-0.9-14.4,2.8c-0.1,0.1-0.3,0.1-0.6,0.1c-0.3-1.1-0.8-2-2.1-1.7c-3.8,0.8-7.3,2.5-10.7,4.4c-0.7,0.4-0.9,1-0.6,1.8
			c0.3,0.7,0.9,1.1,1.6,1c0.7-0.1,1.4-0.3,2-0.5C207,405.4,209.5,404,212.3,402.5z M330.3,439.1c0,0,0.1,0,0.1,0c0,3,0,6,0,8.9
			c0,1.4,0.5,2.4,1.9,3c5.7,2.5,11.2,5.7,16.4,9.2c1.3,0.9,2.6,0.9,3.9,0.1c0.5-0.3,1.1-0.7,1.7-0.9c1.5-0.4,1.7-1.4,1.7-2.8
			c-0.3-5.1-0.6-10.2-0.8-15.4c-0.1-1.4-0.7-2.3-1.9-3c-5-2.9-9.9-6-14.5-9.4c-2.2-1.7-4.3-1.7-6.8-0.9c-1.2,0.4-1.7,1.1-1.6,2.4
			C330.4,433.3,330.3,436.2,330.3,439.1z M213.3,444.8c-0.1,0.3-0.2,0.5-0.2,0.8c0,4.1,0,8.1,0,12.2c0,1.1,0.5,1.9,1.2,2.7
			c6.3,7.1,13,13.7,20,20c0.8,0.7,1.7,1.3,2.9,1.4c1.2,0.1,1.8-0.3,1.8-1.6c0-1.1-0.1-2.1-0.1-3.2c0-6.8-0.5-13.5-0.1-20.3
			c0.2-3.1-1-4.7-3.8-5.3c-6.1-1.2-11.7-3.6-17.6-5.4C216,445.5,214.8,444.9,213.3,444.8z M211.9,367.2c0.9,0.2,1.4-0.4,2-0.8
			c7.2-4.2,14.3-8.5,22-11.6c0.9-0.4,1.4-1,1.6-1.9c0.7-2.8,0.7-5.6,0.2-8.5c-0.2-1.2-1-1.8-2.1-2.2c-3.8-1.3-7.7-2.6-11.5-4
			c-1.1-0.4-2.1-0.4-3.2-0.1c-2.7,0.8-5.2,1.9-7.6,3.3c-1.4,0.8-2,1.9-1.9,3.6c0.1,6.8,0,13.6,0,20.3
			C211.6,366,211.4,366.6,211.9,367.2z M353.8,327.6c0.1-1.2,0.1-2.4,0.2-3.6c0.1-1.3-0.4-2.4-1.1-3.3c-3.1-4-8.2-5.6-13.1-4.2
			c-1.6,0.5-3.2,1.2-4.7,2c-5.8,3-7.1,5.7-6.4,12.3c0.2,1.4,0.7,2.3,2,3c6.6,3.4,13.2,6.9,19.9,10.4c2.3,1.2,3.1,0.7,3.1-1.9
			C353.4,337.3,353.8,332.5,353.8,327.6z M354,411.9c0-2.1,0-3.8,0-5.4c0.1-1.8-0.7-3-2.5-3.6c-4.3-1.4-8.6-2.9-13-4.4
			c-2.2-0.7-4.3-0.7-6.5,0.1c-1.3,0.4-1.8,1.1-1.7,2.5c0.1,3.4,0.4,6.9-0.1,10.2c-0.8,6.1,6.8,11.4,11.6,9.9c3.3-1,6.8-1.6,10.2-2.1
			c1.6-0.2,2.3-1.2,2.2-2.8C354.1,414.8,354,413.1,354,411.9z M358,486.1c-0.4-4.9-0.7-9.6-1.1-14.2c-0.1-0.7-0.5-1-1-1.2
			c-1.8-1-3.6-1.9-5.3-2.9c-0.9-0.5-1.9-0.5-2.9-0.2c-5.2,1.6-10.4,3.2-15.6,4.8c-1.5,0.4-2.2,1.2-2.1,2.8c0.1,2.9,0.1,5.8,0.1,8.7
			c0,1.4,0.5,1.7,1.8,1.7c4.6,0.1,9.2,0.3,13.8,0.5C349.7,486.2,353.7,486.4,358,486.1z M237.8,359.6c-0.6,0.2-0.8,0.2-1.1,0.3
			c-8.1,3.4-15.5,7.9-23,12.5c-0.8,0.5-1.3,1.1-1.7,2c-1.1,2.6-0.1,4.2,2.6,4.2c0.7,0,1.4,0,2.1,0c6.6-0.2,13.1-0.7,19.5-2.7
			c0.7-0.2,1.6-0.3,1.6-1.3C237.8,369.7,237.8,364.7,237.8,359.6z M215,439.4c7.6,2.9,15.1,5.8,23.2,7.9c0-2.6,0-4.9,0-7.2
			c-0.1-6.3,1.1-4.8-5.3-6.8c-2.8-0.9-5.5-0.6-7.9,1.2c-1.7,1.3-3.7,2.1-5.7,3C217.8,438.1,216.4,438.7,215,439.4z M211.6,316.6
			c0,3.6,0,6.9,0,10.2c0,1.6,0.9,2.7,2.5,3.2c1.9,0.6,3.8,1,5.7,1.5c1.2,0.3,2.2,0,3.3-0.6c3.4-1.7,6.9-3.5,10.3-5.2
			c0.4-0.2,0.9-0.2,0.9-1C226.8,322.4,219.4,319.6,211.6,316.6z M215.5,312.1c7.3,3.6,14.8,6.5,22.8,8.4c0-5.2,0-10.2,0-15.3
			C230.7,307.9,223.2,310.3,215.5,312.1z M233,382.8c-7,0.6-14,0.4-20.9,0.9c-0.5,2.7-0.3,5.2,0.1,7.9c-1.2-0.1-2-0.2-2.8-0.3
			c-1.4-0.2-2.8-0.3-4.2-0.1c-1,0.2-2.2,0.3-2.2,1.7c0,1.3,1.1,1.5,2.2,1.6c1.8,0.2,3.6,0.4,5.5,0.5c2.7,0.1,3.3-0.8,2.2-3.2
			c0.6-0.3,1.3-0.1,1.9,0c4.1,0.6,7.6-0.4,10.7-3.4C227.8,386.3,230.5,384.7,233,382.8z M329.2,338.8c0,3.9,0,7.5,0,11.1
			c0,0.8,0.4,1.6,1.1,1.9c2.5,0.9,5.2,2.4,7.8,1.8c3.4-0.8,5.9-3.4,9-5.5C341,344.8,335.4,341.5,329.2,338.8z M227.3,482.2
			c-5.1-4.8-9.8-9.4-14.5-13.8c0,4.3,0,9,0,13.6c0,1.1,0.5,1.6,1.6,1.6C218.6,483.6,222.8,483.1,227.3,482.2z M191.8,299.6
			c1,5.2,5.7,7.1,9,10.3c-3.3,1.1-6.9,0.6-9.3,3.1c1.7,1.5,3.7,1.8,7.1,1.2c3.5-0.6,7-1.8,10.9-0.8c-0.8-1.8,0.9-2.8,0.9-4.5
			c-3,0.1-5.6-0.8-7.9-2.4c-1.6-1.2-3.2-2.5-4.8-3.7C196,301.5,194.3,300.3,191.8,299.6z M238.4,326.5c4.4-1.6,8.3-0.3,12.3,0.8
			c1.8,0.5,3.7,0.7,5.6,0.7c1.1,0,2.3,0.2,2.5-1.3c0.2-1.4-1-1.5-2-1.7c-2.9-0.7-5.7-1.4-8.9-2.1c2.2-2.4,5.6-3.4,6.3-6.8
			c-2.6-0.3-4.4,1.1-6.3,2.2c-1.7,1-3.1,2.5-5.1,2.9C240,321.6,238.9,323.5,238.4,326.5z M258.4,197.4c0,0-0.1,0.1-0.1,0.1
			c2.3,6.5,4.6,13,5.3,19.9c0,0.2,0.1,0.4,0.1,0.5c0.2,0.7,0.6,1.1,1.3,1.2c0.8,0.1,0.9-0.6,1-1.1c0.5-1.8,1.2-3.6,1.5-5.5
			C268.7,205.9,264.5,199,258.4,197.4z M365,357.1c1.3,0,2-1.1,1.2-2.2c-0.4-0.6-1-1-1.5-1.4c-2.2-1.7-3.8-3.8-5.1-6.3
			c-0.5-1-0.4-1.6,0.6-2.2c1.2-0.7,2.4-1.6,3.6-2.5c0.7-0.6,0.9-1.4,0.4-2.2c-0.5-0.8-1.2-0.8-2-0.4c-2.4,1-4.7,2.2-6.6,4
			c-1.6,1.5-1.8,2.6-0.7,4.5c1.9,3.4,4.6,6,7.9,8C363.4,356.8,364.2,357.1,365,357.1z M344.5,463.4c-4.7-3-8.9-5.8-13.9-7.5
			c0,3.9,0,7.6,0,11.6C335.3,466.2,339.6,464.9,344.5,463.4z M210.6,437c-3.1,0.3-3.6,0.1-6-1.7c-0.9-0.7-1.9-1.3-2.8-1.9
			c-0.6-0.4-1.4-0.3-1.9,0.3c-0.6,0.7-0.6,1.4-0.1,2.1c0.4,0.7,1.1,1.2,1.8,1.7c0.6,0.4,1.4,0.7,1.4,1.7c-1.2,0.7-2.5,1.4-3.7,2.2
			c-0.6,0.4-1.2,0.8-0.9,1.7c0.3,0.8,1,0.9,1.7,0.9c1.2,0,2.4-0.3,3.5-0.8c2.2-1.1,4.5-2,7.2-1.4C210.1,440.1,210.1,438.6,210.6,437
			z M328.5,316.7c3.4-1.8,6.6-3.5,10.1-5.3c-3.4-2.9-6.6-5.5-10.1-8.4C328.5,307.8,328.5,312.1,328.5,316.7z M210.7,332.7
			c0-0.3,0-0.4,0-0.5c-4.5-3.9-9.9-6.1-15.8-6.8c-0.9-0.1-1.9,0.2-2,1.3c-0.2,1.1,0.7,1.6,1.5,1.8c3.2,1,6.4,2,9.6,2.9
			C206.2,332.1,208.4,332.6,210.7,332.7z M223.8,429.7c-3.9-1.8-7.3-3.3-10.9-5c-0.4,3.4-0.3,6.4,0.4,9.6
			C216.8,433.1,220,431.4,223.8,429.7z M359.4,469.5c-0.4,0-0.7,0.2-0.9,0.6c-0.4,0.7,0,1.2,0.4,1.7c2.7,3.8,5.9,7.1,9.8,9.6
			c0.7,0.4,1.4,1.2,2.2,0.4c0.8-0.9,0.3-1.7-0.3-2.5c-2.8-3.5-5.9-6.6-9.6-9.1C360.5,469.9,360,469.5,359.4,469.5z M250.4,373.2
			c-2.5-1.1-9.3,0.7-10.6,2.7c-0.3,0.4-0.5,0.8-0.2,1.2c0.8,1.1,0.5,2.1,0.1,3.2c-0.3,0.7-0.3,1.4,0.4,1.9c0.8,0.5,1.5,0.3,2-0.3
			C244.9,379,247.6,376.1,250.4,373.2z M358,391.1c4.7-1.1,9-3.5,13.4-5.9c0.5-0.3,0.6-0.9,0.4-1.5c-0.3-0.6-0.7-1.1-1.4-1.1
			c-0.8-0.1-1.5,0.2-2.2,0.5c-2.6,1.1-5.1,2.3-7.5,3.7c-1.2,0.7-2.3,1.5-3.4,2.4c-0.5,0.4-0.7,0.9-0.5,1.5
			C356.8,391,357.3,391,358,391.1z M329.9,362.5c-1-0.5-1.9-0.5-2.8-0.5c-3.8-0.1-7.3,1.1-10.8,2.7c-0.8,0.4-1.8,0.7-1.4,1.9
			c0.3,1.1,1.3,1.3,2.3,1.2c2.6-0.3,5.2-0.6,7.7-1.3C327,365.8,328.8,364.7,329.9,362.5z M368.1,445.4c0-0.2,0-0.3,0-0.4
			c-3-4.4-7-7.6-11.6-10.2c-0.8-0.4-1.6-0.4-2.2,0.4c-0.7,0.9-0.3,1.7,0.5,2.3c3.4,2.8,6.9,5.6,10.8,7.7
			C366.4,445.6,367.2,445.9,368.1,445.4z M314,443.3c2,4.1,11.6,9.8,15.2,9.1C327.8,448.5,317.9,442.5,314,443.3z M343.9,426
			c0,0.2-0.1,0.3-0.1,0.5c3.4,2.2,6.8,4.4,10.4,6.7c0-3.4,0-6.3,0-9.4C350.7,424.5,347.3,425.3,343.9,426z M313.9,473.6
			c3.7,2,15-0.8,16.3-4.1C325.5,468.1,315.8,470.5,313.9,473.6z M357.8,489.3c4.9,1.7,9.7,2.4,14.7,1.6c0.9-0.1,1.8-0.5,1.8-1.6
			c0-1.2-1-1.4-2-1.6c-4-0.7-7.9-0.5-11.9,0.1C359.5,488,358.7,488.2,357.8,489.3z M196.7,379.8c4.1-1.3,8.2-3,11.9-5.8
			c0.6-0.4,0.7-1.1,0.3-1.7c-0.5-0.7-1.2-0.6-1.9-0.4c-4,1.3-7.9,3.1-11.5,5.3c-0.6,0.4-1.1,0.9-0.8,1.7
			C195,379.6,195.6,379.8,196.7,379.8z M227.4,393.3c3.7,0.6,6.9,1.1,10.2,1.7c0-3.1,0-6,0-9.2C234.2,388.3,231,390.7,227.4,393.3z
			 M315.4,386.2c-1.1-0.1-1.7,0.2-1.9,1c-0.3,0.9,0.4,1.4,1.1,1.8c3.8,1.9,7.8,3.4,12,4.1c0.6,0.1,1.2,0.1,1.5-0.5
			c0.4-0.7-0.2-1-0.6-1.4C323.8,388.2,319.5,387,315.4,386.2z M315.7,401.7c4.4-0.6,8.5-1.6,12.4-3.5c0.5-0.2,0.8-0.6,0.7-1.2
			c-0.1-0.6-0.7-0.5-1.1-0.5c-4.4-0.3-8.6,0.5-12.7,1.9c-0.9,0.3-1.6,0.9-1.4,2C314,401.4,314.8,401.7,315.7,401.7z M251.2,495.6
			c-0.3-0.8-0.8-1.3-1.2-1.8c-2.5-2.7-5.4-4.9-8.6-6.8c-0.7-0.4-1.5-1.3-2.3-0.3c-0.8,0.9,0.1,1.7,0.5,2.4c2,2.8,4.9,4.8,7.8,6.5
			C248.5,496.3,249.8,496.2,251.2,495.6z M238,329c-3.4,1.7-6.5,3.2-9.7,4.8c0,0.2,0.1,0.3,0.1,0.5c3.1,1.1,6.3,2.1,9.6,3.3
			C238,334.7,238,332,238,329z M319,348.1c-1.2,0.1-2,0.1-2.2,1c-0.3,0.9,0.2,1.7,1,2c3.3,1.3,6.6,2.5,9.9,3.7
			c0.8,0.3,1.5,0,1.9-0.8c0.4-0.7,0.1-1.4-0.5-1.8C326,350,322.3,349.2,319,348.1z M253.8,293.8c-4.7,1.1-8.7,2.7-12.4,5.2
			c-0.7,0.5-1.5,1.2-1,2.2c0.5,1.1,1.6,1,2.5,0.7c3.3-0.9,6-2.9,8.6-5.1C252.3,296.1,253.2,295.4,253.8,293.8z M327.9,418
			c-1.6-4.5-4.8-7.7-8.3-10.6c-0.6-0.5-1.3-0.5-1.9,0.1c-0.6,0.5-0.7,1.3-0.3,1.9C320.1,413.2,323.3,416.5,327.9,418z M241.4,340.3
			c-0.7-0.1-1.2,0.2-1.4,0.6c-0.3,0.6-0.2,1.1,0.3,1.6c2.9,2.6,6.3,4.4,10.1,5.5c0.6,0.2,1.1-0.1,1.5-0.6c0.4-0.4,0.1-0.8-0.2-1.2
			C248.8,343.1,245.1,341.6,241.4,340.3z M315.6,485.3c3.2,4.3,11.6,5.7,14.5,2.6C325.6,485.3,320.9,484.7,315.6,485.3z
			 M197.7,486.6c4.1,1.8,8.3,2.5,12.6,1.5c0.6-0.1,1.2-0.6,1.1-1.3c0-0.8-0.7-1.1-1.4-1.4c-3.5-1.1-7-0.8-10.5-0.4
			C198.9,485.1,198.3,485.5,197.7,486.6z M209.9,421.5c-2.4-3.8-5.5-6.3-9.1-8.1c-0.3-0.1-0.6-0.2-0.9-0.2c-0.7-0.1-1.4,0-1.8,0.8
			c-0.3,0.7-0.1,1.3,0.5,1.8c1.8,1.5,3.5,2.9,5.5,4C205.9,420.7,207.6,421.4,209.9,421.5z M319.7,289.8c0.9,4.1,3,7.4,6.2,10.1
			c0.3,0.3,0.8,0.4,1.2,0.5c1.4,0.2,2.3-1,1.5-2.2C326.4,294.7,323.6,291.7,319.7,289.8z M328.6,426c-3.2-2.2-10.4-1.3-12.8,1.5
			C319.2,429.8,325.7,429.1,328.6,426z M238.8,432.2c2.7,3.7,5.9,5.6,9.9,6.3c0.5,0.1,1-0.1,1.5-0.3c0.9-0.4,1.1-1.3,0.3-1.8
			C247.1,434,243.6,432,238.8,432.2z M200.6,345.6c4.5,0,8-1.9,11.1-4.6c0.6-0.5,0.6-1.2,0.2-1.9c-0.5-0.7-1.1-0.7-1.9-0.4
			c-2.1,0.8-4.2,1.8-6,3.2C202.6,342.8,201.4,343.8,200.6,345.6z M362.8,324.8c0.8,0.1,1.3-0.1,1.6-0.6c0.3-0.6,0.2-1.1-0.2-1.6
			c-2.4-2.4-5.2-4.2-8.6-4.9c-1.1-0.2-1.7,0.5-1,1.4C356.6,322.1,359.5,324,362.8,324.8z M367.9,406.3c-3-3.4-6.4-4.6-10.2-5.2
			c-0.7-0.1-1.5-0.4-1.8,0.5c-0.4,0.8,0.1,1.5,0.7,2C359.8,405.8,363.4,406.7,367.9,406.3z M248.9,417.9c0-1.2-1.2-1.7-2.6-1
			c-2.5,1.2-4.5,2.9-6.3,5.1c-0.4,0.5-1,1.1-0.5,1.9c0.5,0.8,1.3,0.6,2,0.3c2.5-1.1,4.7-2.7,6.6-4.7
			C248.7,419,248.9,418.5,248.9,417.9z M211.2,463.5c-0.5-3.8-2.1-6.8-5-9.2c-0.4-0.4-1-0.6-1.6-0.5c-1.2,0.1-1.9,0.9-1.3,1.9
			C205.3,458.9,207.6,461.8,211.2,463.5z M239.4,450.4c3,2.7,6.2,4.3,10,4.6c0.3,0,0.6-0.1,0.9-0.2c0.6-0.3,1.1-0.7,1-1.4
			c0-0.6-0.4-1.1-1-1.3c-1.5-0.5-2.9-1.1-4.5-1.5C243.9,450,241.9,449.6,239.4,450.4z M239.2,396.7c2.7,2.4,5.5,3.2,8.6,3.3
			c0.8,0,1.5-0.1,2.2-0.5c0.5-0.3,1-0.7,1-1.3c0-0.7-0.5-1-1-1.2C246.6,395.7,243.1,395.6,239.2,396.7z M368.8,455.5
			c-3.8-0.4-6.9,0.7-9.7,2.7c-0.7,0.5-1,1.3-0.6,2.2c0.5,1,1.3,0.8,2.1,0.5c1.3-0.4,2.6-0.7,3.7-1.3
			C366.1,458.7,367.8,457.7,368.8,455.5z M241,484.3c3.5,1.7,6.6,1.2,9.7,0c0.7-0.3,1-0.9,0.9-1.7c-0.1-0.7-0.5-1.3-1.2-1.3
			C247.1,481.4,243.9,481.7,241,484.3z M354.2,420.9c2.5,0.9,7.4,0.5,9.3-0.7c0.6-0.4,1.2-0.8,1.1-1.6c-0.1-0.7-0.7-1-1.3-1.2
			C361,416.5,355.7,418.5,354.2,420.9z M355.4,305.9c3.7,0.5,6.4-1.2,9-3.1c0.5-0.3,0.7-0.9,0.4-1.5c-0.3-0.7-0.9-0.8-1.6-0.9
			C360.7,300.2,356.5,303.1,355.4,305.9z M202.6,378.4c1.5,2.4,6.5,4.6,8.8,4c0.6-0.2,1.1-0.4,1.2-1c0.2-0.6-0.1-1.2-0.6-1.5
			C209.2,378.3,206.1,377.4,202.6,378.4z M319.8,322.9c2.7,0.8,6.9-0.4,8.5-2.4c0.4-0.5,0.8-1,0.6-1.7c-0.2-0.6-0.7-0.9-1.3-0.9
			C325.4,317.7,320.7,320.7,319.8,322.9z M344.8,395.5c2.8,1,5.6,1.9,8.7,3c-0.1-2.1,0.4-3.8-0.6-5.5
			C350.1,393.3,347.4,394.1,344.8,395.5z M353.3,356.9c0-1.6,0-3,0-4.4c0-1.1-0.6-1.7-1.6-1.1c-2.1,1.2-4.1,2.5-6.6,4.1
			C348.1,356.2,350.5,356.9,353.3,356.9z M241.7,357.6c2-0.2,4-1,5.8-2.3c0.6-0.4,0.9-1.1,0.6-1.8c-0.3-0.8-1-0.9-1.7-0.8
			c-2.1,0.2-4,1-5.8,2.2c-0.7,0.5-1.1,1-0.8,1.9C240.1,357.6,240.8,357.6,241.7,357.6z M353.8,359.5c2,2.4,4,3.8,7,3.6
			c0.8-0.1,1.4-0.4,1.7-1.3c0.2-0.6,0-1.2-0.5-1.5C359.4,359.2,356.9,358.2,353.8,359.5z M348.7,311.9c1.7,1,3.1,2.1,5.1,2.8
			c-0.1-2.1,0.2-3.9-0.2-5.8C351.8,309.7,350.3,310.4,348.7,311.9z"/>
		<path class="st0" d="M439,529.2c-0.2-2.9-0.4-5.6-0.5-8.3c-1.6-27.3-3.3-54.5-4.9-81.8c-0.8-13-0.8-26-1.2-39c-0.4-15.5-1-30.9-1.5-46.4
			c-0.1-4.6-0.1-9.3,0.1-13.9c0.2-3.2,0.2-6.3-0.1-9.5c-0.5-5.2,0.4-10.4,1.5-15.5c0.6-3,1.3-5.9,1.5-9c0-0.6,0.1-1.2,0.9-1.2
			c0.6,0.5,0.4,1.1,0.4,1.7c-0.9,22,1.9,43.6,5.3,65.3c1.5,9.5,1.7,19.1,2.5,28.6c1.6,17,3.2,33.9,4.8,50.9
			c1.8,19.2,4.1,38.3,6.6,57.4c0.5,4.1,1,8.2,1.6,12.2c0.2,1.3-0.1,1.9-1.3,2.5c-4.7,2-9.1,4.7-14.3,5.7
			C440,529.1,439.7,529.1,439,529.2z"/>
		<path class="st0" d="M141.1,248.2c-2.8,17.3-3.4,34.7-4.4,52.1c-1.4-2.9-2.9-5.8-4.5-8.6c-0.5-0.9-0.4-2-0.2-3c0.6-2.7,1.3-5.4,1.9-8.2
			c-1,0.2-1.3,0.8-1.6,1.4c-3.2,4.6-4.3,9.5-2.5,14.9c2,5.9,4.1,11.7,5,17.9c1,6.5,0,12.9-0.2,19.3c-0.1,3.2-0.4,6.3-0.6,9.4
			c-0.6,0.1-0.7-0.2-0.8-0.5c-5.1-13.7-10.5-27.3-14.1-41.5c-2.5-9.7-2.8-19.4,0-29.1c1.3-4.8,2.1-9.8,3.2-14.7
			c0.3-1.6,0.9-3,1.5-4.5c1.6-3.4,4.1-5.4,7.8-5.8C134.8,247.1,137.8,247.4,141.1,248.2z M122.8,283.5c2.8-10.2,2.9-20.8,8.3-30.2
			C123.8,256.2,117.6,278.5,122.8,283.5z"/>
		<path class="st0" d="M442.6,274.9c0,7.9-1.2,15.5-4.3,22.9c-1.5-4.3-1.5-39.2,0.2-47.3c2.1-0.1,4,0.6,5.7,1.8c1.9,1.4,3.4,3.4,4,5.7
			c1.6,6.9,4.4,13.4,6.8,20c2.7,7.4,2.7,14.8,0.3,22.3c-4.1,12.5-9.2,24.6-13.9,36.8c-0.1,0.3-0.3,0.5-0.6,1.1
			c-0.8-2.7-0.9-5.2-1.1-7.7c-1-12.9,0.8-25.5,4.4-37.9c1.6-5.5,1.5-10.7-0.4-16C443.4,276,443.4,275.3,442.6,274.9z M444.7,258
			c0,4.9,1.1,9.6,3.8,13.7C448.5,266.7,447.7,262.1,444.7,258z"/>
		<path class="st0" d="M282.5,37c-7.2-0.2-14.2-3.2-19-10.3c-1.8-2.6-2-5.1-0.4-7.8c1.9-3.4,4.6-5.8,8.3-6.8c8.2-2.1,16.3-1.7,24.3,1.2
			c2.3,0.9,4.4,2.2,6.1,4.1c3.5,4.2,2.5,10-2.4,14C294.8,34.9,289.8,36.7,282.5,37z"/>
		<path class="st0" d="M302,34.6c0.3,0.3,0.2,0.6,0.1,0.9c-1.5,4.7-3.2,9.3-5.9,13.6c-0.5,0.9-1.2,1.4-2.3,1.3c-7.7-1.1-15.5-0.9-23.3-0.6
			c-4,0.1-4,0.1-5.4-3.7c-1.9-5.3-3.1-10.7-3.8-16.2c0-0.3,0-0.7,0-0.9c1.4,1.2,2.8,2.5,4.1,3.7c4.2,4,8.9,7.1,14.7,8.3
			c7.6,1.6,14.2-0.8,20.3-5.3C301,35.2,301.4,34.7,302,34.6z"/>
		<path class="st0" d="M201,212.2c-0.3,1.9-1.7,2-3,2.1c-6.1,0.9-12.2,1.7-18.2,2.7c-7.6,1.2-15.1,2.4-22.6,4.1c-1.5,0.3-3.1,0.6-4.7,0.4
			C158.3,213.5,188.3,207.7,201,212.2z"/>
	</g>
</g>
</svg>
