<?xml version="1.0" encoding="utf-8"?>
<!-- Generator: Adobe Illustrator 21.0.0, SVG Export Plug-In . SVG Version: 6.00 Build 0)  -->
<svg version="1.1" id="图层_1" xmlns="http://www.w3.org/2000/svg" xmlns:xlink="http://www.w3.org/1999/xlink" x="0px" y="0px"
	 viewBox="0 0 560 560" style="enable-background:new 0 0 560 560;" xml:space="preserve">
	 <style type="text/css">
	.st0{fill:#FFFFFF;
</style>
<g>
	<g>
		<path class="st0" d="M182,325.5c-3.1,3.9-6.1,7.8-9.7,12.3c4.7-1.9,8.8-3.5,12.8-5.1c0.2,0.1,0.5,0.2,0.7,0.3c-1.3,3.6-2.5,7.2-3.9,11.2
			c3.4-1.8,6.5-3.5,10.3-5.5c-3.1,11.3-7,21.8-4.5,33.2c-0.3-18.1,7.7-33.5,16.6-48.6c-0.2-0.1-0.5-0.2-0.7-0.3
			c-2.4,3.8-4.9,7.6-7.3,11.4c3.9-14.2,11.8-26.2,19.5-38.5c-1.4,1.7-2.8,3.4-4.1,5.2c-1.4,1.9-2.7,3.8-4.5,5.5
			c1.7-4.6,3.1-9.3,5.2-13.6c3.7-7.7,7.4-15.5,11.8-22.8c4-6.5,10.6-10.5,17.1-14.3c7.6-4.4,16.1-6,24.8-7.2
			c0.9-0.1,1.8-0.4,2.7-0.5c1.6-0.2,3.4-0.1,3.7,1.7c0.2,1.2-0.2,3.1-1,3.8c-6.4,5.3-12.8,10.5-21,13.2c2.2-1.9,4.5-3.8,6.7-5.7
			c2.2-1.9,4.3-3.9,6.4-5.9c-0.2-0.2-0.3-0.4-0.5-0.6c-13.9,10.5-27.9,21-41.8,31.6c0,0.1,0.1,0.2,0.1,0.3c3.6-2.1,7.2-4.1,10.8-6.2
			c0.2,0.2,0.3,0.3,0.5,0.5c-4.2,4.7-8.4,9.5-12.6,14.2c0.3,0.3,0.5,0.5,0.8,0.8c2.6-2.3,5.2-4.7,7.7-7c0,3.6-9.2,24.4-18.9,42.8
			c0.2,0.1,0.4,0.3,0.6,0.4c2.1-3.1,4.1-6.1,5.6-8.3c-2.6,10.8-5.2,22.7-8.2,34.5c-1.6,6.2-5.4,11.5-9.4,16.8
			c-0.8-0.7-1.4-1.3-1.8-1.6c1.7-3.4,3.8-6.6,4.7-10c1.7-6.6,2.6-13.4,3.7-20.3c-1.5,4.4-3.1,8.9-4.6,13.3
			c-1.3,3.8-2.6,7.6-4.1,11.3c-0.9,2.2-2,4.2-5,4.2c-0.8,0-1.6,1.2-2.3,2c-2,2.2-4.1,4.2-4.3,7.5c0,0.6-1,1.2-1.6,1.8
			c-4.5,3.9-8.5,8-11,13.6c-3.3,7.3-1.9,14.3,1.2,21.2c1.8,4.1,4.5,7.6,8.3,10.1c0.3,0.2,0.7,0.3,1.7,0.6c-0.5-0.9-0.7-1.4-1-1.7
			c-3.5-3-2.6-6.8-1.9-10.5c0.1-0.6,0.9-1.2,1.4-1.7c2.8-3.2,5.8-6.3,8.3-9.8c4-5.5,4.8-11.8,4.1-18.5c-0.9,10.2-5.2,18.8-13.1,25.5
			c2.2-4.7,4.3-9.3,6.5-14c-5.5,6.5-9.4,13.6-9.7,22.3c-0.2,0-0.5,0-0.7,0.1c-0.9-2-1.6-4.2-2.6-6.1c-4.8-9.3-1.7-17.2,4.4-24.5
			c1.6-1.9,3.2-3.7,4.9-5.4c2.6-2.6,6.2-2.5,9,0.3c0.2,0.2,0.3,0.3,1,0.9c1.8-2.5,3.6-5,5.3-7.4c0.7-1,1.1-2.2,2-3
			c9.1-8.7,13.8-19.7,16.5-31.7c2.4-11,4.3-22,6.7-33c1-4.6,2.5-9,4.1-13.4c-1.9,8.5-3.7,17-5.6,25.5c0.2,0.1,0.4,0.1,0.6,0.2
			c3.3-2.8,6.6-5.6,9.8-8.5c0.3,0.2,0.6,0.4,0.9,0.6c-1.8,3.1-3.5,6.3-5.6,10c4.6-3.5,8.7-6.7,12.7-9.8c0.2,0.2,0.5,0.4,0.7,0.6
			c-2.3,4.1-4.6,8.3-6.8,12.4c0.2,0.2,0.3,0.4,0.5,0.6c0.8-0.6,1.6-1.1,2.3-1.8c4.9-5.5,9.7-11,14.6-16.6c0.4,0.2,0.7,0.4,1.1,0.6
			c-0.7,2-1.3,3.9-2,5.9c0.1,0.1,0.3,0.3,0.4,0.4c4.1-3.8,8.1-7.6,12.3-11.5c0,2.3,0,4.7,0,7.4c4.6-3.9,5.6-9.6,8.2-15
			c1.8,3.6,3.4,6.8,5,10c0.2-0.1,0.4-0.1,0.7-0.2c0.2-2.2,0.4-4.4,0.6-6.6c0.2-0.1,0.4-0.2,0.6-0.2c2.2,3.8,4.4,7.6,6.9,12
			c0-3.3,0-5.9,0-8.4c0.2-0.1,0.4-0.1,0.5-0.2c2.2,3.5,4.4,7.1,6.6,10.6c0.3-0.1,0.5-0.2,0.8-0.2c-0.3-2.7-0.5-5.3-0.8-8
			c0.2-0.1,0.5-0.3,0.7-0.4c2.2,3.5,4.4,6.9,6.5,10.4c0.2,0,0.5,0,0.7,0c-0.2-2.5-0.4-5-0.6-7.5c0.2-0.1,0.3-0.2,0.5-0.4
			c2.9,3.6,5.8,7.2,8.7,10.8c0.2,0,0.4,0,0.6,0c-0.1-1.8-0.2-3.5-0.2-5.3c0.2-0.1,0.4-0.3,0.6-0.4c2.3,3.5,4.4,7.1,6.8,10.6
			c2.8,4,2.6,8.3,2.2,12.9c-0.4,5.4-0.3,10.8,0.1,16.1c0.4,4.9,1.8,9.7,2,14.6c0.1,3.7-1,7.4-1.9,11c-1.4-12.5-2.9-24.9-4.3-37.4
			c-0.3,0-0.6,0-0.9,0.1c0,2.9,0,5.9,0,8.8c0.1,12.1,0.9,24.3,0,36.4c-1,13.1-4.2,26-10.1,38c-0.8,1.7-1.6,3.4-2.9,5
			c0.6-3.9,1.3-7.8,1.8-11.8c0.6-4.6,1.1-9.2,1.4-13.8c0.2-3.6,0-7.3,0-11.1c-8.2,21.1-16.4,42.1-24.4,62.8c0.3-3.1,0.6-6.5,1.1-10
			c0.5-3.5,0.7-7.1,1.8-10.4c1.1-3.3,3.2-6.3,4.5-9.7c-11.6,12.6-19.2,27.4-24.7,43.5c-5.5,16.2-6.9,32.7-4.6,49.6
			c-2.5-10.2-3.8-20.4-2.6-30.9c1.2-10.3,2.7-20.6,4-31c-1.1,2.9-2.2,5.8-3.2,8.8c-2.7,7.5-5.2,15.1-8,22.5
			c-3.6,9.8-4.8,19.8-2.1,30.4c-4.6-7.4-4.5-16.5-9.9-23.2c-0.4,0.1-0.8,0.2-1.2,0.3c1.1,6.7,1.9,13.5,3.5,20.1
			c1.6,6.8,4.4,13,8.8,18.8c-15.6-10-35.3-40.6-34.5-65.4c-5.6,7.6-6.9,16.3-6.9,25.6c-0.4-2-0.8-4-1.1-6.1
			c-0.3-2.2-0.4-4.4-0.5-6.5c-0.5-10.7,1.2-21.2,4.2-31.3c2.7-8.9,6.1-17.6,9-26.4c0.6-1.8,0.7-3.8,1-5.6c-0.2-0.1-0.5-0.2-0.7-0.3
			c-0.6,0.8-1.2,1.6-1.7,2.5c-5.2,10.1-10,20.4-15.5,30.3c-4.4,7.9-9.5,15.4-14.3,23c-0.3-0.2-0.6-0.3-0.8-0.5
			c0.7-1.4,1.4-2.7,2.2-4.1c5.8-10.4,10.1-21.4,13.3-32.8c4.8-17.3,10.7-34.2,17.2-51c1.3-3.3,2.6-6.6,3.6-10.1
			c-9.5,10.5-13.1,23.8-17.4,36.8c-0.3-0.1-0.5-0.2-0.8-0.2c3-13.2,5.8-26.6,9.1-39.7c3.3-13.2,8.7-25.5,16.1-37
			c-0.3-0.2-0.6-0.3-0.9-0.5c-3.1,5.2-6.2,10.4-9.5,16c-0.3-1.7-0.5-3-0.7-4.3c-0.3,0-0.5,0-0.8,0c0,1.7,0.1,3.5,0,5.2
			c-0.2,1.8-0.3,3.7-1,5.4c-5.5,14.8-9,30-11.7,45.5c-1.9,11.5-4.3,23-10.8,33c-0.1,0.2-0.1,0.4,0.2,1c1.1-1.6,2.3-3.2,3.4-4.9
			c1.2-1.8,2.2-3.6,3.3-5.4c1.1-1.8,2.1-3.6,3.3-5.3c-6,21.7-12.2,43.4-25.2,61.2c3.4-7,7.5-14.5,10.7-22.5c3.2-7.9,5.4-16.2,8.2-25
			c-1.8,2.5-3.1,4.4-4.5,6.3c-0.4,0.6-0.9,1.2-1.6,1.6c-0.5,0.3-1.2,0.4-1.8,0.5c0-0.7-0.3-1.5,0-2c1.8-4.1,3.8-8.2,5.6-12.3
			c4.6-10.8,7-22.2,9.1-33.7c2-10.6,5-21.1,7.5-31.6c0.1-0.2,0-0.5,0.1-1.2c-0.7,0.8-1.1,1.4-1.5,1.9c-3.7,4.8-7.5,9.6-10.9,14.5
			c-3,4.2-4.9,9-5.2,14.2c-0.5,9.1-5.1,15.8-11.9,21.3c-2.9,2.3-3.1,8.1-0.4,10.9c0.8,0.9,1.3,2.1,2,3.2c-0.2,0.2-0.5,0.5-0.7,0.7
			c-0.9-0.3-1.9-0.5-2.6-1c-1.8-1.3-3.7-2.5-5.1-4.1c-6.5-7.7-11.6-21.3-4-31.8c2.9-4,6.4-7.5,9.5-11.3c2.5-3,4.2-6.5,3.9-10.5
			c-0.9-9.8,0.4-19.3,3.3-28.6c0-0.1,0-0.3-0.1-0.9c-2.6,1.5-5,2.9-7.4,4.3c-0.8,0.4-1.8,0.5-2.7,0.7c0.2-0.9,0.3-1.8,0.6-2.6
			c1.3-2.8,2.8-5.4,4.5-8.8c-4.1,1.5-7.5,2.8-10.9,3.9c-0.6,0.2-1.4,0.2-2.1,0.3c0.2-0.7,0.4-1.5,0.8-2.1c1.5-2.4,3.2-4.7,4.4-7.6
			c-1.7,0.9-3.4,1.8-5.2,2.6c-0.7,0.3-1.5,0.3-2.3,0.4c0.2-0.7,0.2-1.5,0.5-2.2c1.7-3.2,3.4-6.3,4.7-9.8c-1.7,1.3-3.4,2.7-5.3,3.9
			c-0.6,0.4-1.5,0.2-2.2,0.3c0.3-0.6,0.5-1.3,0.8-1.9c1.5-2.7,3.4-5.2,4.4-8.1c1.6-4.7,2.6-9.5,3.4-14.5c-1.7,2.2-3.3,4.6-5.1,6.7
			c-0.5,0.6-1.6,0.9-2.4,1.3c0.1-0.8,0-1.7,0.2-2.5c0.4-1.1,1-2,1.5-3c0,0,0,0,0,0c0.6,2.2,1.4,0.4,1.7,0c1.8-2.3,3.6-4.7,5.4-7
			c0.4-0.5,0.8-1,1.4-1.4c-2.5,9-2.2,18.6-7.8,26.7c0.3,0.1,0.6,0.3,0.9,0.4c2.4-2.6,4.8-5.2,7.2-7.8c-0.2-0.2-0.3-0.4-0.5-0.6
			c-0.7,0.4-1.3,0.7-2.3,1.3c1.7-8.8,3.4-17.2,5-25.9c-1.3,1.4-2.4,2.7-3.8,4.1c1.7-9.7,3.4-19.2,5.1-28.6c0.1,0,0.1,0,0.2,0
			c0,0.8,0.1,1.5,0.1,2.7c0.7-0.6,1.2-1.1,1.7-1.6c0.2,0,0.4,0.1,0.6,0.1c-1.2,6.2-2.5,12.4-3.7,18.6c0.1,0.1,0.2,0.1,0.3,0.2
			c1.2-1.9,2.4-3.7,3.6-5.6c0.2,0,0.4,0.1,0.7,0.1c-1,5.7-2.1,11.5-3.1,17.2c0.2,0.2,0.3,0.4,0.5,0.6c0.4-0.6,0.8-1.3,1.2-1.9
			c0.5-0.7,1.1-1.2,2.2-1.7c-0.9,3.8-1.8,7.5-2.8,11.7c1.5-0.9,2.9-1.8,4.4-2.7c-0.3,2.4-0.7,4.6-1,6.9c0.2,0.1,0.5,0.1,0.7,0.2
			c1.8-1.2,3.6-2.4,5.8-3.9c-0.5,2-0.9,3.5-1.4,5c0.2,0.1,0.3,0.3,0.5,0.4c1.4-0.9,2.7-1.7,4.1-2.6c0.2,0.1,0.3,0.1,0.5,0.2
			c-1.5,3.3-2.9,6.7-4.4,10c0.2,0.1,0.5,0.2,0.7,0.4c2.8-3.5,5.6-7.1,8.4-10.6c0.2,0.1,0.3,0.2,0.5,0.3c-0.3,1-0.7,1.9-0.8,2.9
			c-0.1,1.5-1.8,3.1,0.1,4.7c0.3,0.3-0.4,2-0.8,3c-2.3,5.7-4.6,11.3-7,17c-0.3,0.7-0.8,1.5-1.4,1.8c-2,0.9-4.2,1.7-6.6,2.6
			c0.6-3.4,1.2-6.7,1.9-10.1c-2.7,0.9-5.2,1.8-7.8,2.6c-0.1-0.2-0.3-0.3-0.4-0.5c1.9-2.8,3.8-5.6,5.7-8.5c-0.6,0.1-1.2,0.2-1.7,0.3
			c-0.7,0-1.5-0.3-2.1-0.1c-2,0.7-3.9,1.6-6.1,2.6c1.5-4.2,2.8-8,4.2-11.9c-0.3-0.1-0.6-0.2-0.9-0.3c-2,4.8-4.1,9.6-6.1,14.4
			c0.2,0.2,0.4,0.3,0.6,0.5C175.5,328.3,178.8,326.9,182,325.5z M234.2,473.5c0.2,0,0.4,0,0.7,0c0.3-1.6,0.6-3.1,0.9-4.7
			c3.4-15.2,7.9-30,15.6-43.7c3.9-6.9,6.8-14.5,10.8-21.3c11.1-18.7,21.7-37.7,31.1-57.3c1.4-2.9,2.4-5.9,3.6-8.9
			c-1.2,1.2-1.7,2.6-2.5,3.8c-9,13.8-16.6,28.4-26.1,41.9c-10.7,15.2-19.4,31.6-25.9,49.2c-3.9,10.5-5.8,21.5-6.9,32.7
			C235.2,468,234.7,470.7,234.2,473.5z M219,448.2c0.3,0,0.6,0,0.8,0c0.2-0.5,0.4-1.1,0.6-1.6c3.3-10.4,8.3-20,13.9-29.3
			c10.5-17.2,21.4-34.2,32.4-51.1c8.4-12.8,16.9-25.5,22.5-39.9c1.1-2.9,1.4-6,2.1-9.1c-0.2-0.1-0.4-0.1-0.6-0.2
			c-0.2,0.4-0.3,0.7-0.5,1.1c-3,9.1-7.5,17.5-12.8,25.5c-5.9,8.9-12.5,17.4-18.4,26.3c-5.9,8.9-11.1,18.3-16.7,27.4
			c-3,4.9-6.1,9.7-9.1,14.5c-6.3,9.8-10.4,20.5-13.6,31.6C219.4,444.9,219.2,446.5,219,448.2z M275.3,308.6c-0.1,0-0.3,0-0.4,0.1
			c-3.3,5.3-6.5,10.6-9.9,15.8c-6,9.2-12.6,18.1-18.2,27.5c-5,8.3-9.1,17.1-13.5,25.7c-0.9,1.9-1.3,4-2,6.5
			c2.9-4.5,5.5-8.6,8.2-12.7c4.6-7,9.3-14,13.9-21c5.1-7.7,10.4-15.3,15.2-23.2c2.7-4.5,4.4-9.6,6.3-14.5
			C275.3,311.5,275.2,310,275.3,308.6z M283.9,386.3c-0.2-0.1-0.4-0.1-0.6-0.2c-0.1,0.3-0.2,0.7-0.4,1c-3.7,8.4-7.1,16.9-11,25.2
			c-5.3,11.3-11.2,22.5-16.6,33.8c-4,8.5-7.1,17.3-8.9,26.6c-0.2,0.8,0,1.8,0,2.6c0.6-0.3,0.8-0.5,0.9-0.8c4.1-13,10-25.2,17.2-36.8
			c4.3-6.9,7.3-14.5,10.6-22c2-4.4,3.7-9,5.1-13.7C281.8,396.8,282.7,391.5,283.9,386.3z M280,425.2c12-21.6,17.2-44.9,17.5-69.4
			C294.7,379.7,288.9,402.9,280,425.2z M308.9,389.3c1.5-8-0.4-53.6-1.6-55.5C305.6,352.5,307.1,370.9,308.9,389.3z M227.1,506.5
			c-0.3-0.8-0.6-1.5-0.8-2.3c-0.3-0.8-0.5-1.6-0.8-2.4c-3.1-11.4-4.5-23-3.1-34.9c0.1-1-0.1-2.1-0.2-3.1
			C216.9,475.2,221.2,501.4,227.1,506.5z"/>
		<path class="st0" d="M368.8,236c0.4,3.5,0.9,7,1.3,10.5c1.2,9.4,1.3,18.8,0.1,28.2c-0.1,0.7,0.2,1.5,0.2,2.2c-0.1,0.9,0.9,2.3-1,2.7
			c-0.2,0-0.3,1.3-0.3,2c0.2,2.2,0.6,4.3,0.9,6.5c-0.9-0.1-1.6-0.2-2.7-0.4c0.1-2.6,0.2-5.6,0.5-8.6c0.3-2.9,0.8-5.7,1.3-8.6
			c-0.4-0.1-0.7-0.3-1.1-0.4c-0.7,0.9-1.9,1.7-2.2,2.7c-1.2,4.1-2.3,8.2-3,12.4c-1.2,6.5-2.1,13.1-2.9,19.7
			c-0.2,1.8,0.2,3.6,0.3,5.7c-1.4-1-2.6-1.9-3.9-2.9c3.4-6.8,3.2-14.2,4-21.4c0-0.4-0.4-0.8-0.8-1.7c-0.8,1.2-1.3,2.1-1.6,2.6
			c0.3-3.8,1-8.1,0.8-12.3c-0.1-3.2-1.2-6.4-2.2-9.4c-1.1-3.1-3.9-4.5-6.8-5.6c-8.2-2.9-15.9-7-22.3-13
			c-6.9-6.6-13.4-13.5-18.3-21.8c-1-1.7-2.5-3.2-4-4.5c-1.7-1.4-3.9-1.1-5.3,0.3c-0.6,0.6-0.1,2.6,0.3,3.8c1.2,3.8,2.7,7.6,3.9,11.4
			c1.1,3.7-1,7.4-4.8,8.3c0-2.4,2.3-5.2-0.7-7.1c-2.1-1.3-4.3-2.3-6.5-3.4c-2.4-4.4-5-9.1-7.6-13.8c-0.6,1.5-1,3.4-1.9,4.9
			c-1.1,1.9-2.4,4-4.2,5.1c-4.4,2.8-9.7,4.3-12.5,9.3c-0.8-0.4-1.3-0.6-1.6-1c-3.3-4.1-7.8-3.7-12.2-3.1c-3.4,0.5-4,1.9-2.2,4.8
			c0.4,0.6,0.7,1.1,1,2.3c-1.8-0.3-4.2,0-5.1-1c-1-1.2-1.3-3.7-0.9-5.4c0.7-2.7,2.1-5.3,3.3-7.9c1.1-2.4,2.4-4.7,3.2-7.5
			c-0.7,0.3-1.5,0.5-2.1,1c-2.5,2.5-5.5,4.6-7.3,7.6c-9.4,15.9-19.2,31.5-30.4,46.1c-0.5,0.6-0.8,1.4-1.1,2.1
			c11.3-12.1,22.6-24,30.9-38.9c1.1,5.7,3.7,7.7,9.3,7.8c2.2,0,4.4,0.6,6.6,1c0,0.3,0,0.6-0.1,0.9c-0.8,0.1-1.6,0.3-2.4,0.4
			c-16.8,3.7-28.9,13.6-37.3,28.4c-5.5,9.7-8.9,20.3-12.8,30.7c-0.5,1.3-1.1,2.6-1.7,3.9c-0.1,0.2-0.4,0.3-1,0.8
			c1-3.2,1.8-5.9,2.6-8.6c-0.1-0.1-0.2-0.2-0.3-0.3c-2.1,1.9-4.2,3.7-6.8,6.1c1.2-2.8,2.1-5,3-7.2c-0.1-0.2-0.3-0.3-0.4-0.5
			c-2,1.9-4,3.8-6.1,5.8c-0.1-0.1-0.3-0.2-0.4-0.3c1.1-1.9,2.1-3.8,3.2-5.6c-0.1-0.1-0.2-0.3-0.3-0.4c-2.8,1.7-5.6,3.4-8.7,5.2
			c0.7-2.8,1.3-5.3,2.2-8.7c-2.1,1.6-3.7,2.8-5.4,4.1c1.2-4.4,2.4-8.7,3.6-13.1c-0.3-0.1-0.6-0.3-0.9-0.4c-1,1.1-2,2.3-3.1,3.5
			c0.8-6.3,1.6-12.4,2.5-19.2c-1.2,1-1.9,1.6-2.9,2.4c0.9-5.9,1.7-11.4,2.5-16.9c-0.2-0.1-0.4-0.2-0.6-0.4c-0.9,1.1-1.7,2.2-2.8,3.7
			c0.4-3.1,1-5.8,1-8.4c-0.1-7-0.4-14-0.8-21.1c-0.2-4.6,0.1-8.8,1.9-13.2c6.3-15.2,8.7-31.1,8.7-47.5c0-1.1,0.6-2.4,1.4-3.1
			c7.1-6.6,15.3-11.5,24.4-14.3c9.2-2.9,18.7-4.6,28.2-6.3c2.9-0.5,6,0.9,9.1,1.4c6.7,1.1,13.4,2.8,20.1,3.1
			c5.8,0.2,11.6-1.4,17.5-1.8c8.7-0.6,17.4-0.9,26.1-0.9c-8.4,2-15.6,5.9-22.8,10.4c-4.8,3-10.6,4.4-16,6.5
			c-1.8,0.7-2.7-0.2-3.1-1.8c-0.4-1.4-0.7-2.9-1.1-4.3c-1.8,1.2-1.8,1.2-0.1,9c-3.2,1.3-7.4,0.9-10.1,5c1.9-0.2,3.4-0.3,4.7-0.6
			c4.9-1.2,8.6,0.9,10.6,5.6c4.7,11.2,10.5,21.9,18.8,30.9c1.8,2,4.2,3.4,6.5,4.8c-2.6-4.5-7.6-7.4-7.9-13.5c2.6,1.9,5,3.5,7.3,5.2
			c5.1,3.8,10.9,5.4,17.2,5.7c2.1,0.1,4.1,0.6,6.2,0.9c0.7,0.1,1.4,0.2,2,0.2c0.1-0.2,0.2-0.5,0.3-0.7c-0.7-0.5-1.3-0.9-2-1.4
			c9.2,0,17.6,1.7,23,11.2c-0.9-11.2-4.6-18.2-11.8-22.6c0.1,1.1,0.1,2.2,0.2,3.2c0.2,4-2.1,6.3-6.2,5.9c-6.2-0.5-12.4-1.2-18.6-1.8
			c-4.1-0.4-7.2-2.5-9.8-5.5c-2.1-2.5-3.9-5.3-6.1-7.7c-1.8-2-2.1-4.1-1.9-6.5c0.1-1.5,0.5-1.8,2-1.1c1.8,0.8,3.8,1.7,5.6,1.5
			c8-0.9,15.7-0.4,23.4,2.1c0.1-0.2,0.2-0.5,0.2-0.7c-2.5-0.9-5.1-1.8-7.6-2.7c-2.6-0.9-5.1-1.9-8.1-3.1c5.4-1,10.4-0.5,14.9,1.4
			c4.3,1.7,8.4,4.1,12.4,6.6c4.8,3,9.2,6.5,13.8,9.8c1.1,0.8,2.4,1.4,3.8,2.2c-0.5-2.3-0.6-2.4-4.6-5.2c-1.8-1.3-3.6-2.7-5.5-4
			c0.1-0.2,0.3-0.5,0.4-0.7c2.8,1.3,5.6,2.7,8.9,4.3c-0.3-1.1-0.3-1.7-0.6-1.9c-2.6-1.7-4.8-4-7.8-5.3c-3.2-1.4-6.2-3.3-8.8-5.5
			c-3.4-2.9-6.3-6.3-9.5-9.4c-2.3-2.2-5.1-3-8.3-3.5c-6.4-0.9-11.9,2-17.7,3.9c-3,0.9-6.2,1.4-9.4,1.6c-1.2,0.1-2.4-1.3-3.6-2
			c0.7-1,1.1-2.3,2-2.8c8.5-4.6,17-9.2,25.6-13.5c3.4-1.7,7.2-1.1,10.9-0.7c5.8,0.7,11.3,2.4,16.6,5.4c1.1-4.6,0.2-8.5-2.7-12
			c15.9,2.4,35.6,25.4,32.8,39c-0.4-2.1-0.7-3.9-1-5.6c-0.3,0-0.6,0.1-0.9,0.1c0,2.4,0.2,4.7,0,7.1c-0.5,5.7-1.2,11.5-2,17.2
			c-1.2,8.5-2.7,17-4,25.3c-0.2-0.2-0.7-0.9-1.2-1.5c2.8,6.6,4,13.5,4.9,20.5c0.9,7,1.8,14,2.7,21.3c-0.7-1.3-1.3-2.4-1.8-3.5
			c-0.3,0.1-0.5,0.2-0.8,0.3c1.8,9.2,3.6,18.3,5.4,27.7c-1.3-1.2-2.7-2.4-4.2-3.8c1.4,5.9,2.7,11.7,4,17.4c-0.2,0.1-0.5,0.2-0.7,0.4
			c-1.2-1.4-2.4-2.8-3.8-4.4c-1.8,6.3-0.8,12.4,0.1,18.8c-2.2-2.4-4.4-4.8-7-7.5c0.6,6.5,1.3,12.6-0.6,18.9c-2.4-3.4-4.7-6.6-7.1-10
			c-0.6,5.8-1.2,11.5-1.8,17.7c-1.7-3-3.2-5.8-4.9-8.9c-1.7,5.7-1.6,11.1-0.8,17.1c-3.5-3.4-7.2-6.3-8-10.5
			c-1.5-8.1-1.9-16.3-2.7-24.6c0.8,0.2,1.3,0.3,1.9,0.4c-0.1-1.8-0.2-3.4-0.3-5.4c1.3,1.5,2.5,2.8,3.7,4.1c0.2-0.1,0.4-0.2,0.7-0.3
			c0.2-1.7,0.4-3.3,0.7-5.1c3.8,1.4,7.3,2.6,11.3,4.1c-0.8-2.2-1.5-4.1-2.5-6.7c1.4,0.8,2.2,1.3,3.3,2c0-1,0.1-1.9,0-2.8
			c-0.1-1-0.3-1.9-0.5-3.3c3,0.8,5.7,1.5,8.6,2.2c-0.7-2.1-1.4-4-2.2-6.3c1.2,0.5,2,0.8,3,1.3c-0.4-3.6-0.8-7-1.2-10.7
			c0.7,0.5,1.1,0.7,1.8,1.1c0-3.9,0-7.6,0-11.5c0.5,0.4,0.9,0.9,1.4,1.3c0.2-0.3,0.4-0.5,0.4-0.7c0.1-0.1,0.1-0.3,0-0.5
			c-2.8-7.4-0.8-14.9-0.6-22.4C372.7,252.7,371.3,244.3,368.8,236z M266.1,165.8c0.1-2-0.9-2.5-2.4-1.9c-2.9,1.2-5.6,0.8-8.5-0.4
			c-2.5-1.1-5.2-1.8-7.8-2.7c-7.8-2.6-16-3-24-4.1c-10.1-1.4-21,7.5-19.2,17.4c0.2,0.9-0.4,1.8-0.3,2.7c0.1,0.7,0.6,1.4,0.9,2.1
			c0.5-0.4,1.3-0.6,1.6-1.2c4.3-6.1,9.5-10.6,17.1-12.2c3.5-0.7,5.9,0.3,8,2.8c0.4,0.6,0.5,2.1,0.1,2.5c-2.7,2.8-5.2,5.9-8.5,7.8
			c-4.7,2.7-8.5,6-11.4,10.4c-3.2,4.8-7.5,7.9-12.9,9.5c-0.5,0.1-0.9,0.5-1.3,0.7c0.1,0.3,0.2,0.6,0.4,0.9c3.3-1.1,6.6-2.3,9.8-3.4
			c0.1,0.1,0.1,0.2,0.2,0.3c-2.7,2.9-5.4,5.7-8.2,8.6c1.8-0.9,3.6-1.9,5.1-3.3c2.3-2.2,4.6-4.5,6.5-7c6.1-7.9,15-8.6,23.9-9.3
			c-4.7,1.1-9.2,2.8-13.4,5.5c1.2,0.3,2.3,0.1,3.4-0.3c4.2-1.4,8.5-1.9,12.9-0.8c2.3,0.6,3.4,2.1,2.3,4.2c-1.7,3.7-3.6,7.4-5.9,10.8
			c-1.6,2.4-4.2,3.8-7.4,3.3c-2.2-0.3-4.5-0.5-6.8-0.6c-0.5,0-1,0.1-1.5,0.2c0,0.2-0.1,0.5-0.1,0.7c2.2,0.7,4.5,1.3,7.1,2.1
			c-1.5,0.7-2.6,1.1-3.7,1.6c0.9,0.4,1.6,0.5,2.3,0.4c7.2-1.2,13.3-5,19.1-8.9c3.5-2.3,6.6-5.7,8.9-9.2c2.8-4.2,4.7-9.1,6.8-13.7
			c1.3-2.9,3.6-4.7,6.4-6c0.1-3.3-0.4-3.6-3.6-4.1c-2.9-0.4-5.7-1.3-8.5-2.1c1.7-0.3,3.3-0.4,4.9-0.3c1,0,2.1,0,2.8,0.4
			c2.6,1.6,4.4,1.7,6-0.9c1.9-3.2,3.3-6.7,4.7-10.2c0.5-1.1,0.6-2.3,0.8-3.4c-0.3-0.1-0.6-0.2-0.9-0.3
			C269.9,158.3,268,162,266.1,165.8z M374,212.6c-1-3.3-2-6.5-3-9.8c-3.1-10.2-3.3-20.7-3.6-31.2c-0.1-2.2-0.4-4.3-0.7-6.5
			c-0.2,0-0.4,0.1-0.6,0.1C365.5,181.6,364.9,197.9,374,212.6z M334.9,175c-5.3-5.7-14.4-7.4-21.3-4.4c-4,1.7-8.1,3.2-12.1,4.8
			c-0.5,0.2-1,0.4-1.5,0.7c0.1,0.2,0.1,0.4,0.2,0.6c3.8-1.1,7.7-2,11.4-3.5c5.3-2.1,10.6-2.7,16.1-1.2
			C330,172.5,332.2,173.8,334.9,175z M365.6,217.7c0.1-0.1,0.3-0.3,0.4-0.4c-1.2-1.8-2.9-3.4-3.5-5.4c-2.3-8-9.6-8.5-15.6-11.1
			c3.1,2.7,6.7,5,9.8,7.7C359.9,211.3,362.6,214.6,365.6,217.7z"/>
		<path class="st0" d="M329.6,369.8c0.2,1.6,0,3.3,0.6,4.7c1.5,3.2,0.2,5.4-1.6,7.9c-0.7,1-1,2.7-0.7,3.9c0.7,2.7,1.9,5.3,2.8,8
			c0.2,0.6,0.1,1.4-0.1,2c-4,9.5-3.8,19,0.2,28.4c1.7,4,2.7,8.1,2.6,12.5c-0.1,2.6-1.4,4.2-3.3,4.8c0.5-3.5,1.1-7.1,1.6-10.7
			c0-0.3-0.1-0.7-0.3-1c-3.5-5.6-3.3-12.1-4.4-18.2c-0.9-5-0.2-9.8,1.8-14.3c1.1-2.4,0.7-4.5-0.8-6.3c-1.8-2.1-2-4.4-1.7-7.1
			c0.2-2-0.3-4.1-0.4-6.2c-0.3,0-0.7,0-1,0c-0.6,3.5-1.1,7-1.9,10.5c-1,4.7-1.8,9.4-3.3,14c-1.1,3.3-3.3,6.3-4.4,9.6
			c-4.4,13.1-10.5,25.5-17.9,37.2c-0.6,1-1.4,1.9-2.2,2.8c-0.2,0.2-0.9,0.2-1.3,0c-0.2-0.1-0.3-0.8-0.1-1.1c2.3-3.9,2.2-8.5,3-12.8
			c1.1-5.6,2-11.2,2.9-16.9c-0.2-0.1-0.4-0.1-0.6-0.2c-0.7,2.1-1.4,4.2-2,6.4c-4.2,14.3-8.5,28.7-12.6,43
			c-1.5,5.1-2.2,10.4-1.2,15.7c0.1,0.6,0,1.3,0,1.9c-0.3,0.1-0.5,0.2-0.8,0.3c-1.5-3-3.7-5.8-4.4-8.9c-1.8-8.4-2.2-17-1.1-25.7
			c-0.5,1.1-1,2.3-1.4,3.4c-0.5,1.3-0.9,2.5-1.3,3.8c-1.5,4.6-3.3,9.2-4.3,14c-1.5,7.5-2.2,15.1-3.7,22.6c-2.6,12.6-1.1,25,1.7,37.3
			c0.4,1.9,0.9,3.8,1.5,6.1c-1.1,1.2-1.5,1.1-2.7-0.4c-7.8-9.7-12.4-20.7-14.8-32.8c-0.5-2.5-0.4-5.1-0.7-7.7
			c-1.2,6.5-0.4,13.1,0.1,19.6c0.5,6.7,3.5,12.4,7.4,17.9c-0.3,0.2-0.6,0.4-0.9,0.6c-1-0.5-2-1.1-3.4-1.8c0.9,1.6,1.6,2.8,2.4,4.1
			c-0.1,0.1-0.2,0.3-0.3,0.4c-1-0.6-2.2-1.1-2.8-1.9c-6.3-8.1-10.4-17.2-12.2-27.3c0-0.2,0-0.3,0.1-0.7c1.8,4.2,3.3,8.4,5.2,12.4
			c1.8,4,3.5,8.3,7.9,11c-0.2-0.7-0.3-1.2-0.5-1.7c-3.7-8.2-6.2-16.9-5.5-25.9c0.5-6,2.4-12,3.7-17.9c0.5-2,1.2-4,2.2-5.9
			c-0.2,4.2-0.6,8.4-0.6,12.7c0,10.1,1,20.1,5.1,29.6c0.9,2.1,1.9,4.1,3,6.1c0.5,0.9,1.6,1.5,2.9,2.5c0-1.6,0.2-2.5,0-3.3
			c-5.5-17-2.8-33.9,1.2-50.7c3.2-13.4,8.1-26.3,14.1-38.8c0.1-0.1,0.2-0.2,0.2-0.2c-0.7,7.1-1.7,14.3-2,21.5
			c-0.3,7-1.5,14.3,2.7,20.8c-2.3-8.7,0.9-16.8,3.4-24.8c4.4-13.5,9.4-26.8,14.1-40.1c1.6-4.7,3-9.5,4.7-14.2
			c-1.2,13.8-3.7,27.4-6.6,41c14.5-22.5,21.7-47.6,25.4-74.4c1.1,1.9,1.9,3.3,2.7,4.7c0.8,1.3,1.8,2.6,3.2,3.6
			c-0.4-0.8-0.6-1.7-1.1-2.5c-4.1-7.3-6-15.3-6-23.6c0-8.7,0.5-17.5,0.3-26.2c-0.3-9.9-0.4-19.9-2.9-29.6c-0.2-0.6-0.3-1.3-0.5-1.9
			c0.2-0.1,0.4-0.2,0.6-0.3c4.6,9.3,9.1,18.6,13.7,27.8c-5.3-15.4-12.9-29.5-20.6-43.9c2.3,1.5,4.6,3,7,4.5c0.1-0.2,0.3-0.4,0.4-0.5
			c-2.4-1.8-4.7-3.7-7.1-5.5c-8.4-6.7-17.7-11.8-26.9-17.1c-2.9-1.7-5.6-3.7-7.2-6.8c-1.3-2.8-0.6-5.3,2.3-6.3
			c1.8-0.6,3.8-1.1,5.7-1c8.6,0.7,16.9,2.4,24.8,6.1c7.3,3.4,11.6,9.5,15.3,16.2c1.9,3.5,3.4,7.2,4.7,11.1c-6.5-8.3-14.9-14.1-24-19
			c3.7,2.8,7.3,5.6,11,8.4c6.3,4.8,11.3,10.7,15.5,17.4c0.8,1.3,1.3,2.8,1.6,4.2c2.1,7.6,4.5,15.1,5.9,22.9
			c1.3,7.5,1.5,15.2,2.1,22.8c0.6,7.7,1.3,15.4,1.9,23.1c0.5,6.1-1.4,11.6-4.4,16.8c-0.3,0.5-0.6,1.1-1,1.5
			c-0.8,0.8-1.7,2.2-2.5,2.1c-2.1-0.1-4.4-0.2-4.9-3.2c-0.4-2.4-1.3-4.6-1.9-6.9C330,369.7,329.8,369.8,329.6,369.8z M336.8,365.5
			c-0.3-13.2-3.4-25.9-7.3-38.4C331.9,339.9,334.3,352.7,336.8,365.5z M339.8,362.9c-1.1,5.1-2.2,10.3-3.3,15.4
			c0.2,0,0.4,0.1,0.7,0.1C339.4,373.5,340.6,368.4,339.8,362.9z"/>
		<path class="st0" d="M168.9,303.3c1.6-4.4,3.5-8.6,4.7-13.1c0.9-3.3,1.3-7,1-10.4c-0.3-3.8-1.8-7.4-2.5-11.2c-2.5-12.7-5.4-25.3-3.9-38.3
			c0.3-2.8,0.3-5.8,1.2-8.4c0.9-2.7,2.6-5.2,4.1-7.7c0.5-0.8,1.1-1.6,1.6-2.3c-0.3-0.3-0.3-0.4-0.4-0.4c-5.9-0.7-8.5-5.1-8.6-11
			c-0.3-10.3,0.3-20.5,1.6-30.7c1.3-9.8,2.1-19.7,3.3-29.6c0.4-3.5,0.9-7.1,2.1-10.4c5.1-14,7.6-28.6,10.5-43.1c0-0.1,0-0.2,0-0.2
			c4.9-10.4,5.2-22,8.1-32.9c1-3.9,2.7-7.6,4.1-11.3c1-2.6,2-5.2,3-7.7c2.5-6.1,7.9-9,13.4-11.6c13.5-6.4,27.9-9,42.6-10.6
			c15.1-1.6,30.2-2.7,45.4-2.1c15.9,0.6,31.7,2.1,47.4,5.2c1.4,0.3,2.8,0.3,4.3,0.2c5.4-0.3,8,0.9,9.8,6c1.8,5.2,2.7,10.7,3.8,16.1
			c1.8,8.7,3.4,17.4,5,26.2c0.5,2.4,1.7,4.2,3.4,6c1.5,1.6,2.8,3.6,3.3,5.7c3,12.4,5.8,24.9,8.7,37.3c0.2,0.7,0.8,1.4,1.3,2.1
			c1,1.4,2.4,2.5,2.9,4c1.7,4.7,3.7,9.4,3.4,14.6c-0.7,13.1-1.1,26.2-1.9,39.4c-0.4,7.5-1.1,14.9-2.2,22.3c-0.6,4-2.5,7.8-3.7,11.7
			c-0.2,0.8-0.3,1.6-0.3,2.5c0,11.9,0,23.7-0.1,35.6c0,1.5,0,3-0.1,4.5c-0.1,2.7-0.3,5.4-1.9,7.8c-0.7,1.1-1.1,2.8-0.9,4.1
			c0.5,3.1,0.1,5.8-1.3,8.6c-0.4,0.8-0.3,2-0.1,2.9c1.6,6.1,2.4,12.6,6.1,18.1c0.3,0.5,0.4,1.1,0.1,2.1c-1.8-1.2-3.6-2.4-5.8-3.9
			c1.5,5,3,9.7,4.4,14.5c-0.1,0.1-0.1,0.1-0.2,0.2c-0.8-1.3-2-2.4-2.4-3.8c-1.8-5.9-3.3-11.9-4.5-18c1.6,2.4,3.2,4.8,4.9,7.2
			c0.1-0.1,0.1-0.2,0.2-0.3c-1.5-4.8-3-9.6-4.3-14.5c-0.4-1.5-0.6-3.1-0.8-4.7c-0.1-1.5-1.1-3.4,1.7-3.7c0.3,0,0.8-1.6,0.6-2.4
			c-0.6-3.5-0.7-6.8,1-10.2c1.1-2.2,1.1-5.1,1.1-7.7c0.1-8.7,0-17.3,0-26c0-3.5,0-7.1,0-10.6c0-3.1-0.4-3.5-2.4-3.6
			c0.6-0.8,1.3-2.6,2.7-3.5c4.7-3.4,3.7-8.7,4-13.1c1.5-16.7,2.2-33.5,3.3-50.3c0.3-4.4-2-8-4-11.4c-3.3-5.6-6.9-11-11-15.9
			c-2.4-2.8-6.1-4.8-9.4-6.7C353.8,97.6,340,94.5,326.1,92c-6.6-1.2-13.2-2.4-19.8-3.6c-0.7-0.1-1.4-0.4-2-0.7c0-0.2,0-0.5,0.1-0.7
			c3.2,0,6.4,0,9.5,0c0.8,0,1.5,0.2,2.3,0.3c4.8,0.4,5.5,0,7.8-4.3c1.6-3,3.2-6.1,4.9-9.1c0.5-1,1.3-1.8,2-2.8
			c0.3,0.1,0.6,0.2,0.9,0.3c-0.2,1.9-0.3,3.8-0.5,5.7c0.4-0.1,1.3-0.4,2.1-0.7c0.7,1,1.3,1.8,2.3,3.1c-3,2.8-6.2,5.7-9.7,8.9
			c2.6,0.5,4.9,1.1,7.2,1.5c11.7,2.2,22.9,6,33.7,11.2c5.1,2.5,9.7,5.7,13.3,10.2c0.7,0.9,1.5,1.7,2.7,3c-0.9-4.9-1.6-9.2-2.5-13.4
			c-1.8-8.5-3.8-17-5.7-25.4c-0.7-2.9-2.6-4.7-5.1-6.5c-3.4-2.5-6.3-5.5-9.3-8.5c-2.1-2.1-3.7-4.6-5.9-6.6c-2-1.8-4.3-3.7-6.8-4.4
			c-9.9-2.7-19.9-5.4-30.1-7.2c-5.7-1-11.8-0.3-17.6-0.4c-10.3,0-20.6-0.4-30.8,0.2c-5.6,0.3-11.2,2-16.7,3.6
			c-11.6,3.4-23.2,6.8-34.5,11.1c-4.4,1.7-8,5.8-11.6,9.1c-5.3,4.9-10.2,10.2-15.3,15.4c-0.5,0.5-1.1,1.2-1.8,1.4
			c-3.2,0.9-4,3.5-4.5,6.3c-2,10.5-4.2,20.9-5.9,31.4c-0.5,2.8-1.4,5.1-2.7,7.4c-3.2,5.7-3.2,12.1-4.1,18.3
			c-2.4,17.1-2.5,34.4-2.5,51.6c0,5,1.7,8.7,6.2,11c0.6,0.3,1.4,0.2,2.2,0.4c0.1,1.9,0.2,3.8,0.3,5.9c-6.2,1.4-6.7,6.6-7,11.4
			c-0.5,7.7-1.2,15.5-0.5,23.2c0.7,7.8,3,15.4,4.6,23.2c0,0.2,0.1,0.4,0.2,0.5c3.3,3.2,1.7,6.9,1.1,10.4
			C175.2,290.8,173.1,297.4,168.9,303.3C168.8,303.3,168.9,303.3,168.9,303.3z M190.4,76.5c0.3,0.2,0.6,0.3,0.8,0.5
			c2.6-2.8,5.2-5.7,7.9-8.4c3.3-3.3,6.3-7.4,10.2-9.6c7.8-4.3,16-8.1,24.4-11.2c13.1-4.9,26.7-8.6,40.9-9c10.2-0.2,20.3,0,30.5,0.2
			c5.4,0.1,10.9,0,16.3,0.8c6.9,1,13.8,2.7,20.6,4.5c6.5,1.7,12.4,4.5,16.2,10.6c2,3.2,5,5.9,7.5,8.8c0.9,1,2,1.9,3,2.9
			c0.2-0.1,0.4-0.1,0.6-0.2c-0.8-4.3-1.6-8.5-2.5-12.8c-2.1-9.9-4.4-19.8-6.6-29.7c-0.7-3.1-2.2-5.3-5.5-5.9
			c-2.9-0.5-5.9-0.8-8.8-1.3c-6-0.9-11.9-2-17.9-2.6c-7.4-0.8-14.7-1.2-22.1-1.6c-9.7-0.5-19.3-0.9-29-1
			c-11.2-0.1-22.2,2.2-33.2,4.2c-10.8,2-21.5,4.4-31.5,9.3c-4.2,2.1-7.3,4.9-9.6,8.8C194.8,47,191.7,61.5,190.4,76.5z"/>
		<path class="st0" d="M217.7,127.9c-2.4-1.5-5.1-2.8-7.3-4.6c-1.4-1.2-2.2-3.1-3.3-4.7c-1-1.4-1.7-3.2-4-2.9c-3.3,0.5-4.9,1.5-5.1,4.6
			c-0.2,4.5,0.2,9,0.4,13.5c0,0.4,0.1,0.8-0.3,1.5c-1-1.4-2.1-2.9-3-4.3c-1.2-1.8-2.2-3.8-3.4-5.6c-0.3-0.5-1.2-0.7-1.8-1
			c-0.3,0.6-0.9,1.3-0.9,1.9c0.5,6.3,3.6,11,8.9,14.5c-0.8,0.6-1.7,1.2-2.6,2c-0.4,0.3-0.9,1.2-0.7,1.4c0.3,0.5,1,0.9,1.5,0.9
			c1.1,0,2.1-0.2,3.5-0.4c-4.6,3-9.7,5.2-12,10.7c8.2-4.9,16.2-9.6,24.1-14.3c0-0.1,0-0.2,0-0.3c-1.6,0.3-3.3,0.7-4.5,1
			c-0.1-1.8-0.1-3.8-0.5-5.6c-0.1-0.7-1.1-1.3-1.7-1.9c-0.5,0.7-1,1.4-1.4,2.1c-0.3,0.6-0.3,1.2-0.4,1.6c-0.5-5.6-1.2-11.3-1.6-17.1
			c-0.1-1.1,0.7-2.2,1.1-3.3c0.3,0,0.6,0.1,1,0.1c0.5,1,0.9,2.1,1.4,3.1c1,1.9,1.9,4,3.3,5.6c2.3,2.5,4.7,4.7,4.4,8.6
			c-0.1,0.9,1.6,2.6,2.7,2.8c4.6,0.9,9.2,1.2,13.7-1.3c2.3-1.3,5.5-1.1,8.3-1.5c2.8-0.4,5.7-0.7,8.5-1.1c0.4,0,0.7-0.4,1.5-0.8
			c-5-2.3-9.5-0.4-14.5-0.2c4.2-3.6,6.4-7.9,6.9-13.9c3.3,8.1,8.4,13.8,15.3,18c-8.3,1.7-16.5,3.2-24.5,5.2
			c-14.1,3.5-27.4,9.3-39.3,17.6c-7.8,5.5-12.3,13.6-16.2,22.2c-1.1,2.3-1.9,4.8-3.2,7.1c0-0.8,0-1.6,0-2.4
			c0.2-11.4,0.3-22.7,0.7-34.1c0.4-11.1,3.2-21.6,9.7-30.5c3.3-4.5,7.9-8.1,12.3-11.5c9.5-7.4,20.6-11.4,32.3-14.8
			c-6.6-4.5-5.7-11.9-7.3-18.3c-0.3-1-0.3-2.1-0.5-3.1c0.3-0.1,0.5-0.2,0.8-0.3c0.9,2.5,1.8,4.9,2.8,7.7c0.3-1.9,0.5-3.4,0.8-4.9
			c0.3,0,0.5,0,0.8,0c2,5.9,0.6,12.9,5.9,18.1c3.8-0.8,8.3-1.7,12.6-2.6c-1.8,5.4-3.5,10.8-5.2,16.1c-3.1-2.1-7.2-2.3-11-0.2
			c-3.3,1.9-6.6,4.2-6.4,9c0.9-1.2,1.7-2.5,2.8-3.6c2.2-2.4,5.9-2.2,7.9,0.5c3.8,5.2-0.1,13.9-6.8,14.6c-1.8,0.2-3.8-0.6-5.6-0.9
			c0.5,0,1-0.1,2.2-0.2c-6.4-4.7-8.1-12.9-15.2-16.1c2.2,3.7,4.4,7.3,6.9,10.7C214,124.4,216,126.1,217.7,127.9z M235.2,101.6
			c-1.3-0.2-2.1-0.5-2.8-0.4c-2.3,0.1-4.7,0.2-7,0.5c-5.9,0.8-11.7,2.3-16.9,5.5c-0.9,0.5-1.6,1.4-2.4,2.1c0.1,0.1,0.2,0.2,0.3,0.3
			C215.7,106.9,225.1,104.4,235.2,101.6z M184,149.2c0.1,0,0.2,0,0.4,0c0,0.8-0.2,1.6,0,2.2c0.3,0.9,1,1.7,1.5,2.6
			c0.8-0.6,1.8-1.1,2.4-1.9c0.4-0.4,0.5-1.2,0.6-1.9c0.3-3.8-0.1-7.6-2-11c-0.4-0.8-1.4-1.2-2.1-1.8c-0.3,0.8-0.8,1.6-0.8,2.4
			C183.9,143,184,146.1,184,149.2z M219,124c3,2,6.1,1.1,7.8-1.4c1.8-2.7,1.3-5.6-1.9-7.7C225.7,119.7,225,123.5,219,124z
			 M180.5,150.9c0.4,0,0.7-0.1,1.1-0.1c-0.4-4.3-0.9-8.7-1.3-13c-0.3,0-0.6,0.1-0.8,0.1C179.7,142.2,180.1,146.6,180.5,150.9z"/>
		<path class="st0" d="M278.5,79.3c5.9,0.2,12.8,2,19.4,5.9c7.4,4.3,12.5,10.1,14.9,18.2c3.5,11.9-2,24.4-13.6,31.4c-8.5,5.1-17.7,7.1-27.3,5.1
			c-5.1-1.1-10.5-1.9-15.2-5.1c-4.6-3.2-8.7-6.6-11.5-11.4c-8-13.6-3.4-29.9,10.6-38.3C262.3,81.1,269.3,79.3,278.5,79.3z
			 M247.5,110.6c0.3,4.7,1.9,8.7,4.5,12.3c10.1,13.4,30.4,16.7,44.3,7.2c10.9-7.4,14.5-20.6,8.5-31.4c-10.1-18.2-38.5-20.9-51.9-4.8
			c-3.1,3.7-5.2,7.9-5.2,13.1c3.5-5.9,8.3-8.1,14.8-5.7c7-9.2,21.2-7.7,27.1-1.3c4.3,4.6,4.1,10.8-0.7,14.9
			c-4.6,3.8-9.9,4.7-15.6,3.5c-5.5-1.1-9.7-3.9-11.9-9.3C254.7,115.1,251.8,115.5,247.5,110.6z M273.5,112.2c-2.7-1.4-4.8-2.6-7-3.6
			c-0.6-0.3-1.5-0.1-2.3-0.1c0.1,0.7,0.1,1.4,0.3,2c2.5,5.2,7.4,7.2,12.6,7.5c4.7,0.3,9-1.9,12.3-5.4c1.3-1.3,2.1-3.2,0.5-5.3
			c-0.5,0.9-0.8,1.6-1.2,2.2c-1.8,2.8-4.1,3.6-6.8,2.7c-1.1-0.4-1.6-0.8-1.3-2.2c0.7-2.9,0.1-3.6-3.1-4.5c-0.1,1.7,1.4,3.6-0.5,4.9
			c-1.2-1.1-2.3-2.1-3.9-3.6C273.3,109,273.4,110.2,273.5,112.2z M276.1,104.6c1.2-0.5,2.7-1.8,4.3-1.8c1.4,0,3.4,1.1,4,2.3
			c0.6,1.3-0.2,3.2-0.5,5.1c0.4-0.1,1-0.1,1.4-0.3c2-1.2,3.1-5.5,2.2-8c-1-2.7-4.5-5.6-6.8-5.1c-2.6,0.5-5,1.5-7.5,2.3
			C274.3,100.9,275.1,102.6,276.1,104.6z M309.7,115.5c2.2-2.1,3-4.6,2.7-7.4c-0.9-9.5-11.2-21.7-20.4-24.2c-0.2,0-0.4,0.1-1.1,0.3
			c9.3,4.3,14,12,18.1,20.3c1.4,2.9,2.1,5.8,1,8.9C309.8,114.1,309.8,114.8,309.7,115.5z M250.8,92.9c-8.4,6.3-11.3,22.1-4.5,26.8
			c-2.4-5-2.1-9.4-0.6-13.7C247.2,101.8,248.9,97.7,250.8,92.9z M261.6,83.9c-1.4,0.6-2.3,0.8-2.9,1.3c-2.2,1.6-4.4,3.2-6.6,5
			c-0.3,0.3-0.3,1.2-0.2,1.8c0,0.2,1.1,0.5,1.2,0.3C255.8,89.6,259.5,88.1,261.6,83.9z M267.6,106.9c-2.3-3.8,0.5-6.3,2-9.3
			c-3.4,0.4-5.3,2.6-5.4,5.6C264.2,105.2,264.7,106.7,267.6,106.9z"/>
		<path class="st0" d="M254.1,311.5c0.4-1.2,0.8-2.3,1.1-3.5c0.2-0.8,0-1.6,0-2.5c-0.7,0.4-1.5,0.6-2,1.1c-2.7,2.7-5.4,5.5-8.5,7.9
			c0.8-1.3,1.5-2.6,2.3-3.9c-0.1-0.2-0.2-0.4-0.3-0.6c-1.9,1-3.8,1.9-5.6,3c-1.9,1.1-3.6,2.3-5.7,3.6c0.7-3,3.3-5.1,2.6-8.7
			c-0.9,0.9-1.5,1.4-1.8,1.7c0-3.3,0-6.9,0-10.4c0-0.9,0.3-1.8,0.6-2.7c4.5-11.8,10.1-19.6,24.4-20.5c8.8-0.5,17.6-0.8,26.5-0.9
			c1.9,0,3.9,1.5,5.7,2.7c0.5,0.3,0.5,2.1,0.1,2.7c-2.4,3.2-5.8,4.6-9.6,4.6c-3.4,0-6.9-0.3-10.3-0.7c-2.7-0.2-4.8,0.4-6.6,2.7
			c-1.4,1.7-3.4,2.9-5.8,4.7c3.7,0.3,6.9,0.9,10.1,0.8c5-0.2,9.7,0.6,14,3.2c2.8,1.7,5.4,3.4,5.6,7.3c0.1,1.9,1,3.9,1.1,5.9
			c-2.3-3.4-4.6-6.8-7-10.1c-0.4-0.5-1-0.8-1.5-1.2c-0.2,0.6-0.6,1.3-0.5,1.9c0.1,1.4,0.5,2.8,0.8,4.7c-1.9-2.5-3.5-4.5-5.1-6.5
			c-0.5-0.6-1.2-0.9-1.8-1.3c-0.2,0.8-0.5,1.5-0.6,2.3c-0.1,0.4,0,0.8,0,1.7c-1.4-1.9-2.6-3.5-4.2-5.7c-2,4.1-3.8,7.9-5.8,12
			c-0.4-2.1-0.8-3.9-1.2-6c-3.4,3.9-6.7,7.6-10,11.3C254.6,311.8,254.4,311.6,254.1,311.5z"/>
		<path class="st0" d="M334.2,438.3c1.4-6.9-1.7-13-3.3-19.3c-2-7.6-1.9-15.3,1.2-22.7c0.9-2.1,4.4-4.2,6.7-3.8c0.4,0.1,1,0.5,1.1,0.8
			c1.8,4.6,3.6,9.3,5.3,14c3.3,9.7,0.4,18.1-5.3,25.9c-1.4,1.9-3.2,3.6-4.7,5.4C334.8,438.5,334.5,438.4,334.2,438.3z M337.4,396
			c0.9,5.3,2.3,10.1,2.4,15c0.2,4.8-0.8,9.7-1.3,14.3C343.2,421,342.9,403.6,337.4,396z"/>
		<path class="st0" d="M177.8,216.5c1.2,3.1,2.4,6.2,3.5,9.2c0.2,0.5,0.2,1,0.3,1.5c0.3,7.1,1,14.3,0.7,21.4c-0.1,4.7-1.6,9.3-2.4,14
			c-0.7,4-1.4,8.1-2.3,12.8c-0.6-1.3-1.1-2.1-1.3-3c-1.6-6.9-3.2-13.9-4.5-20.9c-0.5-2.7-0.2-5.6-0.1-8.5c0.3-6.1,0.5-12.3,1.1-18.4
			C173.2,221.2,174,217.6,177.8,216.5z"/>
		<path class="st0" d="M192.3,171.2c0.7,10.1-5.5,41.4-10.8,51.2c-0.5-3.1-1.2-6.2-1.6-9.3c-0.3-2.7,0.1-5.5-0.7-8c-3.2-10.4,2.6-18.5,6.8-27
			c1.4-2.7,3.6-5,5.5-7.5C191.8,170.9,192.1,171,192.3,171.2z"/>
		<path class="st0" d="M326.4,445.5c1-1.5,1.7-2.9,4.1-2.9c1.3,0,2.7-0.9,3.8-1.8c8-6.5,13.7-14.3,14.2-25.1c0.2-4.5-1.2-8.6-2.9-12.6
			c-1.7-4.1-3.4-8.2-4.6-12.5c-0.7-2.4-0.4-5-0.6-7.5c0-0.2,0.3-0.6,0.3-0.6c-2.3-2.9,0.3-4.7,1.7-6.5c5.2-6.6,5.3-14.1,4.4-21.9
			c-0.1-1.3-0.3-2.7-0.4-4.5c2.9,3,5.4,5.7,8,8.3c0.2-0.1,0.5-0.2,0.7-0.3c0-5.4,0-10.8,0-16.7c1.8,3.6,3.4,6.9,5.1,10.2
			c0.3-0.1,0.5-0.2,0.8-0.3c0.4-5.6,0.8-11.2,1.3-17.6c2.3,3.2,4.2,5.8,6.3,8.7c3.6-5.5,2.3-11.3,2.5-16.1c1.9,1.6,4,3.5,6.2,5.3
			c0.8,0.7,1.7,1.7,2.7,1.8c2.2,0.2,1.8,1.7,2.2,2.8c-0.2,0.3-0.5,0.5-0.7,0.8c-3-2.3-6.1-4.7-9-6.9c-0.4,4.1-0.8,8.5-1.3,13
			c-0.1,0.8-0.5,1.5-0.7,2.3c-0.7-0.4-1.6-0.7-2.2-1.4c-1.7-1.8-3.2-3.8-5-5.9c-0.4,5.3-0.8,10.3-1.2,15.3c-0.1,0.6-0.5,1.3-0.8,1.9
			c-0.6-0.4-1.3-0.7-1.7-1.3c-0.9-1.2-1.7-2.5-2.6-3.9c0,3.3,0,6.4,0,9.4c0,0.6-0.2,1.3-0.3,1.9c-0.7-0.1-1.5-0.1-2-0.5
			c-1.7-1.2-3.3-2.6-5.1-4.1c0,1.2-0.1,2.2,0,3.2c0.7,7.1-1.5,13.1-6.4,18.2c-1.7,1.8-2.4,3.6-1.3,5.9c0.3,0.7,0.5,1.5,0.5,2.2
			c-0.4,6.2,2.4,11.6,4.6,17.1c3.7,8.9,4.1,17.9-0.5,26.6c-3.7,7-8.5,13.1-16.4,16c-1,0.4-2.1,0.6-3.1,0.8
			C326.6,446.1,326.5,445.8,326.4,445.5z"/>
		<path class="st0" d="M208.5,447.1c-6.9,22.9-8.4,45.5,3.6,67.9c-8.5-7.6-13.6-30.7-9.4-55.1c-1.2,1.9-2.4,3.7-3.5,5.6
			c-7,12.3-16.5,22.5-27.3,31.4c-2.4,2-5.8,2.8-8.7,4.2c-0.2-0.3-0.4-0.6-0.6-0.9c0.6-0.5,1.3-1,1.9-1.6c2-1.7,3.9-3.5,6-5.2
			c0.9-0.7,2.1-0.9,3-1.6c10.6-8.2,19.1-18.2,26-29.6C202.6,457.3,205.5,452.2,208.5,447.1z"/>
		<path class="st0" d="M212.6,484.5c-1.5,9.2-1.3,17.7,1.3,25.9c0.8,2.6,2.2,5,3.3,7.5c0.2,0.5,0.4,1.1,0.4,1.6c0,0.1-0.7,0.3-1,0.4
			c-0.2-0.5-0.3-1-0.5-1.4c-1.3-2.7-2.9-5.3-3.8-8.1c-3.5-10.7-2.3-21.6,0-32.4c0.1-0.3,0.2-0.6,0.4-1c4.4,29.7,20.3,51.5,45.2,67.5
			c-0.2-0.5-0.4-1-0.6-1.5c0.2-0.1,0.4-0.3,0.5-0.4c1.2,1.5,2.3,3,3.5,4.5c-0.2,0.2-0.4,0.4-0.6,0.6c-11.8-6.8-22-15.5-30.6-26.1
			C221,511,215.9,498.5,212.6,484.5z"/>
		<path class="st0" d="M298.1,137.5c9.2-1.9,18.3-0.8,27.4,1.1c8.3,1.7,16.7,3.2,24.8,5.6c16.9,5,28.9,15.5,33.8,32.9c1.6,5.6,1.9,11.5,0.9,17.3
			c-0.6-4.6-1-9.3-2-13.8c-2.2-9.9-6.5-18.9-14.6-25.3c-6.4-5-13.9-8-21.7-10.3c-11.7-3.4-23.8-5-35.8-6.8
			C306.7,137.6,302.4,137.7,298.1,137.5z"/>
		<path class="st0" d="M332.5,115.5c1.8,4.6,4,4,6,1.6c4.7-5.6,0.9-14.8-6.7-16.5c-9.9-2.2-15.3,6.1-14.9,12.8c0.1,2.8,0.8,5.6,1.2,8.1
			c-5.2-8.7-1.3-20.8,7.7-22.7c4.8-1,9.3-0.1,12.8,3.4c3.4,3.3,4.3,7.5,3.1,12.1c-0.7,2.8-2.6,4.7-4.9,6.1c-1.8,1.1-4.6-0.3-5.1-2.8
			c-0.4-1.8,0.1-3.8,0.2-5.7c0.3,0,0.6,0,0.8,0c0,0.9,0,1.7,0,2.8c1.5-1.9,1.6-4.1,0.4-5.1c-1.4-1.1-4.2-0.5-5.3,1.2
			c-1.5,2.3-0.5,6.4,2,8.1c0.5,0.4,1.1,0.7,1.9,1.1c-3.9-0.3-6.6-4-6.1-8.1c0.3-3.2,3-5,6.6-4.5c1.8,0.2,3,1.1,3,3
			C335.1,112.6,335.7,115,332.5,115.5z"/>
		<path class="st0" d="M264.1,262c3.7-3.2,10.1-1.8,12.4-7.2c1.8,2.1,3.5,4.1,5.1,5.9c-1.8,0.9-3.8,1.7-5.7,2.8c-2.1,1.2-4.2,1.3-6.5,0.4
			C267.7,263.2,266,262.7,264.1,262z"/>
		<path class="st0" d="M354,57.9c3.9,2.9,5.4,6.4,7.2,9.6c1,1.9-1.8,6.9-3.8,7.7c-1.1-3.7-2.4-7.3-3.3-11.1C353.6,62.4,354,60.4,354,57.9z"/>
		<path class="st0" d="M339.3,130c0-0.1,0.1-0.2,0.1-0.2c4.6,0.1,6-3.1,7.1-6.7c1.1-3.3,3.1-5.9,6-7.8c1-0.6,2.4-0.7,3.7-0.6
			c-3.1,1.8-4.5,4.6-5.4,7.7c-1,3.3-2.5,6.2-5.3,8.3C343.2,132.4,340.8,132,339.3,130z"/>
		<path class="st0" d="M358.7,127.5c0.6-1.8,1-3.7,1.8-5.4c1.7-3.8,0.8-7.2-1.3-10.5c-0.5-0.7-0.4-1.8-0.6-2.7c0.9,0.3,2,0.3,2.6,0.9
			c4.8,4.1,5.3,11.9,1.1,16.5c-0.8,0.8-2,1.2-3,1.9C359,128,358.9,127.7,358.7,127.5z"/>
		<path class="st0" d="M347.5,99.9c-11.3-1.7-22.6-3.5-34-5.2c0.1-0.3,0.1-0.7,0.2-1C325.5,92.6,336.5,96,347.5,99.9z"/>
		<path class="st0" d="M379.1,134.9c-1.5,0.6-2.5-0.3-2.8-1.9c-0.6-3.2-1.1-6.4-1.6-9.6c-0.4-2.3-0.8-4.5-0.6-7.2c0.5,0.4,1.1,0.8,1.4,1.3
			c2.5,4.2,3.9,8.7,3.7,13.6C379,132.3,379.1,133.5,379.1,134.9z"/>
		<path class="st0" d="M356.3,133.8c1,0.9,2,1.8,3,2.8c2.7,2.5,4.5,2.3,6.8-0.5c0.5-0.6,1.1-1.2,1.7-1.4c0.3-0.1,1,0.7,1.4,1.2
			c0,0-0.2,0.3-0.2,0.4c-0.8,2.8-1.3,6.1-4.8,6.7c-3.3,0.5-4.7-2.4-6.4-4.6c-0.9-1.2-1.6-2.7-2.4-4
			C355.8,134.1,356,133.9,356.3,133.8z"/>
		<path class="st0" d="M363.7,80.1c3.9,0.6,3.9,0.6,2.7,3.8c-1,2.8-2,5.7-3.2,8.5c-0.3,0.7-1.4,1.1-2.1,1.6c0-0.9-0.4-1.9,0-2.6
			c1.7-3.4,3-6.7,1.3-10.5c-0.4-0.8-0.1-2,0.2-3c0.8-3,1.6-5.9,2.3-8.5c0,1.4,0.1,3.3,0,5.2C364.7,76.4,364.1,78.1,363.7,80.1z"/>
		<path class="st0" d="M383.2,318.2c-0.4-0.7-0.9-1.4-1.1-2.1c-0.9-5.1-1.8-10.2-2.6-15.3c0.8,0.7,1.7,1.5,2.8,2.1c1.5,0.8,3.3,1.1,4.6,2.1
			c1.3,1,2.2,2.6,3.3,4c-0.2,0.2-0.4,0.5-0.7,0.7c-2.4-1.3-4.9-2.6-7-3.8c0.4,3.9,0.9,7.9,1.3,12C383.6,317.9,383.4,318,383.2,318.2
			z"/>
		<path class="st0" d="M378.9,105.5c-2.2-0.3-4.8-3.3-4.7-5.2c0.1-2.9,0.1-5.8,0.2-8.8c0-0.5,0.5-1,0.8-1.6c0.5,0.4,1.3,0.6,1.4,1.1
			c0.9,4.7,1.7,9.3,2.6,14C379.1,105.2,378.9,105.4,378.9,105.5z"/>
		<path class="st0" d="M380.3,332.1c-2.7-2.6-4.6-13-3.5-20.1c1.4,2.8,4.5,4.2,4.2,8.2c-1.1-1.3-2-2.3-2.8-3.3c-0.2,0.1-0.5,0.1-0.7,0.2
			C378.4,322,379.4,327,380.3,332.1z"/>
		<path class="st0" d="M254.9,267.6c-6.3,4.6-12.7,9.3-18.8,13.7C240.9,275.1,248.3,271.8,254.9,267.6z"/>
		<path class="st0" d="M361.2,108c-2.6-0.5-6-3.9-6.3-6.5C357.8,101.9,361.2,105.4,361.2,108z"/>
		<path class="st0" d="M375,144.1c-1.2,1-1.9,2-2.6,2c-1.9,0-2.2-1.7-1.9-3.1c0.2-0.9,1.2-1.6,1.8-2.3C373.1,141.7,373.9,142.7,375,144.1z"/>
		<path class="st0" d="M368.9,301.9c-4.3-3.6-1.2-7.7-1.2-11.5C368.1,294.2,368.5,297.9,368.9,301.9z"/>
		<path class="st0" d="M323.7,121.8c1.7,1,2.9,1.5,4,2.2c1,0.7,2,1.4,3,2.2C329.1,128,326.4,126.6,323.7,121.8z"/>
		<path class="st0" d="M382.3,319.2c1.9,1.1,3.6,2.3,3.1,5C382.9,323.4,381.5,321.1,382.3,319.2z"/>
		<path class="st0" d="M357,24.2c2.9,3,9.2,30.5,8,35.4c-0.7-0.6-1.4-1-1.9-1.6c-5.8-7.7-8.2-16.1-6.6-25.7C357,29.7,356.8,27,357,24.2z"/>
		<path class="st0" d="M274.6,129.3c10.6,0.4,19.2-3.8,26.9-10.7C298.5,127.1,281.5,133.9,274.6,129.3z"/>
	</g>
</g>
</svg>
