<?xml version="1.0" encoding="utf-8"?>
<!-- Generator: Adobe Illustrator 18.1.1, SVG Export Plug-In . SVG Version: 6.00 Build 0)  -->
<svg version="1.1" id="图层_1" xmlns="http://www.w3.org/2000/svg" xmlns:xlink="http://www.w3.org/1999/xlink" x="0px" y="0px"
	 viewBox="0 0 560 560" enable-background="new 0 0 560 560" xml:space="preserve">
	 <style type="text/css">
	.st0{fill:#FFFFFF;}
</style>
<g>
	<g>
		<path class="st0" d="M171.7,488.1c2.4-3.6,4.8-7.3,7.2-10.9c0.2,0.1,0.4,0.2,0.6,0.3c-11,19.8-20.8,40-21,63.4c-1.2-3.4-1.3-6.9-1.2-10.4
			c0.1-5.3,1.3-10.4,2.6-15.6c1.5-6.2,3.9-12.2,4.7-18.7c0.1-1.1,2-1.7,2.5-3.2c2.7-8.8,6.1-17.3,10.4-25.4c0.5-1,1.1-2.2,0.5-3
			c-2-2.8-0.4-5.3,0.2-7.9c0.2-1,0.5-2,0.9-3.7c-5.4,3.9-8.1,9.4-12.4,13.5c0.7-4.9,3.8-9,4.9-14c-2.6,0.6-3.8,3.5-6.5,3.4
			c-1.2-2.4,1.4-4.3,0.7-6.8c-2.5,1.6-5,3.2-7.7,5c-2-3.5,0.5-6.6,0.6-10.2c-2.2,1.4-4.1,2.6-6.6,4.2c1.5-5.9,3.2-11.2,3.9-16.9
			c-2.5,0.7-3.1,3.4-5.6,4.4c1.7-8.3,3.9-16.2,4.2-25.1c-2.8,2.5-3.5,6-6.7,8.1c2.9-9.4,4.7-18.4,5.7-27.8c-1.4,0.3-1.4,1.9-2.7,2.1
			c-0.9-0.7,0.1-1.9-1-3c-2.8,13.9-3.6,27.9-8.2,41.5c2.5-1,3.3-3.5,6-4.3c-2.6,11.8-3.9,23.5-7,34.8c1.4,0.5,2.2-0.8,3.6-0.6
			c-2.3,3.8-5.5,6.3-8.5,9c5.6-11.6,5.7-24.5,8.7-36.7c-4,4.1-6.8,9.2-11.1,13.2c-0.7-1.3-0.1-2.3,0.4-3.1
			c6.8-10.6,9.2-22.6,11.1-34.8c0.2-1.5,0.1-2.6-1.2-3.7c-1.5-1.2-2.3-3.1-2.7-4.9c-2.1-9.8-4.1-19.6-6.1-29.4
			c-0.8-4.3-0.8-8.6-0.4-12.9c0.9-8.5,0.2-17.1,1.5-25.6c0.4-2.5,0.9-4.9,2-7.2c1.2-2.6,3.1-4.4,5.9-5.1c1.7-0.4,1.8-1.2,1.8-2.8
			c0.1-4.1-0.5-7.1-5.3-8.9c-4.7-1.8-6.8-6.2-6.8-11.5c-0.2-19.4-0.2-38.9,1.5-58.3c1.1-12.1,1.6-24.3,5-36.1
			c0.1-0.2,0.1-0.5,0.2-0.8c7.8-17.1,9.2-35.8,12.9-53.9c0.7-3.6,1.5-7.3,2.3-10.9c0.6-2.8,2-5.1,4.5-6.7
			c6.4-3.9,11.7-9.1,16.7-14.6c4.7-5.1,9.2-10.3,14.2-15.1c6.6-6.3,14.8-9.8,23.3-12.5c18-5.7,36-11.6,54.5-15.6
			c7.7-1.7,15.5-1.5,23.2-1.6c17.4-0.3,34.9,0.1,52.3,0.8c8.6,0.3,16.9,2.4,25.1,4.8c5.4,1.5,10.8,3,16.2,4.6
			c5.7,1.6,10.5,4.7,14.3,9.3c6.2,7.6,13.2,14.4,21,20.3c3.5,2.6,5.5,6,6.5,10.2c4,16.9,8.1,33.8,10.6,51c0.1,0.5,0.1,1,0.2,1.6
			c-1.2,0.1-1.5-0.9-2-1.5c-6.3-8.1-14.7-13.5-23.9-17.7c-16.3-7.6-33.4-12.5-51.1-15.5c-0.9-0.2-1.9-0.3-3-1c4-4.8,9.5-8,13.3-13.2
			c-2.4-0.8-2.5-5.6-7-2.4c1.2-3.3,2.6-5.9,0.4-8.4c-1.5-0.1-1.9,1-2.5,2c-2.9,5.4-5.9,10.8-8.8,16.2c-2.5,4.5-3.8,5-8.8,4.5
			c-4.8-0.4-9.6-0.6-14.5-0.9c-1.2-0.1-2.6-0.2-3.7,0.8c0.4,1.8,2,1.6,3.1,1.8c16.4,3.1,32.8,5.6,49.1,9.4
			c15.8,3.7,30.6,9.6,44.1,18.6c1.9,1.3,3.7,2.6,5.1,4.4c7.9,10.1,15.5,20.3,20.8,32.1c0.9,2,1.2,4,1.3,6.3
			c0.1,17.7-2.5,35.1-3.4,52.7c-0.5,8.1-0.7,16.2-1.4,24.3c-0.5,5.9-1.4,11.7-6.2,16c-1.6,1.4-3.4,2.5-5.6,3.5
			c5.6,1.3,5.6,1.4,5.6,7c0,11.7,0.2,23.3,0.7,35c0.4,8.4-0.8,16.7-1.6,25.1c-0.2,1.7-1,3.3-1.7,4.9c-1.6,3.2-1.7,6.6-0.9,9.9
			c0.9,4.1,1.3,4.5-3.3,6.4c1,10.4,2.7,20.8,8.1,30.9c-2.2-1.1-3.1-2.3-4-3.6c-0.9-1.3-1.6-2.6-2.9-3.8c0.6,3.5,1.1,6.9,1.8,10.4
			c0.7,3.6,1.5,7.1,2.8,10.5c1.3,3.4,3.2,6.4,5.6,9.8c-4.2-1.1-6.4-4.4-10-5.9c1.1,5.3,2.1,10.2,3.1,15.2c0.3,1.5,0.7,3.1,0.7,4.6
			c0.1,2.9,1.3,5.2,3.3,7.6c-1.6,0.2-2.7-1.3-4,0.6c-0.9-4.7-3.4-7.7-6.8-10.8c-0.5,10.2-0.2,19.7,4.5,28.7
			c-5.3-2.2-8.1-7.2-12.7-11c0,8.4,1.2,16.5-3.5,24.2c-3-4-5.8-7.7-8.6-11.4c-0.2,0.1-0.4,0.1-0.6,0.2c-0.6,8-1.3,16-2,24.7
			c-3.4-3.9-5.1-7.8-5.7-12.3c1.1,1.9,2.1,3.7,3.2,5.6c1.5-7.7,2.1-15.3,3.6-23.4c3.4,4.7,6.8,8.8,9.7,13.9
			c3.2-8.8,2.1-17.4,1.5-26.5c3.9,3.3,6.3,7.2,10.4,9.9c-1.5-9-3.4-17.6-0.8-26.5c2.3,1.9,3.5,4.5,6.2,6.3c-0.6-8.6-3.4-16.3-5-24.7
			c2.4,1.4,3.9,3.5,6.7,4.5c-4.4-13-6.5-26-8.2-39.5c1.8,0.7,1.6,2.6,3.4,3.5c-3.8-19-3.3-38.3-10.1-56.7c1.6,0.6,1.6-0.4,1.7-1.4
			c0.7-6.4,0.5-12.9,1.2-19.4c0.8-7,3.3-13.6,4.4-20.5c1.5-9.6,2.2-19.2,2.5-29.2c1.8,2.2,1.4,4.7,1.8,7.2c1.4-1.8,1-3.6,0.7-5.3
			c-3-17.5-11.5-31.5-26.8-40.9c-5.7-3.6-11.6-6.8-17.9-9.3c-0.8-0.3-1.5-0.9-2.8-0.7c3.8,5.1,5.6,10.5,4.1,16.7
			c-1.1,0.2-1.8-0.5-2.7-0.9c-7.4-3.5-15.2-5.7-23.3-6.8c-5.9-0.8-11.8,0.4-17.2,2.9c-11.6,5.2-22.2,12.3-33.4,18.2
			c-1.5,0.8-3.5,1.8-2.5,4.1c0.9,2.3,2.7,2.7,5,2.7c8.4,0.1,16.1-2.6,23.6-6c9.7-4.4,21.6-2.2,29.1,5.1c4.1,4,8.2,8.1,12.2,12.4
			c3.1,3.3,6.6,5.8,11,6.9c5,1.2,8.1,5.1,12.2,7.6c0.4,0.3,0.5,0.9,0.3,1.7c-4.5-0.5-7.8-4.1-12.2-5c0.6,1.8,1.3,2.5,4,4.3
			c1.8,1.2,3.6,2.4,5.3,3.7c1.7,1.2,3.4,2.4,4.2,4.6c-1.2,0.2-2-0.5-2.8-0.9c-6.6-3.9-12.7-8.6-19-13c-6.7-4.7-13.3-9.7-21.4-11.9
			c-5.9-1.6-11.9-2.2-18-1.8c-0.5,0-1.1-0.1-1.5,0.7c6,2.9,12.7,4.2,18.5,7.7c-6.2-1.3-12.5-2.2-18.8-2.3c-3.6-0.1-7.2,0-10.9,0.4
			c-3.4,0.4-6.7,0.3-9.6-1.9c-1.9-1.4-2.7-0.8-3.1,1.4c-0.4,3.3,0,6.3,2.3,8.9c2.4,2.7,4.6,5.7,6.6,8.6c5,7.2,11.6,11.2,20.6,11.5
			c7.3,0.3,14.6,1.3,21.9,2c7.1,0.6,10.1-2.4,9.7-9.5c-0.1-0.9-0.3-1.9,0.2-2.8c8,2.6,16.6,18.7,15.5,29.7
			c-3.9-5.4-7.9-9.7-14.2-11.7c-6-1.9-11.8-3.5-18.3-3.2c0.5,1.7,2.7,1.5,2.7,3.4c-3.1-0.4-6.2-0.8-9.4-1.1
			c-7.5-0.6-15-1.2-21.8-5.1c-4.1-2.4-8-5.1-11.8-8c-1.1-0.9-2.3-1.7-4-3c0,4.5,1.7,7.5,4,10.3c2.3,2.8,4.7,5.5,6.9,8.4
			c-3.4-0.7-6-2.6-8.2-5.1c-5.9-6.8-11.4-13.9-16-21.7c-4.6-7.7-8.2-16-11.9-24.2c-2.8-6.3-8.7-9.3-15.4-7.5
			c-1.8,0.5-3.6,1.4-5.5,0.1c1.5-2.6,4-3.6,6.5-4.4c1.5-0.5,3-0.9,4.5-1c2.6-0.2,2.8-1.7,1.9-3.6c-1-2.2-1.6-4.4-1.5-6.8
			c0.1-1.3,0.3-2.6,1.7-3.3c1.3,1.5,1.2,3.4,1.7,5.1c1,3.6,2.3,4.3,5.9,3.6c8.1-1.8,15.5-5.2,22.5-9.7c9.7-6.2,19.7-11.5,31.1-13.7
			c0.4-0.1,0.7-0.4,1.1-0.5c-0.3-1-1-0.7-1.5-0.7c-16.6-0.7-33.1,0.8-49.5,3.9c-9,1.7-17.9,0-26.7-1.6c-7.6-1.3-15.1-2.6-22.5-4.7
			c-3.2-0.9-6.3,0.1-9.5,0.7c-12.2,2.6-24.6,4.7-36.5,8.7c-13,4.4-24.3,11.5-34.6,20.4c-1.4,1.2-1.4,2.6-1.4,4.2
			c-0.2,20.4-2.7,40.5-9.3,59.9c-1.5,4.3-3.2,8.6-4.9,12.8c-0.9,2.2-1.4,4.4-1.2,6.8c0.7,9.6,0.8,19.3,1.9,28.9
			c0.6,5.1-0.6,10.1-1.2,15.2c-0.2,1.5-0.3,3.1-0.5,4.9c2.1-0.8,2.1-3.6,4.8-3.9c-1.2,8.1-2.4,16.1-3.7,24.2
			c1.7-0.2,1.9-2.2,3.8-2.4c-0.5,8.7-1.9,17.2-3.4,25.9c1.6-0.1,1.9-1.3,2.6-2.1c0.7-0.8,1.4-1.7,2.8-2.2c-0.5,6.6-3.2,12.5-4.7,19
			c3-1.2,4.4-4.2,7.8-4.7c-1.9,3.6-2.2,7.4-3.2,11.4c4.2-2.1,7.6-5.1,12.1-6.7c-1,3.1-3.7,5.3-3.4,9.4c3.1-3.5,5.7-6.5,8.3-9.4
			c0.3,0.1,0.6,0.2,0.9,0.4c-0.4,3.4-3.2,6.3-3.4,10.1c3.3-2.4,5.7-5.4,9.5-7.8c-1.2,4.2-2.3,7.9-3.5,11.8c1.9-0.5,2-1.9,2.5-2.9
			c4.4-10.1,7.3-20.7,11.7-30.8c4.6-10.4,9.4-20.6,16.7-29.4c12.3-14.8,27.6-24.6,46.8-28c0.4-0.1,0.8-0.2,1.6-0.3
			c-1.9-2.3-4.3-2.6-6.8-2.9c-2-0.2-4-0.2-5.9-0.3c-5.1-0.4-8.2-3.1-9.7-8c-0.1-0.5-0.3-1-0.5-1.5c-0.1-0.2-0.2-0.3-0.6-0.8
			c-11.3,19.8-26.2,36.6-41.8,52.9c-0.5-0.8,0-1.1,0.3-1.5c15.4-19.8,28.9-40.9,41.4-62.7c3-5.3,7-9.6,11.9-13.2
			c0.8-0.6,1.5-1.4,2.9-1.1c-0.3,2.8-1.7,5.2-3,7.6c-2,3.6-4.1,7.2-5.4,11.2c-0.5,1.5-1,2.9-1.1,4.5c-0.4,6.3,2.8,8.7,9.1,6.6
			c-0.8-1.5-1.6-3-2.3-4.5c-0.9-2.3-0.2-3.9,2.1-4.4c4.2-0.9,8.5-1.5,12.8-0.4c2.5,0.6,4.5,2.1,6.3,3.9c1.7,1.8,2.8,1.9,4.1-0.2
			c2.6-4,6.2-6.5,10.5-8.1c7.3-2.8,11.8-7.8,13.9-15.3c0.2-0.7,0.3-1.5,1.4-2.1c1.1,6,5.9,10.1,8,15.5c1.3,3.4,2.8,5.7,6.7,6.2
			c1.3,0.2,2.5,1.2,3.6,1.9c2.6,1.6,3.5,3.9,2.8,6.9c-0.3,1.1-0.4,2.3-0.7,3.9c3.1-0.3,5-1.9,6.2-4.2c1.5-2.7,1.4-5.7,0.4-8.5
			c-2-5.5-3.9-11.1-6-16.6c-1.2-3.3,0.1-5.4,3.6-5.7c1.4-0.1,2.7,0.3,3.9,1.1c2.5,1.6,4.4,3.9,6,6.4c7.7,11.8,16.2,22.9,26.9,32
			c9,7.6,18.7,13.9,30,17.4c9.2,2.9,12.7,10.2,13.9,19.1c0.8,6,0.1,11.9-1.2,17.7c-0.2,1.1-0.5,2.2-0.8,3.6c1.8-1,2-3.1,4.2-3.7
			c-0.3,4.4-0.5,8.7-0.8,12.9c-0.5,6.2-1.6,12.3-4.2,18.1c-0.4,0.9-0.5,1.6,0.4,2.2c1.5,1.1,3,2.2,4.3,3.2
			c0.1-15.4,4.1-30.4,5.5-45.6c0.3-3.4,1.9-6.4,3.5-9.4c0.6-1.1,1.6-2.4,3-1.9c1.5,0.6,1.2,2.1,0.8,3.4c-2.1,6.4-2.1,13.1-2.2,19.8
			c-0.1,4.6-0.4,9.1-1.1,13.7c-0.5,3.1,0.4,5.5,3.3,7.9c-0.4-7-2-13.5-1.2-19.9c0.9-0.8,1.5,0.4,2.3,0.1c0.1-0.2,0.3-0.4,0.3-0.6
			c0-1.1,0-2.3-0.2-3.4c-0.6-3.2-0.4-6.1,0.4-9.4c1-4.2,0.9-8.7,1.1-13.1c0.5-13,0.4-25.9-1.3-38.8c-0.1-0.7-0.1-1.4,0-2.1
			c1.6,4.9,2.3,10,2.9,15.1c1,8.3,0.7,16.6-0.1,24.8c-0.7,6.6-1,13.1,1.3,19.5c0.3,0.8,0.5,1.7-0.1,2.4c-0.9,0.5-1.3-0.7-2.4-0.5
			c-0.6,5-0.1,10,0.3,14.9c-1.1,1-1.5-0.7-2.5-0.3c-0.3,4.8,1.2,9.5,1.1,14.2c-0.7,0.5-1.3,0.2-1.8-0.1c-0.5-0.3-1-0.6-1.8-1.1
			c-0.1,3.3,2.2,5.7,2.1,9c-3.7-0.9-7.2-1.7-10.8-2.6c-1.4,2.8,0.9,5.4-0.1,8c-1.5,0.2-2.1-1.9-4-1.1c0.9,2.6,1.8,5.1,2.9,8.3
			c-5.5-2-10.5-3.7-15.5-5.5c-1.9,1.9-0.7,4.5-1.5,6.8c-2.6-0.9-3.6-3.4-5.6-4.9c-0.8,2.3-0.2,4.5-0.3,6.6c-0.6,0.9-1.5,0.1-2.2,0.6
			c-0.4,0.3-0.3,0.9-0.2,1.4c0.7,7.6,1.5,15.1,2.2,22.7c0.1,0.5,0.2,1,0.2,1.5c-0.9,8.8,3.3,15.3,9.4,20.9c0.8,0.7,1.4,1.7,2.5,2.4
			c0.1-6.8-0.3-13.5,2-19.9c0.5,7.9-0.2,15.9,1.4,24c-6.2-1.8-8.7-7.1-12.9-11.1c-0.6,2.4-0.2,4.5,0.1,6.5c1.9,13-0.2,25-9.1,35.1
			c-0.8,0.9-1.1,1.9-0.7,3.1c0.8,2.4,1.1,4.9,1.1,7.4c0,8.2,2.9,15.7,6.5,22.7c9.7,19.3,3.7,38-10.1,50.8c-2.9,2.8-5.9,5.7-9.9,6.9
			c-0.4,0.1-0.8,0.2-1.3,0.2c5.1-3.4,5.1-8.3,4.4-13.7c-0.8-6.1-3.6-11.5-5.4-17.3c-3.7-11.9-3.1-23.5,1.7-34.9
			c0.6-1.5,0.8-2.6-0.2-4c-2.4-3.8-3.2-8.2-4.1-12.5c-0.4-1.6,0.2-3.2,1.4-4.3c3.4-3.2,4-6.7,2.3-11c-0.5-1.3-0.7-3-0.1-4.9
			c1.6,2.4,1.9,4.8,2.5,7c0.5,1.8,1.3,3.3,2.8,4.5c3.4,2.6,5.6,2.1,8-1.3c7.4-10.6,9.1-22.4,7.3-34.9c-1.9-13.5-2.1-27.2-3-40.8
			c-0.8-11.2-2.4-22.1-5.9-32.8c-1.8-5.5-2.7-11.3-4.5-16.7c-3.8-11.6-12-20.3-21-28.1c-4.4-3.8-9-7.5-13.3-11.4
			c10.4,5.9,19.7,13.1,27.3,22.8c0.5-1,0.2-1.7-0.1-2.3c-3.5-10.3-8.7-19.5-16.1-27.6c-4.1-4.5-9.1-7.6-14.8-9.8
			c-10.6-4.2-21.5-6.8-33-7.1c-2.7-0.1-5.3,0.4-7.8,1.5c-3.5,1.5-4.7,4.1-3.4,7.8c1,2.9,2.9,5.1,5.2,7c3.7,3,7.6,5.8,11.9,7.8
			c10.5,5,20,11.7,29.2,18.6c3.5,2.6,7.1,5.2,10.6,7.9c0.7,0.6,1.6,1,2.1,2.8c-3.5-2.3-6.4-4.2-9.4-6.1c9.3,18.7,19.4,37,26.6,56.7
			c-6.2-10.5-10.9-21.9-17.8-32.1c0.3,1.8,0.7,3.5,1,5.3c3.2,18.6,3.8,37.3,2.7,56c-0.7,11.8-0.3,23.5,1.9,35.1
			c1.2,6.3,3.8,12,6.3,17.8c0.4,0.9,1.1,1.8,0.8,3.1c-3.2-2.9-4.6-6.9-7.4-10.8c-2.7,19-6.4,37-12.1,54.6
			c-5.7,17.6-13.2,34.5-23.5,50c3.6-18.6,7-37.2,9.3-56c-0.6,0-0.7,0.4-0.8,0.8c-6.2,22.9-14.9,44.9-23,67.1
			c-3.6,9.8-6.4,19.9-8.4,30.2c-0.9,4.7-0.8,9.2,0.4,14.1c-2-1.5-2.7-3-3.2-6.6c-0.9-6.6-1.1-13.3-0.7-19.9
			c0.6-10.3,1.2-20.7,3.1-30.9c0.1-0.5,0.4-1.1-0.1-1.7c-0.8,0.1-0.9,0.7-1.2,1.2c-10.1,22-18.6,44.5-22.6,68.4
			c-2.3,13.7-3.9,27.6-2.4,41.5c0.5,4.8,1.4,9.6,3,14.2c0.7,2,1.3,3.9,1,6.2c-2.7,0-3.8-2-4.9-3.9c-4.4-8.1-7.3-16.8-8.9-25.9
			c-2.4-13.5-2-27-1-40.6c0-0.6,0.4-1.2-0.1-1.7c-6.7,12.9-15.7,43.6,0,73.5c-2.6-1.2-4.2-2.8-5.6-4.7c-4.2-6.2-7.1-13-9.9-19.9
			c-1.2-2.9-2.2-5.9-3.5-8.8c0.5,6.6,2.1,13,4.8,19c2,4.5,4.3,8.9,6.6,13.2c3.1,5.7,7.3,10.4,13.7,13.1c-1.2,1-3.1-0.6-3.1,1.8
			c-16.9-11-31.3-24.1-42.5-40.5c-11.2-16.4-17.7-34.6-21.2-54c-5.1,19.6-5.8,38.8,4,57.5c-1.8,0.1-2.4-1.3-3.1-2.4
			c-6.2-9.9-10-20.6-12.2-32c-4.1-20.3-1.6-40.2,3.9-59.9c0.5-1.9,1.4-3.7,1-5.8c-13.2,23.1-27.3,45.5-49.4,61.5
			c11.6-14.5,20.5-30.5,27.5-47.6c7-17,12.2-34.6,16.7-52.5c-4.9,7.6-9,15.6-14.9,23.1c-0.3-1.5,0.3-2.3,0.7-3
			c6.7-10.5,10-22.1,12.4-34.1c3.1-16,5.7-32.2,9.9-48c2.3-8.7,5-17.3,8.2-25.7c1.8-4.7,2.6-9.5,2.2-14.5c-0.1-0.9-0.3-1.9,0.6-2.8
			c1.5,1.4,0.2,3.7,1.9,5.4c3.7-6.2,6.6-12.8,11.3-18.3c-18.9,32.2-25.1,68.2-32,104.5c1.5-1.2,1.7-2.5,2.1-3.7
			c3.1-8.3,5.1-16.9,9-24.8c3.2-6.5,6.6-12.9,11.2-18.6c0.6-0.7,1-1.6,2.4-2.2c-0.6,1.7-1.1,3.1-1.6,4.5
			c-12.6,31.2-22.3,63.4-32.2,95.5c-3.9,12.4-9.4,24.1-15.8,35.5c-0.5,1-1.3,1.8-1.4,3.1c1.1-0.1,1.4-1.1,2-1.8
			c9-11.3,16.2-23.7,22.9-36.4c6.3-12,12.3-24.2,19-36c0.5-0.9,0.8-1.9,1.9-2.6c0.6,3,0.3,5.6-0.9,8.3
			c-7.7,17.8-13.3,36.1-16.6,55.2c-2.4,13.3-2.5,26.6-0.2,40c0.2,1.4,0.6,2.7,1.1,4c0.4-4,0.1-8.1,0.6-12.1
			c0.5-4.2,1.3-8.4,2.8-12.4c1.4-3.9,3.1-7.6,5.4-10.8c4.2,36.8,19.7,67.3,48.5,90.8c-11.4-16.3-12.7-35.5-15.6-54.3
			c2.1-0.2,2.9,1,3.7,2.3c2.1,3.7,3.5,7.7,4.7,11.8c1.3,4.6,2.7,9.1,4.8,13.4c0.5,1,0.7,2.1,1.9,3c-0.8-5.1-1.3-9.9-1.3-14.9
			c0.1-8.7,1.6-17.2,4.9-25.3c4.6-11.2,8.3-22.7,12-34.2c0.7-2.2,1.5-4.4,3.2-6.2c-0.5,3-0.9,6-1.4,9c-2.3,14.9-4.3,29.8-3.9,44.9
			c0.2,9.1,1.3,18.1,3.8,26.9c-5.2-49.2,10.2-91.9,41.2-129.6c-8.3,12.5-7.7,26.9-9.1,41c9.8-30.1,24.6-58.2,34.6-88.3
			c-0.5,5.8-1.5,11.5-1.3,17.3c0.2,5.8-0.8,11.5-1.7,17.3c-0.9,5.7-1.8,11.5-2.5,17.3c2.4-3.7,4.2-7.7,5.9-11.7
			c10.3-23.6,14.1-48.3,13.4-73.8c-0.4-12.6-0.4-25.2-0.1-37.9c3.3,16.3,5,32.8,6.5,49.4c0.9-0.1,0.8-0.8,1-1.3
			c1.8-7.1,2.8-14,0.7-21.4c-2.1-7.4-1.5-15.2-1.9-22.9c-0.4-8.1,1-16.2,0.7-24.3c0-1,0.2-2.1-0.5-3c-4.2-6-6.8-13.1-11.8-18.5
			c-0.5-0.5-0.8-1.2-1.7-1.3c-1.3,2.3,1.7,5.1-0.9,7.5c-4.1-5.1-7.5-10.8-12.8-15.2c-1,3.6,1.4,6.9-0.1,10.6
			c-2.4-2.1-3.5-4.8-4.8-7.3c-1.4-2.5-2.6-5.1-5.3-6.8c-1.4,3.8,1.5,7.6-0.2,11.6c-4.3-4.7-6.2-10.6-10.6-15.5
			c-1,4,0.9,7.6-0.3,11.8c-4-5.2-5.8-11.3-10.1-16.1c-1.4,3-0.7,6-1.2,9.2c-5.2-2.8-3.9-9.6-8.4-12.7c-3.6,6.9-5.2,14.7-11.4,20.4
			c0-3.9,0.6-7.3-0.4-11c-5.2,6.4-10.8,11.9-17.9,16.8c0.7-3.3,3.1-5.7,2.1-9.1c-4.8,4.1-9,8.4-13.1,12.8c-3.5,3.7-6.7,7.7-9.8,11.7
			c-0.5,0.6-0.9,2.1-2.1,1.2c-1-0.7,0-1.6,0.3-2.2c2.6-4.8,5.3-9.5,7.9-14.3c0.4-0.7,1-1.4,1-2.6c-6.7,3.1-11.8,8.2-17.8,12.2
			c1.9-4.3,4.9-8.1,6.3-13.4c-6,3.1-10.1,7.7-15.1,12.2c0.6-6.8,1.8-13,3.1-19.2c1.3-6.2,3.1-12.4,4.8-18.5
			c-2.1,3.4-3.2,7.1-4.4,10.8c-3.7,12.3-5.5,25-7.7,37.5c-2.8,15.6-6.5,30.9-13.5,45.3c-2.1,4.2-4.5,8.2-7.7,11.7
			c-4.9,5.4-9.2,11.2-13.3,17.2c-1.1,1.6-2.2,3.3-4.3,4.5c-2-2.6-5.1-3-8-4.1c-1.2-0.4-2.3-0.4-3.3,0.6
			c-6.4,6.4-12.6,12.8-16.4,21.2c-3,6.4-3.8,12.8-0.9,19.5c1.7,4,2.9,8.1,5.2,11.9c0.2,0.3,0.4,0.5,1,1.1c1.1-11.4,5.5-21,12.5-29.4
			c-2.1,6-5.4,11.5-7.2,17.7c7.5-4.1,15.2-19.5,18-35.9c1,3.1,0.7,5.7,0.5,8.3c-0.9,11.7-7.4,20.4-15.2,28.4
			c-2.3,2.4-4.6,4.7-5.4,8.1c-1,4.5-0.1,8.6,3,12.1c0.5,0.5,0.9,1,0.9,2c-1.6,0.5-2.9-0.3-3.8-1.3c-8.6-9.2-14.5-19.6-13.8-32.7
			c0.6-9.8,5.3-17.5,12-24.3c1.6-1.7,3.3-3.3,5.1-4.8c2.5-2.2,3.8-4.9,5.1-8c1.8-4.4,4.4-8.4,9.7-9.3c2.5-0.5,3.8-2.3,4.8-4.3
			c2.3-4.7,4.2-9.5,5.6-14.5c1.9-7.1,4.3-14,7.4-20.8c0.8,0.7,0.4,1.4,0.2,2c-1.9,6.6-3.7,13.3-4.2,20.2c-0.6,7.5-2.4,11.1-8.6,18.9
			c0.8,1.2,2.2,1.8,3.2,2.7c0.9-0.1,1.2-0.8,1.6-1.3c8.5-11.1,13.4-23.6,15.8-37.3c2-11.4,4.3-22.7,8.2-33.7c0.1-0.2,0-0.5,0-1.3
			c-2.8,3.7-4.5,7.7-7.8,10.5c9.8-19.2,19.1-38.6,25.9-59.8c-4.2,2.8-6.6,6.8-10.9,8.3c4.8-7.5,11.7-13.3,17.2-21.2
			c-5.6,2.1-9.5,5.8-14.5,7.3c19-13.3,36.9-27.9,55.7-41.5c-4.5,6-10.7,10.2-16.3,15.4c1.7,0.1,2.7-0.5,3.8-1
			c9.8-4.4,18.2-11,26.4-17.7c1.7-1.4,2.6-3.5,1.5-5.8c-0.9-2-2.6-2.4-4.5-2.2c-19,1.7-36.8,6.7-52.2,18.6
			c-6.7,5.2-12.1,11.4-16.5,18.7c-8.4,14-14.1,29-19.4,44.3c-0.1,0.4-0.2,0.8,0.2,1.5c3-4,5.9-8,8.9-11.9c0.2,0.2,0.5,0.3,0.7,0.5
			C186.9,453.5,176.5,469.4,171.7,488.1z M180.9,209c1.5-1.2,1.1-2.8,1.6-4c0.3-0.8,0.6-1.5,1.5-1.6c0.9-0.1,1.4,0.5,1.8,1.2
			c0.8,1.4,1.2,2.9,1.4,4.4c0.2,1.7-0.7,3.3-0.7,5c2.5,0,4.6-1.5,7.5-0.6c-11.7,5.8-23.1,11.1-33.1,18.9c2.8-6.8,8.9-9.9,14.5-13.8
			c-1.4-0.2-2.6-0.1-3.9-0.1c-0.8,0-1.6,0-1.9-1c-0.3-0.9,0.2-1.4,0.8-2c1.2-1.1,2.9-1.8,3.9-3.3c-0.8-0.5-1.3-0.8-1.9-1.2
			c-6.6-4.4-9.8-10.9-11-18.5c-0.2-1.2-0.2-2.6,1.3-3c1.5-0.5,2.2,0.8,2.8,1.8c2,3.2,3.8,6.4,5.8,9.5c1,1.5,1.9,3.2,3.9,4.3
			c-0.2-2.2-0.5-4.2-0.7-6.1c-0.5-5.3-1.3-10.6-0.2-16c0.7-3.3,2.8-5.3,6.6-6.1c3-0.6,4.5,1.1,5.8,3.3c1,1.6,1.9,3.3,3.1,4.8
			c3.6,4.8,7.9,8.7,13.9,10.3c10.1,2.7,18.7-2.5,20.2-12.5c0.7-4.6-1.6-9.4-5.4-11.1c-3.5-1.6-6.6-0.3-10.1,4.2
			c-0.6,0.8-1,1.9-2.3,2.4c0.6-5.1,3.6-8.2,7.4-10.8c6.1-4.1,12.3-4.4,18.8-0.1c0.4-9.1,3.3-16.9,7.9-24.1c-0.3-0.2-0.4-0.3-0.4-0.3
			c-4.6,0.9-9.3,1.9-13.9,2.8c-5.8,1.2-6.7,0.7-9.1-4.8c-0.3-0.6-0.6-1.3-0.8-1.9c-1.3-3.8-1.6-7.8-2.3-11.7
			c-0.4-2.2-0.4-4.5-1.7-6.5c-2.2,1-1.3,3.4-2.7,4.8c-1.6-2.7-1.3-6.3-4.5-8.2c2.4,10.5,0.7,22.3,10.3,30.7
			c-12.8,3.5-24.8,8-35.9,14.4c-12.2,7-23,15.6-30.6,27.7c-7.9,12.6-10.2,26.8-11.1,41.3c-1.1,16.5-0.3,33-1,49.5
			c0,0.7-0.4,1.6,0.5,2.1c1.1-0.8,1.1-2.1,1.5-3.2c8.1-24.2,23.2-41.9,47-52.2c17.6-7.5,35.3-14.1,54.3-17.3
			c5.6-0.9,11.1-2.1,17.4-3.2c-10.3-6.3-17.6-14.5-22.6-24.8c-1.1,7.5-4.6,13.5-10.6,18.9c7.1-0.3,13.4-2.5,20.2,0.3
			c-4.6,1.7-8.7,2-12.8,2.3c-4.4,0.4-8.8,0.5-12.9,2.5c-6.2,3.1-12.6,3-19.2,1.7c-2.9-0.6-4-2-3.8-4.9c0.2-2.8-0.6-5.3-2.5-7.1
			c-4.3-4.2-7.6-9.1-9.7-14.8c-0.3-0.8-0.7-1.8-1.8-1.6c-1.3,0.2-2.2,1.1-2.5,2.4c-0.3,1.4-0.1,2.7,0,4.1c0.3,2.7,0.5,5.5,0.9,8.2
			C180.7,199.1,180.6,203.9,180.9,209z M235.8,166.3c0.2,12.8,5,23.1,13.9,31.4c11.6,10.8,26,14.8,41.4,14.8
			c12.8,0,24.4-4.5,34.3-12.7c18.4-15.5,19.6-39.9,4.4-56.8c-18.3-20.3-49.6-24.6-73-10.5C243.9,140.2,236.3,151.5,235.8,166.3z
			 M254.6,457.9c6.2-4.2,10.1-10.3,14.8-16c0.7,3.1,1.2,5.8,1.9,8.9c3.6-5.4,4.5-11.8,8.9-16.7c2,2.7,3.8,5.2,5.7,7.8
			c1-2.1-0.8-4.6,1.7-6.1c3.6,3.1,5.8,7.3,8.8,11.1c0.5-2.6-0.1-4.6-0.6-6.6c-0.2-0.9-0.6-2,0.6-2.5c1.3-0.6,1.6,0.6,2.1,1.4
			c3.2,4.7,6.4,9.3,9.7,14c0.5-3.1-0.8-5.9-1-8.9c-0.1-2.8-1.5-5-3.6-6.6c-6.4-5-13.6-8.1-22-7.5c-4.6,0.3-9.1-0.5-13.7-1
			c-0.7-0.1-1.8,0.1-2.2-1.1c2.2-1.8,5-2.9,6.6-5.3c2.8-4,6.7-4.7,11.2-4.1c4.4,0.6,8.9,1.1,13.4,0.8c5.5-0.3,10.3-2.1,13.9-6.5
			c1.1-1.4,1.5-2.7,0-4.1c-2.7-2.7-5.7-4.3-9.6-4.3c-12.6-0.1-25.2,0.3-37.8,1.4c-15.2,1.4-25.7,9-31.7,22.9
			c-3.6,8.3-4.1,16.9-4.1,25.6c1.6,0.4,1.7-1.7,3.2-1.3c0.7,4.3-3,7.1-3.8,11.5c2.9-1.8,5.3-3.4,7.7-4.9c2.5-1.5,4.9-3.1,8.1-3.7
			c-0.7,2.1-2.1,3.5-2.4,6.1c4.2-4.4,9.1-7.1,12.2-11.8c0.6-1,1.4-2.3,2.8-1.6c1.4,0.8,0.4,1.9,0.1,3
			C255.3,453.8,254.1,455.5,254.6,457.9z M368.9,640.2c13.6-10.5,25-32.2,13-53.4c-1.8-3.2-3.3-6.4-3.9-10.1
			c-0.6-3.8-1.7-4.4-5.4-3.2c-5.4,1.7-7.1,6.1-8.4,10.9c-3,11.4-1.5,22.6,2.2,33.6C368.7,625,370.6,632.1,368.9,640.2z M145.3,320.9
			c-2,0.2-3.5,1.3-4.6,2.9c-2.1,3-2.9,6.4-3.2,10c-0.5,7.9-1,15.8-1.5,23.8c-0.3,4.6-1.4,9.3-0.1,13.9c2.8,10,5,20.1,6.7,30.3
			c0.2,1.2,0.5,2.5,2.1,3c0.7-1.1,0.7-2.2,0.9-3.3c1.3-7.8,2.7-15.6,4.7-23.3c1.3-5.2,2.1-10.5,1.4-15.9c-0.5-3.7-1.1-7.4-0.8-11.1
			C152,340.6,149.5,330.7,145.3,320.9z M151.3,329.6c8.4-23.8,13.7-48.2,14.4-73.6c-3.4,1.5-5.7,3.9-7.3,6.8
			c-3.9,7.2-7.9,14.4-10.8,22.1c-1.9,5-2.7,10.3-1.6,15.5c1,5,1.4,10.1,1.9,15.1C148.4,320.4,148.6,325.2,151.3,329.6z M318.6,207.6
			c7.7,0.7,15.4,1.5,23.1,2.4c13.5,1.7,26.9,3.8,40.1,7.4c9.7,2.6,19.3,5.4,28,10.4c15.9,9.1,24.7,23.4,28.9,40.8
			c1.7,7.3,3.1,14.6,2.4,22.5c1-0.9,1.1-1.7,1.2-2.4c0.8-6.2,1.1-12.4-0.1-18.6c-4.9-24.5-19.3-41.1-42.3-50.4
			c-7-2.8-14.4-4-21.7-5.7c-14.9-3.4-29.8-7.6-45.3-7.6C328.2,206.4,323.3,206.3,318.6,207.6z M346.4,185.1
			c-1.1-5.6-2.3-10.5-1.5-15.7c1.2-7.8,6.9-13.7,14.7-14.5c6.6-0.7,14,2,17.3,9.7c2.2,5,1.8,10-1.7,14.4c-1.2,1.5-3,2.6-5,2
			c-1.8-0.6-2.7-2.2-3-4.2c1.2-0.3,2.2-0.8,2.8-1.9c1.2-2,1.1-6.5-0.2-8.2c-1.4-1.9-4.9-2.7-7.6-1.8c-3.9,1.3-6,4.8-5.6,9.1
			c0.6,5.4,4,9,8.9,9.5c-0.1-1.2-1.3-1.3-2-1.8c-3.5-2.3-5.2-7-3.9-10.6c0.8-2.2,2.5-3.2,4.7-3.4c1.4-0.2,2.9,0,3.6,1.5
			c0.7,1.5,0.8,3-0.4,4.6c-0.6-0.9,0.1-2-0.8-2.8c-1.3,1.9-2,3.9-1.9,5.9c0.1,3,1.2,5.6,4.1,7c2.6,1.2,4.6-0.4,6.5-1.9
			c0.9-0.7,1.6-1.5,2.3-2.4c5.2-7.1,3.7-17.7-3.1-23.3c-7.3-6-19.7-5.7-25.4,0.5C342,164.2,340.7,176.3,346.4,185.1z M268.2,387.4
			c3.6-0.3,6.5,1.1,9.4,2.3c1.8,0.8,3.9,0.8,5.8,0c3.6-1.6,6.7-4.3,11.2-4.9c-3.5-2.7-5.9-5.7-7.7-9.6c-1.7,3.1-3.6,5.2-6.4,6.2
			c-2.1,0.8-4.3,1.3-6.4,1.9C271.9,384.1,269.8,384.9,268.2,387.4z M401.5,175.7c-2-2-3.8-1.3-5.6-0.2c-4.7,2.9-7.7,7.1-9.4,12.2
			c-1.6,4.7-3.5,9.2-9.9,8.5c1.8,3.8,5.5,4.5,8.9,2.1c3.5-2.5,5.8-5.9,7.1-9.9C394.2,183.3,396,178.3,401.5,175.7z M401.4,118.8
			c6-2.9,8-8.2,5.5-13.6c-1-2.1-2.1-4.2-3.5-6c-1.5-2-3-3.9-5.5-5.2c-1.3,5.5-0.6,10.6,1.4,15.6
			C400.5,112.5,402.1,115.2,401.4,118.8z M413.9,179.8c-0.1-4.7-2.6-9-6.7-12.4c-0.9-0.8-2-1.2-3-0.3c-1.2,1-0.7,2,0,3
			c0.3,0.5,0.7,1,1,1.5c2.7,4.3,3.8,8.8,1.8,13.7c-0.9,2.2-1.6,4.4-2.4,6.5c-0.3,0.7-0.5,1.3,0.1,1.9c0.6,0.5,1.3,0.9,2.1,0.7
			c0.8-0.3,1.6-0.7,2.1-1.4C411.8,189.3,413.9,185.3,413.9,179.8z M388,154.1c-0.1-1.1-0.9-1.2-1.4-1.4c-14-5.6-28.6-8.2-43.7-7.9
			c-1,0-2.1,0.2-3,1.4C356,149.2,371.9,151.8,388,154.1z M400.4,202.9c-0.6,0.9-0.2,1.9,0.1,2.5c2,3.4,4.2,6.8,7.4,9.2
			c3.1,2.3,7.3,1.1,9.3-2.3c1.2-2,1.5-4.4,2.3-6.6c0.3-0.8,0.4-1.5-0.4-2.1c-0.8-0.6-1.7-0.4-2.4,0.2c-0.9,0.8-1.7,1.7-2.6,2.5
			c-2.7,2.8-4.9,2.9-7.9,0.5c-1-0.8-1.9-1.8-2.8-2.7C402.6,203.5,401.7,202.6,400.4,202.9z M426.3,177.3c-1.3,1.5-0.7,2.9-0.3,4.2
			c0.5,1.9,1.1,3.8,1,5.8c-0.2,5,1.3,9.7,2.5,14.5c0.2,0.8,0.6,1.4,1.2,2c0.8,0.7,1.7,0.9,2.7,0.5c1.2-0.4,0.6-1.4,0.5-2.2
			c-0.1-1.8-0.3-3.6-0.2-5.4c0.2-4.9-1.2-9.4-3.1-13.7C429.5,180.8,428.4,178.8,426.3,177.3z M412.9,109.6
			c-0.5,5.2-1.8,9.5-3.5,13.8c-0.4,1-0.5,2.1-0.1,3.1c2.3,5.6,0.8,10.6-2,15.5c-0.7,1.1-1.4,2.4,0.4,3.3c1.5,0.7,2.5,0,3.1-1.4
			c1.9-5,3.8-10,5.6-15c0.5-1.3,0.1-2.6-1.4-2.8c-3.2-0.4-2.9-2.4-2.4-4.6c0.2-1.1,0.6-2.2,0.7-3.3
			C413.4,115.5,414.4,112.9,412.9,109.6z M433.9,162.1c-2-7-2.9-14-4-21c-0.1-1-0.8-1.6-1.8-1.4c-1.2,0.2-1.9,1-1.7,2.2
			c0.7,3.9,0.1,7.7,0,11.6C426.2,157.6,429.2,161.2,433.9,162.1z M421,215.8c0,3.1,1,4.7,3.1,4.7c2.2,0,2.7-1.4,2.7-3.2
			c0-3-1.3-5.1-3.3-4.9C421.4,212.5,421,214,421,215.8z M407.9,165.3c0.1-4-4.9-9-8.8-8.8C399.8,160.6,403.7,164.5,407.9,165.3z
			 M252.2,396.5c-8.1,4.7-16.6,8.8-22.3,16.7C236.6,406.7,245.1,402.5,252.2,396.5z M354.5,186c0.8,3.2,3.7,4.3,5.7,6.3
			c1.9,1.9,2.5,1.7,4-0.9c-2.6-1.7-5.2-3.4-7.8-5C355.9,186.1,355.4,185.7,354.5,186z"/>
		<path class="st0" d="M418.7,106.3c-5.1-5.1-10.1-9.6-13.6-15.2c-5.6-9-13.8-14.1-23.7-16.7c-11.2-3-22.3-6.2-33.9-7.2
			c-2.4-0.2-4.8-0.4-7.2-0.4c-15.7-0.3-31.4-1.4-47.2-1c-25.3,0.5-49.6,6.1-73.1,15.4c-6.4,2.5-12.8,5.1-19.1,7.9
			c-8.8,4-16.3,9.7-22.6,17c-2.4,2.7-4.8,5.5-7,8.3c-2,2.5-4.3,4.7-7.4,6.1c-0.6-0.8-0.4-1.8-0.3-2.6c1.9-18.8,5.9-36.9,14.8-53.9
			c5.2-9.9,12.9-16.3,23.3-20.1c13.7-5.1,28-8.1,42.3-11c26.8-5.5,53.7-6.6,81-4.4c17.1,1.4,34.3,2.5,51.3,4.9
			c7.2,1,14.4,2,21.5,3.1c5.3,0.8,8.2,3.9,9.2,9.4c2.8,16.7,7.7,33,10.9,49.6C418.4,98.7,419.4,102.1,418.7,106.3z M414.7,95.9
			c-2.3-17.1-6.2-33.5-11.8-49.5c-1.4,6.1-1.9,12.2-2.1,18.4c-0.2,10.8,2.6,20.5,9.7,28.8C411.5,94.8,412.6,95.8,414.7,95.9z"/>
		<path class="st0" d="M271.1,248.3c3.7-4.7,5.1-10.2,8.8-14.4c-0.4,4.7-1.6,9.2-3.7,13.4c-1.2,2.3-2.7,4.5-4.6,6.2c-1.6,1.5-3.2,2-5.3,0.6
			c-3.2-2.2-6.7-1.6-10.3-0.9c3.1,1.6,6.4,2.8,9.9,3c1.4,0.1,2.8,0.2,3.9,1.2c1.5,1.4,1.2,4.2-0.5,5.3c-4.6,3-8.5,6.9-9.9,12.3
			c-4.5,17.2-16.8,27.2-31.5,35.2c-5,2.7-10.3,4.4-15.8,5.7c-1.4,0.4-1.4,0.3-2.9-0.2c0.8-1.5,2.9-0.9,3.9-2.4
			c-2.8-1.9-6.5-1.4-9.5-3.6c1.8-0.7,3.4-0.6,5-0.4c2,0.2,3.9,0.6,5.9,0.7c5,0.4,9.2-1.1,12.1-5.4c2.8-4.2,5.4-8.5,7.4-13
			c2.1-4.9,0.7-7.2-4.5-8.3c-6.2-1.2-12.2-0.3-18,1.9c-1,0.4-2,1.1-3.1-0.2c5.4-3.5,11.3-5.4,17.3-7.5c-1,0-1.9-0.1-2.9,0
			c-9.2,1.2-18.6,2.1-26,8.9c-2.6,2.4-4.9,5.1-7.2,7.8c-2.4,2.8-5,5.3-7.7,7.7c-1.5,1.4-3.2,2.5-5.4,2.8c3.6-4,7.7-7.4,11.3-12.1
			c-5.3,0.8-9.2,4.9-14.6,3.8c0.9-1.2,2.2-1.4,3.3-1.8c6.7-2.4,12.1-6.5,16.1-12.5c4.6-6.9,10.6-12.2,18-16.1
			c4.7-2.5,8-6.5,11.2-10.6c1.1-1.4,0.9-2.7-0.2-4c-2.9-3.3-6.4-4.8-10.9-4c-9.8,1.9-17.4,7.2-23.3,15.2c-0.7,1-1.4,2-2,3
			c-0.5,0.7-1,1.1-1.9,0.9c-0.9-0.2-1.3-0.9-1.3-1.7c0.2-8.5,0-17,7.5-23.2c6.2-5.1,13.2-7.6,21.1-6.7c16.5,1.9,32.8,4.7,48.3,11
			c2.9,1.2,5.6,0.4,8.3-0.4C270.3,244.9,270.6,245.2,271.1,248.3z"/>
		<path class="st0" d="M313.7,498.2c0.2,1.8-0.5,3.4-1.2,4.9c-10.5,23.3-23.3,45.5-35.7,67.9c-10.3,18.7-20.8,37.2-30.2,56.4
			c-9,18.4-14.6,37.8-18.9,57.7c-0.2,0.8-0.3,1.7-0.5,2.5c-0.1,0.2-0.2,0.5-0.3,0.7c-1-0.3-0.7-1.1-0.6-1.7
			c2.1-13.6,3.6-27.2,6.8-40.6c3.8-16,10.7-30.6,18.1-45.1c10.1-19.8,21.4-38.9,34.8-56.7c6.2-8.2,10.3-17.6,15.6-26.3
			C305.7,511.4,309.7,504.8,313.7,498.2z"/>
		<path class="st0" d="M307,466.8c-0.2,4.5-0.8,8.7-2.5,12.7c-5.9,13.7-13.3,26.5-21.1,39.2c-16.7,27.2-34.8,53.6-51.6,80.8
			c-8.8,14.2-17.2,28.6-23.2,44.2c-1.1,2.9-1.8,6-3.5,9.1c-1.2-1.7-1-3.3-0.5-4.7c4.2-11.8,7.4-23.9,13.2-35.1
			c1.8-3.5,3.6-7.1,5.9-10.3c10-14,17.6-29.3,26.5-43.9c9.7-15.9,20.6-30.9,31.4-46c9.8-13.7,18-28.2,24.1-44
			C306,468.1,306,467.3,307,466.8z"/>
		<path class="st0" d="M222.5,559.8c0.6-3.5,2-6.3,3.2-9.1c10.6-24.9,25.3-47.3,40.7-69.3c6.4-9,12.6-18.2,17.5-28.5c1.1,2.7,0.5,4.9-0.1,7.1
			c-2.3,8.4-6.1,16.1-10.8,23.4c-13.7,21.3-27.7,42.4-42.1,63.1c-2.3,3.3-4.4,6.8-6.3,10.4C224.1,557.9,223.8,558.9,222.5,559.8z"/>
		<path class="st0" d="M243.6,691.8c-0.7-2.6,0-4.8,0.5-7c4.3-18.8,12.8-35.9,21.2-53c8.7-17.9,18.4-35.4,26-53.9c1.4-3.4,2.6-6.8,3.9-10.2
			c0.3-0.8,0.3-1.7,1.3-2.1c0.6,0.9,0,1.7-0.1,2.4c-3.1,18.5-9.4,35.8-18.1,52.4c-6.2,11.9-12,23.9-18.9,35.4
			c-6.1,10.2-10.1,21.3-13.8,32.6C245.1,689.5,244.9,690.8,243.6,691.8z"/>
		<path class="st0" d="M292.8,617.4c11.7-30.6,19.6-62.1,23.5-94.6C320.3,539.9,304.9,599.9,292.8,617.4z"/>
		<path class="st0" d="M150,477.5c-4.8,2-8.7,4.5-13.8,5.7c2.9-6.8,5.6-13.2,8.5-20c0.6,2.4,0.4,3.5-1.4,8.2c-1,2.6-2,5.1-3.1,7.8
			c4.7-0.2,8.2-5,13.4-2.6c-2.5,3.7-4.9,7.5-7.7,11.7c4.3-0.5,7.8-2.3,11.9-3.5c-0.8,4.8-1.6,9.3-2.4,14.3c2-0.7,3.5-1.3,5-1.8
			c0.1,0.1,0.1,0.3,0.2,0.4c-3.1,1.6-6.1,3.2-9.2,4.8c2-5.1,3.6-10.1,4.3-16c-5.9,2.3-11.5,4.5-17,6.7
			C142.1,487.9,146.3,483.4,150,477.5z"/>
		<path class="st0" d="M333.1,565.5c-2.9-10.7-4.5-62.8-2.2-73.4C333.2,516.5,333.9,540.9,333.1,565.5z"/>
		<path class="st0" d="M208.5,677.5c-1.6,19.9,0.4,39.3,6.4,58.7C206.5,728.1,201.6,689.7,208.5,677.5z"/>
		<path class="st0" d="M415.5,249.9c1.2,3,1.4,6.2,1.4,9.3c0.1,11.1,0.5,22.1,2.7,33c1.2,6.2,3.2,12.2,4.9,18.2c0.2,0.9,0.7,1.7,0.4,3.1
			C413.8,293.3,414.1,271.7,415.5,249.9z"/>
		<path class="st0" d="M367.9,260.1c-3.7-1.1-7-2.9-10.8-3.5c-6.6-1-13-0.6-19.3,1.9c-4.5,1.8-9.1,3.3-13.9,3.7c7.8-3.2,15.2-7.6,23.8-8.8
			C355.5,252.3,362.2,254.8,367.9,260.1z"/>
		<path class="st0" d="M413.5,321.1c-7.3-7.9-15.1-15-24.4-21c9.8,0.9,17.2,6.4,20.8,14.8C410.9,317.1,412.3,319.1,413.5,321.1z"/>
		<path class="st0" d="M372.5,530.4c-3.1-15.4-6.1-30.9-9.2-46.3c0.2,0,0.5-0.1,0.7-0.1C368.3,499.1,371.8,514.5,372.5,530.4z"/>
		<path class="st0" d="M373.1,550.8c1.2-5.7,2.4-11.4,3.6-17c0.2,0,0.5,0.1,0.7,0.1C377.7,539.9,376.5,545.6,373.1,550.8z"/>
		<path class="st0" d="M153.8,219.1c0-2.8,0-5.7,0-8.5c0-1.1,0.1-2.2,1.4-2.5c1.1-0.3,1.7,0.6,2.2,1.4c3.2,5.6,4.1,11.7,3.1,18
			c-0.1,0.9-0.4,1.9-1.1,2.6c-0.9,1-1.9,1.4-3.2,1.1c-1.3-0.4-1.8-1.3-1.8-2.6c0-3.2,0-6.4,0-9.6
			C154.3,219.1,154.1,219.1,153.8,219.1z"/>
		<path class="st0" d="M226.5,157.5c-14.3,1.9-27.5,5.6-40.8,11.3c1-2.1,2.3-3,3.6-3.9c6.1-4.1,13-6.2,20.1-7.7c4.2-0.9,8.5-1.3,12.8-1.1
			C223.5,156.3,224.8,156.3,226.5,157.5z"/>
		<path class="st0" d="M205,193.5c-2.6,0.6-4.4-0.3-5.9-1.8c-2-1.9-3.5-4.2-5-6.5c-2.8-4.3-5.5-8.7-8.4-13.3c1.4,0.1,2.2,0.9,3.1,1.6
			c2.8,2.2,5,5,7,7.9C198.6,185.6,201.1,189.8,205,193.5z"/>
		<path class="st0" d="M213.5,176.3c3.5,3.3,4,6.9,1.5,10.4c-2.2,3.1-6.1,4.1-9.8,2.2c1.5-0.7,2.8-1.2,4-1.9c3.2-1.8,4.1-3.5,3.6-7.1
			C212.7,178.7,212.5,177.5,213.5,176.3z"/>
		<path class="st0" d="M148.1,211.5c1.4,4.2,1.4,8.4,1,12.7C148,220,147.9,215.8,148.1,211.5z"/>
		<path class="st0" d="M245.6,170.1c7.6,8.4,13.3,2,19.3-2.5c1.5,2.4,2.9,4.7,4.8,6.6c8.7,8.5,24.9,9.3,34.4,1.7c8.2-6.5,7.5-18.2-1.5-24.6
			c-10.7-7.7-25.5-6.4-34.8,3c-0.7,0.7-1.3,1.2-2.4,0.9c-8.1-2.3-14.4,0.4-19,7.3c-0.1,0.1-0.3,0.2-0.7,0.4c-0.4-2.2,0.3-4.1,0.9-6
			c3.8-10.6,11-18.2,21.3-22.4c18.2-7.5,35.4-5.8,50.7,7c13.7,11.5,16.8,30.2,7.6,44.1c-7,10.8-17.2,17-29.8,18.7
			c-13.7,1.9-26.3-1.2-37.3-9.9c-7-5.5-11.8-12.5-13.5-21.4c-0.1-0.6-0.2-1.2-0.3-1.8C245.3,171,245.4,170.8,245.6,170.1z
			 M322.1,180.9c-11,9.6-23,15.4-37.8,15.1C292.7,203,318.6,192.7,322.1,180.9z"/>
		<path class="st0" d="M306,165.2c1.3,2.8,1,5-0.8,6.9c-9.3,10-27.2,11.6-36.1-3.1c-0.5-0.9-0.9-1.7,0-2.5c0.8-0.7,1.8-0.7,2.6-0.1
			c2.2,1.4,4.4,2.8,6.8,3.7c3.1,1.1,3.9,0.5,3.5-2.9c-0.1-0.6-0.3-1.2,0.2-1.8c2.5,0.2,3.2,2.6,4.8,4c2.7-1.8,1.1-4.3,1.2-6.4
			c3.9,0.2,5,1.6,4.3,5.1c-0.6,2.9,0,3.7,2.9,4.2c3.7,0.6,6.3-1,8.4-3.9C304.6,167.4,305.2,166.5,306,165.2z"/>
		<path class="st0" d="M285,161.2c0.7-3.5-1.3-5.8-3.5-8.3c3.8-1.5,7.3-2.8,10.9-3.4c4.1-0.7,9.1,3.6,9.9,8.5c0.5,2.9,0.1,5.7-1.7,8.2
			c-0.8,1.1-1.9,1.9-4,2.2c1.7-3.9,3.2-7.5-1.4-9.9C291.2,156.4,288.5,159.8,285,161.2z"/>
		<path class="st0" d="M310.7,132.7c6.3,2,11.7,5.3,16,10.2c4.8,5.6,8.2,12,10.5,18.9c1.7,4.9,0.9,9.4-2.3,13.6c-0.8-0.6-0.5-1.1-0.3-1.6
			c1.7-4.7,0.9-9.2-1.4-13.5c-2.4-4.5-4.9-8.9-7.5-13.3c-2.9-5-7-8.9-11.8-12.2C312.8,134.2,311.8,133.5,310.7,132.7z"/>
		<path class="st0" d="M249.1,145.3c-4.5,11.4-11.6,22.3-6.7,36c-2.6-1.9-3.6-3.9-4-6.2c-2-11.3,1.3-20.9,9.1-29.2
			C247.9,145.5,248.2,145,249.1,145.3z"/>
		<path class="st0" d="M264,131.7c-0.1,2-1,3.1-2.1,3.9c-2.6,2.2-5.3,4.3-8,6.5c-0.7,0.6-1.5,1.3-2.5,0.5c-1.1-1-0.4-1.9,0.2-2.7
			C254.9,136,259.2,133.8,264,131.7z"/>
		<path class="st0" d="M276.3,151.1c-2.1,3.8-5.2,7.3-3.1,12.1c-2,0.5-3.1-0.3-3.8-1.8C267.5,157,271,151.5,276.3,151.1z"/>
		<path class="st0" d="M374.5,580.7c5.9,9.7,8,29.1,1.2,37.8C379.4,605.7,377,593.5,374.5,580.7z"/>
	</g>
</g>
</svg>
