<?xml version="1.0" encoding="utf-8"?>
<!-- Generator: Adobe Illustrator 18.1.1, SVG Export Plug-In . SVG Version: 6.00 Build 0)  -->
<svg version="1.1" id="图层_1" xmlns="http://www.w3.org/2000/svg" xmlns:xlink="http://www.w3.org/1999/xlink" x="0px" y="0px"
	 viewBox="0 0 612 792" enable-background="new 0 0 612 792" xml:space="preserve">
<g>
	<g>
		<path d="M187.6,623.4c2.6-3.9,5.2-8,7.9-11.9c0.2,0.1,0.4,0.2,0.7,0.3c-12,21.6-22.7,43.7-22.9,69.3c-1.3-3.7-1.4-7.5-1.3-11.4
			c0.1-5.8,1.4-11.4,2.8-17c1.6-6.8,4.3-13.3,5.1-20.4c0.1-1.2,2.2-1.9,2.7-3.5c3-9.6,6.7-18.9,11.4-27.8c0.5-1.1,1.2-2.4,0.5-3.3
			c-2.2-3.1-0.4-5.8,0.2-8.6c0.2-1.1,0.5-2.2,1-4c-5.9,4.3-8.9,10.3-13.6,14.8c0.8-5.4,4.2-9.8,5.4-15.3c-2.8,0.7-4.2,3.8-7.1,3.7
			c-1.3-2.6,1.5-4.7,0.8-7.4c-2.7,1.7-5.5,3.5-8.4,5.5c-2.2-3.8,0.5-7.2,0.7-11.1c-2.4,1.5-4.5,2.8-7.2,4.6
			c1.6-6.4,3.5-12.2,4.3-18.5c-2.7,0.8-3.4,3.7-6.1,4.8c1.9-9.1,4.3-17.7,4.6-27.4c-3.1,2.7-3.8,6.6-7.3,8.9
			c3.2-10.3,5.1-20.1,6.2-30.4c-1.5,0.3-1.5,2.1-3,2.3c-1-0.8,0.1-2.1-1.1-3.3c-3.1,15.2-3.9,30.5-9,45.4c2.7-1.1,3.6-3.8,6.6-4.7
			c-2.8,12.9-4.3,25.7-7.6,38c1.5,0.5,2.4-0.9,3.9-0.7c-2.5,4.2-6,6.9-9.3,9.8c6.1-12.7,6.2-26.8,9.5-40.1
			c-4.4,4.5-7.4,10.1-12.1,14.4c-0.8-1.4-0.1-2.5,0.4-3.4c7.4-11.6,10.1-24.7,12.1-38c0.2-1.6,0.1-2.8-1.3-4c-1.6-1.3-2.5-3.4-3-5.4
			c-2.3-10.7-4.5-21.4-6.7-32.1c-0.9-4.7-0.9-9.4-0.4-14.1c1-9.3,0.2-18.7,1.6-28c0.4-2.7,1-5.4,2.2-7.9c1.3-2.8,3.4-4.8,6.4-5.6
			c1.9-0.4,2-1.3,2-3.1c0.1-4.5-0.5-7.8-5.8-9.7c-5.1-2-7.4-6.8-7.4-12.6c-0.2-21.2-0.2-42.5,1.6-63.7c1.2-13.2,1.7-26.6,5.5-39.5
			c0.1-0.2,0.1-0.5,0.2-0.9c8.5-18.7,10.1-39.1,14.1-58.9c0.8-3.9,1.6-8,2.5-11.9c0.7-3.1,2.2-5.6,4.9-7.3c7-4.3,12.8-9.9,18.3-16
			c5.1-5.6,10.1-11.3,15.5-16.5c7.2-6.9,16.2-10.7,25.5-13.7c19.7-6.2,39.3-12.7,59.6-17c8.4-1.9,16.9-1.6,25.4-1.7
			c19-0.3,38.1,0.1,57.2,0.9c9.4,0.3,18.5,2.6,27.4,5.2c5.9,1.6,11.8,3.3,17.7,5c6.2,1.7,11.5,5.1,15.6,10.2
			c6.8,8.3,14.4,15.7,23,22.2c3.8,2.8,6,6.6,7.1,11.1c4.4,18.5,8.9,36.9,11.6,55.7c0.1,0.5,0.1,1.1,0.2,1.7c-1.3,0.1-1.6-1-2.2-1.6
			c-6.9-8.9-16.1-14.8-26.1-19.3c-17.8-8.3-36.5-13.7-55.8-16.9c-1-0.2-2.1-0.3-3.3-1.1c4.4-5.2,10.4-8.7,14.5-14.4
			c-2.6-0.9-2.7-6.1-7.6-2.6c1.3-3.6,2.8-6.4,0.4-9.2c-1.6-0.1-2.1,1.1-2.7,2.2c-3.2,5.9-6.4,11.8-9.6,17.7
			c-2.7,4.9-4.2,5.5-9.6,4.9c-5.2-0.4-10.5-0.7-15.8-1c-1.3-0.1-2.8-0.2-4,0.9c0.4,2,2.2,1.7,3.4,2c17.9,3.4,35.8,6.1,53.7,10.3
			c17.3,4,33.4,10.5,48.2,20.3c2.1,1.4,4,2.8,5.6,4.8c8.6,11,16.9,22.2,22.7,35.1c1,2.2,1.3,4.4,1.4,6.9c0.1,19.3-2.7,38.4-3.7,57.6
			c-0.5,8.9-0.8,17.7-1.5,26.6c-0.5,6.4-1.5,12.8-6.8,17.5c-1.7,1.5-3.7,2.7-6.1,3.8c6.1,1.4,6.1,1.5,6.1,7.6
			c0,12.8,0.2,25.5,0.8,38.3c0.4,9.2-0.9,18.3-1.7,27.4c-0.2,1.9-1.1,3.6-1.9,5.4c-1.7,3.5-1.9,7.2-1,10.8c1,4.5,1.4,4.9-3.6,7
			c1.1,11.4,3,22.7,8.9,33.8c-2.4-1.2-3.4-2.5-4.4-3.9c-1-1.4-1.7-2.8-3.2-4.2c0.7,3.8,1.2,7.5,2,11.4c0.8,3.9,1.6,7.8,3.1,11.5
			s3.5,7,6.1,10.7c-4.6-1.2-7-4.8-10.9-6.4c1.2,5.8,2.3,11.1,3.4,16.6c0.3,1.6,0.8,3.4,0.8,5c0.1,3.2,1.4,5.7,3.6,8.3
			c-1.7,0.2-3-1.4-4.4,0.7c-1-5.1-3.7-8.4-7.4-11.8c-0.5,11.1-0.2,21.5,4.9,31.4c-5.8-2.4-8.9-7.9-13.9-12c0,9.2,1.3,18-3.8,26.4
			c-3.3-4.4-6.3-8.4-9.4-12.5c-0.2,0.1-0.4,0.1-0.7,0.2c-0.7,8.7-1.4,17.5-2.2,27c-3.7-4.3-5.6-8.5-6.2-13.4c1.2,2.1,2.3,4,3.5,6.1
			c1.6-8.4,2.3-16.7,3.9-25.6c3.7,5.1,7.4,9.6,10.6,15.2c3.5-9.6,2.3-19,1.6-29c4.3,3.6,6.9,7.9,11.4,10.8c-1.6-9.8-3.7-19.2-0.9-29
			c2.5,2.1,3.8,4.9,6.8,6.9c-0.7-9.4-3.7-17.8-5.5-27c2.6,1.5,4.3,3.8,7.3,4.9c-4.8-14.2-7.1-28.4-9-43.2c2,0.8,1.7,2.8,3.7,3.8
			c-4.2-20.8-3.6-41.9-11-62c1.7,0.7,1.7-0.4,1.9-1.5c0.8-7,0.5-14.1,1.3-21.2c0.9-7.6,3.6-14.9,4.8-22.4c1.6-10.5,2.4-21,2.7-31.9
			c2,2.4,1.5,5.1,2,7.9c1.5-2,1.1-3.9,0.8-5.8c-3.3-19.1-12.6-34.4-29.3-44.7c-6.2-3.9-12.7-7.4-19.6-10.2c-0.9-0.3-1.6-1-3.1-0.8
			c4.2,5.6,6.1,11.5,4.5,18.3c-1.2,0.2-2-0.5-3-1c-8.1-3.8-16.6-6.2-25.5-7.4c-6.4-0.9-12.9,0.4-18.8,3.2
			c-12.7,5.7-24.3,13.4-36.5,19.9c-1.6,0.9-3.8,2-2.7,4.5c1,2.5,3,3,5.5,3c9.2,0.1,17.6-2.8,25.8-6.6c10.6-4.8,23.6-2.4,31.8,5.6
			c4.5,4.4,9,8.9,13.3,13.6c3.4,3.6,7.2,6.3,12,7.5c5.5,1.3,8.9,5.6,13.3,8.3c0.4,0.3,0.5,1,0.3,1.9c-4.9-0.5-8.5-4.5-13.3-5.5
			c0.7,2,1.4,2.7,4.4,4.7c2,1.3,3.9,2.6,5.8,4c1.9,1.3,3.7,2.6,4.6,5c-1.3,0.2-2.2-0.5-3.1-1c-7.2-4.3-13.9-9.4-20.8-14.2
			c-7.3-5.1-14.5-10.6-23.4-13c-6.4-1.7-13-2.4-19.7-2c-0.5,0-1.2-0.1-1.6,0.8c6.6,3.2,13.9,4.6,20.2,8.4
			c-6.8-1.4-13.7-2.4-20.5-2.5c-3.9-0.1-7.9,0-11.9,0.4c-3.7,0.4-7.3,0.3-10.5-2.1c-2.1-1.5-3-0.9-3.4,1.5c-0.4,3.6,0,6.9,2.5,9.7
			c2.6,3,5,6.2,7.2,9.4c5.5,7.9,12.7,12.2,22.5,12.6c8,0.3,16,1.4,23.9,2.2c7.8,0.7,11-2.6,10.6-10.4c-0.1-1-0.3-2.1,0.2-3.1
			c8.7,2.8,18.1,20.4,16.9,32.5c-4.3-5.9-8.6-10.6-15.5-12.8c-6.6-2.1-12.9-3.8-20-3.5c0.5,1.9,3,1.6,3,3.7
			c-3.4-0.4-6.8-0.9-10.3-1.2c-8.2-0.7-16.4-1.3-23.8-5.6c-4.5-2.6-8.7-5.6-12.9-8.7c-1.2-1-2.5-1.9-4.4-3.3c0,4.9,1.9,8.2,4.4,11.3
			c2.5,3.1,5.1,6,7.5,9.2c-3.7-0.8-6.6-2.8-9-5.6C346,424.7,340,417,335,408.5c-5-8.4-9-17.5-13-26.4c-3.1-6.9-9.5-10.2-16.8-8.2
			c-2,0.5-3.9,1.5-6,0.1c1.6-2.8,4.4-3.9,7.1-4.8c1.6-0.5,3.3-1,4.9-1.1c2.8-0.2,3.1-1.9,2.1-3.9c-1.1-2.4-1.7-4.8-1.6-7.4
			c0.1-1.4,0.3-2.8,1.9-3.6c1.4,1.6,1.3,3.7,1.9,5.6c1.1,3.9,2.5,4.7,6.4,3.9c8.9-2,16.9-5.7,24.6-10.6c10.6-6.8,21.5-12.6,34-15
			c0.4-0.1,0.8-0.4,1.2-0.5c-0.3-1.1-1.1-0.8-1.6-0.8c-18.1-0.8-36.2,0.9-54.1,4.3c-9.8,1.9-19.6,0-29.2-1.7
			c-8.3-1.4-16.5-2.8-24.6-5.1c-3.5-1-6.9,0.1-10.4,0.8c-13.3,2.8-26.9,5.1-39.9,9.5c-14.2,4.8-26.6,12.6-37.8,22.3
			c-1.5,1.3-1.5,2.8-1.5,4.6c-0.2,22.3-3,44.3-10.2,65.5c-1.6,4.7-3.5,9.4-5.4,14c-1,2.4-1.5,4.8-1.3,7.4
			c0.8,10.5,0.9,21.1,2.1,31.6c0.7,5.6-0.7,11-1.3,16.6c-0.2,1.6-0.3,3.4-0.5,5.4c2.3-0.9,2.3-3.9,5.2-4.3c-1.3,8.9-2.6,17.6-4,26.4
			c1.9-0.2,2.1-2.4,4.2-2.6c-0.5,9.5-2.1,18.8-3.7,28.3c1.7-0.1,2.1-1.4,2.8-2.3c0.8-0.9,1.5-1.9,3.1-2.4
			c-0.5,7.2-3.5,13.7-5.1,20.8c3.3-1.3,4.8-4.6,8.5-5.1c-2.1,3.9-2.4,8.1-3.5,12.5c4.6-2.3,8.3-5.6,13.2-7.3
			c-1.1,3.4-4,5.8-3.7,10.3c3.4-3.8,6.2-7.1,9.1-10.3c0.3,0.1,0.7,0.2,1,0.4c-0.4,3.7-3.5,6.9-3.7,11c3.6-2.6,6.2-5.9,10.4-8.5
			c-1.3,4.6-2.5,8.6-3.8,12.9c2.1-0.5,2.2-2.1,2.7-3.2c4.8-11,8-22.6,12.8-33.7c5-11.4,10.3-22.5,18.3-32.1
			c13.4-16.2,30.2-26.9,51.1-30.6c0.4-0.1,0.9-0.2,1.7-0.3c-2.1-2.5-4.7-2.8-7.4-3.2c-2.2-0.2-4.4-0.2-6.4-0.3
			c-5.6-0.4-9-3.4-10.6-8.7c-0.1-0.5-0.3-1.1-0.5-1.6c-0.1-0.2-0.2-0.3-0.7-0.9c-12.3,21.6-28.6,40-45.7,57.8
			c-0.5-0.9,0-1.2,0.3-1.6c16.8-21.6,31.6-44.7,45.2-68.5c3.3-5.8,7.6-10.5,13-14.4c0.9-0.7,1.6-1.5,3.2-1.2
			c-0.3,3.1-1.9,5.7-3.3,8.3c-2.2,3.9-4.5,7.9-5.9,12.2c-0.5,1.6-1.1,3.2-1.2,4.9c-0.4,6.9,3.1,9.5,9.9,7.2
			c-0.9-1.6-1.7-3.3-2.5-4.9c-1-2.5-0.2-4.3,2.3-4.8c4.6-1,9.3-1.6,14-0.4c2.7,0.7,4.9,2.3,6.9,4.3c1.9,2,3.1,2.1,4.5-0.2
			c2.8-4.4,6.8-7.1,11.5-8.9c8-3.1,12.9-8.5,15.2-16.7c0.2-0.8,0.3-1.6,1.5-2.3c1.2,6.6,6.4,11,8.7,16.9c1.4,3.7,3.1,6.2,7.3,6.8
			c1.4,0.2,2.7,1.3,3.9,2.1c2.8,1.7,3.8,4.3,3.1,7.5c-0.3,1.2-0.4,2.5-0.8,4.3c3.4-0.3,5.5-2.1,6.8-4.6c1.6-3,1.5-6.2,0.4-9.3
			c-2.2-6-4.3-12.1-6.6-18.1c-1.3-3.6,0.1-5.9,3.9-6.2c1.5-0.1,3,0.3,4.3,1.2c2.7,1.7,4.8,4.3,6.6,7c8.4,12.9,17.7,25,29.4,35
			c9.8,8.3,20.4,15.2,32.8,19c10.1,3.2,13.9,11.1,15.2,20.9c0.9,6.6,0.1,13-1.3,19.3c-0.2,1.2-0.5,2.4-0.9,3.9c2-1.1,2.2-3.4,4.6-4
			c-0.3,4.8-0.5,9.5-0.9,14.1c-0.5,6.8-1.7,13.4-4.6,19.8c-0.4,1-0.5,1.7,0.4,2.4c1.6,1.2,3.3,2.4,4.7,3.5c0.1-16.8,4.5-33.2,6-49.8
			c0.3-3.7,2.1-7,3.8-10.3c0.7-1.2,1.7-2.6,3.3-2.1c1.6,0.7,1.3,2.3,0.9,3.7c-2.3,7-2.3,14.3-2.4,21.6c-0.1,5-0.4,9.9-1.2,15
			c-0.5,3.4,0.4,6,3.6,8.6c-0.4-7.6-2.2-14.8-1.3-21.7c1-0.9,1.6,0.4,2.5,0.1c0.1-0.2,0.3-0.4,0.3-0.7c0-1.2,0-2.5-0.2-3.7
			c-0.7-3.5-0.4-6.7,0.4-10.3c1.1-4.6,1-9.5,1.2-14.3c0.5-14.2,0.4-28.3-1.4-42.4c-0.1-0.8-0.1-1.5,0-2.3c1.7,5.4,2.5,10.9,3.2,16.5
			c1.1,9.1,0.8,18.1-0.1,27.1c-0.8,7.2-1.1,14.3,1.4,21.3c0.3,0.9,0.5,1.9-0.1,2.6c-1,0.5-1.4-0.8-2.6-0.5
			c-0.7,5.5-0.1,10.9,0.3,16.3c-1.2,1.1-1.6-0.8-2.7-0.3c-0.3,5.2,1.3,10.4,1.2,15.5c-0.8,0.5-1.4,0.2-2-0.1c-0.5-0.3-1.1-0.7-2-1.2
			c-0.1,3.6,2.4,6.2,2.3,9.8c-4-1-7.9-1.9-11.8-2.8c-1.5,3.1,1,5.9-0.1,8.7c-1.6,0.2-2.3-2.1-4.4-1.2c1,2.8,2,5.6,3.2,9.1
			c-6-2.2-11.5-4-16.9-6c-2.1,2.1-0.8,4.9-1.6,7.4c-2.8-1-3.9-3.7-6.1-5.4c-0.9,2.5-0.2,4.9-0.3,7.2c-0.7,1-1.6,0.1-2.4,0.7
			c-0.4,0.3-0.3,1-0.2,1.5c0.8,8.3,1.6,16.5,2.4,24.8c0.1,0.5,0.2,1.1,0.2,1.6c-1,9.6,3.6,16.7,10.3,22.8c0.9,0.8,1.5,1.9,2.7,2.6
			c0.1-7.4-0.3-14.8,2.2-21.7c0.5,8.6-0.2,17.4,1.5,26.2c-6.8-2-9.5-7.8-14.1-12.1c-0.7,2.6-0.2,4.9,0.1,7.1
			c2.1,14.2-0.2,27.3-9.9,38.4c-0.9,1-1.2,2.1-0.8,3.4c0.9,2.6,1.2,5.4,1.2,8.1c0,9,3.2,17.2,7.1,24.8c10.6,21.1,4,41.5-11,55.5
			c-3.2,3.1-6.4,6.2-10.8,7.5c-0.4,0.1-0.9,0.2-1.4,0.2c5.6-3.7,5.6-9.1,4.8-15c-0.9-6.7-3.9-12.6-5.9-18.9c-4-13-3.4-25.7,1.9-38.1
			c0.7-1.6,0.9-2.8-0.2-4.4c-2.6-4.2-3.5-9-4.5-13.7c-0.4-1.7,0.2-3.5,1.5-4.7c3.7-3.5,4.4-7.3,2.5-12c-0.5-1.4-0.8-3.3-0.1-5.4
			c1.7,2.6,2.1,5.2,2.7,7.7c0.5,2,1.4,3.6,3.1,4.9c3.7,2.8,6.1,2.3,8.7-1.4c8.1-11.6,9.9-24.5,8-38.1c-2.1-14.8-2.3-29.7-3.3-44.6
			c-0.9-12.2-2.6-24.2-6.4-35.8c-2-6-3-12.3-4.9-18.3c-4.2-12.7-13.1-22.2-23-30.7c-4.8-4.2-9.8-8.2-14.5-12.5
			c11.4,6.4,21.5,14.3,29.8,24.9c0.5-1.1,0.2-1.9-0.1-2.5c-3.8-11.3-9.5-21.3-17.6-30.2c-4.5-4.9-9.9-8.3-16.2-10.7
			c-11.6-4.6-23.5-7.4-36.1-7.8c-3-0.1-5.8,0.4-8.5,1.6c-3.8,1.6-5.1,4.5-3.7,8.5c1.1,3.2,3.2,5.6,5.7,7.6c4,3.3,8.3,6.3,13,8.5
			c11.5,5.5,21.9,12.8,31.9,20.3c3.8,2.8,7.8,5.7,11.6,8.6c0.8,0.7,1.7,1.1,2.3,3.1c-3.8-2.5-7-4.6-10.3-6.7
			c10.2,20.4,21.2,40.4,29.1,62c-6.8-11.5-11.9-23.9-19.5-35.1c0.3,2,0.8,3.8,1.1,5.8c3.5,20.3,4.2,40.8,3,61.2
			c-0.8,12.9-0.3,25.7,2.1,38.4c1.3,6.9,4.2,13.1,6.9,19.5c0.4,1,1.2,2,0.9,3.4c-3.5-3.2-5-7.5-8.1-11.8c-3,20.8-7,40.4-13.2,59.7
			c-6.2,19.2-14.4,37.7-25.7,54.6c3.9-20.3,7.7-40.7,10.2-61.2c-0.7,0-0.8,0.4-0.9,0.9c-6.8,25-16.3,49.1-25.1,73.3
			c-3.9,10.7-7,21.7-9.2,33c-1,5.1-0.9,10.1,0.4,15.4c-2.2-1.6-3-3.3-3.5-7.2c-1-7.2-1.2-14.5-0.8-21.7c0.7-11.3,1.3-22.6,3.4-33.8
			c0.1-0.5,0.4-1.2-0.1-1.9c-0.9,0.1-1,0.8-1.3,1.3c-11,24-20.3,48.6-24.7,74.8c-2.5,15-4.3,30.2-2.6,45.4
			c0.5,5.2,1.5,10.5,3.3,15.5c0.8,2.2,1.4,4.3,1.1,6.8c-3,0-4.2-2.2-5.4-4.3c-4.8-8.9-8-18.4-9.7-28.3c-2.6-14.8-2.2-29.5-1.1-44.4
			c0-0.7,0.4-1.3-0.1-1.9c-7.3,14.1-17.2,47.6,0,80.3c-2.8-1.3-4.6-3.1-6.1-5.1c-4.6-6.8-7.8-14.2-10.8-21.7
			c-1.3-3.2-2.4-6.4-3.8-9.6c0.5,7.2,2.3,14.2,5.2,20.8c2.2,4.9,4.7,9.7,7.2,14.4c3.4,6.2,8,11.4,15,14.3c-1.3,1.1-3.4-0.7-3.4,2
			c-18.5-12-34.2-26.3-46.4-44.3c-12.2-17.9-19.3-37.8-23.2-59c-5.6,21.4-6.3,42.4,4.4,62.8c-2,0.1-2.6-1.4-3.4-2.6
			c-6.8-10.8-10.9-22.5-13.3-35c-4.5-22.2-1.7-43.9,4.3-65.5c0.5-2.1,1.5-4,1.1-6.3c-14.4,25.2-29.8,49.7-54,67.2
			c12.7-15.8,22.4-33.3,30.1-52c7.6-18.6,13.3-37.8,18.3-57.4c-5.4,8.3-9.8,17-16.3,25.2c-0.3-1.6,0.3-2.5,0.8-3.3
			c7.3-11.5,10.9-24.2,13.6-37.3c3.4-17.5,6.2-35.2,10.8-52.5c2.5-9.5,5.5-18.9,9-28.1c2-5.1,2.8-10.4,2.4-15.8
			c-0.1-1-0.3-2.1,0.7-3.1c1.6,1.5,0.2,4,2.1,5.9c4-6.8,7.2-14,12.3-20c-20.7,35.2-27.4,74.5-35,114.2c1.6-1.3,1.9-2.7,2.3-4
			c3.4-9.1,5.6-18.5,9.8-27.1c3.5-7.1,7.2-14.1,12.2-20.3c0.7-0.8,1.1-1.7,2.6-2.4c-0.7,1.9-1.2,3.4-1.7,4.9
			c-13.8,34.1-24.4,69.3-35.2,104.4c-4.3,13.6-10.3,26.3-17.3,38.8c-0.5,1.1-1.4,2-1.5,3.4c1.2-0.1,1.5-1.2,2.2-2
			c9.8-12.3,17.7-25.9,25-39.8c6.9-13.1,13.4-26.4,20.8-39.3c0.5-1,0.9-2.1,2.1-2.8c0.7,3.3,0.3,6.1-1,9.1
			c-8.4,19.5-14.5,39.5-18.1,60.3c-2.6,14.5-2.7,29.1-0.2,43.7c0.2,1.5,0.7,3,1.2,4.4c0.4-4.4,0.1-8.9,0.7-13.2
			c0.5-4.6,1.4-9.2,3.1-13.6c1.5-4.3,3.4-8.3,5.9-11.8c4.6,40.2,21.5,73.5,53,99.2c-12.5-17.8-13.9-38.8-17-59.3
			c2.3-0.2,3.2,1.1,4,2.5c2.3,4,3.8,8.4,5.1,12.9c1.4,5,3,9.9,5.2,14.6c0.5,1.1,0.8,2.3,2.1,3.3c-0.9-5.6-1.4-10.8-1.4-16.3
			c0.1-9.5,1.7-18.8,5.4-27.6c5-12.2,9.1-24.8,13.1-37.4c0.8-2.4,1.6-4.8,3.5-6.8c-0.5,3.3-1,6.6-1.5,9.8
			c-2.5,16.3-4.7,32.6-4.3,49.1c0.2,9.9,1.4,19.8,4.2,29.4c-5.7-53.8,11.1-100.4,45-141.6c-9.1,13.7-8.4,29.4-9.9,44.8
			c10.7-32.9,26.9-63.6,37.8-96.5c-0.5,6.3-1.6,12.6-1.4,18.9c0.2,6.3-0.9,12.6-1.9,18.9c-1,6.2-2,12.6-2.7,18.9
			c2.6-4,4.6-8.4,6.4-12.8c11.3-25.8,15.4-52.8,14.6-80.7c-0.4-13.8-0.4-27.5-0.1-41.4c3.6,17.8,5.5,35.8,7.1,54
			c1-0.1,0.9-0.9,1.1-1.4c2-7.8,3.1-15.3,0.8-23.4c-2.3-8.1-1.6-16.6-2.1-25c-0.4-8.9,1.1-17.7,0.8-26.6c0-1.1,0.2-2.3-0.5-3.3
			c-4.6-6.6-7.4-14.3-12.9-20.2c-0.5-0.5-0.9-1.3-1.9-1.4c-1.4,2.5,1.9,5.6-1,8.2c-4.5-5.6-8.2-11.8-14-16.6
			c-1.1,3.9,1.5,7.5-0.1,11.6c-2.6-2.3-3.8-5.2-5.2-8c-1.5-2.7-2.8-5.6-5.8-7.4c-1.5,4.2,1.6,8.3-0.2,12.7
			c-4.7-5.1-6.8-11.6-11.6-16.9c-1.1,4.4,1,8.3-0.3,12.9c-4.4-5.7-6.3-12.3-11-17.6c-1.5,3.3-0.8,6.6-1.3,10.1
			c-5.7-3.1-4.3-10.5-9.2-13.9c-3.9,7.5-5.7,16.1-12.5,22.3c0-4.3,0.7-8-0.4-12c-5.7,7-11.8,13-19.6,18.4c0.8-3.6,3.4-6.2,2.3-9.9
			c-5.2,4.5-9.8,9.2-14.3,14c-3.8,4-7.3,8.4-10.7,12.8c-0.5,0.7-1,2.3-2.3,1.3c-1.1-0.8,0-1.7,0.3-2.4c2.8-5.2,5.8-10.4,8.6-15.6
			c0.4-0.8,1.1-1.5,1.1-2.8c-7.3,3.4-12.9,9-19.5,13.3c2.1-4.7,5.4-8.9,6.9-14.6c-6.6,3.4-11,8.4-16.5,13.3c0.7-7.4,2-14.2,3.4-21
			c1.4-6.8,3.4-13.6,5.2-20.2c-2.3,3.7-3.5,7.8-4.8,11.8c-4,13.4-6,27.3-8.4,41c-3.1,17-7.1,33.8-14.8,49.5c-2.3,4.6-4.9,9-8.4,12.8
			c-5.4,5.9-10.1,12.2-14.5,18.8c-1.2,1.7-2.4,3.6-4.7,4.9c-2.2-2.8-5.6-3.3-8.7-4.5c-1.3-0.4-2.5-0.4-3.6,0.7
			c-7,7-13.8,14-17.9,23.2c-3.3,7-4.2,14-1,21.3c1.9,4.4,3.2,8.9,5.7,13c0.2,0.3,0.4,0.5,1.1,1.2c1.2-12.5,6-22.9,13.7-32.1
			c-2.3,6.6-5.9,12.6-7.9,19.3c8.2-4.5,16.6-21.3,19.7-39.2c1.1,3.4,0.8,6.2,0.5,9.1c-1,12.8-8.1,22.3-16.6,31
			c-2.5,2.6-5,5.1-5.9,8.9c-1.1,4.9-0.1,9.4,3.3,13.2c0.5,0.5,1,1.1,1,2.2c-1.7,0.5-3.2-0.3-4.2-1.4c-9.4-10.1-15.8-21.4-15.1-35.7
			c0.7-10.7,5.8-19.1,13.1-26.6c1.7-1.9,3.6-3.6,5.6-5.2c2.7-2.4,4.2-5.4,5.6-8.7c2-4.8,4.8-9.2,10.6-10.2c2.7-0.5,4.2-2.5,5.2-4.7
			c2.5-5.1,4.6-10.4,6.1-15.8c2.1-7.8,4.7-15.3,8.1-22.7c0.9,0.8,0.4,1.5,0.2,2.2c-2.1,7.2-4,14.5-4.6,22.1
			c-0.7,8.2-2.6,12.1-9.4,20.7c0.9,1.3,2.4,2,3.5,3c1-0.1,1.3-0.9,1.7-1.4c9.3-12.1,14.6-25.8,17.3-40.8c2.2-12.5,4.7-24.8,9-36.8
			c0.1-0.2,0-0.5,0-1.4c-3.1,4-4.9,8.4-8.5,11.5c10.7-21,20.9-42.2,28.3-65.4c-4.6,3.1-7.2,7.4-11.9,9.1
			c5.2-8.2,12.8-14.5,18.8-23.2c-6.1,2.3-10.4,6.3-15.8,8c20.8-14.5,40.3-30.5,60.9-45.4c-4.9,6.6-11.7,11.1-17.8,16.8
			c1.9,0.1,3-0.5,4.2-1.1c10.7-4.8,19.9-12,28.9-19.3c1.9-1.5,2.8-3.8,1.6-6.3c-1-2.2-2.8-2.6-4.9-2.4c-20.8,1.9-40.2,7.3-57,20.3
			c-7.3,5.7-13.2,12.5-18,20.4c-9.2,15.3-15.4,31.7-21.2,48.4c-0.1,0.4-0.2,0.9,0.2,1.6c3.3-4.4,6.4-8.7,9.7-13
			c0.2,0.2,0.5,0.3,0.8,0.5C204.3,585.6,192.9,603,187.6,623.4z M197.7,318.4c1.6-1.3,1.2-3.1,1.7-4.4c0.3-0.9,0.7-1.6,1.6-1.7
			c1-0.1,1.5,0.5,2,1.3c0.9,1.5,1.3,3.2,1.5,4.8c0.2,1.9-0.8,3.6-0.8,5.5c2.7,0,5-1.6,8.2-0.7c-12.8,6.3-25.2,12.1-36.2,20.7
			c3.1-7.4,9.7-10.8,15.8-15.1c-1.5-0.2-2.8-0.1-4.3-0.1c-0.9,0-1.7,0-2.1-1.1c-0.3-1,0.2-1.5,0.9-2.2c1.3-1.2,3.2-2,4.3-3.6
			c-0.9-0.5-1.4-0.9-2.1-1.3c-7.2-4.8-10.7-11.9-12-20.2c-0.2-1.3-0.2-2.8,1.4-3.3c1.6-0.5,2.4,0.9,3.1,2c2.2,3.5,4.2,7,6.3,10.4
			c1.1,1.6,2.1,3.5,4.3,4.7c-0.2-2.4-0.5-4.6-0.8-6.7c-0.5-5.8-1.4-11.6-0.2-17.5c0.8-3.6,3.1-5.8,7.2-6.7c3.3-0.7,4.9,1.2,6.3,3.6
			c1.1,1.7,2.1,3.6,3.4,5.2c3.9,5.2,8.6,9.5,15.2,11.3c11,3,20.4-2.7,22.1-13.7c0.8-5-1.7-10.3-5.9-12.1c-3.8-1.7-7.2-0.3-11,4.6
			c-0.7,0.9-1.1,2.1-2.5,2.6c0.7-5.6,3.9-9,8.1-11.8c6.7-4.5,13.4-4.8,20.5-0.1c0.4-9.9,3.6-18.5,8.6-26.3c-0.3-0.2-0.4-0.3-0.4-0.3
			c-5,1-10.2,2.1-15.2,3.1c-6.3,1.3-7.3,0.8-9.9-5.2c-0.3-0.7-0.7-1.4-0.9-2.1c-1.4-4.2-1.7-8.5-2.5-12.8c-0.4-2.4-0.4-4.9-1.9-7.1
			c-2.4,1.1-1.4,3.7-3,5.2c-1.7-3-1.4-6.9-4.9-9c2.6,11.5,0.8,24.4,11.3,33.6c-14,3.8-27.1,8.7-39.2,15.7
			c-13.3,7.7-25.1,17-33.4,30.3c-8.6,13.8-11.1,29.3-12.1,45.1c-1.2,18-0.3,36.1-1.1,54.1c0,0.8-0.4,1.7,0.5,2.3
			c1.2-0.9,1.2-2.3,1.6-3.5c8.9-26.4,25.4-45.8,51.4-57c19.2-8.2,38.6-15.4,59.3-18.9c6.1-1,12.1-2.3,19-3.5
			c-11.3-6.9-19.2-15.8-24.7-27.1c-1.2,8.2-5,14.8-11.6,20.7c7.8-0.3,14.6-2.7,22.1,0.3c-5,1.9-9.5,2.2-14,2.5
			c-4.8,0.4-9.6,0.5-14.1,2.7c-6.8,3.4-13.8,3.3-21,1.9c-3.2-0.7-4.4-2.2-4.2-5.4c0.2-3.1-0.7-5.8-2.7-7.8
			c-4.7-4.6-8.3-9.9-10.6-16.2c-0.3-0.9-0.8-2-2-1.7c-1.4,0.2-2.4,1.2-2.7,2.6c-0.3,1.5-0.1,3,0,4.5c0.3,3,0.5,6,1,9
			C197.5,307.6,197.4,312.8,197.7,318.4z M257.7,271.7c0.2,14,5.5,25.2,15.2,34.3c12.7,11.8,28.4,16.2,45.2,16.2
			c14,0,26.7-4.9,37.5-13.9c20.1-16.9,21.4-43.6,4.8-62.1c-20-22.2-54.2-26.9-79.8-11.5C266.5,243.2,258.2,255.6,257.7,271.7z
			 M278.2,590.4c6.8-4.6,11-11.3,16.2-17.5c0.8,3.4,1.3,6.3,2.1,9.7c3.9-5.9,4.9-12.9,9.7-18.3c2.2,3,4.2,5.7,6.2,8.5
			c1.1-2.3-0.9-5,1.9-6.7c3.9,3.4,6.3,8,9.6,12.1c0.5-2.8-0.1-5-0.7-7.2c-0.2-1-0.7-2.2,0.7-2.7c1.4-0.7,1.7,0.7,2.3,1.5
			c3.5,5.1,7,10.2,10.6,15.3c0.5-3.4-0.9-6.4-1.1-9.7c-0.1-3.1-1.6-5.5-3.9-7.2c-7-5.5-14.9-8.9-24-8.2c-5,0.3-9.9-0.5-15-1.1
			c-0.8-0.1-2,0.1-2.4-1.2c2.4-2,5.5-3.2,7.2-5.8c3.1-4.4,7.3-5.1,12.2-4.5c4.8,0.7,9.7,1.2,14.6,0.9c6-0.3,11.3-2.3,15.2-7.1
			c1.2-1.5,1.6-3,0-4.5c-3-3-6.2-4.7-10.5-4.7c-13.8-0.1-27.5,0.3-41.3,1.5c-16.6,1.5-28.1,9.8-34.6,25c-3.9,9.1-4.5,18.5-4.5,28
			c1.7,0.4,1.9-1.9,3.5-1.4c0.8,4.7-3.3,7.8-4.2,12.6c3.2-2,5.8-3.7,8.4-5.4c2.7-1.6,5.4-3.4,8.9-4c-0.8,2.3-2.3,3.8-2.6,6.7
			c4.6-4.8,9.9-7.8,13.3-12.9c0.7-1.1,1.5-2.5,3.1-1.7c1.5,0.9,0.4,2.1,0.1,3.3C279,585.9,277.7,587.8,278.2,590.4z M403.2,789.6
			c14.9-11.5,27.3-35.2,14.2-58.4c-2-3.5-3.6-7-4.3-11c-0.7-4.2-1.9-4.8-5.9-3.5c-5.9,1.9-7.8,6.7-9.2,11.9
			c-3.3,12.5-1.6,24.7,2.4,36.7C402.9,773,405,780.8,403.2,789.6z M158.8,440.7c-2.2,0.2-3.8,1.4-5,3.2c-2.3,3.3-3.2,7-3.5,10.9
			c-0.5,8.6-1.1,17.3-1.6,26c-0.3,5-1.5,10.2-0.1,15.2c3.1,10.9,5.5,22,7.3,33.1c0.2,1.3,0.5,2.7,2.3,3.3c0.8-1.2,0.8-2.4,1-3.6
			c1.4-8.5,3-17,5.1-25.5c1.4-5.7,2.3-11.5,1.5-17.4c-0.5-4-1.2-8.1-0.9-12.1C166.1,462.2,163.4,451.4,158.8,440.7z M165.3,450.2
			c9.2-26,15-52.7,15.7-80.4c-3.7,1.6-6.2,4.3-8,7.4c-4.3,7.9-8.6,15.7-11.8,24.2c-2.1,5.5-3,11.3-1.7,16.9c1.1,5.5,1.5,11,2.1,16.5
			C162.2,440.2,162.4,445.4,165.3,450.2z M348.2,316.9c8.4,0.8,16.8,1.6,25.2,2.6c14.8,1.9,29.4,4.2,43.8,8.1
			c10.6,2.8,21.1,5.9,30.6,11.4c17.4,9.9,27,25.6,31.6,44.6c1.9,8,3.4,16,2.6,24.6c1.1-1,1.2-1.9,1.3-2.6c0.9-6.8,1.2-13.6-0.1-20.3
			c-5.4-26.8-21.1-44.9-46.2-55.1c-7.7-3.1-15.7-4.4-23.7-6.2c-16.3-3.7-32.6-8.3-49.5-8.3C358.7,315.6,353.3,315.5,348.2,316.9z
			 M378.6,292.3c-1.2-6.1-2.5-11.5-1.6-17.2c1.3-8.5,7.5-15,16.1-15.8c7.2-0.8,15.3,2.2,18.9,10.6c2.4,5.5,2,10.9-1.9,15.7
			c-1.3,1.6-3.3,2.8-5.5,2.2c-2-0.7-3-2.4-3.3-4.6c1.3-0.3,2.4-0.9,3.1-2.1c1.3-2.2,1.2-7.1-0.2-9c-1.5-2.1-5.4-3-8.3-2
			c-4.3,1.4-6.6,5.2-6.1,9.9c0.7,5.9,4.4,9.8,9.7,10.4c-0.1-1.3-1.4-1.4-2.2-2c-3.8-2.5-5.7-7.6-4.3-11.6c0.9-2.4,2.7-3.5,5.1-3.7
			c1.5-0.2,3.2,0,3.9,1.6s0.9,3.3-0.4,5c-0.7-1,0.1-2.2-0.9-3.1c-1.4,2.1-2.2,4.3-2.1,6.4c0.1,3.3,1.3,6.1,4.5,7.6
			c2.8,1.3,5-0.4,7.1-2.1c1-0.8,1.7-1.6,2.5-2.6c5.7-7.8,4-19.3-3.4-25.5c-8-6.6-21.5-6.2-27.8,0.5
			C373.8,269.4,372.3,282.7,378.6,292.3z M293.1,513.4c3.9-0.3,7.1,1.2,10.3,2.5c2,0.9,4.3,0.9,6.3,0c3.9-1.7,7.3-4.7,12.2-5.4
			c-3.8-3-6.4-6.2-8.4-10.5c-1.9,3.4-3.9,5.7-7,6.8c-2.3,0.9-4.7,1.4-7,2.1C297.1,509.8,294.9,510.6,293.1,513.4z M438.8,282
			c-2.2-2.2-4.2-1.4-6.1-0.2c-5.1,3.2-8.4,7.8-10.3,13.3c-1.7,5.1-3.8,10.1-10.8,9.3c2,4.2,6,4.9,9.7,2.3c3.8-2.7,6.3-6.4,7.8-10.8
			C430.8,290.3,432.8,284.9,438.8,282z M438.7,219.8c6.6-3.2,8.7-9,6-14.9c-1.1-2.3-2.3-4.6-3.8-6.6c-1.6-2.2-3.3-4.3-6-5.7
			c-1.4,6-0.7,11.6,1.5,17C437.7,212.9,439.4,215.9,438.7,219.8z M452.3,286.5c-0.1-5.1-2.8-9.8-7.3-13.6c-1-0.9-2.2-1.3-3.3-0.3
			c-1.3,1.1-0.8,2.2,0,3.3c0.3,0.5,0.8,1.1,1.1,1.6c3,4.7,4.2,9.6,2,15c-1,2.4-1.7,4.8-2.6,7.1c-0.3,0.8-0.5,1.4,0.1,2.1
			c0.7,0.5,1.4,1,2.3,0.8c0.9-0.3,1.7-0.8,2.3-1.5C450,296.9,452.3,292.5,452.3,286.5z M424,258.4c-0.1-1.2-1-1.3-1.5-1.5
			c-15.3-6.1-31.3-9-47.8-8.6c-1.1,0-2.3,0.2-3.3,1.5C389.1,253.1,406.4,255.9,424,258.4z M437.6,311.7c-0.7,1-0.2,2.1,0.1,2.7
			c2.2,3.7,4.6,7.4,8.1,10.1c3.4,2.5,8,1.2,10.2-2.5c1.3-2.2,1.6-4.8,2.5-7.2c0.3-0.9,0.4-1.6-0.4-2.3c-0.9-0.7-1.9-0.4-2.6,0.2
			c-1,0.9-1.9,1.9-2.8,2.7c-3,3.1-5.4,3.2-8.6,0.5c-1.1-0.9-2.1-2-3.1-3C440,312.4,439,311.4,437.6,311.7z M465.9,283.8
			c-1.4,1.6-0.8,3.2-0.3,4.6c0.5,2.1,1.2,4.2,1.1,6.3c-0.2,5.5,1.4,10.6,2.7,15.8c0.2,0.9,0.7,1.5,1.3,2.2c0.9,0.8,1.9,1,3,0.5
			c1.3-0.4,0.7-1.5,0.5-2.4c-0.1-2-0.3-3.9-0.2-5.9c0.2-5.4-1.3-10.3-3.4-15C469.4,287.6,468.2,285.4,465.9,283.8z M451.2,209.8
			c-0.5,5.7-2,10.4-3.8,15.1c-0.4,1.1-0.5,2.3-0.1,3.4c2.5,6.1,0.9,11.6-2.2,16.9c-0.8,1.2-1.5,2.6,0.4,3.6c1.6,0.8,2.7,0,3.4-1.5
			c2.1-5.5,4.2-10.9,6.1-16.4c0.5-1.4,0.1-2.8-1.5-3.1c-3.5-0.4-3.2-2.6-2.6-5c0.2-1.2,0.7-2.4,0.8-3.6
			C451.8,216.2,452.9,213.4,451.2,209.8z M474.2,267.2c-2.2-7.7-3.2-15.3-4.4-23c-0.1-1.1-0.9-1.7-2-1.5c-1.3,0.2-2.1,1.1-1.9,2.4
			c0.8,4.3,0.1,8.4,0,12.7C465.8,262.2,469.1,266.2,474.2,267.2z M460.1,325.8c0,3.4,1.1,5.1,3.4,5.1c2.4,0,3-1.5,3-3.5
			c0-3.3-1.4-5.6-3.6-5.4C460.5,322.2,460.1,323.9,460.1,325.8z M445.8,270.6c0.1-4.4-5.4-9.8-9.6-9.6
			C436.9,265.5,441.2,269.8,445.8,270.6z M275.6,523.3c-8.9,5.1-18.1,9.6-24.4,18.3C258.6,534.5,267.9,529.9,275.6,523.3z
			 M387.4,293.3c0.9,3.5,4,4.7,6.2,6.9c2.1,2.1,2.7,1.9,4.4-1c-2.8-1.9-5.7-3.7-8.5-5.5C388.9,293.4,388.4,292.9,387.4,293.3z"/>
		<path d="M457.6,206.2c-5.6-5.6-11-10.5-14.9-16.6c-6.1-9.8-15.1-15.4-25.9-18.3c-12.2-3.3-24.4-6.8-37-7.9
			c-2.6-0.2-5.2-0.4-7.9-0.4c-17.2-0.3-34.3-1.5-51.6-1.1c-27.6,0.5-54.2,6.7-79.9,16.8c-7,2.7-14,5.6-20.9,8.6
			c-9.6,4.4-17.8,10.6-24.7,18.6c-2.6,3-5.2,6-7.7,9.1c-2.2,2.7-4.7,5.1-8.1,6.7c-0.7-0.9-0.4-2-0.3-2.8
			c2.1-20.5,6.4-40.3,16.2-58.9c5.7-10.8,14.1-17.8,25.5-22c15-5.6,30.6-8.9,46.2-12c29.3-6,58.7-7.2,88.5-4.8
			c18.7,1.5,37.5,2.7,56.1,5.4c7.9,1.1,15.7,2.2,23.5,3.4c5.8,0.9,9,4.3,10.1,10.3c3.1,18.3,8.4,36.1,11.9,54.2
			C457.3,197.9,458.3,201.6,457.6,206.2z M453.2,194.8c-2.5-18.7-6.8-36.6-12.9-54.1c-1.5,6.7-2.1,13.3-2.3,20.1
			c-0.2,11.8,2.8,22.4,10.6,31.5C449.7,193.6,450.9,194.7,453.2,194.8z"/>
		<path d="M296.3,361.4c4-5.1,5.6-11.1,9.6-15.7c-0.4,5.1-1.7,10.1-4,14.6c-1.3,2.5-3,4.9-5,6.8c-1.7,1.6-3.5,2.2-5.8,0.7
			c-3.5-2.4-7.3-1.7-11.3-1c3.4,1.7,7,3.1,10.8,3.3c1.5,0.1,3.1,0.2,4.3,1.3c1.6,1.5,1.3,4.6-0.5,5.8c-5,3.3-9.3,7.5-10.8,13.4
			c-4.9,18.8-18.4,29.7-34.4,38.5c-5.5,3-11.3,4.8-17.3,6.2c-1.5,0.4-1.5,0.3-3.2-0.2c0.9-1.6,3.2-1,4.3-2.6
			c-3.1-2.1-7.1-1.5-10.4-3.9c2-0.8,3.7-0.7,5.5-0.4c2.2,0.2,4.3,0.7,6.4,0.8c5.5,0.4,10.1-1.2,13.2-5.9c3.1-4.6,5.9-9.3,8.1-14.2
			c2.3-5.4,0.8-7.9-4.9-9.1c-6.8-1.3-13.3-0.3-19.7,2.1c-1.1,0.4-2.2,1.2-3.4-0.2c5.9-3.8,12.3-5.9,18.9-8.2c-1.1,0-2.1-0.1-3.2,0
			c-10.1,1.3-20.3,2.3-28.4,9.7c-2.8,2.6-5.4,5.6-7.9,8.5c-2.6,3.1-5.5,5.8-8.4,8.4c-1.6,1.5-3.5,2.7-5.9,3.1
			c3.9-4.4,8.4-8.1,12.3-13.2c-5.8,0.9-10.1,5.4-16,4.2c1-1.3,2.4-1.5,3.6-2c7.3-2.6,13.2-7.1,17.6-13.7c5-7.5,11.6-13.3,19.7-17.6
			c5.1-2.7,8.7-7.1,12.2-11.6c1.2-1.5,1-3-0.2-4.4c-3.2-3.6-7-5.2-11.9-4.4c-10.7,2.1-19,7.9-25.5,16.6c-0.8,1.1-1.5,2.2-2.2,3.3
			c-0.5,0.8-1.1,1.2-2.1,1c-1-0.2-1.4-1-1.4-1.9c0.2-9.3,0-18.6,8.2-25.4c6.8-5.6,14.4-8.3,23.1-7.3c18,2.1,35.8,5.1,52.8,12
			c3.2,1.3,6.1,0.4,9.1-0.4C295.4,357.6,295.7,358,296.3,361.4z"/>
		<path d="M342.8,634.5c0.2,2-0.5,3.7-1.3,5.4c-11.5,25.5-25.5,49.7-39,74.2c-11.3,20.4-22.7,40.7-33,61.6
			c-9.8,20.1-16,41.3-20.7,63.1c-0.2,0.9-0.3,1.9-0.5,2.7c-0.1,0.2-0.2,0.5-0.3,0.8c-1.1-0.3-0.8-1.2-0.7-1.9
			c2.3-14.9,3.9-29.7,7.4-44.4c4.2-17.5,11.7-33.4,19.8-49.3c11-21.6,23.4-42.5,38-62c6.8-9,11.3-19.2,17-28.7
			C334.1,648.9,338.5,641.7,342.8,634.5z"/>
		<path d="M335.5,600.1c-0.2,4.9-0.9,9.5-2.7,13.9c-6.4,15-14.5,29-23.1,42.8c-18.3,29.7-38,58.6-56.4,88.3
			c-9.6,15.5-18.8,31.3-25.4,48.3c-1.2,3.2-2,6.6-3.8,9.9c-1.3-1.9-1.1-3.6-0.5-5.1c4.6-12.9,8.1-26.1,14.4-38.4
			c2-3.8,3.9-7.8,6.4-11.3c10.9-15.3,19.2-32,29-48c10.6-17.4,22.5-33.8,34.3-50.3c10.7-15,19.7-30.8,26.3-48.1
			C334.4,601.6,334.4,600.7,335.5,600.1z"/>
		<path d="M243.2,701.8c0.7-3.8,2.2-6.9,3.5-9.9c11.6-27.2,27.6-51.7,44.5-75.7c7-9.8,13.8-19.9,19.1-31.1c1.2,3,0.5,5.4-0.1,7.8
			c-2.5,9.2-6.7,17.6-11.8,25.6c-15,23.3-30.3,46.3-46,69c-2.5,3.6-4.8,7.4-6.9,11.4C244.9,699.7,244.6,700.8,243.2,701.8z"/>
		<path d="M266.2,846c-0.8-2.8,0-5.2,0.5-7.7c4.7-20.5,14-39.2,23.2-57.9c9.5-19.6,20.1-38.7,28.4-58.9c1.5-3.7,2.8-7.4,4.3-11.1
			c0.3-0.9,0.3-1.9,1.4-2.3c0.7,1,0,1.9-0.1,2.6c-3.4,20.2-10.3,39.1-19.8,57.3c-6.8,13-13.1,26.1-20.7,38.7
			c-6.7,11.1-11,23.3-15.1,35.6C267.9,843.5,267.6,844.9,266.2,846z"/>
		<path d="M320,764.7c12.8-33.4,21.4-67.9,25.7-103.4C350,680,333.2,745.6,320,764.7z"/>
		<path d="M163.9,611.8c-5.2,2.2-9.5,4.9-15.1,6.2c3.2-7.4,6.1-14.4,9.3-21.9c0.7,2.6,0.4,3.8-1.5,9c-1.1,2.8-2.2,5.6-3.4,8.5
			c5.1-0.2,9-5.5,14.6-2.8c-2.7,4-5.4,8.2-8.4,12.8c4.7-0.5,8.5-2.5,13-3.8c-0.9,5.2-1.7,10.2-2.6,15.6c2.2-0.8,3.8-1.4,5.5-2
			c0.1,0.1,0.1,0.3,0.2,0.4c-3.4,1.7-6.7,3.5-10.1,5.2c2.2-5.6,3.9-11,4.7-17.5c-6.4,2.5-12.6,4.9-18.6,7.3
			C155.3,623.2,159.9,618.3,163.9,611.8z"/>
		<path d="M364,708c-3.2-11.7-4.9-68.6-2.4-80.2C364.1,654.5,364.9,681.1,364,708z"/>
		<path d="M227.9,830.4c-1.7,21.7,0.4,42.9,7,64.2C225.7,885.7,220.3,843.7,227.9,830.4z"/>
		<path d="M454.1,363.1c1.3,3.3,1.5,6.8,1.5,10.2c0.1,12.1,0.5,24.2,3,36.1c1.3,6.8,3.5,13.3,5.4,19.9c0.2,1,0.8,1.9,0.4,3.4
			C452.2,410.5,452.6,386.9,454.1,363.1z"/>
		<path d="M402.1,374.3c-4-1.2-7.6-3.2-11.8-3.8c-7.2-1.1-14.2-0.7-21.1,2.1c-4.9,2-9.9,3.6-15.2,4c8.5-3.5,16.6-8.3,26-9.6
			C388.5,365.7,395.8,368.5,402.1,374.3z"/>
		<path d="M451.9,440.9c-8-8.6-16.5-16.4-26.7-23c10.7,1,18.8,7,22.7,16.2C449.1,436.5,450.6,438.7,451.9,440.9z"/>
		<path d="M407.1,669.7c-3.4-16.8-6.7-33.8-10.1-50.6c0.2,0,0.5-0.1,0.8-0.1C402.5,635.4,406.3,652.3,407.1,669.7z"/>
		<path d="M407.7,691.9c1.3-6.2,2.6-12.5,3.9-18.6c0.2,0,0.5,0.1,0.8,0.1C412.8,680,411.5,686.3,407.7,691.9z"/>
		<path d="M168.1,329.4c0-3.1,0-6.2,0-9.3c0-1.2,0.1-2.4,1.5-2.7c1.2-0.3,1.9,0.7,2.4,1.5c3.5,6.1,4.5,12.8,3.4,19.7
			c-0.1,1-0.4,2.1-1.2,2.8c-1,1.1-2.1,1.5-3.5,1.2c-1.4-0.4-2-1.4-2-2.8c0-3.5,0-7,0-10.5C168.6,329.4,168.4,329.4,168.1,329.4z"/>
		<path d="M247.5,262.1c-15.6,2.1-30.1,6.1-44.6,12.3c1.1-2.3,2.5-3.3,3.9-4.3c6.7-4.5,14.2-6.8,22-8.4c4.6-1,9.3-1.4,14-1.2
			C244.3,260.8,245.7,260.8,247.5,262.1z"/>
		<path d="M224,301.5c-2.8,0.7-4.8-0.3-6.4-2c-2.2-2.1-3.8-4.6-5.5-7.1c-3.1-4.7-6-9.5-9.2-14.5c1.5,0.1,2.4,1,3.4,1.7
			c3.1,2.4,5.5,5.5,7.6,8.6C217,292.8,219.8,297.4,224,301.5z"/>
		<path d="M233.3,282.7c3.8,3.6,4.4,7.5,1.6,11.4c-2.4,3.4-6.7,4.5-10.7,2.4c1.6-0.8,3.1-1.3,4.4-2.1c3.5-2,4.5-3.8,3.9-7.8
			C232.5,285.3,232.2,284,233.3,282.7z"/>
		<path d="M161.9,321.1c1.5,4.6,1.5,9.2,1.1,13.9C161.7,330.4,161.6,325.8,161.9,321.1z"/>
		<path d="M268.4,275.9c8.3,9.2,14.5,2.2,21.1-2.7c1.6,2.6,3.2,5.1,5.2,7.2c9.5,9.3,27.2,10.2,37.6,1.9c9-7.1,8.2-19.9-1.6-26.9
			c-11.7-8.4-27.9-7-38,3.3c-0.8,0.8-1.4,1.3-2.6,1c-8.9-2.5-15.7,0.4-20.8,8c-0.1,0.1-0.3,0.2-0.8,0.4c-0.4-2.4,0.3-4.5,1-6.6
			c4.2-11.6,12-19.9,23.3-24.5c19.9-8.2,38.7-6.3,55.4,7.6c15,12.6,18.4,33,8.3,48.2c-7.7,11.8-18.8,18.6-32.6,20.4
			c-15,2.1-28.7-1.3-40.8-10.8c-7.7-6-12.9-13.7-14.8-23.4c-0.1-0.7-0.2-1.3-0.3-2C268.1,276.9,268.2,276.7,268.4,275.9z M352,287.7
			c-12,10.5-25.1,16.8-41.3,16.5C319.9,311.9,348.2,300.6,352,287.7z"/>
		<path d="M334.4,270.5c1.4,3.1,1.1,5.5-0.9,7.5c-10.2,10.9-29.7,12.7-39.5-3.4c-0.5-1-1-1.9,0-2.7c0.9-0.8,2-0.8,2.8-0.1
			c2.4,1.5,4.8,3.1,7.4,4c3.4,1.2,4.3,0.5,3.8-3.2c-0.1-0.7-0.3-1.3,0.2-2c2.7,0.2,3.5,2.8,5.2,4.4c3-2,1.2-4.7,1.3-7
			c4.3,0.2,5.5,1.7,4.7,5.6c-0.7,3.2,0,4,3.2,4.6c4,0.7,6.9-1.1,9.2-4.3C332.9,272.9,333.5,272,334.4,270.5z"/>
		<path d="M311.5,266.2c0.8-3.8-1.4-6.3-3.8-9.1c4.2-1.6,8-3.1,11.9-3.7c4.5-0.8,9.9,3.9,10.8,9.3c0.5,3.2,0.1,6.2-1.9,9
			c-0.9,1.2-2.1,2.1-4.4,2.4c1.9-4.3,3.5-8.2-1.5-10.8C318.2,260.9,315.3,264.6,311.5,266.2z"/>
		<path d="M339.6,235c6.9,2.2,12.8,5.8,17.5,11.1c5.2,6.1,9,13.1,11.5,20.7c1.9,5.4,1,10.3-2.5,14.9c-0.9-0.7-0.5-1.2-0.3-1.7
			c1.9-5.1,1-10.1-1.5-14.8c-2.6-4.9-5.4-9.7-8.2-14.5c-3.2-5.5-7.6-9.7-12.9-13.3C341.8,236.7,340.8,235.9,339.6,235z"/>
		<path d="M272.2,248.8c-4.9,12.5-12.7,24.4-7.3,39.3c-2.8-2.1-3.9-4.3-4.4-6.8c-2.2-12.3,1.4-22.8,9.9-31.9
			C270.9,249,271.2,248.5,272.2,248.8z"/>
		<path d="M288.5,233.9c-0.1,2.2-1.1,3.4-2.3,4.3c-2.8,2.4-5.8,4.7-8.7,7.1c-0.8,0.7-1.6,1.4-2.7,0.5c-1.2-1.1-0.4-2.1,0.2-3
			C278.6,238.6,283.3,236.2,288.5,233.9z"/>
		<path d="M302,255.1c-2.3,4.2-5.7,8-3.4,13.2c-2.2,0.5-3.4-0.3-4.2-2C292.3,261.6,296.2,255.6,302,255.1z"/>
		<path d="M409.3,724.6c6.4,10.6,8.7,31.8,1.3,41.3C414.6,751.9,412,738.6,409.3,724.6z"/>
	</g>
</g>
<g>
	<g>
		<path fill="#C4BA98" stroke="#000000" stroke-width="0.5" stroke-miterlimit="10" d="M480.9,683.6v-13.2h10.3v2.3h-7.9v3.5h4.3
			v2.4h-4.3v4.1L480.9,683.6z"/>
		<path fill="#C4BA98" stroke="#000000" stroke-width="0.5" stroke-miterlimit="10" d="M493.9,673.6c0-1.2,0.2-2,0.5-2.5
			c0.3-0.4,1-0.7,2-0.7h7.5c1,0,1.7,0.2,2,0.7s0.5,1.3,0.5,2.5v6.9c0,1.2-0.2,2-0.5,2.5c-0.3,0.4-1,0.7-2,0.7h-7.5
			c-1,0-1.7-0.2-2-0.7c-0.3-0.4-0.5-1.3-0.5-2.5V673.6z M496.2,681.2h7.8v-8.3h-7.8V681.2z"/>
		<path fill="#C4BA98" stroke="#000000" stroke-width="0.5" stroke-miterlimit="10" d="M511.4,681.5v-11.1h8.7
			c0.8,0,1.4,0.2,1.8,0.6c0.4,0.4,0.6,1.1,0.6,2v3.1c0,0.9-0.2,1.5-0.6,2c-0.4,0.4-0.9,0.6-1.8,0.6h-1.3l4.7,5h-3.4l-4.1-5h-2.2v2.4
			L511.4,681.5z M519,672.7h-5.3v3.7h5.3c0.4,0,0.7-0.1,0.8-0.2c0.1-0.1,0.2-0.4,0.2-0.8v-1.6c0-0.4-0.1-0.7-0.2-0.8
			C519.7,672.8,519.5,672.7,519,672.7z"/>
	</g>
	<g>
		<path fill="#C4BA98" stroke="#000000" stroke-width="0.5" stroke-miterlimit="10" d="M463,710.2c0.9-0.1,1.4,0.3,1.4,1.2v1.5h2.6
			c1,0,1.3,0.3,0.7,1h-3.2c0,1.7,0.1,2.6,0.3,2.6c0.5,0.1,0.8,0,1.2-0.2c1.1-0.2,1.7,0.2,1.5,1.2c-0.1,0.8-0.2,1.9-0.2,3.4
			c0.1,1.1-0.5,1.5-1.7,1.2c-1.4-0.5-2.8-0.5-4.3,0c-0.9,0.6-1.4,0.3-1.5-0.8c-0.1-1.1-0.3-2.4-0.7-3.8c0.1-0.9,0.7-1.2,1.9-0.8
			c0.9,0.1,1.4-0.1,1.4-0.7c0-1.3,0-2.5-0.2-3.6C462,710.8,462.3,710,463,710.2z M461.3,718.4c-0.1,1.4,0.1,2.1,0.7,2.2
			c2.6,0.3,3.8,0,3.6-1.2c0.2-1.6-0.8-2.2-3.3-1.9C461.7,717.5,461.3,717.8,461.3,718.4z M468.2,714.4c0.5,0,0.7,0,0.8-0.2
			c-0.1-1.3-0.2-2.5-0.2-3.6c-0.1-0.8,0.3-1.1,1.2-1c0.6,0,0.8,0.3,0.8,0.8c-0.1,1-0.1,2.2,0,3.6c3.8-0.6,5.6-0.6,5.5,0
			c0.2,0.3,0.2,0.5-0.2,0.5c-1.7,0.2-3.4,0.5-5.1,0.8c0.3,1,0.7,1.9,1,2.6c0.5-0.6,0.9-1.3,1.4-2.1c0.3-0.3,0.7-0.5,1-0.3
			c0.5,0.3,0.6,0.7,0.5,1.2c-0.7,0.9-1.3,1.7-1.9,2.2c1.3,1.3,3.3,1.8,6.2,1.7c0.2,0.1-0.1,0.7-1,1.7c-1.3,1.3-2.6,1.5-3.9,0.7
			c-0.6-0.5-1.5-1.3-2.7-2.6c-1.1,0.8-2.3,1.3-3.6,1.4c-0.6-0.1-0.7-0.3-0.3-0.7c1.1-0.3,2.2-1,3.1-2.1c-0.5-0.7-0.9-1.8-1.4-3.4
			c-0.6,0.1-1.1,0.3-1.5,0.5c-0.7,0.1-1-0.2-0.8-1C467,714.8,467.4,714.6,468.2,714.4z M473.7,710.5c0.3-0.8,0.8-1,1.4-0.7
			c0.6,0.3,0.7,0.8,0.5,1.4c-0.5,0.7-1.2,1.1-2.2,1.2c-0.5,0-0.6-0.2-0.5-0.5C473.2,711.4,473.4,711,473.7,710.5z"/>
		<path fill="#C4BA98" stroke="#000000" stroke-width="0.5" stroke-miterlimit="10" d="M487.2,714.4c0.6,0,1,0.2,1.2,0.5
			c-0.1,0.5-0.5,0.6-1.2,0.5c-0.7,0-1.4,0-2.1,0.2c0.2,0.3,0.1,0.7-0.3,1l-0.8,0.8c-0.3,0.5,0,0.7,0.8,0.8c0.7,0.1,1.3-0.1,1.7-0.7
			l-0.5-1c0.1-0.3,0.3-0.5,0.7-0.3c0.3,0.2,0.7,0.5,1,0.7c0.2,0.5,0.5,1,0.8,1.5c-0.1,0.2-0.2,0.3-0.3,0.3c-0.5,0.1-0.9-0.1-1.4-0.7
			c-0.7,1.3-1.4,1.7-2.2,1.4c-0.7-0.5-1.3-0.5-1.9-0.2c-0.2,0-0.5-0.2-0.7-0.5c-0.1-0.5,0.1-0.9,0.7-1.4c1-0.9,1.4-1.5,1-1.9
			c-0.5-0.1-1.1,0-2.1,0.3c-0.3,0.2-0.6,0.2-0.7-0.2c0.1-0.8,0.5-1.3,1.2-1.4L487.2,714.4L487.2,714.4z M487.2,712
			c0.3,0,0.6,0.2,0.7,0.5c0,0.3-0.1,0.5-0.3,0.5h-2.7c-0.8,0-1.5,0-2.2,0.2c-0.2-0.1-0.3-0.3-0.3-0.7c0.1-0.3,0.3-0.6,0.7-0.8
			C483.7,711.9,485.1,712,487.2,712z M491.6,716.8c-0.3-0.1-0.7-0.1-1,0c-0.3,0.2-0.7,0.4-1,0.5c-0.2,0-0.4,0-0.5-0.2
			c-0.2-1.7-0.5-3.3-0.7-4.6c-0.1-0.7,0.2-1,1-1c0.3,0.2,0.9,0.3,1.7,0.2c0.3-0.3,0.7-0.9,1.2-1.7c0.1-0.2,0.3-0.3,0.7-0.3
			c1,0.3,1.3,0.7,0.8,1.2c-0.3,0.3-0.6,0.6-0.8,0.8c0.8,0,1.8,0.1,3.1,0.3c0.3-0.1,0.6-0.2,0.8-0.3c0.3-0.1,0.6,0,0.8,0.2
			c0.5,0.3,0.6,0.8,0.3,1.5c-0.3,1-0.6,2.1-0.7,3.3l-0.5,0.3c0.5,0.3,0.5,0.6,0.2,0.8c-0.2,0.2-0.5,0.5-0.7,0.7
			c-0.2,0.1-0.2,0.3,0.2,0.5c0.5,0.1,0.8,0,1.2-0.2c-0.5-0.3-0.5-0.6-0.2-0.7c0.5,0,0.8,0,1,0.2c0.2,0.3,0.5,0.7,0.7,1
			c-0.1,0.1-0.3,0.2-0.5,0.3l-0.7-0.5c-0.2,0.7-0.6,1-1.2,0.8c-0.5-0.3-0.9-0.5-1.4-0.3c-0.3-0.2-0.5-0.5-0.3-0.8
			c0.2-0.2,0.5-0.5,0.7-0.8c0.1-0.2,0.3-0.6,0.5-1c-0.9-0.1-2-0.2-3.3-0.2c-0.8,2.6-2.3,4.5-4.6,5.6c-1.8,0.7-3.2,0.4-4.1-0.8
			c0-0.1,0.2-0.2,0.7-0.2C488.7,721.1,490.8,719.6,491.6,716.8z M492.1,712.5c-0.8,0-1.4,0.1-1.9,0.3c-0.2,0.7-0.1,1,0.3,1l1.9-0.2
			C492.6,713.2,492.5,712.8,492.1,712.5z M492.3,714.6c-0.6,0-1.3,0-2.1,0.2c0,0.8,0.2,1.2,0.5,1.2l1.2-0.2L492.3,714.6z
			 M493.5,717.7c0.1-0.5,0.3-0.7,0.7-0.7c0.2,0,0.4,0.1,0.5,0.3c-0.2,0.5-0.4,0.9-0.5,1.4c0,0.5,0,0.8,0.2,1c0.5,0.6,1.4,1,2.7,1.2
			c1.1,0.1,2.2,0,3.3-0.3c0.7-0.3,1.1-0.4,1.4-0.2c-0.1,0.7-0.5,1.5-1.2,2.4c-0.8,0.7-1.5,0.9-2.1,0.7c-1.9-0.3-3.5-1.1-4.8-2.4
			c-0.6-0.7-0.8-1.3-0.7-1.9C493.2,718.7,493.4,718.1,493.5,717.7z M496.1,716.1c0.2-0.5,0.3-0.8,0.2-1.2c-0.5-0.2-1.3-0.3-2.6-0.3
			c-0.1,0.5-0.2,0.9-0.2,1.4C494.4,716.1,495.3,716.1,496.1,716.1z M493.9,713.8l1.9,0.2c0.5,0.1,0.7-0.1,0.7-0.7
			c0-0.5-0.7-0.7-2.1-0.7C494,712.7,493.9,713.1,493.9,713.8z"/>
		<path fill="#C4BA98" stroke="#000000" stroke-width="0.5" stroke-miterlimit="10" d="M508.9,713.6c0.2-0.5,0.4-0.7,0.5-0.7
			c0.6-0.1,0.7,0.3,0.5,1.2c-0.3,1-0.8,2.1-1.5,3.3c-0.6,0.9-1.1,1.6-1.7,2.1c-1.1,1-2.3,1-3.6-0.2c-0.3-0.3-0.2-0.7,0.3-1
			C505.4,717.3,507.2,715.7,508.9,713.6z M512.8,710.2c1.1-0.1,1.7,0.5,1.5,1.9c-0.1,2.8,0,6.1,0.2,9.6c0,1.4-1.1,2-3.3,1.9
			c-1.1-0.1-2.5-0.7-3.9-1.9c-0.2-0.6-0.1-0.8,0.3-0.8c2.2,0.7,3.5,0.8,3.9,0.3c0.3-0.2,0.5-3.4,0.3-9.6
			C512,710.6,512.3,710.2,512.8,710.2z M515.6,714.1c-0.3-0.5-0.3-0.8,0.2-1c0.2-0.1,0.5,0,0.7,0.2c1.6,2.1,4,3.8,7.2,5.3
			c-0.3,0.6-0.7,1-1,1.2c-1,0.9-2,0.9-2.9,0C518.2,717.9,516.8,716,515.6,714.1z"/>
		<path fill="#C4BA98" stroke="#000000" stroke-width="0.5" stroke-miterlimit="10" d="M532.5,716.5c-0.3,1.1-0.7,2-1,2.6l2.2-0.3
			c-0.1-0.5-0.2-0.9-0.2-1.4c0.1-0.5,0.5-0.7,1.2-0.8c0.5,0,0.8,0.1,1.2,0.3c0.5,0.1,0.8,0.1,1,0v-5.6c0-0.7,0.2-1.1,0.7-1.2
			c1.1,0,1.7,0.4,1.7,1.2c-0.1,0.6-0.2,1-0.2,1.4c2.4,0.1,4.4,0.2,6,0.2c0,0.6-0.2,1.1-0.5,1.5c-0.5,0.5-0.9,0.6-1.4,0.3
			c-1.8-0.6-3.2-0.7-4.1-0.5c-0.2,0.9-0.2,1.8,0,2.7c0.8,0.1,1.4,0,1.9-0.2c1.5-0.5,2.2,0,2.2,1.2c-0.2,0.9-0.3,2.1-0.3,3.4
			c0.2,1.5-0.3,2-1.5,1.5c-1.6-0.2-3.3-0.3-5.1-0.2c-1.4,0.7-2.1,0.3-2.2-1.2c0-0.3,0-1-0.2-1.9c-2.3,1-5,1.8-8,2.4
			c-1,0.2-1.5-0.2-1.4-1.2c0-0.6,0.6-0.9,1.7-1c1.3-0.1,2.7-0.3,4.3-0.5c0.3-1.3,0.5-2.5,0.5-3.6c0-0.8,0.2-1.2,0.7-1.2
			C532.6,714.6,532.9,715.2,532.5,716.5z M531.2,711.2c-0.1,1.4,0,2,0.3,1.9l2.4,0.2c0.6,0.5,0.6,0.8,0.2,1
			c-0.2,0.1-0.6,0.2-1.2,0.2c-2.3-0.5-4.6-0.3-7,0.5c-0.5,0.1-0.7,0-0.7-0.5c0.2-1,0.7-1.5,1.4-1.4c0.9,0.2,1.6,0.3,2.1,0.2
			c0.3-0.1,0.5-0.8,0.3-2.1c0.1-0.5,0.3-0.7,0.7-0.7C530.3,710.4,530.8,710.6,531.2,711.2z M529.4,718.7c-0.2,0.3-0.5,0.4-0.8,0.2
			c-0.7-1-1.1-1.9-1.2-2.7c-0.1-0.8,0.2-1.3,0.8-1.4c0.6-0.1,0.8,0.1,0.8,0.7C529.2,716.6,529.3,717.7,529.4,718.7z M539,718
			c-1.6-0.1-2.6,0-3.1,0.3c-0.3,0.8-0.3,1.6,0,2.4c0.1,0.6,1.4,0.7,3.8,0.5c1,0,1.5-0.6,1.5-1.7C541.2,718.4,540.5,717.9,539,718z"
			/>
	</g>
	
		<linearGradient id="SVGID_1_" gradientUnits="userSpaceOnUse" x1="410.0625" y1="227.0502" x2="410.0625" y2="227.0502" gradientTransform="matrix(1.0929 0 0 -1.0929 0 955.5428)">
		<stop  offset="0" style="stop-color:#C4BA98"/>
		<stop  offset="1.474962e-002" style="stop-color:#CEC5A9"/>
		<stop  offset="4.332456e-002" style="stop-color:#DDD7C4"/>
		<stop  offset="7.615717e-002" style="stop-color:#EAE6DA"/>
		<stop  offset="0.1145" style="stop-color:#F3F1EB"/>
		<stop  offset="0.162" style="stop-color:#FAF9F6"/>
		<stop  offset="0.2285" style="stop-color:#FEFEFD"/>
		<stop  offset="0.4133" style="stop-color:#FFFFFF"/>
		<stop  offset="0.4696" style="stop-color:#DDDBD8"/>
		<stop  offset="0.5499" style="stop-color:#B2AFA6"/>
		<stop  offset="0.6258" style="stop-color:#908B7F"/>
		<stop  offset="0.6952" style="stop-color:#787263"/>
		<stop  offset="0.7558" style="stop-color:#696252"/>
		<stop  offset="0.801" style="stop-color:#645D4C"/>
		<stop  offset="0.8499" style="stop-color:#776F5B"/>
		<stop  offset="0.9484" style="stop-color:#A89F82"/>
		<stop  offset="1" style="stop-color:#C4BA98"/>
	</linearGradient>
	
		<linearGradient id="SVGID_2_" gradientUnits="userSpaceOnUse" x1="410.0625" y1="227.0502" x2="410.0625" y2="227.0502" gradientTransform="matrix(1.0929 0 0 -1.0929 0 955.5428)">
		<stop  offset="0" style="stop-color:#C4BA98"/>
		<stop  offset="1.389108e-002" style="stop-color:#C7BD9D"/>
		<stop  offset="0.1655" style="stop-color:#E5E1D2"/>
		<stop  offset="0.2794" style="stop-color:#F8F7F3"/>
		<stop  offset="0.3418" style="stop-color:#FFFFFF"/>
		<stop  offset="0.4046" style="stop-color:#E1E0DC"/>
		<stop  offset="0.5083" style="stop-color:#B5B1A9"/>
		<stop  offset="0.6058" style="stop-color:#928D81"/>
		<stop  offset="0.6943" style="stop-color:#797364"/>
		<stop  offset="0.7708" style="stop-color:#696352"/>
		<stop  offset="0.8265" style="stop-color:#645D4C"/>
		<stop  offset="0.8691" style="stop-color:#776F5B"/>
		<stop  offset="0.955" style="stop-color:#A89F82"/>
		<stop  offset="1" style="stop-color:#C4BA98"/>
	</linearGradient>
	<path fill="url(#SVGID_1_)" stroke="url(#SVGID_2_)" stroke-width="0.5" stroke-miterlimit="10" d="M448.1,707.4"/>
	
		<linearGradient id="SVGID_3_" gradientUnits="userSpaceOnUse" x1="419.2456" y1="234.0038" x2="419.2456" y2="234.0038" gradientTransform="matrix(1.0929 0 0 -1.0929 0 955.5428)">
		<stop  offset="0" style="stop-color:#C4BA98"/>
		<stop  offset="1.474962e-002" style="stop-color:#CEC5A9"/>
		<stop  offset="4.332456e-002" style="stop-color:#DDD7C4"/>
		<stop  offset="7.615717e-002" style="stop-color:#EAE6DA"/>
		<stop  offset="0.1145" style="stop-color:#F3F1EB"/>
		<stop  offset="0.162" style="stop-color:#FAF9F6"/>
		<stop  offset="0.2285" style="stop-color:#FEFEFD"/>
		<stop  offset="0.4133" style="stop-color:#FFFFFF"/>
		<stop  offset="0.4696" style="stop-color:#DDDBD8"/>
		<stop  offset="0.5499" style="stop-color:#B2AFA6"/>
		<stop  offset="0.6258" style="stop-color:#908B7F"/>
		<stop  offset="0.6952" style="stop-color:#787263"/>
		<stop  offset="0.7558" style="stop-color:#696252"/>
		<stop  offset="0.801" style="stop-color:#645D4C"/>
		<stop  offset="0.8499" style="stop-color:#776F5B"/>
		<stop  offset="0.9484" style="stop-color:#A89F82"/>
		<stop  offset="1" style="stop-color:#C4BA98"/>
	</linearGradient>
	
		<linearGradient id="SVGID_4_" gradientUnits="userSpaceOnUse" x1="419.2456" y1="234.0038" x2="419.2456" y2="234.0038" gradientTransform="matrix(1.0929 0 0 -1.0929 0 955.5428)">
		<stop  offset="0" style="stop-color:#C4BA98"/>
		<stop  offset="1.389108e-002" style="stop-color:#C7BD9D"/>
		<stop  offset="0.1655" style="stop-color:#E5E1D2"/>
		<stop  offset="0.2794" style="stop-color:#F8F7F3"/>
		<stop  offset="0.3418" style="stop-color:#FFFFFF"/>
		<stop  offset="0.4046" style="stop-color:#E1E0DC"/>
		<stop  offset="0.5083" style="stop-color:#B5B1A9"/>
		<stop  offset="0.6058" style="stop-color:#928D81"/>
		<stop  offset="0.6943" style="stop-color:#797364"/>
		<stop  offset="0.7708" style="stop-color:#696352"/>
		<stop  offset="0.8265" style="stop-color:#645D4C"/>
		<stop  offset="0.8691" style="stop-color:#776F5B"/>
		<stop  offset="0.955" style="stop-color:#A89F82"/>
		<stop  offset="1" style="stop-color:#C4BA98"/>
	</linearGradient>
	<path fill="url(#SVGID_3_)" stroke="url(#SVGID_4_)" stroke-width="0.5" stroke-miterlimit="10" d="M458.2,699.8"/>
	<g>
		<g>
			<path fill="#C4BA98" stroke="#000000" stroke-width="0.5" stroke-miterlimit="10" d="M453.7,690.6h-6.6v5.1h3.6v3.6h-3.6v6.3
				l-2,0.9v-19.4h8.6V690.6"/>
			<path fill="#C4BA98" stroke="#000000" stroke-width="0.5" stroke-miterlimit="10" d="M456.2,703.3v-1v-15.1h7.2
				c0.7,0,1.2,0.3,1.5,0.9c0.3,0.6,0.5,1.6,0.5,2.9v4.6c0,1.3-0.1,2.3-0.5,2.9c-0.3,0.6-0.8,0.9-1.5,0.9h-1.1l3.9,7.4h-2.8l-3.4-7.4
				h-1.9v2.4v1.1L456.2,703.3z M462.5,690.6h-4.4v5.5h4.4c0.3,0,0.6-0.1,0.7-0.3c0.1-0.2,0.2-0.6,0.2-1.2v-2.3c0-0.6-0.1-1-0.2-1.2
				C463.1,690.7,462.9,690.6,462.5,690.6z"/>
			<path fill="#C4BA98" stroke="#000000" stroke-width="0.5" stroke-miterlimit="10" d="M469.3,706.8v-19.6h2v19.6H469.3z"/>
			<path fill="#C4BA98" stroke="#000000" stroke-width="0.5" stroke-miterlimit="10" d="M475.6,706.8v-19.6h8.7v3.3h-6.7v4.4h3.9
				v3.3h-3.9v4.8h6.8v3.7L475.6,706.8L475.6,706.8z"/>
			<path fill="#C4BA98" stroke="#000000" stroke-width="0.5" stroke-miterlimit="10" d="M488,706.8v-19.6h1.4l6,11.5
				c0.2,0.4,0.4,0.7,0.5,1.1c0.1,0.3,0.3,0.7,0.4,1c0-1.1,0-1.9-0.1-2.3c0-0.5,0-0.8,0-1.1v-10.3h1.8v19.6h-1.4l-6.2-12.1
				c-0.1-0.3-0.3-0.6-0.4-0.8c-0.1-0.2-0.2-0.5-0.3-0.7c0,0.6,0,1.2,0,1.7c0,0.5,0,1,0,1.4v10.6L488,706.8L488,706.8z"/>
			<path fill="#C4BA98" stroke="#000000" stroke-width="0.5" stroke-miterlimit="10" d="M502.2,706.8v-19.6h5.5
				c1.5,0,2.8,0.8,3.6,2.5c0.8,1.7,1.3,4.1,1.3,7.1c0,1.8-0.2,3.5-0.5,4.9c-0.3,1.5-0.8,2.6-1.4,3.4c-0.4,0.5-0.8,0.9-1.4,1.2
				c-0.6,0.2-1.3,0.4-2.1,0.4L502.2,706.8L502.2,706.8z M504.2,703.1h2.5c1.4,0,2.3-0.5,2.9-1.5c0.6-1,0.8-2.6,0.8-4.8
				c0-2-0.2-3.5-0.7-4.5c-0.5-1-1.2-1.5-2.1-1.5h-3.5L504.2,703.1L504.2,703.1z"/>
			<path fill="#C4BA98" stroke="#000000" stroke-width="0.5" stroke-miterlimit="10" d="M523.4,690.6h-5.5v4.2h5.3
				c0.8,0,1.4,0.3,1.7,1s0.4,1.9,0.4,3.6v2.7c0,1.8-0.1,3-0.4,3.6s-0.8,1-1.7,1h-5.2c-0.8,0-1.4-0.3-1.7-1s-0.4-1.9-0.4-3.6v-0.5
				l1.7-0.8v2.3h6v-4.5h-5.3c-0.8,0-1.4-0.3-1.7-1s-0.4-1.9-0.4-3.6v-2.2c0-1.8,0.1-3,0.4-3.6s0.8-1,1.7-1h4.8
				c0.8,0,1.4,0.3,1.6,0.9s0.5,1.7,0.5,3.4v0.4l-1.7,0.9V690.6L523.4,690.6z"/>
			<path fill="#C4BA98" stroke="#000000" stroke-width="0.5" stroke-miterlimit="10" d="M537.5,703.8v-5.5h-6.2v7.7l-2,0.7v-19.6h2
				v7.6h6.2v-7.6h2v15.9L537.5,703.8z"/>
			<path fill="#C4BA98" stroke="#000000" stroke-width="0.5" stroke-miterlimit="10" d="M543.8,706.8v-19.6h2v19.6H543.8z"/>
			<path fill="#C4BA98" stroke="#000000" stroke-width="0.5" stroke-miterlimit="10" d="M550.1,706.8v-19.6h7.2
				c0.7,0,1.2,0.3,1.5,0.9c0.3,0.6,0.5,1.6,0.5,2.9v4.4c0,1.3-0.1,2.3-0.5,2.9c-0.3,0.6-0.8,0.9-1.5,0.9H552v6.8L550.1,706.8z
				 M556.4,690.6H552v5.2h4.4c0.3,0,0.6-0.1,0.7-0.3c0.1-0.2,0.2-0.6,0.2-1.2v-2.1c0-0.6-0.1-1-0.2-1.2
				C557,690.7,556.8,690.6,556.4,690.6z"/>
		</g>
	</g>
</g>
</svg>
