<?xml version="1.0" encoding="utf-8"?>
<!-- Generator: Adobe Illustrator 18.1.1, SVG Export Plug-In . SVG Version: 6.00 Build 0)  -->
<svg version="1.1" id="图层_1" xmlns="http://www.w3.org/2000/svg" xmlns:xlink="http://www.w3.org/1999/xlink" x="0px" y="0px"
	 viewBox="0 0 612 792" enable-background="new 0 0 612 792" xml:space="preserve">
<g>
	<g>
		<path d="M180.8,556.2c-0.1,1.2-0.2,2.3-0.3,3.5c-0.9,9.4-3.6,18.3-7.2,26.8c-1,2.3-2.3,4.3-4,6c-4.2,3.9-10.2,3.6-13.8-0.9
			c-2.4-3.1-3.8-6.7-4.4-10.5c-2.1-13.6,0.1-26.4,6.2-38.6c2.7-5.5,7.3-9.5,11.9-13.3c0.5-0.4,1.3-0.8,1.3-1.7
			c-1.5-1.4-3.2-0.8-4.7,0c-3,1.5-5.1,3.9-7.2,6.4c-0.5,0.5-1,1.2-1.5,1.9c-1.3-0.5-1.7-1.6-2.4-2.6c-6-9.6-8.7-20.4-11-31.4
			c-2.4-11.7-5-23.3-7.9-34.9c-1.6-6.8-2-13.8-1.2-20.9c0.3-3.1,0.7-6.1,1.1-9.2c0.5-3.4,2.1-4.8,5.6-4.9c4.2-0.1,8.1,1.2,11.9,2.5
			c0.4,0.1,0.9,0.7,1.2,1c0.4,0.5,0.9,1.1,1.6,0.8c0.7-0.2,1.1-0.8,1.2-1.5c0.1-0.9,0.1-1.9,0-2.7c-0.8-11.5-2.6-22.9-2.2-34.5
			c1.4-39.3,7.3-77.6,23.4-114c6.6-14.8,15.5-27.8,26.1-39.9c0.9-1,2-2.1,3.1-2.8c9.4-6.6,18.5-13.7,28.7-18.9
			c12.7-6.4,26.2-10.2,40.1-13.1c21-4.4,42.2-4.7,63.3-2c20.3,2.6,38.5,10.5,54.8,22.8c19.1,14.5,35.6,31.7,49.3,51.5
			c8.4,12.1,14.6,25.1,17.3,39.9c3.9,22.4,6.6,45,7.1,67.8c0.2,8.9,0.2,17.7,0,26.4c0,1,0,1.9,1.1,2.3c1.1,0.4,1.6-0.2,2.4-0.9
			c3.6-3.3,7.9-5.1,12.9-5.4c2.7-0.1,4.4,1.5,5.5,3.8c1.7,3.7,2.6,7.6,3.2,11.6c1.4,10.1,2.4,20.1,3.2,30.3
			c0.2,3.4-0.1,6.9-1.1,10.2c-2.3,7.5-3.1,15.4-3.3,23.2c-0.3,11.3-4.5,21-11.4,29.7c-0.2,0.2-0.4,0.5-0.8,1
			c-3-3.6-6.6-6.2-10.7-8.4c0.2,1.7,1.2,2.6,2.2,3.5c7,6.2,12.1,13.7,14.9,22.7c3.1,10.4,3.9,21.1,2.7,31.9c-0.4,4.6-3,7.2-6.9,8.1
			c-3.7,0.8-6.4-0.9-8.7-3.5c-4.4-5.1-7.6-10.9-10.5-16.9c-4-8.4-6.2-17.5-7.8-26.7c-0.3-1.7-0.4-3.6-1.4-5.9
			c-0.9,4.6-1.9,8.6-2.4,12.8c-2.2,18.6-7.2,36.4-13.1,54.1c-0.8,2.4-1.7,4.7-3.1,6.9c-8.4,13.2-16.8,26.4-26.9,38.6
			c-10.9,13.2-23.9,23.8-39.6,31.1c-9.3,4.4-18.4,9.5-28.4,12.3c-15,4.4-30.4,6.1-45.9,4.5c-13.9-1.5-26.7-6.4-37.5-15.8
			c-14.1-12.2-27.9-24.8-39.5-39.6c-7.1-9-14.1-18.1-18.5-28.9c-4.4-10.8-8.6-21.6-12.5-32.7c-1.3-3.9-2.7-7.9-4.2-11.8
			c-0.2-0.7-0.4-1.2-0.7-1.7C181.2,556.1,181,556.1,180.8,556.2z M227.8,457.2c1.3,2.2,3.5,2.5,5.8,2.8c0.8,0.1,1.4,0,1.6,1
			c0.5,2,1.7,2,3.2,1c1.4-1,2.4-0.9,3.2,0.9c0.4,1.2,1.3,2.4,2.8,1.7s2.8-0.3,4.2,0.3c1,0.5,2.2,0.4,2.6-0.4c1.2-2.5,4-3.5,5.5-5.8
			c4.7,3.4,5.9,3.3,9.9-1c0.2-0.3,0.7-0.7,1-0.7c2.1,0.3,3-1.2,4-2.3c2.2-2.3,4.8-3.9,8.2-3.5c2.1,0.2,4.2,0.7,5.7-1.5
			c1.3,1.2,2.4,2,3.7,0.5c1.3-1.4,0.2-2.4-0.5-3.4c-2.6-3.4-4.7-7.1-7.1-10.7c-0.3-0.4-0.9-0.9-0.5-1.5c0.7-0.2,1.2,0.2,1.7,0.4
			c0.5,0.2,1.1,0.5,1.6,0c0-0.9-0.5-1.3-1.1-1.9c-7.1-6.6-15.5-9.9-25.1-10.6c-8-0.5-16.1,0.1-24-0.2c-11.7-0.5-21.9,3.9-32.2,8.1
			c-2.2,0.9-4,2.4-5.2,4.6c0.8,0.5,1.5,0.4,2.2,0.7c1,0.2,2.1,0.7,2.2,1.7c0.2,1.5,1.1,1.5,2.2,1.4c0.8-0.1,1.7-0.3,1.6,1
			c-0.1,2.2,1.2,2.5,3.1,2.2c0,2.4,1.9,2.4,3.4,2.8c-0.3,0.9-1.2,1.5-0.4,2.4c0.7,0.8,1.5,0.8,2.4,0.7c0.8-0.1,1.5-0.5,2.2,0.3
			c-0.1,1-1.6,1.6-0.8,2.8c1.1,1.5,2.4,0,3.6,0.3c0.4,0.7,0.2,1.4,0.3,2.1c0,0.5,0.1,1.3,0.7,1.3c1.5,0,2.3,1.4,3.4,1.7
			c1.5,0.4,2.6,1,3.2,2.4C226.7,458.6,226.5,457.4,227.8,457.2z M332.2,446.1c3.9-1.1,7.3,0.1,10.7,1.4c1,0.3,1.5,0.7,1.6,1.9
			c0.1,1.3,0.8,2,2.1,1.3c0.7-0.3,1.2-0.3,1.7,0.3c0.3,0.4,0.9,0.8,1.4,0.5c2.3-1,4.3,0.3,6.2,0.8c4.3,0.9,8.6,1.7,12.9,2.8
			c3.5,0.9,6.7,1.1,9.8-1c0.5-0.4,1.2-0.3,1.9-0.3c1.3,0,2.5-0.2,3.6-0.8c2-1,3.9-2.2,6.1-2.7c4.5-1.2,8.3-3.3,11.1-7.4
			c1.4-2.1,3.2-3.9,3.8-6.6c0.4-1.6,0.8-3.4,1.5-4.9c0.5-1.1,1.4-2.2,2.7-2c3.6,0.7,7.2-0.1,10.8,0.7c1.9,0.3,3.9,0.7,5.5-1.1
			c-0.2-1.1-1.1-1.3-1.9-1.6c-3-1.2-5.9-2.3-8.7-3.7c-7.9-4.3-16-6.3-25.1-5.8c-13.9,0.8-27.5,2.4-40.9,6.1c-3.9,1.1-7,3.3-9.3,6.6
			C336.6,435,335.4,440.8,332.2,446.1z M304.4,478.9c0.1-2.7,0.5-7.8,0.8-12.7c0.2-6.2,0.1-12.3-1.7-18.4c-1.2-3.7-2.7-7.3-3.3-11.1
			c-0.2-1.3-1.1-1.6-2.4-1.3c-1.5,0.4-2.4,2-1.7,4.3c1.1,4.2,0.9,8.3,0.9,12.6c0,7.8-1,15.3-3.2,22.8c-2.8,9.8-5.6,19.7-7.5,29.7
			c-0.4,2.4-1.6,3.9-4,4.9c-5.1,2.2-8,8.1-6.7,13.6c1.2,4.8,3.1,5.8,7.5,3.6c1.6-0.8,3.2-1.5,5-1.3c5.8,0.7,11.5,1.5,16.4,5
			c2.1,1.4,4.5,0,4.7-2.5c0.1-1-0.2-1.9-0.4-2.7c-2.4-8.4-4-16.9-4.3-25.7C304.3,493.5,304.1,487.4,304.4,478.9z M389.8,381
			c-1.3-0.1-3.2,0.2-5,0.4c-14.4,2.1-27.9,7-40.3,14.6c-2,1.2-3.8,2.5-5.7,3.8c-1,0.8-1.3,1.9-0.8,3c0.5,1.2,1.5,1.7,2.8,1.6
			c0.5-0.1,1.2-0.2,1.7-0.4c8.4-2.5,16.8-4.8,25.1-7.6c12.2-4.2,24.8-6.3,37.8-4.9c3,0.3,5.9,0.9,8.7,1.3c1,0.1,1.9,0,2.4-1
			c0.4-1-0.1-1.6-0.8-2.3c-1.1-1.2-2.4-2.3-3.8-3.1C405.2,383.2,398.1,381.1,389.8,381z M301.6,288.5c0.2-0.8,0.3-1.2,0.4-1.6
			c2.6-12.9,3.9-25.9,3.6-39.1c-0.2-8.4-1.2-16.7-3.7-24.7c-0.9-2.5-1.7-5-3.2-7.4C289.3,229,291,274,301.6,288.5z M263.6,408.7
			c0.9,0,1.2,0,1.5,0c1.3,0,2.5-0.4,2.8-2s-0.5-2.3-1.7-3c-1-0.4-2-1-3.1-1.3c-8.1-2.8-16.2-5.5-24.4-8c-8.6-2.6-17.3-3.4-26.1-1.2
			c-4.8,1.2-9.6,2.4-13.9,5c-0.8,0.4-1.7,1-1.4,2.1c0.3,1.1,1.3,1.2,2.2,1.2c2.4,0.1,4.7,0.1,7.1-0.2c4.9-0.5,9.8-0.4,14.8,0.4
			c6.8,1.2,13.6,2.7,20.3,3.9C249.2,407,256.7,407.8,263.6,408.7z M313.4,369.1c-1.1-1-2.3-1-3.4-1.1c-4.6-0.2-9.1-1-13.2-2.8
			c-6.6-3-13.2-2.8-20.1-1.6c-4.7,0.9-9.4,7.3-7,12.3c1,2.2,2.1,4.3,3.5,6.1c2.7,3.6,6.1,6.8,9.2,10.1c3.5,3.6,6.8,7.3,8.2,12.3
			c0.3,1.1,0.5,2.3,0.9,3.5c3.5-2.5,4.4-5.6,3-9.6c-1.7-4.8-5.2-8.4-8.6-12.1c-1.3-1.4-2.5-2.8-3.2-4.7c-1.6-4.5-1.1-8.7,1.9-12.5
			c2.4-3.1,5.8-3.8,9.4-3.1c1.3,0.2,2.5,0.7,3.7,1.2c2.3,0.9,4.7,1.7,7,2.8C307.6,371.4,310.5,370.8,313.4,369.1z M256.2,593.8
			c1.6-0.5,3.2-1,4.7-1.5c11.3-3.5,22.3-7.7,34.1-9.1c5.2-0.7,10.6-1,15.6,1c3.2,1.2,6.2,1.3,9.4,0.2c10.2-3.4,20.3-3.3,30.6-0.5
			c4.6,1.2,9.1,2.6,13.7,3.9c0.8,0.2,1.6,0.4,2.1-0.5c0.5-1,0-1.6-0.8-2.2c-1.2-0.9-2.5-1.4-3.9-1.6c-6.8-1.1-13.7-2.4-20.4-3.4
			c-7.8-1.1-15.4-0.2-22.7,2.7c-2.8,1.1-5,1.3-7.6,0c-4.2-2-8.5-2.7-13.1-2.2c-7.4,0.8-14.8,2.7-22.2,3.8
			c-5.4,0.8-10.6,2.1-15.7,3.8C256.9,589.2,255.9,590.7,256.2,593.8z M332.3,606.8c-0.8,0.1-1.3,0.1-1.9,0.2
			c-3.8,0.8-7.8,1.4-11.6,2.4c-9.2,2.3-18.3,2.2-27.2-0.9c-1.2-0.4-2.4-0.9-3.8-0.9c4.6,6.3,10.8,9.7,18.1,11.4
			c4.6,1,9,0.3,12.9-2.1c4-2.4,8-4.9,11.9-7.4C331.7,609.1,332.2,608.2,332.3,606.8z M350.2,521.2c0-1.1,0-2.5-0.5-3.7
			c-1.5-3.4-3.2-6.8-4.8-10.2c-0.4-0.9-1.1-1.6-2.1-1.5c-2.1,0.2-4.2-0.3-6.3-0.1c-1.9,0.1-4-0.1-4.9,2.2c-0.9,2.3,1.2,3.2,2.5,4.4
			c5.1,4.5,10.5,8.7,10.1,16.6c-0.1,1.1,0.3,2.4,1.6,2.6c1.2,0.2,1.9-0.9,2.4-1.7C349.5,527.1,349.9,524.4,350.2,521.2z
			 M472.3,563.2c0.2,1.6,1.3,1.9,2.5,1.7c1.4-0.2,1.9-1.3,1.9-2.6c-0.1-2.5-0.2-5.1-0.3-7.7c-0.1-1.4-0.3-2.8-0.8-4.3
			c-2.3-6.1-5.4-11.7-9.5-16.8c-0.5-0.7-1.1-1.3-2.1-1.3c-2.8,3.5-2.5,6.7,1,9.6c0.5-0.1,0.4-1,1.3-1.1c3.6,6.8,6.3,13.9,7.6,21.4
			C473.3,562.7,472.8,562.6,472.3,563.2z M172.3,559.1c0.7-2.4,0.3-4.3-0.3-6c-0.8-1.9-2.3-2.4-4-1.4c-1.6,1-2.6,2.5-3.4,4.3
			c-2.3,5.2-3.2,10.7-2.8,16.4c0.1,2,0.5,3.9,1.6,5.7c0.8,1.1,1.9,1.9,3,0.9c2.3-2,3.2-4.7,3.7-7.5c-1.7,1.3-2.2,3.5-4,4.8
			c-2.1-5.5,0.7-19.5,4.7-21.3C171.1,556,171.6,557.3,172.3,559.1z M213.5,532.3c-0.1,0-0.1,0-0.2,0c0,2.3,0,4.6,0,6.9
			c0,5.1,2,9.7,4.5,14.1c0.4,0.8,1.1,1.2,2,0.8c1-0.4,1.1-1.2,0.7-2.2c-0.7-1.3-0.9-2.6-1.1-3.9c-0.2-1.6-0.2-3.5-1.2-4.9
			c-1.6-2.4-1.5-5-1.9-7.6c-0.4-3.7,0.5-7.3,0.4-11c-0.1-1.1-0.3-2-1.6-2c-1.3,0-1.5,1-1.5,2.1C213.5,527,213.5,529.7,213.5,532.3z
			 M281,532.2c0,1.1,0.4,1.7,1.2,2.3c2.7,2,5.7,3.1,9.1,1.9c1.5-0.5,3.1-0.9,4.6-0.2c1.1,0.4,2,0.3,2.6-0.7c0.7-1,0.2-1.9-0.5-2.7
			c-1.1-1.3-2.4-2.2-4-2.8c-3.7-1.6-7.5-0.4-11.3,0C281.5,530.1,281.1,531.2,281,532.2z M194.9,381.9c0-2.3-1.5-5.4-3.1-5.6
			c-2.3-0.3-3.4,1.4-4.5,3.1c-1.2,1.9-0.7,8.6,0.9,10.3c0.9,1,1.9,1.2,2.8,0.1C193.1,387.4,194.4,384.7,194.9,381.9z M229.8,512
			c-0.1,2.5,0.3,3.4,1.6,3.5c1.7,0.2,3-0.9,3.3-3.2c0.4-3.4,1.4-6.6,2.4-9.7c0.8-2.4,1.4-4.9,2.1-7.4c0.2-0.9,0.2-1.7-0.8-2.1
			c-1.1-0.3-1.6,0.3-2,1.2c-0.3,0.9-0.7,1.9-0.9,2.8c-1.1,3.9-2.2,7.9-4.7,11.3C230,509.3,229.8,510.6,229.8,512z M385,489.8
			c0-1.5-0.2-3.1-0.7-4.5c-0.3-1-0.8-1.9-2-2c-1.2-0.1-1.9,0.5-2.4,1.4c-2.1,2.8-2.4,6-1.7,9.4c0.3,1.4,0.8,2.6,2.4,2.6
			c1.6,0.1,3-0.4,3.5-2.2C384.7,493,385,491.4,385,489.8z M237.4,479.5c0.1-0.8-0.4-1.3-1.2-1.6c-1.1-0.4-2.2-0.5-2.8,0.4
			c-2.6,3.8-4.5,8.1-4.9,12.7c-0.1,0.9,0.2,1.7,1.2,2.1c1.1,0.3,1.6-0.3,2.1-1.1c1.5-2.7,3.3-5.2,4.5-8.1
			C236.7,482.6,237.1,481.1,237.4,479.5z M479.3,534.6c1.5,5.6,2.8,10.8,3.8,16.3c1,5.4,1.5,10.7,1.9,16.7
			C488.9,559.9,484.5,538,479.3,534.6z M322.1,532.6c0.1,1.1,0.5,1.9,2.1,1.1c1.5-0.8,3.1-1.1,4.7-1.3c1.2-0.2,2.3-0.4,3.4-0.9
			c1.9-0.5,2.3-1.7,1.6-3.5c-1-2.5-3.4-3.4-5.8-2.3c-2.1,1-3.8,2.5-5.1,4.5C322.5,530.9,322.2,531.5,322.1,532.6z M155.5,552.5
			c-5.1,6-5.4,27-1.3,31.1C153.1,573,154.4,562.8,155.5,552.5z M381.4,546.2c-12.7-11.8-22-26-30.8-41.1
			C351.1,513,374.3,543.8,381.4,546.2z M218.5,483.4c-0.7-1.1-1.1-2.1-1.7-3c-0.4-0.7-1.1-0.8-1.7-0.4c-0.7,0.2-1,0.8-0.7,1.4
			c1.3,3.2,2.3,6.4,2.8,9.8c0.2,1.1,1.4,1.5,2.5,1.5c1.1,0,1.2-1.1,1.3-1.9c0.2-1.7,0.5-3.5,0.8-5.2c0.1-1,0.5-2-0.5-2.7
			C220.1,482.2,219.4,483,218.5,483.4z M274.7,504.8c-0.3,0.2-0.5,0.3-0.5,0.4c-2.8,5.4-5,11-5.6,17.2c-0.2,2,0.4,3.8,1.5,5.4
			c0.5,0.9,1.2,1.5,2.4,1.4c-2.1-6.6-2-7-0.4-12.7c0.8-3,1.5-5.9,2.3-8.7C274.7,506.8,275,505.9,274.7,504.8z M416.1,531.5
			C416.2,531.4,416.2,531.4,416.1,531.5c-0.2-2.4-0.4-4.8-0.7-7.3c-0.1-1-0.1-2.2-1.4-2.2c-1.3,0-1.4,1.2-1.5,2.2
			c-0.2,1.6,0,3.3-0.3,4.9c-0.4,2.2,0,4,0.9,5.9c0.3,0.7,0.8,1.3,1.6,1.1c0.9-0.2,1.4-0.8,1.4-1.6
			C416.2,533.5,416.1,532.5,416.1,531.5z M192.8,421.7c1-1.5,2.5-2,4-2.3c0.8-0.1,1.5-0.5,1.4-1.3c-0.1-2,0.2-3.9,0.3-5.9
			c0-1.4-1.3-2-2.5-1.2C192.9,413,191.4,417.9,192.8,421.7z M403.4,541.8c0.2,1.9,0.4,4.4,0.9,6.8c0.2,1.6,1.4,2,2.7,1
			c2-1.3,2.5-3.8,1.2-5.9c-0.7-1.1-1.6-2.1-2.1-3.3c-0.2-0.8-0.9-1.2-1.6-1C403.6,539.6,403.3,540.3,403.4,541.8z M396.6,508.5
			c0-1,0-2-0.4-3c-0.7-1.3-1.6-2-3.1-1.4c-1.3,0.4-1.9,1.4-1.5,2.7c0.4,2,0.9,3.8,1.3,5.8c0.1,0.7,0.5,1.2,1.3,1.3
			c0.9,0.1,1.3-0.4,1.6-1.2C396.3,511.4,396.6,510,396.6,508.5z M163.4,543.4c-0.2-1-0.4-2.1-1.5-2.6c-0.7-0.3-1.3-0.2-1.9,0.1
			c-1.4,1-3.1,5-2.7,6.7c0.3,1.5,1.5,2.3,2.7,1.5C162.1,547.8,162.9,545.7,163.4,543.4z M320.4,374.6c2.3-0.5,2.7-0.8,2.8-2.1
			c0.1-2.2,0-4.4-0.9-6.3c-0.7-1.4-1.6-2.6-3.3-3c-1-0.1-2.1-0.1-2.4,0.9c-0.4,1,0.5,1.5,1.3,1.9c1.9,0.8,2.2,2.2,2.1,4
			C319.9,371.4,319.7,372.9,320.4,374.6z M188.4,418.7c-3.4,3.3-4.3,5.5-3.3,8.1c0.3,0.9,0.4,2,1.7,1.5c1.3-0.4,3.2-0.4,2.8-2.6
			C189.5,423.5,189,421.4,188.4,418.7z M397.8,482.9c0,0.3,0,0.5,0,0.7c0.1,1-0.3,2.3,1.2,2.5c1.4,0.2,2.4-0.7,2.7-2.1
			c0.3-1.7,0.5-3.6,0.7-5.5c0.1-0.9-0.5-1.4-1.3-1.7c-0.7-0.2-1.1,0.1-1.3,0.5C398.7,479.2,397.3,480.7,397.8,482.9z M223.1,508.5
			c-3.3-0.1-5.9,1.6-6.4,4.2c-0.2,0.9-0.3,1.9,0.4,2.6c0.8,0.7,1.7,0.3,2.6,0C222.6,513.8,222.6,511.2,223.1,508.5z M224.5,529.9
			c0.1,0.8,0.2,1.5,0.3,2.3c0.1,0.7,0.4,1.1,1.2,1.1c0.7,0,1.2-0.2,1.4-0.8c1-2.2,1.6-4.4,1.9-6.8c0.1-1-1.2-2.1-1.7-1.3
			C226.4,526,224.1,527.3,224.5,529.9z M414.5,503.1c0-0.7,0.1-1.7-0.2-2.8c-0.2-0.7-0.7-1.1-1.3-1.2c-0.5-0.1-0.9,0.1-1.2,0.5
			c-1,1.2-1.1,5.5-0.2,6.8c0.4,0.7,1.1,1,1.9,0.8c0.9-0.1,1.1-0.9,1.1-1.6C414.5,504.8,414.5,504.2,414.5,503.1z M185.7,394.6
			c0-1,0-1.9-1-2.4c-0.7-0.3-1.2-0.1-1.5,0.4c-1.1,2-1.7,4-2.2,6.2c-0.1,0.7,0.3,1.1,1,1.3c0.5,0.2,1.1,0.1,1.4-0.3
			C184.3,398.2,185.5,396.7,185.7,394.6z M305,569.5c2.8,2.8,10.7,2.2,12.9-1.2c-4,0.3-8.1,0.7-12,1
			C305.6,569.3,305.2,569.2,305,569.5z M473.6,526.6c0,1.7,1.7,4.3,3.1,4.3c1.1,0,1.5-0.7,1.5-1.6c0.1-1.9-1.9-4.5-3.1-4.4
			C474.1,525,473.8,525.7,473.6,526.6z M300.4,593.8c1.9-1.9,3.1-4,4-6.3c0.2-0.5,0.2-1.2-0.4-1.5c-0.5-0.3-1.1-0.1-1.4,0.3
			C300.9,588.3,300.1,591,300.4,593.8z M218.8,501.5c1.4-0.1,2.7-0.2,3.5-1.4c0.9-1.2,0.5-2.4-0.5-3.3c-0.8-0.5-1.6-0.7-2.2,0.3
			C218.8,498.3,218.1,499.7,218.8,501.5z M385.7,465.6c0.2,1-0.3,2.5,1.5,2.4c1.7-0.1,1.5-1.6,1.6-2.8c0.1-1.1-0.1-2.3-1.5-2.2
			C385.5,463,385.7,464.5,385.7,465.6z M252.4,542c3.6-3.7,9.4-15.4,9.7-20c-1.4,3.7-2.7,7.1-4.5,10.3
			C256.2,535.4,254.3,538.7,252.4,542z M280.6,592.2c2.4-0.5,4.2-1.6,5.8-3.1c0.5-0.4,0.7-1,0.2-1.5c-0.3-0.3-0.8-0.7-1.2-0.3
			C283.5,588.5,281.4,589.4,280.6,592.2z M375.6,470.8c0.5-1.6,0.3-3-0.8-4.2c-0.3-0.4-0.8-0.8-1.3-0.5c-0.5,0.2-0.7,0.8-0.7,1.3
			C373,469.1,373.5,470.3,375.6,470.8z M313.1,586.9c-1.5,1.7-1.5,3,0,5C315,590.3,315,588.9,313.1,586.9z M401.3,463.8
			c-0.2-1-0.9-1.4-1.9-1.4c-1.1,0-1.3,0.8-1.3,1.6c0,0.9,0.4,1.4,1.3,1.3C400.5,465.3,401.1,464.9,401.3,463.8z M330.4,593.2
			c0.4-0.3,0.3-0.9,0.3-1.3c-0.1-1.1-0.7-1.9-1.6-2.3c-0.4-0.2-0.8,0-1,0.4c-0.3,1.1,0.2,1.9,1,2.5
			C329.5,592.9,329.8,593.3,330.4,593.2z M226.5,577.3c0-0.8-0.4-1.3-1.3-1.3c-0.9,0-1.5,0.2-1.6,1.2c-0.1,0.9,0.5,1.3,1.3,1.4
			C225.8,578.6,226.3,578.2,226.5,577.3z"/>
		<path d="M362.7,209.9c2-2.7,4.7-5,4.2-8.5c-0.4-2.6-0.5-5.6-2-8.2c-1.4,0.7-1.5,1.7-1.6,2.7c-0.5,2.8-0.9,5.6-2.4,8.1
			c-2.1,3.6-3.6,4.3-7.5,3.3c-16.7-4.2-33.8-5.5-51-4.4c-2.1,0.1-4.2,0.5-6.4,0.3c2.2-3.5,4.3-6.9,7.4-9.4c2.3-1.9,4.2-4,5.1-6.9
			c1.1-3.1,0.5-5.8-2-8c0.3,3.5-2,5.2-4,7.2c-2.8,2.8-4.5,6.4-6.2,10.1c-0.7,1.3-1.2,2.6-1.9,3.9c-1.4,2.7-3.5,4.2-6.8,4.4
			c-7.2,0.4-14.2,2.2-21.1,4.2c-0.8,0.2-1.6,0.4-2.7,0.7c-0.9-5.2,0.2-10.1,2.4-14.8c-2-0.7-3.2,0.3-4.2,1.6c-2.3,3-4.4,6.2-5.9,9.6
			c-2.1,4.6-5.1,7.5-10.1,8.5c-1.9,0.3-3.6,1.2-5.2,2.2c-9.8,5.5-20.5,9.5-29.5,16.7c-0.9,0.8-2.1,1.2-3.2,1.5
			c-3.4,0.8-6.6,2.1-9.6,3.4c-0.4,0.2-1,0.4-1.5,0.2c-0.1-1,0.7-1.2,1.1-1.7c2.7-2.7,5.9-4.9,9.2-6.8c4-2.4,8.1-4.7,12.1-7
			c2.4-1.4,4.3-3.4,5.1-6c3.1-8.9,8.5-16.3,14.6-23.3c5.8-6.4,12.6-11.6,19.8-16.3c1.1-0.8,2.2-1.4,2.1-3.3
			c-7.6,2.6-13.4,7.9-20.1,11.8c2.2-4.8,3.9-9.9,8.5-13.2c5-3.6,9.6-7.5,14-11.9c7.3-7.4,16.3-11.4,26.3-13.3
			c10.5-2.1,21-3.3,31.6-2.5c3.8,0.3,7.4,1.2,10.7,3.2c4.2,2.4,6.7,6,7.5,10.6c0.9,4.8,0.7,9.6-1.1,14.2c-0.7,1.6-0.7,1.6-0.3,3.2
			c1.7-0.7,2.6-2.1,3.3-3.7c1.4-3.3,2.2-6.8,3.3-10.2c0.2-0.7,0.2-1.3,0.9-2c5.8,6.1,11.9,11.9,17.2,18.6c-4.6-0.9-8.7-3.4-13.7-3.9
			c0.4,1.4,1.4,2,2.4,2.5c5.1,2.5,10.2,5.2,15.4,7.5c7.8,3.5,13.2,9.7,18.4,16.1c-0.2,0.9-1.3,0.8-1.3,1.9c0.8,1.3,2.2,2.1,3.5,2.7
			c7.8,4.3,16.2,7,24.8,8.9c2.7,0.5,4.3,1.9,5.4,4.4c1.4,3.4,3.1,6.7,4.6,10.1c-1.1,0.8-2,0.2-2.8-0.2c-7.3-3.3-14.8-6.1-22.7-7.2
			c-1.4-0.2-2.7-0.4-4.2-0.4c-4.2-0.1-8-1.3-11.6-3.1c-5.6-2.6-11.3-4.9-16.8-7.3C363.7,210.4,363.4,210.2,362.7,209.9z
			 M281.3,173.4c0.1,2.2,1.2,2.8,3.3,1.9c3.6-1.7,6.6-4.3,9-7.5c2-2.7,4.4-4.8,7.5-6.2c3.6-1.6,7.4-1.6,11.3-1.1
			c1.2,0.2,2.1-0.1,1.6-1.5c-0.4-2-4.9-5.1-7-4.8c-2.7,0.3-5.5,0.9-7.5,3.1c-1.5,1.5-3.2,3-4.8,4.4c-4.2,3.5-7.4,7.9-12.5,10.3
			C281.5,172.1,281.2,172.6,281.3,173.4z M331.9,195.9c3.1-3.5-1.1-19.2-5.9-22.1c1.6,7,3.3,13.9,1.7,20.9c1.6,0.4,1.7-1.4,2.8-1.5
			C331.4,194,330.7,195.5,331.9,195.9z M335.5,186.3c-0.8,3.1-0.2,11.3,1,13.4C338.9,197.1,338.3,189.3,335.5,186.3z"/>
		<path d="M353.8,162.5c3.2-1.1,6.1-2.1,9.1-3.1c9.2-3.2,16.7-8.7,24-15c13.8-11.6,25.1-25.1,32.9-41.5c1.3-2.7,2.7-5.4,4.2-8.1
			c1-1.9,1.9-2.2,3.8-1.5c2.8,1,4.6,2.8,5.1,5.9c0.9,4.7,0.5,9.5,0.2,14.2c-1.3,24-9.9,45.2-25.2,63.7c-3.1,3.7-6.1,7.6-9.2,11.4
			c-2.4,3-5,5.6-8.1,7.8c-2.3,1.6-2.8,1.6-4.6-0.5c-2.5-3-4.9-6-7.9-8.6c-1.7-1.5-3.7-2.8-5.8-3.7c-3-1.2-5.5-3.1-7.2-5.7
			c-3.3-5-7-9.7-10.8-14.3C354.3,163.3,354.1,163,353.8,162.5z M422.4,107.4c-0.4,0-0.7,0.2-0.8,0.5c-1.1,2.4-2.2,4.8-3.7,7
			c-7.9,11-16.6,21.3-26.4,30.6c-8.3,7.9-17.2,15.2-28.3,19.1c-0.7,0.2-1.4,0.5-1.3,1.5c0,0.8,0.7,1.3,1.3,1.6
			c3.6,1.5,7.2,1.9,10.7,0c12.9-6.6,24.2-15.3,32.7-27.1c7-9.7,11.5-20.8,16-31.7C422.7,108.4,422.9,107.8,422.4,107.4z"/>
		<path d="M169.8,108.1c0.4,0.9,1,1.6,1.3,2.4c11.9,23.5,30.6,40,53.6,52c0.5,0.3,1.2,0.7,1.7,0.9c6.6,3,12.5,7.5,20.8,6.9
			c-9.8,12.5-16.8,26-24,39.5c-3.3-1.1-5.9-2.8-8.5-4.8c-22.8-17-38.6-38.9-45.1-66.9c-1.1-4.5-2.3-9-2.7-13.6
			c-0.4-4.8,0.2-9.6,1.7-14.2C169,109.7,169.1,108.9,169.8,108.1z M220.3,196.7c-0.4-0.5-0.7-0.8-0.9-1c-8-8.1-15.6-16.4-23.3-24.7
			c-11.6-12.6-20.4-26.6-24.9-43.2c-0.1-0.5-0.1-1.2-0.9-1.4c-0.9,7.4,7,27,15.3,38.6C196.3,179.3,213.3,195.2,220.3,196.7z"/>
	</g>
</g>
<g>
	<g>
		<path fill="#C4BA98" stroke="#000000" stroke-width="0.5" stroke-miterlimit="10" d="M464.9,619.7V608h9.1v2h-7v3.1h3.8v2.1H467
			v3.6L464.9,619.7z"/>
		<path fill="#C4BA98" stroke="#000000" stroke-width="0.5" stroke-miterlimit="10" d="M476.4,610.8c0-1.1,0.1-1.8,0.5-2.2
			c0.3-0.4,0.9-0.6,1.8-0.6h6.6c0.9,0,1.5,0.2,1.8,0.6c0.3,0.4,0.5,1.1,0.5,2.2v6.1c0,1.1-0.1,1.8-0.5,2.2c-0.3,0.4-0.9,0.6-1.8,0.6
			h-6.6c-0.9,0-1.5-0.2-1.8-0.6c-0.3-0.4-0.5-1.1-0.5-2.2V610.8z M478.5,617.5h6.9v-7.4h-6.9V617.5z"/>
		<path fill="#C4BA98" stroke="#000000" stroke-width="0.5" stroke-miterlimit="10" d="M491.8,617.8V608h7.7c0.7,0,1.2,0.2,1.6,0.5
			c0.3,0.4,0.5,0.9,0.5,1.7v2.7c0,0.8-0.2,1.4-0.5,1.7s-0.8,0.5-1.6,0.5h-1.2l4.1,4.4h-3l-3.6-4.4h-2v2.1L491.8,617.8z M498.6,610
			h-4.7v3.2h4.7c0.4,0,0.6-0.1,0.7-0.2c0.1-0.1,0.2-0.4,0.2-0.7v-1.4c0-0.3-0.1-0.6-0.2-0.7C499.1,610.1,498.9,610,498.6,610z"/>
	</g>
	<g>
		<path fill="#C4BA98" stroke="#000000" stroke-width="0.5" stroke-miterlimit="10" d="M449.2,643c0.8-0.1,1.2,0.3,1.2,1.1v1.4h2.3
			c0.9,0,1.1,0.3,0.6,0.9h-2.8c0,1.5,0.1,2.3,0.3,2.3c0.4,0.1,0.7,0,1.1-0.1c1-0.2,1.5,0.1,1.4,1.1c-0.1,0.7-0.1,1.7-0.1,3
			c0.1,1-0.4,1.4-1.5,1.1c-1.2-0.4-2.5-0.4-3.8,0c-0.8,0.5-1.3,0.3-1.4-0.7c-0.1-1-0.3-2.1-0.6-3.3c0.1-0.8,0.7-1.1,1.7-0.7
			c0.8,0.1,1.2-0.1,1.2-0.6c0-1.1,0-2.2-0.1-3.2C448.3,643.6,448.5,642.9,449.2,643z M447.7,650.2c-0.1,1.2,0.1,1.8,0.6,2
			c2.3,0.3,3.4,0,3.2-1.1c0.2-1.4-0.7-2-2.9-1.7C448,649.5,447.7,649.7,447.7,650.2z M453.8,646.8c0.4,0,0.7,0,0.7-0.1
			c-0.1-1.1-0.1-2.2-0.1-3.2c-0.1-0.7,0.3-1,1.1-0.9c0.5,0,0.7,0.3,0.7,0.7c-0.1,0.9-0.1,2,0,3.2c3.3-0.5,4.9-0.5,4.8,0
			c0.2,0.3,0.1,0.4-0.1,0.4c-1.5,0.2-3,0.4-4.5,0.7c0.3,0.9,0.6,1.7,0.9,2.3c0.4-0.5,0.8-1.1,1.2-1.8c0.3-0.3,0.6-0.4,0.9-0.3
			c0.4,0.3,0.6,0.7,0.4,1.1c-0.6,0.8-1.1,1.5-1.7,2c1.1,1.1,2.9,1.6,5.4,1.5c0.2,0.1-0.1,0.6-0.9,1.5c-1.1,1.1-2.3,1.3-3.5,0.6
			c-0.5-0.4-1.3-1.1-2.4-2.3c-1,0.7-2.1,1.1-3.2,1.2c-0.5-0.1-0.6-0.3-0.3-0.6c1-0.3,1.9-0.9,2.7-1.8c-0.4-0.6-0.8-1.6-1.2-3
			c-0.5,0.1-1,0.3-1.4,0.4c-0.6,0.1-0.8-0.2-0.7-0.9C452.7,647.1,453.1,646.9,453.8,646.8z M458.6,643.3c0.3-0.7,0.7-0.9,1.2-0.6
			c0.5,0.3,0.7,0.7,0.4,1.2c-0.4,0.6-1.1,1-2,1.1c-0.4,0-0.6-0.1-0.4-0.4C458.1,644.1,458.4,643.7,458.6,643.3z"/>
		<path fill="#C4BA98" stroke="#000000" stroke-width="0.5" stroke-miterlimit="10" d="M470.5,646.8c0.5,0,0.8,0.1,1.1,0.4
			c-0.1,0.4-0.4,0.6-1.1,0.4c-0.6,0-1.2,0-1.8,0.1c0.2,0.3,0.1,0.6-0.3,0.9l-0.7,0.7c-0.3,0.4,0,0.7,0.7,0.7
			c0.6,0.1,1.1-0.1,1.5-0.6l-0.4-0.9c0.1-0.3,0.3-0.4,0.6-0.3c0.3,0.2,0.6,0.4,0.9,0.6c0.2,0.4,0.4,0.8,0.7,1.4
			c-0.1,0.2-0.2,0.3-0.3,0.3c-0.4,0.1-0.8-0.1-1.2-0.6c-0.6,1.1-1.3,1.5-2,1.2c-0.6-0.4-1.1-0.4-1.7-0.1c-0.2,0-0.4-0.1-0.6-0.4
			c-0.1-0.4,0.1-0.8,0.6-1.2c0.9-0.8,1.2-1.4,0.9-1.7c-0.4-0.1-1,0-1.8,0.3c-0.3,0.2-0.5,0.1-0.6-0.1c0.1-0.7,0.4-1.1,1.1-1.2
			L470.5,646.8L470.5,646.8z M470.5,644.7c0.3,0,0.5,0.1,0.6,0.4c0,0.3-0.1,0.4-0.3,0.4h-2.4c-0.7,0-1.4,0-2,0.1
			c-0.2-0.1-0.3-0.3-0.3-0.6c0.1-0.3,0.3-0.6,0.6-0.7C467.4,644.6,468.7,644.7,470.5,644.7z M474.4,648.9c-0.3-0.1-0.6-0.1-0.9,0
			c-0.3,0.2-0.6,0.4-0.9,0.4c-0.2,0-0.4,0-0.4-0.1c-0.2-1.5-0.4-2.9-0.6-4.1c-0.1-0.6,0.2-0.9,0.9-0.9c0.3,0.2,0.8,0.3,1.5,0.1
			c0.3-0.3,0.7-0.8,1.1-1.5c0.1-0.2,0.3-0.3,0.6-0.3c0.9,0.3,1.1,0.7,0.7,1.1c-0.3,0.3-0.6,0.6-0.7,0.7c0.7,0,1.6,0.1,2.7,0.3
			c0.3-0.1,0.6-0.2,0.7-0.3c0.3-0.1,0.6,0,0.7,0.1c0.4,0.3,0.5,0.7,0.3,1.4c-0.3,0.9-0.5,1.8-0.6,2.9l-0.4,0.3
			c0.4,0.3,0.4,0.6,0.1,0.7c-0.2,0.2-0.4,0.4-0.6,0.6c-0.2,0.1-0.1,0.3,0.1,0.4c0.4,0.1,0.7,0,1.1-0.1c-0.4-0.3-0.4-0.5-0.1-0.6
			c0.4,0,0.7,0,0.9,0.1c0.2,0.3,0.4,0.6,0.6,0.9c-0.1,0.1-0.3,0.2-0.4,0.3l-0.6-0.4c-0.2,0.6-0.6,0.8-1.1,0.7
			c-0.4-0.3-0.8-0.4-1.2-0.3c-0.3-0.2-0.4-0.4-0.3-0.7c0.2-0.2,0.4-0.4,0.6-0.7c0.1-0.2,0.3-0.5,0.4-0.9c-0.8-0.1-1.8-0.1-2.9-0.1
			c-0.7,2.3-2.1,4-4.1,5c-1.6,0.6-2.8,0.4-3.6-0.7c0-0.1,0.2-0.1,0.6-0.1C471.8,652.6,473.7,651.3,474.4,648.9z M474.9,645.1
			c-0.7,0-1.3,0.1-1.7,0.3c-0.2,0.6-0.1,0.9,0.3,0.9l1.7-0.1C475.3,645.7,475.2,645.3,474.9,645.1z M475,646.9c-0.5,0-1.1,0-1.8,0.1
			c0,0.7,0.1,1.1,0.4,1.1l1.1-0.1L475,646.9z M476.1,649.6c0.1-0.4,0.3-0.6,0.6-0.6c0.2,0,0.4,0.1,0.4,0.3c-0.2,0.4-0.4,0.8-0.4,1.2
			c0,0.4,0,0.7,0.1,0.9c0.4,0.5,1.2,0.8,2.4,1.1c1,0.1,2,0,2.9-0.3c0.6-0.3,1-0.4,1.2-0.1c-0.1,0.6-0.4,1.3-1.1,2.1
			c-0.7,0.6-1.3,0.8-1.8,0.6c-1.7-0.3-3.1-1-4.2-2.1c-0.5-0.6-0.7-1.1-0.6-1.7C475.8,650.5,476,650,476.1,649.6z M478.3,648.3
			c0.2-0.4,0.3-0.7,0.1-1.1c-0.4-0.2-1.1-0.3-2.3-0.3c-0.1,0.4-0.1,0.8-0.1,1.2C476.9,648.2,477.6,648.3,478.3,648.3z M476.4,646.2
			l1.7,0.1c0.4,0.1,0.6-0.1,0.6-0.6c0-0.4-0.6-0.6-1.8-0.6C476.5,645.2,476.4,645.6,476.4,646.2z"/>
		<path fill="#C4BA98" stroke="#000000" stroke-width="0.5" stroke-miterlimit="10" d="M489.6,646c0.2-0.4,0.4-0.6,0.4-0.6
			c0.5-0.1,0.7,0.3,0.4,1.1c-0.3,0.9-0.7,1.8-1.4,2.9c-0.5,0.8-1,1.4-1.5,1.8c-1,0.9-2.1,0.8-3.2-0.1c-0.3-0.3-0.2-0.6,0.3-0.9
			C486.5,649.3,488.1,647.9,489.6,646z M493.1,643c1-0.1,1.5,0.4,1.4,1.7c-0.1,2.5,0,5.3,0.1,8.4c0,1.2-1,1.8-2.9,1.7
			c-1-0.1-2.2-0.7-3.5-1.7c-0.2-0.5-0.1-0.7,0.3-0.7c1.9,0.6,3.1,0.7,3.5,0.3c0.3-0.2,0.4-3,0.3-8.4
			C492.3,643.4,492.6,643,493.1,643z M495.5,646.5c-0.3-0.4-0.3-0.7,0.1-0.9c0.2-0.1,0.4,0,0.6,0.1c1.4,1.8,3.5,3.4,6.3,4.7
			c-0.3,0.5-0.6,0.8-0.9,1.1c-0.9,0.8-1.8,0.8-2.6,0C497.8,649.8,496.6,648.2,495.5,646.5z"/>
		<path fill="#C4BA98" stroke="#000000" stroke-width="0.5" stroke-miterlimit="10" d="M510.4,648.6c-0.3,1-0.6,1.8-0.9,2.3l2-0.3
			c-0.1-0.4-0.1-0.8-0.1-1.2c0.1-0.4,0.4-0.7,1.1-0.7c0.4,0,0.7,0.1,1.1,0.3c0.4,0.1,0.7,0.1,0.9,0v-5c0-0.6,0.2-1,0.6-1.1
			c1,0,1.5,0.4,1.5,1.1c-0.1,0.5-0.1,0.9-0.1,1.2c2.1,0.1,3.9,0.1,5.3,0.1c0,0.5-0.1,1-0.4,1.4c-0.4,0.4-0.8,0.5-1.2,0.3
			c-1.6-0.5-2.8-0.7-3.6-0.4c-0.2,0.8-0.2,1.6,0,2.4c0.7,0.1,1.3,0,1.7-0.1c1.3-0.4,2,0,2,1.1c-0.2,0.8-0.3,1.8-0.3,3
			c0.2,1.3-0.3,1.8-1.4,1.4c-1.4-0.2-2.9-0.3-4.5-0.1c-1.2,0.6-1.8,0.3-2-1.1c0-0.3,0-0.8-0.1-1.7c-2,0.9-4.4,1.6-7.1,2.1
			c-0.9,0.2-1.3-0.1-1.2-1.1c0-0.5,0.5-0.8,1.5-0.9c1.1-0.1,2.4-0.3,3.8-0.4c0.3-1.1,0.4-2.2,0.4-3.2c0-0.7,0.2-1.1,0.6-1.1
			C510.5,646.9,510.7,647.5,510.4,648.6z M509.2,643.9c-0.1,1.2,0,1.8,0.3,1.7l2.1,0.1c0.5,0.4,0.6,0.7,0.1,0.9
			c-0.2,0.1-0.6,0.1-1.1,0.1c-2-0.4-4.1-0.3-6.2,0.4c-0.4,0.1-0.6,0-0.6-0.4c0.2-0.9,0.6-1.3,1.2-1.2c0.8,0.2,1.4,0.3,1.8,0.1
			c0.3-0.1,0.4-0.7,0.3-1.8c0.1-0.4,0.3-0.6,0.6-0.6C508.5,643.2,508.9,643.4,509.2,643.9z M507.7,650.5c-0.2,0.3-0.4,0.4-0.7,0.1
			c-0.6-0.9-1-1.7-1.1-2.4c-0.1-0.7,0.1-1.1,0.7-1.2c0.5-0.1,0.7,0.1,0.7,0.6C507.5,648.7,507.6,649.6,507.7,650.5z M516.1,649.9
			c-1.4-0.1-2.3,0-2.7,0.3c-0.3,0.7-0.3,1.4,0,2.1c0.1,0.5,1.2,0.7,3.3,0.4c0.9,0,1.4-0.5,1.4-1.5
			C518.1,650.3,517.5,649.8,516.1,649.9z"/>
	</g>
	
		<linearGradient id="SVGID_1_" gradientUnits="userSpaceOnUse" x1="399.0493" y1="288.2018" x2="399.0493" y2="288.2018" gradientTransform="matrix(1.0929 0 0 -1.0929 0 955.5428)">
		<stop  offset="0" style="stop-color:#C4BA98"/>
		<stop  offset="1.474962e-002" style="stop-color:#CEC5A9"/>
		<stop  offset="4.332456e-002" style="stop-color:#DDD7C4"/>
		<stop  offset="7.615717e-002" style="stop-color:#EAE6DA"/>
		<stop  offset="0.1145" style="stop-color:#F3F1EB"/>
		<stop  offset="0.162" style="stop-color:#FAF9F6"/>
		<stop  offset="0.2285" style="stop-color:#FEFEFD"/>
		<stop  offset="0.4133" style="stop-color:#FFFFFF"/>
		<stop  offset="0.4696" style="stop-color:#DDDBD8"/>
		<stop  offset="0.5499" style="stop-color:#B2AFA6"/>
		<stop  offset="0.6258" style="stop-color:#908B7F"/>
		<stop  offset="0.6952" style="stop-color:#787263"/>
		<stop  offset="0.7558" style="stop-color:#696252"/>
		<stop  offset="0.801" style="stop-color:#645D4C"/>
		<stop  offset="0.8499" style="stop-color:#776F5B"/>
		<stop  offset="0.9484" style="stop-color:#A89F82"/>
		<stop  offset="1" style="stop-color:#C4BA98"/>
	</linearGradient>
	
		<linearGradient id="SVGID_2_" gradientUnits="userSpaceOnUse" x1="399.0493" y1="288.2018" x2="399.0493" y2="288.2018" gradientTransform="matrix(1.0929 0 0 -1.0929 0 955.5428)">
		<stop  offset="0" style="stop-color:#C4BA98"/>
		<stop  offset="1.389108e-002" style="stop-color:#C7BD9D"/>
		<stop  offset="0.1655" style="stop-color:#E5E1D2"/>
		<stop  offset="0.2794" style="stop-color:#F8F7F3"/>
		<stop  offset="0.3418" style="stop-color:#FFFFFF"/>
		<stop  offset="0.4046" style="stop-color:#E1E0DC"/>
		<stop  offset="0.5083" style="stop-color:#B5B1A9"/>
		<stop  offset="0.6058" style="stop-color:#928D81"/>
		<stop  offset="0.6943" style="stop-color:#797364"/>
		<stop  offset="0.7708" style="stop-color:#696352"/>
		<stop  offset="0.8265" style="stop-color:#645D4C"/>
		<stop  offset="0.8691" style="stop-color:#776F5B"/>
		<stop  offset="0.955" style="stop-color:#A89F82"/>
		<stop  offset="1" style="stop-color:#C4BA98"/>
	</linearGradient>
	<path fill="url(#SVGID_1_)" stroke="url(#SVGID_2_)" stroke-width="0.5" stroke-miterlimit="10" d="M436.1,640.6"/>
	
		<linearGradient id="SVGID_3_" gradientUnits="userSpaceOnUse" x1="407.1375" y1="294.3262" x2="407.1375" y2="294.3262" gradientTransform="matrix(1.0929 0 0 -1.0929 0 955.5428)">
		<stop  offset="0" style="stop-color:#C4BA98"/>
		<stop  offset="1.474962e-002" style="stop-color:#CEC5A9"/>
		<stop  offset="4.332456e-002" style="stop-color:#DDD7C4"/>
		<stop  offset="7.615717e-002" style="stop-color:#EAE6DA"/>
		<stop  offset="0.1145" style="stop-color:#F3F1EB"/>
		<stop  offset="0.162" style="stop-color:#FAF9F6"/>
		<stop  offset="0.2285" style="stop-color:#FEFEFD"/>
		<stop  offset="0.4133" style="stop-color:#FFFFFF"/>
		<stop  offset="0.4696" style="stop-color:#DDDBD8"/>
		<stop  offset="0.5499" style="stop-color:#B2AFA6"/>
		<stop  offset="0.6258" style="stop-color:#908B7F"/>
		<stop  offset="0.6952" style="stop-color:#787263"/>
		<stop  offset="0.7558" style="stop-color:#696252"/>
		<stop  offset="0.801" style="stop-color:#645D4C"/>
		<stop  offset="0.8499" style="stop-color:#776F5B"/>
		<stop  offset="0.9484" style="stop-color:#A89F82"/>
		<stop  offset="1" style="stop-color:#C4BA98"/>
	</linearGradient>
	
		<linearGradient id="SVGID_4_" gradientUnits="userSpaceOnUse" x1="407.1375" y1="294.3262" x2="407.1375" y2="294.3262" gradientTransform="matrix(1.0929 0 0 -1.0929 0 955.5428)">
		<stop  offset="0" style="stop-color:#C4BA98"/>
		<stop  offset="1.389108e-002" style="stop-color:#C7BD9D"/>
		<stop  offset="0.1655" style="stop-color:#E5E1D2"/>
		<stop  offset="0.2794" style="stop-color:#F8F7F3"/>
		<stop  offset="0.3418" style="stop-color:#FFFFFF"/>
		<stop  offset="0.4046" style="stop-color:#E1E0DC"/>
		<stop  offset="0.5083" style="stop-color:#B5B1A9"/>
		<stop  offset="0.6058" style="stop-color:#928D81"/>
		<stop  offset="0.6943" style="stop-color:#797364"/>
		<stop  offset="0.7708" style="stop-color:#696352"/>
		<stop  offset="0.8265" style="stop-color:#645D4C"/>
		<stop  offset="0.8691" style="stop-color:#776F5B"/>
		<stop  offset="0.955" style="stop-color:#A89F82"/>
		<stop  offset="1" style="stop-color:#C4BA98"/>
	</linearGradient>
	<path fill="url(#SVGID_3_)" stroke="url(#SVGID_4_)" stroke-width="0.5" stroke-miterlimit="10" d="M444.9,633.9"/>
	<g>
		<g>
			<path fill="#C4BA98" stroke="#000000" stroke-width="0.5" stroke-miterlimit="10" d="M441,625.8h-5.8v4.5h3.1v3.1h-3.1v5.6
				l-1.7,0.8v-17.1h7.5V625.8"/>
			<path fill="#C4BA98" stroke="#000000" stroke-width="0.5" stroke-miterlimit="10" d="M443.2,636.9v-0.8v-13.3h6.4
				c0.6,0,1,0.3,1.3,0.8c0.3,0.5,0.4,1.4,0.4,2.5v4c0,1.2-0.1,2-0.4,2.5c-0.3,0.5-0.7,0.8-1.3,0.8h-1l3.4,6.5h-2.5l-3-6.5h-1.6v2.1
				v1L443.2,636.9z M448.8,625.8h-3.9v4.8h3.9c0.3,0,0.5-0.1,0.6-0.3c0.1-0.2,0.2-0.6,0.2-1.1v-2.1c0-0.5-0.1-0.8-0.2-1
				C449.3,625.9,449.1,625.8,448.8,625.8z"/>
			<path fill="#C4BA98" stroke="#000000" stroke-width="0.5" stroke-miterlimit="10" d="M454.8,640v-17.2h1.7V640H454.8z"/>
			<path fill="#C4BA98" stroke="#000000" stroke-width="0.5" stroke-miterlimit="10" d="M460.3,640v-17.2h7.6v2.9H462v3.9h3.4v2.9
				H462v4.3h6v3.3L460.3,640L460.3,640z"/>
			<path fill="#C4BA98" stroke="#000000" stroke-width="0.5" stroke-miterlimit="10" d="M471.2,640v-17.2h1.2l5.2,10.2
				c0.2,0.3,0.3,0.7,0.5,1c0.1,0.3,0.3,0.6,0.4,0.9c0-1,0-1.7-0.1-2.1c0-0.4,0-0.7,0-0.9v-9.1h1.6V640h-1.2l-5.5-10.6
				c-0.1-0.3-0.3-0.5-0.3-0.7c-0.1-0.2-0.2-0.4-0.3-0.7c0,0.5,0,1,0,1.5c0,0.5,0,0.9,0,1.2v9.3H471.2L471.2,640z"/>
			<path fill="#C4BA98" stroke="#000000" stroke-width="0.5" stroke-miterlimit="10" d="M483.7,640v-17.2h4.8c1.4,0,2.4,0.7,3.1,2.2
				c0.7,1.5,1.1,3.6,1.1,6.3c0,1.6-0.1,3.1-0.4,4.3c-0.3,1.3-0.7,2.3-1.2,3c-0.3,0.5-0.7,0.8-1.2,1c-0.5,0.2-1.1,0.3-1.8,0.3
				L483.7,640L483.7,640z M485.5,636.8h2.2c1.2,0,2-0.4,2.5-1.3c0.5-0.8,0.7-2.3,0.7-4.2c0-1.8-0.2-3.1-0.6-4
				c-0.4-0.9-1-1.4-1.8-1.4h-3.1L485.5,636.8L485.5,636.8z"/>
			<path fill="#C4BA98" stroke="#000000" stroke-width="0.5" stroke-miterlimit="10" d="M502.4,625.8h-4.9v3.7h4.7
				c0.7,0,1.2,0.3,1.5,0.9c0.3,0.6,0.4,1.6,0.4,3.2v2.4c0,1.6-0.1,2.6-0.4,3.2c-0.3,0.6-0.7,0.9-1.5,0.9h-4.6
				c-0.7,0-1.2-0.3-1.5-0.9c-0.3-0.6-0.4-1.6-0.4-3.2v-0.5l1.5-0.7v2h5.3v-3.9h-4.7c-0.7,0-1.2-0.3-1.5-0.9
				c-0.3-0.6-0.4-1.6-0.4-3.2v-1.9c0-1.6,0.1-2.6,0.4-3.2s0.7-0.9,1.5-0.9h4.2c0.7,0,1.2,0.3,1.4,0.8c0.3,0.6,0.4,1.5,0.4,3v0.4
				l-1.5,0.8V625.8L502.4,625.8z"/>
			<path fill="#C4BA98" stroke="#000000" stroke-width="0.5" stroke-miterlimit="10" d="M514.8,637.4v-4.8h-5.4v6.8l-1.7,0.6v-17.2
				h1.7v6.7h5.4v-6.7h1.7v14L514.8,637.4z"/>
			<path fill="#C4BA98" stroke="#000000" stroke-width="0.5" stroke-miterlimit="10" d="M520.3,640v-17.2h1.7V640H520.3z"/>
			<path fill="#C4BA98" stroke="#000000" stroke-width="0.5" stroke-miterlimit="10" d="M525.9,640v-17.2h6.4c0.6,0,1,0.3,1.3,0.8
				c0.3,0.5,0.4,1.4,0.4,2.5v3.8c0,1.2-0.1,2-0.4,2.5c-0.3,0.5-0.7,0.8-1.3,0.8h-4.7v5.9L525.9,640z M531.5,625.8h-3.9v4.6h3.9
				c0.3,0,0.5-0.1,0.6-0.3c0.1-0.2,0.2-0.6,0.2-1.1v-1.8c0-0.5-0.1-0.8-0.2-1C532,625.9,531.8,625.8,531.5,625.8z"/>
		</g>
	</g>
</g>
</svg>
