<?xml version="1.0" encoding="utf-8"?>
<!-- Generator: Adobe Illustrator 18.1.1, SVG Export Plug-In . SVG Version: 6.00 Build 0)  -->
<svg version="1.1" id="图层_1" xmlns="http://www.w3.org/2000/svg" xmlns:xlink="http://www.w3.org/1999/xlink" x="0px" y="0px"
	 viewBox="0 0 560 560" enable-background="new 0 0 560 560" xml:space="preserve">
	 <style type="text/css">
	.st0{fill:#FFFFFF;}
</style>
<g>
	<g>
		<path class="st0" d="M165.4,426.6c-0.1,1.1-0.2,2.1-0.3,3.2c-0.8,8.6-3.3,16.7-6.6,24.5c-0.9,2.1-2.1,3.9-3.7,5.5c-3.8,3.6-9.3,3.3-12.6-0.8
			c-2.2-2.8-3.5-6.1-4-9.6c-1.9-12.4,0.1-24.2,5.7-35.3c2.5-5,6.7-8.7,10.9-12.2c0.5-0.4,1.2-0.7,1.2-1.6c-1.4-1.3-2.9-0.7-4.3,0
			c-2.7,1.4-4.7,3.6-6.6,5.9c-0.5,0.5-0.9,1.1-1.4,1.7c-1.2-0.5-1.6-1.5-2.2-2.4c-5.5-8.8-8-18.7-10.1-28.7
			c-2.2-10.7-4.6-21.3-7.2-31.9c-1.5-6.2-1.8-12.6-1.1-19.1c0.3-2.8,0.6-5.6,1-8.4c0.5-3.1,1.9-4.4,5.1-4.5
			c3.8-0.1,7.4,1.1,10.9,2.3c0.4,0.1,0.8,0.6,1.1,0.9c0.4,0.5,0.8,1,1.5,0.7c0.6-0.2,1-0.7,1.1-1.4c0.1-0.8,0.1-1.7,0-2.5
			c-0.7-10.5-2.4-21-2-31.6c1.3-36,6.7-71,21.4-104.3c6-13.5,14.2-25.4,23.9-36.5c0.8-0.9,1.8-1.9,2.8-2.6
			c8.6-6,16.9-12.5,26.3-17.3c11.6-5.9,24-9.3,36.7-12c19.2-4,38.6-4.3,57.9-1.8c18.6,2.4,35.2,9.6,50.1,20.9
			c17.5,13.3,32.6,29,45.1,47.1c7.7,11.1,13.4,23,15.8,36.5c3.6,20.5,6,41.2,6.5,62c0.2,8.1,0.2,16.2,0,24.2c0,0.9,0,1.7,1,2.1
			c1,0.4,1.5-0.2,2.2-0.8c3.3-3,7.2-4.7,11.8-4.9c2.5-0.1,4,1.4,5,3.5c1.6,3.4,2.4,7,2.9,10.6c1.3,9.2,2.2,18.4,2.9,27.7
			c0.2,3.1-0.1,6.3-1,9.3c-2.1,6.9-2.8,14.1-3,21.2c-0.3,10.3-4.1,19.2-10.4,27.2c-0.2,0.2-0.4,0.5-0.7,0.9c-2.7-3.3-6-5.7-9.8-7.7
			c0.2,1.6,1.1,2.4,2,3.2c6.4,5.7,11.1,12.5,13.6,20.8c2.8,9.5,3.6,19.3,2.5,29.2c-0.4,4.2-2.7,6.6-6.3,7.4c-3.4,0.7-5.9-0.8-8-3.2
			c-4-4.7-7-10-9.6-15.5c-3.7-7.7-5.7-16-7.1-24.4c-0.3-1.6-0.4-3.3-1.3-5.4c-0.8,4.2-1.7,7.9-2.2,11.7c-2,17-6.6,33.3-12,49.5
			c-0.7,2.2-1.6,4.3-2.8,6.3c-7.7,12.1-15.4,24.2-24.6,35.3c-10,12.1-21.9,21.8-36.2,28.5c-8.5,4-16.8,8.7-26,11.3
			c-13.7,4-27.8,5.6-42,4.1c-12.7-1.4-24.4-5.9-34.3-14.5c-12.9-11.2-25.5-22.7-36.1-36.2c-6.5-8.2-12.9-16.6-16.9-26.4
			c-4-9.9-7.9-19.8-11.4-29.9c-1.2-3.6-2.5-7.2-3.8-10.8c-0.2-0.6-0.4-1.1-0.6-1.6C165.8,426.5,165.6,426.5,165.4,426.6z M208.4,336
			c1.2,2,3.2,2.3,5.3,2.6c0.7,0.1,1.3,0,1.5,0.9c0.5,1.8,1.6,1.8,2.9,0.9c1.3-0.9,2.2-0.8,2.9,0.8c0.4,1.1,1.2,2.2,2.6,1.6
			c1.4-0.6,2.6-0.3,3.8,0.3c0.9,0.5,2,0.4,2.4-0.4c1.1-2.3,3.7-3.2,5-5.3c4.3,3.1,5.4,3,9.1-0.9c0.2-0.3,0.6-0.6,0.9-0.6
			c1.9,0.3,2.7-1.1,3.7-2.1c2-2.1,4.4-3.6,7.5-3.2c1.9,0.2,3.8,0.6,5.2-1.4c1.2,1.1,2.2,1.8,3.4,0.5c1.2-1.3,0.2-2.2-0.5-3.1
			c-2.4-3.1-4.3-6.5-6.5-9.8c-0.3-0.4-0.8-0.8-0.5-1.4c0.6-0.2,1.1,0.2,1.6,0.4c0.5,0.2,1,0.5,1.5,0c0-0.8-0.5-1.2-1-1.7
			c-6.5-6-14.2-9.1-23-9.7c-7.3-0.5-14.7,0.1-22-0.2c-10.7-0.5-20,3.6-29.5,7.4c-2,0.8-3.7,2.2-4.8,4.2c0.7,0.5,1.4,0.4,2,0.6
			c0.9,0.2,1.9,0.6,2,1.6c0.2,1.4,1,1.4,2,1.3c0.7-0.1,1.6-0.3,1.5,0.9c-0.1,2,1.1,2.3,2.8,2c0,2.2,1.7,2.2,3.1,2.6
			c-0.3,0.8-1.1,1.4-0.4,2.2c0.6,0.7,1.4,0.7,2.2,0.6c0.7-0.1,1.4-0.5,2,0.3c-0.1,0.9-1.5,1.5-0.7,2.6c1,1.4,2.2,0,3.3,0.3
			c0.4,0.6,0.2,1.3,0.3,1.9c0,0.5,0.1,1.2,0.6,1.2c1.4,0,2.1,1.3,3.1,1.6c1.4,0.4,2.4,0.9,2.9,2.2
			C207.4,337.3,207.3,336.2,208.4,336z M304,325.8c3.6-1,6.7,0.1,9.8,1.3c0.9,0.3,1.4,0.6,1.5,1.7c0.1,1.2,0.7,1.8,1.9,1.2
			c0.6-0.3,1.1-0.3,1.6,0.3c0.3,0.4,0.8,0.7,1.3,0.5c2.1-0.9,3.9,0.3,5.7,0.7c3.9,0.8,7.9,1.6,11.8,2.6c3.2,0.8,6.1,1,9-0.9
			c0.5-0.4,1.1-0.3,1.7-0.3c1.2,0,2.3-0.2,3.3-0.7c1.8-0.9,3.6-2,5.6-2.5c4.1-1.1,7.6-3,10.2-6.8c1.3-1.9,2.9-3.6,3.5-6
			c0.4-1.5,0.7-3.1,1.4-4.5c0.5-1,1.3-2,2.5-1.8c3.3,0.6,6.6-0.1,9.9,0.6c1.7,0.3,3.6,0.6,5-1c-0.2-1-1-1.2-1.7-1.5
			c-2.7-1.1-5.4-2.1-8-3.4c-7.2-3.9-14.6-5.8-23-5.3c-12.7,0.7-25.2,2.2-37.4,5.6c-3.6,1-6.4,3-8.5,6C308,315.7,306.9,321,304,325.8
			z M278.5,355.9c0.1-2.5,0.5-7.1,0.7-11.6c0.2-5.7,0.1-11.3-1.6-16.8c-1.1-3.4-2.5-6.7-3-10.2c-0.2-1.2-1-1.5-2.2-1.2
			c-1.4,0.4-2.2,1.8-1.6,3.9c1,3.8,0.8,7.6,0.8,11.5c0,7.1-0.9,14-2.9,20.9c-2.6,9-5.1,18-6.9,27.2c-0.4,2.2-1.5,3.6-3.7,4.5
			c-4.7,2-7.3,7.4-6.1,12.4c1.1,4.4,2.8,5.3,6.9,3.3c1.5-0.7,2.9-1.4,4.6-1.2c5.3,0.6,10.5,1.4,15,4.6c1.9,1.3,4.1,0,4.3-2.3
			c0.1-0.9-0.2-1.7-0.4-2.5c-2.2-7.7-3.7-15.5-3.9-23.5C278.4,369.2,278.3,363.6,278.5,355.9z M356.7,266.3
			c-1.2-0.1-2.9,0.2-4.6,0.4c-13.2,1.9-25.5,6.4-36.9,13.4c-1.8,1.1-3.5,2.3-5.2,3.5c-0.9,0.7-1.2,1.7-0.7,2.7
			c0.5,1.1,1.4,1.6,2.6,1.5c0.5-0.1,1.1-0.2,1.6-0.4c7.7-2.3,15.4-4.4,23-7c11.2-3.8,22.7-5.8,34.6-4.5c2.7,0.3,5.4,0.8,8,1.2
			c0.9,0.1,1.7,0,2.2-0.9c0.4-0.9-0.1-1.5-0.7-2.1c-1-1.1-2.2-2.1-3.5-2.8C370.8,268.3,364.3,266.4,356.7,266.3z M276,181.6
			c0.2-0.7,0.3-1.1,0.4-1.5c2.4-11.8,3.6-23.7,3.3-35.8c-0.2-7.7-1.1-15.3-3.4-22.6c-0.8-2.3-1.6-4.6-2.9-6.8
			C264.7,127.2,266.3,168.4,276,181.6z M241.2,291.6c0.8,0,1.1,0,1.4,0c1.2,0,2.3-0.4,2.6-1.8c0.3-1.4-0.5-2.1-1.6-2.7
			c-0.9-0.4-1.8-0.9-2.8-1.2c-7.4-2.6-14.8-5-22.3-7.3c-7.9-2.4-15.8-3.1-23.9-1.1c-4.4,1.1-8.8,2.2-12.7,4.6
			c-0.7,0.4-1.6,0.9-1.3,1.9c0.3,1,1.2,1.1,2,1.1c2.2,0.1,4.3,0.1,6.5-0.2c4.5-0.5,9-0.4,13.5,0.4c6.2,1.1,12.4,2.5,18.6,3.6
			C228,290.1,234.9,290.8,241.2,291.6z M286.8,255.4c-1-0.9-2.1-0.9-3.1-1c-4.2-0.2-8.3-0.9-12.1-2.6c-6-2.7-12.1-2.6-18.4-1.5
			c-4.3,0.8-8.6,6.7-6.4,11.3c0.9,2,1.9,3.9,3.2,5.6c2.5,3.3,5.6,6.2,8.4,9.2c3.2,3.3,6.2,6.7,7.5,11.3c0.3,1,0.5,2.1,0.8,3.2
			c3.2-2.3,4-5.1,2.7-8.8c-1.6-4.4-4.8-7.7-7.9-11.1c-1.2-1.3-2.3-2.6-2.9-4.3c-1.5-4.1-1-8,1.7-11.4c2.2-2.8,5.3-3.5,8.6-2.8
			c1.2,0.2,2.3,0.6,3.4,1.1c2.1,0.8,4.3,1.6,6.4,2.6C281.5,257.5,284.1,256.9,286.8,255.4z M234.4,461c1.5-0.5,2.9-0.9,4.3-1.4
			c10.3-3.2,20.4-7,31.2-8.3c4.8-0.6,9.7-0.9,14.3,0.9c2.9,1.1,5.7,1.2,8.6,0.2c9.3-3.1,18.6-3,28-0.5c4.2,1.1,8.3,2.4,12.5,3.6
			c0.7,0.2,1.5,0.4,1.9-0.5c0.5-0.9,0-1.5-0.7-2c-1.1-0.8-2.3-1.3-3.6-1.5c-6.2-1-12.5-2.2-18.7-3.1c-7.1-1-14.1-0.2-20.8,2.5
			c-2.6,1-4.6,1.2-7,0c-3.8-1.8-7.8-2.5-12-2c-6.8,0.7-13.5,2.5-20.3,3.5c-4.9,0.7-9.7,1.9-14.4,3.5
			C235.1,456.8,234.2,458.2,234.4,461z M304.1,472.9c-0.7,0.1-1.2,0.1-1.7,0.2c-3.5,0.7-7.1,1.3-10.6,2.2c-8.4,2.1-16.7,2-24.9-0.8
			c-1.1-0.4-2.2-0.8-3.5-0.8c4.2,5.8,9.9,8.9,16.6,10.4c4.2,0.9,8.2,0.3,11.8-1.9c3.7-2.2,7.3-4.5,10.9-6.8
			C303.5,475,304,474.2,304.1,472.9z M320.4,394.6c0-1,0-2.3-0.5-3.4c-1.4-3.1-2.9-6.2-4.4-9.3c-0.4-0.8-1-1.5-1.9-1.4
			c-1.9,0.2-3.8-0.3-5.8-0.1c-1.7,0.1-3.7-0.1-4.5,2c-0.8,2.1,1.1,2.9,2.3,4c4.7,4.1,9.6,8,9.2,15.2c-0.1,1,0.3,2.2,1.5,2.4
			c1.1,0.2,1.7-0.8,2.2-1.6C319.8,400,320.2,397.5,320.4,394.6z M432.2,433c0.2,1.5,1.2,1.7,2.3,1.6c1.3-0.2,1.7-1.2,1.7-2.4
			c-0.1-2.3-0.2-4.7-0.3-7c-0.1-1.3-0.3-2.6-0.7-3.9c-2.1-5.6-4.9-10.7-8.7-15.4c-0.5-0.6-1-1.2-1.9-1.2c-2.6,3.2-2.3,6.1,0.9,8.8
			c0.5-0.1,0.4-0.9,1.2-1c3.3,6.2,5.8,12.7,7,19.6C433.1,432.5,432.6,432.4,432.2,433z M157.7,429.2c0.6-2.2,0.3-3.9-0.3-5.5
			c-0.7-1.7-2.1-2.2-3.7-1.3c-1.5,0.9-2.4,2.3-3.1,3.9c-2.1,4.8-2.9,9.8-2.6,15c0.1,1.8,0.5,3.6,1.5,5.2c0.7,1,1.7,1.7,2.7,0.8
			c2.1-1.8,2.9-4.3,3.4-6.9c-1.6,1.2-2,3.2-3.7,4.4c-1.9-5,0.6-17.8,4.3-19.5C156.6,426.4,157,427.6,157.7,429.2z M195.4,404.7
			c-0.1,0-0.1,0-0.2,0c0,2.1,0,4.2,0,6.3c0,4.7,1.8,8.9,4.1,12.9c0.4,0.7,1,1.1,1.8,0.7c0.9-0.4,1-1.1,0.6-2c-0.6-1.2-0.8-2.4-1-3.6
			c-0.2-1.5-0.2-3.2-1.1-4.5c-1.5-2.2-1.4-4.6-1.7-7c-0.4-3.4,0.5-6.7,0.4-10.1c-0.1-1-0.3-1.8-1.5-1.8c-1.2,0-1.4,0.9-1.4,1.9
			C195.4,399.9,195.4,402.3,195.4,404.7z M257.1,404.6c0,1,0.4,1.6,1.1,2.1c2.5,1.8,5.2,2.8,8.3,1.7c1.4-0.5,2.8-0.8,4.2-0.2
			c1,0.4,1.8,0.3,2.4-0.6c0.6-0.9,0.2-1.7-0.5-2.5c-1-1.2-2.2-2-3.7-2.6c-3.4-1.5-6.9-0.4-10.3,0
			C257.6,402.7,257.2,403.7,257.1,404.6z M178.3,267.1c0-2.1-1.4-4.9-2.8-5.1c-2.1-0.3-3.1,1.3-4.1,2.8c-1.1,1.7-0.6,7.9,0.8,9.4
			c0.8,0.9,1.7,1.1,2.6,0.1C176.7,272.1,177.9,269.7,178.3,267.1z M210.3,386.1c-0.1,2.3,0.3,3.1,1.5,3.2c1.6,0.2,2.7-0.8,3-2.9
			c0.4-3.1,1.3-6,2.2-8.9c0.7-2.2,1.3-4.5,1.9-6.8c0.2-0.8,0.2-1.6-0.7-1.9c-1-0.3-1.5,0.3-1.8,1.1c-0.3,0.8-0.6,1.7-0.8,2.6
			c-1,3.6-2,7.2-4.3,10.3C210.5,383.7,210.3,384.9,210.3,386.1z M352.3,365.8c0-1.4-0.2-2.8-0.6-4.1c-0.3-0.9-0.7-1.7-1.8-1.8
			c-1.1-0.1-1.7,0.5-2.2,1.3c-1.9,2.6-2.2,5.5-1.6,8.6c0.3,1.3,0.7,2.4,2.2,2.4c1.5,0.1,2.7-0.4,3.2-2
			C352,368.8,352.3,367.3,352.3,365.8z M217.2,356.4c0.1-0.7-0.4-1.2-1.1-1.5c-1-0.4-2-0.5-2.6,0.4c-2.4,3.5-4.1,7.4-4.5,11.6
			c-0.1,0.8,0.2,1.6,1.1,1.9c1,0.3,1.5-0.3,1.9-1c1.4-2.5,3-4.8,4.1-7.4C216.6,359.2,217,357.9,217.2,356.4z M438.6,406.8
			c1.4,5.1,2.6,9.9,3.5,14.9c0.9,4.9,1.4,9.8,1.7,15.3C447.4,430,443.3,409.9,438.6,406.8z M294.7,405c0.1,1,0.5,1.7,1.9,1
			c1.4-0.7,2.8-1,4.3-1.2c1.1-0.2,2.1-0.4,3.1-0.8c1.7-0.5,2.1-1.6,1.5-3.2c-0.9-2.3-3.1-3.1-5.3-2.1c-1.9,0.9-3.5,2.3-4.7,4.1
			C295.1,403.4,294.8,404,294.7,405z M142.3,423.2c-4.7,5.5-4.9,24.7-1.2,28.5C140.1,442,141.3,432.6,142.3,423.2z M349,417.4
			c-11.6-10.8-20.1-23.8-28.2-37.6C321.3,387.1,342.5,415.2,349,417.4z M199.9,360c-0.6-1-1-1.9-1.6-2.7c-0.4-0.6-1-0.7-1.6-0.4
			c-0.6,0.2-0.9,0.7-0.6,1.3c1.2,2.9,2.1,5.9,2.6,9c0.2,1,1.3,1.4,2.3,1.4c1,0,1.1-1,1.2-1.7c0.2-1.6,0.5-3.2,0.7-4.8
			c0.1-0.9,0.5-1.8-0.5-2.5C201.4,358.9,200.8,359.6,199.9,360z M251.4,379.6c-0.3,0.2-0.5,0.3-0.5,0.4c-2.6,4.9-4.6,10.1-5.1,15.7
			c-0.2,1.8,0.4,3.5,1.4,4.9c0.5,0.8,1.1,1.4,2.2,1.3c-1.9-6-1.8-6.4-0.4-11.6c0.7-2.7,1.4-5.4,2.1-8
			C251.4,381.4,251.6,380.6,251.4,379.6z M380.7,404C380.8,403.9,380.8,403.9,380.7,404c-0.2-2.2-0.4-4.4-0.6-6.7
			c-0.1-0.9-0.1-2-1.3-2c-1.2,0-1.3,1.1-1.4,2c-0.2,1.5,0,3-0.3,4.5c-0.4,2,0,3.7,0.8,5.4c0.3,0.6,0.7,1.2,1.5,1
			c0.8-0.2,1.3-0.7,1.3-1.5C380.8,405.8,380.7,404.9,380.7,404z M176.4,303.5c0.9-1.4,2.3-1.8,3.7-2.1c0.7-0.1,1.4-0.5,1.3-1.2
			c-0.1-1.8,0.2-3.6,0.3-5.4c0-1.3-1.2-1.8-2.3-1.1C176.5,295.6,175.1,300,176.4,303.5z M369.1,413.4c0.2,1.7,0.4,4,0.8,6.2
			c0.2,1.5,1.3,1.8,2.5,0.9c1.8-1.2,2.3-3.5,1.1-5.4c-0.6-1-1.5-1.9-1.9-3c-0.2-0.7-0.8-1.1-1.5-0.9
			C369.3,411.4,369,412,369.1,413.4z M362.9,382.9c0-0.9,0-1.8-0.4-2.7c-0.6-1.2-1.5-1.8-2.8-1.3c-1.2,0.4-1.7,1.3-1.4,2.5
			c0.4,1.8,0.8,3.5,1.2,5.3c0.1,0.6,0.5,1.1,1.2,1.2c0.8,0.1,1.2-0.4,1.5-1.1C362.6,385.6,362.9,384.3,362.9,382.9z M149.5,414.9
			c-0.2-0.9-0.4-1.9-1.4-2.4c-0.6-0.3-1.2-0.2-1.7,0.1c-1.3,0.9-2.8,4.6-2.5,6.1c0.3,1.4,1.4,2.1,2.5,1.4
			C148.3,418.9,149.1,417,149.5,414.9z M293.2,260.4c2.1-0.5,2.5-0.7,2.6-1.9c0.1-2,0-4-0.8-5.8c-0.6-1.3-1.5-2.4-3-2.7
			c-0.9-0.1-1.9-0.1-2.2,0.8c-0.4,0.9,0.5,1.4,1.2,1.7c1.7,0.7,2,2,1.9,3.7C292.7,257.5,292.5,258.9,293.2,260.4z M172.4,300.8
			c-3.1,3-3.9,5-3,7.4c0.3,0.8,0.4,1.8,1.6,1.4c1.2-0.4,2.9-0.4,2.6-2.4C173.4,305.2,172.9,303.2,172.4,300.8z M364,359.5
			c0,0.3,0,0.5,0,0.6c0.1,0.9-0.3,2.1,1.1,2.3c1.3,0.2,2.2-0.6,2.5-1.9c0.3-1.6,0.5-3.3,0.6-5c0.1-0.8-0.5-1.3-1.2-1.6
			c-0.6-0.2-1,0.1-1.2,0.5C364.8,356.1,363.5,357.5,364,359.5z M204.1,382.9c-3-0.1-5.4,1.5-5.9,3.8c-0.2,0.8-0.3,1.7,0.4,2.4
			c0.7,0.6,1.6,0.3,2.4,0C203.7,387.8,203.7,385.4,204.1,382.9z M205.4,402.5c0.1,0.7,0.2,1.4,0.3,2.1c0.1,0.6,0.4,1,1.1,1
			c0.6,0,1.1-0.2,1.3-0.7c0.9-2,1.5-4,1.7-6.2c0.1-0.9-1.1-1.9-1.6-1.2C207.2,399,205.1,400.1,205.4,402.5z M379.3,378
			c0-0.6,0.1-1.6-0.2-2.6c-0.2-0.6-0.6-1-1.2-1.1c-0.5-0.1-0.8,0.1-1.1,0.5c-0.9,1.1-1,5-0.2,6.2c0.4,0.6,1,0.9,1.7,0.7
			c0.8-0.1,1-0.8,1-1.5C379.3,379.6,379.3,379,379.3,378z M169.9,278.7c0-0.9,0-1.7-0.9-2.2c-0.6-0.3-1.1-0.1-1.4,0.4
			c-1,1.8-1.6,3.7-2,5.7c-0.1,0.6,0.3,1,0.9,1.2c0.5,0.2,1,0.1,1.3-0.3C168.6,282,169.7,280.6,169.9,278.7z M279.1,438.8
			c2.6,2.6,9.8,2,11.8-1.1c-3.7,0.3-7.4,0.6-11,0.9C279.6,438.6,279.3,438.5,279.1,438.8z M433.4,399.5c0,1.6,1.6,3.9,2.8,3.9
			c1,0,1.4-0.6,1.4-1.5c0.1-1.7-1.7-4.1-2.8-4C433.8,398,433.5,398.7,433.4,399.5z M274.9,461c1.7-1.7,2.8-3.7,3.7-5.8
			c0.2-0.5,0.2-1.1-0.4-1.4c-0.5-0.3-1-0.1-1.3,0.3C275.3,456,274.6,458.4,274.9,461z M200.2,376.5c1.3-0.1,2.5-0.2,3.2-1.3
			c0.8-1.1,0.5-2.2-0.5-3c-0.7-0.5-1.5-0.6-2,0.3C200.2,373.6,199.6,374.9,200.2,376.5z M352.9,343.7c0.2,0.9-0.3,2.3,1.4,2.2
			c1.6-0.1,1.4-1.5,1.5-2.6c0.1-1-0.1-2.1-1.4-2C352.7,341.3,352.9,342.7,352.9,343.7z M231,413.6c3.3-3.4,8.6-14.1,8.9-18.3
			c-1.3,3.4-2.5,6.5-4.1,9.4C234.4,407.6,232.7,410.6,231,413.6z M256.8,459.5c2.2-0.5,3.8-1.5,5.3-2.8c0.5-0.4,0.6-0.9,0.2-1.4
			c-0.3-0.3-0.7-0.6-1.1-0.3C259.4,456.1,257.5,457,256.8,459.5z M343.7,348.4c0.5-1.5,0.3-2.7-0.7-3.8c-0.3-0.4-0.7-0.7-1.2-0.5
			c-0.5,0.2-0.6,0.7-0.6,1.2C341.3,346.9,341.8,348,343.7,348.4z M286.5,454.7c-1.4,1.6-1.4,2.7,0,4.6
			C288.2,457.8,288.2,456.5,286.5,454.7z M367.2,342c-0.2-0.9-0.8-1.3-1.7-1.3c-1,0-1.2,0.7-1.2,1.5c0,0.8,0.4,1.3,1.2,1.2
			C366.5,343.4,367,343,367.2,342z M302.3,460.4c0.4-0.3,0.3-0.8,0.3-1.2c-0.1-1-0.6-1.7-1.5-2.1c-0.4-0.2-0.7,0-0.9,0.4
			c-0.3,1,0.2,1.7,0.9,2.3C301.5,460.2,301.8,460.5,302.3,460.4z M207.3,445.9c0-0.7-0.4-1.2-1.2-1.2c-0.8,0-1.4,0.2-1.5,1.1
			c-0.1,0.8,0.5,1.2,1.2,1.3C206.6,447.1,207.1,446.7,207.3,445.9z"/>
		<path class="st0" d="M331.9,109.7c1.8-2.5,4.3-4.6,3.8-7.8c-0.4-2.4-0.5-5.1-1.8-7.5c-1.3,0.6-1.4,1.6-1.5,2.5c-0.5,2.6-0.8,5.1-2.2,7.4
			c-1.9,3.3-3.3,3.9-6.9,3c-15.3-3.8-30.9-5-46.7-4c-1.9,0.1-3.8,0.5-5.9,0.3c2-3.2,3.9-6.3,6.8-8.6c2.1-1.7,3.8-3.7,4.7-6.3
			c1-2.8,0.5-5.3-1.8-7.3c0.3,3.2-1.8,4.8-3.7,6.6c-2.6,2.6-4.1,5.9-5.7,9.2c-0.6,1.2-1.1,2.4-1.7,3.6c-1.3,2.5-3.2,3.8-6.2,4
			c-6.6,0.4-13,2-19.3,3.8c-0.7,0.2-1.5,0.4-2.5,0.6c-0.8-4.8,0.2-9.2,2.2-13.5c-1.8-0.6-2.9,0.3-3.8,1.5c-2.1,2.7-4,5.7-5.4,8.8
			c-1.9,4.2-4.7,6.9-9.2,7.8c-1.7,0.3-3.3,1.1-4.8,2c-9,5-18.8,8.7-27,15.3c-0.8,0.7-1.9,1.1-2.9,1.4c-3.1,0.7-6,1.9-8.8,3.1
			c-0.4,0.2-0.9,0.4-1.4,0.2c-0.1-0.9,0.6-1.1,1-1.6c2.5-2.5,5.4-4.5,8.4-6.2c3.7-2.2,7.4-4.3,11.1-6.4c2.2-1.3,3.9-3.1,4.7-5.5
			c2.8-8.1,7.8-14.9,13.4-21.3c5.3-5.9,11.5-10.6,18.1-14.9c1-0.7,2-1.3,1.9-3c-7,2.4-12.3,7.2-18.4,10.8c2-4.4,3.6-9.1,7.8-12.1
			c4.6-3.3,8.8-6.9,12.8-10.9c6.7-6.8,14.9-10.4,24.1-12.2c9.6-1.9,19.2-3,28.9-2.3c3.5,0.3,6.8,1.1,9.8,2.9
			c3.8,2.2,6.1,5.5,6.9,9.7c0.8,4.4,0.6,8.8-1,13c-0.6,1.5-0.6,1.5-0.3,2.9c1.6-0.6,2.4-1.9,3-3.4c1.3-3,2-6.2,3-9.3
			c0.2-0.6,0.2-1.2,0.8-1.8c5.3,5.6,10.9,10.9,15.7,17c-4.2-0.8-8-3.1-12.5-3.6c0.4,1.3,1.3,1.8,2.2,2.3c4.7,2.3,9.3,4.8,14.1,6.9
			c7.1,3.2,12.1,8.9,16.8,14.7c-0.2,0.8-1.2,0.7-1.2,1.7c0.7,1.2,2,1.9,3.2,2.5c7.1,3.9,14.8,6.4,22.7,8.1c2.5,0.5,3.9,1.7,4.9,4
			c1.3,3.1,2.8,6.1,4.2,9.2c-1,0.7-1.8,0.2-2.6-0.2c-6.7-3-13.5-5.6-20.8-6.6c-1.3-0.2-2.5-0.4-3.8-0.4c-3.8-0.1-7.3-1.2-10.6-2.8
			c-5.1-2.4-10.3-4.5-15.4-6.7C332.8,110.2,332.5,110,331.9,109.7z M257.4,76.3c0.1,2,1.1,2.6,3,1.7c3.3-1.6,6-3.9,8.2-6.9
			c1.8-2.5,4-4.4,6.9-5.7c3.3-1.5,6.8-1.5,10.3-1c1.1,0.2,1.9-0.1,1.5-1.4c-0.4-1.8-4.5-4.7-6.4-4.4c-2.5,0.3-5,0.8-6.9,2.8
			c-1.4,1.4-2.9,2.7-4.4,4c-3.8,3.2-6.8,7.2-11.4,9.4C257.6,75.1,257.3,75.6,257.4,76.3z M303.7,96.9c2.8-3.2-1-17.6-5.4-20.2
			c1.5,6.4,3,12.7,1.6,19.1c1.5,0.4,1.6-1.3,2.6-1.4C303.2,95.2,302.6,96.5,303.7,96.9z M307,88.1c-0.7,2.8-0.2,10.3,0.9,12.3
			C310.1,98,309.6,90.9,307,88.1z"/>
		<path class="st0" d="M323.7,66.3c2.9-1,5.6-1.9,8.3-2.8c8.4-2.9,15.3-8,22-13.7c12.6-10.6,23-23,30.1-38c1.2-2.5,2.5-4.9,3.8-7.4
			c0.9-1.7,1.7-2,3.5-1.4c2.6,0.9,4.2,2.6,4.7,5.4c0.8,4.3,0.5,8.7,0.2,13c-1.2,22-9.1,41.4-23.1,58.3c-2.8,3.4-5.6,7-8.4,10.4
			c-2.2,2.7-4.6,5.1-7.4,7.1c-2.1,1.5-2.6,1.5-4.2-0.5c-2.3-2.7-4.5-5.5-7.2-7.9c-1.6-1.4-3.4-2.6-5.3-3.4c-2.7-1.1-5-2.8-6.6-5.2
			c-3-4.6-6.4-8.9-9.9-13.1C324.2,67.1,324,66.8,323.7,66.3z M386.5,15.9c-0.4,0-0.6,0.2-0.7,0.5c-1,2.2-2,4.4-3.4,6.4
			c-7.2,10.1-15.2,19.5-24.2,28c-7.6,7.2-15.7,13.9-25.9,17.5c-0.6,0.2-1.3,0.5-1.2,1.4c0,0.7,0.6,1.2,1.2,1.5
			c3.3,1.4,6.6,1.7,9.8,0c11.8-6,22.1-14,29.9-24.8c6.4-8.9,10.5-19,14.6-29C386.8,16.8,387,16.3,386.5,15.9z"/>
		<path class="st0" d="M155.4,16.6c0.4,0.8,0.9,1.5,1.2,2.2c10.9,21.5,28,36.6,49,47.6c0.5,0.3,1.1,0.6,1.6,0.8c6,2.7,11.4,6.9,19,6.3
			c-9,11.4-15.4,23.8-22,36.1c-3-1-5.4-2.6-7.8-4.4c-20.9-15.6-35.3-35.6-41.3-61.2c-1-4.1-2.1-8.2-2.5-12.4
			c-0.4-4.4,0.2-8.8,1.6-13C154.6,18,154.7,17.3,155.4,16.6z M201.6,97.6c-0.4-0.5-0.6-0.7-0.8-0.9c-7.3-7.4-14.3-15-21.3-22.6
			c-10.6-11.5-18.7-24.3-22.8-39.5c-0.1-0.5-0.1-1.1-0.8-1.3c-0.8,6.8,6.4,24.7,14,35.3C179.6,81.7,195.2,96.3,201.6,97.6z"/>
	</g>
</g>
</svg>
