<?xml version="1.0" encoding="utf-8"?>
<!-- Generator: Adobe Illustrator 18.1.1, SVG Export Plug-In . SVG Version: 6.00 Build 0)  -->
<svg version="1.1" id="图层_1" xmlns="http://www.w3.org/2000/svg" xmlns:xlink="http://www.w3.org/1999/xlink" x="0px" y="0px"
	 viewBox="0 0 612 792" enable-background="new 0 0 612 792" xml:space="preserve">
<g>
	<g>
		<path d="M219,571.4c5,7.3,9.8,13.7,13.9,20.5c7.8,13.4,19.5,22,33.3,27.9c2.1,0.9,4.2,2,6.4,0.4c-0.5-1.6-58.1-60.9-59.9-61.7
			c-0.4,2.6,1.9,4.4,2,6.7c-4-1.2-4.7-2.1-4.2-6.1c0.7-4.5,0.5-9-0.9-13.3c-1.4-4.2-3.8-7.4-8.1-8.9c-1.7-0.7-2.4-1.6-2.5-3.4
			c-0.2-2.8-0.4-5.7-0.9-8.5c-0.7-4-2.8-6.9-6.9-7.9c-2.1-0.5-2.7-1.7-2.8-3.7c-0.3-3.6-0.8-7.2-1.4-10.7
			c-1.6-8.4-2.8-9.5-11.1-10.9c-0.7-3.4-1.3-7-2-10.5c-0.4-2.4-1-4.7-2.4-6.8c-2.5-3.4-4.8-3.6-7.9-0.8c-2.2,2-3.4,4.6-4,7.3
			c-1.4,5.2-1,10.4,0.8,15.5c1.3,3.7,3.7,5.4,8.2,5c2.5-0.1,3.3,0.7,3.4,3.1c0.1,3.8,0.5,7.7,1.4,11.4c0.8,3.4,2.5,5.9,6.1,6.4
			c1.9,0.3,2.4,1.4,2.7,3.1c0.9,4,2,8.1,2.7,12.1c0.7,3.6,2.6,5.9,6.1,7c2.5,0.8,3.4,2.3,3.4,4.9c0.1,2.7,0.4,5.5,0.9,8.1
			c0.5,3.2,2.3,5.7,5,7.3c3.8,2.4,4,3.5,1.3,7.9c-1.2-0.1-1.4-1.2-1.9-2.1c-2.4-4.5-6.1-7.4-10.9-8.1c-13.3-2.1-26.7-3.7-40-5.5
			c-0.4-0.1-0.9,0.1-1.2,0.1c-0.9,1.2-0.4,2.4-0.4,3.6c1.2,22.6,2.3,45.2,3.7,67.8c0.2,3.3-0.8,4.7-3.9,5.4
			c-6.7,1.4-13.3,0.7-19.9,0c-14.6-1.6-28.7-5.8-42.8-9.6c-3.4-0.9-4.3-2.8-3.8-7.3c0.8-8.2,1.7-16.3,2.5-24.5
			c1.4-14.2,3.4-28.4,3.6-42.8c0.1-9-1.7-11.5-10.5-13.4c-9.2-2.1-16.5-7.1-23.6-13.3c1.6-1.6,3.6-1.5,5.4-1.6
			c13.8-0.9,27.3,0.1,40.7,3.7c2.3,0.7,3.3,0.1,4.5-1.7c2.8-4.4,4.2-9.4,5.7-14.3c3.6-11.1,7.2-22.3,10.5-33.4
			c0.9-2.7,2.2-3.5,4.8-3.5c10.2,0.1,20.3,0.1,30.5,0c6.6,0,8.5-2,8.4-8.3c-0.2-15.5-0.7-31-1-46.6c0-2.3-0.7-4.5-1.5-6.7
			c-0.3-0.9-0.5-1.7-1.7-1.6c-1.2,0.1-1.1,1.2-1.2,2c-0.1,3.2-0.2,6.3-0.3,9.5c0,14.1,0,28.2,0,42.3c0,1.3,0.3,2.6-0.4,3.8
			c-1,0.7-2.2,0.3-3.2,0.3c-18.1-0.8-36.1-3.9-53.9-7.2c-2.3-0.4-4.6-0.8-6.6,0.9c-1.3,1-2.7,0.7-4,0.2
			c-17.6-5.2-35.3-10.3-52.7-16.2c-12.9-4.4-20.3-13.8-24.6-26.2c-1.2-3.6-0.7-7.3,0.4-10.9c7.8-24.2,15.8-48.2,24.5-72
			c2.3-6.4,5.5-12.3,9.1-18.1c5.7-9.2,13.9-12.6,24.4-12c8.5,0.4,16.6,2.5,24.4,6c19.5,8.7,38.5,18.4,57.6,27.9
			c3.4,1.6,6.4,3.8,8.1,7.3c1,2.1,2.5,2.8,4.9,2.7c0.9-1.4,0.9-2.8-0.2-4.2c-3.5-3.7-3-8-1.5-12.2c6.6-19.2,13.8-38.3,22.6-56.6
			c10.7-22.2,23.5-43.1,39.9-61.4c9.1-10.2,20.2-18,31.6-25.5c4.5-3,9.7-4,14.9-5c3.8-0.8,6.1-2.8,7.4-6.4
			c4-11.3,7.2-22.7,12.5-33.4c4.2-8.4,9-16.3,15.3-23.2c6.2-6.7,11-5.7,14.1,3c6.2,17.8,11.9,36,16.8,54.2c2,7.3,2.5,8,10.2,8.6
			c16.1,1.4,29.4,8.4,40.8,19.7c32.7,32.2,55.3,70.8,72.2,113c1.4,3.5,2.8,7.1,4.4,10.6c1.3,2.8,1,5.5-0.9,8c-1.5,2.1-2.7,4.5-4,6.8
			c-0.4,0.8-0.9,1.6,0,2.4c0.9,0.7,1.6,0.2,2.4-0.2s1.4-1,2.1-1.6c11.7-12.9,26.7-20.7,42.8-26.4c14.8-5.2,29.9-8.1,45.4-9.9
			c5.1-0.5,10.3-1.2,15.2-2.7c1.7-0.5,3,0,3.9,1.4c0.9,1.3,1.5,2.6,2.1,4c9.5,26.2,19.2,52.3,28.1,78.8c3.7,11.1,4.3,22.7,4.6,34.3
			c0.1,4.3-2.8,7.2-5.9,9.7c-2.3,1.9-5,3.1-7.7,4.4c-32.2,14.6-65.7,24.5-101.3,26.6c-5.6,0.3-11,1.4-16.6,2.3
			c-6.2,1-8.1-0.2-9.3-6.4c-2.8-13.6-5.5-27.2-8.3-40.9c-0.4-2.1-1.2-4.2-1.9-6.7c-1.3,1.4-1.3,2.7-1.3,4
			c0.7,15.7,1.3,31.5,2.1,47.2c0.3,6.6,4,9.3,11.1,8.7c11.6-1,23.1-2,34.6-3.2c3.2-0.3,4.2,0.5,4.4,3.7c1.3,14.3,2.2,28.9,5.4,42.9
			c0.3,1.3,0.5,2.6,1,3.8c1.1,3.2,2.7,3.8,5.8,2.7c1.3-0.5,2.6-1.1,4.2-0.9c13,1.9,26.2,0.5,39.3,1.2c2.5,0.1,5,0.2,7.5,0.3
			c1.1,0.1,2.3-0.1,2.8,1.3c-0.3,1.5-1.7,1.7-3,2.3c-8.6,4.2-16.9,9.1-26.2,12c-4.5,1.4-5.6,3.5-5.2,8.3c1.9,24.5,0.9,49,1.3,73.4
			c0.1,5.7-2,8.1-7.8,9.7c-18,5.2-35.7,3.7-53-3.2c-2.6-1.1-5.1-2.4-7.9-3.4c-3.5-1.3-4.3-3.9-3.9-7.3c1.2-10.5,2.2-21.1,3.3-31.7
			c0.8-6.7,0.4-13.3-0.3-20c-0.3-3-1.9-4.7-4.9-5.4c-8.5-1.9-16.9-0.8-25.4,1.2c-3.4,0.8-6.8,1.6-10.7,2.6
			c-0.3-4.2-0.7-8.1-0.9-11.9c-0.1-1,0.8-1.2,1.5-1.4c4.6-1.3,6.3-4.8,6.8-9.1c0.2-2.7,1.1-4.7,3.6-6.1c2.7-1.5,3.9-4.4,4.3-7.4
			c0.2-2.4,0.2-4.8,0.2-7.2c0-2.2,0.4-4.4,2.4-5.5c4.7-2.7,4.8-7.4,5.5-11.9c0.1-0.8,0-1.5,0-2.2c1.3-1.1,2.6-0.4,3.9-0.4
			c4.5-0.1,7-2.2,7.7-6.6c0.8-5.1,0.7-10.3-0.4-15.3c-0.9-4.3-4.2-6.6-8.4-6.2c-4.3,0.4-6.8,3.2-6.8,7.8c0,2.7,0.2,5.5,0.4,8.2
			c0.2,1.7-0.4,2.3-2.2,2.4c-6.7,0.5-8.2,1.9-9.7,8.6c-0.9,3.8-1.9,7.2-5.4,9.7c-2.3,1.6-2.7,4.7-2.8,7.4c-0.1,2.2,0,4.4-0.1,6.6
			c0,2.2-0.7,4.3-2.5,5.5c-5.1,3.2-5.6,8-4.7,13.2c0.3,1.9,0.8,3.6,1.2,5.2c-0.4,0.9-1.1,0.9-1.7,1c-5.7,1.5-7.6,3.9-8,10.1
			c-0.1,1.3,0.1,2.6-1.2,3.6c-4.3,3.2-4.7,7.7-4,12.5c0.4,3-0.1,4.8-3.2,6.1c-4.4,1.9-5.9,5.7-5.2,10.3c0.4,2.8,1.1,5.6,1.6,8.4
			c-0.9,0.4-1.6,0.8-2.5,1.1c-4,1.4-5.8,4.4-5.9,8.5c-0.1,4,0.2,8.1-0.5,12.1c-1,5.5-3.4,10.1-7.8,13.7c-5.6,4.6-11.4,9-16.1,14.4
			c-2.1,2.4-5,3.5-8.4,4c-19.2,3.2-38.6,2.2-57.9,1.9c-9.2-0.2-18.4-0.9-27.5-1c-6.6-0.1-12.1-2.3-17.5-5.8
			c-11-7.3-19.3-17.2-27-27.9c-4.2-5.9-6.9-12-6.3-19.5c0.3-4-1.1-7.8-4.4-10.6c-0.7-0.5-1.3-1.2-1.3-2.2
			C219,583.1,219,577.9,219,571.4z M179.2,341.1c-4.4,1.1-7.6,2.5-9.9,5.2c-7.6,9-12.7,19.1-13.7,30.9c-0.3,3.4,0.8,6.4,2.6,9.3
			c1.9,2.7,4.3,5,6.6,7.3c1.9,1.9,4,2.7,6.8,3c6.6,0.4,13.1,0.5,19.7,0.3c3.2-0.1,5,0.5,4.8,4.2c-0.1,1.6,0.3,3.3,0.7,4.8
			c1.4,7.6,3.8,15,10.6,19.7c11.3,7.9,23.6,12.9,37.6,12.9c15.2,0,29.1-3.8,39.6-15.6c6.4-7.2,10.1-15.8,12.8-24.9
			c0.5-2,1.3-3,3.5-3c9.3,0.1,18.6,0.1,27.9,0c2,0,3,0.5,3.5,2.5c1,3.5,2.1,6.9,3.5,10.3c5.9,13.9,15.1,24.8,30.9,26.9
			c9.3,1.2,19,1,28.4-0.1c16.1-1.9,27.6-13.8,31.1-30.4c0.8-3.5,1.1-7.1,1.7-10.8c0.8,0.1,1.4,0.1,2.1,0.1
			c5.6,0.4,10.8,2.4,16.4,3.2c7.1,0.9,12.6-2,16.2-8.2c3.8-6.6,3-12.8-0.8-18.9c-3.7-6-5.4-12.6-6-19.6
			c-1.3-15.7-4.2-31.1-10.1-45.9c-11.5-28.7-28.2-54-48.6-76.9c-5.9-6.7-11.7-13.3-19.6-17.7c-11.7-6.4-23.7-12-36.5-16.1
			c-21-6.7-41.7-6.7-62.2,2.1c-5.4,2.3-10.7,4.3-16.4,5.9c-8.3,2.3-15.5,6.7-21.3,12.9c-14.6,15.7-28.2,32.2-39.6,50.5
			c-12,19.2-19.5,40.5-26.1,62.1C173.7,332.4,173.1,337.3,179.2,341.1z M574.5,391.8c0-16.1-5.7-29.9-16.3-41.7
			c-6.9-7.8-15.3-13.3-26.1-13c-15.6,0.4-28.7,7.1-38.7,18.8c-18,21.3-14.5,54.9,6.7,72.9c29.1,24.8,69.8,4.7,73.4-24.6
			C574.1,400.2,574.6,396,574.5,391.8z M138,393.6c0-1.5,0.1-3.1,0-4.6c-0.7-10.6-2.6-20.7-10.8-28.7c-12.1-12-26.6-17.5-43.6-16.8
			c-8.1,0.3-15.1,3.1-21,8.7c-16,15.4-18.8,43.9-6.2,62.9c7.5,11.5,18.1,18.1,31.9,19.2c8.4,0.7,16.5-1.5,24.4-4.4
			C130.5,423.8,138.2,412.5,138,393.6z M223.2,538.5c0.1,0,0.3,0,0.4,0c0,4,0,8.1,0,12.1c0,1-0.2,2.1,0.9,2.6c1.2,0.5,2.1-0.2,3-0.9
			c3.7-3,7.5-5.8,11.7-7.8c29.8-14.1,60.5-23.1,94.1-17.9c21.1,3.3,40.5,9.9,55.8,25.7c0.8,0.8,1.5,1.3,2.6,0.9
			c1.2-0.5,0.9-1.6,0.9-2.6c0-4.8-0.2-9.6,0-14.4c0.5-12.6-4.9-21.7-15.2-28.6c-16.3-10.8-34.4-15.2-53.7-15.7
			c-19.1-0.5-37.9,2.4-56.4,7c-15,3.7-28.4,10.4-40.1,20.7c-2.8,2.4-4.3,5-4,8.7C223.4,531.7,223.2,535.1,223.2,538.5z M361.1,588.7
			c-5.6-3.8-10.8-6.2-16.3-8c-18.1-6-36.7-7.9-55.6-5.9c-9.9,1-19.7,3.1-28.5,8.2c-1,0.5-2.2,0.9-2.7,2.5c2.7,0.2,5.4-0.4,7.8-0.8
			c7.5-1.3,10.6,0.2,13.9,7.1c0.7,1.4,1.2,3.1,1.7,4.6c2.5,6,4.5,12.3,8.7,17.5c4.4,5.4,9.6,9.5,16.9,9c11.9-0.9,21.4-5.7,26.6-17.2
			c2.6-5.8,6.2-11,10.1-16.1c3.1-4,6.4-4.7,10.9-2.6C356.5,587.8,358.1,588.7,361.1,588.7z M336.3,443.5c0.3-0.1,0.7-0.2,0.9-0.3
			c4.9,7.5,11.5,13.7,17.7,20.2c7.4,7.9,14.8,15.8,23.5,22.3c9.6,7.1,18.7,5.7,26.1-3.6c0.8-1,1.5-2.1,2.3-3.2
			c7-10.5,10.7-22.2,12.9-34.4c0.9-5.2,1.9-10.6,2.2-16.8c-1.9,2.5-2.2,4.6-2.7,6.4c-2,7.6-3.6,15.3-6.4,22.7
			c-3.2,8.2-7.4,15.8-13.7,22.2c-3.3,3.5-6.3,4.3-9.9,2.7c-5.7-2.5-10.8-5.6-15.3-9.9c-12-11.5-23.9-23.1-35.4-35.2
			c-8.6-9.2-18.9-13.3-31.6-11.4c-0.9,0.1-2,0.8-2.6-0.8c1.2-1.7,3.8-1.5,4.9-3.4c-0.5-2-1.9-1.6-3.1-1.1c-3.3,1.5-6.6,3-9.7,4.7
			c-16.5,9.2-29.6,22.3-41,37.3c-3.3,4.4-6.6,8.7-10.8,12.2c-2.5,2.2-5.4,3.4-8.7,2.1c-7.9-3-14.9-7.2-20.7-13.6
			c-8.2-9.1-13.3-19.7-16.7-31.3c-0.4-1.4-0.4-3.3-2.2-4c-1.3,2.7-1.6,4-0.3,10.9c4.3,21.6,15.5,37.5,36.8,45.2
			c4.8,1.7,9.1,1,13-2.6c12.6-11.3,23.7-23.8,35-36.5c0.8-0.9,1.3-2.1,2.6-2.3c0.9,0.9,0.5,1.9,0.4,2.8c-0.7,4.3-0.3,8.5-0.8,12.8
			c-0.3,3.5,1.4,5.7,4.2,7.5c2-2.2,3-4.5,3.2-7.2c0.3-6.1,1-12.2,1.2-18.4c0.1-4.7,2.4-7.9,6.4-9.8c6.9-3.3,14-4,21.4-2.1
			c7.3,2,9.4,4.8,9.7,12.3c0.2,6.3,0.5,12.7,0.9,19c0.1,3,1.2,5.5,3.8,7.1c3.1-3,4.6-6.1,3.8-10.4
			C336.9,452,336.7,447.7,336.3,443.5z M341.4,624.6c1.9,0.3,3.3-0.1,4.7-0.5c10.8-2.7,18.8-9.5,25-18.5
			c12.5-17.8,24.8-35.7,37.2-53.7c0.5-0.8,1.4-1.4,1.1-2.7c-0.5,0.3-1.1,0.5-1.4,0.9c-2,1.6-4,3.4-5.9,5.1
			c-13.3,12.3-23.9,26.9-34.1,41.9c-6.6,9.7-14.2,18.6-24.3,25C342.9,622.7,342.1,623.2,341.4,624.6z M312.1,156.9
			c0,1.2,0,2.4,0,3.6c0.1,7.8,2.6,10.5,10.3,11c4.8,0.3,6.6-1.6,5.4-6.2c-2.4-9.2-4.9-18.4-7.4-27.5c-0.3-1.2-0.3-2.6-2.2-2.8
			c-1.9-0.2-2.3,1.1-3,2.4C312,143.6,312.7,150.3,312.1,156.9z M356.7,479.3c-1.5-3-3.7-4-7-3.9c-8.3,0.4-16.5,0.5-24.8,0.9
			c-1.9,0.1-3.7,0.3-5.4,1.1c-0.9,0.3-1.5,0.9-1.4,2c0.1,1,0.9,1.2,1.6,1.3c2.3,0.5,4.6,1.3,7.1,1.3c8.3,0,16.6,0,24.8,0
			C353.8,482,355.4,481.4,356.7,479.3z M301.6,480.7c-1.3-2.5-3.2-3.4-5.7-3.2c-8.1,0.7-16.3,1.2-24.5,1.7c-1.7,0.1-3.2,0.7-3.7,2.5
			c1,2,2.8,2.3,4.7,2.5c8,0.9,15.8,0.5,23.7-0.2C298.6,483.9,300.3,482.9,301.6,480.7z M330.4,554.2h0.1c-0.4-4.7-0.8-9.3-1.2-14
			c-0.1-1.6-0.5-3.4-2.3-3.6c-2-0.1-2.4,1.9-2.6,3.5c-0.4,3.2-1,6.2-1,9.4c0,3.4,0.2,6.8,1.1,10.1c0.4,1.7,1.7,3.6,3.5,3.4
			c2-0.3,3.2-2.2,2.8-4.5C330.6,557.1,330.5,555.7,330.4,554.2z M290.2,537.4c-2.6,0.7-2.7,2.8-3,4.9c-0.4,5.2-0.7,10.4-1.1,15.6
			c-0.2,2.3,0.4,4.3,2.5,4.7c2.3,0.5,3.2-1.7,4-3.5c0.2-0.4,0.2-0.9,0.2-1.3c0.9-5.5,0.8-10.8-0.1-16.3
			C292.6,539.9,291.9,538.4,290.2,537.4z M307.3,536.4c-2.7,7-4,14-2.2,21.3c0.4,1.5,1.6,2.6,3.4,2.5c1.6-0.1,3-1.2,3.3-2.7
			C313.4,550,311.6,543.1,307.3,536.4z M259.1,554.7c-0.1,0-0.1,0-0.2,0c0,2.8,0.1,5.7,0,8.5c-0.1,2.2,1,3.9,3,4.2
			c2.2,0.2,3.1-1.7,3.4-3.7c1.1-6.2,0.7-12.3-0.7-18.5c-0.3-1.5-1.1-3.2-3-3c-2,0.2-2.5,1.9-2.5,3.6
			C259.1,548.8,259.1,551.7,259.1,554.7z M344.3,555.8c-0.4-4.2-0.9-8.7-1.3-13.4c-0.1-1.7-1-3.1-2.8-3c-1.6,0.1-2.3,1.5-2.4,3.1
			c-0.2,1.6-0.3,3.3-0.4,4.9c-0.3,4.5,0.8,8.9,1.7,13.2c0.3,1.6,1.5,3,3.2,2.6c1.7-0.3,2.2-1.9,2.1-3.6
			C344.1,558.5,344.3,557.4,344.3,555.8z M362.2,544.1c-2.6,2.4-3.2,5.1-3.7,7.9c-0.9,3.8-1.2,7.8,0.1,11.6c0.5,1.5,1.5,3,3.3,2.7
			s2.5-1.6,2.6-3.3c0.2-2.1,0.5-4.2,0.5-6.2C365.2,552.5,364.5,548.2,362.2,544.1z M273,563.1c1.6-1.5,3.5-2.6,3.6-4.9
			c0.2-3.8,0.1-7.7-0.5-11.4c-0.2-1.5-1.2-2.8-2.7-2.8c-1.4,0-2.3,1.3-2.5,2.6c-0.5,2.8-1,5.8-1.3,8.6
			C269,558.4,270.7,560.7,273,563.1z M249,551.3c-2.2,4.6-4,8.5-3.7,13c0.2,2.7,2.2,4.6,4,4c1.7-0.4,5.4-6.9,4.6-8.4
			C252.4,557.2,250.8,554.6,249,551.3z M371.9,551.6c-3.5,3.9-3.3,6,0.9,9.5C377.3,557.4,377.1,556.2,371.9,551.6z"/>
		<path d="M577.8,517.4c-3.9,0-7.8,0-11.5,0c-14.8,0-29.5-0.1-44.3,0.1c-2.8,0-3.7-0.9-3.9-3.6c-1.1-13.6-2.3-27-3.7-40.4
			c-0.3-3.3,0.5-4.4,3.8-4.8c5.8-0.8,11.6-2,17.5-3.1c1.6-0.3,3.1-0.1,4.2,1.2c11.1,12.7,23.5,24.5,32.8,38.8
			c2.1,3.2,4.4,6.2,5.1,10.2C577.8,516.2,577.8,516.9,577.8,517.4z"/>
		<path d="M48.4,516.4c2.1-5.5,5-10.2,8.2-14.8c7.8-11.7,17.2-22.4,24.5-34.4c0.5-1,1.2-1.7,2.6-1.5c9.4,1.4,18.8,2.8,28.2,4.4
			c0.2,0,0.3,0.2,0.4,0.3c0.4,1.1-0.1,2-0.4,3c-4,13.7-8.1,27.2-12,40.9c-0.8,2.6-1.9,3.2-4.4,2.6c-6.6-1.6-13.2-2.7-20-3.3
			C66.2,512.7,57.3,513.5,48.4,516.4z"/>
		<path d="M321.8,328.6c-1.1-1.6-2.6-1.1-3.9-1.1c-29.3,0-58.6-0.1-88,0c-2.8,0-3.9-0.8-4.6-3.6c-4.6-19.8-2.8-39.3,2-58.8
			c3.5-13.9,9.5-26.8,17.6-38.7c4.8-7.1,11.6-11.7,20-14.4c0.3,1.9-0.8,2.7-1.4,3.8c-6.7,9.9-11.8,20.7-15.8,32
			c-2,5.5,0.2,9.9,3.5,13.9c2.3,2.8,6.9,1.7,9.1-2c1.3-2.2,2-4.6,2.6-7.1c5.6-20.3,18.3-35.8,34.2-49c1.5-1.3,1.6-1.2,3.9-1.1
			c0.7,2.7,0.2,5.6,0.1,8.4c-0.1,16.6-0.2,33.2-0.3,49.8c0,2.1,0.2,4.2,0.8,6.1c1.5,5.4,5.5,8.5,10.9,8.9c5.8,0.3,10.5-2.4,12.7-7.5
			c1.2-2.7,1.4-5.7,1.4-8.6c0.1-19.6,0.3-39.1,0.5-58.7c0-0.9,0.1-1.7,0.2-2.6c2.4,0.2,3.9,1.6,5.2,3.2c9,10.4,14.8,22.4,17,36
			c0.9,5.6,2.1,11.1,4.5,16.4c2.7,6.1,7.3,9.7,14.1,10.1c7.5,0.4,11.8-3.6,11.6-11.3c-0.2-6.3-2.1-12.2-5-17.8
			c-4.7-9.3-11.8-16.7-18.3-24.8c-1.3-1.6-2.5-3.2-4.4-5.5c3.3,0.4,5.4,1.6,7.4,2.7c17,9,27.3,23.5,33.2,41.3
			c2.3,6.8,3.6,13.8,4.6,20.8c0.2,1.4,0.4,3,0,4.3c-2.6,8.7-1.4,17.8-1.9,26.8c-0.4,8.2-1.6,16.3-3.7,24.3c-0.5,2.1-1.4,2.8-3.6,2.7
			c-10.2-0.1-20.3,0-30.5,0c-0.8,0-1.5,0-2.3,0c-0.9,0-1.9-0.1-2,1.1c-0.1,1,0.8,1.2,1.5,1.4c4.2,1.4,8.3,2.6,12.7,3
			c12.2,1,24.5,1.5,36.6,2.8c7,0.8,13.3,3.2,19.8,5.7c1.4,0.5,2.7,1.4,4.6,1.2c0.8-1.5,0.4-3.2,0.3-4.7c-1-22.4-6.9-43.8-13.9-64.9
			c-2.1-6.2-4.3-12.5-6.3-18.6c-0.3-1-1.3-2.2,0.1-3c1.5-0.9,2.1,0.7,2.7,1.5c7.3,10.5,12,22.3,15.8,34.4c5.8,17.9,8.5,36.6,12.6,55
			c0.5,2.4,1.2,4.9,1.6,7.3c0.5,3.5,2.3,6.3,4.8,8.7c6.9,6.2,9.1,14.4,9.8,23.3c0.2,2.4-1.3,2.4-2.8,2.5c-9.8,1-19.7,0.9-29.5,1
			c-47,0.7-94,1.3-141,2c-28.1,0.4-56.2,0.9-84.3,1.3c-8,0.1-16,0.3-23.9,0.4c-6.7,0.1-8.7-1.4-10.3-8c-3.2-13.2,4.6-30.1,17.3-35.4
			c19.2-8,39-14.4,60.2-14.4c11,0,22.1,0.9,33.1,0.7c14.6-0.2,29.3-1.1,43.8-2.6C320,329.9,321.2,330,321.8,328.6z M302,356.9
			c-0.2-4-1-7.5-3.3-10.5c-3.7-4.8-9.7-5.6-14.4-1.7c-3.1,2.4-5.2,5.6-6.3,9.3c-2.2,7.2,1.9,14.2,9.3,16.2
			c7.1,1.9,12.9-2.2,14.4-9.9C301.8,358.8,301.8,357.6,302,356.9z M324.9,360.2c0,1.1-0.1,2.2,0,3.3c0.5,5.1,4.2,8,10.9,8.7
			c4.2,0.4,6.6-1.3,8.4-6.1c2.1-5.4,1.4-10.5-1-15.5c-1.2-2.5-3.3-4.4-5.8-5.5c-4.6-2.1-8.7-0.3-10.5,4.5
			C325.8,353.1,325.1,356.5,324.9,360.2z M334.5,330.4c2.1,1.5,7.3,3,10.2,2.8C342.1,329.7,338.1,328.6,334.5,330.4z"/>
		<path d="M223.5,248.2c-0.2,3.5-1.3,5.6-2.4,7.8c-7.3,14.9-16.3,29-22.4,44.5c-4,10.2-8,20.3-11.4,30.7c-0.8,2.4-1.7,4.8-3.8,7
			c-1-1.7-0.9-3.4-0.9-4.9c0-5.4,1.1-10.6,2.5-15.8c5.9-20.5,15-39.7,27.3-57C215.6,256.1,218.9,252.1,223.5,248.2z"/>
	</g>
</g>
<g>
	<g>
		<path fill="#C4BA98" stroke="#000000" stroke-width="0.5" stroke-miterlimit="10" d="M471.1,223.6v-12.6h9.8v2.2h-7.6v3.3h4.1v2.3
			h-4.1v3.9L471.1,223.6z"/>
		<path fill="#C4BA98" stroke="#000000" stroke-width="0.5" stroke-miterlimit="10" d="M483.6,214c0-1.2,0.2-1.9,0.5-2.4
			c0.3-0.4,1-0.6,1.9-0.6h7.1c0.9,0,1.6,0.2,1.9,0.6c0.3,0.4,0.5,1.2,0.5,2.4v6.6c0,1.2-0.2,1.9-0.5,2.4c-0.3,0.4-1,0.6-1.9,0.6H486
			c-0.9,0-1.6-0.2-1.9-0.6c-0.3-0.4-0.5-1.2-0.5-2.4V214z M485.8,221.3h7.5v-8h-7.5V221.3z"/>
		<path fill="#C4BA98" stroke="#000000" stroke-width="0.5" stroke-miterlimit="10" d="M500.3,221.6v-10.6h8.3
			c0.8,0,1.3,0.2,1.7,0.6c0.3,0.4,0.5,1,0.5,1.9v2.9c0,0.9-0.2,1.5-0.5,1.9c-0.3,0.4-0.9,0.6-1.7,0.6h-1.3l4.5,4.7h-3.2l-3.9-4.7
			h-2.1v2.3L500.3,221.6z M507.6,213.2h-5.1v3.5h5.1c0.4,0,0.7-0.1,0.8-0.2c0.1-0.1,0.2-0.4,0.2-0.8v-1.5c0-0.4-0.1-0.6-0.2-0.8
			C508.3,213.3,508,213.2,507.6,213.2z"/>
	</g>
	<g>
		<path fill="#C4BA98" stroke="#000000" stroke-width="0.5" stroke-miterlimit="10" d="M454.1,249c0.9-0.1,1.3,0.3,1.3,1.2v1.5h2.4
			c1,0,1.2,0.3,0.6,1h-3.1c0,1.6,0.1,2.4,0.3,2.4c0.4,0.1,0.8,0,1.2-0.2c1.1-0.2,1.6,0.2,1.5,1.2c-0.1,0.8-0.2,1.8-0.2,3.3
			c0.1,1.1-0.4,1.5-1.6,1.2c-1.3-0.4-2.7-0.4-4.1,0c-0.9,0.6-1.4,0.3-1.5-0.8c-0.1-1.1-0.3-2.3-0.6-3.6c0.1-0.9,0.7-1.2,1.8-0.8
			c0.9,0.1,1.3-0.1,1.3-0.6c0-1.2,0-2.4-0.2-3.4C453.1,249.6,453.4,248.8,454.1,249z M452.5,256.8c-0.1,1.3,0.1,2,0.6,2.1
			c2.5,0.3,3.6,0,3.4-1.2c0.2-1.5-0.8-2.1-3.1-1.8C452.8,256,452.5,256.3,452.5,256.8z M459,253c0.4,0,0.7,0,0.8-0.2
			c-0.1-1.2-0.2-2.4-0.2-3.4c-0.1-0.8,0.3-1.1,1.2-1c0.6,0,0.8,0.3,0.8,0.8c-0.1,1-0.1,2.1,0,3.4c3.6-0.6,5.3-0.6,5.2,0
			c0.2,0.3,0.2,0.5-0.2,0.5c-1.6,0.2-3.3,0.5-4.9,0.8c0.3,1,0.6,1.8,1,2.4c0.4-0.6,0.9-1.2,1.3-2c0.3-0.3,0.6-0.4,1-0.3
			c0.4,0.3,0.6,0.7,0.5,1.2c-0.6,0.9-1.2,1.6-1.8,2.1c1.2,1.2,3.2,1.8,5.9,1.6c0.2,0.1-0.1,0.6-1,1.6c-1.2,1.2-2.4,1.4-3.8,0.6
			c-0.6-0.4-1.4-1.2-2.6-2.4c-1.1,0.8-2.2,1.2-3.4,1.3c-0.6-0.1-0.6-0.3-0.3-0.6c1.1-0.3,2.1-1,2.9-2c-0.4-0.6-0.9-1.8-1.3-3.3
			c-0.6,0.1-1,0.3-1.5,0.5c-0.6,0.1-0.9-0.2-0.8-1C457.9,253.4,458.3,253.2,459,253z M464.3,249.3c0.3-0.8,0.8-1,1.3-0.6
			c0.6,0.3,0.7,0.8,0.5,1.3c-0.4,0.6-1.2,1-2.1,1.2c-0.4,0-0.6-0.2-0.5-0.5C463.8,250.2,464.1,249.7,464.3,249.3z"/>
		<path fill="#C4BA98" stroke="#000000" stroke-width="0.5" stroke-miterlimit="10" d="M477.2,253c0.6,0,0.9,0.2,1.2,0.5
			c-0.1,0.4-0.5,0.6-1.2,0.5c-0.6,0-1.3,0-2,0.2c0.2,0.3,0.1,0.6-0.3,1l-0.8,0.8c-0.3,0.4,0,0.7,0.8,0.8c0.6,0.1,1.2-0.1,1.6-0.6
			l-0.5-1c0.1-0.3,0.3-0.4,0.6-0.3c0.3,0.2,0.6,0.4,1,0.6c0.2,0.4,0.5,0.9,0.8,1.5c-0.1,0.2-0.2,0.3-0.3,0.3
			c-0.4,0.1-0.9-0.1-1.3-0.6c-0.6,1.2-1.4,1.6-2.1,1.3c-0.6-0.4-1.2-0.5-1.8-0.2c-0.2,0-0.4-0.2-0.6-0.5c-0.1-0.4,0.1-0.9,0.6-1.3
			c1-0.9,1.3-1.5,1-1.8c-0.4-0.1-1.1,0-2,0.3c-0.3,0.2-0.6,0.2-0.6-0.2c0.1-0.8,0.5-1.2,1.2-1.3L477.2,253L477.2,253z M477.2,250.8
			c0.3,0,0.6,0.2,0.6,0.5c0,0.3-0.1,0.5-0.3,0.5h-2.6c-0.8,0-1.5,0-2.1,0.2c-0.2-0.1-0.3-0.3-0.3-0.6c0.1-0.3,0.3-0.6,0.6-0.8
			C473.9,250.6,475.2,250.8,477.2,250.8z M481.4,255.3c-0.3-0.1-0.6-0.1-1,0c-0.3,0.2-0.6,0.4-1,0.5c-0.2,0-0.4,0-0.5-0.2
			c-0.2-1.6-0.4-3.1-0.6-4.4c-0.1-0.6,0.2-1,1-1c0.3,0.2,0.9,0.3,1.6,0.2c0.3-0.3,0.7-0.9,1.2-1.6c0.1-0.2,0.3-0.3,0.6-0.3
			c1,0.3,1.2,0.7,0.8,1.2c-0.3,0.3-0.6,0.6-0.8,0.8c0.8,0,1.8,0.1,2.9,0.3c0.3-0.1,0.6-0.2,0.8-0.3c0.3-0.1,0.6,0,0.8,0.2
			c0.4,0.3,0.6,0.8,0.3,1.5c-0.3,1-0.6,2-0.6,3.1l-0.5,0.3c0.4,0.3,0.5,0.6,0.2,0.8c-0.2,0.2-0.4,0.4-0.6,0.6
			c-0.2,0.1-0.2,0.3,0.2,0.5c0.4,0.1,0.8,0,1.2-0.2c-0.4-0.3-0.5-0.6-0.2-0.6c0.4,0,0.8,0,1,0.2c0.2,0.3,0.4,0.6,0.6,1
			c-0.1,0.1-0.3,0.2-0.5,0.3l-0.6-0.5c-0.2,0.6-0.6,0.9-1.2,0.8c-0.4-0.3-0.9-0.4-1.3-0.3c-0.3-0.2-0.4-0.5-0.3-0.8
			c0.2-0.2,0.4-0.5,0.6-0.8c0.1-0.2,0.3-0.6,0.5-1c-0.9-0.1-1.9-0.2-3.1-0.2c-0.8,2.5-2.2,4.3-4.4,5.4c-1.8,0.6-3,0.4-3.9-0.8
			c0-0.1,0.2-0.2,0.6-0.2C478.6,259.4,480.7,258,481.4,255.3z M481.9,251.2c-0.8,0-1.4,0.1-1.8,0.3c-0.2,0.6-0.1,1,0.3,1l1.8-0.2
			C482.4,251.8,482.2,251.5,481.9,251.2z M482.1,253.2c-0.6,0-1.2,0-2,0.2c0,0.8,0.2,1.2,0.5,1.2l1.2-0.2L482.1,253.2z M483.2,256.2
			c0.1-0.4,0.3-0.6,0.6-0.6c0.2,0,0.4,0.1,0.5,0.3c-0.2,0.4-0.4,0.9-0.5,1.3c0,0.4,0,0.8,0.2,1c0.4,0.6,1.3,0.9,2.6,1.2
			c1.1,0.1,2.1,0,3.1-0.3c0.6-0.3,1.1-0.4,1.3-0.2c-0.1,0.6-0.5,1.4-1.2,2.3c-0.8,0.6-1.4,0.9-2,0.6c-1.8-0.3-3.4-1.1-4.6-2.3
			c-0.6-0.6-0.8-1.2-0.6-1.8C483,257.1,483.1,256.6,483.2,256.2z M485.7,254.7c0.2-0.4,0.3-0.8,0.2-1.2c-0.4-0.2-1.2-0.3-2.4-0.3
			c-0.1,0.4-0.2,0.9-0.2,1.3C484.1,254.6,484.9,254.7,485.7,254.7z M483.6,252.4l1.8,0.2c0.4,0.1,0.6-0.1,0.6-0.6
			c0-0.4-0.6-0.6-2-0.6C483.7,251.4,483.6,251.7,483.6,252.4z"/>
		<path fill="#C4BA98" stroke="#000000" stroke-width="0.5" stroke-miterlimit="10" d="M497.9,252.2c0.2-0.4,0.4-0.6,0.5-0.6
			c0.6-0.1,0.7,0.3,0.5,1.2c-0.3,1-0.8,2-1.5,3.1c-0.6,0.9-1.1,1.5-1.6,2c-1.1,1-2.2,0.9-3.4-0.2c-0.3-0.3-0.2-0.6,0.3-1
			C494.6,255.8,496.3,254.3,497.9,252.2z M501.7,249c1.1-0.1,1.6,0.5,1.5,1.8c-0.1,2.7,0,5.8,0.2,9.1c0,1.3-1,1.9-3.1,1.8
			c-1.1-0.1-2.4-0.7-3.8-1.8c-0.2-0.6-0.1-0.8,0.3-0.8c2.1,0.6,3.3,0.8,3.8,0.3c0.3-0.2,0.4-3.3,0.3-9.1
			C500.9,249.4,501.2,249,501.7,249z M504.3,252.7c-0.3-0.4-0.3-0.8,0.2-1c0.2-0.1,0.4,0,0.6,0.2c1.5,2,3.8,3.6,6.9,5.1
			c-0.3,0.6-0.6,0.9-1,1.2c-1,0.9-1.9,0.9-2.8,0C506.8,256.4,505.5,254.6,504.3,252.7z"/>
		<path fill="#C4BA98" stroke="#000000" stroke-width="0.5" stroke-miterlimit="10" d="M520.5,255c-0.3,1.1-0.6,1.9-1,2.4l2.1-0.3
			c-0.1-0.4-0.2-0.9-0.2-1.3c0.1-0.4,0.5-0.7,1.2-0.8c0.4,0,0.8,0.1,1.2,0.3c0.4,0.1,0.8,0.1,1,0v-5.4c0-0.6,0.2-1,0.6-1.2
			c1.1,0,1.6,0.4,1.6,1.2c-0.1,0.6-0.2,1-0.2,1.3c2.3,0.1,4.2,0.2,5.7,0.2c0,0.6-0.2,1-0.5,1.5c-0.4,0.4-0.9,0.6-1.3,0.3
			c-1.8-0.6-3-0.7-3.9-0.5c-0.2,0.9-0.2,1.8,0,2.6c0.8,0.1,1.4,0,1.8-0.2c1.4-0.4,2.1,0,2.1,1.2c-0.2,0.9-0.3,2-0.3,3.3
			c0.2,1.4-0.3,1.9-1.5,1.5c-1.5-0.2-3.2-0.3-4.9-0.2c-1.3,0.6-2,0.3-2.1-1.2c0-0.3,0-0.9-0.2-1.8c-2.2,1-4.7,1.8-7.7,2.3
			c-1,0.2-1.4-0.2-1.3-1.2c0-0.6,0.6-0.9,1.6-1c1.2-0.1,2.6-0.3,4.1-0.5c0.3-1.2,0.5-2.4,0.5-3.4c0-0.8,0.2-1.2,0.6-1.2
			C520.5,253.2,520.8,253.8,520.5,255z M519.2,249.9c-0.1,1.3,0,1.9,0.3,1.8l2.3,0.2c0.6,0.4,0.6,0.8,0.2,1
			c-0.2,0.1-0.6,0.2-1.2,0.2c-2.2-0.4-4.4-0.3-6.7,0.5c-0.4,0.1-0.6,0-0.6-0.5c0.2-1,0.6-1.4,1.3-1.3c0.9,0.2,1.5,0.3,2,0.2
			c0.3-0.1,0.4-0.8,0.3-2c0.1-0.4,0.3-0.6,0.6-0.6C518.4,249.2,518.9,249.4,519.2,249.9z M517.6,257.1c-0.2,0.3-0.5,0.4-0.8,0.2
			c-0.6-1-1-1.8-1.2-2.6s0.2-1.2,0.8-1.3c0.6-0.1,0.8,0.1,0.8,0.6C517.3,255.1,517.4,256.2,517.6,257.1z M526.7,256.5
			c-1.5-0.1-2.5,0-2.9,0.3c-0.3,0.8-0.3,1.5,0,2.3c0.1,0.6,1.3,0.7,3.6,0.5c1,0,1.5-0.6,1.5-1.6
			C528.8,256.9,528.1,256.4,526.7,256.5z"/>
	</g>
	
		<linearGradient id="SVGID_1_" gradientUnits="userSpaceOnUse" x1="402.5114" y1="648.9468" x2="402.5114" y2="648.9468" gradientTransform="matrix(1.0929 0 0 -1.0929 0 955.5428)">
		<stop  offset="0" style="stop-color:#C4BA98"/>
		<stop  offset="1.474962e-002" style="stop-color:#CEC5A9"/>
		<stop  offset="4.332456e-002" style="stop-color:#DDD7C4"/>
		<stop  offset="7.615717e-002" style="stop-color:#EAE6DA"/>
		<stop  offset="0.1145" style="stop-color:#F3F1EB"/>
		<stop  offset="0.162" style="stop-color:#FAF9F6"/>
		<stop  offset="0.2285" style="stop-color:#FEFEFD"/>
		<stop  offset="0.4133" style="stop-color:#FFFFFF"/>
		<stop  offset="0.4696" style="stop-color:#DDDBD8"/>
		<stop  offset="0.5499" style="stop-color:#B2AFA6"/>
		<stop  offset="0.6258" style="stop-color:#908B7F"/>
		<stop  offset="0.6952" style="stop-color:#787263"/>
		<stop  offset="0.7558" style="stop-color:#696252"/>
		<stop  offset="0.801" style="stop-color:#645D4C"/>
		<stop  offset="0.8499" style="stop-color:#776F5B"/>
		<stop  offset="0.9484" style="stop-color:#A89F82"/>
		<stop  offset="1" style="stop-color:#C4BA98"/>
	</linearGradient>
	
		<linearGradient id="SVGID_2_" gradientUnits="userSpaceOnUse" x1="402.5114" y1="648.9468" x2="402.5114" y2="648.9468" gradientTransform="matrix(1.0929 0 0 -1.0929 0 955.5428)">
		<stop  offset="0" style="stop-color:#C4BA98"/>
		<stop  offset="1.389108e-002" style="stop-color:#C7BD9D"/>
		<stop  offset="0.1655" style="stop-color:#E5E1D2"/>
		<stop  offset="0.2794" style="stop-color:#F8F7F3"/>
		<stop  offset="0.3418" style="stop-color:#FFFFFF"/>
		<stop  offset="0.4046" style="stop-color:#E1E0DC"/>
		<stop  offset="0.5083" style="stop-color:#B5B1A9"/>
		<stop  offset="0.6058" style="stop-color:#928D81"/>
		<stop  offset="0.6943" style="stop-color:#797364"/>
		<stop  offset="0.7708" style="stop-color:#696352"/>
		<stop  offset="0.8265" style="stop-color:#645D4C"/>
		<stop  offset="0.8691" style="stop-color:#776F5B"/>
		<stop  offset="0.955" style="stop-color:#A89F82"/>
		<stop  offset="1" style="stop-color:#C4BA98"/>
	</linearGradient>
	<path fill="url(#SVGID_1_)" stroke="url(#SVGID_2_)" stroke-width="0.5" stroke-miterlimit="10" d="M439.9,246.3"/>
	
		<linearGradient id="SVGID_3_" gradientUnits="userSpaceOnUse" x1="411.2841" y1="655.5896" x2="411.2841" y2="655.5896" gradientTransform="matrix(1.0929 0 0 -1.0929 0 955.5428)">
		<stop  offset="0" style="stop-color:#C4BA98"/>
		<stop  offset="1.474962e-002" style="stop-color:#CEC5A9"/>
		<stop  offset="4.332456e-002" style="stop-color:#DDD7C4"/>
		<stop  offset="7.615717e-002" style="stop-color:#EAE6DA"/>
		<stop  offset="0.1145" style="stop-color:#F3F1EB"/>
		<stop  offset="0.162" style="stop-color:#FAF9F6"/>
		<stop  offset="0.2285" style="stop-color:#FEFEFD"/>
		<stop  offset="0.4133" style="stop-color:#FFFFFF"/>
		<stop  offset="0.4696" style="stop-color:#DDDBD8"/>
		<stop  offset="0.5499" style="stop-color:#B2AFA6"/>
		<stop  offset="0.6258" style="stop-color:#908B7F"/>
		<stop  offset="0.6952" style="stop-color:#787263"/>
		<stop  offset="0.7558" style="stop-color:#696252"/>
		<stop  offset="0.801" style="stop-color:#645D4C"/>
		<stop  offset="0.8499" style="stop-color:#776F5B"/>
		<stop  offset="0.9484" style="stop-color:#A89F82"/>
		<stop  offset="1" style="stop-color:#C4BA98"/>
	</linearGradient>
	
		<linearGradient id="SVGID_4_" gradientUnits="userSpaceOnUse" x1="411.2841" y1="655.5896" x2="411.2841" y2="655.5896" gradientTransform="matrix(1.0929 0 0 -1.0929 0 955.5428)">
		<stop  offset="0" style="stop-color:#C4BA98"/>
		<stop  offset="1.389108e-002" style="stop-color:#C7BD9D"/>
		<stop  offset="0.1655" style="stop-color:#E5E1D2"/>
		<stop  offset="0.2794" style="stop-color:#F8F7F3"/>
		<stop  offset="0.3418" style="stop-color:#FFFFFF"/>
		<stop  offset="0.4046" style="stop-color:#E1E0DC"/>
		<stop  offset="0.5083" style="stop-color:#B5B1A9"/>
		<stop  offset="0.6058" style="stop-color:#928D81"/>
		<stop  offset="0.6943" style="stop-color:#797364"/>
		<stop  offset="0.7708" style="stop-color:#696352"/>
		<stop  offset="0.8265" style="stop-color:#645D4C"/>
		<stop  offset="0.8691" style="stop-color:#776F5B"/>
		<stop  offset="0.955" style="stop-color:#A89F82"/>
		<stop  offset="1" style="stop-color:#C4BA98"/>
	</linearGradient>
	<path fill="url(#SVGID_3_)" stroke="url(#SVGID_4_)" stroke-width="0.5" stroke-miterlimit="10" d="M449.5,239.1"/>
	<g>
		<g>
			<path fill="#C4BA98" stroke="#000000" stroke-width="0.5" stroke-miterlimit="10" d="M445.2,230.3h-6.3v4.9h3.4v3.4h-3.4v6
				l-1.9,0.9V227h8.2V230.3"/>
			<path fill="#C4BA98" stroke="#000000" stroke-width="0.5" stroke-miterlimit="10" d="M447.6,242.4v-0.9V227h6.9
				c0.6,0,1.1,0.3,1.4,0.9c0.3,0.6,0.4,1.5,0.4,2.8v4.4c0,1.3-0.1,2.2-0.4,2.8c-0.3,0.6-0.8,0.9-1.4,0.9h-1.1l3.7,7.1h-2.7l-3.2-7.1
				h-1.8v2.3v1.1L447.6,242.4z M453.6,230.3h-4.2v5.2h4.2c0.3,0,0.6-0.1,0.7-0.3c0.1-0.2,0.2-0.6,0.2-1.2v-2.2
				c0-0.6-0.1-0.9-0.2-1.1C454.2,230.4,454,230.3,453.6,230.3z"/>
			<path fill="#C4BA98" stroke="#000000" stroke-width="0.5" stroke-miterlimit="10" d="M460.1,245.7V227h1.9v18.7H460.1z"/>
			<path fill="#C4BA98" stroke="#000000" stroke-width="0.5" stroke-miterlimit="10" d="M466.1,245.7V227h8.3v3.2H468v4.2h3.7v3.2
				H468v4.6h6.5v3.5L466.1,245.7L466.1,245.7z"/>
			<path fill="#C4BA98" stroke="#000000" stroke-width="0.5" stroke-miterlimit="10" d="M477.9,245.7V227h1.3l5.7,11
				c0.2,0.4,0.4,0.7,0.5,1s0.3,0.7,0.4,1c0-1.1,0-1.8-0.1-2.2c0-0.4,0-0.8,0-1V227h1.7v18.7h-1.3l-5.9-11.5
				c-0.1-0.3-0.3-0.6-0.4-0.8c-0.1-0.2-0.2-0.5-0.3-0.7c0,0.6,0,1.1,0,1.6c0,0.5,0,1,0,1.3v10.1L477.9,245.7L477.9,245.7z"/>
			<path fill="#C4BA98" stroke="#000000" stroke-width="0.5" stroke-miterlimit="10" d="M491.6,245.7V227h5.2c1.5,0,2.6,0.8,3.4,2.4
				c0.8,1.6,1.2,3.9,1.2,6.8c0,1.8-0.2,3.3-0.5,4.7c-0.3,1.4-0.8,2.5-1.3,3.3c-0.3,0.5-0.8,0.9-1.3,1.1c-0.5,0.2-1.2,0.3-2,0.3
				L491.6,245.7L491.6,245.7z M493.4,242.2h2.4c1.3,0,2.2-0.5,2.7-1.4c0.5-0.9,0.8-2.5,0.8-4.6c0-1.9-0.2-3.4-0.7-4.3
				c-0.4-1-1.1-1.5-2-1.5h-3.3L493.4,242.2L493.4,242.2z"/>
			<path fill="#C4BA98" stroke="#000000" stroke-width="0.5" stroke-miterlimit="10" d="M511.8,230.3h-5.3v4h5
				c0.8,0,1.3,0.3,1.6,0.9c0.3,0.6,0.4,1.8,0.4,3.5v2.6c0,1.7-0.1,2.9-0.4,3.5s-0.8,0.9-1.6,0.9h-5c-0.8,0-1.3-0.3-1.6-0.9
				s-0.4-1.8-0.4-3.5v-0.5l1.7-0.8v2.2h5.7v-4.3h-5c-0.8,0-1.3-0.3-1.6-0.9c-0.3-0.6-0.4-1.8-0.4-3.5v-2.1c0-1.7,0.1-2.9,0.4-3.5
				s0.8-0.9,1.6-0.9h4.6c0.8,0,1.3,0.3,1.6,0.9c0.3,0.6,0.4,1.7,0.4,3.2v0.4l-1.7,0.9V230.3L511.8,230.3z"/>
			<path fill="#C4BA98" stroke="#000000" stroke-width="0.5" stroke-miterlimit="10" d="M525.2,242.9v-5.3h-5.9v7.4l-1.9,0.7V227
				h1.9v7.3h5.9V227h1.9v15.2L525.2,242.9z"/>
			<path fill="#C4BA98" stroke="#000000" stroke-width="0.5" stroke-miterlimit="10" d="M531.2,245.7V227h1.9v18.7H531.2z"/>
			<path fill="#C4BA98" stroke="#000000" stroke-width="0.5" stroke-miterlimit="10" d="M537.3,245.7V227h6.9c0.6,0,1.1,0.3,1.4,0.9
				c0.3,0.6,0.4,1.5,0.4,2.8v4.2c0,1.3-0.1,2.2-0.4,2.7c-0.3,0.6-0.8,0.9-1.4,0.9h-5.1v6.5L537.3,245.7z M543.3,230.3h-4.2v5h4.2
				c0.3,0,0.6-0.1,0.7-0.3c0.1-0.2,0.2-0.6,0.2-1.2v-2c0-0.6-0.1-0.9-0.2-1.1C543.9,230.4,543.7,230.3,543.3,230.3z"/>
		</g>
	</g>
</g>
</svg>
