<?xml version="1.0" encoding="utf-8"?>
<!-- Generator: Adobe Illustrator 18.1.1, SVG Export Plug-In . SVG Version: 6.00 Build 0)  -->
<svg version="1.1" id="图层_1" xmlns="http://www.w3.org/2000/svg" xmlns:xlink="http://www.w3.org/1999/xlink" x="0px" y="0px"
	 viewBox="0 0 560 560" enable-background="new 0 0 560 560" xml:space="preserve">
	 <style type="text/css">
	.st0{fill:#FFFFFF;}
</style>
<g>
	<g>
		<path class="st0" d="M200.4,440.5c4.6,6.7,9,12.5,12.7,18.8c7.1,12.3,17.8,20.1,30.5,25.5c1.9,0.8,3.8,1.8,5.9,0.4
			c-0.5-1.5-53.2-55.7-54.8-56.5c-0.4,2.4,1.7,4,1.8,6.1c-3.7-1.1-4.3-1.9-3.8-5.6c0.6-4.1,0.5-8.2-0.8-12.2
			c-1.3-3.8-3.5-6.8-7.4-8.1c-1.6-0.6-2.2-1.5-2.3-3.1c-0.2-2.6-0.4-5.2-0.8-7.8c-0.6-3.7-2.6-6.3-6.3-7.2c-1.9-0.5-2.5-1.6-2.6-3.4
			c-0.3-3.3-0.7-6.6-1.3-9.8c-1.5-7.7-2.6-8.7-10.2-10c-0.6-3.1-1.2-6.4-1.8-9.6c-0.4-2.2-0.9-4.3-2.2-6.2c-2.3-3.1-4.4-3.3-7.2-0.7
			c-2,1.8-3.1,4.2-3.7,6.7c-1.3,4.8-0.9,9.5,0.7,14.2c1.2,3.4,3.4,4.9,7.5,4.6c2.3-0.1,3,0.6,3.1,2.8c0.1,3.5,0.5,7,1.3,10.4
			c0.7,3.1,2.3,5.4,5.6,5.9c1.7,0.3,2.2,1.3,2.5,2.8c0.8,3.7,1.8,7.4,2.5,11.1c0.6,3.3,2.4,5.4,5.6,6.4c2.3,0.7,3.1,2.1,3.1,4.5
			c0.1,2.5,0.4,5,0.8,7.4c0.5,2.9,2.1,5.2,4.6,6.7c3.5,2.2,3.7,3.2,1.2,7.2c-1.1-0.1-1.3-1.1-1.7-1.9c-2.2-4.1-5.6-6.8-10-7.4
			c-12.2-1.9-24.4-3.4-36.6-5c-0.4-0.1-0.8,0.1-1.1,0.1c-0.8,1.1-0.4,2.2-0.4,3.3c1.1,20.7,2.1,41.4,3.4,62c0.2,3-0.7,4.3-3.6,4.9
			c-6.1,1.3-12.2,0.6-18.2,0c-13.4-1.5-26.3-5.3-39.2-8.8c-3.1-0.8-3.9-2.6-3.5-6.7c0.7-7.5,1.6-14.9,2.3-22.4
			c1.3-13,3.1-26,3.3-39.2c0.1-8.2-1.6-10.5-9.6-12.3c-8.4-1.9-15.1-6.5-21.6-12.2c1.5-1.5,3.3-1.4,4.9-1.5
			c12.6-0.8,25,0.1,37.2,3.4c2.1,0.6,3,0.1,4.1-1.6c2.6-4,3.8-8.6,5.2-13.1c3.3-10.2,6.6-20.4,9.6-30.6c0.8-2.5,2-3.2,4.4-3.2
			c9.3,0.1,18.6,0.1,27.9,0c6,0,7.8-1.8,7.7-7.6c-0.2-14.2-0.6-28.4-0.9-42.6c0-2.1-0.6-4.1-1.4-6.1c-0.3-0.8-0.5-1.6-1.6-1.5
			c-1.1,0.1-1,1.1-1.1,1.8c-0.1,2.9-0.2,5.8-0.3,8.7c0,12.9,0,25.8,0,38.7c0,1.2,0.3,2.4-0.4,3.5c-0.9,0.6-2,0.3-2.9,0.3
			c-16.6-0.7-33-3.6-49.3-6.6c-2.1-0.4-4.2-0.7-6,0.8c-1.2,0.9-2.5,0.6-3.7,0.2c-16.1-4.8-32.3-9.4-48.2-14.8
			c-11.8-4-18.6-12.6-22.5-24c-1.1-3.3-0.6-6.7,0.4-10c7.1-22.1,14.5-44.1,22.4-65.9c2.1-5.9,5-11.3,8.3-16.6
			c5.2-8.4,12.7-11.5,22.3-11c7.8,0.4,15.2,2.3,22.3,5.5c17.8,8,35.2,16.8,52.7,25.5c3.1,1.5,5.9,3.5,7.4,6.7
			c0.9,1.9,2.3,2.6,4.5,2.5c0.8-1.3,0.8-2.6-0.2-3.8c-3.2-3.4-2.7-7.3-1.4-11.2c6-17.6,12.6-35,20.7-51.8
			c9.8-20.3,21.5-39.4,36.5-56.2c8.3-9.3,18.5-16.5,28.9-23.3c4.1-2.7,8.9-3.7,13.6-4.6c3.5-0.7,5.6-2.6,6.8-5.9
			c3.7-10.3,6.6-20.8,11.4-30.6c3.8-7.7,8.2-14.9,14-21.2c5.7-6.1,10.1-5.2,12.9,2.7c5.7,16.3,10.9,32.9,15.4,49.6
			c1.8,6.7,2.3,7.3,9.3,7.9c14.7,1.3,26.9,7.7,37.3,18c29.9,29.5,50.6,64.8,66.1,103.4c1.3,3.2,2.6,6.5,4,9.7c1.2,2.6,0.9,5-0.8,7.3
			c-1.4,1.9-2.5,4.1-3.7,6.2c-0.4,0.7-0.8,1.5,0,2.2c0.8,0.6,1.5,0.2,2.2-0.2c0.7-0.4,1.3-0.9,1.9-1.5
			c10.7-11.8,24.4-18.9,39.2-24.2c13.5-4.8,27.4-7.4,41.5-9.1c4.7-0.5,9.4-1.1,13.9-2.5c1.6-0.5,2.7,0,3.6,1.3
			c0.8,1.2,1.4,2.4,1.9,3.7c8.7,24,17.6,47.9,25.7,72.1c3.4,10.2,3.9,20.8,4.2,31.4c0.1,3.9-2.6,6.6-5.4,8.9c-2.1,1.7-4.6,2.8-7,4
			c-29.5,13.4-60.1,22.4-92.7,24.3c-5.1,0.3-10.1,1.3-15.2,2.1c-5.7,0.9-7.4-0.2-8.5-5.9c-2.6-12.4-5-24.9-7.6-37.4
			c-0.4-1.9-1.1-3.8-1.7-6.1c-1.2,1.3-1.2,2.5-1.2,3.7c0.6,14.4,1.2,28.8,1.9,43.2c0.3,6,3.7,8.5,10.2,8c10.6-0.9,21.1-1.8,31.7-2.9
			c2.9-0.3,3.8,0.5,4,3.4c1.2,13.1,2,26.4,4.9,39.3c0.3,1.2,0.5,2.4,0.9,3.5c1,2.9,2.5,3.5,5.3,2.5c1.2-0.5,2.4-1,3.8-0.8
			c11.9,1.7,24,0.5,36,1.1c2.3,0.1,4.6,0.2,6.9,0.3c1,0.1,2.1-0.1,2.6,1.2c-0.3,1.4-1.6,1.6-2.7,2.1c-7.9,3.8-15.5,8.3-24,11
			c-4.1,1.3-5.1,3.2-4.8,7.6c1.7,22.4,0.8,44.8,1.2,67.2c0.1,5.2-1.8,7.4-7.1,8.9c-16.5,4.8-32.7,3.4-48.5-2.9
			c-2.4-1-4.7-2.2-7.2-3.1c-3.2-1.2-3.9-3.6-3.6-6.7c1.1-9.6,2-19.3,3-29c0.7-6.1,0.4-12.2-0.3-18.3c-0.3-2.7-1.7-4.3-4.5-4.9
			c-7.8-1.7-15.5-0.7-23.2,1.1c-3.1,0.7-6.2,1.5-9.8,2.4c-0.3-3.8-0.6-7.4-0.8-10.9c-0.1-0.9,0.7-1.1,1.4-1.3
			c4.2-1.2,5.8-4.4,6.2-8.3c0.2-2.5,1-4.3,3.3-5.6c2.5-1.4,3.6-4,3.9-6.8c0.2-2.2,0.2-4.4,0.2-6.6c0-2,0.4-4,2.2-5
			c4.3-2.5,4.4-6.8,5-10.9c0.1-0.7,0-1.4,0-2c1.2-1,2.4-0.4,3.6-0.4c4.1-0.1,6.4-2,7-6c0.7-4.7,0.6-9.4-0.4-14
			c-0.8-3.9-3.8-6-7.7-5.7c-3.9,0.4-6.2,2.9-6.2,7.1c0,2.5,0.2,5,0.4,7.5c0.2,1.6-0.4,2.1-2,2.2c-6.1,0.5-7.5,1.7-8.9,7.9
			c-0.8,3.5-1.7,6.6-4.9,8.9c-2.1,1.5-2.5,4.3-2.6,6.8c-0.1,2,0,4-0.1,6c0,2-0.6,3.9-2.3,5c-4.7,2.9-5.1,7.3-4.3,12.1
			c0.3,1.7,0.7,3.3,1.1,4.8c-0.4,0.8-1,0.8-1.6,0.9c-5.2,1.4-7,3.6-7.3,9.2c-0.1,1.2,0.1,2.4-1.1,3.3c-3.9,2.9-4.3,7-3.7,11.4
			c0.4,2.7-0.1,4.4-2.9,5.6c-4,1.7-5.4,5.2-4.8,9.4c0.4,2.6,1,5.1,1.5,7.7c-0.8,0.4-1.5,0.7-2.3,1c-3.7,1.3-5.3,4-5.4,7.8
			c-0.1,3.7,0.2,7.4-0.5,11.1c-0.9,5-3.1,9.2-7.1,12.5c-5.1,4.2-10.4,8.2-14.7,13.2c-1.9,2.2-4.6,3.2-7.7,3.7
			c-17.6,2.9-35.3,2-53,1.7c-8.4-0.2-16.8-0.8-25.2-0.9c-6-0.1-11.1-2.1-16-5.3c-10.1-6.7-17.7-15.7-24.7-25.5
			c-3.8-5.4-6.3-11-5.8-17.8c0.3-3.7-1-7.1-4-9.7c-0.6-0.5-1.2-1.1-1.2-2C200.4,451.2,200.4,446.4,200.4,440.5z M164,229.8
			c-4,1-7,2.3-9.1,4.8c-7,8.2-11.6,17.5-12.5,28.3c-0.3,3.1,0.7,5.9,2.4,8.5c1.7,2.5,3.9,4.6,6,6.7c1.7,1.7,3.7,2.5,6.2,2.7
			c6,0.4,12,0.5,18,0.3c2.9-0.1,4.6,0.5,4.4,3.8c-0.1,1.5,0.3,3,0.6,4.4c1.3,7,3.5,13.7,9.7,18c10.3,7.2,21.6,11.8,34.4,11.8
			c13.9,0,26.6-3.5,36.2-14.3c5.9-6.6,9.2-14.5,11.7-22.8c0.5-1.8,1.2-2.7,3.2-2.7c8.5,0.1,17,0.1,25.5,0c1.8,0,2.7,0.5,3.2,2.3
			c0.9,3.2,1.9,6.3,3.2,9.4c5.4,12.7,13.8,22.7,28.3,24.6c8.5,1.1,17.4,0.9,26-0.1c14.7-1.7,25.3-12.6,28.5-27.8
			c0.7-3.2,1-6.5,1.6-9.9c0.7,0.1,1.3,0.1,1.9,0.1c5.1,0.4,9.9,2.2,15,2.9c6.5,0.8,11.5-1.8,14.8-7.5c3.5-6,2.7-11.7-0.7-17.3
			c-3.4-5.5-4.9-11.5-5.5-17.9c-1.2-14.4-3.8-28.5-9.2-42c-10.5-26.3-25.8-49.4-44.5-70.4c-5.4-6.1-10.7-12.2-17.9-16.2
			c-10.7-5.9-21.7-11-33.4-14.7c-19.2-6.1-38.2-6.1-56.9,1.9c-4.9,2.1-9.8,3.9-15,5.4c-7.6,2.1-14.2,6.1-19.5,11.8
			c-13.4,14.4-25.8,29.5-36.2,46.2c-11,17.6-17.8,37.1-23.9,56.8C158.9,221.8,158.4,226.3,164,229.8z M525.7,276.2
			c0-14.7-5.2-27.4-14.9-38.2c-6.3-7.1-14-12.2-23.9-11.9c-14.3,0.4-26.3,6.5-35.4,17.2c-16.5,19.5-13.3,50.2,6.1,66.7
			c26.6,22.7,63.9,4.3,67.2-22.5C525.3,283.8,525.8,280,525.7,276.2z M126.3,277.8c0-1.4,0.1-2.8,0-4.2c-0.6-9.7-2.4-18.9-9.9-26.3
			c-11.1-11-24.3-16-39.9-15.4c-7.4,0.3-13.8,2.8-19.2,8c-14.6,14.1-17.2,40.2-5.7,57.6c6.9,10.5,16.6,16.6,29.2,17.6
			c7.7,0.6,15.1-1.4,22.3-4C119.4,305.4,126.5,295.1,126.3,277.8z M204.2,410.4c0.1,0,0.3,0,0.4,0c0,3.7,0,7.4,0,11.1
			c0,0.9-0.2,1.9,0.8,2.4c1.1,0.5,1.9-0.2,2.7-0.8c3.4-2.7,6.9-5.3,10.7-7.1c27.3-12.9,55.4-21.1,86.1-16.4
			c19.3,3,37.1,9.1,51.1,23.5c0.7,0.7,1.4,1.2,2.4,0.8c1.1-0.5,0.8-1.5,0.8-2.4c0-4.4-0.2-8.8,0-13.2c0.5-11.5-4.5-19.9-13.9-26.2
			c-14.9-9.9-31.5-13.9-49.1-14.4c-17.5-0.5-34.7,2.2-51.6,6.4c-13.7,3.4-26,9.5-36.7,18.9c-2.6,2.2-3.9,4.6-3.7,8
			C204.4,404.2,204.2,407.3,204.2,410.4z M330.4,456.3c-5.1-3.5-9.9-5.7-14.9-7.3c-16.6-5.5-33.6-7.2-50.9-5.4
			c-9.1,0.9-18,2.8-26.1,7.5c-0.9,0.5-2,0.8-2.5,2.3c2.5,0.2,4.9-0.4,7.1-0.7c6.9-1.2,9.7,0.2,12.7,6.5c0.6,1.3,1.1,2.8,1.6,4.2
			c2.3,5.5,4.1,11.3,8,16c4,4.9,8.8,8.7,15.5,8.2c10.9-0.8,19.6-5.2,24.3-15.7c2.4-5.3,5.7-10.1,9.2-14.7c2.8-3.7,5.9-4.3,10-2.4
			C326.2,455.5,327.7,456.3,330.4,456.3z M307.7,323.5c0.3-0.1,0.6-0.2,0.8-0.3c4.5,6.9,10.5,12.5,16.2,18.5
			c6.8,7.2,13.5,14.5,21.5,20.4c8.8,6.5,17.1,5.2,23.9-3.3c0.7-0.9,1.4-1.9,2.1-2.9c6.4-9.6,9.8-20.3,11.8-31.5
			c0.8-4.8,1.7-9.7,2-15.4c-1.7,2.3-2,4.2-2.5,5.9c-1.8,7-3.3,14-5.9,20.8c-2.9,7.5-6.8,14.5-12.5,20.3c-3,3.2-5.8,3.9-9.1,2.5
			c-5.2-2.3-9.9-5.1-14-9.1c-11-10.5-21.9-21.1-32.4-32.2c-7.9-8.4-17.3-12.2-28.9-10.4c-0.8,0.1-1.8,0.7-2.4-0.7
			c1.1-1.6,3.5-1.4,4.5-3.1c-0.5-1.8-1.7-1.5-2.8-1c-3,1.4-6,2.7-8.9,4.3c-15.1,8.4-27.1,20.4-37.5,34.1c-3,4-6,8-9.9,11.2
			c-2.3,2-4.9,3.1-8,1.9c-7.2-2.7-13.6-6.6-18.9-12.4c-7.5-8.3-12.2-18-15.3-28.6c-0.4-1.3-0.4-3-2-3.7c-1.2,2.5-1.5,3.7-0.3,10
			c3.9,19.8,14.2,34.3,33.7,41.4c4.4,1.6,8.3,0.9,11.9-2.4c11.5-10.3,21.7-21.8,32-33.4c0.7-0.8,1.2-1.9,2.4-2.1
			c0.8,0.8,0.5,1.7,0.4,2.6c-0.6,3.9-0.3,7.8-0.7,11.7c-0.3,3.2,1.3,5.2,3.8,6.9c1.8-2,2.7-4.1,2.9-6.6c0.3-5.6,0.9-11.2,1.1-16.8
			c0.1-4.3,2.2-7.2,5.9-9c6.3-3,12.8-3.7,19.6-1.9c6.7,1.8,8.6,4.4,8.9,11.3c0.2,5.8,0.5,11.6,0.8,17.4c0.1,2.7,1.1,5,3.5,6.5
			c2.8-2.7,4.2-5.6,3.5-9.5C308.3,331.2,308.1,327.3,307.7,323.5z M312.4,489.2c1.7,0.3,3-0.1,4.3-0.5c9.9-2.5,17.2-8.7,22.9-16.9
			c11.4-16.3,22.7-32.7,34-49.1c0.5-0.7,1.3-1.3,1-2.5c-0.5,0.3-1,0.5-1.3,0.8c-1.8,1.5-3.7,3.1-5.4,4.7
			C355.7,437,346,450.3,336.7,464c-6,8.9-13,17-22.2,22.9C313.8,487.4,313,487.9,312.4,489.2z M285.6,61.2c0,1.1,0,2.2,0,3.3
			c0.1,7.1,2.4,9.6,9.4,10.1c4.4,0.3,6-1.5,4.9-5.7c-2.2-8.4-4.5-16.8-6.8-25.2c-0.3-1.1-0.3-2.4-2-2.6c-1.7-0.2-2.1,1-2.7,2.2
			C285.5,49,286.1,55.2,285.6,61.2z M326.4,356.2c-1.4-2.7-3.4-3.7-6.4-3.6c-7.6,0.4-15.1,0.5-22.7,0.8c-1.7,0.1-3.4,0.3-4.9,1
			c-0.8,0.3-1.4,0.8-1.3,1.8c0.1,0.9,0.8,1.1,1.5,1.2c2.1,0.5,4.2,1.2,6.5,1.2c7.6,0,15.2,0,22.7,0
			C323.7,358.7,325.2,358.1,326.4,356.2z M276,357.5c-1.2-2.3-2.9-3.1-5.2-2.9c-7.4,0.6-14.9,1.1-22.4,1.6c-1.6,0.1-2.9,0.6-3.4,2.3
			c0.9,1.8,2.6,2.1,4.3,2.3c7.3,0.8,14.5,0.5,21.7-0.2C273.2,360.4,274.8,359.5,276,357.5z M302.3,424.8c0,0,0.1,0,0.1,0
			c-0.4-4.3-0.7-8.5-1.1-12.8c-0.1-1.5-0.5-3.1-2.1-3.3c-1.8-0.1-2.2,1.7-2.4,3.2c-0.4,2.9-0.9,5.7-0.9,8.6c0,3.1,0.2,6.2,1,9.2
			c0.4,1.6,1.6,3.3,3.2,3.1c1.8-0.3,2.9-2,2.6-4.1C302.5,427.4,302.4,426.1,302.3,424.8z M265.5,409.4c-2.4,0.6-2.5,2.6-2.7,4.5
			c-0.4,4.8-0.6,9.5-1,14.3c-0.2,2.1,0.4,3.9,2.3,4.3c2.1,0.5,2.9-1.6,3.7-3.2c0.2-0.4,0.2-0.8,0.2-1.2c0.8-5,0.7-9.9-0.1-14.9
			C267.7,411.7,267.1,410.3,265.5,409.4z M281.2,408.5c-2.5,6.4-3.7,12.8-2,19.5c0.4,1.4,1.5,2.4,3.1,2.3c1.5-0.1,2.7-1.1,3-2.5
			C286.8,420.9,285.1,414.6,281.2,408.5z M237.1,425.2c-0.1,0-0.1,0-0.2,0c0,2.6,0.1,5.2,0,7.8c-0.1,2,0.9,3.6,2.7,3.8
			c2,0.2,2.8-1.6,3.1-3.4c1-5.7,0.6-11.3-0.6-16.9c-0.3-1.4-1-2.9-2.7-2.7c-1.8,0.2-2.3,1.7-2.3,3.3
			C237.1,419.8,237.1,422.5,237.1,425.2z M315,426.2c-0.4-3.8-0.8-8-1.2-12.3c-0.1-1.6-0.9-2.8-2.6-2.7c-1.5,0.1-2.1,1.4-2.2,2.8
			c-0.2,1.5-0.3,3-0.4,4.5c-0.3,4.1,0.7,8.1,1.6,12.1c0.3,1.5,1.4,2.7,2.9,2.4c1.6-0.3,2-1.7,1.9-3.3
			C314.9,428.7,315,427.7,315,426.2z M331.4,415.5c-2.4,2.2-2.9,4.7-3.4,7.2c-0.8,3.5-1.1,7.1,0.1,10.6c0.5,1.4,1.4,2.7,3,2.5
			c1.6-0.2,2.3-1.5,2.4-3c0.2-1.9,0.5-3.8,0.5-5.7C334.2,423.2,333.5,419.3,331.4,415.5z M249.8,432.9c1.5-1.4,3.2-2.4,3.3-4.5
			c0.2-3.5,0.1-7-0.5-10.4c-0.2-1.4-1.1-2.6-2.5-2.6c-1.3,0-2.1,1.2-2.3,2.4c-0.5,2.6-0.9,5.3-1.2,7.9
			C246.1,428.6,247.7,430.7,249.8,432.9z M227.8,422.1c-2,4.2-3.7,7.8-3.4,11.9c0.2,2.5,2,4.2,3.7,3.7c1.6-0.4,4.9-6.3,4.2-7.7
			C231,427.5,229.5,425.1,227.8,422.1z M340.3,422.4c-3.2,3.6-3,5.5,0.8,8.7C345.2,427.7,345.1,426.6,340.3,422.4z"/>
		<path class="st0" d="M528.7,391.1c-3.6,0-7.1,0-10.5,0c-13.5,0-27-0.1-40.5,0.1c-2.6,0-3.4-0.8-3.6-3.3c-1-12.4-2.1-24.7-3.4-37
			c-0.3-3,0.5-4,3.5-4.4c5.3-0.7,10.6-1.8,16-2.8c1.5-0.3,2.8-0.1,3.8,1.1c10.2,11.6,21.5,22.4,30,35.5c1.9,2.9,4,5.7,4.7,9.3
			C528.7,390,528.7,390.6,528.7,391.1z"/>
		<path class="st0" d="M44.3,390.2c1.9-5,4.6-9.3,7.5-13.5c7.1-10.7,15.7-20.5,22.4-31.5c0.5-0.9,1.1-1.6,2.4-1.4c8.6,1.3,17.2,2.6,25.8,4
			c0.2,0,0.3,0.2,0.4,0.3c0.4,1-0.1,1.8-0.4,2.7c-3.7,12.5-7.4,24.9-11,37.4c-0.7,2.4-1.7,2.9-4,2.4c-6-1.5-12.1-2.5-18.3-3
			C60.6,386.8,52.4,387.5,44.3,390.2z"/>
		<path class="st0" d="M294.5,218.3c-1-1.5-2.4-1-3.6-1c-26.8,0-53.6-0.1-80.5,0c-2.6,0-3.6-0.7-4.2-3.3c-4.2-18.1-2.6-36,1.8-53.8
			c3.2-12.7,8.7-24.5,16.1-35.4c4.4-6.5,10.6-10.7,18.3-13.2c0.3,1.7-0.7,2.5-1.3,3.5c-6.1,9.1-10.8,18.9-14.5,29.3
			c-1.8,5,0.2,9.1,3.2,12.7c2.1,2.6,6.3,1.6,8.3-1.8c1.2-2,1.8-4.2,2.4-6.5c5.1-18.6,16.7-32.8,31.3-44.8c1.4-1.2,1.5-1.1,3.6-1
			c0.6,2.5,0.2,5.1,0.1,7.7c-0.1,15.2-0.2,30.4-0.3,45.6c0,1.9,0.2,3.8,0.7,5.6c1.4,4.9,5,7.8,10,8.1c5.3,0.3,9.6-2.2,11.6-6.9
			c1.1-2.5,1.3-5.2,1.3-7.9c0.1-17.9,0.3-35.8,0.5-53.7c0-0.8,0.1-1.6,0.2-2.4c2.2,0.2,3.6,1.5,4.8,2.9c8.2,9.5,13.5,20.5,15.6,32.9
			c0.8,5.1,1.9,10.2,4.1,15c2.5,5.6,6.7,8.9,12.9,9.2c6.9,0.4,10.8-3.3,10.6-10.3c-0.2-5.8-1.9-11.2-4.6-16.3
			c-4.3-8.5-10.8-15.3-16.7-22.7c-1.2-1.5-2.3-2.9-4-5c3,0.4,4.9,1.5,6.8,2.5c15.6,8.2,25,21.5,30.4,37.8c2.1,6.2,3.3,12.6,4.2,19
			c0.2,1.3,0.4,2.7,0,3.9c-2.4,8-1.3,16.3-1.7,24.5c-0.4,7.5-1.5,14.9-3.4,22.2c-0.5,1.9-1.3,2.6-3.3,2.5c-9.3-0.1-18.6,0-27.9,0
			c-0.7,0-1.4,0-2.1,0c-0.8,0-1.7-0.1-1.8,1c-0.1,0.9,0.7,1.1,1.4,1.3c3.8,1.3,7.6,2.4,11.6,2.7c11.2,0.9,22.4,1.4,33.5,2.6
			c6.4,0.7,12.2,2.9,18.1,5.2c1.3,0.5,2.5,1.3,4.2,1.1c0.7-1.4,0.4-2.9,0.3-4.3c-0.9-20.5-6.3-40.1-12.7-59.4
			c-1.9-5.7-3.9-11.4-5.8-17c-0.3-0.9-1.2-2,0.1-2.7c1.4-0.8,1.9,0.6,2.5,1.4c6.7,9.6,11,20.4,14.5,31.5
			c5.3,16.4,7.8,33.5,11.5,50.3c0.5,2.2,1.1,4.5,1.5,6.7c0.5,3.2,2.1,5.8,4.4,8c6.3,5.7,8.3,13.2,9,21.3c0.2,2.2-1.2,2.2-2.6,2.3
			c-9,0.9-18,0.8-27,0.9c-43,0.6-86,1.2-129,1.8c-25.7,0.4-51.4,0.8-77.1,1.2c-7.3,0.1-14.6,0.3-21.9,0.4c-6.1,0.1-8-1.3-9.4-7.3
			c-2.9-12.1,4.2-27.5,15.8-32.4c17.6-7.3,35.7-13.2,55.1-13.2c10.1,0,20.2,0.8,30.3,0.6c13.4-0.2,26.8-1,40.1-2.4
			C292.8,219.5,293.9,219.6,294.5,218.3z M276.3,244.2c-0.2-3.7-0.9-6.9-3-9.6c-3.4-4.4-8.9-5.1-13.2-1.6c-2.8,2.2-4.8,5.1-5.8,8.5
			c-2,6.6,1.7,13,8.5,14.8c6.5,1.7,11.8-2,13.2-9.1C276.2,246,276.2,244.9,276.3,244.2z M297.3,247.2c0,1-0.1,2,0,3
			c0.5,4.7,3.8,7.3,10,8c3.8,0.4,6-1.2,7.7-5.6c1.9-4.9,1.3-9.6-0.9-14.2c-1.1-2.3-3-4-5.3-5c-4.2-1.9-8-0.3-9.6,4.1
			C298.1,240.7,297.5,243.9,297.3,247.2z M306.1,220c1.9,1.4,6.7,2.7,9.3,2.6C313,219.3,309.4,218.3,306.1,220z"/>
		<path class="st0" d="M204.5,144.8c-0.2,3.2-1.2,5.1-2.2,7.1c-6.7,13.6-14.9,26.5-20.5,40.7c-3.7,9.3-7.3,18.6-10.4,28.1
			c-0.7,2.2-1.6,4.4-3.5,6.4c-0.9-1.6-0.8-3.1-0.8-4.5c0-4.9,1-9.7,2.3-14.5c5.4-18.8,13.7-36.3,25-52.2
			C197.3,152,200.3,148.3,204.5,144.8z"/>
	</g>
</g>
</svg>
