<?xml version="1.0" encoding="utf-8"?>
<!-- Generator: Adobe Illustrator 18.1.1, SVG Export Plug-In . SVG Version: 6.00 Build 0)  -->
<svg version="1.1" id="图层_1" xmlns="http://www.w3.org/2000/svg" xmlns:xlink="http://www.w3.org/1999/xlink" x="0px" y="0px"
	 viewBox="0 0 560 560" enable-background="new 0 0 560 560" xml:space="preserve">
	 <style type="text/css">
	.st0{fill:#FFFFFF;}
</style>
<g>
	<g>
		<path class="st0" d="M296.6,485.2c0-1.7,0-3.2,0-4.6c0-69.5,0.1-139.1-0.1-208.6c0-10.8,3.5-19.7,10.5-27.7c15.6-17.8,31.1-35.7,46.7-53.5
			c13.9-15.8,27.9-31.4,41.8-47.2c0.8-0.9,1.5-1.7,2.3-2.6c2.9-3.4,2.8-5.4-1-7.8c-4.9-3.2-9.8-6.2-14.9-8.9
			c-17.2-9.2-35.6-14.4-55-15.9c-13.1-1-26.2-2-39.3-2.4c-16.8-0.5-33.1,2.9-49.2,7.4c-17,4.7-34,9.5-51,14.3
			c-1.3,0.4-2.5,0.8-4.3,1.5c1.2,2.7,2,5.4,3.5,7.4c23,30.5,46,60.9,69.1,91.4c2.5,3.3,5,6.6,7.9,9.5c11.5,11.4,15.6,25.5,15.7,41.2
			c0,46.1,0.1,92.1,0.1,138.2c0,18.7,0,37.5-0.2,56.2c-0.1,5.7-1.1,11.5-1.7,17.6c-3.5-0.8-6.4-1.5-9.2-2.2
			c-16-3.9-32.1-7.2-47.2-14.1c-36.2-16.6-66.6-39.9-87.1-74.8c-6.7-11.4-10.1-23.7-12.8-36.4c-5.4-26.1-9.7-52.3-13.3-78.6
			c-1.8-12.7-4.7-25.3-4-38.2c1.2-22.6-0.1-45.1-2.6-67.5c-1-8.7,2.7-16.4,6.8-23.8c4.5-8.1,10.9-14.1,19.4-18.5
			c41.9-22,86.5-36.4,132.4-46.8c23.5-5.3,47.1-3.9,70.2,3.4c37.8,11.9,75,25.6,110.7,42.9c7.2,3.5,14.3,7.7,20.6,12.6
			c12.7,9.9,17.3,23.9,17.7,39.4c0.8,26.9-1.6,53.5-5.3,80.1c-1.9,13.5-2.5,27.2-4.1,40.7c-1.9,15.4-4,30.8-6.6,46.1
			c-1,5.7-3.6,11.2-5.5,16.7c-0.4,1.3-1.4,2.4-1.7,3.6c-4.2,15.8-14.3,28-24.4,40.3c-21,25.4-46.5,44.9-76.6,58.3
			c-16.9,7.5-34.7,11.4-53.2,11.9c-0.7,0-1.5,0-2.2-0.1C298.4,485.5,297.7,485.4,296.6,485.2z M421.9,334.8
			c1.3,6.5-1.9,13.8,3.4,19.7c7.1-5.9,3-14.1,4.6-21c5.2-1.7,11.4-0.6,15-6.1c-4.4-5.4-9.9-2.3-15.3-1.8c0-6,0-11.9,0-17.7
			c0-1.4-0.2-2.9-0.6-4.2c-0.7-2.4-2.7-2.5-4.8-2.3c-2.4,0.2-1.9,2-2,3.5c0,6-0.1,12,0,18c0.1,2.8-0.6,4.1-3.6,4.3
			c-2.9,0.2-5.6,1.2-8.5,1.6c-3.3,0.4-4.9,2.5-6,5.5C410,337.1,415.8,334.5,421.9,334.8z M206.5,347.3c-3.5,0.4-6.6,0.5-9.6,1.1
			c-1,0.2-2.2,1.8-2.4,2.9c-0.1,0.7,1.3,2,2.3,2.5c1.1,0.6,2.6,0.7,3.9,1c5.8,1.2,5.8,1.2,5,7.3c-0.3,2.8-0.6,5.6-0.4,8.3
			c0.2,2.9,2.1,3.9,5.6,3.7c2.8-0.1,3.3-1.6,3.2-4c-0.2-3.1,0-6.2,0-9.3c0-4.9,1.1-5.9,6-5.2c1,0.1,2,0.4,3.1,0.4
			c3.4,0,5.4-1.5,6.6-5.1c-4-1-7.9-2.1-11.9-3c-1.9-0.4-2.7-1.3-2.6-3.3c0.1-5,0.1-9.9,0-14.9c-0.1-4.2-1.8-5.1-5.9-4.2
			c-2.5,0.6-3,1.9-2.9,4.2C206.6,335.5,206.5,341.4,206.5,347.3z M135.6,326.5c1.7,4,1.9,4.2,4.8,4.7c5.4,1,7.7,3.5,7.9,9.1
			c0.1,3.1-0.3,6.2-0.4,9.3c-0.2,3.6,1.2,6.4,4.6,8.5c5.5-6.9,1.7-15.1,3.1-22.6c5.5,0.4,11.1,5.5,17-1c-2.3-1.5-4.2-3.1-6.5-4
			c-2.8-1.2-6-1.6-8.9-2.6c-0.8-0.3-1.9-1.4-1.9-2.2c-0.1-5.7,0-11.4,0.1-17c0.1-4.1-1.3-5.8-5.7-6.4c-0.8,7.7-1.6,15.5-2.4,23.5
			C143.1,324.7,139.3,323.3,135.6,326.5z M107.3,256c2,1.2,3.6,2.5,5.4,3.1c5.9,2,9.3,6,9.8,12.2c0.2,2.4,0.4,4.8,0,7.1
			c-0.8,4,1.2,6.7,3.6,9.5c6-5.8,2.4-13.4,3.9-19.9c5.6,0.7,10,7.2,16.4,3c-1.3-4.3-3.6-6.9-8.8-8.1c-9-2.2-9.6-6-9.4-13.4
			c0.1-2.4,0.4-4.8,0.1-7.1c-0.3-3.1-1.1-6.1-1.7-9.7c-8.6,6.7-4.8,15-4.7,23C117,255.2,112.5,249.4,107.3,256z M420.9,205
			c5.2-1.7,11.1-0.8,13.8-6.7c-4.2-4.2-9-2.3-13.9-1.2c0-7-0.1-13.5,0-20c0-1.9-0.7-2.8-2.6-3.1c-3-0.5-5.3,0.8-5.6,4.6
			c-0.4,5-0.4,10.1,0.1,15c0.5,4.6,0,5.5-4.5,6c-1.5,0.2-3.4,0.3-4.4,1.2c-1,0.9-1.3,2.7-1.5,4.2c0,0.3,1.8,1.2,2.8,1.2
			c2.6,0.2,5.3,0.1,8.4,0.1c0,5.5,0,10.6,0,15.8c0,3.1,1.4,5.2,3.7,7c3-2.7,3.4-3.5,3.5-7C421,216.5,420.9,210.7,420.9,205z
			 M182.2,378.5c-6.8,5.4-3.4,12.9-4.5,19.4c-4.3,0.3-9.4-1.3-12.2,3.9c2.7,5.2,8.1,2.9,12.1,4.4c0,5-0.1,10,0.1,15
			c0.1,1.6,0.7,3.9,1.8,4.4c1.7,0.8,4.2,0.8,5.8,0c1-0.5,1.5-2.9,1.6-4.5c0.2-4.4,0.1-8.8,0.1-13.4c3.2-0.7,6.4-1.2,9.5-2
			c0.8-0.2,1.9-1.1,1.9-1.8c0-0.7-0.9-1.7-1.6-2.1c-2.4-1-4.8-2-7.3-2.7c-2-0.6-2.9-1.5-2.7-3.7c0.2-2.8,0-5.6,0.1-8.4
			C187,383.4,185.2,380.7,182.2,378.5z M358.1,236c0.6,5.2,1,9.8,1.6,14.4c0.1,1,0.4,2.5,1.2,3c3.1,2,7.4-0.2,7.2-3.9
			c-0.1-3.4-0.8-6.7-1.2-10.1c-0.5-5.3,0.5-6.5,5.7-6.9c3.5-0.3,6.2-1.8,7.8-4.8c-3.7-5.9-8.7-2.7-13.3-1.9c-0.1-1.7-0.2-3-0.4-4.3
			c-0.4-3.5-0.8-7-1.5-10.4c-0.5-2.5-2.6-2.7-4.9-2.5c-2.3,0.3-2.5,1.6-2.4,3.4c0.1,3.7,0.3,7.4,0.2,11.1c-0.1,4.1-1.7,5.7-5.7,6.3
			c-1.1,0.2-2.3,0.4-3.3,0.8c-2,0.8-2.6,2.4-2.3,4.5c0.4,2.4,2,2.2,3.7,2C352.9,236.6,355.3,236.3,358.1,236z M178.1,275.8
			c-2.4,0.3-4.4,0.6-6.4,0.9c-2,0.3-4.1,0.5-6.1,1.1c-0.9,0.3-1.9,1.4-2,2.3c-0.1,0.5,1.1,1.7,2,2c1.6,0.6,3.4,0.9,5.1,1.3
			c7.2,1.7,7.2,1.7,7.2,8.9c0,4,0.5,7.6,4.4,9.9c7.6-4.3,3.1-12,4.9-17.9c4.1-0.9,9.2,1.6,12.2-3.8c-0.9-0.9-1.6-2.4-2.7-2.7
			c-3.1-0.8-6.3-1.1-9.9-1.7c0-1,0-2.2,0-3.4c0-4,0.1-8.1-0.2-12.1c-0.1-1.3-1.4-3.2-2.4-3.4c-1.2-0.2-3.2,0.7-4.1,1.7
			c-1.1,1.3-1.8,3.3-1.9,5.1C178,267.9,178.1,271.8,178.1,275.8z M457.1,253.7c-1.6-6.6,2.3-14-3.8-19.4c-2.6,1.4-3.9,3.3-3.8,5.9
			c0,3.5,0.1,7,0.1,10.5c0.1,5.2-1.9,7.6-7,8.6c-1.7,0.3-3.5,0.5-5.1,1.2c-2.3,1-2.5,3.1-1.9,5.3c0.7,2.5,2.4,1.2,3.8,1
			c3.7-0.7,7.4-1.4,11.4-2.2c0,6.2,0.1,11.9-0.1,17.5c-0.1,2.7,1.2,3.2,3.4,3.1c2.8-0.1,4.1-1.7,4.1-4.4c-0.1-3.2-0.4-6.4-0.6-9.6
			c-0.7-8.7-0.7-8.7,7.7-12.1c3.3-1.3,4.4-3.3,3.7-6.9C465,252.8,461,253.2,457.1,253.7z M367,373.5c4.2-3,4.6-7.2,4.1-11.7
			c-0.7-6,1.4-8.3,7.3-7.6c3.8,0.4,6-1.4,7.9-4.3c-4.1-5.5-9.8-2-15.1-3.1c-0.4-2.6-0.9-5.4-1.3-8.2c-0.5-2.9-1-5.8-1.5-8.7
			c-5.9,0.8-7.7,3-6.9,8.5c0.2,1.5,0.6,3,0.8,4.6c0.4,3.7-0.3,4.6-3.9,5.2c-3.9,0.7-7.7,1.6-9.7,5.8c4.1,3.3,8.8,2.1,13.4,1.7
			C362.7,362,360,369,367,373.5z M220.5,430.1c3.1,4.7,7.9,4.5,12.5,4.1c2.5-0.2,3.4,0.8,3.5,3.1c0.1,3.6-0.1,7.2,0.1,10.9
			c0.1,2.8,0.5,5.5,2.8,7.6c3-1.9,4.5-4.4,4.5-7.8c0.1-2.6,0-5.2-0.1-7.8c-0.1-2.8,1-4.2,3.8-4.5c3.6-0.3,7.2-0.8,10.7-1.4
			c1-0.2,1.9-1.1,2.8-1.7c-0.8-0.7-1.5-1.8-2.4-2.1c-4-1.1-8-2.1-12-2.8c-2.2-0.4-3-1.2-2.8-3.5c0.2-3.7,0-7.4,0.1-11.2
			c0-2.1-0.3-4.4-2.8-4.3c-1.2,0.1-2.8,1.9-3.3,3.2c-0.8,2.5-1.1,5.2-1.3,7.9c-0.2,2.1,0,4.3,0,6.5
			C231,427.6,224.8,424.8,220.5,430.1z M320.3,429.3c1.7,4,4.3,5.7,7.9,5.9c2.2,0.1,4.3,0.1,6.5,0.2c2.1,0,3.1,1,3.1,3.3
			c0.1,4.3,0.4,8.7,0.8,13c0.1,0.9,1.2,2.3,1.9,2.4c0.8,0.1,2.2-0.9,2.6-1.7c2.2-4.6,2.7-9.5,2.3-14.5c-0.2-2.4,0.7-3.3,3.1-3.5
			c2.6-0.2,5.1-0.7,7.6-1.3c0.9-0.3,2-1.3,2.3-2.2c0.6-1.8-1-2.2-2.3-2.5c-2.7-0.6-5.4-1.4-8.2-1.7c-2.3-0.3-2.9-1.5-2.8-3.5
			c0.1-3.3,0.3-6.6,0.3-9.9c0-3-0.5-5.9-2.9-8.5c-1,1.3-2.2,2.2-2.5,3.3c-0.9,3.3-1.6,6.6-1.9,9.9c-0.3,3.1-0.1,6.3-0.1,9.4
			C331.7,428.1,326.1,428.7,320.3,429.3z M251,294.9c0-6.4,0-12.7,0-19c0-1.6,0.5-3.4-2.2-3.5c-2.3-0.1-2.7,1.1-3.1,2.9
			c-0.9,5-2,9.9-2.7,15c-0.4,2.6-1.2,3.8-4.1,3.3c-3.5-0.5-6.8,0.5-9.5,4.3c2.3,1.1,4.3,2.4,6.5,3c2.2,0.5,4.5,0.3,6.8,0.2
			c1.9-0.1,2.5,0.7,2.5,2.5c-0.1,4.2-0.3,8.5,0.1,12.7c0.2,2.4,1.5,4.7,2.2,7c0.4-0.1,0.8-0.1,1.3-0.2c4.7-6.1,1.2-13.7,2.9-20.3
			c4.9-1.4,11.3,2.3,14.2-5c-0.9-0.7-1.8-1.9-2.7-2C259.3,295.5,255.4,295.3,251,294.9z M412.3,404.4c-3.1-1.5-5.6-2.8-8.2-3.8
			c-2.5-0.9-3.4-2.4-3.3-5.1c0.2-4.7,0.1-9.5,0-14.3c0-1-0.8-2.6-1.4-2.7c-1.2-0.2-3.3,0.2-3.6,1c-1.1,2.3-2.2,4.9-2.2,7.4
			c-0.1,3.1,0.9,6.3,1.2,9.5c0.4,3.7-0.3,4.3-4,4.4c-1.8,0.1-3.8,0-5.5,0.5c-2.5,0.7-3,2.9-2.8,5.2c0.2,2.5,2.4,1.3,3.7,1.6
			c1.2,0.2,2.5,0.1,3.7,0.1c5,0.1,5,0.1,5,5.1c0,5.2,0,10.5,0,15.6c5.8,1.2,7.4,0,7.4-5.3c0-3.5-0.1-7,0.1-10.5
			c0.1-1.1,0.8-2.5,1.7-3.2C406.5,408.1,409.2,406.5,412.3,404.4z M398.9,254.2c-2.7,2.7-4,5.6-3.9,9.1c0.1,3.2-0.1,6.4,0.1,9.6
			c0.1,2.1-0.5,3.2-2.6,3.7c-3.6,1-7.1,2.2-10.6,3.4c-1.2,0.4-3.4,0.4-2.5,2.6c0.4,0.8,2,1.5,3,1.5c4.1,0.2,8.2,0.1,12.6,0.1
			c0,5.4-0.1,10.3,0.1,15.2c0,1,0.7,2.7,1.4,2.9c1.2,0.3,2.9,0,3.8-0.8c2.4-1.9,2.5-4.8,2.3-7.7c-0.2-2.5-0.4-4.9-0.4-7.4
			c-0.1-2.2,0.9-3.8,3.2-4.3c2.6-0.6,5.2-1.1,7.8-1.7c0.8-5.6-0.7-7.1-6.1-6.2c-1.5,0.2-2.9,0.4-4.4,0.6
			C401.3,267.9,404.7,260.4,398.9,254.2z M199.6,230.2c1.2,2.6,3.1,3.5,5.7,3.7c7.8,0.5,7.8,0.6,8.2,8.6c0.2,3.5,0.6,7.1,0.9,10.9
			c4.6-2.1,6.1-5.5,6.2-9.7c0.1-2.2,0.1-4.3,0.2-6.5c0.1-1.9,1-3,3.1-3c2.5,0,5.1-0.3,7.6-0.5c0.5-4.7-0.4-6-4.6-6.6
			c-1.4-0.2-2.9-0.6-4.3-0.5c-2.5,0.1-3-1.2-3-3.3c0-3.8,0.2-7.7-0.1-11.5c-0.2-2.8-1.2-5.6-1.8-8.6c-1,0.5-1.2,0.5-1.4,0.6
			c-0.3,0.3-0.6,0.5-0.9,0.8c-3.6,3.8-3.5,8.4-2.9,13.1c0.3,2.8,0.7,5.6,1,8.4C208.5,227.2,203,224.6,199.6,230.2z M145.7,200.3
			c3.7,6.1,9.8,3,14.8,4c0.3,3,0.4,5.8,0.8,8.5c0.6,4.8,1.7,5.5,7,4.4c0-4.3,0-8.7,0-12.9c5.8-1.6,12.4,2.2,16.7-4.2
			c-4.6-5.6-11-2.7-16.3-3.8c-1.9-6.7,2.6-14.5-4.4-20.1c-5.8,6.3-2.1,13.8-3.6,20.6C155.4,197.2,149.8,195.2,145.7,200.3z
			 M331.9,273.1c-2.8,2-4.1,4.5-4,7.7c0.1,2.6-0.2,5.2,0,7.8c0.2,2.4-0.4,3.8-2.8,4.7c-2.8,1.1-5.3,2.6-8.4,4.2
			c2.1,1.1,3.6,2.2,5.3,2.8c4.6,1.6,6.7,4.3,5.9,9.4c-0.6,3.7,0,7.5,4,9.6c4-2.2,3.3-6.1,3.4-9.6c0.2-7.9,0.1-7.9,8-8.3
			c4.5-0.2,6.5-2.8,5.7-7.8c-4.4,0-8.9,0-13.4,0C333.9,286.7,338.1,279.1,331.9,273.1z"/>
		<path class="st0" d="M102.6,310.2c0.6,1.7,0.9,2.5,1.1,3.4c4.7,22.9,9.8,45.7,13.9,68.7c1.9,10.4,6.1,18.9,13.1,26.5c2.8,3,5.6,6.2,7.8,9.6
			c10.1,15.6,23.9,27.5,38.5,38.3c14.9,11,31.1,20.2,48.8,26.2c18.5,6.3,37.4,11.4,56.7,14.5c4.7,0.7,9.1,0.9,12.8-3.4
			c1.1-1.3,4-1.6,6-1.7c24.4-0.9,47.2-8.1,69.1-18.4c31.6-14.8,56.2-38,77-65.5c3.9-5.1,6.5-11.3,9.8-16.9c2.8-4.9,5.3-10,8.7-14.5
			c3.8-5.1,6.1-10.5,6.6-16.8c1-12.5,1.9-25,2.9-37.4c0.1-1.1,0.3-2.2,0.5-3.2c0.3-0.1,0.6-0.1,0.9-0.2c0.4,0.8,0.9,1.6,1.1,2.5
			c7.2,29.4,18.1,57.6,29,85.8c1.8,4.7,1.2,8.5-2.1,12.3c-10.8,12.4-21.1,25.3-32.3,37.3c-21.2,22.8-45.4,41.8-72.3,57.6
			c-16.1,9.5-32.5,17-50.9,20.4c-18.2,3.4-36.2,7.8-54.5,10.2c-26.4,3.5-52.2,0-77-10.2c-28.1-11.6-54.2-26.8-78.2-45.3
			c-17.3-13.4-32.9-28.7-45.5-46.8c-2.6-3.7-5.3-7.4-7.9-11.1c-2.4-3.4-5.1-6.2-8.9-8.4c-5.8-3.4-7.8-9.7-9.2-15.9
			c-2.3-10.5,0.5-20.3,5-29.7c6.9-14.6,14.1-29,20.8-43.7c2.5-5.5,4.1-11.5,6.2-17.2C100.7,315.1,101.5,313.1,102.6,310.2z
			 M101.9,445.2c0.7-0.3,2.1-0.7,3.2-1.6c7-5.6,13.9-11.3,20.9-17c1.9-1.5,2.6-3.4,1-5.3c-1.6-1.9-3.6-1.6-5.5,0
			c-3.3,2.8-6.8,5.4-10.1,8.2c-4.5,3.8-9.1,7.5-13.5,11.4c-0.7,0.6-1.2,1.7-1.1,2.6c0,0.5,1.3,1,2.2,1.3
			C99.6,445,100.4,445,101.9,445.2z M130.3,467.3c0.2,0.3,0.4,0.6,0.6,0.9c2.4-0.3,5.4,0.3,7.1-1c7-5.4,13.5-11.4,20.3-17.2
			c-3.8-4-6.9-4.2-10.5-1c-4.5,4.1-9.1,8.1-13.4,12.4C132.7,463,131.7,465.3,130.3,467.3z M198.5,477.5c-7.4,2-21.9,20.7-20.4,26.1
			C185.9,503.9,201.2,483.8,198.5,477.5z M228.6,501.7c-4.3,7.8-8.3,15.2-12.2,22.5c4.2,3.8,6.4,3.5,8.9-0.8
			c2.9-5.1,5.6-10.3,8.5-15.4c0.8-1.5,0.7-2.4-0.8-3.2C231.6,503.9,230.3,502.9,228.6,501.7z M456,457.8c1-3.8,0-6.5-3.3-8.6
			c-4.3-2.6-8.5-5.4-12.7-8.3c-2.8-1.9-5.5-1.8-8.3-0.5C433.2,445.5,450.9,458.2,456,457.8z M347.9,499.5c0.6,1.3,0.9,2.7,1.7,3.6
			c3.9,4.1,7.9,8.1,11.9,12.1c1.3,1.3,5.9,1.4,6.4,0c0.5-1.5-0.1-3.4-0.6-5.1c-0.2-0.7-1.1-1.2-1.7-1.8c-4.2-3.7-8.3-7.4-12.6-11
			c-1-0.8-2.4-1.2-3.6-1.8C349,496.8,348.5,498,347.9,499.5z M459.7,408.9c-0.6,0.5-2.1,1-2.2,1.7c-0.3,1.5-0.4,3.9,0.4,4.4
			c6,4.1,12.2,7.8,18.4,11.5c0.7,0.4,2.2-0.2,3-0.7c0.6-0.4,1.1-1.7,0.8-2.3c-0.8-1.7-1.6-3.8-3.1-4.7c-4.7-3.2-9.7-5.9-14.6-8.8
			C461.8,409.5,461,409.3,459.7,408.9z M322.5,526.2c-1.5-4.9-3-10.1-4.7-15.3c-0.6-1.9-2.4-2-3.9-1.1c-1.3,0.8-3.4,2.6-3.2,3.3
			c2,6.3,4.4,12.4,6.8,18.6c0.2,0.6,1.3,1.2,1.9,1.2c0.6,0,1.4-0.7,1.6-1.3C321.7,529.9,322,528.2,322.5,526.2z M387.3,475.9
			c5.3,5.7,10.5,11.5,15.9,17.2c0.4,0.4,1.4,0.7,1.9,0.5c0.4-0.2,0.8-1.1,0.8-1.7c0-3-0.5-5.9-2.8-8.3c-2.6-2.7-4.9-5.6-7.4-8.3
			C392.7,472.1,390.5,472.2,387.3,475.9z M267.9,511.4c-6.3,5.3-8.3,17.7-3.9,22.2c2.8-0.6,4.2-2.3,4.7-5c0.6-2.9,1-5.9,2.1-8.7
			C272.1,516.1,270.6,513.7,267.9,511.4z"/>
		<path class="st0" d="M392.6,136.8c-23.3,26.7-46.1,53-69.4,79.7c-0.4-1.3-0.6-2.2-0.8-3c-0.7-2.6-1.3-5.2-2.3-7.7c-2.4-5.8-6.6-8.3-11.5-7.3
			c-6.5,1.4-12,7.5-12,13.3c0,5.4,3.9,10.3,9.6,11.3c3.4,0.6,6.9,0.4,10.5,0.6c-0.3,0.4-0.6,1-1,1.6c-7.4,8.5-14.8,17-22.2,25.5
			c-3,3.4-8.8,3.3-11.7-0.2c-3.7-4.4-7.3-9-10.9-13.6c-21-27.7-42-55.4-63.1-83.1c-4.4-5.7-9.3-11.1-13.9-16.7
			c-0.9-1-1.7-2.1-2.6-3.2c0.6-0.4,1-0.7,1.5-0.9c19.1-7.4,38.4-14.1,58.6-18.2c23.4-4.7,47-5.4,70.7-2.6
			c22.5,2.6,43.7,9.1,63.4,20.1C387.6,133.8,389.9,135.2,392.6,136.8z M226,161.1c8.9,0,15.1-5.3,15.1-12.9
			c-0.1-7.5-7-14.3-14.4-14.2c-6.9,0.1-14.4,7.3-14.4,13.8C212.3,155.4,218.2,161.1,226,161.1z M309.3,148.4
			c6.9,0.2,13-5.9,13.2-13.2c0.2-6.8-6.3-13.4-13.4-13.7c-6.7-0.2-12.3,5.4-12.5,12.7C296.4,142,301.8,148.2,309.3,148.4z
			 M283.3,136.6c0.2-6.8-5.5-12.5-12.5-12.7c-6.9-0.2-14,6.2-14.2,12.5c-0.2,6.3,7.1,13,14.4,13.3
			C277.6,150.1,283.1,144.2,283.3,136.6z M283.8,212.6c0-6.5-5.9-12.9-11.8-12.9c-6.3,0-13.9,7.8-13.8,14.1
			c0.1,6.3,6.6,12,13.6,11.8C278.1,225.5,283.8,219.3,283.8,212.6z M358.3,158.5c7.8-0.1,12.8-4.8,12.7-11.7
			c-0.1-7-5.2-11.6-12.6-11.5c-5.7,0.1-11.9,6-11.8,11.1C346.7,153.8,351.4,158.6,358.3,158.5z"/>
		<path class="st0" d="M307.2,15.1c14.1,6.1,126.1,98.8,134.6,111.4c-1.3-0.5-2.2-0.8-3.2-1.2c-41.8-18.1-84.5-33.5-128.8-44.6
			c-1.7-0.4-3-0.8-3-3.1c0.1-20.3,0.1-40.5,0.1-60.8C307,16.4,307.1,15.9,307.2,15.1z"/>
		<path class="st0" d="M271.7,79.3c-45.8,5.7-87.8,23.1-129.9,41c0.6-1.1,1.1-2.3,2-3.2c7.8-7.6,15.2-15.6,23.5-22.5
			c32.2-26.9,66.8-50.5,102.3-72.8c0.6-0.4,1.2-0.7,2.2-1.2C271.7,40.2,271.7,59.5,271.7,79.3z"/>
		<path class="st0" d="M299.3,44.9c0,10.1-0.1,20.3,0,30.4c0,2.3-0.6,3.1-3,3c-4.6-0.2-9.3-0.1-13.9,0c-2.1,0.1-2.9-0.5-2.9-2.8
			c0.1-17.9-0.1-35.8,0.1-53.6c0.1-10.4,8.8-15.4,18.2-10.6c0.8,0.4,1.4,2.1,1.5,3.2C299.3,24.7,299.3,34.8,299.3,44.9z"/>
		<path class="st0" d="M304.2,212.1c4.7-7.7,5.8-7.8,13.1-0.6C311.1,218,310.5,217.9,304.2,212.1z"/>
		<path class="st0" d="M225.3,156.8c-1.5-2.1-2.7-3.4-3.4-5c-0.7-1.7-1.7-3.9-1.2-5.3c1.1-2.6,3.5-4.7,6.6-4.3c1.6,0.2,3.7,1.5,4.3,2.8
			c0.6,1.5,0.3,4-0.6,5.4C229.6,152.7,227.5,154.4,225.3,156.8z"/>
		<path class="st0" d="M309.9,140.7c-7.5-5.1-7.3-6.4-1-14C317.1,135,315.9,135.9,309.9,140.7z"/>
		<path class="st0" d="M278.6,136.8c-1.6,1.3-2.9,2.4-4.3,3.5c-1.6,1.3-3.3,2.6-5.2,1.2c-1.4-1.1-3.4-3.1-3.2-4.3c0.4-1.9,2.2-3.7,3.8-5.1
			c0.5-0.5,2.4,0,3.3,0.6C274.9,133.6,276.5,135.1,278.6,136.8z"/>
		<path class="st0" d="M271.4,206.9c1.2,1.1,2.3,1.9,3.2,2.9c2.3,2.4,1.1,8.1-2.1,9c-0.9,0.3-2.7-0.1-3.2-0.8c-1.3-1.8-3.3-3.8-1.7-6.4
			C268.6,210,270,208.6,271.4,206.9z"/>
		<path class="st0" d="M364.5,146.5c-1.7,1.4-3,2.5-4.4,3.6c-1.9,1.5-3.5,0.6-4.9-0.8c-1.7-1.6-0.6-3,0.3-4.4c1.1-1.6,2.4-2.6,4.4-1.4
			C361.3,144.4,362.6,145.3,364.5,146.5z"/>
	</g>
</g>
</svg>
