<?xml version="1.0" encoding="utf-8"?>
<!-- Generator: Adobe Illustrator 18.1.1, SVG Export Plug-In . SVG Version: 6.00 Build 0)  -->
<svg version="1.1" id="图层_1" xmlns="http://www.w3.org/2000/svg" xmlns:xlink="http://www.w3.org/1999/xlink" x="0px" y="0px"
	 viewBox="0 0 612 792" enable-background="new 0 0 612 792" xml:space="preserve">
<g>
	<g>
		<path d="M324.1,620.3c0-1.9,0-3.5,0-5c0-76,0.1-152-0.1-228c0-11.8,3.8-21.5,11.5-30.3c17-19.5,34-39,51-58.5
			c15.2-17.3,30.5-34.3,45.7-51.6c0.9-1,1.6-1.9,2.5-2.8c3.2-3.7,3.1-5.9-1.1-8.5c-5.4-3.5-10.7-6.8-16.3-9.7
			c-18.8-10.1-38.9-15.7-60.1-17.4c-14.3-1.1-28.6-2.2-42.9-2.6c-18.4-0.5-36.2,3.2-53.8,8.1c-18.6,5.1-37.2,10.4-55.7,15.6
			c-1.4,0.4-2.7,0.9-4.7,1.6c1.3,3,2.2,5.9,3.8,8.1c25.1,33.3,50.3,66.6,75.5,99.9c2.7,3.6,5.5,7.2,8.6,10.4
			c12.6,12.5,17,27.9,17.2,45c0,50.4,0.1,100.7,0.1,151c0,20.4,0,41-0.2,61.4c-0.1,6.2-1.2,12.6-1.9,19.2c-3.8-0.9-7-1.6-10.1-2.4
			c-17.5-4.3-35.1-7.9-51.6-15.4c-39.6-18.1-72.8-43.6-95.2-81.7c-7.3-12.5-11-25.9-14-39.8c-5.9-28.5-10.6-57.2-14.5-85.9
			c-2-13.9-5.1-27.6-4.4-41.7c1.3-24.7-0.1-49.3-2.8-73.8c-1.1-9.5,3-17.9,7.4-26c4.9-8.9,11.9-15.4,21.2-20.2
			c45.8-24,94.5-39.8,144.7-51.1c25.7-5.8,51.5-4.3,76.7,3.7c41.3,13,82,28,121,46.9c7.9,3.8,15.6,8.4,22.5,13.8
			c13.9,10.8,18.9,26.1,19.3,43.1c0.9,29.4-1.7,58.5-5.8,87.5c-2.1,14.8-2.7,29.7-4.5,44.5c-2.1,16.8-4.4,33.7-7.2,50.4
			c-1.1,6.2-3.9,12.2-6,18.3c-0.4,1.4-1.5,2.6-1.9,3.9c-4.6,17.3-15.6,30.6-26.7,44c-22.9,27.8-50.8,49.1-83.7,63.7
			c-18.5,8.2-37.9,12.5-58.1,13c-0.8,0-1.6,0-2.4-0.1C326.1,620.6,325.3,620.5,324.1,620.3z M461.1,455.9c1.4,7.1-2.1,15.1,3.7,21.5
			c7.8-6.4,3.3-15.4,5-22.9c5.7-1.9,12.5-0.7,16.4-6.7c-4.8-5.9-10.8-2.5-16.7-2c0-6.6,0-13,0-19.3c0-1.5-0.2-3.2-0.7-4.6
			c-0.8-2.6-3-2.7-5.2-2.5c-2.6,0.2-2.1,2.2-2.2,3.8c0,6.6-0.1,13.1,0,19.7c0.1,3.1-0.7,4.5-3.9,4.7c-3.2,0.2-6.1,1.3-9.3,1.7
			c-3.6,0.4-5.4,2.7-6.6,6C448.1,458.4,454.4,455.6,461.1,455.9z M225.7,469.5c-3.8,0.4-7.2,0.5-10.5,1.2c-1.1,0.2-2.4,2-2.6,3.2
			c-0.1,0.8,1.4,2.2,2.5,2.7c1.2,0.7,2.8,0.8,4.3,1.1c6.3,1.3,6.3,1.3,5.5,8c-0.3,3.1-0.7,6.1-0.4,9.1c0.2,3.2,2.3,4.3,6.1,4
			c3.1-0.1,3.6-1.7,3.5-4.4c-0.2-3.4,0-6.8,0-10.2c0-5.4,1.2-6.4,6.6-5.7c1.1,0.1,2.2,0.4,3.4,0.4c3.7,0,5.9-1.6,7.2-5.6
			c-4.4-1.1-8.6-2.3-13-3.3c-2.1-0.4-3-1.4-2.8-3.6c0.1-5.5,0.1-10.8,0-16.3c-0.1-4.6-2-5.6-6.4-4.6c-2.7,0.7-3.3,2.1-3.2,4.6
			C225.8,456.7,225.7,463.1,225.7,469.5z M148.2,446.8c1.9,4.4,2.1,4.6,5.2,5.1c5.9,1.1,8.4,3.8,8.6,9.9c0.1,3.4-0.3,6.8-0.4,10.2
			c-0.2,3.9,1.3,7,5,9.3c6-7.5,1.9-16.5,3.4-24.7c6,0.4,12.1,6,18.6-1.1c-2.5-1.6-4.6-3.4-7.1-4.4c-3.1-1.3-6.6-1.7-9.7-2.8
			c-0.9-0.3-2.1-1.5-2.1-2.4c-0.1-6.2,0-12.5,0.1-18.6c0.1-4.5-1.4-6.3-6.2-7c-0.9,8.4-1.7,16.9-2.6,25.7
			C156.4,444.9,152.2,443.3,148.2,446.8z M117.3,369.8c2.2,1.3,3.9,2.7,5.9,3.4c6.4,2.2,10.2,6.6,10.7,13.3c0.2,2.6,0.4,5.2,0,7.8
			c-0.9,4.4,1.3,7.3,3.9,10.4c6.6-6.3,2.6-14.6,4.3-21.7c6.1,0.8,10.9,7.9,17.9,3.3c-1.4-4.7-3.9-7.5-9.6-8.9
			c-9.8-2.4-10.5-6.6-10.3-14.6c0.1-2.6,0.4-5.2,0.1-7.8c-0.3-3.4-1.2-6.7-1.9-10.6c-9.4,7.3-5.2,16.4-5.1,25.1
			C127.9,368.9,122.9,362.6,117.3,369.8z M460,314c5.7-1.9,12.1-0.9,15.1-7.3c-4.6-4.6-9.8-2.5-15.2-1.3c0-7.7-0.1-14.8,0-21.9
			c0-2.1-0.8-3.1-2.8-3.4c-3.3-0.5-5.8,0.9-6.1,5c-0.4,5.5-0.4,11,0.1,16.4c0.5,5,0,6-4.9,6.6c-1.6,0.2-3.7,0.3-4.8,1.3
			c-1.1,1-1.4,3-1.6,4.6c0,0.3,2,1.3,3.1,1.3c2.8,0.2,5.8,0.1,9.2,0.1c0,6,0,11.6,0,17.3c0,3.4,1.5,5.7,4,7.6c3.3-3,3.7-3.8,3.8-7.6
			C460.1,326.6,460,320.3,460,314z M199.1,503.6c-7.4,5.9-3.7,14.1-4.9,21.2c-4.7,0.3-10.3-1.4-13.3,4.3c3,5.7,8.9,3.2,13.2,4.8
			c0,5.5-0.1,10.9,0.1,16.4c0.1,1.7,0.8,4.3,2,4.8c1.9,0.9,4.6,0.9,6.3,0c1.1-0.5,1.6-3.2,1.7-4.9c0.2-4.8,0.1-9.6,0.1-14.6
			c3.5-0.8,7-1.3,10.4-2.2c0.9-0.2,2.1-1.2,2.1-2s-1-1.9-1.7-2.3c-2.6-1.1-5.2-2.2-8-3c-2.2-0.7-3.2-1.6-3-4c0.2-3.1,0-6.1,0.1-9.2
			C204.4,509,202.4,506.1,199.1,503.6z M391.4,347.9c0.7,5.7,1.1,10.7,1.7,15.7c0.1,1.1,0.4,2.7,1.3,3.3c3.4,2.2,8.1-0.2,7.9-4.3
			c-0.1-3.7-0.9-7.3-1.3-11c-0.5-5.8,0.5-7.1,6.2-7.5c3.8-0.3,6.8-2,8.5-5.2c-4-6.4-9.5-3-14.5-2.1c-0.1-1.9-0.2-3.3-0.4-4.7
			c-0.4-3.8-0.9-7.6-1.6-11.4c-0.5-2.7-2.8-3-5.4-2.7c-2.5,0.3-2.7,1.7-2.6,3.7c0.1,4,0.3,8.1,0.2,12.1c-0.1,4.5-1.9,6.2-6.2,6.9
			c-1.2,0.2-2.5,0.4-3.6,0.9c-2.2,0.9-2.8,2.6-2.5,4.9c0.4,2.6,2.2,2.4,4,2.2C385.7,348.6,388.3,348.2,391.4,347.9z M194.6,391.4
			c-2.6,0.3-4.8,0.7-7,1c-2.2,0.3-4.5,0.5-6.7,1.2c-1,0.3-2.1,1.5-2.2,2.5c-0.1,0.5,1.2,1.9,2.2,2.2c1.7,0.7,3.7,1,5.6,1.4
			c7.9,1.9,7.9,1.9,7.9,9.7c0,4.4,0.5,8.3,4.8,10.8c8.3-4.7,3.4-13.1,5.4-19.6c4.5-1,10.1,1.7,13.3-4.2c-1-1-1.7-2.6-3-3
			c-3.4-0.9-6.9-1.2-10.8-1.9c0-1.1,0-2.4,0-3.7c0-4.4,0.1-8.9-0.2-13.2c-0.1-1.4-1.5-3.5-2.6-3.7c-1.3-0.2-3.5,0.8-4.5,1.9
			c-1.2,1.4-2,3.6-2.1,5.6C194.5,382.8,194.6,387,194.6,391.4z M499.5,367.3c-1.7-7.2,2.5-15.3-4.2-21.2c-2.8,1.5-4.3,3.6-4.2,6.4
			c0,3.8,0.1,7.6,0.1,11.5c0.1,5.7-2.1,8.3-7.6,9.4c-1.9,0.3-3.8,0.5-5.6,1.3c-2.5,1.1-2.7,3.4-2.1,5.8c0.8,2.7,2.6,1.3,4.2,1.1
			c4-0.8,8.1-1.5,12.5-2.4c0,6.8,0.1,13-0.1,19.1c-0.1,3,1.3,3.5,3.7,3.4c3.1-0.1,4.5-1.9,4.5-4.8c-0.1-3.5-0.4-7-0.7-10.5
			c-0.8-9.5-0.8-9.5,8.4-13.2c3.6-1.4,4.8-3.6,4-7.5C508.2,366.3,503.8,366.7,499.5,367.3z M401.1,498.2c4.6-3.3,5-7.9,4.5-12.8
			c-0.8-6.6,1.5-9.1,8-8.3c4.2,0.4,6.6-1.5,8.6-4.7c-4.5-6-10.7-2.2-16.5-3.4c-0.4-2.8-1-5.9-1.4-9c-0.5-3.2-1.1-6.3-1.6-9.5
			c-6.4,0.9-8.4,3.3-7.5,9.3c0.2,1.6,0.7,3.3,0.9,5c0.4,4-0.3,5-4.3,5.7c-4.3,0.8-8.4,1.7-10.6,6.3c4.5,3.6,9.6,2.3,14.6,1.9
			C396.4,485.6,393.4,493.3,401.1,498.2z M241,560c3.4,5.1,8.6,4.9,13.7,4.5c2.7-0.2,3.7,0.9,3.8,3.4c0.1,3.9-0.1,7.9,0.1,11.9
			c0.1,3.1,0.5,6,3.1,8.3c3.3-2.1,4.9-4.8,4.9-8.5c0.1-2.8,0-5.7-0.1-8.5c-0.1-3.1,1.1-4.6,4.2-4.9c3.9-0.3,7.9-0.9,11.7-1.5
			c1.1-0.2,2.1-1.2,3.1-1.9c-0.9-0.8-1.6-2-2.6-2.3c-4.4-1.2-8.7-2.3-13.1-3.1c-2.4-0.4-3.3-1.3-3.1-3.8c0.2-4,0-8.1,0.1-12.2
			c0-2.3-0.3-4.8-3.1-4.7c-1.3,0.1-3.1,2.1-3.6,3.5c-0.9,2.7-1.2,5.7-1.4,8.6c-0.2,2.3,0,4.7,0,7.1C252.4,557.3,245.7,554.2,241,560
			z M350,559.2c1.9,4.4,4.7,6.2,8.6,6.4c2.4,0.1,4.7,0.1,7.1,0.2c2.3,0,3.4,1.1,3.4,3.6c0.1,4.7,0.4,9.5,0.9,14.2
			c0.1,1,1.3,2.5,2.1,2.6c0.9,0.1,2.4-1,2.8-1.9c2.4-5,3-10.4,2.5-15.8c-0.2-2.6,0.8-3.6,3.4-3.8c2.8-0.2,5.6-0.8,8.3-1.4
			c1-0.3,2.2-1.4,2.5-2.4c0.7-2-1.1-2.4-2.5-2.7c-3-0.7-5.9-1.5-9-1.9c-2.5-0.3-3.2-1.6-3.1-3.8c0.1-3.6,0.3-7.2,0.3-10.8
			c0-3.3-0.5-6.4-3.2-9.3c-1.1,1.4-2.4,2.4-2.7,3.6c-1,3.6-1.7,7.2-2.1,10.8c-0.3,3.4-0.1,6.9-0.1,10.3
			C362.5,557.9,356.4,558.5,350,559.2z M274.3,412.3c0-7,0-13.9,0-20.8c0-1.7,0.5-3.7-2.4-3.8c-2.5-0.1-3,1.2-3.4,3.2
			c-1,5.5-2.2,10.8-3,16.4c-0.4,2.8-1.3,4.2-4.5,3.6c-3.8-0.5-7.4,0.5-10.4,4.7c2.5,1.2,4.7,2.6,7.1,3.3c2.4,0.5,4.9,0.3,7.4,0.2
			c2.1-0.1,2.7,0.8,2.7,2.7c-0.1,4.6-0.3,9.3,0.1,13.9c0.2,2.6,1.6,5.1,2.4,7.7c0.4-0.1,0.9-0.1,1.4-0.2c5.1-6.7,1.3-15,3.2-22.2
			c5.4-1.5,12.3,2.5,15.5-5.5c-1-0.8-2-2.1-3-2.2C283.4,412.9,279.1,412.7,274.3,412.3z M450.6,532c-3.4-1.6-6.1-3.1-9-4.2
			c-2.7-1-3.7-2.6-3.6-5.6c0.2-5.1,0.1-10.4,0-15.6c0-1.1-0.9-2.8-1.5-3c-1.3-0.2-3.6,0.2-3.9,1.1c-1.2,2.5-2.4,5.4-2.4,8.1
			c-0.1,3.4,1,6.9,1.3,10.4c0.4,4-0.3,4.7-4.4,4.8c-2,0.1-4.2,0-6,0.5c-2.7,0.8-3.3,3.2-3.1,5.7c0.2,2.7,2.6,1.4,4,1.7
			c1.3,0.2,2.7,0.1,4,0.1c5.5,0.1,5.5,0.1,5.5,5.6c0,5.7,0,11.5,0,17c6.3,1.3,8.1,0,8.1-5.8c0-3.8-0.1-7.7,0.1-11.5
			c0.1-1.2,0.9-2.7,1.9-3.5C444.2,536,447.2,534.2,450.6,532z M435.9,367.8c-3,3-4.4,6.1-4.3,9.9c0.1,3.5-0.1,7,0.1,10.5
			c0.1,2.3-0.5,3.5-2.8,4c-3.9,1.1-7.8,2.4-11.6,3.7c-1.3,0.4-3.7,0.4-2.7,2.8c0.4,0.9,2.2,1.6,3.3,1.6c4.5,0.2,9,0.1,13.8,0.1
			c0,5.9-0.1,11.3,0.1,16.6c0,1.1,0.8,3,1.5,3.2c1.3,0.3,3.2,0,4.2-0.9c2.6-2.1,2.7-5.2,2.5-8.4c-0.2-2.7-0.4-5.4-0.4-8.1
			c-0.1-2.4,1-4.2,3.5-4.7c2.8-0.7,5.7-1.2,8.5-1.9c0.9-6.1-0.8-7.8-6.7-6.8c-1.6,0.2-3.2,0.4-4.8,0.7
			C438.6,382.8,442.3,374.6,435.9,367.8z M218.1,341.6c1.3,2.8,3.4,3.8,6.2,4c8.5,0.5,8.5,0.7,9,9.4c0.2,3.8,0.7,7.8,1,11.9
			c5-2.3,6.7-6,6.8-10.6c0.1-2.4,0.1-4.7,0.2-7.1c0.1-2.1,1.1-3.3,3.4-3.3c2.7,0,5.6-0.3,8.3-0.5c0.5-5.1-0.4-6.6-5-7.2
			c-1.5-0.2-3.2-0.7-4.7-0.5c-2.7,0.1-3.3-1.3-3.3-3.6c0-4.2,0.2-8.4-0.1-12.6c-0.2-3.1-1.3-6.1-2-9.4c-1.1,0.5-1.3,0.5-1.5,0.7
			c-0.3,0.3-0.7,0.5-1,0.9c-3.9,4.2-3.8,9.2-3.2,14.3c0.3,3.1,0.8,6.1,1.1,9.2C227.9,338.3,221.8,335.5,218.1,341.6z M159.2,308.9
			c4,6.7,10.7,3.3,16.2,4.4c0.3,3.3,0.4,6.3,0.9,9.3c0.7,5.2,1.9,6,7.6,4.8c0-4.7,0-9.5,0-14.1c6.3-1.7,13.6,2.4,18.3-4.6
			c-5-6.1-12-3-17.8-4.2c-2.1-7.3,2.8-15.8-4.8-22c-6.3,6.9-2.3,15.1-3.9,22.5C169.8,305.5,163.7,303.3,159.2,308.9z M362.7,388.5
			c-3.1,2.2-4.5,4.9-4.4,8.4c0.1,2.8-0.2,5.7,0,8.5c0.2,2.6-0.4,4.2-3.1,5.1c-3.1,1.2-5.8,2.8-9.2,4.6c2.3,1.2,3.9,2.4,5.8,3.1
			c5,1.7,7.3,4.7,6.4,10.3c-0.7,4,0,8.2,4.4,10.5c4.4-2.4,3.6-6.7,3.7-10.5c0.2-8.6,0.1-8.6,8.7-9.1c4.9-0.2,7.1-3.1,6.2-8.5
			c-4.8,0-9.7,0-14.6,0C364.9,403.3,369.5,395,362.7,388.5z"/>
		<path d="M112.1,429c0.7,1.9,1,2.7,1.2,3.7c5.1,25,10.7,49.9,15.2,75.1c2.1,11.4,6.7,20.7,14.3,29c3.1,3.3,6.1,6.8,8.5,10.5
			c11,17,26.1,30.1,42.1,41.9c16.3,12,34,22.1,53.3,28.6c20.2,6.9,40.9,12.5,62,15.8c5.1,0.8,9.9,1,14-3.7c1.2-1.4,4.4-1.7,6.6-1.9
			c26.7-1,51.6-8.9,75.5-20.1c34.5-16.2,61.4-41.5,84.1-71.6c4.3-5.6,7.1-12.3,10.7-18.5c3.1-5.4,5.8-10.9,9.5-15.8
			c4.2-5.6,6.7-11.5,7.2-18.4c1.1-13.7,2.1-27.3,3.2-40.9c0.1-1.2,0.3-2.4,0.5-3.5c0.3-0.1,0.7-0.1,1-0.2c0.4,0.9,1,1.7,1.2,2.7
			c7.9,32.1,19.8,62.9,31.7,93.8c2,5.1,1.3,9.3-2.3,13.4c-11.8,13.6-23.1,27.6-35.3,40.8c-23.2,24.9-49.6,45.7-79,62.9
			c-17.6,10.4-35.5,18.6-55.6,22.3c-19.9,3.7-39.6,8.5-59.6,11.1c-28.9,3.8-57,0-84.1-11.1c-30.7-12.7-59.2-29.3-85.5-49.5
			c-18.9-14.6-36-31.4-49.7-51.1c-2.8-4-5.8-8.1-8.6-12.1c-2.6-3.7-5.6-6.8-9.7-9.2c-6.3-3.7-8.5-10.6-10.1-17.4
			c-2.5-11.5,0.5-22.2,5.5-32.5c7.5-16,15.4-31.7,22.7-47.8c2.7-6,4.5-12.6,6.8-18.8C110.1,434.4,110.9,432.2,112.1,429z
			 M111.4,576.5c0.8-0.3,2.3-0.8,3.5-1.7c7.7-6.1,15.2-12.3,22.8-18.6c2.1-1.6,2.8-3.7,1.1-5.8c-1.7-2.1-3.9-1.7-6,0
			c-3.6,3.1-7.4,5.9-11,9c-4.9,4.2-9.9,8.2-14.8,12.5c-0.8,0.7-1.3,1.9-1.2,2.8c0,0.5,1.4,1.1,2.4,1.4
			C108.8,576.3,109.7,576.3,111.4,576.5z M142.4,600.7c0.2,0.3,0.4,0.7,0.7,1c2.6-0.3,5.9,0.3,7.8-1.1c7.6-5.9,14.8-12.5,22.2-18.8
			c-4.2-4.4-7.5-4.6-11.5-1.1c-4.9,4.5-9.9,8.9-14.6,13.6C145,596,143.9,598.5,142.4,600.7z M216.9,611.8
			c-8.1,2.2-23.9,22.6-22.3,28.5C203.2,640.7,219.9,618.7,216.9,611.8z M249.8,638.3c-4.7,8.5-9.1,16.6-13.3,24.6
			c4.6,4.2,7,3.8,9.7-0.9c3.2-5.6,6.1-11.3,9.3-16.8c0.9-1.6,0.8-2.6-0.9-3.5C253.1,640.7,251.7,639.6,249.8,638.3z M498.3,590.3
			c1.1-4.2,0-7.1-3.6-9.4c-4.7-2.8-9.3-5.9-13.9-9.1c-3.1-2.1-6-2-9.1-0.5C473.4,576.9,492.8,590.7,498.3,590.3z M380.2,635.9
			c0.7,1.4,1,3,1.9,3.9c4.3,4.5,8.6,8.9,13,13.2c1.4,1.4,6.4,1.5,7,0c0.5-1.6-0.1-3.7-0.7-5.6c-0.2-0.8-1.2-1.3-1.9-2
			c-4.6-4-9.1-8.1-13.8-12c-1.1-0.9-2.6-1.3-3.9-2C381.4,632.9,380.9,634.2,380.2,635.9z M502.4,536.9c-0.7,0.5-2.3,1.1-2.4,1.9
			c-0.3,1.6-0.4,4.3,0.4,4.8c6.6,4.5,13.3,8.5,20.1,12.6c0.8,0.4,2.4-0.2,3.3-0.8c0.7-0.4,1.2-1.9,0.9-2.5c-0.9-1.9-1.7-4.2-3.4-5.1
			c-5.1-3.5-10.6-6.4-16-9.6C504.7,537.5,503.8,537.3,502.4,536.9z M352.4,665.1c-1.6-5.4-3.3-11-5.1-16.7c-0.7-2.1-2.6-2.2-4.3-1.2
			c-1.4,0.9-3.7,2.8-3.5,3.6c2.2,6.9,4.8,13.6,7.4,20.3c0.2,0.7,1.4,1.3,2.1,1.3c0.7,0,1.5-0.8,1.7-1.4
			C351.6,669.1,351.9,667.2,352.4,665.1z M423.3,610.1c5.8,6.2,11.5,12.6,17.4,18.8c0.4,0.4,1.5,0.8,2.1,0.5
			c0.4-0.2,0.9-1.2,0.9-1.9c0-3.3-0.5-6.4-3.1-9.1c-2.8-3-5.4-6.1-8.1-9.1C429.2,605.9,426.8,606,423.3,610.1z M292.8,648.9
			c-6.9,5.8-9.1,19.3-4.3,24.3c3.1-0.7,4.6-2.5,5.1-5.5c0.7-3.2,1.1-6.4,2.3-9.5C297.4,654,295.7,651.4,292.8,648.9z"/>
		<path d="M429.1,239.5c-25.5,29.2-50.4,57.9-75.8,87.1c-0.4-1.4-0.7-2.4-0.9-3.3c-0.8-2.8-1.4-5.7-2.5-8.4c-2.6-6.3-7.2-9.1-12.6-8
			c-7.1,1.5-13.1,8.2-13.1,14.5c0,5.9,4.3,11.3,10.5,12.3c3.7,0.7,7.5,0.4,11.5,0.7c-0.3,0.4-0.7,1.1-1.1,1.7
			c-8.1,9.3-16.2,18.6-24.3,27.9c-3.3,3.7-9.6,3.6-12.8-0.2c-4-4.8-8-9.8-11.9-14.9c-23-30.3-45.9-60.5-69-90.8
			c-4.8-6.2-10.2-12.1-15.2-18.3c-1-1.1-1.9-2.3-2.8-3.5c0.7-0.4,1.1-0.8,1.6-1c20.9-8.1,42-15.4,64-19.9
			c25.6-5.1,51.4-5.9,77.3-2.8c24.6,2.8,47.8,9.9,69.3,22C423.6,236.2,426.1,237.8,429.1,239.5z M247,266.1
			c9.7,0,16.5-5.8,16.5-14.1c-0.1-8.2-7.6-15.6-15.7-15.5c-7.5,0.1-15.7,8-15.7,15.1C232,259.8,238.5,266.1,247,266.1z M338,252.2
			c7.5,0.2,14.2-6.4,14.4-14.4c0.2-7.4-6.9-14.6-14.6-15c-7.3-0.2-13.4,5.9-13.7,13.9C323.9,245.2,329.8,252,338,252.2z
			 M309.6,239.3c0.2-7.4-6-13.7-13.7-13.9c-7.5-0.2-15.3,6.8-15.5,13.7c-0.2,6.9,7.8,14.2,15.7,14.5
			C303.4,254,309.4,247.6,309.6,239.3z M310.2,322.3c0-7.1-6.4-14.1-12.9-14.1c-6.9,0-15.2,8.5-15.1,15.4
			c0.1,6.9,7.2,13.1,14.9,12.9C303.9,336.4,310.2,329.7,310.2,322.3z M391.6,263.2c8.5-0.1,14-5.2,13.9-12.8
			c-0.1-7.6-5.7-12.7-13.8-12.6c-6.2,0.1-13,6.6-12.9,12.1C378.9,258.1,384,263.3,391.6,263.2z"/>
		<path d="M335.7,106.5c15.4,6.7,137.8,108,147.1,121.7c-1.4-0.5-2.4-0.9-3.5-1.3c-45.7-19.8-92.3-36.6-140.8-48.7
			c-1.9-0.4-3.3-0.9-3.3-3.4c0.1-22.2,0.1-44.3,0.1-66.4C335.5,107.9,335.6,107.4,335.7,106.5z"/>
		<path d="M296.9,176.7c-50.1,6.2-96,25.2-142,44.8c0.7-1.2,1.2-2.5,2.2-3.5c8.5-8.3,16.6-17,25.7-24.6
			c35.2-29.4,73-55.2,111.8-79.6c0.7-0.4,1.3-0.8,2.4-1.3C296.9,133.9,296.9,155,296.9,176.7z"/>
		<path d="M327.1,139.1c0,11-0.1,22.2,0,33.2c0,2.5-0.7,3.4-3.3,3.3c-5-0.2-10.2-0.1-15.2,0c-2.3,0.1-3.2-0.5-3.2-3.1
			c0.1-19.6-0.1-39.1,0.1-58.6c0.1-11.4,9.6-16.8,19.9-11.6c0.9,0.4,1.5,2.3,1.6,3.5C327.1,117,327.1,128,327.1,139.1z"/>
		<path d="M332.4,321.8c5.1-8.4,6.3-8.5,14.3-0.7C340,328.2,339.3,328.1,332.4,321.8z"/>
		<path d="M246.2,261.4c-1.6-2.3-3-3.7-3.7-5.5c-0.8-1.9-1.9-4.3-1.3-5.8c1.2-2.8,3.8-5.1,7.2-4.7c1.7,0.2,4,1.6,4.7,3.1
			c0.7,1.6,0.3,4.4-0.7,5.9C250.9,256.9,248.6,258.7,246.2,261.4z"/>
		<path d="M338.7,243.8c-8.2-5.6-8-7-1.1-15.3C346.5,237.5,345.2,238.5,338.7,243.8z"/>
		<path d="M304.5,239.5c-1.7,1.4-3.2,2.6-4.7,3.8c-1.7,1.4-3.6,2.8-5.7,1.3c-1.5-1.2-3.7-3.4-3.5-4.7c0.4-2.1,2.4-4,4.2-5.6
			c0.5-0.5,2.6,0,3.6,0.7C300.4,236,302.2,237.6,304.5,239.5z"/>
		<path d="M296.6,316.1c1.3,1.2,2.5,2.1,3.5,3.2c2.5,2.6,1.2,8.9-2.3,9.8c-1,0.3-3-0.1-3.5-0.9c-1.4-2-3.6-4.2-1.9-7
			C293.5,319.5,295.1,318,296.6,316.1z"/>
		<path d="M398.3,250.1c-1.9,1.5-3.3,2.7-4.8,3.9c-2.1,1.6-3.8,0.7-5.4-0.9c-1.9-1.7-0.7-3.3,0.3-4.8c1.2-1.7,2.6-2.8,4.8-1.5
			C394.8,247.8,396.3,248.8,398.3,250.1z"/>
	</g>
</g>
<g>
	<g>
		<path fill="#C4BA98" stroke="#000000" stroke-width="0.5" stroke-miterlimit="10" d="M488.6,670.9v-13.8h10.8v2.4H491v3.7h4.5v2.5
			H491v4.3L488.6,670.9z"/>
		<path fill="#C4BA98" stroke="#000000" stroke-width="0.5" stroke-miterlimit="10" d="M502.2,660.3c0-1.3,0.2-2.1,0.6-2.6
			c0.4-0.5,1.1-0.7,2.1-0.7h7.9c1,0,1.7,0.2,2.1,0.7s0.6,1.3,0.6,2.6v7.3c0,1.3-0.2,2.1-0.6,2.6c-0.4,0.5-1.1,0.7-2.1,0.7h-7.9
			c-1,0-1.7-0.2-2.1-0.7c-0.4-0.5-0.6-1.3-0.6-2.6V660.3z M504.7,668.3h8.2v-8.8h-8.2V668.3z"/>
		<path fill="#C4BA98" stroke="#000000" stroke-width="0.5" stroke-miterlimit="10" d="M520.6,668.7v-11.6h9.2
			c0.9,0,1.5,0.2,1.9,0.6c0.4,0.4,0.6,1.1,0.6,2.1v3.2c0,0.9-0.2,1.6-0.6,2.1c-0.4,0.4-1,0.6-1.9,0.6h-1.4l4.9,5.2h-3.6l-4.3-5.2
			h-2.4v2.5L520.6,668.7z M528.7,659.4h-5.6v3.9h5.6c0.4,0,0.7-0.1,0.9-0.3c0.2-0.2,0.2-0.5,0.2-0.9v-1.7c0-0.4-0.1-0.7-0.2-0.8
			C529.4,659.5,529.1,659.4,528.7,659.4z"/>
	</g>
	<g>
		<path fill="#C4BA98" stroke="#000000" stroke-width="0.5" stroke-miterlimit="10" d="M469.8,698.8c1-0.1,1.4,0.3,1.4,1.3v1.6h2.7
			c1.1,0,1.3,0.4,0.7,1.1h-3.4c0,1.8,0.1,2.7,0.4,2.7c0.5,0.1,0.9,0.1,1.3-0.2c1.2-0.2,1.7,0.2,1.6,1.3c-0.1,0.8-0.2,2-0.2,3.6
			c0.1,1.2-0.5,1.6-1.8,1.3c-1.4-0.5-2.9-0.5-4.5,0c-1,0.6-1.5,0.3-1.6-0.9c-0.1-1.2-0.4-2.5-0.7-4c0.1-1,0.8-1.3,2-0.9
			c1,0.1,1.4-0.1,1.4-0.7c0-1.3-0.1-2.6-0.2-3.8C468.7,699.4,469,698.6,469.8,698.8z M468,707.4c-0.1,1.4,0.1,2.2,0.7,2.3
			c2.8,0.4,4-0.1,3.8-1.3c0.2-1.7-0.9-2.3-3.4-2C468.4,706.5,468,706.8,468,707.4z M475.2,703.3c0.5,0,0.8-0.1,0.9-0.2
			c-0.1-1.3-0.2-2.6-0.2-3.8c-0.1-0.8,0.3-1.2,1.3-1.1c0.6,0,0.9,0.3,0.9,0.9c-0.1,1.1-0.1,2.3,0,3.8c4-0.6,5.9-0.6,5.8,0
			c0.2,0.4,0.2,0.5-0.2,0.5c-1.8,0.2-3.6,0.5-5.4,0.9c0.4,1.1,0.7,2,1.1,2.7c0.5-0.6,1-1.3,1.4-2.2c0.4-0.4,0.7-0.5,1.1-0.4
			c0.5,0.4,0.7,0.8,0.5,1.3c-0.7,1-1.4,1.7-2,2.3c1.3,1.3,3.5,1.9,6.5,1.8c0.2,0.1-0.1,0.7-1.1,1.8c-1.3,1.3-2.7,1.5-4.1,0.7
			c-0.6-0.5-1.5-1.4-2.9-2.7c-1.2,0.8-2.5,1.3-3.8,1.4c-0.6-0.1-0.7-0.4-0.4-0.7c1.2-0.4,2.3-1.1,3.2-2.2c-0.5-0.7-1-1.9-1.4-3.6
			c-0.6,0.1-1.1,0.3-1.6,0.5c-0.7,0.1-1-0.2-0.9-1.1C474,703.7,474.4,703.4,475.2,703.3z M481,699.1c0.4-0.8,0.8-1.1,1.4-0.7
			c0.6,0.4,0.8,0.8,0.5,1.4c-0.5,0.7-1.3,1.1-2.3,1.3c-0.5,0-0.7-0.2-0.5-0.5C480.5,700.1,480.8,699.6,481,699.1z"/>
		<path fill="#C4BA98" stroke="#000000" stroke-width="0.5" stroke-miterlimit="10" d="M495.2,703.3c0.6,0,1,0.2,1.3,0.5
			c-0.1,0.5-0.5,0.7-1.3,0.5c-0.7,0-1.4,0.1-2.2,0.2c0.2,0.4,0.1,0.7-0.4,1.1l-0.9,0.9c-0.4,0.5-0.1,0.8,0.9,0.9
			c0.7,0.1,1.3-0.1,1.8-0.7l-0.5-1.1c0.1-0.4,0.4-0.5,0.7-0.4c0.4,0.2,0.7,0.5,1.1,0.7c0.2,0.5,0.5,1,0.9,1.6
			c-0.1,0.2-0.2,0.4-0.4,0.4c-0.5,0.1-1-0.1-1.4-0.7c-0.7,1.3-1.5,1.8-2.3,1.4c-0.7-0.5-1.4-0.5-2-0.2c-0.2,0-0.5-0.2-0.7-0.5
			c-0.1-0.5,0.1-1,0.7-1.4c1.1-1,1.4-1.6,1.1-2c-0.5-0.1-1.2,0-2.2,0.4c-0.4,0.2-0.6,0.2-0.7-0.2c0.1-0.8,0.5-1.3,1.3-1.4
			L495.2,703.3L495.2,703.3z M495.2,700.7c0.4,0,0.6,0.2,0.7,0.5c0,0.4-0.1,0.5-0.4,0.5h-2.9c-0.8,0-1.6,0.1-2.3,0.2
			c-0.2-0.1-0.4-0.4-0.4-0.7c0.1-0.4,0.4-0.7,0.7-0.9C491.6,700.6,493,700.7,495.2,700.7z M499.9,705.8c-0.4-0.1-0.7-0.1-1.1,0
			c-0.4,0.2-0.7,0.4-1.1,0.5c-0.2,0-0.4-0.1-0.5-0.2c-0.2-1.8-0.5-3.4-0.7-4.8c-0.1-0.7,0.2-1.1,1.1-1.1c0.4,0.2,1,0.3,1.8,0.2
			c0.4-0.4,0.8-1,1.3-1.8c0.1-0.2,0.4-0.4,0.7-0.4c1.1,0.4,1.4,0.8,0.9,1.3c-0.4,0.4-0.7,0.7-0.9,0.9c0.8,0,1.9,0.1,3.2,0.4
			c0.4-0.1,0.7-0.2,0.9-0.4c0.4-0.1,0.7-0.1,0.9,0.2c0.5,0.4,0.6,0.9,0.4,1.6c-0.4,1.1-0.6,2.2-0.7,3.4l-0.5,0.4
			c0.5,0.4,0.5,0.7,0.2,0.9c-0.2,0.2-0.5,0.5-0.7,0.7c-0.2,0.1-0.2,0.3,0.2,0.5c0.5,0.1,0.9,0.1,1.3-0.2c-0.5-0.4-0.5-0.6-0.2-0.7
			c0.5,0,0.8,0.1,1.1,0.2c0.2,0.4,0.5,0.7,0.7,1.1c-0.1,0.1-0.3,0.2-0.5,0.4l-0.7-0.5c-0.2,0.7-0.7,1-1.3,0.9
			c-0.5-0.4-1-0.5-1.4-0.4c-0.4-0.2-0.5-0.5-0.4-0.9c0.2-0.2,0.5-0.5,0.7-0.9c0.1-0.2,0.3-0.6,0.5-1.1c-1-0.1-2.1-0.2-3.4-0.2
			c-0.8,2.8-2.5,4.7-4.8,5.9c-1.9,0.7-3.3,0.4-4.3-0.9c0-0.1,0.2-0.2,0.7-0.2C496.8,710.3,499.1,708.7,499.9,705.8z M500.4,701.3
			c-0.8,0-1.5,0.1-2,0.4c-0.2,0.7-0.1,1.1,0.4,1.1l2-0.2C500.9,701.9,500.8,701.5,500.4,701.3z M500.6,703.4c-0.6,0-1.3,0.1-2.2,0.2
			c0,0.8,0.2,1.3,0.5,1.3l1.3-0.2L500.6,703.4z M501.9,706.7c0.1-0.5,0.4-0.7,0.7-0.7c0.2,0,0.4,0.1,0.5,0.4c-0.2,0.5-0.4,1-0.5,1.4
			c0,0.5,0.1,0.8,0.2,1.1c0.5,0.6,1.4,1,2.9,1.3c1.2,0.1,2.3,0,3.4-0.4c0.7-0.4,1.2-0.4,1.4-0.2c-0.1,0.7-0.5,1.6-1.3,2.5
			c-0.8,0.7-1.6,1-2.2,0.7c-2-0.4-3.7-1.2-5-2.5c-0.6-0.7-0.8-1.4-0.7-2C501.6,707.7,501.7,707.2,501.9,706.7z M504.6,705.1
			c0.2-0.5,0.3-0.9,0.2-1.3c-0.5-0.2-1.4-0.4-2.7-0.4c-0.1,0.5-0.2,1-0.2,1.4C502.8,705,503.7,705.1,504.6,705.1z M502.2,702.5
			l2,0.2c0.5,0.1,0.7-0.1,0.7-0.7c0-0.5-0.7-0.7-2.2-0.7C502.4,701.4,502.2,701.8,502.2,702.5z"/>
		<path fill="#C4BA98" stroke="#000000" stroke-width="0.5" stroke-miterlimit="10" d="M518,702.4c0.2-0.5,0.4-0.7,0.5-0.7
			c0.6-0.1,0.8,0.3,0.5,1.3c-0.4,1.1-0.9,2.2-1.6,3.4c-0.6,1-1.2,1.7-1.8,2.2c-1.2,1.1-2.5,1-3.8-0.2c-0.4-0.4-0.2-0.7,0.4-1.1
			C514.3,706.2,516.2,704.6,518,702.4z M522.2,698.8c1.2-0.1,1.7,0.5,1.6,2c-0.1,3-0.1,6.4,0.2,10.1c0,1.4-1.1,2.1-3.4,2
			c-1.2-0.1-2.6-0.8-4.1-2c-0.2-0.6-0.1-0.9,0.4-0.9c2.3,0.7,3.7,0.8,4.1,0.4c0.4-0.2,0.5-3.6,0.4-10.1
			C521.3,699.3,521.6,698.8,522.2,698.8z M525.1,702.9c-0.4-0.5-0.3-0.8,0.2-1.1c0.2-0.1,0.5-0.1,0.7,0.2c1.7,2.2,4.2,4,7.6,5.6
			c-0.4,0.6-0.7,1-1.1,1.3c-1.1,1-2.1,1-3.1,0C527.8,706.9,526.4,704.9,525.1,702.9z"/>
		<path fill="#C4BA98" stroke="#000000" stroke-width="0.5" stroke-miterlimit="10" d="M542.9,705.4c-0.4,1.2-0.7,2.1-1.1,2.7
			l2.3-0.4c-0.1-0.5-0.2-1-0.2-1.4c0.1-0.5,0.5-0.8,1.3-0.9c0.5,0,0.9,0.1,1.3,0.4c0.5,0.1,0.8,0.1,1.1,0v-5.9
			c0-0.7,0.2-1.1,0.7-1.3c1.2,0,1.8,0.4,1.8,1.3c-0.1,0.6-0.2,1.1-0.2,1.4c2.5,0.1,4.6,0.2,6.3,0.2c0,0.6-0.2,1.1-0.5,1.6
			c-0.5,0.5-1,0.6-1.4,0.4c-1.9-0.6-3.3-0.8-4.3-0.5c-0.2,1-0.2,1.9,0,2.9c0.8,0.1,1.5,0.1,2-0.2c1.5-0.5,2.3-0.1,2.3,1.3
			c-0.2,1-0.4,2.2-0.4,3.6c0.2,1.5-0.3,2.1-1.6,1.6c-1.7-0.2-3.5-0.3-5.4-0.2c-1.4,0.7-2.2,0.3-2.3-1.3c0-0.4-0.1-1-0.2-2
			c-2.4,1.1-5.2,1.9-8.4,2.5c-1.1,0.2-1.6-0.2-1.4-1.3c0-0.6,0.6-1,1.8-1.1c1.3-0.1,2.8-0.3,4.5-0.5c0.4-1.3,0.5-2.6,0.5-3.8
			c0-0.8,0.2-1.3,0.7-1.3C542.9,703.4,543.2,704.1,542.9,705.4z M541.4,699.8c-0.1,1.4,0,2.1,0.4,2l2.5,0.2c0.6,0.5,0.7,0.8,0.2,1.1
			c-0.2,0.1-0.7,0.2-1.3,0.2c-2.4-0.5-4.8-0.3-7.4,0.5c-0.5,0.1-0.7-0.1-0.7-0.5c0.2-1.1,0.7-1.5,1.4-1.4c1,0.2,1.7,0.3,2.2,0.2
			c0.4-0.1,0.5-0.8,0.4-2.2c0.1-0.5,0.4-0.7,0.7-0.7C540.5,699,541.1,699.3,541.4,699.8z M539.6,707.7c-0.2,0.4-0.5,0.4-0.9,0.2
			c-0.7-1.1-1.1-2-1.3-2.9s0.2-1.3,0.9-1.4c0.6-0.1,0.9,0.1,0.9,0.7C539.4,705.5,539.5,706.7,539.6,707.7z M549.7,707
			c-1.7-0.1-2.8,0-3.2,0.4c-0.4,0.8-0.4,1.7,0,2.5c0.1,0.6,1.4,0.8,4,0.5c1.1,0,1.6-0.6,1.6-1.8C552,707.5,551.3,706.9,549.7,707z"
			/>
	</g>
	
		<linearGradient id="SVGID_1_" gradientUnits="userSpaceOnUse" x1="415.5866" y1="237.6015" x2="415.5866" y2="237.6015" gradientTransform="matrix(1.0929 0 0 -1.0929 0 955.5428)">
		<stop  offset="0" style="stop-color:#C4BA98"/>
		<stop  offset="1.474962e-002" style="stop-color:#CEC5A9"/>
		<stop  offset="4.332456e-002" style="stop-color:#DDD7C4"/>
		<stop  offset="7.615717e-002" style="stop-color:#EAE6DA"/>
		<stop  offset="0.1145" style="stop-color:#F3F1EB"/>
		<stop  offset="0.162" style="stop-color:#FAF9F6"/>
		<stop  offset="0.2285" style="stop-color:#FEFEFD"/>
		<stop  offset="0.4133" style="stop-color:#FFFFFF"/>
		<stop  offset="0.4696" style="stop-color:#DDDBD8"/>
		<stop  offset="0.5499" style="stop-color:#B2AFA6"/>
		<stop  offset="0.6258" style="stop-color:#908B7F"/>
		<stop  offset="0.6952" style="stop-color:#787263"/>
		<stop  offset="0.7558" style="stop-color:#696252"/>
		<stop  offset="0.801" style="stop-color:#645D4C"/>
		<stop  offset="0.8499" style="stop-color:#776F5B"/>
		<stop  offset="0.9484" style="stop-color:#A89F82"/>
		<stop  offset="1" style="stop-color:#C4BA98"/>
	</linearGradient>
	
		<linearGradient id="SVGID_2_" gradientUnits="userSpaceOnUse" x1="415.5866" y1="237.6015" x2="415.5866" y2="237.6015" gradientTransform="matrix(1.0929 0 0 -1.0929 0 955.5428)">
		<stop  offset="0" style="stop-color:#C4BA98"/>
		<stop  offset="1.389108e-002" style="stop-color:#C7BD9D"/>
		<stop  offset="0.1655" style="stop-color:#E5E1D2"/>
		<stop  offset="0.2794" style="stop-color:#F8F7F3"/>
		<stop  offset="0.3418" style="stop-color:#FFFFFF"/>
		<stop  offset="0.4046" style="stop-color:#E1E0DC"/>
		<stop  offset="0.5083" style="stop-color:#B5B1A9"/>
		<stop  offset="0.6058" style="stop-color:#928D81"/>
		<stop  offset="0.6943" style="stop-color:#797364"/>
		<stop  offset="0.7708" style="stop-color:#696352"/>
		<stop  offset="0.8265" style="stop-color:#645D4C"/>
		<stop  offset="0.8691" style="stop-color:#776F5B"/>
		<stop  offset="0.955" style="stop-color:#A89F82"/>
		<stop  offset="1" style="stop-color:#C4BA98"/>
	</linearGradient>
	<path fill="url(#SVGID_1_)" stroke="url(#SVGID_2_)" stroke-width="0.5" stroke-miterlimit="10" d="M454.2,695.9"/>
	
		<linearGradient id="SVGID_3_" gradientUnits="userSpaceOnUse" x1="425.2386" y1="244.9101" x2="425.2386" y2="244.9101" gradientTransform="matrix(1.0929 0 0 -1.0929 0 955.5428)">
		<stop  offset="0" style="stop-color:#C4BA98"/>
		<stop  offset="1.474962e-002" style="stop-color:#CEC5A9"/>
		<stop  offset="4.332456e-002" style="stop-color:#DDD7C4"/>
		<stop  offset="7.615717e-002" style="stop-color:#EAE6DA"/>
		<stop  offset="0.1145" style="stop-color:#F3F1EB"/>
		<stop  offset="0.162" style="stop-color:#FAF9F6"/>
		<stop  offset="0.2285" style="stop-color:#FEFEFD"/>
		<stop  offset="0.4133" style="stop-color:#FFFFFF"/>
		<stop  offset="0.4696" style="stop-color:#DDDBD8"/>
		<stop  offset="0.5499" style="stop-color:#B2AFA6"/>
		<stop  offset="0.6258" style="stop-color:#908B7F"/>
		<stop  offset="0.6952" style="stop-color:#787263"/>
		<stop  offset="0.7558" style="stop-color:#696252"/>
		<stop  offset="0.801" style="stop-color:#645D4C"/>
		<stop  offset="0.8499" style="stop-color:#776F5B"/>
		<stop  offset="0.9484" style="stop-color:#A89F82"/>
		<stop  offset="1" style="stop-color:#C4BA98"/>
	</linearGradient>
	
		<linearGradient id="SVGID_4_" gradientUnits="userSpaceOnUse" x1="425.2386" y1="244.9101" x2="425.2386" y2="244.9101" gradientTransform="matrix(1.0929 0 0 -1.0929 0 955.5428)">
		<stop  offset="0" style="stop-color:#C4BA98"/>
		<stop  offset="1.389108e-002" style="stop-color:#C7BD9D"/>
		<stop  offset="0.1655" style="stop-color:#E5E1D2"/>
		<stop  offset="0.2794" style="stop-color:#F8F7F3"/>
		<stop  offset="0.3418" style="stop-color:#FFFFFF"/>
		<stop  offset="0.4046" style="stop-color:#E1E0DC"/>
		<stop  offset="0.5083" style="stop-color:#B5B1A9"/>
		<stop  offset="0.6058" style="stop-color:#928D81"/>
		<stop  offset="0.6943" style="stop-color:#797364"/>
		<stop  offset="0.7708" style="stop-color:#696352"/>
		<stop  offset="0.8265" style="stop-color:#645D4C"/>
		<stop  offset="0.8691" style="stop-color:#776F5B"/>
		<stop  offset="0.955" style="stop-color:#A89F82"/>
		<stop  offset="1" style="stop-color:#C4BA98"/>
	</linearGradient>
	<path fill="url(#SVGID_3_)" stroke="url(#SVGID_4_)" stroke-width="0.5" stroke-miterlimit="10" d="M464.7,687.9"/>
	<g>
		<g>
			<path fill="#C4BA98" stroke="#000000" stroke-width="0.5" stroke-miterlimit="10" d="M460.1,678.2h-6.9v5.4h3.8v3.8h-3.8v6.6
				l-2.1,0.9v-20.4h9V678.2"/>
			<path fill="#C4BA98" stroke="#000000" stroke-width="0.5" stroke-miterlimit="10" d="M462.6,691.5v-1v-15.8h7.6
				c0.7,0,1.2,0.3,1.5,0.9c0.3,0.6,0.5,1.6,0.5,3v4.8c0,1.4-0.2,2.4-0.5,3c-0.3,0.6-0.8,1-1.5,1h-1.2l4.1,7.8h-3l-3.6-7.8h-2v2.6
				v1.2L462.6,691.5z M469.3,678.2h-4.7v5.7h4.6c0.4,0,0.6-0.1,0.7-0.4c0.1-0.2,0.2-0.7,0.2-1.3v-2.5c0-0.6-0.1-1-0.2-1.2
				C469.9,678.3,469.7,678.2,469.3,678.2z"/>
			<path fill="#C4BA98" stroke="#000000" stroke-width="0.5" stroke-miterlimit="10" d="M476.4,695.2v-20.6h2.1v20.6H476.4z"/>
			<path fill="#C4BA98" stroke="#000000" stroke-width="0.5" stroke-miterlimit="10" d="M483,695.2v-20.6h9.1v3.5h-7v4.6h4.1v3.5
				h-4.1v5.1h7.1v3.9L483,695.2L483,695.2z"/>
			<path fill="#C4BA98" stroke="#000000" stroke-width="0.5" stroke-miterlimit="10" d="M496,695.2v-20.6h1.4l6.3,12.1
				c0.2,0.4,0.4,0.8,0.6,1.1s0.3,0.7,0.5,1.1c0-1.2-0.1-2-0.1-2.5c0-0.5,0-0.8,0-1.1v-10.8h1.9v20.6h-1.4l-6.5-12.7
				c-0.2-0.3-0.3-0.6-0.4-0.9c-0.1-0.3-0.2-0.5-0.3-0.8c0,0.6,0.1,1.2,0.1,1.8c0,0.6,0,1.1,0,1.5v11.1H496L496,695.2z"/>
			<path fill="#C4BA98" stroke="#000000" stroke-width="0.5" stroke-miterlimit="10" d="M511,695.2v-20.6h5.7c1.6,0,2.9,0.9,3.8,2.6
				c0.9,1.8,1.3,4.3,1.3,7.5c0,1.9-0.2,3.7-0.5,5.2c-0.3,1.5-0.8,2.7-1.4,3.6c-0.4,0.6-0.9,1-1.4,1.2c-0.6,0.3-1.3,0.4-2.2,0.4
				L511,695.2L511,695.2z M513.1,691.3h2.7c1.4,0,2.4-0.5,3-1.5c0.6-1,0.9-2.7,0.9-5.1c0-2.1-0.3-3.7-0.7-4.8
				c-0.5-1.1-1.2-1.6-2.2-1.6h-3.7L513.1,691.3L513.1,691.3z"/>
			<path fill="#C4BA98" stroke="#000000" stroke-width="0.5" stroke-miterlimit="10" d="M533.3,678.2h-5.8v4.4h5.6
				c0.9,0,1.4,0.4,1.7,1c0.3,0.7,0.5,2,0.5,3.8v2.8c0,1.9-0.2,3.1-0.5,3.8c-0.3,0.7-0.9,1-1.7,1h-5.5c-0.9,0-1.4-0.4-1.7-1
				s-0.5-2-0.5-3.8v-0.6l1.8-0.9v2.4h6.3v-4.7h-5.6c-0.9,0-1.4-0.4-1.7-1c-0.3-0.7-0.5-2-0.5-3.8v-2.3c0-1.9,0.2-3.1,0.5-3.8
				s0.9-1,1.7-1h5c0.8,0,1.4,0.3,1.7,1s0.5,1.8,0.5,3.5v0.4l-1.8,1V678.2L533.3,678.2z"/>
			<path fill="#C4BA98" stroke="#000000" stroke-width="0.5" stroke-miterlimit="10" d="M548.1,692.1v-5.8h-6.5v8.1l-2.1,0.7v-20.6
				h2.1v8h6.5v-8h2.1v16.7L548.1,692.1z"/>
			<path fill="#C4BA98" stroke="#000000" stroke-width="0.5" stroke-miterlimit="10" d="M554.7,695.2v-20.6h2.1v20.6H554.7z"/>
			<path fill="#C4BA98" stroke="#000000" stroke-width="0.5" stroke-miterlimit="10" d="M561.3,695.2v-20.6h7.6
				c0.7,0,1.2,0.3,1.5,0.9c0.3,0.6,0.5,1.6,0.5,3v4.6c0,1.4-0.2,2.4-0.5,3c-0.3,0.6-0.8,0.9-1.5,0.9h-5.6v7.1L561.3,695.2z
				 M568,678.2h-4.7v5.5h4.6c0.4,0,0.6-0.1,0.7-0.4s0.2-0.7,0.2-1.3v-2.2c0-0.6-0.1-1-0.2-1.2C568.6,678.3,568.4,678.2,568,678.2z"
				/>
		</g>
	</g>
</g>
</svg>
