<?xml version="1.0" encoding="utf-8"?>
<!-- Generator: Adobe Illustrator 18.1.1, SVG Export Plug-In . SVG Version: 6.00 Build 0)  -->
<svg version="1.1" id="图层_1" xmlns="http://www.w3.org/2000/svg" xmlns:xlink="http://www.w3.org/1999/xlink" x="0px" y="0px"
	 viewBox="0 0 560 560" enable-background="new 0 0 560 560" xml:space="preserve">
	 <style type="text/css">
	.st0{fill:#FFFFFF;}
</style>
<g>
	<g>
		<path class="st0" d="M164.7,355.1c0.2,0.9,0.4,1.4,0.5,2c0.6,3.1-0.2,4.2-3.3,4.5c-3.4,0.4-6.7,1.1-9.9,2c4.5,1.5,8.7-0.1,13.1-1
			c0.6,0.5,0.5,1.2,0.7,1.8c0.8,3.9-0.1,5-4.1,5.4c-3.9,0.3-7.8,0.8-11.7,1.5c5.4,1.8,10.7,0.6,16.2-0.6c1,3.5,1.4,7.1,1.9,10.6
			c2.1,12.8,3.9,25.7,7.8,38.1c1.2,3.9,2.6,7.8,4.9,11.5c0.2-1.6,0.4-3.1,0.4-4.7c0.3-12.4-1.3-24.7-3.4-36.9
			c-2.3-13.4-5.1-26.8-6.8-40.3c-4.3-33.2,0.2-64.7,17.5-93.8c2.9-4.9,6.4-9.3,10.6-13.2c4.3-3.9,8.9-5.5,14.5-2.9
			c0.2,0.1,0.6,0.1,0.9,0.1c-1.6-3.2-7.1-4.6-11.4-3c-4.1,1.5-6.7,5-9.8,7.9c-0.8-1.4-0.1-2.4,0.5-3.4c3.7-6.6,7.7-13.1,11.2-19.9
			c5.9-11.5,12.6-22.5,20.2-32.9c12.3-16.9,25.2-33.3,40.3-47.9c4.6-4.5,7.2-4.5,11.7,0.3c6.5,6.9,12.7,14,19.5,20.5
			c4.6,4.4,9.2,8.7,13.9,13.2c-2.2,1.2-4.2,0.7-6.2,0.1c-10.2-2.8-20.6-3.9-31.1-3.7c-9.6,0.1-19.1,1.8-28.5,3.6
			c-1.5,0.3-3,0.5-4.5,0.6c-2.5,0.2-4.5,1.3-6.2,3.2c0.6,0.8,1.2,0.4,1.7,0.3c16-5,32.3-5.3,48.8-4.6c8.9,0.4,17.8,1.2,26.4,3.4
			c1.7,0.4,3.4,1,4.2,2.7c5.8,11.7,14.5,21.3,22.2,31.6c7.7,10.3,14.8,21.1,22,31.8c0.2,0.3,0.6,0.5,0.2,1.2
			c-11.2-6.4-23.6-9.7-36-14c3.6-2.7,8.1-3.5,10.7-7.2c-3.4,1.6-6.8,3.1-10.1,4.8c-2.4,1.3-4.8,1.5-7.4,0.7
			c-2.7-0.8-5.4-1.4-8.5-2.2c4.9-7.3,10.3-14,14.3-21.9c-1.4,0.2-1.8,1.1-2.4,1.9c-3.9,5.6-7.9,11.2-11.7,16.9
			c-1.6,2.3-3.3,3.2-6.1,2.5c-1.7-0.4-3.4-0.5-5.3-0.7c1.6-8.8,4.1-17.2,5.8-25.8c-2.1,3.6-3.3,7.5-4.3,11.5
			c-0.9,3.4-1.6,6.9-2.3,10.4c-0.8,3.7-0.7,3.7-4.6,4.5c3,8.8,5.3,17.7,6,27c-0.5-1.9-1-3.7-1.4-5.6c-0.5-1.9-0.9-3.8-1.4-5.7
			c-1-4.3-2.6-8.5-4.7-12.4c-1.5-2.8-3.6-4.4-6.9-3.9c-0.7,0.1-1.5,0-2.4-0.1c-0.1-9,1.4-17.7,1.8-26.8c-0.9,1-1,2-1.2,2.9
			c-0.3,0.9-0.4,1.9-0.6,2.9c-1.1,6.3-1.6,12.6-2.2,18.9c-0.1,1.6-0.6,2.3-2.3,2.3c-1.8,0-1.7-1.2-1.7-2.4c0-11.6-2.3-22.9-4.4-34.3
			c-0.1-0.4-0.3-0.8-0.5-1.4c-0.8,0.9-0.4,1.8-0.3,2.5c1.3,11,2.3,22,2.5,33.2c0,2.1-0.4,3.2-2.7,2.9c-2.4-0.2-3.7,1.3-4.4,3.4
			c-3.3,10.2-6.5,20.4-6.9,31.3c0,0.4-0.1,0.7-0.2,1.3c-1.5-6-0.3-11.8,0.3-17.5c0.5-4.9,1.1-9.9,2.6-14.7c0.2-0.7,0.4-1.4-0.1-2.1
			c-2.2-3-2.8-6.5-3.5-9.9c-0.6-3.2-1.5-6.3-3.2-9c0.6,6.4,2.9,12.4,4.2,18.6c-4.4,2.5-6.8,1.9-9.2-2.3c-2.5-4.5-4.8-9.1-7.8-13.2
			c1.8,6.3,5.6,11.6,8.6,17.7c-5.3,0.3-6.5,4.5-8.2,8.3c-2.6,6-4.4,12.4-6.1,18.7c-0.3,1.1-0.7,2.1-1.1,3.2
			c0.4-5.9,1.7-11.6,3.6-17.2c1-2.9,2.2-5.8,3.4-8.6c0.3-0.8,0.9-1.5-0.1-2.2c-5.9-4.2-10.2-10-15.6-14.7c-1.2-1.1-2.4-2.2-4-2.7
			c4.4,6.8,10.4,12.2,15.8,18.4c-3.3,1.1-4.1,3.8-4.7,6.5c-1,4.2-2,8.5-3.1,12.7c-0.2-5.7,1.2-11.1,2.5-17c-3.5,1.4-6,0-8.6-1.7
			c-5.7-3.8-11.6-7.3-17.6-10.7c5.8,6,13.1,9.8,20.2,14c-0.9,1-2.2,1.4-3.4,1.8c-8,2.6-13.6,8.1-18.5,14.6
			c-10.4,13.9-15.3,29.6-15.9,46.8c-0.7,19.8,1.3,39.5,3.4,59.2c1.8,16.9,3.9,33.7,4.2,50.7c0.3,12.8-1.1,25.5-3.8,38
			c-2.6,12-2.8,24.1-2.2,36.2c0.2,3.8,0.4,7.5,1,11.3c1,5.8,3.2,11.1,6.6,15.9c0.7,1,1.4,1.9,1.9,3.1c-2.9-1.3-4.9-3.5-6.5-6.2
			c-4.1-6.9-7.1-14.1-9.1-21.8c-2.7-10-3.3-20.2-3-30.5c0.2-8.8-0.9-17.3-4.5-25.4c-0.8-1.9-1.8-2.6-3.9-2.4
			c-11.3,1.3-22-1.4-32.6-5c-1.3-0.4-2.5-1.3-2.7-2.8c-0.7-4-1.9-7.9-3-12.3c10.8,5.3,21.7,7.1,33.1,4.4c-3.2-0.1-6.3-0.2-9.5-0.4
			c-6.8-0.3-13.3-1.5-19.7-3.7c-4.3-1.5-4.8-2.3-4.3-7.3c11.3,4.3,22.7,6.8,35.1,3.4c-1.6-1.2-2.9-0.7-4-0.6
			c-9.4,1.2-18.5-0.3-27.5-2.8c-4-1.1-4.7-1.9-5.1-6.1c-1.5-12.6-1-25.2,2.2-37.5c2.1-7.9,6.4-14.7,10.9-21.5
			c6.2-9.2,13.3-17.8,19-27.3c0.8-1.3,1.6-2.5,1.5-4.2c-1.2,1.8-2.5,3.7-3.7,5.5c-6.5,9.3-13.9,17.9-20.4,27.2
			c-7.5,10.8-11.6,22.5-12.6,35.8c-0.6,8.1,0.1,15.9,0.8,23.8c0.2,2-0.1,3.2-2.2,4.1c-7,3.1-13.4,7.2-19.6,11.6
			c-1,0.7-1.8,1.6-3.1,1.9c-1.4-1.8-1.6-3.8-1.7-5.9c-0.5-14.1,3.3-27.1,10.2-39.1c7.2-12.5,16.6-23.6,25.8-34.6
			c8-9.6,16.7-18.7,23.5-29.3c1.7-2.6,2.7-5.3,2.8-8.4c0-4.3,2.1-8,3.7-11.8c4-9.5,9.4-18.2,14.9-26.9c2.2-3.4,4.4-6.8,6.7-10.4
			c0.5,1.3-0.3,1.8-0.7,2.5c-6.5,10.4-11.7,21.4-16.5,32.7c-4,9.3-4.8,19.4-6,29.4c-0.9,7.6-1.8,15.1-2.6,22.7c-0.4,4-0.1,8-0.8,12
			c-3.5,0.7-7,1.5-10.4,2.2c3.5,1.6,6.9,0.6,10.5-0.3c0.5,1.7,0.3,3.3,0.2,4.8c-0.1,1.1-1.1,1.1-1.8,1.3c-3.3,0.9-6.7,0.6-10.1,1.3
			c-0.7,0.2-1.4,0.3-2.1,0.7C155.3,357.3,159.9,356.1,164.7,355.1z M138.1,413c5.7,4.9,23.1,8.4,27.9,5.7
			C156.4,418.3,147.5,416,138.1,413z M142.1,396c5.5,4.4,21.8,4.3,24.6,0.2C158.6,398.1,150.6,397.6,142.1,396z M164.2,383.2
			c-5.9,1.1-11.9,1.3-17.8,2C152.6,386.3,158.7,387,164.2,383.2z M165,391.5c-5.3,0.5-10.5,1-15.8,1.4c0,0.2,0,0.4,0.1,0.6
			C154.6,394.2,160,394.1,165,391.5z M165.8,377.2c-0.1-0.3-0.1-0.6-0.2-0.9c-4.6,0.9-9.1,1.7-13.7,2.6
			C156.8,379.7,161.4,379.2,165.8,377.2z"/>
		<path class="st0" d="M468.1,367c2.1,0.3,4.1,1.1,5.9-0.6c0.2-0.6-0.3-0.8-0.6-1.1c-8.9-6.4-16.1-14.6-22.8-23.2c-4.8-6.2-9.9-12-15.6-17.2
			c-13.6-12.4-24.9-26.7-36.2-41c-14.1-17.9-28.3-35.7-42.7-53.4c-4.3-5.3-8.3-10.7-11.7-16.6c-5.3-9.3-12.4-17.4-18.8-26
			c-0.5-0.7-1-1.3-1.7-2.3c2.4,0.4,3.9,2.5,6.5,1.8c-2.5-2.7-4.7-5.3-7.1-7.8c-10.5-10.9-22.2-20.7-32.9-31.5
			c-4.6-4.7-9-9.6-13-14.8c-0.4-0.5-0.9-0.8-0.9-1.5c0.1-0.1,0.1-0.1,0.2-0.2c13.8-5.1,17.1-18.8,15.8-30.8
			c-0.5-4.6-1.6-9.1-4.1-13.1c-4.6-7.3-12.7-10.1-21.4-7.6c-6,1.8-11.2,4.9-14.7,10.3c-0.2,0.2-0.4,0.4-0.7,0.7c-1.3-3-1.9-6-2.3-9
			c-0.9-7.9-0.7-15.8,0.6-23.7c0.6-3.5,2.5-6.3,5.6-7.7c9.3-4.2,19-6.2,29.3-5.2c2.8,0.3,5.3,1.6,7.9,2.7c1.5,0.7,2.3,2.1,2.6,3.7
			c2.9,13.6,3.2,27.2,1,40.9c-0.1,0.4-0.2,0.9-0.3,1.3c-0.1,0.4-0.4,0.8-0.6,1.4c1.5,1.3,3,2.6,4.5,4c15.2,14.2,29.2,29.5,41.8,46
			c11,14.4,22.8,28.2,35.6,41c5.2,5.1,9.3,11,13.1,17.2c4.6,7.5,9.4,14.8,15.1,21.4c6.8,7.9,11.6,16.8,15.2,26.6
			c5.6,15.5,15.3,28.1,28.1,38.4c12.8,10.3,23.3,22.5,31.3,36.9c4.2,7.7,9.2,14.9,13.3,22.6c2.9,5.4,4,11.2,2.5,17.3
			c-0.1,0.3-0.2,0.6-0.3,0.8c0,0.1-0.1,0.1-0.4,0.3c-0.2-0.7-0.5-1.4-0.5-2c-0.1-1.4-0.5-2.7-1.9-3.3c-1.5-0.7-2,0.9-3,1.5
			c-0.6,0-1-0.4-1.4-0.7c-0.6-0.6-1.3-1.2-2.2-0.4c-0.8,0.7-0.4,1.5-0.2,2.3c1.2,3.4,2.9,6.5,4.7,9.7c-2,1.3-1.7,2.9-1.3,4.8
			c0.4,2.4,0.5,4.8,0.6,7.2c0.2,2.3,0.9,4.4,2.1,6.4c0.8,1.4,1.8,2.6,3.6,2.7c0.2,1.9-0.5,3.2-1.8,4.3c-4.1,3.5-10.9,4.1-15.5,1.5
			c-1.6-0.9-3-2-3.7-3.8c-3.4-9.1-6.2-18.3-6.9-28C467.6,369.1,467.6,368.1,468.1,367z M322.8,134.8c0.4-1.2-0.5-1.9-1.1-2.8
			c-3.2-5.3-8.7-8.9-11.4-14.8c-0.5-1-1.5-1.7-2.5-2.2c-1.7-0.7-3.5-1.4-5.2-2.2c-0.9-0.4-1.7-0.5-2.4,0.4c-0.6,0.9-0.5,1.7,0.1,2.5
			c1.1,1.3,2.1,2.6,3.3,3.7c11.5,10.7,21.9,22.2,29.6,36c3,5.5,7,10.2,12.2,13.8c0.7,0.5,1.4,0.9,2.2,0.2c0.8-0.6,0.7-1.5,0.3-2.2
			c-0.6-1-1.1-2-1.9-2.8c-2.5-2.3-4.2-5.1-6-7.9c-4.8-7.3-9.5-14.5-16.5-19.9C322.9,136.3,322.3,135.8,322.8,134.8z M364.9,190.9
			c0.6-1.3,1.8-2.4,1.3-4c-0.9-3-6.7-6.1-10-5.1c1.9,1.4,3.7,2.7,5.7,4.1c-0.7,0.4-1.1,0.6-1.5,0.8c-3.7,1.7-3.9,4.2-0.6,6.5
			c0.7,0.5,1.4,0.9,2.1,1.3c4,2.4,8,4.7,12.2,7.2c-1.1,1.7-0.1,2.7,1,3.8c2.7,2.7,6,4.9,7.8,8.4c2.5,4.8,7,7.5,11,10.9
			c0.7,0.6,1.5,0.6,2.3,0c0.8-0.6,1.1-1.4,0.6-2.4c-0.3-0.8-0.8-1.5-1.3-2.1c-1.7-2-3.7-3.7-5.7-5.5c-0.5-0.4-1.2-0.7-1.2-1.5
			c0.1-3-1.7-4.8-4-6.2C377.4,202.5,371.8,196,364.9,190.9z M462.5,316.5c1.4-2.5-0.3-3.6-2.2-4.7c-0.8-0.5-2.3-0.6-2.2-1.7
			c0.4-2.8-1.6-3.8-3.4-5.1c-0.6-0.4-1.4-0.7-1.4-1.6c0-2.1-1.4-3.1-2.9-4c-1.8-1.1-3.7-2.2-5.6-3.3c1.8-2.2,1.7-2.7-0.3-4.7
			c-2.4-2.3-5.2-3.6-8.4-3.9c-1-0.1-2.1-0.4-2.5,0.8c-0.5,1.3,0.5,1.9,1.4,2.5c2.2,1.4,4.5,2.7,6.9,4.2c-2.5,1.3-1.6,2.5-0.2,3.7
			c1.2,1,2.4,2.1,3.6,3.2c-1.3,1.8-0.4,2.8,1.1,3.8c2.6,1.7,5.4,3.1,8.3,4.4c-1.5,1.9-1.5,2.5,0.2,3.8c1.5,1.2,3.3,2.1,5.1,3.2
			c-1.8,2-0.5,3,1.2,3.9c1.6,0.9,3.3,1.3,5.2,1.4c1.1,0,2-0.1,2.4-1.3c0.4-1.2-0.4-1.9-1.3-2.6C465.9,317.5,464.1,317.5,462.5,316.5
			z M408.5,247.2c-0.6,2.2,0.1,3.7,1.6,5c1.5,1.3,3.3,2.2,2.6,4.9c-0.3,1.2,1.1,2,2.3,2.4c1,0.3,2,0.3,2.1-0.9
			c0.1-2.9,0.6-6-2.3-8.1c-0.8-0.6-1.4-1.3-2.1-2c1.4-2.4,1.2-3.3-1.2-4.9c-3.5-2.3-6-5.3-7.2-9.4c-1-3.6-4-5.7-6.9-7.8
			c-0.6-0.4-1.3-0.5-1.9,0.1c-0.6,0.5-0.4,1.1-0.1,1.6c2.1,4.2,4.1,8.4,6.3,12.5C403.2,243.5,405.2,245.8,408.5,247.2z M488.7,359.9
			c-0.4-3.6-1.3-6.8-3.6-9.4c2.4-3.7,2.4-4.3-0.7-7.4c-1.3-1.3-2.7-2.6-4.3-4c1.9-1.2,1.3-2.4,0.5-3.6c-2.3-3.4-5.3-5.9-8.7-8.1
			c-1.1-0.7-2.2-1.3-3.2,0c-1,1.2-0.1,2.1,0.7,2.9c2.2,2.5,4.9,4.5,7.5,6.5c0.4,0.3,1.2,0.8,1.1,1c-0.6,2.3,1.5,3.1,2.3,4.5
			c0.6,1.1,1.6,1.9,1.8,3.2c-0.3,0.1-0.5,0.3-0.7,0.3c-1.5,0.4-3.2,0.6-3.6,2.6c-0.4,2,1,3,2.3,4.1c2.3,1.8,4.4,3.6,6,6.1
			C486.7,359.4,487.4,360,488.7,359.9z M430.3,283.5c0.9-0.1,2.3,0.3,2.7-1.2c0.5-1.5-0.5-2.3-1.7-2.8c-5.1-2.4-7.3-7-9.2-11.9
			c-0.4-1.1-1-1.6-2.1-1.7c-1.2-0.1-1.8,0.5-2.1,1.6c-1.3,3.7-0.4,5.7,3.2,7.2c0.9,0.4,1.9,0.5,2,2
			C423.2,280.9,426,283.4,430.3,283.5z M357.7,177.1c-0.1-2.2-4.4-6.8-6.4-7.1c-1.4-0.2-2.4,0.9-1.9,2.2c1.3,2.9,3.5,4.8,6.4,6
			C356.9,178.5,357.6,178.1,357.7,177.1z M253.8,58c4.3-2.7,9.4-3.3,14.4-5.3C262.4,51.8,255.4,54.4,253.8,58z M417.1,260.1
			c-1.2-0.1-1.9,0.7-2,2c-0.1,1.5,1.4,2.9,3.1,2.9c1.3,0,2.2-0.5,2.2-2C420.4,261.4,419.1,260.1,417.1,260.1z M255.2,60.9
			c3.7-1.4,7.2-2.7,10.8-4.1C259.9,56.3,256,57.8,255.2,60.9z M254.2,65.6c3-2.2,6.5-2.7,9.8-4.9C258.6,60.6,255.2,62.3,254.2,65.6z
			 M253.5,81.4c2-3.3,5.2-4.6,7.7-7.2C256.7,74.7,253.6,77.5,253.5,81.4z M260.7,69.4c-4.9,0.6-7.4,2.5-7.6,6
			C255.5,73,258.2,71.4,260.7,69.4z M261,64.4c-5.5,0.4-7.2,1.6-6.6,4.5C256.1,66.9,258.6,66.2,261,64.4z"/>
		<path class="st0" d="M132.4,300.4c-1.9-2.1-1.8-4.6-1.2-7.2c3.8-17.8,10.8-34.3,19.1-50.4c11.1-21.2,24-41.2,37.2-61
			c11.1-16.6,21.6-33.7,32.3-50.5c7.7-12,17.1-22.6,26.9-32.9c1.2-1.2,2.3-2.5,3.6-3.9c0.2,1.7-0.4,3-0.9,4.3
			c-1.7,4.4-2.6,8.8-1.9,13.5c1.1,7.1,4.9,12.2,11.1,15.6c3,1.7,6.2,2.6,9.3,4c-0.2,1.1-1,1.6-1.5,2.1c-9.9,11-20.4,21.4-30.5,32.2
			c-14.2,15.1-25.1,32.4-34.3,50.9c-5.2,10.4-11.2,20.3-17.7,30c-9.9,14.5-17.5,30.1-23.5,46.5c-2.8,7.8-10.3,12.3-18.5,11.3
			c-1.4-0.2-2.5-0.3-2.4-2.2c0-1.2-1.1-1.9-1.9-2.6c-0.2-0.6,0.3-0.9,0.4-1.3c0.6-1.5-0.2-2.4-1.5-2.8c-1.3-0.3-2.3,0.4-2.3,1.8
			C134.1,299.1,134,300.1,132.4,300.4z M150.2,259.1c1.7,0.8,3.4,0.3,4.1-1.2c2.4-4.5,6-8.4,7.3-13.5c0.2-0.7,0.3-1.3,1.1-1.5
			c1.7-0.4,2.5-1.6,3-3.1c0.7-2,2-3.7,3.3-5.3c1.5-1.8,3-3.6,3.7-5.9c0.2-0.6,0.5-1,1.2-1.2c1.4-0.3,2-1.5,2.5-2.7
			c0.6-1.7,1.1-3.5,1.7-5.2c0.7-1.9,1.8-3.8,3.7-4.4c2.7-0.8,3.5-2.8,3.9-5.2c0.3-1.3,0.7-2.6,0.8-4c0.1-2.3,0.7-4.7-0.7-7.2
			c-2.9,2.4-4.8,5.3-6.6,8.2c-2.8,4.4-4.2,9.5-7.5,13.7c-2,2.5-3.5,5.3-4.4,8.4c-0.2,0.6-0.4,1.1-0.9,1.5c-2.7,1.8-3.8,4.6-4.6,7.5
			c-0.3,1.1-0.2,2.5-1.1,3.1c-4,2.9-5.9,7.4-8.5,11.3C150.8,254.6,150.1,256.7,150.2,259.1c-3.3,1.6-4.9,5.1-3.7,8.4
			c0.2,0.6,0.6,1.3,1.4,1.4c0.7,0.1,1.3-0.3,1.7-1C151,265.1,151.8,262.2,150.2,259.1z M237.2,128.7c1.4,0,2.4,1.2,3.4,0.1
			c1-1.2,0.5-2.4,0-3.6c-0.7-1.7-1.5-3.3-2.3-4.9c-0.4-0.9-0.9-1.8-2.1-1.7c-1.2,0.2-1.7,1.2-1.9,2.3c-0.4,2.4-1.7,4.3-3.4,6
			c-2.2,2.2-4.1,4.6-5.9,7.1c-1.9,2.8-3.3,5.9-5.5,8.5c-2.4,3-4.7,6-5.5,9.9c-3.1,0-3.9,0.4-4.2,3.6c-0.4,4.7-2.8,8.1-5.4,11.7
			c-2.2,3-4.4,6-5.4,9.6c-1.1,4-3.4,6.8-6.6,9.3c-2.9,2.2-5.1,5.2-5.3,9.1c-0.1,1.1,0.2,2.1,1.5,2.5c1.3,0.4,2.2-0.2,2.8-1.3
			c0.4-0.7,0.5-1.8,1.3-2c2.2-0.6,3.2-2.4,4.1-4.2c0.3-0.6,0.8-1.1,1.5-1.3c1.2-0.3,1.9-1.1,2.5-2.1c1.1-2,2.3-4.1,3.4-6.1
			c1-1.9,2.2-3.7,4-4.8c1.2-0.8,1.9-1.8,2.2-3.2c0.9-3.6,1.9-7.3,4.6-9.9c2.2-2.1,2.9-4.6,3.4-7.4c0.6-3.3,1.8-6.3,4.5-8.4
			c2.3-1.8,3.8-4,4.7-6.7c0.3-0.7,0.4-1.6,1.1-2.1c2.6,0.5,3.6-0.3,4-3.4c0.1-0.8-0.1-1.9,0.9-2.1
			C236,132.4,236.6,130.6,237.2,128.7z M144.5,285.2c-0.1-1.2-0.7-1.9-2-1.9c-1.2,0-2,0.5-2,1.9c0,1.4,0.8,1.9,1.9,2
			C143.6,287.2,144.3,286.4,144.5,285.2z"/>
		<path class="st0" d="M128.7,300.7c0.4,1.6,0.2,3.3,1.2,4.8c-1,1.1-2.3,1.9-2.3,3.6c0,0.9-0.9,1.1-1.6,1.5c-4.6,2.5-7.8,6.3-10.4,10.8
			c-0.3,0.5-0.5,0.9-0.7,1.4c-0.5,1.2-0.2,2.2,0.9,2.9c1.2,0.7,2.2,0.2,2.9-0.8c2.7-3.9,5.6-7.5,8.7-11c1-1.2,1.9-2.3,3.6-2.6
			c1.8-0.3,1.2-2.2,1.8-3.6c8.3,6,15.5,1.9,23-3.1c-0.7,2.2-1.6,3.5-2.6,4.8c-9.2,11.3-18.7,22.3-27.5,33.9
			c-6.5,8.6-13.7,16.8-18.4,26.6c-7.7,16-10.6,32.8-7.6,50.4c0.4,2.3-0.1,4-2,5.3c-1.7,1.1-3.3,2.4-5.1,3.4
			c-7.1,4.1-15.7,0.4-17.7-7.6c-0.9-3.5-0.8-7-0.8-10.6c0.2-24.2,7.2-46.5,20-67c2.5-4,4.7-8.2,7-12.4c6.4-11.7,15.2-21.3,25.7-29.5
			C127.2,301.3,127.8,300.7,128.7,300.7z M106,340.9c0-1.6,0.1-2.6-1.2-2.9c-1.1-0.3-1.9,0.3-2.5,1.2c-0.9,1.3-1,3.1-2.3,4.1
			c-1.9,1.4-2.8,3.3-3.5,5.4c-1.2,3.6-1.5,7.5-3.7,10.8c-0.9,1.4,0.3,3.3,2,3.4c1.9,0.2,2.6-1.2,2.9-2.6c0.7-3.6,3-6.6,3.5-10.2
			c0-0.4,0.4-0.8,0.8-1C105.3,347,105.4,343.5,106,340.9z M79.8,396.8c0,0.3,0,0.6,0,0.9c-0.1,1.5,0.2,2.8,1.9,3
			c1.8,0.2,2.5-0.9,2.7-2.6c0.2-2.6,1.1-5.1,1.9-7.6c0.9-3,0.8-5.9-0.6-8.8c-0.3-0.5-0.5-1.1-1.3-1c-0.6,0.1-0.9,0.5-1.1,1
			C81.8,386.7,80.1,391.6,79.8,396.8z M112.5,326.6c-1.3,0.4-2.3,0.7-3.4,1.2c-1.4,0.6-2.5,1.5-2.6,3.1c-0.1,2.3-0.1,4.7-0.1,7
			c0,1.1,0.2,2.2,1.2,3c1-0.7,1.2-1.8,1.4-2.8c0.5-2,1.1-3.8,3.5-4.2c0.7-0.1,1-0.8,0.9-1.4C113.4,330.6,113.6,328.6,112.5,326.6z
			 M83,414.2c0.6-2.1-0.6-4.2-0.1-6.4c0.8-3.8-0.8-6-4.9-7.1c0.7,2.5,0.3,5,0.1,7.4C77.9,411.4,79.7,413.4,83,414.2z M91,373.2
			c0.2-1.2-0.2-2.4-0.4-3.6c-0.2-0.8-0.6-1.4-1.4-1.5c-1-0.1-1.5,0.5-1.9,1.3c-1.2,2.7-1.4,5.7-1.5,8.6c0,1.1,0.5,2,1.8,2.2
			c1.2,0.1,2-0.4,2.5-1.5C90.8,376.9,90.9,375.1,91,373.2z M83.3,422.9c1.6,0,2.5-1.1,2-2.6c-0.5-1.7-1.6-2.9-3.1-3.6
			c-1.2-0.6-2.4-0.4-2.8,1.1C78.8,419.9,81.1,422.9,83.3,422.9z"/>
		<path class="st0" d="M420.7,390.2c-6.7,0.8-13.4,1.2-20,1.1c-0.9-4-0.1-5,3.5-5.3c6-0.4,9.1-1.2,11.9-3c-5.2,0.2-9.8,1.5-14.5,1.5
			c-0.1-0.2-0.3-0.3-0.3-0.4c0.4-4.6,1-9.1,2.6-13.5c1.1-3,3.6-4.6,6.7-5.2c1.8-0.4,3.3-1.1,4.3-3.4c-3.5,1.5-6.6,2.8-10,4.3
			c0.7-3.5,0.4-7,4.1-8.6c-0.6-0.9-1.4-0.3-2.1-1c3.8-17.5,2-35.2,0.7-53.1c1.2,0.3,1.5,1.3,2.1,1.9c7.4,7.5,12.6,16.4,16.4,26.3
			c3.7,9.6,7.8,19,9.4,29.2c1.5,8.9,0.8,17.8,0.5,26.7c0,1.8-0.2,3.6-0.2,5.4c0,1.5-0.8,2.5-2.2,3.1c-10.6,4.5-21.8,6.6-33.3,6.3
			c-1.1,0-1.9-0.2-1.8-1.6c0.1-1.5,0.8-1.7,2.1-1.6c4.1,0.2,8.1,0.6,12.2,0c2.8-0.4,5.4-1.2,7.5-3.1c-6,1.7-12,1.9-18.2,1.6
			c-3.2-0.1-3.4-0.2-2.7-3.4c0.1-0.6,0.1-1.2,0.7-1.9C407,392.9,414.1,393.5,420.7,390.2z M415.1,375.1c-4.5,1.3-8.6,2.1-12.4,4
			C406.1,380.2,413,378,415.1,375.1z M414.5,371.4c-0.1-0.3-0.2-0.6-0.3-0.9c-2.8,0.9-5.6,1.8-8.5,2.8c0.1,0.2,0.1,0.4,0.2,0.6
			C409.1,373.9,412.1,373.9,414.5,371.4z"/>
		<path class="st0" d="M221,505.8c-0.2-1.9-1.2-2.4-2.5-2.3c-2.1,0.1-4.4-0.2-6.3,0.5c-5.2,1.8-10.1-0.5-15.2-0.7c-0.8,0-1.2-0.6-1.4-1.3
			c-0.6-1.9-1.3-3.9-1.5-6.1c5.6,0.1,11-0.6,16.5-1.8c-0.4-1.8-1.5-2-2.9-1.8c-3.6,0.5-7.2,1.1-10.8,1.1c-2.6,0-3.6-0.8-4-3.3
			c-0.4-2.3-0.5-4.6-0.8-7c-0.1-1.2,0.5-1.6,1.5-1.9c2.4-0.7,4.4,0.1,6.3,1.5c1.4,1.1,2.6,2.5,5,3.1c-5.7-8.7-10.6-17.4-12.8-27.4
			c0.8,0.2,0.8,0.7,1,1.2c4.9,13,12.5,24.2,21.5,34.6c9.9,11.5,20.9,21.9,31.7,32.6c1.7,1.7,3.6,3.2,6.3,4.8
			c-4.7-9.2-4.1-18.6-3.6-28c0.6,3.5,1.2,7.1,1.9,10.6c1.3,6.9,3.9,13.4,7,19.8c1,2,2.5,3.5,4.5,4.2c9.5,3.6,19.1,5.6,29.2,3.3
			c6.7-1.5,12.5-4.6,17.1-9.9c10.7-12.6,22.3-24.4,34.1-35.9c12-11.7,21.4-25.3,29.8-39.7c1.5-2.5,3-4.9,4.5-7.3
			c0.1-0.1,0.2-0.1,0.8-0.5c-6.5,13.2-14,25.1-21.6,37.2c2.9-1.7,5.9-3.5,8.8-5.2c0.5,0.8,0.2,1.4-0.1,1.9c-2.6,3.6-3.6,7.9-5,12.1
			c-2.2,6.6-5.1,12.7-9.2,18.4c-1.5,2.1-3.2,3.7-5.6,4.8c-3,1.3-5.9,2.9-9.4,4.7c6-9.9,8.8-20.9,16.9-29.1c-1.8-0.8-2.5-0.3-3.2,0.5
			c-3.6,4.2-7,8.5-9.1,13.7c-2.4,5.9-5.8,11.3-9.6,16.3c-1.1,1.5-2.6,2.6-4.2,3.3c-9.6,4.6-19,9.5-28.2,14.9
			c-7.5,4.3-15.6,5.5-24,3.1c-1.3-0.4-2.6-0.4-4-0.3c-3.4,0.3-6.6-0.4-9.6-2.1c-3.4-1.9-6.8-3.9-10.2-5.9c0.2-0.3,0.3-0.6,0.4-0.7
			c0.8-0.4,1.9-0.5,1.7-1.8c-0.2-1.2-1.3-1.4-2.3-1.5c-5.2-0.6-10.3-1.7-14.7-4.7c-0.5-0.3-1-0.7-1.4-1.1c-0.1-0.1-0.1-0.3-0.2-0.7
			c1.5,0,3,0,4.5,0c0.9,0,2,0,1.9-1.3c-0.1-1.1-1.1-1.1-1.9-1.2c-3.5-0.1-7.1-0.3-10.6-0.8c-5.2-0.8-9.1-4-13.2-7
			c4.8,0.8,9.4,0.7,13.8-1.7c-0.4-1.9-1.8-1.6-2.9-1.4c-7.5,0.9-14.5-1-21.4-3.7c-0.8-0.3-1.8-0.4-2.2-1.8
			C208.5,507.6,214.7,506.3,221,505.8z"/>
		<path class="st0" d="M403.3,473.2c-8.9-5.7-13.8-13.7-17.3-22.6c-6.2-15.8-7.4-32-3.1-48.6c2.7-10.3,5.4-20.5,7.8-30.9
			c3.3-14.1,4.6-28.4,5.6-42.8c0.9-13.3,0.2-26.5-3.2-39.5c-0.6-2.3-1.3-4.6-2-6.9c0.9-0.3,1.1,0.4,1.3,0.7c3.7,4.8,7.3,9.6,11,14.3
			c1.1,1.4,1.6,3.1,1.7,4.8c0.7,8.3,1.4,16.5,2,24.8c1,12.7-1.4,24.9-4.4,37.1c-4.3,18-7.9,36.2-10,54.7
			c-1.8,15.5,0.5,30.7,5.7,45.4C399.7,466.9,401.4,469.8,403.3,473.2z"/>
		<path class="st0" d="M290.4,104c0.2,6.6-1.7,12.5-5.4,17.7c-3.7,5.3-8.9,7.8-15.4,6.9c-5.5-0.8-10.7-2.5-14.7-6.3c-5.4-5.1-6.9-11.7-5.5-18.7
			c1.7-8.4,6.5-15.2,14.2-19.1c6.5-3.4,13.4-2.5,19.8,0.8c4.6,2.4,5.7,7.2,6.5,11.9C290.2,99.4,290.5,101.8,290.4,104z"/>
		<path class="st0" d="M424,321.3c3.7,3.2,7.3,6.6,11.5,9.1c4.5,2.7,7.4,6.5,10,11c4.7,8,10.5,15.2,17.5,21.5c1.7,1.5,2.1,3.4,2.1,5.5
			c-0.1,7.4,0.3,14.8,2.3,22c0.5,2,1.1,3.9,1.7,6c-1.5,0.5-2.8,0-3.9-0.5c-8-3.6-16-7.3-24.1-11c-2.3-1-2.9-2.8-2.7-5.1
			c1-13.5-1.3-26.6-6.3-39.2c-2-5.1-4.2-10.2-6.8-15c-0.7-1.2-1.2-2.5-1.8-3.8C423.7,321.6,423.9,321.4,424,321.3z"/>
		<path class="st0" d="M296.9,43.1c-4.8-4.9-10.2-8.7-17.1-9.4c-6.7-0.7-13,1.2-19.4,3.5c-1-5.8-1.4-11.4-3.8-16.9c-0.9,1.4-0.7,2.6-0.4,3.8
			c1,3.9,2,7.7,3,11.6c0.6,2.2,0.1,2.9-2.3,3.6c-1.3-3.1-0.5-6.7-2-10.3c-1.7,4.3,0.7,8.2-0.5,12.6c-1.6-4.4-1.3-8.9-3.6-12.6
			c-0.9,0.9-0.7,1.8-0.5,2.7c0.7,3,1.4,6,2.1,9c0.5,2.2,0,3.3-1.8,5c-0.9-0.3-0.7-1.2-0.9-1.9c-1.5-5.1-2.9-10.1-4.3-15.2
			c-0.8-2.9-0.7-3.3,2-4.5c1.7-0.8,3.3-1.6,4.6-2.8c1.8-1.7,3.9-2.3,6.3-1.9c1.9,0.3,3.6-0.2,5-1.5c2-1.7,4.3-2.5,6.9-2.2
			c2.1,0.2,4.2-0.4,6.3-0.6c6.5-0.6,12.8,0.2,18.9,2.6c3.2,1.2,4.1,2.7,3.7,6.1c-0.5,4.6-1,9.2-2.5,13.5
			C295.9,39.4,296.9,41.1,296.9,43.1z"/>
		<path class="st0" d="M306.6,358c0.6-1.2,1.1-2.2,0-3.4c-0.4-0.5,0.2-1.4,0.6-2.1c6.1-11.4,15.5-17.9,28.5-18.4c6.6-0.3,13.1-0.3,19.5-1.9
			c2.4-0.6,4.8-1.2,7-2.8c0.7,0.5,1.5,1,2.3,1.5c-0.2,2.2-1.2,4.1-2.3,5.8c-4.4,6.4-10.3,10.2-18.3,10.5c-5.2,0.2-10.4,0.3-15.6,0.7
			c-6.9,0.6-13,3-18.4,7.4C308.8,356.3,307.7,357.2,306.6,358z"/>
		<path class="st0" d="M166.2,462.4c-2.8-1.8-5.5-2.1-8.3-2c-4.3,0.2-8.4,1.5-12.5,2.8c-6.6,2.1-12.8,1.2-18.4-2.9c-0.4-0.3-0.8-0.6-1.2-1
			c-0.2-0.1-0.2-0.4-0.3-0.5c0.1-0.1,0.2-0.3,0.3-0.3c4.6-0.5,8.9-2,13.1-4c2.3-1.1,4.9-1.4,7.4-1.8c4-0.7,7.4,0.4,10.9,2.6
			c6.2,4.1,12.9,7.5,18.9,12c0.9,0.7,2,1.1,2,2.8c-7,0.9-13.1,4.9-20.3,5.5c-2.5,0.2-5-0.1-7.3-1c-4.5-1.7-8.1-4.8-12.3-7.2
			c4.7-0.8,9.3-1.7,13.7-3.4C156.3,462.2,161.2,463.7,166.2,462.4z"/>
		<path class="st0" d="M223.8,356.4c-6.3-0.4-12.1,2.9-18.2,1.4c5.6-0.5,10.9-2.7,16.6-2.9c1.1,0,1.7-0.4,1.6-1.6c-0.1-1.1-0.3-2.3-1.7-2.2
			c-1.5,0.1-3,0.4-4.5,0.7c-3,0.6-5.9,1.4-8.9,1.9c-8.3,1.3-15-2.5-17.2-9.7c-0.3-1.1-0.7-2.3-0.3-3.4c0.4-0.2,0.7-0.1,0.9,0.1
			c4.9,5.4,11,5.4,17.3,3.9c5.7-1.3,11.4-2.7,17.4-2.1c8.8,0.9,17.2,8.5,19,17.1c0.1,0.3,0,0.6,0,1.1c-2.7-1.7-5.2-3.3-7.9-4.8
			c-2.5-1.4-5.2-2.6-8.2-3.4c-1.9,3.8,1.8,3.9,3.4,5.5c-4.3-0.4-4.2-0.4-5.5,3.9c-1.9,6.8-3.2,13.7-3.3,20.7c0,0.6,0.2,1.4-0.5,2.2
			C221.9,375.3,223.8,366,223.8,356.4z"/>
		<path class="st0" d="M438.5,384.7c9.6,6,19.2,11.1,29.4,14.7c1.2-0.4,0.5-1.8,1.6-2.4c0.6,3.4,2.3,6.3,4.9,8.9c-3,2.1-5.8,4.3-8.8,6.1
			c-1.6,1-3.6,0.6-5.3,0c-7.6-3-15.2-6.3-22.6-9.8c-0.8-0.4-1.2-0.7-1-1.7C437.9,395.4,438.1,390.3,438.5,384.7z"/>
		<path class="st0" d="M431.1,466.3c2.3-5.9,2.9-12.1,4.1-18.1c1-5.6,3.6-10.5,6.8-15.1c0.3-0.5,0.7-1,1.2-1.3c4.9-3.2,9.8-6.3,15.2-9.8
			c-3.5,10.2-4.6,20.5-8.9,29.9c-1.5,3.4-3.9,6-7.2,7.8C438.5,461.7,434.9,464,431.1,466.3z"/>
		<path class="st0" d="M451.6,453.8c2.8-6.6,4.7-12.7,6.1-19c0.3-1.1,0.6-2.2,0.8-3.3c1.3-9.4,6.7-15.9,14.3-20.9c0.9-0.6,1.8-1.2,2.5-1.9
			c0.6-0.6,1-1,1.9-0.5c0.9,0.5,0.7,1.2,0.4,1.9c-1.7,4.6-3.1,9.3-4.1,14.1c-0.8,3.8-1.3,7.7-2.1,11.6c-1.3,6.3-4.6,11-10.9,13.3
			C457.5,450,455,452,451.6,453.8z"/>
		<path class="st0" d="M437.5,435.3c-2.6,5-4.5,10.3-5.3,15.9c-0.8,5.8-2.7,11.1-5.5,16.1c-1,1.8-2.2,3.2-3.9,4.3c-3.5,2.1-6.9,4.3-10.8,6.7
			c0.7-3.3,1.5-6,2-8.7c1.3-7.8,2.3-15.6,6.1-22.8c0.7-1.4,1.6-2.4,3-3.2c3.4-2,6.6-4.2,9.9-6.3c1.3-0.8,2.7-1.5,4.1-2.3
			C437.2,435.1,437.3,435.2,437.5,435.3z"/>
		<path class="st0" d="M173.3,461.2c-6.5-3.5-12.8-6.8-18.5-11.2c0.6-1.9,1.9-3.3,2.9-4.9c2.9-4.4,5.8-8.8,9.3-12.8c0.7-0.8,1.4-1.6,2.4-2.1
			c3-1.6,4.2-1.1,5,2.1c1.3,5.3,2.9,10.6,3.8,16c0.5,3.2,0,5.9-2,8.5C175.2,458.2,174.4,459.6,173.3,461.2z"/>
		<path class="st0" d="M493,406.6c0.5,4.6,0.1,9.1-0.5,13.6c-0.3,2.2-0.9,4.5-1,6.7c-0.1,2.9-1.5,4.6-3.9,6.1c-4.9,3-9.8,6.2-15.2,9.2
			c0.8-3.5,1.7-6.6,2.3-9.8c1.4-7.1,2.6-14.2,5.1-21.1c0.7-1.8,1.7-2.9,3.7-3.1C486.6,407.9,489.6,406.4,493,406.6z"/>
		<path class="st0" d="M355.2,511.2c4.1-7.8,6.7-16.1,9.8-24.1c2.8-7.3,8.1-12.5,15.3-15.8c-2.1,4.5-3.4,9.3-4.2,14.2c-0.6,3.4-1.2,6.8-2,10.2
			c-1,4.2-3,7.5-7,9.7C363.2,507.4,359.4,509.7,355.2,511.2z"/>
		<path class="st0" d="M375.6,500.4c2.9-9,2.4-18.7,6.8-27.1c1.3-2.6,3-4.9,5.1-6.9c1.8-1.7,2.4-1.5,4.3,0.1c3.1,2.5,3.4,5.2,2,8.9
			c-2.1,5.4-3.8,10.9-6,16.3c-0.6,1.5-1.6,2.7-3,3.5C381.7,496.8,378.7,498.6,375.6,500.4z"/>
		<path class="st0" d="M130,400c1,4,1.8,8,2.4,12c0.2,1-0.6,1.5-1.3,1.9c-5.5,3.5-11,6.9-16.4,10.4c-1.5,1-2.8,0.9-4.3-0.3
			c-1.4-1.1-2.8-2.9-5.2-1.8c0-1.2,0-2.4,0-3.6c0-1.4,0.5-2.5,1.7-3.2c7.6-4.6,14.8-9.8,22.1-14.9C129.2,400.3,129.5,400.2,130,400z
			"/>
		<path class="st0" d="M399.8,455.2c-4-7.4-5.7-26.1-3.1-33.9c0.8,0,0.9,0.7,1.2,1.1c4.3,6.6,8.6,13.3,12.9,19.9c1.8,2.8,1.7,3.3-0.8,5.5
			c-2.8,2.4-5.8,4.6-8.9,6.6C400.7,454.7,400.2,454.9,399.8,455.2z"/>
		<path class="st0" d="M108.6,447.5c7.6-0.3,14-3.6,21-4.2c6.6-0.6,11.8,1.2,17.5,6.7c-8.3,1.2-15.6,6.4-24.4,5
			C117.4,454,112.8,451.7,108.6,447.5z"/>
		<path class="st0" d="M260,517.5c1-1.7,2.6-2.9,4.1-4.1c3.5-2.8,6.9-5.6,10.4-8.3c3.5-2.7,6.7-5.7,6.4-10.8c1.3,0.7,0.6,2,1.6,2.9
			c3.4-2,6.2-5.2,10.1-6.6c-2.5,2.5-4.9,5.2-7.6,7.6c-2.3,2-3.1,4.3-3,7.4c0.3,5.9,1.6,11.6,2.3,18.1c4.2-8.3,3.1-17.3,6-25.3
			c1.3,0.4,1.2,1.1,1,1.9c-1.6,6.7-1.6,13.6-1.9,20.5c-0.1,2.4-0.9,4.1-2.9,5.5c-1.5,1-2.8,2.3-4.2,3.4c-0.8,0.7-1.6,1.4-3.1,0.8
			c2.1-8.2,1-16.4,0.7-24.3c-6.4,3.9-13,7.9-19.5,11.9C260.3,517.9,260.2,517.7,260,517.5z"/>
		<path class="st0" d="M251.4,49.3c1.8-3.6,4.7-6.2,8.2-8.2c9.3-5.2,19-6.3,29.2-2.4c4.8,1.8,8.6,6.4,8.7,11.1c-6.9-5-14.4-7.7-22.9-7.2
			C266.4,43.1,258.9,45.9,251.4,49.3z"/>
		<path class="st0" d="M396.9,418.1c-0.5-6.6-0.5-6.6,5.8-6.6c8.2-0.1,16.3-0.4,24-3.6c2.3-1,4.4-2.2,6.7-3.7c0.4,2.3,0.1,4.3-0.1,6.2
			c-0.1,1-1.2,1.2-2,1.6c-7.1,3.7-14.7,5.3-22.6,5.8C404.8,418,400.9,418.3,396.9,418.1z"/>
		<path class="st0" d="M493.7,428.6c0.4-2.3,0.6-4.2,0.9-6c0.7-4.2,0.9-8.5,1-12.8c0-2.9,0.6-5.5,3.2-7.3c1.4-1,1.4-2.8,2.5-4.3
			c2.9,3,4.3,6.6,5.5,10.4c1.4,4.5,0.5,8.1-2.9,11.5C500.8,423.1,497.6,425.9,493.7,428.6z"/>
		<path class="st0" d="M434.6,397.2c0.4,1.7-0.2,3.4-0.5,5.1c-0.1,0.3-0.3,0.8-0.6,0.9c-6.8,3-13.7,5.8-21.2,6.1c-4.1,0.2-8.3,0.6-12.4,0.8
			c-0.7,0-1.5,0.2-2.3-0.2c-0.7-1.7-0.3-3.5,0-5.3c0.2-1.4,1.4-0.9,2.2-0.9c6.2,0.2,12.3,0,18.4-1.2c5-1,9.8-2.4,14.3-4.7
			C433.2,397.5,433.8,397,434.6,397.2z"/>
		<path class="st0" d="M416.5,447.8c-4.3,9.1-3.5,19-6.6,28.2c-2.5-1.6-3.9-3.8-5.2-6.1c-1.8-3.2-2.7-6.8-3.9-10.4c-0.2-0.7-0.3-1.3,0.5-1.8
			c4.7-3.2,9.4-6.5,14.1-9.7C415.7,448,415.9,448,416.5,447.8z"/>
		<path class="st0" d="M132.5,440.5c-7.2-0.1-13.6,3.2-20.6,4.2c-4.2,0.6-8.1,0.2-11.7-2.2c-0.9-0.6-2-1.1-2.6-2.6c7-0.3,13-3.9,19.7-5.1
			C123.3,433.9,128.1,436.4,132.5,440.5z"/>
		<path class="st0" d="M239.4,500.9c-1.7-3.1-1.7-6.5-2-9.8c-1-11.6,0.1-23,1.5-34.5c1.2-9.6,2.1-19.2,2.5-28.8c0.1-1.3,0-2.7,1.1-3.8
			c0.8,0.4,0.6,1.2,0.6,1.8c0.8,9,0.4,17.9-0.6,26.9c-1.4,12.5-2.6,25-3.3,37.6C239.1,493.8,239.2,497.3,239.4,500.9z"/>
		<path class="st0" d="M180.8,482.8c-8.7,4.7-17.7,3-25.3-4.8c7.1,0,13.1-3.1,19.6-4.7c3-0.7,3.7-0.3,4.3,2.8
			C179.8,478.3,180.3,480.5,180.8,482.8z"/>
		<path class="st0" d="M118.4,431.7c-7.7,2.4-14.6,5.3-22.2,5.8c-2.3,0.2-4.5-0.3-6-2.2c5.6-3.1,11.9-5.1,14.9-11.5
			C108.7,427.1,113.4,429.1,118.4,431.7z"/>
		<path class="st0" d="M369.5,385.8c2,23.4-1.3,46.2-8,68.6C366.8,431.8,365.3,408.5,369.5,385.8z"/>
		<path class="st0" d="M320.7,313.7c1,0.1,1.3-0.7,1.9-1.1c0.6-0.5,1.2-1.1,2-0.5c1,0.6,0.8,1.6,0.5,2.4c-1.3,3-1.7,6.2-2.4,9.4
			c-0.2,1.1-0.3,2.3-0.7,3.4c-1.8-3.2-0.4-6.7-0.5-10c-1-0.5-1.6,0.8-2.7,0.5c-0.8-0.6-0.7-1.6-0.7-2.6c0.1-1.3,0.2-2.6,0.4-3.8
			c1-5.5,0.4-10.4-3.9-14.7c-2.7-2.7-4.2-6.5-5.7-10.2c3.5,4,7.6,7.2,11.6,10.6c1.3,1.1,1.9,2.6,1.6,4.2c-0.4,3.1-0.8,6.1-1.2,9.2
			C320.8,311.7,320.5,312.7,320.7,313.7z"/>
		<path class="st0" d="M397.2,472.5c3.7,2.8,7.2,5.4,11.1,8.2c-5.8,3.5-11.3,6.9-17.5,10.7C393.1,484.8,395.1,478.8,397.2,472.5z"/>
		<path class="st0" d="M501.5,386.2c9.9,2.7,11.9,13.6,8.1,23.3c-0.6-1.9-1.2-3.6-1.8-5.3c-1.2-3.3-2.9-6.3-5.9-8.3c-0.6-0.4-1.1-0.8-1-1.6
			C501.1,391.6,501.3,388.9,501.5,386.2z"/>
		<path class="st0" d="M239.2,344.2c-4.2-3.7-9-5.8-14.4-6.8c-3.7-0.7-7.3-0.1-11,0.4c-3.6,0.5-7.2,1.5-11,1.3c7.3-1.8,14.5-4.6,22.2-3.2
			c2.2,0.4,2.7-0.4,2.6-2.3c-0.1-1.3-0.4-2.6,0.4-4.1c2.1,3.9,2.8,8.5,7.6,10.4c1.8-6.6,0-13.5,2.8-19.8
			C239,328,238.7,336,239.2,344.2z"/>
		<path class="st0" d="M229,440.2c3.9,11.6,6.5,22.7,2.9,34.6C229.5,469.1,227.5,445.4,229,440.2z"/>
		<path class="st0" d="M278.6,403.3c3.5-14.8,1.9-29.4,2.5-43.9c0-0.1,0.2-0.2,0.5-0.4c0.7,3.2,0.7,6.4,0.8,9.5c0.2,3.7,0.5,7.4,1.4,11
			c1,4.1,0.7,8.1-0.4,12.1c-0.8,3-1.7,5.9-2.5,8.9C280.7,401.5,280.2,402.4,278.6,403.3z"/>
		<path class="st0" d="M320.2,353.7c2.6-1.5,5.4-1.9,8.3-1.9c5.7-0.1,11.3-0.4,16.8-1.7c4.9-1.2,9.4-3.3,13.5-6.2c1-0.7,2.1-1.5,3.7-2.6
			c-3.2,7.3-3.3,14.9-7.9,21c0.8-4,2.1-7.9,1.4-12c-0.1-0.9-0.4-1.7-0.7-2.9c-5.6,2.8-11.2,4.9-17.4,5.1
			C332.1,352.7,326.1,353,320.2,353.7z"/>
		<path class="st0" d="M277.4,378.8c-1.8-2.4-1.9-5.2-2.4-7.9c-0.9-4.4-1.8-8.7-4.4-12.4c-0.4-0.6-0.5-1.2-0.5-1.9c0.4-3.7,0.7-7.3,1.1-11
			c0.1-0.8,0.1-1.7,1.5-1.8C272.5,355.7,277.2,366.9,277.4,378.8z"/>
		<path class="st0" d="M184.1,495.7c-4.1-2.4-8.3-4.8-12.4-7.1c3.4-0.7,6.6-1.6,10-3c1,3.4,2,6.6,2.9,9.8C184.4,495.5,184.2,495.6,184.1,495.7z"
			/>
		<path class="st0" d="M220.9,422.6c1,9.1,4.2,18.1,2.3,27.6C220.7,446.7,219.7,434.1,220.9,422.6z"/>
		<path class="st0" d="M500.9,374.4c2.7,2.1,4.8,5.9,5.7,10.3C502.1,385.1,499.4,380.5,500.9,374.4z"/>
		<path class="st0" d="M344.2,325c1-6.2-0.8-12.8,3.4-18.4C345.8,312.6,347.1,319.2,344.2,325z"/>
		<path class="st0" d="M331.6,331.3c-6.8,2-13.4,4.3-19.3,8.3C317.5,333.9,324.3,332.2,331.6,331.3z"/>
		<path class="st0" d="M496.1,389.7c-1.2-1.4-2-2.8-1.9-4.5c0.1-2.1,0.3-4.1-0.4-6.2c-0.5-1.3,0.9-1.2,1.7-1.4
			C496.1,379.5,496.5,387.4,496.1,389.7z"/>
	</g>
</g>
</svg>
