<?xml version="1.0" encoding="utf-8"?>
<!-- Generator: Adobe Illustrator 18.1.1, SVG Export Plug-In . SVG Version: 6.00 Build 0)  -->
<svg version="1.1" id="图层_1" xmlns="http://www.w3.org/2000/svg" xmlns:xlink="http://www.w3.org/1999/xlink" x="0px" y="0px"
	 viewBox="0 0 612 792" enable-background="new 0 0 612 792" xml:space="preserve">
<g>
	<g>
		<path d="M180,478.1c0.2,1,0.4,1.5,0.5,2.2c0.7,3.4-0.2,4.6-3.6,4.9c-3.7,0.4-7.3,1.2-10.8,2.2c4.9,1.6,9.5-0.1,14.3-1.1
			c0.7,0.5,0.5,1.3,0.8,2c0.9,4.3-0.1,5.5-4.5,5.9c-4.3,0.3-8.5,0.9-12.8,1.6c5.9,2,11.7,0.7,17.7-0.7c1.1,3.8,1.5,7.8,2.1,11.6
			c2.3,14,4.3,28.1,8.5,41.6c1.3,4.3,2.8,8.5,5.4,12.6c0.2-1.7,0.4-3.4,0.4-5.1c0.3-13.6-1.4-27-3.7-40.3c-2.5-14.6-5.6-29.3-7.4-44
			c-4.7-36.3,0.2-70.7,19.1-102.5c3.2-5.4,7-10.2,11.6-14.4c4.7-4.3,9.7-6,15.8-3.2c0.2,0.1,0.7,0.1,1,0.1c-1.7-3.5-7.8-5-12.5-3.3
			c-4.5,1.6-7.3,5.5-10.7,8.6c-0.9-1.5-0.1-2.6,0.5-3.7c4-7.2,8.4-14.3,12.2-21.7c6.4-12.6,13.8-24.6,22.1-36
			c13.4-18.5,27.5-36.4,44-52.3c5-4.9,7.9-4.9,12.8,0.3c7.1,7.5,13.9,15.3,21.3,22.4c5,4.8,10.1,9.5,15.2,14.4
			c-2.4,1.3-4.6,0.8-6.8,0.1c-11.1-3.1-22.5-4.3-34-4c-10.5,0.1-20.9,2-31.1,3.9c-1.6,0.3-3.3,0.5-4.9,0.7c-2.7,0.2-4.9,1.4-6.8,3.5
			c0.7,0.9,1.3,0.4,1.9,0.3c17.5-5.5,35.3-5.8,53.3-5c9.7,0.4,19.5,1.3,28.9,3.7c1.9,0.4,3.7,1.1,4.6,3
			c6.3,12.8,15.8,23.3,24.3,34.5c8.4,11.3,16.2,23.1,24,34.8c0.2,0.3,0.7,0.5,0.2,1.3c-12.2-7-25.8-10.6-39.3-15.3
			c3.9-3,8.9-3.8,11.7-7.9c-3.7,1.7-7.4,3.4-11,5.2c-2.6,1.4-5.2,1.6-8.1,0.8c-3-0.9-5.9-1.5-9.3-2.4c5.4-8,11.3-15.3,15.6-23.9
			c-1.5,0.2-2,1.2-2.6,2.1c-4.3,6.1-8.6,12.2-12.8,18.5c-1.7,2.5-3.6,3.5-6.7,2.7c-1.9-0.4-3.7-0.5-5.8-0.8
			c1.7-9.6,4.5-18.8,6.3-28.2c-2.3,3.9-3.6,8.2-4.7,12.6c-1,3.7-1.7,7.5-2.5,11.4c-0.9,4-0.8,4-5,4.9c3.3,9.6,5.8,19.3,6.6,29.5
			c-0.5-2.1-1.1-4-1.5-6.1c-0.5-2.1-1-4.2-1.5-6.2c-1.1-4.7-2.8-9.3-5.1-13.6c-1.6-3.1-3.9-4.8-7.5-4.3c-0.8,0.1-1.6,0-2.6-0.1
			c-0.1-9.8,1.5-19.3,2-29.3c-1,1.1-1.1,2.2-1.3,3.2c-0.3,1-0.4,2.1-0.7,3.2c-1.2,6.9-1.7,13.8-2.4,20.7c-0.1,1.7-0.7,2.5-2.5,2.5
			c-2,0-1.9-1.3-1.9-2.6c0-12.7-2.5-25-4.8-37.5c-0.1-0.4-0.3-0.9-0.5-1.5c-0.9,1-0.4,2-0.3,2.7c1.4,12,2.5,24,2.7,36.3
			c0,2.3-0.4,3.5-3,3.2c-2.6-0.2-4,1.4-4.8,3.7c-3.6,11.1-7.1,22.3-7.5,34.2c0,0.4-0.1,0.8-0.2,1.4c-1.6-6.6-0.3-12.9,0.3-19.1
			c0.5-5.4,1.2-10.8,2.8-16.1c0.2-0.8,0.4-1.5-0.1-2.3c-2.4-3.3-3.1-7.1-3.8-10.8c-0.7-3.5-1.6-6.9-3.5-9.8c0.7,7,3.2,13.6,4.6,20.3
			c-4.8,2.7-7.4,2.1-10.1-2.5c-2.7-4.9-5.2-9.9-8.5-14.4c2,6.9,6.1,12.7,9.4,19.3c-5.8,0.3-7.1,4.9-9,9.1
			c-2.8,6.6-4.8,13.6-6.7,20.4c-0.3,1.2-0.8,2.3-1.2,3.5c0.4-6.4,1.9-12.7,3.9-18.8c1.1-3.2,2.4-6.3,3.7-9.4c0.3-0.9,1-1.6-0.1-2.4
			c-6.4-4.6-11.1-10.9-17-16.1c-1.3-1.2-2.6-2.4-4.4-3c4.8,7.4,11.4,13.3,17.3,20.1c-3.6,1.2-4.5,4.2-5.1,7.1
			c-1.1,4.6-2.2,9.3-3.4,13.9c-0.2-6.2,1.3-12.1,2.7-18.6c-3.8,1.5-6.6,0-9.4-1.9c-6.2-4.2-12.7-8-19.2-11.7
			c6.3,6.6,14.3,10.7,22.1,15.3c-1,1.1-2.4,1.5-3.7,2c-8.7,2.8-14.9,8.9-20.2,16c-11.4,15.2-16.7,32.3-17.4,51.1
			c-0.8,21.6,1.4,43.2,3.7,64.7c2,18.5,4.3,36.8,4.6,55.4c0.3,14-1.2,27.9-4.2,41.5c-2.8,13.1-3.1,26.3-2.4,39.6
			c0.2,4.2,0.4,8.2,1.1,12.3c1.1,6.3,3.5,12.1,7.2,17.4c0.8,1.1,1.5,2.1,2.1,3.4c-3.2-1.4-5.4-3.8-7.1-6.8
			c-4.5-7.5-7.8-15.4-9.9-23.8c-3-10.9-3.6-22.1-3.3-33.3c0.2-9.6-1-18.9-4.9-27.8c-0.9-2.1-2-2.8-4.3-2.6
			c-12.3,1.4-24-1.5-35.6-5.5c-1.4-0.4-2.7-1.4-3-3.1c-0.8-4.4-2.1-8.6-3.3-13.4c11.8,5.8,23.7,7.8,36.2,4.8
			c-3.5-0.1-6.9-0.2-10.4-0.4c-7.4-0.3-14.5-1.6-21.5-4c-4.7-1.6-5.2-2.5-4.7-8c12.3,4.7,24.8,7.4,38.4,3.7
			c-1.7-1.3-3.2-0.8-4.4-0.7c-10.3,1.3-20.2-0.3-30.1-3.1c-4.4-1.2-5.1-2.1-5.6-6.7c-1.6-13.8-1.1-27.5,2.4-41
			c2.3-8.6,7-16.1,11.9-23.5c6.8-10.1,14.5-19.5,20.8-29.8c0.9-1.4,1.7-2.7,1.6-4.6c-1.3,2-2.7,4-4,6c-7.1,10.2-15.2,19.6-22.3,29.7
			c-8.2,11.8-12.7,24.6-13.8,39.1c-0.7,8.9,0.1,17.4,0.9,26c0.2,2.2-0.1,3.5-2.4,4.5c-7.7,3.4-14.6,7.9-21.4,12.7
			c-1.1,0.8-2,1.7-3.4,2.1c-1.5-2-1.7-4.2-1.9-6.4c-0.5-15.4,3.6-29.6,11.1-42.7c7.9-13.7,18.1-25.8,28.2-37.8
			c8.7-10.5,18.3-20.4,25.7-32c1.9-2.8,3-5.8,3.1-9.2c0-4.7,2.3-8.7,4-12.9c4.4-10.4,10.3-19.9,16.3-29.4c2.4-3.7,4.8-7.4,7.3-11.4
			c0.5,1.4-0.3,2-0.8,2.7c-7.1,11.4-12.8,23.4-18,35.7c-4.4,10.2-5.2,21.2-6.6,32.1c-1,8.3-2,16.5-2.8,24.8
			c-0.4,4.4-0.1,8.7-0.9,13.1c-3.8,0.8-7.7,1.6-11.4,2.4c3.8,1.7,7.5,0.7,11.5-0.3c0.5,1.9,0.3,3.6,0.2,5.2c-0.1,1.2-1.2,1.2-2,1.4
			c-3.6,1-7.3,0.7-11,1.4c-0.8,0.2-1.5,0.3-2.3,0.8C169.7,480.5,174.7,479.2,180,478.1z M150.9,541.3c6.2,5.4,25.2,9.2,30.5,6.2
			C170.9,547.1,161.2,544.6,150.9,541.3z M155.3,522.8c6,4.8,23.8,4.7,26.9,0.2C173.3,525.1,164.6,524.5,155.3,522.8z M179.4,508.8
			c-6.4,1.2-13,1.4-19.5,2.2C166.8,512.2,173.4,512.9,179.4,508.8z M180.3,517.9c-5.8,0.5-11.5,1.1-17.3,1.5c0,0.2,0,0.4,0.1,0.7
			C169,520.8,174.9,520.7,180.3,517.9z M181.2,502.2c-0.1-0.3-0.1-0.7-0.2-1c-5,1-9.9,1.9-15,2.8C171.4,505,176.4,504.4,181.2,502.2
			z"/>
		<path d="M511.6,491.1c2.3,0.3,4.5,1.2,6.4-0.7c0.2-0.7-0.3-0.9-0.7-1.2c-9.7-7-17.6-16-24.9-25.4c-5.2-6.8-10.8-13.1-17-18.8
			c-14.9-13.6-27.2-29.2-39.6-44.8c-15.4-19.6-30.9-39-46.7-58.4c-4.7-5.8-9.1-11.7-12.8-18.1c-5.8-10.2-13.6-19-20.5-28.4
			c-0.5-0.8-1.1-1.4-1.9-2.5c2.6,0.4,4.3,2.7,7.1,2c-2.7-3-5.1-5.8-7.8-8.5c-11.5-11.9-24.3-22.6-36-34.4c-5-5.1-9.8-10.5-14.2-16.2
			c-0.4-0.5-1-0.9-1-1.6c0.1-0.1,0.1-0.1,0.2-0.2c15.1-5.6,18.7-20.5,17.3-33.7c-0.5-5-1.7-9.9-4.5-14.3c-5-8-13.9-11-23.4-8.3
			c-6.6,2-12.2,5.4-16.1,11.3c-0.2,0.2-0.4,0.4-0.8,0.8c-1.4-3.3-2.1-6.6-2.5-9.8c-1-8.6-0.8-17.3,0.7-25.9c0.7-3.8,2.7-6.9,6.1-8.4
			c10.2-4.6,20.8-6.8,32-5.7c3.1,0.3,5.8,1.7,8.6,3c1.6,0.8,2.5,2.3,2.8,4c3.2,14.9,3.5,29.7,1.1,44.7c-0.1,0.4-0.2,1-0.3,1.4
			c-0.1,0.4-0.4,0.9-0.7,1.5c1.6,1.4,3.3,2.8,4.9,4.4c16.6,15.5,31.9,32.2,45.7,50.3c12,15.7,24.9,30.8,38.9,44.8
			c5.7,5.6,10.2,12,14.3,18.8c5,8.2,10.3,16.2,16.5,23.4c7.4,8.6,12.7,18.4,16.6,29.1c6.1,16.9,16.7,30.7,30.7,42
			c14,11.3,25.5,24.6,34.2,40.3c4.6,8.4,10.1,16.3,14.5,24.7c3.2,5.9,4.4,12.2,2.7,18.9c-0.1,0.3-0.2,0.7-0.3,0.9
			c0,0.1-0.1,0.1-0.4,0.3c-0.2-0.8-0.5-1.5-0.5-2.2c-0.1-1.5-0.5-3-2.1-3.6c-1.6-0.8-2.2,1-3.3,1.6c-0.7,0-1.1-0.4-1.5-0.8
			c-0.7-0.7-1.4-1.3-2.4-0.4c-0.9,0.8-0.4,1.6-0.2,2.5c1.3,3.7,3.2,7.1,5.1,10.6c-2.2,1.4-1.9,3.2-1.4,5.2c0.4,2.6,0.5,5.2,0.7,7.9
			c0.2,2.5,1,4.8,2.3,7c0.9,1.5,2,2.8,3.9,3c0.2,2.1-0.5,3.5-2,4.7c-4.5,3.8-11.9,4.5-16.9,1.6c-1.7-1-3.3-2.2-4-4.2
			c-3.7-9.9-6.8-20-7.5-30.6C511,493.4,511,492.3,511.6,491.1z M352.8,237.3c0.4-1.3-0.5-2.1-1.2-3.1c-3.5-5.8-9.5-9.7-12.5-16.2
			c-0.5-1.1-1.6-1.9-2.7-2.4c-1.9-0.8-3.8-1.5-5.7-2.4c-1-0.4-1.9-0.5-2.6,0.4c-0.7,1-0.5,1.9,0.1,2.7c1.2,1.4,2.3,2.8,3.6,4
			c12.6,11.7,23.9,24.3,32.3,39.3c3.3,6,7.6,11.1,13.3,15.1c0.8,0.5,1.5,1,2.4,0.2c0.9-0.7,0.8-1.6,0.3-2.4
			c-0.7-1.1-1.2-2.2-2.1-3.1c-2.7-2.5-4.6-5.6-6.6-8.6c-5.2-8-10.4-15.8-18-21.7C352.9,239,352.2,238.4,352.8,237.3z M398.8,298.6
			c0.7-1.4,2-2.6,1.4-4.4c-1-3.3-7.3-6.7-10.9-5.6c2.1,1.5,4,3,6.2,4.5c-0.8,0.4-1.2,0.7-1.6,0.9c-4,1.9-4.3,4.6-0.7,7.1
			c0.8,0.5,1.5,1,2.3,1.4c4.4,2.6,8.7,5.1,13.3,7.9c-1.2,1.9-0.1,3,1.1,4.2c3,3,6.6,5.4,8.5,9.2c2.7,5.2,7.6,8.2,12,11.9
			c0.8,0.7,1.6,0.7,2.5,0c0.9-0.7,1.2-1.5,0.7-2.6c-0.3-0.9-0.9-1.6-1.4-2.3c-1.9-2.2-4-4-6.2-6c-0.5-0.4-1.3-0.8-1.3-1.6
			c0.1-3.3-1.9-5.2-4.4-6.8C412.4,311.3,406.3,304.2,398.8,298.6z M505.4,435.9c1.5-2.7-0.3-3.9-2.4-5.1c-0.9-0.5-2.5-0.7-2.4-1.9
			c0.4-3.1-1.7-4.2-3.7-5.6c-0.7-0.4-1.5-0.8-1.5-1.7c0-2.3-1.5-3.4-3.2-4.4c-2-1.2-4-2.4-6.1-3.6c2-2.4,1.9-3-0.3-5.1
			c-2.6-2.5-5.7-3.9-9.2-4.3c-1.1-0.1-2.3-0.4-2.7,0.9c-0.5,1.4,0.5,2.1,1.5,2.7c2.4,1.5,4.9,3,7.5,4.6c-2.7,1.4-1.7,2.7-0.2,4
			c1.3,1.1,2.6,2.3,3.9,3.5c-1.4,2-0.4,3.1,1.2,4.2c2.8,1.9,5.9,3.4,9.1,4.8c-1.6,2.1-1.6,2.7,0.2,4.2c1.6,1.3,3.6,2.3,5.6,3.5
			c-2,2.2-0.5,3.3,1.3,4.3c1.7,1,3.6,1.4,5.7,1.5c1.2,0,2.2-0.1,2.6-1.4c0.4-1.3-0.4-2.1-1.4-2.8C509.2,437,507.2,437,505.4,435.9z
			 M446.4,360.2c-0.7,2.4,0.1,4,1.7,5.5c1.6,1.4,3.6,2.4,2.8,5.4c-0.3,1.3,1.2,2.2,2.5,2.6c1.1,0.3,2.2,0.3,2.3-1
			c0.1-3.2,0.7-6.6-2.5-8.9c-0.9-0.7-1.5-1.4-2.3-2.2c1.5-2.6,1.3-3.6-1.3-5.4c-3.8-2.5-6.6-5.8-7.9-10.3c-1.1-3.9-4.4-6.2-7.5-8.5
			c-0.7-0.4-1.4-0.5-2.1,0.1c-0.7,0.5-0.4,1.2-0.1,1.7c2.3,4.6,4.5,9.2,6.9,13.7C440.6,356.1,442.8,358.6,446.4,360.2z M534.1,483.3
			c-0.4-3.9-1.4-7.4-3.9-10.3c2.6-4,2.6-4.7-0.8-8.1c-1.4-1.4-3-2.8-4.7-4.4c2.1-1.3,1.4-2.6,0.5-3.9c-2.5-3.7-5.8-6.4-9.5-8.9
			c-1.2-0.8-2.4-1.4-3.5,0c-1.1,1.3-0.1,2.3,0.8,3.2c2.4,2.7,5.4,4.9,8.2,7.1c0.4,0.3,1.3,0.9,1.2,1.1c-0.7,2.5,1.6,3.4,2.5,4.9
			c0.7,1.2,1.7,2.1,2,3.5c-0.3,0.1-0.5,0.3-0.8,0.3c-1.6,0.4-3.5,0.7-3.9,2.8c-0.4,2.2,1.1,3.3,2.5,4.5c2.5,2,4.8,3.9,6.6,6.7
			C531.9,482.8,532.7,483.4,534.1,483.3z M470.3,399.8c1-0.1,2.5,0.3,3-1.3c0.5-1.6-0.5-2.5-1.9-3.1c-5.6-2.6-8-7.6-10.1-13
			c-0.4-1.2-1.1-1.7-2.3-1.9c-1.3-0.1-2,0.5-2.3,1.7c-1.4,4-0.4,6.2,3.5,7.9c1,0.4,2.1,0.5,2.2,2.2
			C462.5,397,465.6,399.7,470.3,399.8z M390.9,283.5c-0.1-2.4-4.8-7.4-7-7.8c-1.5-0.2-2.6,1-2.1,2.4c1.4,3.2,3.8,5.2,7,6.6
			C390,285.1,390.8,284.6,390.9,283.5z M277.4,153.4c4.7-3,10.3-3.6,15.7-5.8C286.8,146.6,279.1,149.5,277.4,153.4z M455.8,374.3
			c-1.3-0.1-2.1,0.8-2.2,2.2c-0.1,1.6,1.5,3.2,3.4,3.2c1.4,0,2.4-0.5,2.4-2.2C459.4,375.7,458,374.3,455.8,374.3z M278.9,156.6
			c4-1.5,7.9-3,11.8-4.5C284,151.5,279.8,153.2,278.9,156.6z M277.8,161.7c3.3-2.4,7.1-3,10.7-5.4
			C282.6,156.2,278.9,158.1,277.8,161.7z M277,179c2.2-3.6,5.7-5,8.4-7.9C280.5,171.6,277.1,174.7,277,179z M284.9,165.8
			c-5.4,0.7-8.1,2.7-8.3,6.6C279.2,169.8,282.2,168,284.9,165.8z M285.2,160.4c-6,0.4-7.9,1.7-7.2,4.9
			C279.9,163.1,282.6,162.3,285.2,160.4z"/>
		<path d="M144.7,418.3c-2.1-2.3-2-5-1.3-7.9c4.2-19.5,11.8-37.5,20.9-55.1c12.1-23.2,26.2-45,40.7-66.7
			c12.1-18.1,23.6-36.8,35.3-55.2c8.4-13.1,18.7-24.7,29.4-36c1.3-1.3,2.5-2.7,3.9-4.3c0.2,1.9-0.4,3.3-1,4.7
			c-1.9,4.8-2.8,9.6-2.1,14.8c1.2,7.8,5.4,13.3,12.1,17c3.3,1.9,6.8,2.8,10.2,4.4c-0.2,1.2-1.1,1.7-1.6,2.3
			c-10.8,12-22.3,23.4-33.3,35.2c-15.5,16.5-27.4,35.4-37.5,55.6c-5.7,11.4-12.2,22.2-19.3,32.8c-10.8,15.8-19.1,32.9-25.7,50.8
			c-3.1,8.5-11.3,13.4-20.2,12.3c-1.5-0.2-2.7-0.3-2.6-2.4c0-1.3-1.2-2.1-2.1-2.8c-0.2-0.7,0.3-1,0.4-1.4c0.7-1.6-0.2-2.6-1.6-3.1
			c-1.4-0.3-2.5,0.4-2.5,2C146.6,416.9,146.4,418,144.7,418.3z M164.1,373.2c1.9,0.9,3.7,0.3,4.5-1.3c2.6-4.9,6.6-9.2,8-14.8
			c0.2-0.8,0.3-1.4,1.2-1.6c1.9-0.4,2.7-1.7,3.3-3.4c0.8-2.2,2.2-4,3.6-5.8c1.6-2,3.3-3.9,4-6.4c0.2-0.7,0.5-1.1,1.3-1.3
			c1.5-0.3,2.2-1.6,2.7-3c0.7-1.9,1.2-3.8,1.9-5.7c0.8-2.1,2-4.2,4-4.8c3-0.9,3.8-3.1,4.3-5.7c0.3-1.4,0.8-2.8,0.9-4.4
			c0.1-2.5,0.8-5.1-0.8-7.9c-3.2,2.6-5.2,5.8-7.2,9c-3.1,4.8-4.6,10.4-8.2,15c-2.2,2.7-3.8,5.8-4.8,9.2c-0.2,0.7-0.4,1.2-1,1.6
			c-3,2-4.2,5-5,8.2c-0.3,1.2-0.2,2.7-1.2,3.4c-4.4,3.2-6.4,8.1-9.3,12.3C164.8,368.2,164,370.5,164.1,373.2c-3.6,1.7-5.4,5.6-4,9.2
			c0.2,0.7,0.7,1.4,1.5,1.5c0.8,0.1,1.4-0.3,1.9-1.1C165,379.7,165.9,376.5,164.1,373.2z M259.2,230.7c1.5,0,2.6,1.3,3.7,0.1
			c1.1-1.3,0.5-2.6,0-3.9c-0.8-1.9-1.6-3.6-2.5-5.4c-0.4-1-1-2-2.3-1.9c-1.3,0.2-1.9,1.3-2.1,2.5c-0.4,2.6-1.9,4.7-3.7,6.6
			c-2.4,2.4-4.5,5-6.4,7.8c-2.1,3.1-3.6,6.4-6,9.3c-2.6,3.3-5.1,6.6-6,10.8c-3.4,0-4.3,0.4-4.6,3.9c-0.4,5.1-3.1,8.9-5.9,12.8
			c-2.4,3.3-4.8,6.6-5.9,10.5c-1.2,4.4-3.7,7.4-7.2,10.2c-3.2,2.4-5.6,5.7-5.8,9.9c-0.1,1.2,0.2,2.3,1.6,2.7
			c1.4,0.4,2.4-0.2,3.1-1.4c0.4-0.8,0.5-2,1.4-2.2c2.4-0.7,3.5-2.6,4.5-4.6c0.3-0.7,0.9-1.2,1.6-1.4c1.3-0.3,2.1-1.2,2.7-2.3
			c1.2-2.2,2.5-4.5,3.7-6.7c1.1-2.1,2.4-4,4.4-5.2c1.3-0.9,2.1-2,2.4-3.5c1-3.9,2.1-8,5-10.8c2.4-2.3,3.2-5,3.7-8.1
			c0.7-3.6,2-6.9,4.9-9.2c2.5-2,4.2-4.4,5.1-7.3c0.3-0.8,0.4-1.7,1.2-2.3c2.8,0.5,3.9-0.3,4.4-3.7c0.1-0.9-0.1-2.1,1-2.3
			C257.9,234.7,258.6,232.7,259.2,230.7z M157.9,401.7c-0.1-1.3-0.8-2.1-2.2-2.1c-1.3,0-2.2,0.5-2.2,2.1s0.9,2.1,2.1,2.2
			C156.9,403.9,157.7,403,157.9,401.7z"/>
		<path d="M140.7,418.6c0.4,1.7,0.2,3.6,1.3,5.2c-1.1,1.2-2.5,2.1-2.5,3.9c0,1-1,1.2-1.7,1.6c-5,2.7-8.5,6.9-11.4,11.8
			c-0.3,0.5-0.5,1-0.8,1.5c-0.5,1.3-0.2,2.4,1,3.2c1.3,0.8,2.4,0.2,3.2-0.9c3-4.3,6.1-8.2,9.5-12c1.1-1.3,2.1-2.5,3.9-2.8
			c2-0.3,1.3-2.4,2-3.9c9.1,6.6,16.9,2.1,25.1-3.4c-0.8,2.4-1.7,3.8-2.8,5.2c-10.1,12.3-20.4,24.4-30.1,37
			c-7.1,9.4-15,18.4-20.1,29.1c-8.4,17.5-11.6,35.8-8.3,55.1c0.4,2.5-0.1,4.4-2.2,5.8c-1.9,1.2-3.6,2.6-5.6,3.7
			c-7.8,4.5-17.2,0.4-19.3-8.3c-1-3.8-0.9-7.6-0.9-11.6c0.2-26.4,7.9-50.8,21.9-73.2c2.7-4.4,5.1-9,7.7-13.6
			c7-12.8,16.6-23.3,28.1-32.2C139,419.3,139.7,418.6,140.7,418.6z M115.8,462.6c0-1.7,0.1-2.8-1.3-3.2c-1.2-0.3-2.1,0.3-2.7,1.3
			c-1,1.4-1.1,3.4-2.5,4.5c-2.1,1.5-3.1,3.6-3.8,5.9c-1.3,3.9-1.6,8.2-4,11.8c-1,1.5,0.3,3.6,2.2,3.7c2.1,0.2,2.8-1.3,3.2-2.8
			c0.8-3.9,3.3-7.2,3.8-11.1c0-0.4,0.4-0.9,0.9-1.1C115.1,469.2,115.2,465.4,115.8,462.6z M87.2,523.6c0,0.3,0,0.7,0,1
			c-0.1,1.6,0.2,3.1,2.1,3.3c2,0.2,2.7-1,3-2.8c0.2-2.8,1.2-5.6,2.1-8.3c1-3.3,0.9-6.4-0.7-9.6c-0.3-0.5-0.5-1.2-1.4-1.1
			c-0.7,0.1-1,0.5-1.2,1.1C89.4,512.6,87.5,518,87.2,523.6z M122.9,446.9c-1.4,0.4-2.5,0.8-3.7,1.3c-1.5,0.7-2.7,1.6-2.8,3.4
			c-0.1,2.5-0.1,5.1-0.1,7.7c0,1.2,0.2,2.4,1.3,3.3c1.1-0.8,1.3-2,1.5-3.1c0.5-2.2,1.2-4.2,3.8-4.6c0.8-0.1,1.1-0.9,1-1.5
			C123.9,451.3,124.1,449.1,122.9,446.9z M90.7,542.7c0.7-2.3-0.7-4.6-0.1-7c0.9-4.2-0.9-6.6-5.4-7.8c0.8,2.7,0.3,5.5,0.1,8.1
			C85.1,539.6,87.1,541.8,90.7,542.7z M99.4,497.9c0.2-1.3-0.2-2.6-0.4-3.9c-0.2-0.9-0.7-1.5-1.5-1.6c-1.1-0.1-1.6,0.5-2.1,1.4
			c-1.3,3-1.5,6.2-1.6,9.4c0,1.2,0.5,2.2,2,2.4c1.3,0.1,2.2-0.4,2.7-1.6C99.2,501.9,99.3,499.9,99.4,497.9z M91,552.2
			c1.7,0,2.7-1.2,2.2-2.8c-0.5-1.9-1.7-3.2-3.4-3.9c-1.3-0.7-2.6-0.4-3.1,1.2C86.1,548.9,88.6,552.2,91,552.2z"/>
		<path d="M459.8,516.4c-7.3,0.9-14.6,1.3-21.9,1.2c-1-4.4-0.1-5.5,3.8-5.8c6.6-0.4,9.9-1.3,13-3.3c-5.7,0.2-10.7,1.6-15.8,1.6
			c-0.1-0.2-0.3-0.3-0.3-0.4c0.4-5,1.1-9.9,2.8-14.8c1.2-3.3,3.9-5,7.3-5.7c2-0.4,3.6-1.2,4.7-3.7c-3.8,1.6-7.2,3.1-10.9,4.7
			c0.8-3.8,0.4-7.7,4.5-9.4c-0.7-1-1.5-0.3-2.3-1.1c4.2-19.1,2.2-38.5,0.8-58c1.3,0.3,1.6,1.4,2.3,2.1c8.1,8.2,13.8,17.9,17.9,28.7
			c4,10.5,8.5,20.8,10.3,31.9c1.6,9.7,0.9,19.5,0.5,29.2c0,2-0.2,3.9-0.2,5.9c0,1.6-0.9,2.7-2.4,3.4c-11.6,4.9-23.8,7.2-36.4,6.9
			c-1.2,0-2.1-0.2-2-1.7c0.1-1.6,0.9-1.9,2.3-1.7c4.5,0.2,8.9,0.7,13.3,0c3.1-0.4,5.9-1.3,8.2-3.4c-6.6,1.9-13.1,2.1-19.9,1.7
			c-3.5-0.1-3.7-0.2-3-3.7c0.1-0.7,0.1-1.3,0.8-2.1C444.8,519.4,452.6,520,459.8,516.4z M453.6,499.9c-4.9,1.4-9.4,2.3-13.6,4.4
			C443.8,505.5,451.4,503.1,453.6,499.9z M453,495.9c-0.1-0.3-0.2-0.7-0.3-1c-3.1,1-6.1,2-9.3,3.1c0.1,0.2,0.1,0.4,0.2,0.7
			C447.1,498.6,450.4,498.6,453,495.9z"/>
		<path d="M241.5,642.8c-0.2-2.1-1.3-2.6-2.7-2.5c-2.3,0.1-4.8-0.2-6.9,0.5c-5.7,2-11-0.5-16.6-0.8c-0.9,0-1.3-0.7-1.5-1.4
			c-0.7-2.1-1.4-4.3-1.6-6.7c6.1,0.1,12-0.7,18-2c-0.4-2-1.6-2.2-3.2-2c-3.9,0.5-7.9,1.2-11.8,1.2c-2.8,0-3.9-0.9-4.4-3.6
			c-0.4-2.5-0.5-5-0.9-7.7c-0.1-1.3,0.5-1.7,1.6-2.1c2.6-0.8,4.8,0.1,6.9,1.6c1.5,1.2,2.8,2.7,5.5,3.4c-6.2-9.5-11.6-19-14-29.9
			c0.9,0.2,0.9,0.8,1.1,1.3c5.4,14.2,13.7,26.4,23.5,37.8c10.8,12.6,22.8,23.9,34.6,35.6c1.9,1.9,3.9,3.5,6.9,5.2
			c-5.1-10.1-4.5-20.3-3.9-30.6c0.7,3.8,1.3,7.8,2.1,11.6c1.4,7.5,4.3,14.6,7.6,21.6c1.1,2.2,2.7,3.8,4.9,4.6
			c10.4,3.9,20.9,6.1,31.9,3.6c7.3-1.6,13.7-5,18.7-10.8c11.7-13.8,24.4-26.7,37.3-39.2c13.1-12.8,23.4-27.6,32.6-43.4
			c1.6-2.7,3.3-5.4,4.9-8c0.1-0.1,0.2-0.1,0.9-0.5c-7.1,14.4-15.3,27.4-23.6,40.7c3.2-1.9,6.4-3.8,9.6-5.7c0.5,0.9,0.2,1.5-0.1,2.1
			c-2.8,3.9-3.9,8.6-5.5,13.2c-2.4,7.2-5.6,13.9-10.1,20.1c-1.6,2.3-3.5,4-6.1,5.2c-3.3,1.4-6.4,3.2-10.3,5.1
			c6.6-10.8,9.6-22.8,18.5-31.8c-2-0.9-2.7-0.3-3.5,0.5c-3.9,4.6-7.6,9.3-9.9,15c-2.6,6.4-6.3,12.3-10.5,17.8
			c-1.2,1.6-2.8,2.8-4.6,3.6c-10.5,5-20.8,10.4-30.8,16.3c-8.2,4.7-17,6-26.2,3.4c-1.4-0.4-2.8-0.4-4.4-0.3
			c-3.7,0.3-7.2-0.4-10.5-2.3c-3.7-2.1-7.4-4.3-11.1-6.4c0.2-0.3,0.3-0.7,0.4-0.8c0.9-0.4,2.1-0.5,1.9-2c-0.2-1.3-1.4-1.5-2.5-1.6
			c-5.7-0.7-11.3-1.9-16.1-5.1c-0.5-0.3-1.1-0.8-1.5-1.2c-0.1-0.1-0.1-0.3-0.2-0.8c1.6,0,3.3,0,4.9,0c1,0,2.2,0,2.1-1.4
			c-0.1-1.2-1.2-1.2-2.1-1.3c-3.8-0.1-7.8-0.3-11.6-0.9c-5.7-0.9-9.9-4.4-14.4-7.7c5.2,0.9,10.3,0.8,15.1-1.9
			c-0.4-2.1-2-1.7-3.2-1.5c-8.2,1-15.8-1.1-23.4-4c-0.9-0.3-2-0.4-2.4-2C227.9,644.7,234.6,643.3,241.5,642.8z"/>
		<path d="M440.7,607.1c-9.7-6.2-15.1-15-18.9-24.7c-6.8-17.3-8.1-35-3.4-53.1c3-11.3,5.9-22.4,8.5-33.8c3.6-15.4,5-31,6.1-46.8
			c1-14.5,0.2-29-3.5-43.2c-0.7-2.5-1.4-5-2.2-7.5c1-0.3,1.2,0.4,1.4,0.8c4,5.2,8,10.5,12,15.6c1.2,1.5,1.7,3.4,1.9,5.2
			c0.8,9.1,1.5,18,2.2,27.1c1.1,13.9-1.5,27.2-4.8,40.5c-4.7,19.7-8.6,39.6-10.9,59.8c-2,16.9,0.5,33.6,6.2,49.6
			C436.8,600.3,438.7,603.4,440.7,607.1z"/>
		<path d="M317.4,203.7c0.2,7.2-1.9,13.7-5.9,19.3c-4,5.8-9.7,8.5-16.8,7.5c-6-0.9-11.7-2.7-16.1-6.9c-5.9-5.6-7.5-12.8-6-20.4
			c1.9-9.2,7.1-16.6,15.5-20.9c7.1-3.7,14.6-2.7,21.6,0.9c5,2.6,6.2,7.9,7.1,13C317.1,198.6,317.5,201.3,317.4,203.7z"/>
		<path d="M463.4,441.1c4,3.5,8,7.2,12.6,9.9c4.9,3,8.1,7.1,10.9,12c5.1,8.7,11.5,16.6,19.1,23.5c1.9,1.6,2.3,3.7,2.3,6
			c-0.1,8.1,0.3,16.2,2.5,24c0.5,2.2,1.2,4.3,1.9,6.6c-1.6,0.5-3.1,0-4.3-0.5c-8.7-3.9-17.5-8-26.3-12c-2.5-1.1-3.2-3.1-3-5.6
			c1.1-14.8-1.4-29.1-6.9-42.8c-2.2-5.6-4.6-11.1-7.4-16.4c-0.8-1.3-1.3-2.7-2-4.2C463,441.5,463.3,441.2,463.4,441.1z"/>
		<path d="M324.5,137.1c-5.2-5.4-11.1-9.5-18.7-10.3c-7.3-0.8-14.2,1.3-21.2,3.8c-1.1-6.3-1.5-12.5-4.2-18.5c-1,1.5-0.8,2.8-0.4,4.2
			c1.1,4.3,2.2,8.4,3.3,12.7c0.7,2.4,0.1,3.2-2.5,3.9c-1.4-3.4-0.5-7.3-2.2-11.3c-1.9,4.7,0.8,9-0.5,13.8c-1.7-4.8-1.4-9.7-3.9-13.8
			c-1,1-0.8,2-0.5,3c0.8,3.3,1.5,6.6,2.3,9.8c0.5,2.4,0,3.6-2,5.5c-1-0.3-0.8-1.3-1-2.1c-1.6-5.6-3.2-11-4.7-16.6
			c-0.9-3.2-0.8-3.6,2.2-4.9c1.9-0.9,3.6-1.7,5-3.1c2-1.9,4.3-2.5,6.9-2.1c2.1,0.3,3.9-0.2,5.5-1.6c2.2-1.9,4.7-2.7,7.5-2.4
			c2.3,0.2,4.6-0.4,6.9-0.7c7.1-0.7,14,0.2,20.7,2.8c3.5,1.3,4.5,3,4,6.7c-0.5,5-1.1,10.1-2.7,14.8
			C323.4,133.1,324.5,134.9,324.5,137.1z"/>
		<path d="M335.1,481.2c0.7-1.3,1.2-2.4,0-3.7c-0.4-0.5,0.2-1.5,0.7-2.3c6.7-12.5,16.9-19.6,31.1-20.1c7.2-0.3,14.3-0.3,21.3-2.1
			c2.6-0.7,5.2-1.3,7.6-3.1c0.8,0.5,1.6,1.1,2.5,1.6c-0.2,2.4-1.3,4.5-2.5,6.3c-4.8,7-11.3,11.1-20,11.5c-5.7,0.2-11.4,0.3-17,0.8
			c-7.5,0.7-14.2,3.3-20.1,8.1C337.5,479.4,336.3,480.4,335.1,481.2z"/>
		<path d="M181.6,595.3c-3.1-2-6-2.3-9.1-2.2c-4.7,0.2-9.2,1.6-13.7,3.1c-7.2,2.3-14,1.3-20.1-3.2c-0.4-0.3-0.9-0.7-1.3-1.1
			c-0.2-0.1-0.2-0.4-0.3-0.5c0.1-0.1,0.2-0.3,0.3-0.3c5-0.5,9.7-2.2,14.3-4.4c2.5-1.2,5.4-1.5,8.1-2c4.4-0.8,8.1,0.4,11.9,2.8
			c6.8,4.5,14.1,8.2,20.7,13.1c1,0.8,2.2,1.2,2.2,3.1c-7.7,1-14.3,5.4-22.2,6c-2.7,0.2-5.5-0.1-8-1.1c-4.9-1.9-8.9-5.2-13.4-7.9
			c5.1-0.9,10.2-1.9,15-3.7C170.8,595.1,176.2,596.8,181.6,595.3z"/>
		<path d="M244.6,479.5c-6.9-0.4-13.2,3.2-19.9,1.5c6.1-0.5,11.9-3,18.1-3.2c1.2,0,1.9-0.4,1.7-1.7c-0.1-1.2-0.3-2.5-1.9-2.4
			c-1.6,0.1-3.3,0.4-4.9,0.8c-3.3,0.7-6.4,1.5-9.7,2.1c-9.1,1.4-16.4-2.7-18.8-10.6c-0.3-1.2-0.8-2.5-0.3-3.7c0.4-0.2,0.8-0.1,1,0.1
			c5.4,5.9,12,5.9,18.9,4.3c6.2-1.4,12.5-3,19-2.3c9.6,1,18.8,9.3,20.8,18.7c0.1,0.3,0,0.7,0,1.2c-3-1.9-5.7-3.6-8.6-5.2
			c-2.7-1.5-5.7-2.8-9-3.7c-2.1,4.2,2,4.3,3.7,6c-4.7-0.4-4.6-0.4-6,4.3c-2.1,7.4-3.5,15-3.6,22.6c0,0.7,0.2,1.5-0.5,2.4
			C242.5,500.1,244.6,490,244.6,479.5z"/>
		<path d="M479.2,510.4c10.5,6.6,21,12.1,32.1,16.1c1.3-0.4,0.5-2,1.7-2.6c0.7,3.7,2.5,6.9,5.4,9.7c-3.3,2.3-6.3,4.7-9.6,6.7
			c-1.7,1.1-3.9,0.7-5.8,0c-8.3-3.3-16.6-6.9-24.7-10.7c-0.9-0.4-1.3-0.8-1.1-1.9C478.6,522.1,478.8,516.5,479.2,510.4z"/>
		<path d="M471.1,599.6c2.5-6.4,3.2-13.2,4.5-19.8c1.1-6.1,3.9-11.5,7.4-16.5c0.3-0.5,0.8-1.1,1.3-1.4c5.4-3.5,10.7-6.9,16.6-10.7
			c-3.8,11.1-5,22.4-9.7,32.7c-1.6,3.7-4.3,6.6-7.9,8.5C479.2,594.6,475.3,597.1,471.1,599.6z"/>
		<path d="M493.5,585.9c3.1-7.2,5.1-13.9,6.7-20.8c0.3-1.2,0.7-2.4,0.9-3.6c1.4-10.3,7.3-17.4,15.6-22.8c1-0.7,2-1.3,2.7-2.1
			c0.7-0.7,1.1-1.1,2.1-0.5c1,0.5,0.8,1.3,0.4,2.1c-1.9,5-3.4,10.2-4.5,15.4c-0.9,4.2-1.4,8.4-2.3,12.7c-1.4,6.9-5,12-11.9,14.5
			C500,581.8,497.3,584,493.5,585.9z"/>
		<path d="M478.1,565.7c-2.8,5.5-4.9,11.3-5.8,17.4c-0.9,6.3-3,12.1-6,17.6c-1.1,2-2.4,3.5-4.3,4.7c-3.8,2.3-7.5,4.7-11.8,7.3
			c0.8-3.6,1.6-6.6,2.2-9.5c1.4-8.5,2.5-17,6.7-24.9c0.8-1.5,1.7-2.6,3.3-3.5c3.7-2.2,7.2-4.6,10.8-6.9c1.4-0.9,3-1.6,4.5-2.5
			C477.8,565.5,477.9,565.6,478.1,565.7z"/>
		<path d="M189.4,594c-7.1-3.8-14-7.4-20.2-12.2c0.7-2.1,2.1-3.6,3.2-5.4c3.2-4.8,6.3-9.6,10.2-14c0.8-0.9,1.5-1.7,2.6-2.3
			c3.3-1.7,4.6-1.2,5.5,2.3c1.4,5.8,3.2,11.6,4.2,17.5c0.5,3.5,0,6.4-2.2,9.3C191.5,590.7,190.6,592.3,189.4,594z"/>
		<path d="M538.8,534.4c0.5,5,0.1,9.9-0.5,14.9c-0.3,2.4-1,4.9-1.1,7.3c-0.1,3.2-1.6,5-4.3,6.7c-5.4,3.3-10.7,6.8-16.6,10.1
			c0.9-3.8,1.9-7.2,2.5-10.7c1.5-7.8,2.8-15.5,5.6-23.1c0.8-2,1.9-3.2,4-3.4C531.8,535.8,535.1,534.1,538.8,534.4z"/>
		<path d="M388.2,648.7c4.5-8.5,7.3-17.6,10.7-26.3c3.1-8,8.9-13.7,16.7-17.3c-2.3,4.9-3.7,10.2-4.6,15.5c-0.7,3.7-1.3,7.4-2.2,11.1
			c-1.1,4.6-3.3,8.2-7.6,10.6C396.9,644.5,392.8,647,388.2,648.7z"/>
		<path d="M410.5,636.9c3.2-9.8,2.6-20.4,7.4-29.6c1.4-2.8,3.3-5.4,5.6-7.5c2-1.9,2.6-1.6,4.7,0.1c3.4,2.7,3.7,5.7,2.2,9.7
			c-2.3,5.9-4.2,11.9-6.6,17.8c-0.7,1.6-1.7,3-3.3,3.8C417.1,632.9,413.9,634.9,410.5,636.9z"/>
		<path d="M142.1,527.1c1.1,4.4,2,8.7,2.6,13.1c0.2,1.1-0.7,1.6-1.4,2.1c-6,3.8-12,7.5-17.9,11.4c-1.6,1.1-3.1,1-4.7-0.3
			c-1.5-1.2-3.1-3.2-5.7-2c0-1.3,0-2.6,0-3.9c0-1.5,0.5-2.7,1.9-3.5c8.3-5,16.2-10.7,24.2-16.3C141.2,527.5,141.5,527.4,142.1,527.1
			z"/>
		<path d="M436.9,587.5c-4.4-8.1-6.2-28.5-3.4-37c0.9,0,1,0.8,1.3,1.2c4.7,7.2,9.4,14.5,14.1,21.7c2,3.1,1.9,3.6-0.9,6
			c-3.1,2.6-6.3,5-9.7,7.2C437.9,586.9,437.4,587.1,436.9,587.5z"/>
		<path d="M118.7,579.1c8.3-0.3,15.3-3.9,23-4.6c7.2-0.7,12.9,1.3,19.1,7.3c-9.1,1.3-17,7-26.7,5.5
			C128.3,586.2,123.3,583.6,118.7,579.1z"/>
		<path d="M284.1,655.6c1.1-1.9,2.8-3.2,4.5-4.5c3.8-3.1,7.5-6.1,11.4-9.1c3.8-3,7.3-6.2,7-11.8c1.4,0.8,0.7,2.2,1.7,3.2
			c3.7-2.2,6.8-5.7,11-7.2c-2.7,2.7-5.4,5.7-8.3,8.3c-2.5,2.2-3.4,4.7-3.3,8.1c0.3,6.4,1.7,12.7,2.5,19.8c4.6-9.1,3.4-18.9,6.6-27.6
			c1.4,0.4,1.3,1.2,1.1,2.1c-1.7,7.3-1.7,14.9-2.1,22.4c-0.1,2.6-1,4.5-3.2,6c-1.6,1.1-3.1,2.5-4.6,3.7c-0.9,0.8-1.7,1.5-3.4,0.9
			c2.3-9,1.1-17.9,0.8-26.6c-7,4.3-14.2,8.6-21.3,13C284.5,656,284.4,655.8,284.1,655.6z"/>
		<path d="M274.7,143.9c2-3.9,5.1-6.8,9-9c10.2-5.7,20.8-6.9,31.9-2.6c5.2,2,9.4,7,9.5,12.1c-7.5-5.5-15.7-8.4-25-7.9
			C291.1,137.1,282.9,140.2,274.7,143.9z"/>
		<path d="M433.8,546.9c-0.5-7.2-0.5-7.2,6.3-7.2c9-0.1,17.8-0.4,26.2-3.9c2.5-1.1,4.8-2.4,7.3-4c0.4,2.5,0.1,4.7-0.1,6.8
			c-0.1,1.1-1.3,1.3-2.2,1.7c-7.8,4-16.1,5.8-24.7,6.3C442.4,546.8,438.1,547.1,433.8,546.9z"/>
		<path d="M539.5,558.4c0.4-2.5,0.7-4.6,1-6.6c0.8-4.6,1-9.3,1.1-14c0-3.2,0.7-6,3.5-8c1.5-1.1,1.5-3.1,2.7-4.7
			c3.2,3.3,4.7,7.2,6,11.4c1.5,4.9,0.5,8.9-3.2,12.6C547.3,552.4,543.8,555.4,539.5,558.4z"/>
		<path d="M475,524.1c0.4,1.9-0.2,3.7-0.5,5.6c-0.1,0.3-0.3,0.9-0.7,1c-7.4,3.3-15,6.3-23.2,6.7c-4.5,0.2-9.1,0.7-13.6,0.9
			c-0.8,0-1.6,0.2-2.5-0.2c-0.8-1.9-0.3-3.8,0-5.8c0.2-1.5,1.5-1,2.4-1c6.8,0.2,13.4,0,20.1-1.3c5.5-1.1,10.7-2.6,15.6-5.1
			C473.4,524.4,474.1,523.9,475,524.1z"/>
		<path d="M455.2,579.4c-4.7,9.9-3.8,20.8-7.2,30.8c-2.7-1.7-4.3-4.2-5.7-6.7c-2-3.5-3-7.4-4.3-11.4c-0.2-0.8-0.3-1.4,0.5-2
			c5.1-3.5,10.3-7.1,15.4-10.6C454.3,579.6,454.5,579.6,455.2,579.4z"/>
		<path d="M144.8,571.4c-7.9-0.1-14.9,3.5-22.5,4.6c-4.6,0.7-8.9,0.2-12.8-2.4c-1-0.7-2.2-1.2-2.8-2.8c7.6-0.3,14.2-4.3,21.5-5.6
			C134.7,564.2,140,566.9,144.8,571.4z"/>
		<path d="M261.6,637.4c-1.9-3.4-1.9-7.1-2.2-10.7c-1.1-12.7,0.1-25.1,1.6-37.7c1.3-10.5,2.3-21,2.7-31.5c0.1-1.4,0-3,1.2-4.2
			c0.9,0.4,0.7,1.3,0.7,2c0.9,9.8,0.4,19.6-0.7,29.4c-1.5,13.7-2.8,27.3-3.6,41.1C261.3,629.7,261.4,633.5,261.6,637.4z"/>
		<path d="M197.6,617.6c-9.5,5.1-19.3,3.3-27.6-5.2c7.8,0,14.3-3.4,21.4-5.1c3.3-0.8,4-0.3,4.7,3.1
			C196.5,612.7,197,615.1,197.6,617.6z"/>
		<path d="M129.4,561.8c-8.4,2.6-16,5.8-24.3,6.3c-2.5,0.2-4.9-0.3-6.6-2.4c6.1-3.4,13-5.6,16.3-12.6
			C118.8,556.8,123.9,558.9,129.4,561.8z"/>
		<path d="M403.8,511.6c2.2,25.6-1.4,50.5-8.7,75C400.9,561.9,399.2,536.4,403.8,511.6z"/>
		<path d="M350.5,432.8c1.1,0.1,1.4-0.8,2.1-1.2c0.7-0.5,1.3-1.2,2.2-0.5c1.1,0.7,0.9,1.7,0.5,2.6c-1.4,3.3-1.9,6.8-2.6,10.3
			c-0.2,1.2-0.3,2.5-0.8,3.7c-2-3.5-0.4-7.3-0.5-10.9c-1.1-0.5-1.7,0.9-3,0.5c-0.9-0.7-0.8-1.7-0.8-2.8c0.1-1.4,0.2-2.8,0.4-4.2
			c1.1-6,0.4-11.4-4.3-16.1c-3-3-4.6-7.1-6.2-11.1c3.8,4.4,8.3,7.9,12.7,11.6c1.4,1.2,2.1,2.8,1.7,4.6c-0.4,3.4-0.9,6.7-1.3,10.1
			C350.6,430.6,350.3,431.7,350.5,432.8z"/>
		<path d="M434.1,606.4c4,3.1,7.9,5.9,12.1,9c-6.3,3.8-12.3,7.5-19.1,11.7C429.6,619.8,431.8,613.3,434.1,606.4z"/>
		<path d="M548.1,512.1c10.8,3,13,14.9,8.9,25.5c-0.7-2.1-1.3-3.9-2-5.8c-1.3-3.6-3.2-6.9-6.4-9.1c-0.7-0.4-1.2-0.9-1.1-1.7
			C547.6,518,547.8,515,548.1,512.1z"/>
		<path d="M261.4,466.2c-4.6-4-9.8-6.3-15.7-7.4c-4-0.8-8-0.1-12,0.4c-3.9,0.5-7.9,1.6-12,1.4c8-2,15.8-5,24.3-3.5
			c2.4,0.4,3-0.4,2.8-2.5c-0.1-1.4-0.4-2.8,0.4-4.5c2.3,4.3,3.1,9.3,8.3,11.4c2-7.2,0-14.8,3.1-21.6
			C261.2,448.5,260.9,457.2,261.4,466.2z"/>
		<path d="M250.3,571.1c4.3,12.7,7.1,24.8,3.2,37.8C250.8,602.7,248.6,576.8,250.3,571.1z"/>
		<path d="M304.5,530.7c3.8-16.2,2.1-32.1,2.7-48c0-0.1,0.2-0.2,0.5-0.4c0.8,3.5,0.8,7,0.9,10.4c0.2,4,0.5,8.1,1.5,12
			c1.1,4.5,0.8,8.9-0.4,13.2c-0.9,3.3-1.9,6.4-2.7,9.7C306.8,528.8,306.2,529.8,304.5,530.7z"/>
		<path d="M349.9,476.5c2.8-1.6,5.9-2.1,9.1-2.1c6.2-0.1,12.3-0.4,18.4-1.9c5.4-1.3,10.3-3.6,14.8-6.8c1.1-0.8,2.3-1.6,4-2.8
			c-3.5,8-3.6,16.3-8.6,22.9c0.9-4.4,2.3-8.6,1.5-13.1c-0.1-1-0.4-1.9-0.8-3.2c-6.1,3.1-12.2,5.4-19,5.6
			C362.9,475.5,356.4,475.8,349.9,476.5z"/>
		<path d="M303.2,504c-2-2.6-2.1-5.7-2.6-8.6c-1-4.8-2-9.5-4.8-13.6c-0.4-0.7-0.5-1.3-0.5-2.1c0.4-4,0.8-8,1.2-12
			c0.1-0.9,0.1-1.9,1.6-2C297.8,478.7,302.9,491,303.2,504z"/>
		<path d="M201.2,631.7c-4.5-2.6-9.1-5.2-13.6-7.8c3.7-0.8,7.2-1.7,10.9-3.3c1.1,3.7,2.2,7.2,3.2,10.7
			C201.5,631.5,201.3,631.6,201.2,631.7z"/>
		<path d="M241.4,551.8c1.1,9.9,4.6,19.8,2.5,30.2C241.2,578.2,240.1,564.4,241.4,551.8z"/>
		<path d="M547.4,499.2c3,2.3,5.2,6.4,6.2,11.3C548.7,510.9,545.8,505.8,547.4,499.2z"/>
		<path d="M376.2,445.2c1.1-6.8-0.9-14,3.7-20.1C377.9,431.6,379.3,438.8,376.2,445.2z"/>
		<path d="M362.4,452.1c-7.4,2.2-14.6,4.7-21.1,9.1C347,454.9,354.4,453,362.4,452.1z"/>
		<path d="M542.2,515.9c-1.3-1.5-2.2-3.1-2.1-4.9c0.1-2.3,0.3-4.5-0.4-6.8c-0.5-1.4,1-1.3,1.9-1.5
			C542.2,504.7,542.6,513.4,542.2,515.9z"/>
	</g>
</g>
<g>
	<g>
		<path fill="#C4BA98" stroke="#000000" stroke-width="0.5" stroke-miterlimit="10" d="M472.9,649.1v-11.7h9.1v2.1h-7v3.1h3.8v2.1
			H475v3.6L472.9,649.1z"/>
		<path fill="#C4BA98" stroke="#000000" stroke-width="0.5" stroke-miterlimit="10" d="M484.4,640.2c0-1.1,0.1-1.8,0.5-2.2
			c0.3-0.4,0.9-0.6,1.8-0.6h6.6c0.9,0,1.5,0.2,1.8,0.6c0.3,0.4,0.5,1.1,0.5,2.2v6.2c0,1.1-0.1,1.8-0.5,2.2c-0.3,0.4-0.9,0.6-1.8,0.6
			h-6.6c-0.9,0-1.5-0.2-1.8-0.6c-0.3-0.4-0.5-1.1-0.5-2.2V640.2z M486.5,646.9h6.9v-7.4h-6.9V646.9z"/>
		<path fill="#C4BA98" stroke="#000000" stroke-width="0.5" stroke-miterlimit="10" d="M499.9,647.3v-9.8h7.7c0.7,0,1.2,0.2,1.6,0.5
			c0.3,0.4,0.5,0.9,0.5,1.7v2.7c0,0.8-0.2,1.4-0.5,1.7c-0.3,0.4-0.8,0.5-1.6,0.5h-1.2l4.2,4.4h-3l-3.6-4.4h-2v2.1L499.9,647.3z
			 M506.7,639.5H502v3.2h4.7c0.4,0,0.6-0.1,0.7-0.2c0.1-0.1,0.2-0.4,0.2-0.7v-1.4c0-0.3-0.1-0.6-0.2-0.7
			C507.3,639.6,507.1,639.5,506.7,639.5z"/>
	</g>
	<g>
		<path fill="#C4BA98" stroke="#000000" stroke-width="0.5" stroke-miterlimit="10" d="M457.1,672.6c0.8-0.1,1.2,0.3,1.2,1.1v1.4
			h2.3c0.9,0,1.1,0.3,0.6,0.9h-2.9c0,1.5,0.1,2.3,0.3,2.3c0.4,0.1,0.7,0,1.1-0.1c1-0.2,1.5,0.1,1.4,1.1c-0.1,0.7-0.1,1.7-0.1,3
			c0.1,1-0.4,1.4-1.5,1.1c-1.2-0.4-2.5-0.4-3.8,0c-0.8,0.5-1.3,0.3-1.4-0.7c-0.1-1-0.3-2.1-0.6-3.3c0.1-0.8,0.7-1.1,1.7-0.7
			c0.8,0.1,1.2-0.1,1.2-0.6c0-1.1,0-2.2-0.1-3.2C456.2,673.2,456.4,672.5,457.1,672.6z M455.6,679.9c-0.1,1.2,0.1,1.9,0.6,2
			c2.3,0.3,3.4,0,3.2-1.1c0.2-1.4-0.7-2-2.9-1.7C455.9,679.1,455.6,679.4,455.6,679.9z M461.7,676.4c0.4,0,0.7,0,0.7-0.1
			c-0.1-1.1-0.1-2.2-0.1-3.2c-0.1-0.7,0.3-1,1.1-0.9c0.5,0,0.7,0.3,0.7,0.7c-0.1,0.9-0.1,2,0,3.2c3.3-0.5,5-0.5,4.8,0
			c0.2,0.3,0.1,0.4-0.1,0.4c-1.5,0.2-3,0.4-4.6,0.7c0.3,0.9,0.6,1.7,0.9,2.3c0.4-0.5,0.8-1.1,1.2-1.8c0.3-0.3,0.6-0.4,0.9-0.3
			c0.4,0.3,0.6,0.7,0.4,1.1c-0.6,0.8-1.2,1.5-1.7,2c1.1,1.1,2.9,1.6,5.4,1.5c0.2,0.1-0.1,0.6-0.9,1.5c-1.1,1.1-2.3,1.3-3.5,0.6
			c-0.5-0.4-1.3-1.2-2.4-2.3c-1,0.7-2.1,1.1-3.2,1.2c-0.5-0.1-0.6-0.3-0.3-0.6c1-0.3,1.9-0.9,2.7-1.8c-0.4-0.6-0.8-1.6-1.2-3
			c-0.5,0.1-1,0.3-1.4,0.4c-0.6,0.1-0.9-0.2-0.7-0.9C460.6,676.7,461,676.5,461.7,676.4z M466.5,672.9c0.3-0.7,0.7-0.9,1.2-0.6
			c0.5,0.3,0.7,0.7,0.4,1.2c-0.4,0.6-1.1,1-2,1.1c-0.4,0-0.6-0.1-0.4-0.4C466.1,673.7,466.3,673.3,466.5,672.9z"/>
		<path fill="#C4BA98" stroke="#000000" stroke-width="0.5" stroke-miterlimit="10" d="M478.5,676.4c0.5,0,0.9,0.1,1.1,0.4
			c-0.1,0.4-0.4,0.6-1.1,0.4c-0.6,0-1.2,0-1.8,0.1c0.2,0.3,0.1,0.6-0.3,0.9l-0.7,0.7c-0.3,0.4,0,0.7,0.7,0.7
			c0.6,0.1,1.1-0.1,1.5-0.6l-0.4-0.9c0.1-0.3,0.3-0.4,0.6-0.3c0.3,0.2,0.6,0.4,0.9,0.6c0.2,0.4,0.4,0.9,0.7,1.4
			c-0.1,0.2-0.2,0.3-0.3,0.3c-0.4,0.1-0.8-0.1-1.2-0.6c-0.6,1.1-1.3,1.5-2,1.2c-0.6-0.4-1.2-0.4-1.7-0.1c-0.2,0-0.4-0.1-0.6-0.4
			c-0.1-0.4,0.1-0.8,0.6-1.2c0.9-0.8,1.2-1.4,0.9-1.7c-0.4-0.1-1,0-1.8,0.3c-0.3,0.2-0.5,0.1-0.6-0.1c0.1-0.7,0.4-1.1,1.1-1.2
			L478.5,676.4L478.5,676.4z M478.5,674.3c0.3,0,0.5,0.1,0.6,0.4c0,0.3-0.1,0.4-0.3,0.4h-2.4c-0.7,0-1.4,0-2,0.1
			c-0.2-0.1-0.3-0.3-0.3-0.6c0.1-0.3,0.3-0.6,0.6-0.7C475.4,674.2,476.7,674.3,478.5,674.3z M482.4,678.5c-0.3-0.1-0.6-0.1-0.9,0
			c-0.3,0.2-0.6,0.4-0.9,0.4c-0.2,0-0.4,0-0.4-0.1c-0.2-1.5-0.4-2.9-0.6-4.1c-0.1-0.6,0.2-0.9,0.9-0.9c0.3,0.2,0.8,0.3,1.5,0.1
			c0.3-0.3,0.7-0.8,1.1-1.5c0.1-0.2,0.3-0.3,0.6-0.3c0.9,0.3,1.2,0.7,0.7,1.1c-0.3,0.3-0.6,0.6-0.7,0.7c0.7,0,1.6,0.1,2.7,0.3
			c0.3-0.1,0.6-0.2,0.7-0.3c0.3-0.1,0.6,0,0.7,0.1c0.4,0.3,0.5,0.7,0.3,1.4c-0.3,0.9-0.5,1.9-0.6,2.9l-0.4,0.3
			c0.4,0.3,0.4,0.6,0.1,0.7c-0.2,0.2-0.4,0.4-0.6,0.6c-0.2,0.1-0.1,0.3,0.1,0.4c0.4,0.1,0.7,0,1.1-0.1c-0.4-0.3-0.4-0.5-0.1-0.6
			c0.4,0,0.7,0,0.9,0.1c0.2,0.3,0.4,0.6,0.6,0.9c-0.1,0.1-0.3,0.2-0.4,0.3l-0.6-0.4c-0.2,0.6-0.6,0.9-1.1,0.7
			c-0.4-0.3-0.8-0.4-1.2-0.3c-0.3-0.2-0.4-0.4-0.3-0.7c0.2-0.2,0.4-0.4,0.6-0.7c0.1-0.2,0.3-0.5,0.4-0.9c-0.8-0.1-1.8-0.1-2.9-0.1
			c-0.7,2.3-2.1,4-4.1,5c-1.6,0.6-2.8,0.4-3.6-0.7c0-0.1,0.2-0.1,0.6-0.1C479.8,682.3,481.7,680.9,482.4,678.5z M482.9,674.7
			c-0.7,0-1.3,0.1-1.7,0.3c-0.2,0.6-0.1,0.9,0.3,0.9l1.7-0.1C483.3,675.3,483.2,674.9,482.9,674.7z M483,676.5c-0.5,0-1.1,0-1.8,0.1
			c0,0.7,0.1,1.1,0.4,1.1l1.1-0.1L483,676.5z M484.1,679.3c0.1-0.4,0.3-0.6,0.6-0.6c0.2,0,0.4,0.1,0.4,0.3c-0.2,0.4-0.4,0.8-0.4,1.2
			c0,0.4,0,0.7,0.1,0.9c0.4,0.5,1.2,0.9,2.4,1.1c1,0.1,2,0,2.9-0.3c0.6-0.3,1-0.4,1.2-0.1c-0.1,0.6-0.4,1.3-1.1,2.1
			c-0.7,0.6-1.3,0.8-1.8,0.6c-1.7-0.3-3.1-1-4.3-2.1c-0.5-0.6-0.7-1.2-0.6-1.7C483.8,680.1,484,679.7,484.1,679.3z M486.4,677.9
			c0.2-0.4,0.3-0.7,0.1-1.1c-0.4-0.2-1.2-0.3-2.3-0.3c-0.1,0.4-0.1,0.8-0.1,1.2C484.9,677.9,485.7,677.9,486.4,677.9z M484.4,675.8
			l1.7,0.1c0.4,0.1,0.6-0.1,0.6-0.6c0-0.4-0.6-0.6-1.8-0.6C484.5,674.8,484.4,675.2,484.4,675.8z"/>
		<path fill="#C4BA98" stroke="#000000" stroke-width="0.5" stroke-miterlimit="10" d="M497.7,675.6c0.2-0.4,0.4-0.6,0.4-0.6
			c0.5-0.1,0.7,0.3,0.4,1.1c-0.3,0.9-0.7,1.9-1.4,2.9c-0.5,0.8-1,1.4-1.5,1.8c-1,0.9-2.1,0.9-3.2-0.1c-0.3-0.3-0.2-0.6,0.3-0.9
			C494.6,678.9,496.2,677.5,497.7,675.6z M501.2,672.6c1-0.1,1.5,0.4,1.4,1.7c-0.1,2.5,0,5.4,0.1,8.5c0,1.2-1,1.8-2.9,1.7
			c-1-0.1-2.2-0.7-3.5-1.7c-0.2-0.5-0.1-0.7,0.3-0.7c1.9,0.6,3.1,0.7,3.5,0.3c0.3-0.2,0.4-3,0.3-8.5
			C500.5,673,500.7,672.6,501.2,672.6z M503.6,676.1c-0.3-0.4-0.3-0.7,0.1-0.9c0.2-0.1,0.4,0,0.6,0.1c1.4,1.8,3.5,3.4,6.4,4.7
			c-0.3,0.5-0.6,0.9-0.9,1.1c-0.9,0.8-1.8,0.8-2.6,0C506,679.5,504.8,677.8,503.6,676.1z"/>
		<path fill="#C4BA98" stroke="#000000" stroke-width="0.5" stroke-miterlimit="10" d="M518.6,678.2c-0.3,1-0.6,1.8-0.9,2.3l2-0.3
			c-0.1-0.4-0.1-0.8-0.1-1.2c0.1-0.4,0.4-0.7,1.1-0.7c0.4,0,0.7,0.1,1.1,0.3c0.4,0.1,0.7,0.1,0.9,0v-5c0-0.6,0.2-1,0.6-1.1
			c1,0,1.5,0.4,1.5,1.1c-0.1,0.5-0.1,0.9-0.1,1.2c2.1,0.1,3.9,0.1,5.3,0.1c0,0.5-0.1,1-0.4,1.4c-0.4,0.4-0.8,0.5-1.2,0.3
			c-1.6-0.5-2.8-0.7-3.6-0.4c-0.2,0.8-0.2,1.6,0,2.4c0.7,0.1,1.3,0,1.7-0.1c1.3-0.4,2,0,2,1.1c-0.2,0.8-0.3,1.8-0.3,3
			c0.2,1.3-0.3,1.8-1.4,1.4c-1.4-0.2-2.9-0.3-4.6-0.1c-1.2,0.6-1.9,0.3-2-1.1c0-0.3,0-0.9-0.1-1.7c-2,0.9-4.4,1.6-7.1,2.1
			c-0.9,0.2-1.3-0.1-1.2-1.1c0-0.5,0.5-0.8,1.5-0.9c1.1-0.1,2.4-0.3,3.8-0.4c0.3-1.1,0.4-2.2,0.4-3.2c0-0.7,0.2-1.1,0.6-1.1
			C518.7,676.5,518.9,677.1,518.6,678.2z M517.4,673.5c-0.1,1.2,0,1.8,0.3,1.7l2.1,0.1c0.5,0.4,0.6,0.7,0.1,0.9
			c-0.2,0.1-0.6,0.1-1.1,0.1c-2-0.4-4.1-0.3-6.2,0.4c-0.4,0.1-0.6,0-0.6-0.4c0.2-0.9,0.6-1.3,1.2-1.2c0.8,0.2,1.4,0.3,1.8,0.1
			c0.3-0.1,0.4-0.7,0.3-1.8c0.1-0.4,0.3-0.6,0.6-0.6C516.7,672.8,517.1,673,517.4,673.5z M515.9,680.2c-0.2,0.3-0.4,0.4-0.7,0.1
			c-0.6-0.9-1-1.7-1.1-2.4s0.1-1.1,0.7-1.2c0.5-0.1,0.7,0.1,0.7,0.6C515.7,678.3,515.8,679.3,515.9,680.2z M524.4,679.6
			c-1.4-0.1-2.3,0-2.7,0.3c-0.3,0.7-0.3,1.4,0,2.1c0.1,0.5,1.2,0.7,3.3,0.4c0.9,0,1.4-0.5,1.4-1.5
			C526.4,679.9,525.7,679.5,524.4,679.6z"/>
	</g>
	
		<linearGradient id="SVGID_1_" gradientUnits="userSpaceOnUse" x1="406.1938" y1="261.126" x2="406.1938" y2="261.126" gradientTransform="matrix(1.0929 0 0 -1.0929 0 955.5428)">
		<stop  offset="0" style="stop-color:#C4BA98"/>
		<stop  offset="1.474962e-002" style="stop-color:#CEC5A9"/>
		<stop  offset="4.332456e-002" style="stop-color:#DDD7C4"/>
		<stop  offset="7.615717e-002" style="stop-color:#EAE6DA"/>
		<stop  offset="0.1145" style="stop-color:#F3F1EB"/>
		<stop  offset="0.162" style="stop-color:#FAF9F6"/>
		<stop  offset="0.2285" style="stop-color:#FEFEFD"/>
		<stop  offset="0.4133" style="stop-color:#FFFFFF"/>
		<stop  offset="0.4696" style="stop-color:#DDDBD8"/>
		<stop  offset="0.5499" style="stop-color:#B2AFA6"/>
		<stop  offset="0.6258" style="stop-color:#908B7F"/>
		<stop  offset="0.6952" style="stop-color:#787263"/>
		<stop  offset="0.7558" style="stop-color:#696252"/>
		<stop  offset="0.801" style="stop-color:#645D4C"/>
		<stop  offset="0.8499" style="stop-color:#776F5B"/>
		<stop  offset="0.9484" style="stop-color:#A89F82"/>
		<stop  offset="1" style="stop-color:#C4BA98"/>
	</linearGradient>
	
		<linearGradient id="SVGID_2_" gradientUnits="userSpaceOnUse" x1="406.1938" y1="261.126" x2="406.1938" y2="261.126" gradientTransform="matrix(1.0929 0 0 -1.0929 0 955.5428)">
		<stop  offset="0" style="stop-color:#C4BA98"/>
		<stop  offset="1.389108e-002" style="stop-color:#C7BD9D"/>
		<stop  offset="0.1655" style="stop-color:#E5E1D2"/>
		<stop  offset="0.2794" style="stop-color:#F8F7F3"/>
		<stop  offset="0.3418" style="stop-color:#FFFFFF"/>
		<stop  offset="0.4046" style="stop-color:#E1E0DC"/>
		<stop  offset="0.5083" style="stop-color:#B5B1A9"/>
		<stop  offset="0.6058" style="stop-color:#928D81"/>
		<stop  offset="0.6943" style="stop-color:#797364"/>
		<stop  offset="0.7708" style="stop-color:#696352"/>
		<stop  offset="0.8265" style="stop-color:#645D4C"/>
		<stop  offset="0.8691" style="stop-color:#776F5B"/>
		<stop  offset="0.955" style="stop-color:#A89F82"/>
		<stop  offset="1" style="stop-color:#C4BA98"/>
	</linearGradient>
	<path fill="url(#SVGID_1_)" stroke="url(#SVGID_2_)" stroke-width="0.5" stroke-miterlimit="10" d="M443.9,670.2"/>
	
		<linearGradient id="SVGID_3_" gradientUnits="userSpaceOnUse" x1="414.3261" y1="267.2839" x2="414.3261" y2="267.2839" gradientTransform="matrix(1.0929 0 0 -1.0929 0 955.5428)">
		<stop  offset="0" style="stop-color:#C4BA98"/>
		<stop  offset="1.474962e-002" style="stop-color:#CEC5A9"/>
		<stop  offset="4.332456e-002" style="stop-color:#DDD7C4"/>
		<stop  offset="7.615717e-002" style="stop-color:#EAE6DA"/>
		<stop  offset="0.1145" style="stop-color:#F3F1EB"/>
		<stop  offset="0.162" style="stop-color:#FAF9F6"/>
		<stop  offset="0.2285" style="stop-color:#FEFEFD"/>
		<stop  offset="0.4133" style="stop-color:#FFFFFF"/>
		<stop  offset="0.4696" style="stop-color:#DDDBD8"/>
		<stop  offset="0.5499" style="stop-color:#B2AFA6"/>
		<stop  offset="0.6258" style="stop-color:#908B7F"/>
		<stop  offset="0.6952" style="stop-color:#787263"/>
		<stop  offset="0.7558" style="stop-color:#696252"/>
		<stop  offset="0.801" style="stop-color:#645D4C"/>
		<stop  offset="0.8499" style="stop-color:#776F5B"/>
		<stop  offset="0.9484" style="stop-color:#A89F82"/>
		<stop  offset="1" style="stop-color:#C4BA98"/>
	</linearGradient>
	
		<linearGradient id="SVGID_4_" gradientUnits="userSpaceOnUse" x1="414.3261" y1="267.2839" x2="414.3261" y2="267.2839" gradientTransform="matrix(1.0929 0 0 -1.0929 0 955.5428)">
		<stop  offset="0" style="stop-color:#C4BA98"/>
		<stop  offset="1.389108e-002" style="stop-color:#C7BD9D"/>
		<stop  offset="0.1655" style="stop-color:#E5E1D2"/>
		<stop  offset="0.2794" style="stop-color:#F8F7F3"/>
		<stop  offset="0.3418" style="stop-color:#FFFFFF"/>
		<stop  offset="0.4046" style="stop-color:#E1E0DC"/>
		<stop  offset="0.5083" style="stop-color:#B5B1A9"/>
		<stop  offset="0.6058" style="stop-color:#928D81"/>
		<stop  offset="0.6943" style="stop-color:#797364"/>
		<stop  offset="0.7708" style="stop-color:#696352"/>
		<stop  offset="0.8265" style="stop-color:#645D4C"/>
		<stop  offset="0.8691" style="stop-color:#776F5B"/>
		<stop  offset="0.955" style="stop-color:#A89F82"/>
		<stop  offset="1" style="stop-color:#C4BA98"/>
	</linearGradient>
	<path fill="url(#SVGID_3_)" stroke="url(#SVGID_4_)" stroke-width="0.5" stroke-miterlimit="10" d="M452.8,663.4"/>
	<g>
		<g>
			<path fill="#C4BA98" stroke="#000000" stroke-width="0.5" stroke-miterlimit="10" d="M448.9,655.3H443v4.6h3.2v3.2H443v5.6
				l-1.8,0.8v-17.2h7.6V655.3"/>
			<path fill="#C4BA98" stroke="#000000" stroke-width="0.5" stroke-miterlimit="10" d="M451,666.5v-0.9v-13.4h6.4
				c0.6,0,1,0.3,1.3,0.8c0.3,0.5,0.4,1.4,0.4,2.6v4.1c0,1.2-0.1,2-0.4,2.6c-0.3,0.5-0.7,0.8-1.3,0.8h-1l3.5,6.5h-2.5l-3-6.5h-1.6
				v2.2v1L451,666.5z M456.7,655.3h-3.9v4.8h3.9c0.3,0,0.5-0.1,0.6-0.3s0.2-0.6,0.2-1.1v-2.1c0-0.5-0.1-0.9-0.2-1
				C457.2,655.4,457,655.3,456.7,655.3z"/>
			<path fill="#C4BA98" stroke="#000000" stroke-width="0.5" stroke-miterlimit="10" d="M462.7,669.6v-17.3h1.8v17.3H462.7z"/>
			<path fill="#C4BA98" stroke="#000000" stroke-width="0.5" stroke-miterlimit="10" d="M468.2,669.6v-17.3h7.7v2.9H470v3.9h3.5v2.9
				H470v4.3h6v3.3L468.2,669.6L468.2,669.6z"/>
			<path fill="#C4BA98" stroke="#000000" stroke-width="0.5" stroke-miterlimit="10" d="M479.2,669.6v-17.3h1.2l5.3,10.2
				c0.2,0.3,0.3,0.7,0.5,1c0.1,0.3,0.3,0.6,0.4,0.9c0-1,0-1.7-0.1-2.1c0-0.4,0-0.7,0-0.9v-9.1h1.6v17.3h-1.2l-5.5-10.7
				c-0.1-0.3-0.3-0.5-0.3-0.7c-0.1-0.2-0.2-0.4-0.3-0.7c0,0.5,0,1,0,1.5s0,0.9,0,1.2v9.4H479.2L479.2,669.6z"/>
			<path fill="#C4BA98" stroke="#000000" stroke-width="0.5" stroke-miterlimit="10" d="M491.8,669.6v-17.3h4.8
				c1.4,0,2.4,0.7,3.2,2.2c0.7,1.5,1.1,3.6,1.1,6.3c0,1.6-0.1,3.1-0.4,4.4c-0.3,1.3-0.7,2.3-1.2,3.1c-0.3,0.5-0.7,0.8-1.2,1
				c-0.5,0.2-1.1,0.3-1.9,0.3L491.8,669.6L491.8,669.6z M493.5,666.3h2.2c1.2,0,2.1-0.4,2.5-1.3c0.5-0.9,0.7-2.3,0.7-4.3
				c0-1.8-0.2-3.1-0.6-4c-0.4-0.9-1-1.4-1.8-1.4h-3.1L493.5,666.3L493.5,666.3z"/>
			<path fill="#C4BA98" stroke="#000000" stroke-width="0.5" stroke-miterlimit="10" d="M510.6,655.3h-4.9v3.7h4.7
				c0.7,0,1.2,0.3,1.5,0.9s0.4,1.6,0.4,3.2v2.4c0,1.6-0.1,2.6-0.4,3.2c-0.3,0.6-0.7,0.9-1.5,0.9h-4.6c-0.7,0-1.2-0.3-1.5-0.9
				c-0.3-0.6-0.4-1.6-0.4-3.2V665l1.5-0.7v2.1h5.3v-4H506c-0.7,0-1.2-0.3-1.5-0.9c-0.3-0.6-0.4-1.6-0.4-3.2v-1.9
				c0-1.6,0.1-2.6,0.4-3.2s0.7-0.9,1.5-0.9h4.3c0.7,0,1.2,0.3,1.5,0.8c0.3,0.6,0.4,1.5,0.4,3v0.4l-1.5,0.8L510.6,655.3L510.6,655.3z
				"/>
			<path fill="#C4BA98" stroke="#000000" stroke-width="0.5" stroke-miterlimit="10" d="M523,667v-4.9h-5.4v6.8l-1.8,0.6v-17.3h1.8
				v6.7h5.4v-6.7h1.8v14.1L523,667z"/>
			<path fill="#C4BA98" stroke="#000000" stroke-width="0.5" stroke-miterlimit="10" d="M528.6,669.6v-17.3h1.8v17.3H528.6z"/>
			<path fill="#C4BA98" stroke="#000000" stroke-width="0.5" stroke-miterlimit="10" d="M534.2,669.6v-17.3h6.4c0.6,0,1,0.3,1.3,0.8
				c0.3,0.5,0.4,1.4,0.4,2.6v3.9c0,1.2-0.1,2-0.4,2.5c-0.3,0.5-0.7,0.8-1.3,0.8h-4.7v6L534.2,669.6z M539.8,655.3h-3.9v4.6h3.9
				c0.3,0,0.5-0.1,0.6-0.3s0.2-0.6,0.2-1.1v-1.9c0-0.5-0.1-0.9-0.2-1C540.3,655.4,540.1,655.3,539.8,655.3z"/>
		</g>
	</g>
</g>
</svg>
