<?xml version="1.0" encoding="utf-8"?>
<!-- Generator: Adobe Illustrator 18.1.1, SVG Export Plug-In . SVG Version: 6.00 Build 0)  -->
<svg version="1.1" id="图层_1" xmlns="http://www.w3.org/2000/svg" xmlns:xlink="http://www.w3.org/1999/xlink" x="0px" y="0px"
	 viewBox="0 0 560 560" enable-background="new 0 0 560 560" xml:space="preserve">
	 <style type="text/css">
	.st0{fill:#FFFFFF;}
</style>
<g>
	<g>
		<path class="st0" d="M153.3,338.8c-0.5,7.3-4.4,15,1.4,38.8c-3.6-7.1-4-14.9-4.7-22.7c-0.2,1.9-0.4,3.8-0.4,5.8c-0.1,2-0.1,4,0,6
			c0.1,2,0.4,4,0.7,6.4c-1.5-2.2-1.5-4.5-1.7-6.6c-0.7-8.4,0.5-16.7,2.5-24.8c0.7-3,0.6-5.7-0.8-8.5c-2.3-4.8-3.5-9.9-5-15
			c-1.8-6.1-4.5-11.7-8.6-16.5c-4.2-4.9-6.2-10.4-5.8-16.9c0.2-3.2-0.3-6.3-0.8-9.5c-0.4-3.2,0.2-6,2.2-8.5c2.3-2.9,4.4-6,7.7-8
			c0.9-0.6,1.1-1.2,0.9-2.3c-1.5-10.4-2.7-20.9-2.5-31.4c0.1-3.5,0.2-7.1,0.4-10.6c0.3-5.9-0.9-11.7-1.2-17.6
			c-0.3-7.6,0.6-15.1,1.5-22.7c0.5-4.2,0.6-4.1,4.8-4.3c15.5-0.5,30.7,2.2,45.7,5.5c0.4,0.1,0.9,0.2,1.4,0.1c-2.3-1.5-5-2-7.6-2.6
			c-2.7-0.7-5.4-1.2-8.2-1.8c-2.7-0.5-5.3-1-8-1.4c-2.7-0.4-5.4-0.8-8.1-1.5c4.9,0,9.9,0,14.8,0c1,0,2-0.1,3-0.2
			c0.7-0.1,1.4-0.4,1.4-1.3c0-0.9-0.6-1.2-1.4-1.3c-3.9-0.6-7.8-1.2-11.7-1.7c-6.4-0.7-12.9-1.3-19.4-2c0,0.2-0.1,0.4-0.1,0.7
			c6.2,0.9,12.4,1.8,18.6,2.7c-8,0.3-16,0-24.3,1.2c0.5-4.3,1.4-8.4,2.6-12.3c5.6-17.1,13.4-33,24-47.6c4.1-5.7,7.9-11.6,12.9-16.7
			c8.3-8.6,18-15.2,28.5-20.5c7.5-3.8,15.7-6,23.8-8.1c4.2-1.1,8.4-2.6,12.6-3.7c17.2-4.4,34.7-5.7,52.5-5
			c12.6,0.5,25.2,1.6,37.5,4.3c16.1,3.6,29.7,11.6,41.6,22.9c16.9,16,31.3,33.8,40.7,55.1c6.5,14.9,10.1,30.7,12.5,46.7
			c1,7.2,1.1,14.5,0.9,21.8c-0.1,3.9,0.3,7.7,0.6,11.6c0.2,2.2,0.6,4.5-0.1,6.7c-0.2,0.6-0.1,1.1,0.3,1.5c1.7,1.7,1.5,3.8,1.3,5.8
			c-1,10.6-1,21.2-2.2,31.7c-0.2,2.1-1.1,4-1.3,6.2c5.1,1.6,7.5,5.6,8,10.5c0.3,3.1-0.6,6.3-1.3,9.3c-1.2,5.3-1.7,10.7-2.7,16.1
			c-0.7,3.9-2,7.9-5.1,11c-2.6,2.7-4.3,6-6.6,8.9c-0.8,1-0.4,1.8-0.1,2.8c2.1,7.7,5.8,14.6,10.2,21.2c0.2,0.4,0.4,0.8,0.3,1.4
			c-6.8-5.4-10.5-12.9-13.8-21c-1.5,2.5-2.9,4.8-4.3,7.1c-0.4,0.6-0.5,1.2-0.2,2c5.7,14.4,10.5,29.1,17.2,43.1
			c3,6.2,6.5,12.1,10.3,17.9c3.1,4.7,7.3,8.1,11.9,11.3c-3-1.3-5.8-2.9-8.2-5.1c-13.3-12-22.4-26.7-28.4-43.5
			c-0.2-0.5-0.4-1-0.9-1.3c3.7,18.8,11.4,35.7,22.8,50.7c-3.3-1.7-11.8-14-18.4-26.9c-6-11.7-8.5-19.1-10.7-31.7
			c-0.5,3.1-0.1,5.6,0.3,8.1c1.9,13.6,3,27.4,5.5,40.9c1.8,9.9,4.5,19.5,8.5,28.9c-0.5-0.8-1-1.5-1.5-2.3c-0.5-0.8-0.9-1.6-1.2-2.5
			c-4.6-10.3-7-21.1-8.5-32.2c-0.9-6.9-1.7-13.8-2.7-20.7c0.4,28.2,1.8,56.3,15.1,82.2c-1.3-1-1.9-2.5-2.7-3.9
			c-8-14.6-13.1-30-15.4-46.6c-1.9-13.5-1.4-27-0.8-40.5c0.1-3.3,0.3-6.7,0.4-10c0-0.7,0.3-1.5-0.4-2.4c-0.8,2.4-0.8,4.8-1.1,7.1
			c-1.1,10.3-4.5,20-7.2,29.9c-5.9,21.6-14.2,42.1-24.1,62.1c-4.8,9.6-10.6,18.5-16.8,27.1c-7.1,9.8-15.3,18.7-23.3,27.7
			c-2.8,3.1-5.2,6.5-7.9,9.7c-12,14.4-27.6,20.6-46.1,20.2c-6-0.1-11.7-1.5-16.8-4.6c-8-4.9-16.6-9.1-23.3-15.9
			c-4.5-4.5-8.7-9.2-13-13.9c-20.7-22.5-36.3-48.3-48.5-76.2c-8.1-18.4-14.2-37.6-18.7-57.2c-1.7-7.5-2.8-15.2-2.9-22.9
			C155.6,341,155,339.7,153.3,338.8z M161.5,306.7c0.7-0.1,1,1,2.1,0.6c-0.9-2.4-2.4-4.1-4.8-5.9C159.2,303.9,161,305,161.5,306.7
			c-0.4,0.3-0.8-0.6-1.5-0.1c0.4,1.9,1.5,3.2,3.2,4.4C163.5,309,161.7,308.2,161.5,306.7z M237.3,458.2c1.9-0.5,3.7,0.6,5.6,0.5
			c8.4-0.4,16.7-0.6,25.1-1.1c3.3-0.2,6.6-0.4,9.6-2.4c1.3-0.8,2-1.4,1.2-3c-0.8-1.6-1.3-3.3-1.6-5.1c-0.3-1.9-1.2-3.2-2.7-4.4
			c-5.1-4-8.9-9.2-12.7-14.4c-1.3-1.8-2.5-3.4-4.7-4.2c-1.9-0.7-3.5-2-4.8-3.6c-0.7-1-1.2-2-0.7-3.2c0.8-2.1,1.7-4.1,2.6-6.2
			c0.5-1.1,1.5-1.1,2.6-1.2c0.8,0,1.5,0.3,1.6,1.1c0.6,3.3,3.1,5.5,4.7,8.2c1.4,2.5,3.3,4.3,6.4,4.4c1.1,0,2.1,0.4,3.2,0.6
			c4.4,0.7,8.7,1.4,13.2,0.6c3-0.6,4.9-1.9,4.9-5.3c0-2.6-0.5-5.2-0.5-7.9c-0.2-10.5-0.6-20.9-0.1-31.4c0.3-7,0.3-13.9-0.3-20.9
			c-0.1-1.3-0.1-2.6-0.8-3.6c-0.8-0.3-1.3,0.1-1.7,0.4c-6.9,4.8-14.3,8.9-21.4,13.5c-2.1,1.4-4.4,2.2-6.9,2.7
			c-3.9,0.9-7.9-0.1-11.8,0.1c-5.5,0.3-11-0.5-16.4-1.4c-8.4-1.5-16.1-4.9-23.4-9.2c-6.3-3.7-7.7-10.2-9.1-16.6
			c-0.5-2.6-2.4-4.3-4.9-3.5c-2.3,0.7-4.5,1.3-7,1.2c0-0.7,0.9-0.7,0.8-1.3c-0.6-0.7-1.6-0.1-2.2-0.8c3.3-1,6.6-2.1,9.9-3.1
			c-2.5-0.1-4.8,0.5-7.9-0.2c4.2-1.8,8.4-1.4,11.9-3.4c-3,1-5-1.9-7.8-1.9c5.9-0.4,11.9-0.7,18.5-1.2c-4.2-0.8-7.7-0.9-11.2-1.4
			c-3.3-0.4-7.1,0.1-10.5,1.3c-1.2,0.4-2.4,0.7-4.1,1.1c1.4-1.1,2.6-1.4,3.8-1.9c8.2-3.1,16.9-3.3,25.6-4.1c3.1-0.3,6.2-0.3,9.2-1
			c2.3-0.6,3.7-2.4,2.9-3.9c-0.9-1.7-1.9-3.4-4.2-3.9c-12.4-2.9-24.8-4.9-37.6-4c3.4-3.8,7.8-5.5,12.8-5.9c6.8-0.5,13.2,1,19.5,3
			c10.5,3.3,20.7,7.6,30.8,11.9c0.7,0.3,1.5,1,2.1,0.2c2.4-3.3,5.2-6.7,3.9-11.2c-1.3-4.6-3.1-8.9-7.5-11.6
			c-2.2-1.4-4.4-2.9-6.5-4.4c-3.3-2.3-7.1-3.6-11-4c-9.9-1.2-19.7-2.6-29.5-4.4c-4.5-0.8-9.1-1.4-13.4-3.2
			c-5.3-2.2-10.5-4.5-16.3-5.6c-7.4-1.4-14.4-4-21.7-5.7c-3-0.7-3.8-2.5-4.4-5c-0.5-2.3-0.4-4.7-1.3-7.2c-3,1.7-5.6,3.9-6.9,6.7
			c-1.3,2.7-2,5.8-1.5,8.8c0.7,4.1-0.4,8.1-0.7,12.1c-0.2,3.5,0.6,6.5,2.8,8.9c7.4,7.7,11.6,17,13.9,27.3c0.8,3.5,1.8,7,3.5,10.3
			c0.7-0.6,0.8-1.3,0.9-1.9c1.4-5.8,3-11.5,4.9-17.1c0.4-1.1,0.5-2.3,0.3-3.6c-1.4-7.9-3.7-15.6-6.1-23.3c-1.2-3.9-2.3-7.9-2.7-12.3
			c10.3,3.3,20.8,5.1,30.8,8.4c-0.1,0.4-0.1,0.6-0.2,0.8c-2.7,9-7.9,16.9-12.2,25.1c-3.3,6.3-6.6,12.6-6.1,20.1
			c0,0.5,0.2,1.1-0.7,1.4c-1.5-3.8,0.5-8-1.6-11.9c-0.9,9,0.6,17.4,3.6,25.7c-4.4-8.6-4.9-18-4.7-27.5c-1.7,5.6-3.1,11.1-4.6,16.6
			c-0.4,1.5,0,2.5,0.8,3.6c0.8,1,1.9,1.5,3.2,2.1c-0.9,0.4-1.1,1-0.8,1.9c0.5,1.8,0.8,3.7,1.2,5.6c2.2,11.7,4.5,23.3,7.6,34.8
			c2.8,10.4,7.1,20.2,10.6,30.3c4.9,14.3,11.6,27.7,19.5,40.5c12.8,20.5,26.7,40.2,44.5,56.8c3.4,3.2,7,6.1,10.9,8.6
			c0.3,0.2,0.7,0.7,1.2,0c-0.1-0.8-1.4-0.6-1.4-1.9c3.3,0.7,6.6,1.5,9.9,2.1c4,0.7,7.9,1.1,12-0.6c5.2-2.2,7.9-5.4,8.4-10.9
			c0.3-3.7-0.2-5.6-3.6-7.3c-2.3-1.2-4.6-2.2-6.9-3.4c-3.7-1.8-5.7-4.9-6.2-8.9c-0.3-2.6,0.7-5.6-2.7-7.1c1.3-0.9,2.1-0.1,3,0.1
			c5.6,1.7,11.2,3.1,17.1,2.6c5.7-0.5,10.6-3,13.5-8.2c1.4-2.5,0.9-3.8-1.7-5c-5.7-2.5-11.4-4.9-17.2-6.9c-3.5-1.2-7-1.9-10.6-2.1
			c-5.3-0.2-10.7-0.5-16-0.5c-2.6,0-5.2-0.1-7.8,0.8c-4.3,1.6-5,1.1-5.2-3.6C237.1,458.7,237.2,458.5,237.3,458.2z M213.5,213.9
			c-11.1,3.9-22.4,6.6-34.3,6.3c0.8,1,2.1,1,2.7,2.3c-7.1,0.2-13.8-0.7-20.5-1.9c-6.8-1.2-13.4-2.8-20-4.8c-0.8,2-0.1,2.9,1.8,3.5
			c4.1,1.3,8.2,2.3,12.4,3c7.2,1.2,14.4,2.9,21.8,3.3c14.8,0.8,29.7,1.7,44.5,2.1c8.3,0.3,16.7,1.1,25.1,0.3c2-0.2,4.1-0.5,6.1-0.1
			c0.1,0.3,0.1,0.4,0.1,0.4c-0.5,0.8-1,1.5-1.5,2.3c-6.1,9.1-10.1,19-10.5,30.1c-0.2,5.8,0.3,11.4,2.5,17.1c2.3,6.1,4.2,12,8.3,17.3
			c7.7,10,17.2,16.8,29.4,19.8c6.9,1.7,13.8,3,20.9,1.6c14-2.8,24.7-10.9,34.3-20.9c1.9-2,3.5-2.9,6.3-3.1
			c9.2-0.4,18.4-1.5,27.6-1.1c4.1,0.2,8.3-0.3,12.3,0.3c4.2,0.6,8.1,0.5,12-1.3c2.8-1.3,5.6-2.6,8.4-3.9c5.9-2.7,11.9-5.3,17.7-8
			c3.8-1.8,6-4.8,7-9.2c-1.1,0.7-1.3,1.5-1.8,2.2c-1.6,2.3-3.3,4.3-6.1,5.1c-10,2.9-19.4,7.3-28.6,11.9c-1.8,0.9-3.7,1.8-5.7,1.6
			c-5.1-0.5-10.3-0.8-15.4-1.2c-6-0.5-12-0.9-18.1-0.4c-3.8,0.3-7.6,1-11.7,1.9c5.4-9.7,7.8-19.4,6.7-30.4
			c-1.1-10.9-4.5-20.3-11.3-28.7c0.6-0.2,0.9-0.3,1.2-0.4c-0.6-0.5-1.8,0.3-2-1.1c9.8-0.5,19.5-1.5,29.2-1.4
			c21,0.2,41.9-1.2,62.7-4.3c1.8-0.3,2.7-0.8,1.9-2.8c-14.3,1.6-28.6,3.6-43,3.7c5.3-2.1,11-3.2,16.9-4.9c-1.6-0.7-2.8-0.6-4-0.4
			c-6,0.9-11.9,2.6-17.9,2.2c-8.7-0.6-17.1-3.1-25.2-6.4c4.5,0.1,8.9,1.1,13.3,0.1c-2.3-0.6-4.6-0.9-6.8-1.3
			c-7.9-1.1-15.8-2.1-22.4-7.2c-1.3-1-2.8-1.6-4.2-2.4c-2.7-1.5-5.4-3-8.5-4.8c4.3-0.5,8-1,11.8-1.5c0-0.2,0-0.5,0-0.7
			c-10.4,1.1-20.5-0.5-30.2-4.3c2.9-1.3,6.2-2,9-3.9c-6.9-0.4-12.6,4.4-19.7,3.9c2.9-4,6.3-7.1,8-11.5c-4.5,4-8.1,8.9-13.8,12
			c0.7-7.1,1.7-13.7,1.7-20.4c-2.1,6.4-2.1,13.2-3.2,20.2c-3.1-3.8-4.5-8.1-6.6-11.9c0.4,4,1.8,7.6,3,11.5c-2.5,0.4-4.3-1-6.1-2.1
			c-3.3-2-5.8-4.9-8.6-7.4c-0.8-0.7-1.6-1.7-3.3-1.3c3.5,3.5,6.9,6.8,10.5,10.4c-3.3-0.1-6-0.5-8.6-1.8c-3.3-1.6-6.1-3.9-9.2-5.8
			c-1.1-0.6-2.2-1.7-4-0.7c3.9,2.6,7.6,5.1,11.2,8c-1.4,0.4-2.6,0.5-3.8,0.3c-4.5-0.8-9-1.5-13.5-2.1c-1.4-0.2-2.8-0.4-4.1,1.1
			c3.8,0.2,7.1,1.2,10.5,2.6c-6.9,2.7-14.1,2.2-20.9,3.9c2.6,0.2,5.1,0.4,8.3,0.7c-10.9,6.3-22.8,5.1-33.9,7.9
			c6.7,0.6,13.2-0.9,19.9-1c-4,2.3-8,4.2-12.7,4.7c-8.5,0.9-16.9,0.1-25.3-0.4c-1.4-0.1-2.9-0.1-4.3-0.2c0,0.2,0,0.4,0,0.6
			C196.7,213.1,205.1,213.1,213.5,213.9z M406.5,260.9c-0.2-6.4-1.3-11.5-4.4-16.1c-5.1-7.6-13.3-9-20.4-3.6
			c-10.4,7.9-13.6,27.4-6.7,38.7c6,9.7,16.4,9.1,23.3,2.3C404.4,276,405.8,268.1,406.5,260.9z M172.2,255.6
			c0.3,7.8,2.2,14.7,7.5,20.1c6.1,6.1,14.1,6.3,19.5-1.2c7.4-10.2,4.9-26.1-2.9-34.5c-5.9-6.3-13.8-5.9-19.2,0.7
			C173.4,245.2,172.5,250.5,172.2,255.6z M325.5,80.7c0.1-2.4-0.2-4.7-0.8-6.9c-0.2-0.7-0.4-1.5-0.8-2.2c-0.9-1.9-2.3-2.2-3.8-0.6
			c-1,1-1.8,2.2-2.8,3.5c-0.6-2.7-1-5.1-1.6-7.5c-0.3-1.1-0.7-2.4-2.2-2.3c-1.3,0-1.7,1.2-2,2.3c-0.5,1.9-1,3.9-1.6,6
			c-0.6-2.3,1-4.5-0.4-6.6c-2.2,4.8-2.2,10-2.9,15.2c-0.3-1.8-0.4-3.5-0.7-5.3c-0.4-3.5-0.9-6.9-1.4-10.3c-0.2-1-0.5-2.1-1.8-2.1
			c-1.3,0-1.5,1.1-1.8,2.1c-0.1,0.4-0.1,0.8-0.2,1.1c-0.6,4.2-1.2,8.4-1.9,12.6c-0.6-5.7-1.3-11.3-3-16.8c-1.9,0.5-2.3,1.3-2.4,4
			c-0.2,4.6-0.3,9.3-0.5,13.9c0,0.8,0.1,1.6-0.5,2.5c-2.7-7.4-2.4-15.3-5.1-22.4c-1.5,4.9-1.5,9.9-2.2,14.9c-1-4-2.1-7.9-1.5-12.1
			c-0.7,0.1-1.2,0.2-1.9,0.4c0.6,4.5-0.7,8.7-1.7,13c0-3.4,0.3-6.8,0.6-10.1c0.1-1.1,0.5-2.4-1-2.6c-1.6-0.2-1.5,1.2-1.7,2.3
			c-1.2,6.2-1,12.6-1,18.9c0,1.5-0.4,3.8,1.8,3.9c2.1,0.1,1.8-2.2,2.1-3.6c0.7-3.5,1.1-7.1,1.7-11.2c0.5,2.8,0.8,4.9,1.2,7
			c0.2,1.2,0.5,2.4,1.9,2.6c1.4,0.2,1.6-1.2,2.4-2.6c0.3,4.1,0.6,7.7,0.8,11.2c0.3,4.3,0.4,8.7,1.3,12.9c0.2,0.8,0.2,1.9,1.6,2.1
			c0.3-6.5,0.1-13-0.4-19.5c2.1,1.9,3,1.6,3.7-0.8c0.6-1.8,0.1-3.9,1.1-5.8c0.4,1.9,0,3.9,2,5.3c2.3-4.9,3.2-10.1,4.5-15.4
			c1.3,5.6,1.3,11.2,3.8,16.2c0.5-2.6,1.3-4.9,1.8-7.5c1.6,0.8,2.2-0.2,2.6-1.4c0.9-2.8,1.7-5.6,2.7-9c0.6,2.4,1,4.2,1.4,5.9
			c0.3,1.1,0.8,2.1,2.1,2.2c1.2,0.1,1.7-0.8,2.3-1.7c1-1.5,1.6-3.3,3-4.6C324.2,74.5,324.1,77.9,325.5,80.7z M358.7,410.6
			c4.3-6.2,8-12.5,10.9-19.2c1.3-3,2.4-6,2.6-9.3c0.3-3.3-0.9-5.2-4-6.1c-3.2-1-6.5-1.5-9.8-1.5c-6.3,0-7.5,1.2-6.9,7.5
			c0.9,8.8,3.2,17.3,5.5,25.7C357.3,408.7,357.7,409.6,358.7,410.6z M233,336.5c0.9,2.7,1.7,5,1,7.6c-0.7,2.7-2.2,4.8-4.6,6
			c-3.1,1.6-7.2,1-9.2-1.3c-1.7-2-2.7-4.3-2.9-6.9c-0.2-2.6,0.4-5.1,2.3-7.2c-2.1-1-4.1-0.6-6.1-0.2c-4.2,0.9-8.5,1.4-11.9,4.5
			c-0.6,0.5-1.5,1-1.3,1.7c0.4,1.9,0.5,4,2,5.5c3.1,3.2,6.7,5.1,11.1,6c12.8,2.8,24.2-1.6,35.9-5.9
			C245.1,341.2,239.7,338.2,233,336.5z M234.6,96.4c4.1,10.7,8,21.4,13.1,31.6c-0.3-1.8-0.9-3.4-1.5-5.1c-0.8-2.6-2.3-4.9-2.5-7.7
			c-0.7-9.8-2.6-19.5-3.4-29.3c-0.1-0.8-0.3-1.6-1.4-1.5c-0.9,0.1-1.3,0.8-1.3,1.7c0,1.2,0.1,2.5,0.2,3.7c0.6,4.8,1.3,9.7,2,14.5
			c-0.8-1.4-1.3-2.8-1.8-4.3c-3.1-9.1-5.6-18.5-7.7-27.9c-0.3-1.4-0.3-4.2-2.7-3.5c-2.1,0.6-0.8,2.8-0.5,4.2
			c1.9,8.4,3.8,16.9,5.9,25.3c0.6,2.3,0.8,4.8,2,7.4C235.8,102.2,234.5,99.4,234.6,96.4z M271.7,87.1c0-6.9,0-13.8,0-20.7
			c0-0.6-0.3-1-0.9-1.2c-0.6-0.2-1.1,0.1-1.4,0.6c-0.4,0.7-0.9,1.4-1.1,2.3c-0.6,2.8-1.1,5.6-1.4,8.5c-0.3,3.3-0.6,6.6-0.9,9.9
			c-0.8-1.3-1.1-2.7-1.5-4c-0.8-3.2-1.7-6.4-2.5-9.6c-0.2-0.8-0.4-1.8-1.6-1.7c-1.3,0.1-1.2,1.3-1.3,2.1c-0.1,0.9,0,1.9,0.1,2.8
			c0.4,4.2,0.7,8.4,1.1,12.7c-0.1,0-0.3,0.1-0.4,0.1c-2.6-6.6-5.1-13.2-7.9-20.5c-0.3,1.6-0.1,2.5,0.2,3.4c2.3,7,4.6,14.1,7,21.1
			c0.3,1,0.8,2,1.2,3c0.4,0.9,1,1.6,2.1,1.4c1.1-0.2,1.1-1.2,1.1-2c-0.1-1.2-0.2-2.5-0.3-3.7c-0.2-3.1-0.5-6.1-0.7-9.2
			c1.6,2.7,2.2,5.7,3.9,8.9c1.9-4.9,1.7-9.8,3.2-14.3C270.4,80.2,270.4,83.7,271.7,87.1z M217.9,112.3c-4.3-9.5-9.5-18.4-15.7-26.8
			c2.2,6.5,5.7,12.3,8.8,18.3c-4.8-4.4-9.3-9.1-14.3-13.2c-0.2,0.2-0.3,0.3-0.5,0.5c3,3.3,6,6.5,8.9,9.8c-0.8-0.1-1.3-0.4-1.8-0.7
			c-2.3-1.6-4.6-3.2-6.9-4.7c-0.7-0.5-1.6-0.7-2.3,0.1c-0.6,0.8-0.3,1.6,0.3,2.3c0.3,0.4,0.7,0.8,1.1,1.2c5,5.3,10,10.5,15.1,15.8
			c0.4,0.4,0.7,1,1.8,0.9c-3.1-4.6-6.9-8.4-10.1-12.7c2.3,1.3,4.6,2.8,6.8,4.2c1.3,0.8,2.7,1.2,3.7-0.5
			C214.6,108.7,215.3,111.3,217.9,112.3z M162,157.3c3.5-0.3,6.7-0.5,9.8-0.9c1-0.1,2.1-0.5,2.1-1.8c0-1-0.9-1.3-1.8-1.5
			c-0.4-0.1-0.8-0.2-1.1-0.2c-6.3-0.4-12.7-0.7-19-1c-0.5,0-1.1-0.2-1.6,0.5c3.7,1.3,7.5,0.9,11.3,2.1c-5.7,0.6-11.2,0.6-16.9,1.5
			c1.1,1.4,2.4,0.8,3.4,1.3c-1.5,0.4-3.1,0.1-4.2,1.3c1.7,1,31.9,2.8,33.6,1.8C172.6,157.8,167.4,158.1,162,157.3z M140.7,193.2
			c5.1,2.7,33.1,5.1,36.5,3.1c-5.9-2.5-12-1.5-18.3-2.7c3.5-0.4,6.4-0.7,9.2-1.1c1.2-0.2,2.7-0.1,2.6-1.9c-0.1-1.7-1.6-1.5-2.7-1.6
			c-5.2-0.3-10.3-0.6-15.5-0.8c-2.2-0.1-4.4-0.3-7.3,0.7c4.8,0.5,9,0.9,13.1,1.4C152.7,191.4,147,191.7,140.7,193.2z M150.7,174.5
			c4,0.6,8.1,1.1,12.7,1.8c-1.9,0.7-3.3,0.6-4.6,0.7c-2.7,0.1-5.4,0.4-8,1.1c-0.9,0.2-1.6,0.8-1.5,1.8c0.1,0.9,0.8,1.3,1.6,1.4
			c0.7,0.1,1.4,0.2,2.1,0.3c6.3,0.4,12.6,1.2,18.9,2.1c4.3,0.6,8.6,1.4,12.8,2.1c-7.7-3.4-16-4.1-24.1-5.6c0.6-0.8,1.3-0.5,2-0.6
			c3.1-0.2,6.2-0.4,9.3-0.6c1-0.1,2-0.2,2.1-1.4c0.1-1.3-1-1.4-1.9-1.5c-4.1-0.5-8.1-1-12.2-1.4C156.8,174.3,153.7,174,150.7,174.5z
			 M179.6,96.9c-0.2,0.2-0.3,0.4-0.5,0.5c4.1,3.7,8.1,7.3,12.2,11c-2.4-0.5-4.5-1.4-6.6-2.3c-2.1-0.9-4.1-1.8-6.2-2.7
			c-0.9-0.4-1.9-0.8-2.5,0.3c-0.7,1.2,0.3,1.8,1.1,2.4c0.2,0.1,0.4,0.3,0.6,0.4c7.9,5.3,15.8,10.5,23.8,15.8c0.7,0.5,1.4,1.1,3,1.3
			c-5.1-4.8-10.6-8.2-15.5-12.4c1.7,0.4,3.3,1,4.9,1.5c0.9,0.3,1.9,0.5,2.5-0.5c0.6-1-0.1-1.8-0.8-2.4
			C190.6,105,184.9,101.1,179.6,96.9z M337.4,76.6c0.5,1.3,0.2,2.5,0,3.7c-0.7,3.1-1.4,6.2-2,9.3c-0.2,0.9-0.2,1.8,0.8,2.2
			c1,0.4,1.6-0.4,2-1.1c0.2-0.4,0.4-0.8,0.6-1.3c2.5-6.1,4.9-12.2,6.8-18.4c0.2-0.5,0.7-1.1,0-2c-1.6,3.6-3.2,7.1-4.8,10.6
			c-0.4-1-0.3-1.9-0.4-2.7c-0.2-1.6-1.1-2.6-2.7-2.7c-3.1-0.1-5.3,2.2-7.9,3.3C332.6,78.6,334.8,76,337.4,76.6z M183.3,149.9
			c0-0.4,0.1-0.9,0.1-1.3c-7.9-2.4-15.9-3.3-24.1-3.9c-0.1,0.2-0.1,0.5-0.2,0.7c1.7,0.5,3.5,1.1,5.9,1.8c-3.4,0.8-6.4,0.2-8.9,1.9
			C165.1,151,174.2,149.4,183.3,149.9z M275.1,97.6c1-3.4,1.7-33.2,0.9-34.5c-0.6,0.5-0.6,1.2-0.7,1.9c-0.4,2.8-0.8,5.5-1.1,8.3
			c-0.9,6.9-1.3,13.9-1.1,20.8C273.1,95.5,273,97.1,275.1,97.6z M227.6,112.1c0.7-2.9-10.2-34.4-12.3-35.7
			C217.9,88.8,221.8,100.8,227.6,112.1z M164.9,121.6c2.7,2.3,33.3,17.6,35.5,17.9C199.6,136.7,171.4,122.3,164.9,121.6z
			 M349.6,68.1c-1,0.7-1.2,1.2-1.4,1.7c-1.6,4.9-3.3,9.8-4.4,14.9c-0.2,1.2-0.6,2.6,1,3.2c1.4,0.6,2.1-0.6,2.8-1.5
			c2.7-3.7,5.1-7.6,7.4-11.5c0.1-0.1,0-0.4,0-1c-3,2.5-4.9,5.7-7.6,8.5C347.9,77.4,349.4,73.1,349.6,68.1z M143,201.6
			c2.8,0,4.8,0,6.9,0c3.7,0,7.4,0,11.1-0.1c1.1,0,2.7,0,2.7-1.5c0-1.5-1.4-1.6-2.6-1.7c-2.8-0.3-5.5-0.6-8.3-0.8
			c-2.5-0.1-4.9-0.5-8,0c2.2,1.1,4,0.8,5.8,1.5C148.2,200,145.5,199.4,143,201.6z M230.3,100.9c0.3-0.1,0.6-0.2,0.8-0.3
			c0.1-0.2,0.2-0.5,0.2-0.7c-1.6-8.5-4.5-16.7-8-24.6c-0.3-0.7-0.7-1.4-2.1-0.8C223.5,83.6,226.6,92.4,230.3,100.9z M197,127.4
			c-1.1-3.3-23.1-15.6-26.6-15C179.2,118,187.7,123.3,197,127.4z M155.8,137.9c4.4,3.1,35.9,8.9,40.1,7.3
			C182.1,142.7,169,140.3,155.8,137.9z M173.2,108.1c-0.3,0.8-0.1,1.1,0.1,1.3c7,5.1,14.4,9.6,22.1,13.5c0.6,0.3,1.4,0.4,2.1-1
			C189.9,116.6,181.8,112,173.2,108.1z M162.1,130.6c11.7,4.9,23.6,9.3,36.1,11.8C186.5,137.5,174.4,133.8,162.1,130.6z
			 M178.1,201.9c-10.8-0.4-21.4,0.8-32.1,2.5C156.9,204.8,167.6,204.4,178.1,201.9z M206.5,86.8c4.6,8.4,9.5,16.5,15.7,23.9
			C222.8,107.9,210.6,89.5,206.5,86.8z M170.1,117.2c2.1,2.9,22.8,13.1,25.8,12.3C187.5,124,178.9,120.4,170.1,117.2z M250.3,90.5
			c-0.9-7.3-2.9-14-5.4-20.6c-0.3-0.9-0.8-2.2-2.1-1.6c-1.1,0.5-0.4,1.6-0.2,2.5c1.8,6,3.8,11.9,6.1,17.7
			C249,89.2,249.1,89.9,250.3,90.5z M203.3,111.5c-4.4-6.1-9.6-11.5-15.8-16.7C188.1,98.7,200.1,111.4,203.3,111.5z M179,209.4
			c-2.8-1-26.7,1.7-29.6,3.4C154.7,213.4,176.8,210.8,179,209.4z M254,90.1c0-0.7,0-1.1-0.1-1.6c-1.6-5.7-3.3-11.4-4.9-17.1
			c-0.3-1-0.6-2.2-1.9-1.8c-1.5,0.4-1,1.6-0.6,2.7c1.7,5.4,3.8,10.6,6,15.8C252.7,88.8,252.9,89.6,254,90.1z M243.8,89.3
			c0.4-0.9,0.6-1.2,0.6-1.5c-0.5-6.4-2.2-12.5-4.4-18.4c-0.3-0.7-0.7-1.4-2.1-0.9C239.1,75.4,241.2,82.1,243.8,89.3z M151.7,185.2
			c7.9,1.7,15.8,3.3,23.9,3.3c0-0.4,0.1-0.8,0.1-1.2C167.9,185.5,159.8,184.9,151.7,185.2z M222.1,334.4c-1.5,0-3.4,2.3-3.4,4
			c0,1.6,1.9,3.5,3.4,3.5c2-0.1,3.5-1.6,3.4-3.4C225.5,336.2,224,334.4,222.1,334.4z M404.9,161.7c0.5,0.8,1.2,0.8,1.9,0.8
			c3.8-0.2,7.5-0.5,11.2-1.6c0.6-0.2,1.5-0.2,1.5-1.2c-0.1-1.1-1.1-0.9-1.8-0.9c-3.7,0-7.4,0.4-10.9,1.5
			C406,160.5,405.2,160.7,404.9,161.7z M162.9,289.8c-3.3-2-5.8-4.9-9.1-7.4c1.4,6,6.3,11.9,9.5,10.8c-0.2-1.2-1.6-1.4-2.1-2.5
			C161.7,290.3,162.6,290.8,162.9,289.8z M409.9,287.3c-2.2,1-3.4,2.2-4.7,3.2c-1.3,1-1.8,1.9,0.4,2.6c-2.1,1.4-1.6,3.3-1.8,5.3
			C409.2,296.4,407.8,291.2,409.9,287.3z M153.2,279.6c1.3,3.1,7.6,7.6,10.3,7.4c-1.2-1.1-0.3-1.9,0.5-2.8
			C160.4,282.6,157.2,280.5,153.2,279.6z M370.7,85.3c-3.4,0.1-9.8,6.6-9.6,9.7C365.1,92.4,368.3,89.2,370.7,85.3z M362.5,80.4
			c-1.7-0.5-2.4,0.4-3,1.1c-2,2-4,4.1-5.4,6.6c-0.3,0.5-0.6,1.2,0,1.7c0.4,0.4,0.9,0.3,1.2-0.1C358,87,360.7,84.1,362.5,80.4z
			 M418.3,170c-1.8-1.9-8.6-2.6-10.2-1.3c-0.9,0.7-0.9,1.7,0.2,1.9C411.5,171.3,414.8,171.5,418.3,170z M391.3,113.2
			c-3.3-0.3-6,1.2-8.4,3c-0.4,0.3-0.6,0.7-0.3,1.2c0.2,0.4,0.6,0.6,1,0.5C386.6,117.2,389.3,115.9,391.3,113.2z M383.1,102.6
			c-1.7,0.4-3.3,1.4-4.7,2.8c-0.5,0.6-0.5,1.3,0,1.9c0.5,0.6,1.2,0.7,1.9,0.4c1.5-0.8,2.9-1.7,4-3c0.3-0.4,0.6-0.9,0.4-1.5
			C384.4,102.5,383.8,102.6,383.1,102.6z M404.6,146.8c1.4-0.6,3.6-0.2,4.2-2.3c0.3-1.2-0.9-1.4-1.8-1.5c-2.1-0.1-4.3,1.1-4.2,2.3
			C402.7,146.5,403.4,146.8,404.6,146.8z M423.2,198c-0.1-1.6-3.6-3.7-5.1-2.9c-0.8,0.4-1.1,0.9-0.6,1.7c1.1,1.5,2.7,2.3,4.5,2.5
			C422.8,199.4,423.2,198.9,423.2,198z M163,296.8c-1.8-1.9-3.3-3.5-5.3-4.6c0.3,2.8,0.6,5.4,3.9,6.2
			C161.9,297.8,161.7,296.8,163,296.8z M412.9,181.2c-1.1,0-2.3,0.2-2.3,1.6c-0.1,1.3,1.2,1.5,2.1,1.5c1.1,0,2.3-0.2,2.4-1.6
			C415.1,181.4,414,181.2,412.9,181.2z M407.3,297.6c-2.4,1.1-5,3.7-5.7,5.7C403.7,303.3,406.9,300.1,407.3,297.6z M368.9,99.5
			c2.4,0.7,4.5,0,5.7-2C371.8,96.6,369.5,97.4,368.9,99.5z M406.3,301.9c-2.2,1.4-4.2,2.5-5.5,4.7
			C403.5,306.7,406,304.5,406.3,301.9z M402.7,138.6c-0.1-1.1-0.7-1.5-1.7-1.5c-1.1,0-2,0.4-2.1,1.6c-0.1,1.1,0.7,1.5,1.6,1.5
			C401.7,140.2,402.5,139.8,402.7,138.6z M164.4,303.2c-1.6-2-3.3-3.5-5.7-4.6C159.7,301.4,162.1,303.4,164.4,303.2z M421.6,210.6
			c0.8-0.1,2,0,2.1-1.2c0.1-1.3-1.2-1.4-2.2-1.4c-0.9,0-2.1-0.1-2.2,1.1C419.2,210.5,420.5,210.5,421.6,210.6z M417.3,189.1
			c1,0,1.9-0.4,1.9-1.5c0-1-0.8-1.4-1.7-1.4c-0.9,0-1.7,0.4-1.8,1.4C415.6,188.7,416.3,189.1,417.3,189.1z M399.9,134.1
			c-0.2-1.1-1-1.3-1.9-1.3c-0.9,0-1.8,0.3-1.8,1.3c0,1.1,0.8,1.5,1.7,1.5C398.9,135.5,399.7,135.2,399.9,134.1z M392.4,124
			c-1,0.1-2,0.3-2,1.6c0,0.8,0.7,1.2,1.5,1.1c1-0.1,2.1-0.4,2.1-1.7C394,124.1,393.2,124,392.4,124z"/>
		<path class="st0" d="M350.8,60.5c-46-15.4-91.2-14.5-136.3,2.8c-0.6-1,0.5-1.2,1.2-1.6c2.4-1.1,5-1.7,7.5-2.4c0.8-0.2,1.9-0.1,2.4-1.2
			c-2-1-3.2-0.8-13,2.3c-0.6-1.2-0.2-1.8,1.1-2.1c3.3-1,6.7-2,10.2-2.2c1.9-0.1,3.8-0.4,5.9-1.1c-2-0.8-3.9-0.7-5.7-0.7
			c-2,0-4-0.1-6,0.3c-1.9,0.4-3.8,0.7-5.9,1.1c-0.2-5.2,1.9-9.4,4.9-13.3c10.2-13.5,24-22.1,39.1-28.9c1.1-0.5,1.1-0.5,1.9,0.5
			c-0.5,0.5-1.6-0.1-2,1.3c3,1.9,6,3.9,9.1,5.9c0.2-0.2,0.3-0.4,0.5-0.7c-0.5-1.9-2.5-2.7-3.9-4.8c1.8,1,3.3,1.5,4.5,2.5
			c1.4,1.2,2.6-1.3,3.8,0.3c0.7-1.7-0.9-2.8-0.4-4.3c1.4,0.5,2.1,1.8,3.1,2.7c0.6,0.5,1,1.3,2,0.8c0.9-0.4,0.8-1.2,0.7-2
			c-0.1-0.7-0.2-1.4-0.3-2.2c2.3,0.3,2.5,2.9,4.3,4c0.6-1.6,0.6-3.4-0.3-4c-1.6-1-2.8-2.8-4.8-3c-1.9-0.2-1.3,1.7-1.8,2.7
			c-1.4-0.5-2.6-2.2-4.2-1.3c-1.6,0.9-0.2,2.5-0.4,4.2c-2.5-2-5.6-2.3-8.1-4.3c4.1-2,8.3-2.2,12.5-2.9c14.5-2.3,27.8,2.3,40.8,7.3
			c13.2,5.1,24,13.9,33.4,24.5c3.7,4.2,6.3,9.1,6.1,15.1C352.4,58,351.1,59.1,350.8,60.5z M227.8,41.9c0,0.1,0,0.2,0,0.3
			c-1.6-0.4-3.1-0.8-4.7-1.1c-0.9-0.2-2.2-0.8-2.5,0.6c-0.3,1.2,1,1.3,1.8,1.6c1.1,0.4,2.4,0.7,3.8,1.8c-2.6-0.5-4.6-0.9-6.6-1.2
			c-1-0.2-2.2-0.3-2.5,0.9c-0.3,1.2,0.9,1.4,1.8,1.7c2.2,0.8,4.3,1.6,6.5,2.4c-0.6,0.3-1.2,0.1-1.7,0c-2.3-0.4-4.6-0.8-6.9-0.3
			c-0.7,0.2-1.3,0.5-1.3,1.4c0,0.6,0.4,1,1.1,0.9c5.7-1.1,11.2,1.9,17.1,0.5c-1.9-2.5-5.1-3-7.4-5c2.7,0.7,5.4,1.4,8.4,2.2
			c-0.6-2.4-2.7-3-4.4-4.7c3.4,0.6,6.3,1.1,9.2,1.6c0.1-0.3,0.2-0.5,0.3-0.8c-1.4-2.6-4.6-2.2-7.1-4c1.9,0.4,3.4,0.7,4.9,1
			c0-0.1,0-0.2,0.1-0.3c-2.3-0.7-4.6-1.4-6.8-2.2c4.8-0.2,9.1,1.8,14.2,2.8c-1.3-1.7-2.9-1.9-4.5-3.2c1.7,0.4,2.8,0.8,3.9,1
			c0.9,0.2,2,0.7,2.5-0.5c0.5-1.1-0.6-1.6-1.4-2.1c-3.5-2.5-7.7-3.2-11.6-4.6c-0.4-0.1-0.9-0.1-1.4-0.2c-0.5,0-0.9,0.1-1.2,0.6
			c-0.2,0.5,0.1,0.9,0.5,1.2c0.3,0.3,0.9,0.3,0.8,1.2c-2-0.9-3.7,0.7-5.6,0.8c-2.5,0.1-2.4,2-2.7,3.3c-0.4,1.4,1.4,1.3,2.3,1.8
			C227,41.5,227.4,41.7,227.8,41.9z M235.2,28.1c5.6,0,10,2.6,14.7,4.4c-1.8-2.1-4.4-3.2-6.7-5c2.2-0.3,4,0.9,6.3,0.1
			c-1.5-0.8-0.5-1.9-1.1-2.8c0.8,0.1,1.5,0.5,2-0.2c0.7-1-0.4-1.7-0.6-2.6c1.3-0.1,2.4,0.7,3.8,0c-1.9-0.5-3.7-0.9-5.3-1.5
			c-1.9-0.7-3.1-0.7-2.7,1.8c-2.2,0.4-4.9-0.4-5.9,1.7C238.8,25.9,236.2,25.7,235.2,28.1z M261.4,21.5c-2.4-3.7-7.8-5.4-11.7-3.8
			c-0.5,0.2-0.8,0.5-0.8,1c0,0.7,0.6,0.8,1.1,1.1c3.5,1.8,7.5,0.9,11.2,2.1C261.2,21.8,261.3,21.7,261.4,21.5z M244.9,33.1
			c-2.3-1.8-5-2.6-7.7-3.4c-1.1-0.3-2.2-0.6-3.4-0.5c-0.8,0-1.7,0.1-1.8,1.1c-0.1,1,0.9,0.9,1.5,1c1.9,0.4,3.8,0.8,5.7,1.1
			C241.1,32.7,242.9,33.6,244.9,33.1z M224,52.1c-2.7-0.5-5.3-1.3-8-0.5c-0.7,0.2-1.1,0.8-1,1.6c0.1,0.5,0.4,0.8,0.8,0.7
			C218.4,53,221.4,53.8,224,52.1z M285.7,15.5c-0.1-1.4-3.4-4.9-4.6-4.9c-0.9,0-1.4,0.5-0.8,1.3c1.2,1.4,2.5,2.7,3.8,4.1
			c0.3,0.3,0.9,0.4,1.3,0.1C285.6,15.9,285.7,15.6,285.7,15.5z M288.6,11.5c-0.3,1.8,1.8,4.8,3.3,4.8c0.9,0,1.4-0.6,0.8-1.4
			C291.7,13.4,290.6,12,288.6,11.5z"/>
		<path class="st0" d="M250.6,406.1c-0.1,1.8-0.3,3.2-0.9,4.5c-2.4,5.9-6,11-11,15c-2.4,1.9-5.5,3-8.3,4.5c-0.6,0.3-1.2,0.5-1.7-0.2
			c-0.6-0.8,0-1.3,0.5-1.8c9.2-9.7,13.5-21.6,15-34.7c0.1-0.6,0-1.1,0.6-1.4c0.6-0.2,1.1,0.1,1.3,0.6
			C248.3,397.1,250.1,401.6,250.6,406.1z"/>
		<path class="st0" d="M232.9,466.6c-1.7-0.1-2.6-1.1-3.2-2.3c-0.6-1.2-1.2-2.5-1.6-3.9c-0.9-2.8-0.5-3.7,2.1-5.2c1.8-1,3-0.5,3.3,1.5
			C234.1,460.1,233.9,463.3,232.9,466.6z"/>
		<path class="st0" d="M343.7,259.9c-0.6,14-4.7,26.7-13.6,37.9c-6.1,7.7-14.3,11.5-23.1,14.3c-11,3.5-22.1,3.2-33-1c-3.3-1.3-6.1-3.6-8.8-6
			c-4.6-4.1-8.6-8.7-12.5-13.4c-5.5-6.8-8.3-14.7-8.9-23.2c-1-13.1,1.3-25.5,8.3-36.9c2.5-4.1,6.5-6.6,10.1-9.5
			c9.1-7.3,19.7-10.7,31.4-10.7c12.8,0.1,24,4.4,33.6,13c8.4,7.5,13.7,16.6,15.8,27.6C343.4,254.6,343.7,257.2,343.7,259.9z
			 M284.6,225.1c-1.2-0.4-2,0.1-2.9,0.4c-7.1,2.8-13,7-17.3,13.4c-10.9,16.2-10.8,35,0.3,49.8c7.1,9.4,16.1,14.2,28,12.9
			c0.5,0,1,0.1,1.5-0.6c-19.7-3.2-31.6-14.8-33.9-34.2C258.1,247.6,266.4,233.2,284.6,225.1z M288.3,224.7c0.3,0.2,0.4,0.4,0.5,0.4
			c0.6,0,1.2-0.1,1.8-0.2c9.1-1.1,17.6,0.1,24.6,6.8c5.5,5.4,10.1,11.6,11.7,19.1c3.5,15.8,0.9,30.6-9.6,43.4
			c-0.5,0.6-1.4,1.1-1.4,2.3c1.4-0.6,2.3-1.6,3.2-2.6c5.4-5.7,9-12.3,11-19.9c2.7-10.2,3.5-20.3-1.2-30.4
			c-6.5-13.7-19.2-21.7-33.9-20.7C292.7,223.2,290.4,223.5,288.3,224.7z"/>
		<path class="st0" d="M383.1,245.2c-7,13.8-9.4,27.4,0.7,41c-3.5-1.2-6-3.6-7.2-7.1c-2.9-9.1-3.4-18.2,1.3-27
			C379.3,249.7,380.7,247.2,383.1,245.2z"/>
		<path class="st0" d="M189.1,277.9c6.2-5,9.7-10.9,8.1-18.8c-1.4-6.9-1.5-14.4-9-18.3c1-1.5,2.2-1.2,3.2-1c2.4,0.5,4.4,1.8,5.8,3.9
			c2.1,3.1,3.6,6.5,4,10.3c0.5,5.2,1.2,10.4-0.7,15.6c-1.4,3.9-3.6,7-7.7,8.4C191.8,278.4,190.8,278.7,189.1,277.9z"/>
	</g>
</g>
</svg>
