<?xml version="1.0" encoding="utf-8"?>
<!-- Generator: Adobe Illustrator 18.1.1, SVG Export Plug-In . SVG Version: 6.00 Build 0)  -->
<svg version="1.1" id="图层_1" xmlns="http://www.w3.org/2000/svg" xmlns:xlink="http://www.w3.org/1999/xlink" x="0px" y="0px"
	 viewBox="0 0 612 792" enable-background="new 0 0 612 792" xml:space="preserve">
<g>
	<g>
		<path d="M167.5,460.3c-0.5,8-4.8,16.4,1.5,42.4c-3.9-7.8-4.4-16.3-5.1-24.8c-0.2,2.1-0.4,4.2-0.4,6.3c-0.1,2.2-0.1,4.4,0,6.6
			c0.1,2.2,0.4,4.4,0.8,7c-1.6-2.4-1.6-4.9-1.9-7.2c-0.8-9.2,0.5-18.3,2.7-27.1c0.8-3.3,0.7-6.2-0.9-9.3c-2.5-5.2-3.8-10.8-5.5-16.4
			c-2-6.7-4.9-12.8-9.4-18c-4.6-5.4-6.8-11.4-6.3-18.5c0.2-3.5-0.3-6.9-0.9-10.4c-0.4-3.5,0.2-6.6,2.4-9.3c2.5-3.2,4.8-6.6,8.4-8.7
			c1-0.7,1.2-1.3,1-2.5c-1.6-11.4-3-22.8-2.7-34.3c0.1-3.8,0.2-7.8,0.4-11.6c0.3-6.4-1-12.8-1.3-19.2c-0.3-8.3,0.7-16.5,1.6-24.8
			c0.5-4.6,0.7-4.5,5.2-4.7c16.9-0.5,33.6,2.4,49.9,6c0.4,0.1,1,0.2,1.5,0.1c-2.5-1.6-5.5-2.2-8.3-2.8c-3-0.8-5.9-1.3-9-2
			c-3-0.5-5.8-1.1-8.7-1.5s-5.9-0.9-8.9-1.6c5.4,0,10.8,0,16.2,0c1.1,0,2.2-0.1,3.3-0.2c0.8-0.1,1.5-0.4,1.5-1.4s-0.7-1.3-1.5-1.4
			c-4.3-0.7-8.5-1.3-12.8-1.9c-7-0.8-14.1-1.4-21.2-2.2c0,0.2-0.1,0.4-0.1,0.8c6.8,1,13.6,2,20.3,3c-8.7,0.3-17.5,0-26.6,1.3
			c0.5-4.7,1.5-9.2,2.8-13.4c6.1-18.7,14.6-36.1,26.2-52c4.5-6.2,8.6-12.7,14.1-18.3c9.1-9.4,19.7-16.6,31.1-22.4
			c8.2-4.2,17.2-6.6,26-8.9c4.6-1.2,9.2-2.8,13.8-4c18.8-4.8,37.9-6.2,57.4-5.5c13.8,0.5,27.5,1.7,41,4.7
			c17.6,3.9,32.5,12.7,45.5,25c18.5,17.5,34.2,36.9,44.5,60.2c7.1,16.3,11,33.6,13.7,51c1.1,7.9,1.2,15.8,1,23.8
			c-0.1,4.3,0.3,8.4,0.7,12.7c0.2,2.4,0.7,4.9-0.1,7.3c-0.2,0.7-0.1,1.2,0.3,1.6c1.9,1.9,1.6,4.2,1.4,6.3
			c-1.1,11.6-1.1,23.2-2.4,34.6c-0.2,2.3-1.2,4.4-1.4,6.8c5.6,1.7,8.2,6.1,8.7,11.5c0.3,3.4-0.7,6.9-1.4,10.2
			c-1.3,5.8-1.9,11.7-3,17.6c-0.8,4.3-2.2,8.6-5.6,12c-2.8,3-4.7,6.6-7.2,9.7c-0.9,1.1-0.4,2-0.1,3.1c2.3,8.4,6.3,16,11.1,23.2
			c0.2,0.4,0.4,0.9,0.3,1.5c-7.4-5.9-11.5-14.1-15.1-23c-1.6,2.7-3.2,5.2-4.7,7.8c-0.4,0.7-0.5,1.3-0.2,2.2
			c6.2,15.7,11.5,31.8,18.8,47.1c3.3,6.8,7.1,13.2,11.3,19.6c3.4,5.1,8,8.9,13,12.3c-3.3-1.4-6.3-3.2-9-5.6
			c-14.5-13.1-24.5-29.2-31-47.5c-0.2-0.5-0.4-1.1-1-1.4c4,20.5,12.5,39,24.9,55.4c-3.6-1.9-12.9-15.3-20.1-29.4
			c-6.6-12.8-9.3-20.9-11.7-34.6c-0.5,3.4-0.1,6.1,0.3,8.9c2.1,14.9,3.3,29.9,6,44.7c2,10.8,4.9,21.3,9.3,31.6
			c-0.5-0.9-1.1-1.6-1.6-2.5c-0.5-0.9-1-1.7-1.3-2.7c-5-11.3-7.6-23.1-9.3-35.2c-1-7.5-1.9-15.1-3-22.6c0.4,30.8,2,61.5,16.5,89.8
			c-1.4-1.1-2.1-2.7-3-4.3c-8.7-16-14.3-32.8-16.8-50.9c-2.1-14.8-1.5-29.5-0.9-44.3c0.1-3.6,0.3-7.3,0.4-10.9
			c0-0.8,0.3-1.6-0.4-2.6c-0.9,2.6-0.9,5.2-1.2,7.8c-1.2,11.3-4.9,21.9-7.9,32.7c-6.4,23.6-15.5,46-26.3,67.9
			c-5.2,10.5-11.6,20.2-18.4,29.6c-7.8,10.7-16.7,20.4-25.5,30.3c-3.1,3.4-5.7,7.1-8.6,10.6c-13.1,15.7-30.2,22.5-50.4,22.1
			c-6.6-0.1-12.8-1.6-18.4-5c-8.7-5.4-18.1-9.9-25.5-17.4c-4.9-4.9-9.5-10.1-14.2-15.2c-22.6-24.6-39.7-52.8-53-83.3
			c-8.9-20.1-15.5-41.1-20.4-62.5c-1.9-8.2-3.1-16.6-3.2-25C170,462.7,169.4,461.2,167.5,460.3z M176.5,425.2
			c0.8-0.1,1.1,1.1,2.3,0.7c-1-2.6-2.6-4.5-5.2-6.4C174,422.1,175.9,423.3,176.5,425.2c-0.4,0.3-0.9-0.7-1.6-0.1
			c0.4,2.1,1.6,3.5,3.5,4.8C178.7,427.7,176.7,426.8,176.5,425.2z M259.3,590.7c2.1-0.5,4,0.7,6.1,0.5c9.2-0.4,18.3-0.7,27.4-1.2
			c3.6-0.2,7.2-0.4,10.5-2.6c1.4-0.9,2.2-1.5,1.3-3.3c-0.9-1.7-1.4-3.6-1.7-5.6c-0.3-2.1-1.3-3.5-3-4.8c-5.6-4.4-9.7-10.1-13.9-15.7
			c-1.4-2-2.7-3.7-5.1-4.6c-2.1-0.8-3.8-2.2-5.2-3.9c-0.8-1.1-1.3-2.2-0.8-3.5c0.9-2.3,1.9-4.5,2.8-6.8c0.5-1.2,1.6-1.2,2.8-1.3
			c0.9,0,1.6,0.3,1.7,1.2c0.7,3.6,3.4,6,5.1,9c1.5,2.7,3.6,4.7,7,4.8c1.2,0,2.3,0.4,3.5,0.7c4.8,0.8,9.5,1.5,14.4,0.7
			c3.3-0.7,5.4-2.1,5.4-5.8c0-2.8-0.5-5.7-0.5-8.6c-0.2-11.5-0.7-22.8-0.1-34.3c0.3-7.7,0.3-15.2-0.3-22.8c-0.1-1.4-0.1-2.8-0.9-3.9
			c-0.9-0.3-1.4,0.1-1.9,0.4c-7.5,5.2-15.6,9.7-23.4,14.8c-2.3,1.5-4.8,2.4-7.5,3c-4.3,1-8.6-0.1-12.9,0.1c-6,0.3-12-0.5-17.9-1.5
			c-9.2-1.6-17.6-5.4-25.6-10.1c-6.9-4-8.4-11.1-9.9-18.1c-0.5-2.8-2.6-4.7-5.4-3.8c-2.5,0.8-4.9,1.4-7.7,1.3c0-0.8,1-0.8,0.9-1.4
			c-0.7-0.8-1.7-0.1-2.4-0.9c3.6-1.1,7.2-2.3,10.8-3.4c-2.7-0.1-5.2,0.5-8.6-0.2c4.6-2,9.2-1.5,13-3.7c-3.3,1.1-5.5-2.1-8.5-2.1
			c6.4-0.4,13-0.8,20.2-1.3c-4.6-0.9-8.4-1-12.2-1.5c-3.6-0.4-7.8,0.1-11.5,1.4c-1.3,0.4-2.6,0.8-4.5,1.2c1.5-1.2,2.8-1.5,4.2-2.1
			c9-3.4,18.5-3.6,28-4.5c3.4-0.3,6.8-0.3,10.1-1.1c2.5-0.7,4-2.6,3.2-4.3c-1-1.9-2.1-3.7-4.6-4.3c-13.6-3.2-27.1-5.4-41.1-4.4
			c3.7-4.2,8.5-6,14-6.4c7.4-0.5,14.4,1.1,21.3,3.3c11.5,3.6,22.6,8.3,33.7,13c0.8,0.3,1.6,1.1,2.3,0.2c2.6-3.6,5.7-7.3,4.3-12.2
			c-1.4-5-3.4-9.7-8.2-12.7c-2.4-1.5-4.8-3.2-7.1-4.8c-3.6-2.5-7.8-3.9-12-4.4c-10.8-1.3-21.5-2.8-32.2-4.8
			c-4.9-0.9-9.9-1.5-14.6-3.5c-5.8-2.4-11.5-4.9-17.8-6.1c-8.1-1.5-15.7-4.4-23.7-6.2c-3.3-0.8-4.2-2.7-4.8-5.5
			c-0.5-2.5-0.4-5.1-1.4-7.9c-3.3,1.9-6.1,4.3-7.5,7.3c-1.4,3-2.2,6.3-1.6,9.6c0.8,4.5-0.4,8.9-0.8,13.2c-0.2,3.8,0.7,7.1,3.1,9.7
			c8.1,8.4,12.7,18.6,15.2,29.8c0.9,3.8,2,7.6,3.8,11.3c0.8-0.7,0.9-1.4,1-2.1c1.5-6.3,3.3-12.6,5.4-18.7c0.4-1.2,0.5-2.5,0.3-3.9
			c-1.5-8.6-4-17-6.7-25.5c-1.3-4.3-2.5-8.6-3-13.4c11.3,3.6,22.7,5.6,33.7,9.2c-0.1,0.4-0.1,0.7-0.2,0.9c-3,9.8-8.6,18.5-13.3,27.4
			c-3.6,6.9-7.2,13.8-6.7,22c0,0.5,0.2,1.2-0.8,1.5c-1.6-4.2,0.5-8.7-1.7-13c-1,9.8,0.7,19,3.9,28.1c-4.8-9.4-5.4-19.7-5.1-30.1
			c-1.9,6.1-3.4,12.1-5,18.1c-0.4,1.6,0,2.7,0.9,3.9c0.9,1.1,2.1,1.6,3.5,2.3c-1,0.4-1.2,1.1-0.9,2.1c0.5,2,0.9,4,1.3,6.1
			c2.4,12.8,4.9,25.5,8.3,38c3.1,11.4,7.8,22.1,11.6,33.1c5.4,15.6,12.7,30.3,21.3,44.3c14,22.4,29.2,43.9,48.6,62.1
			c3.7,3.5,7.7,6.7,11.9,9.4c0.3,0.2,0.8,0.8,1.3,0c-0.1-0.9-1.5-0.7-1.5-2.1c3.6,0.8,7.2,1.6,10.8,2.3c4.4,0.8,8.6,1.2,13.1-0.7
			c5.7-2.4,8.6-5.9,9.2-11.9c0.3-4-0.2-6.1-3.9-8c-2.5-1.3-5-2.4-7.5-3.7c-4-2-6.2-5.4-6.8-9.7c-0.3-2.8,0.8-6.1-3-7.8
			c1.4-1,2.3-0.1,3.3,0.1c6.1,1.9,12.2,3.4,18.7,2.8c6.2-0.5,11.6-3.3,14.8-9c1.5-2.7,1-4.2-1.9-5.5c-6.2-2.7-12.5-5.4-18.8-7.5
			c-3.8-1.3-7.6-2.1-11.6-2.3c-5.8-0.2-11.7-0.5-17.5-0.5c-2.8,0-5.7-0.1-8.5,0.9c-4.7,1.7-5.5,1.2-5.7-3.9
			C259.1,591.3,259.2,591.1,259.3,590.7z M233.3,323.8c-12.1,4.3-24.5,7.2-37.5,6.9c0.9,1.1,2.3,1.1,3,2.5
			c-7.8,0.2-15.1-0.8-22.4-2.1c-7.4-1.3-14.6-3.1-21.9-5.2c-0.9,2.2-0.1,3.2,2,3.8c4.5,1.4,9,2.5,13.6,3.3
			c7.9,1.3,15.7,3.2,23.8,3.6c16.2,0.9,32.5,1.9,48.6,2.3c9.1,0.3,18.3,1.2,27.4,0.3c2.2-0.2,4.5-0.5,6.7-0.1
			c0.1,0.3,0.1,0.4,0.1,0.4c-0.5,0.9-1.1,1.6-1.6,2.5c-6.7,9.9-11,20.8-11.5,32.9c-0.2,6.3,0.3,12.5,2.7,18.7
			c2.5,6.7,4.6,13.1,9.1,18.9c8.4,10.9,18.8,18.4,32.1,21.6c7.5,1.9,15.1,3.3,22.8,1.7c15.3-3.1,27-11.9,37.5-22.8
			c2.1-2.2,3.8-3.2,6.9-3.4c10.1-0.4,20.1-1.6,30.2-1.2c4.5,0.2,9.1-0.3,13.4,0.3c4.6,0.7,8.9,0.5,13.1-1.4c3.1-1.4,6.1-2.8,9.2-4.3
			c6.4-3,13-5.8,19.3-8.7c4.2-2,6.6-5.2,7.6-10.1c-1.2,0.8-1.4,1.6-2,2.4c-1.7,2.5-3.6,4.7-6.7,5.6c-10.9,3.2-21.2,8-31.3,13
			c-2,1-4,2-6.2,1.7c-5.6-0.5-11.3-0.9-16.8-1.3c-6.6-0.5-13.1-1-19.8-0.4c-4.2,0.3-8.3,1.1-12.8,2.1c5.9-10.6,8.5-21.2,7.3-33.2
			c-1.2-11.9-4.9-22.2-12.3-31.4c0.7-0.2,1-0.3,1.3-0.4c-0.7-0.5-2,0.3-2.2-1.2c10.7-0.5,21.3-1.6,31.9-1.5
			c23,0.2,45.8-1.3,68.5-4.7c2-0.3,3-0.9,2.1-3.1c-15.6,1.7-31.3,3.9-47,4c5.8-2.3,12-3.5,18.5-5.4c-1.7-0.8-3.1-0.7-4.4-0.4
			c-6.6,1-13,2.8-19.6,2.4c-9.5-0.7-18.7-3.4-27.5-7c4.9,0.1,9.7,1.2,14.5,0.1c-2.5-0.7-5-1-7.4-1.4c-8.6-1.2-17.3-2.3-24.5-7.9
			c-1.4-1.1-3.1-1.7-4.6-2.6c-3-1.6-5.9-3.3-9.3-5.2c4.7-0.5,8.7-1.1,12.9-1.6c0-0.2,0-0.5,0-0.8c-11.4,1.2-22.4-0.5-33-4.7
			c3.2-1.4,6.8-2.2,9.8-4.3c-7.5-0.4-13.8,4.8-21.5,4.3c3.2-4.4,6.9-7.8,8.7-12.6c-4.9,4.4-8.9,9.7-15.1,13.1
			c0.8-7.8,1.9-15,1.9-22.3c-2.3,7-2.3,14.4-3.5,22.1c-3.4-4.2-4.9-8.9-7.2-13c0.4,4.4,2,8.3,3.3,12.6c-2.7,0.4-4.7-1.1-6.7-2.3
			c-3.6-2.2-6.3-5.4-9.4-8.1c-0.9-0.8-1.7-1.9-3.6-1.4c3.8,3.8,7.5,7.4,11.5,11.4c-3.6-0.1-6.6-0.5-9.4-2c-3.6-1.7-6.7-4.3-10.1-6.3
			c-1.2-0.7-2.4-1.9-4.4-0.8c4.3,2.8,8.3,5.6,12.2,8.7c-1.5,0.4-2.8,0.5-4.2,0.3c-4.9-0.9-9.8-1.6-14.8-2.3
			c-1.5-0.2-3.1-0.4-4.5,1.2c4.2,0.2,7.8,1.3,11.5,2.8c-7.5,3-15.4,2.4-22.8,4.3c2.8,0.2,5.6,0.4,9.1,0.8c-11.9,6.9-24.9,5.6-37,8.6
			c7.3,0.7,14.4-1,21.7-1.1c-4.4,2.5-8.7,4.6-13.9,5.1c-9.3,1-18.5,0.1-27.6-0.4c-1.5-0.1-3.2-0.1-4.7-0.2c0,0.2,0,0.4,0,0.7
			C215,322.9,224.1,322.9,233.3,323.8z M444.2,375.1c-0.2-7-1.4-12.6-4.8-17.6c-5.6-8.3-14.5-9.8-22.3-3.9
			c-11.4,8.6-14.9,29.9-7.3,42.3c6.6,10.6,17.9,9.9,25.5,2.5C442,391.6,443.5,383,444.2,375.1z M188.2,369.3
			c0.3,8.5,2.4,16.1,8.2,22c6.7,6.7,15.4,6.9,21.3-1.3c8.1-11.1,5.4-28.5-3.2-37.7c-6.4-6.9-15.1-6.4-21,0.8
			C189.5,358,188.5,363.8,188.2,369.3z M355.7,178.2c0.1-2.6-0.2-5.1-0.9-7.5c-0.2-0.8-0.4-1.6-0.9-2.4c-1-2.1-2.5-2.4-4.2-0.7
			c-1.1,1.1-2,2.4-3.1,3.8c-0.7-3-1.1-5.6-1.7-8.2c-0.3-1.2-0.8-2.6-2.4-2.5c-1.4,0-1.9,1.3-2.2,2.5c-0.5,2.1-1.1,4.3-1.7,6.6
			c-0.7-2.5,1.1-4.9-0.4-7.2c-2.4,5.2-2.4,10.9-3.2,16.6c-0.3-2-0.4-3.8-0.8-5.8c-0.4-3.8-1-7.5-1.5-11.3c-0.2-1.1-0.5-2.3-2-2.3
			c-1.4,0-1.6,1.2-2,2.3c-0.1,0.4-0.1,0.9-0.2,1.2c-0.7,4.6-1.3,9.2-2.1,13.8c-0.7-6.2-1.4-12.3-3.3-18.4c-2.1,0.5-2.5,1.4-2.6,4.4
			c-0.2,5-0.3,10.2-0.5,15.2c0,0.9,0.1,1.7-0.5,2.7c-3-8.1-2.6-16.7-5.6-24.5c-1.6,5.4-1.6,10.8-2.4,16.3c-1.1-4.4-2.3-8.6-1.6-13.2
			c-0.8,0.1-1.3,0.2-2.1,0.4c0.7,4.9-0.8,9.5-1.9,14.2c0-3.7,0.3-7.4,0.7-11c0.1-1.2,0.5-2.6-1.1-2.8c-1.7-0.2-1.6,1.3-1.9,2.5
			c-1.3,6.8-1.1,13.8-1.1,20.7c0,1.6-0.4,4.2,2,4.3c2.3,0.1,2-2.4,2.3-3.9c0.8-3.8,1.2-7.8,1.9-12.2c0.5,3.1,0.9,5.4,1.3,7.6
			c0.2,1.3,0.5,2.6,2.1,2.8s1.7-1.3,2.6-2.8c0.3,4.5,0.7,8.4,0.9,12.2c0.3,4.7,0.4,9.5,1.4,14.1c0.2,0.9,0.2,2.1,1.7,2.3
			c0.3-7.1,0.1-14.2-0.4-21.3c2.3,2.1,3.3,1.7,4-0.9c0.7-2,0.1-4.3,1.2-6.3c0.4,2.1,0,4.3,2.2,5.8c2.5-5.4,3.5-11,4.9-16.8
			c1.4,6.1,1.4,12.2,4.2,17.7c0.5-2.8,1.4-5.4,2-8.2c1.7,0.9,2.4-0.2,2.8-1.5c1-3.1,1.9-6.1,3-9.8c0.7,2.6,1.1,4.6,1.5,6.4
			c0.3,1.2,0.9,2.3,2.3,2.4c1.3,0.1,1.9-0.9,2.5-1.9c1.1-1.6,1.7-3.6,3.3-5C354.3,171.4,354.2,175.1,355.7,178.2z M392,538.7
			c4.7-6.8,8.7-13.7,11.9-21c1.4-3.3,2.6-6.6,2.8-10.2c0.3-3.6-1-5.7-4.4-6.7c-3.5-1.1-7.1-1.6-10.7-1.6c-6.9,0-8.2,1.3-7.5,8.2
			c1,9.6,3.5,18.9,6,28.1C390.5,536.7,390.9,537.6,392,538.7z M254.6,457.7c1,3,1.9,5.5,1.1,8.3c-0.8,3-2.4,5.2-5,6.6
			c-3.4,1.7-7.9,1.1-10.1-1.4c-1.9-2.2-3-4.7-3.2-7.5c-0.2-2.8,0.4-5.6,2.5-7.9c-2.3-1.1-4.5-0.7-6.7-0.2c-4.6,1-9.3,1.5-13,4.9
			c-0.7,0.5-1.6,1.1-1.4,1.9c0.4,2.1,0.5,4.4,2.2,6c3.4,3.5,7.3,5.6,12.1,6.6c14,3.1,26.4-1.7,39.2-6.4
			C267.9,462.9,262,459.6,254.6,457.7z M256.4,195.4c4.5,11.7,8.7,23.4,14.3,34.5c-0.3-2-1-3.7-1.6-5.6c-0.9-2.8-2.5-5.4-2.7-8.4
			c-0.8-10.7-2.8-21.3-3.7-32c-0.1-0.9-0.3-1.7-1.5-1.6c-1,0.1-1.4,0.9-1.4,1.9c0,1.3,0.1,2.7,0.2,4c0.7,5.2,1.4,10.6,2.2,15.8
			c-0.9-1.5-1.4-3.1-2-4.7c-3.4-9.9-6.1-20.2-8.4-30.5c-0.3-1.5-0.3-4.6-3-3.8c-2.3,0.7-0.9,3.1-0.5,4.6c2.1,9.2,4.2,18.5,6.4,27.6
			c0.7,2.5,0.9,5.2,2.2,8.1C257.7,201.7,256.3,198.6,256.4,195.4z M296.9,185.2c0-7.5,0-15.1,0-22.6c0-0.7-0.3-1.1-1-1.3
			c-0.7-0.2-1.2,0.1-1.5,0.7c-0.4,0.8-1,1.5-1.2,2.5c-0.7,3.1-1.2,6.1-1.5,9.3c-0.3,3.6-0.7,7.2-1,10.8c-0.9-1.4-1.2-3-1.6-4.4
			c-0.9-3.5-1.9-7-2.7-10.5c-0.2-0.9-0.4-2-1.7-1.9c-1.4,0.1-1.3,1.4-1.4,2.3c-0.1,1,0,2.1,0.1,3.1c0.4,4.6,0.8,9.2,1.2,13.9
			c-0.1,0-0.3,0.1-0.4,0.1c-2.8-7.2-5.6-14.4-8.6-22.4c-0.3,1.7-0.1,2.7,0.2,3.7c2.5,7.6,5,15.4,7.7,23.1c0.3,1.1,0.9,2.2,1.3,3.3
			c0.4,1,1.1,1.7,2.3,1.5s1.2-1.3,1.2-2.2c-0.1-1.3-0.2-2.7-0.3-4c-0.2-3.4-0.5-6.7-0.8-10.1c1.7,3,2.4,6.2,4.3,9.7
			c2.1-5.4,1.9-10.7,3.5-15.6C295.5,177.6,295.5,181.5,296.9,185.2z M238.1,212.7c-4.7-10.4-10.4-20.1-17.2-29.3
			c2.4,7.1,6.2,13.4,9.6,20c-5.2-4.8-10.2-9.9-15.6-14.4c-0.2,0.2-0.3,0.3-0.5,0.5c3.3,3.6,6.6,7.1,9.7,10.7c-0.9-0.1-1.4-0.4-2-0.8
			c-2.5-1.7-5-3.5-7.5-5.1c-0.8-0.5-1.7-0.8-2.5,0.1c-0.7,0.9-0.3,1.7,0.3,2.5c0.3,0.4,0.8,0.9,1.2,1.3c5.5,5.8,10.9,11.5,16.5,17.3
			c0.4,0.4,0.8,1.1,2,1c-3.4-5-7.5-9.2-11-13.9c2.5,1.4,5,3.1,7.4,4.6c1.4,0.9,3,1.3,4-0.5C234.5,208.8,235.3,211.6,238.1,212.7z
			 M177,261.9c3.8-0.3,7.3-0.5,10.7-1c1.1-0.1,2.3-0.5,2.3-2c0-1.1-1-1.4-2-1.6c-0.4-0.1-0.9-0.2-1.2-0.2
			c-6.9-0.4-13.9-0.8-20.8-1.1c-0.5,0-1.2-0.2-1.7,0.5c4,1.4,8.2,1,12.3,2.3c-6.2,0.7-12.2,0.7-18.5,1.6c1.2,1.5,2.6,0.9,3.7,1.4
			c-1.6,0.4-3.4,0.1-4.6,1.4c1.9,1.1,34.9,3.1,36.7,2C188.6,262.5,182.9,262.8,177,261.9z M153.8,301.1c5.6,3,36.2,5.6,39.9,3.4
			c-6.4-2.7-13.1-1.6-20-3c3.8-0.4,7-0.8,10.1-1.2c1.3-0.2,3-0.1,2.8-2.1c-0.1-1.9-1.7-1.6-3-1.7c-5.7-0.3-11.3-0.7-16.9-0.9
			c-2.4-0.1-4.8-0.3-8,0.8c5.2,0.5,9.8,1,14.3,1.5C166.9,299.2,160.6,299.5,153.8,301.1z M164.7,280.7c4.4,0.7,8.9,1.2,13.9,2
			c-2.1,0.8-3.6,0.7-5,0.8c-3,0.1-5.9,0.4-8.7,1.2c-1,0.2-1.7,0.9-1.6,2c0.1,1,0.9,1.4,1.7,1.5c0.8,0.1,1.5,0.2,2.3,0.3
			c6.9,0.4,13.8,1.3,20.7,2.3c4.7,0.7,9.4,1.5,14,2.3c-8.4-3.7-17.5-4.5-26.3-6.1c0.7-0.9,1.4-0.5,2.2-0.7c3.4-0.2,6.8-0.4,10.2-0.7
			c1.1-0.1,2.2-0.2,2.3-1.5c0.1-1.4-1.1-1.5-2.1-1.6c-4.5-0.5-8.9-1.1-13.3-1.5C171.4,280.5,168,280.2,164.7,280.7z M196.3,195.9
			c-0.2,0.2-0.3,0.4-0.5,0.5c4.5,4,8.9,8,13.3,12c-2.6-0.5-4.9-1.5-7.2-2.5c-2.3-1-4.5-2-6.8-3c-1-0.4-2.1-0.9-2.7,0.3
			c-0.8,1.3,0.3,2,1.2,2.6c0.2,0.1,0.4,0.3,0.7,0.4c8.6,5.8,17.3,11.5,26,17.3c0.8,0.5,1.5,1.2,3.3,1.4c-5.6-5.2-11.6-9-16.9-13.6
			c1.9,0.4,3.6,1.1,5.4,1.6c1,0.3,2.1,0.5,2.7-0.5c0.7-1.1-0.1-2-0.9-2.6C208.3,204.8,202.1,200.5,196.3,195.9z M368.7,173.7
			c0.5,1.4,0.2,2.7,0,4c-0.8,3.4-1.5,6.8-2.2,10.2c-0.2,1-0.2,2,0.9,2.4c1.1,0.4,1.7-0.4,2.2-1.2c0.2-0.4,0.4-0.9,0.7-1.4
			c2.7-6.7,5.4-13.3,7.4-20.1c0.2-0.5,0.8-1.2,0-2.2c-1.7,3.9-3.5,7.8-5.2,11.6c-0.4-1.1-0.3-2.1-0.4-3c-0.2-1.7-1.2-2.8-3-3
			c-3.4-0.1-5.8,2.4-8.6,3.6C363.5,175.9,365.9,173.1,368.7,173.7z M200.3,253.8c0-0.4,0.1-1,0.1-1.4c-8.6-2.6-17.4-3.6-26.3-4.3
			c-0.1,0.2-0.1,0.5-0.2,0.8c1.9,0.5,3.8,1.2,6.4,2c-3.7,0.9-7,0.2-9.7,2.1C180.4,255,190.4,253.3,200.3,253.8z M300.6,196.7
			c1.1-3.7,1.9-36.3,1-37.7c-0.7,0.5-0.7,1.3-0.8,2.1c-0.4,3.1-0.9,6-1.2,9.1c-1,7.5-1.4,15.2-1.2,22.7
			C298.5,194.4,298.4,196.1,300.6,196.7z M248.7,212.5c0.8-3.2-11.1-37.6-13.4-39C238.1,187,242.4,200.2,248.7,212.5z M180.2,222.9
			c3,2.5,36.4,19.2,38.8,19.6C218.1,239.4,187.3,223.7,180.2,222.9z M382.1,164.4c-1.1,0.8-1.3,1.3-1.5,1.9
			c-1.7,5.4-3.6,10.7-4.8,16.3c-0.2,1.3-0.7,2.8,1.1,3.5c1.5,0.7,2.3-0.7,3.1-1.6c3-4,5.6-8.3,8.1-12.6c0.1-0.1,0-0.4,0-1.1
			c-3.3,2.7-5.4,6.2-8.3,9.3C380.2,174.6,381.8,169.9,382.1,164.4z M156.3,310.3c3.1,0,5.2,0,7.5,0c4,0,8.1,0,12.1-0.1
			c1.2,0,3,0,3-1.6c0-1.6-1.5-1.7-2.8-1.9c-3.1-0.3-6-0.7-9.1-0.9c-2.7-0.1-5.4-0.5-8.7,0c2.4,1.2,4.4,0.9,6.3,1.6
			C162,308.6,159,307.9,156.3,310.3z M251.7,200.3c0.3-0.1,0.7-0.2,0.9-0.3c0.1-0.2,0.2-0.5,0.2-0.8c-1.7-9.3-4.9-18.3-8.7-26.9
			c-0.3-0.8-0.8-1.5-2.3-0.9C244.3,181.4,247.6,191,251.7,200.3z M215.3,229.2c-1.2-3.6-25.2-17-29.1-16.4
			C195.8,219,205.1,224.7,215.3,229.2z M170.3,240.7c4.8,3.4,39.2,9.7,43.8,8C199,246,184.7,243.3,170.3,240.7z M189.3,208.1
			c-0.3,0.9-0.1,1.2,0.1,1.4c7.7,5.6,15.7,10.5,24.2,14.8c0.7,0.3,1.5,0.4,2.3-1.1C207.5,217.4,198.7,212.4,189.3,208.1z
			 M177.2,232.7c12.8,5.4,25.8,10.2,39.5,12.9C203.8,240.3,190.6,236.2,177.2,232.7z M194.6,310.6c-11.8-0.4-23.4,0.9-35.1,2.7
			C171.5,313.8,183.2,313.4,194.6,310.6z M225.7,184.9c5,9.2,10.4,18,17.2,26.1C243.5,207.9,230.2,187.8,225.7,184.9z M185.9,218.1
			c2.3,3.2,24.9,14.3,28.2,13.4C204.9,225.5,195.5,221.6,185.9,218.1z M273.5,188.9c-1-8-3.2-15.3-5.9-22.5c-0.3-1-0.9-2.4-2.3-1.7
			c-1.2,0.5-0.4,1.7-0.2,2.7c2,6.6,4.2,13,6.7,19.3C272.1,187.5,272.2,188.2,273.5,188.9z M222.2,211.9
			c-4.8-6.7-10.5-12.6-17.3-18.3C205.6,197.9,218.7,211.7,222.2,211.9z M195.6,318.8c-3.1-1.1-29.2,1.9-32.3,3.7
			C169.1,323.2,193.2,320.4,195.6,318.8z M277.6,188.5c0-0.8,0-1.2-0.1-1.7c-1.7-6.2-3.6-12.5-5.4-18.7c-0.3-1.1-0.7-2.4-2.1-2
			c-1.6,0.4-1.1,1.7-0.7,3c1.9,5.9,4.2,11.6,6.6,17.3C276.2,187,276.4,187.9,277.6,188.5z M266.4,187.6c0.4-1,0.7-1.3,0.7-1.6
			c-0.5-7-2.4-13.7-4.8-20.1c-0.3-0.8-0.8-1.5-2.3-1C261.3,172.4,263.6,179.7,266.4,187.6z M165.8,292.4c8.6,1.9,17.3,3.6,26.1,3.6
			c0-0.4,0.1-0.9,0.1-1.3C183.5,292.7,174.6,292.1,165.8,292.4z M242.7,455.5c-1.6,0-3.7,2.5-3.7,4.4c0,1.7,2.1,3.8,3.7,3.8
			c2.2-0.1,3.8-1.7,3.7-3.7C246.4,457.4,244.8,455.5,242.7,455.5z M442.5,266.7c0.5,0.9,1.3,0.9,2.1,0.9c4.2-0.2,8.2-0.5,12.2-1.7
			c0.7-0.2,1.6-0.2,1.6-1.3c-0.1-1.2-1.2-1-2-1c-4,0-8.1,0.4-11.9,1.6C443.7,265.4,442.8,265.6,442.5,266.7z M178,406.7
			c-3.6-2.2-6.3-5.4-9.9-8.1c1.5,6.6,6.9,13,10.4,11.8c-0.2-1.3-1.7-1.5-2.3-2.7C176.7,407.3,177.7,407.8,178,406.7z M448,404
			c-2.4,1.1-3.7,2.4-5.1,3.5c-1.4,1.1-2,2.1,0.4,2.8c-2.3,1.5-1.7,3.6-2,5.8C447.2,413.9,445.7,408.2,448,404z M167.4,395.6
			c1.4,3.4,8.3,8.3,11.3,8.1c-1.3-1.2-0.3-2.1,0.5-3.1C175.3,398.8,171.8,396.5,167.4,395.6z M405.1,183.2
			c-3.7,0.1-10.7,7.2-10.5,10.6C399,191,402.5,187.5,405.1,183.2z M396.2,177.9c-1.9-0.5-2.6,0.4-3.3,1.2c-2.2,2.2-4.4,4.5-5.9,7.2
			c-0.3,0.5-0.7,1.3,0,1.9c0.4,0.4,1,0.3,1.3-0.1C391.2,185.1,394.2,181.9,396.2,177.9z M457.1,275.8c-2-2.1-9.4-2.8-11.1-1.4
			c-1,0.8-1,1.9,0.2,2.1C449.7,277.2,453.3,277.4,457.1,275.8z M427.6,213.7c-3.6-0.3-6.6,1.3-9.2,3.3c-0.4,0.3-0.7,0.8-0.3,1.3
			c0.2,0.4,0.7,0.7,1.1,0.5C422.5,218.1,425.4,216.7,427.6,213.7z M418.7,202.1c-1.9,0.4-3.6,1.5-5.1,3.1c-0.5,0.7-0.5,1.4,0,2.1
			c0.5,0.7,1.3,0.8,2.1,0.4c1.6-0.9,3.2-1.9,4.4-3.3c0.3-0.4,0.7-1,0.4-1.6C420.1,202,419.4,202.1,418.7,202.1z M442.2,250.4
			c1.5-0.7,3.9-0.2,4.6-2.5c0.3-1.3-1-1.5-2-1.6c-2.3-0.1-4.7,1.2-4.6,2.5C440.1,250.1,440.9,250.4,442.2,250.4z M462.5,306.4
			c-0.1-1.7-3.9-4-5.6-3.2c-0.9,0.4-1.2,1-0.7,1.9c1.2,1.6,3,2.5,4.9,2.7C462.1,307.9,462.5,307.4,462.5,306.4z M178.1,414.4
			c-2-2.1-3.6-3.8-5.8-5c0.3,3.1,0.7,5.9,4.3,6.8C176.9,415.5,176.7,414.4,178.1,414.4z M451.2,288c-1.2,0-2.5,0.2-2.5,1.7
			c-0.1,1.4,1.3,1.6,2.3,1.6c1.2,0,2.5-0.2,2.6-1.7C453.6,288.2,452.4,288,451.2,288z M445.1,415.2c-2.6,1.2-5.5,4-6.2,6.2
			C441.2,421.5,444.7,418,445.1,415.2z M403.2,198.7c2.6,0.8,4.9,0,6.2-2.2C406.3,195.6,403.8,196.4,403.2,198.7z M444,419.9
			c-2.4,1.5-4.6,2.7-6,5.1C441,425.2,443.7,422.8,444,419.9z M440.1,241.5c-0.1-1.2-0.8-1.6-1.9-1.6c-1.2,0-2.2,0.4-2.3,1.7
			c-0.1,1.2,0.8,1.6,1.7,1.6C439,243.2,439.9,242.8,440.1,241.5z M179.7,421.4c-1.7-2.2-3.6-3.8-6.2-5
			C174.5,419.4,177.2,421.6,179.7,421.4z M460.7,320.2c0.9-0.1,2.2,0,2.3-1.3c0.1-1.4-1.3-1.5-2.4-1.5c-1,0-2.3-0.1-2.4,1.2
			C458.1,320,459.5,320,460.7,320.2z M456,296.7c1.1,0,2.1-0.4,2.1-1.6c0-1.1-0.9-1.5-1.9-1.5s-1.9,0.4-2,1.5
			C454.2,296.2,455,296.7,456,296.7z M437,236.6c-0.2-1.2-1.1-1.4-2.1-1.4c-1,0-2,0.3-2,1.4c0,1.2,0.9,1.6,1.9,1.6
			C435.9,238.1,436.8,237.8,437,236.6z M428.8,225.5c-1.1,0.1-2.2,0.3-2.2,1.7c0,0.9,0.8,1.3,1.6,1.2c1.1-0.1,2.3-0.4,2.3-1.9
			C430.6,225.6,429.7,225.5,428.8,225.5z"/>
		<path d="M383.4,156.1c-50.3-16.8-99.7-15.8-149,3.1c-0.7-1.1,0.5-1.3,1.3-1.7c2.6-1.2,5.5-1.9,8.2-2.6c0.9-0.2,2.1-0.1,2.6-1.3
			c-2.2-1.1-3.5-0.9-14.2,2.5c-0.7-1.3-0.2-2,1.2-2.3c3.6-1.1,7.3-2.2,11.1-2.4c2.1-0.1,4.2-0.4,6.4-1.2c-2.2-0.9-4.3-0.8-6.2-0.8
			c-2.2,0-4.4-0.1-6.6,0.3c-2.1,0.4-4.2,0.8-6.4,1.2c-0.2-5.7,2.1-10.3,5.4-14.5c11.1-14.8,26.2-24.2,42.7-31.6
			c1.2-0.5,1.2-0.5,2.1,0.5c-0.5,0.5-1.7-0.1-2.2,1.4c3.3,2.1,6.6,4.3,9.9,6.4c0.2-0.2,0.3-0.4,0.5-0.8c-0.5-2.1-2.7-3-4.3-5.2
			c2,1.1,3.6,1.6,4.9,2.7c1.5,1.3,2.8-1.4,4.2,0.3c0.8-1.9-1-3.1-0.4-4.7c1.5,0.5,2.3,2,3.4,3c0.7,0.5,1.1,1.4,2.2,0.9
			c1-0.4,0.9-1.3,0.8-2.2c-0.1-0.8-0.2-1.5-0.3-2.4c2.5,0.3,2.7,3.2,4.7,4.4c0.7-1.7,0.7-3.7-0.3-4.4c-1.7-1.1-3.1-3.1-5.2-3.3
			c-2.1-0.2-1.4,1.9-2,3c-1.5-0.5-2.8-2.4-4.6-1.4c-1.7,1-0.2,2.7-0.4,4.6c-2.7-2.2-6.1-2.5-8.9-4.7c4.5-2.2,9.1-2.4,13.7-3.2
			c15.8-2.5,30.4,2.5,44.6,8c14.4,5.6,26.2,15.2,36.5,26.8c4,4.6,6.9,9.9,6.7,16.5C385.1,153.4,383.7,154.6,383.4,156.1z M249,135.8
			c0,0.1,0,0.2,0,0.3c-1.7-0.4-3.4-0.9-5.1-1.2c-1-0.2-2.4-0.9-2.7,0.7c-0.3,1.3,1.1,1.4,2,1.7c1.2,0.4,2.6,0.8,4.2,2
			c-2.8-0.5-5-1-7.2-1.3c-1.1-0.2-2.4-0.3-2.7,1c-0.3,1.3,1,1.5,2,1.9c2.4,0.9,4.7,1.7,7.1,2.6c-0.7,0.3-1.3,0.1-1.9,0
			c-2.5-0.4-5-0.9-7.5-0.3c-0.8,0.2-1.4,0.5-1.4,1.5c0,0.7,0.4,1.1,1.2,1c6.2-1.2,12.2,2.1,18.7,0.5c-2.1-2.7-5.6-3.3-8.1-5.5
			c3,0.8,5.9,1.5,9.2,2.4c-0.7-2.6-3-3.3-4.8-5.1c3.7,0.7,6.9,1.2,10.1,1.7c0.1-0.3,0.2-0.5,0.3-0.9c-1.5-2.8-5-2.4-7.8-4.4
			c2.1,0.4,3.7,0.8,5.4,1.1c0-0.1,0-0.2,0.1-0.3c-2.5-0.8-5-1.5-7.4-2.4c5.2-0.2,9.9,2,15.5,3.1c-1.4-1.9-3.2-2.1-4.9-3.5
			c1.9,0.4,3.1,0.9,4.3,1.1c1,0.2,2.2,0.8,2.7-0.5c0.5-1.2-0.7-1.7-1.5-2.3c-3.8-2.7-8.4-3.5-12.7-5c-0.4-0.1-1-0.1-1.5-0.2
			c-0.5,0-1,0.1-1.3,0.7c-0.2,0.5,0.1,1,0.5,1.3c0.3,0.3,1,0.3,0.9,1.3c-2.2-1-4,0.8-6.1,0.9c-2.7,0.1-2.6,2.2-3,3.6
			c-0.4,1.5,1.5,1.4,2.5,2C248.1,135.4,248.5,135.6,249,135.8z M257,120.7c6.1,0,10.9,2.8,16.1,4.8c-2-2.3-4.8-3.5-7.3-5.5
			c2.4-0.3,4.4,1,6.9,0.1c-1.6-0.9-0.5-2.1-1.2-3.1c0.9,0.1,1.6,0.5,2.2-0.2c0.8-1.1-0.4-1.9-0.7-2.8c1.4-0.1,2.6,0.8,4.2,0
			c-2.1-0.5-4-1-5.8-1.6c-2.1-0.8-3.4-0.8-3,2c-2.4,0.4-5.4-0.4-6.4,1.9C261,118.3,258.1,118.1,257,120.7z M285.7,113.5
			c-2.6-4-8.5-5.9-12.8-4.2c-0.5,0.2-0.9,0.5-0.9,1.1c0,0.8,0.7,0.9,1.2,1.2c3.8,2,8.2,1,12.2,2.3
			C285.5,113.8,285.6,113.7,285.7,113.5z M267.6,126.2c-2.5-2-5.5-2.8-8.4-3.7c-1.2-0.3-2.4-0.7-3.7-0.5c-0.9,0-1.9,0.1-2,1.2
			c-0.1,1.1,1,1,1.6,1.1c2.1,0.4,4.2,0.9,6.2,1.2C263.5,125.7,265.5,126.7,267.6,126.2z M244.8,146.9c-3-0.5-5.8-1.4-8.7-0.5
			c-0.8,0.2-1.2,0.9-1.1,1.7c0.1,0.5,0.4,0.9,0.9,0.8C238.7,147.9,242,148.8,244.8,146.9z M312.2,106.9c-0.1-1.5-3.7-5.4-5-5.4
			c-1,0-1.5,0.5-0.9,1.4c1.3,1.5,2.7,3,4.2,4.5c0.3,0.3,1,0.4,1.4,0.1C312.1,107.4,312.2,107,312.2,106.9z M315.4,102.6
			c-0.3,2,2,5.2,3.6,5.2c1,0,1.5-0.7,0.9-1.5C318.8,104.6,317.6,103.1,315.4,102.6z"/>
		<path d="M273.9,533.8c-0.1,2-0.3,3.5-1,4.9c-2.6,6.4-6.6,12-12,16.4c-2.6,2.1-6,3.3-9.1,4.9c-0.7,0.3-1.3,0.5-1.9-0.2
			c-0.7-0.9,0-1.4,0.5-2c10.1-10.6,14.8-23.6,16.4-37.9c0.1-0.7,0-1.2,0.7-1.5c0.7-0.2,1.2,0.1,1.4,0.7
			C271.4,524,273.3,528.9,273.9,533.8z"/>
		<path d="M254.5,599.9c-1.9-0.1-2.8-1.2-3.5-2.5c-0.7-1.3-1.3-2.7-1.7-4.3c-1-3.1-0.5-4,2.3-5.7c2-1.1,3.3-0.5,3.6,1.6
			C255.8,592.8,255.6,596.3,254.5,599.9z"/>
		<path d="M375.6,374c-0.7,15.3-5.1,29.2-14.9,41.4c-6.7,8.4-15.6,12.6-25.2,15.6c-12,3.8-24.2,3.5-36.1-1.1
			c-3.6-1.4-6.7-3.9-9.6-6.6c-5-4.5-9.4-9.5-13.7-14.6c-6-7.4-9.1-16.1-9.7-25.4c-1.1-14.3,1.4-27.9,9.1-40.3
			c2.7-4.5,7.1-7.2,11-10.4c9.9-8,21.5-11.7,34.3-11.7c14,0.1,26.2,4.8,36.7,14.2c9.2,8.2,15,18.1,17.3,30.2
			C375.3,368.2,375.6,371.1,375.6,374z M311,336c-1.3-0.4-2.2,0.1-3.2,0.4c-7.8,3.1-14.2,7.7-18.9,14.6
			c-11.9,17.7-11.8,38.3,0.3,54.4c7.8,10.3,17.6,15.5,30.6,14.1c0.5,0,1.1,0.1,1.6-0.7c-21.5-3.5-34.5-16.2-37-37.4
			C282.1,360.6,291.1,344.9,311,336z M315.1,335.6c0.3,0.2,0.4,0.4,0.5,0.4c0.7,0,1.3-0.1,2-0.2c9.9-1.2,19.2,0.1,26.9,7.4
			c6,5.9,11,12.7,12.8,20.9c3.8,17.3,1,33.4-10.5,47.4c-0.5,0.7-1.5,1.2-1.5,2.5c1.5-0.7,2.5-1.7,3.5-2.8c5.9-6.2,9.8-13.4,12-21.7
			c3-11.1,3.8-22.2-1.3-33.2c-7.1-15-21-23.7-37-22.6C319.9,333.9,317.4,334.3,315.1,335.6z"/>
		<path d="M418.7,358c-7.7,15.1-10.3,29.9,0.8,44.8c-3.8-1.3-6.6-3.9-7.9-7.8c-3.2-9.9-3.7-19.9,1.4-29.5
			C414.5,362.9,416.1,360.2,418.7,358z"/>
		<path d="M206.7,393.7c6.8-5.5,10.6-11.9,8.9-20.5c-1.5-7.5-1.6-15.7-9.8-20c1.1-1.6,2.4-1.3,3.5-1.1c2.6,0.5,4.8,2,6.3,4.3
			c2.3,3.4,3.9,7.1,4.4,11.3c0.5,5.7,1.3,11.4-0.8,17c-1.5,4.3-3.9,7.7-8.4,9.2C209.6,394.3,208.5,394.6,206.7,393.7z"/>
	</g>
</g>
<g>
	<g>
		<path fill="#C4BA98" stroke="#000000" stroke-width="0.5" stroke-miterlimit="10" d="M437.3,614.2v-11h8.6v1.9h-6.6v2.9h3.6v2
			h-3.6v3.4L437.3,614.2z"/>
		<path fill="#C4BA98" stroke="#000000" stroke-width="0.5" stroke-miterlimit="10" d="M448.2,605.8c0-1,0.1-1.7,0.4-2.1
			c0.3-0.4,0.8-0.5,1.7-0.5h6.3c0.8,0,1.4,0.2,1.7,0.5c0.3,0.4,0.4,1.1,0.4,2.1v5.8c0,1-0.1,1.7-0.4,2.1c-0.3,0.4-0.8,0.5-1.7,0.5
			h-6.3c-0.8,0-1.4-0.2-1.7-0.5s-0.4-1-0.4-2.1V605.8z M450.2,612.1h6.5v-7h-6.5V612.1z"/>
		<path fill="#C4BA98" stroke="#000000" stroke-width="0.5" stroke-miterlimit="10" d="M462.9,612.4v-9.3h7.3c0.7,0,1.2,0.2,1.5,0.5
			c0.3,0.3,0.5,0.9,0.5,1.6v2.6c0,0.7-0.2,1.3-0.5,1.6c-0.3,0.3-0.8,0.5-1.5,0.5h-1.1l3.9,4.2h-2.8l-3.4-4.2h-1.9v2L462.9,612.4z
			 M469.3,605.1h-4.5v3.1h4.5c0.3,0,0.6-0.1,0.7-0.2c0.1-0.1,0.2-0.4,0.2-0.7v-1.3c0-0.3-0.1-0.5-0.2-0.7
			C469.9,605.1,469.6,605.1,469.3,605.1z"/>
	</g>
	<g>
		<path fill="#C4BA98" stroke="#000000" stroke-width="0.5" stroke-miterlimit="10" d="M422.4,636.4c0.8-0.1,1.2,0.2,1.2,1v1.3h2.1
			c0.9,0,1.1,0.3,0.6,0.9h-2.7c0,1.4,0.1,2.1,0.3,2.1c0.4,0.1,0.7,0,1-0.1c0.9-0.2,1.4,0.1,1.3,1c-0.1,0.7-0.1,1.6-0.1,2.9
			c0.1,0.9-0.4,1.3-1.4,1c-1.2-0.4-2.3-0.4-3.6,0c-0.8,0.5-1.2,0.2-1.3-0.7s-0.3-2-0.6-3.2c0.1-0.8,0.6-1,1.6-0.7
			c0.8,0.1,1.2-0.1,1.2-0.6c0-1,0-2.1-0.1-3C421.5,636.9,421.8,636.3,422.4,636.4z M421,643.2c-0.1,1.2,0.1,1.8,0.6,1.9
			c2.2,0.3,3.2,0,3-1c0.2-1.3-0.7-1.9-2.7-1.6C421.3,642.5,421,642.8,421,643.2z M426.7,640c0.4,0,0.6,0,0.7-0.1
			c-0.1-1.1-0.1-2.1-0.1-3c-0.1-0.7,0.2-0.9,1-0.9c0.5,0,0.7,0.2,0.7,0.7c-0.1,0.9-0.1,1.9,0,3c3.1-0.5,4.7-0.5,4.6,0
			c0.2,0.3,0.1,0.4-0.1,0.4c-1.4,0.2-2.9,0.4-4.3,0.7c0.3,0.9,0.6,1.6,0.9,2.1c0.4-0.5,0.8-1,1.2-1.7c0.3-0.3,0.6-0.4,0.9-0.3
			c0.4,0.3,0.5,0.6,0.4,1c-0.6,0.8-1.1,1.4-1.6,1.9c1.1,1,2.8,1.5,5.1,1.4c0.2,0.1-0.1,0.6-0.9,1.4c-1,1-2.1,1.2-3.3,0.6
			c-0.5-0.4-1.2-1.1-2.3-2.1c-0.9,0.7-2,1.1-3,1.2c-0.5-0.1-0.6-0.3-0.3-0.6c0.9-0.3,1.8-0.9,2.6-1.7c-0.4-0.6-0.8-1.5-1.2-2.9
			c-0.5,0.1-0.9,0.2-1.3,0.4c-0.6,0.1-0.8-0.2-0.7-0.9C425.7,640.3,426.1,640.1,426.7,640z M431.3,636.7c0.3-0.7,0.7-0.9,1.2-0.6
			c0.5,0.3,0.6,0.7,0.4,1.2c-0.4,0.6-1,0.9-1.9,1c-0.4,0-0.5-0.1-0.4-0.4C430.9,637.4,431.1,637,431.3,636.7z"/>
		<path fill="#C4BA98" stroke="#000000" stroke-width="0.5" stroke-miterlimit="10" d="M442.6,640c0.5,0,0.8,0.1,1,0.4
			c-0.1,0.4-0.4,0.5-1,0.4c-0.6,0-1.2,0-1.7,0.1c0.2,0.3,0.1,0.6-0.3,0.9l-0.7,0.7c-0.3,0.4,0,0.6,0.7,0.7c0.6,0.1,1.1-0.1,1.4-0.6
			l-0.4-0.9c0.1-0.3,0.3-0.4,0.6-0.3c0.3,0.2,0.6,0.4,0.9,0.6c0.2,0.4,0.4,0.8,0.7,1.3c-0.1,0.2-0.2,0.3-0.3,0.3
			c-0.4,0.1-0.8-0.1-1.2-0.6c-0.6,1-1.2,1.4-1.9,1.2c-0.6-0.4-1.1-0.4-1.6-0.1c-0.2,0-0.4-0.1-0.6-0.4c-0.1-0.4,0.1-0.8,0.6-1.2
			c0.9-0.8,1.2-1.3,0.9-1.6c-0.4-0.1-0.9,0-1.7,0.3c-0.3,0.2-0.5,0.1-0.6-0.1c0.1-0.7,0.4-1,1-1.2L442.6,640L442.6,640z M442.6,638
			c0.3,0,0.5,0.1,0.6,0.4c0,0.3-0.1,0.4-0.3,0.4h-2.3c-0.7,0-1.3,0-1.9,0.1c-0.2-0.1-0.3-0.3-0.3-0.6c0.1-0.3,0.3-0.5,0.6-0.7
			C439.7,637.9,440.9,638,442.6,638z M446.4,642c-0.3-0.1-0.6-0.1-0.9,0c-0.3,0.2-0.6,0.3-0.9,0.4c-0.2,0-0.3,0-0.4-0.1
			c-0.2-1.4-0.4-2.7-0.6-3.9c-0.1-0.6,0.2-0.9,0.9-0.9c0.3,0.2,0.8,0.2,1.4,0.1c0.3-0.3,0.6-0.8,1-1.4c0.1-0.2,0.3-0.3,0.6-0.3
			c0.9,0.3,1.1,0.6,0.7,1c-0.3,0.3-0.5,0.5-0.7,0.7c0.7,0,1.5,0.1,2.6,0.3c0.3-0.1,0.5-0.2,0.7-0.3c0.3-0.1,0.5,0,0.7,0.1
			c0.4,0.3,0.5,0.7,0.3,1.3c-0.3,0.9-0.5,1.8-0.6,2.7l-0.4,0.3c0.4,0.3,0.4,0.5,0.1,0.7c-0.2,0.2-0.4,0.4-0.6,0.6
			c-0.2,0.1-0.1,0.2,0.1,0.4c0.4,0.1,0.7,0,1-0.1c-0.4-0.3-0.4-0.5-0.1-0.6c0.4,0,0.7,0,0.9,0.1c0.2,0.3,0.4,0.6,0.6,0.9
			c-0.1,0.1-0.2,0.2-0.4,0.3l-0.6-0.4c-0.2,0.6-0.5,0.8-1,0.7c-0.4-0.3-0.8-0.4-1.2-0.3c-0.3-0.2-0.4-0.4-0.3-0.7
			c0.2-0.2,0.4-0.4,0.6-0.7c0.1-0.2,0.2-0.5,0.4-0.9c-0.8-0.1-1.7-0.1-2.7-0.1c-0.7,2.2-2,3.8-3.9,4.7c-1.5,0.6-2.7,0.3-3.4-0.7
			c0-0.1,0.2-0.1,0.6-0.1C443.9,645.5,445.7,644.3,446.4,642z M446.8,638.4c-0.7,0-1.2,0.1-1.6,0.3c-0.2,0.6-0.1,0.9,0.3,0.9
			l1.6-0.1C447.2,638.9,447.1,638.6,446.8,638.4z M446.9,640.1c-0.5,0-1,0-1.7,0.1c0,0.7,0.1,1,0.4,1l1-0.1L446.9,640.1z
			 M447.9,642.7c0.1-0.4,0.3-0.6,0.6-0.6c0.2,0,0.3,0.1,0.4,0.3c-0.2,0.4-0.3,0.8-0.4,1.2c0,0.4,0,0.7,0.1,0.9
			c0.4,0.5,1.2,0.8,2.3,1c0.9,0.1,1.9,0,2.7-0.3c0.6-0.3,0.9-0.3,1.2-0.1c-0.1,0.6-0.4,1.3-1,2c-0.7,0.6-1.3,0.8-1.7,0.6
			c-1.6-0.3-3-0.9-4-2c-0.5-0.6-0.7-1.1-0.6-1.6C447.7,643.5,447.8,643.1,447.9,642.7z M450.1,641.4c0.2-0.4,0.2-0.7,0.1-1
			c-0.4-0.2-1.1-0.3-2.1-0.3c-0.1,0.4-0.1,0.8-0.1,1.2C448.7,641.3,449.4,641.4,450.1,641.4z M448.2,639.4l1.6,0.1
			c0.4,0.1,0.6-0.1,0.6-0.6c0-0.4-0.6-0.6-1.7-0.6C448.4,638.5,448.2,638.8,448.2,639.4z"/>
		<path fill="#C4BA98" stroke="#000000" stroke-width="0.5" stroke-miterlimit="10" d="M460.8,639.2c0.2-0.4,0.3-0.6,0.4-0.6
			c0.5-0.1,0.6,0.2,0.4,1c-0.3,0.9-0.7,1.8-1.3,2.7c-0.5,0.8-0.9,1.3-1.4,1.7c-0.9,0.9-2,0.8-3-0.1c-0.3-0.3-0.2-0.6,0.3-0.9
			C457.9,642.3,459.4,641,460.8,639.2z M464.1,636.4c0.9-0.1,1.4,0.4,1.3,1.6c-0.1,2.4,0,5.1,0.1,8c0,1.2-0.9,1.7-2.7,1.6
			c-0.9-0.1-2.1-0.6-3.3-1.6c-0.2-0.5-0.1-0.7,0.3-0.7c1.8,0.6,2.9,0.7,3.3,0.3c0.3-0.2,0.4-2.9,0.3-8
			C463.4,636.8,463.6,636.4,464.1,636.4z M466.4,639.7c-0.3-0.4-0.2-0.7,0.1-0.9c0.2-0.1,0.4,0,0.6,0.1c1.3,1.7,3.3,3.2,6,4.4
			c-0.3,0.5-0.6,0.8-0.9,1c-0.9,0.8-1.7,0.8-2.4,0C468.6,642.9,467.5,641.3,466.4,639.7z"/>
		<path fill="#C4BA98" stroke="#000000" stroke-width="0.5" stroke-miterlimit="10" d="M480.6,641.7c-0.3,0.9-0.6,1.7-0.9,2.1
			l1.9-0.3c-0.1-0.4-0.1-0.8-0.1-1.2c0.1-0.4,0.4-0.6,1-0.7c0.4,0,0.7,0.1,1,0.3c0.4,0.1,0.7,0.1,0.9,0v-4.7c0-0.6,0.2-0.9,0.6-1
			c0.9,0,1.4,0.3,1.4,1c-0.1,0.5-0.1,0.9-0.1,1.2c2,0.1,3.7,0.1,5,0.1c0,0.5-0.1,0.9-0.4,1.3c-0.4,0.4-0.8,0.5-1.2,0.3
			c-1.5-0.5-2.7-0.6-3.4-0.4c-0.2,0.8-0.2,1.5,0,2.3c0.7,0.1,1.2,0,1.6-0.1c1.2-0.4,1.9,0,1.9,1c-0.2,0.8-0.3,1.7-0.3,2.9
			c0.2,1.2-0.2,1.7-1.3,1.3c-1.3-0.2-2.8-0.2-4.3-0.1c-1.2,0.6-1.8,0.2-1.9-1c0-0.3,0-0.8-0.1-1.6c-1.9,0.9-4.2,1.5-6.7,2
			c-0.9,0.2-1.3-0.1-1.2-1c0-0.5,0.5-0.8,1.4-0.9c1-0.1,2.2-0.2,3.6-0.4c0.3-1,0.4-2.1,0.4-3c0-0.7,0.2-1,0.6-1
			C480.6,640.1,480.9,640.6,480.6,641.7z M479.4,637.2c-0.1,1.2,0,1.7,0.3,1.6l2,0.1c0.5,0.4,0.5,0.7,0.1,0.9
			c-0.2,0.1-0.5,0.1-1,0.1c-1.9-0.4-3.9-0.2-5.9,0.4c-0.4,0.1-0.6,0-0.6-0.4c0.2-0.9,0.6-1.2,1.2-1.2c0.8,0.2,1.3,0.2,1.7,0.1
			c0.3-0.1,0.4-0.7,0.3-1.7c0.1-0.4,0.3-0.6,0.6-0.6C478.7,636.6,479.2,636.8,479.4,637.2z M478,643.5c-0.2,0.3-0.4,0.3-0.7,0.1
			c-0.6-0.9-0.9-1.6-1-2.3c-0.1-0.7,0.1-1,0.7-1.2c0.5-0.1,0.7,0.1,0.7,0.6C477.8,641.8,477.9,642.7,478,643.5z M486,643
			c-1.3-0.1-2.2,0-2.6,0.3c-0.3,0.7-0.3,1.3,0,2c0.1,0.5,1.2,0.6,3.1,0.4c0.9,0,1.3-0.5,1.3-1.4C487.9,643.3,487.3,642.9,486,643z"
			/>
	</g>
	
		<linearGradient id="SVGID_1_" gradientUnits="userSpaceOnUse" x1="375.1213" y1="294.1519" x2="375.1213" y2="294.1519" gradientTransform="matrix(1.0929 0 0 -1.0929 0 955.5428)">
		<stop  offset="0" style="stop-color:#C4BA98"/>
		<stop  offset="1.474962e-002" style="stop-color:#CEC5A9"/>
		<stop  offset="4.332456e-002" style="stop-color:#DDD7C4"/>
		<stop  offset="7.615717e-002" style="stop-color:#EAE6DA"/>
		<stop  offset="0.1145" style="stop-color:#F3F1EB"/>
		<stop  offset="0.162" style="stop-color:#FAF9F6"/>
		<stop  offset="0.2285" style="stop-color:#FEFEFD"/>
		<stop  offset="0.4133" style="stop-color:#FFFFFF"/>
		<stop  offset="0.4696" style="stop-color:#DDDBD8"/>
		<stop  offset="0.5499" style="stop-color:#B2AFA6"/>
		<stop  offset="0.6258" style="stop-color:#908B7F"/>
		<stop  offset="0.6952" style="stop-color:#787263"/>
		<stop  offset="0.7558" style="stop-color:#696252"/>
		<stop  offset="0.801" style="stop-color:#645D4C"/>
		<stop  offset="0.8499" style="stop-color:#776F5B"/>
		<stop  offset="0.9484" style="stop-color:#A89F82"/>
		<stop  offset="1" style="stop-color:#C4BA98"/>
	</linearGradient>
	
		<linearGradient id="SVGID_2_" gradientUnits="userSpaceOnUse" x1="375.1213" y1="294.1519" x2="375.1213" y2="294.1519" gradientTransform="matrix(1.0929 0 0 -1.0929 0 955.5428)">
		<stop  offset="0" style="stop-color:#C4BA98"/>
		<stop  offset="1.389108e-002" style="stop-color:#C7BD9D"/>
		<stop  offset="0.1655" style="stop-color:#E5E1D2"/>
		<stop  offset="0.2794" style="stop-color:#F8F7F3"/>
		<stop  offset="0.3418" style="stop-color:#FFFFFF"/>
		<stop  offset="0.4046" style="stop-color:#E1E0DC"/>
		<stop  offset="0.5083" style="stop-color:#B5B1A9"/>
		<stop  offset="0.6058" style="stop-color:#928D81"/>
		<stop  offset="0.6943" style="stop-color:#797364"/>
		<stop  offset="0.7708" style="stop-color:#696352"/>
		<stop  offset="0.8265" style="stop-color:#645D4C"/>
		<stop  offset="0.8691" style="stop-color:#776F5B"/>
		<stop  offset="0.955" style="stop-color:#A89F82"/>
		<stop  offset="1" style="stop-color:#C4BA98"/>
	</linearGradient>
	<path fill="url(#SVGID_1_)" stroke="url(#SVGID_2_)" stroke-width="0.5" stroke-miterlimit="10" d="M410,634.1"/>
	
		<linearGradient id="SVGID_3_" gradientUnits="userSpaceOnUse" x1="382.8076" y1="299.972" x2="382.8076" y2="299.972" gradientTransform="matrix(1.0929 0 0 -1.0929 0 955.5428)">
		<stop  offset="0" style="stop-color:#C4BA98"/>
		<stop  offset="1.474962e-002" style="stop-color:#CEC5A9"/>
		<stop  offset="4.332456e-002" style="stop-color:#DDD7C4"/>
		<stop  offset="7.615717e-002" style="stop-color:#EAE6DA"/>
		<stop  offset="0.1145" style="stop-color:#F3F1EB"/>
		<stop  offset="0.162" style="stop-color:#FAF9F6"/>
		<stop  offset="0.2285" style="stop-color:#FEFEFD"/>
		<stop  offset="0.4133" style="stop-color:#FFFFFF"/>
		<stop  offset="0.4696" style="stop-color:#DDDBD8"/>
		<stop  offset="0.5499" style="stop-color:#B2AFA6"/>
		<stop  offset="0.6258" style="stop-color:#908B7F"/>
		<stop  offset="0.6952" style="stop-color:#787263"/>
		<stop  offset="0.7558" style="stop-color:#696252"/>
		<stop  offset="0.801" style="stop-color:#645D4C"/>
		<stop  offset="0.8499" style="stop-color:#776F5B"/>
		<stop  offset="0.9484" style="stop-color:#A89F82"/>
		<stop  offset="1" style="stop-color:#C4BA98"/>
	</linearGradient>
	
		<linearGradient id="SVGID_4_" gradientUnits="userSpaceOnUse" x1="382.8076" y1="299.972" x2="382.8076" y2="299.972" gradientTransform="matrix(1.0929 0 0 -1.0929 0 955.5428)">
		<stop  offset="0" style="stop-color:#C4BA98"/>
		<stop  offset="1.389108e-002" style="stop-color:#C7BD9D"/>
		<stop  offset="0.1655" style="stop-color:#E5E1D2"/>
		<stop  offset="0.2794" style="stop-color:#F8F7F3"/>
		<stop  offset="0.3418" style="stop-color:#FFFFFF"/>
		<stop  offset="0.4046" style="stop-color:#E1E0DC"/>
		<stop  offset="0.5083" style="stop-color:#B5B1A9"/>
		<stop  offset="0.6058" style="stop-color:#928D81"/>
		<stop  offset="0.6943" style="stop-color:#797364"/>
		<stop  offset="0.7708" style="stop-color:#696352"/>
		<stop  offset="0.8265" style="stop-color:#645D4C"/>
		<stop  offset="0.8691" style="stop-color:#776F5B"/>
		<stop  offset="0.955" style="stop-color:#A89F82"/>
		<stop  offset="1" style="stop-color:#C4BA98"/>
	</linearGradient>
	<path fill="url(#SVGID_3_)" stroke="url(#SVGID_4_)" stroke-width="0.5" stroke-miterlimit="10" d="M418.4,627.7"/>
	<g>
		<g>
			<path fill="#C4BA98" stroke="#000000" stroke-width="0.5" stroke-miterlimit="10" d="M414.6,620h-5.5v4.3h3v3h-3v5.3l-1.7,0.7
				v-16.2h7.2V620"/>
			<path fill="#C4BA98" stroke="#000000" stroke-width="0.5" stroke-miterlimit="10" d="M416.7,630.6v-0.8v-12.6h6.1
				c0.6,0,1,0.2,1.2,0.7c0.2,0.5,0.4,1.3,0.4,2.4v3.8c0,1.1-0.1,1.9-0.4,2.4c-0.2,0.5-0.7,0.8-1.2,0.8h-0.9l3.3,6.2h-2.4l-2.8-6.2
				h-1.6v2v0.9L416.7,630.6z M422,620h-3.7v4.6h3.7c0.3,0,0.5-0.1,0.6-0.3c0.1-0.2,0.2-0.5,0.2-1v-2c0-0.5-0.1-0.8-0.2-1
				C422.5,620.1,422.3,620,422,620z"/>
			<path fill="#C4BA98" stroke="#000000" stroke-width="0.5" stroke-miterlimit="10" d="M427.7,633.5v-16.4h1.7v16.4H427.7z"/>
			<path fill="#C4BA98" stroke="#000000" stroke-width="0.5" stroke-miterlimit="10" d="M432.9,633.5v-16.4h7.2v2.8h-5.6v3.7h3.3
				v2.8h-3.3v4.1h5.7v3.1L432.9,633.5L432.9,633.5z"/>
			<path fill="#C4BA98" stroke="#000000" stroke-width="0.5" stroke-miterlimit="10" d="M443.3,633.5v-16.4h1.1l5,9.7
				c0.2,0.3,0.3,0.6,0.4,0.9c0.1,0.3,0.2,0.6,0.4,0.9c0-0.9,0-1.6-0.1-2c0-0.4,0-0.7,0-0.9v-8.6h1.5v16.4h-1.1l-5.2-10.1
				c-0.1-0.3-0.2-0.5-0.3-0.7c-0.1-0.2-0.2-0.4-0.3-0.6c0,0.5,0,1,0,1.4c0,0.4,0,0.8,0,1.2v8.8H443.3L443.3,633.5z"/>
			<path fill="#C4BA98" stroke="#000000" stroke-width="0.5" stroke-miterlimit="10" d="M455.2,633.5v-16.4h4.6c1.3,0,2.3,0.7,3,2.1
				c0.7,1.4,1,3.4,1,6c0,1.5-0.1,2.9-0.4,4.1c-0.3,1.2-0.7,2.2-1.2,2.9c-0.3,0.4-0.7,0.8-1.2,1c-0.5,0.2-1,0.3-1.8,0.3L455.2,633.5
				L455.2,633.5z M456.9,630.5h2.1c1.1,0,1.9-0.4,2.4-1.2c0.5-0.8,0.7-2.2,0.7-4c0-1.7-0.2-2.9-0.6-3.8c-0.4-0.9-1-1.3-1.7-1.3h-2.9
				L456.9,630.5L456.9,630.5z"/>
			<path fill="#C4BA98" stroke="#000000" stroke-width="0.5" stroke-miterlimit="10" d="M473,620h-4.6v3.5h4.4
				c0.7,0,1.2,0.3,1.4,0.8c0.2,0.5,0.4,1.6,0.4,3v2.3c0,1.5-0.1,2.5-0.4,3c-0.2,0.5-0.7,0.8-1.4,0.8h-4.4c-0.7,0-1.2-0.3-1.4-0.8
				c-0.2-0.5-0.4-1.6-0.4-3v-0.4l1.5-0.7v1.9h5v-3.7h-4.4c-0.7,0-1.2-0.3-1.4-0.8c-0.2-0.5-0.4-1.6-0.4-3V621c0-1.5,0.1-2.5,0.4-3
				c0.2-0.5,0.7-0.8,1.4-0.8h4c0.7,0,1.1,0.3,1.4,0.8c0.2,0.5,0.4,1.5,0.4,2.8v0.3l-1.5,0.8V620L473,620z"/>
			<path fill="#C4BA98" stroke="#000000" stroke-width="0.5" stroke-miterlimit="10" d="M484.7,631.1v-4.6h-5.1v6.5l-1.7,0.6v-16.4
				h1.7v6.4h5.1v-6.4h1.7v13.3L484.7,631.1z"/>
			<path fill="#C4BA98" stroke="#000000" stroke-width="0.5" stroke-miterlimit="10" d="M490,633.5v-16.4h1.7v16.4H490z"/>
			<path fill="#C4BA98" stroke="#000000" stroke-width="0.5" stroke-miterlimit="10" d="M495.3,633.5v-16.4h6.1c0.6,0,1,0.2,1.2,0.7
				c0.2,0.5,0.4,1.3,0.4,2.4v3.7c0,1.1-0.1,1.9-0.4,2.4c-0.2,0.5-0.7,0.7-1.2,0.7h-4.4v5.7L495.3,633.5z M500.6,620h-3.7v4.3h3.7
				c0.3,0,0.5-0.1,0.6-0.3c0.1-0.2,0.2-0.5,0.2-1v-1.8c0-0.5-0.1-0.8-0.2-1C501.1,620.1,500.9,620,500.6,620z"/>
		</g>
	</g>
</g>
</svg>
