<?xml version="1.0" encoding="utf-8"?>
<!-- Generator: Adobe Illustrator 21.0.0, SVG Export Plug-In . SVG Version: 6.00 Build 0)  -->
<svg version="1.1" id="图层_1" xmlns="http://www.w3.org/2000/svg" xmlns:xlink="http://www.w3.org/1999/xlink" x="0px" y="0px"
	 viewBox="0 0 560 560" style="enable-background:new 0 0 560 560;" xml:space="preserve">
	 <style type="text/css">
	.st0{fill:#FFFFFF;}
</style>
<g>
	<g>
		<path class="st0" d="M205.5,342.7c-5.6,0.3-11.6,0.7-17.7,1.1c0,0.1,0,0.2,0,0.3c2.5,0.7,5,1.4,7.8,2.2c-3.9,0.9-7.7,1.7-11.6,2.6
			c0,0.2,0,0.4,0.1,0.6c1.9,0,3.8,0,5.7,0c0,0.2,0,0.4,0.1,0.5c-2.8,0.9-5.6,1.8-8.7,2.8c1,0.3,1.7,0.4,2.7,0.7
			c-0.4,0.5-0.7,0.8-1.1,1.2c0.3,0.1,0.5,0.2,0.7,0.2c2.3-0.4,4.6-0.7,6.8-1.3c2.5-0.7,4.3,1,4.9,3.6c1.4,6.6,2.8,13.4,9.3,17.2
			c8.7,5,17.8,9.3,28.1,10c7.3,0.5,14.5,1,21.8,1.3c4.5,0.2,8.4-1.5,12.1-3.9c7.2-4.7,14.5-9.2,21.8-13.7c0.2-0.1,0.5-0.1,1-0.2
			c0.2,1.3,0.7,2.6,0.7,3.9c0.2,6.5,0.3,13,0.4,19.5c0.1,12.3,0.1,24.6,0.2,36.9c0,1.8,0.4,3.7,0.4,5.5c0.1,4.1-1.7,5.7-5.9,6
			c-4.1,0.2-8.3-0.3-12.5-0.6c-1.2-0.1-2.4-0.6-3.5-0.6c-3.5,0-5.4-2.2-6.9-4.8c-1.6-2.7-3.1-5.5-4.6-8.3c-0.8-1.5-3.5-1.5-4.4,0.3
			c-1.1,2.1-2.1,4.4-2.8,6.6c-0.3,0.9,0.1,2.4,0.7,3c1.9,1.7,4.1,3,6.1,4.6c1,0.7,2.1,1.5,2.8,2.5c4.4,6.1,8.9,12.2,14.9,17
			c0.8,0.7,1.3,1.9,1.7,3c0.7,2,1.1,4.2,2,6.2c0.7,1.6,0.1,2.1-1.2,2.9c-3.6,2.3-7.7,2.3-11.6,2.6c-6.6,0.5-13.3,0.7-20,0.9
			c-2.9,0.1-5.8-0.2-8.6-0.5c-1.6-0.2-2,0.1-1.8,1.7c0.5,3.9,1.1,4.4,4.7,3.1c4.2-1.5,8.5-1.3,12.8-1.2c5.5,0.2,11,0.2,16.3,1
			c4.2,0.6,8.2,2.1,12.2,3.5c4.3,1.5,8.5,3.4,12.7,5.2c3.1,1.4,3.6,2.7,1.8,5.6c-3.1,5.3-8.1,7.7-14,8.1c-5.9,0.4-11.6-1-17.3-2.7
			c-0.9-0.3-1.9-0.4-3.1-0.4c3.2,1.9,2.1,5.1,2.5,7.7c0.6,3.9,2.3,7,5.8,8.9c2.5,1.3,5,2.5,7.5,3.7c3.8,1.9,4.2,3.8,3.9,7.9
			c-0.5,5.9-3.8,8.9-8.9,11.2c-4.8,2.1-9.3,1-13.9,0.2c-2.9-0.5-5.7-1.3-8.8-1.4c0.5,0.5,1.1,1,1.6,1.5c-0.1,0.2-0.2,0.3-0.3,0.5
			c-2.5-1.7-5.1-3.3-7.4-5.3c-4-3.4-7.9-6.8-11.5-10.6c-4.1-4.3-8-8.7-11.6-13.4c-7.8-10.4-15.7-20.7-23-31.5
			c-11.8-17.5-20.7-36.5-27.6-56.4c-4.4-12.5-9.1-24.9-11.8-37.9c-2-9.6-3.9-19.3-5.7-28.9c-0.1-0.6,0.4-1.3,0.6-2
			c-0.4-0.2-1.2-0.5-1.9-1c-1.8-1.2-2.7-2.7-2-5.1c1.6-5.5,3-11.1,4.7-16.7c-0.6,12.1,1,23.7,7.8,34c-1.4-3.3-3-6.4-4.1-9.8
			c-1.1-3.6-2.1-7.2-2.5-10.9c-0.4-3.6-0.1-7.3,0.5-11c0.3,3.9,0.6,7.8,0.9,11.7c0.3,0,0.5,0,0.8,0c0.1-2.3,0.1-4.6,0.5-6.8
			c1.4-7.3,4.9-13.7,8.6-20c4-7.1,8.1-14.2,10.6-22.6c-10.8-2.8-21.5-5.6-32.8-8.6c1.7,6.2,3.4,12.1,4.9,18
			c1.7,6.6,3.3,13.2,4.9,19.8c0.2,0.7-0.1,1.6-0.3,2.3c-1.8,6.2-3.5,12.5-5.3,18.7c-0.1,0.5-0.4,1-0.9,2.1c-1.1-3.2-2.3-5.9-2.9-8.7
			c-2.6-11.3-6.6-21.9-14.9-30.5c-2.5-2.6-3.5-5.9-3.1-9.7c0.6-5.7,0.7-11.4,1-17.1c0.4-5.4,4.1-8.5,8.3-11.4
			c0.6,3.4,1.2,6.4,1.8,9.5c0.3,1.6,1.3,2.4,3,2.9c7.8,2,15.5,4.6,23.4,6.3c6,1.3,11.5,3.9,17.2,5.8c5.4,1.8,11,2.8,16.6,3.8
			c9.7,1.6,19.5,2.7,29.2,4.4c8.1,1.4,15.2,5.6,20,11.7c5.7,7.2,7.2,11.2,1.3,19.3c-1,1.3-1.7,1.4-3.1,0.8
			c-10.5-4.2-20.9-8.6-31.6-12.2c-5.7-1.9-11.8-3-17.9-3.5c-6-0.4-11.8,1.4-16,6.3c13.2-1,26,1,38.8,4c2.5,0.6,3.7,2.3,4.5,4.1
			c0.3,0.8-0.6,2.8-1.4,3.3c-1.5,0.8-3.3,1.1-5,1.3c-8,0.9-16.1,1.4-24.2,2.5c-4.1,0.6-8.1,2.2-12.2,3.4c0.1,0.3,0.1,0.5,0.2,0.8
			c0.9-0.2,1.7-0.5,2.6-0.6c4-0.7,8-1.8,12-1.9C198.7,341.2,202.3,342.2,205.5,342.7z M250,420.4c-1.6-4.4-3.3-9.1-5.1-13.7
			c-0.2-0.4-0.8-0.6-1.3-0.9c-0.3,0.5-0.7,1-0.8,1.5c-0.2,0.8,0,1.6-0.2,2.4c-2.2,12.6-6.3,24.3-15.5,33.7c-0.4,0.4-0.3,1.2-0.5,1.8
			c0.6,0.1,1.3,0.4,1.7,0.2c3.2-1.7,7-3,9.5-5.4c3.7-3.6,6.6-8,9.5-12.3C248.6,425.7,249,423.2,250,420.4z M230.9,483.5
			c1.3-3.6,1.5-7.1,0.8-10.6c-0.4-1.9-1.5-2.3-3.2-1.5c-2.8,1.3-3.5,2.7-2.6,5.6C226.8,479.6,227.3,482.5,230.9,483.5z"/>
		<path class="st0" d="M406.3,227.9c-6.4,1.7-12.8,3.4-19.2,5.1c0,0.2,0,0.5,0.1,0.7c15.6-1.4,31.2-2.9,47-4.3c0,0.5,0,1.2,0,2.1
			c-4.3,0.6-8.5,1.4-12.8,1.8c-10.6,1-21.1,1.9-31.7,2.7c-4.1,0.3-8.2,0.1-12.3,0.2c-13.6,0.4-27.1,0.8-41.4,1.3
			c7.5,9.2,11.9,19,13.1,30.5c1.2,11.8-0.8,22.4-7.1,32.8c1.3-0.3,2.2-0.4,3-0.6c9-1.9,18.1-2.1,27.3-1.1c5.7,0.6,11.5,1,17.2,1.2
			c2,0,4.1-0.9,5.9-1.8c9.5-4.7,19.1-9.2,29.3-12.1c3.9-1.1,5.9-4.2,8-7.3c-0.9,4.1-3.1,7.3-7,9.1c-6.1,2.8-12.3,5.5-18.4,8.3
			c-3,1.4-6,2.8-8.9,4.2c-3.8,1.7-7.6,2.2-11.7,1.3c-1.6-0.4-3.4,0-5.1,0c-8.4,0-16.9-0.1-25.3,0c-4.9,0.1-9.8,0.5-14.6,1
			c-0.6,0.1-1.3,0.8-1.8,1.3c-9.6,10.8-20.7,19.1-34.9,22.9c-7.5,2-15,0.9-22.4-0.7c-12-2.6-21.9-8.8-29.9-18.2
			c-5.2-6.2-9.5-12.7-10.4-21c-3.5-5.2-3-11.2-2.8-16.9c0.4-11.6,4.5-22,10.9-31.6c0.5-0.8,1.1-1.6,1.6-2.4c0-0.1,0-0.2,0.1-0.6
			c-0.9-0.1-1.8-0.2-2.7-0.2c-9,0-18,0.2-27,0c-9.6-0.2-19.1-0.8-28.7-1.2c-14.6-0.7-29.2-1.2-43.5-4.7c-4.2-1-8.4-2-12.6-3
			c-1.8-0.4-2.4-1.4-1.8-3.1c6.9,1.5,13.8,3.2,20.7,4.5c7,1.4,14.1,2.3,21.2,2c0.2-0.3,0.5-0.5,0.7-0.8c-0.5-0.2-1-0.3-1.5-0.5
			c-0.4-0.2-0.8-0.5-1.7-1c12.7,0.2,24.4-2.6,36.6-6.7c-9.4-0.9-18.1-1.7-26.7-2.4c0-0.4,0.1-0.7,0.1-1.1c3.4,0.2,6.8,0.4,10.2,0.7
			c8.1,0.6,16.2,1.1,24.2-0.8c3.3-0.8,6.3-2.4,9.5-3.7c-0.1-0.2-0.1-0.4-0.2-0.7c-6.9,0.6-13.7,1.2-20.6,1.8c0-0.3-0.1-0.5-0.1-0.8
			c11.6-2.7,24.1-1.4,35.4-8c-3.2-0.3-6-0.5-8.7-0.8c0-0.1,0-0.2,0-0.3c7.2-1,14.5-2,21.7-3c0-0.3,0-0.7,0-1
			c-3.5-0.9-7.1-1.8-10.6-2.7c0-0.2-0.1-0.3-0.1-0.5c1.7,0,3.5-0.3,5.1,0c4.5,0.6,9,1.5,13.5,2.2c1,0.2,2.2-0.2,4-0.3
			c-4.3-3.1-8.1-5.8-11.8-8.4c0.1-0.2,0.2-0.4,0.3-0.7c1.1,0.4,2.4,0.8,3.4,1.4c3.2,1.9,6.3,4.2,9.7,5.8c2.6,1.2,5.5,1.7,8.3,2.5
			c0.1-0.3,0.2-0.5,0.3-0.8c-3.4-3.5-6.8-7-10.2-10.6c0.1-0.1,0.1-0.2,0.2-0.3c0.9,0.5,1.8,1,2.6,1.7c3,2.5,5.9,5.3,9,7.6
			c1.7,1.3,3.9,1.9,5.9,2.9c0.2-0.2,0.4-0.4,0.6-0.6c-1.1-3.9-2.3-7.8-3.4-11.8c0.1,0,0.2-0.1,0.3-0.1c2.1,4.1,4.1,8.1,6.2,12.2
			c0.3-0.1,0.6-0.2,0.8-0.2c0.4-3.4,0.7-6.9,1.1-10.3c0.4-3.4,1-6.7,1.5-10.1c0.3,0,0.6,0.1,0.9,0.1c-0.7,6.8-1.4,13.6-2.1,20.9
			c6-3.2,9.7-8.3,14.2-12.7c0.2,0.2,0.4,0.3,0.7,0.5c-2.9,3.9-5.8,7.8-8.8,11.7c0.1,0.2,0.1,0.4,0.2,0.6c6.7-1.7,13.3-3.5,20-5.2
			c0.1,0.2,0.2,0.4,0.2,0.6c-3.2,1.3-6.4,2.6-9.4,3.9c10,3.8,20.5,5.8,31.4,4.5c0,0.2,0,0.5,0,0.7c-3.9,0.5-7.9,1-12.4,1.5
			c3.3,1.9,6.2,3.5,9.1,5.1c1.6,0.9,3.4,1.6,4.8,2.7c6.5,5,14.2,5.9,21.9,7.1c2.6,0.4,5.2,0.7,7.8,1.5c-2.5,0-5,0.1-7.5,0
			c-2.5-0.1-5.1-0.5-7.9-0.8c7.9,3.7,16.2,5.5,24.5,7C389.4,230.9,397.7,227.2,406.3,227.9z M294.8,218.2
			c-12.8,0.2-23.7,3.5-33.1,10.9c-3.6,2.8-7.6,5.3-10.2,9.2c-7.9,12.1-10.5,25.6-9.2,39.8c0.8,8.4,3.2,16.4,8.9,23
			c4.4,5.1,8.8,10.2,13.7,14.8c3,2.8,6.7,5.2,10.5,6.5c14.6,5.3,28.9,3.3,42.6-3.7c3.8-2,7.7-4.3,10.7-7.2
			c4.7-4.7,8.5-10.2,11.2-16.4c4.9-10.9,7.3-22.3,5.4-34.2c-1.9-11.7-7.7-21.4-16.6-29.3C318.8,222.8,307.1,218.6,294.8,218.2z"/>
		<path class="st0" d="M134.5,171.1c8.8-0.3,17.3-0.6,26.4-0.9c-6.8-1-13.1-1.9-19.4-2.8c0-0.2,0-0.3,0-0.5c2.7,0.2,5.4,0.3,8,0.6
			c7.6,0.9,15.1,1.9,22.7,2.9c0.7,0.1,1.3,0.8,2,1.3c-0.7,0.5-1.4,1.3-2.2,1.3c-3.5,0.2-6.9,0.1-10.4,0.1c-3.6,0-7.2,0-10.6,0
			c12.1,1.9,24.5,3.4,36.3,7.6c-6-1.1-11.9-2.2-17.9-3.3c-11.2-1.9-22.4-3-33.8-2.5c-0.7,0-1.9,0.8-1.9,1.3
			c-0.7,9-1.6,18.1-1.8,27.1c-0.1,6.4,0.9,12.8,1.1,19.2c0.1,5.5-0.6,11.1-0.3,16.6c0.5,8.6,1.6,17.3,2.4,25.9
			c0.1,0.7-0.4,1.7-0.9,2.3c-2.9,3.2-6,6.2-8.6,9.6c-1,1.3-1.5,3.3-1.5,4.9c0.3,6.4,0.5,12.8,1.4,19.2c0.4,2.9,1.8,6.1,3.7,8.4
			c6.9,8.2,10.4,17.8,13.1,27.8c0.7,2.6,1.7,5.2,2.8,7.7c1.2,2.6,1.4,5.2,0.8,7.9c-2.1,8.9-3.6,17.8-2.6,26.9c0.2,2.1,0.8,4.1,1.4,6
			c0-6.1,0-12.1,0-18.2c0.6,8,1.3,16,4.8,23.5c-1.6,0.2-3.1-2.6-4.6,0.4c-0.2-0.1-0.4-0.2-0.6-0.4c-0.5-1.9-1.1-3.8-1.5-5.8
			c-2.6-11.2-1.3-22.2,2.2-33c0.7-2.1,0.2-3.8-0.9-5.7c-1.3-2.3-2.5-4.7-3.2-7.2c-3.2-11.7-7.7-22.5-16-31.7
			c-3.8-4.2-3.5-9.7-1.9-15c0.2-0.8,0-1.8-0.2-2.7c-0.8-4.6-1.4-9.1,0.6-13.5c0.8-1.7,1.8-3.5,3.1-4.8c4-3.9,5.6-8,4.5-14
			c-1.2-6.8-0.5-13.9-0.6-20.9c-0.1-3.1-0.2-6.3-0.2-9.4c0-1.5,0.6-3,0.5-4.4c-0.5-8.9-1.6-17.7-1.6-26.6c0-6.4,1.2-12.9,2.3-19.2
			c0.9-5.8,1.8-11.6,3.7-17.1c4.3-12.7,8.2-25.7,15.4-37.2c9.1-14.6,18.3-29.1,31.6-40.5c2.1-1.8,4.6-3.1,6.9-4.7
			c3.9-2.8,7.8-5.6,11.8-8.3c0.7-0.5,1.7-0.5,2.6-0.8c0.3,0.2,0.6,0.4,0.8,0.6c0.1-2.3,0.1-4.5,0.4-6.8c0.3-2.4,0.6-4.8,1.3-7.2
			c2.5-8.4,7.3-15.6,13.5-21.4c6.6-6.2,14.3-11.3,21.6-16.8c1.5-1.1,3.4-1.8,5.2-2.4c6.2-2.2,12.4-4.3,18.7-6.4
			c2.8-1,5.6-2.2,8.5-2.7c2.2-0.4,4.5,0,6.7,0.2c11.5,1.1,22.6,3.5,33.5,7.5c17.2,6.3,30.6,16.9,40.2,32.4c2.5,4.1,3.4,8.6,2.1,13.4
			c-0.4,1.5-0.2,2.3,1.2,3.1c3.5,2.2,6.9,4.7,10.5,6.9c5.6,3.4,10.5,7.6,15,12.4c8.2,8.9,17.6,16.8,24.3,27
			c5.8,8.9,12.6,17.2,16.4,27.2c6.4,16.7,12,33.8,13.6,51.8c0.9,10.7,1.1,21.5,1.7,32.3c0.1,2.2,0.8,4.4,1.3,6.5
			c0.2,0.9,0.5,1.7,0.5,2.6c-0.1,6.5,0.4,13.1-0.7,19.5c-0.8,4.6-0.8,9.2-1.2,13.8c-0.3,3.6-1,7.1-1.4,10.7
			c-0.1,0.7,0.2,1.9,0.8,2.3c6.2,3.6,6.8,9.4,5.9,15.6c-1.2,8-2.6,16-4,24c-0.8,4.5-3,8.4-5.8,12c-1.9,2.5-3.8,4.9-5.6,7.5
			c-0.4,0.7-0.6,1.8-0.4,2.6c2.3,7.7,5.9,14.7,9.9,21.6c0.4,0.6,0.3,1.5,0.5,2.3c-0.8-0.1-1.9,0.2-2.4-0.2c-2.3-2.1-4.8-4-6.6-6.5
			c-2.4-3.5-4.3-7.5-6.3-11.2c-2.6,2.6-2.6,3.1-1.2,6.4c0.9,2.2,1.9,4.4,2.5,6.8c1.7,7.4,4.8,14.3,8,21.1c2.4,5.2,4.8,10.5,6.9,15.9
			c4,10.3,10.9,18.7,18.1,26.8c0.3,0.4,0.7,0.8,0.9,1.4c-3.7-2.3-7.2-4.9-9.8-8.5c-8.3-11.5-14.3-24.1-19.4-37.3
			c-3.5-9.1-7-18.3-10.4-27.5c-0.3-0.7-0.4-1.8,0-2.4c1.3-2.4,2.8-4.6,4.4-7.2c3.5,8.5,7.4,16.2,14.1,22.1c0.2-0.1,0.5-0.3,0.7-0.4
			c-0.7-1.3-1.4-2.6-2.2-3.8c-4.1-6.2-7.2-12.8-9.1-20c-0.2-0.9-0.1-2.1,0.4-2.8c2.2-3.2,4.6-6.4,7-9.4c3.3-4.2,4.5-9,5.3-14.2
			c0.9-5.9,1.9-11.8,3.1-17.6c1-5,0.8-9.6-2.8-13.4c-1.3-1.4-3-2.3-4.3-3.3c0.6-6.9,1.2-14,1.7-21c0.5-6.6,0.9-13.3,1.2-20
			c0-1.4-0.8-2.8-1.3-4.1c-0.2-0.5-0.5-1-0.5-1.6c-0.1-3.7,0-7.3-0.1-11c-0.1-5.5-0.1-11.1-0.4-16.6c-1.8-39.9-14.7-75.5-41.8-105.4
			c-9.3-10.3-19-20.1-30.8-27.6C353,62,341.6,58.5,329.8,56.4c-15-2.7-30.3-3.8-45.6-3.3c-17.3,0.5-34.4,2.8-51,8
			c-8.5,2.7-16.9,5.3-25.3,8.3c-3,1.1-5.6,3-8.4,4.5c-14.5,7.8-26.5,18.4-35.3,32.3c-5.6,8.7-11.4,17.4-16.3,26.6
			c-5.6,10.5-9.9,21.7-12.6,33.4C135,167.8,134.8,169.6,134.5,171.1z M353.5,61.8c2.1-3.2,2.3-6.8,1-10.5c-1.7-5-4.6-9.3-8.4-13.1
			c-7.3-7.3-15.3-13.7-24.4-18.7c-1.1-0.6-2.1-1.8-3.3-2.2c-7.2-2.3-14.6-4.3-21.7-6.8c-10.1-3.6-20.4-3.1-30.7-1.4
			c-2.5,0.4-4.9,1.3-7.3,2c0,0.2,0.1,0.4,0.1,0.7c2.8,1.3,5.5,2.6,8.2,3.8c0.1-1.4,0.2-2.7,0.4-4c1.7,0.4,3.3,0.7,4.6,1
			c0.3-0.7,0.6-2.1,1.3-2.4c0.6-0.3,1.8,0.5,2.7,1c0.7,0.4,1.1,1.2,1.8,1.6c1.8,1.1,1.7,2.6,1.2,4.5c-1.4-1.7-2.7-3.1-3.9-4.6
			c-0.4,1-0.3,1.7-0.3,2.4c-0.1,0.8-0.4,1.6-0.7,2.4c-0.7-0.3-1.5-0.5-2-1c-1-1.1-1.7-2.3-2.6-3.4c-0.3,0.2-0.6,0.5-0.9,0.7
			c0.3,1.4,0.7,2.7,0.9,3.5c-3.9,2-6.2-1.2-9.2-2.1c-0.1,0.2-0.3,0.4-0.4,0.6c1.7,1.4,3.4,2.7,5.1,4.1c-0.3,0.3-0.5,0.7-0.8,1
			c-3.1-2.1-6.2-4.1-10-6.5c1.5-0.4,2.2-0.6,2.9-0.8c0-0.2,0-0.4,0-0.7c-0.8,0-1.7-0.2-2.3,0c-10.6,4.4-20.4,10.3-29.1,17.7
			c-5.1,4.4-9.3,9.9-13.4,15.4c-2.2,2.9-3.5,6.6-3,10.8c2.1-0.4,4.1-0.8,6-1c2.1-0.2,4.2-0.4,6.2-0.4c1.9,0,3.8,0.3,5.7,0.5
			c-1.2,0.6-2.4,0.8-3.5,1c-4.2,0.9-8.5,1.7-12.7,2.6c-1.5,0.3-2.1,1-1.3,2.5c7.9-2.9,11.3-3.5,14-2.4c-1.3,0.4-2.2,0.8-3.1,1.1
			c-2.5,0.8-5,1.5-7.5,2.4c-0.6,0.2-1.1,0.9-1.6,1.4C258.6,46.7,305.7,45.7,353.5,61.8z"/>
		<path class="st0" d="M428.5,444.2c-1.9,0.9-2.2-0.8-2.6-1.9c-2.5-7.6-5-15.2-7.5-22.8c-0.1-0.2-0.1-0.4-0.2-0.6c-0.2,0-0.4,0-0.6,0.1
			c0.5,4.9,0.9,9.8,1.5,14.6c0.9,7.2,4,13.6,6.5,20.4c1.9,5.2,4,10.1,7.1,14.6c0.2,0.3,0.3,0.6,0.3,0.9c0,0.8-0.2,1.6-0.3,2.4
			c-0.7-0.2-1.7-0.1-2.2-0.5c-2.6-2.8-5.7-5.3-7.3-8.5c-6.2-12.6-11.7-25.5-13.2-39.7c-1.1-9.9-2.5-19.7-3.7-29.6
			c0.1-0.1-0.1,0-0.1,0.1c-2.6,8.3-5.4,16.6-7.7,25.1c-2.7,10-6.2,19.6-11,28.7c-2.1,3.9-3.5,8.3-5.4,12.3c-2.9,5.9-5.6,11.9-9,17.5
			c-5.5,9-11.4,17.7-17.2,26.5c-1.7,2.5-3.3,5.1-6.3,6.4c-1.2,0.5-2,2-3,3.1c-7.9,8.5-15.6,17.1-23.7,25.3c-3.9,3.9-8.5,7.1-13,10.2
			c-1.7,1.1-4.2,1.1-6.2,1.7c-2.5,0.8-4.9,2.1-7.5,2.5c-6.7,0.9-13.3,3.3-20,1.7c-4-0.9-8-2.4-11.7-4.1
			c-17.1-7.5-30.9-19.4-43.5-32.9c-3.9-4.2-7.2-9-10.8-13.6c-14.3-18.3-25.6-38.4-36.3-59c-5.7-10.9-8.6-22.6-12.6-34
			c-5.6-15.9-9.9-32.2-12.6-48.9c0-0.2-0.1-0.5-0.2-0.9c-2.3,10.2,0.2,19.9,2.3,29.5c-4.4-13-5.1-26.3-2.2-39.8
			c1.5,0.8,2.1,1.8,2.2,3.7c0.5,11.6,2.5,23,5.6,34.3c6.5,23.7,14.4,46.9,26,68.6c9.7,18.2,20.3,35.8,33.9,51.4
			c8.7,10,16.8,20.6,27.7,28.4c7,5,14.5,9.3,22.1,13.1c7.9,3.9,16.7,3.1,25.1,1.8c16.6-2.5,29.3-11.3,39.2-24.8
			c5.1-6.9,11.4-12.9,16.9-19.4c9-10.5,17.7-21.4,24.2-33.5c12.7-23.4,23.1-47.8,30-73.6c2.7-10.1,6.3-20,7.4-30.5
			c0.3-2.6,0.6-5.2,1.5-7.7c0,1.3,0,2.5,0,3.8c-0.4,10-1.1,20.1-1.1,30.1c0.1,15,2.1,29.8,6.8,44c3.1,9.4,8,18.1,12.2,27.1
			c0.6,1.2,1.6,2.3,2.6,3.3c-7.8-13.3-11.5-27.9-13.8-42.9c-1.4-9.4-1.9-19-2.6-28.5c-0.3-4.8-0.1-9.6-0.1-12.7
			C416.8,405.1,418.2,425.7,428.5,444.2L428.5,444.2z"/>
		<path class="st0" d="M385.7,295.9c-5.5-2.5-8.3-7.2-9.7-12.7c-3.1-12.1-1.1-23.2,7.8-32.3c7.7-7.8,18.1-6.2,23.5,3.3
			c3.4,6.1,4.4,12.6,3.3,19.5c-1.1,7.5-3.5,14.3-9.4,19.4c-3.6,3.1-8.1,4-12.8,3.8c-0.7,0-1.4-0.8-2.1-1.2c0.5,0.1,1,0.2,2.1,0.4
			c-0.9-0.9-1.3-1.5-1.8-1.9c-2.4-2-3.7-4.6-4.4-7.6c-2.4-10.5-2-20.7,3.7-30.2c0.5-0.9,0.8-1.9,1.2-2.8c-0.8,0.1-1.2,0.4-1.5,0.7
			c-5.8,7.3-8.7,15.4-7.7,24.8c0.7,6.3,1.7,12.5,7.6,16.4C385.7,295.5,385.7,295.7,385.7,295.9z"/>
		<path class="st0" d="M168,264.1c0.6-6.4,1.8-13.1,7.7-17.9c4.1-3.3,9.1-3.6,13.6-0.9c3.4,2,6,4.9,7.6,8.5c4.1,9.1,5.2,18.4,0.5,27.7
			c-1.9,3.7-4.6,6.6-8.7,7.7c-5.1,1.4-9.4-0.6-12.8-4.1C170.2,279.5,168.3,272.3,168,264.1z M185.5,286.7c0.1,0.3,0.3,0.7,0.4,1
			c0.8,0.1,1.7,0.3,2.5,0.1c4.6-1.1,7.3-4.2,8.9-8.6c1.7-4.7,1.5-9.4,1.1-14.2c-0.4-4.8-1.5-9.2-4.5-13c-1.4-1.7-3.5-3-5.5-4
			c-0.9-0.5-2.4-0.1-3.6-0.1c0.2,1.1,0.3,1.5,0.6,1.7c4,2.5,6.1,6.2,6.9,10.7c0.7,3.9,2.1,7.7,1.9,11.6c-0.2,5.4-2.2,10.3-7,13.6
			C186.7,286,186.1,286.3,185.5,286.7z"/>
		<path class="st0" d="M360.9,425c-0.9-3.2-2-6.3-2.8-9.5c-1.3-5.7-2.5-11.4-3.6-17.1c-0.3-1.6-0.4-3.3-0.4-5c0-4.3,0.5-5.3,4.7-5.3
			c4.6,0,9.2,0.9,13.7,1.7c1.9,0.3,3,2,3,3.9c-0.1,2.3-0.2,4.7-0.9,6.9c-2.7,8.9-7.7,16.7-12.7,24.4
			C361.5,424.9,361.2,424.9,360.9,425z"/>
		<path class="st0" d="M280.4,79.1c0.6-4.6,1.3-9.1,1.9-13.9c0.1,0,0.6-0.1,0.7-0.1c0.7,4.5,1.3,8.9,2,13.2c0.1,0,0.2,0,0.3-0.1
			c0.6-5.4,1.1-10.9,1.7-16.3c0.3,0,0.5,0,0.8,0c1.5,3.7,1.7,7.7,2.3,11.7c0.6,4,1.6,7.9,2.5,11.9c0.2,0,0.4,0,0.7-0.1
			c0.2-3.5,0.4-6.9,0.6-10.4c0.1-2.9,0.1-5.8,0.5-8.6c0.1-1,1-1.8,1.6-2.8c0.3,0.1,0.6,0.2,0.9,0.2c0.9,5.9,1.8,11.9,2.8,18
			c0.7-4.5,1.3-9,2-13.5c0.1-0.4,0-0.9,0.2-1.2c0.6-0.8,1.3-1.4,1.9-2.1c0.6,0.7,1.5,1.3,1.6,2.1c0.6,3.5,1.1,7.1,1.5,10.7
			c0.4,3.4,0.6,6.9,0.8,10.3c0,0.5-0.1,1-0.2,1.6c-0.3,0-0.6,0.1-0.8,0.1c-0.4-1.7-0.9-3.4-1.3-5.1c-0.4-2-0.7-3.9-1-5.9
			c-0.3-1.9-0.6-3.8-1-5.9c-1.5,5.4-2.9,10.6-4.6,16.4c-2.4-2.4-1.9-4.9-2.5-7.1c-0.3,2.4-0.5,4.7-1,7.1c-0.2,0.8-0.8,1.9-1.5,2.1
			c-0.6,0.2-1.5-0.7-2-1c0,6.5,0,13.3,0,20.1c-0.1,0.1-0.2,0.1-0.3,0.2c-0.3-0.7-0.9-1.4-0.9-2.1c-0.5-4.9-1-9.9-1.5-14.8
			c-0.3-3.4-0.5-6.8-1.2-10.3c-0.1,0.3-0.1,0.6-0.3,0.8c-0.5,0.7-1.1,1.3-1.6,1.9c-0.7-0.6-1.7-1.1-1.9-1.9c-0.7-2.6-1-5.3-1.6-8.3
			c-0.7,4.5-1.3,8.7-2.2,12.9c-0.2,1-1.2,1.8-1.8,2.7c-0.6-0.9-1.6-1.9-1.6-2.8c-0.2-7.2-0.3-14.4,1.1-21.5c0.1-0.6,1-1.1,1.6-1.7
			c0.3,0.7,1,1.4,0.9,2.1c-0.2,3.8-0.5,7.7-0.8,11.5C279.9,79.1,280.2,79.1,280.4,79.1z"/>
		<path class="st0" d="M217,345.9c-3.8,6.2-2.5,11.5,0.9,15.3c2.3,2.6,6.5,2.9,9.7,1.1c4.4-2.4,5.6-6.7,3.7-13.9c6.7,1.6,12.2,4.8,16.7,10.3
			c-0.8,0.3-1.5,0.5-2.2,0.7c-5.7,1.8-11.3,4-17.2,5.2c-8.3,1.8-16.7,1.3-24.4-2.4c-3.3-1.6-6.6-4.1-6.7-8.6c0-0.9,0.5-2.1,1.1-2.7
			c3.5-3.5,8.3-3.9,12.8-4.7C213.1,345.9,214.9,346,217,345.9z"/>
		<path class="st0" d="M428.5,444.2c0.4,0.1,0.7,0.3,1.1,0.4c-7-13.6-9.8-28.4-11.8-43.3c-1.5-11-2.8-22.1-4.2-33.2c-0.2-1.5,0-3,0.2-4.5
			c2.8,20.6,13.3,37.8,24.8,54.5c1.6,2.3,3.7,4.3,5.8,6.2c-2.8-4.1-5.6-8.3-8.3-12.4c-0.4-0.6-0.5-1.3-0.7-1.9c0,0,0,0,0,0
			c3.6,4.8,7.2,9.5,10.8,14.4c0.3,0.4,0.2,1,0.2,1.5c-0.6,0-1.3,0.2-1.7-0.1c-2.1-1.6-4.3-3.2-6-5.1c-6.7-7.3-12.1-15.6-16.4-24.5
			c-0.3-0.6-0.7-1.2-1.3-1.7c0.5,4.6,1.1,9.2,1.5,13.8c0.9,10.2,2.1,20.4,5.9,30.1c1.1,2.9,2.4,5.6,3.6,8.5c0.2,0.5,0.1,1.2,0.2,2.3
			C429.6,447.9,429.1,446,428.5,444.2C428.5,444.2,428.5,444.2,428.5,444.2z"/>
		<path class="st0" d="M238.4,107.3c-0.7-5.3-1.5-10.6-2.2-15.9c-0.1-0.9-0.4-2-0.2-2.9c0.2-0.7,0.9-1.3,1.4-1.9c0.4,0.6,1,1.2,1.1,1.8
			c0.9,6.8,2,13.6,2.6,20.5c0.6,7.3,1.9,14.4,4.9,21.1c0.2,0.5,0.3,1,0.4,1.6c-0.2,0.1-0.5,0.2-0.7,0.3c-4.5-11.5-9-23-13.7-35
			c0.6,3.9,1.1,7.5,1.7,11c-0.2,0-0.5,0.1-0.7,0.1c-0.9-3.9-1.8-7.7-2.7-11.6c-1.7-7.5-3.6-15-5.2-22.5c-0.3-1.2,0-3.6,0.5-3.7
			c2.2-0.6,2.2,1.6,2.5,2.9c2.8,9.9,5.5,19.9,8.2,29.8c0.4,1.5,1,3,1.6,4.5C238.2,107.5,238.3,107.4,238.4,107.3z"/>
		<path class="st0" d="M259.7,90.9c-0.3-3.1-0.6-6.1-0.8-9.2c-0.2-2.4-0.3-4.8-0.3-7.2c0-0.6,0.7-1.2,1.1-1.9c0.5,0.5,1.3,0.9,1.5,1.6
			c1.4,4.9,2.7,9.9,4.4,14.8c0.3-3.1,0.5-6.2,0.9-9.3c0.4-3.3,0.9-6.7,1.5-10c0.1-0.7,0.4-1.4,0.8-2c0.4-0.5,1.1-0.7,1.6-1.1
			c0.3,0.6,0.9,1.1,0.9,1.7c0.1,6.9,0,13.8-0.5,20.8c-0.4-3.8-0.8-7.6-1.1-11.4c-0.1,0-0.2,0-0.4-0.1c-0.9,5.1-1.8,10.2-2.6,15.3
			c-0.3,0-0.6,0-0.9,0c-1.3-3.5-2.5-7-3.8-10.5c-0.1,0-0.2,0.1-0.2,0.1c0.4,4.4,0.8,8.8,1.2,13.2c0.1,0.7,0.3,1.5,0.1,2.1
			c-0.2,0.7-0.7,1.7-1.1,1.8c-0.5,0.1-1.4-0.5-1.9-1c-0.5-0.6-0.7-1.4-1-2.2c-2.6-7.7-5.1-15.5-7.7-23.2c-0.2-0.7-0.3-1.5,0-2.4
			c1.3,3.4,2.6,6.7,3.9,10.1c1.3,3.4,2.6,6.8,3.9,10.2C259.3,90.9,259.5,90.9,259.7,90.9z"/>
		<path class="st0" d="M202.8,104c-3.1-3.4-6.3-6.8-9.4-10.2c0.2-0.2,0.4-0.4,0.5-0.6c4.9,4.7,9.8,9.3,15,14.3c-3.6-6.7-7-13.1-10.6-20
			c3.1,1.5,16.6,24.4,17,28.6c-2.5-1.9-3.4-4.4-5.1-6.6c-1.1,1.9-2.5,1.5-3.9,0.6c-2.4-1.5-4.8-3.1-7.4-4.4c3.6,4.3,7.1,8.6,10.7,13
			c-0.2,0.1-0.3,0.3-0.5,0.4c-0.5-0.4-0.9-0.7-1.4-1.1c-5.2-5.5-10.4-10.9-15.6-16.4c-0.4-0.4-0.9-0.8-1.1-1.3
			c-0.2-0.7-0.1-1.5-0.2-2.2c0.7,0,1.7-0.4,2.2-0.1c2.1,1.2,4,2.7,6,4c1.1,0.8,2.2,1.5,3.4,2.3C202.6,104.2,202.7,104.1,202.8,104z"
			/>
		<path class="st0" d="M155.3,162.1c5.9,0.7,12.2,0.5,17.9,3.1c0,0.3-0.1,0.7-0.1,1c-11.4-0.7-22.9-1.4-34.3-2.2c0-0.3,0-0.7-0.1-1
			c1.8-0.3,3.6-0.6,5.4-0.9c-1.4-0.2-2.8-0.4-4.3-0.6c0-0.3,0-0.5,0-0.8c6.1-0.5,12.2-0.9,18.8-1.5c-4.7-0.7-8.9-1.3-13.1-2
			c0-0.2,0-0.4,0-0.6c0.7,0,1.3-0.2,2-0.1c6.2,0.3,12.3,0.6,18.5,1c1.3,0.1,3.6-0.2,3.6,1.9c-0.1,1.9-2.2,1.7-3.6,1.9
			C162.3,161.7,158.7,161.9,155.3,162.1z"/>
		<path class="st0" d="M153.1,199.9c6.8,1.2,13.4,0.2,20,2.7c-3.5,2.2-33.2-0.4-37.6-3.3c3.6-0.5,6.7-1,9.9-1.4c3.1-0.4,6.2-0.7,9.4-1.4
			c-4.6-0.5-9.3-1-13.9-1.5c0-0.1,0-0.2,0-0.3c1.4-0.1,2.8-0.4,4.2-0.4c6.3,0.2,12.7,0.5,19,0.9c0.8,0.1,1.6,1,2.4,1.5
			c-0.8,0.6-1.5,1.7-2.3,1.8C160.7,199.1,157.2,199.4,153.1,199.9z"/>
		<path class="st0" d="M155.3,185.3c8.6,2.1,17.4,2.7,26.2,6.1c-8.1-1.1-15.5-2.3-22.9-3.2c-4-0.5-8-0.7-12-1.3c-0.8-0.1-1.6-1-2.3-1.5
			c0.7-0.6,1.3-1.7,2.1-1.8c2.5-0.5,5.1-0.8,7.6-1c1.6-0.1,3.2,0,4.7,0c0-0.3,0-0.5,0-0.8c-4.2-0.6-8.5-1.2-12.7-1.8
			c0-0.1,0-0.3,0-0.4c3.3,0.2,6.7,0.3,10,0.7c3.8,0.4,7.7,0.9,11.5,1.4c0.8,0.1,1.5,0.9,2.3,1.4c-0.8,0.5-1.6,1.4-2.4,1.5
			c-3.2,0.3-6.4,0.4-9.6,0.6C157,185.2,156.1,185.3,155.3,185.3z"/>
		<path class="st0" d="M188.5,111.8c-4.4-3.9-8.9-7.9-13.3-11.8c0.1-0.1,0.2-0.3,0.3-0.4c0.5,0.3,1,0.6,1.4,0.9c4.6,3.6,9.2,7.3,13.8,10.9
			c0.6,0.4,1.2,0.9,1.5,1.5c0.4,0.7,0.5,1.6,0.7,2.3c-0.8,0.2-1.7,0.7-2.4,0.5c-2-0.5-3.9-1.3-6-1.8c5.4,4.1,10.8,8.2,16.2,12.4
			c-0.1,0.2-0.3,0.4-0.4,0.6c-0.7-0.4-1.3-0.8-2-1.2c-8.2-5.5-16.5-10.9-24.7-16.4c-0.3-0.2-0.8-0.4-1-0.7c-0.4-0.7-0.6-1.5-0.9-2.2
			c0.8-0.1,1.7-0.6,2.4-0.3c3.9,1.6,7.6,3.3,11.5,5c0.8,0.3,1.6,0.7,2.4,1C188.3,112,188.4,111.9,188.5,111.8z"/>
		<path class="st0" d="M309,82.1c-0.3,1.3-0.6,2.4-0.8,3.4c-0.3-6.1,0.1-12,2-17.7c0.3,0,0.7,0.1,1,0.1c-0.2,2.2-0.3,4.5-0.5,6.7
			c0.1,0,0.2,0,0.3,0.1c0.5-2.1,0.9-4.2,1.7-6.1c0.4-1,1.4-1.7,2.1-2.6c0.7,0.9,1.8,1.7,2.1,2.7c0.7,2.4,1.1,5,1.7,7.8
			c1.1-1.4,2-2.7,3-3.7c1.6-1.7,3.1-1.6,3.9,0.6c1,2.8,1.5,5.8,2.2,8.8c-0.2,0.1-0.4,0.1-0.6,0.2c-1-3-1.9-6-2.9-9
			c-0.2,0-0.4,0-0.7,0.1c-1,1.6-1.8,3.4-3,4.9c-0.5,0.7-1.6,1.7-2.4,1.6c-0.7-0.1-1.6-1.2-1.9-2.1c-0.6-1.8-0.9-3.8-1.8-5.7
			c-0.9,2.9-1.7,5.7-2.6,8.6C311.1,82.4,311,82.4,309,82.1z"/>
		<path class="st0" d="M154.7,149.2c8.4,0.6,16.7,1.6,24.8,4c0,0.3-0.1,0.7-0.1,1c-9.3,0-18.7,0-28.2,0c1.1-1.4,1.1-1.4,9.2-2.5
			c-1.9-0.6-3.9-1.1-5.8-1.7C154.6,149.7,154.7,149.5,154.7,149.2z"/>
		<path class="st0" d="M339.9,77.9c-3.1,0.8-5.6,1.4-8.1,2c-0.1-0.3-0.2-0.6-0.2-0.8c2.1-1,4.2-2.2,6.4-2.9c2.9-1,4.7,0.6,4.6,3.6
			c0,0.9-0.2,1.9-0.1,3c1.8-4,3.6-8,5.4-12c0.2,0.1,0.4,0.2,0.7,0.3c-1.8,4.8-3.5,9.7-5.3,14.5c-0.9,2.4-1.8,4.8-3,7.1
			c-0.3,0.7-1.4,1-2.1,1.4c-0.3-0.8-0.8-1.7-0.7-2.5c0.5-3,1.3-5.9,1.9-8.9C339.7,81.2,339.7,79.8,339.9,77.9z"/>
		<path class="st0" d="M275.2,100.2c-2.5-0.6-2.5-2.3-2.5-3.7c0.1-5.2,0.1-10.4,0.5-15.6c0.4-4.8,1.2-9.5,1.8-14.3c0.1-0.7,0.3-1.4,0.5-2.2
			c0.3,0,0.5,0.1,0.8,0.1C276,76.3,275.6,88.1,275.2,100.2z"/>
		<path class="st0" d="M225.1,115.2c-5.6-11.8-9.5-24.2-12.1-37.1c5.3,11.9,9.4,24.2,13.3,36.7C225.9,114.9,225.5,115.1,225.1,115.2z"/>
		<path class="st0" d="M435.3,409.9c-0.5-0.6-1.1-1.1-1.4-1.8c-5.7-10.2-9.8-21-12.9-32.2c-0.4-1.5-0.4-3.1-0.4-4.7c1.6,3.8,3,7.7,4.8,11.5
			c1.8,3.8,3.7,7.5,5.9,11c2.1,3.6,4.6,7.1,6.4,10.9c-3.6-5-7.3-10-10.9-15c-0.1,0-0.2,0-0.2,0c0.6,1.5,1.2,3,1.8,4.4
			C430.6,399.4,432.9,404.7,435.3,409.9C435.2,409.9,435.3,409.9,435.3,409.9z"/>
		<path class="st0" d="M161.1,124.9c12.7,4.9,25,10.7,36.5,17.8c-0.2,0.5-0.5,0.9-0.7,1.4c-12.1-6.1-24.2-12.2-36.3-18.4
			C160.8,125.5,161,125.2,161.1,124.9z"/>
		<path class="st0" d="M352.3,70.4c-0.8,4.5-1.7,9.1-2.5,13.6c0.1,0.1,0.2,0.1,0.4,0.2c2.4-2.8,4.8-5.6,7.2-8.3c0.2,0.1,0.3,0.2,0.5,0.4
			c-0.1,0.4-0.2,0.9-0.5,1.2c-2.4,3.7-4.7,7.5-7.2,11.1c-0.6,0.8-2,1.1-3.1,1.6c-0.2-1.1-0.9-2.3-0.6-3.2c1.3-5.1,2.9-10.2,4.4-15.2
			c0.2-0.5,0.5-1,0.8-1.5C351.8,70.2,352.1,70.3,352.3,70.4z"/>
		<path class="st0" d="M138.3,207.2c2.5-0.6,5.1-1.1,7.7-1.7c-2-0.4-3.9-0.8-5.7-1.1c0-0.2,0-0.3,0-0.5c2.3,0,4.6-0.1,6.9,0
			c3.1,0.2,6.2,0.5,9.3,0.9c0.9,0.1,1.8,1,2.6,1.6c-0.8,0.5-1.6,1.5-2.4,1.5c-6.1,0.1-12.1,0.1-18.2,0.1
			C138.5,207.8,138.4,207.5,138.3,207.2z"/>
		<path class="st0" d="M219.1,76.2c3.2,1.5,10.6,23,9.5,27.3C224.5,94.7,221.4,85.6,219.1,76.2z"/>
		<path class="st0" d="M193.7,131.1c-9.6-4.4-18.5-9.7-27.2-15.6C170.7,115.5,192.6,127.9,193.7,131.1z"/>
		<path class="st0" d="M168.8,111.6c9.1,3.6,17.5,8.4,25.4,13.8c-0.1,0.3-0.2,0.6-0.3,1c-0.7,0-1.5,0.1-2-0.2c-7.5-4.5-14.9-9-22.3-13.6
			C169.2,112.5,169.1,112,168.8,111.6z"/>
		<path class="st0" d="M150.4,142c14.1,2.6,27.8,5,41.8,7.5C188.7,151.3,155.8,145.3,150.4,142z"/>
		<path class="st0" d="M194.7,147c-12.7-2.9-24.8-7.4-37.4-12.3C161.1,134.6,192.8,144.9,194.7,147z"/>
		<path class="st0" d="M203.7,89.1c4.6,3.7,16.5,21.5,16.2,24.5C213.5,106.1,208.6,97.6,203.7,89.1z"/>
		<path class="st0" d="M191.4,133.9c-9-3.5-17.6-7.9-25.8-13C170.7,121.3,190.6,131.2,191.4,133.9z"/>
		<path class="st0" d="M140.9,210.4c11-0.9,21.9-1.8,32.9-2.7c-1.9,2.5-26.6,4.6-32.8,3.4C141,210.8,141,210.6,140.9,210.4z"/>
		<path class="st0" d="M248.5,92.6c-0.3-0.5-0.7-1-0.9-1.5c-2.2-6.3-4.4-12.7-6.5-19c-0.2-0.6,0.1-1.4,0.2-2.2c0.7,0.4,1.7,0.7,1.9,1.3
			c2.7,6.8,4.8,13.8,5.6,21.2C248.8,92.4,248.7,92.4,248.5,92.6z"/>
		<path class="st0" d="M183.9,97.3c6.2,5.4,11.6,10.9,16.2,17.2C196.8,114.3,184.5,101.2,183.9,97.3z"/>
		<path class="st0" d="M252.8,92.8c-0.7-1.1-1.1-1.7-1.4-2.3c-2.1-5.6-4.3-11.2-6.3-16.8c-0.2-0.7,0.2-1.7,0.4-2.5c0.7,0.6,1.8,1,2,1.7
			c1.8,5.9,3.5,11.9,5.3,17.9C252.9,91.3,252.8,91.8,252.8,92.8z"/>
		<path class="st0" d="M144.5,219.6c10-2.1,20.1-3.6,30.4-3.4C164.9,218.5,154.7,219.4,144.5,219.6z"/>
		<path class="st0" d="M241.8,90.8c-1.9-6.9-3.9-13.8-5.8-20.7c0.3-0.2,0.6-0.3,0.9-0.5c0.5,0.5,1.3,0.9,1.4,1.4c1.5,6.3,3,12.7,4.4,19
			c0,0.2-0.1,0.4-0.2,0.6C242.3,90.7,242.1,90.7,241.8,90.8z"/>
		<path class="st0" d="M216.3,350.1c0-1.8,2.1-4,3.7-4c1.9,0,3.5,2,3.4,4.4c0,1.7-1.7,3.1-3.6,3.2C218.2,353.8,216.2,351.8,216.3,350.1z"/>
		<path class="st0" d="M171.5,194c-8.4,0.4-16.5-1.1-24.6-2.9C155.1,191,163.4,191.4,171.5,194z"/>
		<path class="st0" d="M440.8,407.8c2.7,2.7,5.6,5.2,8.2,8c3.5,3.7,7.6,6.3,12.3,8.2c0.5,0.2,0.9,1,1.3,1.5c-0.6,0.1-1.4,0.5-1.8,0.3
			c-2.4-1.2-4.8-2.5-7.1-4C448.3,418.1,444.6,412.9,440.8,407.8z"/>
		<path class="st0" d="M409.2,166.8c0.8-0.6,1.2-1.1,1.7-1.2c4.1-0.6,8.2-1.2,12.3-1.7c0.4-0.1,0.9,0.4,1.4,0.7c-0.3,0.4-0.6,1.1-0.9,1.1
			c-4.3,0.6-8.5,1.2-12.8,1.7C410.5,167.4,410.1,167.1,409.2,166.8z"/>
		<path class="st0" d="M149.1,292.2c3.1,2.6,6.1,5.1,9.3,7.8c-0.7,0.2-1.3,0.4-2.6,0.7c1.3,0.8,2.4,1.5,3.4,2.1
			C154.6,303.6,150.6,298.1,149.1,292.2z"/>
		<path class="st0" d="M159.7,294c-1.1,1.1-2.8,1.5-0.5,2.6c-2.9,0.5-9.7-4.3-10.9-7.8C152.2,290.6,155.8,292.2,159.7,294z"/>
		<path class="st0" d="M374,87.4c-2.5,4-5.8,7.1-9.9,10C364,94.4,370.5,87.8,374,87.4z"/>
		<path class="st0" d="M357.7,92.6c-1.5-3.3,4.5-10.4,8.3-10.2C363,86.1,360.3,89.4,357.7,92.6z"/>
		<path class="st0" d="M423.4,175.3c-3.5,1.5-6.8,1.2-10.1,0.7c-0.4-0.1-0.9-0.5-1-0.9c-0.1-0.3,0.3-0.9,0.6-1.1
			C414.7,172.7,421.4,173.4,423.4,175.3z"/>
		<path class="st0" d="M395.3,116.4c-2,2.7-4.8,4-7.9,4.8c-0.3,0.1-0.9-0.3-0.9-0.5c-0.1-0.4,0-1,0.3-1.2C389.3,117.6,392,116.3,395.3,116.4z"/>
		<path class="st0" d="M388.4,105.7c-0.1,1.8-3.6,5.2-5.2,5c-1.2-0.2-1.8-1-1.2-2.3C382.8,106.8,386.4,105.3,388.4,105.7z"/>
		<path class="st0" d="M413,300.5c0.1,0,0.2,0,0.2,0c-0.2,1.4,0,3-0.6,4.2c-0.8,1.5-2.3,2.5-3.5,3.8c-0.1,0.1-0.4-0.1-1.2-0.4
			c1-2,1.9-3.9,2.8-5.8C411.5,301.7,412.2,301.1,413,300.5z"/>
		<path class="st0" d="M409.1,152c-0.9-1-1.9-1.7-1.8-2.2c0.4-2.3,2.6-2,4.2-2.3c0.6-0.1,1.3,0.8,2,1.2C412.2,149.7,410.9,150.8,409.1,152z"/>
		<path class="st0" d="M423.7,201.3c2.4,0,5,2,4.8,3.3c-0.1,0.5-1.2,1.2-1.4,1.1c-1.6-0.9-3-2.1-4.5-3.1C423,202,423.5,201.5,423.7,201.3z"/>
		<path class="st0" d="M153.2,302.3c1.7,1.5,3.4,3,4.7,4.2c-0.5,0.8-0.8,1.4-1.2,2.1C153.7,307.8,153.4,305.2,153.2,302.3z"/>
		<path class="st0" d="M412.3,308.2c-1.3,2.5-3.2,4.5-5.6,5.9c-0.3-0.3-0.5-0.5-0.8-0.8c1.9-1.9,3.9-3.9,5.8-5.8
			C411.9,307.7,412.1,307.9,412.3,308.2z"/>
		<path class="st0" d="M417.9,190.7c-1-0.9-1.7-1.5-2.4-2c0.8-0.5,1.5-1.5,2.3-1.5c0.8,0,1.6,0.9,2.4,1.4C419.5,189.1,418.8,189.7,417.9,190.7z"
			/>
		<path class="st0" d="M372,102.1c1.2-2.2,3.2-2.8,5.9-2.1C376.9,102,374.7,102.8,372,102.1z"/>
		<path class="st0" d="M413,300.5c-0.8,0.6-1.6,1.2-2.3,1.7c-0.6,0.1-1.2,0.2-1.8,0.3c-0.1-0.2-0.3-0.4-0.4-0.7c1.8-1.5,3.6-3,5.4-4.5
			c0.2,0.1,0.3,0.2,0.5,0.4C413.9,298.6,413.5,299.6,413,300.5z"/>
		<path class="st0" d="M405.3,316.5c1.8-1.4,3.5-2.8,5.7-4.4c-0.4,2.8-2.8,4.9-5.2,5.1C405.7,316.9,405.5,316.7,405.3,316.5z"/>
		<path class="st0" d="M408.2,142.7c-1.3,0.8-2.1,1.6-2.8,1.6c-0.6,0-1.3-0.8-1.9-1.2c0.7-0.6,1.3-1.5,2.1-1.8
			C406,141.1,406.8,141.9,408.2,142.7z"/>
		<path class="st0" d="M426.6,218c-0.8-0.8-1.5-1.3-2.1-1.9c0.7-0.4,1.4-1.1,2-1.1c0.9,0.1,1.6,0.8,2.5,1.3C428.3,216.8,427.6,217.3,426.6,218z"
			/>
		<path class="st0" d="M402.7,136.1c0.7,0.9,1.2,1.5,1.7,2.1c-0.7,0.4-1.3,1.3-2,1.2c-0.6,0-1.2-0.9-1.8-1.4C401.2,137.5,401.7,137,402.7,136.1z
			"/>
		<path class="st0" d="M154.4,308.9c1.8,1.5,3.6,3,5.4,4.4c-0.2,0.2-0.3,0.4-0.5,0.6c-2.6-0.5-4-2.5-5.4-4.4
			C154.1,309.4,154.3,309.2,154.4,308.9z"/>
		<path class="st0" d="M422.6,195.8c-0.8-0.9-1.3-1.4-1.8-1.9c0.6-0.5,1.2-1.3,2-1.5c0.4-0.1,1.5,0.9,1.4,1.3
			C424.1,194.3,423.3,194.9,422.6,195.8z"/>
		<path class="st0" d="M158.2,318.3c-1.4-1.8-2.7-3.6-4.1-5.3c0.3-0.2,0.5-0.4,0.8-0.7c1.4,1.7,2.8,3.5,4.2,5.2
			C158.8,317.7,158.5,318,158.2,318.3z"/>
		<path class="st0" d="M398.3,129.2c-0.9,0.3-1.7,0.8-2.6,1c-0.3,0-0.8-0.7-1.1-1.1c0.7-0.5,1.3-1.1,2.1-1.4c0.4-0.1,1,0.5,1.6,0.7
			C398.3,128.7,398.3,129,398.3,129.2z"/>
		<path class="st0" d="M294.1,311.5c-15.7,2.5-26.1-5.2-33.2-17.9c-9.3-16.7-6.7-32.7,3.8-47.9c4.5-6.5,10.9-10.5,18.3-13
			c0.3-0.1,0.6-0.2,0.9-0.2c0.1,0,0.3,0.1,0.6,0.2c-17.4,7.2-25.3,20.9-25.6,38.9c-0.2,10,3.7,18.9,10.2,26.6
			C275.7,306,284.5,309.4,294.1,311.5z"/>
		<path class="st0" d="M288.8,232.5c4.8-2.5,9.9-2.8,14.9-1.8c15.8,3.1,25.4,13.4,29,28.4c3.7,15.2-0.5,29.4-9.8,41.9c-1.6,2.1-3.5,3.9-5.3,5.8
			c-0.2-0.1-0.3-0.2-0.5-0.4c0.2-0.3,0.3-0.7,0.6-1c7.6-8.6,11.3-18.8,12.2-30.2c1.2-15-3.9-27.2-15-37.1c-6.3-5.6-14-6.7-22.1-6.1
			C291.5,232.2,290.2,232.4,288.8,232.5z"/>
		<path class="st0" d="M226.5,51c-2.9-1.1-5.7-2.3-8.6-3.4c-0.7-0.3-1.4-0.3-2-0.7c-0.5-0.3-0.8-1-1.3-1.5c0.6-0.3,1.2-0.9,1.7-0.9
			c2.4,0.3,4.7,0.8,7.1,1.2c0.5,0.1,1,0.2,1.7-0.1c-1.8-0.7-3.6-1.3-5.3-2.1c-0.6-0.3-1-1-1.6-1.5c0.7-0.2,1.5-0.7,2.2-0.6
			c1.9,0.3,3.9,0.9,5.9,0.9c-0.9-0.4-1.9-0.6-2.8-1.1c-0.6-0.4-1-1-1.5-1.6c0.7-0.3,1.3-0.5,2-0.8l-0.1-0.1c2.9,0.6,5.8,1.3,8.8,1.9
			c0,0.2-0.1,0.3-0.1,0.5c-0.9-0.1-1.8-0.3-2.7-0.4c0,0.1-0.1,0.2-0.1,0.3c1.7,0.7,3.5,1.3,5.2,2c0.7,0.3,1.5,0.6,2.1,1
			c0.4,0.3,0.4,0.9,0.7,1.4c-0.5,0.1-1,0.4-1.5,0.3c-2.8-0.5-5.6-1.1-8.7-1.8c1.8,1.6,3.5,3,5.1,4.4c-0.1,0.2-0.3,0.4-0.4,0.6
			c-2.8-0.7-5.7-1.5-8.5-2.2c0,0.1-0.1,0.2-0.1,0.3c2.6,1.5,5.3,3,7.9,4.5c-0.1,0.2-0.2,0.5-0.4,0.7c-0.9-0.2-1.7-0.4-2.6-0.6
			C227.9,51.5,227.2,51.3,226.5,51z"/>
		<path class="st0" d="M224.1,38.9c-0.5-0.3-1-0.6-1.8-1.1c2.6-2.1,5.4-0.4,8.2-1.1c-1.3-0.4-2.3-0.6-3.3-0.9c0-0.1,0-0.3,0.1-0.4
			c1.6,0.1,3.2,0.2,4.8,0.3c0,0,0-0.1-0.1-0.1c-0.8-0.8-1.6-1.6-2.3-2.3c1.2,0,2.5-0.4,3.5,0c3.7,1.3,7.3,2.8,10.8,4.4
			c0.7,0.3,1.1,1.5,1.7,2.2c-0.9,0.1-1.8,0.5-2.6,0.3c-1.6-0.3-3.2-0.8-4.9-1c1.7,0.9,3.4,1.7,5.6,2.8
			C236.6,40.8,230.3,39.8,224.1,38.9C224,38.8,224.1,38.9,224.1,38.9z"/>
		<path class="st0" d="M244.5,22.3c-0.3-2.1,0-3.1,2.1-2.3c1.7,0.7,3.6,1.1,5.3,1.9c-1.1-0.2-2.2-0.3-3.2-0.5c0.2,1,0.4,1.9,0.6,2.8
			c-0.7,0.1-1.5,0.2-2.3,0.3c0.3,0.9,0.5,1.9,0.9,3.2c-2-0.2-4-0.4-6.6-0.7c2.8,1.9,5.1,3.4,7.4,5c-0.1,0.2-0.2,0.3-0.3,0.5
			c-2.3-1-4.6-2.2-7.1-3c-2.4-0.8-4.9-1.2-8.1-2C237.3,25.7,239.1,20.7,244.5,22.3z"/>
		<path class="st0" d="M260.4,21.5c-4.3-0.8-8.5-1.6-12.8-2.3c0-0.4-0.1-0.8-0.1-1.2c1.6-0.6,3.2-1.8,4.7-1.6c3.4,0.4,6,2.4,8.5,4.5
			C260.6,21,260.5,21.3,260.4,21.5z"/>
		<path class="st0" d="M226.5,51c0.7,0.3,1.4,0.6,2.2,0.9c-0.6,0.3-1.2,0.9-1.7,0.8c-4.3-0.3-8.6-0.7-12.9-1.2c-0.4,0-0.8-0.5-1.2-0.7
			c0.4-0.4,0.8-1.2,1.1-1.3c2.4,0,4.8-0.1,7.2,0.2C222.9,49.9,224.7,50.5,226.5,51z"/>
		<path class="st0" d="M243.8,33.7c-4.9-1-9.2-1.9-14.3-3c1-0.8,1.4-1.3,2-1.5C233.7,28.7,241.5,31.4,243.8,33.7z"/>
		<path class="st0" d="M222,53.5c-2,0.3-3.6,0.5-5.2,0.7c-0.9,0.1-1.9,0.3-2.8,0.3c-0.5,0-1.1-0.2-1.6-0.4c0.3-0.5,0.4-1.2,0.8-1.6
			C214.4,51.7,220.3,52.2,222,53.5z"/>
		<path class="st0" d="M285.7,15.9c-2.7-1-3.9-3.1-5.4-4.9c-0.1-0.1,0.6-1.1,0.9-1C282.8,10.1,285.5,13.5,285.7,15.9z"/>
		<path class="st0" d="M293.9,14.9c-2.7,1-5.2-1.2-5.1-4.7C290.7,12,292.2,13.4,293.9,14.9z"/>
	</g>
</g>
</svg>
