<?xml version="1.0" encoding="utf-8"?>
<!-- Generator: Adobe Illustrator 18.1.1, SVG Export Plug-In . SVG Version: 6.00 Build 0)  -->
<svg version="1.1" id="图层_1" xmlns="http://www.w3.org/2000/svg" xmlns:xlink="http://www.w3.org/1999/xlink" x="0px" y="0px"
	 viewBox="0 0 560 560" enable-background="new 0 0 560 560" xml:space="preserve">
	 <style type="text/css">
	.st0{fill:#FFFFFF;}
</style>
<g>
	<g>
		<path class="st0" d="M162.6,325.3c1.3,3.4,2.5,6.3,3.4,9.2c7.1,22.7,19.6,42.1,34.9,60c17.2,20,36.6,37.6,57.5,53.6c2,1.5,4.1,2.8,6.2,4.1
			c4.1,2.5,6.8,6,7.4,10.9c0.3,2.5,1.6,3.6,4,3.8c8.5,0.4,8.5,0.7,8.4-7.6c-0.1-6.7-2.5-11.9-7.5-16.1c-5.7-4.8-11.7-9.1-18.1-12.9
			c-19-11.3-34.7-26.2-48.9-42.9c-15.2-17.9-27.2-37.8-35.5-59.8c-1.9-5-2.7-10.4-3.7-15.6c-0.2-1.1-0.1-2.1,0.5-3.1
			c3.1-5.4,6.3-10.8,9.3-16.1c1.2,0,1.3,0.8,1.6,1.4c6.4,13.1,17.7,18.5,31.5,19.7c13,1.2,25.4-1.9,37.6-5.5c9-2.7,18-5.3,26.8-8.5
			c15.7-5.7,30.4-2.7,44.3,5.8c8.5,5.3,17.2,10.2,27,12.7c7.9,2,15.9,3.3,24.1,2.4c2.2-0.2,4.4-0.5,6.9,0.1
			c-2.6,10.2,5.4,17.6,6.8,26.9c2.3-3.9,4.2-8,2.2-12.4c-3-6.7-5.5-13.6-8.1-20.4c-0.1-0.4-0.5-0.7-0.7-1c-0.3,0.1-0.5,0.2-0.5,0.3
			c-1,5.3,0,5-6.3,4.8c-12.7-0.2-24.7-3.1-36-9c-0.5-0.3-1-0.6-2.3-1.3c5.9,0.4,11,0.9,16.1,1.1c7.4,0.3,14.8-0.2,22.1-1.8
			c7.6-1.7,13.9-5.5,18.6-11.8c0.5-0.6,0.8-1.4,2.1-1.6c1.2,5.4,4.6,9.8,6.1,15.2c0.7,2.6,0.7,5.3,0.1,7.9
			c-8.8,36.1-26.8,67.2-52.7,93.6c-11.4,11.6-23.2,22.7-35,34c-3.2,3-4.9,6.5-4.8,10.9c0.1,3.5-0.5,7.1-0.1,10.9
			c6,0.1,11.9,1.9,17.7-1.2c2.3-1.2,4.1,0.2,5.6,2c3.2,4,2.1,11.5-2.1,14.5c-1.1,0.8-2.4,1-3.6,0.5c-5.4-2.4-11.1-0.9-17.1-2
			c1.4,7.7,2.8,15.1,4.3,23c3.9-3.3,7.4-6.2,10.5-9.4c0.9-0.9,0.7-2,0.4-3c-0.5-1.8-0.9-3.6-1.4-5.8c4.2-0.1,8.6,0.9,11.3-3.4
			c2.1-3.3,3.1-6.8,2.5-10.7c-0.6-3.8-2.6-6.6-6.2-8.1c-3.8-1.6-6.8,1.3-10.4,2c0.8-8.3,3.3-15.3,9.2-21.2
			c7.6-7.7,16.3-14.2,23.6-22.2c8.1-8.8,17-16.9,24.1-26.5c5.6-7.5,10.3-15.5,14.1-24c5.9-13.1,12.2-26.1,16.2-39.9
			c0.1-0.4,0.4-0.8,0.5-1.2c4.2,2.4,5.2,3.9,4,7.4c-7.6,22.7-14.5,45.7-25.5,67c-12.4,24.2-25.5,47.9-41.4,70
			c-8.2,11.3-18,21.1-29,29.6c-13.3,10.3-30.9,10.5-46.5,1.2c-23.1-13.8-42.3-31.6-58.7-52.9c-23.2-30.1-41.3-62.7-53.4-98.7
			c-1.7-5-3.3-10-4.8-15.1c-1.2-3.9-0.4-5.3,3.4-6.8C158.7,331,160.3,328.3,162.6,325.3z M258,483.3c3,0,5.6-0.9,7.8-3
			c1.4-1.4,3-2.2,5-2.2c11.5,0,23-0.5,34.5,0c6.3,0.3,12.6,0.8,18.9,1.4c1.9,0.2,3.7-0.1,4.5-2.1c0.9-2,0.5-3.8-1-5.4
			c-1.1-1.2-2.5-1.9-4.3-1.9c-2.4,0.1-4.8,0-7.2,0.1c-14.2,0.3-28.3,1.1-42.5,0.1c-2.5-0.2-4.4-1.1-5.9-3.1c-2.5-3.5-6-4.6-10.2-3.7
			c-4.4,1-7.7,3.3-8.9,7.9C246.9,478.4,250.8,483.4,258,483.3z M267.3,349.5c-4.1,6.6-7.9,12.8-11.7,19c-0.3,0.5-0.5,1.2-0.2,1.8
			c2.2,5.2,1.2,10.5,0.3,15.8c-1,5.8-1.5,11.7,0.1,17.5c0.5,1.9,0.5,3.9,0.6,5.8c0.3,4.5,0.2,8.9,1,13.3c0.4,2.2,0.7,2.4,2.8,3
			c-2.3-8.7-0.5-16.9,3.3-24.8c1.3-2.7,1.7-5.3,1.5-8.3c-0.9-12.4-0.2-24.6,2.9-36.7C268.3,354.2,268.4,352.2,267.3,349.5z
			 M241.1,412.6c1.7-3.5,3.4-7,2.5-11.2c-0.6-2.9-0.6-5.9-0.5-8.8c0.6-10,1.6-19.9,1.2-29.9c-0.2-5.3,1.4-10.3,4-15
			c-3.4,0.8-5.1,3.2-6.2,6c-2.6,6.7-4.9,13.6-7,20.5c-1,3.3-1,6.4-0.1,9.7c1.8,6.5,2.2,13.2,0.7,19.9
			C234.6,408.9,235.8,410.7,241.1,412.6z M334.9,418.6c6-3,7.4-5.8,6-11.6c-0.2-0.8-0.4-1.6-0.6-2.3c-1-3.9-1.3-7.8,1.6-11.3
			c-4.1-4.2-4.9-9.4-5.4-14.8c-0.4-3.8-0.8-7.6-1.3-11.4c-0.7-4.5-2.1-8.7-4.8-12.4c-1.2-1.7-2.5-3.3-5.1-3.8
			c0.7,1.5,1.3,2.6,1.8,3.7c2.3,4.9,4,10,3.4,15.5c-0.8,7.3-0.7,14.6-1.4,21.9c-0.2,2.5-0.1,5.1,1.4,7.2
			C334.3,405,336.3,411.2,334.9,418.6z M219.3,392.3c1.1-1,1.2-2.2,1.4-3.3c0.7-3.2,0.8-6.5,1-9.8c0.2-3.3,0.5-6.7,2.1-9.6
			c1.1-1.9,1.2-3.6,0.5-5.6c-1.8-5.6-2.3-11.3-1-17.2c0.3-1.3,0.3-2.7,0.5-4c-4.1,4.9-6.9,10.4-8.6,16.3c-2.4,8.1-1.3,16.5-1.9,24.7
			C213.1,387.8,216,390.4,219.3,392.3z M354.8,398.3c1.7-1.3,2.9-2.7,3.9-4.4c2.1-3.6,3.2-7.3,0.6-11.3c-1.3-2-1.7-4.5-1.9-6.9
			c-0.3-4,0.4-8,0.6-12c0.3-5.5-0.6-10.7-3.6-15.4c-0.7-1.1-1.4-2.2-3.3-1.8c0.9,3.3,1.5,6.4,1.6,9.6c0.2,6.3-0.9,12.4-2.2,18.6
			c-0.5,2.6-0.7,5.2,0.7,7.5c1.3,2,1.4,4.1,1.1,6.4C352,392.1,352.5,395.3,354.8,398.3z M372,375.2c2.1-5.8,2.9-11,2.3-16.4
			c-0.5-4.3-0.8-8.5,0.9-12.7c0.3-0.8,0.5-1.9,0-2.6c-2.4-3.7-5-7.4-7.5-11.1c-0.2,0.1-0.4,0.2-0.6,0.3c1.5,10-2.6,19.9-1,29.9
			c3.8-0.3,5,0.6,5.8,4c0.3,1.4,0.2,2.8-0.1,4.2C371.6,372,371.2,373.3,372,375.2z M275.3,505.4c1-8.3,2.1-16,6.1-23.3
			c-3.2,0-5.7,0-8.2,0c-1.6,0-2.7,0.8-3.2,2.4c-1.3,4.6-2.6,9.1-3.9,13.7c-0.4,1.4,0,2.5,1.3,3.1
			C269.9,502.5,272.3,503.8,275.3,505.4z M206.5,330.5c-0.7,2.2-2.1,3.4-3.4,4.7c-1.1,1.1-2.2,2.4-3.1,3.7c-3.2,4.9-5,10.4-7.4,15.7
			c-0.5,1-0.4,2.1,0.1,3.1c1.2,2.6,2.8,4.9,5,6.8c1.7-0.8,2.6-2.1,1.9-3.7c-1-2.4-0.4-4.3,0.8-6.3c0.7-1.2,1.2-2.6,1.5-4
			c1.3-5.6,2.2-11.2,4.4-16.5C206.6,333.1,207,332.1,206.5,330.5z M231.6,405c0-7.9,0-15.4,0-22.8c0-1.9-1-3.1-3.2-3.3
			c-1.1,5.9-3.1,11.4-4.6,17.1c-0.2,0.7-0.5,1.5,0,2.1C226.1,400.4,228.1,403.3,231.6,405z M316.2,407.3c1,9.1,0.8,18.2,0.8,27.3
			c2.4-1.8,5.5-2.7,6-6C324.1,420.5,322,413.3,316.2,407.3z M277.9,439.1c-1.8-9-4.2-17.4-5-26.1c-2.6,6-3.7,12.2-2.7,18.5
			C270.8,435.5,273.6,437.8,277.9,439.1z M346,407.9c2.1-0.9,3.4-1.9,4.7-3c1.3-1.1,2.2-2.4,1.7-4.2c-0.8-3.2-1.4-6.4-2.9-9.4
			c-1.1-2.2-2.4-4.3-5.2-5.9C346.6,393,345.8,400.3,346,407.9z M393.7,327.2c3-5.8,4-11.7,1.2-17.9c-0.9-1.9-2.5-2.5-4.4-1.9
			c-0.8,0.2-1.3,0.6-1,1.6C391.2,314.9,392,321.1,393.7,327.2z M189.7,322.8c-6.8,3.9-9.7,17.1-5.1,19.6
			C188.1,339,189.7,332.8,189.7,322.8z M363,387.3c6.7-3.5,6.9-16,0.4-21.6C363.4,373,361.8,380,363,387.3z M379.8,340.9
			c-1.6,6.7-1.7,17.6-0.3,21C385.4,356.3,385.7,346.7,379.8,340.9z M208.3,359c-1.3-0.4-1.9,0.2-2.3,0.9c-2,3.2-3.6,6.6-4.3,10.3
			c-0.6,2.8,0.8,4.5,3.8,5.5C210.4,370.7,207.1,364.4,208.3,359z M251.5,420.2c-0.5-5.6,0.3-11.1-0.6-17.3c-2.7,3.2-3.4,6.6-4.5,9.7
			C244.9,417.3,246.1,419.2,251.5,420.2z M177.5,325c-0.1-5.9,0.6-11.3,1.4-17C173.3,311.5,172.4,321,177.5,325z M193.1,339.1
			c-2.6,2-4.1,4.1-5.5,6.1c-1.6,2.3-1.3,3.2,1.4,5.1C190.6,346.8,192.8,343.7,193.1,339.1z"/>
		<path class="st0" d="M280.2,201.1c0,7.7,0.1,15.1,0,22.5c-0.2,10.5-0.5,21.1-0.7,31.6c-0.1,2.6,0.8,3.5,3.5,3.5c6.3,0,12.7-0.1,19-0.2
			c2.9-0.1,3.6-0.9,3.6-4.3c0-16.6-0.2-33.2,0.7-49.8c0-0.7,0.1-1.4,0.2-2.5c26,2.4,51.6,5.8,77.8,10.7c-3.3,2.3-4.2,5.7-6.2,8.4
			c-3.6-1.5-5.3-6-10.2-5.5c0.7,2.8,2,5.1,3.7,7.2c2.3,2.9,3.5,5.8,0.7,9.1c-0.5,0.7-0.7,1.6-1,2.5c-0.4,1-0.6,1.9,0.5,2.6
			c1.1,0.7,2,0.3,2.9-0.5c1.6-1.5,2.1-3.7,4.1-5.2c1.7,1.3,3.4,2.5,5.2,3.7c0.9,0.6,1.8,1.4,2.9,0.4c1.1-1,1-2.3,0.2-3.4
			c-1.1-1.5-2.2-3.1-3.5-4.4c-1.3-1.4-1.2-2.5-0.2-4c1.4-2.1,3-4.1,3.2-6.7c0.1-1.2,0-2.5,0-4c4,0.4,7.9,1.5,11.9,2.2
			c7.4,1.4,14.9,2.9,22.4,4.2c2.2,0.4,2.3,1.6,1.9,3.2c-0.3,1.3-1,1.8-2.4,1.1c-1.4-0.6-2.8-1.1-4.3-1.6c-0.9-0.3-1.8-0.1-2.3,0.8
			c-0.5,1-0.1,1.8,0.6,2.4c1.6,1.3,3.2,2.6,4.9,3.7c1.3,0.9,1.7,1.8,1.5,3.3c-0.3,2.2-0.5,4.4,1,6.4c1.8,0,2.4-1.3,2.9-2.5
			c0.9-2.2,2.2-2.3,3.9-1c0.4,0.3,0.7,0.5,1.1,0.7c0.8,0.5,1.7,0.7,2.4-0.2c0.7-0.9,0.3-1.7-0.3-2.4c-0.6-0.7-1.2-1.3-1.9-1.8
			c-3-2.4-3.4-5.5-2.7-8.9c0.1-0.7,0.4-1.3,1.3-1.4c3.4-0.6,7,1.5,7.9,4.9c0.6,2.2,0.7,4.6,1.2,6.9c0.4,1.9,0.8,3.9,1.2,5.8
			c0.6,2.6-0.2,4.5-2.7,5.3c-5.7,1.8-10.3,5.2-14.1,9.8c-1.5,1.8-3.6,3-5.6,4.1c-5.4,2.9-8.2,7.5-8.8,13.5c-0.9,9.8,0.1,19.4,1.8,29
			c1.7,9.5,3.9,18.9,6.1,28.3c0.6,2.7,1.3,5.3,0.9,8.4c-1.7-0.9-2.4-2.2-3-3.5c-1.6-3.6-3.5-7.1-4.7-10.8
			c-2.3-7.1-5.4-13.8-7.8-20.8c-2.4-7.2-6.7-13.4-11.2-19.4c-2.1-2.9-5.2-4.6-8.5-5.8c-10-3.7-20.3-4.5-30.8-3.5
			c-22,2.2-44.1,4.2-66.2,4.4c-12.4,0.1-24.8-1.5-37.1-2.7c-10.7-1-21.3-2.3-32-3.2c-10.5-0.9-19.5,3.1-28,8.9
			c-8.1,5.5-13.6,13-17.6,21.8c-3,6.6-6,13.2-8.9,19.8c-1,2.1-2.1,4.2-3.7,5.9c-0.8,0.9-1.7,1.8-3.3,1.6c-0.4-1.7,0.2-3.3,0.6-4.9
			c3.5-13.4,7.2-26.7,9.6-40.4c0.5-2.6,0.8-5.3,1.3-7.9c1.5-9.1-1.4-16.5-8.4-22.4c-6.8-5.8-14.2-10.8-22.5-14.3
			c-3.9-1.6-4.2-2.3-3.3-6.3c1-4.7,2.3-9.4,4.6-13.7c1.1-2.1,2.7-3.4,5-4.2c14.6-4.9,29.7-7.5,45-9.6c29.6-3.9,59.4-4.9,89.2-4.8
			C276.7,201.2,278.7,200.6,280.2,201.1z M256.5,230c1.7-1.5,1.4-3.2,0.6-4.9c-1.3-3-0.8-5.6,1.8-7.7c1.3-1.1,2.2-2.5,2.9-4.1
			c0.7-1.5,1-3.1-0.5-4.1c-1.4-1-2.2,0.7-3.1,1.4c-4.4,3.5-4.4,3.5-7.4-0.9c-0.9-1.3-1.9-2.6-3.7-1.7c-1.8,0.9-1,2.4-0.4,3.7
			c1.9,4.3,1,8-2.2,11.3c-0.8,0.9-1.6,1.9-2.3,2.9c-0.7,1.1-1.8,2.4-0.3,3.5c1.3,1,2.5,0.1,3.6-0.8c1.8-1.5,3.4-3.1,5.6-4.1
			C253.2,226.1,253.9,229,256.5,230z M316,233.9c2.8-0.5,4.1-2.4,5.4-4.3c1.2-1.6,2.4-2.4,4.1-0.7c0.9,0.9,2,1.7,3.3,0.5
			c1.2-1.2,1-2.6,0.1-3.6c-2.7-3.1-1.9-6-0.1-9.1c0.8-1.3,1.5-2.7,1.5-4.2c0-0.8-0.1-1.7-0.8-2.1c-0.8-0.5-1.6,0.1-2.1,0.6
			c-1,1-1.9,2.1-2.8,3.2c-1.8,2-3.2,2.1-5.3,0.5c-1.1-0.8-2-1.8-3.2-2.3c-1.3-0.5-2.3-0.2-3.1,0.8c-0.7,1-0.7,2,0.1,3
			c0.7,0.8,1.5,1.5,2.3,2.2c2.9,2.7,3.2,4.3,1.2,7.7C315,228.5,314.6,231,316,233.9z M199.8,234.8c-0.3-2.7-1.9-4.6-3.3-6.6
			c-1.3-1.8-1.3-3.4-0.1-5.1c1.9-2.6,3.2-5.5,4.2-8.6c0.3-0.9,0.4-1.8-0.5-2.4c-0.9-0.6-1.7-0.2-2.4,0.5c-1.6,1.6-3.1,3.2-4.7,4.8
			c-2.3,2.3-2.6,2.2-4.8-0.2c-1.2-1.3-2.3-2.9-4.4-2.9c-0.6,0.9-0.2,1.5,0.1,2.1c2.5,5.1,3.3,10.1,0.4,15.3
			c-0.4,0.8-0.3,1.6,0.4,2.2c0.7,0.6,1.5,0.4,2.2,0c0.6-0.4,1.2-0.8,1.7-1.3c1.8-2,3.3-1.8,5.1,0.1
			C195.4,234.3,197.1,235.7,199.8,234.8z M150,222.1c-0.6-0.9-1.2-1.7-1.8-2.5c-0.7-0.9-1.5-1.7-2.7-1.1c-1,0.5-1.2,1.7-0.8,2.6
			c2,4.5,1.1,8.7-1.3,12.7c-0.7,1.1-0.9,2.6,0.4,3.4c1.1,0.7,1.9-0.5,2.7-1.2c0.4-0.3,0.7-0.8,1.1-1.2c1.2-1.3,2.2-1.2,3.3,0.1
			c0.6,0.8,1.2,2.1,2.5,1.3c1.2-0.7,1.5-2.1,0.9-3.3c-1.9-3.7-0.9-6.9,1.5-9.9c0.7-0.8,1.1-1.8,1.5-2.8c0.4-0.9,1-1.9-0.1-2.6
			c-1.1-0.8-2,0-2.8,0.7C153.1,219.6,152.2,221.3,150,222.1z"/>
		<path class="st0" d="M143.9,208.6c-0.1-0.4-0.3-0.7-0.3-0.9c2.1-12.9,3.4-26,7-38.7c2.4-8.3,7.7-13.2,15.8-15.5c14.2-4,28.7-6.5,43.4-7.9
			c23.9-2.4,47.9-2.4,72-2c41,0.7,81.5,5.4,121.3,15.9c5.2,1.4,10.2,3.2,15.3,4.8c2.5,0.8,4,2.4,4.5,4.9c3.1,15.7,6.4,31.3,7.9,47.3
			c0,0.4-0.1,0.8-0.1,1.3c-1.7,0.3-3.1-0.4-4.6-0.7c-29.4-6.3-59-11.4-88.9-15.1c-9.2-1.1-18.5-2-27.7-2.8c-2.1-0.2-3-0.9-2.9-3.1
			c0.1-2.7,0-5.4,0.1-8c0.1-1.9-0.5-3.5-1.8-4.8c-3.3-3.1-6.2-6.7-9.1-10.2c-1.8-2.2-2.7-2.2-4.4,0.1c-2,2.8-4.3,5.3-6.8,7.5
			c-2.8,2.4-3.6,5.6-3.4,9.2c0.6,7.6,0.6,7.5-7,7.7c-25.7,0.7-51.4,1-77,3.3c-16.6,1.4-33.2,3.6-49.5,7.2
			C146.3,208.1,145.1,208.3,143.9,208.6z M369.8,157.3c-0.9-0.1-1.3,0.5-1.4,1.3c-0.1,0.9,0.2,1.8,0.5,2.6c1.8,4.4,1.7,8.5-1.5,12.3
			c-0.8,1-1.2,2.2-1.5,3.4c-0.2,0.8,0.1,1.4,0.7,1.9c0.7,0.6,1.4,0.3,1.9-0.2c1-0.8,2-1.6,2.8-2.4c1.3-1.3,2.2-1.2,3.1,0.4
			c0.7,1.2,1.3,2.5,2.5,3.4c1.4,1.1,2.5,0.6,2.7-1.2c0.1-1-0.4-1.9-0.8-2.8c-1.8-4.1-1.4-7.8,1.6-11.2c0.4-0.5,0.8-1,1.1-1.5
			c0.9-1.4,1.6-3.1-0.2-4.3c-1.9-1.3-2.4,0.8-3.2,1.7c-2.8,3.2-3.3,3.2-5.4-0.5C372.3,158.8,371.5,157.5,369.8,157.3z M256.7,152.9
			c-2.1-1.5-3.1-4.3-6.4-3.6c3,5.1,2.9,9.9,0.3,14.9c-0.7,1.4-2.8,3-0.9,4.4c2,1.4,3.3-0.8,4.6-2c2.7-2.5,2.7-2.6,5.4-0.2
			c0.8,0.7,1.7,1.6,2.8,0.6c1-0.8,0.7-1.9,0.2-2.9c-1.8-3.5-1.3-6.9,0.3-10.3c0.5-1,1-1.9,1.1-3c0.1-1.2-0.1-2.1-1.3-2.7
			c-1.1-0.5-2.1-0.2-2.9,0.7C258.9,150.1,257.9,151.5,256.7,152.9z M202.5,171.7c2-1.4,1.5-3.2,0.8-4.9c-1.1-2.7-0.6-5,1.4-7.1
			c1.2-1.3,2.2-2.8,3.2-4.3c0.7-1,1.5-2.1,0.4-3.1c-1.3-1.3-2.3,0-3.3,0.7c-0.8,0.6-1.5,1.3-2.2,1.9c-2.3,2-3,1.8-4.3-0.9
			c-0.7-1.5-1.3-3.9-3.3-3.1c-2,0.8-0.8,2.9-0.2,4.5c1.4,4.2,0.7,7.9-2.3,11.1c-0.5,0.6-1.1,1.2-1.5,1.9c-0.5,0.7-0.6,1.5,0,2.3
			c0.7,0.9,1.5,0.5,2.1,0.1c1.1-0.7,2.3-1.5,3.2-2.3c1.2-1.1,2.2-0.9,3.1,0.4C200.4,169.8,201,171.1,202.5,171.7z M408.8,179.1
			c0.2,0.3,0.3,0.7,0.5,0.9c1.2,1.3,2.1,4.3,4.3,2.7c2-1.4-0.1-3.6-1.1-5.1c-1.3-2-2-4.2-1.6-6.6c0.2-1.2,0.7-2.4,0.9-3.6
			c0.2-1.2-0.1-2.2-1.4-2.5c-1.3-0.4-1.7,0.5-2.2,1.5c-1.5,2.9-2.6,3-4.7,0.2c-1.1-1.4-1.7-3.1-3.6-4c-1.2,1.7-1,3.3,0.1,4.7
			c3.3,4.3,4.4,8.9,2.1,14c-0.5,1-0.3,2,0.7,2.5c1.1,0.6,1.8-0.1,2.5-0.9C406.5,181.8,407.2,180.3,408.8,179.1z M319.3,167
			c1.3,1.2,2.3,2.3,3.5,3.3c1.5,1.2,2.3,0.4,2.6-1.2c0.1-0.7-0.2-1.4-0.4-2.1c-1.3-4-1.4-7.9,1-11.5c0.7-1,0.9-2-0.3-2.8
			c-1.2-0.8-2.1-0.4-3,0.7c-2.2,2.8-2.7,2.8-5.6,0.7c-0.8-0.6-1.6-1.7-2.8-0.7c-1.1,1-0.3,2,0.2,2.9c1.8,3.4,1.6,6.7-0.5,9.9
			c-0.3,0.5-0.7,1.1-0.9,1.6c-0.4,0.9-0.3,1.8,0.5,2.4c0.9,0.7,1.7,0.2,2.4-0.4C317.1,169.1,318.1,168.1,319.3,167z M163.7,172.7
			c1.2,0.9,2.4,1.8,3.5,2.6c0.8,0.6,1.7,1.6,2.8,0.6c0.9-0.8,0.5-2-0.1-2.7c-3.2-3.7-2.4-7.1,0.5-10.4c0.4-0.5,0.6-1.1,0.9-1.6
			c0.4-0.8,1-1.6,0-2.4c-0.9-0.7-1.9-0.7-2.7-0.1c-0.9,0.7-1.6,1.6-2.3,2.5c-2.2,2.7-2.4,2.7-5.2,0.8c-0.8-0.6-1.7-0.9-2.5-0.3
			c-1,0.8-0.2,1.6,0.2,2.3c1.5,2.7,1.1,5.3-0.5,7.8c-0.5,0.7-1,1.5-1.3,2.3c-0.4,1-0.1,2,0.8,2.6c0.9,0.6,1.5-0.1,2.1-0.6
			C161.2,175.1,162.4,173.9,163.7,172.7z"/>
		<path class="st0" d="M397.7,114.9c-0.8-0.2-1.4-0.3-1.9-0.6c-17.3-8.2-35.8-12-54.6-14.7c-22.6-3.2-45.3-5.6-68-4.8
			c-16.8,0.6-33.7-0.1-50.5,1.8c-12,1.4-23.8,3.4-35.5,6.4c-1,0.3-2.1,1-3.1,0.1c-1.1-1-0.1-2,0.2-2.9c3.1-9.8,7.8-18.8,13.3-27.4
			c6.1-9.6,15.4-14.7,25.6-18.4C251,44.1,279.7,41.2,309,44c15.6,1.5,30.8,4.9,45.3,11c12.5,5.2,22.4,13.4,29.8,24.7
			c6.3,9.6,10.9,19.8,13.5,31C398,112,398.6,113.3,397.7,114.9z"/>
		<path class="st0" d="M399.7,120.9c4.5,2.5,7.7,5.8,8.6,11.1c1.2,7.5,2.8,14.9,4.3,22.4c0.3,1.8,0.4,3.3-2.1,2.4c-12.3-4.2-25.3-5.3-38-7.5
			c-15.9-2.8-31.9-5.2-48-6.7c-20-1.8-40.1-2.3-60.2-2c-13.6,0.2-27.1,0.1-40.7,0.7c-19.7,0.8-39,4-57.9,9.8
			c-0.8,0.3-1.7,0.5-2.5,0.7c-0.2-0.3-0.3-0.4-0.3-0.6c1.6-7.6,1.7-15.4,3.1-23.1c0.9-5,2.6-9.6,5.7-13.7c0.6-0.8,1.2-1.5,1.8-2.2
			c2.8,2.5,3.1,4.4,1.3,7.2c-0.8,1.3-1.9,2.4-2.1,4c-0.1,0.9-0.1,1.9,0.7,2.5c0.9,0.7,1.8,0,2.4-0.6c1.8-1.9,3.3-2.5,5.1,0
			c0.8,1.1,1.7,0.4,2.1-0.8c0.3-0.8,0-1.6-0.4-2.3c-1.3-2.4-0.8-4.6,0.7-6.7c1.3-1.8,2.4-3.7,2.1-6.3c-3.5-0.8-4.1,2.7-6.3,3.9
			c-1.4-0.6-1.8-2.1-3-3.2c4.4-1.8,8.7-2.9,13-3.9c20.9-5.2,42.1-7.6,63.6-7.7c9.8,0,19.6,0.6,29.4,0.8c10.2,0.3,20.3,0.3,30.5,0.8
			c21.8,1.2,43.3,4.4,64.5,9.8c7.1,1.8,13.5,5.5,19.9,9.1c-2.2,3.8-2.2,3.8-5.8,2.8c-1.1-0.3-2.1-0.4-3.2,0.9
			c3.3,3,4.1,6.8,2.5,11.1c0.7,0,1.1,0.1,1.2,0c2.2-1.6,4.2-3.5,6.9-0.6c0.6,0.6,1.6-0.5,1.7-1.5c0-0.5-0.1-1.1-0.5-1.5
			C396.8,127.1,397.9,124.1,399.7,120.9z M265,120.5c0.9-2,0-3.8-1.1-5.3c-1.6-2.2-1.2-3.8,0.7-5.4c1.2-1.1,2.3-2.5,3.3-3.8
			c0.6-0.7,1-1.5,0.2-2.4c-0.7-0.7-1.5-0.3-2.2,0.1c-1.2,0.8-2.4,1.6-3.5,2.4c-2.7,1.9-3.4,1.9-5.6-0.6c-0.9-1-1.8-1.8-3.5-1.6
			c0.1,3.4-0.1,6.7-0.9,9.9c-0.4,1.5-2.2,3.3-0.4,4.6c1.5,1.1,3-0.6,4.2-1.5c1.9-1.3,3.2-0.9,4.4,0.9
			C261.7,119.2,262.9,120.6,265,120.5z M362.9,110.1c0.2,2.3,1.2,4.2,1.3,6.3c0.1,2.4-1.8,3.8-2.8,5.6c-0.6,1-0.6,2.1,0.4,2.9
			c0.9,0.8,1.9,0.6,2.7-0.1c1.8-1.6,3.2-1.7,4.4,0.6c0.2,0.4,0.6,0.7,0.9,1c0.5,0.5,1.2,1,1.9,0.6c0.7-0.4,0.8-1.2,0.8-1.9
			c0-0.6-0.1-1.3-0.3-1.8c-1.3-3.5-1.5-6.8,0.8-9.9c0.7-0.9,0.5-1.9-0.4-2.6c-0.8-0.7-2-1.5-2.6-0.8c-1.8,2-3.4,1.4-5.2,0.1
			C364.4,109.9,363.8,110.1,362.9,110.1z M199.6,119c1.8,0.5,3.2,0,4.5-0.8c2.5-1.5,4.5-1.2,6.3,1.1c0.7,0.9,1.8,2.2,3.1,1.2
			c1.2-0.9,0.5-2.3-0.3-3.3c-1.7-2.2-1.3-4,0.6-5.8c1.7-1.6,2.7-3.6,2.9-6.6c-2,1.2-3.7,2-5.1,3.1c-2.3,1.8-4.1,1.8-5.8-0.8
			c-0.8-1.3-2.1-2.1-3.8-1.6c-0.5,1.5,0,2.9,0.8,3.9c2.1,2.5,1.4,4.4-1,6.1C200.6,116.1,199.7,117.2,199.6,119z M317.1,110.2
			c-1-0.8-1.6-1.3-2.2-1.7c-1-0.7-2-2.3-3.4-1c-1.6,1.4-0.2,2.6,0.8,3.6c1.6,1.8,1.7,3.6,0.4,5.6c-0.6,0.9-1.1,1.8-1.6,2.8
			c-0.5,1.1-0.2,2.1,0.7,2.9c1,0.8,1.7-0.1,2.3-0.5c0.7-0.5,1.4-1.1,2-1.8c1.2-1.6,2.5-1.7,4.1-0.5c0.9,0.7,2,1.6,3,0.3
			c0.9-1.1,0-2-0.6-2.8c-1.7-2-1.6-4-0.4-6.2c0.4-0.7,0.8-1.4,0.9-2.2c0.3-1.1-0.2-1.9-1.2-2.4c-1-0.5-1.4,0.3-2,0.8
			C319,108.1,318.1,109.1,317.1,110.2z"/>
		<path class="st0" d="M521.5,283.7c-4.2,0.7-8,1.2-11.9,1.9c-18.2,3.2-35.3,9.3-51.7,17.7c-10.2,5.2-20.8,9.4-29.8,16.7c-2.8,2.3-5.2,4.9-6,8.6
			c-0.4,1.5-0.5,3,0.6,4.3c0.2,0,0.5,0,0.5-0.1c2.7-6.3,7.5-10.4,13.2-13.9c8.1-4.9,16.5-9.3,24.8-13.8c1.9-1,2.8-0.3,3.1,1.4
			c1.3,7,3.7,13.6,6.9,19.9c0.9,1.8,0.1,3.3-1.1,4.6c-2.6,3.1-6,5.3-9.6,7.2c-7.6,4-15,8.2-21.7,13.7c-5.6,4.6-8.1,10.3-7.4,17.4
			c0.3,3,0.7,6,1,9.1c0.1,0.8,0.6,1.7-0.2,2.7c-1-0.9-1.4-2.1-1.6-3.3c-0.9-5.4-2.6-10.6-4.4-15.7c-1.3-3.7-1.9-7.4-1.6-11.3
			c0.2-2.8-0.3-5.5-1.2-8.2c-6.1-18.2-10.1-36.8-13.3-55.7c-0.8-4.9-0.8-9.8-0.5-14.7c0.2-4.4,2-7.9,5.4-10.7
			c6.8-5.7,14.2-10.4,21.8-15c10.9-6.7,22.5-12.1,34.6-16.2c7.4-2.5,15.2-3.1,23-3.3c2.8-0.1,4.3,1.8,5.6,4
			c4.6,7.6,8.3,15.6,11.3,23.9c3.3,9,6.6,17.9,9.8,26.9C521.3,282.2,521.3,282.8,521.5,283.7z M443,266.9c0.2,11.8,7,20.1,19.4,21.8
			c10.7,1.5,20.7-7.3,20-17.9c-0.8-10.9-6.2-19.1-16-24c-6.6-3.4-14.1-1.6-18.9,4.1C444.1,255.1,442.8,259.8,443,266.9z"/>
		<path class="st0" d="M132.3,384.2c0.5-5.4,1-10.2,1.4-15c0.2-2.5,0.5-5,0.6-7.5c0.4-9.2-3.3-16.2-10.9-21.3c-5.3-3.5-11-6.4-15.8-10.5
			c-4.2-3.5-4.3-3.6-2.1-8.5c2.5-5.7,4.5-11.5,5.8-17.5c0.1-0.7,0.2-1.4,1.1-2.3c11.9,4.3,22,11.8,32.5,20c-0.7-2.5-1.9-3.9-3.1-5.2
			c-4.9-5-10.7-8.9-16.8-12.4c-15.8-8.9-32.6-15.3-49.8-20.8c-1.7-0.5-3.4-1.1-5.1-1.7c-3.3-1.1-4.1-2.7-2.8-6.2
			c3.6-10.1,7.6-20,11.9-29.9c1.4-3.2,2.8-6.4,4.3-9.5c2.1-4.5,4.9-6.2,9.6-5.3c21,4.1,41.2,10.2,59.1,22.5
			c9.8,6.8,12.8,13.5,10.4,25.2c-3.4,17.2-8.4,34-12.3,51.1c-3.1,13.8-6.3,27.5-9.5,41.3c-1.1,4.8-2.9,9.2-6.9,12.4
			C133.6,383.4,133.2,383.6,132.3,384.2z M104.7,270.7c0.3,6.3,3.8,11.9,10.2,15.7c6.4,3.8,12.6,2.7,17.6-2.8
			c8.4-9.2,4.6-22.8-1.2-28.6c-1.4-1.4-3.1-2.4-5.1-2.8C115.5,250,105,258.6,104.7,270.7z"/>
		<path class="st0" d="M498.5,383.6c-2-1.5-2.9-4.1-5.6-5.1c-1.7,1.8-1.4,3.7-0.4,5.6c0.8,1.6,1.9,3,2.8,4.6c1.4,2.4,1.7,4.8,0.8,7.5
			c-0.4,1-0.6,2.1-0.2,3.1c0.3,0.8,0.8,1.5,1.6,1.7c1,0.2,1.5-0.5,1.8-1.3c0.6-1.8,1.7-1.4,3-0.7c2.5,1.4,3.6,3.7,3.9,6.3
			c0.4,3.4,0.5,6.8,0.7,10.1c0.5,10.3,1,20.7,2.4,31c0.3,2.1,0.7,4.2,1.8,6.1c1.2,2.1,0.8,4-1.3,5.3c-6.7,4.2-13.3,8.7-20.4,12.2
			c-4.3,2.1-8.9,1.9-13.6,1.1c-9.3-1.6-14.4-6.5-16.3-16.1c-2.7-13.8-6.2-27.5-7.8-41.6c-0.4-3.3-0.7-6.6-0.7-9.9
			c-0.2-9.5,5.7-17.5,14.8-20.2c6.7-1.9,12.9-4.8,18.8-8.4c2.7-1.6,5.3-3.4,7-6.1c0.6-0.9,1.1-1.4,2.4-0.8
			C499.9,371.2,501.9,377.6,498.5,383.6z M468.9,418.3c3.2-2.4,2.6-6.1,3.9-8.7c1.5-0.3,2.4,0.5,3.6,0.8c0.8,0.2,1.7,0.3,2.2-0.5
			c0.5-0.8,0.1-1.6-0.4-2.2c-0.4-0.5-0.8-1-1.3-1.3c-2.9-1.8-3.6-4.5-3.1-7.7c0.2-1.5,0.4-3,0.4-4.5c0-1.8-0.4-3.5-2.2-4.6
			c-2.7,2.9-1.5,7.1-3.5,10.3c-2.9-0.6-5.6-3.2-8.5,0c1.4,1.1,2.6,2.3,4,3.1c3.4,1.8,4.6,4.3,3.7,8.2
			C466.9,413.5,467.2,415.9,468.9,418.3z"/>
		<path class="st0" d="M70.6,402.6c1.2,1.1,2.3,2.2,3.4,3.2c0.6,0.5,1.3,1.1,2.2,0.6c0.9-0.5,1-1.5,0.8-2.4c-0.3-1-0.7-2-1-3
			c-1.7-5-2.2-9.9,0.3-14.8c0.7-1.4,0.8-2.9,0.8-4.4c0-1.3-0.6-2.2-1.8-2.6c-1.4-0.5-1.9,0.5-2.5,1.5c-0.5,0.9-1.1,1.8-1.7,2.8
			c-3.3-5.8,0.9-15.8,8.2-19.6c0.8,3.7,3.8,5.2,6.6,6.8c9.2,5.3,18.8,9.4,29.2,11.8c2.4,0.5,3.1,1.8,3,4.2
			c-0.5,7.7-1.3,15.3-2.8,22.8c-2.7,13.4-4,27-6.7,40.4c-0.8,3.9-1.6,7.9-3.5,11.5c-3.8,7.1-9.6,9.1-16.7,5.8
			c-6.9-3.2-13.3-7.3-18.3-13.2c-3.5-4.1-5-8.7-4.6-14.1c0.8-10.6,1.6-21.2,2.3-31.8C67.9,405.9,68.3,403.9,70.6,402.6z M91.7,390.9
			c-0.9,1.7-0.5,3.4,0.2,4.9c2.1,4.4,1.9,8.8,0.2,13.2c-0.3,0.9-0.6,1.9-0.8,2.8c-0.2,1.1-0.2,2.3,0.9,2.9c1.1,0.6,2-0.3,2.8-1
			c1-0.8,1.4-2.3,2.7-2.9c1,0.5,1.3,1.5,1.9,2.2c0.9,1,1.9,2.2,3.3,1.2c1.4-0.9,0.6-2.3-0.1-3.3c-2.3-3.6-2.2-7.4-0.9-11.3
			c0.7-2,1.6-4,1.9-6.1c0.3-2.7-0.4-5-2.6-6.9c-2.5,2.6-2.7,6.2-5.2,8.5C94.3,393.9,94.2,391.2,91.7,390.9z"/>
		<path class="st0" d="M426.2,379.6c8.2,8.2,12.2,18.3,14.7,29.1c0.9,3.9,2.2,7.7,7,8.5c1.1,0.2,1.3,1.4,1.5,2.3c1.8,8.5,3.5,17,5.8,25.3
			c0.7,2.6-0.3,3.6-3.5,3.3c-8.3-0.7-16.5-1.4-24.8-2.2c-9-0.8-17.9-1.7-26.9-2.6c-4.3-0.4-4.9-1.3-3.4-5.3
			c4.4-11.7,10.6-22.6,16.2-33.8c2.8-5.6,5.5-11.2,7.9-17C422,384.2,423.6,381.2,426.2,379.6z"/>
		<path class="st0" d="M112.5,440.9c0.1-2,0.7-4.2,2.8-5.7c5.9-4.1,8.8-10.2,10.8-16.8c1.1-3.6,1.3-7.4,1.8-11.1c0.6-4.5,1.6-9,3-13.3
			c1.4-4.5,4.3-7.7,8.3-10.1c1.8-1.1,3.2-1,4,1.2c4.8,13.5,12.9,25.2,20.6,37.2c3.8,5.9,9.2,10.4,13.7,15.7c0.4,0.5,0.8,0.9,1.2,1.4
			c0.5,0.7,1.2,1.5,0.7,2.4c-0.5,0.8-1.5,0.9-2.4,0.8c-12.4-1.3-24.8,0.3-37.1,1.6c-7.5,0.8-14.9,1.7-22.4,1.8
			C113.5,446.2,112.5,445.2,112.5,440.9z"/>
		<path class="st0" d="M479.5,351.2c1.6-1,1.9-2.4,2.1-3.8c0.1-1.3-0.1-2.7,0.4-4c1.5-0.5,2,0.6,2.2,1.6c1.6,6.2,3.1,12.5,4.6,18.7
			c0.6,2.6-1,4.2-3,5.5c-3.6,2.3-7.4,4.3-11.3,6.1c-5.5,2.6-11,5.1-16.5,7.7c-2.7,1.3-5.1,2.9-7.3,4.9c-3.8,3.6-5.5,7.9-4.5,13.3
			c0.8,4.3,1.3,8.6,2.1,13.4c-2.6-1.2-3.7-2.9-4.2-5c-1.4-5.4-2.7-10.9-4.1-16.4c-2.3-9.3-5.2-18.6-5.8-28.3c-0.1-1.4-0.2-2.9,0-4.3
			c0.2-2.4,1.3-4.2,3.9-4.9c1.3-0.4,2.6-0.9,3.6-1.7c7.5-6.4,17.1-9.7,24.5-16.2c1.1-1,2.4-1.9,3.7-2.9c1.8,1.4,3.4,2.9,5.3,4
			c1.6,1,1.3,3,1.5,4.6C476.9,346.5,476.9,349.3,479.5,351.2z M443,356.3c-0.4,1.9,0.4,3.2,2,4.1c2.5,1.3,3.4,3.3,3.1,5.9
			c-0.1,0.6,0,1.3,0,1.9c0.2,1.2,0.7,2.1,2,2.2c1.2,0.2,2-0.6,2.4-1.7c0.4-1,0.7-2,1.2-3.2c1.1,0.3,2,0.6,2.9,0.9
			c1,0.3,1.9,0.6,2.6-0.5c0.6-1,0.6-2.2-0.3-2.7c-4.1-2.5-6.2-5.9-6.1-10.7c0-1.1-1.2-1.9-2.3-1.9c-1.3,0-1.4,1.2-1.7,2.1
			c-0.5,1.3-0.1,2.9-1.2,4C446,357.1,444.8,355.4,443,356.3z"/>
		<path class="st0" d="M116.5,430.1c0.3-2.7,0.4-4.7,0.6-6.7c1.4-13.3,3.2-26.6,3.1-40c0-2.4-0.8-3.6-3-4.3c-7-2.3-13.8-4.7-20.8-6.9
			c-4.6-1.4-8.1-4.9-12.4-6.8c-1.3-0.6-0.9-2.2-0.5-3.4c1.2-3.3,2.4-6.5,3.6-9.8c0.5-1.4,1.6-2.3,2.9-3c1.9-1,2.2,0.7,3.1,1.6
			c1.1,1.1,2.2,0.6,2.9-0.5c0.4-0.7,0.6-1.5,0.5-2.3c-0.2-4.2,1.3-7.8,3.7-11.2c1.7-2.5,1.5-3.4-0.7-5.1c-1.5,0.5-2.2,2.1-3.7,2.4
			c-2.9-2.5-1.1-6.6,2.2-8.3c1-0.5,1.5,0,2,0.6c1.5,1.6,3,3.3,4.5,4.9c4.2,4.5,9,8.1,14.6,10.7c9.1,4.3,12.2,9.9,11.3,19.9
			c-1.6,18.3-3.7,36.6-6.9,54.7c-0.6,3.5-1.4,7-3.5,10C119.2,427.9,118.3,429,116.5,430.1z M112.6,365.7c0.3,0.3,0.5,0.6,0.7,0.9
			c0.9,1,1,3.1,2.9,2.6c1.8-0.5,1.4-2.4,1.6-3.9c0-0.4,0-0.9-0.1-1.3c-0.1-4.1,0.7-8,2.8-11.5c0.4-0.8,0.8-1.6,1-2.5
			c0.2-1-0.2-2-1-2.6c-1-0.7-1.6,0.3-2.2,0.8c-0.6,0.5-1.1,1.2-2.2,1.1c-0.3-0.4-0.7-0.9-0.9-1.4c-0.7-1.4-1.3-3-3.3-2.3
			c-1.9,0.7-1.2,2.3-1,3.7c0.7,4.4,0.3,8.5-2,12.4c-0.9,1.5-2.4,3.1-0.8,4.8C109.6,368.1,110.8,365.9,112.6,365.7z"/>
		<path class="st0" d="M283.1,255.3c-0.7-1.1-0.4-2.1-0.4-3.1c0.6-16.6,1.2-33.2,1.7-49.8c0.1-4,0-8-0.1-12.1c-0.1-3.6,1.1-6.6,3.8-9.1
			c1.8-1.7,3.7-3.4,5.5-5.1c6.4,4.7,10.6,10.8,10,19.4c-0.8,12.2-0.5,24.5-1,36.7c-0.2,6.2,0.2,12.5-0.3,18.7
			c-0.2,2.5-0.9,3.8-3.7,4C293.5,255.3,288.2,255.5,283.1,255.3z M301.7,191.3c0.1-4.2-3.5-7.7-7.8-7.8c-4.5-0.1-8.3,3.2-8.3,7.3
			c-0.1,4.2,4.2,8.7,8.5,8.8C297.8,199.6,301.6,195.5,301.7,191.3z"/>
		<path class="st0" d="M208.1,474.5c2,0.9,3.2,1.9,4.4,3c2.6,2.3,4.8,5.1,7.7,7c1.2,0.8,1.3,2,1.4,3.3c0.3,4.1,1.9,7.4,5.4,9.7
			c2.9,1.9,5.9,3.4,9-0.2c3.4,4.4,6.9,8.3,11,11.5c12,9.4,25.3,15.7,40.6,17.2c16.8,1.6,31.5-3.2,43.4-15.7
			c5.4-5.7,11.2-11,16.9-16.5c0.8,1,0.1,1.5-0.3,2c-5.9,8.5-11.8,17-17.8,25.5c-4.5,6.3-9.9,11.5-17.4,14.2
			c-6.9,2.5-14.2,2.4-21.4,2.2c-10.3-0.3-20.2-2.4-29.4-7c-2.6-1.3-5.1-3.1-7.1-5.2c-6.7-6.9-13.7-13.6-19.3-21.5
			c-0.8-1.1-1.8-1.6-3.1-1.8c-8.2-1.1-11.7-4.6-12.3-12.8c-0.1-1.6-0.7-2.6-2-3.5c-3.7-2.8-6-6.8-9.3-9.9
			C208.2,475.9,208.3,475.4,208.1,474.5z M264.1,522.2c-1.8,5.8,2.8,9.1,12.4,9.8c0.5-1.7,1.5-3.8-0.7-4.9
			C272,525.3,268,523.9,264.1,522.2z M326.3,520.6c-1.4-0.7-2.1-0.1-2.7,0.3c-2.4,1.4-4.8,2.6-7.5,3.6c-3.4,1.2-4.3,3.6-2.9,7.4
			C318.3,529,322.9,525.6,326.3,520.6z"/>
		<path class="st0" d="M375.7,433.2c0.1-2.7,1.6-4.1,2.4-5.8c3.3-6.7,7-13.3,10-20.1c3.4-7.8,8.8-13.7,16.2-17.9c4.8-2.7,9.6-5.3,14.1-8.6
			c0.6,1.4,0,2.1-0.4,2.9c-5.4,10.7-11.2,21.3-17.4,31.7c-2.6,4.3-5.9,7.5-10.5,9.5C385.1,426.8,380.6,430,375.7,433.2z"/>
		<path class="st0" d="M418.8,347.6c1.8,7.5,3.5,14.4,5.1,21.3c0.3,1.2-0.3,2.1-1.2,2.8c-7.9,6.8-16.5,12.6-25.4,18.1c-1-1.1-0.4-2-0.1-2.8
			c2.8-7.5,5.6-15,8.4-22.6C408.3,357.6,413.4,352.9,418.8,347.6z"/>
		<path class="st0" d="M171.1,399.2c-3.5-2.1-6.9-3.4-10.4-4.4c-6.3-1.9-10.3-6.1-12.7-12.1c-1-2.6-1.5-5.6-4.3-7.2c-0.5-0.3-0.5-0.9-0.4-1.4
			c0.6-3.4,1.3-6.8,2-10.7c2.5,1.4,4.6,2.9,6.9,3.9c6.2,2.6,10,7,11.9,13.6c1.5,5.3,4.2,10.2,6.4,15.3
			C170.9,397,171.6,397.8,171.1,399.2z"/>
		<path class="st0" d="M303.5,40.2c-9.2,0.9-17.9,0.7-27.3-0.5c4.8-5.3,4.5-12.1,6.7-18c1.7-4.6,4.4-6.5,9.1-6.3c3.2,0.1,4.9,1.3,6,4.4
			c0.9,2.6,1.3,5.4,1.4,8.1c0.2,3.7,1.1,7.2,3.2,10.3C303,38.6,303.1,39.2,303.5,40.2z"/>
		<path class="st0" d="M184.7,422.7c-12.5-0.4-24.6-10.2-29.1-25.5C166.6,396.5,181.2,409.2,184.7,422.7z"/>
		<path class="st0" d="M388.7,432.2c-3.3,4.4-6.5,8.8-9.8,13.2c-2.7,3.6-5.7,7.1-8.3,10.8c-3.5,4.9-8.8,6.6-14.1,8.5
			C364.3,451,371.4,436.7,388.7,432.2z"/>
		<path class="st0" d="M171.6,423.7c10.2-1,23,7.9,25.9,18.1C187.1,444.2,178.2,437.2,171.6,423.7z"/>
		<path class="st0" d="M216.6,466.7c-5.1-2.2-10.1-4.4-15.7-4.4c-0.4,0-1-0.4-1.3-0.8c-3.5-4.9-7-9.8-10.7-15c5.3-0.9,10-0.6,13.8,2.9
			C208.3,454.4,212.5,460.5,216.6,466.7z"/>
		<path class="st0" d="M318.2,506.9c6.1-7.6,13.9-11.4,23.9-12.7c-4.6,5.6-8.9,10.6-14,14.9c-0.7,0.6-1.6,0.6-2.5,0.4
			C323.1,509,320.7,508.2,318.2,506.9z"/>
		<path class="st0" d="M361.5,467.3c-2.5,10.4-15.4,21.8-25,22.3C343.7,480.9,351.2,473,361.5,467.3z"/>
		<path class="st0" d="M151.4,342.4c2.5,8.2,5,16.4,7.7,25.3c-4.2-2.3-7.6-4.1-11-6c-1-0.6-1.5-1.5-1.3-2.7c1.2-5.5,2.5-11.1,3.8-16.6
			C150.8,342.4,151.1,342.4,151.4,342.4z"/>
		<path class="st0" d="M256,501.7c-7.1,3.2-17.5-1.7-25-12.2C235.9,488.4,252.6,496.5,256,501.7z"/>
		<path class="st0" d="M249.5,507.1c6.6-3.5,17.1-1.7,21.7,3.6c-2.3,4-6,5.4-10.1,3.7C256.9,512.6,253.4,509.6,249.5,507.1z"/>
		<path class="st0" d="M268.1,517.7c2-1.6,3.8-3.1,5.7-4.5c0.7-0.5,1.5-0.5,2.3-0.4c3.1,0.3,6.1,1.1,9.1,2c2.4,0.8,2.7,2.3,1.8,4.4
			c-1.6,3.9-2.4,4.3-6.4,3.2C276.4,521.2,272.1,520,268.1,517.7z"/>
		<path class="st0" d="M322.7,513c-5.3,3.3-10,7.2-16.5,8.1c-0.6-2.5,0.5-4.9-0.2-7.2c-0.1-0.2,0.2-0.5,0.4-0.7C310,509.1,318.1,508.9,322.7,513
			z"/>
		<path class="st0" d="M208.9,469.6c10.3,2.9,18.7,8,26.4,15C229.6,486.1,213.4,476.4,208.9,469.6z"/>
		<path class="st0" d="M288.7,523.7c0.8-2.7,2.1-4.9,2.1-7.4c0-0.6,0.6-0.8,1.2-0.9c3.2-0.3,6.4-0.6,9.5-0.9c0.9-0.1,1.2,0.3,1.5,1.1
			c1,3-0.4,6-3.4,7.1C296.1,523.8,292.6,524,288.7,523.7z"/>
		<path class="st0" d="M361.2,478.7c1.8,3.1,1.3,6-0.5,8.7c-2.4,3.7-7.6,6.2-11.7,5.6c-0.1-1.9,1.3-2.6,2.8-3.1c4-1.3,6.7-3.6,7.1-8.1
			C359,480.5,359.7,479.5,361.2,478.7z"/>
		<path class="st0" d="M410.2,349.8c0.9-3.6,1.7-7.2,2.6-10.8c2.6,0,3.9,1.5,5.1,3.1c0.5,0.7,0.6,1.6,0,2.2c-2.3,2.1-4.6,4-6.9,6
			C410.7,350.2,410.5,350,410.2,349.8z"/>
		<path class="st0" d="M500,390.9c1-1.9,1.9-3.6,3.1-5.8c1.6,3.3,3.1,6,2.3,9.5C502.7,394.4,501.6,392.5,500,390.9z"/>
		<path class="st0" d="M477.3,332.8c-3.4-1.6-4.3-4-2.7-6.6c1-1.6,2.3-1.7,3.2,0.1C479.1,328.5,478.4,330.6,477.3,332.8z"/>
		<path class="st0" d="M264.4,469.7c-2,0-3.4-0.1-4.8,0c-2.2,0.2-4.1,1.1-4.8,3.6c-0.6,2.4,0.5,4.1,2.9,4.4c1.9,0.2,3.8,0.2,5.9,0.3
			c-2.3,2.8-7.5,3.1-10.4,0.8c-2.5-2-2.4-5.9,0.2-9.1C256.1,466.6,260.4,466.4,264.4,469.7z"/>
		<path class="st0" d="M293.6,195.9c-3,0-4.8-1.7-4.8-4.5c0-2.7,2-4.6,4.8-4.7c2.7,0,4.6,1.8,4.6,4.4C298.2,194.1,296.4,195.9,293.6,195.9z"/>
	</g>
</g>
</svg>
