<?xml version="1.0" encoding="utf-8"?>
<!-- Generator: Adobe Illustrator 18.1.1, SVG Export Plug-In . SVG Version: 6.00 Build 0)  -->
<svg version="1.1" id="图层_1" xmlns="http://www.w3.org/2000/svg" xmlns:xlink="http://www.w3.org/1999/xlink" x="0px" y="0px"
	 viewBox="0 0 612 792" enable-background="new 0 0 612 792" xml:space="preserve">
<g>
	<g>
		<path d="M177.7,445.5c1.4,3.7,2.7,6.9,3.7,10.1c7.8,24.8,21.4,46,38.1,65.6c18.8,21.9,40,41.1,62.8,58.6c2.2,1.6,4.5,3.1,6.8,4.5
			c4.5,2.7,7.4,6.6,8.1,11.9c0.3,2.7,1.7,3.9,4.4,4.2c9.3,0.4,9.3,0.8,9.2-8.3c-0.1-7.3-2.7-13-8.2-17.6
			c-6.2-5.2-12.8-9.9-19.8-14.1c-20.8-12.3-37.9-28.6-53.4-46.9c-16.6-19.6-29.7-41.3-38.8-65.4c-2.1-5.5-3-11.4-4-17
			c-0.2-1.2-0.1-2.3,0.5-3.4c3.4-5.9,6.9-11.8,10.2-17.6c1.3,0,1.4,0.9,1.7,1.5c7,14.3,19.3,20.2,34.4,21.5
			c14.2,1.3,27.8-2.1,41.1-6c9.8-3,19.7-5.8,29.3-9.3c17.2-6.2,33.2-3,48.4,6.3c9.3,5.8,18.8,11.1,29.5,13.9
			c8.6,2.2,17.4,3.6,26.3,2.6c2.4-0.2,4.8-0.5,7.5,0.1c-2.8,11.1,5.9,19.2,7.4,29.4c2.5-4.3,4.6-8.7,2.4-13.6
			c-3.3-7.3-6-14.9-8.9-22.3c-0.1-0.4-0.5-0.8-0.8-1.1c-0.3,0.1-0.5,0.2-0.5,0.3c-1.1,5.8,0,5.5-6.9,5.2c-13.9-0.2-27-3.4-39.3-9.8
			c-0.5-0.3-1.1-0.7-2.5-1.4c6.4,0.4,12,1,17.6,1.2c8.1,0.3,16.2-0.2,24.2-2c8.3-1.9,15.2-6,20.3-12.9c0.5-0.7,0.9-1.5,2.3-1.7
			c1.3,5.9,5,10.7,6.7,16.6c0.8,2.8,0.8,5.8,0.1,8.6c-9.6,39.5-29.3,73.4-57.6,102.3c-12.5,12.7-25.4,24.8-38.3,37.2
			c-3.5,3.3-5.4,7.1-5.2,11.9c0.1,3.8-0.5,7.8-0.1,11.9c6.6,0.1,13,2.1,19.3-1.3c2.5-1.3,4.5,0.2,6.1,2.2c3.5,4.4,2.3,12.6-2.3,15.8
			c-1.2,0.9-2.6,1.1-3.9,0.5c-5.9-2.6-12.1-1-18.7-2.2c1.5,8.4,3.1,16.5,4.7,25.1c4.3-3.6,8.1-6.8,11.5-10.3c1-1,0.8-2.2,0.4-3.3
			c-0.5-2-1-3.9-1.5-6.3c4.6-0.1,9.4,1,12.3-3.7c2.3-3.6,3.4-7.4,2.7-11.7c-0.7-4.2-2.8-7.2-6.8-8.9c-4.2-1.7-7.4,1.4-11.4,2.2
			c0.9-9.1,3.6-16.7,10.1-23.2c8.3-8.4,17.8-15.5,25.8-24.3c8.9-9.6,18.6-18.5,26.3-29c6.1-8.2,11.3-16.9,15.4-26.2
			c6.4-14.3,13.3-28.5,17.7-43.6c0.1-0.4,0.4-0.9,0.5-1.3c4.6,2.6,5.7,4.3,4.4,8.1c-8.3,24.8-15.8,49.9-27.9,73.2
			c-13.6,26.4-27.9,52.3-45.2,76.5c-9,12.3-19.7,23.1-31.7,32.3c-14.5,11.3-33.8,11.5-50.8,1.3c-25.2-15.1-46.2-34.5-64.2-57.8
			c-25.4-32.9-45.1-68.5-58.4-107.9c-1.9-5.5-3.6-10.9-5.2-16.5c-1.3-4.3-0.4-5.8,3.7-7.4C173.4,451.7,175.2,448.8,177.7,445.5z
			 M282,618.2c3.3,0,6.1-1,8.5-3.3c1.5-1.5,3.3-2.4,5.5-2.4c12.6,0,25.1-0.5,37.7,0c6.9,0.3,13.8,0.9,20.7,1.5
			c2.1,0.2,4-0.1,4.9-2.3c1-2.2,0.5-4.2-1.1-5.9c-1.2-1.3-2.7-2.1-4.7-2.1c-2.6,0.1-5.2,0-7.9,0.1c-15.5,0.3-30.9,1.2-46.4,0.1
			c-2.7-0.2-4.8-1.2-6.4-3.4c-2.7-3.8-6.6-5-11.1-4c-4.8,1.1-8.4,3.6-9.7,8.6C269.8,612.8,274.1,618.3,282,618.2z M292.1,472
			c-4.5,7.2-8.6,14-12.8,20.8c-0.3,0.5-0.5,1.3-0.2,2c2.4,5.7,1.3,11.5,0.3,17.3c-1.1,6.3-1.6,12.8,0.1,19.1
			c0.5,2.1,0.5,4.3,0.7,6.3c0.3,4.9,0.2,9.7,1.1,14.5c0.4,2.4,0.8,2.6,3.1,3.3c-2.5-9.5-0.5-18.5,3.6-27.1c1.4-3,1.9-5.8,1.6-9.1
			c-1-13.6-0.2-26.9,3.2-40.1C293.2,477.1,293.3,474.9,292.1,472z M263.5,540.9c1.9-3.8,3.7-7.6,2.7-12.2c-0.7-3.2-0.7-6.4-0.5-9.6
			c0.7-10.9,1.7-21.7,1.3-32.7c-0.2-5.8,1.5-11.3,4.4-16.4c-3.7,0.9-5.6,3.5-6.8,6.6c-2.8,7.3-5.4,14.9-7.6,22.4
			c-1.1,3.6-1.1,7-0.1,10.6c2,7.1,2.4,14.4,0.8,21.7C256.4,536.9,257.7,538.8,263.5,540.9z M366,547.5c6.6-3.3,8.1-6.3,6.6-12.7
			c-0.2-0.9-0.4-1.7-0.7-2.5c-1.1-4.3-1.4-8.5,1.7-12.3c-4.5-4.6-5.4-10.3-5.9-16.2c-0.4-4.2-0.9-8.3-1.4-12.5
			c-0.8-4.9-2.3-9.5-5.2-13.6c-1.3-1.9-2.7-3.6-5.6-4.2c0.8,1.6,1.4,2.8,2,4c2.5,5.4,4.4,10.9,3.7,16.9c-0.9,8-0.8,16-1.5,23.9
			c-0.2,2.7-0.1,5.6,1.5,7.9C365.3,532.6,367.5,539.4,366,547.5z M239.7,518.7c1.2-1.1,1.3-2.4,1.5-3.6c0.8-3.5,0.9-7.1,1.1-10.7
			s0.5-7.3,2.3-10.5c1.2-2.1,1.3-3.9,0.5-6.1c-2-6.1-2.5-12.3-1.1-18.8c0.3-1.4,0.3-3,0.5-4.4c-4.5,5.4-7.5,11.4-9.4,17.8
			c-2.6,8.9-1.4,18-2.1,27C232.9,513.8,236.1,516.7,239.7,518.7z M387.7,525.3c1.9-1.4,3.2-3,4.3-4.8c2.3-3.9,3.5-8,0.7-12.3
			c-1.4-2.2-1.9-4.9-2.1-7.5c-0.3-4.4,0.4-8.7,0.7-13.1c0.3-6-0.7-11.7-3.9-16.8c-0.8-1.2-1.5-2.4-3.6-2c1,3.6,1.6,7,1.7,10.5
			c0.2,6.9-1,13.6-2.4,20.3c-0.5,2.8-0.8,5.7,0.8,8.2c1.4,2.2,1.5,4.5,1.2,7C384.7,518.5,385.2,522,387.7,525.3z M406.5,500
			c2.3-6.3,3.2-12,2.5-17.9c-0.5-4.7-0.9-9.3,1-13.9c0.3-0.9,0.5-2.1,0-2.8c-2.6-4-5.5-8.1-8.2-12.1c-0.2,0.1-0.4,0.2-0.7,0.3
			c1.6,10.9-2.8,21.7-1.1,32.7c4.2-0.3,5.5,0.7,6.3,4.4c0.3,1.5,0.2,3.1-0.1,4.6C406.1,496.5,405.7,498,406.5,500z M300.9,642.3
			c1.1-9.1,2.3-17.5,6.7-25.5c-3.5,0-6.2,0-9,0c-1.7,0-3,0.9-3.5,2.6c-1.4,5-2.8,9.9-4.3,15c-0.4,1.5,0,2.7,1.4,3.4
			C295,639.2,297.6,640.6,300.9,642.3z M225.7,451.2c-0.8,2.4-2.3,3.7-3.7,5.1c-1.2,1.2-2.4,2.6-3.4,4c-3.5,5.4-5.5,11.4-8.1,17.2
			c-0.5,1.1-0.4,2.3,0.1,3.4c1.3,2.8,3.1,5.4,5.5,7.4c1.9-0.9,2.8-2.3,2.1-4c-1.1-2.6-0.4-4.7,0.9-6.9c0.8-1.3,1.3-2.8,1.6-4.4
			c1.4-6.1,2.4-12.2,4.8-18C225.8,454,226.2,452.9,225.7,451.2z M253.1,532.6c0-8.6,0-16.8,0-24.9c0-2.1-1.1-3.4-3.5-3.6
			c-1.2,6.4-3.4,12.5-5,18.7c-0.2,0.8-0.5,1.6,0,2.3C247.1,527.6,249.3,530.7,253.1,532.6z M345.6,535.1c1.1,9.9,0.9,19.9,0.9,29.8
			c2.6-2,6-3,6.6-6.6C354.2,549.5,351.9,541.7,345.6,535.1z M303.7,569.9c-2-9.8-4.6-19-5.5-28.5c-2.8,6.6-4,13.3-3,20.2
			C295.9,565.9,299,568.5,303.7,569.9z M378.1,535.8c2.3-1,3.7-2.1,5.1-3.3c1.4-1.2,2.4-2.6,1.9-4.6c-0.9-3.5-1.5-7-3.2-10.3
			c-1.2-2.4-2.6-4.7-5.7-6.4C378.8,519.5,377.9,527.5,378.1,535.8z M430.3,447.6c3.3-6.3,4.4-12.8,1.3-19.6c-1-2.1-2.7-2.7-4.8-2.1
			c-0.9,0.2-1.4,0.7-1.1,1.7C427.5,434.1,428.4,440.9,430.3,447.6z M207.3,442.8c-7.4,4.3-10.6,18.7-5.6,21.4
			C205.6,460.5,207.3,453.7,207.3,442.8z M396.7,513.3c7.3-3.8,7.5-17.5,0.4-23.6C397.1,497.6,395.4,505.3,396.7,513.3z
			 M415.1,462.6c-1.7,7.3-1.9,19.2-0.3,22.9C421.2,479.4,421.5,468.9,415.1,462.6z M227.6,482.3c-1.4-0.4-2.1,0.2-2.5,1
			c-2.2,3.5-3.9,7.2-4.7,11.3c-0.7,3.1,0.9,4.9,4.2,6C229.9,495.1,226.3,488.2,227.6,482.3z M274.9,549.2
			c-0.5-6.1,0.3-12.1-0.7-18.9c-3,3.5-3.7,7.2-4.9,10.6C267.6,546,269,548.1,274.9,549.2z M194,445.2c-0.1-6.4,0.7-12.3,1.5-18.6
			C189.4,430.4,188.4,440.8,194,445.2z M211,460.6c-2.8,2.2-4.5,4.5-6,6.7c-1.7,2.5-1.4,3.5,1.5,5.6
			C208.3,469,210.7,465.6,211,460.6z"/>
		<path d="M306.2,309.8c0,8.4,0.1,16.5,0,24.6c-0.2,11.5-0.5,23.1-0.8,34.5c-0.1,2.8,0.9,3.8,3.8,3.8c6.9,0,13.9-0.1,20.8-0.2
			c3.2-0.1,3.9-1,3.9-4.7c0-18.1-0.2-36.3,0.8-54.4c0-0.8,0.1-1.5,0.2-2.7c28.4,2.6,56.4,6.3,85,11.7c-3.6,2.5-4.6,6.2-6.8,9.2
			c-3.9-1.6-5.8-6.6-11.1-6c0.8,3.1,2.2,5.6,4,7.9c2.5,3.2,3.8,6.3,0.8,9.9c-0.5,0.8-0.8,1.7-1.1,2.7c-0.4,1.1-0.7,2.1,0.5,2.8
			c1.2,0.8,2.2,0.3,3.2-0.5c1.7-1.6,2.3-4,4.5-5.7c1.9,1.4,3.7,2.7,5.7,4c1,0.7,2,1.5,3.2,0.4s1.1-2.5,0.2-3.7
			c-1.2-1.6-2.4-3.4-3.8-4.8c-1.4-1.5-1.3-2.7-0.2-4.4c1.5-2.3,3.3-4.5,3.5-7.3c0.1-1.3,0-2.7,0-4.4c4.4,0.4,8.6,1.6,13,2.4
			c8.1,1.5,16.3,3.2,24.5,4.6c2.4,0.4,2.5,1.7,2.1,3.5c-0.3,1.4-1.1,2-2.6,1.2c-1.5-0.7-3.1-1.2-4.7-1.7c-1-0.3-2-0.1-2.5,0.9
			c-0.5,1.1-0.1,2,0.7,2.6c1.7,1.4,3.5,2.8,5.4,4c1.4,1,1.9,2,1.6,3.6c-0.3,2.4-0.5,4.8,1.1,7c2,0,2.6-1.4,3.2-2.7
			c1-2.4,2.4-2.5,4.3-1.1c0.4,0.3,0.8,0.5,1.2,0.8c0.9,0.5,1.9,0.8,2.6-0.2c0.8-1,0.3-1.9-0.3-2.6c-0.7-0.8-1.3-1.4-2.1-2
			c-3.3-2.6-3.7-6-3-9.7c0.1-0.8,0.4-1.4,1.4-1.5c3.7-0.7,7.6,1.6,8.6,5.4c0.7,2.4,0.8,5,1.3,7.5c0.4,2.1,0.9,4.3,1.3,6.3
			c0.7,2.8-0.2,4.9-3,5.8c-6.2,2-11.3,5.7-15.4,10.7c-1.6,2-3.9,3.3-6.1,4.5c-5.9,3.2-9,8.2-9.6,14.8c-1,10.7,0.1,21.2,2,31.7
			c1.9,10.4,4.3,20.7,6.7,30.9c0.7,3,1.4,5.8,1,9.2c-1.9-1-2.6-2.4-3.3-3.8c-1.7-3.9-3.8-7.8-5.1-11.8c-2.5-7.8-5.9-15.1-8.5-22.7
			c-2.6-7.9-7.3-14.6-12.2-21.2c-2.3-3.2-5.7-5-9.3-6.3c-10.9-4-22.2-4.9-33.7-3.8c-24,2.4-48.2,4.6-72.3,4.8
			c-13.6,0.1-27.1-1.6-40.5-3c-11.7-1.1-23.3-2.5-35-3.5c-11.5-1-21.3,3.4-30.6,9.7c-8.9,6-14.9,14.2-19.2,23.8
			c-3.3,7.2-6.6,14.4-9.7,21.6c-1.1,2.3-2.3,4.6-4,6.4c-0.9,1-1.9,2-3.6,1.7c-0.4-1.9,0.2-3.6,0.7-5.4c3.8-14.6,7.9-29.2,10.5-44.2
			c0.5-2.8,0.9-5.8,1.4-8.6c1.6-9.9-1.5-18-9.2-24.5c-7.4-6.3-15.5-11.8-24.6-15.6c-4.3-1.7-4.6-2.5-3.6-6.9c1.1-5.1,2.5-10.3,5-15
			c1.2-2.3,3-3.7,5.5-4.6c16-5.4,32.5-8.2,49.2-10.5c32.3-4.3,64.9-5.4,97.5-5.2C302.4,309.9,304.6,309.2,306.2,309.8z M280.3,341.4
			c1.9-1.6,1.5-3.5,0.7-5.4c-1.4-3.3-0.9-6.1,2-8.4c1.4-1.2,2.4-2.7,3.2-4.5c0.8-1.6,1.1-3.4-0.5-4.5c-1.5-1.1-2.4,0.8-3.4,1.5
			c-4.8,3.8-4.8,3.8-8.1-1c-1-1.4-2.1-2.8-4-1.9c-2,1-1.1,2.6-0.4,4c2.1,4.7,1.1,8.7-2.4,12.3c-0.9,1-1.7,2.1-2.5,3.2
			c-0.8,1.2-2,2.6-0.3,3.8c1.4,1.1,2.7,0.1,3.9-0.9c2-1.6,3.7-3.4,6.1-4.5C276.7,337.1,277.5,340.3,280.3,341.4z M345.3,345.6
			c3.1-0.5,4.5-2.6,5.9-4.7c1.3-1.7,2.6-2.6,4.5-0.8c1,1,2.2,1.9,3.6,0.5c1.3-1.3,1.1-2.8,0.1-3.9c-3-3.4-2.1-6.6-0.1-9.9
			c0.9-1.4,1.6-3,1.6-4.6c0-0.9-0.1-1.9-0.9-2.3c-0.9-0.5-1.7,0.1-2.3,0.7c-1.1,1.1-2.1,2.3-3.1,3.5c-2,2.2-3.5,2.3-5.8,0.5
			c-1.2-0.9-2.2-2-3.5-2.5c-1.4-0.5-2.5-0.2-3.4,0.9c-0.8,1.1-0.8,2.2,0.1,3.3c0.8,0.9,1.6,1.6,2.5,2.4c3.2,3,3.5,4.7,1.3,8.4
			C344.3,339.7,343.8,342.4,345.3,345.6z M218.4,346.6c-0.3-3-2.1-5-3.6-7.2c-1.4-2-1.4-3.7-0.1-5.6c2.1-2.8,3.5-6,4.6-9.4
			c0.3-1,0.4-2-0.5-2.6c-1-0.7-1.9-0.2-2.6,0.5c-1.7,1.7-3.4,3.5-5.1,5.2c-2.5,2.5-2.8,2.4-5.2-0.2c-1.3-1.4-2.5-3.2-4.8-3.2
			c-0.7,1-0.2,1.6,0.1,2.3c2.7,5.6,3.6,11,0.4,16.7c-0.4,0.9-0.3,1.7,0.4,2.4c0.8,0.7,1.6,0.4,2.4,0c0.7-0.4,1.3-0.9,1.9-1.4
			c2-2.2,3.6-2,5.6,0.1C213.5,346.1,215.4,347.6,218.4,346.6z M163.9,332.7c-0.7-1-1.3-1.9-2-2.7c-0.8-1-1.6-1.9-3-1.2
			c-1.1,0.5-1.3,1.9-0.9,2.8c2.2,4.9,1.2,9.5-1.4,13.9c-0.8,1.2-1,2.8,0.4,3.7c1.2,0.8,2.1-0.5,3-1.3c0.4-0.3,0.8-0.9,1.2-1.3
			c1.3-1.4,2.4-1.3,3.6,0.1c0.7,0.9,1.3,2.3,2.7,1.4c1.3-0.8,1.6-2.3,1-3.6c-2.1-4-1-7.5,1.6-10.8c0.8-0.9,1.2-2,1.6-3.1
			c0.4-1,1.1-2.1-0.1-2.8c-1.2-0.9-2.2,0-3.1,0.8C167.3,330,166.3,331.8,163.9,332.7z"/>
		<path d="M157.3,318c-0.1-0.4-0.3-0.8-0.3-1c2.3-14.1,3.7-28.4,7.6-42.3c2.6-9.1,8.4-14.4,17.3-16.9c15.5-4.4,31.4-7.1,47.4-8.6
			c26.1-2.6,52.3-2.6,78.7-2.2c44.8,0.8,89.1,5.9,132.6,17.4c5.7,1.5,11.1,3.5,16.7,5.2c2.7,0.9,4.4,2.6,4.9,5.4
			c3.4,17.2,7,34.2,8.6,51.7c0,0.4-0.1,0.9-0.1,1.4c-1.9,0.3-3.4-0.4-5-0.8c-32.1-6.9-64.5-12.5-97.2-16.5
			c-10.1-1.2-20.2-2.2-30.3-3.1c-2.3-0.2-3.3-1-3.2-3.4c0.1-3,0-5.9,0.1-8.7c0.1-2.1-0.5-3.8-2-5.2c-3.6-3.4-6.8-7.3-9.9-11.1
			c-2-2.4-3-2.4-4.8,0.1c-2.2,3.1-4.7,5.8-7.4,8.2c-3.1,2.6-3.9,6.1-3.7,10.1c0.7,8.3,0.7,8.2-7.6,8.4c-28.1,0.8-56.2,1.1-84.2,3.6
			c-18.1,1.5-36.3,3.9-54.1,7.9C159.9,317.4,158.6,317.6,157.3,318z M404.1,261.9c-1-0.1-1.4,0.5-1.5,1.4c-0.1,1,0.2,2,0.5,2.8
			c2,4.8,1.9,9.3-1.6,13.4c-0.9,1.1-1.3,2.4-1.6,3.7c-0.2,0.9,0.1,1.5,0.8,2.1c0.8,0.7,1.5,0.3,2.1-0.2c1.1-0.9,2.2-1.7,3.1-2.6
			c1.4-1.4,2.4-1.3,3.4,0.4c0.8,1.3,1.4,2.7,2.7,3.7c1.5,1.2,2.7,0.7,3-1.3c0.1-1.1-0.4-2.1-0.9-3.1c-2-4.5-1.5-8.5,1.7-12.2
			c0.4-0.5,0.9-1.1,1.2-1.6c1-1.5,1.7-3.4-0.2-4.7c-2.1-1.4-2.6,0.9-3.5,1.9c-3.1,3.5-3.6,3.5-5.9-0.5
			C406.9,263.5,406,262.1,404.1,261.9z M280.5,257.1c-2.3-1.6-3.4-4.7-7-3.9c3.3,5.6,3.2,10.8,0.3,16.3c-0.8,1.5-3.1,3.3-1,4.8
			c2.2,1.5,3.6-0.9,5-2.2c3-2.7,3-2.8,5.9-0.2c0.9,0.8,1.9,1.7,3.1,0.7c1.1-0.9,0.8-2.1,0.2-3.2c-2-3.8-1.4-7.5,0.3-11.3
			c0.5-1.1,1.1-2.1,1.2-3.3c0.1-1.3-0.1-2.3-1.4-3c-1.2-0.5-2.3-0.2-3.2,0.8C282.9,254,281.8,255.6,280.5,257.1z M221.3,277.6
			c2.2-1.5,1.6-3.5,0.9-5.4c-1.2-3-0.7-5.5,1.5-7.8c1.3-1.4,2.4-3.1,3.5-4.7c0.8-1.1,1.6-2.3,0.4-3.4c-1.4-1.4-2.5,0-3.6,0.8
			c-0.9,0.7-1.6,1.4-2.4,2.1c-2.5,2.2-3.3,2-4.7-1c-0.8-1.6-1.4-4.3-3.6-3.4c-2.2,0.9-0.9,3.2-0.2,4.9c1.5,4.6,0.8,8.6-2.5,12.1
			c-0.5,0.7-1.2,1.3-1.6,2.1c-0.5,0.8-0.7,1.6,0,2.5c0.8,1,1.6,0.5,2.3,0.1c1.2-0.8,2.5-1.6,3.5-2.5c1.3-1.2,2.4-1,3.4,0.4
			C219,275.6,219.7,277,221.3,277.6z M446.8,285.7c0.2,0.3,0.3,0.8,0.5,1c1.3,1.4,2.3,4.7,4.7,3c2.2-1.5-0.1-3.9-1.2-5.6
			c-1.4-2.2-2.2-4.6-1.7-7.2c0.2-1.3,0.8-2.6,1-3.9c0.2-1.3-0.1-2.4-1.5-2.7c-1.4-0.4-1.9,0.5-2.4,1.6c-1.6,3.2-2.8,3.3-5.1,0.2
			c-1.2-1.5-1.9-3.4-3.9-4.4c-1.3,1.9-1.1,3.6,0.1,5.1c3.6,4.7,4.8,9.7,2.3,15.3c-0.5,1.1-0.3,2.2,0.8,2.7c1.2,0.7,2-0.1,2.7-1
			C444.2,288.7,445,287,446.8,285.7z M348.9,272.5c1.4,1.3,2.5,2.5,3.8,3.6c1.6,1.3,2.5,0.4,2.8-1.3c0.1-0.8-0.2-1.5-0.4-2.3
			c-1.4-4.4-1.5-8.6,1.1-12.6c0.8-1.1,1-2.2-0.3-3.1c-1.3-0.9-2.3-0.4-3.3,0.8c-2.4,3.1-3,3.1-6.1,0.8c-0.9-0.7-1.7-1.9-3.1-0.8
			c-1.2,1.1-0.3,2.2,0.2,3.2c2,3.7,1.7,7.3-0.5,10.8c-0.3,0.5-0.8,1.2-1,1.7c-0.4,1-0.3,2,0.5,2.6c1,0.8,1.9,0.2,2.6-0.4
			C346.5,274.8,347.6,273.7,348.9,272.5z M178.9,278.7c1.3,1,2.6,2,3.8,2.8c0.9,0.7,1.9,1.7,3.1,0.7c1-0.9,0.5-2.2-0.1-3
			c-3.5-4-2.6-7.8,0.5-11.4c0.4-0.5,0.7-1.2,1-1.7c0.4-0.9,1.1-1.7,0-2.6c-1-0.8-2.1-0.8-3-0.1c-1,0.8-1.7,1.7-2.5,2.7
			c-2.4,3-2.6,3-5.7,0.9c-0.9-0.7-1.9-1-2.7-0.3c-1.1,0.9-0.2,1.7,0.2,2.5c1.6,3,1.2,5.8-0.5,8.5c-0.5,0.8-1.1,1.6-1.4,2.5
			c-0.4,1.1-0.1,2.2,0.9,2.8c1,0.7,1.6-0.1,2.3-0.7C176.2,281.4,177.5,280,178.9,278.7z"/>
		<path d="M434.6,215.6c-0.9-0.2-1.5-0.3-2.1-0.7c-18.9-9-39.1-13.1-59.7-16.1c-24.7-3.5-49.5-6.1-74.3-5.2
			c-18.4,0.7-36.8-0.1-55.2,2c-13.1,1.5-26,3.7-38.8,7c-1.1,0.3-2.3,1.1-3.4,0.1c-1.2-1.1-0.1-2.2,0.2-3.2
			c3.4-10.7,8.5-20.5,14.5-29.9c6.7-10.5,16.8-16.1,28-20.1c30.4-11.3,61.7-14.4,93.8-11.4c17,1.6,33.7,5.4,49.5,12
			c13.7,5.7,24.5,14.6,32.6,27c6.9,10.5,11.9,21.6,14.8,33.9C435,212.4,435.6,213.8,434.6,215.6z"/>
		<path d="M436.8,222.1c4.9,2.7,8.4,6.3,9.4,12.1c1.3,8.2,3.1,16.3,4.7,24.5c0.3,2,0.4,3.6-2.3,2.6c-13.4-4.6-27.6-5.8-41.5-8.2
			c-17.4-3.1-34.9-5.7-52.5-7.3c-21.9-2-43.8-2.5-65.8-2.2c-14.9,0.2-29.6,0.1-44.5,0.8c-21.5,0.9-42.6,4.4-63.3,10.7
			c-0.9,0.3-1.9,0.5-2.7,0.8c-0.2-0.3-0.3-0.4-0.3-0.7c1.7-8.3,1.9-16.8,3.4-25.2c1-5.5,2.8-10.5,6.2-15c0.7-0.9,1.3-1.6,2-2.4
			c3.1,2.7,3.4,4.8,1.4,7.9c-0.9,1.4-2.1,2.6-2.3,4.4c-0.1,1-0.1,2.1,0.8,2.7c1,0.8,2,0,2.6-0.7c2-2.1,3.6-2.7,5.6,0
			c0.9,1.2,1.9,0.4,2.3-0.9c0.3-0.9,0-1.7-0.4-2.5c-1.4-2.6-0.9-5,0.8-7.3c1.4-2,2.6-4,2.3-6.9c-3.8-0.9-4.5,3-6.9,4.3
			c-1.5-0.7-2-2.3-3.3-3.5c4.8-2,9.5-3.2,14.2-4.3c22.8-5.7,46-8.3,69.5-8.4c10.7,0,21.4,0.7,32.1,0.9c11.1,0.3,22.2,0.3,33.3,0.9
			c23.8,1.3,47.3,4.8,70.5,10.7c7.8,2,14.8,6,21.7,9.9c-2.4,4.2-2.4,4.2-6.3,3.1c-1.2-0.3-2.3-0.4-3.5,1c3.6,3.3,4.5,7.4,2.7,12.1
			c0.8,0,1.2,0.1,1.3,0c2.4-1.7,4.6-3.8,7.5-0.7c0.7,0.7,1.7-0.5,1.9-1.6c0-0.5-0.1-1.2-0.5-1.6
			C433.6,228.9,434.8,225.6,436.8,222.1z M289.6,221.7c1-2.2,0-4.2-1.2-5.8c-1.7-2.4-1.3-4.2,0.8-5.9c1.3-1.2,2.5-2.7,3.6-4.2
			c0.7-0.8,1.1-1.6,0.2-2.6c-0.8-0.8-1.6-0.3-2.4,0.1c-1.3,0.9-2.6,1.7-3.8,2.6c-3,2.1-3.7,2.1-6.1-0.7c-1-1.1-2-2-3.8-1.7
			c0.1,3.7-0.1,7.3-1,10.8c-0.4,1.6-2.4,3.6-0.4,5c1.6,1.2,3.3-0.7,4.6-1.6c2.1-1.4,3.5-1,4.8,1C286,220.3,287.3,221.8,289.6,221.7z
			 M396.6,210.3c0.2,2.5,1.3,4.6,1.4,6.9c0.1,2.6-2,4.2-3.1,6.1c-0.7,1.1-0.7,2.3,0.4,3.2c1,0.9,2.1,0.7,3-0.1
			c2-1.7,3.5-1.9,4.8,0.7c0.2,0.4,0.7,0.8,1,1.1c0.5,0.5,1.3,1.1,2.1,0.7c0.8-0.4,0.9-1.3,0.9-2.1c0-0.7-0.1-1.4-0.3-2
			c-1.4-3.8-1.6-7.4,0.9-10.8c0.8-1,0.5-2.1-0.4-2.8c-0.9-0.8-2.2-1.6-2.8-0.9c-2,2.2-3.7,1.5-5.7,0.1
			C398.2,210.1,397.6,210.3,396.6,210.3z M218.1,220.1c2,0.5,3.5,0,4.9-0.9c2.7-1.6,4.9-1.3,6.9,1.2c0.8,1,2,2.4,3.4,1.3
			c1.3-1,0.5-2.5-0.3-3.6c-1.9-2.4-1.4-4.4,0.7-6.3c1.9-1.7,3-3.9,3.2-7.2c-2.2,1.3-4,2.2-5.6,3.4c-2.5,2-4.5,2-6.3-0.9
			c-0.9-1.4-2.3-2.3-4.2-1.7c-0.5,1.6,0,3.2,0.9,4.3c2.3,2.7,1.5,4.8-1.1,6.7C219.2,216.9,218.2,218.1,218.1,220.1z M346.5,210.4
			c-1.1-0.9-1.7-1.4-2.4-1.9c-1.1-0.8-2.2-2.5-3.7-1.1c-1.7,1.5-0.2,2.8,0.9,3.9c1.7,2,1.9,3.9,0.4,6.1c-0.7,1-1.2,2-1.7,3.1
			c-0.5,1.2-0.2,2.3,0.8,3.2c1.1,0.9,1.9-0.1,2.5-0.5c0.8-0.5,1.5-1.2,2.2-2c1.3-1.7,2.7-1.9,4.5-0.5c1,0.8,2.2,1.7,3.3,0.3
			c1-1.2,0-2.2-0.7-3.1c-1.9-2.2-1.7-4.4-0.4-6.8c0.4-0.8,0.9-1.5,1-2.4c0.3-1.2-0.2-2.1-1.3-2.6c-1.1-0.5-1.5,0.3-2.2,0.9
			C348.6,208.1,347.6,209.2,346.5,210.4z"/>
		<path d="M569.9,400c-4.6,0.8-8.7,1.3-13,2.1c-19.9,3.5-38.6,10.2-56.5,19.3c-11.1,5.7-22.7,10.3-32.6,18.3
			c-3.1,2.5-5.7,5.4-6.6,9.4c-0.4,1.6-0.5,3.3,0.7,4.7c0.2,0,0.5,0,0.5-0.1c3-6.9,8.2-11.4,14.4-15.2c8.9-5.4,18-10.2,27.1-15.1
			c2.1-1.1,3.1-0.3,3.4,1.5c1.4,7.6,4,14.9,7.5,21.7c1,2,0.1,3.6-1.2,5c-2.8,3.4-6.6,5.8-10.5,7.9c-8.3,4.4-16.4,9-23.7,15
			c-6.1,5-8.9,11.3-8.1,19c0.3,3.3,0.8,6.6,1.1,9.9c0.1,0.9,0.7,1.9-0.2,3c-1.1-1-1.5-2.3-1.7-3.6c-1-5.9-2.8-11.6-4.8-17.2
			c-1.4-4-2.1-8.1-1.7-12.3c0.2-3.1-0.3-6-1.3-9c-6.7-19.9-11-40.2-14.5-60.9c-0.9-5.4-0.9-10.7-0.5-16.1c0.2-4.8,2.2-8.6,5.9-11.7
			c7.4-6.2,15.5-11.4,23.8-16.4c11.9-7.3,24.6-13.2,37.8-17.7c8.1-2.7,16.6-3.4,25.1-3.6c3.1-0.1,4.7,2,6.1,4.4
			c5,8.3,9.1,17,12.3,26.1c3.6,9.8,7.2,19.6,10.7,29.4C569.7,398.4,569.7,399.1,569.9,400z M484.1,381.7c0.2,12.9,7.6,22,21.2,23.8
			c11.7,1.6,22.6-8,21.9-19.6c-0.9-11.9-6.8-20.9-17.5-26.2c-7.2-3.7-15.4-1.7-20.7,4.5C485.3,368.8,483.9,373.9,484.1,381.7z"/>
		<path d="M144.6,509.9c0.5-5.9,1.1-11.1,1.5-16.4c0.2-2.7,0.5-5.5,0.7-8.2c0.4-10.1-3.6-17.7-11.9-23.3c-5.8-3.8-12-7-17.3-11.5
			c-4.6-3.8-4.7-3.9-2.3-9.3c2.7-6.2,4.9-12.6,6.3-19.1c0.1-0.8,0.2-1.5,1.2-2.5c13,4.7,24,12.9,35.5,21.9c-0.8-2.7-2.1-4.3-3.4-5.7
			c-5.4-5.5-11.7-9.7-18.4-13.6c-17.3-9.7-35.6-16.7-54.4-22.7c-1.9-0.5-3.7-1.2-5.6-1.9c-3.6-1.2-4.5-3-3.1-6.8
			c3.9-11,8.3-21.9,13-32.7c1.5-3.5,3.1-7,4.7-10.4c2.3-4.9,5.4-6.8,10.5-5.8c22.9,4.5,45,11.1,64.6,24.6
			c10.7,7.4,14,14.8,11.4,27.5c-3.7,18.8-9.2,37.2-13.4,55.8c-3.4,15.1-6.9,30.1-10.4,45.1c-1.2,5.2-3.2,10.1-7.5,13.6
			C146,509,145.6,509.2,144.6,509.9z M114.4,385.8c0.3,6.9,4.2,13,11.1,17.2c7,4.2,13.8,3,19.2-3.1c9.2-10.1,5-24.9-1.3-31.3
			c-1.5-1.5-3.4-2.6-5.6-3.1C126.2,363.2,114.8,372.6,114.4,385.8z"/>
		<path d="M544.8,509.2c-2.2-1.6-3.2-4.5-6.1-5.6c-1.9,2-1.5,4-0.4,6.1c0.9,1.7,2.1,3.3,3.1,5c1.5,2.6,1.9,5.2,0.9,8.2
			c-0.4,1.1-0.7,2.3-0.2,3.4c0.3,0.9,0.9,1.6,1.7,1.9c1.1,0.2,1.6-0.5,2-1.4c0.7-2,1.9-1.5,3.3-0.8c2.7,1.5,3.9,4,4.3,6.9
			c0.4,3.7,0.5,7.4,0.8,11c0.5,11.3,1.1,22.6,2.6,33.9c0.3,2.3,0.8,4.6,2,6.7c1.3,2.3,0.9,4.4-1.4,5.8c-7.3,4.6-14.5,9.5-22.3,13.3
			c-4.7,2.3-9.7,2.1-14.9,1.2c-10.2-1.7-15.7-7.1-17.8-17.6c-3-15.1-6.8-30.1-8.5-45.5c-0.4-3.6-0.8-7.2-0.8-10.8
			c-0.2-10.4,6.2-19.1,16.2-22.1c7.3-2.1,14.1-5.2,20.5-9.2c3-1.7,5.8-3.7,7.6-6.7c0.7-1,1.2-1.5,2.6-0.9
			C546.3,495.7,548.5,502.7,544.8,509.2z M512.4,547.1c3.5-2.6,2.8-6.7,4.3-9.5c1.6-0.3,2.6,0.5,3.9,0.9c0.9,0.2,1.9,0.3,2.4-0.5
			c0.5-0.9,0.1-1.7-0.4-2.4c-0.4-0.5-0.9-1.1-1.4-1.4c-3.2-2-3.9-4.9-3.4-8.4c0.2-1.6,0.4-3.3,0.4-4.9c0-2-0.4-3.8-2.4-5
			c-3,3.2-1.6,7.8-3.8,11.3c-3.2-0.7-6.1-3.5-9.3,0c1.5,1.2,2.8,2.5,4.4,3.4c3.7,2,5,4.7,4,9C510.3,541.9,510.6,544.5,512.4,547.1z"
			/>
		<path d="M77.2,530c1.3,1.2,2.5,2.4,3.7,3.5c0.7,0.5,1.4,1.2,2.4,0.7c1-0.5,1.1-1.6,0.9-2.6c-0.3-1.1-0.8-2.2-1.1-3.3
			c-1.9-5.5-2.4-10.8,0.3-16.2c0.8-1.5,0.9-3.2,0.9-4.8c0-1.4-0.7-2.4-2-2.8c-1.5-0.5-2.1,0.5-2.7,1.6c-0.5,1-1.2,2-1.9,3.1
			c-3.6-6.3,1-17.3,9-21.4c0.9,4,4.2,5.7,7.2,7.4c10.1,5.8,20.5,10.3,31.9,12.9c2.6,0.5,3.4,2,3.3,4.6c-0.5,8.4-1.4,16.7-3.1,24.9
			c-3,14.6-4.4,29.5-7.3,44.2c-0.9,4.3-1.7,8.6-3.8,12.6c-4.2,7.8-10.5,9.9-18.3,6.3c-7.5-3.5-14.5-8-20-14.4
			c-3.8-4.5-5.5-9.5-5-15.4c0.9-11.6,1.7-23.2,2.5-34.8C74.2,533.6,74.6,531.4,77.2,530z M100.2,517.2c-1,1.9-0.5,3.7,0.2,5.4
			c2.3,4.8,2.1,9.6,0.2,14.4c-0.3,1-0.7,2.1-0.9,3.1c-0.2,1.2-0.2,2.5,1,3.2s2.2-0.3,3.1-1.1c1.1-0.9,1.5-2.5,3-3.2
			c1.1,0.5,1.4,1.6,2.1,2.4c1,1.1,2.1,2.4,3.6,1.3c1.5-1,0.7-2.5-0.1-3.6c-2.5-3.9-2.4-8.1-1-12.3c0.8-2.2,1.7-4.4,2.1-6.7
			c0.3-3-0.4-5.5-2.8-7.5c-2.7,2.8-3,6.8-5.7,9.3C103.1,520.5,102.9,517.5,100.2,517.2z"/>
		<path d="M465.8,504.8c9,9,13.3,20,16.1,31.8c1,4.3,2.4,8.4,7.6,9.3c1.2,0.2,1.4,1.5,1.6,2.5c2,9.3,3.8,18.6,6.3,27.6
			c0.8,2.8-0.3,3.9-3.8,3.6c-9.1-0.8-18-1.5-27.1-2.4c-9.8-0.9-19.6-1.9-29.4-2.8c-4.7-0.4-5.4-1.4-3.7-5.8
			c4.8-12.8,11.6-24.7,17.7-36.9c3.1-6.1,6-12.2,8.6-18.6C461.2,509.9,462.9,506.6,465.8,504.8z"/>
		<path d="M122.9,571.8c0.1-2.2,0.8-4.6,3.1-6.2c6.4-4.5,9.6-11.1,11.8-18.4c1.2-3.9,1.4-8.1,2-12.1c0.7-4.9,1.7-9.8,3.3-14.5
			c1.5-4.9,4.7-8.4,9.1-11c2-1.2,3.5-1.1,4.4,1.3c5.2,14.8,14.1,27.5,22.5,40.7c4.2,6.4,10.1,11.4,15,17.2c0.4,0.5,0.9,1,1.3,1.5
			c0.5,0.8,1.3,1.6,0.8,2.6c-0.5,0.9-1.6,1-2.6,0.9c-13.6-1.4-27.1,0.3-40.5,1.7c-8.2,0.9-16.3,1.9-24.5,2
			C124,577.6,122.9,576.5,122.9,571.8z"/>
		<path d="M524,473.8c1.7-1.1,2.1-2.6,2.3-4.2c0.1-1.4-0.1-3,0.4-4.4c1.6-0.5,2.2,0.7,2.4,1.7c1.7,6.8,3.4,13.7,5,20.4
			c0.7,2.8-1.1,4.6-3.3,6c-3.9,2.5-8.1,4.7-12.3,6.7c-6,2.8-12,5.6-18,8.4c-3,1.4-5.6,3.2-8,5.4c-4.2,3.9-6,8.6-4.9,14.5
			c0.9,4.7,1.4,9.4,2.3,14.6c-2.8-1.3-4-3.2-4.6-5.5c-1.5-5.9-3-11.9-4.5-17.9c-2.5-10.2-5.7-20.3-6.3-30.9c-0.1-1.5-0.2-3.2,0-4.7
			c0.2-2.6,1.4-4.6,4.3-5.4c1.4-0.4,2.8-1,3.9-1.9c8.2-7,18.7-10.6,26.8-17.7c1.2-1.1,2.6-2.1,4-3.2c2,1.5,3.7,3.2,5.8,4.4
			c1.7,1.1,1.4,3.3,1.6,5C521.2,468.7,521.2,471.7,524,473.8z M484.1,479.4c-0.4,2.1,0.4,3.5,2.2,4.5c2.7,1.4,3.7,3.6,3.4,6.4
			c-0.1,0.7,0,1.4,0,2.1c0.2,1.3,0.8,2.3,2.2,2.4c1.3,0.2,2.2-0.7,2.6-1.9c0.4-1.1,0.8-2.2,1.3-3.5c1.2,0.3,2.2,0.7,3.2,1
			c1.1,0.3,2.1,0.7,2.8-0.5c0.7-1.1,0.7-2.4-0.3-3c-4.5-2.7-6.8-6.4-6.7-11.7c0-1.2-1.3-2.1-2.5-2.1c-1.4,0-1.5,1.3-1.9,2.3
			c-0.5,1.4-0.1,3.2-1.3,4.4C487.4,480.3,486.1,478.4,484.1,479.4z"/>
		<path d="M127.3,560c0.3-3,0.4-5.1,0.7-7.3c1.5-14.5,3.5-29.1,3.4-43.7c0-2.6-0.9-3.9-3.3-4.7c-7.7-2.5-15.1-5.1-22.7-7.5
			c-5-1.5-8.9-5.4-13.6-7.4c-1.4-0.7-1-2.4-0.5-3.7c1.3-3.6,2.6-7.1,3.9-10.7c0.5-1.5,1.7-2.5,3.2-3.3c2.1-1.1,2.4,0.8,3.4,1.7
			c1.2,1.2,2.4,0.7,3.2-0.5c0.4-0.8,0.7-1.6,0.5-2.5c-0.2-4.6,1.4-8.5,4-12.2c1.9-2.7,1.6-3.7-0.8-5.6c-1.6,0.5-2.4,2.3-4,2.6
			c-3.2-2.7-1.2-7.2,2.4-9.1c1.1-0.5,1.6,0,2.2,0.7c1.6,1.7,3.3,3.6,4.9,5.4c4.6,4.9,9.8,8.9,16,11.7c9.9,4.7,13.3,10.8,12.3,21.7
			c-1.7,20-4,40-7.5,59.8c-0.7,3.8-1.5,7.6-3.8,10.9C130.3,557.6,129.3,558.8,127.3,560z M123.1,489.7c0.3,0.3,0.5,0.7,0.8,1
			c1,1.1,1.1,3.4,3.2,2.8c2-0.5,1.5-2.6,1.7-4.3c0-0.4,0-1-0.1-1.4c-0.1-4.5,0.8-8.7,3.1-12.6c0.4-0.9,0.9-1.7,1.1-2.7
			c0.2-1.1-0.2-2.2-1.1-2.8c-1.1-0.8-1.7,0.3-2.4,0.9c-0.7,0.5-1.2,1.3-2.4,1.2c-0.3-0.4-0.8-1-1-1.5c-0.8-1.5-1.4-3.3-3.6-2.5
			c-2.1,0.8-1.3,2.5-1.1,4c0.8,4.8,0.3,9.3-2.2,13.6c-1,1.6-2.6,3.4-0.9,5.2C119.8,492.3,121.1,489.9,123.1,489.7z"/>
		<path d="M309.4,369c-0.8-1.2-0.4-2.3-0.4-3.4c0.7-18.1,1.3-36.3,1.9-54.4c0.1-4.4,0-8.7-0.1-13.2c-0.1-3.9,1.2-7.2,4.2-9.9
			c2-1.9,4-3.7,6-5.6c7,5.1,11.6,11.8,10.9,21.2c-0.9,13.3-0.5,26.8-1.1,40.1c-0.2,6.8,0.2,13.7-0.3,20.4c-0.2,2.7-1,4.2-4,4.4
			C320.8,369,315,369.2,309.4,369z M329.7,299.1c0.1-4.6-3.8-8.4-8.5-8.5c-4.9-0.1-9.1,3.5-9.1,8c-0.1,4.6,4.6,9.5,9.3,9.6
			C325.5,308.1,329.6,303.7,329.7,299.1z"/>
		<path d="M227.4,608.6c2.2,1,3.5,2.1,4.8,3.3c2.8,2.5,5.2,5.6,8.4,7.6c1.3,0.9,1.4,2.2,1.5,3.6c0.3,4.5,2.1,8.1,5.9,10.6
			c3.2,2.1,6.4,3.7,9.8-0.2c3.7,4.8,7.5,9.1,12,12.6c13.1,10.3,27.6,17.2,44.4,18.8c18.4,1.7,34.4-3.5,47.4-17.2
			c5.9-6.2,12.2-12,18.5-18c0.9,1.1,0.1,1.6-0.3,2.2c-6.4,9.3-12.9,18.6-19.5,27.9c-4.9,6.9-10.8,12.6-19,15.5
			c-7.5,2.7-15.5,2.6-23.4,2.4c-11.3-0.3-22.1-2.6-32.1-7.6c-2.8-1.4-5.6-3.4-7.8-5.7c-7.3-7.5-15-14.9-21.1-23.5
			c-0.9-1.2-2-1.7-3.4-2c-9-1.2-12.8-5-13.4-14c-0.1-1.7-0.8-2.8-2.2-3.8c-4-3.1-6.6-7.4-10.2-10.8
			C227.5,610.1,227.6,609.5,227.4,608.6z M288.6,660.7c-2,6.3,3.1,9.9,13.6,10.7c0.5-1.9,1.6-4.2-0.8-5.4
			C297.3,664.1,292.9,662.5,288.6,660.7z M356.6,658.9c-1.5-0.8-2.3-0.1-3,0.3c-2.6,1.5-5.2,2.8-8.2,3.9c-3.7,1.3-4.7,3.9-3.2,8.1
			C347.9,668.1,352.9,664.4,356.6,658.9z"/>
		<path d="M410.6,563.4c0.1-3,1.7-4.5,2.6-6.3c3.6-7.3,7.6-14.5,10.9-22c3.7-8.5,9.6-15,17.7-19.6c5.2-3,10.5-5.8,15.4-9.4
			c0.7,1.5,0,2.3-0.4,3.2c-5.9,11.7-12.2,23.3-19,34.6c-2.8,4.7-6.4,8.2-11.5,10.4C420.9,556.4,415.9,559.9,410.6,563.4z"/>
		<path d="M457.7,469.9c2,8.2,3.8,15.7,5.6,23.3c0.3,1.3-0.3,2.3-1.3,3.1c-8.6,7.4-18,13.8-27.8,19.8c-1.1-1.2-0.4-2.2-0.1-3.1
			c3.1-8.2,6.1-16.4,9.2-24.7C446.2,480.8,451.8,475.7,457.7,469.9z"/>
		<path d="M187,526.3c-3.8-2.3-7.5-3.7-11.4-4.8c-6.9-2.1-11.3-6.7-13.9-13.2c-1.1-2.8-1.6-6.1-4.7-7.9c-0.5-0.3-0.5-1-0.4-1.5
			c0.7-3.7,1.4-7.4,2.2-11.7c2.7,1.5,5,3.2,7.5,4.3c6.8,2.8,10.9,7.6,13,14.9c1.6,5.8,4.6,11.1,7,16.7
			C186.8,523.9,187.5,524.7,187,526.3z"/>
		<path d="M331.7,133.9c-10.1,1-19.6,0.8-29.8-0.5c5.2-5.8,4.9-13.2,7.3-19.7c1.9-5,4.8-7.1,9.9-6.9c3.5,0.1,5.4,1.4,6.6,4.8
			c1,2.8,1.4,5.9,1.5,8.9c0.2,4,1.2,7.9,3.5,11.3C331.1,132.2,331.2,132.8,331.7,133.9z"/>
		<path d="M201.9,552c-13.7-0.4-26.9-11.1-31.8-27.9C182.1,523.3,198,537.2,201.9,552z"/>
		<path d="M424.8,562.3c-3.6,4.8-7.1,9.6-10.7,14.4c-3,3.9-6.2,7.8-9.1,11.8c-3.8,5.4-9.6,7.2-15.4,9.3
			C398.1,582.9,405.9,567.3,424.8,562.3z"/>
		<path d="M187.5,553c11.1-1.1,25.1,8.6,28.3,19.8C204.5,575.4,194.7,567.8,187.5,553z"/>
		<path d="M236.7,600c-5.6-2.4-11-4.8-17.2-4.8c-0.4,0-1.1-0.4-1.4-0.9c-3.8-5.4-7.7-10.7-11.7-16.4c5.8-1,10.9-0.7,15.1,3.2
			C227.6,586.6,232.2,593.3,236.7,600z"/>
		<path d="M347.7,644c6.7-8.3,15.2-12.5,26.1-13.9c-5,6.1-9.7,11.6-15.3,16.3c-0.8,0.7-1.7,0.7-2.7,0.4
			C353.1,646.3,350.5,645.4,347.7,644z"/>
		<path d="M395.1,600.7c-2.7,11.4-16.8,23.8-27.3,24.4C375.6,615.6,383.8,606.9,395.1,600.7z"/>
		<path d="M165.5,464.2c2.7,9,5.5,17.9,8.4,27.6c-4.6-2.5-8.3-4.5-12-6.6c-1.1-0.7-1.6-1.6-1.4-3c1.3-6,2.7-12.1,4.2-18.1
			C164.8,464.2,165.1,464.2,165.5,464.2z"/>
		<path d="M279.8,638.3c-7.8,3.5-19.1-1.9-27.3-13.3C257.8,623.8,276.1,632.6,279.8,638.3z"/>
		<path d="M272.7,644.2c7.2-3.8,18.7-1.9,23.7,3.9c-2.5,4.4-6.6,5.9-11,4C280.8,650.2,276.9,646.9,272.7,644.2z"/>
		<path d="M293,655.8c2.2-1.7,4.2-3.4,6.2-4.9c0.8-0.5,1.6-0.5,2.5-0.4c3.4,0.3,6.7,1.2,9.9,2.2c2.6,0.9,3,2.5,2,4.8
			c-1.7,4.3-2.6,4.7-7,3.5C302.1,659.6,297.4,658.3,293,655.8z"/>
		<path d="M352.7,650.6c-5.8,3.6-10.9,7.9-18,8.9c-0.7-2.7,0.5-5.4-0.2-7.9c-0.1-0.2,0.2-0.5,0.4-0.8
			C338.8,646.4,347.6,646.2,352.7,650.6z"/>
		<path d="M228.3,603.2c11.3,3.2,20.4,8.7,28.9,16.4C250.9,621.2,233.2,610.6,228.3,603.2z"/>
		<path d="M315.5,662.3c0.9-3,2.3-5.4,2.3-8.1c0-0.7,0.7-0.9,1.3-1c3.5-0.3,7-0.7,10.4-1c1-0.1,1.3,0.3,1.6,1.2
			c1.1,3.3-0.4,6.6-3.7,7.8C323.6,662.4,319.8,662.7,315.5,662.3z"/>
		<path d="M394.7,613.2c2,3.4,1.4,6.6-0.5,9.5c-2.6,4-8.3,6.8-12.8,6.1c-0.1-2.1,1.4-2.8,3.1-3.4c4.4-1.4,7.3-3.9,7.8-8.9
			C392.3,615.1,393.1,614,394.7,613.2z"/>
		<path d="M448.3,472.3c1-3.9,1.9-7.9,2.8-11.8c2.8,0,4.3,1.6,5.6,3.4c0.5,0.8,0.7,1.7,0,2.4c-2.5,2.3-5,4.4-7.5,6.6
			C448.8,472.7,448.6,472.5,448.3,472.3z"/>
		<path d="M546.4,517.2c1.1-2.1,2.1-3.9,3.4-6.3c1.7,3.6,3.4,6.6,2.5,10.4C549.4,521,548.2,518.9,546.4,517.2z"/>
		<path d="M521.6,453.7c-3.7-1.7-4.7-4.4-3-7.2c1.1-1.7,2.5-1.9,3.5,0.1C523.6,449,522.8,451.3,521.6,453.7z"/>
		<path d="M289,603.3c-2.2,0-3.7-0.1-5.2,0c-2.4,0.2-4.5,1.2-5.2,3.9c-0.7,2.6,0.5,4.5,3.2,4.8c2.1,0.2,4.2,0.2,6.4,0.3
			c-2.5,3.1-8.2,3.4-11.4,0.9c-2.7-2.2-2.6-6.4,0.2-9.9C279.9,599.9,284.6,599.7,289,603.3z"/>
		<path d="M320.9,304.1c-3.3,0-5.2-1.9-5.2-4.9c0-3,2.2-5,5.2-5.1c3,0,5,2,5,4.8C325.9,302.1,323.9,304.1,320.9,304.1z"/>
	</g>
</g>
<g>
	<g>
		<path fill="#C4BA98" stroke="#000000" stroke-width="0.5" stroke-miterlimit="10" d="M456.5,612.4v-11.7h9.1v2.1h-7v3.1h3.8v2.1
			h-3.8v3.6L456.5,612.4z"/>
		<path fill="#C4BA98" stroke="#000000" stroke-width="0.5" stroke-miterlimit="10" d="M468,603.5c0-1.1,0.1-1.8,0.5-2.2
			c0.3-0.4,0.9-0.6,1.8-0.6h6.6c0.9,0,1.5,0.2,1.8,0.6c0.3,0.4,0.5,1.1,0.5,2.2v6.2c0,1.1-0.1,1.8-0.5,2.2c-0.3,0.4-0.9,0.6-1.8,0.6
			h-6.6c-0.9,0-1.5-0.2-1.8-0.6c-0.3-0.4-0.5-1.1-0.5-2.2V603.5z M470.2,610.2h6.9v-7.4h-6.9V610.2z"/>
		<path fill="#C4BA98" stroke="#000000" stroke-width="0.5" stroke-miterlimit="10" d="M483.6,610.6v-9.8h7.7c0.7,0,1.2,0.2,1.6,0.5
			c0.3,0.4,0.5,0.9,0.5,1.7v2.7c0,0.8-0.2,1.4-0.5,1.7c-0.3,0.4-0.8,0.5-1.6,0.5h-1.2l4.2,4.4h-3l-3.6-4.4h-2v2.1L483.6,610.6z
			 M490.4,602.8h-4.7v3.3h4.7c0.4,0,0.6-0.1,0.7-0.2c0.1-0.1,0.2-0.4,0.2-0.7v-1.4c0-0.3-0.1-0.6-0.2-0.7
			C491,602.8,490.7,602.8,490.4,602.8z"/>
	</g>
	<g>
		<path fill="#C4BA98" stroke="#000000" stroke-width="0.5" stroke-miterlimit="10" d="M440.7,635.9c0.8-0.1,1.2,0.3,1.2,1.1v1.4
			h2.3c0.9,0,1.1,0.3,0.6,0.9h-2.9c0,1.5,0.1,2.3,0.3,2.3c0.4,0.1,0.7,0,1.1-0.1c1-0.2,1.5,0.1,1.4,1.1c-0.1,0.7-0.1,1.7-0.1,3
			c0.1,1-0.4,1.4-1.5,1.1c-1.2-0.4-2.5-0.4-3.8,0c-0.8,0.5-1.3,0.3-1.4-0.7c-0.1-1-0.3-2.1-0.6-3.3c0.1-0.8,0.7-1.1,1.7-0.7
			c0.8,0.1,1.2-0.1,1.2-0.6c0-1.1,0-2.2-0.1-3.2C439.7,636.5,440,635.8,440.7,635.9z M439.2,643.2c-0.1,1.2,0.1,1.9,0.6,2
			c2.3,0.3,3.4,0,3.2-1.1c0.2-1.4-0.7-2-2.9-1.7C439.5,642.5,439.2,642.7,439.2,643.2z M445.3,639.7c0.4,0,0.7,0,0.7-0.1
			c-0.1-1.1-0.1-2.2-0.1-3.2c-0.1-0.7,0.3-1,1.1-0.9c0.5,0,0.7,0.3,0.7,0.7c-0.1,0.9-0.1,2,0,3.2c3.3-0.5,5-0.5,4.9,0
			c0.2,0.3,0.1,0.4-0.1,0.4c-1.5,0.2-3,0.4-4.6,0.7c0.3,0.9,0.6,1.7,0.9,2.3c0.4-0.5,0.8-1.1,1.2-1.8c0.3-0.3,0.6-0.4,0.9-0.3
			c0.4,0.3,0.6,0.7,0.4,1.1c-0.6,0.8-1.2,1.5-1.7,2c1.1,1.1,2.9,1.6,5.5,1.5c0.2,0.1-0.1,0.6-0.9,1.5c-1.1,1.1-2.3,1.3-3.5,0.6
			c-0.5-0.4-1.3-1.2-2.4-2.3c-1,0.7-2.1,1.1-3.2,1.2c-0.5-0.1-0.6-0.3-0.3-0.6c1-0.3,1.9-0.9,2.7-1.8c-0.4-0.6-0.8-1.6-1.2-3
			c-0.5,0.1-1,0.3-1.4,0.4c-0.6,0.1-0.9-0.2-0.7-0.9C444.2,640.1,444.6,639.8,445.3,639.7z M450.1,636.2c0.3-0.7,0.7-0.9,1.2-0.6
			c0.5,0.3,0.7,0.7,0.4,1.2c-0.4,0.6-1.1,1-2,1.1c-0.4,0-0.6-0.1-0.4-0.4C449.7,637.1,449.9,636.7,450.1,636.2z"/>
		<path fill="#C4BA98" stroke="#000000" stroke-width="0.5" stroke-miterlimit="10" d="M462.1,639.7c0.5,0,0.9,0.1,1.1,0.4
			c-0.1,0.4-0.4,0.6-1.1,0.4c-0.6,0-1.2,0-1.8,0.1c0.2,0.3,0.1,0.6-0.3,0.9l-0.7,0.7c-0.3,0.4,0,0.7,0.7,0.7
			c0.6,0.1,1.1-0.1,1.5-0.6l-0.4-0.9c0.1-0.3,0.3-0.4,0.6-0.3c0.3,0.2,0.6,0.4,0.9,0.6c0.2,0.4,0.4,0.9,0.7,1.4
			c-0.1,0.2-0.2,0.3-0.3,0.3c-0.4,0.1-0.8-0.1-1.2-0.6c-0.6,1.1-1.3,1.5-2,1.2c-0.6-0.4-1.2-0.4-1.7-0.1c-0.2,0-0.4-0.1-0.6-0.4
			c-0.1-0.4,0.1-0.8,0.6-1.2c0.9-0.8,1.2-1.4,0.9-1.7c-0.4-0.1-1,0-1.8,0.3c-0.3,0.2-0.5,0.1-0.6-0.1c0.1-0.7,0.4-1.1,1.1-1.2
			L462.1,639.7L462.1,639.7z M462.1,637.6c0.3,0,0.5,0.1,0.6,0.4c0,0.3-0.1,0.4-0.3,0.4H460c-0.7,0-1.4,0-2,0.1
			c-0.2-0.1-0.3-0.3-0.3-0.6c0.1-0.3,0.3-0.6,0.6-0.7C459,637.5,460.3,637.6,462.1,637.6z M466.1,641.9c-0.3-0.1-0.6-0.1-0.9,0
			c-0.3,0.2-0.6,0.4-0.9,0.4c-0.2,0-0.4,0-0.4-0.1c-0.2-1.5-0.4-2.9-0.6-4.1c-0.1-0.6,0.2-0.9,0.9-0.9c0.3,0.2,0.8,0.3,1.5,0.1
			c0.3-0.3,0.7-0.8,1.1-1.5c0.1-0.2,0.3-0.3,0.6-0.3c0.9,0.3,1.2,0.7,0.7,1.1c-0.3,0.3-0.6,0.6-0.7,0.7c0.7,0,1.6,0.1,2.7,0.3
			c0.3-0.1,0.6-0.2,0.7-0.3c0.3-0.1,0.6,0,0.7,0.1c0.4,0.3,0.5,0.7,0.3,1.4c-0.3,0.9-0.5,1.9-0.6,2.9l-0.4,0.3
			c0.4,0.3,0.4,0.6,0.1,0.7c-0.2,0.2-0.4,0.4-0.6,0.6c-0.2,0.1-0.1,0.3,0.1,0.4c0.4,0.1,0.7,0,1.1-0.1c-0.4-0.3-0.4-0.5-0.1-0.6
			c0.4,0,0.7,0,0.9,0.1c0.2,0.3,0.4,0.6,0.6,0.9c-0.1,0.1-0.3,0.2-0.4,0.3l-0.6-0.4c-0.2,0.6-0.6,0.9-1.1,0.7
			c-0.4-0.3-0.8-0.4-1.2-0.3c-0.3-0.2-0.4-0.4-0.3-0.7c0.2-0.2,0.4-0.4,0.6-0.7c0.1-0.2,0.3-0.5,0.4-0.9c-0.8-0.1-1.8-0.1-2.9-0.1
			c-0.7,2.3-2.1,4-4.1,5c-1.6,0.6-2.8,0.4-3.6-0.7c0-0.1,0.2-0.1,0.6-0.1C463.4,645.7,465.4,644.3,466.1,641.9z M466.5,638.1
			c-0.7,0-1.3,0.1-1.7,0.3c-0.2,0.6-0.1,0.9,0.3,0.9l1.7-0.1C466.9,638.6,466.8,638.3,466.5,638.1z M466.7,639.9
			c-0.5,0-1.1,0-1.8,0.1c0,0.7,0.1,1.1,0.4,1.1l1.1-0.1L466.7,639.9z M467.7,642.6c0.1-0.4,0.3-0.6,0.6-0.6c0.2,0,0.4,0.1,0.4,0.3
			c-0.2,0.4-0.4,0.8-0.4,1.2c0,0.4,0,0.7,0.1,0.9c0.4,0.5,1.2,0.9,2.4,1.1c1,0.1,2,0,2.9-0.3c0.6-0.3,1-0.4,1.2-0.1
			c-0.1,0.6-0.4,1.3-1.1,2.1c-0.7,0.6-1.3,0.8-1.8,0.6c-1.7-0.3-3.1-1-4.3-2.1c-0.5-0.6-0.7-1.2-0.6-1.7
			C467.5,643.5,467.6,643,467.7,642.6z M470,641.3c0.2-0.4,0.3-0.7,0.1-1.1c-0.4-0.2-1.2-0.3-2.3-0.3c-0.1,0.4-0.1,0.8-0.1,1.2
			C468.5,641.2,469.3,641.3,470,641.3z M468,639.1l1.7,0.1c0.4,0.1,0.6-0.1,0.6-0.6c0-0.4-0.6-0.6-1.8-0.6
			C468.2,638.2,468,638.5,468,639.1z"/>
		<path fill="#C4BA98" stroke="#000000" stroke-width="0.5" stroke-miterlimit="10" d="M481.4,639c0.2-0.4,0.4-0.6,0.4-0.6
			c0.5-0.1,0.7,0.3,0.4,1.1c-0.3,0.9-0.7,1.9-1.4,2.9c-0.5,0.8-1,1.4-1.5,1.8c-1,0.9-2.1,0.9-3.2-0.1c-0.3-0.3-0.2-0.6,0.3-0.9
			C478.2,642.3,479.9,640.9,481.4,639z M484.9,635.9c1-0.1,1.5,0.4,1.4,1.7c-0.1,2.5,0,5.4,0.1,8.5c0,1.2-1,1.8-2.9,1.7
			c-1-0.1-2.2-0.7-3.5-1.7c-0.2-0.5-0.1-0.7,0.3-0.7c1.9,0.6,3.1,0.7,3.5,0.3c0.3-0.2,0.4-3,0.3-8.5
			C484.1,636.4,484.4,635.9,484.9,635.9z M487.3,639.4c-0.3-0.4-0.3-0.7,0.1-0.9c0.2-0.1,0.4,0,0.6,0.1c1.4,1.8,3.5,3.4,6.4,4.7
			c-0.3,0.5-0.6,0.9-0.9,1.1c-0.9,0.8-1.8,0.8-2.6,0C489.6,642.8,488.4,641.1,487.3,639.4z"/>
		<path fill="#C4BA98" stroke="#000000" stroke-width="0.5" stroke-miterlimit="10" d="M502.3,641.6c-0.3,1-0.6,1.8-0.9,2.3l2-0.3
			c-0.1-0.4-0.1-0.8-0.1-1.2c0.1-0.4,0.4-0.7,1.1-0.7c0.4,0,0.7,0.1,1.1,0.3c0.4,0.1,0.7,0.1,0.9,0v-5c0-0.6,0.2-1,0.6-1.1
			c1,0,1.5,0.4,1.5,1.1c-0.1,0.5-0.1,0.9-0.1,1.2c2.1,0.1,3.9,0.1,5.3,0.1c0,0.5-0.1,1-0.4,1.4c-0.4,0.4-0.8,0.5-1.2,0.3
			c-1.6-0.5-2.8-0.7-3.6-0.4c-0.2,0.8-0.2,1.6,0,2.4c0.7,0.1,1.3,0,1.7-0.1c1.3-0.4,2,0,2,1.1c-0.2,0.8-0.3,1.8-0.3,3
			c0.2,1.3-0.3,1.8-1.4,1.4c-1.4-0.2-2.9-0.3-4.6-0.1c-1.2,0.6-1.9,0.3-2-1.1c0-0.3,0-0.9-0.1-1.7c-2,0.9-4.4,1.6-7.1,2.1
			c-0.9,0.2-1.3-0.1-1.2-1.1c0-0.5,0.5-0.8,1.5-0.9c1.1-0.1,2.4-0.3,3.8-0.4c0.3-1.1,0.4-2.2,0.4-3.2c0-0.7,0.2-1.1,0.6-1.1
			C502.4,639.8,502.6,640.4,502.3,641.6z M501.1,636.8c-0.1,1.2,0,1.8,0.3,1.7l2.1,0.1c0.5,0.4,0.6,0.7,0.1,0.9
			c-0.2,0.1-0.6,0.1-1.1,0.1c-2-0.4-4.1-0.3-6.2,0.4c-0.4,0.1-0.6,0-0.6-0.4c0.2-0.9,0.6-1.3,1.2-1.2c0.8,0.2,1.4,0.3,1.8,0.1
			c0.3-0.1,0.4-0.7,0.3-1.8c0.1-0.4,0.3-0.6,0.6-0.6C500.4,636.1,500.8,636.4,501.1,636.8z M499.6,643.5c-0.2,0.3-0.4,0.4-0.7,0.1
			c-0.6-0.9-1-1.7-1.1-2.4c-0.1-0.7,0.1-1.1,0.7-1.2c0.5-0.1,0.7,0.1,0.7,0.6C499.4,641.7,499.5,642.6,499.6,643.5z M508.1,642.9
			c-1.4-0.1-2.3,0-2.7,0.3c-0.3,0.7-0.3,1.4,0,2.1c0.1,0.5,1.2,0.7,3.3,0.4c0.9,0,1.4-0.5,1.4-1.5
			C510.1,643.3,509.4,642.8,508.1,642.9z"/>
	</g>
	
		<linearGradient id="SVGID_1_" gradientUnits="userSpaceOnUse" x1="391.1536" y1="294.6722" x2="391.1536" y2="294.6722" gradientTransform="matrix(1.0929 0 0 -1.0929 0 955.5428)">
		<stop  offset="0" style="stop-color:#C4BA98"/>
		<stop  offset="1.474962e-002" style="stop-color:#CEC5A9"/>
		<stop  offset="4.332456e-002" style="stop-color:#DDD7C4"/>
		<stop  offset="7.615717e-002" style="stop-color:#EAE6DA"/>
		<stop  offset="0.1145" style="stop-color:#F3F1EB"/>
		<stop  offset="0.162" style="stop-color:#FAF9F6"/>
		<stop  offset="0.2285" style="stop-color:#FEFEFD"/>
		<stop  offset="0.4133" style="stop-color:#FFFFFF"/>
		<stop  offset="0.4696" style="stop-color:#DDDBD8"/>
		<stop  offset="0.5499" style="stop-color:#B2AFA6"/>
		<stop  offset="0.6258" style="stop-color:#908B7F"/>
		<stop  offset="0.6952" style="stop-color:#787263"/>
		<stop  offset="0.7558" style="stop-color:#696252"/>
		<stop  offset="0.801" style="stop-color:#645D4C"/>
		<stop  offset="0.8499" style="stop-color:#776F5B"/>
		<stop  offset="0.9484" style="stop-color:#A89F82"/>
		<stop  offset="1" style="stop-color:#C4BA98"/>
	</linearGradient>
	
		<linearGradient id="SVGID_2_" gradientUnits="userSpaceOnUse" x1="391.1536" y1="294.6722" x2="391.1536" y2="294.6722" gradientTransform="matrix(1.0929 0 0 -1.0929 0 955.5428)">
		<stop  offset="0" style="stop-color:#C4BA98"/>
		<stop  offset="1.389108e-002" style="stop-color:#C7BD9D"/>
		<stop  offset="0.1655" style="stop-color:#E5E1D2"/>
		<stop  offset="0.2794" style="stop-color:#F8F7F3"/>
		<stop  offset="0.3418" style="stop-color:#FFFFFF"/>
		<stop  offset="0.4046" style="stop-color:#E1E0DC"/>
		<stop  offset="0.5083" style="stop-color:#B5B1A9"/>
		<stop  offset="0.6058" style="stop-color:#928D81"/>
		<stop  offset="0.6943" style="stop-color:#797364"/>
		<stop  offset="0.7708" style="stop-color:#696352"/>
		<stop  offset="0.8265" style="stop-color:#645D4C"/>
		<stop  offset="0.8691" style="stop-color:#776F5B"/>
		<stop  offset="0.955" style="stop-color:#A89F82"/>
		<stop  offset="1" style="stop-color:#C4BA98"/>
	</linearGradient>
	<path fill="url(#SVGID_1_)" stroke="url(#SVGID_2_)" stroke-width="0.5" stroke-miterlimit="10" d="M427.5,633.5"/>
	
		<linearGradient id="SVGID_3_" gradientUnits="userSpaceOnUse" x1="399.3005" y1="300.8412" x2="399.3005" y2="300.8412" gradientTransform="matrix(1.0929 0 0 -1.0929 0 955.5428)">
		<stop  offset="0" style="stop-color:#C4BA98"/>
		<stop  offset="1.474962e-002" style="stop-color:#CEC5A9"/>
		<stop  offset="4.332456e-002" style="stop-color:#DDD7C4"/>
		<stop  offset="7.615717e-002" style="stop-color:#EAE6DA"/>
		<stop  offset="0.1145" style="stop-color:#F3F1EB"/>
		<stop  offset="0.162" style="stop-color:#FAF9F6"/>
		<stop  offset="0.2285" style="stop-color:#FEFEFD"/>
		<stop  offset="0.4133" style="stop-color:#FFFFFF"/>
		<stop  offset="0.4696" style="stop-color:#DDDBD8"/>
		<stop  offset="0.5499" style="stop-color:#B2AFA6"/>
		<stop  offset="0.6258" style="stop-color:#908B7F"/>
		<stop  offset="0.6952" style="stop-color:#787263"/>
		<stop  offset="0.7558" style="stop-color:#696252"/>
		<stop  offset="0.801" style="stop-color:#645D4C"/>
		<stop  offset="0.8499" style="stop-color:#776F5B"/>
		<stop  offset="0.9484" style="stop-color:#A89F82"/>
		<stop  offset="1" style="stop-color:#C4BA98"/>
	</linearGradient>
	
		<linearGradient id="SVGID_4_" gradientUnits="userSpaceOnUse" x1="399.3005" y1="300.8412" x2="399.3005" y2="300.8412" gradientTransform="matrix(1.0929 0 0 -1.0929 0 955.5428)">
		<stop  offset="0" style="stop-color:#C4BA98"/>
		<stop  offset="1.389108e-002" style="stop-color:#C7BD9D"/>
		<stop  offset="0.1655" style="stop-color:#E5E1D2"/>
		<stop  offset="0.2794" style="stop-color:#F8F7F3"/>
		<stop  offset="0.3418" style="stop-color:#FFFFFF"/>
		<stop  offset="0.4046" style="stop-color:#E1E0DC"/>
		<stop  offset="0.5083" style="stop-color:#B5B1A9"/>
		<stop  offset="0.6058" style="stop-color:#928D81"/>
		<stop  offset="0.6943" style="stop-color:#797364"/>
		<stop  offset="0.7708" style="stop-color:#696352"/>
		<stop  offset="0.8265" style="stop-color:#645D4C"/>
		<stop  offset="0.8691" style="stop-color:#776F5B"/>
		<stop  offset="0.955" style="stop-color:#A89F82"/>
		<stop  offset="1" style="stop-color:#C4BA98"/>
	</linearGradient>
	<path fill="url(#SVGID_3_)" stroke="url(#SVGID_4_)" stroke-width="0.5" stroke-miterlimit="10" d="M436.4,626.8"/>
	<g>
		<g>
			<path fill="#C4BA98" stroke="#000000" stroke-width="0.5" stroke-miterlimit="10" d="M432.4,618.6h-5.8v4.6h3.2v3.2h-3.2v5.6
				l-1.8,0.8v-17.2h7.6V618.6"/>
			<path fill="#C4BA98" stroke="#000000" stroke-width="0.5" stroke-miterlimit="10" d="M434.6,629.8V629v-13.4h6.4
				c0.6,0,1,0.3,1.3,0.8c0.3,0.5,0.4,1.4,0.4,2.6v4.1c0,1.2-0.1,2-0.4,2.6c-0.3,0.5-0.7,0.8-1.3,0.8h-1l3.5,6.5H441l-3-6.5h-1.6v2.2
				v1L434.6,629.8z M440.3,618.6h-3.9v4.8h3.9c0.3,0,0.5-0.1,0.6-0.3c0.1-0.2,0.2-0.6,0.2-1.1V620c0-0.5-0.1-0.9-0.2-1
				C440.8,618.7,440.6,618.6,440.3,618.6z"/>
			<path fill="#C4BA98" stroke="#000000" stroke-width="0.5" stroke-miterlimit="10" d="M446.3,632.9v-17.4h1.8v17.4H446.3z"/>
			<path fill="#C4BA98" stroke="#000000" stroke-width="0.5" stroke-miterlimit="10" d="M451.8,632.9v-17.4h7.7v3h-5.9v3.9h3.5v3
				h-3.5v4.3h6v3.3L451.8,632.9L451.8,632.9z"/>
			<path fill="#C4BA98" stroke="#000000" stroke-width="0.5" stroke-miterlimit="10" d="M462.8,632.9v-17.4h1.2l5.3,10.2
				c0.2,0.3,0.3,0.7,0.5,1s0.3,0.6,0.4,0.9c0-1,0-1.7-0.1-2.1c0-0.4,0-0.7,0-0.9v-9.1h1.6v17.4h-1.2l-5.5-10.7
				c-0.1-0.3-0.3-0.5-0.3-0.7c-0.1-0.2-0.2-0.4-0.3-0.7c0,0.5,0,1,0,1.5c0,0.5,0,0.9,0,1.2v9.4L462.8,632.9L462.8,632.9z"/>
			<path fill="#C4BA98" stroke="#000000" stroke-width="0.5" stroke-miterlimit="10" d="M475.5,632.9v-17.4h4.8
				c1.4,0,2.4,0.7,3.2,2.2c0.7,1.5,1.1,3.6,1.1,6.3c0,1.6-0.1,3.1-0.4,4.4c-0.3,1.3-0.7,2.3-1.2,3.1c-0.3,0.5-0.7,0.8-1.2,1
				c-0.5,0.2-1.1,0.3-1.9,0.3L475.5,632.9L475.5,632.9z M477.2,629.7h2.2c1.2,0,2.1-0.4,2.5-1.3c0.5-0.9,0.7-2.3,0.7-4.3
				c0-1.8-0.2-3.1-0.6-4c-0.4-0.9-1-1.4-1.8-1.4h-3.1L477.2,629.7L477.2,629.7z"/>
			<path fill="#C4BA98" stroke="#000000" stroke-width="0.5" stroke-miterlimit="10" d="M494.3,618.6h-4.9v3.7h4.7
				c0.7,0,1.2,0.3,1.5,0.9c0.3,0.6,0.4,1.6,0.4,3.2v2.4c0,1.6-0.1,2.7-0.4,3.2c-0.3,0.6-0.7,0.9-1.5,0.9h-4.6
				c-0.7,0-1.2-0.3-1.5-0.9s-0.4-1.6-0.4-3.2v-0.5l1.5-0.7v2.1h5.3v-4h-4.7c-0.7,0-1.2-0.3-1.5-0.9c-0.3-0.6-0.4-1.6-0.4-3.2v-1.9
				c0-1.6,0.1-2.7,0.4-3.2c0.3-0.6,0.7-0.9,1.5-0.9h4.3c0.7,0,1.2,0.3,1.5,0.8s0.4,1.5,0.4,3v0.4l-1.5,0.8V618.6L494.3,618.6z"/>
			<path fill="#C4BA98" stroke="#000000" stroke-width="0.5" stroke-miterlimit="10" d="M506.7,630.3v-4.9h-5.5v6.8l-1.8,0.6v-17.4
				h1.8v6.7h5.5v-6.7h1.8v14.1L506.7,630.3z"/>
			<path fill="#C4BA98" stroke="#000000" stroke-width="0.5" stroke-miterlimit="10" d="M512.3,632.9v-17.4h1.8v17.4H512.3z"/>
			<path fill="#C4BA98" stroke="#000000" stroke-width="0.5" stroke-miterlimit="10" d="M517.9,632.9v-17.4h6.4c0.6,0,1,0.3,1.3,0.8
				c0.3,0.5,0.4,1.4,0.4,2.6v3.9c0,1.2-0.1,2-0.4,2.5c-0.3,0.5-0.7,0.8-1.3,0.8h-4.7v6L517.9,632.9z M523.6,618.6h-3.9v4.6h3.9
				c0.3,0,0.5-0.1,0.6-0.3c0.1-0.2,0.2-0.6,0.2-1.1V620c0-0.5-0.1-0.9-0.2-1C524.1,618.7,523.9,618.6,523.6,618.6z"/>
		</g>
	</g>
</g>
</svg>
