<?xml version="1.0" encoding="utf-8"?>
<!-- Generator: Adobe Illustrator 18.1.1, SVG Export Plug-In . SVG Version: 6.00 Build 0)  -->
<svg version="1.1" id="图层_1" xmlns="http://www.w3.org/2000/svg" xmlns:xlink="http://www.w3.org/1999/xlink" x="0px" y="0px"
	 viewBox="0 0 560 560" enable-background="new 0 0 560 560" xml:space="preserve">
<style type="text/css">
	.st0{fill:#FFFFFF;}
</style>
<g>
	<g>
		<path class="st0" d="M459.6,463.5c-2.5,3-4.6,5.7-6.9,8.1c-4.7,4.9-10.4,7.8-16.9,9.6c-10.1,2.7-20.3,3.8-30.7,3.8c-0.1-0.9,0.5-0.9,0.9-1
			c5.9-1.1,11-4,15.8-7.4c5.8-4.1,11.1-8.7,15.9-13.9c6.4-6.9,8.6-15.7,10.2-24.5c0.8-4.7-1.5-9-3.2-13.2
			c-7.8-20.2-16.5-39.9-25.7-59.5c-10.7-22.8-14.7-47.1-15-72.1c-0.1-10.4,0.1-20.7,1.6-31c0.3-2.1,0.9-4,2-5.8
			c1.4-2.4,2.6-4.8,3.4-7.5c1-3.8-0.3-5.4-4.2-5.3c-5.1,0.2-9.8,1.7-14.5,3.4c-1.1,0.4-2.1,1.1-3.4,0.9c-0.8-6.6,1.7-11.9,6.7-16
			c3.7-3.1,6.4-6.9,8.2-11.3c0.4-0.9,1-1.7,0.7-3.1c-2.6,1.7-5.5,1.6-8.4,1.4c-2.9-0.3-5.2,1.4-7.3,3.3c-3.4,3.1-7.4,2.5-11.6,2.3
			c3.3-2.6,6.6-5.1,5.8-10.5c-4.6,4.5-9.8,7.3-15,10.2c-5,2.8-10,6-17,4.9c3.8-4.4,8.1-7.5,10.2-12.9c-7.6,2.8-14.6,6.5-23,6.9
			c0.8-3.2,1.7-5.8,1-8.7c-0.6-2.5-1.6-3.4-4.3-3c-5.9,0.9-11.8,1.7-17.8,1.6c-1,0-2.1-0.1-3.1-0.2c0-0.5,0-0.7,0.1-0.8
			c2-1.4,3.9-2.8,3.1-5.7c-0.7-2.6-3.1-2-4.8-2.5c-9.8-2.8-19.8-2.7-29.7-1.6c-15.9,1.8-31.7,4.1-47.3-1.9c-1.2,3.9,0.3,6.9,2.5,9.9
			c-7.8,2.3-15.2,1.2-23-1.1c1.4,4.4,1.1,8.4-0.1,12.8c-4.4-7.7-8.1-0.8-12.2,0.4c-1.9-3.9-2.2-7.8-0.1-11.5c2.6-4.5,1.6-9,0.6-13.6
			c-4.6,1.3-8.4,10-6.6,15.3c2.2,6.5-0.7,12.6-1.2,19.4c-0.5-0.6-0.7-0.7-0.7-0.8c-0.8-6.8-2.6-8.3-9.4-7.6
			c-14.1,1.4-24.8,8-29.9,21.6c-6.1,16.1-12.1,32.3-14.4,49.4c-1.6,12-1.3,24,0,36c1.4,13,2.8,26,1.5,39.2
			c-1.2,12.9-4.1,25.2-10.5,36.6c-7,12.5-11.4,26.1-16.2,39.6c-1.4,4-0.1,7.5,3,10.3c2.6,2.3,5.7,3.8,8.8,5.3
			c10.2,4.9,20.1,10.2,27.3,19.4c2.9,3.6,5.4,7.5,7.7,12.5c-14.2-8.9-28.2-9.8-43.3-2.1c9.7,6.7,20.2,8.9,30.8,10.4
			c10.8,1.6,21.4-0.1,31.9-3.1c-14.1,13.2-30.8,19-50.1,18c3.5,4.4,23.2,11,37.3,12.2c13.3,1.2,26.3-0.2,39.2-3.8
			c-3.1,3.3-6.8,5.6-10.5,7.8c-35.4,20.6-77.1,14.3-105-15.6C77.7,501.7,70,483.2,67.4,462c-2.2-17.6,1.1-34.2,7.3-50.5
			c8.3-21.7,12.6-44.3,16.3-67.1c7.2-43.9,13.8-87.9,23.5-131.3c7.7-34.4,16.9-68.3,31.1-100.7c8.1-18.6,17.2-36.7,28.7-53.4
			c11.4-16.6,27.4-27.3,45.9-34.7c18.1-7.2,36.9-10,56.3-8.8c5.4,0.3,10.9-0.5,16.3-1.3c23-3.2,42.9,2.8,59.6,19.2
			c12.3,12.1,24.7,24,37.4,35.6c7.5,6.8,11.8,15.8,15.9,24.8c11.1,24.3,19,49.9,26.4,75.5c9.6,33.2,16.9,66.9,23.1,100.8
			c6.4,34.8,18.4,68.1,31.1,101c3.4,8.9,7.1,17.8,9.5,27.1c3.1,12.4,3.5,24.8-0.1,37.1c-6,20.6-9.6,41.7-13.6,62.7
			c-1.5,8.1-4.5,15.8-7.5,23.4c-3.1,7.8-8.9,13-16.8,14.6c-13.2,2.7-26.6,3.7-39.8,0.1c-11-3-19.7-9.8-27.1-18.9
			c2.4-0.3,4.3,0.5,6.1,1.1c13.1,4.6,26.2,3.7,39.4,0.8c5.7-1.2,11.2-3.2,15.2-7.7c2.1-2.4,3.6-5,3.1-8.9
			c-17.6,3.2-34.8,3.7-51.6-5.7c9.3-0.6,17.6-2.5,26.1-3.9c11.2-1.9,19.5-8.1,26.1-17C457.8,472.4,458.9,468.3,459.6,463.5z
			 M314.3,168.6c6-0.8,10.4,3,15.5,4.9c1.7,0.6,1.4,1.8,1.1,3.1c-1.9,6.8-4,13.5-7.1,19.9c-0.7,1.4-1.5,2.7-1.3,4.6
			c5.6-7.6,10.1-15.6,13.8-24.4c3.4,2.7,7,4.1,11.1,6c-1.5-3.9-3.2-7.1-6.5-8.9c-1.9-1.1-2-2.2-1.1-4c1.8-3.9,2.9-8.1,4-12.2
			c0.4-1.7,0.5-3.6,1.5-5.4c3.3,2,6.7,3,10.6,4.6c-2.1-4.4-4.4-7.6-8.3-9.4c-1.3-0.6-1.6-1.4-1.4-2.8c0.7-3.9,1.2-7.9,1.9-11.9
			c0.5-3.2,0.5-6.5,1.6-10.1c3.8,2.1,7.7,3.3,12,4.5c-2.2-4.5-5.2-7.4-9.4-9c-0.9-0.4-2.3-0.5-2.1-2c0.4-4.8,0.9-9.7,1.3-15
			c4.1,2.3,8.1,3.7,12.6,4.9c-2.2-4.5-5.1-7.7-9.5-9.1c-2.3-0.7-2.9-1.9-2.8-4.3c0.2-3.1,0-6.3-0.1-9.4c0-4.5-1-8.8-1.6-13.8
			c4.9,1.4,9.3,2.6,14.3,2.9c-2.4-3.2-4.7-6.3-8.3-6.6c-6.2-0.7-9.1-4.3-10.8-9.7c-0.8-2.5-2.5-4.7-4.1-7.5c4.2,1.4,7.8,2,11.8,2.4
			c-2.7-4.4-6.3-7-11-7.4c-4.3-0.4-7.4-2.3-10-5.6c-2-2.5-4.4-4.7-7.7-6c2,3.3,4.1,6.7,6.3,10.4c-5,0.7-9.6,1.5-13.5,4.5
			c4.9-2.2,9.6-0.5,14.4,0.1c1.1,0.1,2.1,0.3,2.3,1.7c0.9,5.2,1.8,10.4,2.7,15.6c-2.9,1.3-6,1.7-8.6,4.2c2.2-0.5,4-0.9,5.8-1.2
			c2.1-0.3,3.5,0.3,3.7,2.9c0.2,3,1,6,1.3,9c0.6,4.8,1.6,9.6,1.2,14.6c-3.4,0.7-6.8,0.3-9.7,2.2c2.9-0.4,5.6,0.3,8.2,1.2
			c0.9,0.3,1.9,0.6,1.9,1.9c-0.2,5.3-0.4,10.7-0.6,16.2c-4.6,0-8.9,0.2-12.9,2.2c0.5,0.6,1,0.5,1.4,0.4c3.2-0.8,6.2,0.3,9.2,1.2
			c1.3,0.4,1.9,1.1,1.8,2.5c-0.5,7.4-1.2,14.8-2.4,22.1c-10.6-0.7-12.6-0.5-15.3,1.5c1.5-0.1,3-0.3,4.4-0.2c1.4,0.2,2.9,0.6,4.2,1.2
			c6.9,2.8,6.1,1,5,8.3c-0.7,5-1.5,10-2.9,14.9C319,166.7,318.3,166.7,314.3,168.6z"/>
		<path class="st0" d="M193.5,242.6c0,7.3,0,14.3,0,21.2c0,1.5-1.1,1.9-2.2,2.4c-4.7,2.6-9.5,5.1-14.1,7.9c-2.8,1.7-3.2,3.6-0.8,5.7
			c9,8,13.6,19.2,20.8,28.5c2.1,2.7,2.8,5.5,2.8,8.9c-0.1,20.1,0,40.1,0.1,60.2c0,1.6,0.3,3.1,1,4.5c3.5,7,7,14,10.3,21.1
			c1,2.1,2.4,3.2,4.5,3.6c0.8-0.4,1.1-1.2,1.4-1.9c1.4-3.8,3.7-6.3,8-6.5c1.6-0.1,2.1-1,1.9-2.6c-0.3-2.9-0.5-5.8-0.6-8.8
			c0-1.8-1.4-2.3-2.6-2.8c-4-1.5-5.7-4.6-6.6-8.6c-3-13.1-6.4-26.2-7.4-39.7c-0.7-9.8,0.2-19.4,2.8-28.8c1.8-6.7,6.8-11.7,12.2-16.1
			c1.3-1.1,2.1-2.1,2.2-3.8c0.1-2.1,0.2-4.3,0.8-6.4c0.7-2.7-0.5-3.8-2.6-5c-4.9-2.7-9.6-5.6-14.5-8.4c-1.3-0.8-1.9-1.7-1.9-3.3
			c0.1-8.5,0.1-17,0-25.5c0-1.4,0.3-2.3,1.8-2.9c18.9-7.1,38-13.4,57.8-17.4c9.9-2,19.7-1,29.3,1.4c17.3,4.3,34.3,9.5,50.9,16
			c1.6,0.6,2,1.5,2,3.1c-0.1,8.3-0.1,16.6,0,24.9c0,1.8-0.6,2.9-2.2,3.7c-5.1,2.9-10.1,6-15.2,8.8c-1.5,0.8-2.2,1.8-1.8,3.5
			c0.2,0.8,0.3,1.5,0.3,2.3c0,4.6,1.6,7.9,5.4,11.1c8.2,6.8,10.9,16.4,12,26.8c1.6,15.2-1.2,29.8-4.4,44.4c-1,4.5-2.2,8.9-3.3,13.4
			c-0.6,2.5-1.9,4.5-4.4,5.4c-3.2,1.2-4.9,3.4-4.4,6.9c0,0.2,0,0.4,0,0.6c-0.1,2.2-0.9,4.8-0.1,6.6c0.8,1.8,3.8,1.4,5.8,2
			c1.1,0.3,1.5,1.1,2,2c0.9,1.8,1.9,3.6,2.8,5.4c2.5-0.4,4-1.6,5-3.8c3.2-6.9,6.6-13.7,10-20.5c0.9-1.7,1.2-3.4,1.2-5.3
			c0-20.6,0.1-41.3,0.1-61.9c0-1.8,0.4-3.2,1.4-4.6c5.8-8.5,11.6-16.9,17.4-25.5c1.3-1.9,3.4-2.9,4.9-4.6c2.5-2.8,2.4-4.5-0.8-6.4
			c-4.5-2.6-9-5.1-13.6-7.5c-1.7-0.9-2.4-1.9-2.4-3.8c0.1-6.5,0-13,0-19.6c0.8-0.3,1.5,0.2,2.2,0.5c5.1,2.2,10.2,4.5,15.3,6.8
			c10.6,4.8,15.1,13.9,17.3,24.5c1.2,5.6,0.9,11.2-1,17c-2.8,8.7-2.3,18-2.3,27.1c0,19.9,2.3,39.6,2,59.5
			c-0.4,26.4-5.3,51.8-16.5,75.9c-8.7,18.7-20.5,34.5-37.7,46.1c-3.7,2.5-7.2,5.4-10.9,7.9c-17.8,12.4-35.6,24.8-52.9,38
			c-1.3,1-2.3,1.4-3.8,0.2c-21.2-16.5-43.7-31.1-65.2-47.1c-5.1-3.8-9.9-8-14.7-12.2c-9.2-8-14.4-18.7-19.8-29.2
			c-10.6-20.4-16.1-42.3-17.9-65.2c-1.6-19.7,0.3-39.3,0.9-58.9c0.5-14.4,1.8-28.9-2.1-42.9c-2.1-7.3-2-14.3,0.3-21
			c2.9-8.5,7.2-16.4,16.4-20.2C182,247.7,187.5,245,193.5,242.6z M279.9,360.1c1.2-1.4,1.4-2.8,1.9-4c4.4-11.9,8.1-24,15.3-34.8
			c5.2-7.8,11.6-12.5,21.2-12.1c0.6,0,1.2,0,1.8,0c3.4,0,6.8,0,10.4,0c0-2-0.1-3.5,0-5c0.3-2.6-0.5-3.6-3.3-3.5
			c-6.8,0.2-13.7,0.4-20.5,0c-5.3-0.3-9.4,0.8-12.6,5.3c-1.5,2.1-3.6,3.8-5.5,5.7c-2.8,2.8-5.6,5.6-7.7,7.6
			c-6.1-5.7-12.1-11.2-18-16.8c-1.2-1.2-2.4-1.7-4.1-1.7c-8.7,0.1-17.4,0-26.1,0c-0.9,0-2-0.3-2.8,0.5c0,2.6,0,5.2,0,7.9
			c5.8-0.1,11.3,0,16.9,0.5c5.1,0.4,9.1,2.5,12.3,6.5c5,6.5,9.5,13.2,12.4,20.8C274.2,344.5,276.9,352.1,279.9,360.1z M280.1,447.9
			c3.1-3.5,5.8-6.8,8.7-10c0.7-0.8,0.6-1.6,0.4-2.5c-0.7-4-1.2-7.9-1.9-11.9c-2.4-14.6-3.9-29.2-2.7-44.1c0.3-3.9,0.5-7.7,0.8-11.7
			c-3.7,0-7,0-10.4,0c-0.6,1.5-0.1,2.9,0,4.2c0.9,10.1,1.2,20.3,0.5,30.4c-0.8,10.9-2.9,21.7-4.4,32.5c-0.1,1-0.5,1.9,0.2,2.8
			C274.2,441,277.1,444.3,280.1,447.9z M323,439.3c-0.9-3.4-1.7-6.4-2.4-9.5c-0.4-1.5-1-2.4-2.7-2.4c-2.4,0.1-3.5-1.3-3.7-3.6
			c-0.1-1-0.4-1.9-0.6-2.9c-4.6-15.7-7.1-31.6-7.8-47.9c-0.1-3.2-0.5-6.3-0.7-9.7c-1.8,0.3-3.3,0.7-4.7,0.8
			c-2.1,0.2-2.8,1.1-2.6,3.2c2.1,19,2.8,38.2,5.4,57.2c0.7,5,1.6,10,3.1,14.9c0.6,1.9,1.4,3.9,4.1,3.2
			C314.4,441.7,318.5,440.5,323,439.3z M237.2,439.2c4.6,1.2,8.9,2.4,13.2,3.5c1.7,0.4,2.6-0.7,3.1-2.1c0.7-1.9,1.3-3.9,1.8-5.9
			c2.5-11.3,3.4-22.8,4.3-34.3c0.9-11.1,1.9-22.2,2.8-33.3c0.1-1.1,0.6-2.5-1.2-2.8c-1.9-0.4-3.8-0.7-5.7-1.1
			c-0.8,1.9-0.6,3.6-0.7,5.2c-0.7,10.2-1.2,20.5-3,30.6c-1.4,8.4-4.1,16.5-5.8,24.8c-0.5,2.2-1.3,3.3-3.5,3.4
			c-1,0.1-2.2-0.1-2.5,1.4C239.2,432.1,238.2,435.5,237.2,439.2z M228.4,460.5c-0.1,5.2,3,9.3,6.9,9.3c4,0,7.1-4.3,6.8-9.6
			c-0.2-4.9-3.3-8.7-7-8.6C231.5,451.8,228.5,455.7,228.4,460.5z M318.1,460.7c0,5.2,3.1,9.3,7,9.2c3.7-0.1,6.7-4.3,6.7-9.3
			c-0.1-4.9-3-8.8-6.7-8.9C321.2,451.6,318.1,455.6,318.1,460.7z M287.4,478.3c0.1-4.5-3.3-8.4-7.2-8.5c-3.9-0.1-7.3,3.8-7.4,8.3
			c0,4.5,3.3,8.4,7.2,8.5C283.9,486.7,287.4,482.8,287.4,478.3z"/>
	</g>
</g>
</svg>
