<?xml version="1.0" encoding="utf-8"?>
<!-- Generator: Adobe Illustrator 18.1.1, SVG Export Plug-In . SVG Version: 6.00 Build 0)  -->
<svg version="1.1" id="图层_1" xmlns="http://www.w3.org/2000/svg" xmlns:xlink="http://www.w3.org/1999/xlink" x="0px" y="0px"
	 viewBox="0 0 612 792" enable-background="new 0 0 612 792" xml:space="preserve">
<g>
	<g>
		<path d="M502.3,596.5c-2.7,3.3-5,6.2-7.5,8.9c-5.1,5.4-11.4,8.5-18.5,10.5c-11,3-22.2,4.2-33.6,4.2c-0.1-1,0.5-1,1-1.1
			c6.4-1.2,12-4.4,17.3-8.1c6.3-4.5,12.1-9.5,17.4-15.2c7-7.5,9.4-17.2,11.1-26.8c0.9-5.1-1.6-9.8-3.5-14.4
			c-8.5-22.1-18-43.6-28.1-65c-11.7-24.9-16.1-51.5-16.4-78.8c-0.1-11.4,0.1-22.6,1.7-33.9c0.3-2.3,1-4.4,2.2-6.3
			c1.5-2.6,2.8-5.2,3.7-8.2c1.1-4.2-0.3-5.9-4.6-5.8c-5.6,0.2-10.7,1.9-15.8,3.7c-1.2,0.4-2.3,1.2-3.7,1c-0.9-7.2,1.9-13,7.3-17.5
			c4-3.4,7-7.5,9-12.3c0.4-1,1.1-1.9,0.8-3.4c-2.8,1.9-6,1.7-9.2,1.5c-3.2-0.3-5.7,1.5-8,3.6c-3.7,3.4-8.1,2.7-12.7,2.5
			c3.6-2.8,7.2-5.6,6.3-11.5c-5,4.9-10.7,8-16.4,11.1c-5.5,3.1-10.9,6.6-18.6,5.4c4.2-4.8,8.9-8.2,11.1-14.1
			c-8.3,3.1-16,7.1-25.1,7.5c0.9-3.5,1.9-6.3,1.1-9.5c-0.7-2.7-1.7-3.7-4.7-3.3c-6.4,1-12.9,1.9-19.5,1.7c-1.1,0-2.3-0.1-3.4-0.2
			c0-0.5,0-0.8,0.1-0.9c2.2-1.5,4.3-3.1,3.4-6.2c-0.8-2.8-3.4-2.2-5.2-2.7c-10.7-3.1-21.6-3-32.5-1.7c-17.4,2-34.6,4.5-51.7-2.1
			c-1.3,4.3,0.3,7.5,2.7,10.8c-8.5,2.5-16.6,1.3-25.1-1.2c1.5,4.8,1.2,9.2-0.1,14c-4.8-8.4-8.9-0.9-13.3,0.4
			c-2.1-4.3-2.4-8.5-0.1-12.6c2.8-4.9,1.7-9.8,0.7-14.9c-5,1.4-9.2,10.9-7.2,16.7c2.4,7.1-0.8,13.8-1.3,21.2
			c-0.5-0.7-0.8-0.8-0.8-0.9c-0.9-7.4-2.8-9.1-10.3-8.3c-15.4,1.5-27.1,8.7-32.7,23.6c-6.7,17.6-13.2,35.3-15.7,54
			c-1.7,13.1-1.4,26.2,0,39.3c1.5,14.2,3.1,28.4,1.6,42.8c-1.3,14.1-4.5,27.5-11.5,40c-7.7,13.7-12.5,28.5-17.7,43.3
			c-1.5,4.4-0.1,8.2,3.3,11.3c2.8,2.5,6.2,4.2,9.6,5.8c11.1,5.4,22,11.1,29.8,21.2c3.2,3.9,5.9,8.2,8.4,13.7
			c-15.5-9.7-30.8-10.7-47.3-2.3c10.6,7.3,22.1,9.7,33.7,11.4c11.8,1.7,23.4-0.1,34.9-3.4c-15.4,14.4-33.7,20.8-54.8,19.7
			c3.8,4.8,25.4,12,40.8,13.3c14.5,1.3,28.7-0.2,42.8-4.2c-3.4,3.6-7.4,6.1-11.5,8.5c-38.7,22.5-84.3,15.6-114.8-17
			c-16.5-17.2-24.9-37.4-27.8-60.5c-2.4-19.2,1.2-37.4,8-55.2c9.1-23.7,13.8-48.4,17.8-73.3c7.9-48,15.1-96.1,25.7-143.5
			c8.4-37.6,18.5-74.6,34-110.1c8.9-20.3,18.8-40.1,31.4-58.4c12.5-18.1,29.9-29.8,50.2-37.9c19.8-7.9,40.3-10.9,61.5-9.6
			c5.9,0.3,11.9-0.5,17.8-1.4c25.1-3.5,46.9,3.1,65.1,21c13.4,13.2,27,26.2,40.9,38.9c8.2,7.4,12.9,17.3,17.4,27.1
			c12.1,26.6,20.8,54.5,28.9,82.5c10.5,36.3,18.5,73.1,25.2,110.2c7,38,20.1,74.4,34,110.4c3.7,9.7,7.8,19.5,10.4,29.6
			c3.4,13.6,3.8,27.1-0.1,40.5c-6.6,22.5-10.5,45.6-14.9,68.5c-1.6,8.9-4.9,17.3-8.2,25.6c-3.4,8.5-9.7,14.2-18.4,16
			c-14.4,3-29.1,4-43.5,0.1c-12-3.3-21.5-10.7-29.6-20.7c2.6-0.3,4.7,0.5,6.7,1.2c14.3,5,28.6,4,43.1,0.9c6.2-1.3,12.2-3.5,16.6-8.4
			c2.3-2.6,3.9-5.5,3.4-9.7c-19.2,3.5-38,4-56.4-6.2c10.2-0.7,19.2-2.7,28.5-4.3c12.2-2.1,21.3-8.9,28.5-18.6
			C500.3,606.3,501.5,601.8,502.3,596.5z M343.5,274.3c6.6-0.9,11.4,3.3,16.9,5.4c1.9,0.7,1.5,2,1.2,3.4c-2.1,7.4-4.4,14.8-7.8,21.7
			c-0.8,1.5-1.6,3-1.4,5c6.1-8.3,11-17,15.1-26.7c3.7,3,7.6,4.5,12.1,6.6c-1.6-4.3-3.5-7.8-7.1-9.7c-2.1-1.2-2.2-2.4-1.2-4.4
			c2-4.3,3.2-8.9,4.4-13.3c0.4-1.9,0.5-3.9,1.6-5.9c3.6,2.2,7.3,3.3,11.6,5c-2.3-4.8-4.8-8.3-9.1-10.3c-1.4-0.7-1.7-1.5-1.5-3.1
			c0.8-4.3,1.3-8.6,2.1-13c0.5-3.5,0.5-7.1,1.7-11c4.2,2.3,8.4,3.6,13.1,4.9c-2.4-4.9-5.7-8.1-10.3-9.8c-1-0.4-2.5-0.5-2.3-2.2
			c0.4-5.2,1-10.6,1.4-16.4c4.5,2.5,8.9,4,13.8,5.4c-2.4-4.9-5.6-8.4-10.4-9.9c-2.5-0.8-3.2-2.1-3.1-4.7c0.2-3.4,0-6.9-0.1-10.3
			c0-4.9-1.1-9.6-1.7-15.1c5.4,1.5,10.2,2.8,15.6,3.2c-2.6-3.5-5.1-6.9-9.1-7.2c-6.8-0.8-9.9-4.7-11.8-10.6
			c-0.9-2.7-2.7-5.1-4.5-8.2c4.6,1.5,8.5,2.2,12.9,2.6c-3-4.8-6.9-7.7-12-8.1c-4.7-0.4-8.1-2.5-10.9-6.1c-2.2-2.7-4.8-5.1-8.4-6.6
			c2.2,3.6,4.5,7.3,6.9,11.4c-5.5,0.8-10.5,1.6-14.8,4.9c5.4-2.4,10.5-0.5,15.7,0.1c1.2,0.1,2.3,0.3,2.5,1.9c1,5.7,2,11.4,3,17
			c-3.2,1.4-6.6,1.9-9.4,4.6c2.4-0.5,4.4-1,6.3-1.3c2.3-0.3,3.8,0.3,4,3.2c0.2,3.3,1.1,6.6,1.4,9.8c0.7,5.2,1.7,10.5,1.3,16
			c-3.7,0.8-7.4,0.3-10.6,2.4c3.2-0.4,6.1,0.3,9,1.3c1,0.3,2.1,0.7,2.1,2.1c-0.2,5.8-0.4,11.7-0.7,17.7c-5,0-9.7,0.2-14.1,2.4
			c0.5,0.7,1.1,0.5,1.5,0.4c3.5-0.9,6.8,0.3,10.1,1.3c1.4,0.4,2.1,1.2,2,2.7c-0.5,8.1-1.3,16.2-2.6,24.2
			c-11.6-0.8-13.8-0.5-16.7,1.6c1.6-0.1,3.3-0.3,4.8-0.2c1.5,0.2,3.2,0.7,4.6,1.3c7.5,3.1,6.7,1.1,5.5,9.1
			c-0.8,5.5-1.6,10.9-3.2,16.3C348.6,272.2,347.9,272.2,343.5,274.3z"/>
		<path d="M211.5,355.1c0,8,0,15.6,0,23.2c0,1.6-1.2,2.1-2.4,2.6c-5.1,2.8-10.4,5.6-15.4,8.6c-3.1,1.9-3.5,3.9-0.9,6.2
			c9.8,8.7,14.9,21,22.7,31.1c2.3,3,3.1,6,3.1,9.7c-0.1,22,0,43.8,0.1,65.8c0,1.7,0.3,3.4,1.1,4.9c3.8,7.6,7.6,15.3,11.3,23.1
			c1.1,2.3,2.6,3.5,4.9,3.9c0.9-0.4,1.2-1.3,1.5-2.1c1.5-4.2,4-6.9,8.7-7.1c1.7-0.1,2.3-1.1,2.1-2.8c-0.3-3.2-0.5-6.3-0.7-9.6
			c0-2-1.5-2.5-2.8-3.1c-4.4-1.6-6.2-5-7.2-9.4c-3.3-14.3-7-28.6-8.1-43.4c-0.8-10.7,0.2-21.2,3.1-31.5c2-7.3,7.4-12.8,13.3-17.6
			c1.4-1.2,2.3-2.3,2.4-4.2c0.1-2.3,0.2-4.7,0.9-7c0.8-3-0.5-4.2-2.8-5.5c-5.4-3-10.5-6.1-15.8-9.2c-1.4-0.9-2.1-1.9-2.1-3.6
			c0.1-9.3,0.1-18.6,0-27.9c0-1.5,0.3-2.5,2-3.2c20.7-7.8,41.5-14.6,63.2-19c10.8-2.2,21.5-1.1,32,1.5c18.9,4.7,37.5,10.4,55.6,17.5
			c1.7,0.7,2.2,1.6,2.2,3.4c-0.1,9.1-0.1,18.1,0,27.2c0,2-0.7,3.2-2.4,4c-5.6,3.2-11,6.6-16.6,9.6c-1.6,0.9-2.4,2-2,3.8
			c0.2,0.9,0.3,1.6,0.3,2.5c0,5,1.7,8.6,5.9,12.1c9,7.4,11.9,17.9,13.1,29.3c1.7,16.6-1.3,32.6-4.8,48.5c-1.1,4.9-2.4,9.7-3.6,14.6
			c-0.7,2.7-2.1,4.9-4.8,5.9c-3.5,1.3-5.4,3.7-4.8,7.5c0,0.2,0,0.4,0,0.7c-0.1,2.4-1,5.2-0.1,7.2s4.2,1.5,6.3,2.2
			c1.2,0.3,1.6,1.2,2.2,2.2c1,2,2.1,3.9,3.1,5.9c2.7-0.4,4.4-1.7,5.5-4.2c3.5-7.5,7.2-15,10.9-22.4c1-1.9,1.3-3.7,1.3-5.8
			c0-22.5,0.1-45.1,0.1-67.6c0-2,0.4-3.5,1.5-5c6.3-9.3,12.7-18.5,19-27.9c1.4-2.1,3.7-3.2,5.4-5c2.7-3.1,2.6-4.9-0.9-7
			c-4.9-2.8-9.8-5.6-14.9-8.2c-1.9-1-2.6-2.1-2.6-4.2c0.1-7.1,0-14.2,0-21.4c0.9-0.3,1.6,0.2,2.4,0.5c5.6,2.4,11.1,4.9,16.7,7.4
			c11.6,5.2,16.5,15.2,18.9,26.8c1.3,6.1,1,12.2-1.1,18.6c-3.1,9.5-2.5,19.7-2.5,29.6c0,21.7,2.5,43.3,2.2,65
			c-0.4,28.9-5.8,56.6-18,82.9c-9.5,20.4-22.4,37.7-41.2,50.4c-4,2.7-7.9,5.9-11.9,8.6c-19.5,13.6-38.9,27.1-57.8,41.5
			c-1.4,1.1-2.5,1.5-4.2,0.2c-23.2-18-47.8-34-71.3-51.5c-5.6-4.2-10.8-8.7-16.1-13.3c-10.1-8.7-15.7-20.4-21.6-31.9
			c-11.6-22.3-17.6-46.2-19.6-71.3c-1.7-21.5,0.3-42.9,1-64.4c0.5-15.7,2-31.6-2.3-46.9c-2.3-8-2.2-15.6,0.3-23
			c3.2-9.3,7.9-17.9,17.9-22.1C198.9,360.7,204.9,357.8,211.5,355.1z M305.9,483.5c1.3-1.5,1.5-3.1,2.1-4.4c4.8-13,8.9-26.2,16.7-38
			c5.7-8.5,12.7-13.7,23.2-13.2c0.7,0,1.3,0,2,0c3.7,0,7.4,0,11.4,0c0-2.2-0.1-3.8,0-5.5c0.3-2.8-0.5-3.9-3.6-3.8
			c-7.4,0.2-15,0.4-22.4,0c-5.8-0.3-10.3,0.9-13.8,5.8c-1.6,2.3-3.9,4.2-6,6.2c-3.1,3.1-6.1,6.1-8.4,8.3
			c-6.7-6.2-13.2-12.2-19.7-18.4c-1.3-1.3-2.6-1.9-4.5-1.9c-9.5,0.1-19,0-28.5,0c-1,0-2.2-0.3-3.1,0.5c0,2.8,0,5.7,0,8.6
			c6.3-0.1,12.3,0,18.5,0.5c5.6,0.4,9.9,2.7,13.4,7.1c5.5,7.1,10.4,14.4,13.6,22.7C299.7,466.5,302.6,474.8,305.9,483.5z
			 M306.1,579.5c3.4-3.8,6.3-7.4,9.5-10.9c0.8-0.9,0.7-1.7,0.4-2.7c-0.8-4.4-1.3-8.6-2.1-13c-2.6-16-4.3-31.9-3-48.2
			c0.3-4.3,0.5-8.4,0.9-12.8c-4,0-7.7,0-11.4,0c-0.7,1.6-0.1,3.2,0,4.6c1,11,1.3,22.2,0.5,33.2c-0.9,11.9-3.2,23.7-4.8,35.5
			c-0.1,1.1-0.5,2.1,0.2,3.1C299.7,572,302.8,575.6,306.1,579.5z M353,570.1c-1-3.7-1.9-7-2.6-10.4c-0.4-1.6-1.1-2.6-3-2.6
			c-2.6,0.1-3.8-1.4-4-3.9c-0.1-1.1-0.4-2.1-0.7-3.2c-5-17.2-7.8-34.5-8.5-52.3c-0.1-3.5-0.5-6.9-0.8-10.6c-2,0.3-3.6,0.8-5.1,0.9
			c-2.3,0.2-3.1,1.2-2.8,3.5c2.3,20.8,3.1,41.7,5.9,62.5c0.8,5.5,1.7,10.9,3.4,16.3c0.7,2.1,1.5,4.3,4.5,3.5
			C343.6,572.7,348.1,571.4,353,570.1z M259.2,570c5,1.3,9.7,2.6,14.4,3.8c1.9,0.4,2.8-0.8,3.4-2.3c0.8-2.1,1.4-4.3,2-6.4
			c2.7-12.3,3.7-24.9,4.7-37.5c1-12.1,2.1-24.3,3.1-36.4c0.1-1.2,0.7-2.7-1.3-3.1c-2.1-0.4-4.2-0.8-6.2-1.2
			c-0.9,2.1-0.7,3.9-0.8,5.7c-0.8,11.1-1.3,22.4-3.3,33.4c-1.5,9.2-4.5,18-6.3,27.1c-0.5,2.4-1.4,3.6-3.8,3.7
			c-1.1,0.1-2.4-0.1-2.7,1.5C261.4,562.2,260.3,565.9,259.2,570z M249.6,593.3c-0.1,5.7,3.3,10.2,7.5,10.2c4.4,0,7.8-4.7,7.4-10.5
			c-0.2-5.4-3.6-9.5-7.6-9.4C253,583.8,249.7,588,249.6,593.3z M347.6,593.5c0,5.7,3.4,10.2,7.7,10.1c4-0.1,7.3-4.7,7.3-10.2
			c-0.1-5.4-3.3-9.6-7.3-9.7C351,583.5,347.6,587.9,347.6,593.5z M314.1,612.7c0.1-4.9-3.6-9.2-7.9-9.3c-4.3-0.1-8,4.2-8.1,9.1
			c0,4.9,3.6,9.2,7.9,9.3C310.3,621.9,314.1,617.6,314.1,612.7z"/>
	</g>
</g>
<g>
	<g>
		<path fill="#C4BA98" stroke="#000000" stroke-width="0.5" stroke-miterlimit="10" d="M387.1,678v-12.9h10.1v2.3h-7.8v3.4h4.2v2.4
			h-4.2v4L387.1,678z"/>
		<path fill="#C4BA98" stroke="#000000" stroke-width="0.5" stroke-miterlimit="10" d="M399.8,668.1c0-1.2,0.2-2,0.5-2.4
			c0.3-0.4,1-0.6,2-0.6h7.3c1,0,1.6,0.2,2,0.6c0.3,0.4,0.5,1.2,0.5,2.4v6.8c0,1.2-0.2,2-0.5,2.4c-0.3,0.4-1,0.6-2,0.6h-7.3
			c-1,0-1.6-0.2-2-0.6c-0.3-0.4-0.5-1.2-0.5-2.4V668.1z M402.2,675.5h7.7v-8.2h-7.7V675.5z"/>
		<path fill="#C4BA98" stroke="#000000" stroke-width="0.5" stroke-miterlimit="10" d="M417,675.9v-10.9h8.5c0.8,0,1.4,0.2,1.7,0.6
			c0.4,0.4,0.5,1,0.5,1.9v3c0,0.9-0.2,1.5-0.5,1.9c-0.4,0.4-0.9,0.6-1.7,0.6h-1.3l4.6,4.9h-3.3l-4-4.9h-2.2v2.3L417,675.9z
			 M424.5,667.3h-5.2v3.6h5.2c0.4,0,0.7-0.1,0.8-0.2c0.1-0.1,0.2-0.4,0.2-0.8v-1.6c0-0.4-0.1-0.6-0.2-0.8
			C425.2,667.4,424.9,667.3,424.5,667.3z"/>
	</g>
	<g>
		<path fill="#C4BA98" stroke="#000000" stroke-width="0.5" stroke-miterlimit="10" d="M369.6,704c0.9-0.1,1.3,0.3,1.3,1.2v1.5h2.5
			c1,0,1.2,0.3,0.7,1h-3.2c0,1.7,0.1,2.5,0.3,2.5c0.4,0.1,0.8,0,1.2-0.2c1.1-0.2,1.6,0.2,1.5,1.2c-0.1,0.8-0.2,1.9-0.2,3.4
			c0.1,1.1-0.4,1.5-1.7,1.2c-1.3-0.4-2.7-0.4-4.2,0c-0.9,0.6-1.4,0.3-1.5-0.8c-0.1-1.1-0.3-2.3-0.7-3.7c0.1-0.9,0.7-1.2,1.8-0.8
			c0.9,0.1,1.3-0.1,1.3-0.7c0-1.2,0-2.4-0.2-3.5C368.5,704.6,368.8,703.9,369.6,704z M367.9,712c-0.1,1.3,0.1,2.1,0.7,2.2
			c2.6,0.3,3.7,0,3.5-1.2c0.2-1.6-0.8-2.2-3.2-1.8C368.3,711.2,367.9,711.5,367.9,712z M374.6,708.2c0.4,0,0.7,0,0.8-0.2
			c-0.1-1.2-0.2-2.4-0.2-3.5c-0.1-0.8,0.3-1.1,1.2-1c0.6,0,0.8,0.3,0.8,0.8c-0.1,1-0.1,2.2,0,3.5c3.7-0.6,5.5-0.6,5.4,0
			c0.2,0.3,0.2,0.5-0.2,0.5c-1.7,0.2-3.4,0.5-5,0.8c0.3,1,0.7,1.8,1,2.5c0.4-0.6,0.9-1.2,1.3-2c0.3-0.3,0.7-0.4,1-0.3
			c0.4,0.3,0.6,0.7,0.5,1.2c-0.7,0.9-1.3,1.6-1.8,2.2c1.2,1.2,3.2,1.8,6,1.7c0.2,0.1-0.1,0.7-1,1.7c-1.2,1.2-2.5,1.4-3.9,0.7
			c-0.6-0.4-1.4-1.3-2.7-2.5c-1.1,0.8-2.3,1.2-3.5,1.3c-0.6-0.1-0.7-0.3-0.3-0.7c1.1-0.3,2.1-1,3-2c-0.4-0.7-0.9-1.8-1.3-3.4
			c-0.6,0.1-1.1,0.3-1.5,0.5c-0.7,0.1-0.9-0.2-0.8-1C373.4,708.6,373.9,708.3,374.6,708.2z M380,704.3c0.3-0.8,0.8-1,1.3-0.7
			c0.6,0.3,0.7,0.8,0.5,1.3c-0.4,0.7-1.2,1.1-2.2,1.2c-0.4,0-0.6-0.2-0.5-0.5C379.5,705.2,379.8,704.8,380,704.3z"/>
		<path fill="#C4BA98" stroke="#000000" stroke-width="0.5" stroke-miterlimit="10" d="M393.3,708.2c0.6,0,0.9,0.2,1.2,0.5
			c-0.1,0.4-0.5,0.6-1.2,0.5c-0.7,0-1.3,0-2,0.2c0.2,0.3,0.1,0.7-0.3,1l-0.8,0.8c-0.3,0.4,0,0.7,0.8,0.8c0.7,0.1,1.2-0.1,1.7-0.7
			l-0.5-1c0.1-0.3,0.3-0.4,0.7-0.3c0.3,0.2,0.7,0.4,1,0.7c0.2,0.4,0.5,0.9,0.8,1.5c-0.1,0.2-0.2,0.3-0.3,0.3
			c-0.4,0.1-0.9-0.1-1.3-0.7c-0.7,1.2-1.4,1.7-2.2,1.3c-0.7-0.4-1.3-0.5-1.8-0.2c-0.2,0-0.4-0.2-0.7-0.5c-0.1-0.4,0.1-0.9,0.7-1.3
			c1-0.9,1.3-1.5,1-1.8c-0.4-0.1-1.1,0-2,0.3c-0.3,0.2-0.6,0.2-0.7-0.2c0.1-0.8,0.5-1.2,1.2-1.3L393.3,708.2L393.3,708.2z
			 M393.3,705.8c0.3,0,0.6,0.2,0.7,0.5c0,0.3-0.1,0.5-0.3,0.5h-2.7c-0.8,0-1.5,0-2.2,0.2c-0.2-0.1-0.3-0.3-0.3-0.7
			c0.1-0.3,0.3-0.6,0.7-0.8C389.8,705.7,391.2,705.8,393.3,705.8z M397.6,710.5c-0.3-0.1-0.7-0.1-1,0c-0.3,0.2-0.7,0.4-1,0.5
			c-0.2,0-0.4,0-0.5-0.2c-0.2-1.7-0.4-3.2-0.7-4.5c-0.1-0.7,0.2-1,1-1c0.3,0.2,0.9,0.3,1.7,0.2c0.3-0.3,0.7-0.9,1.2-1.7
			c0.1-0.2,0.3-0.3,0.7-0.3c1,0.3,1.3,0.7,0.8,1.2c-0.3,0.3-0.6,0.6-0.8,0.8c0.8,0,1.8,0.1,3,0.3c0.3-0.1,0.6-0.2,0.8-0.3
			c0.3-0.1,0.6,0,0.8,0.2c0.4,0.3,0.6,0.8,0.3,1.5c-0.3,1-0.6,2.1-0.7,3.2l-0.5,0.3c0.4,0.3,0.5,0.6,0.2,0.8
			c-0.2,0.2-0.4,0.4-0.7,0.7c-0.2,0.1-0.2,0.3,0.2,0.5c0.4,0.1,0.8,0,1.2-0.2c-0.4-0.3-0.5-0.6-0.2-0.7c0.4,0,0.8,0,1,0.2
			c0.2,0.3,0.4,0.7,0.7,1c-0.1,0.1-0.3,0.2-0.5,0.3l-0.7-0.5c-0.2,0.7-0.6,0.9-1.2,0.8c-0.4-0.3-0.9-0.4-1.3-0.3
			c-0.3-0.2-0.4-0.5-0.3-0.8c0.2-0.2,0.4-0.5,0.7-0.8c0.1-0.2,0.3-0.6,0.5-1c-0.9-0.1-2-0.2-3.2-0.2c-0.8,2.6-2.3,4.4-4.5,5.5
			c-1.8,0.7-3.1,0.4-4-0.8c0-0.1,0.2-0.2,0.7-0.2C394.7,714.7,396.9,713.2,397.6,710.5z M398.1,706.3c-0.8,0-1.4,0.1-1.8,0.3
			c-0.2,0.7-0.1,1,0.3,1l1.8-0.2C398.6,706.9,398.5,706.5,398.1,706.3z M398.3,708.3c-0.6,0-1.2,0-2,0.2c0,0.8,0.2,1.2,0.5,1.2
			l1.2-0.2L398.3,708.3z M399.5,711.4c0.1-0.4,0.3-0.7,0.7-0.7c0.2,0,0.4,0.1,0.5,0.3c-0.2,0.4-0.4,0.9-0.5,1.3c0,0.4,0,0.8,0.2,1
			c0.4,0.6,1.3,0.9,2.7,1.2c1.1,0.1,2.2,0,3.2-0.3c0.7-0.3,1.1-0.4,1.3-0.2c-0.1,0.7-0.5,1.5-1.2,2.3c-0.8,0.7-1.5,0.9-2,0.7
			c-1.9-0.3-3.5-1.1-4.7-2.3c-0.6-0.7-0.8-1.3-0.7-1.8C399.2,712.3,399.4,711.8,399.5,711.4z M402,709.9c0.2-0.4,0.3-0.8,0.2-1.2
			c-0.4-0.2-1.3-0.3-2.5-0.3c-0.1,0.4-0.2,0.9-0.2,1.3C400.4,709.8,401.2,709.9,402,709.9z M399.8,707.5l1.8,0.2
			c0.4,0.1,0.7-0.1,0.7-0.7c0-0.4-0.7-0.7-2-0.7C400,706.4,399.8,706.8,399.8,707.5z"/>
		<path fill="#C4BA98" stroke="#000000" stroke-width="0.5" stroke-miterlimit="10" d="M414.6,707.3c0.2-0.4,0.4-0.7,0.5-0.7
			c0.6-0.1,0.7,0.3,0.5,1.2c-0.3,1-0.8,2.1-1.5,3.2c-0.6,0.9-1.1,1.6-1.7,2c-1.1,1-2.3,0.9-3.5-0.2c-0.3-0.3-0.2-0.7,0.3-1
			C411.1,711,412.9,709.5,414.6,707.3z M418.4,704c1.1-0.1,1.6,0.5,1.5,1.8c-0.1,2.8,0,5.9,0.2,9.4c0,1.3-1.1,2-3.2,1.8
			c-1.1-0.1-2.4-0.7-3.9-1.8c-0.2-0.6-0.1-0.8,0.3-0.8c2.1,0.7,3.4,0.8,3.9,0.3c0.3-0.2,0.4-3.4,0.3-9.4
			C417.6,704.4,417.9,704,418.4,704z M421.1,707.8c-0.3-0.4-0.3-0.8,0.2-1c0.2-0.1,0.4,0,0.7,0.2c1.6,2,3.9,3.7,7.1,5.2
			c-0.3,0.6-0.7,0.9-1,1.2c-1,0.9-2,0.9-2.9,0C423.7,711.6,422.4,709.7,421.1,707.8z"/>
		<path fill="#C4BA98" stroke="#000000" stroke-width="0.5" stroke-miterlimit="10" d="M437.7,710.2c-0.3,1.1-0.7,2-1,2.5l2.2-0.3
			c-0.1-0.4-0.2-0.9-0.2-1.3c0.1-0.4,0.5-0.7,1.2-0.8c0.4,0,0.8,0.1,1.2,0.3c0.4,0.1,0.8,0.1,1,0V705c0-0.7,0.2-1.1,0.7-1.2
			c1.1,0,1.7,0.4,1.7,1.2c-0.1,0.6-0.2,1-0.2,1.3c2.3,0.1,4.3,0.2,5.9,0.2c0,0.6-0.2,1.1-0.5,1.5c-0.4,0.4-0.9,0.6-1.3,0.3
			c-1.8-0.6-3.1-0.7-4-0.5c-0.2,0.9-0.2,1.8,0,2.7c0.8,0.1,1.4,0,1.8-0.2c1.4-0.4,2.2,0,2.2,1.2c-0.2,0.9-0.3,2-0.3,3.4
			c0.2,1.4-0.3,2-1.5,1.5c-1.6-0.2-3.2-0.3-5-0.2c-1.3,0.7-2.1,0.3-2.2-1.2c0-0.3,0-0.9-0.2-1.8c-2.2,1-4.9,1.8-7.9,2.3
			c-1,0.2-1.5-0.2-1.3-1.2c0-0.6,0.6-0.9,1.7-1c1.2-0.1,2.6-0.3,4.2-0.5c0.3-1.2,0.5-2.4,0.5-3.5c0-0.8,0.2-1.2,0.7-1.2
			C437.8,708.3,438.1,709,437.7,710.2z M436.4,705c-0.1,1.3,0,2,0.3,1.8l2.3,0.2c0.6,0.4,0.6,0.8,0.2,1c-0.2,0.1-0.6,0.2-1.2,0.2
			c-2.2-0.4-4.5-0.3-6.9,0.5c-0.4,0.1-0.7,0-0.7-0.5c0.2-1,0.7-1.4,1.3-1.3c0.9,0.2,1.6,0.3,2,0.2c0.3-0.1,0.4-0.8,0.3-2
			c0.1-0.4,0.3-0.7,0.7-0.7C435.6,704.2,436.1,704.4,436.4,705z M434.7,712.4c-0.2,0.3-0.5,0.4-0.8,0.2c-0.7-1-1.1-1.9-1.2-2.7
			c-0.1-0.8,0.2-1.2,0.8-1.3c0.6-0.1,0.8,0.1,0.8,0.7C434.5,710.3,434.6,711.4,434.7,712.4z M444.1,711.7c-1.6-0.1-2.6,0-3,0.3
			c-0.3,0.8-0.3,1.6,0,2.3c0.1,0.6,1.3,0.7,3.7,0.5c1,0,1.5-0.6,1.5-1.7C446.3,712.1,445.6,711.6,444.1,711.7z"/>
	</g>
	
		<linearGradient id="SVGID_1_" gradientUnits="userSpaceOnUse" x1="324.8046" y1="232.6529" x2="324.8046" y2="232.6529" gradientTransform="matrix(1.0929 0 0 -1.0929 0 955.5428)">
		<stop  offset="0" style="stop-color:#C4BA98"/>
		<stop  offset="1.474962e-002" style="stop-color:#CEC5A9"/>
		<stop  offset="4.332456e-002" style="stop-color:#DDD7C4"/>
		<stop  offset="7.615717e-002" style="stop-color:#EAE6DA"/>
		<stop  offset="0.1145" style="stop-color:#F3F1EB"/>
		<stop  offset="0.162" style="stop-color:#FAF9F6"/>
		<stop  offset="0.2285" style="stop-color:#FEFEFD"/>
		<stop  offset="0.4133" style="stop-color:#FFFFFF"/>
		<stop  offset="0.4696" style="stop-color:#DDDBD8"/>
		<stop  offset="0.5499" style="stop-color:#B2AFA6"/>
		<stop  offset="0.6258" style="stop-color:#908B7F"/>
		<stop  offset="0.6952" style="stop-color:#787263"/>
		<stop  offset="0.7558" style="stop-color:#696252"/>
		<stop  offset="0.801" style="stop-color:#645D4C"/>
		<stop  offset="0.8499" style="stop-color:#776F5B"/>
		<stop  offset="0.9484" style="stop-color:#A89F82"/>
		<stop  offset="1" style="stop-color:#C4BA98"/>
	</linearGradient>
	
		<linearGradient id="SVGID_2_" gradientUnits="userSpaceOnUse" x1="324.8046" y1="232.6529" x2="324.8046" y2="232.6529" gradientTransform="matrix(1.0929 0 0 -1.0929 0 955.5428)">
		<stop  offset="0" style="stop-color:#C4BA98"/>
		<stop  offset="1.389108e-002" style="stop-color:#C7BD9D"/>
		<stop  offset="0.1655" style="stop-color:#E5E1D2"/>
		<stop  offset="0.2794" style="stop-color:#F8F7F3"/>
		<stop  offset="0.3418" style="stop-color:#FFFFFF"/>
		<stop  offset="0.4046" style="stop-color:#E1E0DC"/>
		<stop  offset="0.5083" style="stop-color:#B5B1A9"/>
		<stop  offset="0.6058" style="stop-color:#928D81"/>
		<stop  offset="0.6943" style="stop-color:#797364"/>
		<stop  offset="0.7708" style="stop-color:#696352"/>
		<stop  offset="0.8265" style="stop-color:#645D4C"/>
		<stop  offset="0.8691" style="stop-color:#776F5B"/>
		<stop  offset="0.955" style="stop-color:#A89F82"/>
		<stop  offset="1" style="stop-color:#C4BA98"/>
	</linearGradient>
	<path fill="url(#SVGID_1_)" stroke="url(#SVGID_2_)" stroke-width="0.5" stroke-miterlimit="10" d="M355,701.3"/>
	
		<linearGradient id="SVGID_3_" gradientUnits="userSpaceOnUse" x1="333.813" y1="239.4743" x2="333.813" y2="239.4743" gradientTransform="matrix(1.0929 0 0 -1.0929 0 955.5428)">
		<stop  offset="0" style="stop-color:#C4BA98"/>
		<stop  offset="1.474962e-002" style="stop-color:#CEC5A9"/>
		<stop  offset="4.332456e-002" style="stop-color:#DDD7C4"/>
		<stop  offset="7.615717e-002" style="stop-color:#EAE6DA"/>
		<stop  offset="0.1145" style="stop-color:#F3F1EB"/>
		<stop  offset="0.162" style="stop-color:#FAF9F6"/>
		<stop  offset="0.2285" style="stop-color:#FEFEFD"/>
		<stop  offset="0.4133" style="stop-color:#FFFFFF"/>
		<stop  offset="0.4696" style="stop-color:#DDDBD8"/>
		<stop  offset="0.5499" style="stop-color:#B2AFA6"/>
		<stop  offset="0.6258" style="stop-color:#908B7F"/>
		<stop  offset="0.6952" style="stop-color:#787263"/>
		<stop  offset="0.7558" style="stop-color:#696252"/>
		<stop  offset="0.801" style="stop-color:#645D4C"/>
		<stop  offset="0.8499" style="stop-color:#776F5B"/>
		<stop  offset="0.9484" style="stop-color:#A89F82"/>
		<stop  offset="1" style="stop-color:#C4BA98"/>
	</linearGradient>
	
		<linearGradient id="SVGID_4_" gradientUnits="userSpaceOnUse" x1="333.813" y1="239.4743" x2="333.813" y2="239.4743" gradientTransform="matrix(1.0929 0 0 -1.0929 0 955.5428)">
		<stop  offset="0" style="stop-color:#C4BA98"/>
		<stop  offset="1.389108e-002" style="stop-color:#C7BD9D"/>
		<stop  offset="0.1655" style="stop-color:#E5E1D2"/>
		<stop  offset="0.2794" style="stop-color:#F8F7F3"/>
		<stop  offset="0.3418" style="stop-color:#FFFFFF"/>
		<stop  offset="0.4046" style="stop-color:#E1E0DC"/>
		<stop  offset="0.5083" style="stop-color:#B5B1A9"/>
		<stop  offset="0.6058" style="stop-color:#928D81"/>
		<stop  offset="0.6943" style="stop-color:#797364"/>
		<stop  offset="0.7708" style="stop-color:#696352"/>
		<stop  offset="0.8265" style="stop-color:#645D4C"/>
		<stop  offset="0.8691" style="stop-color:#776F5B"/>
		<stop  offset="0.955" style="stop-color:#A89F82"/>
		<stop  offset="1" style="stop-color:#C4BA98"/>
	</linearGradient>
	<path fill="url(#SVGID_3_)" stroke="url(#SVGID_4_)" stroke-width="0.5" stroke-miterlimit="10" d="M364.8,693.8"/>
	<g>
		<g>
			<path fill="#C4BA98" stroke="#000000" stroke-width="0.5" stroke-miterlimit="10" d="M360.5,684.8H354v5h3.5v3.5H354v6.2
				l-1.9,0.9v-19h8.4V684.8"/>
			<path fill="#C4BA98" stroke="#000000" stroke-width="0.5" stroke-miterlimit="10" d="M362.8,697.2v-0.9v-14.8h7.1
				c0.7,0,1.1,0.3,1.4,0.9c0.3,0.6,0.4,1.5,0.4,2.8v4.5c0,1.3-0.1,2.2-0.4,2.8c-0.3,0.6-0.8,0.9-1.4,0.9h-1.1l3.8,7.2h-2.8l-3.3-7.2
				h-1.8v2.4v1.1L362.8,697.2z M369.1,684.8h-4.4v5.3h4.3c0.3,0,0.6-0.1,0.7-0.3c0.1-0.2,0.2-0.6,0.2-1.2v-2.3
				c0-0.6-0.1-0.9-0.2-1.2C369.7,684.9,369.4,684.8,369.1,684.8z"/>
			<path fill="#C4BA98" stroke="#000000" stroke-width="0.5" stroke-miterlimit="10" d="M375.7,700.6v-19.2h1.9v19.2H375.7z"/>
			<path fill="#C4BA98" stroke="#000000" stroke-width="0.5" stroke-miterlimit="10" d="M381.9,700.6v-19.2h8.5v3.3h-6.6v4.3h3.8
				v3.3h-3.8v4.8h6.7v3.6L381.9,700.6L381.9,700.6z"/>
			<path fill="#C4BA98" stroke="#000000" stroke-width="0.5" stroke-miterlimit="10" d="M394,700.6v-19.2h1.3l5.8,11.3
				c0.2,0.4,0.4,0.7,0.5,1.1c0.1,0.3,0.3,0.7,0.4,1c0-1.1,0-1.8-0.1-2.3c0-0.4,0-0.8,0-1v-10.1h1.7v19.2h-1.3l-6.1-11.8
				c-0.1-0.3-0.3-0.6-0.4-0.8c-0.1-0.2-0.2-0.5-0.3-0.7c0,0.6,0,1.2,0,1.7c0,0.5,0,1,0,1.4v10.4H394L394,700.6z"/>
			<path fill="#C4BA98" stroke="#000000" stroke-width="0.5" stroke-miterlimit="10" d="M408,700.6v-19.2h5.3c1.5,0,2.7,0.8,3.5,2.5
				c0.8,1.7,1.2,4,1.2,7c0,1.8-0.2,3.4-0.5,4.8c-0.3,1.4-0.8,2.6-1.3,3.4c-0.4,0.5-0.8,0.9-1.3,1.1c-0.5,0.2-1.2,0.4-2.1,0.4
				L408,700.6L408,700.6z M409.9,697.1h2.5c1.3,0,2.3-0.5,2.8-1.4c0.5-0.9,0.8-2.5,0.8-4.7c0-2-0.2-3.5-0.7-4.4
				c-0.4-1-1.1-1.5-2-1.5h-3.4L409.9,697.1L409.9,697.1z"/>
			<path fill="#C4BA98" stroke="#000000" stroke-width="0.5" stroke-miterlimit="10" d="M428.8,684.8h-5.4v4.1h5.2
				c0.8,0,1.3,0.3,1.6,1s0.4,1.8,0.4,3.6v2.7c0,1.8-0.1,2.9-0.4,3.6s-0.8,1-1.6,1h-5.1c-0.8,0-1.3-0.3-1.6-1
				c-0.3-0.6-0.4-1.8-0.4-3.6v-0.5l1.7-0.8v2.3h5.9v-4.4h-5.2c-0.8,0-1.3-0.3-1.6-1c-0.3-0.6-0.4-1.8-0.4-3.6V686
				c0-1.8,0.1-2.9,0.4-3.6c0.3-0.6,0.8-1,1.6-1h4.7c0.8,0,1.3,0.3,1.6,0.9c0.3,0.6,0.4,1.7,0.4,3.3v0.4l-1.7,0.9V684.8L428.8,684.8z
				"/>
			<path fill="#C4BA98" stroke="#000000" stroke-width="0.5" stroke-miterlimit="10" d="M442.6,697.8v-5.4h-6v7.6l-1.9,0.7v-19.2
				h1.9v7.5h6v-7.5h1.9v15.6L442.6,697.8z"/>
			<path fill="#C4BA98" stroke="#000000" stroke-width="0.5" stroke-miterlimit="10" d="M448.8,700.6v-19.2h1.9v19.2H448.8z"/>
			<path fill="#C4BA98" stroke="#000000" stroke-width="0.5" stroke-miterlimit="10" d="M455,700.6v-19.2h7.1c0.7,0,1.1,0.3,1.4,0.9
				c0.3,0.6,0.4,1.5,0.4,2.8v4.3c0,1.3-0.1,2.2-0.4,2.8c-0.3,0.6-0.8,0.9-1.4,0.9h-5.2v6.6L455,700.6z M461.2,684.8h-4.4v5.1h4.3
				c0.3,0,0.6-0.1,0.7-0.3c0.1-0.2,0.2-0.6,0.2-1.2v-2.1c0-0.6-0.1-0.9-0.2-1.2C461.8,684.9,461.5,684.8,461.2,684.8z"/>
		</g>
	</g>
</g>
</svg>
