<?xml version="1.0" encoding="utf-8"?>
<!-- Generator: Adobe Illustrator 18.1.1, SVG Export Plug-In . SVG Version: 6.00 Build 0)  -->
<svg version="1.1" id="图层_1" xmlns="http://www.w3.org/2000/svg" xmlns:xlink="http://www.w3.org/1999/xlink" x="0px" y="0px"
	 viewBox="0 0 560 560" enable-background="new 0 0 560 560" xml:space="preserve">
	 <style type="text/css">
	.st0{fill:#FFFFFF;}
</style>
<g>
	<g>
		<path class="st0" d="M433.6,222.2c3.1,0,5.7-1,8.3-1.8c1.8-0.5,2.9,0.1,3.7,1.6c1.3,2.4,1.9,5,1.8,7.7c-0.1,9.1,1.3,17.9,4,26.6
			c2.5,8.1,3.3,16.6,5.9,24.7c0.8,2.4-1.2,4.7-4.1,5.4c-2,0.5-4.1,0.6-6.1,0.2c-2.4-0.4-3,0.7-3.2,2.8c-1,9.5-0.8,19,0.1,28.6
			c0.8,8.5,2.4,16.9,4,25.3c2.3,12.7,1.2,25.4-0.7,38c-2.3,15-7.1,29.5-10.5,44.3c-2.3,10-4.4,20.1-7,30.1
			c-4.4,17-12.8,31.9-24.8,44.8c-11.2,12-22.4,24-33.5,36c-14.6,15.8-33,21.5-54,19.6c-16.9-1.5-32.7-6.7-47.7-14.4
			c-14.7-7.5-29.4-14.9-43.4-23.7c-22.9-14.4-41.3-32.9-52.9-57.8c-4.2-9-8.9-17.7-11.5-27.4c-0.2-0.7-0.5-1.3-0.8-1.9
			c-1.8-3.4-2.3-3.6-5.6-1.8c-6.3,3.4-12.5,2-17.6-3.9c-2-2.3-3.6-4.8-4.7-7.5c-2.5-6.3-6.5-11.5-11.2-16.3c-3.4-3.5-6.5-7.3-9.7-11
			c-0.4-0.5-0.8-1-1.1-1.4c-0.6-0.8-8.2-16.9-8.5-17.8c-0.8-3.3-0.6-6.7,0.2-10c1.5-5.9,3.5-11.7,5.6-17.4c2.2-6,6.6-9.3,13-10.1
			c3.3-0.4,6.7-0.8,10-0.6c0.6,0,1.2,0.1,1.8-0.3c-0.6-1.1-1.6-0.8-2.4-0.8c-2.6-0.1-5.2,0.1-7.8,0c-4-0.1-7.4,0.7-10.5,3.5
			c-2.6,2.4-6.1,2.4-9.3,1.7c-1.9-0.3-2.8-2-3.5-3.6c-1.7-3.7-1.5-7.6-1.6-11.5c-0.1-11.2-0.3-22.4,0.6-33.6
			c0.3-3.9-0.2-7.8-1.3-11.5c-2.2-8.2,0.1-15.2,6-21.1c3.8-3.9,7.8-7.5,13.2-9.3c1.6-0.5,2.1-2,2.2-3.4
			c2.5-21.4,10.7-40.9,19.1-60.4c2-4.7,4.9-9,8.1-13c6.9-8.7,13.4-17.6,21.2-25.5c3.7-3.8,7.5-7.4,11.9-10.3
			c2.3-1.6,3.7-3.6,4.5-6.1c1.4-4.2,3-8.3,6-11.8c-1.2,4-2.4,8-3.7,12.3c2.1-0.7,3.5-2,5.2-2.9c0.3-0.2,0.6-0.4,1-0.6
			c5.2-2.4,9-6.1,10.3-11.9c0.1-0.6,0.3-1.3,1.2-1.9c-0.4,2.4-0.7,4.6-1.2,7.3c5.1-2.2,9.7-4.4,13.9-7.3c0.9-0.6,1-1.7,1.2-2.7
			c0.8-4,1.6-8.1,3.4-12c-0.3,4-0.6,8-1,12.4c4.4-1.8,8.4-3.5,12.4-5.2c1-0.4,1.2-1.5,1.2-2.5c0.1-1.4,0-2.7,0.7-4.2
			c1.2,1.6,0.6,3.6,1.7,5.4c3.5-1,7-2.1,10.5-3.1c1.2-0.3,0.9-1.3,0.8-2.1c-0.3-3.2-0.8-6.4-1.1-9.5c-0.1-1-0.1-1.9-0.2-3.5
			c1.8,2.4,2.2,4.7,2.7,7c0.5,1.8,0.7,3.7,1.1,5.6c0.2,0.7,0.3,1.6,1.4,1.4c4.9-0.9,9.9-1.8,15-2.8c-1.6-3.5-4.2-6.1-5.2-9.6
			c2.1,1.4,3.9,3.1,5.2,5.3c2,3.3,4.5,4.3,8.2,3.6c3.9-0.8,8-0.8,12.2-0.9c-4.3-4.5-10-7-14.7-11c1.7-0.3,2.1-0.3,4,0.6
			c4,2,7.8,4.2,11.2,7c5.3,4.4,8.5,5.2,15.4,3.6c0.2-0.8-0.4-0.9-0.8-1.1c-8-5-15.7-10.5-24.6-14c-3-1.2-5.6-3.1-7.8-5.5
			c-1.1-1.2-2.4-1.8-3.9-2.2c-7.8-2-15.4-1.4-23.1,0.8c-14,4.1-27.3,9.8-38.2,19.9c-1.7,1.6-3.3,3.4-4.9,5.1c-0.6,0.6-1,1.3-1.8,1.5
			c-0.9-0.6-0.5-1.3-0.4-2c1.3-7.7,1.9-15.4,2-23.2c0-4.6,2.5-7.9,6-10.5c8.1-5.9,17-9.8,27-11.1c8.6-1.1,17,0.1,25.3,2.8
			c0.9,0.3,1.7,0.6,2.9,1c-0.8-2.2-2.4-2.9-3.9-3.7c-1.6-0.8-3.2-1.4-5.1-2.2c3.3-4.7,4.3-10,6.1-15.4c1.7,1.5,2.7,3.2,3.7,4.9
			c3.5,6,5.1,12.7,6.3,19.5c0.2,1.2-0.3,1.6-1.3,1.6c4.7,8.7,10.6,15.7,20.2,19.2c7,2.6,13.1,6.8,19.3,10.9
			c3.6,2.4,7.3,3.8,11.8,3.7c5.6-0.1,11,1.5,16.4,2.9c6.3,1.7,12.6,3.2,18.8,4.9c14.3,3.8,26.6,11.5,38.1,20.5
			c19.4,15.2,33,34.5,40.5,58c4.2,13.3,5.9,26.8,2.9,40.6C433.6,220.8,433.6,221.4,433.6,222.2z M268.9,216.6
			c-4.3,0.6-5.4-2.3-6.1-5.8c-0.3-1.6-0.6-3.3-1.6-4.9c-1.8,5.4,0.3,11.4-3.2,16.2c-2.5-9.6-3.2-19.6-5.9-29.1
			c-0.1,1.2,0,2.5,0.1,3.7c0.5,6.7,0.4,13.4-0.6,20.1c-0.2,1.4-0.6,2.7-2,3.4c-2-1.1-1-3.7-2.5-5.2c-0.1,0.9-0.2,1.6-0.3,2.3
			c-0.5,2.5-1.7,3.1-3.9,2c-2.1-0.9-3.5-2.4-4-4.7c-2.3-10.7-3.6-21.5-6.4-32.1c-0.4-1.6,0-3.3,1.6-3.9c1.8-0.7,1.6-2,1.4-3.3
			c-0.3-1.3-0.7-2.7-1-4c-0.5-1.9-0.1-3.6,1.5-4.7c1.2-0.9,1.1-1.8,0.6-3c-0.9-2.3-1.6-4.6-2.4-6.9c-0.4-1.2-0.5-2.3,0.7-3.1
			c1.2-0.9,2.3-0.4,3.3,0.4c1.4,1.1,2.5,2.5,3.5,3.9c0.7,1,1.2,2.4,2.7,3.6c-1-3.7-1.9-6.9-2.7-10c-0.4-1.5-1-3.1,1-4
			c1.8-0.8,2.9,0.3,3.8,1.6c2.8,3.8,4.8,7.9,6.4,12.4c0.2,0.7,0.2,1.8,1.4,1.6c0.5-0.9,0.1-1.6-0.2-2.4c-0.9-3.2-1.8-6.3-2.7-9.5
			c-0.3-1.2-0.2-2.3,1-3c1.2-0.7,2.2-0.1,3,0.8c0.8,0.9,1.6,1.9,2.2,2.9c1,1.5,1.9,3,2.9,4.8c0.6-1.5,0.1-3.3,2-3.6
			c1.7-0.2,2.6,0.9,3.5,2.2c0.5,0.8,1,1.5,1.4,2.3c0.7,1.4,1.4,2.9,2.1,4.4c-0.3-3.3,0-6.5,0.5-9.7c0.5-3.4-1.6-6.7,0-10
			c0.2-0.4-0.4-1.2-0.7-1.9c-1.4-2.8-2.9-5.6-4.2-8.4c-0.5-1-1-2.1,0.3-2.8c1.1-0.7,1.9,0.2,2.5,0.9c3.1,3.2,5.8,6.9,8.4,10.6
			c0.9,1.4,1.9,2.7,2.9,4c-1.5-5.8-5.1-10.9-6-17c0.6,0.1,1.2,0,1.3,0.2c6.9,7.8,13.7,15.7,19.5,24.4c-1.8-7.6-5.5-14.5-7.3-22.2
			c1.9,0,2.6,1.1,3.2,2.1c2.4,3.7,4.8,7.4,7.1,11.2c0.5,0.7,0.9,1.4,1.7,1.7c2.2,0.8,3.6,2.6,4.7,4.5c0.8,1.4,1.6,2.8,2.6,4.1
			c1,1.4,2.3,2.1,4.1,1.6c0.4-1.2-0.1-2.2-0.3-3.2c-0.7-3-1.7-6.1-1.2-9.2c0.4-2.4-0.1-4.6-1-6.7c-0.9-2-1.8-3.9-2.6-5.8
			c-1.3-3-1.2-3.2,1.6-4.3c-0.1-1.2-0.9-2.1-1.3-3.1c-0.4-0.9-1-1.9,0.1-2.7c1-0.8,1.7,0.1,2.4,0.6c3.4,2.6,6.2,5.9,8.8,9.3
			c1.2,1.6,2.5,3.2,3.8,4.9c0.7-1,0.1-1.7-0.1-2.4c-0.5-1.4-1-2.7,0.7-3.6c1.7-0.8,2.5,0.4,3.3,1.6c2.8,3.7,5.1,7.8,7.2,11.9
			c0.4,0.7,0.5,1.7,1.9,1.4c0-2.2-2.4-4-1.3-6.5c3.9,1.1,5.4,5,8.5,7.1c0.1-3.8,0.1-3.8,2.6-3.4c-1-4-4-7.4-4-11.9
			c1.2,0.3,1.9,1,2.7,1.6c2.4,2.1,4.2,4.9,6,7.5c0.8,1.1,1.4,2.1,3.1,1.4c0.9-0.4,1.7,0.4,2.4,1c0.7,0.7,1.1,1.7,2.5,2.1
			c-1.4-4.7-4.2-9.3-0.4-14c3.1,2.1,4.4,5.6,6.9,8.5c-0.1-1.5-0.7-2.4-1.1-3.4c-0.5-1.1-1.3-2.3,0-3.3c1.3-0.9,2.3,0.1,3.2,1
			c2.7,2.6,5,5.5,7.1,8.6c1.2,1.8,2.4,3.6,3.7,5.5c2.4-2.5,3.2-2.5,5.4,0.1c0.1,0.2,0.3,0.4,0.4,0.5c5.3,6.6,8.3,14.4,11.6,22
			c0.6,1.5,1.3,3,1.9,4.4c0.2-1.1,0-2-0.3-3c-1.4-5.5-2.9-10.9-3.7-16.5c-0.4-2.9,0.1-3.6,3-3.8c0.3,0,0.5-0.2,0.8-0.2
			c0-0.3,0.1-0.6,0.1-0.8c0-0.9-0.4-1.9,0.8-2.3c1.3-0.5,1.9,0.5,2.5,1.4c0.3,0.5,0.6,1.1,0.9,1.6c1.5,2.1,1.9,4.9,3.8,6.7
			c5.4,5.2,8.3,11.8,9.9,19c0.2,0.9,0.3,2,1.1,2.6c0.4-0.2,0.5-0.6,0.5-1c0-1.5,0.3-2.8,2.1-3.1c1.9-0.2,2.4,1.3,2.9,2.7
			c0.7,2.3,1.4,4.6,2.4,7.5c0.7-2.8,0.4-5.7,4.2-5.3c-2.5-11.2-7.5-20.6-14.3-29.2c-6.7-8.5-14.6-15.8-22.9-22.7
			c4.3,5.7,8.7,11.4,12,17.8c-1.3-0.4-2.1-1.5-2.8-2.4c-3.4-4.3-6.9-8.5-10.7-12.5c-6.8-7.3-14.3-13.8-23-18.8
			c-2.7-1.6-5.7-2.7-8.8-3.1c2.8,3.3,6.6,5.6,8.5,9.9c-1.2,0-1.6-0.7-2.2-1.1c-3.6-2.8-7.1-5.5-10.6-8.3c-3.1-2.4-6.5-4.6-10.3-5.9
			c-1.6-0.5-3.3-1-5.2-0.7c4.2,5.4,8.8,10.3,11.9,16.4c-1.4,0.1-1.8-0.6-2.3-1.2c-4.6-5.4-10-9.8-16-13.6
			c-5.1-3.3-10.4-5.7-16.7-5.2c-4,0.3-8,0.1-12,1c6.2,2.6,12.1,5.5,17.5,9.3c5.4,3.9,10.2,8.4,13.8,14.1c-1.8-1.3-3.5-2.7-5.1-4.2
			c-9.1-8.1-19.3-14.4-31.1-17.8c-2.2-0.6-4.3-0.7-6.5,0.3c-4,1.7-8.1,3.2-12.3,4.3c-0.8,0.2-1.7,0.2-2,1.5
			c5.7,2.7,12.1,4.5,16.1,10c-1,1-1.7,0.3-2.4-0.1c-3-1.7-6.1-3.2-8.9-5.2c-5.3-3.8-10.5-3.5-15.7,0.1c-4.7,3.2-9.4,6.6-13.7,10.3
			c-3.5,3-7.1,6-10.2,9.4c0.8,1.1,1.9,1.6,2.8,2.2c1.4,0.9,2.7,2,3.7,3.4c0.5,0.7,0.7,1.4,0.1,2.1c-0.6,0.8-1.3,0.6-2.1,0.3
			c-1-0.5-2-1.1-3.1-1.5c-1.8-0.8-3.6-2.8-5.3-2.3c-1.8,0.5-2.6,3-3.8,4.7c-5.8,8.2-10.7,16.9-12.8,26.9c-1.7,8.1-2,16.4-2.4,24.6
			c-0.5,9.3,0.7,18.6,2.8,27.7c0.3,1.5,1,2.6,2.7,3.1c6.1,1.5,12.1,3.3,18.3,4.1c15.7,2.2,31,6,46.4,9.4c1,0.2,2.1,0.5,2.2,2.2
			c-3,0.1-5.7-0.4-8.5-0.9c-33.2-5.4-66.6-7-100.1-4.5c-13.6,1-27.2,2.6-40.2,7.2c-8.4,3-16.2,7.5-24.5,10.9
			c-6.2,2.6-9.6,7.4-10.9,13.5c-1.9,8.6,0.3,16.5,5.9,23.4c3.3,4,3.3,4.1,0.2,8.2c-2.1,2.8-3.6,5.9-3.9,9.4
			c-0.7,6.6-1.3,13.2-1.9,19.8c-0.1,1.2-0.1,2.5,0.1,3.6c0.6,3.9,2.2,4.6,5.4,2.4c10-6.8,20.6-12.6,30.8-18.9
			c3.3-2,6.8-3.8,10.3-5.4c19.3-8.9,39.7-14.4,60.1-19.8c18.6-4.9,37.7-6.5,56.8-8.1c2.2-0.2,4.4-0.3,6.7,0.5
			c-0.6,2.1-1.9,3.6-3.5,5c-1.6,1.4-3.6,2.1-5.4,3.3c1.5,2.2,3.3,1.9,5.2,1.3c4.4-1.4,7.9-4.2,11.6-6.8c7.8-5.5,15.5-10.7,26-9.1
			c3.7,0.5,6.8,1.1,9.7,3.5c5.3,4.3,11.3,7.1,18,8.6c14.8,3.5,37.3-7,44.7-20.1c1-1.8,1.9-2,3.7-1c13.6,7.6,28.1,12.6,43.1,16.3
			c6.6,1.6,13.2,2.5,20,1.7c1.3-0.2,2.6-0.2,3.8-1.3c-1.8-4.4-2.2-9.3-4-13.7c-5-12.2-6.3-24.9-5.7-37.9c0.1-1.9,0.4-3.8-0.8-5.8
			c-15.6,6.4-31.5,11.7-48.9,9.6c-0.4,12.2,2.8,22.4,13.3,29.4c-4.9-0.1-9.1-1.5-13-4c-4.4-2.9-6.2-6.7-5.2-12.1
			c1.6-8.9,0.1-17.6-5.3-24.8c-3.4-4.6-3.9-8.8-2.1-13.8c0.2-0.6,0.3-1.2,0.5-1.8c1.1-3.6,2.4-7.1,5-9.9c1.9-2.1,1.9-2.2-0.3-4.4
			c-3.8,2.9-4.9-1.6-7.3-3.1c-0.3,1.4-0.5,2.6-0.8,3.7c-0.3,1-0.8,1.9-2,1.9c-1.2,0.1-1.8-0.7-2.1-1.7c-0.4-1.4-1.1-2.7-2.1-3.7
			c-1.8-1.9-3.8-3.7-5.2-6.6c-0.8,2.6-2.5,4-3.6,5.8c-1.9,3-3.5,3.2-6,0.6c-1-1-1.6-2.2-2.2-3.5c-0.7-1.3-1.3-2.6-2-3.9
			c-0.7,0.2-0.7,0.7-0.8,1c-1.4,3.3-2.5,3.5-5,1.1c-1.2-1.2-2.7-1.9-4.5-2.4c-0.3,2.3-0.5,4.5-0.8,6.7c-0.2,1.3-0.6,2.5-2,2.8
			c-1.8,0.4-1.8,1.6-1.9,3.1c-0.1,1.7,0.4,4-2,4.2c-2.4,0.2-2.3-2.2-2.8-3.8c-0.8-2.9-1.4-5.9-2.1-8.8c-0.2,0-0.4,0-0.6,0
			c-0.2,2.8-0.4,5.6-1.2,8.2c-0.3,1.2-0.6,2.5-2.1,2.6c-1.8,0.1-1.9-1.5-2.3-2.7c-0.5-1.4-0.2-3-1.2-4.3c-2.9,2.3-3.5,2.3-5.4,0.2
			c-0.7-0.7-1.3-1.6-2.5-1.2c-1.2,0.5-1.1,1.5-1.1,2.5c0,1.8,0.1,3.7,0,5.5c0,1.3-0.5,2.5-2,2.7c-1.5,0.2-2.2-0.8-2.7-2
			c-0.4-0.8-0.6-1.7-1-2.6c-0.8-1.9-1.2-4-2.7-6.5c0.1,5.8,0,10.8-4,15.2c4.7,0.3,5.4,3.4,5.6,6.8c0.3,4.4,0.9,8.8,1,13.2
			c0.5,13.4-1.2,26.4-7.6,38.4c-4.8,9-10.9,16.8-20.8,20.7c-0.7,0.3-1.4,0.9-2.5,0.5c1.5-2.2,2.9-4.4,3.9-6.8
			c3.9-9.3,6.5-19.1,7.9-29.1c1.8-12.8,0.4-25.6-1.2-38.3c-0.4-3.6-0.2-4,3.2-5.1c2.4-0.7,4.9-0.9,7.6-1.4
			c-1.5-5.5-2.9-10.8-4.5-16.5c-0.8,2.1-0.7,3.8-1.4,5.2c-0.9,1.8-2.8,1.3-4.1,2c-0.4,0.2-0.7,0.6-1.1,0.9c-1.2,1.1-2.1,0.8-3-0.5
			c-0.6-0.9-0.7-2.1-2.1-2.9c0.1,2.4,0.2,4.4,0.3,6.4c0.2,7.7,0,15.4-1.6,23c-0.3,1.6-0.7,3.1-2.9,3.4c-0.8-9.5-1.4-18.9-3.1-28.2
			c-0.2,2.6-0.2,5.1-0.2,7.7c-0.1,5.9-0.5,11.7-2.2,17.4c-0.4,1.3-0.7,2.7-2.4,3C268.9,220.6,270.1,218.5,268.9,216.6z M308.8,324.6
			c-2.1-0.6-3.8-1-5.5-1.5c-9.2-2.6-18-6.3-27.1-9.3c-10.9-3.6-21.3-2.9-31.4,2.7c-8.3,4.6-15,11.3-21.9,17.6c-0.4,0.4-0.7,1-1,1.5
			c-0.1,0.2,0,0.4,0.1,0.6c0.7,0.2,1.2-0.9,2-0.2c-0.2,3-3.4,4.4-4.3,7.3c2.3,0.2,3.7-1,5.1-2.1c0.5-0.4,1-1.3,1.7-0.8
			c1.3,1,2.3,0.3,3.3-0.3c1-0.6,2-0.9,2.9,0.1c0.7,0.9,0.4,1.9-0.4,2.7c-1.4,1.5-1.6,3.4-2,5.3c-0.3,1.4,0.3,2.3,1.9,1.6
			c1.3-0.6,2.6-0.5,3.6,0.5c1.2,1.2,2.2,1,3.2-0.3c0.2-0.2,0.4-0.4,0.7-0.6c1-0.8,2-1.1,3.1-0.1c1.1,1,0.6,1.9,0,2.8
			c-0.5,0.7-1.2,1.2-1.3,2.2c1.1,1.3,3.1,1.5,4.1,3c-0.3,0.7-0.5,1.3-0.8,2c-0.3,0.9-0.3,1.7,0.6,2.2c0.7,0.4,1.5,0.3,2.1-0.3
			c2.1-2.3,4.6-2.8,7.6-1.7c0.8-1.7,1.5-3.2,2.2-4.7c0.5-1.1,1-2.3,2.4-1.9c1.6,0.4,1.3,1.8,1.2,3c0,0.3-0.1,0.6-0.1,0.9
			c-0.5,3.4-0.5,3.5,2.9,3.4c2-0.1,3.2,0.5,3.6,2.6c0.2,1,0.7,1.8,1.8,1.9c0.8-0.7,0.9-1.6,0.8-2.4c-0.1-1.7,0.4-2.8,2.3-2.9
			c1.1-0.1,1.6-0.9,1.3-2c-0.1-0.4-0.1-0.8-0.2-1.1c-0.1-1.1,0.1-2.2,1.4-2.5c1.4-0.4,1.9,0.5,2.4,1.6c0.3,0.7,0.3,1.5,1.2,2.1
			c1.2-0.4,2.4-0.9,3.7-1.3c1.9,2.2,1.9,5.7,5.5,6.5c1-2.4,0.1-4.5-0.6-6.5c-0.7-1.8-1-3.3,1.3-4.3c-0.7-1.5-1.4-2.8-2.1-4.2
			c-0.5-1.1-0.9-2.2,0.4-3c1.3-0.8,2.2,0,2.9,1c1.3,2.1,3.3,3,5.7,3.5c1.1,0.2,2.2,0.6,3.3,1c1,0.4,2,0.5,2.5-0.7
			c0.5-1.2-0.2-1.9-1.3-2.3c-1.5-0.6-2.5-1.7-3.4-3c-0.8-1-1.5-2.1-2.6-2.8c-1-0.6-2.1-1.4-1.2-2.7c0.9-1.2,2.1-0.7,3.1-0.1
			c1.5,0.9,2.9,1.8,4.5,2.8c1.9-2.9,4.5-2.7,7.3-2.1c1.7,0.3,3.3,0.6,4.3-1.3c-1.3-2.5-4.4-1.3-5.9-3c0.6-1.5,1.6-2.5,3-3.1
			c2-0.7,1.9-2,0.7-3.4C308.4,327.4,307.8,326.2,308.8,324.6z M427.7,349.7c-1.5-2.9-1.8-6.2-4.2-8.6c-0.7-0.7-0.8-1.7,0-2.5
			c0.5-0.6,1.4-1,2-0.5c2.4,1.7,5.2,1,7.8,1.6c1.1,0.2,2.3,0.3,2.8-0.9c0.5-1.3-0.8-1.8-1.6-2.4c-3.2-2-3.2-1.9-2.5-5.6
			c0.1-0.4,0.3-0.9,0.3-1.3c0.2-1.8,1-2.7,3-2c1,0.3,2.1,0.2,3.2,0.3c0.9,0,1.7-0.3,1.9-1.3c0.2-1-0.5-1.5-1.3-2
			c-1.5-0.9-3.1-1.2-4.8-1.5c-1-0.2-1.6-0.8-1.7-1.9c-0.1-0.9,0.2-1.5,1.1-1.7c0.8-0.2,1.4-0.8,1.2-1.7c-0.2-1-0.9-1.3-1.8-1.3
			c-1.9,0-1.8-1.2-1.5-2.5c1.8-0.6,3.4,1.4,5.3-0.1c-1.1-2.3-2.9-3.8-5.1-5c-0.8-0.4-1.7-0.8-2.3-1.4c-2.9-2.9-6.6-3.9-10.6-4.3
			c-7.3-0.6-13.5,2.4-19.6,5.8c-12.8,7.3-22.3,17.4-26.9,31.6c-0.3,0.8-0.8,1.6-0.1,2.6c0.3-0.3,0.5-0.5,0.7-0.8
			c0.6-1.1,1.5-1.3,2.5-0.6c1.2,0.8,0.6,1.7,0,2.5c-0.4,0.5-0.7,1-1,1.5c-0.5,0.9-0.5,1.7,0.3,2.5c0.8,0.7,1.8,1,2.7,0.2
			c0.6-0.5,1.1-1,1.6-1.6c0.9-1.2,1.8-2.1,3.4-1.1c0.8,0.4,1.3-0.1,1.7-0.7c0.5-0.8,1-1.6,1.5-2.3c0.7-0.9,1.4-1.8,2.7-1.2
			c1.4,0.6,1.1,1.9,0.8,3c-0.4,1.3-0.9,2.5-1.4,4.1c4.2,0,2.6,4,4.3,5.7c1.1,0,1.6-0.6,1.8-1.4c0.4-1.5,1.2-2.2,2.8-1.8
			c1,0.3,1.6-0.3,1.9-1.2c0.3-0.8,0.7-1.7,1.2-2.5c0.4-0.7,1.2-0.9,2-0.7c0.7,0.2,1.5,0.6,1.4,1.3c-0.6,2.6,0.3,4.4,2.3,5.9
			c0.4,0.3,0.4,1,0.6,1.5c0.5,0.9,0.9,1.9,1.5,2.8c0.5,0.8,1.3,1.3,2.4,0.9c1.1-0.4,1.1-1.4,1-2.3c-0.2-1.3-0.5-2.7-0.7-3.9
			c0.7-0.7,1.4-0.7,2-0.9c1.3-0.3,1.8-1,1.3-2.3c-0.4-1.1-0.4-2.1,0.8-2.8c1.3-0.7,2.2-0.1,2.9,0.9c0.8,1.2,1.6,1.8,3,0.9
			c1.1-0.7,2.2-0.4,3.2,0.4C424.6,350.1,426,350.5,427.7,349.7z M213.7,310.8c7.6,4,15.1,6.3,23.4,2.9c5-2,10.1-4,15.1-5.9
			c7-2.6,14.2-3.5,21.6-3c7.6,0.5,14.7,2.6,21.7,5.3c6.4,2.4,12.9,4.3,19.7,4.9c3.7,0.3,6.3-1.5,7.7-4.9c0.3-0.8,0.4-1.5-0.3-2.1
			c-0.6-0.5-1.3-0.5-1.9-0.1c-1.4,0.9-2.9,0.8-4.4,0.4c-8-2-15.8-4.7-23-8.8c-9.8-5.6-20.3-7.2-31.4-6
			C244.6,295.5,229.2,302.6,213.7,310.8z M360.5,308.5c0.2,1.1,0.6,1.7,1.3,2.1c3.2,1.6,6.3,3.1,10,1.7c2-0.8,4.2-0.9,6.3-1.1
			c2.7-0.2,5.2-0.8,7.8-1.8c8.2-3,15.9-7,23.8-10.6c8.5-3.9,17.2-5.9,26.4-3.1c0.6,0.2,1.2,0.5,1.6-0.3c0.4-0.7-0.1-1.3-0.5-1.9
			c-2.4-2.9-4.7-5.8-7.2-8.6c-2.1-2.4-4.8-3.3-8.1-2.5c-7.2,1.7-14.2,4.2-20.5,8.2c-5.9,3.8-12.1,7.1-18.8,9.5
			c-5.5,1.9-11,3.7-16.4,5.6C364.3,306.5,362.2,307.2,360.5,308.5z M393.2,230.5c1.7,0.2,3-0.2,4.4-0.4c7.5-1,15-2,22.3-4.1
			c3-0.9,5.6-4.8,4.5-7.2c-0.9-2-2.5-3.7-2.9-6c-2.5,2.2-2.3,7.4-7.4,5.3c-0.9,1.6-1.4,3.2-2.7,4.4c-0.9,0.8-1.9,1.3-3.1,0.7
			c-1.1-0.5-1.4-1.4-1.4-2.6c0-1.8,0.2-3.5-0.1-5.3c-0.8-4.9-1-9.8-0.9-14.8c0-3.1-0.5-6.2-1.5-9.3c-4.8,1.8-4.6-2.4-6.1-4.7
			c-2.9,3.9-2.9,3.9-6.5,2.2c-1.5,3.6-1.2,4.2,2.2,5.3c0.9,0.3,1.8,0.5,2.7,0.7c6.4,1.7,5.7,0.6,3.9,6.9c-1.9,6.6-4.8,12.9-6.3,19.6
			C393.5,224.2,392.9,227.2,393.2,230.5z M364.6,424.2c0.6,0.3,0.9,0.2,1.1-0.1c5.2-5.6,9.9-11.2,7.7-20c-1.7-6.5-1.8-13.3-4.1-19.6
			c-3.7-10.2-7.6-20.3-11.6-30.3c-4-9.8-4-19.3,1.1-28.7c0.4-0.8,1.1-1.6,0.5-2.9c-6.1,9-9,18.3-5.6,29c3,9.4,6.7,18.5,10.2,27.7
			c3.6,9.5,6.4,19.1,6.8,29.3c0.2,3.9-0.6,7.4-2.9,10.6C366.6,420.7,365.4,422.3,364.6,424.2z M346.1,469.4
			c-0.6-2.5-1.7-3.9-3.8-4.3c-4.6-0.9-9.4-1.8-14.1-0.7c-7.7,1.7-15.6,2.6-23.3,4.9c-4.2,1.2-8.4,2.2-12.8,1.9
			c-1-0.1-1.8,0.1-2.3,1.1c-1,2.1,0.9,7.3,3.1,8.8c3.9-3.9,8.8-5.9,14.1-7c5.1-1.2,10.2-2.5,15.3-4c7.4-2.1,14.9-2.5,22.4-0.6
			C345.1,469.4,345.6,469.8,346.1,469.4z M352.8,468.6c3.9-0.2,7.7-1.1,11.3-2.4c5.6-2,11-1.9,16.4,0.9c3.7,1.9,7.7,3.4,11.9,3.9
			c1.1,0.1,1.9,0.6,2.3,1.6c0.4,0.9,1,1.6,2.1,1.4c1.2-0.3,1.6-1.2,1.5-2.3c-0.1-2.7-0.3-5.3-0.9-7.9c-0.5-1.9-1.6-2.4-3.2-1.4
			c-2.2,1.5-4.5,1.4-7,1c-6.2-1.1-12.4-1.6-18.6-1.3C362.5,462.3,357.4,465,352.8,468.6z M327.6,414.9c-2.5,0-4.2,1.1-5.6,2.6
			c-0.9,1-1.8,2.1-3,2.8c-0.7,0.4-1.3,0.9-1.2,1.8c0.1,0.9,0.9,1.4,1.7,1.7c2,0.7,4.1,1,6.3,1.1c2.7,0.1,5.5,0.3,8,1.7
			c1.1,0.6,2.2,0.9,3.1-0.3c0.9-1.1,1-2.4,0.1-3.6c-1.7-2.3-3.6-4.5-5.8-6.4C330.1,415.2,328.7,414.9,327.6,414.9z M364.2,492.4
			c-5.4,0.6-10.2,3.1-15.3,3.3c-5.2,0.3-10.1-1.7-15.6-1.9C340.4,500.9,357.4,500.5,364.2,492.4z M382.9,416.7c0-1.5-1.3-2.3-3-1.6
			c-4,1.6-7.5,4-10.8,6.7c-1,0.8-1.5,1.8-0.6,3c0.9,1.2,2,1.3,3.2,0.5c3.3-2.2,6.6-4.3,9.9-6.5C382.3,418.2,382.9,417.6,382.9,416.7
			z"/>
		<path class="st0" d="M150,158.9c-0.5-1.7-0.1-3.3,0.4-4.7c5.4-16.4,6.6-33.2,5.8-50.4c-1.1-23.1,4.6-45,15.5-65.3c5.2-9.8,13.1-17.4,22.3-23.6
			c4-2.7,6.7-2.1,9.5,1.9c1.2,1.7,2,3.6,4.4,4.4c0.2-3.4-1.9-6-2.6-9.2c6.4-1.3,12.5-1.1,18.3,1.9c5.9,3.1,8.8,8.5,10.6,15
			c1.2-2.4,0.7-4.4,0.1-6.3c-0.6-1.9-1.5-3.8-2.3-5.6c0.9-0.7,1.6-0.2,2.3,0.1c6.8,3.1,12.7,7.6,18.4,12.3c1.1,0.9,1.8,2.3,1.5,3.7
			c-0.8,5.3-2.5,10.3-7.3,13.4c-1.3,0.8-2.7,1.5-4.4,0.5c0.7-2.9,3-5.5,1.3-9.5c-1.4,6.6-3.6,11.6-11.5,9.8c1.3-2.7,2.6-5.4,3.9-8.1
			c0.3-0.5,0.5-1.1,0.8-1.6c0.4-0.9,0.3-1.7-0.6-2.2c-1-0.5-1.6,0.1-2,0.9c-1.5,2.9-3.4,5.6-4.5,8.7c-1.1,3-3.1,4.1-6.5,3.6
			c1-6.9,1.2-13.7-3.2-19.8c0.7,3.1,1.5,6.3,1.8,9.5c0.2,2.4,0.3,4.9-0.1,7.3c-0.7,4.1-2.9,5.9-7.4,6.1c-0.5-4.4,1-9.2-2.7-12.9
			c-1.4,0.4-1.3,1.5-1.2,2.5c0.2,2.4,0.5,4.9,0.7,7.3c0.3,4.2-1.2,7.5-4.9,9.6c-1.8,1-3.1,2.5-4.5,3.9c-2.5,2.6-3.8,2.8-6.7,0.6
			c-2.9-2.2-6.2-2.8-9.6-3.3c-1.2-0.2-2.6-0.2-3.3,1.4c0.4,1.2,1.5,1.2,2.5,1.4c3.4,0.7,6.6,2,9.6,3.6c1.3,0.7,2.1,1.6,1.7,3.1
			c-1.1,4.6-0.5,9.3-1.1,13.9c-0.1,0.4-0.1,0.9-0.2,1.3c-1.4,0.5-2.7,0-3.9-0.1c-3.5-0.3-7-0.8-10.5-0.2c-3.9,0.6-7.2,2.3-9.6,6.1
			c2.1-0.6,3.6-1.8,5.4-2.3c5.8-1.5,11.7-0.3,17.5-0.3c1.1,0,1.2,0.8,1.2,1.6c0,1.4,0,2.7-0.2,4.1c-0.3,2.8-0.7,5.6-0.2,8.4
			c0.2,1.3-0.2,2.3-1,3.1c-9.5,8.3-15.4,19.4-22.8,29.3c-6.3,8.6-14.1,16-20.2,24.9C150.5,158.7,150.3,158.8,150,158.9z
			 M174.8,125.7c3.8-10.7,2.6-22.1,8.3-32.3C176.7,97,170.9,118.3,174.8,125.7z"/>
		<path class="st0" d="M343.4,280.6c-8.5,0.1-16.6-1.4-23.1-7.4c-5.3-4.9-8.5-11.1-10.6-17.9c-0.6-2-0.8-4.1-0.2-6.1c1.5-5.9,2-12,2.6-18.1
			c1.4-13.8,8.5-22.2,22.4-26.4c21.4-6.5,45.1,6.9,50.2,28.6c3.9,16.7-5.2,42.8-32.8,46.6C349,280.4,346.2,280.6,343.4,280.6z"/>
		<path class="st0" d="M144.8,276.4c34.7-18.1,71.7-23.1,110.2-20C217.1,256.3,180,261.4,144.8,276.4z"/>
	</g>
</g>
</svg>
