<?xml version="1.0" encoding="utf-8"?>
<!-- Generator: Adobe Illustrator 18.1.1, SVG Export Plug-In . SVG Version: 6.00 Build 0)  -->
<svg version="1.1" id="图层_1" xmlns="http://www.w3.org/2000/svg" xmlns:xlink="http://www.w3.org/1999/xlink" x="0px" y="0px"
	 viewBox="0 0 612 792" enable-background="new 0 0 612 792" xml:space="preserve">
<g>
	<g>
		<path d="M473.9,332.8c3.4,0,6.2-1.1,9.1-2c2-0.5,3.2,0.1,4,1.7c1.4,2.6,2.1,5.5,2,8.4c-0.1,9.9,1.4,19.6,4.4,29.1
			c2.7,8.9,3.6,18.1,6.4,27c0.9,2.6-1.3,5.1-4.5,5.9c-2.2,0.5-4.5,0.7-6.7,0.2c-2.6-0.4-3.3,0.8-3.5,3.1
			c-1.1,10.4-0.9,20.8,0.1,31.3c0.9,9.3,2.6,18.5,4.4,27.6c2.5,13.9,1.3,27.8-0.8,41.5c-2.5,16.4-7.8,32.2-11.5,48.4
			c-2.5,10.9-4.8,22-7.7,32.9c-4.8,18.6-14,34.9-27.1,49c-12.2,13.1-24.5,26.2-36.6,39.3c-16,17.3-36.1,23.5-59,21.4
			c-18.5-1.6-35.7-7.3-52.1-15.7c-16.1-8.2-32.1-16.3-47.4-25.9c-25-15.7-45.1-36-57.8-63.2c-4.6-9.8-9.7-19.3-12.6-29.9
			c-0.2-0.8-0.5-1.4-0.9-2.1c-2-3.7-2.5-3.9-6.1-2c-6.9,3.7-13.7,2.2-19.2-4.3c-2.2-2.5-3.9-5.2-5.1-8.2
			c-2.7-6.9-7.1-12.6-12.2-17.8c-3.7-3.8-7.1-8-10.6-12c-0.4-0.5-0.9-1.1-1.2-1.5c-0.7-0.9-9-18.5-9.3-19.5
			c-0.9-3.6-0.7-7.3,0.2-10.9c1.6-6.4,3.8-12.8,6.1-19c2.4-6.6,7.2-10.2,14.2-11c3.6-0.4,7.3-0.9,10.9-0.7c0.7,0,1.3,0.1,2-0.3
			c-0.7-1.2-1.7-0.9-2.6-0.9c-2.8-0.1-5.7,0.1-8.5,0c-4.4-0.1-8.1,0.8-11.5,3.8c-2.8,2.6-6.7,2.6-10.2,1.9c-2.1-0.3-3.1-2.2-3.8-3.9
			c-1.9-4-1.6-8.3-1.7-12.6c-0.1-12.2-0.3-24.5,0.7-36.7c0.3-4.3-0.2-8.5-1.4-12.6c-2.4-9,0.1-16.6,6.6-23.1
			c4.2-4.3,8.5-8.2,14.4-10.2c1.7-0.5,2.3-2.2,2.4-3.7c2.7-23.4,11.7-44.7,20.9-66c2.2-5.1,5.4-9.8,8.9-14.2
			c7.5-9.5,14.6-19.2,23.2-27.9c4-4.2,8.2-8.1,13-11.3c2.5-1.7,4-3.9,4.9-6.7c1.5-4.6,3.3-9.1,6.6-12.9c-1.3,4.4-2.6,8.7-4,13.4
			c2.3-0.8,3.8-2.2,5.7-3.2c0.3-0.2,0.7-0.4,1.1-0.7c5.7-2.6,9.8-6.7,11.3-13c0.1-0.7,0.3-1.4,1.3-2.1c-0.4,2.6-0.8,5-1.3,8
			c5.6-2.4,10.6-4.8,15.2-8c1-0.7,1.1-1.9,1.3-3c0.9-4.4,1.7-8.9,3.7-13.1c-0.3,4.4-0.7,8.7-1.1,13.6c4.8-2,9.2-3.8,13.6-5.7
			c1.1-0.4,1.3-1.6,1.3-2.7c0.1-1.5,0-3,0.8-4.6c1.3,1.7,0.7,3.9,1.9,5.9c3.8-1.1,7.6-2.3,11.5-3.4c1.3-0.3,1-1.4,0.9-2.3
			c-0.3-3.5-0.9-7-1.2-10.4c-0.1-1.1-0.1-2.1-0.2-3.8c2,2.6,2.4,5.1,3,7.7c0.5,2,0.8,4,1.2,6.1c0.2,0.8,0.3,1.7,1.5,1.5
			c5.4-1,10.8-2,16.4-3.1c-1.7-3.8-4.6-6.7-5.7-10.5c2.3,1.5,4.3,3.4,5.7,5.8c2.2,3.6,4.9,4.7,9,3.9c4.3-0.9,8.7-0.9,13.3-1
			c-4.7-4.9-10.9-7.7-16.1-12c1.9-0.3,2.3-0.3,4.4,0.7c4.4,2.2,8.5,4.6,12.2,7.6c5.8,4.8,9.3,5.7,16.8,3.9c0.2-0.9-0.4-1-0.9-1.2
			c-8.7-5.5-17.2-11.5-26.9-15.3c-3.3-1.3-6.1-3.4-8.5-6c-1.2-1.3-2.6-2-4.3-2.4c-8.5-2.2-16.8-1.5-25.2,0.9
			c-15.3,4.5-29.8,10.7-41.7,21.7c-1.9,1.7-3.6,3.7-5.4,5.6c-0.7,0.7-1.1,1.4-2,1.6c-1-0.7-0.5-1.4-0.4-2.2
			c1.4-8.4,2.1-16.8,2.2-25.4c0-5,2.7-8.6,6.6-11.5c8.9-6.4,18.6-10.7,29.5-12.1c9.4-1.2,18.6,0.1,27.6,3.1c1,0.3,1.9,0.7,3.2,1.1
			c-0.9-2.4-2.6-3.2-4.3-4c-1.7-0.9-3.5-1.5-5.6-2.4c3.6-5.1,4.7-10.9,6.7-16.8c1.9,1.6,3,3.5,4,5.4c3.8,6.6,5.6,13.9,6.9,21.3
			c0.2,1.3-0.3,1.7-1.4,1.7c5.1,9.5,11.6,17.2,22.1,21c7.6,2.8,14.3,7.4,21.1,11.9c3.9,2.6,8,4.2,12.9,4c6.1-0.1,12,1.6,17.9,3.2
			c6.9,1.9,13.8,3.5,20.5,5.4c15.6,4.2,29.1,12.6,41.6,22.4c21.2,16.6,36.1,37.7,44.3,63.4c4.6,14.5,6.4,29.3,3.2,44.4
			C473.9,331.3,473.9,332,473.9,332.8z M293.9,326.7c-4.7,0.7-5.9-2.5-6.7-6.3c-0.3-1.7-0.7-3.6-1.7-5.4c-2,5.9,0.3,12.5-3.5,17.7
			c-2.7-10.5-3.5-21.4-6.4-31.8c-0.1,1.3,0,2.7,0.1,4c0.5,7.3,0.4,14.6-0.7,22c-0.2,1.5-0.7,3-2.2,3.7c-2.2-1.2-1.1-4-2.7-5.7
			c-0.1,1-0.2,1.7-0.3,2.5c-0.5,2.7-1.9,3.4-4.3,2.2c-2.3-1-3.8-2.6-4.4-5.1c-2.5-11.7-3.9-23.5-7-35.1c-0.4-1.7,0-3.6,1.7-4.3
			c2-0.8,1.7-2.2,1.5-3.6c-0.3-1.4-0.8-3-1.1-4.4c-0.5-2.1-0.1-3.9,1.6-5.1c1.3-1,1.2-2,0.7-3.3c-1-2.5-1.7-5-2.6-7.5
			c-0.4-1.3-0.5-2.5,0.8-3.4c1.3-1,2.5-0.4,3.6,0.4c1.5,1.2,2.7,2.7,3.8,4.3c0.8,1.1,1.3,2.6,3,3.9c-1.1-4-2.1-7.5-3-10.9
			c-0.4-1.6-1.1-3.4,1.1-4.4c2-0.9,3.2,0.3,4.2,1.7c3.1,4.2,5.2,8.6,7,13.6c0.2,0.8,0.2,2,1.5,1.7c0.5-1,0.1-1.7-0.2-2.6
			c-1-3.5-2-6.9-3-10.4c-0.3-1.3-0.2-2.5,1.1-3.3s2.4-0.1,3.3,0.9c0.9,1,1.7,2.1,2.4,3.2c1.1,1.6,2.1,3.3,3.2,5.2
			c0.7-1.6,0.1-3.6,2.2-3.9c1.9-0.2,2.8,1,3.8,2.4c0.5,0.9,1.1,1.6,1.5,2.5c0.8,1.5,1.5,3.2,2.3,4.8c-0.3-3.6,0-7.1,0.5-10.6
			c0.5-3.7-1.7-7.3,0-10.9c0.2-0.4-0.4-1.3-0.8-2.1c-1.5-3.1-3.2-6.1-4.6-9.2c-0.5-1.1-1.1-2.3,0.3-3.1c1.2-0.8,2.1,0.2,2.7,1
			c3.4,3.5,6.3,7.5,9.2,11.6c1,1.5,2.1,3,3.2,4.4c-1.6-6.3-5.6-11.9-6.6-18.6c0.7,0.1,1.3,0,1.4,0.2c7.5,8.5,15,17.2,21.3,26.7
			c-2-8.3-6-15.8-8-24.3c2.1,0,2.8,1.2,3.5,2.3c2.6,4,5.2,8.1,7.8,12.2c0.5,0.8,1,1.5,1.9,1.9c2.4,0.9,3.9,2.8,5.1,4.9
			c0.9,1.5,1.7,3.1,2.8,4.5c1.1,1.5,2.5,2.3,4.5,1.7c0.4-1.3-0.1-2.4-0.3-3.5c-0.8-3.3-1.9-6.7-1.3-10.1c0.4-2.6-0.1-5-1.1-7.3
			c-1-2.2-2-4.3-2.8-6.3c-1.4-3.3-1.3-3.5,1.7-4.7c-0.1-1.3-1-2.3-1.4-3.4c-0.4-1-1.1-2.1,0.1-3c1.1-0.9,1.9,0.1,2.6,0.7
			c3.7,2.8,6.8,6.4,9.6,10.2c1.3,1.7,2.7,3.5,4.2,5.4c0.8-1.1,0.1-1.9-0.1-2.6c-0.5-1.5-1.1-3,0.8-3.9c1.9-0.9,2.7,0.4,3.6,1.7
			c3.1,4,5.6,8.5,7.9,13c0.4,0.8,0.5,1.9,2.1,1.5c0-2.4-2.6-4.4-1.4-7.1c4.3,1.2,5.9,5.5,9.3,7.8c0.1-4.2,0.1-4.2,2.8-3.7
			c-1.1-4.4-4.4-8.1-4.4-13c1.3,0.3,2.1,1.1,3,1.7c2.6,2.3,4.6,5.4,6.6,8.2c0.9,1.2,1.5,2.3,3.4,1.5c1-0.4,1.9,0.4,2.6,1.1
			c0.8,0.8,1.2,1.9,2.7,2.3c-1.5-5.1-4.6-10.2-0.4-15.3c3.4,2.3,4.8,6.1,7.5,9.3c-0.1-1.6-0.8-2.6-1.2-3.7c-0.5-1.2-1.4-2.5,0-3.6
			c1.4-1,2.5,0.1,3.5,1.1c3,2.8,5.5,6,7.8,9.4c1.3,2,2.6,3.9,4,6c2.6-2.7,3.5-2.7,5.9,0.1c0.1,0.2,0.3,0.4,0.4,0.5
			c5.8,7.2,9.1,15.7,12.7,24c0.7,1.6,1.4,3.3,2.1,4.8c0.2-1.2,0-2.2-0.3-3.3c-1.5-6-3.2-11.9-4-18c-0.4-3.2,0.1-3.9,3.3-4.2
			c0.3,0,0.5-0.2,0.9-0.2c0-0.3,0.1-0.7,0.1-0.9c0-1-0.4-2.1,0.9-2.5c1.4-0.5,2.1,0.5,2.7,1.5c0.3,0.5,0.7,1.2,1,1.7
			c1.6,2.3,2.1,5.4,4.2,7.3c5.9,5.7,9.1,12.9,10.8,20.8c0.2,1,0.3,2.2,1.2,2.8c0.4-0.2,0.5-0.7,0.5-1.1c0-1.6,0.3-3.1,2.3-3.4
			c2.1-0.2,2.6,1.4,3.2,3c0.8,2.5,1.5,5,2.6,8.2c0.8-3.1,0.4-6.2,4.6-5.8c-2.7-12.2-8.2-22.5-15.6-31.9c-7.3-9.3-16-17.3-25-24.8
			c4.7,6.2,9.5,12.5,13.1,19.5c-1.4-0.4-2.3-1.6-3.1-2.6c-3.7-4.7-7.5-9.3-11.7-13.7c-7.4-8-15.6-15.1-25.1-20.5
			c-3-1.7-6.2-3-9.6-3.4c3.1,3.6,7.2,6.1,9.3,10.8c-1.3,0-1.7-0.8-2.4-1.2c-3.9-3.1-7.8-6-11.6-9.1c-3.4-2.6-7.1-5-11.3-6.4
			c-1.7-0.5-3.6-1.1-5.7-0.8c4.6,5.9,9.6,11.3,13,17.9c-1.5,0.1-2-0.7-2.5-1.3c-5-5.9-10.9-10.7-17.5-14.9
			c-5.6-3.6-11.4-6.2-18.3-5.7c-4.4,0.3-8.7,0.1-13.1,1.1c6.8,2.8,13.2,6,19.1,10.2c5.9,4.3,11.1,9.2,15.1,15.4
			c-2-1.4-3.8-3-5.6-4.6c-9.9-8.9-21.1-15.7-34-19.5c-2.4-0.7-4.7-0.8-7.1,0.3c-4.4,1.9-8.9,3.5-13.4,4.7c-0.9,0.2-1.9,0.2-2.2,1.6
			c6.2,3,13.2,4.9,17.6,10.9c-1.1,1.1-1.9,0.3-2.6-0.1c-3.3-1.9-6.7-3.5-9.7-5.7c-5.8-4.2-11.5-3.8-17.2,0.1
			c-5.1,3.5-10.3,7.2-15,11.3c-3.8,3.3-7.8,6.6-11.1,10.3c0.9,1.2,2.1,1.7,3.1,2.4c1.5,1,3,2.2,4,3.7c0.5,0.8,0.8,1.5,0.1,2.3
			c-0.7,0.9-1.4,0.7-2.3,0.3c-1.1-0.5-2.2-1.2-3.4-1.6c-2-0.9-3.9-3.1-5.8-2.5c-2,0.5-2.8,3.3-4.2,5.1c-6.3,9-11.7,18.5-14,29.4
			c-1.9,8.9-2.2,17.9-2.6,26.9c-0.5,10.2,0.8,20.3,3.1,30.3c0.3,1.6,1.1,2.8,3,3.4c6.7,1.6,13.2,3.6,20,4.5
			c17.2,2.4,33.9,6.6,50.7,10.3c1.1,0.2,2.3,0.5,2.4,2.4c-3.3,0.1-6.2-0.4-9.3-1c-36.3-5.9-72.8-7.6-109.4-4.9
			c-14.9,1.1-29.7,2.8-43.9,7.9c-9.2,3.3-17.7,8.2-26.8,11.9c-6.8,2.8-10.5,8.1-11.9,14.8c-2.1,9.4,0.3,18,6.4,25.6
			c3.6,4.4,3.6,4.5,0.2,9c-2.3,3.1-3.9,6.4-4.3,10.3c-0.8,7.2-1.4,14.4-2.1,21.6c-0.1,1.3-0.1,2.7,0.1,3.9c0.7,4.3,2.4,5,5.9,2.6
			c10.9-7.4,22.5-13.8,33.7-20.7c3.6-2.2,7.4-4.2,11.3-5.9c21.1-9.7,43.4-15.7,65.7-21.6c20.3-5.4,41.2-7.1,62.1-8.9
			c2.4-0.2,4.8-0.3,7.3,0.5c-0.7,2.3-2.1,3.9-3.8,5.5c-1.7,1.5-3.9,2.3-5.9,3.6c1.6,2.4,3.6,2.1,5.7,1.4c4.8-1.5,8.6-4.6,12.7-7.4
			c8.5-6,16.9-11.7,28.4-9.9c4,0.5,7.4,1.2,10.6,3.8c5.8,4.7,12.3,7.8,19.7,9.4c16.2,3.8,40.8-7.6,48.9-22c1.1-2,2.1-2.2,4-1.1
			c14.9,8.3,30.7,13.8,47.1,17.8c7.2,1.7,14.4,2.7,21.9,1.9c1.4-0.2,2.8-0.2,4.2-1.4c-2-4.8-2.4-10.2-4.4-15
			c-5.5-13.3-6.9-27.2-6.2-41.4c0.1-2.1,0.4-4.2-0.9-6.3c-17,7-34.4,12.8-53.4,10.5c-0.4,13.3,3.1,24.5,14.5,32.1
			c-5.4-0.1-9.9-1.6-14.2-4.4c-4.8-3.2-6.8-7.3-5.7-13.2c1.7-9.7,0.1-19.2-5.8-27.1c-3.7-5-4.3-9.6-2.3-15.1c0.2-0.7,0.3-1.3,0.5-2
			c1.2-3.9,2.6-7.8,5.5-10.8c2.1-2.3,2.1-2.4-0.3-4.8c-4.2,3.2-5.4-1.7-8-3.4c-0.3,1.5-0.5,2.8-0.9,4c-0.3,1.1-0.9,2.1-2.2,2.1
			c-1.3,0.1-2-0.8-2.3-1.9c-0.4-1.5-1.2-3-2.3-4c-2-2.1-4.2-4-5.7-7.2c-0.9,2.8-2.7,4.4-3.9,6.3c-2.1,3.3-3.8,3.5-6.6,0.7
			c-1.1-1.1-1.7-2.4-2.4-3.8c-0.8-1.4-1.4-2.8-2.2-4.3c-0.8,0.2-0.8,0.8-0.9,1.1c-1.5,3.6-2.7,3.8-5.5,1.2c-1.3-1.3-3-2.1-4.9-2.6
			c-0.3,2.5-0.5,4.9-0.9,7.3c-0.2,1.4-0.7,2.7-2.2,3.1c-2,0.4-2,1.7-2.1,3.4c-0.1,1.9,0.4,4.4-2.2,4.6c-2.6,0.2-2.5-2.4-3.1-4.2
			c-0.9-3.2-1.5-6.4-2.3-9.6c-0.2,0-0.4,0-0.7,0c-0.2,3.1-0.4,6.1-1.3,9c-0.3,1.3-0.7,2.7-2.3,2.8c-2,0.1-2.1-1.6-2.5-3
			c-0.5-1.5-0.2-3.3-1.3-4.7c-3.2,2.5-3.8,2.5-5.9,0.2c-0.8-0.8-1.4-1.7-2.7-1.3c-1.3,0.5-1.2,1.6-1.2,2.7c0,2,0.1,4,0,6
			c0,1.4-0.5,2.7-2.2,3c-1.6,0.2-2.4-0.9-3-2.2c-0.4-0.9-0.7-1.9-1.1-2.8c-0.9-2.1-1.3-4.4-3-7.1c0.1,6.3,0,11.8-4.4,16.6
			c5.1,0.3,5.9,3.7,6.1,7.4c0.3,4.8,1,9.6,1.1,14.4c0.5,14.6-1.3,28.9-8.3,42c-5.2,9.8-11.9,18.4-22.7,22.6c-0.8,0.3-1.5,1-2.7,0.5
			c1.6-2.4,3.2-4.8,4.3-7.4c4.3-10.2,7.1-20.9,8.6-31.8c2-14,0.4-28-1.3-41.9c-0.4-3.9-0.2-4.4,3.5-5.6c2.6-0.8,5.4-1,8.3-1.5
			c-1.6-6-3.2-11.8-4.9-18c-0.9,2.3-0.8,4.2-1.5,5.7c-1,2-3.1,1.4-4.5,2.2c-0.4,0.2-0.8,0.7-1.2,1c-1.3,1.2-2.3,0.9-3.3-0.5
			c-0.7-1-0.8-2.3-2.3-3.2c0.1,2.6,0.2,4.8,0.3,7c0.2,8.4,0,16.8-1.7,25.1c-0.3,1.7-0.8,3.4-3.2,3.7c-0.9-10.4-1.5-20.7-3.4-30.8
			c-0.2,2.8-0.2,5.6-0.2,8.4c-0.1,6.4-0.5,12.8-2.4,19c-0.4,1.4-0.8,3-2.6,3.3C293.9,331.1,295.2,328.8,293.9,326.7z M337.5,444.7
			c-2.3-0.7-4.2-1.1-6-1.6c-10.1-2.8-19.7-6.9-29.6-10.2c-11.9-3.9-23.3-3.2-34.3,3c-9.1,5-16.4,12.3-23.9,19.2
			c-0.4,0.4-0.8,1.1-1.1,1.6c-0.1,0.2,0,0.4,0.1,0.7c0.8,0.2,1.3-1,2.2-0.2c-0.2,3.3-3.7,4.8-4.7,8c2.5,0.2,4-1.1,5.6-2.3
			c0.5-0.4,1.1-1.4,1.9-0.9c1.4,1.1,2.5,0.3,3.6-0.3c1.1-0.7,2.2-1,3.2,0.1c0.8,1,0.4,2.1-0.4,3c-1.5,1.6-1.7,3.7-2.2,5.8
			c-0.3,1.5,0.3,2.5,2.1,1.7c1.4-0.7,2.8-0.5,3.9,0.5c1.3,1.3,2.4,1.1,3.5-0.3c0.2-0.2,0.4-0.4,0.8-0.7c1.1-0.9,2.2-1.2,3.4-0.1
			s0.7,2.1,0,3.1c-0.5,0.8-1.3,1.3-1.4,2.4c1.2,1.4,3.4,1.6,4.5,3.3c-0.3,0.8-0.5,1.4-0.9,2.2c-0.3,1-0.3,1.9,0.7,2.4
			c0.8,0.4,1.6,0.3,2.3-0.3c2.3-2.5,5-3.1,8.3-1.9c0.9-1.9,1.6-3.5,2.4-5.1c0.5-1.2,1.1-2.5,2.6-2.1c1.7,0.4,1.4,2,1.3,3.3
			c0,0.3-0.1,0.7-0.1,1c-0.5,3.7-0.5,3.8,3.2,3.7c2.2-0.1,3.5,0.5,3.9,2.8c0.2,1.1,0.8,2,2,2.1c0.9-0.8,1-1.7,0.9-2.6
			c-0.1-1.9,0.4-3.1,2.5-3.2c1.2-0.1,1.7-1,1.4-2.2c-0.1-0.4-0.1-0.9-0.2-1.2c-0.1-1.2,0.1-2.4,1.5-2.7c1.5-0.4,2.1,0.5,2.6,1.7
			c0.3,0.8,0.3,1.6,1.3,2.3c1.3-0.4,2.6-1,4-1.4c2.1,2.4,2.1,6.2,6,7.1c1.1-2.6,0.1-4.9-0.7-7.1c-0.8-2-1.1-3.6,1.4-4.7
			c-0.8-1.6-1.5-3.1-2.3-4.6c-0.5-1.2-1-2.4,0.4-3.3c1.4-0.9,2.4,0,3.2,1.1c1.4,2.3,3.6,3.3,6.2,3.8c1.2,0.2,2.4,0.7,3.6,1.1
			c1.1,0.4,2.2,0.5,2.7-0.8c0.5-1.3-0.2-2.1-1.4-2.5c-1.6-0.7-2.7-1.9-3.7-3.3c-0.9-1.1-1.6-2.3-2.8-3.1c-1.1-0.7-2.3-1.5-1.3-3
			c1-1.3,2.3-0.8,3.4-0.1c1.6,1,3.2,2,4.9,3.1c2.1-3.2,4.9-3,8-2.3c1.9,0.3,3.6,0.7,4.7-1.4c-1.4-2.7-4.8-1.4-6.4-3.3
			c0.7-1.6,1.7-2.7,3.3-3.4c2.2-0.8,2.1-2.2,0.8-3.7C337,447.8,336.4,446.5,337.5,444.7z M467.4,472.2c-1.6-3.2-2-6.8-4.6-9.4
			c-0.8-0.8-0.9-1.9,0-2.7c0.5-0.7,1.5-1.1,2.2-0.5c2.6,1.9,5.7,1.1,8.5,1.7c1.2,0.2,2.5,0.3,3.1-1c0.5-1.4-0.9-2-1.7-2.6
			c-3.5-2.2-3.5-2.1-2.7-6.1c0.1-0.4,0.3-1,0.3-1.4c0.2-2,1.1-3,3.3-2.2c1.1,0.3,2.3,0.2,3.5,0.3c1,0,1.9-0.3,2.1-1.4
			c0.2-1.1-0.5-1.6-1.4-2.2c-1.6-1-3.4-1.3-5.2-1.6c-1.1-0.2-1.7-0.9-1.9-2.1c-0.1-1,0.2-1.6,1.2-1.9c0.9-0.2,1.5-0.9,1.3-1.9
			c-0.2-1.1-1-1.4-2-1.4c-2.1,0-2-1.3-1.6-2.7c2-0.7,3.7,1.5,5.8-0.1c-1.2-2.5-3.2-4.2-5.6-5.5c-0.9-0.4-1.9-0.9-2.5-1.5
			c-3.2-3.2-7.2-4.3-11.6-4.7c-8-0.7-14.8,2.6-21.4,6.3c-14,8-24.4,19-29.4,34.5c-0.3,0.9-0.9,1.7-0.1,2.8c0.3-0.3,0.5-0.5,0.8-0.9
			c0.7-1.2,1.6-1.4,2.7-0.7c1.3,0.9,0.7,1.9,0,2.7c-0.4,0.5-0.8,1.1-1.1,1.6c-0.5,1-0.5,1.9,0.3,2.7c0.9,0.8,2,1.1,3,0.2
			c0.7-0.5,1.2-1.1,1.7-1.7c1-1.3,2-2.3,3.7-1.2c0.9,0.4,1.4-0.1,1.9-0.8c0.5-0.9,1.1-1.7,1.6-2.5c0.8-1,1.5-2,3-1.3
			c1.5,0.7,1.2,2.1,0.9,3.3c-0.4,1.4-1,2.7-1.5,4.5c4.6,0,2.8,4.4,4.7,6.2c1.2,0,1.7-0.7,2-1.5c0.4-1.6,1.3-2.4,3.1-2
			c1.1,0.3,1.7-0.3,2.1-1.3c0.3-0.9,0.8-1.9,1.3-2.7c0.4-0.8,1.3-1,2.2-0.8c0.8,0.2,1.6,0.7,1.5,1.4c-0.7,2.8,0.3,4.8,2.5,6.4
			c0.4,0.3,0.4,1.1,0.7,1.6c0.5,1,1,2.1,1.6,3.1c0.5,0.9,1.4,1.4,2.6,1s1.2-1.5,1.1-2.5c-0.2-1.4-0.5-3-0.8-4.3
			c0.8-0.8,1.5-0.8,2.2-1c1.4-0.3,2-1.1,1.4-2.5c-0.4-1.2-0.4-2.3,0.9-3.1c1.4-0.8,2.4-0.1,3.2,1c0.9,1.3,1.7,2,3.3,1
			c1.2-0.8,2.4-0.4,3.5,0.4C464,472.6,465.6,473,467.4,472.2z M233.5,429.7c8.3,4.4,16.5,6.9,25.6,3.2c5.5-2.2,11-4.4,16.5-6.4
			c7.7-2.8,15.5-3.8,23.6-3.3c8.3,0.5,16.1,2.8,23.7,5.8c7,2.6,14.1,4.7,21.5,5.4c4,0.3,6.9-1.6,8.4-5.4c0.3-0.9,0.4-1.6-0.3-2.3
			c-0.7-0.5-1.4-0.5-2.1-0.1c-1.5,1-3.2,0.9-4.8,0.4c-8.7-2.2-17.3-5.1-25.1-9.6c-10.7-6.1-22.2-7.9-34.3-6.6
			C267.3,412.9,250.5,420.7,233.5,429.7z M394,427.1c0.2,1.2,0.7,1.9,1.4,2.3c3.5,1.7,6.9,3.4,10.9,1.9c2.2-0.9,4.6-1,6.9-1.2
			c3-0.2,5.7-0.9,8.5-2c9-3.3,17.4-7.7,26-11.6c9.3-4.3,18.8-6.4,28.9-3.4c0.7,0.2,1.3,0.5,1.7-0.3c0.4-0.8-0.1-1.4-0.5-2.1
			c-2.6-3.2-5.1-6.3-7.9-9.4c-2.3-2.6-5.2-3.6-8.9-2.7c-7.9,1.9-15.5,4.6-22.4,9c-6.4,4.2-13.2,7.8-20.5,10.4c-6,2.1-12,4-17.9,6.1
			C398.1,425,395.8,425.7,394,427.1z M429.7,341.9c1.9,0.2,3.3-0.2,4.8-0.4c8.2-1.1,16.4-2.2,24.4-4.5c3.3-1,6.1-5.2,4.9-7.9
			c-1-2.2-2.7-4-3.2-6.6c-2.7,2.4-2.5,8.1-8.1,5.8c-1,1.7-1.5,3.5-3,4.8c-1,0.9-2.1,1.4-3.4,0.8c-1.2-0.5-1.5-1.5-1.5-2.8
			c0-2,0.2-3.8-0.1-5.8c-0.9-5.4-1.1-10.7-1-16.2c0-3.4-0.5-6.8-1.6-10.2c-5.2,2-5-2.6-6.7-5.1c-3.2,4.3-3.2,4.3-7.1,2.4
			c-1.6,3.9-1.3,4.6,2.4,5.8c1,0.3,2,0.5,3,0.8c7,1.9,6.2,0.7,4.3,7.5c-2.1,7.2-5.2,14.1-6.9,21.4C430,335,429.4,338.3,429.7,341.9z
			 M398.5,553.6c0.7,0.3,1,0.2,1.2-0.1c5.7-6.1,10.8-12.2,8.4-21.9c-1.9-7.1-2-14.5-4.5-21.4c-4-11.1-8.3-22.2-12.7-33.1
			c-4.4-10.7-4.4-21.1,1.2-31.4c0.4-0.9,1.2-1.7,0.5-3.2c-6.7,9.8-9.8,20-6.1,31.7c3.3,10.3,7.3,20.2,11.1,30.3
			c3.9,10.4,7,20.9,7.4,32c0.2,4.3-0.7,8.1-3.2,11.6C400.6,549.8,399.3,551.5,398.5,553.6z M378.2,603c-0.7-2.7-1.9-4.3-4.2-4.7
			c-5-1-10.3-2-15.4-0.8c-8.4,1.9-17,2.8-25.5,5.4c-4.6,1.3-9.2,2.4-14,2.1c-1.1-0.1-2,0.1-2.5,1.2c-1.1,2.3,1,8,3.4,9.6
			c4.3-4.3,9.6-6.4,15.4-7.7c5.6-1.3,11.1-2.7,16.7-4.4c8.1-2.3,16.3-2.7,24.5-0.7C377.1,603,377.7,603.4,378.2,603z M385.6,602.1
			c4.3-0.2,8.4-1.2,12.3-2.6c6.1-2.2,12-2.1,17.9,1c4,2.1,8.4,3.7,13,4.3c1.2,0.1,2.1,0.7,2.5,1.7c0.4,1,1.1,1.7,2.3,1.5
			c1.3-0.3,1.7-1.3,1.6-2.5c-0.1-3-0.3-5.8-1-8.6c-0.5-2.1-1.7-2.6-3.5-1.5c-2.4,1.6-4.9,1.5-7.6,1.1c-6.8-1.2-13.6-1.7-20.3-1.4
			C396.2,595.2,390.6,598.2,385.6,602.1z M358,543.4c-2.7,0-4.6,1.2-6.1,2.8c-1,1.1-2,2.3-3.3,3.1c-0.8,0.4-1.4,1-1.3,2
			c0.1,1,1,1.5,1.9,1.9c2.2,0.8,4.5,1.1,6.9,1.2c3,0.1,6,0.3,8.7,1.9c1.2,0.7,2.4,1,3.4-0.3c1-1.2,1.1-2.6,0.1-3.9
			c-1.9-2.5-3.9-4.9-6.3-7C360.8,543.8,359.2,543.4,358,543.4z M398,628.1c-5.9,0.7-11.1,3.4-16.7,3.6c-5.7,0.3-11-1.9-17-2.1
			C372,637.4,390.6,637,398,628.1z M418.5,545.4c0-1.6-1.4-2.5-3.3-1.7c-4.4,1.7-8.2,4.4-11.8,7.3c-1.1,0.9-1.6,2-0.7,3.3
			c1,1.3,2.2,1.4,3.5,0.5c3.6-2.4,7.2-4.7,10.8-7.1C417.8,547,418.5,546.4,418.5,545.4z"/>
		<path d="M163.9,263.7c-0.5-1.9-0.1-3.6,0.4-5.1c5.9-17.9,7.2-36.3,6.3-55.1c-1.2-25.2,5-49.2,16.9-71.4
			c5.7-10.7,14.3-19,24.4-25.8c4.4-3,7.3-2.3,10.4,2.1c1.3,1.9,2.2,3.9,4.8,4.8c0.2-3.7-2.1-6.6-2.8-10.1c7-1.4,13.7-1.2,20,2.1
			c6.4,3.4,9.6,9.3,11.6,16.4c1.3-2.6,0.8-4.8,0.1-6.9c-0.7-2.1-1.6-4.2-2.5-6.1c1-0.8,1.7-0.2,2.5,0.1c7.4,3.4,13.9,8.3,20.1,13.4
			c1.2,1,2,2.5,1.6,4c-0.9,5.8-2.7,11.3-8,14.6c-1.4,0.9-3,1.6-4.8,0.5c0.8-3.2,3.3-6,1.4-10.4c-1.5,7.2-3.9,12.7-12.6,10.7
			c1.4-3,2.8-5.9,4.3-8.9c0.3-0.5,0.5-1.2,0.9-1.7c0.4-1,0.3-1.9-0.7-2.4c-1.1-0.5-1.7,0.1-2.2,1c-1.6,3.2-3.7,6.1-4.9,9.5
			c-1.2,3.3-3.4,4.5-7.1,3.9c1.1-7.5,1.3-15-3.5-21.6c0.8,3.4,1.6,6.9,2,10.4c0.2,2.6,0.3,5.4-0.1,8c-0.8,4.5-3.2,6.4-8.1,6.7
			c-0.5-4.8,1.1-10.1-3-14.1c-1.5,0.4-1.4,1.6-1.3,2.7c0.2,2.6,0.5,5.4,0.8,8c0.3,4.6-1.3,8.2-5.4,10.5c-2,1.1-3.4,2.7-4.9,4.3
			c-2.7,2.8-4.2,3.1-7.3,0.7c-3.2-2.4-6.8-3.1-10.5-3.6c-1.3-0.2-2.8-0.2-3.6,1.5c0.4,1.3,1.6,1.3,2.7,1.5c3.7,0.8,7.2,2.2,10.5,3.9
			c1.4,0.8,2.3,1.7,1.9,3.4c-1.2,5-0.5,10.2-1.2,15.2c-0.1,0.4-0.1,1-0.2,1.4c-1.5,0.5-3,0-4.3-0.1c-3.8-0.3-7.6-0.9-11.5-0.2
			c-4.3,0.7-7.9,2.5-10.5,6.7c2.3-0.7,3.9-2,5.9-2.5c6.3-1.6,12.8-0.3,19.1-0.3c1.2,0,1.3,0.9,1.3,1.7c0,1.5,0,3-0.2,4.5
			c-0.3,3.1-0.8,6.1-0.2,9.2c0.2,1.4-0.2,2.5-1.1,3.4c-10.4,9.1-16.8,21.2-24.9,32c-6.9,9.4-15.4,17.5-22.1,27.2
			C164.5,263.4,164.3,263.5,163.9,263.7z M191,227.4c4.2-11.7,2.8-24.2,9.1-35.3C193.1,196,186.8,219.3,191,227.4z"/>
		<path d="M375.3,396.7c-9.3,0.1-18.1-1.5-25.2-8.1c-5.8-5.4-9.3-12.1-11.6-19.6c-0.7-2.2-0.9-4.5-0.2-6.7
			c1.6-6.4,2.2-13.1,2.8-19.8c1.5-15.1,9.3-24.3,24.5-28.9c23.4-7.1,49.3,7.5,54.9,31.3c4.3,18.3-5.7,46.8-35.8,50.9
			C381.4,396.4,378.3,396.7,375.3,396.7z"/>
		<path d="M158.2,392.1c37.9-19.8,78.4-25.2,120.4-21.9C237.3,370.1,196.7,375.7,158.2,392.1z"/>
	</g>
</g>
<g>
	<g>
		<path fill="#C4BA98" stroke="#000000" stroke-width="0.5" stroke-miterlimit="10" d="M134,613.5v-11.9h9.3v2.1h-7.1v3.1h3.9v2.2
			h-3.9v3.7L134,613.5z"/>
		<path fill="#C4BA98" stroke="#000000" stroke-width="0.5" stroke-miterlimit="10" d="M145.7,604.4c0-1.1,0.2-1.8,0.5-2.2
			c0.3-0.4,0.9-0.6,1.8-0.6h6.7c0.9,0,1.5,0.2,1.8,0.6c0.3,0.4,0.5,1.1,0.5,2.2v6.3c0,1.1-0.2,1.8-0.5,2.2c-0.3,0.4-0.9,0.6-1.8,0.6
			H148c-0.9,0-1.5-0.2-1.8-0.6c-0.3-0.4-0.5-1.1-0.5-2.2V604.4z M147.8,611.3h7.1v-7.5h-7.1V611.3z"/>
		<path fill="#C4BA98" stroke="#000000" stroke-width="0.5" stroke-miterlimit="10" d="M161.5,611.6v-10h7.9c0.7,0,1.3,0.2,1.6,0.5
			c0.3,0.4,0.5,1,0.5,1.8v2.8c0,0.8-0.2,1.4-0.5,1.8s-0.8,0.5-1.6,0.5h-1.2l4.2,4.5h-3.1l-3.7-4.5h-2v2.1L161.5,611.6z M168.4,603.7
			h-4.8v3.3h4.8c0.4,0,0.6-0.1,0.8-0.2c0.1-0.1,0.2-0.4,0.2-0.7v-1.4c0-0.3-0.1-0.6-0.2-0.7C169,603.7,168.8,603.7,168.4,603.7z"/>
	</g>
	<g>
		<path fill="#C4BA98" stroke="#000000" stroke-width="0.5" stroke-miterlimit="10" d="M117.9,637.4c0.8-0.1,1.2,0.3,1.2,1.1v1.4
			h2.3c0.9,0,1.1,0.3,0.6,0.9h-2.9c0,1.5,0.1,2.3,0.3,2.3c0.4,0.1,0.8,0,1.1-0.2c1-0.2,1.5,0.2,1.4,1.1c-0.1,0.7-0.2,1.7-0.2,3.1
			c0.1,1-0.4,1.4-1.5,1.1c-1.2-0.4-2.5-0.4-3.9,0c-0.8,0.5-1.3,0.3-1.4-0.8c-0.1-1-0.3-2.2-0.6-3.4c0.1-0.8,0.7-1.1,1.7-0.8
			c0.8,0.1,1.2-0.1,1.2-0.6c0-1.1,0-2.2-0.2-3.2C116.9,638,117.2,637.3,117.9,637.4z M116.3,644.8c-0.1,1.2,0.1,1.9,0.6,2
			c2.4,0.3,3.4,0,3.2-1.1c0.2-1.4-0.8-2-2.9-1.7C116.7,644.1,116.3,644.3,116.3,644.8z M122.5,641.3c0.4,0,0.7,0,0.8-0.2
			c-0.1-1.1-0.2-2.2-0.2-3.2c-0.1-0.7,0.3-1,1.1-0.9c0.5,0,0.8,0.3,0.8,0.8c-0.1,0.9-0.1,2,0,3.2c3.4-0.5,5.1-0.5,4.9,0
			c0.2,0.3,0.2,0.5-0.2,0.5c-1.5,0.2-3.1,0.5-4.6,0.8c0.3,0.9,0.6,1.7,0.9,2.3c0.4-0.5,0.8-1.1,1.2-1.9c0.3-0.3,0.6-0.4,0.9-0.3
			c0.4,0.3,0.6,0.7,0.5,1.1c-0.6,0.8-1.2,1.5-1.7,2c1.1,1.1,3,1.7,5.6,1.5c0.2,0.1-0.1,0.6-0.9,1.5c-1.1,1.1-2.3,1.3-3.5,0.6
			c-0.5-0.4-1.3-1.2-2.5-2.3c-1,0.7-2.1,1.1-3.2,1.2c-0.5-0.1-0.6-0.3-0.3-0.6c1-0.3,2-0.9,2.8-1.9c-0.4-0.6-0.8-1.7-1.2-3.1
			c-0.5,0.1-1,0.3-1.4,0.5c-0.6,0.1-0.9-0.2-0.8-0.9C121.4,641.6,121.8,641.4,122.5,641.3z M127.5,637.7c0.3-0.7,0.7-0.9,1.2-0.6
			c0.5,0.3,0.7,0.7,0.5,1.2c-0.4,0.6-1.1,1-2,1.1c-0.4,0-0.6-0.2-0.5-0.5C127,638.5,127.3,638.1,127.5,637.7z"/>
		<path fill="#C4BA98" stroke="#000000" stroke-width="0.5" stroke-miterlimit="10" d="M139.7,641.3c0.5,0,0.9,0.2,1.1,0.5
			c-0.1,0.4-0.5,0.6-1.1,0.5c-0.6,0-1.2,0-1.9,0.2c0.2,0.3,0.1,0.6-0.3,0.9l-0.8,0.8c-0.3,0.4,0,0.7,0.8,0.8
			c0.6,0.1,1.1-0.1,1.5-0.6l-0.5-0.9c0.1-0.3,0.3-0.4,0.6-0.3c0.3,0.2,0.6,0.4,0.9,0.6c0.2,0.4,0.5,0.9,0.8,1.4
			c-0.1,0.2-0.2,0.3-0.3,0.3c-0.4,0.1-0.8-0.1-1.2-0.6c-0.6,1.1-1.3,1.5-2,1.2c-0.6-0.4-1.2-0.5-1.7-0.2c-0.2,0-0.4-0.2-0.6-0.5
			c-0.1-0.4,0.1-0.8,0.6-1.2c0.9-0.8,1.2-1.4,0.9-1.7c-0.4-0.1-1,0-1.9,0.3c-0.3,0.2-0.5,0.2-0.6-0.2c0.1-0.7,0.5-1.1,1.1-1.2
			L139.7,641.3L139.7,641.3z M139.7,639.1c0.3,0,0.5,0.2,0.6,0.5c0,0.3-0.1,0.5-0.3,0.5h-2.5c-0.7,0-1.4,0-2,0.2
			c-0.2-0.1-0.3-0.3-0.3-0.6c0.1-0.3,0.3-0.6,0.6-0.8C136.5,639,137.8,639.1,139.7,639.1z M143.7,643.4c-0.3-0.1-0.6-0.1-0.9,0
			c-0.3,0.2-0.6,0.4-0.9,0.5c-0.2,0-0.4,0-0.5-0.2c-0.2-1.5-0.4-2.9-0.6-4.2c-0.1-0.6,0.2-0.9,0.9-0.9c0.3,0.2,0.8,0.3,1.5,0.2
			c0.3-0.3,0.7-0.8,1.1-1.5c0.1-0.2,0.3-0.3,0.6-0.3c0.9,0.3,1.2,0.7,0.8,1.1c-0.3,0.3-0.6,0.6-0.8,0.8c0.7,0,1.7,0.1,2.8,0.3
			c0.3-0.1,0.6-0.2,0.8-0.3c0.3-0.1,0.6,0,0.8,0.2c0.4,0.3,0.5,0.8,0.3,1.4c-0.3,0.9-0.5,1.9-0.6,2.9l-0.5,0.3
			c0.4,0.3,0.5,0.6,0.2,0.8c-0.2,0.2-0.4,0.4-0.6,0.6c-0.2,0.1-0.2,0.3,0.2,0.5c0.4,0.1,0.8,0,1.1-0.2c-0.4-0.3-0.5-0.5-0.2-0.6
			c0.4,0,0.7,0,0.9,0.2c0.2,0.3,0.4,0.6,0.6,0.9c-0.1,0.1-0.3,0.2-0.5,0.3l-0.6-0.5c-0.2,0.6-0.6,0.9-1.1,0.8
			c-0.4-0.3-0.8-0.4-1.2-0.3c-0.3-0.2-0.4-0.5-0.3-0.8c0.2-0.2,0.4-0.5,0.6-0.8c0.1-0.2,0.3-0.5,0.5-0.9c-0.8-0.1-1.8-0.2-2.9-0.2
			c-0.7,2.4-2.1,4.1-4.2,5.1c-1.7,0.6-2.9,0.4-3.7-0.8c0-0.1,0.2-0.2,0.6-0.2C141,647.3,143,645.9,143.7,643.4z M144.1,639.6
			c-0.7,0-1.3,0.1-1.7,0.3c-0.2,0.6-0.1,0.9,0.3,0.9l1.7-0.2C144.6,640.1,144.4,639.8,144.1,639.6z M144.3,641.4
			c-0.5,0-1.1,0-1.9,0.2c0,0.7,0.2,1.1,0.5,1.1l1.1-0.2L144.3,641.4z M145.4,644.2c0.1-0.4,0.3-0.6,0.6-0.6c0.2,0,0.4,0.1,0.5,0.3
			c-0.2,0.4-0.4,0.8-0.5,1.2c0,0.4,0,0.7,0.2,0.9c0.4,0.5,1.2,0.9,2.5,1.1c1,0.1,2,0,2.9-0.3c0.6-0.3,1-0.4,1.2-0.2
			c-0.1,0.6-0.5,1.3-1.1,2.2c-0.7,0.6-1.3,0.8-1.9,0.6c-1.7-0.3-3.2-1-4.3-2.2c-0.5-0.6-0.7-1.2-0.6-1.7
			C145.1,645.1,145.3,644.6,145.4,644.2z M147.7,642.8c0.2-0.4,0.3-0.8,0.2-1.1c-0.4-0.2-1.2-0.3-2.3-0.3c-0.1,0.4-0.2,0.8-0.2,1.2
			C146.2,642.8,147,642.8,147.7,642.8z M145.7,640.7l1.7,0.2c0.4,0.1,0.6-0.1,0.6-0.6c0-0.4-0.6-0.6-1.9-0.6
			C145.8,639.7,145.7,640,145.7,640.7z"/>
		<path fill="#C4BA98" stroke="#000000" stroke-width="0.5" stroke-miterlimit="10" d="M159.3,640.5c0.2-0.4,0.4-0.6,0.5-0.6
			c0.5-0.1,0.7,0.3,0.5,1.1c-0.3,0.9-0.8,1.9-1.4,2.9c-0.5,0.8-1,1.4-1.5,1.9c-1,0.9-2.1,0.9-3.2-0.2c-0.3-0.3-0.2-0.6,0.3-0.9
			C156.1,643.8,157.7,642.4,159.3,640.5z M162.8,637.4c1-0.1,1.5,0.5,1.4,1.7c-0.1,2.6,0,5.5,0.2,8.6c0,1.2-1,1.8-2.9,1.7
			c-1-0.1-2.2-0.7-3.5-1.7c-0.2-0.5-0.1-0.8,0.3-0.8c2,0.6,3.1,0.7,3.5,0.3c0.3-0.2,0.4-3.1,0.3-8.6
			C162.1,637.8,162.3,637.4,162.8,637.4z M165.3,641c-0.3-0.4-0.3-0.7,0.2-0.9c0.2-0.1,0.4,0,0.6,0.2c1.4,1.9,3.6,3.4,6.5,4.8
			c-0.3,0.5-0.6,0.9-0.9,1.1c-0.9,0.8-1.8,0.8-2.6,0C167.6,644.4,166.4,642.7,165.3,641z"/>
		<path fill="#C4BA98" stroke="#000000" stroke-width="0.5" stroke-miterlimit="10" d="M180.6,643.1c-0.3,1-0.6,1.8-0.9,2.3l2-0.3
			c-0.1-0.4-0.2-0.8-0.2-1.2c0.1-0.4,0.5-0.7,1.1-0.8c0.4,0,0.8,0.1,1.1,0.3c0.4,0.1,0.7,0.1,0.9,0v-5.1c0-0.6,0.2-1,0.6-1.1
			c1,0,1.5,0.4,1.5,1.1c-0.1,0.5-0.2,0.9-0.2,1.2c2.2,0.1,4,0.2,5.4,0.2c0,0.5-0.2,1-0.5,1.4c-0.4,0.4-0.8,0.5-1.2,0.3
			c-1.7-0.5-2.9-0.7-3.7-0.5c-0.2,0.8-0.2,1.7,0,2.5c0.7,0.1,1.3,0,1.7-0.2c1.3-0.4,2,0,2,1.1c-0.2,0.8-0.3,1.9-0.3,3.1
			c0.2,1.3-0.3,1.8-1.4,1.4c-1.4-0.2-3-0.3-4.6-0.2c-1.2,0.6-1.9,0.3-2-1.1c0-0.3,0-0.9-0.2-1.7c-2.1,0.9-4.5,1.7-7.2,2.2
			c-0.9,0.2-1.3-0.2-1.2-1.1c0-0.5,0.5-0.8,1.5-0.9c1.1-0.1,2.4-0.3,3.9-0.5c0.3-1.1,0.5-2.2,0.5-3.2c0-0.7,0.2-1.1,0.6-1.1
			C180.6,641.4,180.9,642,180.6,643.1z M179.3,638.3c-0.1,1.2,0,1.8,0.3,1.7l2.2,0.2c0.5,0.4,0.6,0.7,0.2,0.9
			c-0.2,0.1-0.6,0.2-1.1,0.2c-2.1-0.4-4.2-0.3-6.3,0.5c-0.4,0.1-0.6,0-0.6-0.5c0.2-0.9,0.6-1.3,1.2-1.2c0.8,0.2,1.4,0.3,1.9,0.2
			c0.3-0.1,0.4-0.7,0.3-1.9c0.1-0.4,0.3-0.6,0.6-0.6C178.6,637.6,179,637.8,179.3,638.3z M177.8,645.1c-0.2,0.3-0.5,0.4-0.8,0.2
			c-0.6-0.9-1-1.7-1.1-2.5c-0.1-0.7,0.2-1.1,0.8-1.2c0.5-0.1,0.8,0.1,0.8,0.6C177.6,643.2,177.7,644.2,177.8,645.1z M186.4,644.5
			c-1.4-0.1-2.4,0-2.8,0.3c-0.3,0.7-0.3,1.4,0,2.2c0.1,0.5,1.2,0.7,3.4,0.5c0.9,0,1.4-0.5,1.4-1.5
			C188.4,644.9,187.8,644.4,186.4,644.5z"/>
	</g>
	
		<linearGradient id="SVGID_1_" gradientUnits="userSpaceOnUse" x1="95.5602" y1="293.3667" x2="95.5602" y2="293.3667" gradientTransform="matrix(1.0929 0 0 -1.0929 0 955.5428)">
		<stop  offset="0" style="stop-color:#C4BA98"/>
		<stop  offset="1.474962e-002" style="stop-color:#CEC5A9"/>
		<stop  offset="4.332456e-002" style="stop-color:#DDD7C4"/>
		<stop  offset="7.615717e-002" style="stop-color:#EAE6DA"/>
		<stop  offset="0.1145" style="stop-color:#F3F1EB"/>
		<stop  offset="0.162" style="stop-color:#FAF9F6"/>
		<stop  offset="0.2285" style="stop-color:#FEFEFD"/>
		<stop  offset="0.4133" style="stop-color:#FFFFFF"/>
		<stop  offset="0.4696" style="stop-color:#DDDBD8"/>
		<stop  offset="0.5499" style="stop-color:#B2AFA6"/>
		<stop  offset="0.6258" style="stop-color:#908B7F"/>
		<stop  offset="0.6952" style="stop-color:#787263"/>
		<stop  offset="0.7558" style="stop-color:#696252"/>
		<stop  offset="0.801" style="stop-color:#645D4C"/>
		<stop  offset="0.8499" style="stop-color:#776F5B"/>
		<stop  offset="0.9484" style="stop-color:#A89F82"/>
		<stop  offset="1" style="stop-color:#C4BA98"/>
	</linearGradient>
	
		<linearGradient id="SVGID_2_" gradientUnits="userSpaceOnUse" x1="95.5602" y1="293.3667" x2="95.5602" y2="293.3667" gradientTransform="matrix(1.0929 0 0 -1.0929 0 955.5428)">
		<stop  offset="0" style="stop-color:#C4BA98"/>
		<stop  offset="1.389108e-002" style="stop-color:#C7BD9D"/>
		<stop  offset="0.1655" style="stop-color:#E5E1D2"/>
		<stop  offset="0.2794" style="stop-color:#F8F7F3"/>
		<stop  offset="0.3418" style="stop-color:#FFFFFF"/>
		<stop  offset="0.4046" style="stop-color:#E1E0DC"/>
		<stop  offset="0.5083" style="stop-color:#B5B1A9"/>
		<stop  offset="0.6058" style="stop-color:#928D81"/>
		<stop  offset="0.6943" style="stop-color:#797364"/>
		<stop  offset="0.7708" style="stop-color:#696352"/>
		<stop  offset="0.8265" style="stop-color:#645D4C"/>
		<stop  offset="0.8691" style="stop-color:#776F5B"/>
		<stop  offset="0.955" style="stop-color:#A89F82"/>
		<stop  offset="1" style="stop-color:#C4BA98"/>
	</linearGradient>
	<path fill="url(#SVGID_1_)" stroke="url(#SVGID_2_)" stroke-width="0.5" stroke-miterlimit="10" d="M104.4,634.9"/>
	
		<linearGradient id="SVGID_3_" gradientUnits="userSpaceOnUse" x1="103.8461" y1="299.6408" x2="103.8461" y2="299.6408" gradientTransform="matrix(1.0929 0 0 -1.0929 0 955.5428)">
		<stop  offset="0" style="stop-color:#C4BA98"/>
		<stop  offset="1.474962e-002" style="stop-color:#CEC5A9"/>
		<stop  offset="4.332456e-002" style="stop-color:#DDD7C4"/>
		<stop  offset="7.615717e-002" style="stop-color:#EAE6DA"/>
		<stop  offset="0.1145" style="stop-color:#F3F1EB"/>
		<stop  offset="0.162" style="stop-color:#FAF9F6"/>
		<stop  offset="0.2285" style="stop-color:#FEFEFD"/>
		<stop  offset="0.4133" style="stop-color:#FFFFFF"/>
		<stop  offset="0.4696" style="stop-color:#DDDBD8"/>
		<stop  offset="0.5499" style="stop-color:#B2AFA6"/>
		<stop  offset="0.6258" style="stop-color:#908B7F"/>
		<stop  offset="0.6952" style="stop-color:#787263"/>
		<stop  offset="0.7558" style="stop-color:#696252"/>
		<stop  offset="0.801" style="stop-color:#645D4C"/>
		<stop  offset="0.8499" style="stop-color:#776F5B"/>
		<stop  offset="0.9484" style="stop-color:#A89F82"/>
		<stop  offset="1" style="stop-color:#C4BA98"/>
	</linearGradient>
	
		<linearGradient id="SVGID_4_" gradientUnits="userSpaceOnUse" x1="103.8461" y1="299.6408" x2="103.8461" y2="299.6408" gradientTransform="matrix(1.0929 0 0 -1.0929 0 955.5428)">
		<stop  offset="0" style="stop-color:#C4BA98"/>
		<stop  offset="1.389108e-002" style="stop-color:#C7BD9D"/>
		<stop  offset="0.1655" style="stop-color:#E5E1D2"/>
		<stop  offset="0.2794" style="stop-color:#F8F7F3"/>
		<stop  offset="0.3418" style="stop-color:#FFFFFF"/>
		<stop  offset="0.4046" style="stop-color:#E1E0DC"/>
		<stop  offset="0.5083" style="stop-color:#B5B1A9"/>
		<stop  offset="0.6058" style="stop-color:#928D81"/>
		<stop  offset="0.6943" style="stop-color:#797364"/>
		<stop  offset="0.7708" style="stop-color:#696352"/>
		<stop  offset="0.8265" style="stop-color:#645D4C"/>
		<stop  offset="0.8691" style="stop-color:#776F5B"/>
		<stop  offset="0.955" style="stop-color:#A89F82"/>
		<stop  offset="1" style="stop-color:#C4BA98"/>
	</linearGradient>
	<path fill="url(#SVGID_3_)" stroke="url(#SVGID_4_)" stroke-width="0.5" stroke-miterlimit="10" d="M113.5,628.1"/>
	<g>
		<g>
			<path fill="#C4BA98" stroke="#000000" stroke-width="0.5" stroke-miterlimit="10" d="M109.5,619.8h-5.9v4.6h3.2v3.2h-3.2v5.7
				l-1.8,0.8v-17.5h7.7V619.8"/>
			<path fill="#C4BA98" stroke="#000000" stroke-width="0.5" stroke-miterlimit="10" d="M111.7,631.2v-0.9v-13.6h6.5
				c0.6,0,1,0.3,1.3,0.8c0.3,0.5,0.4,1.4,0.4,2.6v4.1c0,1.2-0.1,2.1-0.4,2.6c-0.3,0.5-0.7,0.8-1.3,0.8h-1l3.5,6.7h-2.5l-3.1-6.7
				h-1.7v2.2v1L111.7,631.2z M117.4,619.8h-4v4.9h4c0.3,0,0.5-0.1,0.6-0.3c0.1-0.2,0.2-0.6,0.2-1.1v-2.1c0-0.5-0.1-0.9-0.2-1.1
				C118,619.9,117.7,619.8,117.4,619.8z"/>
			<path fill="#C4BA98" stroke="#000000" stroke-width="0.5" stroke-miterlimit="10" d="M123.5,634.3v-17.7h1.8v17.7H123.5z"/>
			<path fill="#C4BA98" stroke="#000000" stroke-width="0.5" stroke-miterlimit="10" d="M129.2,634.3v-17.7h7.8v3h-6v4h3.5v3H131
				v4.4h6.1v3.3L129.2,634.3L129.2,634.3z"/>
			<path fill="#C4BA98" stroke="#000000" stroke-width="0.5" stroke-miterlimit="10" d="M140.4,634.3v-17.7h1.2l5.4,10.4
				c0.2,0.3,0.3,0.7,0.5,1c0.1,0.3,0.3,0.6,0.4,0.9c0-1,0-1.7-0.1-2.1c0-0.4,0-0.7,0-1v-9.3h1.6v17.7h-1.2l-5.6-10.9
				c-0.1-0.3-0.3-0.5-0.3-0.8c-0.1-0.2-0.2-0.5-0.3-0.7c0,0.5,0,1.1,0,1.5s0,0.9,0,1.3v9.5H140.4L140.4,634.3z"/>
			<path fill="#C4BA98" stroke="#000000" stroke-width="0.5" stroke-miterlimit="10" d="M153.2,634.3v-17.7h4.9
				c1.4,0,2.5,0.8,3.2,2.3c0.8,1.5,1.1,3.7,1.1,6.4c0,1.7-0.2,3.1-0.4,4.4c-0.3,1.3-0.7,2.4-1.2,3.1c-0.3,0.5-0.7,0.8-1.2,1
				c-0.5,0.2-1.1,0.3-1.9,0.3L153.2,634.3L153.2,634.3z M155,631h2.3c1.2,0,2.1-0.4,2.6-1.3c0.5-0.9,0.8-2.3,0.8-4.4
				c0-1.8-0.2-3.2-0.6-4.1c-0.4-0.9-1-1.4-1.9-1.4H155L155,631L155,631z"/>
			<path fill="#C4BA98" stroke="#000000" stroke-width="0.5" stroke-miterlimit="10" d="M172.4,619.8h-5v3.8h4.8
				c0.7,0,1.2,0.3,1.5,0.9c0.3,0.6,0.4,1.7,0.4,3.3v2.4c0,1.6-0.1,2.7-0.4,3.3c-0.3,0.6-0.8,0.9-1.5,0.9h-4.7
				c-0.7,0-1.2-0.3-1.5-0.9c-0.3-0.6-0.4-1.7-0.4-3.3v-0.5l1.6-0.8v2.1h5.4v-4h-4.8c-0.7,0-1.2-0.3-1.5-0.9
				c-0.3-0.6-0.4-1.7-0.4-3.3v-2c0-1.6,0.1-2.7,0.4-3.3c0.3-0.6,0.8-0.9,1.5-0.9h4.3c0.7,0,1.2,0.3,1.5,0.8c0.3,0.6,0.4,1.6,0.4,3
				v0.4l-1.6,0.8L172.4,619.8L172.4,619.8z"/>
			<path fill="#C4BA98" stroke="#000000" stroke-width="0.5" stroke-miterlimit="10" d="M185,631.7v-5h-5.6v7l-1.8,0.6v-17.7h1.8
				v6.9h5.6v-6.9h1.8v14.4L185,631.7z"/>
			<path fill="#C4BA98" stroke="#000000" stroke-width="0.5" stroke-miterlimit="10" d="M190.7,634.3v-17.7h1.8v17.7H190.7z"/>
			<path fill="#C4BA98" stroke="#000000" stroke-width="0.5" stroke-miterlimit="10" d="M196.4,634.3v-17.7h6.5c0.6,0,1,0.3,1.3,0.8
				c0.3,0.5,0.4,1.4,0.4,2.6v3.9c0,1.2-0.1,2-0.4,2.6c-0.3,0.5-0.7,0.8-1.3,0.8h-4.8v6.1L196.4,634.3z M202.1,619.8h-4v4.7h4
				c0.3,0,0.5-0.1,0.6-0.3c0.1-0.2,0.2-0.6,0.2-1.1v-1.9c0-0.5-0.1-0.9-0.2-1.1C202.7,619.9,202.5,619.8,202.1,619.8z"/>
		</g>
	</g>
</g>
</svg>
