<?xml version="1.0" encoding="utf-8"?>
<!-- Generator: Adobe Illustrator 21.0.0, SVG Export Plug-In . SVG Version: 6.00 Build 0)  -->
<svg version="1.1" id="图层_1" xmlns="http://www.w3.org/2000/svg" xmlns:xlink="http://www.w3.org/1999/xlink" x="0px" y="0px"
	 viewBox="0 0 560 560" style="enable-background:new 0 0 560 560;" xml:space="preserve">
	<style type="text/css">
	.st0{fill:#FFFFFF;
</style>
<g>
	<g>
		<path class="st0" d="M105.9,397c1.3-7.8,6.4-12.5,12.6-16.3c4.5-2.7,9.6-4,14.8-4.7c3.2-0.5,6.3,0.2,9.4,1.2c4.5,1.6,8.8,3.8,12.5,6.8
			c1.2,1,2.2,1,3.6,0.8c7.6-1.4,15-0.5,21.9,2.9c1.3,0.7,2.6,1.5,4.2,2.5c-0.3-0.9-0.3-1.6-0.6-2.2c-1.4-2.9-2.9-5.7-4.2-8.5
			c-1.3-2.8-2.4-5.7-3.5-8.6c-2.8-7-2.6-14.6-3.6-21.9c-1.1-7.9-1.8-15.8-2.8-23.7c0-0.2-0.2-0.4-0.4-0.9c-1.6,1.4-3.3,2.6-5.5,2.3
			c-3.1-0.5-6.1-1.4-8.3-3.8c-1.5-1.6-2.9-3.4-3.8-5.4c-2.1-4.7-3.8-9.5-4.4-14.7c-1-7.6-2.9-14.9-5.5-22.1
			c-0.3-0.8-0.8-1.6-1.4-2.1c-1.8-1.7-2.9-3.7-3.7-6.1c-1.8-5.4-2.3-11-2.2-16.7c0-3.1-0.3-6.2-0.4-9.2c-0.2-3.3-0.4-6.5-0.6-9.8
			c-0.1-2.1-0.4-4.2-0.4-6.3c-0.1-4.8-0.1-9.5,0-14.3c0-1.8,0.9-3.4,2.2-4.7c1.1-1,2.3-1.9,3.5-2.9c1.3-1.1,1.6-3.2,0.2-4.1
			c-3.5-2.2-3.6-5.4-2.9-8.9c0.3-1.5-0.2-2.4-1.4-3.4c-1.4-1-2.6-2.4-3.7-3.7c-2.2-2.6-2.6-5.4-0.7-8.3c1.7-2.6,3.5-5.1,5.5-7.5
			c1.3-1.6,2.1-3.1,2.1-5.2c0-3.5,1.5-6.4,4.2-8.5c1.3-1,1.6-2,1.1-3.4c-1.1-3.8-2.2-7.6-3.3-11.4c-0.8-2.6-0.2-5.1,1.2-7.3
			c0.7-1,1.5-1.9,2.3-2.9c1.7-2.1,3.4-4.1,5-6.2c0.8-1,1.4-2.3,1.7-3.5c2.5-11.1,7-21.5,11.8-31.7c1.8-3.9,4.1-7.6,6.5-11.2
			c3-4.6,6-9.2,9.5-13.4c3.2-4,7-7.5,10.6-11.1c8.3-8.2,17.5-15.2,27.7-20.8c2.5-1.4,5.1-2.8,7.6-4.2c0.5-0.2,1-0.4,1.5-0.5
			c7.4-2.3,14.8-4.7,22.4-6.2c7.5-1.5,15-3.5,22.5-4.8c11.9-2,23.8-1.4,35.8,0.5c14.3,2.2,27.6,7.4,40.9,12.5
			c8.2,3.2,15.6,8,22.5,13.4c0.6,0.5,1.2,1,1.9,1.5c6.2,4.6,11,10.3,15.5,16.6c6.6,9.3,12.5,18.9,17.3,29.1
			c2.4,5.1,4.3,10.5,6.4,15.7c0.5,1.2,1.1,2.4,1.5,3.7c0.7,2.5,2.4,3.8,4.8,4.4c1.5,0.4,3,1,4.5,1.6c1.3,0.5,2.2,1.5,2.6,2.8
			c1.5,4.3,2.2,8.7,1,13.3c-0.7,2.5-1.4,4.9-1.8,7.5c-0.3,1.6-0.2,3.3,0,5c0.3,1.7,1.3,3.1,2.9,3.9c0.7,0.3,1.4,0.8,2.1,1.1
			c4.8,2.3,8,6,10.3,10.7c0.2,0.4,0.5,0.8,0.6,1.2c1.5,5.2-1,13.4-5.4,16.5c-4.2,3-4.8,5.3-4.6,10.5c2.2,0.6,4.4,0.3,6.5-0.1
			c2.1-0.5,3.5,0.2,5,1.5c2.6,2.2,4,4.8,4.4,8.1c0.7,4.7,0.7,9.3,0.4,14c-0.3,6.1,0.1,12.2,0.3,18.3c0.2,5.5,0.5,11,0.8,16.4
			c0.2,4-0.4,8-1.3,11.8c-0.6,2.4-1.7,4.8-3.2,6.9c-2,2.9-3.6,5.9-4.4,9.3c-1.7,7.9-3.2,15.8-4.8,23.6c-0.5,2.2-1,4.5-1.5,6.7
			c-0.1,0.5-0.3,1-0.2,1.6c0.3,2.6-0.9,4.6-2.5,6.5c-4.4,5.5-9.9,8.1-17,6.7c-0.3,0-0.5,0-0.8,0c-0.1,0-0.2,0.1-0.4,0.2
			c-0.1,0.4-0.3,0.9-0.4,1.3c-0.8,7.8-1.9,15.6-2.4,23.5c-0.7,10.2-3.1,20.1-5.4,30c-0.2,1-0.5,2.1-0.6,3.1
			c-0.1,0.8,0.1,1.7,0.2,2.4c2.8-0.9,5.4-1.9,8-2.4c2-0.4,4.3-0.4,6.3-0.1c1.5,0.2,2.5-0.1,3.6-0.9c4.8-3.8,10.4-6.1,16.4-7
			c1.3-0.2,2.7-0.8,3.9,0.6c0.3,0.3,1.2,0.2,1.8,0.2c7.8-0.2,15.1,1.7,22.1,4.9c10,4.4,15.8,12.3,18.8,22.6c2,6.7,2.6,13.5,2.1,20.5
			c-0.5,8.2-3.3,15.7-7.7,22.6c-3.8,6-9.6,9.3-16.4,10.7c-0.5,0.1-1,0.2-1.6,0.3c-3,0.7-6,1.5-9.3,2.3c0.1-0.1-0.2,0.1-0.2,0.3
			c-1.4,8.1-5.3,14.9-10.3,21.3c-7,8.9-16.3,13.2-27.5,13.7c-4.9,0.2-9.7-0.1-14.6-2c0.1,1.2,0.2,2.1,0.3,3.1
			c0.5,7.5,0.5,14.9-3.4,21.7c-1.2,2.1-2.4,4.2-4.1,5.8c-6.4,6.3-13.6,11.3-22.1,14.3c-7.1,2.5-14.5,3.5-21.9,1.9
			c-7.7-1.6-14.8-4.7-21.1-9.5c-0.5-0.4-0.9-0.8-1.5-1.1c-1.5-1-2.6-0.8-3.7,0.5c-0.2,0.2-0.3,0.4-0.5,0.6
			c-5.3,8-12.7,13.6-21.1,17.7c-10.7,5.3-22,6.9-33.6,2.5c-2.3-0.9-4.8-1.3-7.1-2.2c-5.5-2.2-10.5-5-13.9-10.1
			c-1.7-2.6-3.3-5.2-5.1-7.7c-1.1-1.5-2.4-2.8-3.8-4c-0.8-0.7-1.7-0.5-2.3,0.3c-0.5,0.7-1,1.5-1.4,2.2c-3,5.5-7.8,8.8-13.7,10.6
			c-2.3,0.7-4.6,1.1-7,1.4c-3.5,0.5-7,0.7-10.5,1.1c-0.7,0.1-1.4,0.2-2.1,0.1c-9.6-1.4-18.7-3.9-25.8-11c-1.9-1.9-3.7-3.8-5.1-6.1
			c-4.4-7.3-8.3-14.8-10.4-23.1c-0.4-1.6-1-3.2-1.1-4.9c-0.1-1.6,0.4-3.3,0.7-5.2c-0.7,0-1.4,0-2.1,0c-1.2,0-2.2-0.1-3.2-0.9
			c-0.6-0.5-1.6-0.7-2.5-0.6c-5.3,0.3-9.6-1.9-13.4-5.3c-4.8-4.2-8.5-9.3-11-15.1c-1.5-3.5-2.9-7-4.4-10.5c-0.7-1.8-1.2-2.1-3.1-1.8
			c-10.7,1.3-19.7-2.1-27-9.9c-0.8-0.8-1.5-1.7-2.3-2.6c-4.7-5.8-5.8-12.6-4.8-19.7c1.2-9,6.1-15.9,13.2-21.2
			C98.7,399.7,101.8,397.4,105.9,397z M412.9,120.2c-3.2-9.9-6.9-19.2-11.4-28.3c-5.1-10.2-11.4-19.7-18.3-28.8
			c-6.3-8.4-13.9-15.3-22.9-20.7c-13.2-8-27.4-13.5-42.4-17.1c-13.1-3.1-26.3-4.2-39.7-4c-1.9,0-3.7,0.1-5.6,0.4
			c-17.5,2.9-34.5,7.6-50.8,14.7C209,42,198,50.2,188.3,60.3c-9.4,9.8-16.6,21-23.4,32.7c-6,10.3-10.3,21.1-12.6,32.7
			c-0.6,3.2-1.4,5.5-4.5,7.4c-3.9,2.4-5.5,6.3-4.5,11c0.4,1.8,0.6,3.7,1,5.5c0.7,3,1.4,6,2.1,8.9c-3.9,2.1-5.9,5.3-6.1,9.5
			c-0.1,1.9-0.7,3.3-1.9,4.6c-2,2.3-3.9,4.6-5.5,7.1c-1.6,2.5-1.3,5.1,0.5,7.4c0.8,1,1.8,2,2.7,2.9c1,0.9,2.2,1.8,3.4,2.7
			c-0.2,0.7-0.4,1.4-0.6,2c-0.8,2.4-0.8,4.7,1.3,6.6c0.6,0.5,1,1.3,1.4,1.9c1.2,1.9,1.1,4.1,0.8,6.2c-0.2,1.5-1.8,1.6-2.8,2.2
			c-2.6,1.7-4.3,4-4.2,7.2c0.2,3.8,0.5,7.6,1,11.3c0.5,3.8,1.3,7.5,0.2,11.2c0.3,7.8,0.4,15.6,1.1,23.3c0.3,3.1,1.5,6.2,2.8,9.1
			c1.1,2.5,3,4.6,4.4,6.9c0.6,1,1.3,2.2,1.6,3.3c1.2,5.5,2.2,11.1,3.4,16.6c0.9,4.3,1.6,8.7,2.8,12.9c1.1,3.7,3.5,6.7,6.9,8.8
			c4.9,3,10.1,1,11.6-4.6c0.1-0.4,0.3-0.8,0.5-1.2c1.5,9.5,2.6,18.9,3.7,28.2c0.7,6.4,1.4,12.8,2.4,19.2c0.9,6.2,3.9,11.7,7.4,16.9
			c2.2,3.3,3.9,6.7,3.4,10.8c0,0.3,0.1,0.5,0.1,0.8c0.9,6.8,1.4,13.5,1.3,20.4c0,1.3-0.2,2.6-0.5,3.9c-0.1,0.5-0.7,0.9-1.2,1.1
			c-0.2,0.1-0.8-0.6-1-1c-0.3-0.6-0.5-1.3-0.7-1.9c-0.9,1.4-1.5,2.9-1.7,4.4c-0.5,3.3-0.5,6.7-1.2,10c-0.5,2.5,0.1,4.2,1.7,6
			c3.3,3.6,5.5,7.8,6.5,12.6c0.4,2.1,0.8,4.3,1.2,6.6c3,0,6.1-0.1,9.2,0c16.2,0.3,28.4,7.3,36.3,21.6c0.3,0.5,0.6,0.9,1.1,1.6
			c0.9-1.1,1.6-2,2.3-2.9c6.8-9.2,16-14.8,26.9-17.8c2.2-0.6,4.5-0.9,6.8-0.9c16.7-0.2,29.7,7.1,40.1,19.7c0.3,0.3,0.6,0.5,1,0.9
			c0.6-1,1-1.9,1.6-2.6c1.8-2.3,3.3-5,5.5-6.7c5.7-4.6,11.4-9.3,19-10.5c0.3-0.1,0.7-0.2,1-0.3c8.6-3.2,17.2-3.5,25.7,0.5
			c0.4,0.2,0.9,0.3,1.7,0.5c-2.4-11.7,1-21.7,8-30.4c7.1-8.8,16.6-13.8,28.1-15.1c0-0.9,0-1.7,0-2.5c0.2-6.7,1.7-13.1,5.1-19
			c1.2-2,2.4-3.9,1.8-6.5c-4.3,0-8.4,1.5-12.4,3.2c-1.2,0.5-1.5,1.6-1.8,2.7c-2.4,10.2-6.7,19.5-13,27.9c-0.6,0.8-1.2,1.4-1.9,2.3
			c-0.2-0.5-0.3-0.7-0.3-0.8c0.3-0.7,0.6-1.5,1-2.2c4.4-7.4,7.5-15.4,9.7-23.7c0.7-2.6,1.9-5.2,2.1-7.9c0.2-3.5,1.6-6.6,2.3-10
			c1.4-7.4,2.8-14.8,3.8-22.2c1.1-8.8,1.8-17.7,2.7-26.6c0.2-2.4,0.6-4.8,0.9-7.4c0.7,0.2,1.1,0.4,1.5,0.5c7.5,3,15.9,0.8,19.8-8
			c1.6-3.6,2.5-7.4,3-11.2c0.9-7.1,1.7-14.2,2.4-21.3c0.3-2.8,1.1-5.1,2.9-7.3c4.4-5.4,6.4-11.7,7-18.6c0.7-7.7-0.5-15.2-1.6-22.7
			c-0.4-2.3-0.7-4.6-0.5-6.8c0.3-4.8,0.9-9.5,1.2-14.3c0.2-3.2,0.4-6.4,0.1-9.5c-0.5-4.9-4.1-7.3-8.8-6.5c-2.4,0.4-4.9,0.3-6.8,2.1
			c-3.3-2.9-2-5.5,0-7.9c-0.6-0.7-1.4-1.3-1.3-1.7c0.6-2.2,0.6-4.8,3-6.2c1.4-0.9,2.7-2,3.9-3.1c4.6-4.5,5.1-9.5,1.5-14.8
			c-2.5-3.7-5.7-6.9-9.8-8.7c-3.3-1.5-4.3-4.2-5-7.2c-0.1-0.6-0.1-1.5,0.2-2c2.5-5,2.8-10.4,3.3-15.7c0.1-1.3,0-2.7-0.2-4
			c-0.6-2.9-2-4-5-4.1C416.5,120.1,414.8,120.2,412.9,120.2z M321.3,505.8c-0.2-2.2-0.4-4.4-0.7-6.6c-0.7-4.5-2.4-8.7-3.9-12.9
			c-0.9-2.6-2.3-4.7-4.1-6.7c-5.4-6.1-12-10.7-18.5-15.4c-0.8-0.6-1.9-0.9-2.9-1.2c-5-1.4-9.9-2.5-15.1-1.7c-4.4,0.7-8.7,1.4-13,2.2
			c-1,0.2-1.9,0.8-2.8,1.4c-7.1,4.3-12.5,10.4-17,17.3c-1.8,2.8-3.8,5.5-4.6,8.9c-2.6,10.2-2.6,20.4-1.7,30.8c0.1,1,0.3,2.2,0.8,3
			c3.6,6.2,8.1,11.6,14.2,15.5c7.2,4.6,15.1,7.2,23.5,8.5c5.8,0.9,11.5,0.5,16.8-2.2c4.5-2.2,9.1-4.4,12.6-8.2
			c2.6-2.9,5.1-5.9,7.5-9C317.7,522.5,320.7,514.6,321.3,505.8z M201.9,458.3c-10.8,0.2-20.7,2.4-28.8,10.2
			c-9.3,8.8-13.5,19.4-11.9,32.2c0.6,4.8,2.9,9,4.8,13.4c1.9,4.4,4.7,8.1,8.2,11.3c6.1,5.5,13,9.4,21.2,10.6
			c5.8,0.8,11.6-0.2,17.3-1.3c6.8-1.2,12.6-3.9,17.1-9.2c0.1-0.1,0.1-0.1,0.2-0.2c2.1-1.8,2.6-3.8,1.9-6.8
			c-2.8-13-2.5-25.7,5.5-37.1c0.9-1.3,0.6-2.4-0.1-3.6c-4-6.8-9.8-11.5-16.5-15.4c-1.9-1.1-4-2.1-6.1-2.5
			C210.5,459.1,206.2,458.8,201.9,458.3z M352.9,536c3.8-0.6,7.7-1,11.5-1.9c8.4-2,15.2-6.9,21.8-12.2c6.7-5.4,8.8-12.9,9-21
			c0.1-7.2-1.7-14.2-4.3-20.9c-1.8-4.5-4.5-8.1-8.4-11c-6-4.5-12.4-8.5-19.2-11.7c-2.7-1.2-5.4-1.7-8.3-1.1
			c-3.2,0.6-6.4,1.3-9.5,2.3c-10.7,3.3-19.5,9-24.8,19.3c-0.2,0.3-0.3,0.6-0.6,0.9c-1.1,1.3-1,2.5-0.2,4.1c2.5,4.9,4.5,10,5.6,15.4
			c1.6,7.8,0.7,15.5-0.8,23.2c-0.4,1.9,0.1,2.9,1.5,4.1c4.9,4.1,10.7,6.4,16.6,8.6C346,535.2,349.4,535.8,352.9,536z M410.7,490.2
			c3.3-0.5,6.8-0.4,9.9-1.5c7.3-2.6,13.8-6.9,18.8-12.9c5.5-6.5,8.6-14,7.5-22.7c-0.5-3.8-0.9-7.5-1.6-11.3
			c-0.3-1.5-0.8-3.1-1.6-4.5c-1.6-2.6-3.2-5.1-5.2-7.3c-5.4-6.1-11.8-10.8-19.4-14c-8.2-3.4-16.1-2.9-23.6,1.5
			c-9.6,5.6-16.8,13.3-20.9,23.8c-1.8,4.6-2.7,9.3-2.3,14.2c0.1,1.9,0.8,3.1,2.5,4.2c9.9,6.4,17.6,14.7,21.4,26.1
			c0.4,1.2,1.1,1.6,2.2,2C402.4,489.2,406.5,490,410.7,490.2z M409.1,411.7c11.7,0.2,21,4.9,28.7,13.2c7.6,8.3,11.8,18.1,12.6,29.4
			c0.5,0.1,0.8,0.1,1.1,0.1c0.5,0,1.1-0.1,1.6-0.2c5.6-1.1,10.8-3.2,15.5-6.5c2-1.5,3.8-3.2,5.8-4.6c1.2-0.9,2-1.9,2.7-3.2
			c4.6-8.7,6.2-17.9,5.5-27.7c-0.5-6.3-2.5-12.2-5.1-17.7c-3-6.4-8.2-10.9-14.8-13.8c-9.6-4.1-19.5-5.4-29.8-3.2
			c-3.6,0.8-6.9,2-9.7,4.5c-2.8,2.6-5.3,5.4-7.2,8.8c-2.9,5.2-4.7,10.7-6,16.4C409.5,408.6,409.4,410,409.1,411.7z M189.8,455.3
			c-0.1-0.8-0.1-1.3-0.2-1.8c-0.8-6.8-4.2-12.5-8.1-17.9c-7.5-10.1-21.4-14.5-33.9-10.8c-10.7,3.2-18.3,10-23,20.1
			c-0.5,1.1-0.9,2.4-0.8,3.5c0.2,3,0.3,6,1.1,8.9c1.2,4.8,2.9,9.4,4.4,14.2c1.2,4,3.7,7,7.2,9.1c3.2,1.9,6.4,3.8,9.7,5.5
			c3.4,1.7,7.2,2.2,11.1,2.2C163.5,472.9,172.8,460.4,189.8,455.3z M139.4,424.6c0-0.4,0-0.7-0.1-0.9c-3-10-9.3-17-18.3-21.9
			c-0.8-0.4-1.6-0.7-2.5-0.8c-6.7-1.1-13.4-0.5-19.8,1.8c-1,0.4-2.1,1-2.9,1.8c-5.4,6-8.9,12.9-10.5,20.8c-1.6,7.6,0.5,14,6.5,18.9
			c5.4,4.5,11.5,7.6,18.5,8.6c1.9,0.3,3.9,0.5,5.8,0.5c2.2,0,2.2-0.2,2.8-2.3c0.6-2.1,1.3-4.2,2-6.3c1.5-4.1,4.4-7.2,7-10.6
			c2.6-3.3,5.6-6.1,9.2-8.2C137.9,425.5,138.7,425,139.4,424.6z M141.5,423c0.4,0.1,0.6,0.2,0.7,0.1c4.3-1.5,8.6-2.8,13.1-2.8
			c1,0,1.4-0.5,1.7-1.4c2.4-5.8,3.1-12,2.3-18c-1.1-8.6-5.2-15.7-13.9-19.2c-1.1-0.5-2.3-1-3.4-1.4c-6-2-12.1-2.2-17.8,0.4
			c-6.4,2.9-11.4,7.6-14.8,13.9c-0.4,0.6-0.5,1.4-0.9,2.3c8.1,0.1,15.5,1.4,21.5,6.8C135.9,409.1,140.8,414.8,141.5,423z
			 M160.1,420.2c7.3,1.7,14.1,4.2,20.3,8.9c0.2-1.5,0.4-2.5,0.4-3.6c0.1-4.5,0.7-8.8,3.9-12.3c0.3-0.3,0.5-0.8,0.7-1.1
			c0.9-1.2,1.2-2.5,1.1-4c-0.3-3.9-0.5-7.8-0.5-11.6c0-2.3-0.7-3.6-2.7-4.6c-7.9-4-16.3-5-24.9-4.7c-0.1,0-0.2,0.2-0.5,0.5
			C163.8,398.1,165.9,408.9,160.1,420.2z"/>
		<path class="st0" d="M371.2,434.1c0.7-3.6,1.5-7.3,2.2-10.9c0.7-3.7,1.3-7.5,2-11.2c0.7-3.7,2.2-7.5,2-11.1c-0.3-3.7,1.8-7.3,0.9-11
			c-0.2-0.1-0.5-0.1-0.7-0.2c-0.3,0.6-0.9,1.2-1,1.9c-1.4,6.3-5.1,11.4-8.8,16.4c-2.6,3.4-4.3,7.1-5.3,11.2
			c-0.4,1.7-1.1,2.9-2.6,3.8c-3.3,1.8-5.7,4.4-7.7,7.5c-0.6,0.9-1.4,1.6-2.3,2.2c-4.7,3.5-10,5.9-15.5,7.9c-1.7,0.7-3.4,1.5-5.1,2.1
			c-1.2,0.4-2.5,0.8-3.8,1c-8.1,1.4-15.9,0-23.3-3.1c-4-1.6-7.6-4-11.4-6.1c-0.7-0.4-1.2-0.9-2-1.5c2.1-2.1,4.4-3.5,6.8-4.4
			c3.4-1.2,7-1.9,10.5-2.7c1.3-0.3,2.6-0.3,3.9-0.6c1.8-0.3,3.4-1.1,4.6-2.4c0.5-0.6,1-1.3,1.7-1.7c1.6-0.9,2.4-2.3,2.8-4
			c0.2-0.7,0.5-1.3,0.8-2c-0.3-0.5-0.6-0.9-1-1.6c0.7-0.5,1.4-1,2-1.5c0.5-0.5,1-1,1.3-1.6c0.2-0.4,0.2-1.1-0.1-1.4
			c-0.3-0.3-1-0.4-1.4-0.3c-1.5,0.5-3,1.2-4.4,1.9c-5.4,2.6-11,4.3-17,4.9c-5.6,0.5-10.9-0.4-15.6-3.8c-5-3.6-6.8-8.8-7.2-14.7
			c-0.1-1.6,0.6-2.7,2.2-3.2c1.2-0.4,2.3-0.9,3.5-1c5.5-0.6,11.1-0.9,16.6-1.5c3.3-0.3,6.6-0.9,10-1.1c4.1-0.3,8.1-0.1,12.2-0.5
			c3.9-0.4,7.5,0.4,11.2,1c3.5,0.5,5.5,2.6,7,5.5c1,2,1,2,3.3,2.5c0.7-1.1,0.6-2.3,0.3-3.5c-0.5-2.1-1.1-4.1-1.6-6.2
			c-0.5-1.8-0.9-3.6-1.4-5.3c-0.2-0.5-0.5-1.3-0.9-1.4c-0.4-0.1-1.1,0.4-1.4,0.8c-1.8,2.8-4.4,4.2-7.8,4c-2.3-0.1-4.6,0-6.9-0.2
			c-6-0.4-12,0.2-18,1c-0.7,0.1-1.4,0.2-2.1,0.2c-4.4-0.3-8.8-0.7-13.2-1.1c-1.1-0.1-2-0.6-2.5-1.7c-0.3-0.7-0.8-1.4-1.2-2
			c-1.2-1.9-2.6-3.8-1.4-6.3c0.4-0.8,0.2-1.9,0.1-2.9c-0.2-2.1,0.5-3.6,2.1-4.9c2.4-2,5-3.9,7.4-6c2-1.7,3.8-3.7,5.7-5.6
			c1.7-1.7,3.3-3.4,5.2-4.8c1.1-0.8,2.6-0.8,3.9-1.3c0.5-0.2,1.1-0.7,1.2-1.2c0-0.4-0.6-1.2-1-1.3c-2.3-0.2-4.7-0.4-7.1-0.3
			c-2.4,0.1-4.1,2-5.9,3.4c-2.1,1.6-4.2,3.2-6.3,4.8c-2.3,1.8-4.8,2.2-7.7,1.4c-4.2-1.2-8.5-2.3-12.8-3.3c-1.8-0.4-3.6-0.7-5.5-0.9
			c-2.7-0.4-4.2-1.8-5-4.4c-1.7-5.8,0.2-11,4.4-14.9c0.7-0.6,1.7-0.8,2.8-1.2c0.1-1.1,0.3-2.3,0.4-3.5c0.5-8.4,2-16.7,3.3-25
			c1.1-6.8,1.5-13.7,2.1-20.6c0.3-3.1,0.4-6.2,0.5-9.3c0.2-4,2.7-6.8,4.7-9.9c0.3-0.5,1.3-0.5,1.8-0.9c0.6-0.6,1.3-1.3,1.4-2
			c0.1-1-0.8-1.4-1.8-1.6c-4.9-1.1-8.2-4.1-10-8.8c-0.7-1.8-1.6-3.5-2.6-5.6c1.3-0.1,2.5-0.3,3.6-0.3c4.2,0.1,8.5,0.4,12.7,0.5
			c2.7,0,5.5-0.2,8.2-0.3c1.7-0.1,2.1,0.1,2,1.9c-0.1,2.6-0.4,5.3-0.7,7.9c-0.4,3.1-0.9,6.1-1.2,9.2c-0.4,3.6,0.8,6.8,3.4,9.4
			c2.3,2.3,4.7,4.2,7.5,5.8c3.7,2.3,6.9,5.1,10.4,7.7c4.3,3.2,8.7,6.4,13.2,9.7c0.6-0.9,1.2-1.7,1.8-2.5c1.3-1.9,2.6-3.8,4.1-5.5
			c0.7-0.8,1.8-1.5,2.8-1.8c4.2-1.4,8.5-2,13-1.5c2.3,0.3,4.8,0.1,7.1-0.3c1.3-0.2,2.8-0.9,3.7-1.9c2.8-3.4,5.3-7,7.9-10.5
			c-0.1-0.2-0.3-0.3-0.4-0.5c-1.9,0.9-3.8,1.7-5.6,2.6c-3,1.5-6,3-9,4.5c-1.4,0.7-2.8,0.8-4.3,0.3c-2.5-0.7-4.7-1.9-6.9-3.9
			c2.6-0.9,4.8-1.8,7.2-2.5c9-2.8,17.7-6.1,26-10.5c2.7-1.5,5.4-3,7.5-6.2c-1.1,0.3-1.8,0.3-2.5,0.6c-6.4,2.2-12.8,4.4-19.2,6.7
			c-6.2,2.2-12.7,3.1-19,4.7c-2.3,0.6-3.4-0.8-4.6-2.3c-1.2-1.5-1.3-2.9-0.2-4.6c2.7-4.6,5.9-8.8,10.3-12c3.2-2.3,6.4-4.8,9.6-7
			c3.2-2.3,6.8-3.3,10.8-2.3c2.3,0.6,4.7,1,7,1.5c2,0.4,2.9-0.1,3-2.1c0.1-1-0.1-1.9-0.2-2.9c-0.1-0.9-0.3-1.8-0.3-2.6
			c0.2-2.7,0.4-3,3.1-3.8c11.1-3.4,21.9-7.6,32.3-12.7c2-1,4.2-1.9,6.3-2.8c3.9-1.6,7.3-3.9,9.9-7.4c0.7-1,1.2-2.1,1.6-3.3
			c0.6-1.6,1-3.4,1.6-5c0.8-2,2.6-3.1,4.3-4.1c1.7-1,4.7,0.5,5.4,2.6c0.5,1.5,0.9,3.1,0.9,4.7c0,2.2-0.4,4.4-0.6,6.6
			c-0.2,4.1-0.3,8.1-0.5,12.2c0,0.7,0,1.3,0,2.3c-1.4-0.8-1.8-1.9-1.9-3c-0.2-1.2-0.1-2.5,0-3.7c0.1-3.6,0.3-7.2,0.5-10.8
			c0-0.4,0-0.9-0.1-1.3c-0.4-1.8-2.1-2.8-3.8-2c-0.9,0.4-1.9,1.1-2.5,1.9c-2.5,3.6-3.8,7.6-2.4,12c0.7,2.2,1.7,4.3,4,5.4
			c1.1,0.5,1.5,1.4,1.7,2.5c0.7,4.8,0.9,9.5,0,14.3c-0.3,1.6-0.6,3.3-2.5,4.9c-0.2-0.4-0.4-0.8-0.5-1.2c-1.1-3-2.6-5.8-2.6-9.1
			c0-2.3-0.1-4.5-1.7-6.5c-0.6-0.9-0.5-2.4-0.5-3.6c-0.1-1.2-0.4-2-1.5-2.5c-1-0.4-1.8-0.1-2.4,0.6c-0.8,0.8-1,1.8-0.5,2.9
			c1.9,3.9,2,7.7,0.3,11.7c-1.6,3.7-0.5,7.7-0.5,11.5c0,0.5,0.3,1,0.6,1.5c2.6,3.5,2.4,7.6,2.3,11.7c0,1.8-0.6,3.6-1,5.7
			c-2.1-1.5-3.2-0.4-4.2,1c-1,1.4-2.2,2.8-3.2,4.2c-1.3,2-1.4,4.1-0.3,6.3c0.4,0.8,0.8,1.6,0.8,2.4c0.1,5.4,0,10.8-2.4,15.8
			c-0.8,1.6-1.9,3.2-3.1,4.5c-2.9,3.2-1.2,6.6,1.2,8.5c1.5,1.2,3.4,0.8,4.2-1c1.8-4.2,3.6-8.5,5.4-12.7c1.8-4.2,1.8-8.4,0.4-12.6
			c-0.6-1.7-1.4-3.4-0.7-5.3c0.1-0.2,0.1-0.6,0-0.8c-1.7-3.6,0.8-6.4,1.7-9.8c2.1,1.6,3.9,0.2,5.8,0c0.6-0.1,1.2-0.8,1.5-1.3
			c2-3.8,4.3-7.6,4.3-12.1c0-2.5-0.4-5-0.6-7.9c2.2-1.6,4-4.1,4.6-7.2c0.6-2.9,0.6-5.8,0.9-8.8c0.2,0,0.4-0.1,0.5-0.1
			c0.2,0.5,0.6,0.9,0.6,1.4c0.6,5,0.6,10,0,15.1c-0.4,3.1-0.5,6.2-0.9,9.2c-0.7,4.8-2.9,9-5.5,13.1c-2.8,4.5-4.3,9.4-5,14.6
			c-0.3,2.1-0.1,4,0.2,6c0.2,1.6-0.3,3.4-0.7,5.1c-0.9,4.2-1.6,8.5-2.8,12.6c-0.9,3.1-2.4,5.9-5.3,7.6c-3.5,2-7.2,2.9-11.1,1.5
			c-1.7-0.6-2.2-1.1-2.1-2.9c0.1-1.8,0.4-3.7,0.5-5.5c0.7-7.6,1.4-15.1,2.1-22.7c0.2-2.5,0.9-4.8,2-7.1c1.5-3.2,2.9-6.4,4.3-9.7
			c2.2-5.1,3-10.6,3.1-16.1c0-2.6-0.4-5.3-0.8-7.9c-1.2-7.5-2.6-15-3.9-22.5c-0.2-1.1-0.4-2.2-0.7-3.5c-1.4,0.8-1,1.9-1,2.8
			c0.3,4.9,0.5,9.7,1,14.5c0.5,4.9,1.4,9.8,1.6,14.8c0.1,3.4-0.2,6.9-1.1,10.2c-1.6,6-3.7,12-5.8,17.9c-1.5,4.3-3.1,8.5-4.6,12.7
			c-0.3,1-0.5,2-0.8,3.2c0.6,0.2,1.1,0.4,1.4,0.4c0,1.9,0.1,3.7,0,5.6c-0.1,2.6-0.3,5.3-0.4,7.9c-0.3,5.7-0.5,11.5-1,17.2
			c-0.4,4.3-1.1,8.6-1.7,12.9c-0.8,6.1-1.5,12.3-2.5,18.4c-1.4,8.7-3.1,17.4-4.6,26.1c-1.3,7.1-3.3,13.9-5.9,20.6
			c-3.9,10-8.7,19.5-14.8,28.3c-0.5,0.7-1.3,1.3-1.9,1.9C371.7,434.4,371.4,434.2,371.2,434.1z M375,372.2c1.4-0.8,2.7-1.4,3.9-2.2
			c6-4.1,8.8-10,9.4-17c0.5-5.8,0.3-11.7,0.7-17.5c0.2-2.9,0.1-5.8-0.4-8.7c-0.5-3-1-5.9-0.4-8.9c0.1-0.4-0.1-0.9-0.1-1.3
			c-0.8,0.9-1.2,1.8-1.7,2.7c-2.2,4.1-4.4,8.2-6.7,12.4c-1.8,3.4-2.4,7.1-2.5,11c-0.1,4.6,0,9.2-0.5,13.8c-0.4,4.4-1.3,8.7-2.3,13
			C374,370.7,374.2,371.4,375,372.2z M319.5,335.8c0.5,0.3,0.7,0.4,0.8,0.5c4,6.1,9,11.3,14.3,16.3c1.4,1.4,3.3,2.3,5,3.3
			c0.4,0.2,1-0.1,1.8-0.2c-0.5-0.6-0.7-0.9-0.9-1.2c-4.6-4.7-9.2-9.2-13.7-14c-2.5-2.6-4.7-5.5-6.9-8.3c-1.1-1.4-1.8-3.1-2.9-4.4
			c-1.8-2-3.8-3.8-5.8-5.7c-0.1-0.1-0.3,0-0.7,0c0.2,0.5,0.2,1,0.4,1.4c0.8,1.5,1.6,3,2.6,4.3c1.9,2.4,2.9,5,3.3,8
			c0.2,1.2,0.4,2.4,0.7,3.6c0.1,0.5,0.4,0.9,0.6,1.3c0.2,0,0.3,0,0.5,0C319,339.2,319.2,337.6,319.5,335.8z"/>
		<path class="st0" d="M310.4,124.5c-7.2,0-14.3-0.3-21.5,0.1c-7.8,0.4-15.7,0.4-23.4,2.2c-3.3,0.8-7,0.1-10.6,0.1c-2.8,0-5.6-0.2-8.5-0.2
			c-0.5,0-1.1,0-1.5,0.2c-5.6,2.4-11.3,2.4-17.1,0.7c-3.3-1-6.4-2.5-8.3-5.7c-0.6-0.9-0.9-1.8-0.6-3c0.3-1.2,0.1-2.6,0.3-3.9
			c0.3-1.9,0.6-3.8,1.1-5.7c0.3-1.2,0.5-2.2,0-3.3c-3.7-8.8-4.6-18.1-5.5-27.4c-1-10.4,1.3-20.2,6-29.5c1.8-3.6,4.4-6.6,7.6-9
			c1.8-1.4,3.7-2.7,5.6-4c0.9-0.6,2-1.2,3.1-1.5c11.1-3.2,22.2-6.5,33.6-8.4c8.4-1.4,16.9-1.8,25.3-0.8c0.5,0.1,1.1,0.2,1.6,0.1
			c3.8-1,7.3,0.3,10.9,1.2c17.3,4.3,33.9,10.3,49.7,18.7c5.9,3.1,11.4,6.7,16.4,11.2c2.2,2,3.9,4.5,5.8,6.9
			c7.3,9.5,12.9,20.1,17.8,30.9c3.8,8.3,6.9,16.8,10.4,25.2c0.6,1.5,0.3,2.4-0.8,3.5c-1.5,1.6-3.1,2.4-5.3,2.6
			c-12.1,1.1-24.2,1.3-36.3,0.5c-3.5-0.2-7.1-0.4-10.6-0.5c-15.1-0.6-30.2-1.1-45.3-1.7C310.4,124.1,310.4,124.3,310.4,124.5z
			 M302.4,98.8c-4.2,0.1-8.1,1-11.4,3.3c-2.6,1.8-4.7,4.1-5.1,7.4c-0.4,4,1.5,7,4.9,8.9c4.6,2.6,9.5,3,14.6,1.8
			c3.6-0.8,6.7-2.5,9.1-5.5c2.8-3.5,2.6-8.1-0.4-11.3C310.9,100,306.7,99,302.4,98.8z M222.1,116.2c0,0.7,0.2,1.4,0.1,2.1
			c-0.2,2.4,1.1,3.9,3.1,5.1c5.4,3.1,11.2,2.8,17,1.5c0.8-0.2,1.6-0.8,2.2-1.3c4.1-3.7,4.3-10.3,0.5-14.3c-4.3-4.5-9.7-5.2-15.4-3.4
			C223.7,107.8,221.6,111,222.1,116.2z M317.9,72.1c-2.1-3-4.7-5.6-8.5-6.6c-3.9-1.1-7.8-1.5-11.8-1c-3.4,0.4-6.8,1.1-9.7,3.2
			c-3.9,3-3.8,7.5,0.5,9.9c7.8,4.3,15.9,4.1,23.9,0.7c1.3-0.5,2.4-1.7,3.4-2.8C316.6,74.6,317.1,73.4,317.9,72.1z M234.1,83.1
			c3.9-0.2,7.5-0.9,10.6-3.2c3.6-2.7,3.9-6.8,0.5-9.7c-1.2-1.1-2.8-1.9-4.4-2.4c-4-1.2-8.1-0.9-11.9,0.6c-1.7,0.6-3.3,1.7-4.6,3
			c-3.1,2.9-2.6,6.8,0.9,9.2C227.9,82.5,231,83,234.1,83.1z M303.3,50.5c2.2-0.3,5.1-0.5,7.9-1c1.9-0.4,3.9-1,4.4-3.3
			c0.3-1.7-1.1-3.2-3.9-4c-2.8-0.8-5.6-1.5-8.4-2.2c-0.2,0-0.3,0-0.5,0c-2,0.2-4,0.2-6,0.5c-2.2,0.3-4.4,0.6-6.5,1
			c-2.2,0.5-3.7,1.9-3.6,3.3c0,2.1,1.6,2.8,3.2,3.4C294,49.9,298.3,50.2,303.3,50.5z M239.7,41.4c-1.8,0.1-3.2,0-4.5,0.3
			c-2.5,0.6-5.1,1.1-7.2,2.3c-3,1.6-2.8,4.5,0.3,6c0.5,0.3,1.1,0.5,1.7,0.6c4.9,1.1,9.7,0.7,14.3-1c1.1-0.4,2.2-1.1,3.1-2
			c1.3-1.3,1.2-2.8-0.1-4c-0.7-0.7-1.6-1.2-2.5-1.5C243,41.8,241.1,41.6,239.7,41.4z"/>
		<path class="st0" d="M361.4,186c2.9,0.4,5.8,1,8.6,1c4.6,0,9.1,0.9,13.6,1.9c6.8,1.5,13.6,3.1,20.4,4.4c4.1,0.8,8.4,1.1,12.6,1.3
			c1.7,0.1,3.5-0.4,5.1-0.6c1.2,1.8,2.5,3.7,3.6,5.6c0.8,1.3,0.2,4.2-1.1,5.4c-3.4,3.2-6.7,6.5-10.4,9.4c-2.3,1.7-5.1,2.8-7.8,3.9
			c-5.8,2.3-11.6,4.6-17.5,6.6c-9,3.1-18.2,5.5-27.5,7.3c-9.7,1.9-19.4,3.6-29.1,5.2c-7.6,1.3-15.3,2.3-23,3.3
			c-5.3,0.7-10.7,1.4-16,2c-2.4,0.3-4.8,0.4-7.1,0.5c-7.8,0.2-15.5,0.6-23.3,0.6c-3.8,0-7.6-0.6-11.4-1.4c1.7-0.5,3.4-1,5.1-1.5
			c5.9-1.8,11.8-3.5,17.8-5.2c1.5-0.4,3.1-0.5,4.7-0.7c6.4-0.6,12.8-1.1,19.3-1.6c7.1-0.6,14-1.8,20.8-3.8c5.4-1.6,10.8-3.5,16-5.5
			c3.9-1.5,6.3-4.2,7-8.6c1.9-12.4,2.8-24.8,1.7-37.2c-0.4-4.8-0.7-9.7-1-14.5c0-0.2,0.2-0.5,0.4-0.9c2.4,0.8,5.1,0.2,7.2,2.3
			c0.8,0.7,2.3,0.7,3.5,0.9c6.4,1,12.9,2.4,19.3,2.8c4,0.2,8.2-0.8,12.3-1.6c4.6-1,9.2-2.5,13.8-3.7c3.2-0.8,6.6-1.2,9.9-1.9
			c0.9-0.2,1.8-0.8,2.6-1.4c-2.1-1.1-4.2-0.6-6.2-0.5c-5.1,0.3-10.2,0.7-15.3,1c-5.1,0.3-10.2,0.8-15.3,0.8
			c-10.5,0.1-21-0.1-31.6-0.2c-0.2,0-0.3-0.1-0.7-0.3c-0.4-2.6-0.8-5.3-1.3-7.9c-0.6-3.1-1.1-6.3-2.3-9.2c-1.3-3.4-3.2-6.7-6.5-8.7
			c-1.1-0.7-2.4-1.1-3.7-1.4c-7.6-1.5-15.2-3-22.8-4.4c-2-0.4-4.1-0.7-6.1-1.2c3.4-1.2,6.9-1,10.3-0.8c4.8,0.2,9.5,0.6,14.3,0.9
			c3.6,0.2,7.2,0.3,10.9,0.5c8.9,0.4,17.8,0.8,26.7,1.2c6.6,0.2,13.2,0.6,19.9,0.4c6.8-0.1,13.6-0.8,20.3-2.1
			c3.8-0.7,7.1-2.2,9.5-5.3c1.1-1.4,2.4-1.8,4.2-1.3c4,1,4.6,1.4,4,5.5c-0.6,5.2-1.5,10.3-2.4,15.4c-0.3,1.7-0.3,3.4,0.5,4.9
			c1.5,2.9,3.5,5.2,6.3,7.2c3.8,2.6,7,6,8.4,10.6c0.9,2.8,0.8,5.6-1.5,7.9c-2.2,2.2-4.3,4.3-7.4,5.2c-7.4,2.2-14.7,4.2-22.4,4.6
			c-5.9,0.3-11.8,0.7-17.7,1c-7,0.4-13.9,0.7-20.9,1.1c-0.5,0-0.9,0.3-1.4,0.4C361.3,185.6,361.3,185.8,361.4,186z"/>
		<path class="st0" d="M158,245.1c-1.4,8-1.1,16.2-2.4,24.4c-0.2-0.4-0.6-0.8-0.7-1.2c-0.9-3-1.6-5.9-1.2-9.1c0.5-3.8,0.5-7.5,0-11.3
			c-0.2-1.1,0-2.5,0.5-3.5c2-4,2.6-8.2,2.3-12.6c0-0.3,0-0.5,0.1-1c0.4,0.1,0.7,0.1,1,0.3c5,3.9,10.6,6.7,16.6,8.8
			c3.1,1.1,5.5,2.8,7.2,5.4c2.2,3.4,4.2,7,6.2,10.5c0.5,0.8,0.8,1.8,1.3,2.6c1.6,3.4,3.9,6,7.2,7.9c5,2.9,10.4,4.8,16,6.2
			c4.7,1.2,9.3,0.2,13.9-0.7c0.7-0.1,1.4-0.3,2.1-0.4c0.2,0,0.5,0.1,1,0.3c-2.1,1.4-4.2,2.3-6.3,2.9c-4.7,1.4-9.6,1.4-14.4,0.8
			c-2.4-0.3-4.8-1.1-7.2-1.8c-3.7-1.2-7.5-2.3-11-3.9c-3-1.4-5.7-3.5-8.5-5.3c-0.4-0.3-0.8-0.7-1.2-1c-2.2-1.3-4.8-2.6-7-1.2
			c-2.3,1.5-3.9,4.1-3.7,7.2c0.1,1.6,0.2,3.2,0.6,4.7c1.6,6.1,3.4,12.3,5.1,18.4c0.2,0.8,0.5,1.5,0.9,2.2c2.2,3.6,3.1,7.6,4.1,11.7
			c0.9,3.7,2.2,7.3,3.2,10.9c1.2,4.1,2.5,8.1,3.4,12.3c1.5,7.5,4.1,14.4,8,21c0.3,0.5,0.6,0.9,0.8,1.4c2.3,7.6,7.4,13.9,9.5,21.6
			c0.7,2.5,2.2,4.8,3.3,7.2c2,4.3,4,8.7,6,13c1,2.2,1.8,4.5,3.2,6.4c3.3,4.4,4.7,9.5,5.8,14.6c1.1,5.1,2.7,9.9,5.2,14.4
			c2,3.5,4,7,6,10.5c0.3,0.6,0.6,1.2,1.1,2.3c-1-0.2-1.6-0.2-2-0.4c-3.8-2.2-7.7-4.2-11.5-6.6c-4.9-3.1-9.7-6.4-14.5-9.7
			c-0.7-0.4-1.2-1-1.8-1.6c-0.9-0.9-1.9-1.4-3.7-1.5c2.9,7.1,8.1,12,13,17.6c-1.8,0.5-2.6-0.5-3.3-1.2c-3.7-3.2-7.3-6.4-10.8-9.7
			c-2.5-2.3-5-4.7-7.6-7c-1.9-1.8-2.7-3.7-2.2-6.6c1-6.1,1.4-12.3,0.3-18.5c-0.2-1.2,0-2.4,0-4c1.7,0.9,2,2.3,2.6,3.4
			c0.6,1.1,0.8,2.4,1.5,3.4c0.9,1.2,2,2.7,3.3,3.2c2.7,1.1,4.8,2.9,7.1,4.6c0.8,0.6,1.4,1.9,2.6,0.7c0.9-0.9,0.5-1.9-1-3.3
			c-2.6-2.4-5.4-4.7-7.4-7.5c-2.8-3.9-5.4-8.1-7.5-12.4c-2.8-5.9-5.2-12-7.6-18c-1.5-3.7-3-7.4-4.4-11.1c-0.5-1.2-0.8-2.6-0.9-3.9
			c-1.1-9-3.1-17.9-4.8-26.8c-0.3-1.7-0.1-3.5-0.4-5.2c-0.8-3.5-1.5-7.1-2.6-10.5c-3-9.3-6.3-18.6-9.4-27.9
			c-2.4-7.2-3.6-14.6-3.6-22.1c0-4.8-0.3-9.5-0.4-14.3C158.5,245.1,158.3,245.1,158,245.1z"/>
		<path class="st0" d="M164.3,211.9c-5.4,0-10.9,0.2-16.2-1c-1.8-0.4-2.8-2.1-2.3-4.7c0.8-3.8-1-6-3.6-8.1c-1.5-1.2-1.6-1.6-0.6-4.2
			c1.5,1.1,3,2.1,4.7,3.3c0-0.7,0.2-1.3,0-1.6c-0.7-1.1-1.4-2.3-2.3-3.2c-1.8-1.9-3.8-3.8-5.6-5.7c-0.7-0.8-1.5-1.6-1.9-2.5
			c-0.3-0.6-0.5-1.6-0.1-2.2c1.6-2.9,3.4-5.7,5.2-8.7c4.6,3.6,9.6,4.3,15.1,3c-0.4-1.2-1.2-1.2-1.9-1.4c-2.9-0.5-5.7-1.3-8.2-2.9
			c-2.6-1.7-2.8-2.3-2-5.3c0.3-1.2,0.4-2.4,0.7-3.6c0.4-1.6,1-1.9,2.9-1.8c2-4,0.7-8.1,0.2-12.1c-0.2-2.1-0.8-4.2-1.2-6.3
			c-0.5-3.2,0.8-6.3,3.4-8.4c0.1,1,0.2,1.9,0.4,2.8c0.2,0.9,0.5,1.7,0.9,2.7c6.4-1.9,13-3.2,19.6-4.1c6.4-0.8,12.8-1.3,19.2-2
			c1.8-0.2,3.5-0.4,5.3-0.6c11.3-1.8,22.7-3.5,34.2-3.1c3,0.1,5.9,0.5,8.9,0.6c2,0,4.1-0.3,6.1-0.4c0.3,0,0.7,0.1,1.3,0.3
			c-0.4,0.5-0.6,1.1-0.9,1.2c-1.1,0.3-2.3,0.4-3.4,0.6c-3.3,0.7-6.6,1.2-9.8,2.1c-5.7,1.7-11.2,3.8-16.9,5.6c-2,0.6-4.1,1.1-6.2,1.4
			c-3,0.5-5.2,1.9-6.7,4.6c-3,5.3-4.5,10.8-3.9,17c1.4,12,2.7,24.1,3.6,36.1c0.5,7.2,2.3,14.1,4.3,21c1.1,3.8,2.9,7.4,4.3,11.1
			c0.8,2.2,2.4,3.4,4.6,4.1c3.5,1.2,7.1,1.5,10.7,1.4c5-0.2,10-0.9,15-1.3c1.8-0.1,3.5-0.2,5.3-0.2c7,0.1,13.9,0.3,21.5,0.5
			c-0.9,0.5-1.4,0.8-1.8,0.9c-7.7,1.4-15.4,3-23.2,4.1c-4.4,0.6-8.8,0.8-13.2,0.7c-9.4-0.1-18.7-0.3-28.1-0.6
			c-13.4-0.4-25.9-3.9-38.1-9.4c-4.2-1.9-7.7-4.7-11.2-7.5c-1.4-1.2-2.3-2.6-2.5-4.5c-0.2-1.4-0.9-2.7-1.3-4
			c-0.2-0.6-0.2-1.1-0.4-1.7c1.6-0.7,2.9-0.4,4.3,0c4.5,1.3,9,2.6,13.5,4c2.5,0.8,4.9,1.7,7.6,2.6c-0.5,0.4-0.7,0.8-1.1,0.9
			c-4.1,1.1-8.3,1.6-12.5,0.3c-0.5-0.2-1.1-0.3-1.6-0.1c-0.6,0.2-1.1,0.7-1.6,1.1c0.3,0.5,0.6,1.1,1,1.4c1.3,0.7,2.7,1.3,4.1,1.9
			c7.3,3.6,14.7,6.9,22.4,9.5c2.5,0.9,5.1,1.4,7.8,1.4c2.7,0,5.3,0,8,0.1c2.6,0.1,5.1,0.4,7.7,0.5c0.7,0,1.4,0,1.9,0
			c0.6-1.2,0-1.8-0.6-2.3c-3-2.9-5.1-6.4-6.5-10.2c-0.6-1.6-0.9-3.2-1.1-4.9c-0.6-4.7-1.1-9.5-1.6-14.2c-0.7-6.8-1.4-13.5-2.2-20.3
			c-0.5-4.4-1.3-8.7-1.8-13.1c-0.8-6.6-0.9-13.2,0.2-19.8c0.9-5.5,4.3-9.1,8.9-11.8c0.9-0.5,1.9-0.9,2.8-1.4c1.6-0.8,2.9-1.9,5-1.7
			c1.6,0.2,3.4-0.9,5.1-1.3c2.4-0.6,4.8-1,7.2-1.5c1.2-0.3,2.4-0.7,3.6-1.1c0-0.2,0-0.4-0.1-0.7c-1.4-0.2-2.7-0.5-4.1-0.5
			c-2.9,0-5.9,0.1-8.7,0.5c-15.6,2-31,5-46.4,8.5c-4.4,1-8.7,2.2-13.1,3.4c-0.8,0.2-1.5,0.7-2.2,1.1c0.7,1.6,1.8,2.1,3,2.5
			c4,1.2,7.9,2.4,11.9,3.5c1.2,0.3,2.3,0.6,3.5,1.1c-6.6,2.9-13.4,4.8-20.7,7c1,0.8,1.4,1.3,1.9,1.6c3.5,1.9,7.3,3.2,11.2,4.1
			c0.6,0.1,1.3,0.4,1.9,0.6c0,0.2,0,0.4,0,0.6c-0.9,0.1-1.8,0.3-2.7,0.4c-4.2,0.4-8.4,0.7-12.7,1c-0.8,0.1-1.6,0.5-2.9,0.9
			c4.4,3.2,8.9,4.3,13.4,5.2c4.6,0.9,9.2,1.4,14.1,2.1c-0.5,0.6-1,1.2-1.5,1.7c-3,2.7-5.9,5.3-8.9,7.9c-2.7,2.3-5.8,3.3-9.3,3.3
			c-0.5,0-1.1-0.1-1.6,0.1c-0.6,0.2-1.3,0.6-1.5,1.1c-0.3,0.9-0.1,1.8,1,2.2c0.2,0.1,0.5,0.2,0.7,0.3c3.7,1.1,7.4,2.2,11.1,3.3
			c3.5,1,6.9,2,10.6,3.1c-0.5,0.4-0.9,0.8-1.4,0.9c-5.4,1.3-10.8,2.7-16.2,3.8c-1.9,0.4-4-0.1-6.1-0.2c-1.1-0.1-2.1-0.3-3.2-0.3
			c-1.4,0-1.9,1.1-1,2.1c0.7,0.7,1.7,1.4,2.6,1.6c3.8,1,7.7,1.8,11.6,2.7c0.5,0.1,0.9,0.5,1.4,0.7
			C164.4,211.4,164.4,211.6,164.3,211.9z"/>
		<path class="st0" d="M141.7,221.2c0.1,2.6,0.3,5,0.3,7.3c0,1-0.1,1.9-0.1,2.9c0,0.6-0.1,1.2,0,1.8c0.4,2.2,1,4.5,1.4,6.7
			c0.2,0.8,0.6,1.4,1.4,1.2c0.4-0.1,1-0.8,1.1-1.2c0.3-2.3,0.6-4.6,0.6-6.8c0-1.4-0.6-2.9-0.9-4.3c-0.1-0.4-0.5-0.8-0.5-1.2
			c0-0.5,0.2-1.1,0.6-1.3c0.3-0.2,1.2-0.1,1.4,0.1c1.7,1.9,3.9,3.5,4.5,6.1c0.7,3.6,1.2,7.3,1.7,11c0.2,1.2-0.6,2.1-1.6,2.5
			c-1.8,0.6-2.4,1.8-2.6,3.5c-0.5,3.3-1.5,6.6-1.7,9.9c-0.3,3.7,0.1,7.3,2.6,10.5c1.8,2.3,3.5,4.9,3.6,8.1c0,0.3,0.1,0.7,0.2,1
			c0,0.1,0.2,0.3,0.4,0.5c2-0.4,1.1-2.8,2.3-3.7c0.1,0,0.4,0,0.4,0.1c1.1,4,2.7,7.8,3,12c0.2,3.2,0.9,6.5,1.3,9.7
			c0.3,2.4,0.5,4.7,0.8,7.1c0.1,1,0.4,1.9,0.7,2.8c1,2.6,3.3,2.9,5.1,0.9c0.2-0.2,0.3-0.4,0.7-0.8c1.3,1.8,2.2,3.6,1.8,5.8
			c-0.3,1.5-0.6,3-1.2,4.3c-1.1,2.6-3.7,3.3-6.1,1.9c-3.7-2.2-6.2-5.2-7.3-9.3c-1.6-6.1-3.3-12.1-4.8-18.2c-0.6-2.2-0.7-4.5-1.2-6.8
			c-0.4-2.1-0.9-4.1-1.7-6.1c-2.5-6.4-4.1-13.1-5.1-19.9c-0.6-4.4-0.8-9-1.3-13.4c-0.2-1.9-0.5-3.8-0.8-5.8
			c-0.3-2.1-0.5-4.2-0.8-6.3c-0.1-0.7-0.1-1.4-0.3-2.1c-1.3-4.6-1.1-9.3-1-14c0-2,1.1-3.3,2.4-4.6c1.5-1.5,3.7-0.7,4.3,1.3
			c0.4,1.3,0.7,2.5,1.1,3.8c0.6,1.7,0,2.7-1.9,2.9C143.9,221.2,143.1,221.2,141.7,221.2z"/>
		<path class="st0" d="M239.8,164.8c0.5,0.8,0.9,1.6,1.5,2.4c1.5,2.2,3.3,2.7,5.7,1.4c0.6-0.3,1.2-0.7,1.8-1.2c2-1.7,2.2-3.3,0.7-5.6
			c-3.1-4.5-9.3-6.5-14.9-4.7c-3.5,1.1-6.3,3.1-7.8,6.7c-1.4,3.6-0.9,6.9,1.9,9.5c1.9,1.7,4,3.3,6.3,4.3c7.5,3.3,15.3,4.7,23.5,3.5
			c1.1-0.2,2.2-0.4,3.2-0.6c0.1,0.2,0.2,0.4,0.2,0.5c-0.8,0.4-1.5,1.1-2.4,1.3c-2.3,0.6-4.7,1.2-7,1.3c-6.9,0.2-13.8-0.6-20.2-3.5
			c-2.5-1.1-5.1-2.6-7.1-4.5c-5.7-5.1-6.2-12.6-1.3-18.5c5.1-6.1,16.4-9.1,23.8-4.1c2.5,1.7,4.7,3.8,6.1,6.5
			c2.1,4.1,1.2,7.9-2.7,10.3c-1.5,0.9-3.2,1.7-4.8,2C242.2,172.8,238.7,169.1,239.8,164.8z"/>
		<path class="st0" d="M289.4,192.1c-7.8-1.2-12-6.4-14.9-13.7c-0.9,1.2-1.5,1.9-1.9,2.7c-2.3,4-5.6,6.5-10,7.7c-2.6,0.7-5.2,1.7-7.8,2.5
			c-0.7,0.2-1.3,0.6-2,0.7c-0.6,0.1-1.5,0-1.9-0.3c-0.7-0.8,0-1.5,0.6-2c1.9-1.4,3.8-2.8,5.8-4.1c1.3-0.8,2.6-1.4,4-2.1
			c2.8-1.3,5-3.1,6.6-5.9c1.7-3.1,3.7-3.5,6.9-1.9c1.2,0.6,2.4,1.4,3.4,2.4c3.2,3.3,6.6,6.2,10.9,8.3c3.9,1.9,4.4,2.7,4.1,7.6
			c-0.1,1.4-0.5,2.8-0.9,4.1c-0.9,2.7-3,4-5.7,3.6c-3.9-0.6-7.8-1.4-11.7-2.2c-1.2-0.2-1.8-0.9-2.2-2.2c-0.6-2.2-1.2-4.4-0.9-6.8
			c0.1-0.8,0.2-1.6,0.5-2.3c0.5-1.4,1.6-2.1,2.8-2c1.2,0.1,2.2,1.1,2.3,2.5c0.2,2.1,0,4.2,0,6.5c0.3,0,0.9,0.1,1.4,0.1
			c2,0.1,4.1-0.2,6.1,0.2c2,0.4,3-0.2,3.8-1.8C288.9,193.3,289.1,192.9,289.4,192.1z"/>
		<path class="st0" d="M295.4,181.2c0.7-0.6,1.3-1.2,1.9-1.7c2-1.5,4.1-2.8,6-4.4c5.1-4.2,5.5-7.6,1.5-13c-3.8-5.2-8.5-6.9-14.9-5.4
			c-2.9,0.7-4.1,2.4-3.4,5.2c0.3,1.4,1,3,2,3.9c1.8,1.5,3.9,2.6,5.9,3.9c0.7,0.4,1.5,0.7,2.2,1c0,0.2-0.1,0.5-0.1,0.7
			c-0.9,0-1.8,0.2-2.7,0c-3.4-0.6-6.4-2.1-8.7-4.7c-1.5-1.7-2.4-3.7-2.7-5.9c-0.4-3.7,1-6.6,4.3-8.4c3.9-2.2,8-2.7,12.3-1.4
			c5.7,1.7,9.8,5.3,12.1,10.7c2,4.6,1.3,9-2.3,12.7c-3.2,3.3-7.2,5.4-11.4,7c-0.4,0.1-0.9,0.1-1.3,0.2
			C296.1,181.7,295.9,181.5,295.4,181.2z"/>
		<path class="st0" d="M211.3,178.7c-0.3-3.2-0.6-6.4-0.8-9.5c-0.2-2.1-0.6-4-2-5.6c-0.8-1-1.3-2.1-0.3-3.4c0.7-0.9,2.4-1.2,3.7-0.6
			c1.6,0.7,2.7,2,3.3,3.7c1.7,4.5,1.7,9-0.3,13.4c-0.3,0.5-0.6,1.1-0.9,1.8c1.5,0.2,2.7,0.4,4,0.6c2.3,0.4,4.4,1.3,6.1,2.9
			c2.3,2.3,2.7,5.4,0.6,7.9c-2.9,3.6-6.9,5.7-11.3,7.1c-0.5,0.2-1.1-0.1-2.3-0.3c0.9-1.1,1.5-1.8,2.1-2.4c1.6-1.4,3.2-2.8,4.8-4.2
			c0.6-0.5,1.1-1.2,1.5-1.8c1-1.5,0.8-2.2-0.8-2.9c-1-0.4-2.2-0.7-3.3-1c-1.7-0.4-3.4-0.8-5.1-1.3c-1.1-0.3-2.3-0.8-2.2-2.2
			c0.1-1.3,1.2-1.6,2.3-1.8C210.7,178.9,211,178.8,211.3,178.7z"/>
		<path class="st0" d="M213.6,203.1c0.5-0.9,0.8-1.9,1.4-2.6c2.8-3.3,6.3-5.6,10.5-6.8c7-2,16.8,4.4,15.4,14.2c-0.3,1.7-0.8,3.5-1.7,5
			c-1.9,3.5-4.5,6.5-7.5,9.2c-0.6,0.5-1.4,0.9-2.1,1.4c-0.2-0.1-0.3-0.2-0.5-0.4c0.2-0.5,0.2-1,0.5-1.5c1.3-1.9,2.6-3.8,3.9-5.7
			c0.6-1,1.2-2,1.7-3c2.1-4,1.5-7.7-1.5-11c-2.9-3.1-6.4-4-10.4-2.6c-2.3,0.8-4.4,2.2-6.6,3.3c-0.8,0.4-1.6,0.8-2.4,1.2
			C214.1,203.5,213.8,203.3,213.6,203.1z"/>
		<path class="st0" d="M305.5,203.2c1.5,1.6,2.6,2.7,4,4.2c-2.8,0.8-4.7-0.2-6.4-1.6c-1.5-1.2-2-3-1.4-4.8c0.7-2,1.6-4,2.7-5.7
			c1.6-2.3,3.5-4.5,5.4-6.6c3.1-3.5,7-5,11.7-4c2.4,0.5,4.7,1.3,7.1,2.1c0.9,0.3,2.3,0.8,1.8,2.2c-0.4,1.2-1.7,0.6-2.6,0.5
			c-2.1-0.1-4.2-0.4-6.3-0.5c-1.9-0.1-3.6,0.5-5.1,1.7c-0.5,0.4-1.2,0.8-1.6,1.3C311.7,195.8,308.7,199.4,305.5,203.2z"/>
		<path class="st0" d="M278.7,163.7c-0.4,6.7-2.5,8.8-9,8.9c-1.7,0-3.4-0.2-5-0.5c-2.3-0.5-3.9-1.9-4.1-4.3c-0.2-2.5,0-5.1,0.2-7.6
			c0.1-1.1,0.7-1.6,1.9-1.8c3.5-0.8,7-1.7,10.5-2.7c2.1-0.6,3.5-0.2,4.2,1.9C278,159.5,278.3,161.7,278.7,163.7z M262.4,160.2
			c0.3,1.9,0.6,3.7,0.9,5.5c0.2,1.1,0.9,1.7,2.1,1.6c1.9-0.2,3.9-0.3,5.8-0.6c0.5-0.1,1.2-0.7,1.2-1.1c0.2-2,0.7-3.9,0.2-6
			C269.2,159.8,265.9,160,262.4,160.2z"/>
		<path class="st0" d="M287.4,212.3c-3.5,0.2-6.9-0.9-10,1.2c0.5,3.8,4,5.4,5.6,8.6c-0.7-0.2-1.5-0.3-2.1-0.6c-2.4-1.4-4.4-3.2-6-5.6
			c-1.6-2.5-1.2-5,1.2-6.8c2.3-1.7,4.8-2.5,7.6-2.7c1.6-0.1,3.1-0.4,4.7-0.7c2.2-0.5,4.1,0.7,4.3,3c0.3,3.4,0.6,6.9,0.7,10.3
			c0.1,4.7-4.1,8.2-8.8,7.5c-0.1,0-0.2-0.2-0.5-0.7c0.8-0.4,1.5-0.8,2.2-1.1c3.6-1.7,4.2-3.2,3-7C288.6,216.1,288,214.3,287.4,212.3
			z"/>
		<path class="st0" d="M253.9,211.4c-2.7,3.2-3.1,7.8-6.3,10.8c-0.1,0.1-0.3,0-0.7-0.1c0-0.5-0.2-1.1-0.1-1.6c0.9-3.6,1.7-7.2,2.9-10.7
			c1.2-3.8,3.6-4.9,7.4-3.8c0.3,0.1,0.7,0.2,1,0.3c8.3,3,10.5,11.6,4.7,18.3c-0.3,0.4-0.7,0.8-1.2,1c-1,0.5-1.8,0-1.6-1.2
			c0.2-1.1,0.5-2.2,0.7-3.4c0.1-0.6,0.2-1.2,0.2-1.8C261,214.2,259.1,212,253.9,211.4z"/>
		<path class="st0" d="M320.2,198.7c-0.4-1.1-0.8-1.9-1-2.7c-0.3-0.9,0.3-1.6,1.2-1.5c0.6,0.1,1.2,0.3,1.7,0.7c1.6,1.1,2.5,2.7,2.7,4.7
			c0.3,2.7-1.3,4.7-4.1,4.8c-1.4,0-2.8-0.2-4.7-0.3c0.6,0.7,0.9,1.4,1.4,1.6c1.7,0.7,3.5,1.3,5.2,1.8c1.2,0.3,2.4,0.3,3.7,0.6
			c0.6,0.1,1.1,0.5,2.1,1c-0.9,0.5-1.3,0.9-1.7,1c-3.4,0.6-6.9,0.7-10.2-0.3c-2.5-0.7-4.4-2.2-5.6-4.5c-2-3.8,0.2-7.3,4.4-7.2
			C316.8,198.2,318.4,198.5,320.2,198.7z"/>
		<path class="st0" d="M330,156.1c-0.2,0.9-0.4,1.7-0.5,2.5c-0.4,2.8-0.7,5.6-1,8.4c-0.2,2.2,0.4,4.2,1.9,5.9c0.9,1,1.6,2.1,2.3,3.2
			c0.8,1.4,0.2,2.6-1.4,2.5c-1.2,0-2.5-0.3-3.5-0.9c-4-2.3-5.5-6.1-5.1-10.5c0.3-4,1.9-7.7,4.3-10.9c0.3-0.4,0.5-0.8,0.9-1
			c0.5-0.2,1.1-0.5,1.6-0.4C329.7,155,329.8,155.7,330,156.1z"/>
		<path class="st0" d="M250.6,193.9c3.7,1.1,7.5,1.6,11.4,1.2c2.3-0.2,2.8-0.8,3.3-3c0.3-1.2,0.5-2.3,0.7-3.4c1.4-0.3,1.7,0.4,2.1,1.2
			c2.1,4.6-0.3,9.7-5.2,10.7c-3.7,0.7-7.4,0.4-11-0.4C249.2,199.6,247.7,196.2,250.6,193.9z"/>
		<path class="st0" d="M307.1,145.6c2.2-5.1,5.2-6.6,9.7-5.6c3.8,0.9,7.6,1.6,11.4,2.3c0.6,0.1,1.2,0.2,1.8,0.5c1,0.6,1.1,1.7,0.1,2.3
			c-0.6,0.4-1.3,0.6-1.9,0.8c-3.6,0.8-7.3,1.2-11,0.2c-2.4-0.7-4.6-0.8-7-0.3C309.2,146,308.2,145.7,307.1,145.6z"/>
		<path class="st0" d="M334.6,207.3c-0.3,1.9-0.6,4.2-1.2,6.4c-0.6,2.8-2.2,5-4.5,6.7c-0.7,0.5-1.5,1-2.3,1.3c-1.7,0.7-3.2,0.5-3.9-0.5
			c-0.7-0.9-0.4-2.3,0.9-3.8c0.1-0.1,0.2-0.3,0.4-0.4c3.9-2.6,5-6.9,6.5-11c0.4-1,0.6-2.1,1.1-3c0.2-0.5,0.9-1,1.4-1
			c0.5,0,1.1,0.7,1.2,1.2C334.4,204.4,334.4,205.7,334.6,207.3z"/>
		<path class="st0" d="M216.2,150.8c-1.4-0.4-2.9,0-3.5-1.6c-0.5-1.1,0.2-2,2.2-3.1c3.3-1.8,6.9-2.6,10.5-3.3c0.3-0.1,0.5-0.1,0.8-0.1
			c1.7,0,3.3,1,3.6,2.2c0.2,1.1-0.6,2.6-2.4,3.1C223.7,149,219.9,149.8,216.2,150.8z"/>
		<path class="st0" d="M223.2,215.2c-1.5-0.4-2.6-0.5-3.6-0.9c-1.1-0.4-1.8-1.1-1.7-2.4c0.1-1.1,0.8-1.7,1.8-2.1c0.6-0.2,1.2-0.3,1.8-0.5
			c2.3-0.7,4.6-1.2,6.8-2.1c2-0.9,3.7,0.5,3.3,2.8c-0.2,1.4-1.1,2.5-2.3,3C227.2,214,225,214.6,223.2,215.2z"/>
	</g>
</g>
</svg>
