<?xml version="1.0" encoding="utf-8"?>
<!-- Generator: Adobe Illustrator 18.1.1, SVG Export Plug-In . SVG Version: 6.00 Build 0)  -->
<svg version="1.1" id="图层_1" xmlns="http://www.w3.org/2000/svg" xmlns:xlink="http://www.w3.org/1999/xlink" x="0px" y="0px"
	 viewBox="0 0 560 560" enable-background="new 0 0 560 560" xml:space="preserve">
	 <style type="text/css">
	.st0{fill:#FFFFFF;}
</style>
<g>
	<g>
		<path class="st0" d="M411.1,318.2c-0.7,4.1-1,8.1-1.4,12.1c-1.1,13-2.5,26-4.7,38.9c-0.8,4.3-2.3,8.4-3.2,12.8c-2.3,12.3-6,24.1-12.4,35
			c-0.6,1-1.2,2-1.2,3.4c1.2-0.2,1.6-1.1,2.1-1.8c6.2-8.2,10.6-17.4,12.9-27.4c0.6-2.6,1.9-4.2,4.5-5c2.4-0.7,4.7-1.6,7.1-2
			c1.1-0.2,2.2-0.3,3.4-0.1c0.5,2.2-0.5,3.9-1.5,5.6c-2.4,4-4,8.3-4.9,12.8c-0.5,2.6-0.8,5.2-0.7,7.8c0,1.3-0.5,2-1.9,2.3
			c-6.7,1.5-13.1,3.9-18.9,7.7c-9.7,6.5-14.8,15.8-16.5,27.2c-0.4,2.7-0.5,5.5-0.5,8.2c0,0.7,0.1,1.4-0.4,2.3
			c-23-6.6-40.9,1.5-55.1,20.1c-1.3-1.5-2.5-2.8-3.7-4.1c-7.5-7.9-16.3-13.6-27.1-15.7c-13.6-2.7-25.6,0.9-36.4,9.3
			c-3.7,2.9-7,6.4-9.9,10.2c-0.4,0.5-0.7,1.1-1.3,1.4c-0.7-0.2-0.8-0.9-1.1-1.4c-8.2-14.7-20.9-21.7-37.5-22.1
			c-3-0.1-5.9,0.1-8.6,0.3c-0.7-0.4-0.7-0.9-0.7-1.3c-0.3-7.8-3.8-14.2-8.5-20.2c-0.9-1.2-1.1-2.2-0.9-3.7c0.6-3.6,0.9-7.3,1.4-10.9
			c0.2-1.5,0.5-3.1,1.4-4.6c0.8,1.1,0.7,2.5,2.1,3.2c1.5-1,1.6-2.5,1.6-4.1c0.1-6.4-0.6-12.7-1-19.1c-0.1-1.6-0.1-3.1-0.3-4.7
			c-0.4-3.5-1.3-6.8-3.4-9.7c-5.8-8.1-8.2-17.3-9.3-27c-1.3-12.1-2.6-24.2-3.9-36.3c-0.1-0.9-0.1-1.9-0.6-2.8
			c-0.8,0.5-0.6,1.2-0.8,1.8c-1.6,4.9-6.2,6.9-10.8,4.6c-3.3-1.6-5.6-4.3-7.2-7.5c-2.1-4-2.6-8.5-3.3-12.9c-0.9-5.4-1.7-10.9-3-16.3
			c-0.6-2.7-1.6-5.3-3.2-7.6c-5.2-7.3-7.5-15.4-7.5-24.3c0-3.9-0.8-7.8-0.3-11.6c0.7-5,0.4-9.9-0.3-14.8c-0.4-2.5-0.6-5-0.9-7.6
			c-0.1-1.3-0.1-2.5,0-3.8c0.2-3,1.6-5.3,4.2-7c4-2.7,4.5-6.3,1.2-10c-2.1-2.4-2.8-5-1.5-8c0.5-1.1,0.2-1.7-0.7-2.3
			c-1.6-1.3-3.3-2.5-4.6-4.1c-2.5-2.9-2.8-5.4-0.9-8.8c1.1-2,2.6-3.7,4.1-5.4c2.1-2.3,3.5-4.9,3.7-8.1c0.1-3.1,1.9-5.3,4.4-6.8
			c1-0.6,1.2-1.3,1-2.4c-1-4.3-1.9-8.7-2.7-13.1c-1-5.2,0.7-9.3,5.2-12c2.2-1.3,3.2-3,3.6-5.5c1.9-10.7,5.4-20.9,10.7-30.5
			c6.2-11.2,13-22,21.1-32c10.8-13.2,24-23.1,39.4-30.1c15.9-7.2,32.4-12.4,49.6-14.9c12.3-1.7,24.6-1.1,36.8,0.9
			c16.4,2.7,32,7.5,46.9,15c15.6,7.9,27.8,19.3,37.6,33.8c10,14.8,17.5,30.7,23.3,47.4c1.4,3.9,0.4,3.3,4.6,3.4c0.8,0,1.6,0,2.3,0.1
			c3.3,0.3,4.6,1.5,4.8,4.8c0.3,5.8-0.1,11.5-2.3,16.9c-0.4,1.1-0.9,2.1-0.9,3.2c-0.3,3.8,1.2,6.6,4.5,8.4c2.9,1.6,5.7,3.4,8,5.9
			c1.9,2.1,3.4,4.5,4.3,7.2c1.2,3.5,0.5,6.7-1.8,9.5c-1.2,1.5-2.7,2.7-4.3,3.8c-2,1.4-3.4,3.4-4.1,5.8c-0.4,1.2-0.6,2.4,1.2,3.1
			c-2,2.7-3.4,5.4-0.3,8.2c2.6-1.5,5.5-2,8.5-2c3.8-0.1,6.3,1.7,7.3,5.4c0.9,3,0.7,6,0.4,9.1c-0.4,4.7-0.9,9.4-1.5,14.1
			c-0.6,5,0.5,9.9,1.3,14.7c1.3,7.9,1.7,15.9-0.2,23.8c-1.1,4.6-2.9,8.9-5.9,12.6c-2.4,3-3.2,6.4-3.5,10.2c-0.8,8.2-1.4,16.3-3,24.4
			c-0.5,2.4-1.3,4.8-2.4,7c-3.4,6.6-9.1,9.5-16.5,8.3C414.5,319,413,318.6,411.1,318.2z M426.9,266.2c-1.6,3-2.2,6-2.1,9.1
			c0.1,2.9,0.7,5.7,1.5,8.5c1,3.6,0.7,7.1-0.7,10.6c-1.8,4.2-3.5,8.5-5.3,12.7c-1.1,2.7-3.5,3-5.4,0.8c-2.3-2.5-2.5-5.1-0.3-7.8
			c2.3-2.8,4-5.8,4.7-9.4c0.7-3.7,1-7.4,1-11.2c0-0.9-0.2-1.7-0.7-2.4c-1.5-2.5-1.2-4.9,0.3-7.2c1-1.5,2.2-2.8,3.2-4.2
			c1-1.4,2.2-2.2,3.9-0.7c1.5-5.6,2-10.8-0.4-15.9c-2.2-4.7-2.5-9.5-1.1-14.5c1.2-4.4,1.8-8.7-0.4-13c-0.7-1.4,0.2-2.8,1.8-3.1
			c1.4-0.3,2.7,0.3,2.7,1.9c0,2.5,0.7,4.7,1.8,6.8c0.4,0.8,0.4,1.8,0.5,2.7c0.2,3.6,1.4,6.9,3,10.1c0.2,0.5,0.4,1.1,1.1,1.2
			c1-0.4,1.1-1.4,1.4-2.2c1.8-5.7,1.4-11.5,0.5-17.2c-0.1-1-0.8-1.6-1.6-2.1c-2.7-1.7-4.2-4.2-4.5-7.3c-0.4-4.5,0.8-8.4,4.1-11.6
			c2-1.9,4.5-1.3,5.2,1.1c0.2,0.7,0.2,1.4,0.2,2.1c0.1,3.9-0.2,7.8-0.6,11.6c-0.3,2.1,0.1,4,2.2,5.7c-0.1-1.5-0.1-2.7-0.2-3.8
			c-0.2-5.6,0.7-11.1,1-16.7c0.1-1.9,0-3.7-0.7-5.4c-1.2-3.3-4.7-4.1-7.3-1.9c-2.2,1.9-3.6,4.1-4.1,7c-0.3,1.8-1,3.4-2.1,4.8
			c-2,2.5-4.4,4.5-7.2,5.7c-6.9,3-13.5,6.5-20.4,9.4c-6.8,2.8-13.7,5.3-20.7,7.7c-3.2,1.1-3.9,2.4-3.7,5.8c0.1,0.9,0.2,1.8,0.2,2.7
			c0.1,2.9-0.7,3.7-3.7,3.3c-1.6-0.3-3.2-0.7-4.8-1.1c-4.9-1.3-9.4-0.8-13.5,2.3c-2.3,1.7-4.6,3.3-6.9,5c-5,3.7-9.5,8-12.6,13.5
			c-1,1.7-1.4,3.4-0.1,5.1c1.4,1.9,3,2.8,5.4,2.3c5.7-1.3,11.4-2.6,17.1-4.2c6.9-2,13.5-4.6,20.3-7c0.9-0.3,1.9-0.8,3.1-0.4
			c-1.3,2.1-3,3.5-4.9,4.6c-2.8,1.5-5.7,2.9-8.5,4.3c-8.1,4.1-16.8,6.4-25.2,9.4c-0.7,0.3-1.5,0.3-2,1c4,4.3,8.8,5,13.7,2.2
			c1.8-1,3.5-2.1,5.4-3c2.2-1.1,4.4-2.1,6.8-2.5c-1.6,2.7-3.6,5.2-5.2,7.8c-2.1,3.5-5.4,5.3-9.5,5.4c-1.9,0.1-3.8-0.3-5.7-0.3
			c-7.7-0.2-14.8,1-18.5,9c-0.2,0.4-0.4,0.7-0.7,1.1c-0.5,0.6-0.7,1.4-1.7,1.6c-0.3-0.2-0.6-0.4-0.9-0.6c-9-6.7-18.1-13.4-27.3-19.8
			c-1.3-0.9-2.6-2-3.7-3.2c-3.1-3.1-3.4-6.9-3-11c0.5-4.9,1.8-9.7,2-14.7c0.1-2.8-0.5-3.3-3.3-3.1c-6.9,0.5-13.7,0.4-20.6-0.1
			c-1-0.1-2.1-0.3-3.1,0.6c0.6,1.9,1.6,3.7,2.4,5.6c1.9,4.5,5.1,7.4,9.8,8.6c1,0.2,2,0.5,2.2,1.7c0.2,1.3-0.8,1.8-1.7,2.4
			c-3,1.8-4.8,4.5-5.7,7.8c-0.4,1.7-0.6,3.5-0.7,5.2c-0.6,6.8-0.8,13.5-1.5,20.3c-1.2,11.5-4.2,22.7-4.5,34.3c0,1.7-0.4,3.3-2.6,3.5
			c-0.4,0-0.7,0.4-1.1,0.6c-4.4,3.5-6.1,11.1-3.7,16.1c0.8,1.7,2,2.9,4,3.2c7,1,13.7,2.8,20.4,4.7c2,0.6,3.9,0.2,5.7-1
			c2.6-1.8,5.2-3.6,7.6-5.7c3.6-3.3,7.9-4.1,12.7-3.1c0.8,0.2,1.5,0.5,1.5,1.5c0,0.9-0.7,1.2-1.4,1.3c-3.6,0.3-6.1,2.4-8.2,5.1
			c-1.9,2.6-4.2,4.8-6.7,6.8c-2,1.6-4,3.1-5.9,4.8c-4.6,4.1-5.5,9.3-2.7,14.8c0.4,0.8,0.9,1.6,1.3,2.4c0.7,1.5,1.9,2.1,3.5,2.3
			c6.3,0.9,12.6,1.2,19,0.5c7-0.8,14.1-0.7,21.2-0.5c3.2,0.1,5.8-0.9,7.7-3.7c0.1-0.2,0.2-0.3,0.4-0.5c0.4-0.5,0.8-1.1,1.6-0.9
			c0.8,0.2,0.9,0.9,0.9,1.5c0,1.6,0.6,3,1.1,4.5c0.6,2,1.3,4.1,1.8,6.1c0.4,1.5,0.6,3-0.1,4.5c-2.2-0.1-2.6-0.4-3.7-2.6
			c-1.3-2.6-3-4.6-6-5.1c-5.9-1-11.8-1.5-17.7-1.1c-9,0.5-18,1.7-27,2.5c-2.8,0.2-5.7,0.4-8.5,0.7c-3.4,0.5-4.8,2.2-4.5,5.5
			c0.6,7.6,4.5,13,11.4,16c4.9,2.1,9.9,2,15,1.1c5.5-0.9,10.6-2.9,15.7-5.1c1.3-0.6,2.6-1.4,4.2-1.2c0.7,3-2.7,3.3-3.3,5.4
			c0.2,0.2,0.4,0.4,0.6,0.5c0.3,0.2,0.4,0.4,0.4,0.2c-2.5,7.6-7.7,10.8-15,11.1c-2.8,0.1-5.6,1-8.2,2c-3.1,1.2-5.9,2.8-8.3,5.1
			c0.6,1,1.4,1.5,2.2,2c3.7,2.3,7.5,4.5,11.6,6.2c7.8,3.2,15.9,4.5,24.3,2.8c8.7-1.8,16.4-6,24-10.5c1.4-0.8,2.3-2,3.2-3.3
			c1.9-2.6,4-5,6.8-6.6c1.9-1.1,2.9-2.6,3.4-4.6c0.8-3.7,2.4-7.1,4.6-10.2c4.1-5.6,8.2-11.2,9.7-18.2c0.2-0.8,0.7-1.4,1.9-0.9
			c-1.6,15.2-4.5,30.3-7.6,45.7c1.6-0.6,2.4-1.5,3.1-2.5c9-13.4,15.7-28,19.5-43.7c3-12.4,5.2-25.1,6.9-37.7
			c1.4-10.4,3.1-20.8,3.8-31.4c0.6-8.1,0.3-16.3,1.6-24.3c0.2-1,0.1-1.9-0.8-2.7c-1.1-0.9-0.9-2.1-0.4-3.3c3.5-8.4,6.5-17,9.4-25.7
			c2.4-7.1,3.2-14.3,2-21.8c-1.3-7.9-1.8-15.9-2.1-23.9c0-1-0.4-2.2,0.7-3.2c0.9,0.8,0.8,1.8,0.9,2.6c1.2,7,2.1,14.1,3.7,21.1
			c0.9,4.1,1.4,8.2,1.2,12.4c-0.3,7.6-2.5,14.7-5.9,21.5c-1.6,3.2-3.3,6.5-3.6,10.1c-0.8,9.5-1.5,19-2.6,28.5
			c-0.3,2.1,0.2,2.6,2.1,3.3c6.3,2.3,13.8-0.7,15.9-7.1c2.6-7.7,4.7-15.6,3.9-23.9c-0.1-1.1,0-2.3,0.1-3.4c0.5-5,2.5-9.4,5.1-13.6
			c2.7-4.5,5-9.2,5.9-14.4c0.6-3.2,0.7-6.5,0.9-9.7c0.4-4.5,0.5-9,0-13.6c-0.1-0.8,0.1-1.9-1.2-2.2c-0.5,1.2-0.3,2.3-0.3,3.4
			c-0.1,4.7-1,9.2-4.9,12.4c-1,0.8-0.6,1.6-0.3,2.5c0.9,2.9,0.9,5.8,0.3,8.8c-0.6,2.7-1.6,5.1-2.9,7.5
			C433.5,266.2,431.1,267.3,426.9,266.2z M342.4,119.5c9.3,0.5,21.8,1.3,34.2,1.8c10,0.4,20.1,0.1,30.1-1.1c4.6-0.5,6.4-3.4,4.8-7.8
			c-6.5-18.2-14.6-35.6-25.3-51.7c-4.7-7.1-10.5-13.3-17.8-17.9c-17-10.6-35.6-17.4-54.8-22.9c-10.3-2.9-20.9-2.3-31.4-2.2
			c-1.7,0-3.4,0.1-5.1,0.3c-13.1,1.4-25.7,4.9-38.2,8.8c-5.4,1.7-10.2,4.5-13.9,8.9c-6.7,8-10,17.4-10.6,27.7
			c-0.6,12.3,1.2,24.4,5.3,36.1c0.3,1,1,2,0.6,3.1c-1.2,3.3-1.1,6.8-1.7,10.2c-0.4,2.5,0.5,4.4,2.4,5.9c5.2,4,10.8,5.9,17.4,4.1
			c4.9-1.3,9.9-1.5,14.9-1.4c6.1,0.1,12.1,0.4,18.1-0.9c6.9-1.5,14.1-1.2,21.1-1.4C308.3,118.6,323.8,118.7,342.4,119.5z
			 M425.8,189.8c-1.5,0.3-2.6,0.8-3.9,0.8c-4.3,0-8.6-0.2-12.9-1.1c-14.2-3-28.4-6.7-43-7.4c-0.7,0-1.5,0-2.1-0.8
			c0.7-0.6,1.4-0.5,2.1-0.5c11.6-0.6,23.2-1.1,34.7-1.7c9.7-0.5,19.1-2.4,28.2-5.7c7.9-2.8,10.3-10.6,5.5-17.4
			c-2.2-3.1-5.2-5.4-8.1-7.7c-4.2-3.4-6.3-7.8-4.8-13.3c1.2-4.5,1.7-9,2-13.6c0.4-5.4-0.2-4.3-4.3-5.5c-1.4-0.4-2.7-0.1-3.6,1.1
			c-2.8,3.6-6.7,5.2-11.1,5.9c-9.5,1.5-19.1,2.4-28.7,2c-17.2-0.6-34.3-1.7-51.5-2.5c-6.7-0.3-13.4-1-20.1-0.7c-1,0-2,0.1-3.1,0.7
			c0.8,0.7,1.5,0.7,2.2,0.7c8.6,1.1,17.2,2.7,25.7,4.6c6,1.3,9.8,4.8,11.8,10.4c1.3,3.5,2.1,7.2,2.8,10.9c0.4,2.3,0.6,4.7,1.3,7.1
			c5.6,0.5,11.1,0.8,16.6,0.8c17.1,0.2,34.2-1.1,51.3-1.7c0.7,0,1.5-0.2,2.2,0.2c-0.4,1.1-1.3,1.2-2.1,1.4c-1.4,0.4-2.7,0.7-4.1,1
			c-4.3,0.9-8.6,1.4-12.8,2.8c-14.3,4.9-28.6,4.4-42.8-0.5c-1.8-0.6-3.6-1.3-5.5-1.6c-2.6-0.4-2.7-0.2-2.5,2.3
			c0.7,8.8,1.4,17.6,1.2,26.5c-0.2,7.8-0.8,15.5-1.9,23.2c-0.7,4.7-2.9,8.5-7.5,10.2c-4.8,1.8-9.7,3.6-14.6,5
			c-11.4,3.2-23.1,4.8-34.9,5.5c-5.4,0.3-10.8,0.6-15.9,2.3c-6,2-12,3.8-18.1,5.3c-0.5,0.1-1,0.2-1.4,0.6c0.7,0.5,1.3,0.5,2,0.5
			c5.3,0.6,10.6,1.1,15.9,0.9c12.4-0.4,24.9-1.3,37.2-2.7c12.6-1.5,25-3.7,37.5-5.7c19.4-3.1,38.4-7.4,56.9-14.3
			c5.9-2.2,11.7-4.7,17-8.2c3.7-2.5,7.1-5.4,10-8.8c1.7-2,2-3.9,0.9-5.6C427.8,193.8,426.7,191.9,425.8,189.8z M228.7,269.3
			c-1.3-0.7-2.2-0.2-3,0c-2.4,0.6-4.8,1-7.3,1c-7.8,0.2-14.9-2.3-21.6-5.9c-4.6-2.4-8-6-9.8-11c-1.5-4.1-4-7.7-6.4-11.2
			c-1.8-2.5-4.1-4.5-7.1-5.5c-6-2-11.5-5-16.7-8.6c-0.4-0.3-0.7-0.7-1.4-0.5c-0.1,0.2-0.2,0.3-0.2,0.5c0.2,5-0.7,9.9-2.9,14.4
			c-0.3,0.5-0.3,1.1-0.2,1.7c0.9,4.5,0.5,9,0.1,13.5c-0.1,2.1-0.1,4.3,0.7,6.3c0.3,0.8,0.5,1.7,1.6,2.3c0.6-8.5,1.1-16.8,2.2-25
			c0.3,0,0.6,0,0.8,0c0,3.5-0.1,7.1,0,10.6c0.1,5,0,10,0.8,15c1.4,9.2,4.4,18,7.7,26.6c3.7,9.8,6.9,19.7,8.1,30.2
			c0.7,6.7,2.4,13.4,3.7,20c1.1,5.5,1.5,11.1,3.6,16.3c3.3,8.1,6.6,16.1,10.2,24c3.8,8.3,8.9,15.8,16,21.6c0.3,0.3,0.6,0.6,0.9,0.9
			c0.5,0.6,0.5,1.3,0,1.9c-0.6,0.7-1.2,0.6-1.9,0.2c-0.5-0.3-1.1-0.7-1.5-1.1c-1.7-1.7-3.5-3-5.8-3.7c-1.9-0.6-3.3-2.1-4.3-3.9
			c-0.7-1.2-1.1-2.6-1.7-3.9c-0.4-0.9-0.7-2-1.9-2.3c-0.6,1.7-0.7,1.9-0.5,3.6c0.8,6.1,0.9,12.1-0.2,18.2c-0.6,3.1,0.4,5.5,2.6,7.6
			c2.4,2.3,4.8,4.6,7.2,6.9c4,3.6,8,7.1,12.1,10.6c1.1,0.9,2.2,2,4.2,2.3c-1.1-1.3-2-2.3-2.9-3.3c-3-3.5-6.2-6.8-8.8-10.6
			c-1.1-1.6-2.1-3.3-2.2-5.4c10.7,7.2,21.4,14.3,33.1,19.9c-1.4-3.5-2.9-6.8-4.9-9.9c-4.2-6.3-6.8-13.3-8.1-20.8
			c-0.5-2.6-1.1-5.3-2.5-7.6c-6.4-10-10.6-21.1-15.6-31.7c-3.3-7-6.1-14.1-9.8-20.9c-5.5-10.3-8.3-21.4-11.5-32.5
			c-2.8-9.7-4.5-19.7-9-28.9c-3-6.2-4.1-13.2-5.8-19.9c-0.7-2.7-0.5-5.5,0.5-8.2c1.3-3.5,4.1-4.8,7.6-3.5c1.8,0.6,3.2,1.8,4.7,2.8
			c10.4,7.2,21.9,10.7,34.5,10.8C220.4,273.2,224.5,271.8,228.7,269.3z M146.7,210c-0.3,3.3,1.5,8.8,3.5,10.6
			c2.3,2.2,4.8,4.2,7.6,5.8c9.5,5.2,19.5,8.7,30.1,10.4c12.4,2,24.9,1.8,37.4,2c13.9,0.2,27.6-1.8,41.2-5c0.6-0.2,1.5-0.1,1.8-1
			c-0.6-0.7-1.4-0.5-2.1-0.5c-6.1,0-12.2,0-18.2,0c-2.7,0-5.4-0.1-8,0.3c-2.9,0.4-5.9,0.7-8.9,1c-4.9,0.4-9.8,0.3-14.6-0.8
			c-2.8-0.6-5.2-2.1-6.3-4.9c-2.4-6.3-4.9-12.5-6.5-19.1c-1.7-7.3-2.4-14.8-3.1-22.2c-1-9.8-2.2-19.7-2.7-29.6
			c-0.3-5.7,0.8-11.1,4-16c1.5-2.3,3.4-4.1,6.2-4.4c4-0.5,7.7-1.8,11.5-3c8.3-2.8,16.5-6.1,25.3-6.9c0.5,0,1.2,0,1.3-0.8
			c-0.2-0.5-0.7-0.4-1.1-0.5c-11.1-0.7-22.2-0.7-33.3,0.3c-9.7,0.8-19.3,2.6-29.1,3.5c-8.2,0.8-16.5,1.6-24.5,3.5
			c-2.7,0.6-5.3,1.4-8,2.1c-1-1.7-0.9-3.7-1.7-5.7c-2.9,3-3.8,6.3-3,10.2c0.4,2.3,1,4.6,1.4,6.9c0.5,3.4,0.8,6.7-0.5,10
			c-2.6,0.5-2.8,0.7-3.4,3.4c-0.2,0.8-0.3,1.7-0.5,2.5c-0.7,2.9-0.3,3.8,2.2,5.4c2.4,1.5,5.2,2.2,7.9,2.9c0.8,0.2,1.7,0.1,2,1.5
			c-5.6,1.4-10.6,0.5-15.3-3c-1.5,2.5-2.9,4.7-4.2,6.9c-2,3.3-1.9,3.9,0.8,6.6c2.2,2.3,4.5,4.5,6.7,6.8c1,1,1.8,2.1,1.3,3.8
			c-1.9-0.5-2.8-2.6-4.7-2.6c-0.9,2.1-0.9,2.6,1.2,4.1c2.7,2.1,3.9,4.6,3.4,8.1c-0.5,3.3,0.7,4.8,4,5.1c4.4,0.4,8.9,0.6,13.3,0.6
			c0.6,0,1.3,0.2,1.6-0.7c-0.4-0.8-1.3-0.7-2-0.9c-3.4-0.8-6.9-1.6-10.3-2.3c-0.9-0.2-1.8-0.4-2.6-0.9c-1-0.6-1.4-1.4-1-2.5
			c0.4-1,1.3-1,2.1-0.8c1.7,0.3,3.3,0.5,5,0.6c7.2,0.2,13.9-2.2,20.7-4.3c0.2-0.1,0.3-0.2,0.4-0.3c-0.2-0.7-0.7-0.7-1.1-0.8
			c-7.1-1.3-13.7-4.4-20.7-6.1c-1.2-0.3-2.1-1-1.9-2.4c0.2-1.4,1.3-1.3,2.3-1.3c4.3,0,8-1.4,11.4-4.1c3.4-2.7,6.4-5.9,9.6-8.9
			c0.1-0.1,0-0.3,0-0.5c-9.5-0.8-19-1.9-27.8-7.1c6-2.5,12.1-1.4,17.7-2.9c-2.4-1-4.9-1.8-7.3-2.7c-2.4-0.9-4.7-2-7.1-3.8
			c7.2-2.3,14.1-4.1,20.9-7.2c-1.1-0.8-2.1-0.9-3-1.1c-4.5-1.1-9-2.3-13.4-4c-0.9-0.3-1.8-0.7-1.8-1.8c0.1-1.2,1.1-1.3,2-1.5
			c9.2-2.5,18.5-4.7,27.9-6.5c12.7-2.5,25.4-4.9,38.3-5.9c2.3-0.2,4.6-0.2,6.8,0.8c-0.1,0.4-0.4,0.5-0.6,0.6
			c-4.9,1.3-9.8,2.6-14.8,3.7c-4.3,1-8,3.1-11.5,5.7c-3,2.3-4.7,5.3-5.5,9.1c-1.2,6-1.2,12-0.6,17.9c1.4,12.2,2.9,24.3,4.1,36.5
			c0.5,4.9,1.2,9.7,1.8,14.5c0.8,6.1,3.5,11.3,7.6,15.8c0.5,0.6,1.3,1.1,0.9,2c-0.5,1-1.5,0.6-2.3,0.5c-2-0.3-3.9-0.4-5.9-0.4
			c-3,0-5.9,0-8.9,0c-5.7,0-10.9-2.1-16.1-4.1c-6.7-2.5-12.9-6-19.6-8.7c-0.9-0.3-1.6-0.8-1.2-1.9c0.3-1,1.1-1.2,2.1-1.1
			c0.5,0.1,1,0.2,1.4,0.3c1.4,0.4,2.8,0.6,4.2,0.7c2.9,0.1,5.8-0.3,8.4-1.8C163.2,214.5,155.2,211.5,146.7,210z M154.9,273.6
			c-1,0.9-1,2-1.4,2.8c-0.3,0.5-0.6,1-1.3,0.9c-0.6-0.1-0.7-0.7-0.7-1.2c-0.4-3.3-1.9-6.1-3.8-8.7c-2.3-3.2-3-6.7-2.5-10.4
			c0.5-3.7,1.1-7.4,1.7-11.1c0.2-1.4,1-2.3,2.4-2.8c1.5-0.5,2-1.6,1.9-3.2c-0.2-1.7-0.2-3.4-0.5-5.1c-0.5-4.2-1.8-8-4.9-11
			c-0.6-0.6-1.2-1.6-2.3-0.8c-0.9,0.7-0.4,1.5,0,2.3c0.5,1,0.8,1.9,1,3c0.4,2.9-0.3,5.8-0.6,8.6c-0.1,0.7-0.4,1.2-1.2,1.3
			c-0.9,0.1-1.3-0.5-1.4-1.2c-0.2-0.9-0.5-1.8-0.6-2.7c-0.8-4.3-0.9-8.7-0.9-13.1c0-3.2-0.1-3.2,3.1-3.7c1.9-0.3,2.2-0.9,1.7-2.7
			c-0.3-1.2-0.7-2.4-1-3.7c-0.6-2.3-2.7-3-4.5-1.5c-1.3,1-1.9,2.4-2.2,4c-0.5,2.8-0.5,5.6-0.1,8.4c1.2,9.5,2.9,18.9,3.7,28.4
			c0.7,8.2,2.5,16,5.1,23.8c0.8,2.4,1.4,4.9,2,7.4c2,9.1,4.2,18.2,6.7,27.2c1.2,4.3,3.8,7.3,7.6,9.4c1.8,1,3.4,0.8,4.7-0.4
			c2.8-2.6,3.1-8.6,0.7-11.7c-0.3,0-0.5,0.3-0.7,0.5c-2,2.2-4.5,1.7-5.5-1.2c-0.3-1-0.6-2-0.7-3.1c-0.7-5.9-1.4-11.8-2.2-17.7
			C157.5,281.1,156.2,277.4,154.9,273.6z M239.7,160.5c-0.1,0.3-0.2,0.5-0.2,0.7c0,4.1,3,6.9,7.1,6.4c7.5-0.8,10.9-7.9,6.7-14.1
			c-3.3-4.9-7.8-7.4-13.7-7.6c-4.5-0.2-8.5,1.1-12.2,3.5c-9.3,6.1-9.4,17.5-0.2,23.7c9.4,6.3,19.9,7.2,30.7,5.8
			c1.4-0.2,2.8-0.7,3.8-2c-0.6-0.3-1-0.1-1.4-0.1c-8,1.4-15.6,0.1-23.1-2.5c-3.3-1.1-6.3-2.9-8.7-5.4c-3.2-3.4-3.5-7.9-0.9-11.7
			c4.9-7.2,16.9-7.4,22-0.4c1.9,2.6,1.5,4.6-1.3,6.6c-2.8,2-5.1,1.7-6.9-1C240.9,161.9,240.9,160.9,239.7,160.5z M278,191.6
			c0.1-2.2,0.3-4.1,0.3-6c0-2.1-0.9-3.2-2.5-3.4c-1.6-0.1-2.6,0.8-3.1,2.8c-0.6,2.8-0.2,5.5,0.6,8.1c0.4,1.4,1.2,2.3,2.7,2.6
			c3.8,0.6,7.7,1.3,11.5,2c1.5,0.3,2.9-0.1,4.2-1.1c3.6-2.9,3.8-12.3-1.2-14.4c-2.8-1.2-5.2-3.2-7.5-5.2c-2.1-1.8-4.1-3.7-6.3-5.4
			c-3.3-2.5-5.9-1.9-8.1,1.6c-1.6,2.6-3.8,4.5-6.5,5.9c-2.1,1-4.2,2-6.2,3.3c-1.5,1-3,2.1-4.3,3.4c-0.4,0.4-0.8,0.9-0.4,1.5
			c0.4,0.7,1,0.8,1.6,0.6c0.5-0.1,1.1-0.3,1.6-0.5c2.9-1,5.7-2,8.7-2.8c4.5-1.2,8-3.8,10.4-7.8c0.5-0.8,0.8-1.8,2.3-2.1
			c2.8,6.7,7,12,14.7,13.3c-0.7,3-1.8,4-4,3.7C283.7,191.4,281,191.3,278,191.6z M297.1,177.1c0.7,0.7,1.3,0.4,1.9,0.2
			c4.6-1.7,8.8-4.1,12.2-7.8c1.8-2,2.7-4.3,2.7-6.9c-0.1-5.1-2.3-9.2-6.2-12.4c-6.5-5.2-13.6-5.9-20.1-1.9c-2.7,1.7-4,4.1-3.9,7.3
			c0.2,6.4,7.3,12.5,13.7,11.8c0.2,0,0.3-0.2,0.6-0.3c-0.2-1.1-1.2-1.1-1.9-1.4c-3.7-1.5-7-3.4-8.2-7.6c-0.7-2.4,0.1-4.2,2.4-5.2
			c0.8-0.4,1.7-0.6,2.6-0.7c6.6-1.1,11.4,1.4,15.1,7.7c2.2,3.8,1.9,6.6-1.2,9.8c-2.3,2.4-5.1,4.2-7.9,6
			C298.1,175.9,297.2,176.1,297.1,177.1z M213.6,174.2c0.4-0.9,0.7-1.6,1-2.4c1.9-4.5,1.7-9,0-13.4c-1-2.5-2.8-3.8-4.9-3.7
			c-1,0-1.8,0.4-2.3,1.3c-0.4,0.9-0.3,1.7,0.3,2.4c1.9,2.2,2.4,4.9,2.6,7.7c0.1,2.1,0.3,4.2,0.6,6.3c0.2,1.4,0.1,2.3-1.6,2.5
			c-0.9,0.1-1.6,0.7-1.6,1.7c0,0.9,0.5,1.6,1.4,2c0.5,0.2,1.1,0.4,1.6,0.5c2.3,0.6,4.7,1.1,7,1.8c2.7,0.8,3,1.9,1.1,4.1
			c-0.7,0.9-1.5,1.7-2.4,2.4c-1.3,1.1-2.6,2.2-3.9,3.3c-0.6,0.5-1.4,1-0.9,1.9c0.6,1.1,1.5,0.5,2.2,0.2c0.8-0.3,1.6-0.6,2.4-0.9
			c3.1-1.4,6-3.2,8.1-5.9c2.5-3.2,2-6.7-1.3-9c-1-0.8-2.2-1.2-3.4-1.6C217.8,174.7,215.8,174.6,213.6,174.2z M228.7,219.6
			c1,0.5,1.6,0,2.1-0.4c2.2-1.7,4.2-3.5,5.9-5.7c2.2-2.8,3.7-6,4.2-9.6c1.1-8.5-7.2-16.1-15.4-14.1c-4.6,1.1-8.3,3.8-11.3,7.4
			c-0.6,0.7-1.1,1.5-0.5,2.5c1.1,0.4,1.8-0.3,2.5-0.8c2.3-1.6,4.7-2.9,7.4-3.5c4.3-1,7.9,0.2,10.7,3.8c2.6,3.4,2.6,7,0.7,10.7
			c-1.2,2.2-2.5,4.3-3.9,6.3C230.3,217.3,229.5,218.4,228.7,219.6z M310.6,204c-0.3-1.5-1.4-1.9-2.1-2.6c-0.9-0.9-1.4-1.8-0.5-2.9
			c2.7-3.5,5.2-7.1,8.3-10.2c2.5-2.5,5.5-3.6,9.1-3c1.8,0.3,3.6,0.4,5.5,0.6c0.6,0.1,1.2,0,1.4-0.7c0.2-0.6-0.2-1.1-0.6-1.4
			c-0.7-0.5-1.4-1-2.2-1.3c-3.9-1.7-7.9-2.1-12-1.3c-1.4,0.3-2.7,0.9-3.8,1.8c-4.4,3.4-7.8,7.8-10.1,12.9c-0.9,2-1.3,4,0.3,5.8
			C305.6,203.5,307.8,204.6,310.6,204z M279.4,158.9c0-2.1-0.4-4.2-1.2-6.2c-0.8-1.9-2-2.5-3.9-1.8c-3.4,1.3-6.8,2.2-10.4,2.7
			c-1.5,0.2-2.5,1-2.7,2.6c-0.2,2.4-0.4,4.8,0,7.2c0.4,2.2,1.6,3.5,3.7,4.2c1.5,0.5,3,0.6,4.6,0.7
			C276.4,168.8,279.4,165.9,279.4,158.9z M283.9,218.3c0-0.6-0.5-0.9-0.8-1.2c-1.4-1.5-3-2.8-4.1-4.6c-1.3-2.3-1-3,1.6-3.7
			c2.4-0.6,4.8-0.2,7.2-0.1c0.8,0,0.9,0.7,1.1,1.3c0.5,1.5,1,3.1,1.5,4.6c1.1,3.4,0.4,5.1-2.9,6.7c-0.8,0.4-1.8,0.5-2.1,1.5
			c4.6,1.5,9.1-2.1,9.1-7.2c0-3.6-0.4-7.2-0.7-10.8c-0.2-2.1-1.8-3.3-3.9-2.8c-1.9,0.5-3.9,0.7-5.9,0.9c-2.8,0.3-5.4,1.2-7.5,3
			c-2,1.7-2.4,3.8-1,6.1c1.6,2.7,3.8,4.7,6.5,6.2C282.6,218.7,283.3,219.1,283.9,218.3z M247.4,219c1.6-0.9,2-2.3,2.7-3.5
			c1.1-2.1,2.1-4.3,3.2-6.5c0.5-1.1,1.3-1.5,2.6-1.1c4.2,1.2,6,3.8,5.6,8.2c-0.2,2-0.9,4-0.6,6c1.1,0.5,1.7,0,2.3-0.6
			c3.2-3.2,4.3-8.5,2.7-12.6c-1.7-4-6.2-6.9-10.8-7c-2,0-3.4,0.7-4.2,2.6c-1.5,3.3-2.7,6.7-3.2,10.3
			C247.3,216.1,246.9,217.4,247.4,219z M321.6,194.6c-0.7,0.6-1.5,0.2-2.2,0.1c-1.1-0.2-2.1-0.3-3.2-0.2c-3.7,0.2-5.6,3.4-4.2,6.8
			c0.7,1.7,1.9,3,3.5,3.9c3.7,2,7.8,2.5,11.9,1.7c0.8-0.1,1.7-0.2,2.2-1.5c-3.9-1.7-8.7-0.7-12-4.3c1.4-0.7,2.4,0,3.5,0.1
			c2.8,0.1,4.9-1.3,5.2-3.6c0.4-2.8-1.6-6.1-3.9-6.6c-0.6-0.1-1.1-0.1-1.6,0.3c-0.5,0.5-0.2,1.1,0,1.6
			C321.3,193.4,321.9,193.8,321.6,194.6z M324.4,162.7c0,4.1,1,7.3,3.7,9.7c1.1,1,2.4,1.7,4,1.9c0.9,0.1,1.9,0.2,2.5-0.6
			c0.7-0.9,0.1-1.8-0.4-2.5c-0.3-0.5-0.6-1-1-1.4c-2.8-2.8-3.3-6.3-2.8-10c0.3-2.6,0.7-5.2,1.3-7.7c0.2-0.7,0.2-1.5-0.6-1.8
			c-0.8-0.3-1.4,0.1-1.8,0.7C326.5,154.6,324.7,158.6,324.4,162.7z M259.6,197.4c0.7-0.1,2-0.1,3.2-0.3c5-0.9,7.5-4.7,6.3-9.7
			c-0.3-1-0.3-2.6-1.8-2.5c-1.4,0.1-1.1,1.6-1.2,2.5c-0.4,3-1.4,4-4.4,3.9c-3.3,0-6.7-0.1-9.9-1.1c-0.9-0.3-1.5,0-1.9,0.8
			c-1.3,2-0.5,4.4,2,5.2C254.3,197.1,256.7,197.3,259.6,197.4z M324.4,141.8c1.9-0.1,4.2-0.3,6.4-1c0.8-0.3,1.6-0.7,1.6-1.7
			c0-1.1-0.9-1.4-1.7-1.5c-4.5-0.6-8.9-1.6-13.3-2.7c-3.3-0.8-6.9,1.2-8.4,4.3c-0.5,1.1,0,1.6,1,1.8c0.5,0.1,1.1,0,1.7-0.1
			c2.6-0.6,5.2-0.3,7.7,0.5C320.9,141.8,322.4,142,324.4,141.8z M336.5,202.8c-0.1-0.9-0.2-1.7-0.3-2.6c-0.1-0.8-0.3-1.6-1.2-1.7
			c-1-0.1-1.4,0.6-1.6,1.4c-0.6,1.8-1.2,3.6-1.9,5.4c-1.2,3.2-2.7,6.2-5.5,8.4c-0.6,0.5-1.1,1.1-1.4,1.9c-0.8,2.1,0.2,3.5,2.5,3.3
			c1.5-0.1,2.7-0.8,3.8-1.7C335.6,213.4,336.3,208.2,336.5,202.8z M215.5,145.7c3.2-0.2,6.1-0.8,9.1-1.7c1.2-0.4,2.5-0.6,3.6-1.3
			c1-0.6,1.6-1.4,1.4-2.6c-0.2-1.2-1-2-2.2-2.3c-0.6-0.1-1.3-0.1-1.9,0c-2.9,0.5-5.7,1.2-8.4,2.2c-1.2,0.5-2.3,1.1-3.4,1.7
			c-0.9,0.5-1.6,1.2-1.3,2.4c0.3,1.2,1.2,1.5,2.2,1.5C214.9,145.7,215.3,145.7,215.5,145.7z M222.1,211.6c2.6-0.1,4.7-0.6,6.7-1.6
			c1.3-0.7,2.2-1.7,2.5-3.2c0.2-1,0.1-2-0.7-2.7c-0.8-0.7-1.7-0.5-2.6-0.1c-2.2,1.1-4.5,1.6-6.8,2.1c-0.5,0.1-1,0.2-1.4,0.3
			c-1.1,0.3-2.1,0.9-2.1,2.3c0,1.3,0.8,2.1,2,2.4C220.6,211.3,221.6,211.4,222.1,211.6z"/>
		<path class="st0" d="M236.2,513.1c0-5.6,0.1-10.8,1.4-15.9c2.3-9.3,7.2-17,14.2-23.4c2.3-2.1,4.7-4,7.2-5.9c2.8-2.1,5.8-3.4,9.3-3.8
			c4.4-0.5,8.7-1.1,13.1-1.1c6.2,0,11.9,1.5,17,5.1c5.4,3.8,10.6,7.8,14.9,12.8c11.7,13.5,12.5,35.6,1.8,49.9
			c-4.7,6.3-9.7,12.4-16.5,16.6c-4.8,2.9-9.9,5-15.5,5.3c-4.1,0.2-8.2-0.7-12.2-1.5c-9.1-1.9-17.4-5.5-24.3-11.9
			c-3.2-2.9-5.9-6.3-8.2-9.9c-1.2-1.9-1.7-4-1.9-6.2C236.1,519.7,236.3,516.2,236.2,513.1z"/>
		<path class="st0" d="M196.9,539.5c-20.2,0.3-38.7-22.9-37.6-43.1c0.6-9.9,4.3-18.2,11.5-24.9c3.4-3.1,6.9-6.1,11.2-7.9c2.5-1,5.1-1.6,7.8-2.1
			c7.5-1.3,15.1-1.9,22.6-0.4c9.4,1.9,16.4,7.6,22.2,15c0.8,1.1,1.6,2.2,2.4,3.2c1.3,1.7,1.3,3.3,0.1,5.1c-2.7,4-4.6,8.4-5.7,13.2
			c-1.7,7.5-1.2,15,0.2,22.5c0.2,0.8,0.3,1.7,0.5,2.5c0.4,1.9-0.1,3.5-1.3,4.9c-2.9,3.3-6.2,6-10.2,7.7
			C213.8,538.1,206.8,539.6,196.9,539.5z"/>
		<path class="st0" d="M354.5,538.8c-7.9,0.7-14.5-2.8-20.9-6.5c-1.8-1.1-3.4-2.5-5.2-3.6c-1.8-1.2-2.2-2.6-1.7-4.7c1.4-6,1.9-12,1.3-18.1
			c-0.7-7.2-2.7-14-6-20.4c-0.9-1.7-0.9-3,0-4.7c4.7-8.8,11.8-14.8,21-18.6c4.5-1.8,9.1-3.1,13.8-4c3.6-0.7,7.1-0.1,10.3,1.5
			c7.8,3.7,14.9,8.4,21.5,13.9c1.2,1,2.2,2.2,3,3.6c5.4,9.9,8.3,20.4,6.8,31.8c-0.9,6.7-4,12.3-9.2,16.6
			C378.9,533.8,367.6,538.6,354.5,538.8z"/>
		<path class="st0" d="M416,492.2c-4.4,0-9-0.5-13.6-1.9c-1.5-0.5-2.5-1.3-3-2.7c-4-11.1-11.6-19.4-21.3-25.9c-2-1.3-2.9-3-3-5.5
			c-0.2-7.4,1.7-14.1,5.6-20.3c4.7-7.3,10.6-13.2,18.1-17.6c8.2-4.7,16.6-5,25.2-1.2c9.8,4.4,17.6,11.2,23.5,20.1
			c0.6,0.9,1.2,1.9,1.5,3c1.6,6.4,2.8,12.9,2.4,19.5c-0.5,8.3-4.5,15-10.4,20.7c-4.9,4.8-10.8,7.9-17,10.6
			C421.6,492.2,418.9,491.9,416,492.2z"/>
		<path class="st0" d="M412.7,411.8c1.7-8.3,3.6-16.4,8.7-23.3c1.8-2.5,3.9-4.6,6.4-6.4c6.9-4.9,14.6-6.1,22.8-5.4c7.1,0.5,13.7,2.6,20,5.9
			c6.2,3.3,10.4,8.5,13,14.9c6.1,14.8,6.2,29.4-1.4,43.8c-0.9,1.7-2.1,3-3.5,4.2c-5,4-10.3,7.5-16.5,9.4c-2.2,0.6-4.4,1-6.8,1.4
			c-0.5-2.5-1-4.8-1.6-7.1c-1.8-7.4-4.6-14.4-9.3-20.5c-6.2-7.9-14.4-12.6-23.9-15.1C418,412.7,415.4,412.3,412.7,411.8z"/>
		<path class="st0" d="M188.9,456.8c-2.4,1-4.7,1.8-6.9,2.9c-9.1,4.2-15.8,11.1-20.9,19.6c-1.6,2.6-2.9,5.3-4.1,8.1c-1.3,3.1-2.4,3.6-5.8,3.1
			c-5.5-0.9-10.2-3.6-14.9-6.4c-5.6-3.3-9.2-7.9-10.8-14.3c-0.8-3.1-1.9-6.2-2.8-9.3c-2.6-8.3-1-15.7,4.4-22.3
			c7.5-9.2,17.2-14,29-13.7c12.2,0.3,21,6.7,27.4,16.7C186.5,445.9,188.2,451.5,188.9,456.8z"/>
		<path class="st0" d="M108.4,400.9c2.8-0.1,5.4,0.2,8,0.7c3.4,0.6,5.9,2.7,8.4,4.7c5.7,4.7,10,10.3,12.2,17.5c0.4,1.4,0.1,2-1.1,2.8
			c-9.3,5.9-16,14-19.1,24.8c-1,3.5-1.2,3.8-4.8,3.5c-9.2-0.5-17.2-3.9-24-10c-5.8-5.1-7.5-11.6-5.9-19c1.5-6.8,4.6-12.9,8.6-18.5
			c2.1-2.9,4.8-4.4,8.2-5.2C102.2,401.5,105.4,400.8,108.4,400.9z"/>
		<path class="st0" d="M106.2,397.3c-0.3-1,0.1-1.7,0.5-2.3c4.4-6.9,9.9-12.4,17.8-14.9c7.4-2.3,14.3-0.5,21,2.9c7.6,3.9,11.4,10.2,12.2,18.6
			c0.6,6.1,0.1,12-2.2,17.7c-0.4,0.9-0.8,1.7-1.8,1.8c-4.6,0.3-9,1.4-13.3,2.9c-0.9-0.7-0.9-1.6-1.2-2.4
			c-2.5-7.1-6.1-13.5-12.4-18.1c-5.4-4-11.5-5.6-18.1-6C108,397.5,107.1,397.7,106.2,397.3z"/>
		<path class="st0" d="M178.8,430.1c-2.9-2.3-6.2-4.2-9.6-5.6c-3.4-1.3-6.8-2.6-10.8-3.2c5.8-11.6,3.8-22.5-2.1-33.2c1.1-0.6,2.1-0.7,3.1-0.7
			c7.6,0.2,15.1,0.9,22,4.5c2.4,1.2,3.6,2.8,3.6,5.6c0,3.7,0.3,7.3,0.5,11c0.1,2-0.3,3.8-1.7,5.3c-3.3,3.6-4.4,7.9-4.2,12.7
			C179.8,427.7,179.9,428.9,178.8,430.1z"/>
		<path class="st0" d="M390.8,315.4c0.8,0.4,0.7,0.8,0.6,1.1c-0.5,3-0.2,6.1,0.4,9.1c0.6,3.4,0.8,6.7,0.5,10.1c-0.5,5.9-0.2,11.9-0.9,17.8
			c-0.9,7.6-4.4,13.6-11.2,17.5c-0.4,0.2-0.7,0.4-1.1,0.6c-0.6,0.3-1.2,0.6-1.8,0c-0.5-0.5-0.5-1.2-0.2-1.8c0.9-2.5,1.3-5.2,1.9-7.8
			c0.9-4.6,1.4-9.2,1.1-13.9c-0.6-8.1,1.5-15.5,5.3-22.6C387.2,322.1,389.4,319,390.8,315.4z"/>
		<path class="st0" d="M321.4,335.2c-0.7,1.7-0.3,3.5-1.5,5.1c-0.7-3.5-1.4-6.8-2.9-10c-1.4-3.1-3.4-6-5.2-9c1.3-0.5,1.7,0.4,2.2,1
			c3.4,3.8,6.7,7.9,9.9,11.9c5.4,6.9,11.5,13.2,17.9,19.2c0.5,0.5,1.4,0.8,1.3,2c-1.3,0.8-2.3,0.1-3.4-0.6c-2.4-1.7-4.5-3.7-6.5-5.7
			c-3.8-3.9-7.3-8-10.5-12.5C322.4,336,322.2,335.5,321.4,335.2z"/>
		<path class="st0" d="M302.2,115.6c-4.6-0.1-8.4-1-11.6-3.5c-4.6-3.7-5.1-9.4-1-13.7c5.8-6.1,17.9-7.1,24.6-2c5,3.8,5.4,10,0.9,14.3
			C311.4,114.2,306.7,115.4,302.2,115.6z"/>
		<path class="st0" d="M236,120.5c-3,0.1-5.9-0.3-8.7-1.3c-3-1.1-4.7-3.2-5.2-6.4c-1.1-7.5,0.9-10.9,8.2-12.9c5.3-1.5,10.3-0.7,14.4,3.2
			c5.4,4.9,4,13.9-2.5,16.6C240.2,120.5,238.1,120.3,236,120.5z"/>
		<path class="st0" d="M303.3,74.6c-4.7-0.5-9.5-0.6-13.7-3.1c-4.8-2.9-4.8-7.6-0.1-10.7c5-3.2,10.7-3.4,16.4-3c1.9,0.1,3.7,0.7,5.6,1.2
			c3.4,0.7,5.5,3.2,7.7,5.7c0.7,0.8,0.3,1.6-0.1,2.3c-2.1,3.8-5.6,5.7-9.6,6.7C307.4,74.2,305.4,74.5,303.3,74.6z"/>
		<path class="st0" d="M234.8,76.9c-3.1-0.1-6.2-0.6-9-2c-4.2-2.1-5-6.5-1.8-10c0.9-0.9,1.8-1.8,3-2.3c5.2-2.3,10.5-2.8,15.9-0.7
			c2.7,1,4.7,3,4.9,6.1c0.2,2.9-1.5,4.9-3.9,6.3c-1.1,0.7-2.2,1.2-3.5,1.6C238.6,76.5,236.7,76.9,234.8,76.9z"/>
		<path class="st0" d="M304.3,43.6c-4.3-0.3-8.5-0.5-12.6-2c-0.8-0.3-1.6-0.6-2.3-1c-2.2-1.3-2.2-3.9,0-5.3c1.3-0.8,2.8-1.1,4.2-1.3
			c6.4-0.9,12.8-1.1,19.1,1c1.1,0.4,2.2,0.6,3.1,1.3c2.3,1.6,2.1,4.4-0.5,5.5c-2.2,0.9-4.4,1.4-6.8,1.5
			C307,43.4,305.6,43.5,304.3,43.6z"/>
		<path class="st0" d="M239.6,34.4c1.6-0.1,3.8,0.2,6,1c1.6,0.6,2.7,1.6,2.9,3.3c0.2,1.8-1,2.7-2.4,3.4c-5.6,2.7-11.5,3.2-17.5,1.3
			c-1.4-0.4-2.6-1.2-2.8-2.8c-0.3-1.6,0.4-2.7,2.1-3.7C231.4,34.9,235.1,34.4,239.6,34.4z"/>
		<path class="st0" d="M273.4,155c-0.2,2.5,1.4,5.2-1.2,6.9c-2.3,1.5-5,2-7.4,0.4c-2.4-1.6-1.5-4.2-1.6-6.6C266.7,155.4,269.9,155.2,273.4,155z"
			/>
	</g>
</g>
</svg>
