<?xml version="1.0" encoding="utf-8"?>
<!-- Generator: Adobe Illustrator 18.1.1, SVG Export Plug-In . SVG Version: 6.00 Build 0)  -->
<svg version="1.1" id="图层_1" xmlns="http://www.w3.org/2000/svg" xmlns:xlink="http://www.w3.org/1999/xlink" x="0px" y="0px"
	 viewBox="0 0 612 792" enable-background="new 0 0 612 792" xml:space="preserve">
<g>
	<g>
		<path d="M449.3,437.7c-0.8,4.5-1.1,8.9-1.5,13.2c-1.2,14.2-2.7,28.4-5.1,42.5c-0.9,4.7-2.5,9.2-3.5,14
			c-2.5,13.4-6.6,26.3-13.6,38.3c-0.7,1.1-1.3,2.2-1.3,3.7c1.3-0.2,1.7-1.2,2.3-2c6.8-9,11.6-19,14.1-29.9c0.7-2.8,2.1-4.6,4.9-5.5
			c2.6-0.8,5.1-1.7,7.8-2.2c1.2-0.2,2.4-0.3,3.7-0.1c0.5,2.4-0.5,4.3-1.6,6.1c-2.6,4.4-4.4,9.1-5.4,14c-0.5,2.8-0.9,5.7-0.8,8.5
			c0,1.4-0.5,2.2-2.1,2.5c-7.3,1.6-14.3,4.3-20.7,8.4c-10.6,7.1-16.2,17.3-18,29.7c-0.4,3-0.5,6-0.5,9c0,0.8,0.1,1.5-0.4,2.5
			c-25.1-7.2-44.7,1.6-60.2,22c-1.4-1.6-2.7-3.1-4-4.5c-8.2-8.6-17.8-14.9-29.6-17.2c-14.9-3-28,1-39.8,10.2c-4,3.2-7.6,7-10.8,11.1
			c-0.4,0.5-0.8,1.2-1.4,1.5c-0.8-0.2-0.9-1-1.2-1.5c-9-16.1-22.8-23.7-41-24.2c-3.3-0.1-6.4,0.1-9.4,0.3c-0.8-0.4-0.8-1-0.8-1.4
			c-0.3-8.5-4.2-15.5-9.3-22.1c-1-1.3-1.2-2.4-1-4c0.7-3.9,1-8,1.5-11.9c0.2-1.6,0.5-3.4,1.5-5c0.9,1.2,0.8,2.7,2.3,3.5
			c1.6-1.1,1.7-2.7,1.7-4.5c0.1-7-0.7-13.9-1.1-20.9c-0.1-1.7-0.1-3.4-0.3-5.1c-0.4-3.8-1.4-7.4-3.7-10.6c-6.3-8.9-9-18.9-10.2-29.5
			c-1.4-13.2-2.8-26.4-4.3-39.7c-0.1-1-0.1-2.1-0.7-3.1c-0.9,0.5-0.7,1.3-0.9,2c-1.7,5.4-6.8,7.5-11.8,5c-3.6-1.7-6.1-4.7-7.9-8.2
			c-2.3-4.4-2.8-9.3-3.6-14.1c-1-5.9-1.9-11.9-3.3-17.8c-0.7-3-1.7-5.8-3.5-8.3c-5.7-8-8.2-16.8-8.2-26.6c0-4.3-0.9-8.5-0.3-12.7
			c0.8-5.5,0.4-10.8-0.3-16.2c-0.4-2.7-0.7-5.5-1-8.3c-0.1-1.4-0.1-2.7,0-4.2c0.2-3.3,1.7-5.8,4.6-7.6c4.4-3,4.9-6.9,1.3-10.9
			c-2.3-2.6-3.1-5.5-1.6-8.7c0.5-1.2,0.2-1.9-0.8-2.5c-1.7-1.4-3.6-2.7-5-4.5c-2.7-3.2-3.1-5.9-1-9.6c1.2-2.2,2.8-4,4.5-5.9
			c2.3-2.5,3.8-5.4,4-8.9c0.1-3.4,2.1-5.8,4.8-7.4c1.1-0.7,1.3-1.4,1.1-2.6c-1.1-4.7-2.1-9.5-3-14.3c-1.1-5.7,0.8-10.2,5.7-13.1
			c2.4-1.4,3.5-3.3,3.9-6c2.1-11.7,5.9-22.8,11.7-33.3c6.8-12.2,14.2-24,23.1-35c11.8-14.4,26.2-25.2,43.1-32.9
			c17.4-7.9,35.4-13.6,54.2-16.3c13.4-1.9,26.9-1.2,40.2,1c17.9,3,35,8.2,51.3,16.4c17,8.6,30.4,21.1,41.1,36.9
			c10.9,16.2,19.1,33.6,25.5,51.8c1.5,4.3,0.4,3.6,5,3.7c0.9,0,1.7,0,2.5,0.1c3.6,0.3,5,1.6,5.2,5.2c0.3,6.3-0.1,12.6-2.5,18.5
			c-0.4,1.2-1,2.3-1,3.5c-0.3,4.2,1.3,7.2,4.9,9.2c3.2,1.7,6.2,3.7,8.7,6.4c2.1,2.3,3.7,4.9,4.7,7.9c1.3,3.8,0.5,7.3-2,10.4
			c-1.3,1.6-3,3-4.7,4.2c-2.2,1.5-3.7,3.7-4.5,6.3c-0.4,1.3-0.7,2.6,1.3,3.4c-2.2,3-3.7,5.9-0.3,9c2.8-1.6,6-2.2,9.3-2.2
			c4.2-0.1,6.9,1.9,8,5.9c1,3.3,0.8,6.6,0.4,9.9c-0.4,5.1-1,10.3-1.6,15.4c-0.7,5.5,0.5,10.8,1.4,16.1c1.4,8.6,1.9,17.4-0.2,26
			c-1.2,5-3.2,9.7-6.4,13.8c-2.6,3.3-3.5,7-3.8,11.1c-0.9,9-1.5,17.8-3.3,26.7c-0.5,2.6-1.4,5.2-2.6,7.6c-3.7,7.2-9.9,10.4-18,9.1
			C453,438.6,451.4,438.2,449.3,437.7z M466.5,380.9c-1.7,3.3-2.4,6.6-2.3,9.9c0.1,3.2,0.8,6.2,1.6,9.3c1.1,3.9,0.8,7.8-0.8,11.6
			c-2,4.6-3.8,9.3-5.8,13.9c-1.2,3-3.8,3.3-5.9,0.9c-2.5-2.7-2.7-5.6-0.3-8.5c2.5-3.1,4.4-6.3,5.1-10.3c0.8-4,1.1-8.1,1.1-12.2
			c0-1-0.2-1.9-0.8-2.6c-1.6-2.7-1.3-5.4,0.3-7.9c1.1-1.6,2.4-3.1,3.5-4.6c1.1-1.5,2.4-2.4,4.3-0.8c1.6-6.1,2.2-11.8-0.4-17.4
			c-2.4-5.1-2.7-10.4-1.2-15.8c1.3-4.8,2-9.5-0.4-14.2c-0.8-1.5,0.2-3.1,2-3.4c1.5-0.3,3,0.3,3,2.1c0,2.7,0.8,5.1,2,7.4
			c0.4,0.9,0.4,2,0.5,3c0.2,3.9,1.5,7.5,3.3,11c0.2,0.5,0.4,1.2,1.2,1.3c1.1-0.4,1.2-1.5,1.5-2.4c2-6.2,1.5-12.6,0.5-18.8
			c-0.1-1.1-0.9-1.7-1.7-2.3c-3-1.9-4.6-4.6-4.9-8c-0.4-4.9,0.9-9.2,4.5-12.7c2.2-2.1,4.9-1.4,5.7,1.2c0.2,0.8,0.2,1.5,0.2,2.3
			c0.1,4.3-0.2,8.5-0.7,12.7c-0.3,2.3,0.1,4.4,2.4,6.2c-0.1-1.6-0.1-3-0.2-4.2c-0.2-6.1,0.8-12.1,1.1-18.3c0.1-2.1,0-4-0.8-5.9
			c-1.3-3.6-5.1-4.5-8-2.1c-2.4,2.1-3.9,4.5-4.5,7.6c-0.3,2-1.1,3.7-2.3,5.2c-2.2,2.7-4.8,4.9-7.9,6.2c-7.5,3.3-14.8,7.1-22.3,10.3
			c-7.4,3.1-15,5.8-22.6,8.4c-3.5,1.2-4.3,2.6-4,6.3c0.1,1,0.2,2,0.2,3c0.1,3.2-0.8,4-4,3.6c-1.7-0.3-3.5-0.8-5.2-1.2
			c-5.4-1.4-10.3-0.9-14.8,2.5c-2.5,1.9-5,3.6-7.5,5.5c-5.5,4-10.4,8.7-13.8,14.8c-1.1,1.9-1.5,3.7-0.1,5.6c1.5,2.1,3.3,3.1,5.9,2.5
			c6.2-1.4,12.5-2.8,18.7-4.6c7.5-2.2,14.8-5,22.2-7.7c1-0.3,2.1-0.9,3.4-0.4c-1.4,2.3-3.3,3.8-5.4,5c-3.1,1.6-6.2,3.2-9.3,4.7
			c-8.9,4.5-18.4,7-27.5,10.3c-0.8,0.3-1.6,0.3-2.2,1.1c4.4,4.7,9.6,5.5,15,2.4c2-1.1,3.8-2.3,5.9-3.3c2.4-1.2,4.8-2.3,7.4-2.7
			c-1.7,3-3.9,5.7-5.7,8.5c-2.3,3.8-5.9,5.8-10.4,5.9c-2.1,0.1-4.2-0.3-6.2-0.3c-8.4-0.2-16.2,1.1-20.2,9.8
			c-0.2,0.4-0.4,0.8-0.8,1.2c-0.5,0.7-0.8,1.5-1.9,1.7c-0.3-0.2-0.7-0.4-1-0.7c-9.8-7.3-19.8-14.6-29.8-21.6c-1.4-1-2.8-2.2-4-3.5
			c-3.4-3.4-3.7-7.5-3.3-12c0.5-5.4,2-10.6,2.2-16.1c0.1-3.1-0.5-3.6-3.6-3.4c-7.5,0.5-15,0.4-22.5-0.1c-1.1-0.1-2.3-0.3-3.4,0.7
			c0.7,2.1,1.7,4,2.6,6.1c2.1,4.9,5.6,8.1,10.7,9.4c1.1,0.2,2.2,0.5,2.4,1.9c0.2,1.4-0.9,2-1.9,2.6c-3.3,2-5.2,4.9-6.2,8.5
			c-0.4,1.9-0.7,3.8-0.8,5.7c-0.7,7.4-0.9,14.8-1.6,22.2c-1.3,12.6-4.6,24.8-4.9,37.5c0,1.9-0.4,3.6-2.8,3.8c-0.4,0-0.8,0.4-1.2,0.7
			c-4.8,3.8-6.7,12.1-4,17.6c0.9,1.9,2.2,3.2,4.4,3.5c7.6,1.1,15,3.1,22.3,5.1c2.2,0.7,4.3,0.2,6.2-1.1c2.8-2,5.7-3.9,8.3-6.2
			c3.9-3.6,8.6-4.5,13.9-3.4c0.9,0.2,1.6,0.5,1.6,1.6c0,1-0.8,1.3-1.5,1.4c-3.9,0.3-6.7,2.6-9,5.6c-2.1,2.8-4.6,5.2-7.3,7.4
			c-2.2,1.7-4.4,3.4-6.4,5.2c-5,4.5-6,10.2-3,16.2c0.4,0.9,1,1.7,1.4,2.6c0.8,1.6,2.1,2.3,3.8,2.5c6.9,1,13.8,1.3,20.8,0.5
			c7.6-0.9,15.4-0.8,23.2-0.5c3.5,0.1,6.3-1,8.4-4c0.1-0.2,0.2-0.3,0.4-0.5c0.4-0.5,0.9-1.2,1.7-1c0.9,0.2,1,1,1,1.6
			c0,1.7,0.7,3.3,1.2,4.9c0.7,2.2,1.4,4.5,2,6.7c0.4,1.6,0.7,3.3-0.1,4.9c-2.4-0.1-2.8-0.4-4-2.8c-1.4-2.8-3.3-5-6.6-5.6
			c-6.4-1.1-12.9-1.6-19.3-1.2c-9.8,0.5-19.7,1.9-29.5,2.7c-3.1,0.2-6.2,0.4-9.3,0.8c-3.7,0.5-5.2,2.4-4.9,6
			c0.7,8.3,4.9,14.2,12.5,17.5c5.4,2.3,10.8,2.2,16.4,1.2c6-1,11.6-3.2,17.2-5.6c1.4-0.7,2.8-1.5,4.6-1.3c0.8,3.3-3,3.6-3.6,5.9
			c0.2,0.2,0.4,0.4,0.7,0.5c0.3,0.2,0.4,0.4,0.4,0.2c-2.7,8.3-8.4,11.8-16.4,12.1c-3.1,0.1-6.1,1.1-9,2.2c-3.4,1.3-6.4,3.1-9.1,5.6
			c0.7,1.1,1.5,1.6,2.4,2.2c4,2.5,8.2,4.9,12.7,6.8c8.5,3.5,17.4,4.9,26.6,3.1c9.5-2,17.9-6.6,26.2-11.5c1.5-0.9,2.5-2.2,3.5-3.6
			c2.1-2.8,4.4-5.5,7.4-7.2c2.1-1.2,3.2-2.8,3.7-5c0.9-4,2.6-7.8,5-11.1c4.5-6.1,9-12.2,10.6-19.9c0.2-0.9,0.8-1.5,2.1-1
			c-1.7,16.6-4.9,33.1-8.3,49.9c1.7-0.7,2.6-1.6,3.4-2.7c9.8-14.6,17.2-30.6,21.3-47.8c3.3-13.6,5.7-27.4,7.5-41.2
			c1.5-11.4,3.4-22.7,4.2-34.3c0.7-8.9,0.3-17.8,1.7-26.6c0.2-1.1,0.1-2.1-0.9-3c-1.2-1-1-2.3-0.4-3.6c3.8-9.2,7.1-18.6,10.3-28.1
			c2.6-7.8,3.5-15.6,2.2-23.8c-1.4-8.6-2-17.4-2.3-26.1c0-1.1-0.4-2.4,0.8-3.5c1,0.9,0.9,2,1,2.8c1.3,7.6,2.3,15.4,4,23.1
			c1,4.5,1.5,9,1.3,13.6c-0.3,8.3-2.7,16.1-6.4,23.5c-1.7,3.5-3.6,7.1-3.9,11c-0.9,10.4-1.6,20.8-2.8,31.1c-0.3,2.3,0.2,2.8,2.3,3.6
			c6.9,2.5,15.1-0.8,17.4-7.8c2.8-8.4,5.1-17,4.3-26.1c-0.1-1.2,0-2.5,0.1-3.7c0.5-5.5,2.7-10.3,5.6-14.9c3-4.9,5.5-10.1,6.4-15.7
			c0.7-3.5,0.8-7.1,1-10.6c0.4-4.9,0.5-9.8,0-14.9c-0.1-0.9,0.1-2.1-1.3-2.4c-0.5,1.3-0.3,2.5-0.3,3.7c-0.1,5.1-1.1,10.1-5.4,13.6
			c-1.1,0.9-0.7,1.7-0.3,2.7c1,3.2,1,6.3,0.3,9.6c-0.7,3-1.7,5.6-3.2,8.2C473.8,380.9,471.1,382.1,466.5,380.9z M374.2,220.6
			c10.2,0.5,23.8,1.4,37.4,2c10.9,0.4,22,0.1,32.9-1.2c5-0.5,7-3.7,5.2-8.5c-7.1-19.9-16-38.9-27.6-56.5
			c-5.1-7.8-11.5-14.5-19.5-19.6c-18.6-11.6-38.9-19-59.9-25c-11.3-3.2-22.8-2.5-34.3-2.4c-1.9,0-3.7,0.1-5.6,0.3
			c-14.3,1.5-28.1,5.4-41.7,9.6c-5.9,1.9-11.1,4.9-15.2,9.7c-7.3,8.7-10.9,19-11.6,30.3c-0.7,13.4,1.3,26.7,5.8,39.5
			c0.3,1.1,1.1,2.2,0.7,3.4c-1.3,3.6-1.2,7.4-1.9,11.1c-0.4,2.7,0.5,4.8,2.6,6.4c5.7,4.4,11.8,6.4,19,4.5c5.4-1.4,10.8-1.6,16.3-1.5
			c6.7,0.1,13.2,0.4,19.8-1c7.5-1.6,15.4-1.3,23.1-1.5C336.9,219.6,353.9,219.7,374.2,220.6z M465.3,297.4c-1.6,0.3-2.8,0.9-4.3,0.9
			c-4.7,0-9.4-0.2-14.1-1.2c-15.5-3.3-31-7.3-47-8.1c-0.8,0-1.6,0-2.3-0.9c0.8-0.7,1.5-0.5,2.3-0.5c12.7-0.7,25.4-1.2,37.9-1.9
			c10.6-0.5,20.9-2.6,30.8-6.2c8.6-3.1,11.3-11.6,6-19c-2.4-3.4-5.7-5.9-8.9-8.4c-4.6-3.7-6.9-8.5-5.2-14.5
			c1.3-4.9,1.9-9.8,2.2-14.9c0.4-5.9-0.2-4.7-4.7-6c-1.5-0.4-3-0.1-3.9,1.2c-3.1,3.9-7.3,5.7-12.1,6.4c-10.4,1.6-20.9,2.6-31.4,2.2
			c-18.8-0.7-37.5-1.9-56.3-2.7c-7.3-0.3-14.6-1.1-22-0.8c-1.1,0-2.2,0.1-3.4,0.8c0.9,0.8,1.6,0.8,2.4,0.8c9.4,1.2,18.8,3,28.1,5
			c6.6,1.4,10.7,5.2,12.9,11.4c1.4,3.8,2.3,7.9,3.1,11.9c0.4,2.5,0.7,5.1,1.4,7.8c6.1,0.5,12.1,0.9,18.1,0.9
			c18.7,0.2,37.4-1.2,56.1-1.9c0.8,0,1.6-0.2,2.4,0.2c-0.4,1.2-1.4,1.3-2.3,1.5c-1.5,0.4-3,0.8-4.5,1.1c-4.7,1-9.4,1.5-14,3.1
			c-15.6,5.4-31.3,4.8-46.8-0.5c-2-0.7-3.9-1.4-6-1.7c-2.8-0.4-3-0.2-2.7,2.5c0.8,9.6,1.5,19.2,1.3,29c-0.2,8.5-0.9,16.9-2.1,25.4
			c-0.8,5.1-3.2,9.3-8.2,11.1c-5.2,2-10.6,3.9-16,5.5c-12.5,3.5-25.2,5.2-38.1,6c-5.9,0.3-11.8,0.7-17.4,2.5
			c-6.6,2.2-13.1,4.2-19.8,5.8c-0.5,0.1-1.1,0.2-1.5,0.7c0.8,0.5,1.4,0.5,2.2,0.5c5.8,0.7,11.6,1.2,17.4,1c13.6-0.4,27.2-1.4,40.7-3
			c13.8-1.6,27.3-4,41-6.2c21.2-3.4,42-8.1,62.2-15.6c6.4-2.4,12.8-5.1,18.6-9c4-2.7,7.8-5.9,10.9-9.6c1.9-2.2,2.2-4.3,1-6.1
			C467.5,301.8,466.3,299.7,465.3,297.4z M249.9,384.3c-1.4-0.8-2.4-0.2-3.3,0c-2.6,0.7-5.2,1.1-8,1.1c-8.5,0.2-16.3-2.5-23.6-6.4
			c-5-2.6-8.7-6.6-10.7-12c-1.6-4.5-4.4-8.4-7-12.2c-2-2.7-4.5-4.9-7.8-6c-6.6-2.2-12.6-5.5-18.3-9.4c-0.4-0.3-0.8-0.8-1.5-0.5
			c-0.1,0.2-0.2,0.3-0.2,0.5c0.2,5.5-0.8,10.8-3.2,15.7c-0.3,0.5-0.3,1.2-0.2,1.9c1,4.9,0.5,9.8,0.1,14.8c-0.1,2.3-0.1,4.7,0.8,6.9
			c0.3,0.9,0.5,1.9,1.7,2.5c0.7-9.3,1.2-18.4,2.4-27.3c0.3,0,0.7,0,0.9,0c0,3.8-0.1,7.8,0,11.6c0.1,5.5,0,10.9,0.9,16.4
			c1.5,10.1,4.8,19.7,8.4,29.1c4,10.7,7.5,21.5,8.9,33c0.8,7.3,2.6,14.6,4,21.9c1.2,6,1.6,12.1,3.9,17.8c3.6,8.9,7.2,17.6,11.1,26.2
			c4.2,9.1,9.7,17.3,17.5,23.6c0.3,0.3,0.7,0.7,1,1c0.5,0.7,0.5,1.4,0,2.1c-0.7,0.8-1.3,0.7-2.1,0.2c-0.5-0.3-1.2-0.8-1.6-1.2
			c-1.9-1.9-3.8-3.3-6.3-4c-2.1-0.7-3.6-2.3-4.7-4.3c-0.8-1.3-1.2-2.8-1.9-4.3c-0.4-1-0.8-2.2-2.1-2.5c-0.7,1.9-0.8,2.1-0.5,3.9
			c0.9,6.7,1,13.2-0.2,19.9c-0.7,3.4,0.4,6,2.8,8.3c2.6,2.5,5.2,5,7.9,7.5c4.4,3.9,8.7,7.8,13.2,11.6c1.2,1,2.4,2.2,4.6,2.5
			c-1.2-1.4-2.2-2.5-3.2-3.6c-3.3-3.8-6.8-7.4-9.6-11.6c-1.2-1.7-2.3-3.6-2.4-5.9c11.7,7.9,23.4,15.6,36.2,21.7
			c-1.5-3.8-3.2-7.4-5.4-10.8c-4.6-6.9-7.4-14.5-8.9-22.7c-0.5-2.8-1.2-5.8-2.7-8.3c-7-10.9-11.6-23.1-17-34.6
			c-3.6-7.6-6.7-15.4-10.7-22.8c-6-11.3-9.1-23.4-12.6-35.5c-3.1-10.6-4.9-21.5-9.8-31.6c-3.3-6.8-4.5-14.4-6.3-21.7
			c-0.8-3-0.5-6,0.5-9c1.4-3.8,4.5-5.2,8.3-3.8c2,0.7,3.5,2,5.1,3.1c11.4,7.9,23.9,11.7,37.7,11.8
			C240.9,388.6,245.3,387,249.9,384.3z M160.3,319.5c-0.3,3.6,1.6,9.6,3.8,11.6c2.5,2.4,5.2,4.6,8.3,6.3
			c10.4,5.7,21.3,9.5,32.9,11.4c13.6,2.2,27.2,2,40.9,2.2c15.2,0.2,30.2-2,45-5.5c0.7-0.2,1.6-0.1,2-1.1c-0.7-0.8-1.5-0.5-2.3-0.5
			c-6.7,0-13.3,0-19.9,0c-3,0-5.9-0.1-8.7,0.3c-3.2,0.4-6.4,0.8-9.7,1.1c-5.4,0.4-10.7,0.3-16-0.9c-3.1-0.7-5.7-2.3-6.9-5.4
			c-2.6-6.9-5.4-13.7-7.1-20.9c-1.9-8-2.6-16.2-3.4-24.3c-1.1-10.7-2.4-21.5-3-32.3c-0.3-6.2,0.9-12.1,4.4-17.5
			c1.6-2.5,3.7-4.5,6.8-4.8c4.4-0.5,8.4-2,12.6-3.3c9.1-3.1,18-6.7,27.6-7.5c0.5,0,1.3,0,1.4-0.9c-0.2-0.5-0.8-0.4-1.2-0.5
			c-12.1-0.8-24.3-0.8-36.4,0.3c-10.6,0.9-21.1,2.8-31.8,3.8c-9,0.9-18,1.7-26.8,3.8c-3,0.7-5.8,1.5-8.7,2.3c-1.1-1.9-1-4-1.9-6.2
			c-3.2,3.3-4.2,6.9-3.3,11.1c0.4,2.5,1.1,5,1.5,7.5c0.5,3.7,0.9,7.3-0.5,10.9c-2.8,0.5-3.1,0.8-3.7,3.7c-0.2,0.9-0.3,1.9-0.5,2.7
			c-0.8,3.2-0.3,4.2,2.4,5.9c2.6,1.6,5.7,2.4,8.6,3.2c0.9,0.2,1.9,0.1,2.2,1.6c-6.1,1.5-11.6,0.5-16.7-3.3c-1.6,2.7-3.2,5.1-4.6,7.5
			c-2.2,3.6-2.1,4.3,0.9,7.2c2.4,2.5,4.9,4.9,7.3,7.4c1.1,1.1,2,2.3,1.4,4.2c-2.1-0.5-3.1-2.8-5.1-2.8c-1,2.3-1,2.8,1.3,4.5
			c3,2.3,4.3,5,3.7,8.9c-0.5,3.6,0.8,5.2,4.4,5.6c4.8,0.4,9.7,0.7,14.5,0.7c0.7,0,1.4,0.2,1.7-0.8c-0.4-0.9-1.4-0.8-2.2-1
			c-3.7-0.9-7.5-1.7-11.3-2.5c-1-0.2-2-0.4-2.8-1c-1.1-0.7-1.5-1.5-1.1-2.7c0.4-1.1,1.4-1.1,2.3-0.9c1.9,0.3,3.6,0.5,5.5,0.7
			c7.9,0.2,15.2-2.4,22.6-4.7c0.2-0.1,0.3-0.2,0.4-0.3c-0.2-0.8-0.8-0.8-1.2-0.9c-7.8-1.4-15-4.8-22.6-6.7c-1.3-0.3-2.3-1.1-2.1-2.6
			c0.2-1.5,1.4-1.4,2.5-1.4c4.7,0,8.7-1.5,12.5-4.5c3.7-3,7-6.4,10.5-9.7c0.1-0.1,0-0.3,0-0.5c-10.4-0.9-20.8-2.1-30.4-7.8
			c6.6-2.7,13.2-1.5,19.3-3.2c-2.6-1.1-5.4-2-8-3c-2.6-1-5.1-2.2-7.8-4.2c7.9-2.5,15.4-4.5,22.8-7.9c-1.2-0.9-2.3-1-3.3-1.2
			c-4.9-1.2-9.8-2.5-14.6-4.4c-1-0.3-2-0.8-2-2c0.1-1.3,1.2-1.4,2.2-1.6c10.1-2.7,20.2-5.1,30.5-7.1c13.9-2.7,27.8-5.4,41.9-6.4
			c2.5-0.2,5-0.2,7.4,0.9c-0.1,0.4-0.4,0.5-0.7,0.7c-5.4,1.4-10.7,2.8-16.2,4c-4.7,1.1-8.7,3.4-12.6,6.2c-3.3,2.5-5.1,5.8-6,9.9
			c-1.3,6.6-1.3,13.1-0.7,19.6c1.5,13.3,3.2,26.6,4.5,39.9c0.5,5.4,1.3,10.6,2,15.8c0.9,6.7,3.8,12.3,8.3,17.3
			c0.5,0.7,1.4,1.2,1,2.2c-0.5,1.1-1.6,0.7-2.5,0.5c-2.2-0.3-4.3-0.4-6.4-0.4c-3.3,0-6.4,0-9.7,0c-6.2,0-11.9-2.3-17.6-4.5
			c-7.3-2.7-14.1-6.6-21.4-9.5c-1-0.3-1.7-0.9-1.3-2.1c0.3-1.1,1.2-1.3,2.3-1.2c0.5,0.1,1.1,0.2,1.5,0.3c1.5,0.4,3.1,0.7,4.6,0.8
			c3.2,0.1,6.3-0.3,9.2-2C178.4,324.4,169.6,321.1,160.3,319.5z M169.3,389c-1.1,1-1.1,2.2-1.5,3.1c-0.3,0.5-0.7,1.1-1.4,1
			c-0.7-0.1-0.8-0.8-0.8-1.3c-0.4-3.6-2.1-6.7-4.2-9.5c-2.5-3.5-3.3-7.3-2.7-11.4c0.5-4,1.2-8.1,1.9-12.1c0.2-1.5,1.1-2.5,2.6-3.1
			c1.6-0.5,2.2-1.7,2.1-3.5c-0.2-1.9-0.2-3.7-0.5-5.6c-0.5-4.6-2-8.7-5.4-12c-0.7-0.7-1.3-1.7-2.5-0.9c-1,0.8-0.4,1.6,0,2.5
			c0.5,1.1,0.9,2.1,1.1,3.3c0.4,3.2-0.3,6.3-0.7,9.4c-0.1,0.8-0.4,1.3-1.3,1.4c-1,0.1-1.4-0.5-1.5-1.3c-0.2-1-0.5-2-0.7-3
			c-0.9-4.7-1-9.5-1-14.3c0-3.5-0.1-3.5,3.4-4c2.1-0.3,2.4-1,1.9-3c-0.3-1.3-0.8-2.6-1.1-4c-0.7-2.5-3-3.3-4.9-1.6
			c-1.4,1.1-2.1,2.6-2.4,4.4c-0.5,3.1-0.5,6.1-0.1,9.2c1.3,10.4,3.2,20.7,4,31c0.8,9,2.7,17.5,5.6,26c0.9,2.6,1.5,5.4,2.2,8.1
			c2.2,9.9,4.6,19.9,7.3,29.7c1.3,4.7,4.2,8,8.3,10.3c2,1.1,3.7,0.9,5.1-0.4c3.1-2.8,3.4-9.4,0.8-12.8c-0.3,0-0.5,0.3-0.8,0.5
			c-2.2,2.4-4.9,1.9-6-1.3c-0.3-1.1-0.7-2.2-0.8-3.4c-0.8-6.4-1.5-12.9-2.4-19.3C172.1,397.2,170.7,393.2,169.3,389z M262,265.4
			c-0.1,0.3-0.2,0.5-0.2,0.8c0,4.5,3.3,7.5,7.8,7c8.2-0.9,11.9-8.6,7.3-15.4c-3.6-5.4-8.5-8.1-15-8.3c-4.9-0.2-9.3,1.2-13.3,3.8
			c-10.2,6.7-10.3,19.1-0.2,25.9c10.3,6.9,21.7,7.9,33.6,6.3c1.5-0.2,3.1-0.8,4.2-2.2c-0.7-0.3-1.1-0.1-1.5-0.1
			c-8.7,1.5-17,0.1-25.2-2.7c-3.6-1.2-6.9-3.2-9.5-5.9c-3.5-3.7-3.8-8.6-1-12.8c5.4-7.9,18.5-8.1,24-0.4c2.1,2.8,1.6,5-1.4,7.2
			c-3.1,2.2-5.6,1.9-7.5-1.1C263.3,266.9,263.3,265.8,262,265.4z M303.8,299.4c0.1-2.4,0.3-4.5,0.3-6.6c0-2.3-1-3.5-2.7-3.7
			c-1.7-0.1-2.8,0.9-3.4,3.1c-0.7,3.1-0.2,6,0.7,8.9c0.4,1.5,1.3,2.5,3,2.8c4.2,0.7,8.4,1.4,12.6,2.2c1.6,0.3,3.2-0.1,4.6-1.2
			c3.9-3.2,4.2-13.4-1.3-15.7c-3.1-1.3-5.7-3.5-8.2-5.7c-2.3-2-4.5-4-6.9-5.9c-3.6-2.7-6.4-2.1-8.9,1.7c-1.7,2.8-4.2,4.9-7.1,6.4
			c-2.3,1.1-4.6,2.2-6.8,3.6c-1.6,1.1-3.3,2.3-4.7,3.7c-0.4,0.4-0.9,1-0.4,1.6c0.4,0.8,1.1,0.9,1.7,0.7c0.5-0.1,1.2-0.3,1.7-0.5
			c3.2-1.1,6.2-2.2,9.5-3.1c4.9-1.3,8.7-4.2,11.4-8.5c0.5-0.9,0.9-2,2.5-2.3c3.1,7.3,7.7,13.1,16.1,14.5c-0.8,3.3-2,4.4-4.4,4
			C310,299.2,307.1,299.1,303.8,299.4z M324.7,283.5c0.8,0.8,1.4,0.4,2.1,0.2c5-1.9,9.6-4.5,13.3-8.5c2-2.2,3-4.7,3-7.5
			c-0.1-5.6-2.5-10.1-6.8-13.6c-7.1-5.7-14.9-6.4-22-2.1c-3,1.9-4.4,4.5-4.3,8c0.2,7,8,13.7,15,12.9c0.2,0,0.3-0.2,0.7-0.3
			c-0.2-1.2-1.3-1.2-2.1-1.5c-4-1.6-7.6-3.7-9-8.3c-0.8-2.6,0.1-4.6,2.6-5.7c0.9-0.4,1.9-0.7,2.8-0.8c7.2-1.2,12.5,1.5,16.5,8.4
			c2.4,4.2,2.1,7.2-1.3,10.7c-2.5,2.6-5.6,4.6-8.6,6.6C325.8,282.2,324.8,282.5,324.7,283.5z M233.4,280.4c0.4-1,0.8-1.7,1.1-2.6
			c2.1-4.9,1.9-9.8,0-14.6c-1.1-2.7-3.1-4.2-5.4-4c-1.1,0-2,0.4-2.5,1.4c-0.4,1-0.3,1.9,0.3,2.6c2.1,2.4,2.6,5.4,2.8,8.4
			c0.1,2.3,0.3,4.6,0.7,6.9c0.2,1.5,0.1,2.5-1.7,2.7c-1,0.1-1.7,0.8-1.7,1.9c0,1,0.5,1.7,1.5,2.2c0.5,0.2,1.2,0.4,1.7,0.5
			c2.5,0.7,5.1,1.2,7.6,2c3,0.9,3.3,2.1,1.2,4.5c-0.8,1-1.6,1.9-2.6,2.6c-1.4,1.2-2.8,2.4-4.3,3.6c-0.7,0.5-1.5,1.1-1,2.1
			c0.7,1.2,1.6,0.5,2.4,0.2c0.9-0.3,1.7-0.7,2.6-1c3.4-1.5,6.6-3.5,8.9-6.4c2.7-3.5,2.2-7.3-1.4-9.8c-1.1-0.9-2.4-1.3-3.7-1.7
			C238,280.9,235.8,280.8,233.4,280.4z M249.9,330c1.1,0.5,1.7,0,2.3-0.4c2.4-1.9,4.6-3.8,6.4-6.2c2.4-3.1,4-6.6,4.6-10.5
			c1.2-9.3-7.9-17.6-16.8-15.4c-5,1.2-9.1,4.2-12.3,8.1c-0.7,0.8-1.2,1.6-0.5,2.7c1.2,0.4,2-0.3,2.7-0.9c2.5-1.7,5.1-3.2,8.1-3.8
			c4.7-1.1,8.6,0.2,11.7,4.2c2.8,3.7,2.8,7.6,0.8,11.7c-1.3,2.4-2.7,4.7-4.3,6.9C251.7,327.5,250.8,328.7,249.9,330z M339.4,312.9
			c-0.3-1.6-1.5-2.1-2.3-2.8c-1-1-1.5-2-0.5-3.2c3-3.8,5.7-7.8,9.1-11.1c2.7-2.7,6-3.9,9.9-3.3c2,0.3,3.9,0.4,6,0.7
			c0.7,0.1,1.3,0,1.5-0.8c0.2-0.7-0.2-1.2-0.7-1.5c-0.8-0.5-1.5-1.1-2.4-1.4c-4.3-1.9-8.6-2.3-13.1-1.4c-1.5,0.3-3,1-4.2,2
			c-4.8,3.7-8.5,8.5-11,14.1c-1,2.2-1.4,4.4,0.3,6.3C334,312.4,336.4,313.6,339.4,312.9z M305.3,263.7c0-2.3-0.4-4.6-1.3-6.8
			c-0.9-2.1-2.2-2.7-4.3-2c-3.7,1.4-7.4,2.4-11.4,3c-1.6,0.2-2.7,1.1-3,2.8c-0.2,2.6-0.4,5.2,0,7.9c0.4,2.4,1.7,3.8,4,4.6
			c1.6,0.5,3.3,0.7,5,0.8C302.1,274.5,305.3,271.3,305.3,263.7z M310.3,328.6c0-0.7-0.5-1-0.9-1.3c-1.5-1.6-3.3-3.1-4.5-5
			c-1.4-2.5-1.1-3.3,1.7-4c2.6-0.7,5.2-0.2,7.9-0.1c0.9,0,1,0.8,1.2,1.4c0.5,1.6,1.1,3.4,1.6,5c1.2,3.7,0.4,5.6-3.2,7.3
			c-0.9,0.4-2,0.5-2.3,1.6c5,1.6,9.9-2.3,9.9-7.9c0-3.9-0.4-7.9-0.8-11.8c-0.2-2.3-2-3.6-4.3-3.1c-2.1,0.5-4.3,0.8-6.4,1
			c-3.1,0.3-5.9,1.3-8.2,3.3c-2.2,1.9-2.6,4.2-1.1,6.7c1.7,3,4.2,5.1,7.1,6.8C308.8,329,309.6,329.4,310.3,328.6z M270.4,329.3
			c1.7-1,2.2-2.5,3-3.8c1.2-2.3,2.3-4.7,3.5-7.1c0.5-1.2,1.4-1.6,2.8-1.2c4.6,1.3,6.6,4.2,6.1,9c-0.2,2.2-1,4.4-0.7,6.6
			c1.2,0.5,1.9,0,2.5-0.7c3.5-3.5,4.7-9.3,3-13.8c-1.9-4.4-6.8-7.5-11.8-7.6c-2.2,0-3.7,0.8-4.6,2.8c-1.6,3.6-3,7.3-3.5,11.3
			C270.3,326.2,269.8,327.6,270.4,329.3z M351.5,302.7c-0.8,0.7-1.6,0.2-2.4,0.1c-1.2-0.2-2.3-0.3-3.5-0.2c-4,0.2-6.1,3.7-4.6,7.4
			c0.8,1.9,2.1,3.3,3.8,4.3c4,2.2,8.5,2.7,13,1.9c0.9-0.1,1.9-0.2,2.4-1.6c-4.3-1.9-9.5-0.8-13.1-4.7c1.5-0.8,2.6,0,3.8,0.1
			c3.1,0.1,5.4-1.4,5.7-3.9c0.4-3.1-1.7-6.7-4.3-7.2c-0.7-0.1-1.2-0.1-1.7,0.3c-0.5,0.5-0.2,1.2,0,1.7
			C351.1,301.4,351.8,301.8,351.5,302.7z M354.5,267.8c0,4.5,1.1,8,4,10.6c1.2,1.1,2.6,1.9,4.4,2.1c1,0.1,2.1,0.2,2.7-0.7
			c0.8-1,0.1-2-0.4-2.7c-0.3-0.5-0.7-1.1-1.1-1.5c-3.1-3.1-3.6-6.9-3.1-10.9c0.3-2.8,0.8-5.7,1.4-8.4c0.2-0.8,0.2-1.6-0.7-2
			c-0.9-0.3-1.5,0.1-2,0.8C356.8,259,354.9,263.3,354.5,267.8z M283.7,305.7c0.8-0.1,2.2-0.1,3.5-0.3c5.5-1,8.2-5.1,6.9-10.6
			c-0.3-1.1-0.3-2.8-2-2.7c-1.5,0.1-1.2,1.7-1.3,2.7c-0.4,3.3-1.5,4.4-4.8,4.3c-3.6,0-7.3-0.1-10.8-1.2c-1-0.3-1.6,0-2.1,0.9
			c-1.4,2.2-0.5,4.8,2.2,5.7C277.9,305.4,280.5,305.6,283.7,305.7z M354.5,245c2.1-0.1,4.6-0.3,7-1.1c0.9-0.3,1.7-0.8,1.7-1.9
			c0-1.2-1-1.5-1.9-1.6c-4.9-0.7-9.7-1.7-14.5-3c-3.6-0.9-7.5,1.3-9.2,4.7c-0.5,1.2,0,1.7,1.1,2c0.5,0.1,1.2,0,1.9-0.1
			c2.8-0.7,5.7-0.3,8.4,0.5C350.7,245,352.3,245.2,354.5,245z M367.7,311.6c-0.1-1-0.2-1.9-0.3-2.8c-0.1-0.9-0.3-1.7-1.3-1.9
			c-1.1-0.1-1.5,0.7-1.7,1.5c-0.7,2-1.3,3.9-2.1,5.9c-1.3,3.5-3,6.8-6,9.2c-0.7,0.5-1.2,1.2-1.5,2.1c-0.9,2.3,0.2,3.8,2.7,3.6
			c1.6-0.1,3-0.9,4.2-1.9C366.8,323.2,367.5,317.5,367.7,311.6z M235.5,249.2c3.5-0.2,6.7-0.9,9.9-1.9c1.3-0.4,2.7-0.7,3.9-1.4
			c1.1-0.7,1.7-1.5,1.5-2.8c-0.2-1.3-1.1-2.2-2.4-2.5c-0.7-0.1-1.4-0.1-2.1,0c-3.2,0.5-6.2,1.3-9.2,2.4c-1.3,0.5-2.5,1.2-3.7,1.9
			c-1,0.5-1.7,1.3-1.4,2.6c0.3,1.3,1.3,1.6,2.4,1.6C234.9,249.2,235.3,249.2,235.5,249.2z M242.7,321.2c2.8-0.1,5.1-0.7,7.3-1.7
			c1.4-0.8,2.4-1.9,2.7-3.5c0.2-1.1,0.1-2.2-0.8-3c-0.9-0.8-1.9-0.5-2.8-0.1c-2.4,1.2-4.9,1.7-7.4,2.3c-0.5,0.1-1.1,0.2-1.5,0.3
			c-1.2,0.3-2.3,1-2.3,2.5c0,1.4,0.9,2.3,2.2,2.6C241.1,320.9,242.2,321,242.7,321.2z"/>
		<path d="M258.1,650.7c0-6.1,0.1-11.8,1.5-17.4c2.5-10.2,7.9-18.6,15.5-25.6c2.5-2.3,5.1-4.4,7.9-6.4c3.1-2.3,6.3-3.7,10.2-4.2
			c4.8-0.5,9.5-1.2,14.3-1.2c6.8,0,13,1.6,18.6,5.6c5.9,4.2,11.6,8.5,16.3,14c12.8,14.8,13.7,38.9,2,54.5
			c-5.1,6.9-10.6,13.6-18,18.1c-5.2,3.2-10.8,5.5-16.9,5.8c-4.5,0.2-9-0.8-13.3-1.6c-9.9-2.1-19-6-26.6-13c-3.5-3.2-6.4-6.9-9-10.8
			c-1.3-2.1-1.9-4.4-2.1-6.8C258,658,258.2,654.1,258.1,650.7z"/>
		<path d="M215.2,679.6c-22.1,0.3-42.3-25-41.1-47.1c0.7-10.8,4.7-19.9,12.6-27.2c3.7-3.4,7.5-6.7,12.2-8.6c2.7-1.1,5.6-1.7,8.5-2.3
			c8.2-1.4,16.5-2.1,24.7-0.4c10.3,2.1,17.9,8.3,24.3,16.4c0.9,1.2,1.7,2.4,2.6,3.5c1.4,1.9,1.4,3.6,0.1,5.6c-3,4.4-5,9.2-6.2,14.4
			c-1.9,8.2-1.3,16.4,0.2,24.6c0.2,0.9,0.3,1.9,0.5,2.7c0.4,2.1-0.1,3.8-1.4,5.4c-3.2,3.6-6.8,6.6-11.1,8.4
			C233.7,678.1,226,679.7,215.2,679.6z"/>
		<path d="M387.4,678.8c-8.6,0.8-15.8-3.1-22.8-7.1c-2-1.2-3.7-2.7-5.7-3.9c-2-1.3-2.4-2.8-1.9-5.1c1.5-6.6,2.1-13.1,1.4-19.8
			c-0.8-7.9-3-15.3-6.6-22.3c-1-1.9-1-3.3,0-5.1c5.1-9.6,12.9-16.2,22.9-20.3c4.9-2,9.9-3.4,15.1-4.4c3.9-0.8,7.8-0.1,11.3,1.6
			c8.5,4,16.3,9.2,23.5,15.2c1.3,1.1,2.4,2.4,3.3,3.9c5.9,10.8,9.1,22.3,7.4,34.8c-1,7.3-4.4,13.4-10.1,18.1
			C414.1,673.4,401.7,678.6,387.4,678.8z"/>
		<path d="M454.6,627.9c-4.8,0-9.8-0.5-14.9-2.1c-1.6-0.5-2.7-1.4-3.3-3c-4.4-12.1-12.7-21.2-23.3-28.3c-2.2-1.4-3.2-3.3-3.3-6
			c-0.2-8.1,1.9-15.4,6.1-22.2c5.1-8,11.6-14.4,19.8-19.2c9-5.1,18.1-5.5,27.5-1.3c10.7,4.8,19.2,12.2,25.7,22
			c0.7,1,1.3,2.1,1.6,3.3c1.7,7,3.1,14.1,2.6,21.3c-0.5,9.1-4.9,16.4-11.4,22.6c-5.4,5.2-11.8,8.6-18.6,11.6
			C460.7,627.9,457.8,627.6,454.6,627.9z"/>
		<path d="M451,540c1.9-9.1,3.9-17.9,9.5-25.5c2-2.7,4.3-5,7-7c7.5-5.4,16-6.7,24.9-5.9c7.8,0.5,15,2.8,21.9,6.4
			c6.8,3.6,11.4,9.3,14.2,16.3c6.7,16.2,6.8,32.1-1.5,47.9c-1,1.9-2.3,3.3-3.8,4.6c-5.5,4.4-11.3,8.2-18,10.3
			c-2.4,0.7-4.8,1.1-7.4,1.5c-0.5-2.7-1.1-5.2-1.7-7.8c-2-8.1-5-15.7-10.2-22.4c-6.8-8.6-15.7-13.8-26.1-16.5
			C456.8,541,454,540.6,451,540z"/>
		<path d="M206.4,589.2c-2.6,1.1-5.1,2-7.5,3.2c-9.9,4.6-17.3,12.1-22.8,21.4c-1.7,2.8-3.2,5.8-4.5,8.9c-1.4,3.4-2.6,3.9-6.3,3.4
			c-6-1-11.1-3.9-16.3-7c-6.1-3.6-10.1-8.6-11.8-15.6c-0.9-3.4-2.1-6.8-3.1-10.2c-2.8-9.1-1.1-17.2,4.8-24.4
			c8.2-10.1,18.8-15.3,31.7-15c13.3,0.3,22.9,7.3,29.9,18.3C203.8,577.3,205.7,583.4,206.4,589.2z"/>
		<path d="M118.5,528.1c3.1-0.1,5.9,0.2,8.7,0.8c3.7,0.7,6.4,3,9.2,5.1c6.2,5.1,10.9,11.3,13.3,19.1c0.4,1.5,0.1,2.2-1.2,3.1
			c-10.2,6.4-17.5,15.3-20.9,27.1c-1.1,3.8-1.3,4.2-5.2,3.8c-10.1-0.5-18.8-4.3-26.2-10.9c-6.3-5.6-8.2-12.7-6.4-20.8
			c1.6-7.4,5-14.1,9.4-20.2c2.3-3.2,5.2-4.8,9-5.7C111.7,528.8,115.2,528,118.5,528.1z"/>
		<path d="M116.1,524.2c-0.3-1.1,0.1-1.9,0.5-2.5c4.8-7.5,10.8-13.6,19.5-16.3c8.1-2.5,15.6-0.5,22.9,3.2
			c8.3,4.3,12.5,11.1,13.3,20.3c0.7,6.7,0.1,13.1-2.4,19.3c-0.4,1-0.9,1.9-2,2c-5,0.3-9.8,1.5-14.5,3.2c-1-0.8-1-1.7-1.3-2.6
			c-2.7-7.8-6.7-14.8-13.6-19.8c-5.9-4.4-12.6-6.1-19.8-6.6C118,524.4,117,524.6,116.1,524.2z"/>
		<path d="M195.4,560c-3.2-2.5-6.8-4.6-10.5-6.1c-3.7-1.4-7.4-2.8-11.8-3.5c6.3-12.7,4.2-24.6-2.3-36.3c1.2-0.7,2.3-0.8,3.4-0.8
			c8.3,0.2,16.5,1,24,4.9c2.6,1.3,3.9,3.1,3.9,6.1c0,4,0.3,8,0.5,12c0.1,2.2-0.3,4.2-1.9,5.8c-3.6,3.9-4.8,8.6-4.6,13.9
			C196.5,557.4,196.6,558.7,195.4,560z"/>
		<path d="M427.1,434.7c0.9,0.4,0.8,0.9,0.7,1.2c-0.5,3.3-0.2,6.7,0.4,9.9c0.7,3.7,0.9,7.3,0.5,11c-0.5,6.4-0.2,13-1,19.5
			c-1,8.3-4.8,14.9-12.2,19.1c-0.4,0.2-0.8,0.4-1.2,0.7c-0.7,0.3-1.3,0.7-2,0c-0.5-0.5-0.5-1.3-0.2-2c1-2.7,1.4-5.7,2.1-8.5
			c1-5,1.5-10.1,1.2-15.2c-0.7-8.9,1.6-16.9,5.8-24.7C423.2,442,425.6,438.6,427.1,434.7z"/>
		<path d="M351.2,456.3c-0.8,1.9-0.3,3.8-1.6,5.6c-0.8-3.8-1.5-7.4-3.2-10.9c-1.5-3.4-3.7-6.6-5.7-9.8c1.4-0.5,1.9,0.4,2.4,1.1
			c3.7,4.2,7.3,8.6,10.8,13c5.9,7.5,12.6,14.4,19.6,21c0.5,0.5,1.5,0.9,1.4,2.2c-1.4,0.9-2.5,0.1-3.7-0.7c-2.6-1.9-4.9-4-7.1-6.2
			c-4.2-4.3-8-8.7-11.5-13.7C352.3,457.2,352.1,456.7,351.2,456.3z"/>
		<path d="M330.3,216.3c-5-0.1-9.2-1.1-12.7-3.8c-5-4-5.6-10.3-1.1-15c6.3-6.7,19.6-7.8,26.9-2.2c5.5,4.2,5.9,10.9,1,15.6
			C340.3,214.8,335.2,216.1,330.3,216.3z"/>
		<path d="M257.9,221.7c-3.3,0.1-6.4-0.3-9.5-1.4c-3.3-1.2-5.1-3.5-5.7-7c-1.2-8.2,1-11.9,9-14.1c5.8-1.6,11.3-0.8,15.7,3.5
			c5.9,5.4,4.4,15.2-2.7,18.1C262.5,221.7,260.2,221.5,257.9,221.7z"/>
		<path d="M331.5,171.5c-5.1-0.5-10.4-0.7-15-3.4c-5.2-3.2-5.2-8.3-0.1-11.7c5.5-3.5,11.7-3.7,17.9-3.3c2.1,0.1,4,0.8,6.1,1.3
			c3.7,0.8,6,3.5,8.4,6.2c0.8,0.9,0.3,1.7-0.1,2.5c-2.3,4.2-6.1,6.2-10.5,7.3C335.9,171.1,333.8,171.4,331.5,171.5z"/>
		<path d="M256.6,174c-3.4-0.1-6.8-0.7-9.8-2.2c-4.6-2.3-5.5-7.1-2-10.9c1-1,2-2,3.3-2.5c5.7-2.5,11.5-3.1,17.4-0.8
			c3,1.1,5.1,3.3,5.4,6.7c0.2,3.2-1.6,5.4-4.3,6.9c-1.2,0.8-2.4,1.3-3.8,1.7C260.8,173.6,258.7,174,256.6,174z"/>
		<path d="M332.6,137.6c-4.7-0.3-9.3-0.5-13.8-2.2c-0.9-0.3-1.7-0.7-2.5-1.1c-2.4-1.4-2.4-4.3,0-5.8c1.4-0.9,3.1-1.2,4.6-1.4
			c7-1,14-1.2,20.9,1.1c1.2,0.4,2.4,0.7,3.4,1.4c2.5,1.7,2.3,4.8-0.5,6c-2.4,1-4.8,1.5-7.4,1.6C335.5,137.4,334,137.5,332.6,137.6z"
			/>
		<path d="M261.8,127.6c1.7-0.1,4.2,0.2,6.6,1.1c1.7,0.7,3,1.7,3.2,3.6c0.2,2-1.1,3-2.6,3.7c-6.1,3-12.6,3.5-19.1,1.4
			c-1.5-0.4-2.8-1.3-3.1-3.1c-0.3-1.7,0.4-3,2.3-4C252.9,128.1,256.9,127.6,261.8,127.6z"/>
		<path d="M298.8,259.4c-0.2,2.7,1.5,5.7-1.3,7.5c-2.5,1.6-5.5,2.2-8.1,0.4c-2.6-1.7-1.6-4.6-1.7-7.2
			C291.5,259.8,295,259.6,298.8,259.4z"/>
	</g>
</g>
<g>
	<g>
		<path fill="#C4BA98" stroke="#000000" stroke-width="0.5" stroke-miterlimit="10" d="M473.9,632.8v-12h9.4v2.1h-7.2v3.2h3.9v2.2
			h-3.9v3.7L473.9,632.8z"/>
		<path fill="#C4BA98" stroke="#000000" stroke-width="0.5" stroke-miterlimit="10" d="M485.8,623.6c0-1.1,0.2-1.8,0.5-2.2
			c0.3-0.4,0.9-0.6,1.8-0.6h6.8c0.9,0,1.5,0.2,1.8,0.6c0.3,0.4,0.5,1.1,0.5,2.2v6.3c0,1.1-0.2,1.8-0.5,2.2c-0.3,0.4-0.9,0.6-1.8,0.6
			h-6.8c-0.9,0-1.5-0.2-1.8-0.6c-0.3-0.4-0.5-1.1-0.5-2.2V623.6z M488,630.5h7.1v-7.6H488V630.5z"/>
		<path fill="#C4BA98" stroke="#000000" stroke-width="0.5" stroke-miterlimit="10" d="M501.8,630.9v-10.1h7.9
			c0.7,0,1.3,0.2,1.6,0.6c0.3,0.4,0.5,1,0.5,1.8v2.8c0,0.8-0.2,1.4-0.5,1.8c-0.3,0.4-0.9,0.6-1.6,0.6h-1.2l4.3,4.5h-3.1l-3.7-4.5h-2
			v2.2L501.8,630.9z M508.8,622.8h-4.9v3.3h4.9c0.4,0,0.6-0.1,0.8-0.2c0.1-0.1,0.2-0.4,0.2-0.7v-1.5c0-0.4-0.1-0.6-0.2-0.7
			C509.4,622.9,509.1,622.8,508.8,622.8z"/>
	</g>
	<g>
		<path fill="#C4BA98" stroke="#000000" stroke-width="0.5" stroke-miterlimit="10" d="M457.7,657c0.8-0.1,1.3,0.3,1.3,1.1v1.4h2.3
			c0.9,0,1.1,0.3,0.6,0.9h-2.9c0,1.6,0.1,2.3,0.3,2.3c0.4,0.1,0.8,0,1.1-0.2c1-0.2,1.5,0.2,1.4,1.1c-0.1,0.7-0.2,1.8-0.2,3.1
			c0.1,1-0.4,1.4-1.6,1.1c-1.3-0.4-2.6-0.4-3.9,0c-0.8,0.5-1.3,0.3-1.4-0.8c-0.1-1-0.3-2.2-0.6-3.4c0.1-0.8,0.7-1.1,1.7-0.8
			c0.8,0.1,1.3-0.1,1.3-0.6c0-1.1,0-2.2-0.2-3.3C456.7,657.6,456.9,656.9,457.7,657z M456.1,664.5c-0.1,1.3,0.1,1.9,0.6,2
			c2.4,0.3,3.5,0,3.3-1.1c0.2-1.5-0.8-2-3-1.7C456.4,663.7,456.1,664,456.1,664.5z M462.4,660.9c0.4,0,0.7,0,0.8-0.2
			c-0.1-1.1-0.2-2.2-0.2-3.3c-0.1-0.7,0.3-1,1.1-0.9c0.5,0,0.8,0.3,0.8,0.8c-0.1,0.9-0.1,2,0,3.3c3.4-0.5,5.1-0.5,5,0
			c0.2,0.3,0.2,0.5-0.2,0.5c-1.6,0.2-3.1,0.5-4.7,0.8c0.3,0.9,0.6,1.7,0.9,2.3c0.4-0.5,0.8-1.1,1.3-1.9c0.3-0.3,0.6-0.4,0.9-0.3
			c0.4,0.3,0.6,0.7,0.5,1.1c-0.6,0.8-1.2,1.5-1.7,2c1.1,1.1,3,1.7,5.6,1.6c0.2,0.1-0.1,0.6-0.9,1.6c-1.1,1.1-2.3,1.3-3.6,0.6
			c-0.5-0.4-1.3-1.2-2.5-2.3c-1,0.7-2.1,1.1-3.3,1.3c-0.5-0.1-0.6-0.3-0.3-0.6c1-0.3,2-0.9,2.8-1.9c-0.4-0.6-0.8-1.7-1.3-3.1
			c-0.5,0.1-1,0.3-1.4,0.5c-0.6,0.1-0.9-0.2-0.8-0.9C461.3,661.3,461.6,661,462.4,660.9z M467.4,657.3c0.3-0.7,0.7-0.9,1.3-0.6
			c0.5,0.3,0.7,0.7,0.5,1.3c-0.4,0.6-1.1,1-2,1.1c-0.4,0-0.6-0.2-0.5-0.5C466.9,658.1,467.2,657.7,467.4,657.3z"/>
		<path fill="#C4BA98" stroke="#000000" stroke-width="0.5" stroke-miterlimit="10" d="M479.7,660.9c0.5,0,0.9,0.2,1.1,0.5
			c-0.1,0.4-0.5,0.6-1.1,0.5c-0.6,0-1.3,0-1.9,0.2c0.2,0.3,0.1,0.6-0.3,0.9l-0.8,0.8c-0.3,0.4,0,0.7,0.8,0.8
			c0.6,0.1,1.1-0.1,1.6-0.6l-0.5-0.9c0.1-0.3,0.3-0.4,0.6-0.3c0.3,0.2,0.6,0.4,0.9,0.6c0.2,0.4,0.5,0.9,0.8,1.4
			c-0.1,0.2-0.2,0.3-0.3,0.3c-0.4,0.1-0.8-0.1-1.3-0.6c-0.6,1.1-1.3,1.6-2,1.3c-0.6-0.4-1.2-0.5-1.7-0.2c-0.2,0-0.4-0.2-0.6-0.5
			c-0.1-0.4,0.1-0.8,0.6-1.3c0.9-0.8,1.3-1.4,0.9-1.7c-0.4-0.1-1,0-1.9,0.3c-0.3,0.2-0.5,0.2-0.6-0.2c0.1-0.7,0.5-1.1,1.1-1.3
			L479.7,660.9L479.7,660.9z M479.7,658.7c0.3,0,0.5,0.2,0.6,0.5c0,0.3-0.1,0.5-0.3,0.5h-2.5c-0.7,0-1.4,0-2,0.2
			c-0.2-0.1-0.3-0.3-0.3-0.6c0.1-0.3,0.3-0.6,0.6-0.8C476.5,658.6,477.8,658.7,479.7,658.7z M483.8,663.1c-0.3-0.1-0.6-0.1-0.9,0
			c-0.3,0.2-0.6,0.4-0.9,0.5c-0.2,0-0.4,0-0.5-0.2c-0.2-1.6-0.4-3-0.6-4.2c-0.1-0.6,0.2-0.9,0.9-0.9c0.3,0.2,0.8,0.3,1.6,0.2
			c0.3-0.3,0.7-0.8,1.1-1.6c0.1-0.2,0.3-0.3,0.6-0.3c0.9,0.3,1.2,0.7,0.8,1.1c-0.3,0.3-0.6,0.6-0.8,0.8c0.7,0,1.7,0.1,2.8,0.3
			c0.3-0.1,0.6-0.2,0.8-0.3c0.3-0.1,0.6,0,0.8,0.2c0.4,0.3,0.5,0.8,0.3,1.4c-0.3,0.9-0.5,1.9-0.6,3l-0.5,0.3
			c0.4,0.3,0.5,0.6,0.2,0.8c-0.2,0.2-0.4,0.4-0.6,0.6c-0.2,0.1-0.2,0.3,0.2,0.5c0.4,0.1,0.8,0,1.1-0.2c-0.4-0.3-0.5-0.5-0.2-0.6
			c0.4,0,0.7,0,0.9,0.2c0.2,0.3,0.4,0.6,0.6,0.9c-0.1,0.1-0.3,0.2-0.5,0.3l-0.6-0.5c-0.2,0.6-0.6,0.9-1.1,0.8
			c-0.4-0.3-0.8-0.4-1.3-0.3c-0.3-0.2-0.4-0.5-0.3-0.8c0.2-0.2,0.4-0.5,0.6-0.8c0.1-0.2,0.3-0.5,0.5-0.9c-0.8-0.1-1.8-0.2-3-0.2
			c-0.7,2.4-2.1,4.1-4.2,5.2c-1.7,0.6-2.9,0.4-3.7-0.8c0-0.1,0.2-0.2,0.6-0.2C481.1,667,483,665.6,483.8,663.1z M484.2,659.2
			c-0.7,0-1.3,0.1-1.7,0.3c-0.2,0.6-0.1,0.9,0.3,0.9l1.7-0.2C484.6,659.7,484.5,659.4,484.2,659.2z M484.4,661c-0.5,0-1.1,0-1.9,0.2
			c0,0.7,0.2,1.1,0.5,1.1l1.1-0.2L484.4,661z M485.5,663.9c0.1-0.4,0.3-0.6,0.6-0.6c0.2,0,0.4,0.1,0.5,0.3c-0.2,0.4-0.4,0.8-0.5,1.3
			c0,0.4,0,0.7,0.2,0.9c0.4,0.5,1.3,0.9,2.5,1.1c1,0.1,2,0,3-0.3c0.6-0.3,1-0.4,1.3-0.2c-0.1,0.6-0.5,1.4-1.1,2.2
			c-0.7,0.6-1.4,0.8-1.9,0.6c-1.8-0.3-3.2-1-4.4-2.2c-0.5-0.6-0.7-1.2-0.6-1.7C485.2,664.7,485.4,664.3,485.5,663.9z M487.8,662.4
			c0.2-0.4,0.3-0.8,0.2-1.1c-0.4-0.2-1.2-0.3-2.3-0.3c-0.1,0.4-0.2,0.8-0.2,1.3C486.3,662.4,487.1,662.4,487.8,662.4z M485.8,660.3
			l1.7,0.2c0.4,0.1,0.6-0.1,0.6-0.6c0-0.4-0.6-0.6-1.9-0.6C485.9,659.3,485.8,659.6,485.8,660.3z"/>
		<path fill="#C4BA98" stroke="#000000" stroke-width="0.5" stroke-miterlimit="10" d="M499.5,660.1c0.2-0.4,0.4-0.6,0.5-0.6
			c0.5-0.1,0.7,0.3,0.5,1.1c-0.3,0.9-0.8,1.9-1.4,3c-0.5,0.8-1,1.5-1.6,1.9c-1,0.9-2.1,0.9-3.3-0.2c-0.3-0.3-0.2-0.6,0.3-0.9
			C496.3,663.5,498,662.1,499.5,660.1z M503.1,657c1-0.1,1.5,0.5,1.4,1.7c-0.1,2.6,0,5.5,0.2,8.7c0,1.3-1,1.8-3,1.7
			c-1-0.1-2.2-0.7-3.6-1.7c-0.2-0.5-0.1-0.8,0.3-0.8c2,0.6,3.2,0.7,3.6,0.3c0.3-0.2,0.4-3.1,0.3-8.7
			C502.3,657.4,502.6,657,503.1,657z M505.6,660.6c-0.3-0.4-0.3-0.7,0.2-0.9c0.2-0.1,0.4,0,0.6,0.2c1.5,1.9,3.6,3.5,6.6,4.8
			c-0.3,0.5-0.6,0.9-0.9,1.1c-0.9,0.8-1.8,0.8-2.7,0C508,664.1,506.8,662.3,505.6,660.6z"/>
		<path fill="#C4BA98" stroke="#000000" stroke-width="0.5" stroke-miterlimit="10" d="M521.1,662.8c-0.3,1-0.6,1.8-0.9,2.3l2-0.3
			c-0.1-0.4-0.2-0.8-0.2-1.3c0.1-0.4,0.5-0.7,1.1-0.8c0.4,0,0.8,0.1,1.1,0.3c0.4,0.1,0.7,0.1,0.9,0v-5.2c0-0.6,0.2-1,0.6-1.1
			c1,0,1.6,0.4,1.6,1.1c-0.1,0.5-0.2,0.9-0.2,1.3c2.2,0.1,4,0.2,5.5,0.2c0,0.5-0.2,1-0.5,1.4c-0.4,0.4-0.8,0.5-1.3,0.3
			c-1.7-0.5-2.9-0.7-3.7-0.5c-0.2,0.8-0.2,1.7,0,2.5c0.7,0.1,1.3,0,1.7-0.2c1.3-0.4,2,0,2,1.1c-0.2,0.8-0.3,1.9-0.3,3.1
			c0.2,1.3-0.3,1.8-1.4,1.4c-1.5-0.2-3-0.3-4.7-0.2c-1.3,0.6-1.9,0.3-2-1.1c0-0.3,0-0.9-0.2-1.7c-2.1,0.9-4.5,1.7-7.3,2.2
			c-0.9,0.2-1.4-0.2-1.3-1.1c0-0.5,0.5-0.8,1.6-0.9c1.1-0.1,2.4-0.3,3.9-0.5c0.3-1.1,0.5-2.2,0.5-3.3c0-0.7,0.2-1.1,0.6-1.1
			C521.1,661,521.4,661.6,521.1,662.8z M519.8,657.9c-0.1,1.3,0,1.8,0.3,1.7l2.2,0.2c0.5,0.4,0.6,0.7,0.2,0.9
			c-0.2,0.1-0.6,0.2-1.1,0.2c-2.1-0.4-4.2-0.3-6.4,0.5c-0.4,0.1-0.6,0-0.6-0.5c0.2-0.9,0.6-1.3,1.3-1.3c0.8,0.2,1.5,0.3,1.9,0.2
			c0.3-0.1,0.4-0.7,0.3-1.9c0.1-0.4,0.3-0.6,0.6-0.6C519,657.2,519.5,657.4,519.8,657.9z M518.3,664.8c-0.2,0.3-0.5,0.4-0.8,0.2
			c-0.6-0.9-1-1.8-1.1-2.5c-0.1-0.7,0.2-1.1,0.8-1.3c0.5-0.1,0.8,0.1,0.8,0.6C518.1,662.9,518.1,663.9,518.3,664.8z M527,664.2
			c-1.5-0.1-2.4,0-2.8,0.3c-0.3,0.7-0.3,1.5,0,2.2c0.1,0.5,1.3,0.7,3.4,0.5c0.9,0,1.4-0.5,1.4-1.6C529,664.5,528.4,664.1,527,664.2z
			"/>
	</g>
	
		<linearGradient id="SVGID_1_" gradientUnits="userSpaceOnUse" x1="406.339" y1="275.4826" x2="406.339" y2="275.4826" gradientTransform="matrix(1.0929 0 0 -1.0929 0 955.5428)">
		<stop  offset="0" style="stop-color:#C4BA98"/>
		<stop  offset="1.474962e-002" style="stop-color:#CEC5A9"/>
		<stop  offset="4.332456e-002" style="stop-color:#DDD7C4"/>
		<stop  offset="7.615717e-002" style="stop-color:#EAE6DA"/>
		<stop  offset="0.1145" style="stop-color:#F3F1EB"/>
		<stop  offset="0.162" style="stop-color:#FAF9F6"/>
		<stop  offset="0.2285" style="stop-color:#FEFEFD"/>
		<stop  offset="0.4133" style="stop-color:#FFFFFF"/>
		<stop  offset="0.4696" style="stop-color:#DDDBD8"/>
		<stop  offset="0.5499" style="stop-color:#B2AFA6"/>
		<stop  offset="0.6258" style="stop-color:#908B7F"/>
		<stop  offset="0.6952" style="stop-color:#787263"/>
		<stop  offset="0.7558" style="stop-color:#696252"/>
		<stop  offset="0.801" style="stop-color:#645D4C"/>
		<stop  offset="0.8499" style="stop-color:#776F5B"/>
		<stop  offset="0.9484" style="stop-color:#A89F82"/>
		<stop  offset="1" style="stop-color:#C4BA98"/>
	</linearGradient>
	
		<linearGradient id="SVGID_2_" gradientUnits="userSpaceOnUse" x1="406.339" y1="275.4826" x2="406.339" y2="275.4826" gradientTransform="matrix(1.0929 0 0 -1.0929 0 955.5428)">
		<stop  offset="0" style="stop-color:#C4BA98"/>
		<stop  offset="1.389108e-002" style="stop-color:#C7BD9D"/>
		<stop  offset="0.1655" style="stop-color:#E5E1D2"/>
		<stop  offset="0.2794" style="stop-color:#F8F7F3"/>
		<stop  offset="0.3418" style="stop-color:#FFFFFF"/>
		<stop  offset="0.4046" style="stop-color:#E1E0DC"/>
		<stop  offset="0.5083" style="stop-color:#B5B1A9"/>
		<stop  offset="0.6058" style="stop-color:#928D81"/>
		<stop  offset="0.6943" style="stop-color:#797364"/>
		<stop  offset="0.7708" style="stop-color:#696352"/>
		<stop  offset="0.8265" style="stop-color:#645D4C"/>
		<stop  offset="0.8691" style="stop-color:#776F5B"/>
		<stop  offset="0.955" style="stop-color:#A89F82"/>
		<stop  offset="1" style="stop-color:#C4BA98"/>
	</linearGradient>
	<path fill="url(#SVGID_1_)" stroke="url(#SVGID_2_)" stroke-width="0.5" stroke-miterlimit="10" d="M444.1,654.5"/>
	
		<linearGradient id="SVGID_3_" gradientUnits="userSpaceOnUse" x1="414.7181" y1="281.8274" x2="414.7181" y2="281.8274" gradientTransform="matrix(1.0929 0 0 -1.0929 0 955.5428)">
		<stop  offset="0" style="stop-color:#C4BA98"/>
		<stop  offset="1.474962e-002" style="stop-color:#CEC5A9"/>
		<stop  offset="4.332456e-002" style="stop-color:#DDD7C4"/>
		<stop  offset="7.615717e-002" style="stop-color:#EAE6DA"/>
		<stop  offset="0.1145" style="stop-color:#F3F1EB"/>
		<stop  offset="0.162" style="stop-color:#FAF9F6"/>
		<stop  offset="0.2285" style="stop-color:#FEFEFD"/>
		<stop  offset="0.4133" style="stop-color:#FFFFFF"/>
		<stop  offset="0.4696" style="stop-color:#DDDBD8"/>
		<stop  offset="0.5499" style="stop-color:#B2AFA6"/>
		<stop  offset="0.6258" style="stop-color:#908B7F"/>
		<stop  offset="0.6952" style="stop-color:#787263"/>
		<stop  offset="0.7558" style="stop-color:#696252"/>
		<stop  offset="0.801" style="stop-color:#645D4C"/>
		<stop  offset="0.8499" style="stop-color:#776F5B"/>
		<stop  offset="0.9484" style="stop-color:#A89F82"/>
		<stop  offset="1" style="stop-color:#C4BA98"/>
	</linearGradient>
	
		<linearGradient id="SVGID_4_" gradientUnits="userSpaceOnUse" x1="414.7181" y1="281.8274" x2="414.7181" y2="281.8274" gradientTransform="matrix(1.0929 0 0 -1.0929 0 955.5428)">
		<stop  offset="0" style="stop-color:#C4BA98"/>
		<stop  offset="1.389108e-002" style="stop-color:#C7BD9D"/>
		<stop  offset="0.1655" style="stop-color:#E5E1D2"/>
		<stop  offset="0.2794" style="stop-color:#F8F7F3"/>
		<stop  offset="0.3418" style="stop-color:#FFFFFF"/>
		<stop  offset="0.4046" style="stop-color:#E1E0DC"/>
		<stop  offset="0.5083" style="stop-color:#B5B1A9"/>
		<stop  offset="0.6058" style="stop-color:#928D81"/>
		<stop  offset="0.6943" style="stop-color:#797364"/>
		<stop  offset="0.7708" style="stop-color:#696352"/>
		<stop  offset="0.8265" style="stop-color:#645D4C"/>
		<stop  offset="0.8691" style="stop-color:#776F5B"/>
		<stop  offset="0.955" style="stop-color:#A89F82"/>
		<stop  offset="1" style="stop-color:#C4BA98"/>
	</linearGradient>
	<path fill="url(#SVGID_3_)" stroke="url(#SVGID_4_)" stroke-width="0.5" stroke-miterlimit="10" d="M453.2,647.5"/>
	<g>
		<g>
			<path fill="#C4BA98" stroke="#000000" stroke-width="0.5" stroke-miterlimit="10" d="M449.2,639.2h-6v4.7h3.3v3.3h-3.3v5.8
				l-1.8,0.8V636h7.8V639.2"/>
			<path fill="#C4BA98" stroke="#000000" stroke-width="0.5" stroke-miterlimit="10" d="M451.4,650.7v-0.9v-13.8h6.6
				c0.6,0,1.1,0.3,1.3,0.8c0.3,0.6,0.4,1.4,0.4,2.6v4.2c0,1.2-0.1,2.1-0.4,2.6c-0.3,0.6-0.7,0.8-1.3,0.8h-1l3.6,6.7H458l-3.1-6.7
				h-1.7v2.2v1L451.4,650.7z M457.2,639.1h-4.1v5h4c0.3,0,0.5-0.1,0.6-0.3c0.1-0.2,0.2-0.6,0.2-1.1v-2.1c0-0.5-0.1-0.9-0.2-1.1
				C457.7,639.2,457.5,639.1,457.2,639.1z"/>
			<path fill="#C4BA98" stroke="#000000" stroke-width="0.5" stroke-miterlimit="10" d="M463.4,653.9V636h1.8v17.9H463.4z"/>
			<path fill="#C4BA98" stroke="#000000" stroke-width="0.5" stroke-miterlimit="10" d="M469.1,653.9V636h7.9v3h-6.1v4h3.6v3h-3.6
				v4.4h6.2v3.4L469.1,653.9L469.1,653.9z"/>
			<path fill="#C4BA98" stroke="#000000" stroke-width="0.5" stroke-miterlimit="10" d="M480.4,653.9V636h1.2l5.4,10.5
				c0.2,0.4,0.4,0.7,0.5,1s0.3,0.6,0.4,0.9c0-1,0-1.7-0.1-2.1c0-0.4,0-0.7,0-1V636h1.6v17.9h-1.2l-5.7-11c-0.1-0.3-0.3-0.5-0.4-0.8
				c-0.1-0.2-0.2-0.5-0.3-0.7c0,0.6,0,1.1,0,1.6c0,0.5,0,0.9,0,1.3v9.6H480.4L480.4,653.9z"/>
			<path fill="#C4BA98" stroke="#000000" stroke-width="0.5" stroke-miterlimit="10" d="M493.4,653.9V636h5c1.4,0,2.5,0.8,3.3,2.3
				c0.8,1.5,1.1,3.7,1.1,6.5c0,1.7-0.2,3.2-0.4,4.5c-0.3,1.3-0.7,2.4-1.3,3.1c-0.3,0.5-0.7,0.8-1.3,1.1c-0.5,0.2-1.1,0.3-1.9,0.3
				L493.4,653.9L493.4,653.9z M495.2,650.5h2.3c1.2,0,2.1-0.4,2.6-1.3c0.5-0.9,0.8-2.4,0.8-4.4c0-1.8-0.2-3.2-0.6-4.1
				c-0.4-0.9-1.1-1.4-1.9-1.4h-3.2L495.2,650.5L495.2,650.5z"/>
			<path fill="#C4BA98" stroke="#000000" stroke-width="0.5" stroke-miterlimit="10" d="M512.8,639.2h-5.1v3.8h4.8
				c0.7,0,1.3,0.3,1.5,0.9s0.4,1.7,0.4,3.3v2.5c0,1.6-0.1,2.7-0.4,3.3s-0.8,0.9-1.5,0.9h-4.8c-0.7,0-1.3-0.3-1.5-0.9
				s-0.4-1.7-0.4-3.3v-0.5l1.6-0.8v2.1h5.5v-4.1h-4.8c-0.7,0-1.3-0.3-1.5-0.9c-0.3-0.6-0.4-1.7-0.4-3.3v-2c0-1.6,0.1-2.7,0.4-3.3
				c0.3-0.6,0.8-0.9,1.5-0.9h4.4c0.7,0,1.2,0.3,1.5,0.9s0.4,1.6,0.4,3.1v0.4l-1.6,0.9V639.2L512.8,639.2z"/>
			<path fill="#C4BA98" stroke="#000000" stroke-width="0.5" stroke-miterlimit="10" d="M525.6,651.2v-5H520v7l-1.8,0.6V636h1.8v6.9
				h5.6V636h1.8v14.5L525.6,651.2z"/>
			<path fill="#C4BA98" stroke="#000000" stroke-width="0.5" stroke-miterlimit="10" d="M531.3,653.9V636h1.8v17.9H531.3z"/>
			<path fill="#C4BA98" stroke="#000000" stroke-width="0.5" stroke-miterlimit="10" d="M537.1,653.9V636h6.6c0.6,0,1.1,0.3,1.3,0.8
				c0.3,0.6,0.4,1.4,0.4,2.6v4c0,1.2-0.1,2.1-0.4,2.6c-0.3,0.6-0.7,0.8-1.3,0.8h-4.8v6.2L537.1,653.9z M542.9,639.1h-4.1v4.7h4
				c0.3,0,0.5-0.1,0.6-0.3c0.1-0.2,0.2-0.6,0.2-1.1v-1.9c0-0.5-0.1-0.9-0.2-1.1C543.4,639.2,543.2,639.1,542.9,639.1z"/>
		</g>
	</g>
</g>
</svg>
