<?xml version="1.0" encoding="utf-8"?>
<!-- Generator: Adobe Illustrator 18.1.1, SVG Export Plug-In . SVG Version: 6.00 Build 0)  -->
<svg version="1.1" id="图层_1" xmlns="http://www.w3.org/2000/svg" xmlns:xlink="http://www.w3.org/1999/xlink" x="0px" y="0px"
	 viewBox="0 0 560 560" enable-background="new 0 0 560 560" xml:space="preserve">
	 <style type="text/css">
	.st0{fill:#FFFFFF;}
</style>
<g>
	<g>
		<path class="st0" d="M150.7,329.1c-1.4-2.2-1.5-4.6-0.7-7.1c3.2-10.1,3.9-20.4,4.2-30.9c0.4-11.2,0.8-22.4,1.3-33.6c0.4-10-0.1-20-0.6-30
			c-0.2-4.3,0-8.5,0.5-12.7c0.5-3.9,2.6-6.5,6.4-7.7c1.3-0.4,1.5-1,1.4-2.2c-0.1-9.3-0.2-18.6,1.7-27.8c1.4-7,2.1-14.1,3.5-21.1
			c1.3-6.5,5.1-11.9,9.1-17c5.8-7.3,12.1-14.1,19.4-19.9c0.7-0.6,1.4-1.2,1.8-2c5.1-10.3,11.7-19.7,17.6-29.5
			c4.3-7.1,8.5-14.4,12-21.9c1.9-4,3.3-8.1,4.3-12.4c2-8.6,4.7-17,9.5-24.6c3.8-6,8.4-11.3,14.3-15.3c5.5-3.7,11.6-4.9,18.1-4.8
			c11.6,0.2,20.7,5.2,27.7,14.3c5.1,6.6,6.8,14.2,5.7,22.4c-0.4,3.2-1,6.3-1.8,9.3c-0.4,1.5-0.8,1.9-2.4,1.3
			c-6.7-2.6-13.5-4.5-20.7-4.8c-8.4-0.4-16,1.6-22.9,6.4c-1.1,0.8-1.8,0.6-2.8-0.3c-1.9-1.9-3.2-4.2-4.9-6.2c-0.3-0.3-0.6-0.6-0.9-1
			c-0.9,0.9-0.9,1.9-0.8,2.9c0.3,2.4,0.9,4.7,2.8,6.5c2,2,2.2,3.9,0.4,7.2c-2.2,4.2-2.9,8.6-2.6,13.2c0.2,2.6,0.3,5.2,0.7,7.7
			c0.3,1.9-0.2,2.8-2,3.5c-11.6,4.5-22.8,9.8-33.6,16c-0.7,0.4-1.4,1.2-2.4,0.3c-0.9-0.9-0.7-1.8-0.2-2.8c1.3-2.6,2.7-5.2,3.9-7.9
			c2.7-5.6,5-11.4,6.9-17.4c0.1-0.4,0.2-0.8,0.2-1.2c-6.8,12.3-14.9,23.8-22.2,36.5c1.7-0.8,3-1.4,4.2-1.9
			c10.7-3.9,21.1-8.4,31.5-13.2c4.5-2.1,8.7-4.5,13.1-6.7c9-4.5,18.7-6.1,28.7-6.4c10.3-0.3,20.3,1.4,30.2,3.8
			c2.5,0.6,2.4,0.6,2.2-2c-0.6-5.8-1.6-11.6-1.3-17.5c0.2-3.9-2-6.5-5.4-8.2c-8.4-4.3-17.4-6-26.8-5.3c-3.3,0.2-6.6,0.6-9.8,1.2
			c-7.2,1.4-12.2,7-12.6,14.4c-0.3,4.6-0.5,9.2-0.8,13.8c0,0.5-0.1,1.1-0.2,1.6c-0.2,0.7-0.7,1-1.4,0.9c-0.6-0.1-0.4-0.8-0.4-1.2
			c0-4,0-7.9,0.1-11.9c0.1-3.4,0.7-6.7,1.9-9.9c1.5-4.2,4.3-7.2,8.5-8.7c5.5-2,11.1-3.7,17-4.5c1.1-0.1,2.2-0.3,3.2,0
			c6.6,1.6,13.2,3.4,19.5,6.1c2.4,1.1,4.1,3,6.2,4.5c2.5,1.8,3,4.1,3.2,6.8c0.5,6.4,1.4,12.9,2,19.3c0.1,1.3,0.7,1.8,1.9,2.2
			c9.3,2.6,18.3,5.9,26.8,10.8c5.2,3,10.2,6.4,14.8,10.1c8.6,7,16.8,14.2,24.8,21.9c9.6,9.4,16.8,20.3,21.6,32.8
			c0.8,2,0.8,2,2.4,0.7c2-1.6,3.9-1.1,4.9,1.3c0,0.1,0.1,0.2,0.1,0.3c1.4,10.6,5.8,20.5,7.3,31.1c1.4,9.9,1.7,19.8,0.8,29.8
			c-0.7,7.6-1.3,15.3-1.6,22.9c-0.3,7.1-1.7,14.1-1,21.3c0.4,4.3,0.4,8.6,0,12.9c-0.1,1.5-0.2,3.1-0.7,4.6c-2,6.3-2.4,12.9-3.5,19.4
			c-0.3,2,0.2,3.5,1.8,4.7c3.2,2.5,4.3,5.8,3.9,9.7c-0.3,3.1-1.3,6.1-2.5,9c-3,7.6-3,15.1,0.1,22.6c1,2.6,1.6,5.3,1.6,8.1
			c-0.2,4.6-2.5,8.2-5.8,11.1c-2.7,2.4-5.7,4.2-8.9,5.8c-0.7,0.4-1.3,0.7-1.3,1.7c-0.1,8.2-1.6,16.2-2.3,24.3
			c-0.3,3.7,0,7.5-0.7,11.1c-0.8,4-0.7,7.1,2.2,10.5c2.6,3.1,3.2,7.4,4.5,11.3c0.5,1.6-0.1,3.2-0.9,4.7c-1.7,3.3-3.8,6.3-6.5,8.8
			c-6.6,6.1-10.7,13.9-14.7,21.8c-5.1,10.1-10.3,20-17.2,29c-11.9,15.5-27,27.1-44.6,35.5c-7,3.4-14.1,6.8-20.5,11.2
			c-6.3,4.3-12.9,5-20,2.9c-7.2-2.1-14.3-4.5-21.1-7.6c-3.5-1.6-7.1-2.4-10.9-2.6c-5.4-0.3-10.7-1.4-15.9-2.9
			c-1.3-0.4-2.7-0.6-4.1-0.5c-2.2,0.2-4.1-0.6-5.5-2.4c-0.9-1.1-2-2-3.3-2.8c-9.4-6-17.1-13.9-24.4-22.2c-2.3-2.6-3.2-5.9-3.9-9.2
			c-1.3-5.8-2.8-11.5-4.4-17.2c-0.5-1.8-1.3-3.4-2.9-4.6c-4.5-3.5-6.6-8.2-6.9-13.9c-0.8-10.9-1.6-21.8-2.4-32.6
			c-0.5-6.6-1.3-13.1-3.2-19.5c-1.1-3.6-0.9-7.4-0.2-11c0.4-2,0.2-3.6-1.7-4.9c-1.1-0.7-2-1.7-2.9-2.6c-2.9-2.8-4.4-6.3-3.9-10.4
			c0.5-3.7,0.1-7.3-0.5-10.9c-0.4-2.6-0.7-5.2-0.4-7.9c0.3-3.1,1.4-6,3.6-8.3c0.7-0.7,0.7-1.2,0-2c-2.6-3.2-5.2-6.4-7.8-9.7
			c-3.6-4.6-6.1-9.7-5.1-15.8c0.1-0.7-0.2-1.1-0.8-1.4c-1-0.5-2.1-1-3-1.5c-0.6-0.3-1.3-0.7-1.3-1.4
			C149.2,329.3,150.2,329.6,150.7,329.1z M319.6,345.4c1.6,0.4,2.6-0.3,3.8-0.6c6.5-1.4,13-2.6,19.5-4.4c5.9-1.6,11.9-2.1,18-2.2
			c6.3-0.1,12.4,1.2,18.6,1.7c7.2,0.6,14-0.2,20-4.7c0.6-0.4,1.2-1.3,2-0.6c0.8,0.6,0.5,1.5,0.2,2.3c-0.6,1.7-1.2,3.4-1.7,5.1
			c-1.6,6.3-0.6,11.9,4.2,16.5c0.2,0.2,0.6,0.4,0.4,1c-0.9,0.1-1.6-0.4-2.2-0.9c-3.4-3.1-7.6-4.9-11.3-7.7c-3-2.3-6-2.3-9.2-0.4
			c-7,4.1-14.5,5.7-22.6,4.3c-1.7-0.3-3.5-0.5-5.5-0.9c1.6,3.2,3.8,5.5,6,7.8c5.1,5.1,11.6,8.3,17.9,11.6c1.8,1,3.6,1.9,5.2,3.2
			c0.8,0.7,1.2,1.3,0.2,2.2c-0.4,0.3-0.6,0.9-1,1.3c-0.4,0.5-1,0.9-1.6,0.4c-1.6-1.2-3.1-0.5-4.6,0c-7.1,2.3-14,5.3-21,7.9
			c-0.4,0.2-1,0.1-1.2,0.8c2.7,2.4,5.5,4.8,8.1,7.3c2.5,2.4,5.2,3,8.4,2c4.1-1.2,8.1-2.6,12.1-4.1c0.9-0.4,1.9-0.8,2.9,0.4
			c-3.2,1.4-4.1,4.3-5.3,7.2c-1.8,4.6-4.3,8.8-7.7,12.4c-3.2,3.4-7.2,5.5-11.3,7.5c-5,2.5-4.9,2.6-3.9,8.1c0.8,4.6,1.9,9.2,1.7,13.9
			c-0.1,2.5,0.1,5,0.2,7.5c0.4,5.6,2.7,10.7,4.3,15.9c1.2,4,2.1,4.3,5.7,2.3c3.1-1.7,5.8-4,7.9-7c0.3-0.4,0.5-1,1.1-0.7
			c0.7,0.4,0.3,0.9,0.1,1.4c-0.5,1-1.1,2-1.6,3c-2.2,3.9-4.2,8-7.6,11.1c-3.3,3-6.8,5.9-10.3,8.7c-2.8,2.2-6,2.9-9.5,2.1
			c-1.3-0.3-2.7-0.4-4.1-0.4c-2,0-3.5,0.9-4.2,2.8c-2,5.3-4.6,10.3-7.3,15.2c-0.5,0.9-1,1.9-0.8,3.2c0.9-0.5,1.6-0.9,2.3-1.3
			c4.4-2.9,8.8-5.9,12.9-9.1c18.7-14.2,34.9-31.1,50.5-48.5c2-2.2,3.2-4.8,3.9-7.6c0.4-1.7,0.4-3.5-0.6-5c-1.5-2.4-3.2-4.8-4.7-7.2
			c-0.7-1-1.2-1.1-2.3-0.5c-5.5,3.2-10.9,6.5-15.7,10.7c-0.3,0.3-0.6,0.8-1.3,0.7c-0.2-2,1-3.3,2.3-4.6c3.6-3.6,7.6-6.6,11.7-9.5
			c2.3-1.6,3.8-3.6,3.8-6.6c0-4.6,0.8-9.2,1.7-13.7c1.4-6.8,2.7-13.5,4.1-20.3c0.4-2,0.3-2.1-1.7-1.4c-1.2,0.4-2.4,0.9-3.6,1.2
			c-1,0.2-2.6,0.7-2.9-0.2c-0.4-1.1,1.2-1.5,2.1-2c4.6-2.3,9-4.8,12.8-8.2c6-5.3,10-11,5.2-20.8c-3-6-3.2-12.5-0.9-18.9
			c1.2-3.2,2.2-6.5,3.2-9.7c0.8-2.6,0.6-5.2-1-7.6c-0.5-0.7-0.9-1.1-1.6-0.2c-2.4,2.8-5.4,4.9-8.3,7.2c-5.1,4-10.9,6.4-17.3,7.5
			c-8,1.3-16,1.1-24,0.8c-15.2-0.7-30.3,0.9-45.2,3.7c-7.5,1.4-14.9,3-22.6,2.9c-6-0.1-11.9-1.2-17.8-2c-12.7-1.6-25.3-3.1-38-4.8
			c-13.9-1.8-27.7-1.9-41.5,0.6c-7.9,1.4-15.9,1.9-24,1.7c-5.2-0.1-10.3-0.6-15.4-1.5c-1.2-0.2-1.8,0-1.6,1.4
			c0.2,1.4,0.4,2.8,0.9,4.2c1,2.8,3,4.7,4.9,6.8c5.2,5.7,9,12.4,13.8,18.4c0.4,0.5,0.7,1,0.2,1.9c-1.8-1.4-3.6-2.8-5.3-4.3
			c-1.2-1.1-1.7-0.7-2.4,0.5c-2.3,3.8-2.3,7.7-1.2,11.8c1.1,4.1,2,8.2,1.4,12.4c-0.7,4.5,0.7,8.2,3.9,11.2c2.3,2.2,4.5,4.4,6.6,6.9
			c2.5,2.9,5.3,5.6,8.1,8.2c1.8,1.7,3.7,3.1,6,4c8.3,3,16.9,4.2,25.6,2.7c9.1-1.6,18.2-2.9,27.5-2.2c6.4,0.5,12.4-1,17.8-4.5
			c1.5-1,3-1.9,4.8-2.5c7.6-2.3,14.2,0.2,20,5c1.8,1.5,2.1,3.7,1.6,5.9c-0.5,2-1,4-1.6,5.9c-0.9,2.9-0.2,5.3,1.8,7.5
			c2.9,3.1,5.5,6.5,8,9.9c1.4,1.9,2.7,4,3,6.4c0.6,5.6,0.6,11.3-1,16.8c-4.9,17.2-14.6,31.1-29,41.7c-1.1,0.8-2.3,1.6-3.6,2
			c-6.3,1.4-12.6,2.7-19,1.9c-4.9-0.6-9.7-1.7-14.6-1.7c-4.1,0-7.3-2.1-9.9-5.2c-5.1-6.2-8.6-13.2-11.2-20.8
			c-0.5-1.5-0.1-2.6,1.4-3.1c3.8-1.4,7.7-2.2,11.8-1.3c1.8,0.4,3.5,0.7,5.3,0.7c6.5,0,12.3-2.5,17.7-5.7c9-5.4,17.4-11.6,26.1-17.3
			c1.9-1.3,3.6-2.8,5.1-4.6c2.9-3.3,5.3-6.9,6.6-11.2c0.4-1.3,0-1.8-1.3-1.8c-1.9-0.1-3.7,0.4-5.4,1.1c-6.6,2.6-12.6,6.4-18.9,9.7
			c-3.7,1.9-7.5,3.6-11.7,4.4c-9.8,1.9-19.8,2.9-29.7,4.5c-2.9,0.5-5.4-0.4-7.6-2.4c-6.2-5.9-13-10.9-20.5-15.2
			c-0.5-0.3-1.2-0.5-1.6-1.6c1.8,1.4,3.6,0.9,5.4,0.9c0.4,0,0.9,0,1.2,0.1c5.6,2,11.5,2.7,17.3,4c4.1,0.9,8.2,1.6,12.3,0.4
			c10.6-3.2,21.2-5.9,32.3-6.6c0.9-0.1,1.9-0.3,2.5-0.9c2.3-2.5,4.3-5.2,5.3-8.5c0.3-1,0.1-1.5-1.1-1.3c-0.5,0.1-1,0.3-1.6,0.4
			c-6.5,2-13.1,3.3-19.9,4.1c-10.5,1.2-21.1,1.4-31.6,1.2c-12-0.1-21.8-4.9-28.6-14.8c-2.6-3.7-5.2-7.3-8.1-10.7
			c-0.2-0.3-0.4-0.8-1-0.6c-0.2,3.2,0.7,6.3,2,9.2c1.6,3.7,2.7,7.5,3,11.4c0.5,7.1,1.1,14.1,1.8,21.1c0.3,3.1,0.2,6.2,0.1,9.3
			c-0.1,4.9,0,9.8,3.2,13.9c6.6,8.5,12.9,17.3,19.1,26.2c5.3,7.5,11.6,13.6,20,17.8c8.1,4.1,15.6,9.1,22.7,14.8
			c2.8,2.2,5.9,4,9.2,5.3c4.2,1.6,8.4,3.4,13,3.1c8.1-0.6,16.1-1.9,23.3-6c0.5-0.3,1-0.8,1.6,0.1c-4.7,4.4-10.2,7.3-16.2,9.7
			c1.8,0.4,3.5,0.6,5.2,0.8c8.9,1.2,17.3,0.2,25.6-3.6c11.2-5.3,21.7-11.8,31.8-18.9c2-1.4,3.7-3.2,5.1-5.3
			c3.6-5.5,7.3-11,10.9-16.5c0.3-0.5,0.8-0.9,0.4-1.8c-2.1,1.2-3.9,2.7-5.8,4.2c-7.1,5.6-13.6,11.9-21.1,17.1
			c-6.1,4.2-12.5,7-20.1,6.7c-3.3-0.1-6.7,0.3-10-0.7c-1.8-0.6-2.1-1.2-1.4-2.9c1.3-3.1,2.1-6.2,2.6-9.5c0.7-5.3,1.4-10.6,1.9-15.9
			c0.7-6.6,0.9-13.2-0.3-19.7c-0.9-5.2-0.6-10.4,0.6-15.5c0.5-2.1,0.9-4.2,1-6.4c0.3-7.2-2.3-13.6-6.6-19.2c-3.2-4.1-4-8.5-2.9-13.5
			c0.9-4,0.8-8-0.2-11.9c-0.6-2.5-1.5-4.8-2.7-7c-1.6-2.9-1.7-5.9-0.2-8.9c1.4-2.9,3.1-5.5,5-8.1c5.4-7.1,10.6-14.3,15.5-21.9
			c1.3-2.1,2.7-4.1,3.6-6.4c0.4-1.1,0.5-2.1-0.3-3.2c-2.5-3.3-5.3-6.1-8.9-8.3c-4.1-2.5-8.3-4.9-12.9-6.3c-0.5-0.1-1.3-0.2-1.2-0.9
			c0.1-0.8,0.9-0.4,1.4-0.4c6.2-0.3,12.4-1.1,18.5-2.3c6.7-1.3,13.4-2.7,20.5-4.2C329.5,340.3,324.2,342,319.6,345.4z M216.3,200
			c-1,0.5-1.4,1.4-1.7,2.3c-0.6,1.7-1.2,3.4-1.7,5.1c-3.9,14-3.6,28.2-0.9,42.4c0.3,1.6,0.7,3.2,0.7,4.8c0,1-0.5,1.3-1.4,1
			c-0.5-0.2-1-0.4-1.4-0.7c-8.1-6.8-14.6-14.9-17.7-25.3c-1.5-5.1-2-10.3-1.7-15.6c0.1-1.3,0.3-2.6-0.6-3.8c-0.3,0.5-0.4,1-0.4,1.6
			c-0.2,2.6-0.4,5.1-0.5,7.7c-0.1,1.2-0.5,1.6-1.7,1.3c-1.6-0.3-3.2-0.5-4.8-0.8c-5.3-0.9-10.5-2-15.6-3.6c-1.6-0.5-2.9-1.2-3.2-3
			c-0.1-0.8,0.4-2-0.6-2.2c-0.9-0.1-1.5,1-2.1,1.8c-0.5,0.7-0.8,1.5-0.8,2.4c-0.8,8.7-2,17.4-2,26.2c-0.1,18.5,1,36.9,0.6,55.4
			c-0.2,9-1.1,17.8-5.3,26c-0.5,0.9-0.7,1.9-1,2.9c-0.4,1.7,0.2,3.1,1.5,4.2c0.6,0.5,1.1,0.7,1.5-0.2c0.2-0.4,0.4-0.8,0.9-0.7
			c0.5,0.1,0.5,0.6,0.5,1c0,1.2,0.9,1.3,1.8,1.5c7.7,1.2,15.4,0.7,23.1,0c20.5-1.7,40.7-5.8,60.8-9.7c15.8-3,31.1-8.3,47.1-10.8
			c10-1.5,19.7-4.5,29.6-6.7c2.6-0.6,5.1-1.1,7.7-1.6c0,0.1,0.1,0.2,0.1,0.3c-6.9,4-13.7,8-20.6,12c0.2,0.6,0.6,0.6,0.9,0.7
			c6.8,2.3,13.7,4,20.7,5.4c4.3,0.8,8.8,0.9,12.7,3c6.4,3.4,13.3,4.7,20.4,5.2c6.1,0.4,12.2,0.2,18.3,0.5
			c10.1,0.5,19.1-2.4,27.2-8.5c3.6-2.7,5.5-5.9,5.7-10.4c0.3-6.4,0.6-12.8,1.5-19.2c0.6-3.7-0.6-7-2.9-9.9c-2.2-2.9-4.9-5.4-7.5-7.9
			c-0.9-0.9-1.8-0.8-2.7-0.2c-5.6,3.6-11.8,6.2-17.9,8.8c-11.2,4.8-22.2,9.9-34,13c-16.4,4.3-33,7.5-49.7,10.8
			c-15.1,3-30.4,5.3-45.3,9.8c-7.1,2.1-14.7,2.4-21.9,4.1c-7.3,1.7-14.5,2.9-22,0.6c-3.1-1-6.4-1.5-9.6-2.2c-1-0.3-2.4-0.7-2.3-1.9
			c0.1-1.3,1.7-1.2,2.7-1.2c1.8,0,3.7,0.3,5.6,0.3c11,0.2,21.9-0.3,32.9-1.2c2.4-0.2,4.9-0.3,7.3-1.1c-2-3.1-3.9-6.2-6.5-8.7
			c-2.2-2.2-4.4-4.4-6.3-6.9c-11.7-15.9-18.2-33.7-20.3-53.3c-1.4-12.6-1.5-25.1,1.3-37.6C215.3,204.6,215.8,202.3,216.3,200z
			 M326.6,168.8c-8.6-8.7-18.1-16.4-28.3-23.1c7.1,2,14,4.5,21.2,7.3c-1.3-1.8-2.7-2.8-4-3.8c-8.1-6.3-17.1-11.1-26.3-15.5
			c-0.6-0.3-1.1-0.6-1.7-1c-0.2-0.2-0.5-0.4-0.3-0.8c0.2-0.3,0.5-0.3,0.8-0.3c0.3,0.1,0.7,0.2,1,0.3c14.3,6.3,28.5,12.5,41.9,20.6
			c12,7.3,23,15.8,33.2,25.5c1,0.9,1.9,2,1.9,3.7c-3.1-1-5.4-3.6-8.9-4.3c0.6,0.8,1,1.3,1.3,1.7c2.4,2.9,4.6,6,6.7,9.1
			c0.5,0.7,1,1.5,0.2,2.3c-0.9,0.9-1.6,0.3-2.4-0.3c-0.1-0.1-0.3-0.2-0.4-0.3c-2.8-2-5.8-3.6-8.3-6.3c-0.1,0.4-0.2,0.6-0.1,0.6
			c0.2,0.4,0.3,0.8,0.5,1.1c2.6,5.2,5.6,10.2,7,15.9c0.4,1.4,1.4,1.5,2.6,1.1c1.5-0.5,2.9-1.1,4.4-1.7c5-2,10-3.9,14.7-6.7
			c1.1-0.7,1.4-1.1,0.3-2.2c-4.5-4.6-9-9.2-13.8-13.4c-29.5-25.9-62.6-45.6-100.1-57.6c-6.9-2.2-13.7-4.8-20.9-5.7
			c-8.2-1-16.4-1.3-24.6-1.6c-7-0.2-13.6,1.5-19.4,5.6c-13.2,9.5-23.8,21.5-32.5,35.2c-0.8,1.3-1.6,2.7-1.7,4.5
			c0.7-0.2,1.3-0.3,1.9-0.4c9-2,18.1-3,27.3-2.9c14.5,0.1,28.7,2.5,42.7,6.2c29.5,7.7,56.2,21.2,80.2,40c3.1,2.4,6.1,4.9,9,7.4
			c0.6,0.5,1.6,1.3-0.2,1.7c-12.2,3-24.3,6.4-36.3,10.2c-1.4,0.4-1.4-0.1-1.2-1.1c0.5-2.5,1-5.1,1.4-7.6c0.1-0.6,0.4-1.2,0-1.9
			c-1.8,0.8-2.4,1.6-2.9,3.5c-3.6,14.5-5.3,29.1-3.8,44c0.5,4.8,1.5,9.4,4.3,13.4c0.2,0.3,0.5,0.5,0.3,0.9c-1.1-0.4-1.1-0.4-1.8-1.4
			c-7.4-10.7-12.5-22.4-14.6-35.3c-1-6-1.2-12-1-18.1c0.1-1.3,0.3-2.7-1.1-4.4c-2.3,8.7-3.3,17.2-4,25.7c-0.2,0-0.3-0.4-0.4-0.6
			c-2.3-4.7-3.9-9.5-4.9-14.6c-1.8-9.8-1.3-19.7-0.3-29.6c0.1-0.6,0.5-1.5-0.1-1.8c-0.7-0.4-1.3,0.4-1.9,0.8c-2.4,1.9-4,4.5-5.4,7.1
			c-6.6,12.6-10.8,25.9-11.6,40.1c-0.1,0.9-0.1,1.8-0.2,2.7c-0.2,0-0.4,0-0.6,0c-6.4-9.5-7-20-3.9-31c-1,0.1-1.1,0.6-1.3,0.9
			c-1.8,2.8-2.9,5.9-3.1,9.3c-0.5,8.3-1.5,16.6-2.4,24.9c-1.6,14-0.6,27.8,2.9,41.4c2,8,4.7,15.9,9.3,22.9c0.7,1.1,1.2,1.1,1.8,0
			c1.2-2.1,1.9-4.4,2.6-6.7c0.9-2.8,2.1-5.4,4.7-7c0.8-0.5,0.5-0.9,0.1-1.4c-1-1.1-2.1-2.2-3-3.3c-1.4-1.7-1.2-2.4,1-2.9
			c1.1-0.2,2.1-0.5,3.1-0.8c1.4-0.4,1.9-1,0.7-2.3c-2.4-2.8-4.8-5.7-7.1-8.6c-1.9-2.2-1.5-3.3,1.2-4.3c1-0.4,2.3-0.4,2.9-1.6
			c-3.5-1.7-7-3.4-10.5-5c-3.1-1.4-4.8-3.8-4.8-7.2c0-1.6,0.1-3.2,0.2-4.8c0.3-6.2,0.1-12.3-1.8-18.3c-0.2-0.5-0.6-1.3,0.2-1.6
			c0.7-0.2,0.8,0.6,1,1c1.8,3.1,3.4,6.3,5.8,9.1c0.9,1,1.6,2.1,3,2.7c0.1-0.2,0.1-0.2,0.1-0.3c0-0.2-0.1-0.5-0.1-0.7
			c-1.5-5.9-1.4-11.6,1.1-17.2c0.2-0.4,0.4-0.8,0.3-1.2c-0.5-2.1,0.9-2.3,2.4-2.4c3-0.2,6,0,8.9,0.6c1.5,0.3,2.4,1,3,2.4
			c2.6,6.2,5.3,12.3,8,18.5c0.3,0.7,0.5,1.5,1.6,2.1c0.2-3.4,0.3-6.6,0.5-9.7c0.5,0.2,0.6,0.5,0.7,0.8c3.1,13.7,10.4,25.2,19.3,35.7
			c1.1,1.3,2.3,2.4,4.3,2.8c-0.5-1.2-0.9-2.2-1.3-3.2c-6.9-16.6-8.7-33.6-3.8-51.2c0.4-1.6,1.2-2.5,2.8-2.8c7-1.4,14-3.4,20.8-5.5
			c13.6-4.1,27.2-7.9,40.7-12.5c1.1-0.4,2.1-0.9,3.5-1.4c-7.2-4.3-14.1-8.1-21.8-11.8c2.5,4.9,4.7,9.3,7.1,14
			c-6.7-1.5-10.5-6.4-15.1-10.2c1,4,3.2,7.6,3.6,11.9c-2.1-0.9-3.5-2.1-5-3.4c-7.6-6.4-15.3-12.5-23.6-18
			c-8.7-5.7-17.9-10.5-26.7-16c-0.5-0.3-1.1-0.6-1.5-1c-0.4-0.3-0.8-0.9-0.5-1.4c0.3-0.5,0.9-0.1,1.3,0c4,1.2,7.9,2.8,11.9,4.2
			c2.6,1,5.2,2,8,2.6c-0.1-0.7-0.6-1-1-1.4c-0.6-0.6-1.3-1.2-0.8-2.2c0.5-1,1.4-0.5,2.2-0.4c2.7,0.3,5.4,0.7,8.4,0.5
			c-7.1-6.9-15-12.5-21.4-19.6C301,153.8,313.8,161.3,326.6,168.8z M368.3,283.1c0.5,0.3,0.8,0,1.2-0.2c7.8-3.1,15.6-6.5,23.2-10.1
			c8.9-4.2,16.8-9.9,23.3-17.4c0.7-0.8,1-1.7,0.9-2.8c-0.3-2.4-0.6-4.8-0.9-7.1c-0.1-0.5,0.1-1.2-0.5-1.4c-0.5-0.2-1,0.4-1.4,0.7
			c-1.2,1-2,2.4-3.4,3.1c-1.2,0.7-2.4,0.9-3.5,0c-1.2-0.9-1.1-2.2-0.6-3.4c0.2-0.6,0.5-1.1,0.8-1.6c1.3-2.5,2.9-4.8,3.9-7.5
			c0.9-2.5,0.9-2.5-1.7-2.9c-0.4-0.1-0.7-0.2-1.1-0.2c-1.6-0.3-3.1-0.9-4.8-0.6c-1.3,0.3-2.6,0.2-3.3-1.2c-0.7-1.4,0.1-2.4,1.1-3.3
			c6.2-5.8,8.8-13.3,9.7-21.5c0.3-2.2,0.1-4.5-0.8-6.9c-1.4,1.7-2.6,3.2-3.8,4.6c-0.5,0.6-1.1,1-1.9,0.6c-0.8-0.4-0.9-1.1-0.7-1.8
			c0-0.2,0.1-0.5,0.2-0.7c1.7-7.1,2.7-14.4,5.2-21.3c0.9-2.4,0.6-4.9-0.8-7.4c-1.1,1.8-2.2,3.3-3.6,4.4c-2.7,2.2-5,4.8-7.3,7.4
			c-6.1,6.9-13.1,12.6-21.5,16.5c-8.5,3.9-17.2,7.7-26,10.8c-0.6,0.2-1.4,0.1-1.4,1.2c1.6,0.2,3.1,0,4.6-0.1
			c4.3-0.3,8.5-0.5,12.6,0.9c2,0.7,2,0.7,0.8,2.3c-1.8,2.4-3.5,4.9-4.9,7.5c-0.9,1.7-1,3.1,0.4,4.7c1.6,1.8,1.5,2.9,0.2,4.9
			c-1,1.5-2.2,3-3.3,4.5c-2.5,3.6-1.8,5.1,2.5,6c2.2,0.4,4.3,0.1,6.3-0.8c1-0.4,2.1-0.7,2.9,0.4c0.8,1,0.3,2-0.3,3
			c-0.5,0.8-1.1,1.6-1.9,2.2c-1.5,1.2-3,2.4-4.5,3.6c-0.8,0.6-1.2,1.5-0.9,2.5c0.2,1,1,1.3,1.9,1.4c1,0.1,1.9,0.6,2.9,1
			c1.4,0.6,2.8,0.9,4.2,0.4c6-2.3,12.3-4.2,17.3-8.6c0.4-0.4,1-0.7,1.5-0.9c0.7-0.4,1.5-0.7,2.1,0.1c0.6,0.8,0.2,1.5-0.3,2.1
			c-4.7,6.7-10.3,12.4-17.6,16.5c-0.6,0.3-1.4,0.5-1.5,1.3c0.3,0.4,0.7,0.2,1,0.3c0.8,0.1,1.8,0,2.1,1c0.3,1-0.3,1.6-1,2.1
			c-1.2,1-2.5,2-3.8,3c-1.6,1.3-3.2,2.5-4.6,4.3c1.1,0,2.2-0.6,2.7,0.6C371.2,281.2,368.9,281.8,368.3,283.1z"/>
		<path class="st0" d="M281,80.4c0.8-1.9,2.6-1.7,4-2.3c-0.7-0.5-1.5-0.9-2-1.5c-1.2-1.3-1-3.7,0.5-4.8c0.9-0.7,0.9-1.5,1.2-2.4
			c0.8-2.5,1.5-5.1,4.4-6.3c1.2-0.5,2.3-1,3.4-1.6c4.2-2.1,8-0.8,11.5,1.5c1.9,1.2,2.1,3.5,2.6,5.6c0.1,0.5-0.3,0.8-0.8,1.1
			c-0.5,0.3-1.4,0.2-1.4,0.9c0,1.2-0.7,2.5-0.1,3.7c0.5,0.9,0.7,1.5-0.4,2.2c-0.8,0.6-0.9,1.6-0.2,2.4c1.1,1.3,1,2.8,1.2,4.2
			c0.2,1.2-0.4,2-1.7,1.9c-5.4-0.5-10.7-1-16.1-1.5c-0.6-0.1-1.2-0.4-1.5-0.9C284.5,81.1,283,80.5,281,80.4z"/>
		<path class="st0" d="M276.2,358.7c-8.2,1.2-11.6,7.7-15.3,13.8c-0.7,1.2-1.2,2.7-1.5,4c-1.7,8.2-6.4,14.5-12.2,20.1c-1.2,1.2-2.6,2.4-3.7,3.6
			c-1.4,1.5-2.9,1.9-4.8,1.2c-8.2-2.9-16.7-4.7-25.3-6.1c-2.8-0.5-5.5-0.9-8.3-1.3c-2.3-0.3-4.4-1.2-6.4-2.3c-2.6-1.5-3.1-4-1.4-6.4
			c2.6-3.8,5.5-7.4,8.6-10.8c1.9-2.1,4.4-3.1,7-3.8c9-2.5,17.7-5.4,26.3-9c3.1-1.3,5.9-2.8,8.8-4.4c9.3-5.1,18.4-4.3,27.4,0.6
			C275.9,358.1,276.2,358.3,276.2,358.7z"/>
		<path class="st0" d="M273.1,348.9c-5.7-0.1-11.7,0.9-17.7,1.5c-13.7,1.5-27.2,4.4-40.8,6.4c-8.5,1.3-16.5-0.1-24.2-4c-6.6-3.4-13-7-19.8-9.9
			c-0.7-0.3-1.4-0.6-1.3-1.5c0.2-1.1,1.1-1,1.8-1c6.6,0.1,13,1.4,19.4,2.4c10.8,1.6,21.6,1.9,32.4,0.6c9.6-1.1,19.1-0.7,28.7,0.4
			c8.3,1,16.5,2.3,24.7,3.6c0.7,0.1,2.1-0.1,2,1c-0.1,1.2-1.3,0.6-2.1,0.6C275.4,349.1,274.4,349,273.1,348.9z"/>
		<path class="st0" d="M385,303.5c-3.4-1.3-6.2-3.5-9.3-5.1c-2.3-1.2-4.7-2-7.4-2.2c-1.4-0.1-1.5,0.6-1.5,1.7c0.1,5.2-2.8,8.9-7.8,10.3
			c-2.3,0.6-4.1,0-5.7-1.6c-0.7-0.7-1.3-1.4-1.9-2.2c-1.7-2.2-1.6-2.2-4.3-1.1c-2.9,1.2-5.9,2.3-9.2,1.6c-0.7-0.2-1.4-0.3-2-0.9
			c0.5-1,1.5-1.3,2.4-1.8c6.2-2.9,12.4-5.7,18.6-8.6c6.6-3.1,13.5-3.5,20.6-2.5c2.9,0.4,5.2,2.1,7,4.4c0.4,0.4,1,1,0.6,1.5
			c-0.3,0.5-1.1,0.2-1.7,0.2c-0.4,0-0.8-0.3-1.4,0C383.1,299.3,383.7,301.5,385,303.5z M353.8,303.2c0.8-0.4,2.3-0.1,2.3-1.7
			c0-1.3-1.2-1.4-2.1-1.5c-1.2-0.1-2.6,0.5-2.6,1.7C351.3,302.7,352.7,302.9,353.8,303.2z"/>
		<path class="st0" d="M351.8,321.6c-3.8-0.1-6.3-2.2-8.7-4.3c-1.8-1.6-3.1-3.8-4.7-5.7c-0.7-0.8-0.3-1.2,0.5-1.5c0.9-0.4,1.9-0.2,2.8,0.1
			c4,1.1,7.7,3.1,11.7,3.8c6,1.1,12,1.1,17.9-0.9c0.8-0.3,1.9-1,2.4,0c0.5,1-0.4,1.9-1.3,2.5c-2.6,1.7-5.6,2.7-8.7,3.3
			c-3.3,0.6-6.8,0.9-9.9,2.3C353.1,321.6,352.3,321.5,351.8,321.6z"/>
		<path class="st0" d="M351.3,310.5c8.8,2.1,16.9-1.2,25.2-2.9C368.4,311.2,360.2,314.2,351.3,310.5z"/>
		<path class="st0" d="M262.4,198.6c-0.3,3.6-0.6,7-0.6,10.4c0,4.6,0.2,9.1,1,13.6c0.3,1.5-0.2,1.8-1.5,1.9c-3,0.3-6,0.2-9,0.3
			c-0.7,0-1-0.2-0.8-0.9c2.3-8.8,5.1-17.5,10.5-25C261.9,198.8,262,198.8,262.4,198.6z"/>
	</g>
</g>
</svg>
