<?xml version="1.0" encoding="utf-8"?>
<!-- Generator: Adobe Illustrator 18.1.1, SVG Export Plug-In . SVG Version: 6.00 Build 0)  -->
<svg version="1.1" id="图层_1" xmlns="http://www.w3.org/2000/svg" xmlns:xlink="http://www.w3.org/1999/xlink" x="0px" y="0px"
	 viewBox="0 0 612 792" enable-background="new 0 0 612 792" xml:space="preserve">
<g>
	<g>
		<path d="M164.7,449.7c-1.5-2.4-1.6-5-0.8-7.8c3.5-11,4.3-22.3,4.6-33.8c0.4-12.2,0.9-24.5,1.4-36.7c0.4-10.9-0.1-21.9-0.7-32.8
			c-0.2-4.7,0-9.3,0.5-13.9c0.5-4.3,2.8-7.1,7-8.4c1.4-0.4,1.6-1.1,1.5-2.4c-0.1-10.2-0.2-20.3,1.9-30.4c1.5-7.7,2.3-15.4,3.8-23.1
			c1.4-7.1,5.6-13,9.9-18.6c6.3-8,13.2-15.4,21.2-21.7c0.8-0.7,1.5-1.3,2-2.2c5.6-11.3,12.8-21.5,19.2-32.2
			c4.7-7.8,9.3-15.7,13.1-23.9c2.1-4.4,3.6-8.9,4.7-13.6c2.2-9.4,5.1-18.6,10.4-26.9c4.2-6.6,9.2-12.3,15.6-16.7
			c6-4,12.7-5.4,19.8-5.2c12.7,0.2,22.6,5.7,30.3,15.6c5.6,7.2,7.4,15.5,6.2,24.5c-0.4,3.5-1.1,6.9-2,10.2c-0.4,1.6-0.9,2.1-2.6,1.4
			c-7.3-2.8-14.8-4.9-22.6-5.2c-9.2-0.4-17.5,1.7-25,7c-1.2,0.9-2,0.7-3.1-0.3c-2.1-2.1-3.5-4.6-5.4-6.8c-0.3-0.3-0.7-0.7-1-1.1
			c-1,1-1,2.1-0.9,3.2c0.3,2.6,1,5.1,3.1,7.1c2.2,2.2,2.4,4.3,0.4,7.9c-2.4,4.6-3.2,9.4-2.8,14.4c0.2,2.8,0.3,5.7,0.8,8.4
			c0.3,2.1-0.2,3.1-2.2,3.8c-12.7,4.9-24.9,10.7-36.7,17.5c-0.8,0.4-1.5,1.3-2.6,0.3c-1-1-0.8-2-0.2-3.1c1.4-2.8,3-5.7,4.3-8.6
			c3-6.1,5.5-12.5,7.5-19c0.1-0.4,0.2-0.9,0.2-1.3c-7.4,13.4-16.3,26-24.3,39.9c1.9-0.9,3.3-1.5,4.6-2.1
			c11.7-4.3,23.1-9.2,34.4-14.4c4.9-2.3,9.5-4.9,14.3-7.3c9.8-4.9,20.4-6.7,31.4-7c11.3-0.3,22.2,1.5,33,4.2
			c2.7,0.7,2.6,0.7,2.4-2.2c-0.7-6.3-1.7-12.7-1.4-19.1c0.2-4.3-2.2-7.1-5.9-9c-9.2-4.7-19-6.6-29.3-5.8c-3.6,0.2-7.2,0.7-10.7,1.3
			c-7.9,1.5-13.3,7.7-13.8,15.7c-0.3,5-0.5,10.1-0.9,15.1c0,0.5-0.1,1.2-0.2,1.7c-0.2,0.8-0.8,1.1-1.5,1c-0.7-0.1-0.4-0.9-0.4-1.3
			c0-4.4,0-8.6,0.1-13c0.1-3.7,0.8-7.3,2.1-10.8c1.6-4.6,4.7-7.9,9.3-9.5c6-2.2,12.1-4,18.6-4.9c1.2-0.1,2.4-0.3,3.5,0
			c7.2,1.7,14.4,3.7,21.3,6.7c2.6,1.2,4.5,3.3,6.8,4.9c2.7,2,3.3,4.5,3.5,7.4c0.5,7,1.5,14.1,2.2,21.1c0.1,1.4,0.8,2,2.1,2.4
			c10.2,2.8,20,6.4,29.3,11.8c5.7,3.3,11.1,7,16.2,11c9.4,7.6,18.4,15.5,27.1,23.9c10.5,10.3,18.4,22.2,23.6,35.8
			c0.9,2.2,0.9,2.2,2.6,0.8c2.2-1.7,4.3-1.2,5.4,1.4c0,0.1,0.1,0.2,0.1,0.3c1.5,11.6,6.3,22.4,8,34c1.5,10.8,1.9,21.6,0.9,32.6
			c-0.8,8.3-1.4,16.7-1.7,25c-0.3,7.8-1.9,15.4-1.1,23.3c0.4,4.7,0.4,9.4,0,14.1c-0.1,1.6-0.2,3.4-0.8,5c-2.2,6.9-2.6,14.1-3.8,21.2
			c-0.3,2.2,0.2,3.8,2,5.1c3.5,2.7,4.7,6.3,4.3,10.6c-0.3,3.4-1.4,6.7-2.7,9.8c-3.3,8.3-3.3,16.5,0.1,24.7c1.1,2.8,1.7,5.8,1.7,8.9
			c-0.2,5-2.7,9-6.3,12.1c-3,2.6-6.2,4.6-9.7,6.3c-0.8,0.4-1.4,0.8-1.4,1.9c-0.1,9-1.7,17.7-2.5,26.6c-0.3,4,0,8.2-0.8,12.1
			c-0.9,4.4-0.8,7.8,2.4,11.5c2.8,3.4,3.5,8.1,4.9,12.3c0.5,1.7-0.1,3.5-1,5.1c-1.9,3.6-4.2,6.9-7.1,9.6
			c-7.2,6.7-11.7,15.2-16.1,23.8c-5.6,11-11.3,21.9-18.8,31.7c-13,16.9-29.5,29.6-48.7,38.8c-7.6,3.7-15.4,7.4-22.4,12.2
			c-6.9,4.7-14.1,5.5-21.9,3.2c-7.9-2.3-15.6-4.9-23.1-8.3c-3.8-1.7-7.8-2.6-11.9-2.8c-5.9-0.3-11.7-1.5-17.4-3.2
			c-1.4-0.4-3-0.7-4.5-0.5c-2.4,0.2-4.5-0.7-6-2.6c-1-1.2-2.2-2.2-3.6-3.1c-10.3-6.6-18.7-15.2-26.7-24.3c-2.5-2.8-3.5-6.4-4.3-10.1
			c-1.4-6.3-3.1-12.6-4.8-18.8c-0.5-2-1.4-3.7-3.2-5c-4.9-3.8-7.2-9-7.5-15.2c-0.9-11.9-1.7-23.8-2.6-35.6
			c-0.5-7.2-1.4-14.3-3.5-21.3c-1.2-3.9-1-8.1-0.2-12c0.4-2.2,0.2-3.9-1.9-5.4c-1.2-0.8-2.2-1.9-3.2-2.8c-3.2-3.1-4.8-6.9-4.3-11.4
			c0.5-4,0.1-8-0.5-11.9c-0.4-2.8-0.8-5.7-0.4-8.6c0.3-3.4,1.5-6.6,3.9-9.1c0.8-0.8,0.8-1.3,0-2.2c-2.8-3.5-5.7-7-8.5-10.6
			c-3.9-5-6.7-10.6-5.6-17.3c0.1-0.8-0.2-1.2-0.9-1.5c-1.1-0.5-2.3-1.1-3.3-1.6c-0.7-0.3-1.4-0.8-1.4-1.5
			C163.1,449.9,164.1,450.2,164.7,449.7z M349.3,467.5c1.7,0.4,2.8-0.3,4.2-0.7c7.1-1.5,14.2-2.8,21.3-4.8c6.4-1.7,13-2.3,19.7-2.4
			c6.9-0.1,13.6,1.3,20.3,1.9c7.9,0.7,15.3-0.2,21.9-5.1c0.7-0.4,1.3-1.4,2.2-0.7c0.9,0.7,0.5,1.6,0.2,2.5c-0.7,1.9-1.3,3.7-1.9,5.6
			c-1.7,6.9-0.7,13,4.6,18c0.2,0.2,0.7,0.4,0.4,1.1c-1,0.1-1.7-0.4-2.4-1c-3.7-3.4-8.3-5.4-12.3-8.4c-3.3-2.5-6.6-2.5-10.1-0.4
			c-7.6,4.5-15.8,6.2-24.7,4.7c-1.9-0.3-3.8-0.5-6-1c1.7,3.5,4.2,6,6.6,8.5c5.6,5.6,12.7,9.1,19.6,12.7c2,1.1,3.9,2.1,5.7,3.5
			c0.9,0.8,1.3,1.4,0.2,2.4c-0.4,0.3-0.7,1-1.1,1.4c-0.4,0.5-1.1,1-1.7,0.4c-1.7-1.3-3.4-0.5-5,0c-7.8,2.5-15.3,5.8-23,8.6
			c-0.4,0.2-1.1,0.1-1.3,0.9c3,2.6,6,5.2,8.9,8c2.7,2.6,5.7,3.3,9.2,2.2c4.5-1.3,8.9-2.8,13.2-4.5c1-0.4,2.1-0.9,3.2,0.4
			c-3.5,1.5-4.5,4.7-5.8,7.9c-2,5-4.7,9.6-8.4,13.6c-3.5,3.7-7.9,6-12.3,8.2c-5.5,2.7-5.4,2.8-4.3,8.9c0.9,5,2.1,10.1,1.9,15.2
			c-0.1,2.7,0.1,5.5,0.2,8.2c0.4,6.1,3,11.7,4.7,17.4c1.3,4.4,2.3,4.7,6.2,2.5c3.4-1.9,6.3-4.4,8.6-7.7c0.3-0.4,0.5-1.1,1.2-0.8
			c0.8,0.4,0.3,1,0.1,1.5c-0.5,1.1-1.2,2.2-1.7,3.3c-2.4,4.3-4.6,8.7-8.3,12.1c-3.6,3.3-7.4,6.4-11.3,9.5c-3.1,2.4-6.6,3.2-10.4,2.3
			c-1.4-0.3-3-0.4-4.5-0.4c-2.2,0-3.8,1-4.6,3.1c-2.2,5.8-5,11.3-8,16.6c-0.5,1-1.1,2.1-0.9,3.5c1-0.5,1.7-1,2.5-1.4
			c4.8-3.2,9.6-6.4,14.1-9.9c20.4-15.5,38.1-34,55.2-53c2.2-2.4,3.5-5.2,4.3-8.3c0.4-1.9,0.4-3.8-0.7-5.5c-1.6-2.6-3.5-5.2-5.1-7.9
			c-0.8-1.1-1.3-1.2-2.5-0.5c-6,3.5-11.9,7.1-17.2,11.7c-0.3,0.3-0.7,0.9-1.4,0.8c-0.2-2.2,1.1-3.6,2.5-5c3.9-3.9,8.3-7.2,12.8-10.4
			c2.5-1.7,4.2-3.9,4.2-7.2c0-5,0.9-10.1,1.9-15c1.5-7.4,3-14.8,4.5-22.2c0.4-2.2,0.3-2.3-1.9-1.5c-1.3,0.4-2.6,1-3.9,1.3
			c-1.1,0.2-2.8,0.8-3.2-0.2c-0.4-1.2,1.3-1.6,2.3-2.2c5-2.5,9.8-5.2,14-9c6.6-5.8,10.9-12,5.7-22.7c-3.3-6.6-3.5-13.7-1-20.7
			c1.3-3.5,2.4-7.1,3.5-10.6c0.9-2.8,0.7-5.7-1.1-8.3c-0.5-0.8-1-1.2-1.7-0.2c-2.6,3.1-5.9,5.4-9.1,7.9c-5.6,4.4-11.9,7-18.9,8.2
			c-8.7,1.4-17.5,1.2-26.2,0.9c-16.6-0.8-33.1,1-49.4,4c-8.2,1.5-16.3,3.3-24.7,3.2c-6.6-0.1-13-1.3-19.5-2.2
			c-13.9-1.7-27.6-3.4-41.5-5.2c-15.2-2-30.3-2.1-45.4,0.7c-8.6,1.5-17.4,2.1-26.2,1.9c-5.7-0.1-11.3-0.7-16.8-1.6
			c-1.3-0.2-2,0-1.7,1.5c0.2,1.5,0.4,3.1,1,4.6c1.1,3.1,3.3,5.1,5.4,7.4c5.7,6.2,9.8,13.6,15.1,20.1c0.4,0.5,0.8,1.1,0.2,2.1
			c-2-1.5-3.9-3.1-5.8-4.7c-1.3-1.2-1.9-0.8-2.6,0.5c-2.5,4.2-2.5,8.4-1.3,12.9c1.2,4.5,2.2,9,1.5,13.6c-0.8,4.9,0.8,9,4.3,12.2
			c2.5,2.4,4.9,4.8,7.2,7.5c2.7,3.2,5.8,6.1,8.9,9c2,1.9,4,3.4,6.6,4.4c9.1,3.3,18.5,4.6,28,3c9.9-1.7,19.9-3.2,30.1-2.4
			c7,0.5,13.6-1.1,19.5-4.9c1.6-1.1,3.3-2.1,5.2-2.7c8.3-2.5,15.5,0.2,21.9,5.5c2,1.6,2.3,4,1.7,6.4c-0.5,2.2-1.1,4.4-1.7,6.4
			c-1,3.2-0.2,5.8,2,8.2c3.2,3.4,6,7.1,8.7,10.8c1.5,2.1,3,4.4,3.3,7c0.7,6.1,0.7,12.3-1.1,18.4c-5.4,18.8-16,34-31.7,45.6
			c-1.2,0.9-2.5,1.7-3.9,2.2c-6.9,1.5-13.8,3-20.8,2.1c-5.4-0.7-10.6-1.9-16-1.9c-4.5,0-8-2.3-10.8-5.7c-5.6-6.8-9.4-14.4-12.2-22.7
			c-0.5-1.6-0.1-2.8,1.5-3.4c4.2-1.5,8.4-2.4,12.9-1.4c2,0.4,3.8,0.8,5.8,0.8c7.1,0,13.4-2.7,19.3-6.2c9.8-5.9,19-12.7,28.5-18.9
			c2.1-1.4,3.9-3.1,5.6-5c3.2-3.6,5.8-7.5,7.2-12.2c0.4-1.4,0-2-1.4-2c-2.1-0.1-4,0.4-5.9,1.2c-7.2,2.8-13.8,7-20.7,10.6
			c-4,2.1-8.2,3.9-12.8,4.8c-10.7,2.1-21.6,3.2-32.5,4.9c-3.2,0.5-5.9-0.4-8.3-2.6c-6.8-6.4-14.2-11.9-22.4-16.6
			c-0.5-0.3-1.3-0.5-1.7-1.7c2,1.5,3.9,1,5.9,1c0.4,0,1,0,1.3,0.1c6.1,2.2,12.6,3,18.9,4.4c4.5,1,9,1.7,13.4,0.4
			c11.6-3.5,23.2-6.4,35.3-7.2c1-0.1,2.1-0.3,2.7-1c2.5-2.7,4.7-5.7,5.8-9.3c0.3-1.1,0.1-1.6-1.2-1.4c-0.5,0.1-1.1,0.3-1.7,0.4
			c-7.1,2.2-14.3,3.6-21.7,4.5c-11.5,1.3-23.1,1.5-34.5,1.3c-13.1-0.1-23.8-5.4-31.3-16.2c-2.8-4-5.7-8-8.9-11.7
			c-0.2-0.3-0.4-0.9-1.1-0.7c-0.2,3.5,0.8,6.9,2.2,10.1c1.7,4,3,8.2,3.3,12.5c0.5,7.8,1.2,15.4,2,23.1c0.3,3.4,0.2,6.8,0.1,10.2
			c-0.1,5.4,0,10.7,3.5,15.2c7.2,9.3,14.1,18.9,20.9,28.6c5.8,8.2,12.7,14.9,21.9,19.5c8.9,4.5,17,9.9,24.8,16.2
			c3.1,2.4,6.4,4.4,10.1,5.8c4.6,1.7,9.2,3.7,14.2,3.4c8.9-0.7,17.6-2.1,25.5-6.6c0.5-0.3,1.1-0.9,1.7,0.1
			c-5.1,4.8-11.1,8-17.7,10.6c2,0.4,3.8,0.7,5.7,0.9c9.7,1.3,18.9,0.2,28-3.9c12.2-5.8,23.7-12.9,34.8-20.7c2.2-1.5,4-3.5,5.6-5.8
			c3.9-6,8-12,11.9-18c0.3-0.5,0.9-1,0.4-2c-2.3,1.3-4.3,3-6.3,4.6c-7.8,6.1-14.9,13-23.1,18.7c-6.7,4.6-13.7,7.6-22,7.3
			c-3.6-0.1-7.3,0.3-10.9-0.8c-2-0.7-2.3-1.3-1.5-3.2c1.4-3.4,2.3-6.8,2.8-10.4c0.8-5.8,1.5-11.6,2.1-17.4c0.8-7.2,1-14.4-0.3-21.5
			c-1-5.7-0.7-11.4,0.7-16.9c0.5-2.3,1-4.6,1.1-7c0.3-7.9-2.5-14.9-7.2-21c-3.5-4.5-4.4-9.3-3.2-14.8c1-4.4,0.9-8.7-0.2-13
			c-0.7-2.7-1.6-5.2-3-7.6c-1.7-3.2-1.9-6.4-0.2-9.7c1.5-3.2,3.4-6,5.5-8.9c5.9-7.8,11.6-15.6,16.9-23.9c1.4-2.3,3-4.5,3.9-7
			c0.4-1.2,0.5-2.3-0.3-3.5c-2.7-3.6-5.8-6.7-9.7-9.1c-4.5-2.7-9.1-5.4-14.1-6.9c-0.5-0.1-1.4-0.2-1.3-1c0.1-0.9,1-0.4,1.5-0.4
			c6.8-0.3,13.6-1.2,20.2-2.5c7.3-1.4,14.6-3,22.4-4.6C360.1,461.9,354.3,463.8,349.3,467.5z M236.4,308.6c-1.1,0.5-1.5,1.5-1.9,2.5
			c-0.7,1.9-1.3,3.7-1.9,5.6c-4.3,15.3-3.9,30.8-1,46.3c0.3,1.7,0.8,3.5,0.8,5.2c0,1.1-0.5,1.4-1.5,1.1c-0.5-0.2-1.1-0.4-1.5-0.8
			c-8.9-7.4-16-16.3-19.3-27.6c-1.6-5.6-2.2-11.3-1.9-17c0.1-1.4,0.3-2.8-0.7-4.2c-0.3,0.5-0.4,1.1-0.4,1.7
			c-0.2,2.8-0.4,5.6-0.5,8.4c-0.1,1.3-0.5,1.7-1.9,1.4c-1.7-0.3-3.5-0.5-5.2-0.9c-5.8-1-11.5-2.2-17-3.9c-1.7-0.5-3.2-1.3-3.5-3.3
			c-0.1-0.9,0.4-2.2-0.7-2.4c-1-0.1-1.6,1.1-2.3,2c-0.5,0.8-0.9,1.6-0.9,2.6c-0.9,9.5-2.2,19-2.2,28.6c-0.1,20.2,1.1,40.3,0.7,60.5
			c-0.2,9.8-1.2,19.5-5.8,28.4c-0.5,1-0.8,2.1-1.1,3.2c-0.4,1.9,0.2,3.4,1.6,4.6c0.7,0.5,1.2,0.8,1.6-0.2c0.2-0.4,0.4-0.9,1-0.8
			s0.5,0.7,0.5,1.1c0,1.3,1,1.4,2,1.6c8.4,1.3,16.8,0.8,25.2,0c22.4-1.9,44.5-6.3,66.4-10.6c17.3-3.3,34-9.1,51.5-11.8
			c10.9-1.6,21.5-4.9,32.3-7.3c2.8-0.7,5.6-1.2,8.4-1.7c0,0.1,0.1,0.2,0.1,0.3c-7.5,4.4-15,8.7-22.5,13.1c0.2,0.7,0.7,0.7,1,0.8
			c7.4,2.5,15,4.4,22.6,5.9c4.7,0.9,9.6,1,13.9,3.3c7,3.7,14.5,5.1,22.3,5.7c6.7,0.4,13.3,0.2,20,0.5c11,0.5,20.9-2.6,29.7-9.3
			c3.9-3,6-6.4,6.2-11.4c0.3-7,0.7-14,1.6-21c0.7-4-0.7-7.6-3.2-10.8c-2.4-3.2-5.4-5.9-8.2-8.6c-1-1-2-0.9-3-0.2
			c-6.1,3.9-12.9,6.8-19.6,9.6c-12.2,5.2-24.3,10.8-37.2,14.2c-17.9,4.7-36.1,8.2-54.3,11.8c-16.5,3.3-33.2,5.8-49.5,10.7
			c-7.8,2.3-16.1,2.6-23.9,4.5c-8,1.9-15.8,3.2-24,0.7c-3.4-1.1-7-1.6-10.5-2.4c-1.1-0.3-2.6-0.8-2.5-2.1c0.1-1.4,1.9-1.3,3-1.3
			c2,0,4,0.3,6.1,0.3c12,0.2,23.9-0.3,36-1.3c2.6-0.2,5.4-0.3,8-1.2c-2.2-3.4-4.3-6.8-7.1-9.5c-2.4-2.4-4.8-4.8-6.9-7.5
			c-12.8-17.4-19.9-36.8-22.2-58.2c-1.5-13.8-1.6-27.4,1.4-41.1C235.3,313.6,235.8,311.1,236.4,308.6z M356.9,274.5
			c-9.4-9.5-19.8-17.9-30.9-25.2c7.8,2.2,15.3,4.9,23.2,8c-1.4-2-3-3.1-4.4-4.2c-8.9-6.9-18.7-12.1-28.7-16.9
			c-0.7-0.3-1.2-0.7-1.9-1.1c-0.2-0.2-0.5-0.4-0.3-0.9c0.2-0.3,0.5-0.3,0.9-0.3c0.3,0.1,0.8,0.2,1.1,0.3
			c15.6,6.9,31.1,13.7,45.8,22.5c13.1,8,25.1,17.3,36.3,27.9c1.1,1,2.1,2.2,2.1,4c-3.4-1.1-5.9-3.9-9.7-4.7c0.7,0.9,1.1,1.4,1.4,1.9
			c2.6,3.2,5,6.6,7.3,9.9c0.5,0.8,1.1,1.6,0.2,2.5c-1,1-1.7,0.3-2.6-0.3c-0.1-0.1-0.3-0.2-0.4-0.3c-3.1-2.2-6.3-3.9-9.1-6.9
			c-0.1,0.4-0.2,0.7-0.1,0.7c0.2,0.4,0.3,0.9,0.5,1.2c2.8,5.7,6.1,11.1,7.6,17.4c0.4,1.5,1.5,1.6,2.8,1.2c1.6-0.5,3.2-1.2,4.8-1.9
			c5.5-2.2,10.9-4.3,16.1-7.3c1.2-0.8,1.5-1.2,0.3-2.4c-4.9-5-9.8-10.1-15.1-14.6c-32.2-28.3-68.4-49.8-109.4-62.9
			c-7.5-2.4-15-5.2-22.8-6.2c-9-1.1-17.9-1.4-26.9-1.7c-7.6-0.2-14.9,1.6-21.2,6.1c-14.4,10.4-26,23.5-35.5,38.5
			c-0.9,1.4-1.7,3-1.9,4.9c0.8-0.2,1.4-0.3,2.1-0.4c9.8-2.2,19.8-3.3,29.8-3.2c15.8,0.1,31.4,2.7,46.7,6.8
			c32.2,8.4,61.4,23.2,87.6,43.7c3.4,2.6,6.7,5.4,9.8,8.1c0.7,0.5,1.7,1.4-0.2,1.9c-13.3,3.3-26.6,7-39.7,11.1
			c-1.5,0.4-1.5-0.1-1.3-1.2c0.5-2.7,1.1-5.6,1.5-8.3c0.1-0.7,0.4-1.3,0-2.1c-2,0.9-2.6,1.7-3.2,3.8c-3.9,15.8-5.8,31.8-4.2,48.1
			c0.5,5.2,1.6,10.3,4.7,14.6c0.2,0.3,0.5,0.5,0.3,1c-1.2-0.4-1.2-0.4-2-1.5c-8.1-11.7-13.7-24.5-16-38.6
			c-1.1-6.6-1.3-13.1-1.1-19.8c0.1-1.4,0.3-3-1.2-4.8c-2.5,9.5-3.6,18.8-4.4,28.1c-0.2,0-0.3-0.4-0.4-0.7c-2.5-5.1-4.3-10.4-5.4-16
			c-2-10.7-1.4-21.5-0.3-32.3c0.1-0.7,0.5-1.6-0.1-2c-0.8-0.4-1.4,0.4-2.1,0.9c-2.6,2.1-4.4,4.9-5.9,7.8
			c-7.2,13.8-11.8,28.3-12.7,43.8c-0.1,1-0.1,2-0.2,3c-0.2,0-0.4,0-0.7,0c-7-10.4-7.7-21.9-4.3-33.9c-1.1,0.1-1.2,0.7-1.4,1
			c-2,3.1-3.2,6.4-3.4,10.2c-0.5,9.1-1.6,18.1-2.6,27.2c-1.7,15.3-0.7,30.4,3.2,45.2c2.2,8.7,5.1,17.4,10.2,25c0.8,1.2,1.3,1.2,2,0
			c1.3-2.3,2.1-4.8,2.8-7.3c1-3.1,2.3-5.9,5.1-7.7c0.9-0.5,0.5-1,0.1-1.5c-1.1-1.2-2.3-2.4-3.3-3.6c-1.5-1.9-1.3-2.6,1.1-3.2
			c1.2-0.2,2.3-0.5,3.4-0.9c1.5-0.4,2.1-1.1,0.8-2.5c-2.6-3.1-5.2-6.2-7.8-9.4c-2.1-2.4-1.6-3.6,1.3-4.7c1.1-0.4,2.5-0.4,3.2-1.7
			c-3.8-1.9-7.6-3.7-11.5-5.5c-3.4-1.5-5.2-4.2-5.2-7.9c0-1.7,0.1-3.5,0.2-5.2c0.3-6.8,0.1-13.4-2-20c-0.2-0.5-0.7-1.4,0.2-1.7
			c0.8-0.2,0.9,0.7,1.1,1.1c2,3.4,3.7,6.9,6.3,9.9c1,1.1,1.7,2.3,3.3,3c0.1-0.2,0.1-0.2,0.1-0.3c0-0.2-0.1-0.5-0.1-0.8
			c-1.6-6.4-1.5-12.7,1.2-18.8c0.2-0.4,0.4-0.9,0.3-1.3c-0.5-2.3,1-2.5,2.6-2.6c3.3-0.2,6.6,0,9.7,0.7c1.6,0.3,2.6,1.1,3.3,2.6
			c2.8,6.8,5.8,13.4,8.7,20.2c0.3,0.8,0.5,1.6,1.7,2.3c0.2-3.7,0.3-7.2,0.5-10.6c0.5,0.2,0.7,0.5,0.8,0.9c3.4,15,11.4,27.5,21.1,39
			c1.2,1.4,2.5,2.6,4.7,3.1c-0.5-1.3-1-2.4-1.4-3.5c-7.5-18.1-9.5-36.7-4.2-56c0.4-1.7,1.3-2.7,3.1-3.1c7.7-1.5,15.3-3.7,22.7-6
			c14.9-4.5,29.7-8.6,44.5-13.7c1.2-0.4,2.3-1,3.8-1.5c-7.9-4.7-15.4-8.9-23.8-12.9c2.7,5.4,5.1,10.2,7.8,15.3
			c-7.3-1.6-11.5-7-16.5-11.1c1.1,4.4,3.5,8.3,3.9,13c-2.3-1-3.8-2.3-5.5-3.7c-8.3-7-16.7-13.7-25.8-19.7
			c-9.5-6.2-19.6-11.5-29.2-17.5c-0.5-0.3-1.2-0.7-1.6-1.1c-0.4-0.3-0.9-1-0.5-1.5s1-0.1,1.4,0c4.4,1.3,8.6,3.1,13,4.6
			c2.8,1.1,5.7,2.2,8.7,2.8c-0.1-0.8-0.7-1.1-1.1-1.5c-0.7-0.7-1.4-1.3-0.9-2.4c0.5-1.1,1.5-0.5,2.4-0.4c3,0.3,5.9,0.8,9.2,0.5
			c-7.8-7.5-16.4-13.7-23.4-21.4C328.9,258.1,342.9,266.3,356.9,274.5z M402.5,399.4c0.5,0.3,0.9,0,1.3-0.2c8.5-3.4,17-7.1,25.4-11
			c9.7-4.6,18.4-10.8,25.5-19c0.8-0.9,1.1-1.9,1-3.1c-0.3-2.6-0.7-5.2-1-7.8c-0.1-0.5,0.1-1.3-0.5-1.5c-0.5-0.2-1.1,0.4-1.5,0.8
			c-1.3,1.1-2.2,2.6-3.7,3.4c-1.3,0.8-2.6,1-3.8,0c-1.3-1-1.2-2.4-0.7-3.7c0.2-0.7,0.5-1.2,0.9-1.7c1.4-2.7,3.2-5.2,4.3-8.2
			c1-2.7,1-2.7-1.9-3.2c-0.4-0.1-0.8-0.2-1.2-0.2c-1.7-0.3-3.4-1-5.2-0.7c-1.4,0.3-2.8,0.2-3.6-1.3c-0.8-1.5,0.1-2.6,1.2-3.6
			c6.8-6.3,9.6-14.5,10.6-23.5c0.3-2.4,0.1-4.9-0.9-7.5c-1.5,1.9-2.8,3.5-4.2,5c-0.5,0.7-1.2,1.1-2.1,0.7s-1-1.2-0.8-2
			c0-0.2,0.1-0.5,0.2-0.8c1.9-7.8,3-15.7,5.7-23.3c1-2.6,0.7-5.4-0.9-8.1c-1.2,2-2.4,3.6-3.9,4.8c-3,2.4-5.5,5.2-8,8.1
			c-6.7,7.5-14.3,13.8-23.5,18c-9.3,4.3-18.8,8.4-28.4,11.8c-0.7,0.2-1.5,0.1-1.5,1.3c1.7,0.2,3.4,0,5-0.1c4.7-0.3,9.3-0.5,13.8,1
			c2.2,0.8,2.2,0.8,0.9,2.5c-2,2.6-3.8,5.4-5.4,8.2c-1,1.9-1.1,3.4,0.4,5.1c1.7,2,1.6,3.2,0.2,5.4c-1.1,1.6-2.4,3.3-3.6,4.9
			c-2.7,3.9-2,5.6,2.7,6.6c2.4,0.4,4.7,0.1,6.9-0.9c1.1-0.4,2.3-0.8,3.2,0.4c0.9,1.1,0.3,2.2-0.3,3.3c-0.5,0.9-1.2,1.7-2.1,2.4
			c-1.6,1.3-3.3,2.6-4.9,3.9c-0.9,0.7-1.3,1.6-1,2.7c0.2,1.1,1.1,1.4,2.1,1.5c1.1,0.1,2.1,0.7,3.2,1.1c1.5,0.7,3.1,1,4.6,0.4
			c6.6-2.5,13.4-4.6,18.9-9.4c0.4-0.4,1.1-0.8,1.6-1c0.8-0.4,1.6-0.8,2.3,0.1c0.7,0.9,0.2,1.6-0.3,2.3c-5.1,7.3-11.3,13.6-19.2,18
			c-0.7,0.3-1.5,0.5-1.6,1.4c0.3,0.4,0.8,0.2,1.1,0.3c0.9,0.1,2,0,2.3,1.1c0.3,1.1-0.3,1.7-1.1,2.3c-1.3,1.1-2.7,2.2-4.2,3.3
			c-1.7,1.4-3.5,2.7-5,4.7c1.2,0,2.4-0.7,3,0.7C405.7,397.3,403.2,398,402.5,399.4z"/>
		<path d="M307.1,177.9c0.9-2.1,2.8-1.9,4.4-2.5c-0.8-0.5-1.6-1-2.2-1.6c-1.3-1.4-1.1-4,0.5-5.2c1-0.8,1-1.6,1.3-2.6
			c0.9-2.7,1.6-5.6,4.8-6.9c1.3-0.5,2.5-1.1,3.7-1.7c4.6-2.3,8.7-0.9,12.6,1.6c2.1,1.3,2.3,3.8,2.8,6.1c0.1,0.5-0.3,0.9-0.9,1.2
			c-0.5,0.3-1.5,0.2-1.5,1c0,1.3-0.8,2.7-0.1,4c0.5,1,0.8,1.6-0.4,2.4c-0.9,0.7-1,1.7-0.2,2.6c1.2,1.4,1.1,3.1,1.3,4.6
			c0.2,1.3-0.4,2.2-1.9,2.1c-5.9-0.5-11.7-1.1-17.6-1.6c-0.7-0.1-1.3-0.4-1.6-1C310.9,178.6,309.3,178,307.1,177.9z"/>
		<path d="M301.8,482c-9,1.3-12.7,8.4-16.7,15.1c-0.8,1.3-1.3,3-1.6,4.4c-1.9,9-7,15.8-13.3,22c-1.3,1.3-2.8,2.6-4,3.9
			c-1.5,1.6-3.2,2.1-5.2,1.3c-9-3.2-18.3-5.1-27.6-6.7c-3.1-0.5-6-1-9.1-1.4c-2.5-0.3-4.8-1.3-7-2.5c-2.8-1.6-3.4-4.4-1.5-7
			c2.8-4.2,6-8.1,9.4-11.8c2.1-2.3,4.8-3.4,7.7-4.2c9.8-2.7,19.3-5.9,28.7-9.8c3.4-1.4,6.4-3.1,9.6-4.8c10.2-5.6,20.1-4.7,29.9,0.7
			C301.5,481.4,301.8,481.6,301.8,482z"/>
		<path d="M298.5,471.3c-6.2-0.1-12.8,1-19.3,1.6c-15,1.6-29.7,4.8-44.6,7c-9.3,1.4-18-0.1-26.4-4.4c-7.2-3.7-14.2-7.6-21.6-10.8
			c-0.8-0.3-1.5-0.7-1.4-1.6c0.2-1.2,1.2-1.1,2-1.1c7.2,0.1,14.2,1.5,21.2,2.6c11.8,1.7,23.6,2.1,35.4,0.7
			c10.5-1.2,20.9-0.8,31.4,0.4c9.1,1.1,18,2.5,27,3.9c0.8,0.1,2.3-0.1,2.2,1.1c-0.1,1.3-1.4,0.7-2.3,0.7
			C301,471.5,299.9,471.4,298.5,471.3z"/>
		<path d="M420.8,421.7c-3.7-1.4-6.8-3.8-10.2-5.6c-2.5-1.3-5.1-2.2-8.1-2.4c-1.5-0.1-1.6,0.7-1.6,1.9c0.1,5.7-3.1,9.7-8.5,11.3
			c-2.5,0.7-4.5,0-6.2-1.7c-0.8-0.8-1.4-1.5-2.1-2.4c-1.9-2.4-1.7-2.4-4.7-1.2c-3.2,1.3-6.4,2.5-10.1,1.7c-0.8-0.2-1.5-0.3-2.2-1
			c0.5-1.1,1.6-1.4,2.6-2c6.8-3.2,13.6-6.2,20.3-9.4c7.2-3.4,14.8-3.8,22.5-2.7c3.2,0.4,5.7,2.3,7.6,4.8c0.4,0.4,1.1,1.1,0.7,1.6
			c-0.3,0.5-1.2,0.2-1.9,0.2c-0.4,0-0.9-0.3-1.5,0C418.7,417.1,419.3,419.5,420.8,421.7z M386.7,421.4c0.9-0.4,2.5-0.1,2.5-1.9
			c0-1.4-1.3-1.5-2.3-1.6c-1.3-0.1-2.8,0.5-2.8,1.9C383.9,420.8,385.5,421,386.7,421.4z"/>
		<path d="M384.5,441.5c-4.2-0.1-6.9-2.4-9.5-4.7c-2-1.7-3.4-4.2-5.1-6.2c-0.8-0.9-0.3-1.3,0.5-1.6c1-0.4,2.1-0.2,3.1,0.1
			c4.4,1.2,8.4,3.4,12.8,4.2c6.6,1.2,13.1,1.2,19.6-1c0.9-0.3,2.1-1.1,2.6,0c0.5,1.1-0.4,2.1-1.4,2.7c-2.8,1.9-6.1,3-9.5,3.6
			c-3.6,0.7-7.4,1-10.8,2.5C385.9,441.5,385,441.4,384.5,441.5z"/>
		<path d="M383.9,429.3c9.6,2.3,18.5-1.3,27.5-3.2C402.6,430.1,393.6,433.4,383.9,429.3z"/>
		<path d="M286.8,307c-0.3,3.9-0.7,7.6-0.7,11.4c0,5,0.2,9.9,1.1,14.9c0.3,1.6-0.2,2-1.6,2.1c-3.3,0.3-6.6,0.2-9.8,0.3
			c-0.8,0-1.1-0.2-0.9-1c2.5-9.6,5.6-19.1,11.5-27.3C286.2,307.3,286.3,307.3,286.8,307z"/>
	</g>
</g>
<g>
	<g>
		<path fill="#C4BA98" stroke="#000000" stroke-width="0.5" stroke-miterlimit="10" d="M447.2,630.6v-9.8h7.7v1.7H449v2.6h3.2v1.8
			H449v3L447.2,630.6z"/>
		<path fill="#C4BA98" stroke="#000000" stroke-width="0.5" stroke-miterlimit="10" d="M456.9,623.1c0-0.9,0.1-1.5,0.4-1.8
			c0.3-0.3,0.8-0.5,1.5-0.5h5.6c0.7,0,1.2,0.2,1.5,0.5c0.3,0.3,0.4,0.9,0.4,1.8v5.2c0,0.9-0.1,1.5-0.4,1.8c-0.3,0.3-0.8,0.5-1.5,0.5
			h-5.6c-0.7,0-1.2-0.2-1.5-0.5s-0.4-0.9-0.4-1.8V623.1z M458.7,628.7h5.8v-6.2h-5.8V628.7z"/>
		<path fill="#C4BA98" stroke="#000000" stroke-width="0.5" stroke-miterlimit="10" d="M470,629v-8.2h6.5c0.6,0,1,0.1,1.3,0.4
			c0.3,0.3,0.4,0.8,0.4,1.5v2.3c0,0.7-0.1,1.1-0.4,1.5c-0.3,0.3-0.7,0.4-1.3,0.4h-1l3.5,3.7h-2.5l-3.1-3.7h-1.7v1.8L470,629z
			 M475.7,622.5h-4v2.7h4c0.3,0,0.5-0.1,0.6-0.2c0.1-0.1,0.2-0.3,0.2-0.6v-1.2c0-0.3-0.1-0.5-0.2-0.6
			C476.2,622.5,476,622.5,475.7,622.5z"/>
	</g>
	<g>
		<path fill="#C4BA98" stroke="#000000" stroke-width="0.5" stroke-miterlimit="10" d="M434,650.3c0.7-0.1,1,0.2,1,0.9v1.1h1.9
			c0.8,0,0.9,0.3,0.5,0.8H435c0,1.3,0.1,1.9,0.3,1.9c0.3,0.1,0.6,0,0.9-0.1c0.8-0.2,1.2,0.1,1.1,0.9c-0.1,0.6-0.1,1.4-0.1,2.6
			c0.1,0.8-0.3,1.1-1.3,0.9c-1-0.3-2.1-0.3-3.2,0c-0.7,0.4-1.1,0.2-1.1-0.6c-0.1-0.8-0.3-1.8-0.5-2.8c0.1-0.7,0.6-0.9,1.4-0.6
			c0.7,0.1,1-0.1,1-0.5c0-0.9,0-1.8-0.1-2.7C433.2,650.8,433.4,650.2,434,650.3z M432.7,656.4c-0.1,1,0.1,1.6,0.5,1.7
			c2,0.3,2.8,0,2.7-0.9c0.2-1.2-0.6-1.7-2.4-1.4C433,655.8,432.7,656,432.7,656.4z M437.8,653.5c0.3,0,0.6,0,0.6-0.1
			c-0.1-0.9-0.1-1.8-0.1-2.7c-0.1-0.6,0.2-0.8,0.9-0.8c0.4,0,0.6,0.2,0.6,0.6c-0.1,0.8-0.1,1.7,0,2.7c2.8-0.4,4.2-0.4,4.1,0
			c0.2,0.3,0.1,0.4-0.1,0.4c-1.3,0.2-2.6,0.4-3.8,0.6c0.3,0.8,0.5,1.4,0.8,1.9c0.3-0.4,0.7-0.9,1-1.5c0.3-0.3,0.5-0.3,0.8-0.3
			c0.3,0.3,0.5,0.6,0.4,0.9c-0.5,0.7-1,1.2-1.4,1.7c0.9,0.9,2.5,1.4,4.6,1.3c0.2,0.1-0.1,0.5-0.8,1.3c-0.9,0.9-1.9,1.1-2.9,0.5
			c-0.4-0.3-1.1-1-2-1.9c-0.8,0.6-1.7,0.9-2.7,1c-0.4-0.1-0.5-0.3-0.3-0.5c0.8-0.3,1.6-0.8,2.3-1.5c-0.3-0.5-0.7-1.4-1-2.6
			c-0.4,0.1-0.8,0.2-1.1,0.4c-0.5,0.1-0.7-0.2-0.6-0.8C436.9,653.8,437.2,653.6,437.8,653.5z M441.9,650.6c0.3-0.6,0.6-0.8,1-0.5
			c0.4,0.3,0.6,0.6,0.4,1c-0.3,0.5-0.9,0.8-1.7,0.9c-0.3,0-0.5-0.1-0.4-0.4C441.5,651.3,441.7,650.9,441.9,650.6z"/>
		<path fill="#C4BA98" stroke="#000000" stroke-width="0.5" stroke-miterlimit="10" d="M451.9,653.5c0.4,0,0.7,0.1,0.9,0.4
			c-0.1,0.3-0.4,0.5-0.9,0.4c-0.5,0-1,0-1.5,0.1c0.2,0.3,0.1,0.5-0.3,0.8l-0.6,0.6c-0.3,0.3,0,0.6,0.6,0.6c0.5,0.1,0.9-0.1,1.3-0.5
			l-0.4-0.8c0.1-0.3,0.3-0.3,0.5-0.3c0.3,0.2,0.5,0.3,0.8,0.5c0.2,0.3,0.4,0.7,0.6,1.1c-0.1,0.2-0.2,0.3-0.3,0.3
			c-0.3,0.1-0.7-0.1-1-0.5c-0.5,0.9-1.1,1.3-1.7,1c-0.5-0.3-1-0.4-1.4-0.1c-0.2,0-0.3-0.1-0.5-0.4c-0.1-0.3,0.1-0.7,0.5-1
			c0.8-0.7,1-1.1,0.8-1.4c-0.3-0.1-0.8,0-1.5,0.3c-0.3,0.2-0.4,0.1-0.5-0.1c0.1-0.6,0.4-0.9,0.9-1L451.9,653.5L451.9,653.5z
			 M451.9,651.7c0.3,0,0.4,0.1,0.5,0.4c0,0.3-0.1,0.4-0.3,0.4h-2c-0.6,0-1.1,0-1.7,0.1c-0.2-0.1-0.3-0.3-0.3-0.5
			c0.1-0.3,0.3-0.5,0.5-0.6C449.3,651.6,450.4,651.7,451.9,651.7z M455.3,655.3c-0.3-0.1-0.5-0.1-0.8,0c-0.3,0.2-0.5,0.3-0.8,0.4
			c-0.2,0-0.3,0-0.4-0.1c-0.2-1.3-0.3-2.4-0.5-3.4c-0.1-0.5,0.2-0.8,0.8-0.8c0.3,0.2,0.7,0.2,1.3,0.1c0.3-0.3,0.6-0.7,0.9-1.3
			c0.1-0.2,0.3-0.3,0.5-0.3c0.8,0.3,1,0.6,0.6,0.9c-0.3,0.3-0.5,0.5-0.6,0.6c0.6,0,1.4,0.1,2.3,0.3c0.3-0.1,0.5-0.2,0.6-0.3
			c0.3-0.1,0.5,0,0.6,0.1c0.3,0.3,0.4,0.6,0.3,1.1c-0.3,0.8-0.4,1.6-0.5,2.4l-0.4,0.3c0.3,0.3,0.4,0.5,0.1,0.6
			c-0.2,0.2-0.3,0.3-0.5,0.5c-0.2,0.1-0.1,0.2,0.1,0.4c0.3,0.1,0.6,0,0.9-0.1c-0.3-0.3-0.4-0.4-0.1-0.5c0.3,0,0.6,0,0.8,0.1
			c0.2,0.3,0.3,0.5,0.5,0.8c-0.1,0.1-0.2,0.2-0.4,0.3l-0.5-0.4c-0.2,0.5-0.5,0.7-0.9,0.6c-0.3-0.3-0.7-0.3-1-0.3
			c-0.3-0.2-0.3-0.4-0.3-0.6c0.2-0.2,0.3-0.4,0.5-0.6c0.1-0.2,0.2-0.4,0.4-0.8c-0.7-0.1-1.5-0.1-2.4-0.1c-0.6,2-1.7,3.4-3.4,4.2
			c-1.4,0.5-2.4,0.3-3.1-0.6c0-0.1,0.2-0.1,0.5-0.1C453,658.5,454.7,657.3,455.3,655.3z M455.6,652.1c-0.6,0-1.1,0.1-1.4,0.3
			c-0.2,0.5-0.1,0.8,0.3,0.8l1.4-0.1C456,652.6,455.9,652.3,455.6,652.1z M455.8,653.6c-0.4,0-0.9,0-1.5,0.1c0,0.6,0.1,0.9,0.4,0.9
			l0.9-0.1L455.8,653.6z M456.7,655.9c0.1-0.3,0.3-0.5,0.5-0.5c0.2,0,0.3,0.1,0.4,0.3c-0.2,0.3-0.3,0.7-0.4,1c0,0.3,0,0.6,0.1,0.8
			c0.3,0.4,1,0.7,2,0.9c0.8,0.1,1.7,0,2.4-0.3c0.5-0.3,0.8-0.3,1-0.1c-0.1,0.5-0.4,1.1-0.9,1.8c-0.6,0.5-1.1,0.7-1.5,0.5
			c-1.4-0.3-2.6-0.8-3.6-1.8c-0.4-0.5-0.6-1-0.5-1.4C456.4,656.7,456.6,656.3,456.7,655.9z M458.6,654.8c0.2-0.3,0.2-0.6,0.1-0.9
			c-0.3-0.2-1-0.3-1.9-0.3c-0.1,0.3-0.1,0.7-0.1,1C457.3,654.7,458,654.8,458.6,654.8z M456.9,653l1.4,0.1c0.3,0.1,0.5-0.1,0.5-0.5
			c0-0.3-0.5-0.5-1.5-0.5C457,652.2,456.9,652.5,456.9,653z"/>
		<path fill="#C4BA98" stroke="#000000" stroke-width="0.5" stroke-miterlimit="10" d="M468.1,652.9c0.2-0.3,0.3-0.5,0.4-0.5
			c0.4-0.1,0.6,0.2,0.4,0.9c-0.3,0.8-0.6,1.6-1.1,2.4c-0.4,0.7-0.8,1.2-1.3,1.5c-0.8,0.8-1.7,0.7-2.7-0.1c-0.3-0.3-0.2-0.5,0.3-0.8
			C465.5,655.6,466.8,654.5,468.1,652.9z M471,650.3c0.8-0.1,1.2,0.4,1.1,1.4c-0.1,2.1,0,4.5,0.1,7.1c0,1-0.8,1.5-2.4,1.4
			c-0.8-0.1-1.8-0.6-2.9-1.4c-0.2-0.4-0.1-0.6,0.3-0.6c1.6,0.5,2.6,0.6,2.9,0.3c0.3-0.2,0.3-2.6,0.3-7.1
			C470.4,650.7,470.6,650.3,471,650.3z M473.1,653.3c-0.3-0.3-0.2-0.6,0.1-0.8c0.2-0.1,0.3,0,0.5,0.1c1.2,1.5,3,2.8,5.4,4
			c-0.3,0.4-0.5,0.7-0.8,0.9c-0.8,0.7-1.5,0.7-2.2,0C475,656.1,474,654.7,473.1,653.3z"/>
		<path fill="#C4BA98" stroke="#000000" stroke-width="0.5" stroke-miterlimit="10" d="M485.7,655c-0.3,0.8-0.5,1.5-0.8,1.9l1.7-0.3
			c-0.1-0.3-0.1-0.7-0.1-1c0.1-0.3,0.4-0.6,0.9-0.6c0.3,0,0.6,0.1,0.9,0.3c0.3,0.1,0.6,0.1,0.8,0v-4.2c0-0.5,0.2-0.8,0.5-0.9
			c0.8,0,1.3,0.3,1.3,0.9c-0.1,0.4-0.1,0.8-0.1,1c1.8,0.1,3.3,0.1,4.5,0.1c0,0.4-0.1,0.8-0.4,1.1c-0.3,0.3-0.7,0.4-1,0.3
			c-1.4-0.4-2.4-0.6-3.1-0.4c-0.2,0.7-0.2,1.4,0,2c0.6,0.1,1.1,0,1.4-0.1c1.1-0.3,1.7,0,1.7,0.9c-0.2,0.7-0.3,1.5-0.3,2.6
			c0.2,1.1-0.2,1.5-1.1,1.1c-1.2-0.2-2.5-0.2-3.8-0.1c-1,0.5-1.6,0.2-1.7-0.9c0-0.3,0-0.7-0.1-1.4c-1.7,0.8-3.7,1.4-6,1.8
			c-0.8,0.2-1.1-0.1-1-0.9c0-0.4,0.4-0.7,1.3-0.8c0.9-0.1,2-0.2,3.2-0.4c0.3-0.9,0.4-1.8,0.4-2.7c0-0.6,0.2-0.9,0.5-0.9
			C485.7,653.6,486,654.1,485.7,655z M484.7,651.1c-0.1,1,0,1.5,0.3,1.4l1.8,0.1c0.4,0.3,0.5,0.6,0.1,0.8c-0.2,0.1-0.5,0.1-0.9,0.1
			c-1.7-0.3-3.4-0.2-5.2,0.4c-0.3,0.1-0.5,0-0.5-0.4c0.2-0.8,0.5-1.1,1-1c0.7,0.2,1.2,0.2,1.5,0.1c0.3-0.1,0.3-0.6,0.3-1.5
			c0.1-0.3,0.3-0.5,0.5-0.5C484.1,650.5,484.4,650.7,484.7,651.1z M483.4,656.7c-0.2,0.3-0.4,0.3-0.6,0.1c-0.5-0.8-0.8-1.4-0.9-2
			c-0.1-0.6,0.1-0.9,0.6-1c0.4-0.1,0.6,0.1,0.6,0.5C483.2,655.1,483.3,655.9,483.4,656.7z M490.5,656.2c-1.2-0.1-2,0-2.3,0.3
			c-0.3,0.6-0.3,1.2,0,1.8c0.1,0.4,1,0.6,2.8,0.4c0.8,0,1.1-0.4,1.1-1.3C492.2,656.5,491.6,656.1,490.5,656.2z"/>
	</g>
	
		<linearGradient id="SVGID_1_" gradientUnits="userSpaceOnUse" x1="386.9421" y1="281.1555" x2="386.9421" y2="281.1555" gradientTransform="matrix(1.0929 0 0 -1.0929 0 955.5428)">
		<stop  offset="0" style="stop-color:#C4BA98"/>
		<stop  offset="1.474962e-002" style="stop-color:#CEC5A9"/>
		<stop  offset="4.332456e-002" style="stop-color:#DDD7C4"/>
		<stop  offset="7.615717e-002" style="stop-color:#EAE6DA"/>
		<stop  offset="0.1145" style="stop-color:#F3F1EB"/>
		<stop  offset="0.162" style="stop-color:#FAF9F6"/>
		<stop  offset="0.2285" style="stop-color:#FEFEFD"/>
		<stop  offset="0.4133" style="stop-color:#FFFFFF"/>
		<stop  offset="0.4696" style="stop-color:#DDDBD8"/>
		<stop  offset="0.5499" style="stop-color:#B2AFA6"/>
		<stop  offset="0.6258" style="stop-color:#908B7F"/>
		<stop  offset="0.6952" style="stop-color:#787263"/>
		<stop  offset="0.7558" style="stop-color:#696252"/>
		<stop  offset="0.801" style="stop-color:#645D4C"/>
		<stop  offset="0.8499" style="stop-color:#776F5B"/>
		<stop  offset="0.9484" style="stop-color:#A89F82"/>
		<stop  offset="1" style="stop-color:#C4BA98"/>
	</linearGradient>
	
		<linearGradient id="SVGID_2_" gradientUnits="userSpaceOnUse" x1="386.9421" y1="281.1555" x2="386.9421" y2="281.1555" gradientTransform="matrix(1.0929 0 0 -1.0929 0 955.5428)">
		<stop  offset="0" style="stop-color:#C4BA98"/>
		<stop  offset="1.389108e-002" style="stop-color:#C7BD9D"/>
		<stop  offset="0.1655" style="stop-color:#E5E1D2"/>
		<stop  offset="0.2794" style="stop-color:#F8F7F3"/>
		<stop  offset="0.3418" style="stop-color:#FFFFFF"/>
		<stop  offset="0.4046" style="stop-color:#E1E0DC"/>
		<stop  offset="0.5083" style="stop-color:#B5B1A9"/>
		<stop  offset="0.6058" style="stop-color:#928D81"/>
		<stop  offset="0.6943" style="stop-color:#797364"/>
		<stop  offset="0.7708" style="stop-color:#696352"/>
		<stop  offset="0.8265" style="stop-color:#645D4C"/>
		<stop  offset="0.8691" style="stop-color:#776F5B"/>
		<stop  offset="0.955" style="stop-color:#A89F82"/>
		<stop  offset="1" style="stop-color:#C4BA98"/>
	</linearGradient>
	<path fill="url(#SVGID_1_)" stroke="url(#SVGID_2_)" stroke-width="0.5" stroke-miterlimit="10" d="M422.9,648.3"/>
	
		<linearGradient id="SVGID_3_" gradientUnits="userSpaceOnUse" x1="393.7793" y1="286.3327" x2="393.7793" y2="286.3327" gradientTransform="matrix(1.0929 0 0 -1.0929 0 955.5428)">
		<stop  offset="0" style="stop-color:#C4BA98"/>
		<stop  offset="1.474962e-002" style="stop-color:#CEC5A9"/>
		<stop  offset="4.332456e-002" style="stop-color:#DDD7C4"/>
		<stop  offset="7.615717e-002" style="stop-color:#EAE6DA"/>
		<stop  offset="0.1145" style="stop-color:#F3F1EB"/>
		<stop  offset="0.162" style="stop-color:#FAF9F6"/>
		<stop  offset="0.2285" style="stop-color:#FEFEFD"/>
		<stop  offset="0.4133" style="stop-color:#FFFFFF"/>
		<stop  offset="0.4696" style="stop-color:#DDDBD8"/>
		<stop  offset="0.5499" style="stop-color:#B2AFA6"/>
		<stop  offset="0.6258" style="stop-color:#908B7F"/>
		<stop  offset="0.6952" style="stop-color:#787263"/>
		<stop  offset="0.7558" style="stop-color:#696252"/>
		<stop  offset="0.801" style="stop-color:#645D4C"/>
		<stop  offset="0.8499" style="stop-color:#776F5B"/>
		<stop  offset="0.9484" style="stop-color:#A89F82"/>
		<stop  offset="1" style="stop-color:#C4BA98"/>
	</linearGradient>
	
		<linearGradient id="SVGID_4_" gradientUnits="userSpaceOnUse" x1="393.7793" y1="286.3327" x2="393.7793" y2="286.3327" gradientTransform="matrix(1.0929 0 0 -1.0929 0 955.5428)">
		<stop  offset="0" style="stop-color:#C4BA98"/>
		<stop  offset="1.389108e-002" style="stop-color:#C7BD9D"/>
		<stop  offset="0.1655" style="stop-color:#E5E1D2"/>
		<stop  offset="0.2794" style="stop-color:#F8F7F3"/>
		<stop  offset="0.3418" style="stop-color:#FFFFFF"/>
		<stop  offset="0.4046" style="stop-color:#E1E0DC"/>
		<stop  offset="0.5083" style="stop-color:#B5B1A9"/>
		<stop  offset="0.6058" style="stop-color:#928D81"/>
		<stop  offset="0.6943" style="stop-color:#797364"/>
		<stop  offset="0.7708" style="stop-color:#696352"/>
		<stop  offset="0.8265" style="stop-color:#645D4C"/>
		<stop  offset="0.8691" style="stop-color:#776F5B"/>
		<stop  offset="0.955" style="stop-color:#A89F82"/>
		<stop  offset="1" style="stop-color:#C4BA98"/>
	</linearGradient>
	<path fill="url(#SVGID_3_)" stroke="url(#SVGID_4_)" stroke-width="0.5" stroke-miterlimit="10" d="M430.3,642.6"/>
	<g>
		<g>
			<path fill="#C4BA98" stroke="#000000" stroke-width="0.5" stroke-miterlimit="10" d="M427,635.8h-4.9v3.8h2.7v2.7h-2.7v4.7
				l-1.5,0.7v-14.4h6.4V635.8"/>
			<path fill="#C4BA98" stroke="#000000" stroke-width="0.5" stroke-miterlimit="10" d="M428.9,645.2v-0.7v-11.2h5.4
				c0.5,0,0.9,0.2,1.1,0.7c0.2,0.4,0.3,1.2,0.3,2.2v3.4c0,1-0.1,1.7-0.3,2.2c-0.2,0.4-0.6,0.7-1.1,0.7h-0.8l2.9,5.5h-2.1l-2.5-5.5
				h-1.4v1.8v0.8L428.9,645.2z M433.6,635.8h-3.3v4.1h3.3c0.3,0,0.4-0.1,0.5-0.3c0.1-0.2,0.1-0.5,0.1-0.9v-1.7
				c0-0.4-0.1-0.7-0.1-0.9C434,635.9,433.8,635.8,433.6,635.8z"/>
			<path fill="#C4BA98" stroke="#000000" stroke-width="0.5" stroke-miterlimit="10" d="M438.6,647.8v-14.6h1.5v14.6H438.6z"/>
			<path fill="#C4BA98" stroke="#000000" stroke-width="0.5" stroke-miterlimit="10" d="M443.3,647.8v-14.6h6.4v2.5h-5v3.3h2.9v2.5
				h-2.9v3.6h5v2.7L443.3,647.8L443.3,647.8z"/>
			<path fill="#C4BA98" stroke="#000000" stroke-width="0.5" stroke-miterlimit="10" d="M452.5,647.8v-14.6h1l4.4,8.6
				c0.1,0.3,0.3,0.6,0.4,0.8c0.1,0.3,0.2,0.5,0.3,0.8c0-0.8,0-1.4-0.1-1.7c0-0.3,0-0.6,0-0.8v-7.7h1.3v14.6h-1l-4.6-9
				c-0.1-0.2-0.2-0.4-0.3-0.6c-0.1-0.2-0.2-0.4-0.2-0.6c0,0.4,0,0.9,0,1.3s0,0.8,0,1v7.9H452.5L452.5,647.8z"/>
			<path fill="#C4BA98" stroke="#000000" stroke-width="0.5" stroke-miterlimit="10" d="M463.1,647.8v-14.6h4.1c1.1,0,2,0.6,2.7,1.9
				c0.6,1.3,0.9,3,0.9,5.3c0,1.4-0.1,2.6-0.4,3.7c-0.2,1.1-0.6,1.9-1,2.6c-0.3,0.4-0.6,0.7-1,0.9c-0.4,0.2-0.9,0.3-1.6,0.3
				L463.1,647.8L463.1,647.8z M464.6,645.1h1.9c1,0,1.7-0.4,2.1-1.1c0.4-0.7,0.6-1.9,0.6-3.6c0-1.5-0.2-2.6-0.5-3.4
				c-0.3-0.8-0.9-1.1-1.5-1.1h-2.6L464.6,645.1L464.6,645.1z"/>
			<path fill="#C4BA98" stroke="#000000" stroke-width="0.5" stroke-miterlimit="10" d="M478.9,635.8h-4.1v3.1h3.9
				c0.6,0,1,0.3,1.2,0.7s0.3,1.4,0.3,2.7v2c0,1.3-0.1,2.2-0.3,2.7c-0.2,0.5-0.6,0.7-1.2,0.7h-3.9c-0.6,0-1-0.3-1.2-0.7
				s-0.3-1.4-0.3-2.7V644l1.3-0.6v1.7h4.5v-3.3h-3.9c-0.6,0-1-0.3-1.2-0.7s-0.3-1.4-0.3-2.7v-1.6c0-1.3,0.1-2.2,0.3-2.7
				c0.2-0.5,0.6-0.7,1.2-0.7h3.6c0.6,0,1,0.2,1.2,0.7c0.2,0.5,0.3,1.3,0.3,2.5v0.3l-1.3,0.7V635.8L478.9,635.8z"/>
			<path fill="#C4BA98" stroke="#000000" stroke-width="0.5" stroke-miterlimit="10" d="M489.4,645.6v-4.1h-4.6v5.7l-1.5,0.5v-14.6
				h1.5v5.7h4.6v-5.7h1.5v11.9L489.4,645.6z"/>
			<path fill="#C4BA98" stroke="#000000" stroke-width="0.5" stroke-miterlimit="10" d="M494.1,647.8v-14.6h1.5v14.6H494.1z"/>
			<path fill="#C4BA98" stroke="#000000" stroke-width="0.5" stroke-miterlimit="10" d="M498.8,647.8v-14.6h5.4
				c0.5,0,0.9,0.2,1.1,0.7c0.2,0.4,0.3,1.2,0.3,2.2v3.3c0,1-0.1,1.7-0.3,2.1c-0.2,0.4-0.6,0.7-1.1,0.7h-4v5L498.8,647.8z
				 M503.5,635.8h-3.3v3.9h3.3c0.3,0,0.4-0.1,0.5-0.3c0.1-0.2,0.1-0.5,0.1-0.9v-1.6c0-0.4-0.1-0.7-0.1-0.9
				C503.9,635.9,503.8,635.8,503.5,635.8z"/>
		</g>
	</g>
</g>
</svg>
