<?xml version="1.0" encoding="utf-8"?>
<!-- Generator: Adobe Illustrator 18.1.1, SVG Export Plug-In . SVG Version: 6.00 Build 0)  -->
<svg version="1.1" id="图层_1" xmlns="http://www.w3.org/2000/svg" xmlns:xlink="http://www.w3.org/1999/xlink" x="0px" y="0px"
	 viewBox="0 0 560 560" enable-background="new 0 0 560 560" xml:space="preserve">
	 <style type="text/css">
	.st0{fill:#FFFFFF;}
</style>
<g>
	<g>
		<path class="st0" d="M229.3,462c-3.6,1.1-5.4,3.6-7.1,6.5c-1.1-3.5,1.1-5.9,2.2-8.5c-3.2-2.3-5.4-1.8-9.3,2c-0.5-1.6,0-2.9,0.6-4.2
			c0.6-1.2,1.4-2.4,2.1-3.6c-2.5-1.9-2.9-1.8-6.3,1.7c-0.5-2.5,0.7-4.6,0.7-6.9c-1.4,0.2-1.2,1.9-2.4,2.4c-1.4-3.3-0.2-7.1-2.2-10.3
			c-1.9-3-5-4.9-7.4-7.5c0.4,11.3,2.8,22,7.4,32.2c0.2,0,0.4,0,0.5-0.1c0.2-2.1,0.4-4.3,0.6-6.7c1.3,1.4,1.4,3.1,1.4,4.5
			c0.2,3.8,1.3,7.3,2.5,10.8c1.4,4.1,2.7,8.4,5.2,12.2c-0.4-2.8-0.9-5.7-1.1-8.5c-0.2-2.9-0.4-5.8,1-9.1c1.5,14,7.4,26.3,11.2,39.3
			c0.1-5.4-0.2-10.7,0.3-16.2c0.7,0.6,0.5,1.4,0.8,2.1c0.8-0.1,0.1-1,0.7-1.3c2.1,13.5,5.4,26.5,15.3,36.6
			c-5.6-8.4-10.2-17.2-10-27.7c1,5.6,1.8,11.3,5.1,16.1c2.4,3.6,5.4,6.8,8,10.3c4.3,5.5,8,11.4,10.3,18c0.1,0.3,0.1,0.7,0.7,0.7
			c0.9-4.9,0.8-9.8,0.9-14.8c0.8,3.7,0.7,7.5,1.6,11.1c0.2,0.6-0.2,1.9,1.3,1.3c0,2.3-1.2,1.2-2.2,0.9c-1.6,1.8-0.5,4.5-2.2,6.4
			c-0.6-2.6-1.2-5-2.1-7.2c-1-2.2-2.2-4.3-3.5-6.4c-1.4-2-2.5-4.2-4.4-6.2c-0.1,1.8,1.3,2.9,0.9,4.8c-8.7-8.7-15.7-17.9-18.8-30.2
			c-1.4,4.7,0.9,9.2-1,13.4c-2.9-10.8-7.1-21.2-10.5-31.9c0,4.3,0.9,8.6-0.1,12.9c-1.6-10.6-6.9-20-10.1-30.5
			c-0.8,2.8,0,5.1-0.3,7.5c-0.7-0.1-0.5-0.6-0.6-0.9c-1.9-7.4-4.5-14.7-6.9-21.9c-2.2-6.7-3.3-13.6-3.2-20.6c0-2.7-0.3-3.1-3-3.6
			c-1.9-0.4-3.9-0.8-5.8-1.1c-6.8-1.2-12.6-4.2-17.6-9.1c-7.6-7.3-13.9-15.4-16.6-25.7c-2.7-10.5-3.8-21.1-1.6-31.8
			c0.2-1.1,0.6-2.2,1.2-3.1c0.5-0.8,1.2-1.2,2.2-0.9c0.9,0.3,0.6,1,0.7,1.7c1.6,11.6,6.3,21.5,16.4,28.2c0.1,0.1,0.3,0.1,0.5,0.1
			c0.3-0.7-0.1-1.3-0.2-1.9c-2.1-8.1-4.7-16-6.3-24.2c-2.2-11.4-2-22.9-0.8-34.4c0.9-9.6,2.6-19.1,3-28.8c0.2-4.7-0.4-9.4-0.6-14
			c-0.3-11.5-0.3-22.9,1.4-34.3c1.7-11,6.8-20.3,15.2-27.6c4.5-3.9,7.9-8.5,10.7-13.6c4.3-8.1,8.8-16,15.1-22.8c2.6-2.8,5.2-5.5,8-8
			c1.9-1.7,3.4-3.6,4.5-5.9c4.8-10.2,13.1-17.1,22.2-23.1c3-2,6.3-3.6,9.6-5.1c0.6-0.2,1.1-0.6,2.1-0.4
			c-6.3,5.3-11.7,11.2-15.8,18.3c1.2,0.1,1.7-0.7,2.3-1.3c3.8-4.4,7.9-8.5,12-12.7c5.9-6.2,13-9.3,21.4-10.2c4-0.4,8.1-0.7,12.2-0.5
			c6.8,0.3,12.2,3.2,16.8,8c4.4,4.6,8.5,9.4,11,15.3c0.3,0.7,0.7,1.4,1.7,1.9c-0.4-3.9-1.7-7.3-3.4-10.6c-1.7-3.3-4-6.3-6.6-9.3
			c2.3-0.1,4,0.6,5.7,1.5c5.8,3.1,9.6,8,12.1,13.9c1.1,2.7,2.1,5.5,3.3,8.6c0.5-3.2,0-5.7-0.8-8.3c-0.8-2.5-2.2-4.8-3.3-7.2
			c4.9,3.6,10.1,7,13,12.5c3.7,7.3,8.2,14.1,13.2,20.6c7.6,9.9,13.7,20.7,19.9,31.5c2.2,3.8,5.1,7,8.7,9.6c1.4,1,2.4,2.2,3.2,3.6
			c2.8,5.1,6.2,9.9,7.9,15.5c0.3,0.9,0.5,1.8,0.8,2.7c0.7,0.3,0.6-0.8,1.4-0.6c0,1.1,0,2.2,0,3.4c0.1,5.1,1.3,10.1,1.8,15.1
			c0.8,7.5,1.2,15,0.8,22.5c-0.7,14.7,0.5,29.3,1.7,43.9c0.9,11.1,1.6,22.2,0.2,33.3c-0.6,4.4-1.5,8.8-2.5,13.1
			c-0.1,0.5-0.4,1.1-0.1,1.9c6.1-7.5,9.2-16.1,9.8-25.6c1.6,0.4,2,1.7,2.4,2.9c2.1,6.1,3.2,12.3,3.2,18.8c0,8.1-0.8,16.2-4.3,23.6
			c-6.7,14-17.4,23.5-32.5,27.7c-2.5,0.7-5.2,0.9-7.7,1.8c-0.6,0.2-2.1-0.3-3.2-0.3c-3.4,0.1-6.9,0.2-10.3-0.2
			c-0.8-0.1-1.7-0.2-2.5,0.1c-8.4,2.6-16.7,1.9-25-0.5c-8.5-2.4-16.9-5-25.6-6.3c-10.9-1.7-21.9-2.2-32.9-0.8
			c-5,0.6-9.5,2.8-14.1,4.7c-4.3,1.8-8.6,3.6-13.3,4.3c-3.1,0.4-6.2,0-9.3-0.2c-4.2-0.4-8.5-0.4-12.6,0.4c-5.7,1.2-11.4,1-17.2,0.5
			c-0.6-0.1-1.3-0.4-1.9,0.3c0,0.5,0.4,0.8,0.7,1.1c7.8,6.7,15.3,13.7,23.7,19.7c9,6.4,18.9,10.7,29.3,14.2
			c10,3.4,20.1,5.9,30.7,6.3c12.9,0.5,25.2-1.9,37-7.4c12-5.5,22.6-12.7,31.5-22.4c2.3-2.5,4.8-4.9,7.5-7.1c0.3-0.3,0.6-0.6,1.3-0.7
			c0.1,3.8,0.5,7.5,0.5,11.3c-0.1,10.7-0.7,21.3-3.1,31.8c-0.7,3.1-1.7,6-3.5,8.6c-0.6,0.8-1.2,1.6-2.3,2.6
			c1.9-6.4,2.7-12.5,3.7-18.9c-1.2,0.4-1.7,1.3-1.9,2.2c-1.7,6.8-4.6,13.2-7.4,19.6c-1.8,4.2-2.8,8.5-1.5,13
			c-3.2-3.3-1.7-7.5-2.2-11.7c-2.3,3.4-3.9,6.7-4.4,10.5c-0.5,3.9,0.9,7.3,2.7,10.7c-1.4,0-1.4,0-5.8-4.5
			c-2.2,5.8-4.4,11.4-6.7,17.4c-2.8-6.8-5.5-13.2-10-18.9c-0.9,11.6-5,21.9-11.7,30.9c0.5-4.3,2.2-8.7,2.1-13.5
			c-4,5.8-7.7,11.9-13.9,16.3c0.7-5.9,2.8-11.2,2.1-17.3c-3.8,5-8.5,8.8-11.9,13.7c0.4-6.1,4-10.8,6.7-16.1
			c-1.1,0.3-1.6,0.8-2.2,1.4c-5.1,4.8-10.6,8.9-16.3,13c-3.2,2.3-5.9,5-8.2,8.2c0.3-3.2,0.6-6.3,2.2-9.2c-1.6,0-2,1.2-2.6,2.1
			c-0.7,1-1.2,2-1.9,3.2c-0.2-4.8,10.9-14.7,15.9-17.3c-4.9,4.1-8.7,9.1-11.1,15.2c8.8-7.2,17.2-15,27.1-20.7
			c0.2,0.1,0.3,0.3,0.5,0.4c-2.3,4.3-4.7,8.6-7,12.9c0.1,0.1,0.2,0.2,0.3,0.3c1.7-1.8,3.4-3.7,5.1-5.5c1.8-2,3.4-4.1,4.9-6.2
			c1.5-2.1,2.9-4.3,4.1-6.6c1.2-2.3,2.2-4.7,3.1-7.1c0,1.9-0.7,3.6-1.4,5.3c-1.3,3.3-3.1,6.4-5.2,9.3c-1,1.4-1.4,2.7-1.2,4.4
			c0.6,4.7-0.4,9.3-1.8,13.8c-0.1,0.3-0.1,0.5,0,0.9c1.8-1.6,3.3-3.6,4.7-5.5c1.4-2,2.8-4.1,4.1-6.2c1.3-2.1,2.5-4.2,3.6-6.3
			c1.2-2.2,2.2-4.4,3.4-6.6c-0.9,4.5-2.3,8.9-1.7,13.6c0.8-0.3,0.9-1,1.2-1.6c2.5-5.6,3.6-11.5,4-17.6c0.6-8.9,0.1-17.7-2.6-26.3
			c-0.7-2.1-1.5-4.1-3.3-6.1c0.3,3.5,1.1,6.5,1.7,9.5c0.6,3.2,0.7,6.4,0.7,9.6c0,3.1,0,6.3-1.2,9.3c-0.3-5.2-1.2-10.3-2.9-15.3
			c-1.6-4.9-3.6-9.7-6.1-14.3c-0.7,9-2.1,17.9-4.6,26.6c-0.8-5-1-10.1-3.4-14.9c-1.9,8.4-4.7,16.4-9.7,23.5
			c3.4-10.2,6.2-20.6,4.1-31.5c-2.9,13.7-6.3,27.2-15.3,38.8c-0.1-0.4-0.2-0.6-0.2-0.6c5.5-8.9,8.2-18.9,10.1-29.1
			c0.5-2.7,1-5.4,0.3-8.2c-0.7-2.5-1.4-2.9-3.7-1.8c-2,1-3.3,2.4-3.8,4.6c-1.8,7.2-4.9,14.1-6.8,21.3c-0.6,2.4-1.2,4.8-1.4,7.3
			c0,0.3-0.1,0.6-0.5,0.8c-0.6-3.6-0.4-7.1,0.2-10.5c1.1-6.7,2.4-13.3,3.6-20c0.2-0.9,0.3-1.7-0.7-2.2c-1-0.5-1.7-0.1-2.4,0.7
			c-0.2,0.3-0.5,0.5-0.6,0.8c-3.9,6.8-8.4,13.1-10.9,20.6c-0.4,1.1-0.7,2.2-1.1,3.3c-0.6-1.9-0.1-3.7,0.1-5.6
			c0.6-4.3,2.8-7.9,4.8-11.7c1.9-3.6,3.8-7.2,5.7-10.8c0.2-0.4,0.6-0.8,0.5-1.4c-5.4,2.5-12.1,10.4-15,18c-3,8-2.5,15.7,1.3,23.3
			c-2.4-2.6-3.5-5.8-4.2-9.1c-2-9.1,0.6-17.2,5.6-24.7c2.3-3.4,4.6-6.6,7-10.1c-5.9,0.1-15.1,9.7-18.1,18.5c-3,9-2,17.7,2,26.1
			c-2.4-2.3-3.8-5.1-4.7-8.1c-1.1-3.8-1.2-7.7-1-11.6c0.3-8,1.6-15.8,5-23.2c0.6-1.2,1.2-2.4,1.8-3.6c-2.2-2.5-6.2-2.4-8.7,0.3
			c-2.6,2.8-4.2,6.2-5.2,10c-0.7,2.6-1,5.3-1.5,7.9c-2.1-7,0.2-13.6,2.2-20.4c-1.9,0.6-2.8,2.1-4.3,3.1c-0.1-3.9,2.4-6.3,4.1-9.4
			c-1.7,0.1-2.8,0.8-3.8,1.8c-3,3-4.2,6.9-4.8,11c-0.3,2.1-0.3,4.3-0.4,6.4C223.3,476.7,225.5,469.4,229.3,462z M171.2,348.4
			c0,2-0.1,4.1,0.1,6.1c0.6,4.8,1.7,9.5,2.5,14.3c1.2,6.8,2.5,13.5,3.8,20.3c0.3,1.4,0.9,2.2,2.4,2.4c4.1,0.4,8-0.1,11.7-1.7
			c0.5-0.2,1.1-0.3,0.9-1.2c-1.1-5.3,1-9.8,4.1-13.8c4.3-5.6,10.4-6.1,16.7-4.6c6.6,1.5,12.4,4.9,18.4,8c7.8,4.1,15.4,8.5,23.7,11.6
			c15.8,5.8,31.9,6.7,48,1.7c11.2-3.5,22.1-8.2,32.6-13.6c3.9-2,7.7-4,11.9-5.3c3.2-1,6.5-1.5,9.8-1.9c5.3-0.7,9,2.1,12.3,5.8
			c1.4,1.5,2.2,3.2,2.3,5.3c0.1,1.4,0.4,2.7,1.6,3.6c2.2,1.6,4.6,3.1,7.2,4.1c5.6,2.1,9.5,0.3,11.5-5.3c2.2-6.1,3.2-12.4,4.1-18.8
			c0.7-4.6,1.8-9.2,1.4-13.9c-0.9-10.5-2-21-2.8-31.5c-0.9-12.1-1.8-24.2-2-36.3c-0.1-5.8-0.6-11.5,0-17.3c0.1-1.2,0.5-2.3,0.2-3.5
			c-0.9-4.6-1.8-9.3-2.9-13.9c-3-12.7-9.9-22.4-21.6-28.5c-8.2-4.3-17.1-5.9-26.2-6.6c-6.8-0.5-13.7-0.3-20.5-0.3
			c-4.6,0-9.1-0.6-13.4-2.3c-4.6-1.8-9.3-2.6-14.2-3.1c-8.7-0.9-17.2,0.1-25.7,1.8c-6.6,1.4-13.3,2.5-20.1,2.6
			c-4.1,0.1-8.1-0.1-12.2-0.3c-7.6-0.4-14.9,0.8-22.3,2.4c-6.5,1.4-12.8,3.1-18.3,7.1c-6,4.3-11.5,9.1-15.6,15.3
			c-5.4,8-6.6,17-6.8,26.3c-0.3,11.8,0.3,23.6,0.3,35.4c0,2-0.1,4.1-0.5,6.1c-2,9.1-2.3,18.3-2.9,27.6
			C170.5,337.7,171.2,343.1,171.2,348.4z M169.5,390.1c-0.5,1.6-0.5,2.9,0.3,4.1c1-0.1,1.6-1.3,2.7-0.6c1,0.7,0.3,1.9,0.8,2.7
			c0.9,0,0.9-1.2,1.7-1.1c0.6,1.1,0.3,2.6,1.1,3.7c1.5-2,2.5-2.2,4-1.2c1.1,0.8,1.1,2.5,0.2,3.8c-1.2,1.7-2.2,0.4-3.1-0.3
			c-0.6,0.3-0.7,0.7-0.9,1.1c-0.3,0.7-0.7,1.3-1.6,1.1c-0.9-0.2-0.6-1.1-0.8-1.7c-0.3-1.2,0.2-2.4-0.4-3.8c-0.8,1.2-1.4,2.1-2.1,3.1
			c-0.3,0.5-0.8,0.9-1.4,0.7c-0.7-0.2-0.9-0.8-0.8-1.5c0.2-1.3-0.3-2.3-1-3.3c-1-1.6-2.4-3.1-3-4.9c-0.9-3-3.1-5.4-3.3-8.6
			c0-0.3-0.3-0.6-0.6-0.8c-1.4-1.2-2-2.8-2.6-4.5c-0.5-1.5-0.6-2.9,1.2-3.7c-1.2-3.6-1.7-7.3-2.7-10.9c-0.2,0.2-0.3,0.4-0.4,0.6
			c-1.9,8.9-1.6,17.8,0.9,26.4c2.5,8.5,7.4,15.9,12.8,22.9c2.7,3.5,5.4,7.1,9.5,9c8.3,4,17,6.7,26.3,6.6c11-0.2,21.5-2.7,31.7-6.7
			c2.7-1.1,4.5-3.2,5.5-5.9c2.1-5,2.5-10.2,1.4-15.6c-2.6-12.4-9.3-20.9-22-24.1c-5.4-1.4-10.3-0.8-15,2.3
			c-4.3,2.9-8.2,6.1-11.8,9.8c-6.7,7.1-17.6,8.7-25.8,1.8C170.3,390.6,170,390.4,169.5,390.1z M408.6,365.8
			c-0.5,0.3-0.5,0.8-0.5,1.2c-0.3,1.8-0.6,3.6-1.1,5.3c-2.2,8-7.6,13.9-13.7,19.1c-1.5,1.3-3.4,1.9-5.4,2.2
			c-4.1,0.5-7.8-0.7-11.4-2.5c-4.5-2.3-7.8-5.9-10.5-10.1c-1.5-2.2-3.4-3.7-6-3.9c-3.4-0.4-6.9-0.3-10.1,1.2
			c-7.5,3.5-13.8,8.1-16.2,16.6c-1.2,4.4-1.4,8.9-1.1,13.4c0.3,6.3,3.1,11.1,8.8,14c5.4,2.7,11,4.3,17,4.7c8.5,0.6,16.8,0,24.6-3.7
			c4-1.9,7.2-4.8,10.6-7.6c6.1-5,10.7-10.9,13-18.5c2-6.7,3-13.5,3.1-20.5C409.6,373.1,409.4,369.5,408.6,365.8z M313.7,209.4
			c2.4,1.6,4.7,2.6,7.6,2.3c3.7-0.3,7.4-0.7,11.1-0.8c12.7-0.5,25.1,0.9,36.9,6.1c0.2,0.1,0.5,0.3,0.8-0.2
			c-6.7-16-18.2-29-27.8-43.6c-0.7,2.2-1.2,4-1.9,5.7c-3.7,9.8-10.1,17.4-18.6,23.4C319,204.4,316,206.4,313.7,209.4z M196.8,217.3
			c1.2,0,1.2,0,2.1-0.4c11.7-5.4,24-7.5,36.9-7c5.5,0.2,11,1.4,16.5,1.2c1,0,2,0.1,2.9-1c-0.5-0.4-1-0.8-1.4-1.2
			c-5.2-4.7-11-8.4-16.9-12.2c-5.3-3.5-9.5-8-11.7-14.1c-0.3-0.9-0.6-1.8-1-2.9C213.1,191,203.5,203,196.8,217.3z M317.7,475.7
			c-0.1,0.4-0.1,0.5-0.1,0.7c2.5,9.4,3.4,19.1,3.3,28.8c0,0.7,0.2,1.4,0.5,2c2.9,5.3,6.3,10.4,8.8,16c0.6-3.3,1.3-6.6,0.7-9.9
			c-1.8-10.9-5.1-21.5-9.6-31.6C320.4,479.6,319.4,477.6,317.7,475.7z M276.9,410.8c3.8-3.6,5.2-7.9,5.1-12.9c0-1.5-0.7-2.1-2.2-2.2
			c-1.7,0-3.4-0.1-5.1-0.3c-2.5-0.3-4.3,1.4-3.9,3.8C271.5,403.7,273.4,407.6,276.9,410.8z M264,410.9c1.2-4.9,2.2-9.2,3.2-13.6
			c0.1-0.6-0.1-1-0.4-1.4c-2.5-3.9-8-3.9-10.5-0.1c-0.5,0.8-0.8,1.7-0.2,2.5C258.6,402.4,261.2,406.5,264,410.9z M262.3,208.3
			c-4.7-5.7-9.2-11.2-12.1-17.9c-2.8-6.6-3.7-13.7-5.3-20.7c-1,0.5-0.8,1.3-0.9,1.9c-0.1,3.4,0.5,6.7,1,10.1
			c1.5,10.4,6.6,18.8,13.9,26.1C259.8,208.6,260.8,208.9,262.3,208.3z M264.1,157c-5.3,9.2-6.2,19-3.8,29.2
			c2.1,9,7.1,18.5,10.6,20.3c-4.3-7.7-7.7-15.5-9.1-24.1C260.4,173.8,261.3,165.3,264.1,157z M304.8,409.4c2.5-2.6,4.4-5.1,5.5-8.2
			c0.5-1.3,0.7-2.7,0.1-4.1c-1-2.4-3.8-3.5-6.4-2.4c-2.6,1.1-3.2,2.7-2,5.4C303.2,403,304.1,406,304.8,409.4z M285.1,205.3
			c2.3-0.6,3.7-1.6,4.6-3.2c2.5-4.3,3.5-9.1,4.1-14c0.9-7.8,0-15.5-0.8-23.3c-0.1-1.4-0.2-3-1.3-4.6c0.2,3.5,0.4,6.7,0.4,9.8
			c0.1,5.7,0.3,11.4-0.5,17.1C290.9,193.5,288.9,199.5,285.1,205.3z M269,406.1c-1.6,4-1.8,7.9-1.9,11.8c0,1,0.7,1.4,1.5,1.6
			c2.9,1,5.6,0.3,8.1-1.4c0.5-0.3,0.7-0.7,0.4-1.3C274.8,413.1,272.4,409.4,269,406.1z M291.4,410.3c2.2-3.3,3.3-6.8,3.7-10.4
			c0.3-3.2-1.5-4.9-4.7-4.6c-2.9,0.3-4.7,2.8-3.7,5.5C288,404,289.4,407.1,291.4,410.3z M318.6,407.6c0.5-0.2,0.7-0.2,0.8-0.3
			c0.2-0.2,0.4-0.4,0.5-0.7c1.9-5.1,3.3-10.3,2.8-15.8c-0.2-2.1-0.8-2.6-2.5-2.2c-2.7,0.5-5,2.4-4.5,3.9
			C317.4,397.3,318.8,402.2,318.6,407.6z M283.3,408c-1.6,2.7-2.8,5.6-3.4,8.6c-0.3,1.2,0.2,2.1,1.3,2.6c2.1,0.9,4.2,1.2,6.4,0.6
			c1.6-0.5,2.2-1.6,1.6-3.1c-0.7-2.1-1.5-4.1-2.6-6C285.9,409.4,285,408.4,283.3,408z M304.8,419.7c1.8,1.2,3.6,1.3,5.4,1.4
			c2,0,2.7-0.6,2.8-2.6c0.2-2.5,0.4-5,0.1-7.4c-0.2-1.5-0.4-3-1.6-4.4C309.2,411.1,307.6,415.6,304.8,419.7z M253.7,406.6
			c-0.5,3.8-1.3,7.1-1.2,10.5c0,1.9,0.9,2.8,2.7,3c2.1,0.2,4-0.4,5.9-1.3C258.6,414.8,257.4,410.2,253.7,406.6z M297.1,408.2
			c-1.5,2.9-3.3,5.6-3.8,8.9c-0.6,3.1,0,4,3,4.4c2.1,0.3,2.8-0.3,3-2.5c0.2-3-0.5-5.9-1-8.8C298.2,409.4,297.9,408.8,297.1,408.2z
			 M320.7,182c-0.5,0.4-0.5,0.9-0.6,1.4c-1.1,4.3-2.7,8.3-4.2,12.5c-1.6,4.5-4.5,7.9-8.4,10.5c-0.6,0.4-1.4,0.7-1.9,1.4
			c0.9,1.1,1.9,0.8,2.9,0.3c2.7-1.4,4.8-3.4,6.4-6.1c3.6-5.9,5.1-12.5,6.3-19.1C321.3,182.5,321.2,182.2,320.7,182z M309.5,172
			c-0.4,10.1-1.5,20.2-6,29.5C310.8,192.8,312.2,182.8,309.5,172z M276.4,199.4c-3.3-11.2-0.9-21.8,2.8-32.4
			c-0.3,0.1-0.4,0.2-0.5,0.4c-2.8,6.4-5,12.9-5.5,19.9C272.9,191.6,273.5,195.8,276.4,199.4z M330.5,477.2
			c-0.5,6.5,2.8,18.9,5.2,20.4C336,492.9,333.1,481.1,330.5,477.2z M342.3,464c-2,4.6-1.2,14.2,1.5,17.5
			C344.3,475.6,343.3,470,342.3,464z M320.9,412.4c-0.7,3.1-2.7,5.2-2.8,8.2c2,0,4,0,6,0C323.4,417.8,322.6,415.2,320.9,412.4z
			 M351.4,465.8c3.2-1.9,5.7-9.8,4.2-13C353.5,456.9,352,461.1,351.4,465.8z"/>
		<path class="st0" d="M358.9,19.2c-0.8,2.3-1.4,4.4-2.4,6.2c-6.3,11.5-9.2,24.2-12,36.9c-3.3,15.2-7.3,30.3-13.5,44.6
			c-2.2,5.1-5.2,9.7-8.9,13.7c-5,5.3-10.2,10.4-16.4,14.3c-2.4,1.5-5,2.3-7.9,1.8c-4.2-0.8-8.4-1.1-12.6-0.8c-0.4,0-0.8,0-1.1,0
			c-0.5-1.1-0.5-2.1-0.5-3.1c0-3.9-0.2-7.8-1-11.6c-0.9-4.6-0.2-9.2,1-13.7c4.8-18.3,11.3-36.1,19.8-53
			c6.3-12.5,15.7-22.3,28.5-28.4c6.2-3,12.8-4.3,19.5-5.6C353.8,20.1,356.2,19.7,358.9,19.2z M322.1,96.5c2.4-2.4,4.6-4.5,6.7-6.7
			c1-1.1,1.8-2.3,2.4-3.6c4.2-8.4,6.4-17.4,7.3-26.8c0.8-8.8,2.8-17.2,8-24.6c1.2-1.7,2.3-3.6,3.1-5.6c-1.6-0.1-2.1,0.2-3.8,1.9
			c-11,11.2-16.8,24.6-17.8,40.2c-0.5,7.8-2.2,15.4-5.3,22.6C322.4,94.6,322,95.3,322.1,96.5z M333.4,31.2c-0.7-0.2-1,0.2-1.3,0.4
			c-2.9,1.9-5.4,4.3-7.7,6.9c-6.2,7-11.4,14.7-16.1,22.8c-3.6,6.3-6.9,12.7-8.8,19.7c-0.6,2.1-0.5,2.1-0.2,3.6
			C307.5,64.6,317.6,46.1,333.4,31.2z M294.2,122.1c8.5-15.3,15.7-31.2,21.3-47.7C307.7,90,300.6,105.9,294.2,122.1z M302.9,128.2
			c6.8-6.5,11.7-14.3,16.1-22.4C312.6,112.5,307.9,120.5,302.9,128.2z"/>
		<path class="st0" d="M281.3,136.4c-4.4-0.2-8.3,1-12.3,2.1c-1.1,0.3-1.8-0.1-2.5-1c-3.8-4.8-8-9.2-12.4-13.5c-6.7-6.5-10.3-14.2-10.8-23.5
			c-0.1-2.5-0.9-4.9-1-7.4c-0.1-10.4,2.1-20.2,8.3-28.7c5.8-7.9,12-15.4,16.7-24c2.5-4.6,4.8-9.3,6.9-14.1c2.1-4.8,3.5-9.8,4.2-14.9
			c0.6,0.1,0.6,0.6,0.7,0.9c3.4,11.4,3.3,22.7,0.9,34.3c-1.9,9.4-3.7,18.8-5.4,28.2c-0.4,2.3-0.3,4.7-0.3,7.1
			c-0.1,12.9,2,25.5,5.6,37.9C281.5,125.2,281.2,130.7,281.3,136.4z M267.6,49.7c-1,0.3-1.2,0.8-1.6,1.2
			c-6.5,7.7-11.7,16.3-15.6,25.6c-4,9.6-4.4,19.2-0.6,29c0.3,0.7,0.2,1.5,1.2,2.2C251.4,86.8,255.4,67.2,267.6,49.7z M271.6,55.9
			c-0.2,0-0.3-0.1-0.5-0.1c-0.2,0.2-0.3,0.4-0.5,0.7c-0.4,0.9-0.9,1.7-1.2,2.6c-2.5,5.7-3.7,11.8-4.4,18c-1,9-0.8,17.9,0.7,26.8
			c1,6,2.4,11.8,5.4,17.1c0.4,0.7,0.7,1.6,1.8,1.9C264.1,100.8,264.1,78.5,271.6,55.9z"/>
		<path class="st0" d="M224.4,115.6c-4.3-4.5-4.9-9.8-5.1-15.7c-1.9,2.5-2.1,4.9-1.5,7.4c2,7.7,6.9,12.8,14.2,15.9c6.5,2.7,13.2,5,19.5,8.1
			c3.8,1.9,8,5.5,9.6,8.4c-5,1.9-9.9,3.9-14.4,6.6c-7.8,4.5-14.7,10-20.7,16.8c-0.8,0.9-1.4,1-2.4,0.4c-6.4-3.8-10.7-9.4-13.3-16.2
			c-3.8-9.9-5.6-20-3.4-30.5c1.4-6.7,4-12.9,9.1-17.8c0.3-0.3,0.6-0.7,0.8-1.1c2.7-5.8,7.9-9,13.2-11.9c1.9-1.1,4-2,6.4-2.8
			C229.8,93.1,223.5,102.7,224.4,115.6z M220.5,151.7c-3-5-5.7-9.6-6.7-15.3c1.9,1.4,3.8,2.2,6.1,2.8c-3.3-4.9-5.3-9.8-6.4-15.2
			c-1.1-5.3-0.9-10.6-0.2-16.3C204.8,117.9,209.7,145.3,220.5,151.7z M218.4,120c0.3,6.8,18.6,14,24.5,10.8
			C234.1,128.5,226,125,218.4,120z"/>
		<path class="st0" d="M388.3,86.9c-4,0.8-7.3,2.3-10.6,3.9c-9.4,4.6-14.7,12.1-17.2,22c-2.3,9.2-6.1,18-10.9,26.2c-2.8,4.8-7.1,8.2-11.9,10.8
			c-1.3,0.7-2.6,0.6-3.9,0.1c-5.2-2-10.3-4.3-15.4-6.5c-3.3-1.5-6.5-3-10.1-4c0.3-0.8,1-0.8,1.6-1c9.7-3.8,18.5-8.9,25.3-17
			c3.8-4.5,7.3-9.2,10.5-14.1c4-6.2,8.2-12.3,13.9-17.1C367.7,83.3,379.3,81.9,388.3,86.9z M355,109.3
			c-6.4,12.2-12.9,23.9-25.5,31.2C339.6,139.9,356.6,118.9,355,109.3z"/>
		<path class="st0" d="M238.1,90.6c0.7,4.7,1.4,9.1,2.1,13.5c1.3,8.1,4.4,15.2,10.3,21c1.7,1.7,3.3,3.6,4.9,5.4c0.6,0.7,1.2,1.4,1.5,2.4
			c-1.3-0.7-2.6-1.3-3.8-2.1c-4.7-3.5-10-5.9-15.5-7.7c-1.7-0.6-3.3-1.4-5-1.9c-2.7-0.9-4.2-2.8-4.7-5.6c-0.4-2.4-0.6-4.7,0.1-7
			C230,101.9,232.9,95.8,238.1,90.6z"/>
		<path class="st0" d="M293.5,67.8c-5.3,14-10.1,28.2-13.2,43.4c-1.2-2.6-1.6-4.9-2-7.2c-1.5-9.5-2.3-19-0.9-28.6c0.6-4.1,1.3-4.8,5.3-5.6
			c3.1-0.6,6.2-1.4,9.2-2.1C292.5,67.7,292.9,67.5,293.5,67.8z"/>
		<path class="st0" d="M317.4,130.1c15.2-12.6,20.9-30.3,26.4-48.2c0.6,2.6,0.5,5.2,0.4,7.8c-0.3,7.7-1.2,15.2-5,22.1
			c-4.1,7.6-10.2,13.1-17.7,17.2c-0.8,0.5-1.8,0.8-2.7,1.1C318.4,130.1,318,130.4,317.4,130.1z"/>
		<path class="st0" d="M270.4,445c4.4-9.2,26.4-11.8,34.3-3.7c-1.5,0.8-2.9,0.3-4.2,0c-4.4-1.1-8.9-1.4-13.4-1c-5.1,0.5-10,1.8-14.6,4
			C271.8,444.6,271.2,445.2,270.4,445z"/>
		<path class="st0" d="M260.4,431.3c12.9,1.1,25.7-0.8,38.8-2.4c-1.6,0.9-3,1.2-4.3,1.6c-10.6,2.8-21.3,3.6-32.2,3
			C260.9,433.4,260.9,433.4,260.4,431.3z"/>
		<path class="st0" d="M308.4,316c2.3-0.8,4.6-1.5,6.8-2.2c12.2-4.1,24-9.1,36.2-13.2c4.2-1.4,4.7-1.1,4,3.3c-1.4,9.4-5.3,17.2-13.8,22.2
			c-5.6,3.3-11.8,3.9-18.2,3.4c-0.4,0-0.8-0.1-1.2-0.1C314.2,328.4,310,324.4,308.4,316z"/>
		<path class="st0" d="M260.4,318.3c-1.7,0.9-2.4,2.2-3.3,3.3c-3.7,5-8.9,6.9-14.8,7.2c-10.2,0.5-18.4-3.8-25.1-11.1c-1.8-2-2.9-4.4-3.6-7
			c-0.6-2.2-0.9-4.4-1.1-6.7c-0.1-0.9-0.2-1.8,0.4-2.9C229,305.7,244.7,311.5,260.4,318.3z"/>
		<path class="st0" d="M250.8,348.3c-0.9,1.9-2.2,3.3-3.6,4.7c-4,4.1-4.6,7.2-2.3,12.4c0.9,2,2,3.9,3.3,5.7c1.8,2.3,4,3.1,6.9,2.4
			c1.3-0.3,2.7-0.6,4-0.7c1.6-0.1,3.3,0,5,0c-0.5,1.3,0.5,1.6,1.5,2c3.6,1.6,7.1,3.4,10.7,5c7.1,3.3,13.9,3,20.1-2.2
			c1.3-1.1,2.8-1.9,4.1-2.7c0.1-0.8-0.7-0.9-0.5-1.6c1.6-1,3.6-1.1,5.5-1.3c3.1-0.4,6.3-0.9,9.3-1.8c5.9-1.8,7.8-5,6.6-11.1
			c-0.4-1.9-1.1-3.7-1.9-5.4c-0.2-0.5-0.5-1-0.7-1.5c1.1-0.6,1.7,0.1,2.2,0.7c4.8,4.4,4.4,13.3-0.7,17.7c-2.9,2.5-6.2,3.3-9.9,3.3
			c-4.3,0-7.7,1.6-10.7,4.6c-6.8,6.8-16.7,8.2-25.6,3.5c-3.3-1.8-6.6-3.8-9.8-5.8c-2.8-1.7-5.6-2.1-8.7-1c-5.3,1.9-8.5,0.6-11.3-4.3
			c-1.4-2.4-2.5-4.9-2.9-7.7c-0.5-3.3,0.3-6.2,2.2-8.8C245.6,351.8,248.2,350,250.8,348.3z"/>
		<path class="st0" d="M307.6,309.9c-1.3,0.6-2.6,1.1-3.9,1.7c-1.9,0.8-3.5,0.4-4.9-1.1c-1.7-1.9-3.5-3.9-4.7-6.2c-1.1-2.1-2.8-3.3-5.1-3.9
			c-5.1-1.2-10-1-14.1,2.9c-1.1,1-2.4,1.4-4.1,1.6c0.7-3.8,1.3-7.4,1.9-11c-2.3-0.6-3.9-2.1-5.2-3.9c-1.2-1.7-2.6-1.9-4.1-0.9
			c-1.6,1-2,2.5-1.2,4.3c0.2,0.5,0.5,1,0.8,1.7c-2.2-1.6-2.8-4.3-1.4-6.1c1.5-1.9,5.2-2.3,6.9-0.8c0.6,0.5,1,1.2,1.5,1.8
			c0.7,0.9,1.5,1.7,2.7,1.8c1.5,0.1,1.9,1,1.6,2.4c-0.2,0.8-0.4,1.5-0.6,2.3c-0.2,0.7-0.6,1.5-0.4,2.3c0.4,0.3,0.7,0,0.9-0.1
			c5.4-2.8,10.7-2.1,16,0.4c0.5,0.2,1.1,0.9,1.7,0.5c0.8-0.5,0.3-1.2,0.2-1.9c-0.3-1.8,0-3.6-0.1-5.4c0-0.5,0.2-0.9,0.6-1.1
			c3.5-1.8,6.8-4,10.9-4.5c4.8-0.6,7.4,2.3,6.1,7c-1,3.4-2.7,6.3-6.2,7.8c-2.3,0.9-3.7-0.3-3.4-2.7c1.6,2.4,2.3,2.5,4.6,0.4
			c1.8-1.6,3-3.7,3.5-6.1c0.6-3-1.4-5.2-4.4-4.6c-2.7,0.4-5,1.8-7.4,2.9c-4.1,2-4.2,2.1-3.6,6.7c0.6,5,2.9,9,7.2,11.8
			c1.7,1.1,2.6,1,4.1-0.3c1.8-1.7,3.1-3.7,4.3-5.8c4.3-7.7,8.1-15.6,12.7-23.1c2.2-3.6,4.5-7.1,7.6-10.1c2.2-2.1,4.7-3.9,7.5-5.2
			c0.7-0.3,1.4-0.7,2.4-0.6c-0.4,1.1-1.2,1.6-2,2.1c-3.4,2.2-6.3,5-8.8,8.1c-6.6,8.1-11.7,17.1-15.9,26.6c-1.2,2.7-2.6,5.2-4.3,7.7
			C307.3,309.2,306.3,309.8,307.6,309.9L307.6,309.9z"/>
		<path class="st0" d="M218.2,252.4c1.3-0.3,2.1,0.1,2.9,0.5c5.8,2.7,11.2,6.1,16.7,9.4c10.6,6.4,21.5,12.2,32.6,17.7c7.7,3.8,15.1,3.5,22.7,0.3
			c6.3-2.7,12.3-6,18.1-9.6c6.3-3.8,12.5-7.7,18.9-11.3c0.7-0.4,1.5-0.7,2.6-1.3c-0.4,0.5-0.4,0.7-0.5,0.8
			c-10.6,6.7-20.9,13.9-31.8,20c-5.1,2.8-10.4,5-16.2,5.6c-6.3,0.7-12.1-1.3-17.5-4.2c-13.6-7.4-27.7-14.1-40.4-23
			C223.6,255.6,221,254.2,218.2,252.4z"/>
		<path class="st0" d="M307.7,309.9c2.6-1.4,5.2-2.6,7.7-4.2c6.5-4.2,10.8-10.2,14.3-16.9c3.2-6.1,5.9-12.4,9.6-18.3c2.8-4.4,6.1-8.2,10.7-10.9
			c0.6-0.4,1.3-0.9,2-0.3c0.7,0.6,0.3,1.4,0,2c-3,8.9-7,17.4-12.3,25.2c-0.8,1.1-1.5,2.3-3.7,2.6c3-5,5.9-9.7,8.3-14.6
			c2.4-4.9,4.8-9.8,7.1-14.9c-2.8,1.6-5.1,3.9-7.1,6.4c-3.1,3.9-5.1,8.3-7.4,12.7c-2.5,4.9-4.7,9.9-7.5,14.6
			c-4.7,7.9-11.5,13.2-20.1,16.2C308.7,309.7,308.2,310,307.7,309.9C307.6,309.9,307.7,309.9,307.7,309.9z"/>
		<path class="st0" d="M237.4,248c0.8-0.3,1.3,0.2,1.8,0.5c6.3,3.8,12,8.3,17.7,12.7c5.8,4.4,12.4,6.3,19.6,6.6c14.6,0.8,27.5-4.1,39.4-12.1
			c1.4-0.9,2.8-1.9,4.3-2.4c0.3,0.1,0.3,0.2,0.2,0.3c-7.1,4.8-14,9.8-22.2,12.7c-10.4,3.7-20.9,4.5-31.6,1.8
			c-3.8-1-7.2-2.9-10.2-5.5c-5.8-5-11.7-9.9-18.2-14.1C237.9,248.5,237.7,248.2,237.4,248z"/>
		<path class="st0" d="M324.2,244.5c-9,3.8-16.2,10.7-25.1,14.5c-9.1,3.9-18.5,5.1-28.3,2.8c-3.4-0.8-6.2-2.6-8.8-4.9c-3.5-3.2-6.4-6.9-10.1-9.9
			c2.4,0.9,4.3,2.5,6.2,4.2c1.8,1.6,3.5,3.4,5.4,4.8c6,4.4,12.7,5.5,19.9,4.9c10-0.8,18.9-5,27.4-9.9c4.1-2.4,8.1-5,12.7-6.3
			C323.8,244.6,324,244.6,324.2,244.5z"/>
		<path class="st0" d="M322.4,333.6c3.2,0.2,6.3,0.8,9.4,1c8.4,0.5,16.6-0.1,24.2-4c7.4-3.7,13.5-8.8,16.5-16.9c0.9-2.4,1.4-4.9,1.6-7.4
			c0.1-1,0.2-2.1,0.6-3.1c0.4,2.2,0.2,4.4-0.1,6.6c-1.4,11.2-8.2,18.2-18,22.5c-10.9,4.7-22.2,4.6-33.5,1.6
			C322.9,333.8,322.6,333.7,322.4,333.6z"/>
		<path class="st0" d="M269.2,307c-2.3,5.1-8.8,7.2-13.5,4.7c-3.9-2-7.3-4.7-10.8-7.3c-7.5-5.6-15.1-11.1-21.7-17.8c-1.5-1.6-3-3.2-4.2-5
			c0.1-0.1,0.2-0.3,0.4-0.4c0.4,0.5,0.8,1.1,1.3,1.6c7.1,7.4,15.5,13.3,23.9,19.1c3.6,2.5,7.2,5.1,10.9,7.5c5,3.4,7.1,3.2,11.8-0.7
			C267.7,308.2,268.3,307.8,269.2,307z"/>
		<path class="st0" d="M251.5,331.8c5.7-2.5,10.4-6.5,15.8-9.5c5.2-2.8,10.8-5,16.7-5.7c5.8-0.7,11.1,0.8,15.9,4c1.8,1.2,3.7,2.4,5.4,4.3
			c-1.1-0.1-1.5-0.6-2-1c-8.2-6.4-17.2-7.2-26.8-3.6c-4.8,1.8-9.4,4.2-13.9,6.6c-2.7,1.5-5.5,2.9-8.3,4.2
			C253.5,331.5,252.6,331.9,251.5,331.8z"/>
		<path class="st0" d="M266,299.2c-0.9,1.5-2.3,1.7-3.6,1.7c-5,0-9.4-1.7-12.9-5.3c-0.1-0.1-0.1-0.3-0.2-0.5c0.8-0.5,1.5,0.5,2.5,0
			c-4.6-8.2-9.2-16.3-12.6-25.1c1.5,0.9,2.2,2.3,3,3.7c3.8,6.6,7.3,13.4,10.7,20.2c1.9,3.7,6.7,6,10.9,5.2
			C264.3,299,265,298.8,266,299.2z"/>
		<path class="st0" d="M204.4,331.1c-1.9-0.7-2.5-2-3.2-3.3c-3.4-6.1-5.3-12.8-6.6-19.6c-1.1-6.1-1.6-12.3-1.5-18.5c0-0.7-0.2-1.5,0.8-2.1
			C194.8,302.6,197.1,317.3,204.4,331.1z"/>
		<path class="st0" d="M263.2,243.7c13.5,10.4,27.1,9.8,40.9,1.6C292.2,258,268.4,254,263.2,243.7z"/>
		<path class="st0" d="M341.3,266c-7.5,9.1-14.9,18-21.8,27.4c-1-1.2-0.4-2.1,0.1-2.9c3.1-5.5,7.1-10.5,11.3-15.2c2.7-3,5.2-6.2,8.5-8.7
			C339.8,266.4,340.2,265.7,341.3,266z"/>
		<path class="st0" d="M330.9,294c1.2-0.8,2.5-0.9,3.7-1.2c5.3-1.7,10.2-4.1,15.1-6.7c3.8-2,7.7-3.7,12-4.5c2.4-0.4,4.2,0.2,5.3,2.2
			c-3.2-1.8-6.1-0.9-9,0.5c-5,2.4-10,4.9-15.1,7.3c-3.3,1.6-6.8,2.4-10.4,2.7C331.9,294.3,331.5,294.5,330.9,294z"/>
		<path class="st0" d="M241.2,285.8c-7.4-9.5-15.4-18.6-23.8-27.2C227.7,265.6,235.9,274.4,241.2,285.8z"/>
		<path class="st0" d="M291.8,309.9c-5.6,0.3-10.9,0.5-16.3,1.6c0.3-1.5,1.1-2.3,2.3-2.5c4.5-0.6,9-0.8,13.4,0.5
			C291.3,309.6,291.4,309.7,291.8,309.9z"/>
		<path class="st0" d="M215.4,403.9c-2.5-2.8-4.9-5.5-8.1-7.2c0.6,1,1.3,1.9,1.9,2.9c0.5,0.7,1,1.5,0.1,2.3c-0.8,0.7-1.4-0.1-2.1-0.5
			c-0.3-0.2-0.5-0.4-0.8-0.6c-1.1,0.7-0.8,1.5-0.2,2.3c0.8,1.1,1.3,2.2,1.2,3.6c0,0.6-0.3,1.1-0.8,1.4c-0.7,0.3-1.1-0.2-1.4-0.6
			c-1.9-2.6-4.8-3.8-7.3-6.1c0.1,2.5,1.6,4.7,0.1,7.3c-0.8-2.4-3.1-2.7-4.9-4c0,1.3,0.2,2.4-1,3c-1.4,0.7-2.2-0.3-3.2-1
			c-0.6,0.5-0.6,1.2-0.9,1.8c-0.4,0.9-1,1.4-2,1.2c-1-0.2-1.3-0.8-1.2-1.7c0-1.2,0-2.4,0-3.5c-0.4-0.3-0.6-0.1-0.9,0
			c-1.5,0.9-2.6,0.3-2.8-1.4c-0.1-1-0.1-2-0.1-3c0-1.1,0.1-2.2,1.4-2.6c1.4-0.4,1.6,0.8,2.1,1.7c2.5-1.2,2.5-1.2,4.4,0.1
			c0.2-0.3,0-0.6-0.2-0.8c-0.5-0.8-0.8-1.6-0.2-2.5c0.6-0.9,1.4-0.1,2.2-0.2c3.8-0.4,6.9,2.1,10.7,2c-0.6-1.6-1.9-2.6-3.2-3.6
			c-1-0.7-2.2-1.2-1.5-2.8c0.7-1.6,1.9-2.2,3.7-1.9c0.3,0.1,0.7,0.1,1.1,0.2c0.4-1.6,0.8-3.1,3-2.8c0-0.4,0-0.7,0-1
			c0.1-2.2,1.1-2.9,3.2-2.2c1.8,0.6,3.5,1.5,5.2,2.5c0.5,0.3,1,0.5,1.8,1c-0.6-1.4-1.3-1.9-2.2-2.3c-1-0.5-2-0.9-2.9-1.3
			c-0.5-0.2-0.8-0.7-0.6-1.2c0.1-0.5,0.5-0.9,1.1-0.9c1.8,0.2,3.3-0.3,4.9-1.1c0.8-0.5,1.8-0.1,2.6,0.2c7.6,2.2,13,6.9,16.1,14.1
			c0,0.1,0.1,0.2,0.1,0.3c0.1,0.9,1,2-0.1,2.6c-1.2,0.7-1.5-0.8-2-1.5c-0.8-1-1.4-2.2-2.6-3c-0.4,0.9,0,2.5-1.8,1.8
			c0,0.9,0,1.5,0,2.2c0,1-0.4,1.7-1.3,1.9c-0.9,0.2-1.3-0.5-1.6-1.2c-1.4-2.5-4.1-4.7-6.8-5.5c1,1.8,2.4,3.4,2.9,5.4
			c0.1,0.3,0.1,0.7,0.1,1.3c-2.5-1.4-4.8-2.6-7.5-4.2C214.5,397.9,217.5,400.2,215.4,403.9z"/>
		<path class="st0" d="M349.8,406.7c-1.4-2.4-2.7-4.4-3.9-6.5c-0.4,0.3-0.5,0.7-0.6,1.1c-0.2,0.8-0.7,1.4-1.6,1c-0.9-0.3-1.2-1-0.8-1.9
			c0.8-2,1.6-4.1,2.4-6.1c0.1-0.3,0.2-0.6,0.2-1c-1.3,1.4-1.9,3.2-2.8,4.8c-1.1,2.3-1.3,2.4-3.1,1.7c-1.9-0.7-2.3-1.7-1.6-3.7
			c1.2-3.4,3-6.4,5.5-9c1.3-1.4,2.8-2.7,4.3-4.1c0.4-0.4,0.8-0.6,1.5-0.5c0.3,1.4-1.2,1.9-1.5,3c0.8,0.2,1.2-0.5,1.7-0.6
			c0.5-0.1,1-0.4,1.4,0.1c0.3,0.4,0,0.9-0.2,1.2c-0.3,0.4-0.6,0.8-1,1.4c1.4,0.1,2.3-1.3,3.7-0.5c-1.4,1.7-2.6,3.5-3,6.2
			c2-2.2,3.2-5.1,6.8-5C354.1,394.1,351.2,400,349.8,406.7z"/>
		<path class="st0" d="M360.4,399.8c-1.7,1.3-2.8,2.9-3.4,4.9c-0.2,0.6-0.4,1.4-1.3,1.3c-0.9-0.1-1.2-0.9-1.2-1.7c0-1.1,0.2-2.2,0.3-3.5
			c-1.7,0.1-1.5-0.9-1.2-2.1c0.7-2.5,1.8-4.9,4-6.5c0.6-0.4,1.3-0.9,2-0.2c0.6,0.6,0.1,1.3-0.2,1.8c-1.2,2-1.3,4.3-1.5,6.7
			c0.7-0.4,0.9-1.1,1.1-1.6c1.3-2.4,2.3-4.9,4.1-7c0.5-0.6,1.1-1.3,2-0.7c0.9,0.6,0.1,1.3-0.1,1.9c-0.7,1.7-1.4,3.4-2.3,5.5
			c1.9-1.4,2.9-3.4,5.6-3.4c-3.3,3.2-4.4,7.2-5.9,11c-0.3,0.8-0.9,1.7-2,1.4c-1.2-0.3-1.6-1.2-1.5-2.3
			C359.1,403.4,359.9,401.7,360.4,399.8z"/>
		<path class="st0" d="M381.9,398.6c1.4-0.1,2.6-0.6,3.8,0.3c0.5,0.3,0.9-0.3,1.3-0.6c1.1-0.8,2.1-1.7,3.6-1.6c0.6,1,0.1,1.7-0.5,2.3
			c-1.5,1.3-3,2.6-4.5,3.8c-1.5,1.2-2.2,0.8-2.4-1.3c-1.2,0.5-2.3,1-3.4,1.4c-0.6,0.2-1.2,0.5-1.8,0c-0.6-0.4-0.4-1.1-0.3-1.7
			c0.4-1.7,1.1-3.3,2.2-4.7c0.5-0.7,1.1-1.2,2-0.8c1.1,0.5,0.6,1.3,0.3,2C382,398,382,398.2,381.9,398.6z"/>
		<path class="st0" d="M377.9,397.7c-1.8,2.8-2.6,6-3.9,8.9c-0.3,0.7-0.7,1.5-1.7,1.3c-1.1-0.2-0.9-1.1-0.8-1.9c0.2-3.1,0.7-6.1,1.8-9.1
			c0.7,0.7,0.5,1.5,0.7,2.3C375.2,398.8,375.9,396.9,377.9,397.7z"/>
		<path class="st0" d="M399.5,390c-0.4,2-0.8,3.7-1.2,5.5c-0.3,1.1-0.8,1.9-2.2,1.4c-1-0.4-1.2,0.5-1.6,1.1c-0.6,0.9-1.1,2-2.5,1.9
			C391.1,396.5,393.3,393.6,399.5,390z"/>
		<path class="st0" d="M371.5,396.5c-1.2,3.3-2.3,6.6-3.5,9.8c-0.2,0.6-0.8,0.9-1.5,0.7c-0.6-0.2-1.1-0.5-0.9-1.2c0.6-2.6,0.7-5.3,2.4-7.5
			C368.8,397.3,369.6,396.1,371.5,396.5z"/>
		<path class="st0" d="M405.7,382.1c-0.6,2.8-1.9,5.1-3.6,7.2c-0.6,0.7-1.4,0.3-1.5-0.6C400.2,385.9,402.8,382.6,405.7,382.1z"/>
	</g>
</g>
</svg>
