<?xml version="1.0" encoding="utf-8"?>
<!-- Generator: Adobe Illustrator 18.1.1, SVG Export Plug-In . SVG Version: 6.00 Build 0)  -->
<svg version="1.1" id="图层_1" xmlns="http://www.w3.org/2000/svg" xmlns:xlink="http://www.w3.org/1999/xlink" x="0px" y="0px"
	 viewBox="0 0 612 792" enable-background="new 0 0 612 792" xml:space="preserve">
<g>
	<g>
		<path d="M250.6,594.9c-3.9,1.2-5.9,3.9-7.8,7.1c-1.2-3.8,1.2-6.4,2.4-9.3c-3.5-2.5-5.9-2-10.2,2.2c-0.5-1.7,0-3.2,0.7-4.6
			c0.7-1.3,1.5-2.6,2.3-3.9c-2.7-2.1-3.2-2-6.9,1.9c-0.5-2.7,0.8-5,0.8-7.5c-1.5,0.2-1.3,2.1-2.6,2.6c-1.5-3.6-0.2-7.8-2.4-11.3
			c-2.1-3.3-5.5-5.4-8.1-8.2c0.4,12.3,3.1,24,8.1,35.2c0.2,0,0.4,0,0.5-0.1c0.2-2.3,0.4-4.7,0.7-7.3c1.4,1.5,1.5,3.4,1.5,4.9
			c0.2,4.2,1.4,8,2.7,11.8c1.5,4.5,3,9.2,5.7,13.3c-0.4-3.1-1-6.2-1.2-9.3c-0.2-3.2-0.4-6.3,1.1-9.9c1.6,15.3,8.1,28.7,12.2,42.9
			c0.1-5.9-0.2-11.7,0.3-17.7c0.8,0.7,0.5,1.5,0.9,2.3c0.9-0.1,0.1-1.1,0.8-1.4c2.3,14.8,5.9,29,16.7,40
			c-6.1-9.2-11.1-18.8-10.9-30.3c1.1,6.1,2,12.3,5.6,17.6c2.6,3.9,5.9,7.4,8.7,11.3c4.7,6,8.7,12.5,11.3,19.7
			c0.1,0.3,0.1,0.8,0.8,0.8c1-5.4,0.9-10.7,1-16.2c0.9,4,0.8,8.2,1.7,12.1c0.2,0.7-0.2,2.1,1.4,1.4c0,2.5-1.3,1.3-2.4,1
			c-1.7,2-0.5,4.9-2.4,7c-0.7-2.8-1.3-5.5-2.3-7.9c-1.1-2.4-2.4-4.7-3.8-7c-1.5-2.2-2.7-4.6-4.8-6.8c-0.1,2,1.4,3.2,1,5.2
			c-9.5-9.5-17.2-19.6-20.5-33c-1.5,5.1,1,10.1-1.1,14.6c-3.2-11.8-7.8-23.2-11.5-34.9c0,4.7,1,9.4-0.1,14.1
			c-1.7-11.6-7.5-21.9-11-33.3c-0.9,3.1,0,5.6-0.3,8.2c-0.8-0.1-0.5-0.7-0.7-1c-2.1-8.1-4.9-16.1-7.5-23.9
			c-2.4-7.3-3.6-14.9-3.5-22.5c0-3-0.3-3.4-3.3-3.9c-2.1-0.4-4.3-0.9-6.3-1.2c-7.4-1.3-13.8-4.6-19.2-9.9
			c-8.3-8-15.2-16.8-18.1-28.1c-3-11.5-4.2-23.1-1.7-34.8c0.2-1.2,0.7-2.4,1.3-3.4c0.5-0.9,1.3-1.3,2.4-1c1,0.3,0.7,1.1,0.8,1.9
			c1.7,12.7,6.9,23.5,17.9,30.8c0.1,0.1,0.3,0.1,0.5,0.1c0.3-0.8-0.1-1.4-0.2-2.1c-2.3-8.9-5.1-17.5-6.9-26.4
			c-2.4-12.5-2.2-25-0.9-37.6c1-10.5,2.8-20.9,3.3-31.5c0.2-5.1-0.4-10.3-0.7-15.3c-0.3-12.6-0.3-25,1.5-37.5
			c1.9-12,7.4-22.2,16.6-30.2c4.9-4.3,8.6-9.3,11.7-14.9c4.7-8.9,9.6-17.5,16.5-24.9c2.8-3.1,5.7-6,8.7-8.7c2.1-1.9,3.7-3.9,4.9-6.4
			c5.2-11.1,14.3-18.7,24.3-25.2c3.3-2.2,6.9-3.9,10.5-5.6c0.7-0.2,1.2-0.7,2.3-0.4c-6.9,5.8-12.8,12.2-17.3,20
			c1.3,0.1,1.9-0.8,2.5-1.4c4.2-4.8,8.6-9.3,13.1-13.9c6.4-6.8,14.2-10.2,23.4-11.1c4.4-0.4,8.9-0.8,13.3-0.5
			c7.4,0.3,13.3,3.5,18.4,8.7c4.8,5,9.3,10.3,12,16.7c0.3,0.8,0.8,1.5,1.9,2.1c-0.4-4.3-1.9-8-3.7-11.6c-1.9-3.6-4.4-6.9-7.2-10.2
			c2.5-0.1,4.4,0.7,6.2,1.6c6.3,3.4,10.5,8.7,13.2,15.2c1.2,3,2.3,6,3.6,9.4c0.5-3.5,0-6.2-0.9-9.1c-0.9-2.7-2.4-5.2-3.6-7.9
			c5.4,3.9,11,7.6,14.2,13.7c4,8,9,15.4,14.4,22.5c8.3,10.8,15,22.6,21.7,34.4c2.4,4.2,5.6,7.6,9.5,10.5c1.5,1.1,2.6,2.4,3.5,3.9
			c3.1,5.6,6.8,10.8,8.6,16.9c0.3,1,0.5,2,0.9,3c0.8,0.3,0.7-0.9,1.5-0.7c0,1.2,0,2.4,0,3.7c0.1,5.6,1.4,11,2,16.5
			c0.9,8.2,1.3,16.4,0.9,24.6c-0.8,16.1,0.5,32,1.9,48c1,12.1,1.7,24.3,0.2,36.4c-0.7,4.8-1.6,9.6-2.7,14.3
			c-0.1,0.5-0.4,1.2-0.1,2.1c6.7-8.2,10.1-17.6,10.7-28c1.7,0.4,2.2,1.9,2.6,3.2c2.3,6.7,3.5,13.4,3.5,20.5c0,8.9-0.9,17.7-4.7,25.8
			c-7.3,15.3-19,25.7-35.5,30.3c-2.7,0.8-5.7,1-8.4,2c-0.7,0.2-2.3-0.3-3.5-0.3c-3.7,0.1-7.5,0.2-11.3-0.2c-0.9-0.1-1.9-0.2-2.7,0.1
			c-9.2,2.8-18.3,2.1-27.3-0.5c-9.3-2.6-18.5-5.5-28-6.9c-11.9-1.9-23.9-2.4-36-0.9c-5.5,0.7-10.4,3.1-15.4,5.1
			c-4.7,2-9.4,3.9-14.5,4.7c-3.4,0.4-6.8,0-10.2-0.2c-4.6-0.4-9.3-0.4-13.8,0.4c-6.2,1.3-12.5,1.1-18.8,0.5
			c-0.7-0.1-1.4-0.4-2.1,0.3c0,0.5,0.4,0.9,0.8,1.2c8.5,7.3,16.7,15,25.9,21.5c9.8,7,20.7,11.7,32,15.5c10.9,3.7,22,6.4,33.6,6.9
			c14.1,0.5,27.5-2.1,40.4-8.1c13.1-6,24.7-13.9,34.4-24.5c2.5-2.7,5.2-5.4,8.2-7.8c0.3-0.3,0.7-0.7,1.4-0.8
			c0.1,4.2,0.5,8.2,0.5,12.3c-0.1,11.7-0.8,23.3-3.4,34.8c-0.8,3.4-1.9,6.6-3.8,9.4c-0.7,0.9-1.3,1.7-2.5,2.8c2.1-7,3-13.7,4-20.7
			c-1.3,0.4-1.9,1.4-2.1,2.4c-1.9,7.4-5,14.4-8.1,21.4c-2,4.6-3.1,9.3-1.6,14.2c-3.5-3.6-1.9-8.2-2.4-12.8
			c-2.5,3.7-4.3,7.3-4.8,11.5c-0.5,4.3,1,8,3,11.7c-1.5,0-1.5,0-6.3-4.9c-2.4,6.3-4.8,12.5-7.3,19c-3.1-7.4-6-14.4-10.9-20.7
			c-1,12.7-5.5,23.9-12.8,33.8c0.5-4.7,2.4-9.5,2.3-14.8c-4.4,6.3-8.4,13-15.2,17.8c0.8-6.4,3.1-12.2,2.3-18.9
			c-4.2,5.5-9.3,9.6-13,15c0.4-6.7,4.4-11.8,7.3-17.6c-1.2,0.3-1.7,0.9-2.4,1.5c-5.6,5.2-11.6,9.7-17.8,14.2c-3.5,2.5-6.4,5.5-9,9
			c0.3-3.5,0.7-6.9,2.4-10.1c-1.7,0-2.2,1.3-2.8,2.3c-0.8,1.1-1.3,2.2-2.1,3.5c-0.2-5.2,11.9-16.1,17.4-18.9
			c-5.4,4.5-9.5,9.9-12.1,16.6c9.6-7.9,18.8-16.4,29.6-22.6c0.2,0.1,0.3,0.3,0.5,0.4c-2.5,4.7-5.1,9.4-7.6,14.1
			c0.1,0.1,0.2,0.2,0.3,0.3c1.9-2,3.7-4,5.6-6c2-2.2,3.7-4.5,5.4-6.8c1.6-2.3,3.2-4.7,4.5-7.2c1.3-2.5,2.4-5.1,3.4-7.8
			c0,2.1-0.8,3.9-1.5,5.8c-1.4,3.6-3.4,7-5.7,10.2c-1.1,1.5-1.5,3-1.3,4.8c0.7,5.1-0.4,10.2-2,15.1c-0.1,0.3-0.1,0.5,0,1
			c2-1.7,3.6-3.9,5.1-6c1.5-2.2,3.1-4.5,4.5-6.8c1.4-2.3,2.7-4.6,3.9-6.9c1.3-2.4,2.4-4.8,3.7-7.2c-1,4.9-2.5,9.7-1.9,14.9
			c0.9-0.3,1-1.1,1.3-1.7c2.7-6.1,3.9-12.6,4.4-19.2c0.7-9.7,0.1-19.3-2.8-28.7c-0.8-2.3-1.6-4.5-3.6-6.7c0.3,3.8,1.2,7.1,1.9,10.4
			c0.7,3.5,0.8,7,0.8,10.5c0,3.4,0,6.9-1.3,10.2c-0.3-5.7-1.3-11.3-3.2-16.7c-1.7-5.4-3.9-10.6-6.7-15.6c-0.8,9.8-2.3,19.6-5,29.1
			c-0.9-5.5-1.1-11-3.7-16.3c-2.1,9.2-5.1,17.9-10.6,25.7c3.7-11.1,6.8-22.5,4.5-34.4c-3.2,15-6.9,29.7-16.7,42.4
			c-0.1-0.4-0.2-0.7-0.2-0.7c6-9.7,9-20.7,11-31.8c0.5-3,1.1-5.9,0.3-9c-0.8-2.7-1.5-3.2-4-2c-2.2,1.1-3.6,2.6-4.2,5
			c-2,7.9-5.4,15.4-7.4,23.3c-0.7,2.6-1.3,5.2-1.5,8c0,0.3-0.1,0.7-0.5,0.9c-0.7-3.9-0.4-7.8,0.2-11.5c1.2-7.3,2.6-14.5,3.9-21.9
			c0.2-1,0.3-1.9-0.8-2.4c-1.1-0.5-1.9-0.1-2.6,0.8c-0.2,0.3-0.5,0.5-0.7,0.9c-4.3,7.4-9.2,14.3-11.9,22.5c-0.4,1.2-0.8,2.4-1.2,3.6
			c-0.7-2.1-0.1-4,0.1-6.1c0.7-4.7,3.1-8.6,5.2-12.8c2.1-3.9,4.2-7.9,6.2-11.8c0.2-0.4,0.7-0.9,0.5-1.5
			c-5.9,2.7-13.2,11.4-16.4,19.7c-3.3,8.7-2.7,17.2,1.4,25.5c-2.6-2.8-3.8-6.3-4.6-9.9c-2.2-9.9,0.7-18.8,6.1-27
			c2.5-3.7,5-7.2,7.6-11c-6.4,0.1-16.5,10.6-19.8,20.2c-3.3,9.8-2.2,19.3,2.2,28.5c-2.6-2.5-4.2-5.6-5.1-8.9
			c-1.2-4.2-1.3-8.4-1.1-12.7c0.3-8.7,1.7-17.3,5.5-25.4c0.7-1.3,1.3-2.6,2-3.9c-2.4-2.7-6.8-2.6-9.5,0.3c-2.8,3.1-4.6,6.8-5.7,10.9
			c-0.8,2.8-1.1,5.8-1.6,8.6c-2.3-7.7,0.2-14.9,2.4-22.3c-2.1,0.7-3.1,2.3-4.7,3.4c-0.1-4.3,2.6-6.9,4.5-10.3
			c-1.9,0.1-3.1,0.9-4.2,2c-3.3,3.3-4.6,7.5-5.2,12c-0.3,2.3-0.3,4.7-0.4,7C244,611,246.4,603,250.6,594.9z M187.1,470.8
			c0,2.2-0.1,4.5,0.1,6.7c0.7,5.2,1.9,10.4,2.7,15.6c1.3,7.4,2.7,14.8,4.2,22.2c0.3,1.5,1,2.4,2.6,2.6c4.5,0.4,8.7-0.1,12.8-1.9
			c0.5-0.2,1.2-0.3,1-1.3c-1.2-5.8,1.1-10.7,4.5-15.1c4.7-6.1,11.4-6.7,18.3-5c7.2,1.6,13.6,5.4,20.1,8.7
			c8.5,4.5,16.8,9.3,25.9,12.7c17.3,6.3,34.9,7.3,52.5,1.9c12.2-3.8,24.2-9,35.6-14.9c4.3-2.2,8.4-4.4,13-5.8
			c3.5-1.1,7.1-1.6,10.7-2.1c5.8-0.8,9.8,2.3,13.4,6.3c1.5,1.6,2.4,3.5,2.5,5.8c0.1,1.5,0.4,3,1.7,3.9c2.4,1.7,5,3.4,7.9,4.5
			c6.1,2.3,10.4,0.3,12.6-5.8c2.4-6.7,3.5-13.6,4.5-20.5c0.8-5,2-10.1,1.5-15.2c-1-11.5-2.2-23-3.1-34.4c-1-13.2-2-26.4-2.2-39.7
			c-0.1-6.3-0.7-12.6,0-18.9c0.1-1.3,0.5-2.5,0.2-3.8c-1-5-2-10.2-3.2-15.2c-3.3-13.9-10.8-24.5-23.6-31.1c-9-4.7-18.7-6.4-28.6-7.2
			c-7.4-0.5-15-0.3-22.4-0.3c-5,0-9.9-0.7-14.6-2.5c-5-2-10.2-2.8-15.5-3.4c-9.5-1-18.8,0.1-28.1,2c-7.2,1.5-14.5,2.7-22,2.8
			c-4.5,0.1-8.9-0.1-13.3-0.3c-8.3-0.4-16.3,0.9-24.4,2.6c-7.1,1.5-14,3.4-20,7.8c-6.6,4.7-12.6,9.9-17,16.7
			c-5.9,8.7-7.2,18.6-7.4,28.7c-0.3,12.9,0.3,25.8,0.3,38.7c0,2.2-0.1,4.5-0.5,6.7c-2.2,9.9-2.5,20-3.2,30.2
			C186.3,459.1,187.1,465,187.1,470.8z M185.2,516.3c-0.5,1.7-0.5,3.2,0.3,4.5c1.1-0.1,1.7-1.4,3-0.7c1.1,0.8,0.3,2.1,0.9,3
			c1,0,1-1.3,1.9-1.2c0.7,1.2,0.3,2.8,1.2,4c1.6-2.2,2.7-2.4,4.4-1.3c1.2,0.9,1.2,2.7,0.2,4.2c-1.3,1.9-2.4,0.4-3.4-0.3
			c-0.7,0.3-0.8,0.8-1,1.2c-0.3,0.8-0.8,1.4-1.7,1.2c-1-0.2-0.7-1.2-0.9-1.9c-0.3-1.3,0.2-2.6-0.4-4.2c-0.9,1.3-1.5,2.3-2.3,3.4
			c-0.3,0.5-0.9,1-1.5,0.8c-0.8-0.2-1-0.9-0.9-1.6c0.2-1.4-0.3-2.5-1.1-3.6c-1.1-1.7-2.6-3.4-3.3-5.4c-1-3.3-3.4-5.9-3.6-9.4
			c0-0.3-0.3-0.7-0.7-0.9c-1.5-1.3-2.2-3.1-2.8-4.9c-0.5-1.6-0.7-3.2,1.3-4c-1.3-3.9-1.9-8-3-11.9c-0.2,0.2-0.3,0.4-0.4,0.7
			c-2.1,9.7-1.7,19.5,1,28.9c2.7,9.3,8.1,17.4,14,25c3,3.8,5.9,7.8,10.4,9.8c9.1,4.4,18.6,7.3,28.7,7.2c12-0.2,23.5-3,34.6-7.3
			c3-1.2,4.9-3.5,6-6.4c2.3-5.5,2.7-11.1,1.5-17c-2.8-13.6-10.2-22.8-24-26.3c-5.9-1.5-11.3-0.9-16.4,2.5c-4.7,3.2-9,6.7-12.9,10.7
			c-7.3,7.8-19.2,9.5-28.2,2C186.1,516.9,185.8,516.7,185.2,516.3z M446.5,489.8c-0.5,0.3-0.5,0.9-0.5,1.3c-0.3,2-0.7,3.9-1.2,5.8
			c-2.4,8.7-8.3,15.2-15,20.9c-1.6,1.4-3.7,2.1-5.9,2.4c-4.5,0.5-8.5-0.8-12.5-2.7c-4.9-2.5-8.5-6.4-11.5-11c-1.6-2.4-3.7-4-6.6-4.3
			c-3.7-0.4-7.5-0.3-11,1.3c-8.2,3.8-15.1,8.9-17.7,18.1c-1.3,4.8-1.5,9.7-1.2,14.6c0.3,6.9,3.4,12.1,9.6,15.3
			c5.9,3,12,4.7,18.6,5.1c9.3,0.7,18.4,0,26.9-4c4.4-2.1,7.9-5.2,11.6-8.3c6.7-5.5,11.7-11.9,14.2-20.2c2.2-7.3,3.3-14.8,3.4-22.4
			C447.6,497.7,447.4,493.8,446.5,489.8z M342.8,318.8c2.6,1.7,5.1,2.8,8.3,2.5c4-0.3,8.1-0.8,12.1-0.9c13.9-0.5,27.4,1,40.3,6.7
			c0.2,0.1,0.5,0.3,0.9-0.2c-7.3-17.5-19.9-31.7-30.4-47.6c-0.8,2.4-1.3,4.4-2.1,6.2c-4,10.7-11,19-20.3,25.6
			C348.6,313.4,345.3,315.6,342.8,318.8z M215.1,327.5c1.3,0,1.3,0,2.3-0.4c12.8-5.9,26.2-8.2,40.3-7.6c6,0.2,12,1.5,18,1.3
			c1.1,0,2.2,0.1,3.2-1.1c-0.5-0.4-1.1-0.9-1.5-1.3c-5.7-5.1-12-9.2-18.5-13.3c-5.8-3.8-10.4-8.7-12.8-15.4c-0.3-1-0.7-2-1.1-3.2
			C232.9,298.7,222.4,311.9,215.1,327.5z M347.2,609.9c-0.1,0.4-0.1,0.5-0.1,0.8c2.7,10.3,3.7,20.9,3.6,31.5c0,0.8,0.2,1.5,0.5,2.2
			c3.2,5.8,6.9,11.4,9.6,17.5c0.7-3.6,1.4-7.2,0.8-10.8c-2-11.9-5.6-23.5-10.5-34.5C350.2,614.1,349.1,611.9,347.2,609.9z
			 M302.6,538.9c4.2-3.9,5.7-8.6,5.6-14.1c0-1.6-0.8-2.3-2.4-2.4c-1.9,0-3.7-0.1-5.6-0.3c-2.7-0.3-4.7,1.5-4.3,4.2
			C296.7,531.2,298.8,535.4,302.6,538.9z M288.5,539.1c1.3-5.4,2.4-10.1,3.5-14.9c0.1-0.7-0.1-1.1-0.4-1.5
			c-2.7-4.3-8.7-4.3-11.5-0.1c-0.5,0.9-0.9,1.9-0.2,2.7C282.6,529.8,285.5,534.2,288.5,539.1z M286.7,317.6
			c-5.1-6.2-10.1-12.2-13.2-19.6c-3.1-7.2-4-15-5.8-22.6c-1.1,0.5-0.9,1.4-1,2.1c-0.1,3.7,0.5,7.3,1.1,11
			c1.6,11.4,7.2,20.5,15.2,28.5C283.9,318,285,318.3,286.7,317.6z M288.6,261.6c-5.8,10.1-6.8,20.8-4.2,31.9
			c2.3,9.8,7.8,20.2,11.6,22.2c-4.7-8.4-8.4-16.9-9.9-26.3C284.6,279.9,285.6,270.6,288.6,261.6z M333.1,537.4c2.7-2.8,4.8-5.6,6-9
			c0.5-1.4,0.8-3,0.1-4.5c-1.1-2.6-4.2-3.8-7-2.6c-2.8,1.2-3.5,3-2.2,5.9C331.4,530.4,332.3,533.7,333.1,537.4z M311.6,314.4
			c2.5-0.7,4-1.7,5-3.5c2.7-4.7,3.8-9.9,4.5-15.3c1-8.5,0-16.9-0.9-25.5c-0.1-1.5-0.2-3.3-1.4-5c0.2,3.8,0.4,7.3,0.4,10.7
			c0.1,6.2,0.3,12.5-0.5,18.7C317.9,301.5,315.7,308,311.6,314.4z M294,533.8c-1.7,4.4-2,8.6-2.1,12.9c0,1.1,0.8,1.5,1.6,1.7
			c3.2,1.1,6.1,0.3,8.9-1.5c0.5-0.3,0.8-0.8,0.4-1.4C300.3,541.5,297.7,537.4,294,533.8z M318.5,538.4c2.4-3.6,3.6-7.4,4-11.4
			c0.3-3.5-1.6-5.4-5.1-5c-3.2,0.3-5.1,3.1-4,6C314.7,531.5,316.3,534.9,318.5,538.4z M348.2,535.4c0.5-0.2,0.8-0.2,0.9-0.3
			c0.2-0.2,0.4-0.4,0.5-0.8c2.1-5.6,3.6-11.3,3.1-17.3c-0.2-2.3-0.9-2.8-2.7-2.4c-3,0.5-5.5,2.6-4.9,4.3
			C346.9,524.2,348.4,529.5,348.2,535.4z M309.6,535.9c-1.7,3-3.1,6.1-3.7,9.4c-0.3,1.3,0.2,2.3,1.4,2.8c2.3,1,4.6,1.3,7,0.7
			c1.7-0.5,2.4-1.7,1.7-3.4c-0.8-2.3-1.6-4.5-2.8-6.6C312.4,537.4,311.5,536.3,309.6,535.9z M333.1,548.7c2,1.3,3.9,1.4,5.9,1.5
			c2.2,0,3-0.7,3.1-2.8c0.2-2.7,0.4-5.5,0.1-8.1c-0.2-1.6-0.4-3.3-1.7-4.8C337.9,539.3,336.2,544.2,333.1,548.7z M277.3,534.4
			c-0.5,4.2-1.4,7.8-1.3,11.5c0,2.1,1,3.1,3,3.3c2.3,0.2,4.4-0.4,6.4-1.4C282.6,543.3,281.3,538.3,277.3,534.4z M324.7,536.1
			c-1.6,3.2-3.6,6.1-4.2,9.7c-0.7,3.4,0,4.4,3.3,4.8c2.3,0.3,3.1-0.3,3.3-2.7c0.2-3.3-0.5-6.4-1.1-9.6
			C325.9,537.4,325.6,536.8,324.7,536.1z M350.5,288.9c-0.5,0.4-0.5,1-0.7,1.5c-1.2,4.7-3,9.1-4.6,13.7c-1.7,4.9-4.9,8.6-9.2,11.5
			c-0.7,0.4-1.5,0.8-2.1,1.5c1,1.2,2.1,0.9,3.2,0.3c3-1.5,5.2-3.7,7-6.7c3.9-6.4,5.6-13.7,6.9-20.9
			C351.1,289.4,351,289.1,350.5,288.9z M338.2,278c-0.4,11-1.6,22.1-6.6,32.2C339.7,300.7,341.2,289.8,338.2,278z M302.1,307.9
			c-3.6-12.2-1-23.8,3.1-35.4c-0.3,0.1-0.4,0.2-0.5,0.4c-3.1,7-5.5,14.1-6,21.7C298.2,299.4,298.9,304,302.1,307.9z M361.2,611.5
			c-0.5,7.1,3.1,20.7,5.7,22.3C367.2,628.7,364,615.8,361.2,611.5z M374.1,597.1c-2.2,5-1.3,15.5,1.6,19.1
			C376.3,609.8,375.2,603.6,374.1,597.1z M350.7,540.7c-0.8,3.4-3,5.7-3.1,9c2.2,0,4.4,0,6.6,0C353.4,546.6,352.6,543.8,350.7,540.7
			z M384,599.1c3.5-2.1,6.2-10.7,4.6-14.2C386.3,589.3,384.7,593.9,384,599.1z"/>
		<path d="M392.2,111c-0.9,2.5-1.5,4.8-2.6,6.8c-6.9,12.6-10.1,26.4-13.1,40.3c-3.6,16.6-8,33.1-14.8,48.7c-2.4,5.6-5.7,10.6-9.7,15
			c-5.5,5.8-11.1,11.4-17.9,15.6c-2.6,1.6-5.5,2.5-8.6,2c-4.6-0.9-9.2-1.2-13.8-0.9c-0.4,0-0.9,0-1.2,0c-0.5-1.2-0.5-2.3-0.5-3.4
			c0-4.3-0.2-8.5-1.1-12.7c-1-5-0.2-10.1,1.1-15c5.2-20,12.3-39.5,21.6-57.9c6.9-13.7,17.2-24.4,31.1-31c6.8-3.3,14-4.7,21.3-6.1
			C386.7,112,389.3,111.5,392.2,111z M352,195.5c2.6-2.6,5-4.9,7.3-7.3c1.1-1.2,2-2.5,2.6-3.9c4.6-9.2,7-19,8-29.3
			c0.9-9.6,3.1-18.8,8.7-26.9c1.3-1.9,2.5-3.9,3.4-6.1c-1.7-0.1-2.3,0.2-4.2,2.1c-12,12.2-18.4,26.9-19.5,43.9
			c-0.5,8.5-2.4,16.8-5.8,24.7C352.3,193.4,351.9,194.1,352,195.5z M364.4,124.1c-0.8-0.2-1.1,0.2-1.4,0.4c-3.2,2.1-5.9,4.7-8.4,7.5
			c-6.8,7.7-12.5,16.1-17.6,24.9c-3.9,6.9-7.5,13.9-9.6,21.5c-0.7,2.3-0.5,2.3-0.2,3.9C336.1,160.6,347.1,140.4,364.4,124.1z
			 M321.5,223.4c9.3-16.7,17.2-34.1,23.3-52.1C336.3,188.4,328.5,205.7,321.5,223.4z M331,230.1c7.4-7.1,12.8-15.6,17.6-24.5
			C341.6,212.9,336.5,221.7,331,230.1z"/>
		<path d="M307.4,239.1c-4.8-0.2-9.1,1.1-13.4,2.3c-1.2,0.3-2-0.1-2.7-1.1c-4.2-5.2-8.7-10.1-13.6-14.8
			c-7.3-7.1-11.3-15.5-11.8-25.7c-0.1-2.7-1-5.4-1.1-8.1c-0.1-11.4,2.3-22.1,9.1-31.4c6.3-8.6,13.1-16.8,18.3-26.2
			c2.7-5,5.2-10.2,7.5-15.4c2.3-5.2,3.8-10.7,4.6-16.3c0.7,0.1,0.7,0.7,0.8,1c3.7,12.5,3.6,24.8,1,37.5c-2.1,10.3-4,20.5-5.9,30.8
			c-0.4,2.5-0.3,5.1-0.3,7.8c-0.1,14.1,2.2,27.9,6.1,41.4C307.6,226.8,307.3,232.8,307.4,239.1z M292.4,144.3
			c-1.1,0.3-1.3,0.9-1.7,1.3c-7.1,8.4-12.8,17.8-17,28c-4.4,10.5-4.8,21-0.7,31.7c0.3,0.8,0.2,1.6,1.3,2.4
			C274.7,184.9,279.1,163.4,292.4,144.3z M296.8,151.1c-0.2,0-0.3-0.1-0.5-0.1c-0.2,0.2-0.3,0.4-0.5,0.8c-0.4,1-1,1.9-1.3,2.8
			c-2.7,6.2-4,12.9-4.8,19.7c-1.1,9.8-0.9,19.6,0.8,29.3c1.1,6.6,2.6,12.9,5.9,18.7c0.4,0.8,0.8,1.7,2,2.1
			C288.6,200.2,288.6,175.8,296.8,151.1z"/>
		<path d="M245.2,216.3c-4.7-4.9-5.4-10.7-5.6-17.2c-2.1,2.7-2.3,5.4-1.6,8.1c2.2,8.4,7.5,14,15.5,17.4c7.1,3,14.4,5.5,21.3,8.9
			c4.2,2.1,8.7,6,10.5,9.2c-5.5,2.1-10.8,4.3-15.7,7.2c-8.5,4.9-16.1,10.9-22.6,18.4c-0.9,1-1.5,1.1-2.6,0.4
			c-7-4.2-11.7-10.3-14.5-17.7c-4.2-10.8-6.1-21.9-3.7-33.3c1.5-7.3,4.4-14.1,9.9-19.5c0.3-0.3,0.7-0.8,0.9-1.2
			c3-6.3,8.6-9.8,14.4-13c2.1-1.2,4.4-2.2,7-3.1C251.1,191.7,244.3,202.2,245.2,216.3z M241,255.8c-3.3-5.5-6.2-10.5-7.3-16.7
			c2.1,1.5,4.2,2.4,6.7,3.1c-3.6-5.4-5.8-10.7-7-16.6c-1.2-5.8-1-11.6-0.2-17.8C223.8,218.8,229.2,248.8,241,255.8z M238.7,221.1
			c0.3,7.4,20.3,15.3,26.8,11.8C255.8,230.4,247,226.6,238.7,221.1z"/>
		<path d="M424.4,185c-4.4,0.9-8,2.5-11.6,4.3c-10.3,5-16.1,13.2-18.8,24c-2.5,10.1-6.7,19.7-11.9,28.6c-3.1,5.2-7.8,9-13,11.8
			c-1.4,0.8-2.8,0.7-4.3,0.1c-5.7-2.2-11.3-4.7-16.8-7.1c-3.6-1.6-7.1-3.3-11-4.4c0.3-0.9,1.1-0.9,1.7-1.1
			c10.6-4.2,20.2-9.7,27.6-18.6c4.2-4.9,8-10.1,11.5-15.4c4.4-6.8,9-13.4,15.2-18.7C401.8,181,414.5,179.5,424.4,185z M388,209.4
			c-7,13.3-14.1,26.1-27.9,34.1C371.1,242.9,389.7,219.9,388,209.4z"/>
		<path d="M260.2,189c0.8,5.1,1.5,9.9,2.3,14.8c1.4,8.9,4.8,16.6,11.3,23c1.9,1.9,3.6,3.9,5.4,5.9c0.7,0.8,1.3,1.5,1.6,2.6
			c-1.4-0.8-2.8-1.4-4.2-2.3c-5.1-3.8-10.9-6.4-16.9-8.4c-1.9-0.7-3.6-1.5-5.5-2.1c-3-1-4.6-3.1-5.1-6.1c-0.4-2.6-0.7-5.1,0.1-7.6
			C251.4,201.4,254.5,194.7,260.2,189z"/>
		<path d="M320.8,164.1c-5.8,15.3-11,30.8-14.4,47.4c-1.3-2.8-1.7-5.4-2.2-7.9c-1.6-10.4-2.5-20.8-1-31.3c0.7-4.5,1.4-5.2,5.8-6.1
			c3.4-0.7,6.8-1.5,10.1-2.3C319.7,164,320.1,163.8,320.8,164.1z"/>
		<path d="M346.9,232.2c16.6-13.8,22.8-33.1,28.9-52.7c0.7,2.8,0.5,5.7,0.4,8.5c-0.3,8.4-1.3,16.6-5.5,24.2
			c-4.5,8.3-11.1,14.3-19.3,18.8c-0.9,0.5-2,0.9-3,1.2C348,232.2,347.5,232.5,346.9,232.2z"/>
		<path d="M295.5,576.3c4.8-10.1,28.9-12.9,37.5-4c-1.6,0.9-3.2,0.3-4.6,0c-4.8-1.2-9.7-1.5-14.6-1.1c-5.6,0.5-10.9,2-16,4.4
			C297,575.9,296.4,576.5,295.5,576.3z"/>
		<path d="M284.6,561.3c14.1,1.2,28.1-0.9,42.4-2.6c-1.7,1-3.3,1.3-4.7,1.7c-11.6,3.1-23.3,3.9-35.2,3.3
			C285.1,563.6,285.1,563.6,284.6,561.3z"/>
		<path d="M337,435.3c2.5-0.9,5-1.6,7.4-2.4c13.3-4.5,26.2-9.9,39.6-14.4c4.6-1.5,5.1-1.2,4.4,3.6c-1.5,10.3-5.8,18.8-15.1,24.3
			c-6.1,3.6-12.9,4.3-19.9,3.7c-0.4,0-0.9-0.1-1.3-0.1C343.4,448.9,338.8,444.5,337,435.3z"/>
		<path d="M284.6,437.9c-1.9,1-2.6,2.4-3.6,3.6c-4,5.5-9.7,7.5-16.2,7.9c-11.1,0.5-20.1-4.2-27.4-12.1c-2-2.2-3.2-4.8-3.9-7.6
			c-0.7-2.4-1-4.8-1.2-7.3c-0.1-1-0.2-2,0.4-3.2C250.3,424.1,267.4,430.4,284.6,437.9z"/>
		<path d="M274.1,470.6c-1,2.1-2.4,3.6-3.9,5.1c-4.4,4.5-5,7.9-2.5,13.6c1,2.2,2.2,4.3,3.6,6.2c2,2.5,4.4,3.4,7.5,2.6
			c1.4-0.3,3-0.7,4.4-0.8c1.7-0.1,3.6,0,5.5,0c-0.5,1.4,0.5,1.7,1.6,2.2c3.9,1.7,7.8,3.7,11.7,5.5c7.8,3.6,15.2,3.3,22-2.4
			c1.4-1.2,3.1-2.1,4.5-3c0.1-0.9-0.8-1-0.5-1.7c1.7-1.1,3.9-1.2,6-1.4c3.4-0.4,6.9-1,10.2-2c6.4-2,8.5-5.5,7.2-12.1
			c-0.4-2.1-1.2-4-2.1-5.9c-0.2-0.5-0.5-1.1-0.8-1.6c1.2-0.7,1.9,0.1,2.4,0.8c5.2,4.8,4.8,14.5-0.8,19.3c-3.2,2.7-6.8,3.6-10.8,3.6
			c-4.7,0-8.4,1.7-11.7,5c-7.4,7.4-18.3,9-28,3.8c-3.6-2-7.2-4.2-10.7-6.3c-3.1-1.9-6.1-2.3-9.5-1.1c-5.8,2.1-9.3,0.7-12.3-4.7
			c-1.5-2.6-2.7-5.4-3.2-8.4c-0.5-3.6,0.3-6.8,2.4-9.6C268.4,474.5,271.2,472.5,274.1,470.6z"/>
		<path d="M336.2,428.7c-1.4,0.7-2.8,1.2-4.3,1.9c-2.1,0.9-3.8,0.4-5.4-1.2c-1.9-2.1-3.8-4.3-5.1-6.8c-1.2-2.3-3.1-3.6-5.6-4.3
			c-5.6-1.3-10.9-1.1-15.4,3.2c-1.2,1.1-2.6,1.5-4.5,1.7c0.8-4.2,1.4-8.1,2.1-12c-2.5-0.7-4.3-2.3-5.7-4.3c-1.3-1.9-2.8-2.1-4.5-1
			c-1.7,1.1-2.2,2.7-1.3,4.7c0.2,0.5,0.5,1.1,0.9,1.9c-2.4-1.7-3.1-4.7-1.5-6.7c1.6-2.1,5.7-2.5,7.5-0.9c0.7,0.5,1.1,1.3,1.6,2
			c0.8,1,1.6,1.9,3,2c1.6,0.1,2.1,1.1,1.7,2.6c-0.2,0.9-0.4,1.6-0.7,2.5c-0.2,0.8-0.7,1.6-0.4,2.5c0.4,0.3,0.8,0,1-0.1
			c5.9-3.1,11.7-2.3,17.5,0.4c0.5,0.2,1.2,1,1.9,0.5c0.9-0.5,0.3-1.3,0.2-2.1c-0.3-2,0-3.9-0.1-5.9c0-0.5,0.2-1,0.7-1.2
			c3.8-2,7.4-4.4,11.9-4.9c5.2-0.7,8.1,2.5,6.7,7.6c-1.1,3.7-3,6.9-6.8,8.5c-2.5,1-4-0.3-3.7-3c1.7,2.6,2.5,2.7,5,0.4
			c2-1.7,3.3-4,3.8-6.7c0.7-3.3-1.5-5.7-4.8-5c-3,0.4-5.5,2-8.1,3.2c-4.5,2.2-4.6,2.3-3.9,7.3c0.7,5.5,3.2,9.8,7.9,12.9
			c1.9,1.2,2.8,1.1,4.5-0.3c2-1.9,3.4-4,4.7-6.3c4.7-8.4,8.9-17,13.9-25.2c2.4-3.9,4.9-7.8,8.3-11c2.4-2.3,5.1-4.3,8.2-5.7
			c0.8-0.3,1.5-0.8,2.6-0.7c-0.4,1.2-1.3,1.7-2.2,2.3c-3.7,2.4-6.9,5.5-9.6,8.9c-7.2,8.9-12.8,18.7-17.4,29.1
			c-1.3,3-2.8,5.7-4.7,8.4C335.8,427.9,334.7,428.6,336.2,428.7L336.2,428.7z"/>
		<path d="M238.5,365.8c1.4-0.3,2.3,0.1,3.2,0.5c6.3,3,12.2,6.7,18.3,10.3c11.6,7,23.5,13.3,35.6,19.3c8.4,4.2,16.5,3.8,24.8,0.3
			c6.9-3,13.4-6.6,19.8-10.5c6.9-4.2,13.7-8.4,20.7-12.3c0.8-0.4,1.6-0.8,2.8-1.4c-0.4,0.5-0.4,0.8-0.5,0.9
			c-11.6,7.3-22.8,15.2-34.8,21.9c-5.6,3.1-11.4,5.5-17.7,6.1c-6.9,0.8-13.2-1.4-19.1-4.6c-14.9-8.1-30.3-15.4-44.2-25.1
			C244.4,369.3,241.5,367.8,238.5,365.8z"/>
		<path d="M336.3,428.7c2.8-1.5,5.7-2.8,8.4-4.6c7.1-4.6,11.8-11.1,15.6-18.5c3.5-6.7,6.4-13.6,10.5-20c3.1-4.8,6.7-9,11.7-11.9
			c0.7-0.4,1.4-1,2.2-0.3s0.3,1.5,0,2.2c-3.3,9.7-7.6,19-13.4,27.5c-0.9,1.2-1.6,2.5-4,2.8c3.3-5.5,6.4-10.6,9.1-16
			c2.6-5.4,5.2-10.7,7.8-16.3c-3.1,1.7-5.6,4.3-7.8,7c-3.4,4.3-5.6,9.1-8.1,13.9c-2.7,5.4-5.1,10.8-8.2,16
			c-5.1,8.6-12.6,14.4-22,17.7C337.4,428.5,336.8,428.8,336.3,428.7C336.2,428.7,336.3,428.7,336.3,428.7z"/>
		<path d="M259.4,361c0.9-0.3,1.4,0.2,2,0.5c6.9,4.2,13.1,9.1,19.3,13.9c6.3,4.8,13.6,6.9,21.4,7.2c16,0.9,30.1-4.5,43.1-13.2
			c1.5-1,3.1-2.1,4.7-2.6c0.3,0.1,0.3,0.2,0.2,0.3c-7.8,5.2-15.3,10.7-24.3,13.9c-11.4,4-22.8,4.9-34.5,2c-4.2-1.1-7.9-3.2-11.1-6
			c-6.3-5.5-12.8-10.8-19.9-15.4C260,361.6,259.8,361.2,259.4,361z"/>
		<path d="M354.3,357.2c-9.8,4.2-17.7,11.7-27.4,15.8c-9.9,4.3-20.2,5.6-30.9,3.1c-3.7-0.9-6.8-2.8-9.6-5.4c-3.8-3.5-7-7.5-11-10.8
			c2.6,1,4.7,2.7,6.8,4.6c2,1.7,3.8,3.7,5.9,5.2c6.6,4.8,13.9,6,21.7,5.4c10.9-0.9,20.7-5.5,29.9-10.8c4.5-2.6,8.9-5.5,13.9-6.9
			C353.9,357.3,354.1,357.3,354.3,357.2z"/>
		<path d="M352.3,454.6c3.5,0.2,6.9,0.9,10.3,1.1c9.2,0.5,18.1-0.1,26.4-4.4c8.1-4,14.8-9.6,18-18.5c1-2.6,1.5-5.4,1.7-8.1
			c0.1-1.1,0.2-2.3,0.7-3.4c0.4,2.4,0.2,4.8-0.1,7.2c-1.5,12.2-9,19.9-19.7,24.6c-11.9,5.1-24.3,5-36.6,1.7
			C352.9,454.8,352.6,454.7,352.3,454.6z"/>
		<path d="M294.2,425.5c-2.5,5.6-9.6,7.9-14.8,5.1c-4.3-2.2-8-5.1-11.8-8c-8.2-6.1-16.5-12.1-23.7-19.5c-1.6-1.7-3.3-3.5-4.6-5.5
			c0.1-0.1,0.2-0.3,0.4-0.4c0.4,0.5,0.9,1.2,1.4,1.7c7.8,8.1,16.9,14.5,26.1,20.9c3.9,2.7,7.9,5.6,11.9,8.2
			c5.5,3.7,7.8,3.5,12.9-0.8C292.6,426.8,293.2,426.4,294.2,425.5z"/>
		<path d="M274.9,452.6c6.2-2.7,11.4-7.1,17.3-10.4c5.7-3.1,11.8-5.5,18.3-6.2c6.3-0.8,12.1,0.9,17.4,4.4c2,1.3,4,2.6,5.9,4.7
			c-1.2-0.1-1.6-0.7-2.2-1.1c-9-7-18.8-7.9-29.3-3.9c-5.2,2-10.3,4.6-15.2,7.2c-3,1.6-6,3.2-9.1,4.6
			C277,452.3,276.1,452.7,274.9,452.6z"/>
		<path d="M290.7,417c-1,1.6-2.5,1.9-3.9,1.9c-5.5,0-10.3-1.9-14.1-5.8c-0.1-0.1-0.1-0.3-0.2-0.5c0.9-0.5,1.6,0.5,2.7,0
			c-5-9-10.1-17.8-13.8-27.4c1.6,1,2.4,2.5,3.3,4c4.2,7.2,8,14.6,11.7,22.1c2.1,4,7.3,6.6,11.9,5.7
			C288.8,416.8,289.6,416.5,290.7,417z"/>
		<path d="M223.4,451.8c-2.1-0.8-2.7-2.2-3.5-3.6c-3.7-6.7-5.8-14-7.2-21.4c-1.2-6.7-1.7-13.4-1.6-20.2c0-0.8-0.2-1.6,0.9-2.3
			C212.9,420.7,215.4,436.8,223.4,451.8z"/>
		<path d="M287.6,356.3c14.8,11.4,29.6,10.7,44.7,1.7C319.3,372,293.3,367.6,287.6,356.3z"/>
		<path d="M373,380.7c-8.2,9.9-16.3,19.7-23.8,29.9c-1.1-1.3-0.4-2.3,0.1-3.2c3.4-6,7.8-11.5,12.3-16.6c3-3.3,5.7-6.8,9.3-9.5
			C371.4,381.1,371.8,380.4,373,380.7z"/>
		<path d="M361.6,411.3c1.3-0.9,2.7-1,4-1.3c5.8-1.9,11.1-4.5,16.5-7.3c4.2-2.2,8.4-4,13.1-4.9c2.6-0.4,4.6,0.2,5.8,2.4
			c-3.5-2-6.7-1-9.8,0.5c-5.5,2.6-10.9,5.4-16.5,8c-3.6,1.7-7.4,2.6-11.4,3C362.7,411.6,362.3,411.8,361.6,411.3z"/>
		<path d="M263.6,402.3c-8.1-10.4-16.8-20.3-26-29.7C248.8,380.3,257.8,389.9,263.6,402.3z"/>
		<path d="M318.9,428.7c-6.1,0.3-11.9,0.5-17.8,1.7c0.3-1.6,1.2-2.5,2.5-2.7c4.9-0.7,9.8-0.9,14.6,0.5
			C318.3,428.3,318.5,428.5,318.9,428.7z"/>
		<path d="M235.4,531.4c-2.7-3.1-5.4-6-8.9-7.9c0.7,1.1,1.4,2.1,2.1,3.2c0.5,0.8,1.1,1.6,0.1,2.5c-0.9,0.8-1.5-0.1-2.3-0.5
			c-0.3-0.2-0.5-0.4-0.9-0.7c-1.2,0.8-0.9,1.6-0.2,2.5c0.9,1.2,1.4,2.4,1.3,3.9c0,0.7-0.3,1.2-0.9,1.5c-0.8,0.3-1.2-0.2-1.5-0.7
			c-2.1-2.8-5.2-4.2-8-6.7c0.1,2.7,1.7,5.1,0.1,8c-0.9-2.6-3.4-3-5.4-4.4c0,1.4,0.2,2.6-1.1,3.3c-1.5,0.8-2.4-0.3-3.5-1.1
			c-0.7,0.5-0.7,1.3-1,2c-0.4,1-1.1,1.5-2.2,1.3c-1.1-0.2-1.4-0.9-1.3-1.9c0-1.3,0-2.6,0-3.8c-0.4-0.3-0.7-0.1-1,0
			c-1.6,1-2.8,0.3-3.1-1.5c-0.1-1.1-0.1-2.2-0.1-3.3c0-1.2,0.1-2.4,1.5-2.8c1.5-0.4,1.7,0.9,2.3,1.9c2.7-1.3,2.7-1.3,4.8,0.1
			c0.2-0.3,0-0.7-0.2-0.9c-0.5-0.9-0.9-1.7-0.2-2.7c0.7-1,1.5-0.1,2.4-0.2c4.2-0.4,7.5,2.3,11.7,2.2c-0.7-1.7-2.1-2.8-3.5-3.9
			c-1.1-0.8-2.4-1.3-1.6-3.1c0.8-1.7,2.1-2.4,4-2.1c0.3,0.1,0.8,0.1,1.2,0.2c0.4-1.7,0.9-3.4,3.3-3.1c0-0.4,0-0.8,0-1.1
			c0.1-2.4,1.2-3.2,3.5-2.4c2,0.7,3.8,1.6,5.7,2.7c0.5,0.3,1.1,0.5,2,1.1c-0.7-1.5-1.4-2.1-2.4-2.5c-1.1-0.5-2.2-1-3.2-1.4
			c-0.5-0.2-0.9-0.8-0.7-1.3c0.1-0.5,0.5-1,1.2-1c2,0.2,3.6-0.3,5.4-1.2c0.9-0.5,2-0.1,2.8,0.2c8.3,2.4,14.2,7.5,17.6,15.4
			c0,0.1,0.1,0.2,0.1,0.3c0.1,1,1.1,2.2-0.1,2.8c-1.3,0.8-1.6-0.9-2.2-1.6c-0.9-1.1-1.5-2.4-2.8-3.3c-0.4,1,0,2.7-2,2
			c0,1,0,1.6,0,2.4c0,1.1-0.4,1.9-1.4,2.1c-1,0.2-1.4-0.5-1.7-1.3c-1.5-2.7-4.5-5.1-7.4-6c1.1,2,2.6,3.7,3.2,5.9
			c0.1,0.3,0.1,0.8,0.1,1.4c-2.7-1.5-5.2-2.8-8.2-4.6C234.4,524.8,237.7,527.4,235.4,531.4z"/>
		<path d="M382.3,534.5c-1.5-2.6-3-4.8-4.3-7.1c-0.4,0.3-0.5,0.8-0.7,1.2c-0.2,0.9-0.8,1.5-1.7,1.1c-1-0.3-1.3-1.1-0.9-2.1
			c0.9-2.2,1.7-4.5,2.6-6.7c0.1-0.3,0.2-0.7,0.2-1.1c-1.4,1.5-2.1,3.5-3.1,5.2c-1.2,2.5-1.4,2.6-3.4,1.9c-2.1-0.8-2.5-1.9-1.7-4
			c1.3-3.7,3.3-7,6-9.8c1.4-1.5,3.1-3,4.7-4.5c0.4-0.4,0.9-0.7,1.6-0.5c0.3,1.5-1.3,2.1-1.6,3.3c0.9,0.2,1.3-0.5,1.9-0.7
			c0.5-0.1,1.1-0.4,1.5,0.1c0.3,0.4,0,1-0.2,1.3c-0.3,0.4-0.7,0.9-1.1,1.5c1.5,0.1,2.5-1.4,4-0.5c-1.5,1.9-2.8,3.8-3.3,6.8
			c2.2-2.4,3.5-5.6,7.4-5.5C387,520.7,383.8,527.1,382.3,534.5z"/>
		<path d="M393.9,526.9c-1.9,1.4-3.1,3.2-3.7,5.4c-0.2,0.7-0.4,1.5-1.4,1.4c-1-0.1-1.3-1-1.3-1.9c0-1.2,0.2-2.4,0.3-3.8
			c-1.9,0.1-1.6-1-1.3-2.3c0.8-2.7,2-5.4,4.4-7.1c0.7-0.4,1.4-1,2.2-0.2c0.7,0.7,0.1,1.4-0.2,2c-1.3,2.2-1.4,4.7-1.6,7.3
			c0.8-0.4,1-1.2,1.2-1.7c1.4-2.6,2.5-5.4,4.5-7.6c0.5-0.7,1.2-1.4,2.2-0.8c1,0.7,0.1,1.4-0.1,2.1c-0.8,1.9-1.5,3.7-2.5,6
			c2.1-1.5,3.2-3.7,6.1-3.7c-3.6,3.5-4.8,7.9-6.4,12c-0.3,0.9-1,1.9-2.2,1.5c-1.3-0.3-1.7-1.3-1.6-2.5
			C392.4,530.9,393.3,529,393.9,526.9z"/>
		<path d="M417.4,525.6c1.5-0.1,2.8-0.7,4.2,0.3c0.5,0.3,1-0.3,1.4-0.7c1.2-0.9,2.3-1.9,3.9-1.7c0.7,1.1,0.1,1.9-0.5,2.5
			c-1.6,1.4-3.3,2.8-4.9,4.2s-2.4,0.9-2.6-1.4c-1.3,0.5-2.5,1.1-3.7,1.5c-0.7,0.2-1.3,0.5-2,0c-0.7-0.4-0.4-1.2-0.3-1.9
			c0.4-1.9,1.2-3.6,2.4-5.1c0.5-0.8,1.2-1.3,2.2-0.9c1.2,0.5,0.7,1.4,0.3,2.2C417.5,525,417.5,525.2,417.4,525.6z"/>
		<path d="M413,524.6c-2,3.1-2.8,6.6-4.3,9.7c-0.3,0.8-0.8,1.6-1.9,1.4c-1.2-0.2-1-1.2-0.9-2.1c0.2-3.4,0.8-6.7,2-9.9
			c0.8,0.8,0.5,1.6,0.8,2.5C410,525.8,410.8,523.8,413,524.6z"/>
		<path d="M436.6,516.2c-0.4,2.2-0.9,4-1.3,6c-0.3,1.2-0.9,2.1-2.4,1.5c-1.1-0.4-1.3,0.5-1.7,1.2c-0.7,1-1.2,2.2-2.7,2.1
			C427.4,523.3,429.8,520.1,436.6,516.2z"/>
		<path d="M406,523.3c-1.3,3.6-2.5,7.2-3.8,10.7c-0.2,0.7-0.9,1-1.6,0.8c-0.7-0.2-1.2-0.5-1-1.3c0.7-2.8,0.8-5.8,2.6-8.2
			C403,524.2,403.9,522.9,406,523.3z"/>
		<path d="M443.4,507.6c-0.7,3.1-2.1,5.6-3.9,7.9c-0.7,0.8-1.5,0.3-1.6-0.7C437.4,511.7,440.2,508.1,443.4,507.6z"/>
	</g>
</g>
<g>
	<g>
		<path fill="#C4BA98" stroke="#000000" stroke-width="0.5" stroke-miterlimit="10" d="M443.7,585.2v-8.8h6.9v1.5h-5.3v2.3h2.9v1.6
			h-2.9v2.7L443.7,585.2z"/>
		<path fill="#C4BA98" stroke="#000000" stroke-width="0.5" stroke-miterlimit="10" d="M452.4,578.5c0-0.8,0.1-1.4,0.4-1.6
			c0.2-0.3,0.7-0.4,1.3-0.4h5c0.7,0,1.1,0.1,1.3,0.4s0.4,0.8,0.4,1.6v4.6c0,0.8-0.1,1.4-0.4,1.6c-0.2,0.3-0.7,0.4-1.3,0.4h-5
			c-0.7,0-1.1-0.1-1.3-0.4c-0.2-0.3-0.4-0.8-0.4-1.6V578.5z M454,583.5h5.2V578H454V583.5z"/>
		<path fill="#C4BA98" stroke="#000000" stroke-width="0.5" stroke-miterlimit="10" d="M464.1,583.8v-7.4h5.8c0.5,0,0.9,0.1,1.2,0.4
			c0.2,0.3,0.4,0.7,0.4,1.3v2.1c0,0.6-0.1,1-0.4,1.3c-0.2,0.3-0.6,0.4-1.2,0.4H469l3.1,3.3h-2.3l-2.7-3.3h-1.5v1.6L464.1,583.8z
			 M469.2,577.9h-3.6v2.4h3.6c0.3,0,0.5,0,0.6-0.2c0.1-0.1,0.1-0.3,0.1-0.5v-1.1c0-0.3,0-0.4-0.1-0.5
			C469.6,578,469.5,577.9,469.2,577.9z"/>
	</g>
	<g>
		<path fill="#C4BA98" stroke="#000000" stroke-width="0.5" stroke-miterlimit="10" d="M431.9,602.8c0.6-0.1,0.9,0.2,0.9,0.8v1h1.7
			c0.7,0,0.8,0.2,0.5,0.7h-2.2c0,1.1,0.1,1.7,0.2,1.7c0.3,0.1,0.6,0,0.8-0.1c0.8-0.1,1.1,0.1,1,0.8c-0.1,0.5-0.1,1.3-0.1,2.3
			c0.1,0.8-0.3,1-1.1,0.8c-0.9-0.3-1.9-0.3-2.8,0c-0.6,0.4-0.9,0.2-1-0.6c-0.1-0.8-0.2-1.6-0.5-2.5c0.1-0.6,0.5-0.8,1.3-0.6
			c0.6,0.1,0.9-0.1,0.9-0.5c0-0.8,0-1.6-0.1-2.4C431.1,603.3,431.3,602.8,431.9,602.8z M430.7,608.3c-0.1,0.9,0.1,1.4,0.5,1.5
			c1.8,0.2,2.5,0,2.4-0.8c0.1-1.1-0.6-1.5-2.2-1.3C431,607.8,430.7,607.9,430.7,608.3z M435.3,605.7c0.3,0,0.5,0,0.6-0.1
			c-0.1-0.8-0.1-1.6-0.1-2.4c-0.1-0.5,0.2-0.8,0.8-0.7c0.4,0,0.6,0.2,0.6,0.6c-0.1,0.7-0.1,1.5,0,2.4c2.5-0.4,3.7-0.4,3.7,0
			c0.1,0.2,0.1,0.3-0.1,0.3c-1.1,0.1-2.3,0.3-3.4,0.6c0.2,0.7,0.5,1.3,0.7,1.7c0.3-0.4,0.6-0.8,0.9-1.4c0.2-0.2,0.5-0.3,0.7-0.2
			c0.3,0.2,0.4,0.5,0.3,0.8c-0.5,0.6-0.9,1.1-1.3,1.5c0.8,0.8,2.2,1.2,4.1,1.1c0.1,0.1-0.1,0.5-0.7,1.1c-0.8,0.8-1.7,1-2.6,0.5
			c-0.4-0.3-1-0.9-1.8-1.7c-0.8,0.5-1.6,0.8-2.4,0.9c-0.4-0.1-0.5-0.2-0.2-0.5c0.8-0.2,1.4-0.7,2.1-1.4c-0.3-0.5-0.6-1.2-0.9-2.3
			c-0.4,0.1-0.7,0.2-1,0.3c-0.5,0.1-0.6-0.1-0.6-0.7C434.5,606,434.7,605.8,435.3,605.7z M438.9,603.1c0.2-0.5,0.5-0.7,0.9-0.5
			c0.4,0.2,0.5,0.5,0.3,0.9c-0.3,0.5-0.8,0.7-1.5,0.8c-0.3,0-0.4-0.1-0.3-0.3C438.6,603.7,438.8,603.4,438.9,603.1z"/>
		<path fill="#C4BA98" stroke="#000000" stroke-width="0.5" stroke-miterlimit="10" d="M447.9,605.7c0.4,0,0.6,0.1,0.8,0.3
			c-0.1,0.3-0.3,0.4-0.8,0.3c-0.5,0-0.9,0-1.4,0.1c0.1,0.2,0.1,0.5-0.2,0.7l-0.6,0.6c-0.2,0.3,0,0.5,0.6,0.6
			c0.5,0.1,0.8-0.1,1.1-0.5l-0.3-0.7c0.1-0.2,0.2-0.3,0.5-0.2c0.2,0.1,0.5,0.3,0.7,0.5c0.1,0.3,0.3,0.6,0.6,1
			c-0.1,0.1-0.1,0.2-0.2,0.2c-0.3,0.1-0.6-0.1-0.9-0.5c-0.5,0.8-0.9,1.1-1.5,0.9c-0.5-0.3-0.9-0.3-1.3-0.1c-0.1,0-0.3-0.1-0.5-0.3
			c-0.1-0.3,0.1-0.6,0.5-0.9c0.7-0.6,0.9-1,0.7-1.3c-0.3-0.1-0.8,0-1.4,0.2c-0.2,0.1-0.4,0.1-0.5-0.1c0.1-0.5,0.3-0.8,0.8-0.9
			L447.9,605.7L447.9,605.7z M447.9,604.1c0.2,0,0.4,0.1,0.5,0.3c0,0.2-0.1,0.3-0.2,0.3h-1.8c-0.5,0-1,0-1.5,0.1
			c-0.1-0.1-0.2-0.2-0.2-0.5c0.1-0.2,0.2-0.4,0.5-0.6C445.6,604,446.6,604.1,447.9,604.1z M450.9,607.3c-0.2-0.1-0.5-0.1-0.7,0
			c-0.2,0.1-0.5,0.3-0.7,0.3c-0.1,0-0.3,0-0.3-0.1c-0.1-1.1-0.3-2.2-0.5-3.1c-0.1-0.5,0.1-0.7,0.7-0.7c0.2,0.1,0.6,0.2,1.1,0.1
			c0.2-0.2,0.5-0.6,0.8-1.1c0.1-0.1,0.2-0.2,0.5-0.2c0.7,0.2,0.9,0.5,0.6,0.8c-0.2,0.2-0.4,0.4-0.6,0.6c0.5,0,1.2,0.1,2.1,0.2
			c0.2-0.1,0.4-0.1,0.6-0.2c0.2-0.1,0.4,0,0.6,0.1c0.3,0.2,0.4,0.6,0.2,1c-0.2,0.7-0.4,1.4-0.5,2.2l-0.3,0.2
			c0.3,0.2,0.3,0.4,0.1,0.6c-0.1,0.1-0.3,0.3-0.5,0.5c-0.1,0.1-0.1,0.2,0.1,0.3c0.3,0.1,0.6,0,0.8-0.1c-0.3-0.2-0.3-0.4-0.1-0.5
			c0.3,0,0.5,0,0.7,0.1c0.1,0.2,0.3,0.5,0.5,0.7c-0.1,0.1-0.2,0.1-0.3,0.2l-0.5-0.3c-0.1,0.5-0.4,0.6-0.8,0.6
			c-0.3-0.2-0.6-0.3-0.9-0.2c-0.2-0.1-0.3-0.3-0.2-0.6c0.1-0.1,0.3-0.3,0.5-0.6c0.1-0.1,0.2-0.4,0.3-0.7c-0.6-0.1-1.3-0.1-2.2-0.1
			c-0.5,1.8-1.6,3-3.1,3.8c-1.2,0.5-2.1,0.3-2.7-0.6c0-0.1,0.1-0.1,0.5-0.1C448.9,610.2,450.4,609.1,450.9,607.3z M451.2,604.4
			c-0.5,0-0.9,0.1-1.3,0.2c-0.1,0.5-0.1,0.7,0.2,0.7l1.3-0.1C451.6,604.9,451.5,604.6,451.2,604.4z M451.4,605.8
			c-0.4,0-0.8,0-1.4,0.1c0,0.5,0.1,0.8,0.3,0.8l0.8-0.1L451.4,605.8z M452.2,607.9c0.1-0.3,0.2-0.5,0.5-0.5c0.1,0,0.3,0.1,0.3,0.2
			c-0.1,0.3-0.3,0.6-0.3,0.9c0,0.3,0,0.5,0.1,0.7c0.3,0.4,0.9,0.6,1.8,0.8c0.8,0.1,1.5,0,2.2-0.2c0.5-0.2,0.8-0.3,0.9-0.1
			c-0.1,0.5-0.3,1-0.8,1.6c-0.5,0.5-1,0.6-1.4,0.5c-1.3-0.2-2.4-0.8-3.2-1.6c-0.4-0.5-0.5-0.9-0.5-1.3
			C452,608.5,452.1,608.2,452.2,607.9z M453.9,606.8c0.1-0.3,0.2-0.6,0.1-0.8c-0.3-0.1-0.9-0.2-1.7-0.2c-0.1,0.3-0.1,0.6-0.1,0.9
			C452.8,606.8,453.3,606.8,453.9,606.8z M452.4,605.2l1.3,0.1c0.3,0.1,0.5-0.1,0.5-0.5c0-0.3-0.5-0.5-1.4-0.5
			C452.5,604.5,452.4,604.8,452.4,605.2z"/>
		<path fill="#C4BA98" stroke="#000000" stroke-width="0.5" stroke-miterlimit="10" d="M462.4,605.1c0.1-0.3,0.3-0.5,0.3-0.5
			c0.4-0.1,0.5,0.2,0.3,0.8c-0.2,0.7-0.6,1.4-1,2.2c-0.4,0.6-0.8,1.1-1.1,1.4c-0.8,0.7-1.6,0.6-2.4-0.1c-0.2-0.2-0.1-0.5,0.2-0.7
			C460.1,607.6,461.3,606.6,462.4,605.1z M465,602.8c0.8-0.1,1.1,0.3,1,1.3c-0.1,1.9,0,4,0.1,6.4c0,0.9-0.7,1.3-2.2,1.3
			c-0.8-0.1-1.6-0.5-2.6-1.3c-0.1-0.4-0.1-0.6,0.2-0.6c1.4,0.5,2.3,0.5,2.6,0.2c0.2-0.1,0.3-2.3,0.2-6.4
			C464.5,603.2,464.7,602.8,465,602.8z M466.9,605.5c-0.2-0.3-0.2-0.5,0.1-0.7c0.1-0.1,0.3,0,0.5,0.1c1.1,1.4,2.7,2.5,4.8,3.5
			c-0.2,0.4-0.5,0.6-0.7,0.8c-0.7,0.6-1.3,0.6-1.9,0C468.6,608,467.7,606.8,466.9,605.5z"/>
		<path fill="#C4BA98" stroke="#000000" stroke-width="0.5" stroke-miterlimit="10" d="M478.2,607.1c-0.2,0.8-0.5,1.3-0.7,1.7
			l1.5-0.2c-0.1-0.3-0.1-0.6-0.1-0.9c0.1-0.3,0.3-0.5,0.8-0.6c0.3,0,0.6,0.1,0.8,0.2c0.3,0.1,0.5,0.1,0.7,0v-3.8
			c0-0.5,0.1-0.7,0.5-0.8c0.8,0,1.1,0.3,1.1,0.8c-0.1,0.4-0.1,0.7-0.1,0.9c1.6,0.1,2.9,0.1,4,0.1c0,0.4-0.1,0.7-0.3,1
			c-0.3,0.3-0.6,0.4-0.9,0.2c-1.2-0.4-2.1-0.5-2.7-0.3c-0.1,0.6-0.1,1.2,0,1.8c0.5,0.1,0.9,0,1.3-0.1c1-0.3,1.5,0,1.5,0.8
			c-0.1,0.6-0.2,1.4-0.2,2.3c0.1,1-0.2,1.3-1,1c-1.1-0.1-2.2-0.2-3.4-0.1c-0.9,0.5-1.4,0.2-1.5-0.8c0-0.2,0-0.6-0.1-1.3
			c-1.5,0.7-3.3,1.2-5.4,1.6c-0.7,0.1-1-0.1-0.9-0.8c0-0.4,0.4-0.6,1.1-0.7c0.8-0.1,1.8-0.2,2.8-0.3c0.2-0.8,0.3-1.6,0.3-2.4
			c0-0.5,0.1-0.8,0.5-0.8C478.2,605.8,478.4,606.2,478.2,607.1z M477.2,603.5c-0.1,0.9,0,1.3,0.2,1.3l1.6,0.1
			c0.4,0.3,0.4,0.5,0.1,0.7c-0.1,0.1-0.4,0.1-0.8,0.1c-1.5-0.3-3.1-0.2-4.7,0.3c-0.3,0.1-0.5,0-0.5-0.3c0.1-0.7,0.5-1,0.9-0.9
			c0.6,0.1,1.1,0.2,1.4,0.1c0.2-0.1,0.3-0.5,0.2-1.4c0.1-0.3,0.2-0.5,0.5-0.5C476.7,603,477,603.2,477.2,603.5z M476.1,608.5
			c-0.1,0.2-0.3,0.3-0.6,0.1c-0.5-0.7-0.7-1.3-0.8-1.8c-0.1-0.5,0.1-0.8,0.6-0.9c0.4-0.1,0.6,0.1,0.6,0.5
			C476,607.1,476,607.9,476.1,608.5z M482.5,608.1c-1.1-0.1-1.8,0-2.1,0.2c-0.2,0.5-0.2,1.1,0,1.6c0.1,0.4,0.9,0.5,2.5,0.3
			c0.7,0,1-0.4,1-1.1C484,608.4,483.5,608,482.5,608.1z"/>
	</g>
	
		<linearGradient id="SVGID_1_" gradientUnits="userSpaceOnUse" x1="386.068" y1="324.403" x2="386.068" y2="324.403" gradientTransform="matrix(1.0929 0 0 -1.0929 0 955.5428)">
		<stop  offset="0" style="stop-color:#C4BA98"/>
		<stop  offset="1.474962e-002" style="stop-color:#CEC5A9"/>
		<stop  offset="4.332456e-002" style="stop-color:#DDD7C4"/>
		<stop  offset="7.615717e-002" style="stop-color:#EAE6DA"/>
		<stop  offset="0.1145" style="stop-color:#F3F1EB"/>
		<stop  offset="0.162" style="stop-color:#FAF9F6"/>
		<stop  offset="0.2285" style="stop-color:#FEFEFD"/>
		<stop  offset="0.4133" style="stop-color:#FFFFFF"/>
		<stop  offset="0.4696" style="stop-color:#DDDBD8"/>
		<stop  offset="0.5499" style="stop-color:#B2AFA6"/>
		<stop  offset="0.6258" style="stop-color:#908B7F"/>
		<stop  offset="0.6952" style="stop-color:#787263"/>
		<stop  offset="0.7558" style="stop-color:#696252"/>
		<stop  offset="0.801" style="stop-color:#645D4C"/>
		<stop  offset="0.8499" style="stop-color:#776F5B"/>
		<stop  offset="0.9484" style="stop-color:#A89F82"/>
		<stop  offset="1" style="stop-color:#C4BA98"/>
	</linearGradient>
	
		<linearGradient id="SVGID_2_" gradientUnits="userSpaceOnUse" x1="386.068" y1="324.403" x2="386.068" y2="324.403" gradientTransform="matrix(1.0929 0 0 -1.0929 0 955.5428)">
		<stop  offset="0" style="stop-color:#C4BA98"/>
		<stop  offset="1.389108e-002" style="stop-color:#C7BD9D"/>
		<stop  offset="0.1655" style="stop-color:#E5E1D2"/>
		<stop  offset="0.2794" style="stop-color:#F8F7F3"/>
		<stop  offset="0.3418" style="stop-color:#FFFFFF"/>
		<stop  offset="0.4046" style="stop-color:#E1E0DC"/>
		<stop  offset="0.5083" style="stop-color:#B5B1A9"/>
		<stop  offset="0.6058" style="stop-color:#928D81"/>
		<stop  offset="0.6943" style="stop-color:#797364"/>
		<stop  offset="0.7708" style="stop-color:#696352"/>
		<stop  offset="0.8265" style="stop-color:#645D4C"/>
		<stop  offset="0.8691" style="stop-color:#776F5B"/>
		<stop  offset="0.955" style="stop-color:#A89F82"/>
		<stop  offset="1" style="stop-color:#C4BA98"/>
	</linearGradient>
	<path fill="url(#SVGID_1_)" stroke="url(#SVGID_2_)" stroke-width="0.5" stroke-miterlimit="10" d="M421.9,601"/>
	
		<linearGradient id="SVGID_3_" gradientUnits="userSpaceOnUse" x1="392.1891" y1="329.038" x2="392.1891" y2="329.038" gradientTransform="matrix(1.0929 0 0 -1.0929 0 955.5428)">
		<stop  offset="0" style="stop-color:#C4BA98"/>
		<stop  offset="1.474962e-002" style="stop-color:#CEC5A9"/>
		<stop  offset="4.332456e-002" style="stop-color:#DDD7C4"/>
		<stop  offset="7.615717e-002" style="stop-color:#EAE6DA"/>
		<stop  offset="0.1145" style="stop-color:#F3F1EB"/>
		<stop  offset="0.162" style="stop-color:#FAF9F6"/>
		<stop  offset="0.2285" style="stop-color:#FEFEFD"/>
		<stop  offset="0.4133" style="stop-color:#FFFFFF"/>
		<stop  offset="0.4696" style="stop-color:#DDDBD8"/>
		<stop  offset="0.5499" style="stop-color:#B2AFA6"/>
		<stop  offset="0.6258" style="stop-color:#908B7F"/>
		<stop  offset="0.6952" style="stop-color:#787263"/>
		<stop  offset="0.7558" style="stop-color:#696252"/>
		<stop  offset="0.801" style="stop-color:#645D4C"/>
		<stop  offset="0.8499" style="stop-color:#776F5B"/>
		<stop  offset="0.9484" style="stop-color:#A89F82"/>
		<stop  offset="1" style="stop-color:#C4BA98"/>
	</linearGradient>
	
		<linearGradient id="SVGID_4_" gradientUnits="userSpaceOnUse" x1="392.1891" y1="329.038" x2="392.1891" y2="329.038" gradientTransform="matrix(1.0929 0 0 -1.0929 0 955.5428)">
		<stop  offset="0" style="stop-color:#C4BA98"/>
		<stop  offset="1.389108e-002" style="stop-color:#C7BD9D"/>
		<stop  offset="0.1655" style="stop-color:#E5E1D2"/>
		<stop  offset="0.2794" style="stop-color:#F8F7F3"/>
		<stop  offset="0.3418" style="stop-color:#FFFFFF"/>
		<stop  offset="0.4046" style="stop-color:#E1E0DC"/>
		<stop  offset="0.5083" style="stop-color:#B5B1A9"/>
		<stop  offset="0.6058" style="stop-color:#928D81"/>
		<stop  offset="0.6943" style="stop-color:#797364"/>
		<stop  offset="0.7708" style="stop-color:#696352"/>
		<stop  offset="0.8265" style="stop-color:#645D4C"/>
		<stop  offset="0.8691" style="stop-color:#776F5B"/>
		<stop  offset="0.955" style="stop-color:#A89F82"/>
		<stop  offset="1" style="stop-color:#C4BA98"/>
	</linearGradient>
	<path fill="url(#SVGID_3_)" stroke="url(#SVGID_4_)" stroke-width="0.5" stroke-miterlimit="10" d="M428.6,596"/>
	<g>
		<g>
			<path fill="#C4BA98" stroke="#000000" stroke-width="0.5" stroke-miterlimit="10" d="M425.6,589.8h-4.4v3.4h2.4v2.4h-2.4v4.2
				l-1.3,0.6v-12.9h5.7V589.8"/>
			<path fill="#C4BA98" stroke="#000000" stroke-width="0.5" stroke-miterlimit="10" d="M427.3,598.3v-0.6v-10.1h4.8
				c0.5,0,0.8,0.2,1,0.6c0.2,0.4,0.3,1,0.3,1.9v3.1c0,0.9-0.1,1.5-0.3,1.9c-0.2,0.4-0.5,0.6-1,0.6h-0.7l2.6,4.9h-1.9l-2.3-4.9h-1.2
				v1.6v0.7L427.3,598.3z M431.5,589.8h-3v3.6h2.9c0.2,0,0.4-0.1,0.5-0.2c0.1-0.1,0.1-0.4,0.1-0.8v-1.6c0-0.4,0-0.6-0.1-0.8
				C431.9,589.9,431.7,589.8,431.5,589.8z"/>
			<path fill="#C4BA98" stroke="#000000" stroke-width="0.5" stroke-miterlimit="10" d="M436,600.6v-13h1.3v13H436z"/>
			<path fill="#C4BA98" stroke="#000000" stroke-width="0.5" stroke-miterlimit="10" d="M440.2,600.6v-13h5.8v2.2h-4.5v2.9h2.6v2.2
				h-2.6v3.2h4.5v2.5L440.2,600.6L440.2,600.6z"/>
			<path fill="#C4BA98" stroke="#000000" stroke-width="0.5" stroke-miterlimit="10" d="M448.5,600.6v-13h0.9l4,7.7
				c0.1,0.3,0.3,0.5,0.4,0.7c0.1,0.2,0.2,0.5,0.3,0.7c0-0.7,0-1.3,0-1.6c0-0.3,0-0.5,0-0.7v-6.9h1.2v13h-0.9l-4.1-8
				c-0.1-0.2-0.2-0.4-0.3-0.6c-0.1-0.2-0.1-0.3-0.2-0.5c0,0.4,0,0.8,0,1.1s0,0.7,0,0.9v7H448.5L448.5,600.6z"/>
			<path fill="#C4BA98" stroke="#000000" stroke-width="0.5" stroke-miterlimit="10" d="M458,600.6v-13h3.6c1,0,1.8,0.6,2.4,1.7
				c0.6,1.1,0.8,2.7,0.8,4.8c0,1.2-0.1,2.3-0.3,3.3c-0.2,1-0.5,1.7-0.9,2.3c-0.2,0.4-0.5,0.6-0.9,0.8c-0.4,0.2-0.8,0.2-1.4,0.2
				L458,600.6L458,600.6z M459.3,598.1h1.7c0.9,0,1.5-0.3,1.9-1c0.4-0.6,0.6-1.7,0.6-3.2c0-1.3-0.2-2.3-0.5-3c-0.3-0.7-0.8-1-1.4-1
				h-2.3L459.3,598.1L459.3,598.1z"/>
			<path fill="#C4BA98" stroke="#000000" stroke-width="0.5" stroke-miterlimit="10" d="M472.1,589.8h-3.7v2.8h3.5
				c0.5,0,0.9,0.2,1.1,0.7c0.2,0.4,0.3,1.2,0.3,2.4v1.8c0,1.2-0.1,2-0.3,2.4c-0.2,0.4-0.6,0.7-1.1,0.7h-3.5c-0.5,0-0.9-0.2-1.1-0.7
				c-0.2-0.4-0.3-1.2-0.3-2.4v-0.4l1.2-0.6v1.5h4v-3h-3.5c-0.5,0-0.9-0.2-1.1-0.7c-0.2-0.4-0.3-1.2-0.3-2.4v-1.4
				c0-1.2,0.1-2,0.3-2.4c0.2-0.4,0.6-0.7,1.1-0.7h3.2c0.5,0,0.9,0.2,1.1,0.6c0.2,0.4,0.3,1.2,0.3,2.2v0.3l-1.2,0.6V589.8
				L472.1,589.8z"/>
			<path fill="#C4BA98" stroke="#000000" stroke-width="0.5" stroke-miterlimit="10" d="M481.5,598.6V595h-4.1v5.1l-1.3,0.5v-13h1.3
				v5.1h4.1v-5.1h1.3v10.6L481.5,598.6z"/>
			<path fill="#C4BA98" stroke="#000000" stroke-width="0.5" stroke-miterlimit="10" d="M485.7,600.6v-13h1.3v13H485.7z"/>
			<path fill="#C4BA98" stroke="#000000" stroke-width="0.5" stroke-miterlimit="10" d="M489.9,600.6v-13h4.8c0.5,0,0.8,0.2,1,0.6
				c0.2,0.4,0.3,1,0.3,1.9v2.9c0,0.9-0.1,1.5-0.3,1.9c-0.2,0.4-0.5,0.6-1,0.6h-3.5v4.5L489.9,600.6z M494.1,589.8h-3v3.5h2.9
				c0.2,0,0.4-0.1,0.5-0.2c0.1-0.1,0.1-0.4,0.1-0.8v-1.4c0-0.4,0-0.6-0.1-0.8C494.5,589.9,494.3,589.8,494.1,589.8z"/>
		</g>
	</g>
</g>
</svg>
