<?xml version="1.0" encoding="utf-8"?>
<!-- Generator: Adobe Illustrator 18.1.1, SVG Export Plug-In . SVG Version: 6.00 Build 0)  -->
<svg version="1.1" id="图层_1" xmlns="http://www.w3.org/2000/svg" xmlns:xlink="http://www.w3.org/1999/xlink" x="0px" y="0px"
	 viewBox="0 0 560 560" enable-background="new 0 0 560 560" xml:space="preserve">
	 <style type="text/css">
	.st0{fill:#FFFFFF;}
</style>
<g>
	<g>
		<path class="st0" d="M426.4,284c1.4-1,3.3-0.9,4.6-2.4c-1.3-1.5-2.1-3.2-3.5-4.5c-2.8-2.6-4.8-2.5-7.3,0.4c-2.3,2.8-3.5,6-4.1,9.5
			c-1.4,8.6-0.4,16.9,3.3,24.7c1.7,3.7,4.2,5.5,8.1,6.2c0.2-1.5,0.5-3,0.5-4.6c0.1-2.1,1.6-2.4,3.4-3c-1,12.4-3.6,24.5-4.3,37.2
			c4-1.7,7-4,9.4-7c1.5-1.9,3-3.9,4.2-6c6.1-11.2,14-20.8,23.3-29.4c5.7-5.3,10.6-11.4,14.2-18.3c1.2-2.3,1.5-5,3.3-7
			c-0.6,14-4.1,26.8-13.6,37.7c-9,10.2-16,21.7-20.6,34.6c-1.3,3.5-3.1,6.8-5.2,9.9c-4.6,6.9-11.4,10.5-18.9,13.3
			c-1.7,0.6-3.4,1.2-5.4,1.9c-1.9-1.2-2.3-3.6-3.3-5.5c-2.5-4.6-3.4-9-0.4-14.1c2.1-3.5,3.2-7.5,8.2-7.8c0.6,0,1.1-0.4,1.8-0.7
			c-5.4-2.4-9.3-1.5-12.3,3.3c-4.5,7.2-5.3,15-2.9,23.1c0.8,2.6,2.4,4.7,4.7,6.1c4.2,2.6,8,1.6,9.7-3c0.9-2.4,2.5-2.9,4.8-3.2
			c0.6,9.2,0.8,18.2,2,27.1c9.6,0.5,18-4.3,20.7-23.3c0.3,3.5,0.1,6.6-0.4,9.7c-1.3,9.3-5.1,17.3-11.2,24.3
			c-1.9,2.2-4.3,3.8-7.3,4.3c-4.9,0.8-9.2,3.1-13,6.3c-5.1,4.3-10.6,7.9-16.7,10.6c-2.3,1-4.7,1.1-7.2,0.6c-0.9-0.2-1.8-0.5-2.7,0.4
			c-1.1-3.4-2-6.5-2.4-9.7c-0.1-0.8-0.1-1.8,0.4-2.5c3-3.9,6-7.9,9.5-11.5c0.2,0.6,0.2,0.8-0.3,0.8c-1.7,4-4.9,7-6.7,11
			c6.7,1,12.8,0.4,18.4-3.4c2.3-1.6,4.7-3,6.9-4.7c3.5-2.5,7.3-4.4,11.4-4.9c6.7-0.7,10.7-4.8,14.3-9.7c0.3-0.5,1.1-1,0.4-2
			c-3.5,3.9-7.8,5.7-13,5.4c-2.1-0.1-4.1,0.8-5.9,1.9c-2.4,1.5-4.7,2.9-7.1,4.5c-6,3.9-12.3,3.7-18.8,1.8c2.1,0.1,4.2,0.2,6.2,0.3
			c0.8-3.3-1.2-6.8-4.8-8.7c-2.2-1.2-4.3-0.8-6.6,2c-7.7,9.5-10.6,20.1-6.6,32c1,3,2.5,6.2,6.1,6.4c3.7,0.3,5.5-2.8,7-5.5
			c1.2-2.3,2.9-3.6,5.1-4.7c5.3-2.6,10-6.3,14.7-9.9c2.6-2,5.4-3.3,8.7-4.5c-1.4,7.3-3.7,14-6.6,20.6c-8,18.4-19.7,34.4-32.5,49.7
			c-5.5,6.6-11.3,12.8-17.1,19.1c-5.2,5.7-10.4,11.4-16.6,16.1c-1.8,1.4-3.6,2.8-6.1,3.2c1.3-1.6,1-3.3,0.8-5
			c-1.1-10.5-2.1-21-2.1-32.1c-2.1,2.3-3.8,4.3-5.5,6.3c-7.9,9.4-17.7,16.1-29.8,18.7c-12.9,2.8-25.9,4-37.9-3.1
			c-8.5-5.1-16.6-10.9-23.2-18.6c-1.9-2.2-4-4.3-6-6.4c-0.3,0.1-0.5,0.1-0.8,0.2c0,12.6,0,25.2,0,37.9c-2.3,0.1-3.5-1-4.7-2
			c-7.9-6.9-14.9-14.7-21.8-22.6c-14.6-16.4-27.5-34-36.6-54.2c-2.7-6-5.1-12-7.2-18.2c-0.2-0.6-0.6-1.1-0.1-1.8
			c2.5,0.9,4.6,2.6,6.8,4.2c5.5,3.9,11.4,6.7,18.3,6.9c1.4,0,2,0.6,2.4,1.9c0.5,1.9,1.1,3.9,3.4,4.1c2.6,0.2,4.5-1.2,5.5-3.6
			c3.6-8.5,4.1-17.2,1-26c-0.5-1.4-1.3-2.7-2.5-3.6c-1.6-1.3-3.4-2.3-5.5-1.5c-1.4,0.6-2.7,3.5-2.5,5.7c1.1,0,2.2-0.3,3.1-1.1l0-0.1
			c-0.1,0.6-0.4,1.1-1,1.3c-6.2,2.8-13.6,3.9-19.7-1.9c-1.2-1.1-2.5-2.2-3.7-3.3c-2.7-2.5-5.8-2.7-9.3-2.2
			c-8.8,1.3-13.6,1.1-17.9-8.8c-0.4-0.9-1-1.6-0.8-3.3c3.1,6.4,5.8,12.6,14.6,11c-0.1-10.6-1.2-21.1-1.6-31.9c3,0.4,5.2,2.8,8.1,2.8
			c2.9,0,4.5,1.2,6,3.7c1.4,2.5,4.6,2.6,7.2,0.9c1.8-1.2,2.9-2.9,3.3-4.9c0.9-4.3,1.2-8.5-0.8-12.7c-3.2-6.7-5.8-13.6-7.9-20.7
			c-0.3-0.9-0.5-2-1.5-2.3c-1.1-0.3-1.7,0.7-2.3,1.4c-1.1,1.2-1.9,2.5-2.5,4c0.3,0.2,0.7,0.5,0.9,0.4c3.1-0.5,3.8,2,4.6,3.9
			c1.3,3.7,4.1,7,3.6,11.3c-0.5,4.1-1.3,8.2-2.3,12.3c-0.3,1.3-1.1,1.3-2.1,1.3c-10-0.4-17.9-4.8-23.8-12.6
			c-3.3-4.3-6.1-8.9-7.8-14.1c-2.7-8.2-7.5-15.1-13.8-21c-4.6-4.3-8.5-9.2-11.5-14.9c-3.6-6.9-5.6-14.2-4.3-22.1
			c0.1-0.9-0.2-1.9-0.2-2.9c0-0.8-0.3-1.7,0.6-2.5c1.2,0.6,1.2,1.8,1.5,2.8c0.9,3.3,1.7,6.6,2.7,9.8c1.3,4.3,3.8,7.8,7.8,10
			c2.3,1.3,4.5,2.7,6.9,3.7c8,3.7,13.8,9.6,17.8,17.4c2,3.9,4.6,7.3,8.2,10.2c-0.4-5.9-0.9-11.7-1-17.6c-0.1-2.9-1.5-5.3-2.3-7.9
			c-0.2-0.7-0.7-1-1.2-1.2c-10.1-4.9-15-13.6-17.3-24.1c-1.9-8.4-2.4-17.1-3.9-25.6c-2.6-14.5-7.5-28-13.1-41.5
			c-4.7-11.4-7.1-23.4-6.3-35.7c0.2-3.4-0.4-7.1,1.5-10.8c0.3,7.7,1,15,2.1,22.3c1.3,8.6,5.2,16.4,8.5,24.3c2.8,6.6,6,13.1,8.9,19.8
			c4,9.1,4.8,18.9,6.5,28.5c0.8,4.6,2.2,9.1,3.8,13.6c2.4,6.7,7,11.5,12.7,15.6c2.2,1.5,4.6,2.3,7.6,2.3c-0.9-5.2-1.8-10.2-2.7-15.4
			c-2.6-0.3-5.3-0.4-7.7-1.8c-7.1-4.1-9.1-10.8-10-18.3c-0.9-7.9-0.8-15.8-2.4-23.7c-1.8-8.6-4.8-16.6-10.3-23.5
			c-8.7-10.9-13.1-23.5-15.5-37c-0.1-0.3,0-0.7,0.3-1.1c0.5,2.1,1,4.1,1.5,6.2c0.6,2.2,1.2,4.4,1.8,6.6c2.1,7.5,5.1,14.6,10.3,20.4
			c11.7,13.1,15.5,28.7,15.9,45.7c0.1,4.5,0.2,8.9,1.7,13.2c0.9,2.6,2.1,4.9,4.4,6.8c0.1-0.4,0.2-0.6,0.2-0.8
			c-2-23.3,1-46.1,5.5-68.9c3.2-16.3,6.9-32.6,13.2-48.1c7-17.2,17.6-32.1,29.7-45.9c10.9-12.4,22.6-24,36.6-33.1
			c7.6-5,15.6-9.2,24-12.7c1.3-0.5,2.3-1.1,2.5-2.6c0.3-2.2,1.4-3.9,3.8-4.2c1-8.3,1-8.3,5.5-8.7c1.6-4.8,4.1-8.6,9.6-9.7
			c0-1.8,0.1-3.5,0-5.2c-0.3-6,2.3-8.9,8.4-9.4c5.5-0.5,10.1,3.9,10,9.5c0,2.2-0.5,4.3,2.1,5.8c1.2,0.7,1.8,2.7,2.6,4.1
			c1,1.9,1.8,3.8,4,4.9c1.8,0.9,1.8,3.2,2.2,5.1c0.1,0.7-0.1,1.8,0.9,2c2.7,0.7,3.1,3,3.9,5.1c0.3,0.9,0.6,1.7,1.7,2.1
			c15.9,6.6,29.4,16.9,42.5,27.8c30.5,25.4,50.5,57.5,61,95.7c3.2,11.5,3.9,23.4,5.4,35.1c2,16.1,2.4,32.3,1.5,48.6
			c0,0.4,0.1,0.8,0.1,1.6c2.5-1.8,3.8-4.1,4.8-6.6c2-5.1,2.6-10.5,3-15.9c1.3-19.4,7.6-36.7,20.4-51.6c4.2-4.8,7.5-10.1,8-16.7
			c0.1-1,0.1-2,0.2-3.7c2.2,3.9,3.4,7.5,3.9,11.4c0.7,5.8-0.6,11.3-3.4,16.4c-3.3,6.1-6,12.5-8,19c-2.5,8.1-3,16.6-2.5,25.1
			c1,16.8-4.1,31.3-16.1,43.1c-4.3,4.2-9.7,6.8-14.9,9.6c-1.5,0.8-3.5,0-5.3,1c-3-8.9-4-17.6-1.4-26.7
			C424.5,284.1,425.5,284,426.4,284c-0.3,0.7-1.7,0.1-1.8,1.4c-0.2,4-0.5,8-0.8,12.3c6.7-2.7,13.4-4.9,17.6-11.2
			c5.4-8.1,8.9-16.8,9.4-26.5c0.9-15.5,4.9-30,12.8-43.4c3.3-5.7,5.4-11.8,6.9-18.2c0.2-0.9,0.6-1.9,0-3.2c-1.6,5-4.4,8.7-7.2,12.5
			c-3.4,4.6-6.6,9.4-9.3,14.5c-6.1,11.4-8.5,23.9-9.9,36.6c-0.6,5.5-1.4,11.1-4,16.1C437.2,280.3,432.5,283.1,426.4,284z
			 M353.6,525.5c6-5.6,11-11.2,16.2-16.6c0.8-0.8,0.6-1.8,0.7-2.7c1.1-13.6,0.8-27.2,1.3-40.8c0.5-14.1,1-28.2,2.3-42.3
			c0.6-6.4,2.1-12.3,5.4-18c6.4-11,12.6-22.1,17.7-33.8c6.2-14.2,12.6-28.4,15.3-43.8c2.2-12.6,2.5-25.2-2.3-37.4
			c-3.6-9-10.1-14.5-20.1-15.8c-7.4-0.9-14.5,0.4-21.6,2.5c-14.6,4.4-27.6,12-40.2,20.3c-1.2,0.8-2.6,1.4-3.5,2.8
			c3.3,6,5.7,12.4,8.7,18.4c3.1,6.2,1.7,11.7-2.8,16.5c-1.2,1.3-2.6,2.6-4,3.8c-5,4.2-10.7,7.5-16.3,10.8c-4.7,2.7-9.8,4.2-15.3,2.5
			c-8.9-2.8-16.7-7.4-23.1-14.2c-2.3-2.5-4-5.3-4.3-8.7c0-0.3,0-0.8-0.2-1c-2.2-2.2-1.7-4.8-1.3-7.4c0.9-5.5,2.6-10.8,4.7-16
			c0.7-1.7,0.4-2.6-1.2-3.6c-5.2-3.2-10.2-6.7-15.5-9.7c-12.4-7.2-25.7-12-40-13.6c-11.7-1.3-20.8,2.7-26.2,13.7
			c-0.8,1.7-1.7,3.4-2.5,5.2c-5.5,12.9-5.1,26.3-2.3,39.6c4.2,19.7,13,37.4,23,54.7c4.7,8.1,11,15.1,17.1,22.1
			c3.9,4.5,4.8,9.2,4.6,14.8c-1,19.7-1.8,39.4-2.7,59.1c-0.2,5,0,10.1-1.2,15.1c-0.3,1.5,0.8,2.4,1.6,2.6c2.4,0.7,3.7,2.5,5.2,4.1
			c3.7,3.9,7.3,8,11,11.9c0.7,0.7,1.2,1.6,2.3,1.8c0-2.8,0.1-5.4,0-8c-1-24.3-0.3-48.5,2.6-72.6c0.9-7.6,1.7-15.3,1.1-23
			c-0.2-3.3-0.2-6.9-2.8-9.5c-5.3-5.4-9.8-11.6-14.4-17.6c-7-9.2-12.4-19.4-18.9-28.9c-4.2-6.1-6.9-12.7-7.6-20
			c-0.5-5-0.6-10,1.7-14.9c2.6-5.4,12-10,17.7-8.5c8.7,2.4,17.2,5,25.2,9.3c7.9,4.2,15.4,9,22.5,14.2c8.4,6.2,17.9,10,27.7,13.3
			c2.6,0.9,5.1,0.7,7.6-0.4c8.3-3.5,16-8.2,23.4-13.2c7.1-4.9,14-10.1,21.6-14.2c9.9-5.3,20.4-8.5,31.7-8.3c0.8,0,1.7,0,2.3,0.4
			c4.1,3.2,7.4,7,7.9,12.5c0.4,4.4,0.3,8.7-0.8,13c-6.3,24.6-21,43.9-38.5,61.5c-1.2,1.2-1.7,2.1-1.6,3.8c0.2,5.9,0.3,11.9,0.3,17.8
			c0,22.4-0.9,44.8-0.2,67.3C352.8,506,353.2,515.4,353.6,525.5z M265.8,411.3c1.7-0.3,3,0.6,4.4,1.3c4.6,2.2,8.6,5.3,12.7,8.2
			c2.9,2,5.9,3.9,9.4,4.4c7,1,11.1-1.7,11.9-8.5c1.2-9.2,1.4-18.6,0.1-27.9c-1.6-11.6-11.1-22.2-22.6-24.7
			c-7.6-1.7-15.2-1.6-22.9-1.6c-5.5,0-10.7-0.7-15.7-3.3c-3.7-2-7.6-3.4-11.5-5c-5-2.1-8.4-0.2-9.2,5.1c-0.6,3.8-0.6,7.7,0,11.5
			c0.3,1.9-0.3,3.9,1,5.8c5.4,7.7,11,15.3,16.5,23c3.6,5,8.7,9,9.7,15.8c7.1-6.7,14.4-12.7,22.1-18.4c-1.5,3.2-3.7,5.9-6.2,8.2
			c-3.2,3.2-5.4,7-7.6,10.8c-0.8,1.5-0.9,2.7,0,4.1c3.1,5.3,5.2,11,6.4,17c0.5,2.6,1,5.3,1.5,8c0.4,2.1,1.4,3.2,3.8,2.9
			c8.6-1,17,0.6,25.3,2.9c2,0.5,4.1,1.3,6.2,0.6c4.7-1.6,9.1-4,14.2-4.7c-5.2-2.1-9.4-5.8-14.2-8.3c-1,1.5-0.7,2.9-0.9,4.3
			c-0.2,1.2,0.3,2.7-1.2,3.2c-1.4,0.5-2.4-0.7-3.4-1.6c-2-2.1-2.7-4.8-3.9-7.3c-0.8-1.6-1.5-3.3-3.2-4c-3.1-1.2-5.2-3.5-7.2-5.9
			c-4-4.5-8.4-8.6-13-12.5C267.2,413.7,266.3,412.7,265.8,411.3z M268.8,324.6c-0.5,5.1,1.7,9.3,5.8,12.7
			c5.8,4.8,12.4,8.4,19.4,11.1c4.2,1.6,8.5,1.8,12.5,0.3c10-3.9,17.9-10.6,24.2-19.2c2.4-3.4,2.2-7.7,0.3-11.3
			c-7-13.3-14.3-26.5-21.5-39.8c-1.8-3.3-4.7-5.5-8.1-7.1c-3-1.5-5.6-1.2-8.2,1c-4.4,3.8-8.2,8-10.8,13.3c-4.9,9.7-8.8,19.7-12.2,30
			C269.3,318.4,268.7,321.3,268.8,324.6z M288.7,87.9c-5-2.4-5.9-2.2-9.2,1.5c-0.7,0.8-1.3,1.6-2,2.4c-16.4,19.1-29.4,40.3-39,63.7
			c-8.4,20.5-14.6,41.5-17.6,63.5c-1.7,12.6-3.6,25.2-4.5,37.9c-0.3,3.7-0.7,7.4-0.3,11.2c1.8,0.1,3.4,0.4,5.1-0.1
			c0.5-8.5,0.3-17,1.3-25.4c1.5-13.4,4.4-26.5,7-39.6c7.5-38.1,24.4-71.7,47.6-102.4C280.5,96.1,284.2,91.7,288.7,87.9z
			 M246.7,223.5c-0.7-0.4-0.9-0.5-1.3-0.7c-4.9-2.1-7.1-6.5-5.5-11.1c1.6-4.7,5.6-7,10.2-5.7c4.7,1.3,6.9,5.6,5.6,11
			c-1.8,7.5-6.5,12.5-13.5,15.5c-5.8,2.5-9.6,6.9-10.9,13.2c-1.9,9.9,1,18.4,8.5,25.3c2.6,2.4,5.9,4,9,5.7
			c7.6,4.2,15.4,8.1,21.7,14.6c0-1.8-1.1-2.7-2-3.7c-3.9-4.3-8.4-8.1-12.6-12.2c-6.3-6.1-11.4-12.9-13.1-21.8
			c-0.6-3.1-0.9-6.2,0.6-9.4c2.9-6.6,7.4-12,12.6-16.8c6.6-6,7.9-13.5,6.5-21.7c-0.8-4.7-5.1-8.2-9.3-8c-9.8,0.3-17.4,8.1-17.4,18
			C235.7,222.6,239.7,225.5,246.7,223.5z M310.4,87.4c0.3,0.3,0.5,0.7,0.8,1c5.6,6.9,11.8,13.4,16.2,21.1c8,14,15.3,28.4,21.8,43.1
			c9.8,22.2,16.8,45.4,20.2,69.5c1.6,10.9,3.8,21.8,4.1,32.9c0.1,4.1,0,8.1,0,12.3c1.2,0,2.6-0.1,4.2-0.8c-0.3-5.1-0.8-10.3-1-15.5
			c-0.7-16.3-3.2-32.4-6.9-48.3c-6.6-28.2-15.5-55.5-29.9-80.8c-6.7-11.8-14-23.1-22.6-33.6c-3.3-3.9-1.8-3.2-6.6-1.3
			C310.7,87.1,310.6,87.3,310.4,87.4z M351.9,216.7c0.2,1.9,0.4,3.7,2.4,4.2c1.9,0.5,3.1-0.7,4.2-2.1c1.2-1.6,1.9-3.3,2-5.3
			c0.3-6.8-3.8-12.1-10.5-13.1c-5.7-0.9-10.4,1.1-13.6,5.9c-2.9,4.4-0.7,8.5,1.7,12.4c1.1,1.8,2.8,3.1,4.4,4.4
			c1.8,1.4,3.7,2.7,5.3,4.3c5.1,4.9,7.8,10.5,6,18c-2.9,12.2-8.9,22.8-16.2,32.8c-2,2.7-4.2,5.4-6.3,8.1c10.1-5.6,20-11.2,30.6-15.7
			c-3-6.8-1.7-13.4,0-19.9c1.2-4.3,2.5-8.6-0.3-12.8c-1.1-1.7-2.4-3.2-3.9-4.6c-3-2.8-6.1-5.5-8.9-8.5c-4.2-4.6-5.4-10.4-3.2-14.6
			c1.5-2.9,3.3-4,6-3.5c3.2,0.6,5.3,2.7,5.7,5.7C357.9,216.2,355.7,218,351.9,216.7z M313.4,272.5c3.9,4.6,7.3,9.1,9.5,14.5
			c5.8-5.4,9.9-11.6,14-17.9c5.4-8.2,7.5-17.1,7.2-26.8c-0.2-8.6-5.9-16-14.2-18.4c-5.5-1.6-9.5-0.2-12.5,4.8
			c-3.1,5.2-4.7,10.9-4.2,17c0.5,6.7,5.1,10.5,11.8,10c7.3-0.6,10.3-10.9,7.5-15.2c-1.4-2.1-3.2-2.2-4.5-0.2c0.2,0.4,0.6,0.6,1,0.8
			c2.2,1,2.7,3.1,1.2,5c-1.9,2.3-6.4,3.2-9.1,1.9c-1.4-0.7-2.1-1.8-2.3-3.3c-0.5-4.4,0.4-8.3,3.3-11.7c5-5.9,11.7-5.1,15,2
			c4,8.5,2.3,17.7-4.6,24.8C327.4,265.4,321.1,269.7,313.4,272.5z M268.2,244.1c-0.8,1-1.2,1.4-1.5,1.9c-2.9,4.3-2.1,9.2,1.7,11.4
			c4,2.3,9.2,0.5,11.5-3.9c2.4-4.7,3.5-9.6,3-14.9c-0.4-3.8-1.8-6.9-5.5-8.5c-1.9-0.9-3.9-1.7-5.9-1.9c-3.8-0.5-7.6-0.1-10.7,2.4
			c-5.2,4.3-7.7,9.9-8.3,16.6c-1.7,17.7,9.3,28.2,21.2,38.4c2.6-4.8,5.9-8.6,10.4-11.9c-8.7-0.8-14.7-5.2-20.1-10.8
			c-6.3-6.5-7.7-17.2-3.3-23.9c2.3-3.6,5.6-5.6,9.9-5c6.1,0.9,9,6.7,6.7,13.3c-1.2,3.5-4.1,5.7-6.7,4.9
			C268.3,251.5,267.2,248.6,268.2,244.1z M277.1,478.4c0.2,2.8,0.5,5.2,0.5,7.5c0.3,10.4,4.7,18,14.4,22.3c2.3,1,4.4,1.3,6.8,0.6
			c4.9-1.5,9.4-3.7,13.9-5.9c4.7-2.3,6.8-6.3,7.8-11.1c0.4-2.1-0.8-3.6-2.9-3.7c-0.9,0-1.7,0.1-2.6,0.2c-5.1,0.7-10.3,0.5-15.3-0.6
			C291.7,486.1,284.4,483.1,277.1,478.4z M400.1,268.6c-0.8-2.7-1.7-5.3-3.7-7.3c-2.1-2-3.1-4.5-4-7.2c-2-6.6-0.4-12.9,1.6-19.2
			c1.5-4.5,3.3-9,3.8-13.8c0.6-5.6,0.2-11-3-15.9c-2.3-3.5-6.2-4.8-10.1-3.7c-3.7,1-6.4,4.5-6.7,8.5c-0.2,3.9,0.5,7.6,1.9,11.3
			c0.4,1,0.9,1.9,1.7,2.6c1.7,1.5,3.3,1.1,3.8-1.2c0.5-2.1,0.5-4.3-0.3-6.5c-0.9,0.3-1.5,1.6-2.6,1c-1.1-0.6-0.8-1.8-0.8-2.8
			c0-1.8,0.4-3.6,1.1-5.3c0.9-2.2,2.7-3.1,5.1-2.8c2.9,0.3,4.6,2,5.3,5c1.3,5.6-0.4,10.7-2.9,15.6c-3.8,7.5-6.6,15.4-7.4,23.8
			c-0.5,5.2-0.3,10.4,0.8,15.5C389.6,265.7,394.9,266.2,400.1,268.6z M298.3,471.4c1.7,0,3.3,0,5,0c8.7,0,15.6-3.1,20.2-10.8
			c0.6-1,0.8-1.9,0.4-2.9c-0.4-1.1-1.4-0.9-2.3-0.8c-4.5,0.4-9,1-12.8,3.9c-2.9,2.3-5.9,2.6-9.3,0.9c-4.7-2.4-9.6-3.9-14.9-4.7
			c-5-0.8-9.9-1-14.8-0.2c-1.5,0.2-2.6,0.9-3.2,2.4c-0.6,1.6,0.4,2.5,1.5,3.3c1.1,0.8,2.2,1.7,3.4,2.5
			C279.7,470,288.8,471.6,298.3,471.4z M121.3,299c-0.4,1-0.1,1.5,0,2.1c2.1,9.5,8,16.4,15.5,22.3c10,7.8,19,16.4,24.8,27.9
			c1,2,2.6,3.8,4.3,5.2c4.3,3.6,8.6,7.3,14.6,7.5c2.6,0.1,3.1-0.8,2-3.1c-1.3-2.9-2.7-5.9-3.5-9c-0.4-1.4-1-1.9-2.5-2
			c-3.1,0-6.1-0.9-8.6-2.8c-4.9-3.8-9.6-7.9-12.4-13.6c-4.4-8.7-11-15.1-19.7-19.4C129.2,311,124.3,306.1,121.3,299z M207,220.7
			c-0.3,1.7-0.3,2.9,1.2,3.6c1.6,0.6,2.7,0.2,3.9-1.1c3-3.6,4.7-7.6,4.1-12.3c-0.3-2.7-0.3-6-3.4-7.1c-3-1.1-5.6,0.8-7.7,2.8
			c-4.8,4.5-7.1,10.2-7.3,16.8c-0.2,6.9,1.4,13.5,3.5,20c2.2,6.7,2.1,13.1-1.4,19.5c-1.1,2-2.1,4.1-2.1,6.8c4.4-1.5,8.7-1.7,13-2.4
			c0.2-1.7,0.4-3.1,0.6-4.6c1.6-9.8,0.1-18.9-5.5-27.2c-1.6-2.3-2.8-4.8-3.5-7.6c-1.7-6.5-0.8-12.5,3.4-17.8
			c2.2-2.8,5.6-2.3,7.1,0.7c1.4,2.8-0.4,8.7-3.2,10.3C208.9,221.5,208,221.4,207,220.7z M274.1,67.9c-1.4,0.5-0.4,1.9-1.2,2.9
			c-1.6,1.8-1.2,4.2,0.5,6c2,2.2,4.3,3.8,6.9,5c7.4,3.5,15.3,4.3,23.3,3.6c6.6-0.6,12.4-3.3,16.8-8.5c0.5-0.6,1.5-1.3,1.1-2.2
			c-1.4-2.9-1.8-6.2-3.7-8.9C305,81.8,287.9,78.9,274.1,67.9z M295.8,187.2c7.1,0,12.7-4.9,12.8-11.3c0.1-6.5-5.6-11.8-12.7-11.8
			c-7,0-12.7,5.2-12.7,11.5C283.2,182,288.8,187.2,295.8,187.2z M290.3,265.6c2.3,0.1,4.4-0.6,6.2-1.8c2.4-1.7,4.3-1.4,6.5,0.3
			c1.2,1,2.5,2.3,4.7,1.9c-4.2-5.4-6.3-11.2-5.5-18c0.8-6.5,2.9-12.5,6.6-18c-4.7-2.7-7.6-6.9-11.3-10.3c-3.7,3-7.3,5.9-10.9,8.8
			C298,234.3,302.8,247.9,290.3,265.6z M414.8,241.1c0.6,2.2,0.3,4.4,1.8,6c0.9-0.5,1.1-1.2,1.3-1.8c1.7-8,1-15.8-2.5-23.2
			c-2-4.2-6.6-4.1-9.1-0.1c-2,3.2-2,6.8-1.6,10.4c0.7,5.5,1.5,10.9,2.2,16.3c1,7.7,2.5,15.4-1.8,22.7c2.7,2,4.5,4.6,6.6,7.4
			c0.8-2.6,1.1-4.9,1.3-7.2c0.6-8.2-0.7-16.3-1.8-24.5c-0.8-5.5-1.4-11.1-0.2-16.6c0.2-1,0.5-2.2,1.7-2.4c1.2-0.2,1.9,0.9,2.3,1.8
			c1.1,2.3,2,4.7,2.1,7.2C417.1,238.9,417.3,240.8,414.8,241.1z M414.3,363.6c5.1-0.2,9.3-2.1,13.3-4.7c7.5-4.8,11.7-12.3,15.8-19.8
			c5.2-9.5,11.3-18.4,19.4-25.8c3.2-2.9,6-6.1,8.4-9.7c2.4-3.5,4.7-7.1,5.7-11.3c-3.8,6-8.5,11.3-13.5,16.3
			c-7.7,7.6-14.6,15.7-19.7,25.3c-5.1,9.4-13,15-23.2,17.6c-0.9,0.2-1.7,0.4-2.1,1.6C417.2,356.4,415.8,359.8,414.3,363.6z
			 M383.4,148.2c0.6,9,4.9,15.8,12.4,20.9c1.6,1.1,3,0.6,4.3-0.5c1.6-1.3,2.1-3.2,2.1-5.2c0.1-3.1-0.6-6.1-1.7-8.9
			c-1.6-4.3-3.1-8.8-7.1-11.6c-1.9-1.3-4.2-3.5-6.5-2.3C384.2,141.9,383.5,145,383.4,148.2z M180.1,246.2c-0.1-0.6-0.2-1.2-0.3-1.8
			c-0.3-4.4-0.1-8.7,2.5-12.6c0.8-1.2,1.8-2.4,3.4-1.6c1.4,0.7,2.3,1.8,1.9,3.6c-0.3,1.3-0.5,2.6-0.6,3.9c-1,12.2-0.7,24.4-0.5,36.6
			c0,1-0.2,2.1,0.7,3.2c1.5-2,2.4-4.4,5-5.1c-2.4-11-3.2-21.9-2.1-32.9c0.2-2.4,0.2-4.9,0-7.3c-0.2-3.3-1.1-6.5-3.2-9.2
			c-1.2-1.6-2.4-1.5-3.6,0c-1.6,1.9-2.6,4.1-3.3,6.5C178.1,234.9,177.9,240.6,180.1,246.2z M306.9,50c-1.7,3.3-3.6,6.1-7.7,6.9
			c-4.2,0.9-7.3-1.1-10.5-3.8c-0.3-1.2,0.3-2.8-0.4-4.6c-2.2,1.7-4.1,3.5-5.3,5.8c-2.2,4.2-1,7,3.5,8.7c4.3,1.6,8.8,2,13.4,1.4
			C307.3,63.5,310.7,56.2,306.9,50z M163.5,316.1c0,2.1,1.8,1.8,2.8,2.5c2.1,1.7,3.3,0.6,4.6-0.8c2.2-2.4,3.8-5.2,4.9-8.3
			c2.8-7.6,3.6-15.3-0.3-22.8c-2.5-4.8-6.8-5.1-10.4-0.8c0.8,0.2,1.7,0.7,2.3,0.5c2-0.7,2.4,0.6,2.5,1.8c0.9,6.3,4.6,12.5,0.9,19
			c-0.2,0.3-0.1,0.9-0.2,1.3C169.3,314.1,168,315.5,163.5,316.1z M180,287.9c4-5,4-6.8-0.1-11c-2-2-4.2-3.7-6.2-5.6
			c-4.5-4.2-5.9-9.4-3.6-14.1c0.7-1.6,1.6-3.5,3.7-3.1c2.2,0.4,1.7,2.5,1.8,4.1c0,0.1,0.1,0.2,0.2,0.3c0.3-1.3,0.8-2.6,0.5-3.9
			c-0.3-1.6-0.5-3.5-2.4-4c-1.9-0.5-3.6,0.1-5,1.6c-5.4,5.8-4.8,17.4,0.8,22.9C173.6,278.9,178.4,281.9,180,287.9z M197.2,171.2
			c1.3-0.8,2.1-1.1,2.8-1.7c5.8-4.9,9-11.2,10-18.6c0.3-1.9-1.1-3-3.1-2.7c-2.9,0.4-5.1,2-6.6,4.3
			C196.5,158,195.8,164.1,197.2,171.2z M424.2,244.9c1.7-0.5,3.5-0.6,3.2,1.4c-0.6,4.9-0.4,10.2-3.7,14.2c-3.8,4.6-4.8,10-5.8,15.6
			c0.9-1.3,2.5-2.1,2.8-3.9c0.4-2.6,1.6-4.9,3.2-7.1c4.6-6.4,5-13.7,4.7-21.2c0-0.9-0.2-2.1-1.4-2.2c-1.1-0.1-1.7,0.7-2.3,1.5
			C424.8,243.6,424.6,244.1,424.2,244.9z M296.7,111.7c-2.6,0-4.6,2-4.6,4.7c0,2.6,2,4.7,4.6,4.7c2.5,0,4.6-2.1,4.6-4.7
			C301.3,113.8,299.3,111.7,296.7,111.7z M253.5,99.4c-6.4-0.9-13.1,4.1-12.2,9C245.1,109,252.5,103.6,253.5,99.4z M352.9,106.4
			c-0.4-4.2-4.8-8.6-8.6-8.5C343.8,101.6,349.2,107,352.9,106.4z"/>
		<path class="st0" d="M205.6,415.1c0.9,0.1,0.6-1,1.4-1.2c1.3,1.9,1.4,4.2,2,6.3c0.9,3.4,1.5,6.9,2.3,10.3c0.7,2.8-0.9,5.9-2.1,9.1
			c-3.4-2.3-7.3-1.6-10.9-2.1c-5.6-0.8-10.6-3.3-15.1-6.6c-4.3-3.2-8.7-5.7-14.4-6.1c-4.5-0.3-8.2-3.2-11.2-6.7
			c-4.6-5.2-7.1-11.4-7.6-18.3c-0.2-2.8-0.6-5.5,0.1-9.1c0.7,4.4,1.8,7.8,3.4,11.1c3.9,7.5,10.1,12,18.1,14.3c5,1.4,9.6,3.6,13.6,7
			c7,5.9,15.7,7.1,24.6,8.7c-1.8-5.4-2.7-10.6-3.5-15.9C206.2,415.5,205.8,415.3,205.6,415.1C205.6,415,205.6,415.1,205.6,415.1z"/>
		<path class="st0" d="M369.3,298.7c-0.2,4.7-3.3,8.4-7.1,8.2c-4.5-0.2-7.9-3.7-7.6-8c0.2-4,4.4-7.7,8.4-7.5
			C366.4,291.6,369.5,295.2,369.3,298.7z"/>
		<path class="st0" d="M408,309.9c0,0.2-0.1,0.9-0.3,1.6c-1,4-3.7,6.2-6.7,5.4c-3-0.7-5.3-4.9-4.5-8.3c0.1-0.3,0.1-0.5,0.1-0.8
			c0.9-3.6,3.6-5.9,6.3-5.5C406,302.7,408.1,305.7,408,309.9z"/>
		<path class="st0" d="M240,300.4c-0.1,3.8-2.8,6.7-6.3,6.7c-3.5-0.1-6.3-3.3-6.1-7.1c0.2-3.7,3.1-6.7,6.5-6.5
			C237.6,293.6,240.1,296.6,240,300.4z"/>
		<path class="st0" d="M213.5,374.3c0,3.6-2.5,7.1-5.2,7.1c-3.8,0-6.8-3.1-6.9-7.1c-0.1-3.6,2.6-6.7,5.9-6.8
			C210.8,367.4,213.5,370.3,213.5,374.3z"/>
		<path class="st0" d="M202.5,309.1c-0.1,4-2.5,6.9-5.7,6.8c-3.3-0.1-6-3.6-5.8-7.4c0.2-3.7,2.8-6.8,5.6-6.7C200,302,202.6,305.2,202.5,309.1z"
			/>
		<path class="st0" d="M236.7,424.9c-3.3,0-6.1-3-6.1-6.8c0-3.7,2.5-6.5,5.7-6.5c3.3,0,6.3,3.3,6.3,6.8C242.5,421.9,239.7,424.9,236.7,424.9z"/>
		<path class="st0" d="M370.3,414.7c0,3.7-2.6,6.9-5.9,7c-3.4,0.1-6.1-2.7-6.1-6.4c0-3.6,2.7-6.6,6-6.6C367.5,408.8,370.2,411.5,370.3,414.7z"/>
		<path class="st0" d="M397.6,364.4c-0.2,2.7-0.9,5.2-2.7,7.1c-2.3,2.6-5.6,2-6.8-1.3c-1.2-3.2-0.6-6.2,1.1-9c1-1.6,2.4-2.9,4.4-2.7
			c2.2,0.3,3.1,2,3.6,4C397.4,363.2,397.5,363.9,397.6,364.4z"/>
		<path class="st0" d="M357.6,486c0-3.3,2.2-6,4.9-6c2.7,0,5.1,2.7,5.1,5.9c0,3.4-2.2,6.2-5,6.3C359.7,492.1,357.6,489.5,357.6,486z"/>
		<path class="st0" d="M239,485.8c0.2,4-1.7,6.9-4.6,7.1c-2.7,0.2-5.1-2.4-5.3-5.7c-0.2-3.2,2.1-6.2,4.9-6.3C237,480.8,238.8,482.6,239,485.8z"
			/>
		<path class="st0" d="M299.7,328.4c-3.2,0.2-6.3-0.2-9.2-1c-6.1-1.7-9.3-5.6-9.2-12c0.1-7,2.2-13.3,6.8-18.7c2.4-2.8,5.2-4.3,8.7-5
			c2.5-0.5,4.7,0.1,6.2,1.9c5.2,5.9,10.2,11.9,12.8,19.4c1.3,3.8,0.4,7-2.1,9.9C310.1,327.5,305.1,328.8,299.7,328.4z"/>
	</g>
</g>
</svg>
