<?xml version="1.0" encoding="utf-8"?>
<!-- Generator: Adobe Illustrator 21.0.0, SVG Export Plug-In . SVG Version: 6.00 Build 0)  -->
<svg version="1.1" id="图层_1" xmlns="http://www.w3.org/2000/svg" xmlns:xlink="http://www.w3.org/1999/xlink" x="0px" y="0px"
	 viewBox="0 0 560 560" style="enable-background:new 0 0 560 560;" xml:space="preserve">
	 <style type="text/css">
	.st0{fill:#FFFFFF;}
</style>
<g>
	<g>
		<path class="st0" d="M241.9,346.3c-1.6,5.8-3.1,11.3-4.6,16.9c-0.5,2.1-0.6,4.2,1,5.9c0.3,0.3,0.3,0.9,0.5,1.3c0.9,2.1,1.4,4.5,2.9,6.2
			c6.1,7.3,14,11.9,23.2,14.3c3.8,1,7.6,0,10.7-1.9c6.2-3.8,12.2-7.9,18-12.3c2-1.6,3.4-4.2,4.7-6.5c1.7-3.2,0.6-6.5-0.8-9.6
			c-2.4-5.5-5-11-7.7-16.9c5.2-3.2,10.5-6.7,15.9-9.8c10.1-5.9,20.7-10.8,32.3-12.3c14.3-1.9,24.8,2.3,29.2,18.2
			c3.2,11.6,2.3,23.3-0.7,34.8c-4.9,18.8-13.2,36.2-22.4,53.2c-2.8,5.3-6.1,10.3-8.4,15.8c-1.4,3.3-1.7,7.2-2,10.8
			c-0.8,12.6-1.4,25.1-2,37.7c-0.4,8.6-0.6,17.2-0.9,25.8c-0.1,3.6-0.3,7.1-0.5,10.7c0,0.5-0.1,1.1-0.5,1.5
			c-4.6,4.9-9.2,9.8-14.3,15.1c-0.2-4.6-0.6-8.5-0.6-12.5c-0.2-19.9-0.3-39.8-0.4-59.7c-0.1-9.8-0.1-19.6-0.2-29.4
			c0-1.5,0.4-2.5,1.5-3.6c15.5-15.7,28.6-32.9,34.2-54.8c1.1-4.5,1.3-9,0.4-13.6c-0.9-4.1-3.9-6.5-6.6-9.2c-0.4-0.4-1.3-0.3-2-0.3
			c-11.3-0.2-21.6,3.1-31.1,8.9c-7.9,4.9-15.5,10.4-23.3,15.4c-4.2,2.6-8.7,4.7-13.1,7c-3.1,1.7-6.2,1.5-9.4,0.4
			c-10.2-3.5-19.5-8.6-28.3-15c-9.3-6.8-19.4-12.3-30.5-15.6c-3-0.9-6.1-1.8-9.3-2.1c-5.6-0.5-12.1,4-14,9.6c-2.2,6.4-1,12.7,0.8,19
			c0.8,2.6,1.9,5.1,3.4,7.4c6.3,9.8,12.5,19.6,19.1,29.2c3.8,5.4,8.4,10.2,12.4,15.4c1.1,1.4,1.8,3.4,2.1,5.2
			c1.3,7.8,0.3,15.5-0.7,23.2c-2.6,21.6-3.1,43.2-2.3,64.9c0.1,2.3,0,4.6,0,7.3c-0.7-0.7-1.4-1.3-2-1.9c-3.3-3.6-6.6-7.3-10-10.8
			c-1.2-1.3-3-2.1-4.3-3.3c-0.7-0.6-1.4-1.6-1.4-2.4c0.4-7.4,1-14.7,1.4-22.1c0.7-14.3,1.4-28.5,1.9-42.8c0.3-9.3,0.3-9.5-5.7-16.5
			c-9.1-10.5-16.8-21.9-22.5-34.6c-4.3-9.7-8.8-19.3-11.1-29.8c-2.7-12.5-3.5-24.9,1.6-37c0.9-2.1,2-4.2,3-6.3
			c4.7-8.8,13.4-11.8,22.6-10.7c17,1.9,31.9,9.1,45.9,18.5c1.5,1,3.1,2.1,4.6,3.1C241.8,346.3,241.9,346.4,241.9,346.3z
			 M329.4,343.2c0.2-3.3-2.4-6.5-5.6-6.7c-3.4-0.2-7.2,3-7.5,6.4c-0.4,4,2.4,7.2,6.5,7.5C326.3,350.7,329.1,347.6,329.4,343.2z
			 M364.1,352.7c-0.1,0-0.2-0.1-0.3-0.1c0-0.4,0-0.8,0-1.2c-0.3-2.8-2.2-5-4.7-5.3c-1.9-0.3-4.1,1.5-5.2,3.9c-1,2.2-0.7,4.3,0.3,6.4
			c0.8,1.7,2.1,2.8,4.1,2.9c2.1,0.1,3.6-1.1,4.5-2.8C363.5,355.4,363.7,354,364.1,352.7z M185.7,416.8c2.4,0.1,5-2.8,4.9-6
			c-0.1-3.9-1.8-6.3-5.5-6.5c-2.8-0.1-5.4,2.6-5.5,5.8C179.5,413.7,182.3,416.7,185.7,416.8z M214.3,344.5c0.1-3.4-2.2-6-5.3-6.1
			c-3.2-0.1-5.8,2.5-5.9,5.9c-0.1,3.4,2.4,6.2,5.6,6.2C211.9,350.6,214.2,348.1,214.3,344.5z M176.3,358.5c0.4-0.1,1.3-0.3,2-0.8
			c3.4-2.4,3.3-8.5-0.1-10.9c-2.1-1.4-4.4-1.3-6,0.6c-2,2.2-2.3,4.8-1.2,7.6C171.9,357,173.3,358.4,176.3,358.5z M205.7,449.3
			c-0.1,3.5,2.3,6.3,5.3,6.4c2.9,0,5.3-2.6,5.4-5.8c0.1-3.1-2.6-6.1-5.5-6.2C208.1,443.5,205.8,446,205.7,449.3z M319.5,446.8
			c0,3.4,2.1,5.8,5.2,5.9c3.1,0,5.6-2.6,5.6-6.1c0-3-2.4-5.5-5.4-5.5C322,441,319.5,443.6,319.5,446.8z M345,403.5
			c0.1,0.1,0.2,0.2,0.4,0.4c0.3,1.3,0.5,2.6,1,3.7c1.1,2.1,3.5,2.5,5.3,1c2.5-2.1,3.6-7.1,2.1-10c-1.2-2.5-3.9-3.1-5.6-1
			C346.8,399.2,346.1,401.5,345,403.5z M327.9,510c0.1-2.9-2-5.4-4.5-5.5c-2.5,0-4.5,2.4-4.6,5.4c0,2.9,2.1,5.5,4.5,5.5
			C325.8,515.5,327.9,513,327.9,510z M213.2,508.7c0.1-1.8-1.5-3.1-4-3.3c-2.6-0.2-4.7,2.1-4.9,5.1c-0.1,2.9,2,5.5,4.4,5.6
			C211.7,516.3,212.9,514.2,213.2,508.7z"/>
		<path class="st0" d="M236.9,443.5c0.7,0.8,1.2,1.7,2,2.4c4.1,4,8.2,8,12.4,11.9c1.9,1.8,4.2,3.2,6.1,4.9c1.2,1.1,2.1,2.4,2.9,3.8
			c1.2,2,2.1,4.3,3.5,6.2c0.6,0.8,1.9,1,2.9,1.5c0.3-1,0.8-1.9,1-2.9c0.3-1.2,0.3-2.4,0.5-4c4.4,2.6,8.5,5.1,12.3,7.4
			c-3.3,1.2-6.9,2.4-10.3,3.8c-2.4,1-4.6,0.5-7,0c-6.1-1.1-12.2-2.1-18.3-2.9c-1.5-0.2-3.1,0.2-4.6,0.4c-1.6,0.2-2.5-0.5-2.8-2.1
			c-0.8-3.9-1.4-8-2.6-11.8c-1.2-3.7-2.9-7.3-4.6-10.9c-0.7-1.4-0.6-2.5,0.1-3.9c2.3-4.9,6.1-8.7,9.6-12.8c1.1-1.2,2-2.6,3-3.9
			c-0.2-0.2-0.4-0.4-0.6-0.5c-6.5,5.4-13,10.9-19.4,16.3c-0.7-5.3-5-8.5-7.8-12.6c-5-7.2-10.2-14.3-15.3-21.4
			c-0.5-0.8-0.9-1.8-0.9-2.7c-0.1-4.2-0.3-8.4-0.1-12.6c0.3-4.6,3.6-6.4,7.9-4.7c3.7,1.5,7.5,3,11.1,4.8c4,2.1,8.2,2.5,12.6,2.7
			c7,0.3,14,0.4,20.9,1.5c10.3,1.6,19.5,11.6,20.2,22c0.6,8.3,0.4,16.6,0.1,24.9c-0.2,5.3-5.5,8.9-10.7,7.3c-2.8-0.8-5.4-2.2-8-3.7
			c-4-2.4-7.8-5-11.8-7.5c-1.1-0.7-2.5-1-3.8-1.4C237.1,443.2,237,443.4,236.9,443.5z"/>
		<path class="st0" d="M330,163.7c6.6-9.6,10.9-20.1,14-31.4c0.3,4.7,0.7,9.4,0.9,14c0.2,4.9,0.2,9.8,0.2,14.7c0,4.8-0.9,9.5-3.4,13.8
			c0.2,0.1,0.5,0.2,0.7,0.4c1-1.7,2.4-3.3,2.9-5.1c4.3-14,6.6-28.4,6.5-43.1c0-0.2,0.1-0.4,0.3-1.1c1.1,1.7,2,3.1,2.9,4.5
			c8.8,13.3,16.6,27.4,29.2,37.8c1.5,1.2,3,2.3,4.9,3c-1.1-1-2.2-1.9-3.2-2.9c0.1-0.1,0.1-0.2,0.2-0.4c0.3,0.1,0.7,0,0.9,0.2
			c1.7,1.4,3.5,2.8,5.1,4.4c0.5,0.5,0.5,1.6,0.7,2.4c-0.8,0.1-2,0.5-2.5,0.1c-6.3-5.1-13.4-9.2-18.1-16.3
			c-5.3-7.9-11.2-15.3-16.9-22.9c-0.2-0.3-0.3-0.7-0.9-0.6c-0.8,5.7-1.7,11.3-2.2,17c-0.6,7.6-2.4,15-6.1,21.6
			c-1.8,3.2-0.7,5.6,1.2,7.2c9.7,8.7,14.8,20.2,20.6,31.3c3.7,7.1,7.2,14.5,10.9,21.6c3.1,6,4,12.7,5.6,19.1
			c2.8,11.2,3.6,22.7,4.2,34.2c0.5,9.8,0.9,19.6,1.4,29.3c0,0.2,0.1,0.4,0.1,0.6c0.2,0,0.4,0.1,0.6,0.1c0.7-4,1.8-7.9,2.1-12
			c0.6-6.5,0.5-13,2.8-19.3c2.5-7.1,6.5-13.3,10.8-19.5c3.4-4.8,6.2-10,8.9-15.2c1.9-3.5,1.8-7.5,1.3-11.4c-0.1-0.6-0.8-1.1-1-1.7
			c-0.3-0.7-0.3-1.5-0.5-2.2c0.8,0.1,2.1-0.2,2.4,0.2c1.8,2,3.8,4.1,4.8,6.5c3.7,9.5,4.5,19.2-0.4,28.6c-0.6,1.2-1.4,2.4-2,3.7
			c-4.9,9.3-7.2,19.2-6.7,29.8c0.3,5.4,0.6,10.9,0.1,16.3c-0.5,5.2-2.1,10.3-5.6,14.4c-4.8,5.7-10,11.1-16.3,15.1
			c-2.8,1.8-4.3,4-4.9,7.3c-1.5,7.9-3.1,15.7-2.2,24.5c3.6-4.5,7.2-8.4,10-12.9c3.9-6.1,8.7-11.4,13.6-16.8
			c6.6-7.1,12.3-15,18.3-22.6c0.6-0.8,0.5-2.2,0.8-3.3c0.2-0.7,0.5-1.4,0.9-1.9c0.1-0.2,1.2,0.1,1.2,0.2c0,0.7-0.1,1.5-0.3,2.2
			c-3.5,9.9-10.2,17.5-17.8,24.4c-7,6.5-12.7,14.1-17.3,22.4c-2.6,4.6-5.7,8.7-10.4,11.4c-0.5,0.3-0.9,0.5-1.4,0.8
			c-0.1,0.1-0.3,0-0.9,0c1.4-10.9,2.8-21.8,4.2-32.7c-4.8,0.3-2.6,4.5-4,6.7c-2.9-0.8-5.2-2.3-6.5-5.1c-4.1-8.7-5-17.7-2-26.9
			c0.3-0.9,0.8-1.8,1.4-2.7c2.9-4.5,6-4.5,9-0.1c0.5,0.8,1,1.5,1.7,2.7c-2.3,0.7-4.5,1.4-7,2.2c-1.6,6.2-1.8,12.7,0.1,19.3
			c0,0.1,0.1,0.3,0.1,0.4c0.4,1.2,0.7,3.3,1.3,3.4c1.5,0.3,3.4,0.1,4.8-0.6c14.7-6.5,23.5-18.1,26.7-33.6c1.1-5.2,0.5-10.7,0.6-16
			c0.2-7.8,0.2-15.7,3.5-23c2.1-4.6,3.9-9.3,6.1-13.8c3.1-6.2,3.5-12.6,2-19.2c-0.4-1.8-1.7-3.4-3-4.9c-0.1,1.7-0.2,3.3-0.5,5
			c-0.7,4.5-2.9,8.2-5.7,11.5c-7.2,8.5-13.3,17.7-15.9,28.7c-1.7,7-2.4,14.2-3.6,21.3c-0.7,3.8-1.3,7.6-2.4,11.3
			c-0.6,2-2.2,3.8-3.3,5.7c-0.2-0.1-0.5-0.2-0.7-0.3c0-2.6,0.1-5.1,0-7.7c-0.3-9.9-0.3-19.9-1-29.8c-0.6-8.5-1.5-17-2.8-25.4
			c-2.4-16.1-7.7-31.2-15.2-45.7c-8.8-17-19.6-32.5-33.8-45.3c-12.2-11.1-24.9-21.6-39.8-29c-1-0.5-1.9-1-2.9-1.4
			c-2.6-0.9-4.7-2.2-5.3-5.2c-0.1-0.5-0.4-1.3-0.7-1.4c-2.7-0.9-2.7-3.4-3.3-5.5c-0.2-0.7-0.7-1.7-1.2-1.9c-2.4-0.9-2.9-3.3-4.1-5.1
			c-1-1.5-2.3-2.8-3.3-4.3c-0.4-0.5-0.5-1.3-0.5-1.9c-0.1-2.6,0.1-5.1-0.1-7.7c-0.2-2.9-1.6-5.1-4.1-6.4c-0.7,0.7-1.3,1.4-1.9,2
			c-0.1-0.1-0.3-0.2-0.4-0.3c0.4-3,0.8-6,1.3-9c1.6-9.6,3.3-19.1,7-28.1c3.9-9.3,9.4-17.3,18.8-21.9c5.3-2.6,11-4.5,17.1-4.6
			c-6,2.4-11.9,4.8-17.9,7.1c0.1,0.2,0.2,0.3,0.2,0.5c3.7,0.2,7.3,0.5,11,0.6c8.2,0.3,15.3,3.4,20.8,9.4
			c6.8,7.5,11.7,16.2,16.2,25.2c0.1,0.3,0.2,0.5,0,1c-2.6-3.8-5.2-7.6-7.9-11.4c-3.1-4.3-6.1-8.8-9.6-12.8c-2.4-2.7-5.5-4.8-8.6-6.9
			c5.4,7.7,9.9,15.7,12.3,24.8c2.6,9.5,3.8,19.2,3.4,29c-0.5,14.3-1.8,28.5-5.9,42.2c-0.3,1.1-1,2.2-1.5,3.5
			c4.6-2.5,8.9-14,13.2-34.2c-1.6,15.8-0.2,32.1-8.9,46.5c0.2,0.2,0.5,0.3,0.7,0.5C329.4,164.7,329.7,164.2,330,163.7
			c3.5,3,6.9,6.1,10.7,9.5c2.5-9.2,1.9-18.2,2.1-27c-1.8,3-3.1,6.3-5.1,9.1C335.5,158.3,332.6,160.9,330,163.7z M318.4,154.3
			c6.4-12.5,9.8-25.8,9.9-39.7c0.1-9.3-0.8-18.6-2-27.8c-1.3-10.1-3.7-19.9-10.2-28.3c-2.3-3-4.4-5.9-8.2-6.8
			c-2.9-0.7-5.8-1.2-8.7-1.6c-5.6-0.7-10.4,0.2-14.1,5.4c-4.4,6.1-8.7,12-10.4,19.5c-1.7,7-4,13.9-3.1,21.3c0.1,1.2,0.6,2.6,1.5,3.5
			c2.3,2.5,3.4,5.3,3.6,8.6c0.2,2.6,0.3,5.3,0.5,7.9c0,0.5,0.2,1,0.4,1.5c1.1,1.9,2.1,3.8,3.3,5.6c0.6,0.9,1.3,1.9,2.2,2.5
			c2,1.3,3.1,2.9,3.1,5.3c0,0.7-0.1,1.6,0.3,1.9c1.9,1.7,3.7,3.5,5.8,4.8C300.9,143.5,309.6,148.8,318.4,154.3z M327.3,161.6
			c2.7-6.3,5.6-12.2,5.4-18.8c-3.4,4.8-7,9.7-10.6,14.7C323.5,158.7,325.3,160.1,327.3,161.6z"/>
		<path class="st0" d="M183.9,447c-1,0.2-1.9,0.4-3,0.6c-0.2-2.2,0.6-4,2.3-4.8c1-0.5,3-0.1,4,0.7c1.3,0.9,2.5,2.5,3,4
			c2.7,7.6,2.2,15.2-0.9,22.6c-0.5,1.2-1.6,2.5-2.7,3c-2.6,1.2-4.1,0.1-5-3c-0.4-1.3-0.9-2-2.3-2c-5.4-0.1-10.1-2.1-14.5-5
			c-2.6-1.7-5.1-3.4-7.9-4.9c5.4,17.7,13.7,33.8,24.7,48.5c11,14.7,23.1,28.3,36.8,40.4c0.4-0.2,0.8-0.4,1.2-0.5
			c0.2-11.3,0.4-22.5,0.6-34.5c2.1,2.3,3.9,4,5.5,5.8c5.3,6.2,11.8,11,18.5,15.5c8.1,5.4,17.2,6.7,26.7,5.7
			c11-1.2,21.2-4.2,29.5-11.8c3.6-3.3,6.8-7.1,10.1-10.6c0.3-0.3,0.6-0.7,1.4-1.6c-0.5,11.4,1.8,22.1,1.7,33.2
			c0.4-0.2,1.4-0.4,2.2-1c2.8-2.1,5.7-4.1,8.2-6.6c13.2-13.5,26.1-27.2,37-42.6c8.7-12.2,16.1-25,20.5-39.4c0.7-2.3,1.2-4.7,1.8-7.1
			c-0.2-0.2-0.4-0.4-0.7-0.6c-3.4,2.1-6.7,4.2-10.1,6.4c-4.1,2.6-8.1,5.1-12.1,7.7c-0.7,0.5-1.3,1.2-1.9,1.9c-1.1,1.4-1.9,3-3.1,4.3
			c-2.8,3-5.5,2.8-7.8-0.7c-2.5-3.8-3.3-8-3.1-12.4c0.3-5.7,2-11.1,5-16c0.3-0.5,0.6-0.9,0.9-1.3c4.2-5.5,8.6-5.1,11.7,1.2
			c0.4,0.8,0.1,1.9,0.1,3c-1.9-0.1-3.7-0.2-5.5-0.3c0,0,0,0,0,0c0.2-0.2,0.5-0.4,0.7-0.6c-0.1-0.1-0.2-0.3-0.3-0.4
			c-0.6,0.6-1.3,1.1-1.8,1.8c-2.2,2.7-4.5,5.4-6.6,8.2c-0.6,0.8-1,2-0.9,3c0.5,2.8,1.3,5.6,1.9,8.1c1.1,0.1,2,0,2.8,0.2
			c2.9,0.4,5.8,0.1,8.3-1.5c3.8-2.3,7.6-4.6,11.1-7.3c4.4-3.4,8.9-5.9,14.4-7.3c2.3-0.6,4.6-2.5,6.3-4.4c7.2-8.5,10.1-18.4,9.6-29.5
			c-2,10.3-4.5,20.3-18.3,20.9c-1.3-8.1-1.3-16.3-1.9-24.5c-2.2,0.3-3.7,1.1-4.7,3.4c-1.5,3.7-4.5,4.5-8,2.4
			c-3.1-1.8-4.5-4.8-5.1-8.2c-1.1-6.3-0.3-12.2,3.1-17.7c2.7-4.4,6.2-5.4,10.8-3.2c-1.2,0.5-2.2,1.1-3.3,1.2c-2.1,0.2-3,1.6-3.8,3.2
			c-1.2,2.6-2.6,5.1-3.9,7.6c-0.1,0.2,0,0.5,0,0.7c1.1,4.4,2.9,8.6,5.3,12.3c13.2-3.2,22.6-10.3,27.1-23.2
			c3.7-10.7,9.8-20.2,17.1-28.8c4.4-5.3,8.5-10.8,10.3-17.5c1.1-4.2,1.7-8.5,2.5-12.7c0.2-1.4,0.3-2.8,0.9-4.2
			c0.2,0.4,0.5,0.8,0.5,1.2c-1,5.9-2,11.7-3.1,17.6c-1.3,6.9-5.2,12.5-9.7,17.6c-8.4,9.4-14.3,20.3-18.7,31.9
			c-2.3,5.9-6.1,10.2-11.4,13.7c-1.6,1-3.1,3.4-3.1,5.1c0,6.6,0.6,13.2,0.9,19.8c2.9,0.1,5.1-0.8,7-2.7c4.4-4.3,6.3-9.9,7.8-15.6
			c0.3-1.2,0.4-2.6,2.2-2.4c1.7,0.2,1.6,1.6,1.6,2.9c-0.3,10.2-2,20-8.1,28.5c-1.5,2.1-3.7,3.7-5.5,5.6c-0.4,0.5-0.8,1-1.3,1.5
			c-2.3-0.4-3.2,0.2-3.9,2.6c-2.3,8.7-5,17.1-10.1,24.6c-3,4.5-5.4,9.4-8,14.2c-5.4,10-12.4,18.8-20.2,26.9
			c-8,8.3-15.7,16.8-23.4,25.4c-3,3.3-6.4,6-10.4,8c-1.3,0.7-2.1,0.1-2.2-1.6c-0.5-9.6-1-19.2-1.6-28.8c0-0.4-0.1-0.7-0.2-1.4
			c-1.8,1.7-3.3,3.2-4.9,4.6c-6.8,5.9-14,11.3-22.9,13.4c-7.8,1.8-15.7,4-23.7,2.2c-12.4-2.8-23-8.7-30.6-19.4c-1.4-2-3.1-3.8-5-6
			c-0.1,1-0.2,1.5-0.2,1.9c-0.2,9.6-0.3,19.3-0.6,28.9c0,0.7-0.4,1.5-0.9,1.9c-0.3,0.2-1.3-0.2-1.8-0.6
			c-15.3-11.6-28.6-25.1-40.5-40c-4.3-5.3-7.5-11.6-10.5-17.8c-4.6-9.5-8.6-19.4-13-29.1c-0.5-1-1.6-1.8-2.7-2.4
			c-2.4-1.4-4.9-2.7-7.4-3.9c-5.3-2.4-8.3-6.6-10.1-11.9c-2-6-3.2-12.2-2.9-18.5c0-0.8,0.6-1.6,1-2.4c0.9,0.4,2,0.6,2.5,1.2
			c1,1.5,1.9,3.2,2.5,5c1.6,4.6,4.3,8,8.8,10c0.3,0.1,0.6,0.1,1.1,0.2c-0.4-6.1-0.7-12-1.1-18c-0.2-2.8-0.2-5.6-0.5-8.4
			c-0.1-1-0.9-2.1-1.7-2.7c-5.8-3.8-10.1-8.6-11.3-15.6c-1.4-8.3-5.8-14.6-12.1-19.8c-1.9-1.6-3.6-3.4-5.5-5
			c-10.5-9-13-20.7-11.4-33.7c0.1-1,0.2-2.1,0.6-2.9c0.2-0.5,1.2-0.6,1.8-0.9c0.1,0.6,0.3,1.1,0.2,1.7c-0.6,5.4-0.8,10.8,0.6,16.2
			c2.3,8.3,6.9,15.1,13,20.9c6.2,5.8,10.4,12.7,13.3,20.7c2.9,7.9,7.9,14.8,15.3,19.1c4.1,2.4,8.9,3.1,14.2,3.3
			c0.7-4.7,2.3-9.6,1.9-14.2c-0.4-4-3-7.8-4.6-11.4c-1.4-0.1-2.4-0.1-3.8-0.2c1.1-1.6,1.8-2.9,2.7-4c1.5-1.8,2.3-1.5,3.2,0.8
			c2.2,6.1,4.3,12.3,6.9,18.2c1.7,3.8,1.7,7.5,1,11.3c-0.4,2.2-1.5,4.1-3.7,5.1c-2.5,1.2-4.8,0.6-6.2-1.9c-0.9-1.6-1.8-2.3-3.9-2.5
			c-2.7-0.3-5.4-1.7-8.3-2.6c0.5,9.5,1.1,18.9,1.6,28.3c-4.2,1.1-7.7-0.2-9.9-3.8c-1.8-3-3.1-6.1-5.1-9.1c1.4,3.3,2.8,6.6,4.2,9.9
			c-0.1,0.1-0.1,0.1-0.2,0.2c-3.1-3.7-4.1-8.2-4.8-13.2c-0.2,0.9-0.4,1.4-0.5,1.9c-0.1,5.6,0.1,11.2,2.6,16.4
			c3.5,7.4,8.7,12.7,17.5,13.4c1.8,0.1,3.6,1,5.1,1.9c2.4,1.3,4.6,2.9,6.8,4.5c4.2,2.8,8.8,4.4,13.9,4.8c2.4,0.2,4.8,0.6,7.7,1
			c0.5-2.3,1.6-5,1.5-7.6c-0.2-3.2-1.4-6.4-2.2-9.5c-0.5-1.8-1-3.6-1.7-6c-0.5,1.2-0.8,1.7-1,2.3C183.8,447.1,183.9,447,183.9,447z"
			/>
		<path class="st0" d="M239.6,365.8c0.5-2.4,0.7-4.9,1.6-7.2c3.6-9.2,7.2-18.3,11.1-27.3c2.2-5.1,6-9,10.4-12.3c1.6-1.2,3.2-1.3,5-0.7
			c4.3,1.5,7.2,4.3,9.3,8.3c5.6,10.5,11.3,21,16.9,31.5c1,1.9,1.8,3.9,2.2,6c0.7,3.7-0.7,7.1-3.4,9.5c-5,4.4-10.1,8.8-15.6,12.5
			c-3.9,2.6-8.8,3.2-13.4,1.7c-6.9-2.3-13.2-5.8-18.8-10.4C241.3,374.3,239.6,370.5,239.6,365.8z M266.9,369.8
			c0.1,0.2,0.1,0.3,0.2,0.5c3.1-0.8,6.4-1.2,9.2-2.5c5.4-2.6,7.2-7.4,5.1-12.9c-2.3-6.2-6.6-11.1-10.8-16.1c-2.8-3.3-8.4-2-11,0.1
			c-5.3,4.3-8,10.2-8.6,16.9c-0.8,8,2.5,12.2,10.4,13.4C263.2,369.5,265.1,369.6,266.9,369.8z"/>
		<path class="st0" d="M108.6,235.8c-0.2-0.6-0.4-1.3-0.8-2.3c-0.4,1.3-0.9,2.4-0.9,3.4c-0.1,6.2-0.8,12.4-0.1,18.6c1,9.4,4,18.3,7.8,26.9
			c6.6,14.6,9.4,30.1,11.4,45.9c1,8.2,2.6,16.3,8.5,22.7c1.4,1.5,2.7,3.2,4.5,4c5.2,2.3,6.7,6.5,7,11.6c0.2,4.7,0.5,9.4,0.8,14.1
			c-0.3,0.1-0.5,0.3-0.8,0.4c-2-2.9-4.4-5.5-6-8.6c-3.8-7.5-9.3-13.1-17.1-16.5c-0.4-0.2-0.8-0.5-1.2-0.7
			c-8.3-3.3-11.8-10-12.8-18.8c1,2.1,1.8,3.9,2.7,5.6c3,5.9,7.1,10.6,13.3,13.2c5.9,2.5,10.1,6.8,13.4,12.1c1.8,2.9,3.6,5.8,5.8,8.6
			c-0.1-4.4,1.3-8.8-0.7-13.3c-1.1-2.6-3-4-5.1-5.6c-6.5-4.8-9.7-11.8-12.3-19.1c-2.5-6.9-3.2-14.2-3.6-21.5
			c-0.7-11.8-3.7-22.9-9.2-33.4c-3.1-5.9-5.4-12.4-7.9-18.6c-0.7-1.7-1-3.6-1.1-5.4c-0.3-10.2-0.7-20.3,0.9-30.5
			c0.1-0.6,0.7-1,1.1-1.6c0.6,0.4,1.5,0.7,1.6,1.3c0.8,2.3,1.4,4.6,1.9,7c3,13.8,8.7,26.3,16.6,38c3.9,5.8,7.9,11.7,9,18.8
			c0.9,5.5,1.2,11.1,2,16.7c0.3,2.2,0.9,4.4,1.3,6.6c0.2,0,0.4,0,0.6-0.1c-0.2-1.8-0.3-3.5-0.5-5.3c-1.1-9.6-0.1-19.1,1.1-28.6
			c0.3-2.5,0.5-5,1-7.4c0.8-4.1,2-8,2.7-12.1c4.4-27.8,15.7-52.4,33.3-74.3c2.1-2.6,4.2-5.2,6.2-7.9c5.9-7.7,13.2-14,20.7-20.1
			c6.4-5.2,13.8-9.2,20.8-13.6c4.1-2.6,8.4-4.8,12.2-7.6c2.4-1.8,5-3.8,5.1-7.5c0.1-2.3,1.5-4,3.8-4.8c0.6-0.2,1.3-0.8,1.5-1.4
			c1.4-3.5,3.7-6.1,6.9-7.9c0.5-0.3,1-1.1,1-1.8c0.1-1.1-0.1-2.3-0.2-3.5c-0.2-3,0.3-5.8,1.8-8.5c0.8-1.6,1-3.7,0.8-5.5
			c-1-9.1-0.3-18.1,1.2-27.1c0.7-4.5,1.4-9.1,2.3-13.6c0.4-1.8,1.3-3.4,1.9-5.1c3-8.8,7.4-16.9,13.3-24.2c1.5-1.8,3.3-3.6,5.4-4.7
			c5.3-2.9,10.6-5.7,16.2-8.2c4.5-2,9.4-0.9,14.1-0.5c10.5,0.8,20.2,3.7,29.1,9.8c10.7,7.3,18.2,17.3,24.4,28.3
			c3.1,5.5,5.6,11.4,8.5,17.1c6.3,12,13.5,23.4,24.5,31.8c0.8,0.6,1.2,1.7,1.8,2.6c-1.1-0.1-2.2-0.2-3.3-0.4c-0.3-0.1-0.6-0.4-0.7-1
			c0.6,0.1,1.2,0.1,2.1,0.2c-1.1-0.9-2.1-1.6-3.1-2.3c-9.7-7-15.5-17-21-27.2c-4.4-8.3-8.4-16.8-13-25c-8.5-14.8-21.1-24.3-37.3-30
			c-9.4-3.3-18.2-3.1-27.1-0.8c-10.2,2.7-18.3,9-24.2,17.9c-6.1,9-9.2,19.2-11.7,29.7c-2.6,11.2-2.5,22.5-0.1,33.7
			c0.6,2.9-1.6,3.8-2.5,5.6c-0.4,0.8-1,1.5-1,2.3c-0.1,4,0,7.9,0,11.7c-1.7,1.1-3.7,2-5.2,3.4c-1.4,1.4-2.3,3.4-3.6,5.5
			c-3.9,1-4.1,1.2-4.5,7.9c-2.3,0.2-3,1.9-3.6,3.8c-0.2,0.8-0.9,1.6-1.6,1.9c-17.6,7.4-32.8,18.2-45.9,32
			c-11.9,12.4-22.8,25.5-30.7,40.8c-7,13.6-11.3,28.2-14.2,43.2c-2.2,11.5-4.4,23-6,34.6c-1.6,11.6-1.6,23.2-0.8,34.9
			c0,0.4,0,0.8,0.1,1.6c-3.2-3.1-4.7-6.7-5-10.7c-0.6-6.1-0.8-12.2-1.5-18.3c-1-8.7-3.2-17.1-9-23.8c-9.2-10.7-14.1-23.2-16.5-36.9
			C109.1,237.2,108.8,236.5,108.6,235.8C108.5,235.8,108.6,235.8,108.6,235.8z"/>
		<path class="st0" d="M197.1,316.1c-1.4-0.1-2.8-0.1-4.5-0.2c0.5-6.5,0.8-12.8,1.5-19c1-9.2,2.2-18.3,3.6-27.4c2.8-19,8.5-37.2,15.8-55
			c8.8-21.4,21.1-40.6,36.3-57.9c2.8-3.2,3.2-3.2,7.2-1.5C215.7,200.7,199.6,255.6,197.1,316.1z"/>
		<path class="st0" d="M241.3,335.6c-5.8-5.1-12.7-8.4-19.3-12.2c-2.8-1.6-5.8-3.1-8.2-5.2c-6.7-6.1-9.2-13.8-7.2-22.8c1.2-5.6,4.9-9.3,10-11.4
			c6.4-2.7,10.2-7.5,11.7-14.1c0.7-3.1,0.2-6.1-2.6-8.2c-2.5-1.8-5.3-2.4-8.1-0.8c-2.7,1.6-4,4-4,7.1c0,3.1,1.3,5.5,4.2,7
			c0.6,0.3,1.2,0.6,2,1c-6.5,1.8-10.2-1.4-9.4-8.3c0.8-6.8,5.2-13.7,14.3-14.4c4.6-0.3,8.5,2.3,9.3,6.9c1.3,7.3,0.1,14-5.7,19.3
			c-4.6,4.3-8.7,9-11.3,14.9c-1.2,2.8-1.1,5.5-0.6,8.3c1.5,8,6.1,14.1,11.7,19.6c3.7,3.6,7.4,7.1,11.1,10.7
			C240.1,333.9,240.7,334.8,241.3,335.6z"/>
		<path class="st0" d="M313.5,270.7c1.9-0.3,3.4,0,4-0.7c0.9-1,1.5-2.6,1.4-3.9c-0.2-3.2-3-5.2-6.4-5.2c-2.4,0.1-4.7,2.8-5,6.1
			c-0.3,3.9,1.1,7.2,3.7,10c2.5,2.7,5.3,5.2,8,7.8c1.1,1.1,2.2,2.2,3.1,3.5c2.8,3.7,1.8,7.7,0.7,11.7c-1.6,5.9-2.9,11.9-0.3,17.6
			c-8.9,4.7-17.7,9.3-26.6,14c1.8-2.4,3.7-4.7,5.4-7c6.4-8.8,11.6-18.1,14.2-28.8c1.7-6.9-0.7-12-5.4-16.4c-1.7-1.6-3.8-2.8-5.4-4.4
			c-1.8-1.9-3.6-3.9-4.7-6.2c-2.3-4.6-1.1-8.1,3.1-11.1c4.1-3,10.1-3,14-0.2c3.5,2.6,5.3,7.9,3.9,11.8c-0.3,0.9-0.6,1.9-1.3,2.4
			c-1.1,0.9-2.5,2-3.6,1.8C315.1,273.5,314.4,271.8,313.5,270.7z"/>
		<path class="st0" d="M277,154.9c3.5-2,3.6-2.1,6,0.9c10.1,12,18,25.5,25.2,39.4c10,19.2,16,39.8,21.1,60.6c3.2,13.1,5.3,26.5,6.4,39.9
			c0.5,6.3,0.7,12.5,1,18.9c-1.3,0.2-2.4,0.4-3.7,0.6c0-1.3-0.1-2.5,0-3.6c0.8-8.9-0.5-17.7-2-26.4c-2.1-12.3-4.1-24.6-7.3-36.7
			c-4.7-18-11-35.5-20.3-51.8c-2.8-4.9-5.1-10.1-7.5-15.2c-4.3-9.3-11.1-16.8-17.4-24.7C278.1,156.2,277.6,155.6,277,154.9z"/>
		<path class="st0" d="M288.5,332.3c-2.8-4.2-5.5-8.3-8.1-12.2c3.5-2.1,7.4-4.2,10.9-6.8c2.7-1.9,5.2-4.3,7.2-6.9c5.1-6.4,5.7-13.4,2.1-20.7
			c-2.7-5.5-8.4-6.3-12.6-1.8c-2.8,3-4,6.6-3.6,10.7c0.2,1.9,1,3,2.7,3.7c2.2,0.9,6.4-0.3,7.7-2.2c1.3-2,0.8-3.1-2.1-4.9
			c1.2-1.7,2.8-1.7,3.9,0.2c2,3.5,0.9,6.8-1,9.9c-1.7,2.9-4.5,4-7.8,3.5c-5.7-0.8-8.4-3.9-8.4-9.8c0-5.1,1.3-10,4.1-14.4
			c2.6-4.1,6.1-5.3,10.8-3.9c7.6,2.3,12.5,8.9,12.6,16.9c0.1,8.3-1.8,16.1-6.4,23.2C296.9,322.2,293.2,327.7,288.5,332.3z"/>
		<path class="st0" d="M247.7,503.6c5.6,3.6,11.6,6.1,17.9,7.7c5.3,1.3,10.6,1.5,15.9,0.8c3.6-0.5,4.7,0.8,4,4.2c-0.9,4-2.9,7-6.6,8.7
			c-4.2,1.9-8.5,3.8-12.9,5.3c-1.5,0.5-3.5,0.1-5.1-0.5c-9.3-3.7-13.2-11-13.3-20.7C247.7,507.3,247.7,505.6,247.7,503.6z"/>
		<path class="st0" d="M108.6,235.8C108.6,235.8,108.5,235.8,108.6,235.8c1.6,12.4,4.4,24.6,12.4,34.8c9.6,12,12.5,25.9,13,40.7
			c0.1,3.1,0.5,6.2,1.2,9.2c2.1,8.3,6.3,11.9,14.9,13c0.8,4.4,1.5,8.8,2.4,13.8c-2-0.6-3.9-0.8-5.5-1.7c-6.3-3.8-11.1-9-13.1-16.3
			c-1.6-6-3-12-3.9-18.1c-1.6-11.2-6.2-21.2-10.7-31.3c-3.3-7.3-6.6-14.7-8.7-22.5C108.8,250.5,107.5,243.2,108.6,235.8z"/>
		<path class="st0" d="M238.9,295.5c0,0.9-0.2,1.6,0,2.2c0.7,1.4,1.3,3.3,2.4,3.8c1,0.5,3.1-0.2,4.1-1c3.5-2.8,3.7-9.8,0.6-12.9
			c-3.4-3.4-9.2-3.1-12.4,0.8c-4.2,5.2-4.4,11.2-1.8,16.9c3.9,8.6,11.1,13.5,20.3,15.3c0.2,0,0.4,0.1,0.4,0.1
			c-2.9,3.3-5.8,6.6-8.8,10.1c-6.9-5.6-13.4-11.9-16.9-20.6c-2.9-7.2-2.7-20.1,4.4-26.6c3.9-3.7,8.3-4.3,13.1-2.9
			c6.6,1.9,9.1,5.9,7.9,13.6c-0.5,3.1-1.7,6.1-3,9c-1.2,2.7-4.4,4.1-7.2,3.7c-2.6-0.4-4.5-1.7-5.4-4.2
			C235.8,300.5,236.6,297.9,238.9,295.5z"/>
		<path class="st0" d="M420,251.5c-0.4,1.7-0.5,3.7-1.2,5.4c-1.9,4.8-3.7,9.7-6.1,14.2c-6.3,11.5-9.7,23.7-10.5,36.7c-0.6,9.9-4,18.9-10.4,26.6
			c-3.5,4.3-8.7,5.4-13.7,7.6c0.3-4,0.6-7.6,0.9-11.1c2.9-1.2,5.9-2.1,8.5-3.6c5.1-2.9,6.7-8.2,7.7-13.5c1.3-7.3,2.1-14.7,3.6-22
			c2.2-11.1,7.8-20.7,14.3-29.7C415.5,258.8,417.7,255.1,420,251.5z"/>
		<path class="st0" d="M357.1,315.8c-4.9-0.9-9.6-1.8-15.1-2.8c-0.1-3.5-0.6-7.7-0.3-11.9c0.5-7.9,3.1-15.3,6.7-22.3c2.2-4.3,3.7-8.9,2.5-13.9
			c-0.7-3-2.5-4.5-5.4-4.5c-2.5,0-3.8,1.2-4.5,4.4c-0.2,1-0.4,2.1-0.4,3.2c0,0.8,0.1,1.9,0.6,2.3c0.4,0.3,1.4-0.2,2.6-0.5
			c0,1.7,0.2,3.6-0.1,5.5c-0.2,1.7-1.7,2.2-3.1,1.1c-0.1,0-0.1-0.1-0.2-0.1c-3.6-3.2-4.2-13.8-1-17.3c3.5-3.9,9.1-3.7,12.3,0.4
			c2.6,3.4,3.5,7.4,3.1,11.4c-0.5,4.6-1.8,9.1-2.8,13.6c-0.8,3.5-2.1,6.8-2.6,10.3c-0.9,5.8,0.4,11.1,4.6,15.7
			C355.3,311.9,356.1,314.1,357.1,315.8z"/>
		<path class="st0" d="M266.8,497.1c-9.2-0.1-17.2-1.4-24.4-6c-1-0.7-2.2-1.3-3-2.2c-0.7-0.8-1.6-2.2-1.3-2.8c0.5-1,1.8-1.9,2.9-2.1
			c5.1-1.1,10.2-0.6,15.2,0.7c3.8,0.9,7.5,2.3,11.1,3.8c2.9,1.2,5.4,1.1,7.8-0.8c3.4-2.7,7.5-3.3,11.6-3.7c0.6-0.1,1.7,0.2,1.9,0.6
			c0.3,0.7,0.3,1.8,0,2.4c-3.4,5.4-7.9,9.3-14.7,9.6C271.3,496.7,268.6,497,266.8,497.1z"/>
		<path class="st0" d="M163.6,401.5c-2.7-0.4-4.9-0.4-6.7-1.2c-5-2.3-9.7-5.2-12.4-10.2c-5.5-10.4-13.6-18.4-22.8-25.5
			c-6.6-5.2-11.6-11.4-13.4-19.8c-0.1-0.3-0.1-0.6,0-0.9c2.9,6.6,8.1,10.8,14.4,14c6.5,3.3,11.5,8.1,14.9,14.6
			c2.8,5.3,6.7,9.6,11.4,13.3c2.4,1.9,5.1,3,8.1,3.1c1.4,0,2.2,0.5,2.6,1.9c0.8,2.7,2,5.2,3,7.8
			C163.2,399.2,163.3,399.9,163.6,401.5z"/>
		<path class="st0" d="M184.4,274.2c2.2,0.7,3.4-0.3,4.3-1.7c1.4-2.1,2.8-4.3,1.8-6.9c-0.5-1.2-1.6-2.7-2.8-3c-1.1-0.3-3,0.5-3.8,1.4
			c-3.9,4.7-4.8,10.2-3,16c0.8,2.6,2.1,5.2,3.6,7.5c4.4,7.1,5.6,14.8,4.3,23c-0.2,1.4-0.4,2.9-0.5,4.3c-3.8,0.6-7.5,1.3-11.8,2
			c0.8-2,1.2-4,2.2-5.7c3.2-5.8,3.2-11.6,1.2-17.7c-2-5.9-3.4-11.9-3.1-18.2c0.3-5.7,2.4-10.5,6.7-14.4c1.8-1.6,3.9-3.2,6.5-2.3
			c2.6,0.8,2.6,3.4,3,5.6c0.7,4.5-0.6,8.5-3.8,11.7c-0.7,0.7-2.2,1-3.2,0.8C185.2,276.4,184.9,275,184.4,274.2z"/>
		<path class="st0" d="M283.6,135.3c1.2,3,2.2,5.5,3.1,8.2c0.2,0.5-0.4,1.3-0.8,1.8c-4.2,5-9.7,7.5-16.1,7.9c-6.8,0.4-13.5-0.3-19.7-3.4
			c-2.3-1.2-4.4-2.9-6.4-4.5c-1.7-1.4-1.6-3.5-0.3-5.3c0.5-0.7,0.6-1.6,0.9-2.5c5.8,5.1,12.5,8,20.1,8.3
			C272.6,145.9,278.4,141.7,283.6,135.3z"/>
		<path class="st0" d="M264,243.7c-6.3,0-11.3-4.5-11.3-10.2c0-5.7,5.2-10.4,11.3-10.3c6.1,0.1,11.2,4.7,11.2,10.2
			C275.3,239.1,270.3,243.7,264,243.7z"/>
		<path class="st0" d="M139.1,437.2c3.7,5,8.7,5.4,14.2,4.3c3.3-0.7,6.3-0.2,8.8,2.3c1,1,2.2,1.9,3.3,2.9c5.2,5.1,14.4,3.5,18.5,0.4
			c0,0-0.1,0.1-0.1,0.1c0.1,0.2,0.4,0.3,0.4,0.5c0.8,4.5,1.6,9.1,2.5,13.8c-6.8-1.3-14.1-2-20-6.7c-4.4-3.5-9.3-6-14.7-7.7
			c-5.4-1.7-10.3-4.3-13.1-9.7C139,437.3,139.1,437.3,139.1,437.2z"/>
		<path class="st0" d="M273.9,314.4c-1.6-1-3.3-1.9-4.8-2.9c-1.2-0.8-2.2-0.9-3.6-0.2c-2,1.1-4.2,1.8-6.2,2.7c1.9-4.2,4.5-7.9,5.4-12
			c2.1-9,0.6-15.8-8.2-20.8c-0.2-0.1-0.4-0.3-0.7-0.5c3.2-2.6,6.3-5.1,9.8-7.9c2.8,3.5,5.6,7,8.7,10.8
			C269.2,292.6,266,303.1,273.9,314.4z"/>
		<path class="st0" d="M367.2,325.4c-2.2-2.5-3.9-4.5-5.9-6.8c3.8-6.4,2.3-13.5,1.4-20.6c-0.6-5.2-1.4-10.3-2-15.5c-0.3-3,0.1-5.9,2-8.4
			c2.1-2.7,5.6-2.8,7.1,0.2c3.5,6.9,4.3,14.2,2.4,21.7c-0.1,0.3-0.4,0.6-1.2,1.1c-0.4-1.6-0.7-3.3-1.1-4.9c0.2,0,0.5,0.1,0.7,0.1
			c0.4-1.4,1.2-2.8,1-4.1c-0.3-2.2-1-4.3-1.9-6.4c-0.3-0.7-1.3-1.1-2-1.7c-0.5,0.7-1.5,1.4-1.5,2.1c-0.2,3.9-0.5,7.9-0.3,11.8
			c0.5,7.7,1.5,15.4,2,23.2C368.2,319.8,367.5,322.4,367.2,325.4z"/>
		<path class="st0" d="M358.8,222.2c-0.3,1.1-0.4,2.4-1,3.5c-1.2,2.5-3.3,2.9-5.5,1.4c-5.9-4.2-9.5-9.9-10.3-17.1c0-0.2,0-0.3,0-0.5
			c0-2.8,0.5-6,3-7c1.4-0.6,4.2,0.9,5.9,2.1c4.1,3,5.4,7.8,6.9,12.3C358.3,218.5,358.4,220.3,358.8,222.2z"/>
		<path class="st0" d="M369.6,400.8c1.2-3.1,2.3-6.1,3.6-9.1c0.2-0.6,1-1.2,1.6-1.4c9.8-2.4,16.9-8,21.7-16.9c3.8-7,8.8-13.1,14.4-18.8
			c5-5.1,9.6-10.6,14.1-15.6c-0.1,0.2-0.3,0.9-0.6,1.6c-3.1,6.1-7,11.5-12.1,16.1c-7,6.3-12,14.2-16.7,22.3
			c-2.5,4.3-5.1,8.7-8.2,12.6c-4.2,5.1-9.7,8.3-16.4,9.3C370.4,400.8,370,400.8,369.6,400.8z"/>
		<path class="st0" d="M356.6,444.5c5.2,2.1,10.3,1.8,15.2-0.6c2.5-1.3,4.8-3.2,7.3-4.5c1.8-0.9,3.9-2,5.9-1.9c4.6,0.1,8.3-1.5,11.5-4.7
			c-1.3,3.1-3.7,5.2-6,7.4c-2.6,2.4-6.1,1.9-9,3.2c-3.5,1.6-6.9,3.3-10.3,5.1c-1.8,0.9-3.4,2.2-5.1,3.3c-4.7,3.2-10,3.2-15.7,2.6
			C352.5,451,354.5,447.8,356.6,444.5C356.6,444.5,356.6,444.5,356.6,444.5z"/>
		<path class="st0" d="M171.5,319c-1.6,1.7-3,3.2-4.6,4.9c-0.1-1.4-0.3-2.6-0.3-3.8c0.1-10.3,0.3-20.5,0.5-30.8c0-1.4,0.7-2.8,0.5-4.1
			c-0.1-1.1-0.8-2.5-1.7-3.1c-0.5-0.3-2.5,0.4-2.8,1.1c-1.1,2.4-1.9,5-2.5,7.6c-0.3,1.3-0.1,2.8-0.3,4.1c-1.7-7-0.7-13.6,3.5-19.5
			c1.1-1.5,2.5-1.3,3.1,0.2c1.2,2.9,2.4,5.9,2.8,9c0.4,3.3-0.2,6.7-0.3,10C169,303,169.7,311.2,171.5,319z"/>
		<path class="st0" d="M257.5,120.8c0,1.3,0,2.6,0,3.8c2.8,2.1,5.5,4,9.2,3.3c3.6-0.7,5.5-3.2,7.3-6.5c0.5,3,2.7,5.4,0.4,8.1
			c-2.2,2.7-4.7,5.2-8.5,5c-3.5-0.2-7.1-0.5-10.5-1.4c-4-1.1-5-4-3-7.5c1.1-1.9,2.8-3.5,4.3-5.3
			C257.1,120.5,257.3,120.6,257.5,120.8z"/>
		<path class="st0" d="M356.9,57.3c10.6,16,21.6,31.6,36.7,43.8c-10.2-5.8-17.6-14.3-24.5-23.6c0.4,1,0.8,2,1.3,2.9c5,9.3,9.8,18.7,14.9,27.9
			c4.3,7.8,9.4,15,16.7,20.4c1.4,1.1,3,2,4.5,2.9c-0.1,0.2-0.2,0.4-0.4,0.6c-1.8-1-3.7-1.8-5.3-3.1c-10.2-7.8-16.6-18.4-22.3-29.6
			c-5.7-11.2-11-22.5-16.6-33.8C360.3,62.9,358.5,60.2,356.9,57.3z"/>
		<path class="st0" d="M146.3,358.6c3.7-0.5,5.3-2.3,6.2-6.9c0.1-0.3-0.1-0.7,0.1-0.9c3.5-5.8-0.1-11.4-0.7-17c-0.1-1.1-0.6-2.5-2.5-1.8
			c-0.5,0.2-1.2-0.2-1.8-0.4c3.5-3.8,7-3.5,9.2,1c3.6,7.4,2.5,14.8-0.7,22c-0.9,1.9-2.3,3.7-3.5,5.4c-1,1.4-2.2,2-3.9,0.6
			c-0.7-0.6-1.8-0.9-2.7-1.3C146,359.1,146.1,358.9,146.3,358.6z"/>
		<path class="st0" d="M160.8,333.2c-1.7-5.2-6.3-8-9.7-11.7c-4.2-4.5-4-9.7-2.5-15c0.4-1.5,1.3-3,2.2-4.3c1.1-1.6,2.8-2.4,4.7-1.7
			c1.9,0.7,1.9,2.6,2,4.3c0,0.7-0.3,1.4-0.5,2.3c-0.1-0.7,0-1.2-0.2-1.5c-0.4-0.8-0.9-2-1.4-2c-0.8-0.1-2,0.4-2.5,1.1
			c-2,2.7-2.8,5.8-1.3,9c0.9,2,2.3,3.8,3.8,5.5c1.7,1.9,3.9,3.4,5.6,5.2C164.3,327.7,164.3,329.2,160.8,333.2z"/>
		<path class="st0" d="M176.6,229.4c-2.6-6.1,0-15.8,4.9-19c0.9-0.6,2.1-1,3.2-1.2c2.1-0.3,3,0.7,2.6,2.8c-0.8,5.6-3.2,10.3-7.1,14.4
			C179.2,227.4,177.9,228.3,176.6,229.4z"/>
		<path class="st0" d="M402.6,151.8c-5.7-1.8-10.2-4.9-12.8-10.5c-1.9-4-4.5-7.7-6.4-11.8c-3.6-8.1-7-16.4-10.3-24.6c9,11.4,18.6,22.1,32.3,28.2
			c-5.8-1.2-10.4-4.6-14.9-8.2c-4.4-3.5-8.4-7.6-12.8-11.5c1.3,2.7,2.5,5.5,3.8,8.2c2.6,5.5,5.3,11,8,16.5
			c2.6,5.3,6.9,9.1,11.6,12.5C401.6,151,402,151.4,402.6,151.8C402.6,151.8,402.6,151.8,402.6,151.8z"/>
		<path class="st0" d="M402.6,151.8c1.2,0.2,2.3,0.5,3.7,0.7c-1,2-2.3,1.6-3.6,1.3c-6.8-2-12.9-5.2-18.2-10c-0.7-0.7-1.5-1.4-2.3-2
			c-0.1-0.1-0.3-0.1-0.9,0.2c5.6,7.5,11.2,15,16.7,22.5c-0.2,0.1-0.4,0.2-0.5,0.4c-10-10.7-18-22.7-24.6-35.7
			c8.8,10.1,17.5,20.5,30.9,24.5c0.2-0.2,0.3-0.4,0.5-0.6C403.7,152.6,403.2,152.2,402.6,151.8C402.6,151.8,402.6,151.8,402.6,151.8
			z"/>
		<path class="st0" d="M392.8,163.2c-5-3.1-10.1-6.2-15.6-9.7c3,4.8,5.7,9.1,8.2,13.3c-3.2-1.2-12.5-15.9-14.6-22.7c2.8,2.5,6.5,5.9,10.3,9.1
			c3.9,3.3,8,6.4,12,9.5C393.1,162.9,392.9,163.1,392.8,163.2z"/>
		<path class="st0" d="M372.8,322.3c0.6-5.2,2.7-9.6,5.4-14.1c2-3.3,2.2-7.8,2.9-11.8c0.1-0.6-1.3-1.4-2-2.1c-0.2,0.1-0.4,0.3-0.6,0.4
			c0.2-0.4,0.3-0.9,0.6-1.2c0.6-0.5,1.3-0.9,2-1.3c0.4,0.7,1,1.4,1,2.2c0.3,6.8-0.2,13.5-4.5,19.3c-1.1,1.4-1.6,3.3-2.4,5
			c-0.6,1.3-1.2,2.7-1.8,4C373.2,322.6,373,322.5,372.8,322.3z"/>
		<path class="st0" d="M260.7,180.7c0-2.3,1.8-4.2,4.1-4.1c2.1,0,3.9,1.9,4,4c0,2.3-1.8,4.3-4,4.3C262.5,184.9,260.7,183,260.7,180.7z"/>
		<path class="st0" d="M226.2,165.5c-0.8,3.7-7.4,8.5-10.8,8C214.7,169.3,220.6,164.8,226.2,165.5z"/>
		<path class="st0" d="M314.9,171.7c-3.5,0.4-8-4.1-7.7-7.5C310.3,164.2,313.8,167.5,314.9,171.7z"/>
	</g>
</g>
</svg>
