<?xml version="1.0" encoding="utf-8"?>
<!-- Generator: Adobe Illustrator 18.1.1, SVG Export Plug-In . SVG Version: 6.00 Build 0)  -->
<svg version="1.1" id="图层_1" xmlns="http://www.w3.org/2000/svg" xmlns:xlink="http://www.w3.org/1999/xlink" x="0px" y="0px"
	 viewBox="0 0 612 792" enable-background="new 0 0 612 792" xml:space="preserve">
<g>
	<g>
		<path d="M466,400.4c1.5-1.1,3.6-1,5-2.6c-1.4-1.6-2.3-3.5-3.8-4.9c-3.1-2.8-5.2-2.7-8,0.4c-2.5,3.1-3.8,6.6-4.5,10.4
			c-1.5,9.4-0.4,18.5,3.6,27c1.9,4,4.6,6,8.9,6.8c0.2-1.6,0.5-3.3,0.5-5c0.1-2.3,1.7-2.6,3.7-3.3c-1.1,13.6-3.9,26.8-4.7,40.7
			c4.4-1.9,7.6-4.4,10.3-7.6c1.6-2.1,3.3-4.3,4.6-6.6c6.7-12.2,15.3-22.7,25.5-32.1c6.2-5.8,11.6-12.5,15.5-20
			c1.3-2.5,1.6-5.5,3.6-7.7c-0.7,15.3-4.5,29.3-14.9,41.2c-9.8,11.1-17.5,23.7-22.5,37.8c-1.4,3.8-3.4,7.4-5.7,10.8
			c-5,7.5-12.5,11.5-20.7,14.5c-1.9,0.7-3.7,1.3-5.9,2.1c-2.1-1.3-2.5-3.9-3.6-6c-2.7-5-3.7-9.8-0.4-15.4c2.3-3.8,3.5-8.2,9-8.5
			c0.7,0,1.2-0.4,2-0.8c-5.9-2.6-10.2-1.6-13.4,3.6c-4.9,7.9-5.8,16.4-3.2,25.2c0.9,2.8,2.6,5.1,5.1,6.7c4.6,2.8,8.7,1.7,10.6-3.3
			c1-2.6,2.7-3.2,5.2-3.5c0.7,10.1,0.9,19.9,2.2,29.6c10.5,0.5,19.7-4.7,22.6-25.5c0.3,3.8,0.1,7.2-0.4,10.6
			c-1.4,10.2-5.6,18.9-12.2,26.6c-2.1,2.4-4.7,4.2-8,4.7c-5.4,0.9-10.1,3.4-14.2,6.9c-5.6,4.7-11.6,8.6-18.3,11.6
			c-2.5,1.1-5.1,1.2-7.9,0.7c-1-0.2-2-0.5-3,0.4c-1.2-3.7-2.2-7.1-2.6-10.6c-0.1-0.9-0.1-2,0.4-2.7c3.3-4.3,6.6-8.6,10.4-12.6
			c0.2,0.7,0.2,0.9-0.3,0.9c-1.9,4.4-5.4,7.6-7.3,12c7.3,1.1,14,0.4,20.1-3.7c2.5-1.7,5.1-3.3,7.5-5.1c3.8-2.7,8-4.8,12.5-5.4
			c7.3-0.8,11.7-5.2,15.6-10.6c0.3-0.5,1.2-1.1,0.4-2.2c-3.8,4.3-8.5,6.2-14.2,5.9c-2.3-0.1-4.5,0.9-6.4,2.1
			c-2.6,1.6-5.1,3.2-7.8,4.9c-6.6,4.3-13.4,4-20.5,2c2.3,0.1,4.6,0.2,6.8,0.3c0.9-3.6-1.3-7.4-5.2-9.5c-2.4-1.3-4.7-0.9-7.2,2.2
			c-8.4,10.4-11.6,22-7.2,35c1.1,3.3,2.7,6.8,6.7,7c4,0.3,6-3.1,7.6-6c1.3-2.5,3.2-3.9,5.6-5.1c5.8-2.8,10.9-6.9,16.1-10.8
			c2.8-2.2,5.9-3.6,9.5-4.9c-1.5,8-4,15.3-7.2,22.5c-8.7,20.1-21.5,37.6-35.5,54.3c-6,7.2-12.3,14-18.7,20.9
			c-5.7,6.2-11.4,12.5-18.1,17.6c-2,1.5-3.9,3.1-6.7,3.5c1.4-1.7,1.1-3.6,0.9-5.5c-1.2-11.5-2.3-23-2.3-35.1c-2.3,2.5-4.2,4.7-6,6.9
			c-8.6,10.3-19.3,17.6-32.6,20.4c-14.1,3.1-28.3,4.4-41.4-3.4c-9.3-5.6-18.1-11.9-25.4-20.3c-2.1-2.4-4.4-4.7-6.6-7
			c-0.3,0.1-0.5,0.1-0.9,0.2c0,13.8,0,27.5,0,41.4c-2.5,0.1-3.8-1.1-5.1-2.2c-8.6-7.5-16.3-16.1-23.8-24.7
			c-16-17.9-30.1-37.2-40-59.2c-3-6.6-5.6-13.1-7.9-19.9c-0.2-0.7-0.7-1.2-0.1-2c2.7,1,5,2.8,7.4,4.6c6,4.3,12.5,7.3,20,7.5
			c1.5,0,2.2,0.7,2.6,2.1c0.5,2.1,1.2,4.3,3.7,4.5c2.8,0.2,4.9-1.3,6-3.9c3.9-9.3,4.5-18.8,1.1-28.4c-0.5-1.5-1.4-3-2.7-3.9
			c-1.7-1.4-3.7-2.5-6-1.6c-1.5,0.7-3,3.8-2.7,6.2c1.2,0,2.4-0.3,3.4-1.2V543c-0.1,0.7-0.4,1.2-1.1,1.4c-6.8,3.1-14.9,4.3-21.5-2.1
			c-1.3-1.2-2.7-2.4-4-3.6c-3-2.7-6.3-3-10.2-2.4c-9.6,1.4-14.9,1.2-19.6-9.6c-0.4-1-1.1-1.7-0.9-3.6c3.4,7,6.3,13.8,16,12
			c-0.1-11.6-1.3-23.1-1.7-34.9c3.3,0.4,5.7,3.1,8.9,3.1c3.2,0,4.9,1.3,6.6,4c1.5,2.7,5,2.8,7.9,1c2-1.3,3.2-3.2,3.6-5.4
			c1-4.7,1.3-9.3-0.9-13.9c-3.5-7.3-6.3-14.9-8.6-22.6c-0.3-1-0.5-2.2-1.6-2.5c-1.2-0.3-1.9,0.8-2.5,1.5c-1.2,1.3-2.1,2.7-2.7,4.4
			c0.3,0.2,0.8,0.5,1,0.4c3.4-0.5,4.2,2.2,5,4.3c1.4,4,4.5,7.6,3.9,12.3c-0.5,4.5-1.4,9-2.5,13.4c-0.3,1.4-1.2,1.4-2.3,1.4
			c-10.9-0.4-19.6-5.2-26-13.8c-3.6-4.7-6.7-9.7-8.5-15.4c-3-9-8.2-16.5-15.1-23c-5-4.7-9.3-10.1-12.6-16.3
			c-3.9-7.5-6.1-15.5-4.7-24.2c0.1-1-0.2-2.1-0.2-3.2c0-0.9-0.3-1.9,0.7-2.7c1.3,0.7,1.3,2,1.6,3.1c1,3.6,1.9,7.2,3,10.7
			c1.4,4.7,4.2,8.5,8.5,10.9c2.5,1.4,4.9,3,7.5,4c8.7,4,15.1,10.5,19.5,19c2.2,4.3,5,8,9,11.1c-0.4-6.4-1-12.8-1.1-19.2
			c-0.1-3.2-1.6-5.8-2.5-8.6c-0.2-0.8-0.8-1.1-1.3-1.3c-11-5.4-16.4-14.9-18.9-26.3c-2.1-9.2-2.6-18.7-4.3-28
			c-2.8-15.8-8.2-30.6-14.3-45.4c-5.1-12.5-7.8-25.6-6.9-39c0.2-3.7-0.4-7.8,1.6-11.8c0.3,8.4,1.1,16.4,2.3,24.4
			c1.4,9.4,5.7,17.9,9.3,26.6c3.1,7.2,6.6,14.3,9.7,21.6c4.4,9.9,5.2,20.7,7.1,31.1c0.9,5,2.4,9.9,4.2,14.9
			c2.6,7.3,7.6,12.6,13.9,17c2.4,1.6,5,2.5,8.3,2.5c-1-5.7-2-11.1-3-16.8c-2.8-0.3-5.8-0.4-8.4-2c-7.8-4.5-9.9-11.8-10.9-20
			c-1-8.6-0.9-17.3-2.6-25.9c-2-9.4-5.2-18.1-11.3-25.7c-9.5-11.9-14.3-25.7-16.9-40.4c-0.1-0.3,0-0.8,0.3-1.2
			c0.5,2.3,1.1,4.5,1.6,6.8c0.7,2.4,1.3,4.8,2,7.2c2.3,8.2,5.6,16,11.3,22.3c12.8,14.3,16.9,31.4,17.4,49.9
			c0.1,4.9,0.2,9.7,1.9,14.4c1,2.8,2.3,5.4,4.8,7.4c0.1-0.4,0.2-0.7,0.2-0.9c-2.2-25.5,1.1-50.4,6-75.3c3.5-17.8,7.5-35.6,14.4-52.6
			c7.7-18.8,19.2-35.1,32.5-50.2c11.9-13.6,24.7-26.2,40-36.2c8.3-5.5,17-10.1,26.2-13.9c1.4-0.5,2.5-1.2,2.7-2.8
			c0.3-2.4,1.5-4.3,4.2-4.6c1.1-9.1,1.1-9.1,6-9.5c1.7-5.2,4.5-9.4,10.5-10.6c0-2,0.1-3.8,0-5.7c-0.3-6.6,2.5-9.7,9.2-10.3
			c6-0.5,11,4.3,10.9,10.4c0,2.4-0.5,4.7,2.3,6.3c1.3,0.8,2,3,2.8,4.5c1.1,2.1,2,4.2,4.4,5.4c2,1,2,3.5,2.4,5.6c0.1,0.8-0.1,2,1,2.2
			c3,0.8,3.4,3.3,4.3,5.6c0.3,1,0.7,1.9,1.9,2.3c17.4,7.2,32.1,18.5,46.4,30.4c33.3,27.8,55.2,62.8,66.7,104.6
			c3.5,12.6,4.3,25.6,5.9,38.4c2.2,17.6,2.6,35.3,1.6,53.1c0,0.4,0.1,0.9,0.1,1.7c2.7-2,4.2-4.5,5.2-7.2c2.2-5.6,2.8-11.5,3.3-17.4
			c1.4-21.2,8.3-40.1,22.3-56.4c4.6-5.2,8.2-11,8.7-18.3c0.1-1.1,0.1-2.2,0.2-4c2.4,4.3,3.7,8.2,4.3,12.5c0.8,6.3-0.7,12.3-3.7,17.9
			c-3.6,6.7-6.6,13.7-8.7,20.8c-2.7,8.9-3.3,18.1-2.7,27.4c1.1,18.4-4.5,34.2-17.6,47.1c-4.7,4.6-10.6,7.4-16.3,10.5
			c-1.6,0.9-3.8,0-5.8,1.1c-3.3-9.7-4.4-19.2-1.5-29.2C463.9,400.5,465,400.4,466,400.4c-0.3,0.8-1.9,0.1-2,1.5
			c-0.2,4.4-0.5,8.7-0.9,13.4c7.3-3,14.6-5.4,19.2-12.2c5.9-8.9,9.7-18.4,10.3-29c1-16.9,5.4-32.8,14-47.4
			c3.6-6.2,5.9-12.9,7.5-19.9c0.2-1,0.7-2.1,0-3.5c-1.7,5.5-4.8,9.5-7.9,13.7c-3.7,5-7.2,10.3-10.2,15.8c-6.7,12.5-9.3,26.1-10.8,40
			c-0.7,6-1.5,12.1-4.4,17.6C477.8,396.3,472.7,399.4,466,400.4z M386.4,664.3c6.6-6.1,12-12.2,17.7-18.1c0.9-0.9,0.7-2,0.8-3
			c1.2-14.9,0.9-29.7,1.4-44.6c0.5-15.4,1.1-30.8,2.5-46.2c0.7-7,2.3-13.4,5.9-19.7c7-12,13.8-24.2,19.3-36.9
			c6.8-15.5,13.8-31,16.7-47.9c2.4-13.8,2.7-27.5-2.5-40.9c-3.9-9.8-11-15.8-22-17.3c-8.1-1-15.8,0.4-23.6,2.7
			c-16,4.8-30.2,13.1-43.9,22.2c-1.3,0.9-2.8,1.5-3.8,3.1c3.6,6.6,6.2,13.6,9.5,20.1c3.4,6.8,1.9,12.8-3.1,18
			c-1.3,1.4-2.8,2.8-4.4,4.2c-5.5,4.6-11.7,8.2-17.8,11.8c-5.1,3-10.7,4.6-16.7,2.7c-9.7-3.1-18.3-8.1-25.2-15.5
			c-2.5-2.7-4.4-5.8-4.7-9.5c0-0.3,0-0.9-0.2-1.1c-2.4-2.4-1.9-5.2-1.4-8.1c1-6,2.8-11.8,5.1-17.5c0.8-1.9,0.4-2.8-1.3-3.9
			c-5.7-3.5-11.1-7.3-16.9-10.6c-13.6-7.9-28.1-13.1-43.7-14.9c-12.8-1.4-22.7,3-28.6,15c-0.9,1.9-1.9,3.7-2.7,5.7
			c-6,14.1-5.6,28.7-2.5,43.3c4.6,21.5,14.2,40.9,25.1,59.8c5.1,8.9,12,16.5,18.7,24.2c4.3,4.9,5.2,10.1,5,16.2
			c-1.1,21.5-2,43.1-3,64.6c-0.2,5.5,0,11-1.3,16.5c-0.3,1.6,0.9,2.6,1.7,2.8c2.6,0.8,4,2.7,5.7,4.5c4,4.3,8,8.7,12,13
			c0.8,0.8,1.3,1.7,2.5,2c0-3.1,0.1-5.9,0-8.7c-1.1-26.6-0.3-53,2.8-79.3c1-8.3,1.9-16.7,1.2-25.1c-0.2-3.6-0.2-7.5-3.1-10.4
			c-5.8-5.9-10.7-12.7-15.7-19.2c-7.6-10.1-13.6-21.2-20.7-31.6c-4.6-6.7-7.5-13.9-8.3-21.9c-0.5-5.5-0.7-10.9,1.9-16.3
			c2.8-5.9,13.1-10.9,19.3-9.3c9.5,2.6,18.8,5.5,27.5,10.2c8.6,4.6,16.8,9.8,24.6,15.5c9.2,6.8,19.6,10.9,30.3,14.5
			c2.8,1,5.6,0.8,8.3-0.4c9.1-3.8,17.5-9,25.6-14.4c7.8-5.4,15.3-11,23.6-15.5c10.8-5.8,22.3-9.3,34.6-9.1c0.9,0,1.9,0,2.5,0.4
			c4.5,3.5,8.1,7.6,8.6,13.7c0.4,4.8,0.3,9.5-0.9,14.2c-6.9,26.9-23,48-42.1,67.2c-1.3,1.3-1.9,2.3-1.7,4.2c0.2,6.4,0.3,13,0.3,19.5
			c0,24.5-1,49-0.2,73.5C385.6,643,386,653.3,386.4,664.3z M290.5,539.5c1.9-0.3,3.3,0.7,4.8,1.4c5,2.4,9.4,5.8,13.9,9
			c3.2,2.2,6.4,4.3,10.3,4.8c7.6,1.1,12.1-1.9,13-9.3c1.3-10.1,1.5-20.3,0.1-30.5c-1.7-12.7-12.1-24.3-24.7-27
			c-8.3-1.9-16.6-1.7-25-1.7c-6,0-11.7-0.8-17.2-3.6c-4-2.2-8.3-3.7-12.6-5.5c-5.5-2.3-9.2-0.2-10.1,5.6c-0.7,4.2-0.7,8.4,0,12.6
			c0.3,2.1-0.3,4.3,1.1,6.3c5.9,8.4,12,16.7,18,25.1c3.9,5.5,9.5,9.8,10.6,17.3c7.8-7.3,15.7-13.9,24.2-20.1c-1.6,3.5-4,6.4-6.8,9
			c-3.5,3.5-5.9,7.7-8.3,11.8c-0.9,1.6-1,3,0,4.5c3.4,5.8,5.7,12,7,18.6c0.5,2.8,1.1,5.8,1.6,8.7c0.4,2.3,1.5,3.5,4.2,3.2
			c9.4-1.1,18.6,0.7,27.6,3.2c2.2,0.5,4.5,1.4,6.8,0.7c5.1-1.7,9.9-4.4,15.5-5.1c-5.7-2.3-10.3-6.3-15.5-9.1c-1.1,1.6-0.8,3.2-1,4.7
			c-0.2,1.3,0.3,3-1.3,3.5c-1.5,0.5-2.6-0.8-3.7-1.7c-2.2-2.3-3-5.2-4.3-8c-0.9-1.7-1.6-3.6-3.5-4.4c-3.4-1.3-5.7-3.8-7.9-6.4
			c-4.4-4.9-9.2-9.4-14.2-13.7C292,542.1,291,541,290.5,539.5z M293.8,444.7c-0.5,5.6,1.9,10.2,6.3,13.9c6.3,5.2,13.6,9.2,21.2,12.1
			c4.6,1.7,9.3,2,13.7,0.3c10.9-4.3,19.6-11.6,26.4-21c2.6-3.7,2.4-8.4,0.3-12.3c-7.7-14.5-15.6-29-23.5-43.5c-2-3.6-5.1-6-8.9-7.8
			c-3.3-1.6-6.1-1.3-9,1.1c-4.8,4.2-9,8.7-11.8,14.5c-5.4,10.6-9.6,21.5-13.3,32.8C294.3,438,293.7,441.1,293.8,444.7z M315.5,186.1
			c-5.5-2.6-6.4-2.4-10.1,1.6c-0.8,0.9-1.4,1.7-2.2,2.6c-17.9,20.9-32.1,44-42.6,69.6c-9.2,22.4-16,45.4-19.2,69.4
			c-1.9,13.8-3.9,27.5-4.9,41.4c-0.3,4-0.8,8.1-0.3,12.2c2,0.1,3.7,0.4,5.6-0.1c0.5-9.3,0.3-18.6,1.4-27.8c1.6-14.6,4.8-29,7.7-43.3
			c8.2-41.6,26.7-78.4,52-111.9C306.5,195,310.6,190.2,315.5,186.1z M269.6,334.3c-0.8-0.4-1-0.5-1.4-0.8c-5.4-2.3-7.8-7.1-6-12.1
			c1.7-5.1,6.1-7.6,11.1-6.2c5.1,1.4,7.5,6.1,6.1,12c-2,8.2-7.1,13.7-14.8,16.9c-6.3,2.7-10.5,7.5-11.9,14.4
			c-2.1,10.8,1.1,20.1,9.3,27.6c2.8,2.6,6.4,4.4,9.8,6.2c8.3,4.6,16.8,8.9,23.7,16c0-2-1.2-3-2.2-4c-4.3-4.7-9.2-8.9-13.8-13.3
			c-6.9-6.7-12.5-14.1-14.3-23.8c-0.7-3.4-1-6.8,0.7-10.3c3.2-7.2,8.1-13.1,13.8-18.4c7.2-6.6,8.6-14.8,7.1-23.7
			c-0.9-5.1-5.6-9-10.2-8.7c-10.7,0.3-19,8.9-19,19.7C257.6,333.3,262,336.4,269.6,334.3z M339.2,185.5c0.3,0.3,0.5,0.8,0.9,1.1
			c6.1,7.5,12.9,14.6,17.7,23.1c8.7,15.3,16.7,31,23.8,47.1c10.7,24.3,18.4,49.6,22.1,76c1.7,11.9,4.2,23.8,4.5,36
			c0.1,4.5,0,8.9,0,13.4c1.3,0,2.8-0.1,4.6-0.9c-0.3-5.6-0.9-11.3-1.1-16.9c-0.8-17.8-3.5-35.4-7.5-52.8
			c-7.2-30.8-16.9-60.7-32.7-88.3c-7.3-12.9-15.3-25.2-24.7-36.7c-3.6-4.3-2-3.5-7.2-1.4C339.6,185.2,339.4,185.4,339.2,185.5z
			 M384.6,326.8c0.2,2.1,0.4,4,2.6,4.6c2.1,0.5,3.4-0.8,4.6-2.3c1.3-1.7,2.1-3.6,2.2-5.8c0.3-7.4-4.2-13.2-11.5-14.3
			c-6.2-1-11.4,1.2-14.9,6.4c-3.2,4.8-0.8,9.3,1.9,13.6c1.2,2,3.1,3.4,4.8,4.8c2,1.5,4,3,5.8,4.7c5.6,5.4,8.5,11.5,6.6,19.7
			c-3.2,13.3-9.7,24.9-17.7,35.8c-2.2,3-4.6,5.9-6.9,8.9c11-6.1,21.9-12.2,33.4-17.2c-3.3-7.4-1.9-14.6,0-21.7
			c1.3-4.7,2.7-9.4-0.3-14c-1.2-1.9-2.6-3.5-4.3-5c-3.3-3.1-6.7-6-9.7-9.3c-4.6-5-5.9-11.4-3.5-16c1.6-3.2,3.6-4.4,6.6-3.8
			c3.5,0.7,5.8,3,6.2,6.2C391.1,326.3,388.7,328.2,384.6,326.8z M342.5,387.8c4.3,5,8,9.9,10.4,15.8c6.3-5.9,10.8-12.7,15.3-19.6
			c5.9-9,8.2-18.7,7.9-29.3c-0.2-9.4-6.4-17.5-15.5-20.1c-6-1.7-10.4-0.2-13.7,5.2c-3.4,5.7-5.1,11.9-4.6,18.6
			c0.5,7.3,5.6,11.5,12.9,10.9c8-0.7,11.3-11.9,8.2-16.6c-1.5-2.3-3.5-2.4-4.9-0.2c0.2,0.4,0.7,0.7,1.1,0.9c2.4,1.1,3,3.4,1.3,5.5
			c-2.1,2.5-7,3.5-9.9,2.1c-1.5-0.8-2.3-2-2.5-3.6c-0.5-4.8,0.4-9.1,3.6-12.8c5.5-6.4,12.8-5.6,16.4,2.2c4.4,9.3,2.5,19.3-5,27.1
			C357.8,380,350.9,384.7,342.5,387.8z M293.1,356.8c-0.9,1.1-1.3,1.5-1.6,2.1c-3.2,4.7-2.3,10.1,1.9,12.5
			c4.4,2.5,10.1,0.5,12.6-4.3c2.6-5.1,3.8-10.5,3.3-16.3c-0.4-4.2-2-7.5-6-9.3c-2.1-1-4.3-1.9-6.4-2.1c-4.2-0.5-8.3-0.1-11.7,2.6
			c-5.7,4.7-8.4,10.8-9.1,18.1c-1.9,19.3,10.2,30.8,23.2,42c2.8-5.2,6.4-9.4,11.4-13c-9.5-0.9-16.1-5.7-22-11.8
			c-6.9-7.1-8.4-18.8-3.6-26.1c2.5-3.9,6.1-6.1,10.8-5.5c6.7,1,9.8,7.3,7.3,14.5c-1.3,3.8-4.5,6.2-7.3,5.4
			C293.2,364.9,292,361.7,293.1,356.8z M302.8,612.8c0.2,3.1,0.5,5.7,0.5,8.2c0.3,11.4,5.1,19.7,15.7,24.4c2.5,1.1,4.8,1.4,7.4,0.7
			c5.4-1.6,10.3-4,15.2-6.4c5.1-2.5,7.4-6.9,8.5-12.1c0.4-2.3-0.9-3.9-3.2-4c-1,0-1.9,0.1-2.8,0.2c-5.6,0.8-11.3,0.5-16.7-0.7
			C318.8,621.2,310.8,618,302.8,612.8z M437.3,383.5c-0.9-3-1.9-5.8-4-8c-2.3-2.2-3.4-4.9-4.4-7.9c-2.2-7.2-0.4-14.1,1.7-21
			c1.6-4.9,3.6-9.8,4.2-15.1c0.7-6.1,0.2-12-3.3-17.4c-2.5-3.8-6.8-5.2-11-4c-4,1.1-7,4.9-7.3,9.3c-0.2,4.3,0.5,8.3,2.1,12.3
			c0.4,1.1,1,2.1,1.9,2.8c1.9,1.6,3.6,1.2,4.2-1.3c0.5-2.3,0.5-4.7-0.3-7.1c-1,0.3-1.6,1.7-2.8,1.1c-1.2-0.7-0.9-2-0.9-3.1
			c0-2,0.4-3.9,1.2-5.8c1-2.4,3-3.4,5.6-3.1c3.2,0.3,5,2.2,5.8,5.5c1.4,6.1-0.4,11.7-3.2,17c-4.2,8.2-7.2,16.8-8.1,26
			c-0.5,5.7-0.3,11.4,0.9,16.9C425.8,380.4,431.6,380.9,437.3,383.5z M326,605.2c1.9,0,3.6,0,5.5,0c9.5,0,17-3.4,22.1-11.8
			c0.7-1.1,0.9-2.1,0.4-3.2c-0.4-1.2-1.5-1-2.5-0.9c-4.9,0.4-9.8,1.1-14,4.3c-3.2,2.5-6.4,2.8-10.2,1c-5.1-2.6-10.5-4.3-16.3-5.1
			c-5.5-0.9-10.8-1.1-16.2-0.2c-1.6,0.2-2.8,1-3.5,2.6c-0.7,1.7,0.4,2.7,1.6,3.6s2.4,1.9,3.7,2.7C305.7,603.6,315.6,605.4,326,605.2
			z M132.6,416.8c-0.4,1.1-0.1,1.6,0,2.3c2.3,10.4,8.7,17.9,16.9,24.4c10.9,8.5,20.8,17.9,27.1,30.5c1.1,2.2,2.8,4.2,4.7,5.7
			c4.7,3.9,9.4,8,16,8.2c2.8,0.1,3.4-0.9,2.2-3.4c-1.4-3.2-3-6.4-3.8-9.8c-0.4-1.5-1.1-2.1-2.7-2.2c-3.4,0-6.7-1-9.4-3.1
			c-5.4-4.2-10.5-8.6-13.6-14.9c-4.8-9.5-12-16.5-21.5-21.2C141.2,429.9,135.8,424.5,132.6,416.8z M226.2,331.2
			c-0.3,1.9-0.3,3.2,1.3,3.9c1.7,0.7,3,0.2,4.3-1.2c3.3-3.9,5.1-8.3,4.5-13.4c-0.3-3-0.3-6.6-3.7-7.8c-3.3-1.2-6.1,0.9-8.4,3.1
			c-5.2,4.9-7.8,11.1-8,18.4c-0.2,7.5,1.5,14.8,3.8,21.9c2.4,7.3,2.3,14.3-1.5,21.3c-1.2,2.2-2.3,4.5-2.3,7.4
			c4.8-1.6,9.5-1.9,14.2-2.6c0.2-1.9,0.4-3.4,0.7-5c1.7-10.7,0.1-20.7-6-29.7c-1.7-2.5-3.1-5.2-3.8-8.3c-1.9-7.1-0.9-13.7,3.7-19.5
			c2.4-3.1,6.1-2.5,7.8,0.8c1.5,3.1-0.4,9.5-3.5,11.3C228.3,332.1,227.3,332,226.2,331.2z M299.6,164.2c-1.5,0.5-0.4,2.1-1.3,3.2
			c-1.7,2-1.3,4.6,0.5,6.6c2.2,2.4,4.7,4.2,7.5,5.5c8.1,3.8,16.7,4.7,25.5,3.9c7.2-0.7,13.6-3.6,18.4-9.3c0.5-0.7,1.6-1.4,1.2-2.4
			c-1.5-3.2-2-6.8-4-9.7C333.3,179.4,314.6,176.2,299.6,164.2z M323.3,294.6c7.8,0,13.9-5.4,14-12.3c0.1-7.1-6.1-12.9-13.9-12.9
			c-7.6,0-13.9,5.7-13.9,12.6C309.5,288.9,315.6,294.6,323.3,294.6z M317.3,380.3c2.5,0.1,4.8-0.7,6.8-2c2.6-1.9,4.7-1.5,7.1,0.3
			c1.3,1.1,2.7,2.5,5.1,2.1c-4.6-5.9-6.9-12.2-6-19.7c0.9-7.1,3.2-13.7,7.2-19.7c-5.1-3-8.3-7.5-12.3-11.3c-4,3.3-8,6.4-11.9,9.6
			C325.7,346.1,330.9,360.9,317.3,380.3z M453.3,353.5c0.7,2.4,0.3,4.8,2,6.6c1-0.5,1.2-1.3,1.4-2c1.9-8.7,1.1-17.3-2.7-25.4
			c-2.2-4.6-7.2-4.5-9.9-0.1c-2.2,3.5-2.2,7.4-1.7,11.4c0.8,6,1.6,11.9,2.4,17.8c1.1,8.4,2.7,16.8-2,24.8c3,2.2,4.9,5,7.2,8.1
			c0.9-2.8,1.2-5.4,1.4-7.9c0.7-9-0.8-17.8-2-26.8c-0.9-6-1.5-12.1-0.2-18.1c0.2-1.1,0.5-2.4,1.9-2.6c1.3-0.2,2.1,1,2.5,2
			c1.2,2.5,2.2,5.1,2.3,7.9C455.8,351.1,456,353.2,453.3,353.5z M452.8,487.4c5.6-0.2,10.2-2.3,14.5-5.1
			c8.2-5.2,12.8-13.4,17.3-21.6c5.7-10.4,12.3-20.1,21.2-28.2c3.5-3.2,6.6-6.7,9.2-10.6c2.6-3.8,5.1-7.8,6.2-12.3
			c-4.2,6.6-9.3,12.3-14.8,17.8c-8.4,8.3-16,17.2-21.5,27.6c-5.6,10.3-14.2,16.4-25.4,19.2c-1,0.2-1.9,0.4-2.3,1.7
			C455.9,479.5,454.4,483.2,452.8,487.4z M419,252c0.7,9.8,5.4,17.3,13.6,22.8c1.7,1.2,3.3,0.7,4.7-0.5c1.7-1.4,2.3-3.5,2.3-5.7
			c0.1-3.4-0.7-6.7-1.9-9.7c-1.7-4.7-3.4-9.6-7.8-12.7c-2.1-1.4-4.6-3.8-7.1-2.5C419.9,245.1,419.1,248.5,419,252z M196.8,359.1
			c-0.1-0.7-0.2-1.3-0.3-2c-0.3-4.8-0.1-9.5,2.7-13.8c0.9-1.3,2-2.6,3.7-1.7c1.5,0.8,2.5,2,2.1,3.9c-0.3,1.4-0.5,2.8-0.7,4.3
			c-1.1,13.3-0.8,26.7-0.5,40c0,1.1-0.2,2.3,0.8,3.5c1.6-2.2,2.6-4.8,5.5-5.6c-2.6-12-3.5-23.9-2.3-36c0.2-2.6,0.2-5.4,0-8
			c-0.2-3.6-1.2-7.1-3.5-10.1c-1.3-1.7-2.6-1.6-3.9,0c-1.7,2.1-2.8,4.5-3.6,7.1C194.6,346.7,194.4,352.9,196.8,359.1z M335.4,144.6
			c-1.9,3.6-3.9,6.7-8.4,7.5c-4.6,1-8-1.2-11.5-4.2c-0.3-1.3,0.3-3.1-0.4-5c-2.4,1.9-4.5,3.8-5.8,6.3c-2.4,4.6-1.1,7.6,3.8,9.5
			c4.7,1.7,9.6,2.2,14.6,1.5C335.8,159.4,339.6,151.4,335.4,144.6z M178.7,435.5c0,2.3,2,2,3.1,2.7c2.3,1.9,3.6,0.7,5-0.9
			c2.4-2.6,4.2-5.7,5.4-9.1c3.1-8.3,3.9-16.7-0.3-24.9c-2.7-5.2-7.4-5.6-11.4-0.9c0.9,0.2,1.9,0.8,2.5,0.5c2.2-0.8,2.6,0.7,2.7,2
			c1,6.9,5,13.7,1,20.8c-0.2,0.3-0.1,1-0.2,1.4C185,433.3,183.6,434.8,178.7,435.5z M196.7,404.6c4.4-5.5,4.4-7.4-0.1-12
			c-2.2-2.2-4.6-4-6.8-6.1c-4.9-4.6-6.4-10.3-3.9-15.4c0.8-1.7,1.7-3.8,4-3.4c2.4,0.4,1.9,2.7,2,4.5c0,0.1,0.1,0.2,0.2,0.3
			c0.3-1.4,0.9-2.8,0.5-4.3c-0.3-1.7-0.5-3.8-2.6-4.4c-2.1-0.5-3.9,0.1-5.5,1.7c-5.9,6.3-5.2,19,0.9,25
			C189.7,394.8,195,398.1,196.7,404.6z M215.5,277.1c1.4-0.9,2.3-1.2,3.1-1.9c6.3-5.4,9.8-12.2,10.9-20.3c0.3-2.1-1.2-3.3-3.4-3
			c-3.2,0.4-5.6,2.2-7.2,4.7C214.7,262.7,214,269.3,215.5,277.1z M463.6,357.6c1.9-0.5,3.8-0.7,3.5,1.5c-0.7,5.4-0.4,11.1-4,15.5
			c-4.2,5-5.2,10.9-6.3,17c1-1.4,2.7-2.3,3.1-4.3c0.4-2.8,1.7-5.4,3.5-7.8c5-7,5.5-15,5.1-23.2c0-1-0.2-2.3-1.5-2.4
			c-1.2-0.1-1.9,0.8-2.5,1.6C464.2,356.2,464,356.8,463.6,357.6z M324.3,212.1c-2.8,0-5,2.2-5,5.1c0,2.8,2.2,5.1,5,5.1
			c2.7,0,5-2.3,5-5.1C329.3,214.4,327.1,212.1,324.3,212.1z M277,198.6c-7-1-14.3,4.5-13.3,9.8C267.9,209.1,275.9,203.2,277,198.6z
			 M385.7,206.3c-0.4-4.6-5.2-9.4-9.4-9.3C375.7,201,381.6,206.9,385.7,206.3z"/>
		<path d="M224.7,543.6c1,0.1,0.7-1.1,1.5-1.3c1.4,2.1,1.5,4.6,2.2,6.9c1,3.7,1.6,7.5,2.5,11.3c0.8,3.1-1,6.4-2.3,9.9
			c-3.7-2.5-8-1.7-11.9-2.3c-6.1-0.9-11.6-3.6-16.5-7.2c-4.7-3.5-9.5-6.2-15.7-6.7c-4.9-0.3-9-3.5-12.2-7.3c-5-5.7-7.8-12.5-8.3-20
			c-0.2-3.1-0.7-6,0.1-9.9c0.8,4.8,2,8.5,3.7,12.1c4.3,8.2,11,13.1,19.8,15.6c5.5,1.5,10.5,3.9,14.9,7.7c7.6,6.4,17.2,7.8,26.9,9.5
			c-2-5.9-3-11.6-3.8-17.4C225.3,544.1,224.9,543.9,224.7,543.6C224.7,543.5,224.7,543.6,224.7,543.6z"/>
		<path d="M403.6,416.4c-0.2,5.1-3.6,9.2-7.8,9c-4.9-0.2-8.6-4-8.3-8.7c0.2-4.4,4.8-8.4,9.2-8.2
			C400.4,408.7,403.8,412.6,403.6,416.4z"/>
		<path d="M445.9,428.7c0,0.2-0.1,1-0.3,1.7c-1.1,4.4-4,6.8-7.3,5.9c-3.3-0.8-5.8-5.4-4.9-9.1c0.1-0.3,0.1-0.5,0.1-0.9
			c1-3.9,3.9-6.4,6.9-6C443.7,420.8,446,424.1,445.9,428.7z"/>
		<path d="M262.3,418.3c-0.1,4.2-3.1,7.3-6.9,7.3c-3.8-0.1-6.9-3.6-6.7-7.8c0.2-4,3.4-7.3,7.1-7.1
			C259.7,410.9,262.4,414.1,262.3,418.3z"/>
		<path d="M233.3,499.1c0,3.9-2.7,7.8-5.7,7.8c-4.2,0-7.4-3.4-7.5-7.8c-0.1-3.9,2.8-7.3,6.4-7.4
			C230.4,491.5,233.3,494.7,233.3,499.1z"/>
		<path d="M221.3,427.8c-0.1,4.4-2.7,7.5-6.2,7.4c-3.6-0.1-6.6-3.9-6.3-8.1c0.2-4,3.1-7.4,6.1-7.3
			C218.6,420,221.4,423.5,221.3,427.8z"/>
		<path d="M258.7,554.4c-3.6,0-6.7-3.3-6.7-7.4c0-4,2.7-7.1,6.2-7.1c3.6,0,6.9,3.6,6.9,7.4C265,551.1,262,554.4,258.7,554.4z"/>
		<path d="M404.7,543.2c0,4-2.8,7.5-6.4,7.6c-3.7,0.1-6.7-3-6.7-7c0-3.9,3-7.2,6.6-7.2C401.6,536.8,404.6,539.7,404.7,543.2z"/>
		<path d="M434.5,488.2c-0.2,3-1,5.7-3,7.8c-2.5,2.8-6.1,2.2-7.4-1.4c-1.3-3.5-0.7-6.8,1.2-9.8c1.1-1.7,2.6-3.2,4.8-3
			c2.4,0.3,3.4,2.2,3.9,4.4C434.3,486.9,434.4,487.7,434.5,488.2z"/>
		<path d="M390.8,621.1c0-3.6,2.4-6.6,5.4-6.6c3,0,5.6,3,5.6,6.4c0,3.7-2.4,6.8-5.5,6.9C393.1,627.8,390.8,625,390.8,621.1z"/>
		<path d="M261.2,620.9c0.2,4.4-1.9,7.5-5,7.8c-3,0.2-5.6-2.6-5.8-6.2c-0.2-3.5,2.3-6.8,5.4-6.9C259,615.4,261,617.4,261.2,620.9z"
			/>
		<path d="M327.5,448.9c-3.5,0.2-6.9-0.2-10.1-1.1c-6.7-1.9-10.2-6.1-10.1-13.1c0.1-7.6,2.4-14.5,7.4-20.4c2.6-3.1,5.7-4.7,9.5-5.5
			c2.7-0.5,5.1,0.1,6.8,2.1c5.7,6.4,11.1,13,14,21.2c1.4,4.2,0.4,7.6-2.3,10.8C338.9,447.9,333.4,449.3,327.5,448.9z"/>
	</g>
</g>
<g>
	<g>
		<path fill="#C4BA98" stroke="#000000" stroke-width="0.5" stroke-miterlimit="10" d="M488.4,586.1v-10.5h8.2v1.8h-6.3v2.8h3.4v1.9
			h-3.4v3.3L488.4,586.1z"/>
		<path fill="#C4BA98" stroke="#000000" stroke-width="0.5" stroke-miterlimit="10" d="M498.8,578.1c0-1,0.1-1.6,0.4-2
			c0.3-0.3,0.8-0.5,1.6-0.5h6c0.8,0,1.3,0.2,1.6,0.5s0.4,1,0.4,2v5.5c0,1-0.1,1.6-0.4,2c-0.3,0.3-0.8,0.5-1.6,0.5h-6
			c-0.8,0-1.3-0.2-1.6-0.5s-0.4-1-0.4-2V578.1z M500.7,584.1h6.2v-6.7h-6.2V584.1z"/>
		<path fill="#C4BA98" stroke="#000000" stroke-width="0.5" stroke-miterlimit="10" d="M512.8,584.4v-8.8h6.9c0.7,0,1.1,0.2,1.4,0.5
			c0.3,0.3,0.4,0.8,0.4,1.6v2.5c0,0.7-0.2,1.2-0.4,1.6c-0.3,0.3-0.8,0.5-1.4,0.5h-1.1l3.8,4h-2.7l-3.3-4h-1.8v1.9L512.8,584.4z
			 M518.9,577.4h-4.3v2.9h4.3c0.3,0,0.6-0.1,0.7-0.2c0.1-0.1,0.2-0.3,0.2-0.7v-1.3c0-0.3-0.1-0.5-0.2-0.6
			C519.4,577.5,519.2,577.4,518.9,577.4z"/>
	</g>
	<g>
		<path fill="#C4BA98" stroke="#000000" stroke-width="0.5" stroke-miterlimit="10" d="M474.2,607.2c0.7-0.1,1.1,0.2,1.1,1v1.2h2
			c0.8,0,1,0.3,0.5,0.8h-2.6c0,1.4,0.1,2,0.3,2c0.4,0.1,0.7,0,1-0.1c0.9-0.2,1.3,0.1,1.2,1c-0.1,0.6-0.1,1.5-0.1,2.7
			c0.1,0.9-0.4,1.2-1.4,1c-1.1-0.4-2.2-0.4-3.4,0c-0.7,0.5-1.1,0.2-1.2-0.7c-0.1-0.9-0.3-1.9-0.5-3c0.1-0.7,0.6-1,1.5-0.7
			c0.7,0.1,1.1-0.1,1.1-0.5c0-1,0-2-0.1-2.9C473.4,607.7,473.6,607.1,474.2,607.2z M472.9,613.8c-0.1,1.1,0.1,1.7,0.5,1.8
			c2.1,0.3,3,0,2.9-1c0.2-1.3-0.7-1.8-2.6-1.5C473.1,613.1,472.9,613.3,472.9,613.8z M478.3,610.6c0.4,0,0.6,0,0.7-0.1
			c-0.1-1-0.1-2-0.1-2.9c-0.1-0.6,0.2-0.9,1-0.8c0.5,0,0.7,0.2,0.7,0.7c-0.1,0.8-0.1,1.8,0,2.9c3-0.5,4.5-0.5,4.4,0
			c0.2,0.3,0.1,0.4-0.1,0.4c-1.4,0.2-2.7,0.4-4.1,0.7c0.3,0.8,0.5,1.5,0.8,2c0.4-0.5,0.7-1,1.1-1.6c0.3-0.3,0.5-0.4,0.8-0.3
			c0.4,0.3,0.5,0.6,0.4,1c-0.5,0.7-1,1.3-1.5,1.8c1,1,2.6,1.5,4.9,1.4c0.2,0.1-0.1,0.5-0.8,1.4c-1,1-2,1.2-3.1,0.5
			c-0.5-0.4-1.2-1-2.2-2c-0.9,0.6-1.9,1-2.9,1.1c-0.5-0.1-0.5-0.3-0.3-0.5c0.9-0.3,1.7-0.8,2.5-1.6c-0.4-0.5-0.7-1.5-1.1-2.7
			c-0.5,0.1-0.9,0.2-1.2,0.4c-0.5,0.1-0.8-0.2-0.7-0.8C477.4,611,477.7,610.7,478.3,610.6z M482.7,607.5c0.3-0.6,0.6-0.8,1.1-0.5
			c0.5,0.3,0.6,0.6,0.4,1.1c-0.4,0.5-1,0.9-1.8,1c-0.4,0-0.5-0.1-0.4-0.4C482.3,608.2,482.5,607.9,482.7,607.5z"/>
		<path fill="#C4BA98" stroke="#000000" stroke-width="0.5" stroke-miterlimit="10" d="M493.5,610.6c0.5,0,0.8,0.1,1,0.4
			c-0.1,0.4-0.4,0.5-1,0.4c-0.5,0-1.1,0-1.6,0.1c0.2,0.3,0.1,0.5-0.3,0.8l-0.7,0.7c-0.3,0.4,0,0.6,0.7,0.7c0.5,0.1,1-0.1,1.4-0.5
			l-0.4-0.8c0.1-0.3,0.3-0.4,0.5-0.3c0.3,0.2,0.5,0.4,0.8,0.5c0.2,0.4,0.4,0.8,0.7,1.2c-0.1,0.2-0.2,0.3-0.3,0.3
			c-0.4,0.1-0.7-0.1-1.1-0.5c-0.5,1-1.1,1.4-1.8,1.1c-0.5-0.4-1-0.4-1.5-0.1c-0.2,0-0.4-0.1-0.5-0.4c-0.1-0.4,0.1-0.7,0.5-1.1
			c0.8-0.7,1.1-1.2,0.8-1.5c-0.4-0.1-0.9,0-1.6,0.3c-0.3,0.2-0.5,0.1-0.5-0.1c0.1-0.6,0.4-1,1-1.1L493.5,610.6L493.5,610.6z
			 M493.5,608.7c0.3,0,0.5,0.1,0.5,0.4c0,0.3-0.1,0.4-0.3,0.4h-2.2c-0.6,0-1.2,0-1.8,0.1c-0.2-0.1-0.3-0.3-0.3-0.5
			c0.1-0.3,0.3-0.5,0.5-0.7C490.7,608.6,491.8,608.7,493.5,608.7z M497,612.5c-0.3-0.1-0.5-0.1-0.8,0c-0.3,0.2-0.5,0.3-0.8,0.4
			c-0.2,0-0.3,0-0.4-0.1c-0.2-1.4-0.4-2.6-0.5-3.7c-0.1-0.5,0.2-0.8,0.8-0.8c0.3,0.2,0.7,0.2,1.4,0.1c0.3-0.3,0.6-0.7,1-1.4
			c0.1-0.2,0.3-0.3,0.5-0.3c0.8,0.3,1,0.6,0.7,1c-0.3,0.3-0.5,0.5-0.7,0.7c0.6,0,1.5,0.1,2.5,0.3c0.3-0.1,0.5-0.2,0.7-0.3
			c0.3-0.1,0.5,0,0.7,0.1c0.4,0.3,0.5,0.7,0.3,1.2c-0.3,0.8-0.5,1.7-0.5,2.6l-0.4,0.3c0.4,0.3,0.4,0.5,0.1,0.7
			c-0.2,0.2-0.4,0.4-0.5,0.5c-0.2,0.1-0.1,0.2,0.1,0.4c0.4,0.1,0.7,0,1-0.1c-0.4-0.3-0.4-0.5-0.1-0.5c0.4,0,0.6,0,0.8,0.1
			c0.2,0.3,0.4,0.5,0.5,0.8c-0.1,0.1-0.2,0.2-0.4,0.3l-0.5-0.4c-0.2,0.5-0.5,0.8-1,0.7c-0.4-0.3-0.7-0.4-1.1-0.3
			c-0.3-0.2-0.4-0.4-0.3-0.7c0.2-0.2,0.4-0.4,0.5-0.7c0.1-0.2,0.2-0.5,0.4-0.8c-0.7-0.1-1.6-0.1-2.6-0.1c-0.6,2.1-1.9,3.6-3.7,4.5
			c-1.5,0.5-2.5,0.3-3.3-0.7c0-0.1,0.2-0.1,0.5-0.1C494.7,616,496.4,614.7,497,612.5z M497.4,609.1c-0.6,0-1.1,0.1-1.5,0.3
			c-0.2,0.5-0.1,0.8,0.3,0.8l1.5-0.1C497.8,609.6,497.7,609.3,497.4,609.1z M497.6,610.8c-0.5,0-1,0-1.6,0.1c0,0.6,0.1,1,0.4,1
			l1-0.1L497.6,610.8z M498.5,613.2c0.1-0.4,0.3-0.5,0.5-0.5c0.2,0,0.3,0.1,0.4,0.3c-0.2,0.4-0.3,0.7-0.4,1.1c0,0.4,0,0.6,0.1,0.8
			c0.4,0.5,1.1,0.8,2.2,1c0.9,0.1,1.8,0,2.6-0.3c0.5-0.3,0.9-0.3,1.1-0.1c-0.1,0.5-0.4,1.2-1,1.9c-0.6,0.5-1.2,0.7-1.6,0.5
			c-1.5-0.3-2.8-0.9-3.8-1.9c-0.5-0.5-0.6-1-0.5-1.5C498.3,614,498.4,613.6,498.5,613.2z M500.6,612c0.2-0.4,0.2-0.7,0.1-1
			c-0.4-0.2-1-0.3-2-0.3c-0.1,0.4-0.1,0.7-0.1,1.1C499.3,612,499.9,612,500.6,612z M498.8,610.1l1.5,0.1c0.4,0.1,0.5-0.1,0.5-0.5
			c0-0.4-0.5-0.5-1.6-0.5C498.9,609.2,498.8,609.5,498.8,610.1z"/>
		<path fill="#C4BA98" stroke="#000000" stroke-width="0.5" stroke-miterlimit="10" d="M510.8,610c0.2-0.4,0.3-0.5,0.4-0.5
			c0.5-0.1,0.6,0.2,0.4,1c-0.3,0.8-0.7,1.7-1.2,2.6c-0.5,0.7-0.9,1.3-1.4,1.6c-0.9,0.8-1.9,0.8-2.9-0.1c-0.3-0.3-0.2-0.5,0.3-0.8
			C508,612.9,509.4,611.7,510.8,610z M513.9,607.2c0.9-0.1,1.3,0.4,1.2,1.5c-0.1,2.3,0,4.8,0.1,7.6c0,1.1-0.9,1.6-2.6,1.5
			c-0.9-0.1-2-0.6-3.1-1.5c-0.2-0.5-0.1-0.7,0.3-0.7c1.7,0.5,2.8,0.6,3.1,0.3c0.3-0.2,0.4-2.7,0.3-7.6
			C513.3,607.6,513.5,607.2,513.9,607.2z M516.1,610.4c-0.3-0.4-0.2-0.6,0.1-0.8c0.2-0.1,0.4,0,0.5,0.1c1.3,1.6,3.2,3,5.7,4.2
			c-0.3,0.5-0.5,0.8-0.8,1c-0.8,0.7-1.6,0.7-2.3,0C518.2,613.4,517.1,611.9,516.1,610.4z"/>
		<path fill="#C4BA98" stroke="#000000" stroke-width="0.5" stroke-miterlimit="10" d="M529.7,612.3c-0.3,0.9-0.5,1.6-0.8,2l1.8-0.3
			c-0.1-0.4-0.1-0.7-0.1-1.1c0.1-0.4,0.4-0.6,1-0.7c0.4,0,0.7,0.1,1,0.3c0.4,0.1,0.6,0.1,0.8,0V608c0-0.5,0.2-0.9,0.5-1
			c0.9,0,1.4,0.3,1.4,1c-0.1,0.5-0.1,0.8-0.1,1.1c1.9,0.1,3.5,0.1,4.8,0.1c0,0.5-0.1,0.9-0.4,1.2c-0.4,0.4-0.7,0.5-1.1,0.3
			c-1.5-0.5-2.5-0.6-3.3-0.4c-0.2,0.7-0.2,1.5,0,2.2c0.6,0.1,1.1,0,1.5-0.1c1.2-0.4,1.8,0,1.8,1c-0.2,0.7-0.3,1.6-0.3,2.7
			c0.2,1.2-0.2,1.6-1.2,1.2c-1.3-0.2-2.6-0.2-4.1-0.1c-1.1,0.5-1.7,0.2-1.8-1c0-0.3,0-0.8-0.1-1.5c-1.8,0.8-4,1.5-6.4,1.9
			c-0.8,0.2-1.2-0.1-1.1-1c0-0.5,0.5-0.7,1.4-0.8c1-0.1,2.1-0.2,3.4-0.4c0.3-1,0.4-2,0.4-2.9c0-0.6,0.2-1,0.5-1
			C529.7,610.7,529.9,611.3,529.7,612.3z M528.6,608c-0.1,1.1,0,1.6,0.3,1.5l1.9,0.1c0.5,0.4,0.5,0.6,0.1,0.8
			c-0.2,0.1-0.5,0.1-1,0.1c-1.8-0.4-3.7-0.2-5.6,0.4c-0.4,0.1-0.5,0-0.5-0.4c0.2-0.8,0.5-1.2,1.1-1.1c0.7,0.2,1.3,0.2,1.6,0.1
			c0.3-0.1,0.4-0.6,0.3-1.6c0.1-0.4,0.3-0.5,0.5-0.5C527.9,607.4,528.3,607.6,528.6,608z M527.2,614c-0.2,0.3-0.4,0.3-0.7,0.1
			c-0.5-0.8-0.9-1.5-1-2.2c-0.1-0.6,0.1-1,0.7-1.1c0.5-0.1,0.7,0.1,0.7,0.5C527,612.4,527.1,613.2,527.2,614z M534.8,613.5
			c-1.3-0.1-2.1,0-2.5,0.3c-0.3,0.6-0.3,1.3,0,1.9c0.1,0.5,1.1,0.6,3,0.4c0.8,0,1.2-0.5,1.2-1.4C536.6,613.8,536,613.4,534.8,613.5z
			"/>
	</g>
	
		<linearGradient id="SVGID_1_" gradientUnits="userSpaceOnUse" x1="423.0472" y1="320.7225" x2="423.0472" y2="320.7225" gradientTransform="matrix(1.0929 0 0 -1.0929 0 955.5428)">
		<stop  offset="0" style="stop-color:#C4BA98"/>
		<stop  offset="1.474962e-002" style="stop-color:#CEC5A9"/>
		<stop  offset="4.332456e-002" style="stop-color:#DDD7C4"/>
		<stop  offset="7.615717e-002" style="stop-color:#EAE6DA"/>
		<stop  offset="0.1145" style="stop-color:#F3F1EB"/>
		<stop  offset="0.162" style="stop-color:#FAF9F6"/>
		<stop  offset="0.2285" style="stop-color:#FEFEFD"/>
		<stop  offset="0.4133" style="stop-color:#FFFFFF"/>
		<stop  offset="0.4696" style="stop-color:#DDDBD8"/>
		<stop  offset="0.5499" style="stop-color:#B2AFA6"/>
		<stop  offset="0.6258" style="stop-color:#908B7F"/>
		<stop  offset="0.6952" style="stop-color:#787263"/>
		<stop  offset="0.7558" style="stop-color:#696252"/>
		<stop  offset="0.801" style="stop-color:#645D4C"/>
		<stop  offset="0.8499" style="stop-color:#776F5B"/>
		<stop  offset="0.9484" style="stop-color:#A89F82"/>
		<stop  offset="1" style="stop-color:#C4BA98"/>
	</linearGradient>
	
		<linearGradient id="SVGID_2_" gradientUnits="userSpaceOnUse" x1="423.0472" y1="320.7225" x2="423.0472" y2="320.7225" gradientTransform="matrix(1.0929 0 0 -1.0929 0 955.5428)">
		<stop  offset="0" style="stop-color:#C4BA98"/>
		<stop  offset="1.389108e-002" style="stop-color:#C7BD9D"/>
		<stop  offset="0.1655" style="stop-color:#E5E1D2"/>
		<stop  offset="0.2794" style="stop-color:#F8F7F3"/>
		<stop  offset="0.3418" style="stop-color:#FFFFFF"/>
		<stop  offset="0.4046" style="stop-color:#E1E0DC"/>
		<stop  offset="0.5083" style="stop-color:#B5B1A9"/>
		<stop  offset="0.6058" style="stop-color:#928D81"/>
		<stop  offset="0.6943" style="stop-color:#797364"/>
		<stop  offset="0.7708" style="stop-color:#696352"/>
		<stop  offset="0.8265" style="stop-color:#645D4C"/>
		<stop  offset="0.8691" style="stop-color:#776F5B"/>
		<stop  offset="0.955" style="stop-color:#A89F82"/>
		<stop  offset="1" style="stop-color:#C4BA98"/>
	</linearGradient>
	<path fill="url(#SVGID_1_)" stroke="url(#SVGID_2_)" stroke-width="0.5" stroke-miterlimit="10" d="M462.3,605"/>
	
		<linearGradient id="SVGID_3_" gradientUnits="userSpaceOnUse" x1="430.3731" y1="326.2697" x2="430.3731" y2="326.2697" gradientTransform="matrix(1.0929 0 0 -1.0929 0 955.5428)">
		<stop  offset="0" style="stop-color:#C4BA98"/>
		<stop  offset="1.474962e-002" style="stop-color:#CEC5A9"/>
		<stop  offset="4.332456e-002" style="stop-color:#DDD7C4"/>
		<stop  offset="7.615717e-002" style="stop-color:#EAE6DA"/>
		<stop  offset="0.1145" style="stop-color:#F3F1EB"/>
		<stop  offset="0.162" style="stop-color:#FAF9F6"/>
		<stop  offset="0.2285" style="stop-color:#FEFEFD"/>
		<stop  offset="0.4133" style="stop-color:#FFFFFF"/>
		<stop  offset="0.4696" style="stop-color:#DDDBD8"/>
		<stop  offset="0.5499" style="stop-color:#B2AFA6"/>
		<stop  offset="0.6258" style="stop-color:#908B7F"/>
		<stop  offset="0.6952" style="stop-color:#787263"/>
		<stop  offset="0.7558" style="stop-color:#696252"/>
		<stop  offset="0.801" style="stop-color:#645D4C"/>
		<stop  offset="0.8499" style="stop-color:#776F5B"/>
		<stop  offset="0.9484" style="stop-color:#A89F82"/>
		<stop  offset="1" style="stop-color:#C4BA98"/>
	</linearGradient>
	
		<linearGradient id="SVGID_4_" gradientUnits="userSpaceOnUse" x1="430.3731" y1="326.2697" x2="430.3731" y2="326.2697" gradientTransform="matrix(1.0929 0 0 -1.0929 0 955.5428)">
		<stop  offset="0" style="stop-color:#C4BA98"/>
		<stop  offset="1.389108e-002" style="stop-color:#C7BD9D"/>
		<stop  offset="0.1655" style="stop-color:#E5E1D2"/>
		<stop  offset="0.2794" style="stop-color:#F8F7F3"/>
		<stop  offset="0.3418" style="stop-color:#FFFFFF"/>
		<stop  offset="0.4046" style="stop-color:#E1E0DC"/>
		<stop  offset="0.5083" style="stop-color:#B5B1A9"/>
		<stop  offset="0.6058" style="stop-color:#928D81"/>
		<stop  offset="0.6943" style="stop-color:#797364"/>
		<stop  offset="0.7708" style="stop-color:#696352"/>
		<stop  offset="0.8265" style="stop-color:#645D4C"/>
		<stop  offset="0.8691" style="stop-color:#776F5B"/>
		<stop  offset="0.955" style="stop-color:#A89F82"/>
		<stop  offset="1" style="stop-color:#C4BA98"/>
	</linearGradient>
	<path fill="url(#SVGID_3_)" stroke="url(#SVGID_4_)" stroke-width="0.5" stroke-miterlimit="10" d="M470.3,599"/>
	<g>
		<g>
			<path fill="#C4BA98" stroke="#000000" stroke-width="0.5" stroke-miterlimit="10" d="M466.8,591.6h-5.3v4.1h2.8v2.8h-2.8v5
				l-1.6,0.7v-15.5h6.8V591.6"/>
			<path fill="#C4BA98" stroke="#000000" stroke-width="0.5" stroke-miterlimit="10" d="M468.7,601.7V601v-12h5.8
				c0.5,0,0.9,0.2,1.2,0.7c0.2,0.5,0.4,1.3,0.4,2.3v3.7c0,1.1-0.1,1.8-0.4,2.3c-0.2,0.5-0.6,0.7-1.2,0.7h-0.9l3.1,5.9h-2.3l-2.7-5.9
				h-1.5v1.9v0.9L468.7,601.7z M473.8,591.6h-3.5v4.3h3.5c0.3,0,0.5-0.1,0.6-0.3c0.1-0.2,0.2-0.5,0.2-1v-1.9c0-0.5-0.1-0.8-0.2-0.9
				C474.3,591.7,474.1,591.6,473.8,591.6z"/>
			<path fill="#C4BA98" stroke="#000000" stroke-width="0.5" stroke-miterlimit="10" d="M479.2,604.5v-15.6h1.6v15.6H479.2z"/>
			<path fill="#C4BA98" stroke="#000000" stroke-width="0.5" stroke-miterlimit="10" d="M484.2,604.5v-15.6h6.9v2.7h-5.3v3.5h3.1
				v2.7h-3.1v3.9h5.4v2.9L484.2,604.5L484.2,604.5z"/>
			<path fill="#C4BA98" stroke="#000000" stroke-width="0.5" stroke-miterlimit="10" d="M494.1,604.5v-15.6h1.1l4.8,9.2
				c0.2,0.3,0.3,0.6,0.4,0.9c0.1,0.3,0.2,0.6,0.3,0.8c0-0.9,0-1.5-0.1-1.9c0-0.4,0-0.6,0-0.8v-8.2h1.4v15.6H501l-4.9-9.6
				c-0.1-0.3-0.2-0.5-0.3-0.7c-0.1-0.2-0.2-0.4-0.3-0.6c0,0.5,0,0.9,0,1.4s0,0.8,0,1.1v8.4H494.1L494.1,604.5z"/>
			<path fill="#C4BA98" stroke="#000000" stroke-width="0.5" stroke-miterlimit="10" d="M505.5,604.5v-15.6h4.3c1.2,0,2.2,0.7,2.8,2
				c0.7,1.3,1,3.2,1,5.7c0,1.5-0.1,2.8-0.4,3.9c-0.3,1.2-0.6,2.1-1.1,2.8c-0.3,0.4-0.7,0.7-1.1,0.9c-0.4,0.2-1,0.3-1.7,0.3
				L505.5,604.5L505.5,604.5z M507,601.6h2c1.1,0,1.8-0.4,2.3-1.2c0.4-0.8,0.7-2.1,0.7-3.8c0-1.6-0.2-2.8-0.6-3.6
				c-0.4-0.8-0.9-1.2-1.7-1.2H507L507,601.6L507,601.6z"/>
			<path fill="#C4BA98" stroke="#000000" stroke-width="0.5" stroke-miterlimit="10" d="M522.4,591.6H518v3.3h4.2
				c0.7,0,1.1,0.3,1.3,0.8c0.2,0.5,0.3,1.5,0.3,2.9v2.2c0,1.4-0.1,2.4-0.3,2.9c-0.2,0.5-0.7,0.8-1.3,0.8H518c-0.7,0-1.1-0.3-1.3-0.8
				c-0.2-0.5-0.3-1.5-0.3-2.9v-0.4l1.4-0.7v1.8h4.8V598h-4.2c-0.7,0-1.1-0.3-1.3-0.8c-0.2-0.5-0.3-1.5-0.3-2.9v-1.7
				c0-1.4,0.1-2.4,0.3-2.9c0.2-0.5,0.7-0.8,1.3-0.8h3.8c0.6,0,1.1,0.3,1.3,0.8c0.2,0.5,0.4,1.4,0.4,2.7v0.3l-1.4,0.8V591.6
				L522.4,591.6z"/>
			<path fill="#C4BA98" stroke="#000000" stroke-width="0.5" stroke-miterlimit="10" d="M533.6,602.2v-4.4h-4.9v6.2l-1.6,0.6v-15.6
				h1.6v6.1h4.9v-6.1h1.6v12.7L533.6,602.2z"/>
			<path fill="#C4BA98" stroke="#000000" stroke-width="0.5" stroke-miterlimit="10" d="M538.6,604.5v-15.6h1.6v15.6H538.6z"/>
			<path fill="#C4BA98" stroke="#000000" stroke-width="0.5" stroke-miterlimit="10" d="M543.6,604.5v-15.6h5.8
				c0.5,0,0.9,0.2,1.2,0.7c0.2,0.5,0.4,1.3,0.4,2.3v3.5c0,1.1-0.1,1.8-0.4,2.3c-0.2,0.5-0.6,0.7-1.2,0.7h-4.2v5.4L543.6,604.5z
				 M548.7,591.6h-3.5v4.1h3.5c0.3,0,0.5-0.1,0.6-0.3c0.1-0.2,0.2-0.5,0.2-1v-1.7c0-0.5-0.1-0.8-0.2-0.9
				C549.2,591.7,549,591.6,548.7,591.6z"/>
		</g>
	</g>
</g>
</svg>
