<?xml version="1.0" encoding="utf-8"?>
<!-- Generator: Adobe Illustrator 18.1.1, SVG Export Plug-In . SVG Version: 6.00 Build 0)  -->
<svg version="1.1" id="图层_1" xmlns="http://www.w3.org/2000/svg" xmlns:xlink="http://www.w3.org/1999/xlink" x="0px" y="0px"
	 viewBox="0 0 560 560" enable-background="new 0 0 560 560" xml:space="preserve">
	 <style type="text/css">
	.st0{fill:#FFFFFF;}
</style>
<g>
	<g>
		<path class="st0" d="M174.3,243.8c-3-8.7-5.9-17.4-9-26c-5.2-14.8-11.9-28.9-17.8-43.4c-6.8-16.7-11.7-34-16.7-51.3c-1.7-6-1.4-12.3-2-18.5
			c-0.2-2.6-0.7-5.2-0.5-7.9c0.6-0.1,0.7,0.3,0.7,0.6c7.2,22.4,17.6,43.3,28.7,64c4.8,9,8.4,18.5,10.7,28.5c0.1,0.6,0.3,1.2,0.5,1.9
			c0.1,0.2,0.2,0.4,0.5,0.8c0.9-1.1,0.5-2.2,0.4-3.2c-1.3-11-5.3-21-10.3-30.8c-8-15.8-15.8-31.6-22.5-48
			c-4.2-10.4-7.6-21.1-10.2-32c-1.1-4.7-0.9-9.7-1.1-15.2c1.2,1.3,1.4,2.4,1.7,3.4c3.3,9.8,7.9,19,14,27.5c5.5,7.5,9,16.2,13.5,24.3
			c3.6,6.5,6.9,13.1,10.7,19.5c4.6,7.9,7.4,16.7,10.7,25.1c1.9,4.8,3.6,9.7,5.4,14.5c0.3,0.8,0.5,1.7,1.4,2.2
			c1.3-0.6,0.9-1.7,0.7-2.7c-2.8-15.4-7.6-30-15.5-43.6c-2.6-4.5-4.1-9.5-6.4-14.1c-5.6-11.1-12.3-21.6-18.6-32.3
			c-7.3-12.4-13.1-25.5-17-39.5c-0.8-3,0-5.9,0.2-8.9c0.7-7.5,2.9-14.5,5.3-21.6c0.1-0.3,0.3-0.5,0.5-0.9c1,1,1,2.3,1.4,3.4
			c8,23.4,19,45.4,33.1,65.7c11,15.8,21,32.2,29.1,49.6c12.1,26,14.3,53,8.4,80.9c-0.1,0.6-0.5,1.2,0,2c0.8-0.4,1.6-0.8,2.3-1.2
			c13-7.6,25.3-16.1,36-26.9c11.7-11.9,24-23.2,36.1-34.8c5-4.8,9.6-10,14.3-15.1c4.7-5,9.6-5.3,14.4-0.3
			c14.2,14.6,28.3,29.2,41.3,44.9c5.2,6.3,11.5,11.3,17.8,16.4c8.2,6.7,15.3,14.3,22.3,22.2c0.8,0.9,0.8,0.9,2,1.5
			c0.8-0.5,0.5-1.3,0.5-2c-1.3-26.3,1.9-52.1,10.6-77c5.5-15.5,13.5-29.8,22.7-43.4c15.6-23,30.5-46.4,46.9-68.9
			c3.1-4.3,4.9-9.5,7.3-14.2c0.7-1.5,1.5-3,2.2-4.5c0.2,0,0.4,0.1,0.7,0.1c0,3.7,0,7.4,0,11.1c0,0.5-0.1,1-0.1,1.4
			c0.7,11.2-3.4,21-7.7,31.1c-7.5,17.3-18.5,32.5-27.8,48.7c-7.2,12.6-13.6,25.7-18.9,39.2c-4.4,11.4-6,23.4-5.7,35.6
			c0,1.3,0.1,2.7,1.1,4.1c0.9-1.6,0.7-3.2,0.9-4.6c2.2-14.8,6.2-29,12.4-42.6c6.3-14,13.6-27.5,21.7-40.5
			c6.4-10.3,12.4-20.8,18.1-31.5c0.5-0.9,0.7-2,2.1-2.7c-0.9,3.8-1.7,7.3-2.5,10.8c-1.3,6-1.3,12.2-3.4,18
			c-5.6,15.8-11.2,31.6-19.6,46.3c-5.6,9.7-10.7,19.7-15.3,29.9c-4.4,9.6-7.9,19.6-9.7,30.1c-0.6,3.3,1.8,5.9,1.6,9.1
			c0.3,0,0.5,0,0.8-0.1c0.3-2.9,0.6-5.8,1-8.7c0.9-6.1,2.4-12,4.8-17.7c4.5-10.5,9.2-21,15.7-30.5c5.6-8.1,9.1-17.4,12.9-26.5
			c1.2-2.7,2.4-5.4,3.7-8.4c0.8,1.2,0.5,2.2,0.5,3.1c0.6,12.6-2.9,24.2-7.9,35.6c-3.6,8.2-6.9,16.5-10.6,24.7
			c-4.2,9.3-7.3,19-8.2,29.2c-0.9,10-3.8,19.4-7.2,28.8c-0.3,0.8-0.5,1.5-0.7,2.3c0,0.1,0.1,0.2,0.2,0.4c1.1-0.4,1.1-1.5,1.5-2.4
			c5-11.1,8.4-22.7,10.1-34.7c0.4-2.8,1.2-5.5,2.2-8.2c4.9-13.7,11.1-26.8,17.7-39.8c0.2-0.4,0.3-1,1.1-1c0.5,1.3,0.1,2.7,0,4
			c-0.8,12-1.8,24-4.1,35.8c-3.2,16.2-9.3,31.2-18,45.2c-2.6,4.2-5,8.5-7.7,12.6c-4.2,6.4-5.7,13.6-6,21.1
			c-0.6,14.6-0.2,29.2-0.5,43.8c-0.4,20.3-2.9,40.4-6.4,60.4c-1.2,6.9-3.5,13.5-6.8,19.5c-5.2,9.2-7.6,19.1-9.1,29.4
			c-1.2,7.8-2.1,15.7-3.2,23.5c-0.3,2.6-1.1,5-1.9,7.5c-7.4,21.9-19.2,41.1-35.5,57.6c-14.8,14.9-31.3,26.9-51.2,34
			c-9,3.2-18.2,5.5-27.7,2.8c-14.3-4.1-27.7-9.5-37.9-21.1c-6.5-7.3-13-14.6-19.4-21.9c-15-17.2-26.7-36.6-37.2-56.8
			c-6.7-12.9-9.4-26.9-9.2-41.4c0-4.6-1-9.1-2.8-13.4c-3.7-8.8-4.7-18.1-5.3-27.4c-1.4-20.6-1.2-41.3-0.7-61.9
			c0.2-11.7-0.2-23.6-2.8-35.2c-1.6-7.4-4.3-14.5-8.6-20.9c-8.2-12.2-15.3-24.9-20.2-38.8c-2.6-7.5-4.1-15.2-5.1-23.1
			c6.7,15.2,13.3,30.4,23.7,43.5c0.5-1.5-0.4-2.5-1-3.6c-9.1-17.5-18-35-23.9-53.9c-1.6-5-2.3-10.2-3.5-15.3
			c-1.4-6.6-1.9-13.2-2.4-19.8c-0.1-1.2-0.1-2.4-0.2-3.8c0.9,0.7,0.8,1.5,1,2.2c4.7,19.6,12.4,38.2,20.6,56.5
			c6.3,14,12.1,28.2,17.5,42.5C171.6,240.4,172.3,242.5,174.3,243.8z M241.6,487.4c-0.3,0.1-0.6,0.2-0.9,0.3
			c-2.7-3.7-5.4-7.4-8.2-11c-1.4-1.9-2.5-3.6-1.6-6.1c0.5-1.3,0.3-2.9,0.4-4.3c0.6-21.3,1.1-42.6,1.7-63.9c0.1-3.2,0.2-6.5,0.3-9.7
			c0-2.7-1.4-4.3-3.7-4.6c-2.4-0.3-4.2,1.2-4.7,3.8c-0.2,0.9-0.2,1.8-0.2,2.6c-0.7,20.7-1.3,41.5-2,62.2c-0.1,1.6,0.2,3.2-0.6,5.2
			c-2.1-3-4-5.7-5.9-8.4c-0.2-0.3-0.4-0.9-0.3-1.1c2.1-3.9,1.1-8.1,1.3-12.1c0.4-14.8,0.6-29.5,0.8-44.3c0.1-4.4,0.2-8.9,0.2-13.3
			c0-1.7-0.7-3.1-2.6-3.2c-1.7-0.1-2.6,1.1-2.9,2.7c-0.1,0.6-0.2,1.3-0.2,1.9c-0.1,4.8-0.3,9.5-0.4,14.3
			c-0.3,15.8-0.5,31.6-0.8,47.4c0,0.8,0.3,1.8-1.2,2.4c-1.5-2.3-4-4.1-4-7.3c0-5.1,0.1-10.2,0-15.2c-0.1-16-0.6-32-0.3-47.9
			c0.2-7.3,0.1-14.5-0.2-21.7c0-1.1-0.1-2.1-0.7-3c-7.5-12-12-25.1-15.2-38.8c-0.3-1.2-0.3-2.6-0.3-3.9c0.3-7.2,1.1-14.3,2.4-21.4
			c0.3-1.7,1.1-3.5,0.5-5.3c-1.8,0-2.3,1.2-2.8,2.4c-3.7,7.9-5.1,16.1-4.9,24.9c0.4,12.5,3.6,23.8,11.4,33.8c0.8,1,1.3,2,1.6,3.2
			c1,3.8,1.8,7.7,2.1,11.6c0.5,5.6,0.4,11.3,0,16.9c-0.6,9,0,17.9,0.4,26.8c0.4,8,0.3,16,0.3,24c0,1.7,0.4,3.4-0.4,5.4
			c-0.5-0.9-0.9-1.6-1.2-2.2c-1.1-2.4-2.6-3.2-4.2-2.5c-1.8,0.7-2.2,2.6-1,5c1.4,2.8,2.8,5.7,4.5,8.3c9.8,15.1,18.7,30.8,28.4,45.9
			c5.5,8.5,11,17.2,19.9,22.8c0.6,0.4,1.1,0.9,1.6,1.5c9.1,9.1,19.8,15.8,31.6,20.7c3.3,1.4,7.1,2.1,10.1,4c3,1.9,5.7,1.5,8.7,0.8
			c16.2-4.2,30.9-11.7,45-20.4c1.6-1,3.4-2,4.4-3.7c1.3-2.3,3.2-3.7,5.2-5.3c1.8-1.4,3.6-3,5.4-4.4c8.8-6.6,13.9-16.5,21.2-24.4
			c0.2-0.2,0.3-0.4,0.4-0.6c1-3.3,3-6,4.9-8.9c3.8-5.9,6.4-12.3,8.9-18.8c0.9-2.4,0.9-4.9,0.8-7.4c-0.3-4-0.7-8-0.7-12.1
			c-0.1-13.3-0.1-26.7-1.1-39.9c-0.6-7.3,1.3-13.7,4.1-20.3c3.9-9.3,8.9-18.1,12.6-27.5c5.3-13.6,5.7-27.5,1-41.4
			c-1.7-4.9-2.9-9.7-3-14.9c-0.1-5.3,0-10.6-0.5-16c-0.7-6.6-1.1-13.1-0.5-19.8c0.4-5.4,0.7-10.8,0.3-16.2
			c-0.8-11.1-2-22.2-2.4-33.3c-0.3-6.4-0.9-12.9,0.3-19.3c1.3-7.1,3-14.2,4.7-21.2c4-16.3,10.3-31.6,19.6-45.6
			c5.5-8.3,11.2-16.6,16.6-25c7.3-11.5,15.4-22.6,21.4-34.8c4.2-8.5,7.4-17.3,12-25.6c0.2-0.3,0.2-0.6-0.1-1
			c-0.3,0.2-0.6,0.5-0.8,0.8c-0.9,1.3-1.8,2.7-2.6,4.1c-7,12.8-14.5,25.3-22.9,37.3c-6.2,9-13.2,17.4-19.1,26.5
			c-8.1,12.4-13.9,26-20,39.5c-10.6,22.9-15,47.1-13.6,72.2c0.6,10.3,1.8,20.6,2.8,30.9c0.2,2.1-0.2,3-2.6,3.1
			c-4.8,0.1-9.4,1.1-14.2,1.9c-17.5,2.8-34.7,6.9-50.7,14.7c-9.5,4.6-19.8,8-28.4,14.5c-0.2,0.2-0.6,0.4-0.9-0.2
			c0.1-0.4,0.2-1,0.4-1.5c8.5-24.9,23.6-45.6,41.5-64.4c4-4.2,4.2-4,8.6-0.3c7.9,6.4,15.5,13.2,24.6,18c1.1,0.6,2.5,2.3,3.5,0.7
			c1-1.5-1-2.3-2-3c-15.3-11.9-29.9-24.6-43.9-38.1c-5.5-5.3-10-11.3-14.8-17.1c-6.8-8.1-15.1-15-20.9-24.1
			c-1.8-2.9-2.9-2.9-5.1-0.1c-9.6,12-20.5,22.7-32.2,32.8c-5.7,4.9-11.6,9.5-16.5,15.3c-7.1,8.3-15.2,15.5-23.8,22.3
			c-5.4,4.3-11.3,7.8-17.2,11.3c-1.1,0.7-2.2,1.7-1.4,3.2c0.8,1.5,2.2,1.1,3.4,0.5c1.6-0.8,3.1-1.7,4.7-2.6
			c10.4-5.9,19.8-13.4,29.1-20.8c2.1-1.6,3.3-1.7,5.4,0c5.2,4.4,10,9.1,15.1,13.6c5.5,4.9,9.9,10.8,13.7,17.2
			c4.9,8.2,7.8,17.2,11.1,26c0.4,1,0.6,2,1.4,2.8c2.3,2.3,2.4,5.5,3.6,8.2c-1,0.3-1.4-0.2-1.8-0.5c-7.7-4.7-15.5-9.2-23.9-12.6
			c-12.3-5-24.5-10.5-37.2-14.4c-10-3.1-20.5-5.5-31.2-4.9c-2,0.1-2.6-0.5-2.6-2.6c0.3-15,1-30,1.2-45c0.2-13.9-0.7-27.6-3.3-41.2
			c-3.4-17.3-10.9-33-20.2-47.9c-7.8-12.3-16.5-23.9-24.6-36c-5.3-7.9-8.9-16.6-12.1-25.5c-0.4-1-0.4-2.4-1.9-2.7
			c-0.5,0.6-0.4,1.2-0.2,1.7c2.4,10.9,6,21.3,12.7,30.4c5.8,7.9,11.6,15.9,17,24.2c6.5,10.1,13.2,20.1,17.8,31.3
			c8.1,19.7,10.1,40.3,9.6,61.2c-0.2,10.2-0.7,20.3-0.9,30.5c-0.4,17,0.5,33.9,0.4,50.8c0,3.9,0.6,7.9,0.9,11.8
			c0.1,0.6,0.1,1.3,0.9,1.5c0.7-0.5,0.5-1.2,0.5-1.8c1.1-10.3,1.8-20.6,2-30.9c0-1.5,0.2-2.7,2.2-2.5c9.2,0.9,18.5,0.5,27.6,3
			c13.6,3.9,27.2,7.8,40,13.9c1.5,0.7,2.9,1.4,4.4,1.9c8.4,2.8,16.1,6.7,22.4,13.2c0.3,0.3,0.8,0.7,1.2,0.7c1.9,0.1,3.1,1.1,3.8,2.7
			c2.3-0.3,3.9-1.7,5.4-3c5.9-5.2,12.5-8.9,19.7-12.1c14.1-6.3,28.2-12.4,43.4-15.8c11.1-2.5,22.2-5,33.7-4.7c1.8,0,2.5,0.5,2.7,2.4
			c1.4,11.6,1.3,23.2,1.6,34.8c0.4,11.8,0.2,23.6,1.1,35.3c0.3,3.5,0.8,6.9,0.2,10.4c-1.7,9.5-4.4,18.7-8,27.6
			c-1.8,4.3-3.6,8.7-6.2,12.6c-2.6,3.8-2.7,9-6.7,12c-0.9,0.6-0.9,2-0.8,3.2c0.1,1.4,0.2,2.7,0.2,4.1c0.6,17.3,1,34.5,2.1,51.8
			c0.5,7.6-1.3,14.5-5.7,20.8c-0.2-0.9-0.2-1.8-0.2-2.8c0-24.8,0.1-49.6,0.1-74.4c0-1.3,0.1-2.6-0.3-3.8c-0.7-2-2.1-2.8-4.1-2.7
			c-2,0.1-3.5,0.9-3.8,3c-0.3,1.7-0.4,3.5-0.4,5.3c-0.1,27-0.3,54.1,0,81.1c0.1,6.7-1.1,12.1-6.1,16.6c-1.2,1.1-1.8,2.8-3.6,3.7
			c-0.2-2.9-0.4-5.4-0.4-8c-0.4-20.3-0.7-40.7-1.1-61c-0.1-4.9-0.1-9.8-0.3-14.8c-0.1-2.7-1.6-4-3.9-4c-2.3-0.1-4.1,1.4-4.4,3.9
			c-0.2,1.3-0.1,2.6-0.1,3.9c0.3,14.8,0.6,29.7,0.9,44.5c0.2,12.2,0.4,24.4,0.7,36.5c0.1,5.1-0.7,10.4-6.2,13.1
			c-1.5,0.7-2.7,2-4.1,3c-2,1.4-4,2.9-6.1,4.4c-0.7-1.5-0.6-2.7-0.6-3.9c-0.5-17.7-1-35.3-1.4-53c-0.3-11.9-0.5-23.9-0.7-35.8
			c0-1.7-0.5-3.2-2-4.1c-1.4-0.8-2.8-0.8-4.1-0.1c-1.8,1-2.2,2.6-2.1,4.5c0.5,22.7,1,45.3,1.5,68c0.2,7.9,0.3,15.8,0.5,23.7
			c0.1,3.9-1,7.1-5,8.7c-3.1,1.3-6.1,3-9.2,4.4c-3.6,1.6-7.3,2.7-11.5,3.5c0-1.3,0-2.3,0-3.2c0.1-13,0.3-26,0.3-39
			c0.1-19.5,0-39.1,0.1-58.6c0-2.7-0.2-5.2-3.4-6.4c1.8-1.1,3.1-2.1,4.6-2.9c4.7-2.5,7.2-6.8,9.7-11.2c0.7-1.2,0.7-2.4,0.4-3.8
			c-0.6-2.5-1.6-4.9-2.7-7.3c-3.7-8.7-6-17.6-5.6-27.2c0.2-6.8,0.7-13.5,1.2-20.3c1.3-19,0.4-38.1-0.3-57.1
			c-0.1-1.8-0.6-3.4-2.6-3.5c-2.3-0.1-2.1,2-2.2,3.3c-0.3,5.8-0.5,11.7,0.1,17.4c1.4,13.7,0.5,27.4-0.1,41.1
			c-0.4,9.6-1.1,19.2-0.6,28.8c0.2,4.9,1,10,3.7,14.1c2.5,3.9,2.7,7.8,2.5,12c-0.2,4.8-3.5,7.8-7.2,9.6c-3,1.5-6.9,1.3-9.8-1.3
			c-1.9-1.7-3.7-3.4-5.3-5.3c-1.1-1.3-1.9-2.9-1.4-4.7c0.9-3,1.6-6.2,3-8.9c4.4-8.4,4.5-17.6,5.1-26.6c0.6-10.5,1.2-21.1,1.9-31.6
			c0.3-4.4,0.8-8.8,0.3-13.3c-0.7-6.9-1.4-13.8-1.7-20.7c-0.2-4.4-0.6-8.9-0.4-13.3c0.1-1.4-0.5-2.9-2.1-2.5
			c-1.7,0.5-3.5,1.7-3.4,3.9c0.3,8.7,0.3,17.5,1.1,26.1c0.7,7.6,1.5,15.3,1.3,22.9c-0.3,11.6,0,23.2-1.6,34.8
			c-1.3,9.2-1.7,18.6-5.8,27.1c-2.6,5.5-1.3,9.6,3,13.3c0.8,0.7,1.6,1.4,2.5,1.9c3.2,1.9,6.2,3.9,9.9,5.5c-2.7,1.5-2.8,3.8-2.8,6.2
			c-0.1,32.4-0.2,64.7-0.3,97.1c0,0.8,0.3,1.8-0.4,2.6c-1.3,0.1-2.5-0.5-3.7-0.9c-5.1-1.7-9.7-4.4-14.6-6.5
			c-3.1-1.3-4.2-3.5-4.3-6.6c0-1.1,0-2.3,0-3.4c0-30.4,0-60.7,0-91.1c0-0.9,0.1-1.8-0.1-2.7c-0.4-2.2-2.3-3.8-4.5-3.7
			c-2,0.1-3.5,1.7-3.7,4.1c-0.1,0.8,0,1.6,0,2.4c0,30.2,0,60.4,0,90.6c0,0.9,0.2,1.9-0.4,3.1c-2.6-2.2-5.2-4.2-7.6-6.3
			c-4-3.6-6.1-8.1-6.1-13.5c0-2.6,0-5.2,0.1-7.7c0.5-24.7,1-49.4,1.4-74.1c0.1-3.3-1.4-5.2-4-5.3c-2.7-0.1-4.3,1.8-4.4,5.2
			c-0.7,21.7-1,43.4-1.3,65.1C241.6,479.3,241.6,483.3,241.6,487.4z M202.2,335.9c0.3,0.8,0.5,1.3,0.7,1.7
			c2.5,5.5,6.9,9.5,11.2,13.6c10.8,10.2,23.2,15,38.4,12.8c13.2-1.9,24.1-7.6,33.3-17c0.6-0.6,1.6-1.1,1-2.2
			c-1.9-3.8-2.9-8.1-6-11.2c-7.6-7.6-17-10.6-27.5-9.9c-15.5,0.9-30.4,4.9-44.9,10.1C206.4,334.4,204.4,335.1,202.2,335.9z
			 M393.8,329.2c-3.9,0.8-7.5,0.1-11.2-0.5c-11-1.7-21.8-4.8-32.9-5.7c-6.9-0.5-13.8-0.3-20.1,3.1c-7.9,4.2-14.5,9.9-19.7,17.2
			c-0.4,0.6-1.1,1-0.8,2.3c7.5,1.9,13.2,7.6,20.3,11c3.8,1.8,7.7,3.3,11.4,5.4c11,6.3,29.7,2.9,38.9-7.6c2.2-2.6,4.3-5.3,6.2-8
			c2.7-3.8,4.7-8.1,7.1-12.1C394.1,332.6,394.5,331.2,393.8,329.2z M205.4,297.1c1.4,0.4,2-0.5,2.6-1c2.8-2.2,5.8-4.1,9-5.6
			c12.6-6,25.9-8.6,39.9-7.9c3,0.2,5.9,0.8,8.4,2.6c5.7,4.1,10.2,9.3,14.2,15c1.5,2.2,2.5,4.7,2.8,7.4c0.1,1.3,0.4,2.6,0.7,4
			c1-0.9,1-1.9,1.2-2.8c1.4-10.6-7.1-23.8-18.3-27.8c-7.3-2.6-14.9-3.5-22.6-3c-12.3,0.9-22.8,6.1-32.4,13.3
			C208.8,292.8,206.7,294.5,205.4,297.1z M391.7,299.7c0-1.1-0.7-1.7-1.3-2.3c-2.3-2.3-4.7-4.7-7.1-7c-9.8-9.3-21.3-13.4-34.9-11.9
			c-15.5,1.7-27.1,11.9-30,27.1c-0.5,2.7-1,5.4-1.6,8c-0.9,4-0.9,10.4-0.2,12.5c0.7-0.7,0.5-1.7,0.5-2.5c0.1-7,1.7-13.9,4.5-20.2
			c5.2-11.8,14.5-18.9,27.7-20.2c1.8-0.2,3.5-0.3,5.3-0.6c3.6-0.6,7.2-0.2,10.8,0.5c7.3,1.5,13.2,5.3,18.5,10.4
			C386.3,296,388.8,298.1,391.7,299.7z M405.3,403.5c-0.4-5.7-0.8-11-1.1-16.3c-0.2-3.4-0.5-6.8-0.8-10.1c-0.1-1.1-0.5-2-1.6-2.5
			c-1.1-0.4-2.1-0.3-3,0.5c-1.1,0.9-1.1,2.2-1,3.6c0.3,3.4,0.6,6.7,0.8,10.1c0.6,8.7,1.4,17.3,3,25.9c0.2,0.9,0.2,2.1,1.6,2
			c1.2-0.1,1.3-1.1,1.3-2C404.8,410.8,405,406.9,405.3,403.5z M194.2,409.4c0.1,0,0.3,0,0.4,0c0-5.2,0-10.3,0-15.5
			c0-2-0.5-3.7-2.7-3.8c-2.2-0.1-2.9,1.6-2.9,3.4c-0.2,10.4-0.3,20.8-0.5,31.2c0,1.9,0.5,3.7,2.9,3.6c2.4-0.1,2.8-1.7,2.8-3.7
			C194.2,419.6,194.2,414.5,194.2,409.4z"/>
		<path class="st0" d="M303.1,157.5c13.4,15.9,29.7,28.7,45.1,42.6c-16.4,21.3-34.7,41-43.5,67.4c-1.3-2.1-1.2-3.8-1.5-5.5
			c-1.2-8-0.1-16.1-0.5-24.2c-0.8-14.2,0.4-28.4-0.7-42.5c-0.2-2.7-0.3-5.5,0.1-8.2c1-7.2,0.6-14.5,1.1-21.8
			c0.1-0.9-0.3-1.7-0.5-2.6C302.3,161.2,302,159.6,303.1,157.5z"/>
		<path class="st0" d="M296.2,264.4c-0.8-0.7-0.9-1.7-1.2-2.6c-2.3-6.1-4.5-12.2-6.9-18.3c-1.4-3.6-3.6-6.8-5.7-10.1
			c-7.7-11.7-17.1-22-27.2-31.7c-0.7-0.7-1.7-1.2-3-2.1c5.5-4.1,8.8-9.2,13.5-12.6c9.4-6.7,17.3-15,25.3-23.2
			c2.1-2.2,4.4-4.2,6.7-6.3c0.5,0.4,0.2,1.2,0.2,1.9c-0.6,21.8-0.6,43.7-1.8,65.5c-0.5,9.1,1,18,1.1,27c0,3.6,0.3,7.3-0.3,10.9
			C296.8,263.4,296.8,264,296.2,264.4z"/>
	</g>
</g>
</svg>
