<?xml version="1.0" encoding="utf-8"?>
<!-- Generator: Adobe Illustrator 18.1.1, SVG Export Plug-In . SVG Version: 6.00 Build 0)  -->
<svg version="1.1" id="图层_1" xmlns="http://www.w3.org/2000/svg" xmlns:xlink="http://www.w3.org/1999/xlink" x="0px" y="0px"
	 viewBox="0 0 612 792" enable-background="new 0 0 612 792" xml:space="preserve">
<g>
	<g>
		<path d="M190.5,356.4c-3.3-9.5-6.4-19-9.8-28.4c-5.7-16.2-13-31.6-19.5-47.4c-7.4-18.3-12.8-37.2-18.3-56.1
			c-1.9-6.6-1.5-13.4-2.2-20.2c-0.2-2.8-0.8-5.7-0.5-8.6c0.7-0.1,0.8,0.3,0.8,0.7c7.9,24.5,19.2,47.3,31.4,69.9
			c5.2,9.8,9.2,20.2,11.7,31.1c0.1,0.7,0.3,1.3,0.5,2.1c0.1,0.2,0.2,0.4,0.5,0.9c1-1.2,0.5-2.4,0.4-3.5c-1.4-12-5.8-23-11.3-33.7
			c-8.7-17.3-17.3-34.5-24.6-52.5c-4.6-11.4-8.3-23.1-11.1-35c-1.2-5.1-1-10.6-1.2-16.6c1.3,1.4,1.5,2.6,1.9,3.7
			c3.6,10.7,8.6,20.8,15.3,30.1c6,8.2,9.8,17.7,14.8,26.6c3.9,7.1,7.5,14.3,11.7,21.3c5,8.6,8.1,18.3,11.7,27.4
			c2.1,5.2,3.9,10.6,5.9,15.8c0.3,0.9,0.5,1.9,1.5,2.4c1.4-0.7,1-1.9,0.8-3c-3.1-16.8-8.3-32.8-16.9-47.6c-2.8-4.9-4.5-10.4-7-15.4
			c-6.1-12.1-13.4-23.6-20.3-35.3c-8-13.6-14.3-27.9-18.6-43.2c-0.9-3.3,0-6.4,0.2-9.7c0.8-8.2,3.2-15.8,5.8-23.6
			c0.1-0.3,0.3-0.5,0.5-1c1.1,1.1,1.1,2.5,1.5,3.7c8.7,25.6,20.8,49.6,36.2,71.8c12,17.3,22.9,35.2,31.8,54.2
			c13.2,28.4,15.6,57.9,9.2,88.4c-0.1,0.7-0.5,1.3,0,2.2c0.9-0.4,1.7-0.9,2.5-1.3c14.2-8.3,27.6-17.6,39.3-29.4
			c12.8-13,26.2-25.4,39.5-38c5.5-5.2,10.5-10.9,15.6-16.5c5.1-5.5,10.5-5.8,15.7-0.3c15.5,16,30.9,31.9,45.1,49.1
			c5.7,6.9,12.6,12.3,19.5,17.9c9,7.3,16.7,15.6,24.4,24.3c0.9,1,0.9,1,2.2,1.6c0.9-0.5,0.5-1.4,0.5-2.2
			c-1.4-28.7,2.1-56.9,11.6-84.2c6-16.9,14.8-32.6,24.8-47.4c17-25.1,33.3-50.7,51.3-75.3c3.4-4.7,5.4-10.4,8-15.5
			c0.8-1.6,1.6-3.3,2.4-4.9c0.2,0,0.4,0.1,0.8,0.1c0,4,0,8.1,0,12.1c0,0.5-0.1,1.1-0.1,1.5c0.8,12.2-3.7,22.9-8.4,34
			c-8.2,18.9-20.2,35.5-30.4,53.2c-7.9,13.8-14.9,28.1-20.7,42.8c-4.8,12.5-6.6,25.6-6.2,38.9c0,1.4,0.1,3,1.2,4.5
			c1-1.7,0.8-3.5,1-5c2.4-16.2,6.8-31.7,13.6-46.6c6.9-15.3,14.9-30.1,23.7-44.3c7-11.3,13.6-22.7,19.8-34.4c0.5-1,0.8-2.2,2.3-3
			c-1,4.2-1.9,8-2.7,11.8c-1.4,6.6-1.4,13.3-3.7,19.7c-6.1,17.3-12.2,34.5-21.4,50.6c-6.1,10.6-11.7,21.5-16.7,32.7
			c-4.8,10.5-8.6,21.4-10.6,32.9c-0.7,3.6,2,6.4,1.7,9.9c0.3,0,0.5,0,0.9-0.1c0.3-3.2,0.7-6.3,1.1-9.5c1-6.7,2.6-13.1,5.2-19.3
			c4.9-11.5,10.1-23,17.2-33.3c6.1-8.9,9.9-19,14.1-29c1.3-3,2.6-5.9,4-9.2c0.9,1.3,0.5,2.4,0.5,3.4c0.7,13.8-3.2,26.4-8.6,38.9
			c-3.9,9-7.5,18-11.6,27c-4.6,10.2-8,20.8-9,31.9c-1,10.9-4.2,21.2-7.9,31.5c-0.3,0.9-0.5,1.6-0.8,2.5c0,0.1,0.1,0.2,0.2,0.4
			c1.2-0.4,1.2-1.6,1.6-2.6c5.5-12.1,9.2-24.8,11-37.9c0.4-3.1,1.3-6,2.4-9c5.4-15,12.1-29.3,19.3-43.5c0.2-0.4,0.3-1.1,1.2-1.1
			c0.5,1.4,0.1,3,0,4.4c-0.9,13.1-2,26.2-4.5,39.1c-3.5,17.7-10.2,34.1-19.7,49.4c-2.8,4.6-5.5,9.3-8.4,13.8
			c-4.6,7-6.2,14.9-6.6,23.1c-0.7,16-0.2,31.9-0.5,47.9c-0.4,22.2-3.2,44.2-7,66c-1.3,7.5-3.8,14.8-7.4,21.3
			c-5.7,10.1-8.3,20.9-9.9,32.1c-1.3,8.5-2.3,17.2-3.5,25.7c-0.3,2.8-1.2,5.5-2.1,8.2c-8.1,23.9-21,44.9-38.8,62.9
			c-16.2,16.3-34.2,29.4-56,37.2c-9.8,3.5-19.9,6-30.3,3.1c-15.6-4.5-30.3-10.4-41.4-23.1c-7.1-8-14.2-16-21.2-23.9
			c-16.4-18.8-29.2-40-40.7-62.1c-7.3-14.1-10.3-29.4-10.1-45.2c0-5-1.1-9.9-3.1-14.6c-4-9.6-5.1-19.8-5.8-29.9
			c-1.5-22.5-1.3-45.1-0.8-67.6c0.2-12.8-0.2-25.8-3.1-38.5c-1.7-8.1-4.7-15.8-9.4-22.8c-9-13.3-16.7-27.2-22.1-42.4
			c-2.8-8.2-4.5-16.6-5.6-25.2c7.3,16.6,14.5,33.2,25.9,47.5c0.5-1.6-0.4-2.7-1.1-3.9c-9.9-19.1-19.7-38.3-26.1-58.9
			c-1.7-5.5-2.5-11.1-3.8-16.7c-1.5-7.2-2.1-14.4-2.6-21.6c-0.1-1.3-0.1-2.6-0.2-4.2c1,0.8,0.9,1.6,1.1,2.4
			c5.1,21.4,13.6,41.7,22.5,61.7c6.9,15.3,13.2,30.8,19.1,46.4C187.5,352.7,188.3,355,190.5,356.4z M264,622.7
			c-0.3,0.1-0.7,0.2-1,0.3c-3-4-5.9-8.1-9-12c-1.5-2.1-2.7-3.9-1.7-6.7c0.5-1.4,0.3-3.2,0.4-4.7c0.7-23.3,1.2-46.6,1.9-69.8
			c0.1-3.5,0.2-7.1,0.3-10.6c0-3-1.5-4.7-4-5c-2.6-0.3-4.6,1.3-5.1,4.2c-0.2,1-0.2,2-0.2,2.8c-0.8,22.6-1.4,45.4-2.2,68
			c-0.1,1.7,0.2,3.5-0.7,5.7c-2.3-3.3-4.4-6.2-6.4-9.2c-0.2-0.3-0.4-1-0.3-1.2c2.3-4.3,1.2-8.9,1.4-13.2c0.4-16.2,0.7-32.2,0.9-48.4
			c0.1-4.8,0.2-9.7,0.2-14.5c0-1.9-0.8-3.4-2.8-3.5c-1.9-0.1-2.8,1.2-3.2,3c-0.1,0.7-0.2,1.4-0.2,2.1c-0.1,5.2-0.3,10.4-0.4,15.6
			c-0.3,17.3-0.5,34.5-0.9,51.8c0,0.9,0.3,2-1.3,2.6c-1.6-2.5-4.4-4.5-4.4-8c0-5.6,0.1-11.1,0-16.6c-0.1-17.5-0.7-35-0.3-52.3
			c0.2-8,0.1-15.8-0.2-23.7c0-1.2-0.1-2.3-0.8-3.3c-8.2-13.1-13.1-27.4-16.6-42.4c-0.3-1.3-0.3-2.8-0.3-4.3
			c0.3-7.9,1.2-15.6,2.6-23.4c0.3-1.9,1.2-3.8,0.5-5.8c-2,0-2.5,1.3-3.1,2.6c-4,8.6-5.6,17.6-5.4,27.2c0.4,13.7,3.9,26,12.5,36.9
			c0.9,1.1,1.4,2.2,1.7,3.5c1.1,4.2,2,8.4,2.3,12.7c0.5,6.1,0.4,12.3,0,18.5c-0.7,9.8,0,19.6,0.4,29.3c0.4,8.7,0.3,17.5,0.3,26.2
			c0,1.9,0.4,3.7-0.4,5.9c-0.5-1-1-1.7-1.3-2.4c-1.2-2.6-2.8-3.5-4.6-2.7c-2,0.8-2.4,2.8-1.1,5.5c1.5,3.1,3.1,6.2,4.9,9.1
			c10.7,16.5,20.4,33.7,31,50.2c6,9.3,12,18.8,21.7,24.9c0.7,0.4,1.2,1,1.7,1.6c9.9,9.9,21.6,17.3,34.5,22.6c3.6,1.5,7.8,2.3,11,4.4
			c3.3,2.1,6.2,1.6,9.5,0.9c17.7-4.6,33.8-12.8,49.2-22.3c1.7-1.1,3.7-2.2,4.8-4c1.4-2.5,3.5-4,5.7-5.8c2-1.5,3.9-3.3,5.9-4.8
			c9.6-7.2,15.2-18,23.2-26.7c0.2-0.2,0.3-0.4,0.4-0.7c1.1-3.6,3.3-6.6,5.4-9.7c4.2-6.4,7-13.4,9.7-20.5c1-2.6,1-5.4,0.9-8.1
			c-0.3-4.4-0.8-8.7-0.8-13.2c-0.1-14.5-0.1-29.2-1.2-43.6c-0.7-8,1.4-15,4.5-22.2c4.3-10.2,9.7-19.8,13.8-30.1
			c5.8-14.9,6.2-30.1,1.1-45.2c-1.9-5.4-3.2-10.6-3.3-16.3c-0.1-5.8,0-11.6-0.5-17.5c-0.8-7.2-1.2-14.3-0.5-21.6
			c0.4-5.9,0.8-11.8,0.3-17.7c-0.9-12.1-2.2-24.3-2.6-36.4c-0.3-7-1-14.1,0.3-21.1c1.4-7.8,3.3-15.5,5.1-23.2
			c4.4-17.8,11.3-34.5,21.4-49.8c6-9.1,12.2-18.1,18.1-27.3c8-12.6,16.8-24.7,23.4-38c4.6-9.3,8.1-18.9,13.1-28
			c0.2-0.3,0.2-0.7-0.1-1.1c-0.3,0.2-0.7,0.5-0.9,0.9c-1,1.4-2,3-2.8,4.5c-7.7,14-15.8,27.6-25,40.8c-6.8,9.8-14.4,19-20.9,29
			c-8.9,13.6-15.2,28.4-21.9,43.2c-11.6,25-16.4,51.5-14.9,78.9c0.7,11.3,2,22.5,3.1,33.8c0.2,2.3-0.2,3.3-2.8,3.4
			c-5.2,0.1-10.3,1.2-15.5,2.1c-19.1,3.1-37.9,7.5-55.4,16.1c-10.4,5-21.6,8.7-31,15.8c-0.2,0.2-0.7,0.4-1-0.2
			c0.1-0.4,0.2-1.1,0.4-1.6c9.3-27.2,25.8-49.8,45.4-70.4c4.4-4.6,4.6-4.4,9.4-0.3c8.6,7,16.9,14.4,26.9,19.7
			c1.2,0.7,2.7,2.5,3.8,0.8c1.1-1.6-1.1-2.5-2.2-3.3c-16.7-13-32.7-26.9-48-41.6c-6-5.8-10.9-12.3-16.2-18.7
			c-7.4-8.9-16.5-16.4-22.8-26.3c-2-3.2-3.2-3.2-5.6-0.1c-10.5,13.1-22.4,24.8-35.2,35.8c-6.2,5.4-12.7,10.4-18,16.7
			c-7.8,9.1-16.6,16.9-26,24.4c-5.9,4.7-12.3,8.5-18.8,12.3c-1.2,0.8-2.4,1.9-1.5,3.5c0.9,1.6,2.4,1.2,3.7,0.5
			c1.7-0.9,3.4-1.9,5.1-2.8c11.4-6.4,21.6-14.6,31.8-22.7c2.3-1.7,3.6-1.9,5.9,0c5.7,4.8,10.9,9.9,16.5,14.9
			c6,5.4,10.8,11.8,15,18.8c5.4,9,8.5,18.8,12.1,28.4c0.4,1.1,0.7,2.2,1.5,3.1c2.5,2.5,2.6,6,3.9,9c-1.1,0.3-1.5-0.2-2-0.5
			c-8.4-5.1-16.9-10.1-26.1-13.8c-13.4-5.5-26.8-11.5-40.7-15.7c-10.9-3.4-22.4-6-34.1-5.4c-2.2,0.1-2.8-0.5-2.8-2.8
			c0.3-16.4,1.1-32.8,1.3-49.2c0.2-15.2-0.8-30.2-3.6-45c-3.7-18.9-11.9-36.1-22.1-52.3c-8.5-13.4-18-26.1-26.9-39.3
			c-5.8-8.6-9.7-18.1-13.2-27.9c-0.4-1.1-0.4-2.6-2.1-3c-0.5,0.7-0.4,1.3-0.2,1.9c2.6,11.9,6.6,23.3,13.9,33.2
			c6.3,8.6,12.7,17.4,18.6,26.4c7.1,11,14.4,22,19.5,34.2c8.9,21.5,11,44,10.5,66.9c-0.2,11.1-0.8,22.2-1,33.3
			c-0.4,18.6,0.5,37,0.4,55.5c0,4.3,0.7,8.6,1,12.9c0.1,0.7,0.1,1.4,1,1.6c0.8-0.5,0.5-1.3,0.5-2c1.2-11.3,2-22.5,2.2-33.8
			c0-1.6,0.2-3,2.4-2.7c10.1,1,20.2,0.5,30.2,3.3c14.9,4.3,29.7,8.5,43.7,15.2c1.6,0.8,3.2,1.5,4.8,2.1c9.2,3.1,17.6,7.3,24.5,14.4
			c0.3,0.3,0.9,0.8,1.3,0.8c2.1,0.1,3.4,1.2,4.2,3c2.5-0.3,4.3-1.9,5.9-3.3c6.4-5.7,13.7-9.7,21.5-13.2
			c15.4-6.9,30.8-13.6,47.4-17.3c12.1-2.7,24.3-5.5,36.8-5.1c2,0,2.7,0.5,3,2.6c1.5,12.7,1.4,25.4,1.7,38
			c0.4,12.9,0.2,25.8,1.2,38.6c0.3,3.8,0.9,7.5,0.2,11.4c-1.9,10.4-4.8,20.4-8.7,30.2c-2,4.7-3.9,9.5-6.8,13.8
			c-2.8,4.2-3,9.8-7.3,13.1c-1,0.7-1,2.2-0.9,3.5c0.1,1.5,0.2,3,0.2,4.5c0.7,18.9,1.1,37.7,2.3,56.6c0.5,8.3-1.4,15.8-6.2,22.7
			c-0.2-1-0.2-2-0.2-3.1c0-27.1,0.1-54.2,0.1-81.3c0-1.4,0.1-2.8-0.3-4.2c-0.8-2.2-2.3-3.1-4.5-3c-2.2,0.1-3.8,1-4.2,3.3
			c-0.3,1.9-0.4,3.8-0.4,5.8c-0.1,29.5-0.3,59.1,0,88.6c0.1,7.3-1.2,13.2-6.7,18.1c-1.3,1.2-2,3.1-3.9,4c-0.2-3.2-0.4-5.9-0.4-8.7
			c-0.4-22.2-0.8-44.5-1.2-66.7c-0.1-5.4-0.1-10.7-0.3-16.2c-0.1-3-1.7-4.4-4.3-4.4c-2.5-0.1-4.5,1.5-4.8,4.3
			c-0.2,1.4-0.1,2.8-0.1,4.3c0.3,16.2,0.7,32.5,1,48.6c0.2,13.3,0.4,26.7,0.8,39.9c0.1,5.6-0.8,11.4-6.8,14.3
			c-1.6,0.8-3,2.2-4.5,3.3c-2.2,1.5-4.4,3.2-6.7,4.8c-0.8-1.6-0.7-3-0.7-4.3c-0.5-19.3-1.1-38.6-1.5-57.9c-0.3-13-0.5-26.1-0.8-39.1
			c0-1.9-0.5-3.5-2.2-4.5c-1.5-0.9-3.1-0.9-4.5-0.1c-2,1.1-2.4,2.8-2.3,4.9c0.5,24.8,1.1,49.5,1.6,74.3c0.2,8.6,0.3,17.3,0.5,25.9
			c0.1,4.3-1.1,7.8-5.5,9.5c-3.4,1.4-6.7,3.3-10.1,4.8c-3.9,1.7-8,3-12.6,3.8c0-1.4,0-2.5,0-3.5c0.1-14.2,0.3-28.4,0.3-42.6
			c0.1-21.3,0-42.7,0.1-64c0-3-0.2-5.7-3.7-7c2-1.2,3.4-2.3,5-3.2c5.1-2.7,7.9-7.4,10.6-12.2c0.8-1.3,0.8-2.6,0.4-4.2
			c-0.7-2.7-1.7-5.4-3-8c-4-9.5-6.6-19.2-6.1-29.7c0.2-7.4,0.8-14.8,1.3-22.2c1.4-20.8,0.4-41.6-0.3-62.4c-0.1-2-0.7-3.7-2.8-3.8
			c-2.5-0.1-2.3,2.2-2.4,3.6c-0.3,6.3-0.5,12.8,0.1,19c1.5,15,0.5,29.9-0.1,44.9c-0.4,10.5-1.2,21-0.7,31.5c0.2,5.4,1.1,10.9,4,15.4
			c2.7,4.3,3,8.5,2.7,13.1c-0.2,5.2-3.8,8.5-7.9,10.5c-3.3,1.6-7.5,1.4-10.7-1.4c-2.1-1.9-4-3.7-5.8-5.8c-1.2-1.4-2.1-3.2-1.5-5.1
			c1-3.3,1.7-6.8,3.3-9.7c4.8-9.2,4.9-19.2,5.6-29.1c0.7-11.5,1.3-23.1,2.1-34.5c0.3-4.8,0.9-9.6,0.3-14.5
			c-0.8-7.5-1.5-15.1-1.9-22.6c-0.2-4.8-0.7-9.7-0.4-14.5c0.1-1.5-0.5-3.2-2.3-2.7c-1.9,0.5-3.8,1.9-3.7,4.3
			c0.3,9.5,0.3,19.1,1.2,28.5c0.8,8.3,1.6,16.7,1.4,25c-0.3,12.7,0,25.4-1.7,38c-1.4,10.1-1.9,20.3-6.3,29.6
			c-2.8,6-1.4,10.5,3.3,14.5c0.9,0.8,1.7,1.5,2.7,2.1c3.5,2.1,6.8,4.3,10.8,6c-3,1.6-3.1,4.2-3.1,6.8c-0.1,35.4-0.2,70.7-0.3,106.1
			c0,0.9,0.3,2-0.4,2.8c-1.4,0.1-2.7-0.5-4-1c-5.6-1.9-10.6-4.8-16-7.1c-3.4-1.4-4.6-3.8-4.7-7.2c0-1.2,0-2.5,0-3.7
			c0-33.2,0-66.3,0-99.6c0-1,0.1-2-0.1-3c-0.4-2.4-2.5-4.2-4.9-4c-2.2,0.1-3.8,1.9-4,4.5c-0.1,0.9,0,1.7,0,2.6c0,33,0,66,0,99
			c0,1,0.2,2.1-0.4,3.4c-2.8-2.4-5.7-4.6-8.3-6.9c-4.4-3.9-6.7-8.9-6.7-14.8c0-2.8,0-5.7,0.1-8.4c0.5-27,1.1-54,1.5-81
			c0.1-3.6-1.5-5.7-4.4-5.8c-3-0.1-4.7,2-4.8,5.7c-0.8,23.7-1.1,47.4-1.4,71.1C264,613.8,264,618.2,264,622.7z M221,457.1
			c0.3,0.9,0.5,1.4,0.8,1.9c2.7,6,7.5,10.4,12.2,14.9c11.8,11.1,25.4,16.4,42,14c14.4-2.1,26.3-8.3,36.4-18.6
			c0.7-0.7,1.7-1.2,1.1-2.4c-2.1-4.2-3.2-8.9-6.6-12.2c-8.3-8.3-18.6-11.6-30.1-10.8c-16.9,1-33.2,5.4-49.1,11
			C225.6,455.5,223.4,456.2,221,457.1z M430.4,449.8c-4.3,0.9-8.2,0.1-12.2-0.5c-12-1.9-23.8-5.2-36-6.2c-7.5-0.5-15.1-0.3-22,3.4
			c-8.6,4.6-15.8,10.8-21.5,18.8c-0.4,0.7-1.2,1.1-0.9,2.5c8.2,2.1,14.4,8.3,22.2,12c4.2,2,8.4,3.6,12.5,5.9
			c12,6.9,32.5,3.2,42.5-8.3c2.4-2.8,4.7-5.8,6.8-8.7c3-4.2,5.1-8.9,7.8-13.2C430.7,453.5,431.1,452,430.4,449.8z M224.5,414.7
			c1.5,0.4,2.2-0.5,2.8-1.1c3.1-2.4,6.3-4.5,9.8-6.1c13.8-6.6,28.3-9.4,43.6-8.6c3.3,0.2,6.4,0.9,9.2,2.8
			c6.2,4.5,11.1,10.2,15.5,16.4c1.6,2.4,2.7,5.1,3.1,8.1c0.1,1.4,0.4,2.8,0.8,4.4c1.1-1,1.1-2.1,1.3-3.1c1.5-11.6-7.8-26-20-30.4
			c-8-2.8-16.3-3.8-24.7-3.3c-13.4,1-24.9,6.7-35.4,14.5C228.2,410,225.9,411.8,224.5,414.7z M428.1,417.5c0-1.2-0.8-1.9-1.4-2.5
			c-2.5-2.5-5.1-5.1-7.8-7.7c-10.7-10.2-23.3-14.6-38.1-13c-16.9,1.9-29.6,13-32.8,29.6c-0.5,3-1.1,5.9-1.7,8.7
			c-1,4.4-1,11.4-0.2,13.7c0.8-0.8,0.5-1.9,0.5-2.7c0.1-7.6,1.9-15.2,4.9-22.1c5.7-12.9,15.8-20.7,30.3-22.1c2-0.2,3.8-0.3,5.8-0.7
			c3.9-0.7,7.9-0.2,11.8,0.5c8,1.6,14.4,5.8,20.2,11.4C422.2,413.5,424.9,415.8,428.1,417.5z M442.9,531c-0.4-6.2-0.9-12-1.2-17.8
			c-0.2-3.7-0.5-7.4-0.9-11c-0.1-1.2-0.5-2.2-1.7-2.7c-1.2-0.4-2.3-0.3-3.3,0.5c-1.2,1-1.2,2.4-1.1,3.9c0.3,3.7,0.7,7.3,0.9,11
			c0.7,9.5,1.5,18.9,3.3,28.3c0.2,1,0.2,2.3,1.7,2.2c1.3-0.1,1.4-1.2,1.4-2.2C442.4,538.9,442.6,534.7,442.9,531z M212.2,537.4
			c0.1,0,0.3,0,0.4,0c0-5.7,0-11.3,0-16.9c0-2.2-0.5-4-3-4.2s-3.2,1.7-3.2,3.7c-0.2,11.4-0.3,22.7-0.5,34.1c0,2.1,0.5,4,3.2,3.9
			c2.6-0.1,3.1-1.9,3.1-4C212.2,548.6,212.2,543,212.2,537.4z"/>
		<path d="M331.2,262.1c14.6,17.4,32.5,31.4,49.3,46.6c-17.9,23.3-37.9,44.8-47.5,73.7c-1.4-2.3-1.3-4.2-1.6-6
			c-1.3-8.7-0.1-17.6-0.5-26.4c-0.9-15.5,0.4-31-0.8-46.4c-0.2-3-0.3-6,0.1-9c1.1-7.9,0.7-15.8,1.2-23.8c0.1-1-0.3-1.9-0.5-2.8
			C330.4,266.2,330,264.4,331.2,262.1z"/>
		<path d="M323.7,379c-0.9-0.8-1-1.9-1.3-2.8c-2.5-6.7-4.9-13.3-7.5-20c-1.5-3.9-3.9-7.4-6.2-11c-8.4-12.8-18.7-24-29.7-34.6
			c-0.8-0.8-1.9-1.3-3.3-2.3c6-4.5,9.6-10.1,14.8-13.8C300.6,287,309.3,278,318,269c2.3-2.4,4.8-4.6,7.3-6.9
			c0.5,0.4,0.2,1.3,0.2,2.1c-0.7,23.8-0.7,47.8-2,71.6c-0.5,9.9,1.1,19.7,1.2,29.5c0,3.9,0.3,8-0.3,11.9
			C324.4,377.9,324.4,378.5,323.7,379z"/>
	</g>
</g>
<g>
	<g>
		<path fill="#C4BA98" stroke="#000000" stroke-width="0.5" stroke-miterlimit="10" d="M442,640v-10.8h8.5v1.9h-6.5v2.9h3.5v2h-3.5
			v3.4L442,640z"/>
		<path fill="#C4BA98" stroke="#000000" stroke-width="0.5" stroke-miterlimit="10" d="M452.7,631.7c0-1,0.1-1.7,0.4-2
			c0.3-0.4,0.8-0.5,1.6-0.5h6.2c0.8,0,1.4,0.2,1.6,0.5c0.3,0.4,0.4,1,0.4,2v5.7c0,1-0.1,1.7-0.4,2c-0.3,0.4-0.8,0.5-1.6,0.5h-6.2
			c-0.8,0-1.4-0.2-1.6-0.5c-0.3-0.4-0.4-1-0.4-2V631.7z M454.7,637.9h6.4v-6.9h-6.4V637.9z"/>
		<path fill="#C4BA98" stroke="#000000" stroke-width="0.5" stroke-miterlimit="10" d="M467.1,638.3v-9.1h7.2c0.7,0,1.2,0.2,1.4,0.5
			c0.3,0.3,0.5,0.9,0.5,1.6v2.5c0,0.7-0.2,1.3-0.5,1.6c-0.3,0.3-0.8,0.5-1.4,0.5h-1.1l3.9,4.1h-2.8l-3.4-4.1H469v1.9L467.1,638.3z
			 M473.4,631H469v3h4.4c0.3,0,0.6-0.1,0.7-0.2c0.1-0.1,0.2-0.4,0.2-0.7v-1.3c0-0.3-0.1-0.5-0.2-0.7C474,631.1,473.8,631,473.4,631z
			"/>
	</g>
	<g>
		<path fill="#C4BA98" stroke="#000000" stroke-width="0.5" stroke-miterlimit="10" d="M427.3,661.8c0.8-0.1,1.1,0.2,1.1,1v1.3h2.1
			c0.9,0,1,0.3,0.6,0.9h-2.7c0,1.4,0.1,2.1,0.3,2.1c0.4,0.1,0.7,0,1-0.1c0.9-0.2,1.4,0.1,1.3,1c-0.1,0.7-0.1,1.6-0.1,2.8
			c0.1,0.9-0.4,1.3-1.4,1c-1.1-0.4-2.3-0.4-3.5,0c-0.8,0.5-1.2,0.2-1.3-0.7s-0.3-2-0.6-3.1c0.1-0.8,0.6-1,1.5-0.7
			c0.8,0.1,1.1-0.1,1.1-0.6c0-1,0-2-0.1-3C426.4,662.3,426.7,661.7,427.3,661.8z M425.9,668.6c-0.1,1.1,0.1,1.7,0.6,1.8
			c2.2,0.3,3.1,0,3-1c0.2-1.3-0.7-1.8-2.7-1.5C426.2,667.9,425.9,668.1,425.9,668.6z M431.6,665.3c0.4,0,0.6,0,0.7-0.1
			c-0.1-1-0.1-2-0.1-3c-0.1-0.7,0.2-0.9,1-0.9c0.5,0,0.7,0.2,0.7,0.7c-0.1,0.9-0.1,1.8,0,3c3.1-0.5,4.6-0.5,4.5,0
			c0.2,0.3,0.1,0.4-0.1,0.4c-1.4,0.2-2.8,0.4-4.2,0.7c0.3,0.9,0.6,1.5,0.9,2.1c0.4-0.5,0.8-1,1.1-1.7c0.3-0.3,0.6-0.4,0.9-0.3
			c0.4,0.3,0.5,0.6,0.4,1c-0.6,0.8-1.1,1.4-1.5,1.8c1,1,2.7,1.5,5.1,1.4c0.2,0.1-0.1,0.6-0.9,1.4c-1,1-2.1,1.2-3.2,0.6
			c-0.5-0.4-1.2-1.1-2.2-2.1c-0.9,0.7-1.9,1-3,1.1c-0.5-0.1-0.6-0.3-0.3-0.6c0.9-0.3,1.8-0.9,2.5-1.7c-0.4-0.6-0.8-1.5-1.1-2.8
			c-0.5,0.1-0.9,0.2-1.3,0.4c-0.6,0.1-0.8-0.2-0.7-0.9C430.6,665.7,430.9,665.4,431.6,665.3z M436.1,662.1c0.3-0.7,0.7-0.9,1.1-0.6
			c0.5,0.3,0.6,0.7,0.4,1.1c-0.4,0.6-1,0.9-1.8,1c-0.4,0-0.5-0.1-0.4-0.4C435.7,662.9,435.9,662.5,436.1,662.1z"/>
		<path fill="#C4BA98" stroke="#000000" stroke-width="0.5" stroke-miterlimit="10" d="M447.2,665.3c0.5,0,0.8,0.1,1,0.4
			c-0.1,0.4-0.4,0.5-1,0.4c-0.6,0-1.1,0-1.7,0.1c0.2,0.3,0.1,0.6-0.3,0.9l-0.7,0.7c-0.3,0.4,0,0.6,0.7,0.7c0.6,0.1,1-0.1,1.4-0.6
			l-0.4-0.9c0.1-0.3,0.3-0.4,0.6-0.3c0.3,0.2,0.6,0.4,0.9,0.6c0.2,0.4,0.4,0.8,0.7,1.3c-0.1,0.2-0.2,0.3-0.3,0.3
			c-0.4,0.1-0.8-0.1-1.1-0.6c-0.6,1-1.2,1.4-1.8,1.1c-0.6-0.4-1.1-0.4-1.5-0.1c-0.2,0-0.4-0.1-0.6-0.4c-0.1-0.4,0.1-0.8,0.6-1.1
			c0.9-0.8,1.1-1.3,0.9-1.5c-0.4-0.1-0.9,0-1.7,0.3c-0.3,0.2-0.5,0.1-0.6-0.1c0.1-0.7,0.4-1,1-1.1L447.2,665.3L447.2,665.3z
			 M447.2,663.4c0.3,0,0.5,0.1,0.6,0.4c0,0.3-0.1,0.4-0.3,0.4h-2.2c-0.7,0-1.3,0-1.8,0.1c-0.2-0.1-0.3-0.3-0.3-0.6
			c0.1-0.3,0.3-0.5,0.6-0.7C444.3,663.3,445.5,663.4,447.2,663.4z M450.9,667.3c-0.3-0.1-0.6-0.1-0.9,0c-0.3,0.2-0.6,0.3-0.9,0.4
			c-0.2,0-0.3,0-0.4-0.1c-0.2-1.4-0.4-2.7-0.6-3.8c-0.1-0.6,0.2-0.9,0.9-0.9c0.3,0.2,0.8,0.2,1.4,0.1c0.3-0.3,0.6-0.8,1-1.4
			c0.1-0.2,0.3-0.3,0.6-0.3c0.9,0.3,1.1,0.6,0.7,1c-0.3,0.3-0.5,0.5-0.7,0.7c0.7,0,1.5,0.1,2.5,0.3c0.3-0.1,0.5-0.2,0.7-0.3
			c0.3-0.1,0.5,0,0.7,0.1c0.4,0.3,0.5,0.7,0.3,1.3c-0.3,0.9-0.5,1.7-0.6,2.7l-0.4,0.3c0.4,0.3,0.4,0.5,0.1,0.7
			c-0.2,0.2-0.4,0.4-0.6,0.6c-0.2,0.1-0.1,0.2,0.1,0.4c0.4,0.1,0.7,0,1-0.1c-0.4-0.3-0.4-0.5-0.1-0.6c0.4,0,0.7,0,0.9,0.1
			c0.2,0.3,0.4,0.6,0.6,0.9c-0.1,0.1-0.2,0.2-0.4,0.3l-0.6-0.4c-0.2,0.6-0.5,0.8-1,0.7c-0.4-0.3-0.8-0.4-1.1-0.3
			c-0.3-0.2-0.4-0.4-0.3-0.7c0.2-0.2,0.4-0.4,0.6-0.7c0.1-0.2,0.2-0.5,0.4-0.9c-0.8-0.1-1.6-0.1-2.7-0.1c-0.7,2.2-1.9,3.7-3.8,4.6
			c-1.5,0.6-2.6,0.3-3.4-0.7c0-0.1,0.2-0.1,0.6-0.1C448.4,670.8,450.2,669.6,450.9,667.3z M451.3,663.8c-0.7,0-1.2,0.1-1.5,0.3
			c-0.2,0.6-0.1,0.9,0.3,0.9l1.5-0.1C451.7,664.3,451.6,664,451.3,663.8z M451.4,665.5c-0.5,0-1,0-1.7,0.1c0,0.7,0.1,1,0.4,1l1-0.1
			L451.4,665.5z M452.4,668c0.1-0.4,0.3-0.6,0.6-0.6c0.2,0,0.3,0.1,0.4,0.3c-0.2,0.4-0.3,0.8-0.4,1.1c0,0.4,0,0.7,0.1,0.9
			c0.4,0.5,1.1,0.8,2.2,1c0.9,0.1,1.8,0,2.7-0.3c0.6-0.3,0.9-0.3,1.1-0.1c-0.1,0.6-0.4,1.2-1,2c-0.7,0.6-1.2,0.8-1.7,0.6
			c-1.6-0.3-2.9-0.9-4-2c-0.5-0.6-0.7-1.1-0.6-1.5C452.2,668.8,452.3,668.4,452.4,668z M454.5,666.7c0.2-0.4,0.2-0.7,0.1-1
			c-0.4-0.2-1.1-0.3-2.1-0.3c-0.1,0.4-0.1,0.8-0.1,1.1C453.2,666.7,453.9,666.7,454.5,666.7z M452.7,664.8l1.5,0.1
			c0.4,0.1,0.6-0.1,0.6-0.6c0-0.4-0.6-0.6-1.7-0.6C452.8,663.9,452.7,664.2,452.7,664.8z"/>
		<path fill="#C4BA98" stroke="#000000" stroke-width="0.5" stroke-miterlimit="10" d="M465.1,664.6c0.2-0.4,0.3-0.6,0.4-0.6
			c0.5-0.1,0.6,0.2,0.4,1c-0.3,0.9-0.7,1.7-1.3,2.7c-0.5,0.8-0.9,1.3-1.4,1.7c-0.9,0.9-1.9,0.8-3-0.1c-0.3-0.3-0.2-0.6,0.3-0.9
			C462.2,667.7,463.7,666.4,465.1,664.6z M468.3,661.8c0.9-0.1,1.4,0.4,1.3,1.5c-0.1,2.3,0,5,0.1,7.9c0,1.1-0.9,1.6-2.7,1.5
			c-0.9-0.1-2-0.6-3.2-1.5c-0.2-0.5-0.1-0.7,0.3-0.7c1.8,0.6,2.9,0.7,3.2,0.3c0.3-0.2,0.4-2.8,0.3-7.9
			C467.6,662.2,467.9,661.8,468.3,661.8z M470.6,665.1c-0.3-0.4-0.2-0.7,0.1-0.9c0.2-0.1,0.4,0,0.6,0.1c1.3,1.7,3.3,3.1,5.9,4.4
			c-0.3,0.5-0.6,0.8-0.9,1c-0.9,0.8-1.6,0.8-2.4,0C472.7,668.2,471.6,666.6,470.6,665.1z"/>
		<path fill="#C4BA98" stroke="#000000" stroke-width="0.5" stroke-miterlimit="10" d="M484.5,667c-0.3,0.9-0.6,1.6-0.9,2.1l1.8-0.3
			c-0.1-0.4-0.1-0.8-0.1-1.1c0.1-0.4,0.4-0.6,1-0.7c0.4,0,0.7,0.1,1,0.3c0.4,0.1,0.7,0.1,0.9,0v-4.6c0-0.6,0.2-0.9,0.6-1
			c0.9,0,1.4,0.3,1.4,1c-0.1,0.5-0.1,0.9-0.1,1.1c2,0.1,3.6,0.1,4.9,0.1c0,0.5-0.1,0.9-0.4,1.3c-0.4,0.4-0.8,0.5-1.1,0.3
			c-1.5-0.5-2.6-0.6-3.4-0.4c-0.2,0.8-0.2,1.5,0,2.2c0.7,0.1,1.2,0,1.5-0.1c1.2-0.4,1.8,0,1.8,1c-0.2,0.8-0.3,1.7-0.3,2.8
			c0.2,1.2-0.2,1.6-1.3,1.3c-1.3-0.2-2.7-0.2-4.2-0.1c-1.1,0.6-1.7,0.2-1.8-1c0-0.3,0-0.8-0.1-1.5c-1.9,0.9-4.1,1.5-6.6,2
			c-0.9,0.2-1.2-0.1-1.1-1c0-0.5,0.5-0.8,1.4-0.9c1-0.1,2.2-0.2,3.5-0.4c0.3-1,0.4-2,0.4-3c0-0.7,0.2-1,0.6-1
			C484.6,665.4,484.8,666,484.5,667z M483.4,662.7c-0.1,1.1,0,1.6,0.3,1.5l2,0.1c0.5,0.4,0.5,0.7,0.1,0.9c-0.2,0.1-0.5,0.1-1,0.1
			c-1.9-0.4-3.8-0.2-5.8,0.4c-0.4,0.1-0.6,0-0.6-0.4c0.2-0.9,0.6-1.2,1.1-1.1c0.8,0.2,1.3,0.2,1.7,0.1c0.3-0.1,0.4-0.7,0.3-1.7
			c0.1-0.4,0.3-0.6,0.6-0.6C482.7,662,483.1,662.2,483.4,662.7z M482,668.9c-0.2,0.3-0.4,0.3-0.7,0.1c-0.6-0.9-0.9-1.6-1-2.2
			s0.1-1,0.7-1.1c0.5-0.1,0.7,0.1,0.7,0.6C481.8,667.1,481.9,668,482,668.9z M489.9,668.3c-1.3-0.1-2.2,0-2.5,0.3
			c-0.3,0.7-0.3,1.3,0,2c0.1,0.5,1.1,0.6,3.1,0.4c0.9,0,1.3-0.5,1.3-1.4C491.7,668.6,491.1,668.2,489.9,668.3z"/>
	</g>
	
		<linearGradient id="SVGID_1_" gradientUnits="userSpaceOnUse" x1="379.793" y1="270.8382" x2="379.793" y2="270.8382" gradientTransform="matrix(1.0929 0 0 -1.0929 0 955.5428)">
		<stop  offset="0" style="stop-color:#C4BA98"/>
		<stop  offset="1.474962e-002" style="stop-color:#CEC5A9"/>
		<stop  offset="4.332456e-002" style="stop-color:#DDD7C4"/>
		<stop  offset="7.615717e-002" style="stop-color:#EAE6DA"/>
		<stop  offset="0.1145" style="stop-color:#F3F1EB"/>
		<stop  offset="0.162" style="stop-color:#FAF9F6"/>
		<stop  offset="0.2285" style="stop-color:#FEFEFD"/>
		<stop  offset="0.4133" style="stop-color:#FFFFFF"/>
		<stop  offset="0.4696" style="stop-color:#DDDBD8"/>
		<stop  offset="0.5499" style="stop-color:#B2AFA6"/>
		<stop  offset="0.6258" style="stop-color:#908B7F"/>
		<stop  offset="0.6952" style="stop-color:#787263"/>
		<stop  offset="0.7558" style="stop-color:#696252"/>
		<stop  offset="0.801" style="stop-color:#645D4C"/>
		<stop  offset="0.8499" style="stop-color:#776F5B"/>
		<stop  offset="0.9484" style="stop-color:#A89F82"/>
		<stop  offset="1" style="stop-color:#C4BA98"/>
	</linearGradient>
	
		<linearGradient id="SVGID_2_" gradientUnits="userSpaceOnUse" x1="379.793" y1="270.8382" x2="379.793" y2="270.8382" gradientTransform="matrix(1.0929 0 0 -1.0929 0 955.5428)">
		<stop  offset="0" style="stop-color:#C4BA98"/>
		<stop  offset="1.389108e-002" style="stop-color:#C7BD9D"/>
		<stop  offset="0.1655" style="stop-color:#E5E1D2"/>
		<stop  offset="0.2794" style="stop-color:#F8F7F3"/>
		<stop  offset="0.3418" style="stop-color:#FFFFFF"/>
		<stop  offset="0.4046" style="stop-color:#E1E0DC"/>
		<stop  offset="0.5083" style="stop-color:#B5B1A9"/>
		<stop  offset="0.6058" style="stop-color:#928D81"/>
		<stop  offset="0.6943" style="stop-color:#797364"/>
		<stop  offset="0.7708" style="stop-color:#696352"/>
		<stop  offset="0.8265" style="stop-color:#645D4C"/>
		<stop  offset="0.8691" style="stop-color:#776F5B"/>
		<stop  offset="0.955" style="stop-color:#A89F82"/>
		<stop  offset="1" style="stop-color:#C4BA98"/>
	</linearGradient>
	<path fill="url(#SVGID_1_)" stroke="url(#SVGID_2_)" stroke-width="0.5" stroke-miterlimit="10" d="M415.1,659.6"/>
	
		<linearGradient id="SVGID_3_" gradientUnits="userSpaceOnUse" x1="387.3537" y1="276.5633" x2="387.3537" y2="276.5633" gradientTransform="matrix(1.0929 0 0 -1.0929 0 955.5428)">
		<stop  offset="0" style="stop-color:#C4BA98"/>
		<stop  offset="1.474962e-002" style="stop-color:#CEC5A9"/>
		<stop  offset="4.332456e-002" style="stop-color:#DDD7C4"/>
		<stop  offset="7.615717e-002" style="stop-color:#EAE6DA"/>
		<stop  offset="0.1145" style="stop-color:#F3F1EB"/>
		<stop  offset="0.162" style="stop-color:#FAF9F6"/>
		<stop  offset="0.2285" style="stop-color:#FEFEFD"/>
		<stop  offset="0.4133" style="stop-color:#FFFFFF"/>
		<stop  offset="0.4696" style="stop-color:#DDDBD8"/>
		<stop  offset="0.5499" style="stop-color:#B2AFA6"/>
		<stop  offset="0.6258" style="stop-color:#908B7F"/>
		<stop  offset="0.6952" style="stop-color:#787263"/>
		<stop  offset="0.7558" style="stop-color:#696252"/>
		<stop  offset="0.801" style="stop-color:#645D4C"/>
		<stop  offset="0.8499" style="stop-color:#776F5B"/>
		<stop  offset="0.9484" style="stop-color:#A89F82"/>
		<stop  offset="1" style="stop-color:#C4BA98"/>
	</linearGradient>
	
		<linearGradient id="SVGID_4_" gradientUnits="userSpaceOnUse" x1="387.3537" y1="276.5633" x2="387.3537" y2="276.5633" gradientTransform="matrix(1.0929 0 0 -1.0929 0 955.5428)">
		<stop  offset="0" style="stop-color:#C4BA98"/>
		<stop  offset="1.389108e-002" style="stop-color:#C7BD9D"/>
		<stop  offset="0.1655" style="stop-color:#E5E1D2"/>
		<stop  offset="0.2794" style="stop-color:#F8F7F3"/>
		<stop  offset="0.3418" style="stop-color:#FFFFFF"/>
		<stop  offset="0.4046" style="stop-color:#E1E0DC"/>
		<stop  offset="0.5083" style="stop-color:#B5B1A9"/>
		<stop  offset="0.6058" style="stop-color:#928D81"/>
		<stop  offset="0.6943" style="stop-color:#797364"/>
		<stop  offset="0.7708" style="stop-color:#696352"/>
		<stop  offset="0.8265" style="stop-color:#645D4C"/>
		<stop  offset="0.8691" style="stop-color:#776F5B"/>
		<stop  offset="0.955" style="stop-color:#A89F82"/>
		<stop  offset="1" style="stop-color:#C4BA98"/>
	</linearGradient>
	<path fill="url(#SVGID_3_)" stroke="url(#SVGID_4_)" stroke-width="0.5" stroke-miterlimit="10" d="M423.3,653.3"/>
	<g>
		<g>
			<path fill="#C4BA98" stroke="#000000" stroke-width="0.5" stroke-miterlimit="10" d="M419.7,645.7h-5.4v4.2h2.9v2.9h-2.9v5.2
				l-1.6,0.7v-15.9h7.1V645.7"/>
			<path fill="#C4BA98" stroke="#000000" stroke-width="0.5" stroke-miterlimit="10" d="M421.7,656.1v-0.8v-12.4h6
				c0.6,0,1,0.2,1.2,0.7c0.2,0.5,0.4,1.3,0.4,2.4v3.8c0,1.1-0.1,1.9-0.4,2.4c-0.2,0.5-0.7,0.8-1.2,0.8h-0.9l3.2,6.1h-2.3l-2.8-6.1
				h-1.5v2v0.9L421.7,656.1z M426.9,645.7h-3.7v4.5h3.6c0.3,0,0.5-0.1,0.6-0.3c0.1-0.2,0.2-0.5,0.2-1V647c0-0.5-0.1-0.8-0.2-1
				C427.4,645.8,427.2,645.7,426.9,645.7z"/>
			<path fill="#C4BA98" stroke="#000000" stroke-width="0.5" stroke-miterlimit="10" d="M432.5,659v-16.1h1.6V659H432.5z"/>
			<path fill="#C4BA98" stroke="#000000" stroke-width="0.5" stroke-miterlimit="10" d="M437.7,659v-16.1h7.1v2.7h-5.5v3.6h3.2v2.7
				h-3.2v4h5.6v3L437.7,659L437.7,659z"/>
			<path fill="#C4BA98" stroke="#000000" stroke-width="0.5" stroke-miterlimit="10" d="M447.9,659v-16.1h1.1l4.9,9.5
				c0.2,0.3,0.3,0.6,0.4,0.9s0.2,0.6,0.4,0.9c0-0.9,0-1.5-0.1-1.9c0-0.4,0-0.7,0-0.9v-8.5h1.4V659h-1.1l-5.1-9.9
				c-0.1-0.3-0.2-0.5-0.3-0.7c-0.1-0.2-0.2-0.4-0.3-0.6c0,0.5,0,1,0,1.4s0,0.8,0,1.2v8.7L447.9,659L447.9,659z"/>
			<path fill="#C4BA98" stroke="#000000" stroke-width="0.5" stroke-miterlimit="10" d="M459.6,659v-16.1h4.5c1.3,0,2.3,0.7,2.9,2.1
				c0.7,1.4,1,3.3,1,5.9c0,1.5-0.1,2.9-0.4,4.1c-0.3,1.2-0.7,2.1-1.1,2.8c-0.3,0.4-0.7,0.8-1.1,1c-0.5,0.2-1,0.3-1.7,0.3L459.6,659
				L459.6,659z M461.2,656h2.1c1.1,0,1.9-0.4,2.4-1.2c0.5-0.8,0.7-2.1,0.7-4c0-1.6-0.2-2.9-0.6-3.7c-0.4-0.9-1-1.3-1.7-1.3h-2.9
				L461.2,656L461.2,656z"/>
			<path fill="#C4BA98" stroke="#000000" stroke-width="0.5" stroke-miterlimit="10" d="M477,645.7h-4.6v3.5h4.3
				c0.7,0,1.1,0.3,1.4,0.8c0.2,0.5,0.4,1.5,0.4,3v2.2c0,1.5-0.1,2.5-0.4,3c-0.2,0.5-0.7,0.8-1.4,0.8h-4.3c-0.7,0-1.1-0.3-1.4-0.8
				c-0.2-0.5-0.4-1.5-0.4-3v-0.4l1.4-0.7v1.9h4.9v-3.7h-4.3c-0.7,0-1.1-0.3-1.4-0.8c-0.2-0.5-0.4-1.5-0.4-3v-1.8
				c0-1.5,0.1-2.5,0.4-3c0.2-0.5,0.7-0.8,1.4-0.8h4c0.7,0,1.1,0.3,1.4,0.8s0.4,1.4,0.4,2.8v0.3l-1.4,0.8V645.7L477,645.7z"/>
			<path fill="#C4BA98" stroke="#000000" stroke-width="0.5" stroke-miterlimit="10" d="M488.6,656.6v-4.5h-5.1v6.4l-1.6,0.6v-16.1
				h1.6v6.3h5.1v-6.3h1.6V656L488.6,656.6z"/>
			<path fill="#C4BA98" stroke="#000000" stroke-width="0.5" stroke-miterlimit="10" d="M493.8,659v-16.1h1.6V659H493.8z"/>
			<path fill="#C4BA98" stroke="#000000" stroke-width="0.5" stroke-miterlimit="10" d="M499,659v-16.1h6c0.6,0,1,0.2,1.2,0.7
				c0.2,0.5,0.4,1.3,0.4,2.4v3.6c0,1.1-0.1,1.9-0.4,2.4c-0.2,0.5-0.7,0.7-1.2,0.7h-4.4v5.6L499,659z M504.2,645.7h-3.7v4.3h3.6
				c0.3,0,0.5-0.1,0.6-0.3c0.1-0.2,0.2-0.5,0.2-1V647c0-0.5-0.1-0.8-0.2-1C504.7,645.8,504.5,645.7,504.2,645.7z"/>
		</g>
	</g>
</g>
</svg>
