<?xml version="1.0" encoding="utf-8"?>
<!-- Generator: Adobe Illustrator 18.1.1, SVG Export Plug-In . SVG Version: 6.00 Build 0)  -->
<svg version="1.1" id="图层_1" xmlns="http://www.w3.org/2000/svg" xmlns:xlink="http://www.w3.org/1999/xlink" x="0px" y="0px"
	 viewBox="0 0 612 792" enable-background="new 0 0 612 792" xml:space="preserve">
<g>
	<g>
		<path d="M309,151c0,169.8,0,339.4,0,509.6c-4.2-0.9-8.2-1.9-12.2-2.5c-46.9-8.7-90.9-26.4-135.1-43.7c-8.6-3.4-17.2-7.1-25.8-10.6
			c-1.5,4.7-1.1,6.1,2.8,8.5c10.6,6.6,22,11.5,33.7,16c22.4,8.6,44.7,17.6,67.3,25.6c21.6,7.7,43.7,14,66.1,19.3
			c2.8,0.7,3.6,1.7,3.5,4.5c-0.2,4-0.1,8.2-0.1,12.8c-3.5-1-6.4-1.9-9.4-2.8c-27.5-8.5-55.1-17.2-82.4-26.8
			c-11.3-3.9-21.6-9.9-32.5-15c-18.7-8.7-37.3-17.6-55.8-26.4c-1.6-0.8-3-1.4-2.8-3.7c0.5-23.5-0.2-47,0.7-70.5
			c0.9-26.3,2.8-52.7,4.7-79c1.3-19.2,1.4-38.5,1.5-57.7c0-1.4-0.5-2.5-1.4-3.6c-3.6-4.6-7.8-8.6-12.5-12c-5.9-4.2-8.2-9.2-8-16.7
			c0.5-20.4,0.2-41,0.2-61.5c0-2,0.5-3.5,1.6-5.1c12.6-18.3,24.7-36.7,38.6-54.1c24.9-31.1,54.2-57.5,87.4-79.5
			c17.9-11.8,37.7-18.8,58.8-22.2c1.9-0.3,3.7-0.5,5.5-1.1C305.3,152.4,307,151.7,309,151z M199.6,491.6
			c-10.3-0.9-20.3-1.6-30.6-2.5c0,5.1,0,9.6,0,14.5c10.5,1.1,21,2.2,31.6,3.4c-0.1,2.4-0.2,4.5-0.4,6.6c-0.9,13.7-1.7,27.2-2.6,40.9
			c-0.1,1.1-0.7,2.5,1.1,2.8c4.7,0.9,9.5,1.6,14.8,2.5c0-17.3,0-34.1,0-51.3c13.3,1.1,26.2,2.1,39.1,3.2c0-5.7,0-10.7,0-16
			c-1.3-0.1-2.3-0.2-3.3-0.2c-10.6-0.4-21.3-1.1-31.9-1.3c-3.3-0.1-4-1.2-4-4.4c0.1-16.7,0-33.6,0.1-50.3c0-2.5-0.7-3.6-3.3-3.6
			c-2.1,0-4.2-0.3-6.2-0.4c-3.8-0.3-3.8-0.3-3.8,3.4c0,16.3,0,32.5,0,48.7C200,488.9,200.2,490.1,199.6,491.6z M269.3,359.7
			c-1.9,0-3.3,0-4.7,0c-25,0-50.1,0-75.1,0c-0.9,0-1.6,0.1-2.5,0c-1.9-0.1-2.6,0.5-2.5,2.5c0.1,3.1,0.2,6.2,0,9.3
			c-0.2,2.5,1,3.1,3.1,3.5c7.3,1.4,14.6,1.9,22,0.9c3.8-0.4,6.2,0.5,7.4,4.2c1.1,3.5,3.7,4.2,6.9,4.3c13.3,0.4,26.7,1.1,40,1.5
			c1.9,0.1,3.7,0.7,5.6-0.2C269.3,377.1,269.3,368.6,269.3,359.7z"/>
		<path d="M489.6,603.8c-56.5,22.5-112.5,46.1-172.9,56.5c0-169.7,0-339.2,0-508.5c23.3,3.6,45.9,9.3,66.1,22
			c17.2,10.7,33,23.2,48.2,36.5c25.4,22.3,46.6,48.2,65.6,76c5.5,8,10.9,16.1,16.4,24.2c0.8,1.2,1.1,2.4,1.1,3.7
			c0,22.8,0,45.8,0,68.6c0,1.9-0.7,3.2-1.9,4.4c-3.1,3.2-6.3,5.9-9.8,8.6c-3.4,2.6-6.1,5.8-8.9,9.1c-1,1.1-1.3,2.3-1.3,3.7
			c-0.1,25.5,0.7,50.9,2.7,76.3c2.7,32.3,3.8,64.9,3.9,97.4c0,11.1,0,22.4,0.1,33.6c0,1.9-0.5,2.7-2.2,3.5
			c-27.8,13.1-55.5,26.4-83.4,39.3c-10.4,4.8-21.6,7.8-32.6,11.3c-20.3,6.6-40.7,12.9-61,19.2c-1.1,0.3-2.1,0.9-3.7,0.5
			c0-4.9,0-9.8,0-14.8c0-1.4,1.2-1.5,2.2-1.7c22.4-5,44.5-11.5,66.1-19.2c29.3-10.4,58.2-21.5,86.8-33.7c4.9-2.1,9.5-5.1,14.3-7.4
			C489.8,610.9,490.7,608,489.6,603.8z M425.2,491.7c0-19,0-37.6,0-56.4c-3.6,0.2-6.8,0.7-9.9,0.7c-2.5,0-3.3,1.1-3.3,3.6
			c0.1,16.6,0,33.3,0,49.9c0,4.4,0,4.4-4.6,4.6c-10.7,0.4-21.5,0.9-32.2,1.4c-1,0-2.6-0.4-2.7,1.2c-0.1,4.9,0,9.8,0,15
			c13.4-1.1,26.3-2.1,39.7-3.2c0,17.3,0,34,0,51.1c4.4-0.7,8.3-1.5,12.2-2c2.8-0.3,3.5-1.4,3.3-4.2c-1.1-14.3-1.9-28.7-3-43.1
			c-0.2-2.6,0.1-4.2,3.3-4c2,0.1,3.9-0.3,5.9-0.5c7.4-0.8,14.8-1.5,22.2-2.3c0-4.9,0-9.6,0-14.5C445.8,490,435.8,490.9,425.2,491.7z
			 M355.7,359.7c0,8.3,0,16.3,0,24.3c0,2.1,1.2,2.1,2.6,2c15-0.7,29.9-0.5,44.9-2.1c2.2-0.2,3.7-0.7,4.5-2.8
			c1.5-4.6,4.7-6.4,9.5-5.1c0.4,0.1,0.9,0,1.2,0.1c7.4,0.9,14.8-0.1,22.1-1.9c0-4.8,0-9.5,0-14.4
			C412.3,359.7,384.2,359.7,355.7,359.7z"/>
		<path d="M155.5,243.8c20.2-36.8,44.5-70.3,78.4-96c14-10.6,29.3-18.6,44.4-27.3c9-5.2,18.1-10.1,27.1-15.1c1-0.5,2-1,3.4-1.7
			c0,14,0,27.6,0,41.5c-5.5,0.4-10.8,1-16.3,1.9c-13.1,2.3-25.7,6.4-37.5,12.7c-38.8,20.4-71.3,48.4-98.2,82.8
			C156.4,243,156,243.3,155.5,243.8z"/>
		<path d="M469.6,243c-7.1-8.2-14.2-16.2-21.5-24c-24.4-26.3-53-47-85.2-62.7c-14-6.8-29.1-9.5-44.4-10.9c-0.5-0.1-1.2-0.1-2-0.2
			c0-13.8,0-27.3,0-41.4c4.5,2.4,8.6,4.6,12.8,6.9c16.4,9.2,33.4,17.5,49,28.1c23.6,16.1,44.8,35,61.7,58.4
			c9.9,13.7,19.2,27.8,27.6,42.4C468.3,240.5,468.9,241.8,469.6,243z"/>
	</g>
</g>
<g>
	<g>
		<path fill="#C4BA98" stroke="#000000" stroke-width="0.5" stroke-miterlimit="10" d="M453.5,663v-10.2h7.9v1.8h-6.1v2.7h3.3v1.9
			h-3.3v3.1L453.5,663z"/>
		<path fill="#C4BA98" stroke="#000000" stroke-width="0.5" stroke-miterlimit="10" d="M463.6,655.2c0-0.9,0.1-1.6,0.4-1.9
			c0.3-0.3,0.8-0.5,1.5-0.5h5.8c0.8,0,1.3,0.2,1.5,0.5c0.3,0.3,0.4,1,0.4,1.9v5.4c0,0.9-0.1,1.6-0.4,1.9c-0.3,0.3-0.8,0.5-1.5,0.5
			h-5.8c-0.8,0-1.3-0.2-1.5-0.5c-0.3-0.3-0.4-1-0.4-1.9V655.2z M465.4,661.1h6v-6.4h-6V661.1z"/>
		<path fill="#C4BA98" stroke="#000000" stroke-width="0.5" stroke-miterlimit="10" d="M477.1,661.4v-8.5h6.7c0.6,0,1.1,0.1,1.4,0.5
			c0.3,0.3,0.4,0.8,0.4,1.5v2.4c0,0.7-0.1,1.2-0.4,1.5s-0.7,0.5-1.4,0.5h-1l3.6,3.8h-2.6l-3.2-3.8h-1.7v1.8L477.1,661.4z M483,654.6
			h-4.1v2.8h4.1c0.3,0,0.5-0.1,0.7-0.2c0.1-0.1,0.2-0.3,0.2-0.6v-1.2c0-0.3-0.1-0.5-0.2-0.6C483.5,654.6,483.3,654.6,483,654.6z"/>
	</g>
	<g>
		<path fill="#C4BA98" stroke="#000000" stroke-width="0.5" stroke-miterlimit="10" d="M439.8,683.4c0.7-0.1,1.1,0.2,1.1,0.9v1.2h2
			c0.8,0,1,0.3,0.5,0.8h-2.5c0,1.3,0.1,2,0.3,2c0.4,0.1,0.7,0,0.9-0.1c0.9-0.2,1.3,0.1,1.2,0.9c-0.1,0.6-0.1,1.5-0.1,2.6
			c0.1,0.9-0.4,1.2-1.3,0.9c-1.1-0.4-2.2-0.4-3.3,0c-0.7,0.4-1.1,0.2-1.2-0.7s-0.3-1.8-0.5-2.9c0.1-0.7,0.6-0.9,1.5-0.7
			c0.7,0.1,1.1-0.1,1.1-0.5c0-1,0-1.9-0.1-2.8C439,683.9,439.2,683.3,439.8,683.4z M438.5,689.8c-0.1,1.1,0.1,1.6,0.5,1.7
			c2,0.3,2.9,0,2.8-0.9c0.2-1.2-0.7-1.7-2.5-1.5C438.8,689.1,438.5,689.3,438.5,689.8z M443.8,686.7c0.4,0,0.6,0,0.7-0.1
			c-0.1-1-0.1-1.9-0.1-2.8c-0.1-0.6,0.2-0.9,0.9-0.8c0.4,0,0.7,0.2,0.7,0.7c-0.1,0.8-0.1,1.7,0,2.8c2.9-0.4,4.3-0.4,4.2,0
			c0.2,0.3,0.1,0.4-0.1,0.4c-1.3,0.2-2.6,0.4-4,0.7c0.3,0.8,0.5,1.5,0.8,2c0.4-0.4,0.7-1,1.1-1.6c0.3-0.3,0.5-0.4,0.8-0.3
			c0.4,0.3,0.5,0.6,0.4,0.9c-0.5,0.7-1,1.3-1.5,1.7c1,1,2.5,1.4,4.7,1.3c0.2,0.1-0.1,0.5-0.8,1.3c-1,1-2,1.1-3,0.5
			c-0.4-0.4-1.1-1-2.1-2c-0.9,0.6-1.8,1-2.8,1.1c-0.4-0.1-0.5-0.3-0.3-0.5c0.9-0.3,1.7-0.8,2.4-1.6c-0.4-0.5-0.7-1.4-1.1-2.6
			c-0.4,0.1-0.8,0.2-1.2,0.4c-0.5,0.1-0.7-0.2-0.7-0.8C442.8,687,443.1,686.8,443.8,686.7z M448,683.7c0.3-0.6,0.6-0.8,1.1-0.5
			c0.4,0.3,0.6,0.6,0.4,1.1c-0.4,0.5-0.9,0.8-1.7,0.9c-0.4,0-0.5-0.1-0.4-0.4C447.6,684.4,447.8,684,448,683.7z"/>
		<path fill="#C4BA98" stroke="#000000" stroke-width="0.5" stroke-miterlimit="10" d="M458.4,686.7c0.4,0,0.7,0.1,0.9,0.4
			c-0.1,0.4-0.4,0.5-0.9,0.4c-0.5,0-1.1,0-1.6,0.1c0.2,0.3,0.1,0.5-0.3,0.8l-0.7,0.7c-0.3,0.4,0,0.6,0.7,0.7c0.5,0.1,1-0.1,1.3-0.5
			l-0.4-0.8c0.1-0.3,0.3-0.4,0.5-0.3c0.3,0.2,0.5,0.4,0.8,0.5c0.2,0.4,0.4,0.7,0.7,1.2c-0.1,0.2-0.2,0.3-0.3,0.3
			c-0.4,0.1-0.7-0.1-1.1-0.5c-0.5,1-1.1,1.3-1.7,1.1c-0.5-0.4-1-0.4-1.5-0.1c-0.2,0-0.4-0.1-0.5-0.4c-0.1-0.4,0.1-0.7,0.5-1.1
			c0.8-0.7,1.1-1.2,0.8-1.5c-0.4-0.1-0.9,0-1.6,0.3c-0.3,0.2-0.4,0.1-0.5-0.1c0.1-0.6,0.4-1,0.9-1.1L458.4,686.7L458.4,686.7z
			 M458.4,684.9c0.3,0,0.4,0.1,0.5,0.4c0,0.3-0.1,0.4-0.3,0.4h-2.1c-0.6,0-1.2,0-1.7,0.1c-0.2-0.1-0.3-0.3-0.3-0.5
			c0.1-0.3,0.3-0.5,0.5-0.7C455.7,684.8,456.8,684.9,458.4,684.9z M461.9,688.6c-0.3-0.1-0.5-0.1-0.8,0c-0.3,0.2-0.5,0.3-0.8,0.4
			c-0.2,0-0.3,0-0.4-0.1c-0.2-1.3-0.4-2.5-0.5-3.6c-0.1-0.5,0.2-0.8,0.8-0.8c0.3,0.2,0.7,0.2,1.3,0.1c0.3-0.3,0.6-0.7,0.9-1.3
			c0.1-0.2,0.3-0.3,0.5-0.3c0.8,0.3,1,0.6,0.7,0.9c-0.3,0.3-0.5,0.5-0.7,0.7c0.6,0,1.4,0.1,2.4,0.3c0.3-0.1,0.5-0.2,0.7-0.3
			c0.3-0.1,0.5,0,0.7,0.1c0.4,0.3,0.4,0.7,0.3,1.2c-0.3,0.8-0.4,1.6-0.5,2.5l-0.4,0.3c0.4,0.3,0.4,0.5,0.1,0.7
			c-0.2,0.2-0.4,0.4-0.5,0.5c-0.2,0.1-0.1,0.2,0.1,0.4c0.4,0.1,0.7,0,0.9-0.1c-0.4-0.3-0.4-0.4-0.1-0.5c0.4,0,0.6,0,0.8,0.1
			c0.2,0.3,0.4,0.5,0.5,0.8c-0.1,0.1-0.2,0.2-0.4,0.3l-0.5-0.4c-0.2,0.5-0.5,0.7-0.9,0.7c-0.4-0.3-0.7-0.4-1.1-0.3
			c-0.3-0.2-0.4-0.4-0.3-0.7c0.2-0.2,0.4-0.4,0.5-0.7c0.1-0.2,0.2-0.4,0.4-0.8c-0.7-0.1-1.5-0.1-2.5-0.1c-0.6,2-1.8,3.5-3.6,4.4
			c-1.4,0.5-2.5,0.3-3.2-0.7c0-0.1,0.2-0.1,0.5-0.1C459.6,691.9,461.2,690.7,461.9,688.6z M462.2,685.3c-0.6,0-1.1,0.1-1.5,0.3
			c-0.2,0.5-0.1,0.8,0.3,0.8l1.5-0.1C462.6,685.8,462.5,685.4,462.2,685.3z M462.4,686.9c-0.4,0-1,0-1.6,0.1c0,0.6,0.1,0.9,0.4,0.9
			l0.9-0.1L462.4,686.9z M463.3,689.2c0.1-0.4,0.3-0.5,0.5-0.5c0.2,0,0.3,0.1,0.4,0.3c-0.2,0.4-0.3,0.7-0.4,1.1c0,0.4,0,0.6,0.1,0.8
			c0.4,0.4,1.1,0.7,2.1,0.9c0.9,0.1,1.7,0,2.5-0.3c0.5-0.3,0.9-0.3,1.1-0.1c-0.1,0.5-0.4,1.2-0.9,1.8c-0.6,0.5-1.2,0.7-1.6,0.5
			c-1.5-0.3-2.7-0.9-3.7-1.8c-0.4-0.5-0.6-1-0.5-1.5C463.1,690,463.2,689.6,463.3,689.2z M465.3,688c0.2-0.4,0.2-0.7,0.1-0.9
			c-0.4-0.2-1-0.3-2-0.3c-0.1,0.4-0.1,0.7-0.1,1.1C464,688,464.7,688,465.3,688z M463.6,686.2l1.5,0.1c0.4,0.1,0.5-0.1,0.5-0.5
			c0-0.4-0.5-0.5-1.6-0.5C463.7,685.4,463.6,685.7,463.6,686.2z"/>
		<path fill="#C4BA98" stroke="#000000" stroke-width="0.5" stroke-miterlimit="10" d="M475.2,686.1c0.2-0.4,0.3-0.5,0.4-0.5
			c0.4-0.1,0.6,0.2,0.4,0.9c-0.3,0.8-0.7,1.6-1.2,2.5c-0.4,0.7-0.9,1.2-1.3,1.6c-0.9,0.8-1.8,0.7-2.8-0.1c-0.3-0.3-0.2-0.5,0.3-0.8
			C472.4,688.9,473.9,687.7,475.2,686.1z M478.2,683.4c0.9-0.1,1.3,0.4,1.2,1.5c-0.1,2.2,0,4.7,0.1,7.4c0,1.1-0.8,1.5-2.5,1.5
			c-0.9-0.1-1.9-0.6-3-1.5c-0.2-0.4-0.1-0.7,0.3-0.7c1.7,0.5,2.7,0.6,3,0.3c0.3-0.2,0.4-2.6,0.3-7.4
			C477.6,683.8,477.8,683.4,478.2,683.4z M480.3,686.5c-0.3-0.4-0.2-0.6,0.1-0.8c0.2-0.1,0.4,0,0.5,0.1c1.2,1.6,3.1,2.9,5.5,4.1
			c-0.3,0.4-0.5,0.7-0.8,0.9c-0.8,0.7-1.5,0.7-2.3,0C482.3,689.4,481.3,687.9,480.3,686.5z"/>
		<path fill="#C4BA98" stroke="#000000" stroke-width="0.5" stroke-miterlimit="10" d="M493.4,688.3c-0.3,0.9-0.5,1.5-0.8,2l1.7-0.3
			c-0.1-0.4-0.1-0.7-0.1-1.1c0.1-0.4,0.4-0.6,0.9-0.7c0.4,0,0.7,0.1,0.9,0.3c0.4,0.1,0.6,0.1,0.8,0v-4.4c0-0.5,0.2-0.8,0.5-0.9
			c0.9,0,1.3,0.3,1.3,0.9c-0.1,0.4-0.1,0.8-0.1,1.1c1.8,0.1,3.4,0.1,4.6,0.1c0,0.4-0.1,0.8-0.4,1.2c-0.4,0.4-0.7,0.4-1.1,0.3
			c-1.4-0.4-2.5-0.6-3.2-0.4c-0.2,0.7-0.2,1.4,0,2.1c0.6,0.1,1.1,0,1.5-0.1c1.1-0.4,1.7,0,1.7,0.9c-0.2,0.7-0.3,1.6-0.3,2.6
			c0.2,1.1-0.2,1.5-1.2,1.2c-1.2-0.2-2.5-0.2-4-0.1c-1.1,0.5-1.6,0.2-1.7-0.9c0-0.3,0-0.7-0.1-1.5c-1.8,0.8-3.8,1.4-6.2,1.8
			c-0.8,0.2-1.2-0.1-1.1-0.9c0-0.4,0.4-0.7,1.3-0.8c1-0.1,2.1-0.2,3.3-0.4c0.3-1,0.4-1.9,0.4-2.8c0-0.6,0.2-0.9,0.5-0.9
			C493.4,686.8,493.7,687.3,493.4,688.3z M492.3,684.2c-0.1,1.1,0,1.5,0.3,1.5l1.8,0.1c0.4,0.4,0.5,0.6,0.1,0.8
			c-0.2,0.1-0.5,0.1-0.9,0.1c-1.8-0.4-3.6-0.2-5.4,0.4c-0.4,0.1-0.5,0-0.5-0.4c0.2-0.8,0.5-1.1,1.1-1.1c0.7,0.2,1.2,0.2,1.6,0.1
			c0.3-0.1,0.4-0.6,0.3-1.6c0.1-0.4,0.3-0.5,0.5-0.5C491.7,683.6,492.1,683.8,492.3,684.2z M491,690c-0.2,0.3-0.4,0.3-0.7,0.1
			c-0.5-0.8-0.8-1.5-0.9-2.1c-0.1-0.6,0.1-1,0.7-1.1c0.4-0.1,0.7,0.1,0.7,0.5C490.8,688.4,490.9,689.2,491,690z M498.4,689.5
			c-1.2-0.1-2,0-2.4,0.3c-0.3,0.6-0.3,1.2,0,1.8c0.1,0.4,1.1,0.6,2.9,0.4c0.8,0,1.2-0.4,1.2-1.3
			C500.1,689.8,499.6,689.4,498.4,689.5z"/>
	</g>
	
		<linearGradient id="SVGID_1_" gradientUnits="userSpaceOnUse" x1="391.9035" y1="250.9362" x2="391.9035" y2="250.9362" gradientTransform="matrix(1.0929 0 0 -1.0929 0 955.5428)">
		<stop  offset="0" style="stop-color:#C4BA98"/>
		<stop  offset="1.474962e-002" style="stop-color:#CEC5A9"/>
		<stop  offset="4.332456e-002" style="stop-color:#DDD7C4"/>
		<stop  offset="7.615717e-002" style="stop-color:#EAE6DA"/>
		<stop  offset="0.1145" style="stop-color:#F3F1EB"/>
		<stop  offset="0.162" style="stop-color:#FAF9F6"/>
		<stop  offset="0.2285" style="stop-color:#FEFEFD"/>
		<stop  offset="0.4133" style="stop-color:#FFFFFF"/>
		<stop  offset="0.4696" style="stop-color:#DDDBD8"/>
		<stop  offset="0.5499" style="stop-color:#B2AFA6"/>
		<stop  offset="0.6258" style="stop-color:#908B7F"/>
		<stop  offset="0.6952" style="stop-color:#787263"/>
		<stop  offset="0.7558" style="stop-color:#696252"/>
		<stop  offset="0.801" style="stop-color:#645D4C"/>
		<stop  offset="0.8499" style="stop-color:#776F5B"/>
		<stop  offset="0.9484" style="stop-color:#A89F82"/>
		<stop  offset="1" style="stop-color:#C4BA98"/>
	</linearGradient>
	
		<linearGradient id="SVGID_2_" gradientUnits="userSpaceOnUse" x1="391.9035" y1="250.9362" x2="391.9035" y2="250.9362" gradientTransform="matrix(1.0929 0 0 -1.0929 0 955.5428)">
		<stop  offset="0" style="stop-color:#C4BA98"/>
		<stop  offset="1.389108e-002" style="stop-color:#C7BD9D"/>
		<stop  offset="0.1655" style="stop-color:#E5E1D2"/>
		<stop  offset="0.2794" style="stop-color:#F8F7F3"/>
		<stop  offset="0.3418" style="stop-color:#FFFFFF"/>
		<stop  offset="0.4046" style="stop-color:#E1E0DC"/>
		<stop  offset="0.5083" style="stop-color:#B5B1A9"/>
		<stop  offset="0.6058" style="stop-color:#928D81"/>
		<stop  offset="0.6943" style="stop-color:#797364"/>
		<stop  offset="0.7708" style="stop-color:#696352"/>
		<stop  offset="0.8265" style="stop-color:#645D4C"/>
		<stop  offset="0.8691" style="stop-color:#776F5B"/>
		<stop  offset="0.955" style="stop-color:#A89F82"/>
		<stop  offset="1" style="stop-color:#C4BA98"/>
	</linearGradient>
	<path fill="url(#SVGID_1_)" stroke="url(#SVGID_2_)" stroke-width="0.5" stroke-miterlimit="10" d="M428.3,681.3"/>
	
		<linearGradient id="SVGID_3_" gradientUnits="userSpaceOnUse" x1="398.988" y1="256.3007" x2="398.988" y2="256.3007" gradientTransform="matrix(1.0929 0 0 -1.0929 0 955.5428)">
		<stop  offset="0" style="stop-color:#C4BA98"/>
		<stop  offset="1.474962e-002" style="stop-color:#CEC5A9"/>
		<stop  offset="4.332456e-002" style="stop-color:#DDD7C4"/>
		<stop  offset="7.615717e-002" style="stop-color:#EAE6DA"/>
		<stop  offset="0.1145" style="stop-color:#F3F1EB"/>
		<stop  offset="0.162" style="stop-color:#FAF9F6"/>
		<stop  offset="0.2285" style="stop-color:#FEFEFD"/>
		<stop  offset="0.4133" style="stop-color:#FFFFFF"/>
		<stop  offset="0.4696" style="stop-color:#DDDBD8"/>
		<stop  offset="0.5499" style="stop-color:#B2AFA6"/>
		<stop  offset="0.6258" style="stop-color:#908B7F"/>
		<stop  offset="0.6952" style="stop-color:#787263"/>
		<stop  offset="0.7558" style="stop-color:#696252"/>
		<stop  offset="0.801" style="stop-color:#645D4C"/>
		<stop  offset="0.8499" style="stop-color:#776F5B"/>
		<stop  offset="0.9484" style="stop-color:#A89F82"/>
		<stop  offset="1" style="stop-color:#C4BA98"/>
	</linearGradient>
	
		<linearGradient id="SVGID_4_" gradientUnits="userSpaceOnUse" x1="398.988" y1="256.3007" x2="398.988" y2="256.3007" gradientTransform="matrix(1.0929 0 0 -1.0929 0 955.5428)">
		<stop  offset="0" style="stop-color:#C4BA98"/>
		<stop  offset="1.389108e-002" style="stop-color:#C7BD9D"/>
		<stop  offset="0.1655" style="stop-color:#E5E1D2"/>
		<stop  offset="0.2794" style="stop-color:#F8F7F3"/>
		<stop  offset="0.3418" style="stop-color:#FFFFFF"/>
		<stop  offset="0.4046" style="stop-color:#E1E0DC"/>
		<stop  offset="0.5083" style="stop-color:#B5B1A9"/>
		<stop  offset="0.6058" style="stop-color:#928D81"/>
		<stop  offset="0.6943" style="stop-color:#797364"/>
		<stop  offset="0.7708" style="stop-color:#696352"/>
		<stop  offset="0.8265" style="stop-color:#645D4C"/>
		<stop  offset="0.8691" style="stop-color:#776F5B"/>
		<stop  offset="0.955" style="stop-color:#A89F82"/>
		<stop  offset="1" style="stop-color:#C4BA98"/>
	</linearGradient>
	<path fill="url(#SVGID_3_)" stroke="url(#SVGID_4_)" stroke-width="0.5" stroke-miterlimit="10" d="M436,675.4"/>
	<g>
		<g>
			<path fill="#C4BA98" stroke="#000000" stroke-width="0.5" stroke-miterlimit="10" d="M432.6,668.4h-5.1v4h2.8v2.8h-2.8v4.9
				l-1.5,0.7v-14.9h6.6V668.4"/>
			<path fill="#C4BA98" stroke="#000000" stroke-width="0.5" stroke-miterlimit="10" d="M434.5,678.1v-0.7v-11.6h5.6
				c0.5,0,0.9,0.2,1.1,0.7c0.2,0.5,0.4,1.2,0.4,2.2v3.5c0,1-0.1,1.8-0.4,2.2c-0.2,0.5-0.6,0.7-1.1,0.7h-0.9l3,5.7h-2.2l-2.6-5.7H436
				v1.9v0.9L434.5,678.1z M439.4,668.3H436v4.2h3.4c0.3,0,0.4-0.1,0.5-0.3c0.1-0.2,0.1-0.5,0.1-0.9v-1.8c0-0.4-0.1-0.7-0.1-0.9
				C439.9,668.4,439.7,668.3,439.4,668.3z"/>
			<path fill="#C4BA98" stroke="#000000" stroke-width="0.5" stroke-miterlimit="10" d="M444.6,680.8v-15.1h1.5v15.1H444.6z"/>
			<path fill="#C4BA98" stroke="#000000" stroke-width="0.5" stroke-miterlimit="10" d="M449.5,680.8v-15.1h6.7v2.6H451v3.4h3v2.6
				h-3v3.7h5.2v2.8L449.5,680.8L449.5,680.8z"/>
			<path fill="#C4BA98" stroke="#000000" stroke-width="0.5" stroke-miterlimit="10" d="M459,680.8v-15.1h1l4.6,8.9
				c0.1,0.3,0.3,0.6,0.4,0.8s0.2,0.5,0.3,0.8c0-0.9,0-1.5-0.1-1.8c0-0.4,0-0.6,0-0.8v-7.9h1.4v15.1h-1l-4.8-9.3
				c-0.1-0.2-0.2-0.4-0.3-0.7c-0.1-0.2-0.2-0.4-0.2-0.6c0,0.5,0,0.9,0,1.3c0,0.4,0,0.8,0,1.1v8.2L459,680.8L459,680.8z"/>
			<path fill="#C4BA98" stroke="#000000" stroke-width="0.5" stroke-miterlimit="10" d="M470,680.8v-15.1h4.2c1.2,0,2.1,0.7,2.8,1.9
				c0.7,1.3,1,3.1,1,5.5c0,1.4-0.1,2.7-0.4,3.8c-0.2,1.1-0.6,2-1.1,2.7c-0.3,0.4-0.6,0.7-1.1,0.9c-0.4,0.2-1,0.3-1.6,0.3L470,680.8
				L470,680.8z M471.5,678h2c1,0,1.8-0.4,2.2-1.1c0.4-0.7,0.7-2,0.7-3.7c0-1.5-0.2-2.7-0.5-3.5c-0.4-0.8-0.9-1.2-1.6-1.2h-2.7
				L471.5,678L471.5,678z"/>
			<path fill="#C4BA98" stroke="#000000" stroke-width="0.5" stroke-miterlimit="10" d="M486.4,668.4h-4.3v3.2h4.1
				c0.6,0,1.1,0.3,1.3,0.8c0.2,0.5,0.3,1.4,0.3,2.8v2.1c0,1.4-0.1,2.3-0.3,2.8c-0.2,0.5-0.7,0.8-1.3,0.8h-4c-0.6,0-1.1-0.3-1.3-0.8
				c-0.2-0.5-0.3-1.4-0.3-2.8v-0.4l1.3-0.7v1.8h4.6v-3.4h-4.1c-0.6,0-1.1-0.3-1.3-0.8s-0.3-1.4-0.3-2.8v-1.7c0-1.4,0.1-2.3,0.3-2.8
				s0.7-0.8,1.3-0.8h3.7c0.6,0,1,0.2,1.3,0.7c0.2,0.5,0.4,1.3,0.4,2.6v0.3l-1.3,0.7V668.4L486.4,668.4z"/>
			<path fill="#C4BA98" stroke="#000000" stroke-width="0.5" stroke-miterlimit="10" d="M497.2,678.6v-4.2h-4.7v6l-1.5,0.5v-15.1
				h1.5v5.9h4.7v-5.9h1.5V678L497.2,678.6z"/>
			<path fill="#C4BA98" stroke="#000000" stroke-width="0.5" stroke-miterlimit="10" d="M502.1,680.8v-15.1h1.5v15.1H502.1z"/>
			<path fill="#C4BA98" stroke="#000000" stroke-width="0.5" stroke-miterlimit="10" d="M506.9,680.8v-15.1h5.6
				c0.5,0,0.9,0.2,1.1,0.7c0.2,0.5,0.4,1.2,0.4,2.2v3.4c0,1-0.1,1.7-0.4,2.2c-0.2,0.5-0.6,0.7-1.1,0.7h-4.1v5.2L506.9,680.8z
				 M511.8,668.3h-3.4v4h3.4c0.3,0,0.4-0.1,0.5-0.3c0.1-0.2,0.1-0.5,0.1-0.9v-1.6c0-0.4-0.1-0.7-0.1-0.9
				C512.3,668.4,512.1,668.3,511.8,668.3z"/>
		</g>
	</g>
</g>
</svg>
