<?xml version="1.0" encoding="utf-8"?>
<!-- Generator: Adobe Illustrator 18.1.1, SVG Export Plug-In . SVG Version: 6.00 Build 0)  -->
<svg version="1.1" id="图层_1" xmlns="http://www.w3.org/2000/svg" xmlns:xlink="http://www.w3.org/1999/xlink" x="0px" y="0px"
	 viewBox="0 0 560 560" enable-background="new 0 0 560 560" xml:space="preserve">
	 <style type="text/css">
	.st0{fill:#FFFFFF;}
</style>
<g>
	<g>
		<path class="st0" d="M282.7,55.8c0,155.4,0,310.6,0,466.3c-3.8-0.8-7.5-1.7-11.2-2.3c-42.9-8-83.2-24.2-123.6-40c-7.9-3.1-15.7-6.5-23.6-9.7
			c-1.4,4.3-1,5.6,2.6,7.8c9.7,6,20.1,10.5,30.8,14.6c20.5,7.9,40.9,16.1,61.6,23.4c19.8,7,40,12.8,60.5,17.7
			c2.6,0.6,3.3,1.6,3.2,4.1c-0.2,3.7-0.1,7.5-0.1,11.7c-3.2-0.9-5.9-1.7-8.6-2.6c-25.2-7.8-50.4-15.7-75.4-24.5
			c-10.3-3.6-19.8-9.1-29.7-13.7c-17.1-8-34.1-16.1-51.1-24.2c-1.5-0.7-2.7-1.3-2.6-3.4c0.5-21.5-0.2-43,0.6-64.5
			c0.8-24.1,2.6-48.2,4.3-72.3c1.2-17.6,1.3-35.2,1.4-52.8c0-1.3-0.5-2.3-1.3-3.3c-3.3-4.2-7.1-7.9-11.4-11
			c-5.4-3.8-7.5-8.4-7.3-15.3c0.5-18.7,0.2-37.5,0.2-56.3c0-1.8,0.5-3.2,1.5-4.7c11.5-16.7,22.6-33.6,35.3-49.5
			c22.8-28.5,49.6-52.6,80-72.7c16.4-10.8,34.5-17.2,53.8-20.3c1.7-0.3,3.4-0.5,5-1C279.4,57.1,280.9,56.5,282.7,55.8z M182.6,367.5
			c-9.4-0.8-18.6-1.5-28-2.3c0,4.7,0,8.8,0,13.3c9.6,1,19.2,2,28.9,3.1c-0.1,2.2-0.2,4.1-0.4,6c-0.8,12.5-1.6,24.9-2.4,37.4
			c-0.1,1-0.6,2.3,1,2.6c4.3,0.8,8.7,1.5,13.5,2.3c0-15.8,0-31.2,0-46.9c12.2,1,24,1.9,35.8,2.9c0-5.2,0-9.8,0-14.6
			c-1.2-0.1-2.1-0.2-3-0.2c-9.7-0.4-19.5-1-29.2-1.2c-3-0.1-3.7-1.1-3.7-4c0.1-15.3,0-30.7,0.1-46c0-2.3-0.6-3.3-3-3.3
			c-1.9,0-3.8-0.3-5.7-0.4c-3.5-0.3-3.5-0.3-3.5,3.1c0,14.9,0,29.7,0,44.6C183,365,183.2,366.1,182.6,367.5z M246.4,246.8
			c-1.7,0-3,0-4.3,0c-22.9,0-45.8,0-68.7,0c-0.8,0-1.5,0.1-2.3,0c-1.7-0.1-2.4,0.5-2.3,2.3c0.1,2.8,0.2,5.7,0,8.5
			c-0.2,2.3,0.9,2.8,2.8,3.2c6.7,1.3,13.4,1.7,20.1,0.8c3.5-0.4,5.7,0.5,6.8,3.8c1,3.2,3.4,3.8,6.3,3.9c12.2,0.4,24.4,1,36.6,1.4
			c1.7,0.1,3.4,0.6,5.1-0.2C246.4,262.7,246.4,254.9,246.4,246.8z"/>
		<path class="st0" d="M448,470.1c-51.7,20.6-102.9,42.2-158.2,51.7c0-155.3,0-310.4,0-465.3c21.3,3.3,42,8.5,60.5,20.1
			c15.7,9.8,30.2,21.2,44.1,33.4c23.2,20.4,42.6,44.1,60,69.5c5,7.3,10,14.7,15,22.1c0.7,1.1,1,2.2,1,3.4c0,20.9,0,41.9,0,62.8
			c0,1.7-0.6,2.9-1.7,4c-2.8,2.9-5.8,5.4-9,7.9c-3.1,2.4-5.6,5.3-8.1,8.3c-0.9,1-1.2,2.1-1.2,3.4c-0.1,23.3,0.6,46.6,2.5,69.8
			c2.5,29.6,3.5,59.4,3.6,89.1c0,10.2,0,20.5,0.1,30.7c0,1.7-0.5,2.5-2,3.2c-25.4,12-50.8,24.2-76.3,36c-9.5,4.4-19.8,7.1-29.8,10.3
			c-18.6,6-37.2,11.8-55.8,17.6c-1,0.3-1.9,0.8-3.4,0.5c0-4.5,0-9,0-13.5c0-1.3,1.1-1.4,2-1.6c20.5-4.6,40.7-10.5,60.5-17.6
			c26.8-9.5,53.3-19.7,79.4-30.8c4.5-1.9,8.7-4.7,13.1-6.8C448.2,476.6,449,474,448,470.1z M389.1,367.6c0-17.4,0-34.4,0-51.6
			c-3.3,0.2-6.2,0.6-9.1,0.6c-2.3,0-3,1-3,3.3c0.1,15.2,0,30.5,0,45.7c0,4,0,4-4.2,4.2c-9.8,0.4-19.7,0.8-29.5,1.3
			c-0.9,0-2.4-0.4-2.5,1.1c-0.1,4.5,0,9,0,13.7c12.3-1,24.1-1.9,36.3-2.9c0,15.8,0,31.1,0,46.8c4-0.6,7.6-1.4,11.2-1.8
			c2.6-0.3,3.2-1.3,3-3.8c-1-13.1-1.7-26.3-2.7-39.4c-0.2-2.4,0.1-3.8,3-3.7c1.8,0.1,3.6-0.3,5.4-0.5c6.8-0.7,13.5-1.4,20.3-2.1
			c0-4.5,0-8.8,0-13.3C407.9,366,398.8,366.8,389.1,367.6z M325.5,246.8c0,7.6,0,14.9,0,22.2c0,1.9,1.1,1.9,2.4,1.8
			c13.7-0.6,27.4-0.5,41.1-1.9c2-0.2,3.4-0.6,4.1-2.6c1.4-4.2,4.3-5.9,8.7-4.7c0.4,0.1,0.8,0,1.1,0.1c6.8,0.8,13.5-0.1,20.2-1.7
			c0-4.4,0-8.7,0-13.2C377.3,246.8,351.6,246.8,325.5,246.8z"/>
		<path class="st0" d="M142.3,140.7C160.8,107,183,76.4,214,52.9c12.8-9.7,26.8-17,40.6-25c8.2-4.8,16.6-9.2,24.8-13.8c0.9-0.5,1.8-0.9,3.1-1.6
			c0,12.8,0,25.3,0,38c-5,0.4-9.9,0.9-14.9,1.7c-12,2.1-23.5,5.9-34.3,11.6c-35.5,18.7-65.2,44.3-89.9,75.8
			C143.1,140,142.7,140.3,142.3,140.7z"/>
		<path class="st0" d="M429.7,140c-6.5-7.5-13-14.8-19.7-22c-22.3-24.1-48.5-43-78-57.4c-12.8-6.2-26.6-8.7-40.6-10c-0.5-0.1-1.1-0.1-1.8-0.2
			c0-12.6,0-25,0-37.9c4.1,2.2,7.9,4.2,11.7,6.3c15,8.4,30.6,16,44.8,25.7c21.6,14.7,41,32,56.5,53.4c9.1,12.5,17.6,25.4,25.3,38.8
			C428.5,137.7,429.1,138.9,429.7,140z"/>
	</g>
</g>
</svg>
