<?xml version="1.0" encoding="utf-8"?>
<!-- Generator: Adobe Illustrator 18.1.1, SVG Export Plug-In . SVG Version: 6.00 Build 0)  -->
<svg version="1.1" id="图层_1" xmlns="http://www.w3.org/2000/svg" xmlns:xlink="http://www.w3.org/1999/xlink" x="0px" y="0px"
	 viewBox="0 0 612 792" enable-background="new 0 0 612 792" xml:space="preserve">
<g>
	<g>
		<path d="M187.1,434c-2,3.3-3.6,5.8-5.1,8.4c-13.4,22.6-23.8,46.8-33.8,71.1c-5.4,13.1-10.8,26.1-16.3,39.2c-0.4,1-0.5,2.6-2.2,2.4
			c-1.5-0.2-1.4-1.9-1.4-3c0.1-4.4,0.4-8.9,0.7-13.2c0.7-11.1,2.5-22.4,1.5-33.6c-1.9-19.7-0.3-39.3-0.2-59
			c0.1-20.4-3.1-40.5-5.9-60.8c-2-13.4-3.8-26.9-4.5-40.4c-0.7-13.6,1.3-26.9,2.6-40.3c0.7-6.6,1.4-13.1,2.1-19.7
			c0.2-2.1,0.5-4.3,1.9-5.8c4-4.8,3.2-9.6,0.5-14.5c-3.4-6.3-5.8-13-5.7-20.2c0-7.6,1.2-15.3,2.4-22.8c1.9-12,5.8-23.2,12.3-33.6
			c3.4-5.4,6.1-10.9,8.7-16.7c3.3-7.3,9.5-9.6,16.8-9.5c3.2,0,6.3,0.4,9.4,1c8.7,1.6,17.5,3,26.2,4c0.4,0.1,1,0.2,2.1,0.4
			c-2.7,2-5.1,3.7-7.4,5.4c-14.2,10.5-27.2,22-36.9,36.9c-5,7.8-7.4,16.2-8.9,25.1c-0.2,1.5,0.1,3,1.2,4c1.1-0.7,1.1-1.9,1.3-2.8
			c3.8-13.6,11.4-24.4,21.5-34.2c19.7-19,41.9-34.2,65.9-46.9c12.6-6.7,25.9-11.5,39.7-14.9c7.1-1.7,14.5-1.4,21.7-1.6
			c12-0.3,24.2-1.3,36.2,1.6c3.8,1,7.6,1.9,11.3,3.5c15.5,7.1,31.7,13.1,44.7,24.3c13.3,11.5,27.6,21.7,40.3,34.1
			c0.8,0.8,1.5,1.5,3.4,2.1c-9.6-17.9-25.6-28.4-40.3-40.5c1.3-0.8,2.5-0.4,3.6-0.3c11.3,1.3,22.4,0.9,33.6-0.9
			c12.9-2.1,22.7,2.7,29.9,13.7c9.2,13.7,16.2,28.1,18.5,44.6c0.7,4.6,3,8.7,3.9,13.3c2.1,9.6-0.2,18.7-4.4,27.2
			c-3.8,7.9-3.9,15.5-0.5,23.4c2.2,5.2,4.4,10.6,6.7,15.7c3.6,8.1,5.7,16.5,6.8,25.2c2.7,22.2,1.5,44.2-2,66.1
			c-1.4,8.7-6.2,15.6-12.7,21.4c-2,1.9-4.2,3.5-6.3,5.5c0.3,0.4,0.5,0.9,0.8,1c8.4,5.1,12.8,12.9,15,22.1c5,21.3,6.9,42.8,2.5,64.4
			c-2.5,12.2-3,24.4-2.1,36.6c0.1,1.2,0.3,2.5-0.4,3.6c-1.5,0-1.4-1.1-1.5-1.9c-1.1-12.7-7.3-23.2-14.4-33.1
			c-7.1-10.1-13.4-20.5-19.9-31c-3.7-6-4.9-12.6-5.7-19.3c-0.8-6-1.7-12-3.6-17.8c-0.9-0.1-1,0.5-1.1,0.9
			c-7.3,26-25.7,39.9-50.9,45.8c-9.1,2.2-18.4,3.4-27.8,4c-7,0.5-11.8,4.4-16,9.5c-0.7,0.8-0.8,1.7-0.9,2.7
			c-0.5,9.8-1,19.7-1.5,29.5c-0.1,2.7,0,5.5,0.5,8.2c1.6,8-0.5,15-5.7,21.2c-11.9,14.3-22.7,15.1-39.8,4.7
			c-9.3-5.7-13.3-14.4-13-25.2c0.2-9.2,1.4-18.3,2.2-27.3c0.2-3.1,0.3-6.1-0.2-9.1c-0.7-3.4-2.5-5.6-5.9-6.6
			c-14.6-4.4-29.3-8.5-43.7-13.3c-11.8-3.8-22.5-9.7-31.9-18c-6.9-6.1-11.6-13.6-14.1-22.4C189.6,443.3,188.4,439.2,187.1,434z
			 M334.9,390.4c4,0,8.1,0.2,12.1,0c15.5-0.9,31,0.7,46.6-0.7c9.7-0.8,18.3-7.2,20-16.4c2.2-11.1,3.2-22.6,0.2-33.7
			c-6-22.6-13.4-44.8-23.9-65.8c-3.6-7.2-7.1-14.5-12.8-20.4c-3.5-3.6-6.8-7.4-10.2-11.1c-5.2-5.8-11.5-10.2-19.5-11.4
			c-14.5-2.2-29.1-3.8-43.7-3.6c-28.5,0.4-50.8,11.3-62.7,38.9c-9,20.7-17.6,41.4-26.1,62.3c-3,7.2-6.3,14.2-7.9,21.9
			c-1.4,7-1.1,13.8,3.7,19.3c9.3,10.6,20.5,18.7,34.5,21.9c9.2,2.1,18.5,0.2,27.6-0.4c11.7-0.9,23.3-1.6,35.1-1.1
			C316.9,390.6,325.9,391.4,334.9,390.4z M209.6,396.8c0,0.9,0,1.2,0,1.6c2,12.5,5.4,24.4,11.1,35.6c2.7,5.2,6.6,9.3,11.8,12
			c5.4,2.8,11.1,3.8,17,4.5c5.6,0.7,11.4,1.9,16.9-0.4c8.2-3.5,16.4-7.3,24.5-11c2.8-1.3,3.1-2.5,1.4-5.1c-2.5-4-5-8-7.5-12
			c-7.1-11.3-17.3-17.9-30.2-21c-7.4-1.7-15-2-22.5-2.6C224.8,397.6,217.4,397.3,209.6,396.8z M388.4,398.7
			c-11.4-0.3-22,2.4-31.8,7.9c-4.3,2.3-8.3,5.1-10.8,9.4c-3.1,5.1-6,10.4-9.1,15.5c-0.4,0.8-0.9,1.5,0,2.4
			c5.4,5.1,10.7,10.5,17.8,12.8c14.8,4.7,29,3,42.1-5.6c7.5-4.9,14.1-10.9,15.6-20.4c0.7-4.6,0.9-9.2,0.9-13.8
			c0-2.7-1.3-4.9-4.4-5.5C402,399.9,395.2,398.4,388.4,398.7z M193.2,241.7c1.2,1.1,2.4,1.4,3.6,1.7c7.8,2.1,15.5,4.2,23.4,6.1
			c3.3,0.8,6.6,1.5,9.8,1.4c4.8-0.1,7.7-4.3,5.9-8.7c-1.2-3.3-2.8-6.2-5-9c-7.9-9.3-18.3-9.4-26-0.1c-2.3,2.7-4.8,4.9-8.4,5.7
			C195.2,239.2,194,240.2,193.2,241.7z M410.5,226.5c-2.8,0.1-5.5,1.1-7.6,3.1c-5.4,4.7-10.4,9.9-15.2,15.2c-2,2.2-1.3,3.6,1.4,4.8
			c3.7,1.6,7.3,0.8,10.9,0.3c8.1-1,15.8-3,23.3-6.2c5.1-2.2,5.6-5,1.6-8.9c-1.4-1.3-2.7-2.8-4.2-4.2
			C417.9,227.9,414.5,226.6,410.5,226.5z"/>
		<path d="M368.6,301.1c-3.9-2.3-6.4-5-8.9-7.9c-3.9-4.7-7.1-9.9-10.1-15.2c-0.9-1.6-1.9-3.3-3.3-4.5c-4.3-3.9-9.5-3-11.6,2.5
			c-2,5.1-1.9,10.6-1,16.1c0.8,4.8,2.5,9.3,5.2,13.3c1.9,2.8,3.3,5.8,4.4,9c2,5.5,0.1,8.5-5.6,9.5c-10.6,1.6-21.2,1.6-31.8,0.9
			c-5.4-0.4-10.7-1.1-16.1-2.2c-3.1-0.7-6.1-1.6-8.6-3.5c-2.7-2-3.2-3.5-1.5-6.6c3.3-5.8,6.7-11.6,10.1-17.4c2.4-4,3.8-8.4,4.5-13
			c1-6.6-3.2-10.4-9.7-9.1c-6.2,1.3-10.4,5.5-13.6,10.6c-4.6,7.3-7.8,15.3-10.8,23.2c-0.4,1.2-0.8,2.6-2,3.7
			c-0.8-0.8-0.7-1.9-0.9-2.7c-1.1-6.8-2.1-13.7-3.2-20.4c-0.9-5-0.3-9.9,1.2-14.9c2.7-8.9,7-16.9,12.3-24.4c3-4,7.1-6,11.9-6.3
			c19.3-1,38.7-2,58-0.7c12.9,0.9,21.4,8.4,25.9,20.4c0.4,1,0.8,2.1,1.3,3c4.2,6.2,4.7,13.3,4.2,20.4
			C368.6,290.1,368.7,295.3,368.6,301.1z"/>
		<path d="M287.7,280.3c0.1,2.8-0.1,5.6-1.3,8.3c-3.5,8.3-7,16.7-11.1,24.7c-4.9,9.4-3.4,17.9,2.7,26.2c8.4,11.3,20,16.5,33.8,17.3
			c7.1,0.4,14.2,0.1,21-2.4c6.9-2.5,11.7-7.2,14.1-14.1c1.1-3.1,2.5-5.9,4-8.7c5.2-9.6,3.8-17.2-3.7-25.1c-7.2-7.6-10.2-16.7-7-27.1
			c0.3-1,0.3-2.2,2.1-2.6c1.7,1.7,3.2,3.9,4,6.4c2.6,7.3,6.9,13.4,12.8,18.5c3.5,3,5,7,5.7,11.4c1,7.1,1.3,14.3,1.2,21.5
			c-0.1,4.9-1.9,9.5-4.9,13.3c-3.8,4.9-8.3,9.2-13.1,13.1c-3.1,2.5-6.7,4.2-10.6,5c-6.9,1.5-13.9,3-20.9,3.9
			c-5.8,0.9-11.5,0.2-16.7-2.4c-9.8-5-19.1-10.9-27.2-18.6c-6.8-6.3-9.9-14.4-12.3-23.1c-1.7-6.7-1.4-12.6,1.7-18.8
			c3.8-7.7,7.3-15.5,13-22.1C278.6,280.8,281.8,279.6,287.7,280.3z"/>
	</g>
</g>
<g>
	<g>
		<path fill="#C4BA98" stroke="#000000" stroke-width="0.5" stroke-miterlimit="10" d="M390.4,531.9V521h8.5v1.9h-6.5v2.9h3.5v2
			h-3.5v3.4L390.4,531.9z"/>
		<path fill="#C4BA98" stroke="#000000" stroke-width="0.5" stroke-miterlimit="10" d="M401.1,523.6c0-1,0.1-1.7,0.4-2
			c0.3-0.4,0.8-0.5,1.6-0.5h6.2c0.8,0,1.4,0.2,1.6,0.5s0.4,1,0.4,2v5.7c0,1-0.1,1.7-0.4,2c-0.3,0.4-0.8,0.5-1.6,0.5h-6.2
			c-0.8,0-1.4-0.2-1.6-0.5c-0.3-0.4-0.4-1-0.4-2V523.6z M403.1,529.8h6.4V523h-6.4V529.8z"/>
		<path fill="#C4BA98" stroke="#000000" stroke-width="0.5" stroke-miterlimit="10" d="M415.5,530.2V521h7.2c0.7,0,1.2,0.2,1.4,0.5
			s0.5,0.9,0.5,1.6v2.5c0,0.7-0.2,1.3-0.5,1.6s-0.8,0.5-1.4,0.5h-1.1l3.9,4.1h-2.8l-3.4-4.1h-1.8v1.9L415.5,530.2z M421.9,522.9
			h-4.4v3h4.4c0.3,0,0.6-0.1,0.7-0.2c0.1-0.1,0.2-0.4,0.2-0.7v-1.3c0-0.3-0.1-0.5-0.2-0.7C422.4,523,422.2,522.9,421.9,522.9z"/>
	</g>
	<g>
		<path fill="#C4BA98" stroke="#000000" stroke-width="0.5" stroke-miterlimit="10" d="M375.8,553.7c0.8-0.1,1.1,0.2,1.1,1v1.3h2.1
			c0.9,0,1,0.3,0.6,0.9h-2.7c0,1.4,0.1,2.1,0.3,2.1c0.4,0.1,0.7,0,1-0.1c0.9-0.2,1.4,0.1,1.3,1c-0.1,0.7-0.1,1.6-0.1,2.8
			c0.1,0.9-0.4,1.3-1.4,1c-1.1-0.4-2.3-0.4-3.5,0c-0.8,0.5-1.2,0.2-1.3-0.7s-0.3-2-0.6-3.1c0.1-0.8,0.6-1,1.5-0.7
			c0.8,0.1,1.1-0.1,1.1-0.6c0-1,0-2-0.1-3C374.9,554.2,375.1,553.6,375.8,553.7z M374.4,560.5c-0.1,1.1,0.1,1.7,0.6,1.8
			c2.2,0.3,3.1,0,3-1c0.2-1.3-0.7-1.8-2.7-1.5C374.7,559.8,374.4,560,374.4,560.5z M380,557.2c0.4,0,0.6,0,0.7-0.1
			c-0.1-1-0.1-2-0.1-3c-0.1-0.7,0.2-0.9,1-0.9c0.5,0,0.7,0.2,0.7,0.7c-0.1,0.9-0.1,1.8,0,3c3.1-0.5,4.6-0.5,4.5,0
			c0.2,0.3,0.1,0.4-0.1,0.4c-1.4,0.2-2.8,0.4-4.2,0.7c0.3,0.9,0.6,1.5,0.9,2.1c0.4-0.5,0.8-1,1.1-1.7c0.3-0.3,0.6-0.4,0.9-0.3
			c0.4,0.3,0.5,0.6,0.4,1c-0.6,0.8-1.1,1.4-1.5,1.8c1,1,2.7,1.5,5.1,1.4c0.2,0.1-0.1,0.6-0.9,1.4c-1,1-2.1,1.2-3.2,0.6
			c-0.5-0.4-1.2-1.1-2.2-2.1c-0.9,0.7-1.9,1-3,1.1c-0.5-0.1-0.6-0.3-0.3-0.6c0.9-0.3,1.8-0.9,2.5-1.7c-0.4-0.6-0.8-1.5-1.1-2.8
			c-0.5,0.1-0.9,0.2-1.3,0.4c-0.6,0.1-0.8-0.2-0.7-0.9C379,557.6,379.3,557.3,380,557.2z M384.5,554c0.3-0.7,0.7-0.9,1.1-0.6
			c0.5,0.3,0.6,0.7,0.4,1.1c-0.4,0.6-1,0.9-1.8,1c-0.4,0-0.5-0.1-0.4-0.4C384.1,554.8,384.3,554.4,384.5,554z"/>
		<path fill="#C4BA98" stroke="#000000" stroke-width="0.5" stroke-miterlimit="10" d="M395.6,557.2c0.5,0,0.8,0.1,1,0.4
			c-0.1,0.4-0.4,0.5-1,0.4c-0.6,0-1.1,0-1.7,0.1c0.2,0.3,0.1,0.6-0.3,0.9l-0.7,0.7c-0.3,0.4,0,0.6,0.7,0.7c0.6,0.1,1-0.1,1.4-0.6
			l-0.4-0.9c0.1-0.3,0.3-0.4,0.6-0.3c0.3,0.2,0.6,0.4,0.9,0.6c0.2,0.4,0.4,0.8,0.7,1.3c-0.1,0.2-0.2,0.3-0.3,0.3
			c-0.4,0.1-0.8-0.1-1.1-0.6c-0.6,1-1.2,1.4-1.8,1.1c-0.6-0.4-1.1-0.4-1.5-0.1c-0.2,0-0.4-0.1-0.6-0.4c-0.1-0.4,0.1-0.8,0.6-1.1
			c0.9-0.8,1.1-1.3,0.9-1.5c-0.4-0.1-0.9,0-1.7,0.3c-0.3,0.2-0.5,0.1-0.6-0.1c0.1-0.7,0.4-1,1-1.1L395.6,557.2L395.6,557.2z
			 M395.6,555.3c0.3,0,0.5,0.1,0.6,0.4c0,0.3-0.1,0.4-0.3,0.4h-2.2c-0.7,0-1.3,0-1.8,0.1c-0.2-0.1-0.3-0.3-0.3-0.6
			c0.1-0.3,0.3-0.5,0.6-0.7C392.8,555.2,393.9,555.3,395.6,555.3z M399.3,559.2c-0.3-0.1-0.6-0.1-0.9,0c-0.3,0.2-0.6,0.3-0.9,0.4
			c-0.2,0-0.3,0-0.4-0.1c-0.2-1.4-0.4-2.7-0.6-3.8c-0.1-0.6,0.2-0.9,0.9-0.9c0.3,0.2,0.8,0.2,1.4,0.1c0.3-0.3,0.6-0.8,1-1.4
			c0.1-0.2,0.3-0.3,0.6-0.3c0.9,0.3,1.1,0.6,0.7,1c-0.3,0.3-0.5,0.5-0.7,0.7c0.7,0,1.5,0.1,2.5,0.3c0.3-0.1,0.5-0.2,0.7-0.3
			c0.3-0.1,0.5,0,0.7,0.1c0.4,0.3,0.5,0.7,0.3,1.3c-0.3,0.9-0.5,1.7-0.6,2.7l-0.4,0.3c0.4,0.3,0.4,0.5,0.1,0.7
			c-0.2,0.2-0.4,0.4-0.6,0.6c-0.2,0.1-0.1,0.2,0.1,0.4c0.4,0.1,0.7,0,1-0.1c-0.4-0.3-0.4-0.5-0.1-0.6c0.4,0,0.7,0,0.9,0.1
			c0.2,0.3,0.4,0.6,0.6,0.9c-0.1,0.1-0.2,0.2-0.4,0.3l-0.6-0.4c-0.2,0.6-0.5,0.8-1,0.7c-0.4-0.3-0.8-0.4-1.1-0.3
			c-0.3-0.2-0.4-0.4-0.3-0.7c0.2-0.2,0.4-0.4,0.6-0.7c0.1-0.2,0.2-0.5,0.4-0.9c-0.8-0.1-1.6-0.1-2.7-0.1c-0.7,2.2-1.9,3.7-3.8,4.6
			c-1.5,0.6-2.6,0.3-3.4-0.7c0-0.1,0.2-0.1,0.6-0.1C396.9,562.7,398.6,561.5,399.3,559.2z M399.7,555.7c-0.7,0-1.2,0.1-1.5,0.3
			c-0.2,0.6-0.1,0.9,0.3,0.9l1.5-0.1C400.1,556.2,400,555.9,399.7,555.7z M399.9,557.4c-0.5,0-1,0-1.7,0.1c0,0.7,0.1,1,0.4,1l1-0.1
			L399.9,557.4z M400.8,559.9c0.1-0.4,0.3-0.6,0.6-0.6c0.2,0,0.3,0.1,0.4,0.3c-0.2,0.4-0.3,0.8-0.4,1.1c0,0.4,0,0.7,0.1,0.9
			c0.4,0.5,1.1,0.8,2.2,1c0.9,0.1,1.8,0,2.7-0.3c0.6-0.3,0.9-0.3,1.1-0.1c-0.1,0.6-0.4,1.2-1,2c-0.7,0.6-1.2,0.8-1.7,0.6
			c-1.6-0.3-2.9-0.9-4-2c-0.5-0.6-0.7-1.1-0.6-1.5C400.6,560.7,400.8,560.3,400.8,559.9z M403,558.6c0.2-0.4,0.2-0.7,0.1-1
			c-0.4-0.2-1.1-0.3-2.1-0.3c-0.1,0.4-0.1,0.8-0.1,1.1C401.6,558.6,402.3,558.6,403,558.6z M401.1,556.7l1.5,0.1
			c0.4,0.1,0.6-0.1,0.6-0.6c0-0.4-0.6-0.6-1.7-0.6C401.3,555.8,401.1,556.1,401.1,556.7z"/>
		<path fill="#C4BA98" stroke="#000000" stroke-width="0.5" stroke-miterlimit="10" d="M413.5,556.5c0.2-0.4,0.3-0.6,0.4-0.6
			c0.5-0.1,0.6,0.2,0.4,1c-0.3,0.9-0.7,1.7-1.3,2.7c-0.5,0.8-0.9,1.3-1.4,1.7c-0.9,0.9-1.9,0.8-3-0.1c-0.3-0.3-0.2-0.6,0.3-0.9
			C410.6,559.6,412.1,558.3,413.5,556.5z M416.8,553.7c0.9-0.1,1.4,0.4,1.3,1.5c-0.1,2.3,0,5,0.1,7.9c0,1.1-0.9,1.6-2.7,1.5
			c-0.9-0.1-2-0.6-3.2-1.5c-0.2-0.5-0.1-0.7,0.3-0.7c1.8,0.6,2.9,0.7,3.2,0.3c0.3-0.2,0.4-2.8,0.3-7.9
			C416.1,554.1,416.3,553.7,416.8,553.7z M419,557c-0.3-0.4-0.2-0.7,0.1-0.9c0.2-0.1,0.4,0,0.6,0.1c1.3,1.7,3.3,3.1,5.9,4.4
			c-0.3,0.5-0.6,0.8-0.9,1c-0.9,0.8-1.6,0.8-2.4,0C421.2,560.1,420.1,558.5,419,557z"/>
		<path fill="#C4BA98" stroke="#000000" stroke-width="0.5" stroke-miterlimit="10" d="M433,558.9c-0.3,0.9-0.6,1.6-0.9,2.1l1.8-0.3
			c-0.1-0.4-0.1-0.8-0.1-1.1c0.1-0.4,0.4-0.6,1-0.7c0.4,0,0.7,0.1,1,0.3c0.4,0.1,0.7,0.1,0.9,0v-4.6c0-0.6,0.2-0.9,0.6-1
			c0.9,0,1.4,0.3,1.4,1c-0.1,0.5-0.1,0.9-0.1,1.1c2,0.1,3.6,0.1,4.9,0.1c0,0.5-0.1,0.9-0.4,1.3c-0.4,0.4-0.8,0.5-1.1,0.3
			c-1.5-0.5-2.6-0.6-3.4-0.4c-0.2,0.8-0.2,1.5,0,2.2c0.7,0.1,1.2,0,1.5-0.1c1.2-0.4,1.8,0,1.8,1c-0.2,0.8-0.3,1.7-0.3,2.8
			c0.2,1.2-0.2,1.6-1.3,1.3c-1.3-0.2-2.7-0.2-4.2-0.1c-1.1,0.6-1.7,0.2-1.8-1c0-0.3,0-0.8-0.1-1.5c-1.9,0.9-4.1,1.5-6.6,2
			c-0.9,0.2-1.2-0.1-1.1-1c0-0.5,0.5-0.8,1.4-0.9c1-0.1,2.2-0.2,3.5-0.4c0.3-1,0.4-2,0.4-3c0-0.7,0.2-1,0.6-1
			C433,557.3,433.2,557.9,433,558.9z M431.8,554.6c-0.1,1.1,0,1.6,0.3,1.5l2,0.1c0.5,0.4,0.5,0.7,0.1,0.9c-0.2,0.1-0.5,0.1-1,0.1
			c-1.9-0.4-3.8-0.2-5.8,0.4c-0.4,0.1-0.6,0-0.6-0.4c0.2-0.9,0.6-1.2,1.1-1.1c0.8,0.2,1.3,0.2,1.7,0.1c0.3-0.1,0.4-0.7,0.3-1.7
			c0.1-0.4,0.3-0.6,0.6-0.6C431.1,553.9,431.6,554.1,431.8,554.6z M430.4,560.8c-0.2,0.3-0.4,0.3-0.7,0.1c-0.6-0.9-0.9-1.6-1-2.2
			c-0.1-0.7,0.1-1,0.7-1.1c0.5-0.1,0.7,0.1,0.7,0.6C430.2,559,430.3,559.9,430.4,560.8z M438.3,560.2c-1.3-0.1-2.2,0-2.5,0.3
			c-0.3,0.7-0.3,1.3,0,2c0.1,0.5,1.1,0.6,3.1,0.4c0.9,0,1.3-0.5,1.3-1.4C440.1,560.5,439.5,560.1,438.3,560.2z"/>
	</g>
	
		<linearGradient id="SVGID_1_" gradientUnits="userSpaceOnUse" x1="332.6039" y1="369.7539" x2="332.6039" y2="369.7539" gradientTransform="matrix(1.0929 0 0 -1.0929 0 955.5428)">
		<stop  offset="0" style="stop-color:#C4BA98"/>
		<stop  offset="1.474962e-002" style="stop-color:#CEC5A9"/>
		<stop  offset="4.332456e-002" style="stop-color:#DDD7C4"/>
		<stop  offset="7.615717e-002" style="stop-color:#EAE6DA"/>
		<stop  offset="0.1145" style="stop-color:#F3F1EB"/>
		<stop  offset="0.162" style="stop-color:#FAF9F6"/>
		<stop  offset="0.2285" style="stop-color:#FEFEFD"/>
		<stop  offset="0.4133" style="stop-color:#FFFFFF"/>
		<stop  offset="0.4696" style="stop-color:#DDDBD8"/>
		<stop  offset="0.5499" style="stop-color:#B2AFA6"/>
		<stop  offset="0.6258" style="stop-color:#908B7F"/>
		<stop  offset="0.6952" style="stop-color:#787263"/>
		<stop  offset="0.7558" style="stop-color:#696252"/>
		<stop  offset="0.801" style="stop-color:#645D4C"/>
		<stop  offset="0.8499" style="stop-color:#776F5B"/>
		<stop  offset="0.9484" style="stop-color:#A89F82"/>
		<stop  offset="1" style="stop-color:#C4BA98"/>
	</linearGradient>
	
		<linearGradient id="SVGID_2_" gradientUnits="userSpaceOnUse" x1="332.6039" y1="369.7539" x2="332.6039" y2="369.7539" gradientTransform="matrix(1.0929 0 0 -1.0929 0 955.5428)">
		<stop  offset="0" style="stop-color:#C4BA98"/>
		<stop  offset="1.389108e-002" style="stop-color:#C7BD9D"/>
		<stop  offset="0.1655" style="stop-color:#E5E1D2"/>
		<stop  offset="0.2794" style="stop-color:#F8F7F3"/>
		<stop  offset="0.3418" style="stop-color:#FFFFFF"/>
		<stop  offset="0.4046" style="stop-color:#E1E0DC"/>
		<stop  offset="0.5083" style="stop-color:#B5B1A9"/>
		<stop  offset="0.6058" style="stop-color:#928D81"/>
		<stop  offset="0.6943" style="stop-color:#797364"/>
		<stop  offset="0.7708" style="stop-color:#696352"/>
		<stop  offset="0.8265" style="stop-color:#645D4C"/>
		<stop  offset="0.8691" style="stop-color:#776F5B"/>
		<stop  offset="0.955" style="stop-color:#A89F82"/>
		<stop  offset="1" style="stop-color:#C4BA98"/>
	</linearGradient>
	<path fill="url(#SVGID_1_)" stroke="url(#SVGID_2_)" stroke-width="0.5" stroke-miterlimit="10" d="M363.5,551.5"/>
	
		<linearGradient id="SVGID_3_" gradientUnits="userSpaceOnUse" x1="340.1646" y1="375.4789" x2="340.1646" y2="375.4789" gradientTransform="matrix(1.0929 0 0 -1.0929 0 955.5428)">
		<stop  offset="0" style="stop-color:#C4BA98"/>
		<stop  offset="1.474962e-002" style="stop-color:#CEC5A9"/>
		<stop  offset="4.332456e-002" style="stop-color:#DDD7C4"/>
		<stop  offset="7.615717e-002" style="stop-color:#EAE6DA"/>
		<stop  offset="0.1145" style="stop-color:#F3F1EB"/>
		<stop  offset="0.162" style="stop-color:#FAF9F6"/>
		<stop  offset="0.2285" style="stop-color:#FEFEFD"/>
		<stop  offset="0.4133" style="stop-color:#FFFFFF"/>
		<stop  offset="0.4696" style="stop-color:#DDDBD8"/>
		<stop  offset="0.5499" style="stop-color:#B2AFA6"/>
		<stop  offset="0.6258" style="stop-color:#908B7F"/>
		<stop  offset="0.6952" style="stop-color:#787263"/>
		<stop  offset="0.7558" style="stop-color:#696252"/>
		<stop  offset="0.801" style="stop-color:#645D4C"/>
		<stop  offset="0.8499" style="stop-color:#776F5B"/>
		<stop  offset="0.9484" style="stop-color:#A89F82"/>
		<stop  offset="1" style="stop-color:#C4BA98"/>
	</linearGradient>
	
		<linearGradient id="SVGID_4_" gradientUnits="userSpaceOnUse" x1="340.1646" y1="375.4789" x2="340.1646" y2="375.4789" gradientTransform="matrix(1.0929 0 0 -1.0929 0 955.5428)">
		<stop  offset="0" style="stop-color:#C4BA98"/>
		<stop  offset="1.389108e-002" style="stop-color:#C7BD9D"/>
		<stop  offset="0.1655" style="stop-color:#E5E1D2"/>
		<stop  offset="0.2794" style="stop-color:#F8F7F3"/>
		<stop  offset="0.3418" style="stop-color:#FFFFFF"/>
		<stop  offset="0.4046" style="stop-color:#E1E0DC"/>
		<stop  offset="0.5083" style="stop-color:#B5B1A9"/>
		<stop  offset="0.6058" style="stop-color:#928D81"/>
		<stop  offset="0.6943" style="stop-color:#797364"/>
		<stop  offset="0.7708" style="stop-color:#696352"/>
		<stop  offset="0.8265" style="stop-color:#645D4C"/>
		<stop  offset="0.8691" style="stop-color:#776F5B"/>
		<stop  offset="0.955" style="stop-color:#A89F82"/>
		<stop  offset="1" style="stop-color:#C4BA98"/>
	</linearGradient>
	<path fill="url(#SVGID_3_)" stroke="url(#SVGID_4_)" stroke-width="0.5" stroke-miterlimit="10" d="M371.8,545.2"/>
	<g>
		<g>
			<path fill="#C4BA98" stroke="#000000" stroke-width="0.5" stroke-miterlimit="10" d="M368.1,537.6h-5.4v4.2h2.9v2.9h-2.9v5.2
				l-1.6,0.7v-15.9h7.1V537.6"/>
			<path fill="#C4BA98" stroke="#000000" stroke-width="0.5" stroke-miterlimit="10" d="M370.1,548v-0.8v-12.4h6
				c0.6,0,1,0.2,1.2,0.7c0.2,0.5,0.4,1.3,0.4,2.4v3.8c0,1.1-0.1,1.9-0.4,2.4c-0.2,0.5-0.7,0.8-1.2,0.8h-0.9l3.2,6.1H376l-2.8-6.1
				h-1.5v2v0.9L370.1,548z M375.3,537.6h-3.7v4.5h3.6c0.3,0,0.5-0.1,0.6-0.3c0.1-0.2,0.2-0.5,0.2-1v-1.9c0-0.5-0.1-0.8-0.2-1
				C375.8,537.7,375.6,537.6,375.3,537.6z"/>
			<path fill="#C4BA98" stroke="#000000" stroke-width="0.5" stroke-miterlimit="10" d="M380.9,550.9v-16.1h1.6v16.1H380.9z"/>
			<path fill="#C4BA98" stroke="#000000" stroke-width="0.5" stroke-miterlimit="10" d="M386.1,550.9v-16.1h7.1v2.7h-5.5v3.6h3.2
				v2.7h-3.2v4h5.6v3L386.1,550.9L386.1,550.9z"/>
			<path fill="#C4BA98" stroke="#000000" stroke-width="0.5" stroke-miterlimit="10" d="M396.3,550.9v-16.1h1.1l4.9,9.5
				c0.2,0.3,0.3,0.6,0.4,0.9c0.1,0.3,0.2,0.6,0.4,0.9c0-0.9,0-1.5-0.1-1.9c0-0.4,0-0.7,0-0.9v-8.5h1.4v16.1h-1.1l-5.1-9.9
				c-0.1-0.3-0.2-0.5-0.3-0.7c-0.1-0.2-0.2-0.4-0.3-0.6c0,0.5,0,1,0,1.4c0,0.4,0,0.8,0,1.2v8.7H396.3L396.3,550.9z"/>
			<path fill="#C4BA98" stroke="#000000" stroke-width="0.5" stroke-miterlimit="10" d="M408,550.9v-16.1h4.5c1.3,0,2.3,0.7,2.9,2.1
				c0.7,1.4,1,3.3,1,5.9c0,1.5-0.1,2.9-0.4,4.1c-0.3,1.2-0.7,2.1-1.1,2.8c-0.3,0.4-0.7,0.8-1.1,1c-0.5,0.2-1,0.3-1.7,0.3L408,550.9
				L408,550.9z M409.6,547.9h2.1c1.1,0,1.9-0.4,2.4-1.2c0.5-0.8,0.7-2.1,0.7-4c0-1.6-0.2-2.9-0.6-3.7c-0.4-0.9-1-1.3-1.7-1.3h-2.9
				L409.6,547.9L409.6,547.9z"/>
			<path fill="#C4BA98" stroke="#000000" stroke-width="0.5" stroke-miterlimit="10" d="M425.5,537.6h-4.6v3.5h4.3
				c0.7,0,1.1,0.3,1.4,0.8c0.2,0.5,0.4,1.5,0.4,3v2.2c0,1.5-0.1,2.5-0.4,3c-0.2,0.5-0.7,0.8-1.4,0.8H421c-0.7,0-1.1-0.3-1.4-0.8
				c-0.2-0.5-0.4-1.5-0.4-3v-0.4l1.4-0.7v1.9h4.9v-3.7h-4.3c-0.7,0-1.1-0.3-1.4-0.8c-0.2-0.5-0.4-1.5-0.4-3v-1.8
				c0-1.5,0.1-2.5,0.4-3c0.2-0.5,0.7-0.8,1.4-0.8h4c0.7,0,1.1,0.3,1.4,0.8s0.4,1.4,0.4,2.8v0.3l-1.4,0.8V537.6L425.5,537.6z"/>
			<path fill="#C4BA98" stroke="#000000" stroke-width="0.5" stroke-miterlimit="10" d="M437,548.5V544H432v6.4l-1.6,0.6v-16.1h1.6
				v6.3h5.1v-6.3h1.6v13.1L437,548.5z"/>
			<path fill="#C4BA98" stroke="#000000" stroke-width="0.5" stroke-miterlimit="10" d="M442.2,550.9v-16.1h1.6v16.1H442.2z"/>
			<path fill="#C4BA98" stroke="#000000" stroke-width="0.5" stroke-miterlimit="10" d="M447.4,550.9v-16.1h6c0.6,0,1,0.2,1.2,0.7
				c0.2,0.5,0.4,1.3,0.4,2.4v3.6c0,1.1-0.1,1.9-0.4,2.4c-0.2,0.5-0.7,0.7-1.2,0.7H449v5.6L447.4,550.9z M452.7,537.6H449v4.3h3.6
				c0.3,0,0.5-0.1,0.6-0.3c0.1-0.2,0.2-0.5,0.2-1v-1.7c0-0.5-0.1-0.8-0.2-1C453.1,537.7,452.9,537.6,452.7,537.6z"/>
		</g>
	</g>
</g>
</svg>
