<?xml version="1.0" encoding="utf-8"?>
<!-- Generator: Adobe Illustrator 21.0.0, SVG Export Plug-In . SVG Version: 6.00 Build 0)  -->
<svg version="1.1" id="图层_1" xmlns="http://www.w3.org/2000/svg" xmlns:xlink="http://www.w3.org/1999/xlink" x="0px" y="0px"
	 viewBox="0 0 560 560" style="enable-background:new 0 0 560 560;" xml:space="preserve">
	 <style type="text/css">
	.st0{fill:#FFFFFF;}
</style>
<g>
	<g>
		<path class="st0" d="M380.2,485.6c-0.2-0.9-0.5-1.8-0.5-2.7c0-2.2,0-4.3,0.1-6.5c0-0.7-0.1-1.4-0.1-2.4c-1.4,1.9-2.5,3.4-3.7,4.9
			c-0.3,0.3-0.6,0.6-0.9,0.9c-0.2-0.4-0.5-0.8-0.6-1.3c-0.6-3.2-0.5-6.3,1.2-9.2c0.2-0.3,0.2-0.6,0.2-0.9c-0.3,0.1-0.7,0.1-0.9,0.3
			c-1.7,1.7-3.5,3.4-5.1,5.3c-0.7,0.8-1.1,2-1.6,3c-0.1,0.2-0.3,0.4-0.5,0.7c-0.2-0.2-0.6-0.4-0.7-0.7c-0.3-0.6-0.4-1.2-0.7-2
			c-0.5,0.7-0.9,1.4-1.3,2c-1.2,1.7-2.2,3.6-4.1,4.6c-0.5,0.3-0.8,1-1.2,1.5c-6.5,8-12.9,16.1-19.6,23.9c-2.8,3.3-6.2,6-9.3,9
			c-1.9,1.8-3.8,3.5-5.7,5.2c-2.8,2.4-5.5,4.8-8.3,7.2c-3.5,3-7.1,5.9-10.6,8.8c-1.1,0.9-2.2,1.6-3.3,2.4c0.2-0.4,0.4-0.8,0.7-1.1
			c4.1-3.7,8.1-7.3,12.3-10.9c3-2.6,6.3-5,9.3-7.8c8.3-7.7,16.1-15.9,23.5-24.5c3-3.5,5.8-7.1,8.7-10.7c1.7-2.1,3.5-4.1,4.9-6.3
			c3.8-5.8,7.4-11.7,11.1-17.5c0.7-1.2,1.5-2.3,2.3-3.4c5-6.8,10-13.6,14.4-20.8c1.6-2.6,2.1-5.1,1.8-8c-0.1-1.1-0.2-2.2-0.3-3.2
			c-0.2-1.7-0.3-3.5-0.8-5.1c-0.5-1.7,0.5-3,0.6-4.5c0.1-1.5,0.3-3,0.4-4.8c-1.6,3.6-2.3,7.2-2.3,10.7c0,3.1-0.7,5.7-2.3,8.3
			c-3.3,5.6-6.3,11.3-9.5,17c-0.6,1-1.3,1.9-2.1,2.7c-1.1,1.2-2.2,1.3-3.3,0.1c-0.7-0.8-1.2-1.8-1.8-2.7c-0.2-0.4-0.5-0.8-0.7-1.2
			c-0.5,0.4-1.1,0.7-1.4,1.2c-0.3,0.5-0.3,1.3-0.3,1.9c0,1.8,0.1,3.6,0.2,5.4c0.1,1.4-0.1,2.8-0.9,3.9c-3.2,4.1-6.3,8.2-9.5,12.3
			c-0.4,0.5-0.9,1-1.4,1.4c-1.6,1.3-2.4,1.2-2.9-0.8c-0.5-1.6-0.5-3.4-0.6-5.1c-0.1-0.7,0-1.6-0.9-1.7c-0.5,0-1.1,0.5-1.5,0.9
			c-0.3,0.3-0.5,0.8-0.7,1.3c-0.9,2.1-1.4,4.2-1.4,6.5c-0.1,3-0.2,6-0.3,9.1c-0.1,1.6-0.3,3.1-2,4c-0.4,0.2-0.6,0.8-0.9,1.2
			c-4,5.6-9,10.3-13.9,15.1c-0.7,0.7-1.4,1.8-2.7,1.2c-1-0.5-2.1-0.9-3.1-1.4c-0.4-0.2-0.6-0.6-0.9-1c-0.9-1.2-1.7-2.3-2.6-3.5
			c-1.2-1.5-1.7-1.4-2.4,0.4c-0.6,1.4-0.5,2.7,0,4.2c1.4,3.9,1.2,7.7-1.3,11.1c-2.4,3.4-5.4,6.1-9,8.3c-3.1,1.9-6.3,3.5-9.8,4.4
			c-2.2,0.6-2.7,0.6-4.1-1.2c-2.8-3.6-5.9-7-6.7-11.7c-0.1-0.7-0.6-1.1-1.2-0.3c-1,1.2-2,2.4-2.9,3.7c-1.2,1.7-2.2,3.6-3.6,5.1
			c-2.6,2.9-6.9,3.9-10.5,2.4c-4.6-1.9-8.7-4.5-12.2-8c-1.7-1.7-3.3-3.4-4.6-5.4c-1.6-2.5-2.6-5.3-1.8-8.4c0.3-1,0.4-2.1,0.4-3.2
			c0.1-1.1,0-2.2,0-3.3c-0.7,0.5-0.8,1-1.1,1.5c-1.4,2.9-4,3.7-6.9,2.3c-2-1-3.6-2.3-5.1-3.9c-3.7-4.1-7-8.6-9.7-13.5
			c-0.7-1.4-1.6-2.8-2.6-3.9c-1.2-1.4-1.9-3-2.2-4.8c-0.2-1.4-0.3-2.9-0.5-4.3c-0.1-1.2-0.4-2.3-0.6-3.9c-0.4,0.6-0.5,0.8-0.6,1
			c-1.3,2.3-2.5,2.7-4.7,1.1c-1.2-0.8-2.3-1.8-3.2-2.9c-3.5-3.8-6.4-8-8.8-12.5c-0.6-1.2-1-2.5-1.5-3.8c0.3,0.3,0.6,0.6,0.8,1
			c3.2,4.5,6.4,9.1,9.6,13.6c0.8,1.1,1.8,2.1,2.8,3c2.1,1.8,3.4,1.4,4.3-1.3c0.2-0.6,0.4-1.3,0.6-1.9c0.9,1.2,1.5,2.4,1.8,3.6
			c0.4,1.5,0.7,3.1,1,4.6c0.4,1.8,0.5,3.6,1.1,5.2c0.9,2,2.1,3.9,3.4,5.7c3.4,4.6,6.8,9.1,10.3,13.6c0.7,0.8,1.5,1.6,2.3,2.3
			c2.6,2.2,4.9,1.9,7.2-0.9c0.5-0.6,0.8-1.5,1.2-2.3c0.2-0.3,0.1-0.8,0.4-1c0.2-0.2,0.9-0.2,1-0.1c0.3,0.5,0.5,1.2,0.7,1.8
			c0.9,2.7,0.1,5.3-0.5,7.9c-0.4,1.5-0.4,2.9,0.3,4.2c1,1.8,1.9,3.8,3.3,5.3c3.2,3.4,6.7,6.5,10.7,9.1c3.8,2.5,8.2,2.5,11.8-0.3
			c1-0.7,1.8-1.7,2.5-2.6c1.7-2.1,3.3-4.2,4.8-6.4c0.5-0.7,1-1.6,1.1-2.5c1.4-11.4,2.6-22.9,4-34.4c0.8-6.5,1.5-13,2.3-19.5
			c0.9-7.9,1.9-15.7,2.9-23.6c0.2-1.7,0.3-3.4,0.5-5.2c0.2-1.7,0.3-3.4,0.5-5.2c0.2-1.7,0.1-3.5,0.5-5.2c0.4-1.6-0.4-3.3,0.7-4.8
			c0,0-0.2-0.4-0.3-0.4c-0.7-0.2-0.5-0.5-0.3-1c0.2-0.5,0.5-1,0.6-1.6c0.5-3.6,1-7.3,1.3-10.9c0.4-4.7,0.3-4.7-4.4-5.6
			c-5-1-10.1-1.8-15.1-2.7c-10.2-1.8-20.6-2.7-30.7-5.2c-5.4-1.4-11.1-2.1-16.4-3.8c-6.7-2-13.1-4.8-18.8-9c-1.4-1-2.8-2-4.3-2.8
			c-1.1-0.6-2.3-1.1-3.5-1.6c-0.3-0.1-0.7,0.1-1,0.1c0.1,0.3,0.1,0.7,0.2,1c0.2,0.4,0.5,0.7,0.8,1c2.5,2.1,5.1,4.3,7.6,6.4
			c0.3,0.3,0.7,0.5,1,0.8c1.8,2.2,3.6,4.3,5.3,6.5c2.7,3.5,5.2,7.1,6.9,11.2c0.5,1.3,0.9,1.3,1.7,0.2c0.9-1.2,1.7-2.5,2.5-3.8
			c1.1-1.7,2.6-2.7,4.7-2.5c1.2,0.1,2.5,0,3.7,0.1c2.8,0.2,5.4,0.9,7.4,3.1c0.3,0.3,0.7,0.5,1.1,0.7c3.2,2,5.7,4.4,4.9,8.7
			c-0.1,0.6-0.1,1.3-0.1,1.9c0,1,0.1,1.9,0.2,2.9c0.2,0,0.3,0,0.5,0c1.4-3.1,0.9-6.7,2.6-9.7c0.1,2.1,0.1,4.2-0.3,6.2
			c-0.3,1.4-0.9,2.7-1.6,4c-0.7,1.1-1.5,1-2.1-0.1c-0.1-0.2-0.2-0.5-0.3-0.8c-1.2-3.3-2.5-6.6-3.5-10c-0.7-2.4-2.3-3.8-4.4-4.6
			c-1.8-0.6-3.6-1.1-5.4-1.5c-3.3-0.8-4.6-0.1-6.5,2.7c-0.8,1.3-1.8,2.5-2.8,3.5c-1.5,1.4-2.1,1.3-3.1-0.5c-1.6-2.7-3.3-5.4-4.8-8.2
			c-1-1.8-2.3-3.1-4.2-4.2c-4.1-2.3-8.1-4.8-12.3-7.3c0.6,1.5,1.3,2.8,1.8,4.2c0.3,1,0.4,2.1,0.5,3.1c0,0.7-0.3,1.4-0.3,2.1
			c0,0.3,0.1,0.6,0.2,1c0.3-0.2,0.6-0.3,0.8-0.6c1.4-1.4,2.4-1.4,3.4,0.3c0.6,1.1,1.3,2.3,1.5,3.6c0.5,3.6,0.7,7.3,0.9,11
			c0.1,1.7,0,3.5,0.1,5.2c0,1.7-2.1,2.8-1.4,4.7c0,0.1-0.4,0.5-0.7,0.7c-0.4,0.3-0.9,0.5-1.3,0.8c-1.9,1.4-2.3,2.6-1.5,4.8
			c1.1,3,1.4,6.2,1.1,9.4c-0.3,2.8-0.2,5.4,1.7,7.8c0.7,1,1.2,2.1,0.6,3.6c-0.4-0.4-0.8-0.6-1.2-1c-0.6-0.6-1.1-1.3-1.7-1.9
			c-1.3-1.4-1.5-1.3-2.4,0.3c-0.4,0.7-0.9,1.5-1.5,2.1c-0.5,0.5-1.3,0.7-1.6-0.1c-0.5-1.1-1-1-2-0.6c-1.5,0.6-2.9,0.1-3.2-1.1
			c-0.7-1.9-1.9-3.3-3.4-4.7c-1.7-1.6-3-3.5-3.4-5.9c-0.2-1.3-0.1-2.7,0-4.1c0-0.7,0-1.1-0.8-1.1c-2.3,0.2-3.8-1-4.7-3.1
			c0.1,2.3,0.2,4.5,0.5,6.8c0.1,0.7,0.4,1.4,0.8,2c2.6,4.2,5.2,8.3,7.8,12.4c0.4,0.7,0.9,1.3,1.5,1.8c1.9,1.6,2.9,1.5,4.4-0.6
			c0.2-0.2,0.3-0.5,0.5-0.7c0.6-0.6,1.2-0.5,1.6,0.1c0.3,0.5,0.5,1,0.6,1.6c0.1,1.6,0.3,3.3,0.2,5c-0.1,1.4,0,2.7,0.6,4
			c-1.2-0.2-1.4-1.1-1.4-2.1c-0.1-1.7-0.3-3.5-0.4-5.2c0-0.4-0.2-0.8-0.3-1.2c-0.3,0.2-0.7,0.4-1,0.6c-1.6,1.3-2.6,1.4-4.3,0.2
			c-0.5-0.4-1.1-0.8-1.4-1.3c-1.9-2.6-3.7-5.1-5.5-7.8c-1.1-1.7-1.6-3.8-2.9-5.2c-1.4-1.6-2-3.3-2.1-5.2c-0.4-4.5-0.8-9.1,2.4-13
			c0.4-0.5,0.6-1.2,0.8-1.8c0.9-2.2,0.8-2.7-1.4-3.8c-2.1-1-3.2-2.6-3.7-4.7c-1-4.1-2.2-8.1-3-12.2c-1.3-6.7-3.5-13.1-5.6-19.5
			c-2.3-7.1-4.4-14.1-5.5-21.5c-0.3-1.7-0.8-3.3-1.3-5.4c-0.1,2.8-2.3,2.1-3.7,2.9c1,0.1,2.1-0.1,1.8,1.5c-0.9,4.9,0.2,9.6,2,14.1
			c0.5,1.1,0.7,2.3,1.1,3.5c1.8,5.3,3.4,10.7,5.4,16c2.5,6.5,3.7,13.1,4.2,20c0.2,2.8,0.2,5.6,0.6,8.4c0.8,5.7,0.9,11.5,0.8,17.2
			c-0.1,2.6,0.4,5.2,1.7,7.5c0.7,1.3,1.4,2.7,2,4c0.8,1.5,1.5,3.1,2.4,4.6c2.9,5.2,7.3,9.3,10.7,14.1c0.6,0.8,1.1,1.7,1.6,2.5
			c-0.8-0.7-1.6-1.4-2.5-2c-0.4-0.3-1-0.5-1.5-0.7c0.1,0.5,0.1,1.1,0.4,1.5c0.7,1.2,1.6,2.4,2.3,3.7c0.9,1.7,1.6,3.6,2.3,5.4
			c0.1,0.3-0.1,0.8-0.1,1.1c-0.3-0.2-0.6-0.3-0.8-0.5c-1.4-1.5-2.7-3-4.1-4.5c-0.2-0.2-0.4-0.4-0.9-0.4c0.8,1.3,1.5,2.5,2.3,3.8
			c-0.1,0.1-0.2,0.3-0.3,0.4c-5-1.8-9.5-5-14.6-6.6c0.6,1.4,1.2,2.7,1.7,4.1c0.1,0.3,0.1,0.8-0.1,1c-0.2,0.2-0.7,0-1-0.1
			c-0.3-0.1-0.6-0.3-0.9-0.5c-2.5-1.4-5-2.9-7.4-4.3c-0.5-0.3-0.9-0.6-1.3-1c3.4,0.8,6.2,2.8,9.4,4.3c-1.1-2.9-3.5-4.7-5.5-6.8
			c5.4,2.4,10.9,4.7,16.5,7.2c-0.7-2.7-2.7-4.3-4-6.4c3.4,1.4,6.6,3.2,9.2,6c-2.1-4-5.1-7.2-8.3-10.5c0.6,0.1,1.3,0.3,1.9,0.4
			c0-0.1,0-0.3,0-0.3c-2.8-1.8-4.4-4.5-5.6-7.5c-1.1-2.8-2-5.5-3.1-8.3c-0.5-1.2-1.2-2.3-1.8-3.5c-1.1-2.2-1.6-4.5-1.6-6.9
			c0.3-8.5-0.6-16.8-1.7-25.2c-0.1-0.9-0.3-1.8-0.5-2.8c-0.1,0.1-0.2,0.1-0.3,0.2c-2.1,8.7-4.1,17.4-6.1,26.1
			c-0.4,1.8-0.5,3.7-0.8,5.5c-0.1,0.5-0.5,0.9-0.7,1.3c-0.4-0.4-0.9-0.7-1.1-1.1c-0.8-2.9-1.7-5.8-1.5-8.9c0.1-1.3,0-2.7-0.3-4.1
			c-0.4,2.3-0.8,4.6-1.3,6.9c-0.7,3.3-1.3,6.7-0.4,10.1c0.6,2.3,1.6,4.6,2.5,6.9c0.6,1.6,1.4,3.1,2,4.7c0.6,1.6-0.1,3-2,2.7
			c-1.1-0.2-2.1-0.4-3.2-0.5c-0.3,0-0.8,0-0.9,0.2c-0.1,0.2,0,0.7,0.1,1c1,1.7,2.4,3,4.5,3.3c0.3,0,0.5,0.3,0.8,0.5
			c-0.2,0.2-0.3,0.5-0.5,0.7c-2.1,1.8-4.7,1.6-6.7-0.6c-1-1.1-1.7-2.5-2.5-3.7c-0.3-0.4-0.6-0.7-0.9-1c-0.1,0.4-0.3,0.9-0.4,1.3
			c0,0.3,0,0.5,0,0.9c-4.5-3.1-5.5-13.6-1.8-20.1c0.2,3.1,0.5,5.9,0.7,8.7c0.2-7.7,0.1-15.5,3.9-22.6c0,3.1,0,6.1,0,9.2
			c0.5-8.2,1.7-16.1,6.6-23c-0.1,0.6-0.1,1.3-0.2,1.9c-0.5,2.8,0.3,5.2,1.7,7.6c0.6,1.1,1,0.1,1.3-0.1c0.2-0.1,0.3-0.6,0.3-0.9
			c-0.2-4.5,1.2-8.8,2.2-13.2c0.5-1.8,1.4-3.6,1-5.6c-0.1-0.7,0.7-1.7,1.2-2.5c0.8-1,1-2,0.7-3.2c-0.8-2.8-1.5-5.6-2.4-8.3
			c-0.4-1.4-0.9-1.5-1.8-0.3c-1.4,1.6-2.7,3.3-4.2,5c-5,5.6-10.1,11.1-15,16.7c-1.2,1.4-2.1,3-3.2,4.7c-0.1-0.2-0.4-0.4-0.6-0.8
			c-0.6-1.2-1-2.5-1.7-3.7c-0.8-1.5-0.5-2.8,0.7-3.9c1.6-1.4,3.3-2.8,5-4.2c0.8-0.6,1.6-1.2,2.3-1.9c3.8-4,7.5-8,11.3-12
			c1.5-1.6,3-3.2,4.4-4.8c0.5-0.5,1.1-1.1,0-1.7c-0.2-0.1-0.3-0.5-0.4-0.7c-1-3.3-2.1-6.6-2.8-10c-0.7-3.2-1-6.5-1.4-9.8
			c-0.1-1-0.1-2-0.1-3c-0.1-1.7-0.5-2.3-2.2-2.2c-1.2,0.1-1.8-0.4-2.4-1.3c-1.9-2.8-3-5.9-3.6-9.2c-1.3-6.7-0.8-13.4,0.1-20
			c0.1-0.8,0.7-1.5,1.1-2.2c0.3-0.6,0.6-1.1,0.8-1.7c0.5-1.3,0.8-2.6,1.3-3.9c0.5-1.3,1.4-2.4,2.7-2.9c2.9-1.2,5.9-1.9,8.9-0.3
			c0.2,0.1,0.4,0.2,0.6,0.2c2.8,0.9,3,0.7,3.1-2.2c0.2-10.2,1.8-20.2,3.6-30.2c0.2-1,0-2.1,0-3.2c0-1.4-0.1-2.9,0-4.3
			c0.1-1,0.4-2,0.5-3c0.1-1,0.5-2.2,0.1-3c-1-2-0.3-3.8,0.2-5.6c0.2-0.8,0.5-1.5,0.7-2.3c0.3-1.5,1-2.6,2.1-3.7
			c0.6-0.6,1.2-1.3,1.4-2.1c1.5-5.6,4-10.6,6.9-15.6c5.8-9.9,12.3-19.3,19.9-28c6.9-8,15-14.7,23.8-20.6c4.1-2.8,8.3-5.4,12.8-7.6
			c2.9-1.4,5.9-2.6,8.8-4.1c4.1-2.1,8.2-4.2,12.2-6.4c0.5-0.3,1.1-0.8,1.3-1.3c1.1-2.3,3.3-2.3,5.3-2.7c0.3-0.1,0.8,0.4,1.2,0.6
			c-0.2,0.3-0.5,0.7-0.7,1c-0.3,0.4-0.6,0.7-0.9,1c0.4,0.3,0.8,0.6,1.2,0.8c1.6,0.7,1.8,0.6,2.7-1c0.3-0.6,0.5-1.3,0.9-2
			c0.6-1.3,1.2-2.6,1.9-3.9c0.8-1.4,1.6-2.7,2.4-4.1c0.9-1.5,1.5-3.1,3-4.1c0.6-0.4,0.9-1.4,1.3-2.1c1.2-1.8,2.5-3.5,3.8-5.3
			c0.6-0.8,0.7-1.5,0.5-2.4c-0.6-2.7-1.7-5.1-4.2-6.5c-0.2-0.1-0.5-0.3-0.7-0.5c-0.1-0.1-0.1-0.2-0.2-0.5c1.8-0.1,3.4,0,4.3,1.8
			c0.6,1.3,1.2,2.6,1.9,3.9c0.2,0.4,0.6,0.7,0.9,1c0.3-0.8,1.3,0.5,1.7-0.8c1.3-3.6,5.5-4.3,8.8-1.5c-0.8-1.7,0.1-2.8,0.9-4
			c0.1-0.1,0.5-0.3,0.6-0.2c0.7,0.6,0.7,0.6,1.3,0.1c6.9-5.1,9.7-12.1,9.3-20.5c-0.2-4.3-1.7-8.2-3.7-11.9
			c-2.4-4.8-6.1-8.6-9.7-12.3c-6.8-6.9-12.8-14.3-16.7-23.4c-2.3-5.3-3.8-10.7-4.9-16.3c-0.2-0.8-0.3-1.5-0.5-2.4
			c-0.4,2.6,0.2,10.6,1.2,15.3c1.1,5.1,2.8,10,5,14.7c-1.1-0.8-1.8-1.8-2.3-2.9c-2.6-5.7-4.8-11.4-6.2-17.5
			c-0.1-0.6-0.3-1.1-0.5-1.7c-0.1-0.4-0.3-0.7-0.6-1c0.9,5,2.3,9.8,4.3,14.7c-0.4-0.2-0.6-0.2-0.7-0.3c-6-9.2-8.6-19.3-8.1-30.2
			c0.2-4.6,1.3-9,4.1-12.8c0.3-0.4,0.6-0.7,1.1-1.3c0.2,0.6,0.4,1,0.4,1.4c0.3,4.4,1.9,8.5,4,12.2c2.4,4.3,5,8.6,7.8,12.7
			c3,4.3,6.7,8.1,10.7,11.5c6.2,5.2,12.3,10.4,18.3,15.9c4.8,4.3,8.5,9.5,11.8,15.1c0.2,0.4,0.4,0.8,0.8,1c2.3,1.9,2.7,4.4,2.3,7.2
			c-0.1-0.4-0.2-0.9-0.2-1.1c-1,2.5-2,5.3-3.1,8.3c0.5-0.5,0.9-0.9,1.2-1.3c0.1,0.1,0.3,0.2,0.4,0.3c-1.9,5.8-6.1,10.3-9.4,15.4
			c1-1.1,2-2.1,3-3.2c0.1,0.1,0.2,0.2,0.3,0.3c-0.8,1.5-1.7,2.8-3,4c-1.8,1.6-3.6,3.1-5.3,4.7c-0.5,0.4-0.9,0.8-1,1.7
			c-0.1,0.9-1.3,1.5-2,2.4c3.2-1.8,5.6-4.6,8.6-7.2c0.1,1.1-0.3,1.7-0.7,2.3c-0.8,1.4-1.6,2.7-2.3,4.1c-2,3.7-3.9,7.4-5.9,11.1
			c-1.8,3.2-3.1,6.5-3.3,10.2c0,0.4-0.1,0.8-0.5,1.4c-0.7-1.3-1.5-2.7-2.2-4c1.5,4.2,3.3,8.2,6.4,11.5c0.3,0.3,0.7,0.6,1,0.9
			c1.8,1.8,3.8,3.6,2.7,6.6c-0.2,9.2-0.5,18.3-0.7,27.5c0,1.9,0.5,3.7,0.4,5.6c-0.1,2-0.1,4.1-1.6,5.8c-0.6,0.6-1.1,0.5-1.7,0.1
			c-1.1-0.8-1.7-1.9-1.7-3.3c0-1.5,0.1-3,0.2-4.5c0.1-1.2,0.2-2.3,0.1-3.5c0-2-0.8-3.5-2.8-4.2c-0.7-0.3-1.2-0.9-1.9-1.4
			c-0.5-0.4-1-0.8-1.5-1.1c-0.5-0.3-0.9-0.1-1.1,0.6c-0.4,2.1-0.8,4.1-1.2,6.1c-0.2,0.9,0.1,1.7,0.9,2.3c0.5,0.4,0.9,0.9,1.2,1.5
			c0.3,0.5,0.5,1.2,0.4,1.8c-0.1,0.3-0.9,0.4-1.4,0.7c-0.3,0.2-0.8,0.5-0.8,0.6c0.2,1.3,0.2,2.7,0.7,3.9c0.4,1.1,1.4,2,2.1,2.9
			c0.7,0.7,1.3,1.6,2.2,2c8.3,3.3,16.6,6.6,25,9.6c4.1,1.5,8.4,2.4,12.9,2.5c-2.1-0.4-4.2-0.8-6.2-1.3c-0.6-0.1-1.1-0.3-1.7-0.4
			c-1.1-0.3-1.6-0.9-1.2-2.1c0.2-0.8,0.3-1.7,0-2.6c-0.4,0.7-0.7,1.4-1.2,2.1c-1,1.5-3.7,1.6-4.9,0.2c-0.1-0.1-0.2-0.2-0.2-0.4
			c-0.6-4.3-1.1-8.7,2-12.4c0.8-0.9,1.7-1.7,2.6-2.5c0.7-0.6,1.5-1.1,2.2-1.7c-4.1,0.8-7.1,3.1-9.1,6.9c-0.1-0.9-0.2-1.7-0.3-2.6
			c-1.1,2.3-1.4,4.9-3,7.2c0-4,0-7.8,0-11.7c-0.1-3.8-0.2-7.6-0.3-11.5c-0.1-3.9,0-7.8-0.4-11.7c0,3.4,0,6.7,0,10.1
			c-1.6-0.4-1.9-1.5-2.1-2.6c-0.6-3.8-1.3-7.5-1.9-11.3c-0.1-0.4-0.2-0.8-0.4-1.5c-0.5,1.1-0.8,1.9-1.3,3.1
			c-0.2-0.8-0.4-1.2-0.4-1.7c-0.3-2.4-0.7-4.7-1-7.1c-0.2-1.6,0.5-2.2,1.9-1.6c4.3,1.8,8.6,3.6,12.5,6.3c8.8,6.1,17.1,12.8,25,20
			c5.2,4.7,9.9,9.8,14.5,15.1c6.2,7.2,11.6,14.9,15.6,23.5c2.2,4.9,4.4,9.9,6.5,14.8c1.1,2.6,1.8,5.3,2.9,7.9c0.4,1.1,1.1,2,1.7,3
			c0.3,0.5,0.8,1,1,1.8c-2-0.8-4.1-1.6-6.1-2.4c-0.1,0.1-0.1,0.2-0.2,0.3c0.6,0.3,1.3,0.7,1.9,0.9c3.7,1.5,7.3,3,11,4.4
			c1.1,0.4,1.5,1.1,1.8,2.2c0.3,1.5,0.4,2.9,0.1,4.5c-1.3,6.6-2.7,13.1-3.7,19.8c-0.8,5.4-1.2,10.9-1.4,16.4c-0.1,3,0.1,6-0.1,9
			c-0.1,2.1,0.2,4.3,0.4,6.4c0.1,1.6,0.3,3.2,0.5,4.7c0.1,1.6-0.2,3.1-0.8,4.6c-2.2,4.8-4.1,9.7-6.3,14.5
			c-2.3,5.1-4.8,10.2-7.2,15.2c-0.5,1-1.1,1.8-1.8,2.7c-0.2,0.3-0.6,0.5-0.9,0.7c-0.1-0.4-0.4-0.8-0.4-1.2c0.1-1.3,0.2-2.6,0.4-3.9
			c0.3-1.9,0-3.7-0.4-5.6c-0.6-2.5-1-4.9-1.4-7.4c-0.3-1.6-0.7-3.1-2.2-4c-0.5-0.3-1-1.1-1.1-1.7c-0.2-1.4-0.8-1.8-2.1-1.9
			c-1.7-0.1-2.8-1.3-3.6-2.8c-0.7-1.2-0.6-1.6,0.9-2.2c1.2-0.4,1.8-1.2,1.9-2.4c0-0.6-0.2-1.6-0.6-1.9c-0.4-0.3-1.3-0.1-1.9,0.1
			c-0.7,0.3-1.4,0.8-2.1,1.1c-1.4,0.6-1.9,0.4-2.6-1c-0.4-0.8-0.6-1.6-1.1-2.3c-0.3-0.4-1-0.8-1.4-0.8c-0.4,0.1-0.8,0.7-1,1.2
			c-0.2,0.4-0.2,1-0.2,1.5c0,1.9-0.9,3-2.8,3.3c-1.4,0.2-2.8,0.4-4.6,0.7c1.7,0.3,3.2,0.6,4.7,0.8c2.8,0.3,5.3,1.4,7.5,3.2
			c1.1,0.9,1.8,2.4,2.5,3.7c0.5,1,0.9,2,2,2.7c0.5,0.3,0.8,1.3,1,2c0.5,2.2,0.8,4.5,1.3,6.8c0.3,1.6,0,3-1,4.3
			c-1.3,1.6-2.5,3.2-3.9,4.7c-2.9,3.1-5.5,6.5-9.3,8.6c-2,1.1-4,2.3-6.5,1.7c-0.1,0-0.3-0.1-0.4,0c-3.5,1.2-7.3,0.3-10.8,1.6
			c-1.3,0.5-2.6,0.2-3.9-0.6c-2.2-1.4-4.8-2-7.4-2.4c-4.9-0.8-9.6-2.2-13.5-5.3c-1.4-1.2-2.9-2.3-4.4-3.3c-0.4-0.3-0.7-1.1-0.8-1.7
			c-0.1-1.4-0.6-2.5-1.5-3.5c-0.9-1-1.3-2.2-1.4-3.5c-0.1-1.7-0.5-3.4-1.7-4.8c-0.6-0.7-0.9-1.7-1.1-2.6c-0.6-2.5,0.6-4.6,3-5.4
			c0.6-0.2,1.3-0.3,1.9-0.5c3.3-0.6,6.3-1.9,9.1-3.8c3.3-2.3,7-3.7,11.2-2.7c0.3,0.1,0.6,0.1,0.9,0.1c0.9,0,2-0.2,2.7,0.2
			c0.5,0.3,0.4,1.6,0.6,2.8c0.7-1.4,1.3-2.3,1.5-3.3c0.2-1,0.8-1.2,1.5-1.3c2.1-0.3,4.1-0.5,6.2-0.7c1.4-0.1,1.7-0.3,1.5-1.7
			c-0.3-1.4-0.7-2.8-1.3-4.1c-1.1-2.5-1.1-4.9,0.4-7.2c0.9-1.3,2-2.4,3.1-3.6c0.9-1,2-1.9,2.8-3c1.4-1.8,2-3.8,0.7-5.8
			c-1.4-2.2-1.1-4.7-1.6-7.1c-0.3-1.5,0.9-2.5,2-3.3c1-0.7,2-1.4,2.9-2.2c2.2-1.9,2.5-4.2,1.5-6.9c-0.5-1.5-1.1-3-1.7-4.5
			c-1.5,0.8-3.2,1.5-4.8,2.4c-0.5,0.3-0.6,1.2-0.8,1.8c-0.3,1-0.6,1.2-1.4,0.7c-1.2-0.7-1.8-1.8-2-3.2c-0.1-1.1-0.1-2.2-0.4-3.2
			c-0.2-0.7-0.7-1.5-1.3-1.8c-0.4-0.2-1.4,0.3-1.8,0.8c-0.9,0.9-1.6,2.1-2.3,3.1c-0.5,0.8-1,1.6-1.6,2.3c-0.6,0.9-1.4,1-2.5,0.6
			c-1.1-0.4-2.3-0.7-3.5-1c-0.5-0.2-1.1-0.4-1.6-0.7c-1.1-0.7-2.1-1.5-3.2-2.3c-1.2-0.8-2.5-1.8-3.8-2.4c-2.1-1.1-3.4-0.5-4.6,1.5
			c-0.8,1.4-1.1,1.4-2.2,0.3c-1.1-1.2-2.2-2.5-3.5-3.5c-0.7-0.5-1.7-0.9-2.5-0.8c-4.1,0.4-7.7-0.8-11.1-2.9
			c-0.6-0.4-1.4-0.5-2.1-0.7c-0.2,0.8-0.7,1.6-0.7,2.4c0.1,1.5,0.5,3,1,4.4c0.5,1.4,1.3,2.7,2.1,4c0.8,1.4,1.3,2.9,1.3,4.5
			c-0.1,3.7,1.1,6.8,4.2,9c0.6,0.5,1.3,1,1.7,1.7c0.4,0.6,0.6,1.5,0.4,2.1c-0.1,0.4-1.1,0.7-1.8,0.8c-1.7,0.2-3.5,0-5.1,0.4
			c-2.5,0.5-3.3,2.1-2.5,4.5c0.4,1.1,1,2.2,1.8,3.1c1,1.2,1.4,1.1,2-0.3c1-2.2,2.8-3.5,4.9-4.3c1.9-0.8,3-0.3,3.7,1.6
			c0.5,1.3,1.1,2.5,1.4,3.8c0.2,1,0,2.1-0.2,3.1c-0.5,1.8-0.4,2.1,1.3,2.7c3.4,1.1,3.5,1.2,3,4.7c-0.4,3.4-1,6.8-1.6,10.2
			c-0.1,0.6-0.3,1.1-0.6,1.6c-0.4,0.6-1.1,0.7-1.6,0c-1.7-2.1-3.5-4.2-5.2-6.3c-0.2-0.3-0.4-0.6-0.4-1c-0.1-2.9-2.1-4.4-4.5-5.2
			c-2.3-0.8-3.7-2.4-4.9-4.3c-1.1-1.8-1.9-3.7-3-5.5c-0.8-1.2-1.7-2.3-2.8-3.2c-1.3-1.1-2.3-0.7-3.1,0.8c-0.1,0.3-0.3,0.5-0.3,0.8
			c-0.6,4.2-3.7,6.9-6.2,9.9c-1.4,1.7-3.5,2.4-5.5,3.1c-1.4,0.5-2.7,0.4-4.1,0c-1.3-0.5-2-1.4-2-2.8c0-1.9,0.6-3.7,1.8-5.2
			c0.2-0.2,0.6-0.5,0.7-0.4c0.2,0.2,0.5,0.5,0.5,0.8c0.1,0.7,0.1,1.4,0.2,2.1c0.4,1.8,1.7,2.5,3.4,1.8c0.9-0.4,1.7-0.8,2.4-1.4
			c2-1.7,4-3.3,5.8-5.2c2.6-2.8,2.5-6.1-0.1-8.9c-1.3-1.3-1.8-2.7-1.5-4.5c0.3-1.6,0.5-3.3,0.8-4.9c0.3-1.3,0.1-2.6-0.7-3.7
			c-2-2.8-4.2-5.3-7.4-6.8c-0.9-0.4-1.9-0.7-2.9-0.8c-1.9-0.2-3,1-2.6,3c0.1,0.6,0.4,1.1,0.5,1.6c0.7,2.6,1.5,5.1,2,7.7
			c1.4,7.8-3.3,12.6-9.9,15.2c-1.4,0.6-3.3,0-4.9,0.1c-1.4,0-2.7,0-4.1,0.2c-1.2,0.2-1.3,0.6-0.8,1.7c0.8,1.6,2.3,2.5,4.5,2.3
			c1.2-0.1,2.4-0.3,3.6-0.5c2.3-0.3,3.6,0.7,3.8,3c0,0.4,0.1,0.7,0.1,1.1c-0.1,4.9-2,6.5-7.2,6.1c-1.7-0.1-3.5-0.9-5.2-1.5
			c-2.8-1.1-5.5-2.3-8.2-3.4c-2.2-0.9-4.5-1.7-6.9-1.4c-5.9,0.5-11-1.5-15.8-4.7c-0.6-0.4-1.2-0.8-1.8-1.1c-0.8-0.5-1.6-0.7-2.4-0.1
			c-0.8,0.7-1,1.6-0.7,2.5c0.2,0.6,0.6,1.3,1.2,1.7c2.2,1.7,4.6,3.3,6.9,4.9c1.2,0.8,2.4,1.6,3.6,2.4c0.3,0.3,0.4,0.8,0.6,1.2
			c-0.4,0.2-0.9,0.5-1.3,0.5c-2.4-0.2-4.9-0.5-7.3-0.6c-2.4-0.1-4.7,0-7.1-0.1c-1.3,0-2.6-0.2-3.8-0.4c-2.4-0.4-4.7-0.2-7,0.6
			c-0.5,0.2-1.1,0.3-1.4,0.6c-0.7,0.8-1.4,1.4-2.6,0.7c-1.2-0.7-2.3-1.6-2.3-3.1c0-0.6,0.1-1.1,0.2-1.7c1.1-6.8,2.1-13.7,1.5-20.6
			c-0.3-3.1-0.7-6.3-1.1-9.4c-0.1,0-0.3,0-0.4,0c-0.1,0.8-0.3,1.6-0.4,2.4c-0.8,8.5-1.7,17.1-2.5,25.6c-0.2,1.9-0.2,3.7-0.2,5.6
			c0,1.3,0.5,2.4,1.8,2.9c1.3,0.5,1.6,1.5,1.3,2.6c-0.3,1.5-0.7,3.1-1.3,4.5c-1,2.5-2.2,4.9-3.2,7.3c-2.1,4.9-2.4,9.9-0.9,15
			c0.5,1.6,1.3,2.6,3,3.3c2.1,0.9,3.8,2.4,5.7,3.8c1.1,0.8,2.1,1.8,3.5,3c-0.3-0.8-0.4-1.2-0.6-1.6c-1.8-3.4-3.7-6.8-5.4-10.3
			c-0.6-1.1-0.8-2.4-1-3.7c-0.1-1.1,0.7-1.4,1.6-0.7c0.7,0.6,1.3,1.3,1.9,2c2,2.3,4,4.7,6.1,7c3,3.4,7.1,5.4,11.1,7.4
			c1.3,0.7,2.9,0.7,4.4,0.8c5.7,0.6,11.3,1.2,17,0.7c0.8-0.1,1.6-0.1,2.4-0.1c3.8,0.2,7.2-0.9,10.4-3c3.9-2.5,8.3-4,12.9-4.8l0,0
			c0.8,0.6,1.6,1.2,2.4,1.8c1.9,1.6,3.9,1.6,5.6-0.2c1.8-2,3.7-4,4.2-6.8c0.2,0,0.3,0,0.4,0.1c2.3,1.7,3.4,1.6,4.6-1
			c1-2.1,1.6-4.4,2.5-6.7c0.3-0.8,0.8-2.1,1.1-2.1c1.1,0,1.3,1.3,1.3,2.1c0.1,2.6,0.2,5.3,0.2,8c0,2.9-0.3,5.8-0.2,8.6
			c0.1,2.1,0.3,2.1,2.4,2c1.4,0,1.8,0.4,1.3,1.6c-0.4,1.1-1,2-1.7,3c-0.3,0.5-0.8,0.6-1.2,0c-1-1.4-1.5-1.7-3-1
			c-1.1,0.5-1.6,0.4-1.8-0.8c-0.3-1.4-0.3-1.3-1.6-0.5c-1.3,0.9-1.4,0.9-2.1-0.3c-0.5-0.8-0.8-1.2-1.5-0.2c-0.2,0.3-0.5,0.6-0.8,0.7
			c-2.7,0.8-4.3,3.1-6.4,4.6c-1.9,1.4-2,2.8-1,4.9c0.4,0.9,0.6,2,0.4,2.9c-0.6,2.1-1.5,4.2-2.3,6.2c-0.5,1.2-1.4,1.7-2.8,1.4
			c-3.5-0.7-6.9-1.3-10.4-1.9c2.4,0.5,3.7-1.2,5-2.7c1-1.2,1.8-2.4,2.8-3.5c0.5-0.6,1.3-0.9,1.8-1.5c0.3-0.3,0.5-0.8,0.4-1.1
			c-0.1-0.3-0.6-0.5-1-0.5c-0.6,0-1.3,0.2-1.9,0.3c-1.3,0.2-1.5,0.1-1.3-1.3c0.1-0.7,0.2-1.4,0.1-2.1c-0.2-1.4,0.1-2.5,1-3.6
			c0.7-0.8,1.3-1.7,1.9-2.6c0.4-0.6,0.6-1.3,0.9-1.9c0.1-0.2,0-0.5-0.1-0.6c-0.2-0.1-0.5-0.1-0.8,0c-0.3,0.1-0.5,0.3-0.7,0.4
			c-1.1,1-2.3,2-3.9,2c-0.3,0-0.6,0.2-0.8,0.4c-1.2,1.5-2.7,1.4-4.3,1.2c-1.3-0.1-2.7-0.3-4,0.6c-2.7,1.9-6,2.6-8.4,5
			c-0.3,0.4-1.1,0.5-1.6,0.5c-1.3,0-2.3,0.6-3.1,1.7c-0.8,1.1-1.9,1.8-3.3,1.8c-0.4,0-0.8,0.2-1.6,0.4c1.8,0.6,3.2,0.9,4.5,1.5
			c1.9,0.8,3.8,0.8,5.7,0.2c1.4-0.4,2.8-1,4.2-1.1c1.5-0.1,3.1,0.1,4.7,0.3c0.4,0.1,1,0.7,1,1c-0.2,0.5-0.6,1-1.1,1.2
			c-0.6,0.3-1.3,0.3-1.9,0.4c-0.7,0.2-1.4,0.4-2.1,0.7c0.7,0.3,1.4,0.6,2.1,0.9c0.2,0.1,0.4,0.1,0.6,0.1c2,0.2,3.7,1,5.2,2.3
			c-2.3-0.3-4.7-0.7-7-1c-0.4-0.1-0.8-0.1-1.3,0.1c3.4,0.7,6.8,1.5,10.2,2c7.4,1.1,14.8,2.1,22.3,2.9c2.6,0.3,5.2,0.1,7.8,0.2
			c2.2,0.1,4.3,0.4,6.5,0.4c10.3-0.1,20.6-0.3,30.9-0.6c3.5-0.1,7.1,0,10.6-0.6c7.3-1.2,14.5-3,21.5-5.6c0.5-0.2,1.1-0.5,1.6-0.4
			c0.9,0.2,0.8,0.3,1.2-0.2c0.5-0.5,1-1,1.6-1.3c1.6-1,3.3-1.9,4.9-2.9c-2.9,1.1-3.7,0.8-5.4-1.9c-0.1-0.2-0.2-0.4-0.3-0.6
			c-2-3.3-1.7-3.9,1.6-5.7c5-2.7,9.5-6.2,12.5-11.3c0.6-1,1.4-2,2.3-2.9c1.2-1.1,1.9-0.8,2.2,0.7c0.6,2.7,1.3,5.4,1.4,8.1
			c0.1,1.4-0.9,3-1.7,4.2c-2.1,3.2-4.4,6.2-6.6,9.3c-0.3,0.5-0.4,1.1-0.6,1.7c0.6-0.2,1.2-0.4,1.7-0.7c7.2-5.1,13.4-11.2,17.9-18.8
			c0.5-0.9,1.1-1.9,1.5-2.9c2.6-5.8,5.2-11.6,7.6-17.4c0.9-2.2,1.6-4.5,2.4-6.7c0.4-1,0.8-2,1.1-3c0.5-1.8,1-3.6,1.5-5.4
			c0.1-0.5,0.1-1,0.3-1.5c0.2-0.5,0.6-0.9,0.9-1.4c0.4,0.5,0.9,0.9,1.1,1.4c1.1,2.6-0.3,4.9-1,7.2c-2.3,7.6-3.2,15.4-2.4,23.3
			c0.3,2.9,0.3,2.8-0.6,5.7c-0.7,2-1.1,4-1.9,6c-1.8,4.6-3.7,9.2-5.5,13.8c-3.6,9-6.9,18.2-9.7,27.5c-0.2,0.5-0.3,1.1-0.4,1.6
			c0.1,0,0.3,0.1,0.4,0.1c1.4-4.2,2.7-8.3,4.1-12.5c1.3-3.7,2.6-7.3,3.9-11c0.1-0.3,0.4-0.5,0.6-0.8c0.2,0.3,0.4,0.5,0.5,0.8
			c1.9,7,6,12.7,10.7,18.1c1.8,2.1,3.5,4.4,5.2,6.6c1.3,1.8,1.5,3.7,0.5,5.7c-0.6,1.2-1.3,2.4-2,3.6c-0.4,0.7-1.2,1.1-2,0.8
			c-0.8-0.3-1-1-0.9-1.8c0.1-1.7-0.5-3.1-1.4-4.4c-2.4-3.4-4.8-6.9-7.1-10.4c-1.6-2.5-3-5.1-4.6-7.6c-0.2-0.4-0.5-0.6-0.8-1
			c-0.3,0.3-0.6,0.6-0.8,0.9c-1.3,2.4-1.8,4.9-0.9,7.7c0.8,2.2,1,4.6,1.4,7c0.2,1.1,0.7,1.9,1.7,2.6c3.3,2.1,6.5,4.3,9.8,6.4
			c0.6,0.4,1.2,0.8,1.9,1c1.4,0.5,2.8,1.4,4.2-0.3c0,1.5-0.7,2.1-1.8,2.1c-0.6,0-1.3-0.1-1.9-0.3c-4.9-1.9-9.1-5-13-8.3
			c-1.4-1.2-2.1-2.8-2.4-4.7c-0.3-1.9-0.9-3.8-1.5-6.3c-1,2.4-1.6,4.3-0.8,6.4c1.2,3,2.3,6.1,3.3,9.2c1.4,4.7,1.7,9.6,1.7,14.5
			c-0.9-2.3-1.8-4.5-2.7-6.8c-0.1,0-0.3,0.1-0.4,0.1c0,0.2-0.1,0.4,0,0.6c2.9,7.2,3.2,14.7,3.3,22.3c0,0.3,0.9,1.9-0.9,0.8
			c-1.2-0.7-1.4-0.4-1.6-2c-1,6.1-2,12.2-3.2,18.7c-1.2-1.6-0.6-3.1-1.2-4.6c-0.2,0.5-0.5,0.8-0.5,1.1c-1.3,7-4.2,13.5-6.1,20.3
			c-0.1,0.4-0.6,0.8-0.9,1.1l0,0c0-1.5-0.3-3.1,0-4.5c0.7-3.4,1.6-6.8,2.7-10c1.3-3.6,2.5-7.2,3-11c0.2-1.6,0.7-3.2,1-4.9
			c0.1-0.5,0.1-0.9,0.2-1.4c-0.1,0-0.2-0.1-0.4-0.1c-1.2,2.7-2.3,5.5-3.5,8.2c-0.2,0-0.3-0.1-0.5-0.1c2.1-6.8,2.2-13.9,2.2-20.9
			c-0.5,0.5-1,1-1.3,1.6c-3.2,6.5-7.5,12.5-11.6,18.5c-3.5,5-7,10-10.4,15.1c-0.9,1.3-1.7,2.6-1.2,4.4c2.7-4.4,7.4-6.8,10.7-10.6
			c-0.5,2-1.3,3.9-1.8,5.8c-0.4,1.6-0.6,3.4-0.9,5.1c0,0.3,0.3,0.6,0.4,0.9c0.2-0.1,0.5-0.2,0.7-0.4c1-1.1,1.9-2.3,2.9-3.5
			c0.4-0.5,0.9-0.8,1.4-1.2c0.1,0.6,0.3,1.2,0.3,1.8C380.8,477.2,380.5,481.4,380.2,485.6L380.2,485.6z M318.3,389.9
			c8.1-0.2,16.1-0.3,24.1-1.4c3.5-0.5,7-1.1,10.4-1.6c-0.3-0.3-0.5-0.4-0.7-0.3c-9.2,1.6-18.5,2.5-27.9,2.7
			C322.3,389.3,320.3,389.7,318.3,389.9c-2.4,0-4.8,0-7.2,0c0,0.2,0,0.3,0,0.5C313.5,390.3,315.9,390.1,318.3,389.9z M378.5,229.8
			c1-1.3,0.8-2.9,0.8-4.3c0.1-1.9,0-3.9,0-5.6c0.1-0.1-0.1,0.1-0.2,0.2c-0.2,0.2-0.4,0.3-0.6,0.4c-0.2-0.4-0.4-0.8-0.5-1.2
			c-0.2-1.4-0.4-2.8-0.6-4.5c-0.6,2-1.2,3.7-1.7,5.4c-0.3,1-0.1,1.9,0.8,2.7c1.3,1.2,2.1,2.7,2.1,4.6
			C378.5,228.2,378.5,229,378.5,229.8c-0.3-0.1-0.6-0.2-1-0.3c0,0.3,0,0.7,0.2,0.9c1.6,3.4,3.1,6.8,4.9,10c0.7,1.3,1.8,2.4,2.7,3.7
			c0.1-0.6-0.2-1.1-0.5-1.4c-2.5-3.1-4.1-6.7-5.7-10.3C378.6,231.6,378.6,230.7,378.5,229.8z M251.5,255.3c-0.8,1.2-1.6,2.3-2.4,3.5
			c-0.2,0.3-0.2,0.6-0.2,1c0.4,0,0.8,0.2,1.2,0.1c0.3-0.1,0.6-0.4,0.8-0.7c0.8-0.9,1.7-1.8,2.4-2.7c0.2-0.3,0.3-0.7,0.4-1.1
			c-0.5,0-0.9-0.1-1.4-0.1c0.4-0.5,0.8-1.1,1.3-1.4c4.6-2.7,9.4-5,14.9-5.1c5.7,0,11.3,0.8,16.8,2.7c2,0.7,4,1.5,6,2.3
			c-0.1-0.1-0.1-0.2-0.1-0.3c-0.3-0.2-0.6-0.4-0.9-0.5c-7.6-3.8-15.7-5.2-24.1-4.4c-4.8,0.5-9.1,2.3-13,5
			C252.5,253.9,252,254.6,251.5,255.3z M397,280c0.6-0.1,0.9,0.2,1,0.8c0.3,2.1,0.6,4.3,0.9,6.4c0.9,5.3,1.8,10.6,2.7,15.8
			c0.1-2.6,0.1-5.2,0.1-7.8c0-4.3,0-8.6,0.7-12.9c0.9-5.8,1.8-11.7,3.8-17.2c0.1-0.3-0.1-0.8-0.1-1.2c-0.4,0.1-0.9,0.2-1.1,0.5
			c-2.6,3.3-5.3,6.6-7.7,10.1c-0.7,1-1.3,1.6-2.5,1.5c-0.5,0-1.2,0-1.6,0.2c-1.2,0.6-1.9,2.5-1.6,3.9c0.3,1.1,1.4,2.2,2.4,2.3
			C395.2,282.5,396.4,281.5,397,280L397,280z M199.8,241c-1.7,0.9-3.4,1.9-5.2,2.6c-3.2,1.3-6.5,2.5-9.8,3.5c-0.8,0.2-1.7,0-2.1,0.9
			c-0.4,0.8-0.9,1.7-0.9,2.6c-0.1,1.2-0.1,2.6,0.4,3.6c1.1,2.2,0.5,4.2,0.2,6.3c-0.1,0.7-0.2,1.4-0.3,2.1c-0.8,6.5-1.6,13-2.4,19.5
			c-0.5,3.6-1,7.1-1.5,10.6c0.1,0,0.2,0,0.3,0.1c0.9-5.7,1.9-11.3,2.8-17c0.4,0.7,0.5,1.5,0.4,2.2c-0.6,6-1.2,12-2,18
			c-0.3,2.9-1,5.7-1.4,8.5c-0.2,1.3-0.2,2.5,0.9,3.3c0.3,0.2,0.6,0.3,0.9,0.5c0.1-0.3,0.2-0.6,0.2-0.9c0.1-2.9,0.6-5.7,1.7-8.4
			c1.6-3.5,3.1-7,4.5-10.5c0.5-1.3,0.9-2.7,0.8-4c0-2.8,0.8-5.2,2.3-7.5c2.2-3.5,2.3-7.3,1.4-11.2c-0.9-4.3-3.1-8.2-5-12.2
			c-0.3-0.6-0.6-1.2-0.9-1.8c0.1-0.1,0.3-0.2,0.4-0.3c0.7,1,1.4,1.9,1.9,3c1.7,3.2,3.4,6.5,5.1,9.8c0.3,0.6,1,1.3,1.5,1.3
			c0.5,0,1.3-0.8,1.5-1.3c0.8-2.6,2.7-4.2,4.8-5.7c1.8-1.2,3.7-2.2,5.6-3.2c10.1-5.1,19.9-10.7,30.5-14.9c3-1.2,3.5-2.9,2-5.6
			c-2.5-4.5-4.9-9.1-7.4-13.7c-0.3-0.5-0.6-0.9-0.9-1.3c-2.4,2.4-4.7,4.7-6.9,7.1c-5.2,5.5-11.5,9.4-18.5,11.9
			c-1.1,0.4-2.3,0.7-3.5,1.1c2.3-1.3,4.7-2.5,7-3.8c0-0.1-0.1-0.2-0.1-0.3c-4.3,2-8.7,3.9-13,5.9c0,0,0,0.1,0.1,0.1
			C196.8,241.8,198.3,241.4,199.8,241z M242.3,217.1c-1.7,0.2-4.3,0.4-6.7,0.7c-1.5,0.2-2.3,1.1-2.3,2.7c0,0.9,0.1,1.9,0.4,2.7
			c2,4.2,4,8.4,6.1,12.6c0.8,1.6,0.8,1.6,2.6,1.3c7.9-1.5,15.8-2.3,23.8-2.5c11.8-0.4,23.6-0.4,35.4,1.1c2.6,0.3,2.5,0.3,2.6-2.4
			c0.2-7.2-0.9-14.4,0.4-21.5c0.3-1.6-0.5-2.2-2.1-2.2c-0.9,0-1.9,0.1-2.8,0.3c-3.2,0.9-6.4,1.9-9.5,2.9c-7.6,2.6-15.3,4.5-23.4,4.6
			c-5.2,0.1-10.4,0.3-15.6,0.3C248.6,217.7,245.8,217.4,242.3,217.1z M307.4,219.9c-0.2,0.7-0.6,1.2-0.5,1.7c0.1,3.7,0.1,7.3,0.4,11
			c0.1,1.7,1.1,2.4,2.9,2.7c3.4,0.5,6.8,1,10.2,1.7c6.8,1.2,13.6,2.5,20.5,3.3c5.7,0.6,11.2,2.2,15.7,6c1.2,1,1.7,1,2.6-0.4
			c1.7-2.3,3.2-4.8,4.8-7.2c0.3-0.4,0.3-1,0.4-1.6c-0.5,0.1-1,0.2-1.5,0.4c-0.5,0.2-1.1,0.5-1.5,0.8c-1.2,1.1-2.5,1-3.8,0.5
			c-2.5-1-5.1-1.8-7.3-3.2c-3.6-2.2-7.3-3.3-11.6-3.3c-4.6,0.1-9.2-0.7-13.4-2.9c-1.4-0.7-3-1-4.5-1.2c-2.7-0.5-5.3-1.4-7.4-3.2
			c-1.6-1.4-3.1-2.8-4.6-4.2C308.2,220.5,307.9,220.3,307.4,219.9z M300.2,407.9c0.8-0.7,1.3-1.1,1.7-1.5c1.1-1.1,2.1-2.2,3.2-3.2
			c1.8-1.7,3.8-3.2,6.2-3.7c2.7-0.6,5.5-1.2,8.3-1.5c5.9-0.6,11.8,0.1,17.7,0.7c2.1,0.2,3.8,0,5-2c0.9-1.5,2.4-2.4,4.3-2.7
			c2.5-0.4,5-0.7,7.5-1.2c4.8-0.9,9.5-1.7,13.3-5.2c0.1-0.1,0.2-0.2,0.4-0.2c2.8-1.4,5.5-2.8,8.3-4.2c2.9-1.5,5.5-3.6,8-5.8
			c-0.3-0.1-0.5-0.2-0.6-0.2c-0.6,0.3-1.3,0.7-1.9,1c-4.9,3.3-10.1,6.1-15.7,8.1c-6.6,2.4-13.3,4.4-20.2,5.4
			c-3.7,0.6-7.4,0.7-11.1,1c-7.7,0.5-15.4,1.3-23.1,1.1c-2.3-0.1-4.6,0-6.9,0c-1.1,0-2.2,0.1-2.5,1.5
			C300.9,399.4,300.5,403.4,300.2,407.9z M288.7,209.2c-1.1,0.3-2.1,0.7-3.2,1c-0.9,0.3-1.2,0.2-1.2-0.9c-0.3-6.4-0.7-12.8-2.3-19
			c-1-3.8-2.5-7.5-3.7-11.3c-1.5-4.8-2.4-9.8-2-14.9c0.1-0.8,0.4-2.1-0.7-2.1c-1,0-1.2,1.2-1.2,2.2c0,0.2,0,0.4,0,0.6
			c0.1,2.8,0.2,5.6,0.3,8.4c0.3,7.6,0.7,15.1,0.9,22.7c0.1,4.8-0.2,9.7-0.6,14.5c-0.3,3.4-0.5,3.4-3.8,3.8c-0.3,0-0.6-0.1-1-0.2
			c0.1-0.3,0.2-0.6,0.3-0.8c1.1-1.4,1.5-2.9,1.4-4.6c-0.3-4.4-1.7-8.4-4.6-11.9c-0.8-0.9-1.7-1.8-2.6-2.6c-0.2-0.2-0.6-0.1-1-0.1
			c0.1,0.3,0.1,0.7,0.3,0.9c1.9,1.9,3.2,4.1,4.2,6.5c1.8,4.2,1.7,8.4-0.3,12.6c-0.2,0.5-0.9,0.8-1.2,1
			C274.4,214.5,281.7,212.3,288.7,209.2z M305.3,203.4c-0.3-0.1-0.8-0.2-1.2-0.4c-0.3-0.2-0.8-0.5-0.8-0.8c-0.1-3-0.2-6-0.2-9.1
			c0.1-4.5,0.2-9.1,0.3-13.6c0.1-3.2,0-6.3,0.1-9.5c0.2-5.4,0.5-10.8,0.8-16.2c0.1-2.4-0.2-4.8,0.1-7.1c0.5-4.3,0.4-8.6-0.1-12.9
			c-0.1-0.9-0.8-1.8-1.5-2.5c-0.7-0.8-1.5-0.6-1.8,0.4c-0.3,0.9-0.6,1.9-0.6,2.9c-0.2,7.6-0.4,15.3-0.4,22.9c-0.1,9.4,0,18.9,0,28.3
			c0,2.9,0.3,5.7,0.5,8.6c0,0.6,0,1.2,0,1.7c-0.1,1.7-0.2,3.3-0.3,5c0,1.1,0,2.1,0,2.9C301.7,203.8,303.5,203.6,305.3,203.4z
			 M317.3,86c-0.2,0-0.3,0-0.5,0c-0.3-0.6-0.7-1.1-0.8-1.7c-0.2-1.3-0.9,0.1-1.2-0.3c-0.2-0.4-0.3-0.8-0.5-1.2
			c-0.8-2.4-1.5-4.8-2.3-7.2c-0.1-0.3-0.5-0.6-0.7-0.9c-0.2,0.3-0.4,0.6-0.5,0.9c-0.1,0.6-0.1,1.1-0.1,1.7c0,1.2,0,2.5,0,3.9
			c-1.3-1.9-2.3-3.7-3.5-5.3c-4.2-5.3-8.4-10.7-12.7-15.8c-2.9-3.5-5.1-7.3-6.3-11.7c-0.1-0.4-0.3-0.9-0.5-1.3
			c-0.3,5.9,1.7,10.9,5.8,14.8c2.6,2.5,5.1,5.1,7.4,7.8c2.2,2.5,4,5.3,5.3,8.4c1.4,3.2,2.7,6.3,4.1,9.5c0.4,0.9,0.8,1.9,1.2,2.8
			c0.4,1,1.3,1.6,2.3,1.5c1.4-0.1,0.6-1.3,0.6-2c0-0.1,0.1-0.2,0.2-0.3c0.9,2.7,1.8,5.3,2.7,7.9c0.2,0.4,0.5,0.9,0.7,1.2
			c0.3,0.3,0.7,0.5,0.9,0.9c0.7,2.2,1.7,4.3,0.7,6.7c-0.2,0.5-0.2,1.1-0.3,1.7c-0.6,4.3-0.7,8.6-3.1,12.4c-0.3,0.5-0.3,1.1-0.5,1.7
			c0.1,0.1,0.3,0.2,0.4,0.2c0.5-0.5,1.1-1.1,1.6-1.6c2.3-2.8,3.7-6,5-9.3c0.2-0.5,0.4-1.1,0.6-1.6c0.2-0.5,0.4-0.9,0.6-1.4
			c0.5-1.2-1.1,0.3-0.8-0.7c0.3-0.8,0.5-1.7,0.6-2.5c0.5-2.3,0.9-4.5,1.3-6.8c-0.1,0-0.2,0-0.2,0c-0.4,1.1-0.8,2.2-1.4,3.7
			c-1.2-4.8-2.2-9-3.4-13.7c-0.1,1.2-0.2,2-0.2,2.7c-0.5-0.6-0.7-1.3-0.9-2c-0.4-1.5-0.8-3.1-1.2-4.6c0-0.1-0.2-0.1-0.3-0.2
			C317.5,84.9,317.4,85.5,317.3,86z M194.5,348.8c-3.3-4.6-6.9-9-9.5-14c-2.6-5-5.7-9.9-7.4-15.4c-1.6-5.3-4.5-10.2-5.1-16.1
			c-1.2,0.8-2.8,1.4-3.3,2.5c-0.7,1.4-0.3,3.3,0.6,4.8c1,1.9,1.7,3.8,2.4,5.8c1.9,5.3,4,10.5,6.3,15.6c2.6,5.8,6.5,10.9,10.4,15.9
			c0.3,0.3,0.6,0.6,0.9,0.9c3.2,3.2,6.3,6.5,9.9,9.3c5.9,4.7,11.9,9.1,18.3,13.1c1.3,0.8,2.7,1.4,4.1,2.1c-2.1-1.6-4.4-2.9-6.7-4.4
			c-3.5-2.3-6.8-4.8-10.3-7.1c-1.4-0.9-2.2-2-2.7-3.5c-0.3-0.9-0.6-1.9-1.3-2.4c-1.6-1.3-3.3-2.5-5.1-3.6c-1.7-1.1-2.6-2.6-3.2-4.8
			C193.6,348.1,194,348.4,194.5,348.8z M310.9,471.7c0-0.5,0-1,0-1.5c0-2.1-1.4-2.9-3.3-1.8c-0.6,0.3-1.3,0.7-1.9,1
			c-1.3,0.6-2,1.5-2.5,2.8c-0.9,2.4-0.6,4.9-0.2,7.3c1,7.1,0.9,14.2-0.4,21.3c-0.2,1-0.3,2-0.3,3c0,1.5,0.7,2.1,2.1,2.2
			c1.5,0.1,2.8-0.2,3.6-1.5c1-1.6,2.3-3.3,1.3-5.4c0-0.1-0.1-0.1-0.1-0.2c-0.4-1.4-1-2.7-1-4.1c-0.1-5.2,0-10.4,0.1-15.5
			c0-0.9,0.2-2,0.8-2.6C310.7,475.1,311.1,473.6,310.9,471.7z M309.6,440.7c3.8,0.3,6-4.1,5.5-7c-0.3-2.3-0.3-4.7,0-7.1
			c0.5-4.1,2.4-7.8,4.1-11.6c0.6-1.4,1.3-2.9,1.6-4.4c0.4-2.1-0.6-3-2.6-2c-2.8,1.4-5.2,3.4-6,6.7c-0.5,2.3-0.9,4.7-1.3,7
			c-0.5,3.2-0.9,6.4-2.1,9.5c-0.8,2-1.4,4.1-1.8,6.2C306.7,440,307.4,440.7,309.6,440.7z M364.3,296.9c-0.2,0-0.3-0.1-0.5-0.1
			c-0.9,2-1.3,4.2-1.3,6.4c0,0.5,0.6,0.9,0.9,1.4c0.4,0.6,1.1,1.2,1.2,1.9c0.3,1.4,0.6,2.6,2,3.3c0.7,0.3,0.8,1,0.2,1.8
			c-1.1,1.6-0.9,3,0.8,4c1.4,0.8,3,1.3,4.5,1.9c0.5,0.2,1.1,0.2,1.6,0.5c2.4,1.2,4.7,2.5,7,3.7c0.4,0.2,0.8,0.3,1.2,0.5
			c0.1-0.5,0.3-1,0.2-1.4c-0.3-0.9-0.7-1.9-1.3-2.7c-0.5-0.8-1.2-1.4-1.9-2c-2-1.7-3.1-4-3.4-6.5c-0.2-1.5-0.3-3-0.2-4.5
			c0.1-3-1.4-5.2-3.2-7.3c-0.2-0.2-0.7-0.5-0.9-0.4c-0.2,0.1-0.4,0.6-0.5,0.9c-0.1,1.1-0.2,2.3-0.2,3.4c0,1.6-0.3,3.3,1.5,4.4
			c0.2,0.1,0.4,0.5,0.3,0.7c-0.1,1.1-0.3,2.2-0.5,3.3c-1.3-0.1-1.8-1.2-2.5-2.1c-0.5-0.6-1-1.3-1.6-1.5c-1-0.3-1.3-0.7-1.2-1.7
			c0.1-1.1,0-2-1.1-2.8c-0.6-0.4-0.9-1.4-1-2.3C364.4,298.7,364.4,297.8,364.3,296.9z M329.6,356.3c-0.1,0.1-0.2,0.3-0.4,0.4
			c0.8,0.6,1.4,1.4,2.3,1.9c1.3,0.7,2.7,1.3,4.1,1.8c3.3,1.2,6.8,1.9,10,3.4c3.8,1.8,7.5,1.6,11.3,0.7c2.6-0.6,5.2-1.2,7.8-1.7
			c1.5-0.2,2.6-0.6,3-2.2c0.1-0.4,0.5-0.7,0.7-1c0.6-0.7,1.3-1.4,1.9-2c2.7-2.8,5.5-5.5,8.1-8.4c2.6-2.8,1.1-6.3,1.2-9.5
			c0-0.1-0.1-0.2-0.2-0.4c-1.4-1.9-2.6-4-4.2-5.8c-0.6-0.7-1.7-1.1-2.6-1.2c-1.7-0.2-3.4-0.1-5.1-0.1c0.5,0.4,1.2,0.6,1.8,0.9
			c1.5,0.7,3.3,1.2,4.3,2.3c1.8,2.2,2.8,4.9,2.9,7.8c0,1.9-0.4,3.8-0.8,5.7c-0.1,0.4-0.4,0.7-0.7,1c-2.4,2.4-4.9,4.7-7.1,7.3
			c-2.3,2.7-5.3,3.6-8.5,4.5c-4.4,1.2-8.7,0.9-13-0.3c-2.4-0.7-4.7-1.4-7.1-1.8C336,359.3,332.6,358.5,329.6,356.3z M375.1,232.5
			c-0.1-0.7-0.1-1.1-0.2-1.4c-0.3-0.9-0.6-1.8-1-2.6c-0.9-2.2-1.4-2.4-3.7-2.5c-3.6,0-7.2,0-10.8-0.1c-2.3-0.1-4.6-0.2-6.9-0.6
			c-12-2-23.2-6.1-34.2-11.2c-2.6-1.2-5.2-2.5-7.8-3.8c-0.3-0.2-0.8,0-1.2,0c0,0.3,0.1,0.7,0.1,1c0.4,1.7,1.6,2.7,3.2,3.2
			c4,1.3,7.7,3.2,11.3,5.3c1.1,0.6,2.1,1.2,3.2,1.9c1.4,0.9,2.8,1.3,4.4,1.5c5.8,0.9,11.6,2,17.5,2.9c2.3,0.4,4.5,0.7,6.8,0.9
			c3.7,0.3,7.5,0.3,11.2,0.5c3.3,0.2,4.4,1.3,4.6,4.6c0.1,1.1,0.4,2.3,0.9,3.3c0.3,0.7,1.1,0.8,1.5-0.1
			C374.5,234.4,374.8,233.2,375.1,232.5z M327.7,437.6c0.1-1.1-0.6-1.7-1.5-2.1c-1-0.5-1.5,0.2-1.9,0.8c-0.8,1.3-1.7,2.6-2,4
			c-0.5,2.1-0.6,4.3-0.8,6.4c-0.4,4.4-0.6,8.8-2.8,12.8c-0.2,0.4-0.4,0.9-0.5,1.4c-0.4,1.7,0.1,2.7,1.6,3.3c1.7,0.7,2.9,0.5,3.7-1
			c0.6-1.1,1.2-2.3,1.4-3.6c0.9-6,1.7-12.1,2.5-18.2C327.4,440.2,327.5,438.9,327.7,437.6z M161.5,341.6c0.2,0,0.4,0,0.6,0
			c0.4-2,1-3.9,1.2-5.9c0.6-6.2,0-12.4-1-18.5c-0.3-1.7-1-3.4-1.7-5.1c-0.4-0.9-0.9-0.9-1.3,0c-0.4,0.9-0.8,1.9-0.9,2.9
			c-0.3,2.5-0.4,5-0.6,7.5c-0.5,4.4,0.1,8.8,1.1,13.1C159.3,337.8,160.2,339.8,161.5,341.6z M351.1,360.5c0.2-0.1,0.4-0.3,0.6-0.5
			c0.9-1,1.7-1.9,2.5-2.9c0.6-0.7,0.6-1.4-0.2-1.8c-0.9-0.5-0.7-1-0.4-1.8c0.3-0.6,0.4-1.2,0.5-1.9c0.7-3.5,1.4-6.9,2-10.4
			c0.3-1.6,0.7-3,2.3-3.9c0.4-0.2,0.8-1,0.8-1.5c-0.1-0.9-2.3-2.3-3.2-2.1c-1.3,0.3-2.5,0.7-3.7,1.2c-0.3,0.1-0.8,0.8-0.7,1.1
			c0.7,2.2,0,4.4,0,6.6c-0.1,3.8-0.8,7.6-1.9,11.2c-0.3,0.8-0.3,1.7-1.2,2.2c-0.3,0.2-0.5,0.9-0.4,1c0.9,1.1,1.8,2.2,2.8,3.3
			C350.9,360.5,351,360.5,351.1,360.5z M387.7,263.5c-0.7-1.4-1.4-2.9-2.1-4.4c-0.6-1.2-1.5-2-2.7-2.6c-1.2-0.7-2.4-1.6-3.3-2.7
			c-1.1-1.3-2-2.8-2.9-4.3c-1.1-1.7-2.4-3.2-4.6-3.5c-1.5-0.2-2.6-1.2-3.4-2.5c-0.5-0.9-1.2-1.6-1.8-2.5c-0.6,1-1.2,2-1.7,2.9
			c-0.1,0.2-0.2,0.4-0.3,0.6c-0.9,1.9-0.8,1.9,0.8,3.1c5.7,4.2,11.5,8.5,17.2,12.8c1.4,1,2.6,2.3,3.9,3.4c0.2,0.2,0.5,0.2,0.8,0.2
			C387.6,264,387.7,263.7,387.7,263.5z M310.5,245c0-5.7-4.1-8.4-8.9-6.4c-0.1,0.1-0.3,0.1-0.4,0.2c-2,1.1-3.4,2.9-3.3,5.2
			c0.1,1.5,0.9,3.2,1.8,4.5c2.3,3.5,6.3,3.7,9.2,0.8C310.3,248.1,310.5,246.5,310.5,245z M342.6,339.2c-0.3-0.6-0.8-1.4-1.3-2.1
			c-0.8-1.2-0.9-1.2-1.9-0.4c-0.6,0.5-1.2,1-1.9,1.2c-2,0.8-2.4,1.7-1.7,3.8c0.2,0.5,0.4,1,0.3,1.5c-0.2,2.9-0.4,5.7-0.9,8.6
			c-0.3,2-0.5,2,1.2,2.6c0.6,0.2,1.2,0.5,1.9,0.6c2.2,0.3,3.6-1.6,3-3.6c-0.2-0.7-0.5-1.4-0.4-2.1c0.4-3-0.2-6.1,1.3-8.9
			C342.4,340.2,342.4,339.9,342.6,339.2z M356.3,319.6c0.1,0,0.1,0,0.2,0c0,0.6,0,1.2,0,1.7c0.1,1.9,0.7,2.6,2.5,2.3
			c2.5-0.4,5-0.5,7.5,0c0.9,0.2,1.8-0.1,2.2-1c0.4-1.1,0.8-2.2,0.9-3.3c0.1-1.3-0.5-2.1-1.7-2c-2.5,0.1-4.1-1.7-5.8-2.9
			c-2.2-1.6-4.2-1.4-5.1,1.1C356.5,316.8,356.5,318.3,356.3,319.6z M352.8,406.1c0.1-1.4-1-1.9-2.2-1.1c-2.3,1.4-4.2,3.2-5.2,5.6
			c-1.8,4.5-3.4,9.2-5.1,13.7c-0.3,1,0.2,1.7,1.2,1.4c0.8-0.2,1.8-0.8,2.2-1.5c1.2-2.2,2.3-4.5,3.2-6.8c1.3-3.4,2.6-6.7,4.9-9.5
			C352.2,407.3,352.5,406.6,352.8,406.1z M357.5,428.6c-0.1-0.5-0.2-0.8-0.3-1.2c-0.4-1.6-0.8-1.7-2.2-0.9c-2.7,1.6-3.8,3.8-3.5,7
			c0.3,3.4,0.1,6.8-0.2,10.1c-0.1,1.5-0.9,3-1.3,4.5c-0.2,0.6-0.5,1.3,0.3,1.7c0.8,0.4,1.5,0,1.8-0.7c0.7-1.5,1.7-2.9,2-4.5
			c0.5-2.1,0.3-4.3,0.6-6.4c0.4-2.9,0.4-5.9,2.4-8.4C357.4,429.6,357.4,429,357.5,428.6z M349.7,334.3c0-0.2,0-0.4,0-0.6
			c-2.9-0.8-5.8-1.6-9-1.1c-4.6,0.8-8.1,3.5-11.8,6.1c-2.2,1.5-4.3,3.2-6.6,4.5c-1.8,1-2.6,1.5-0.8,4.1c0.3,0.4,0.6,0.7,0.9,1.1
			c0.2-0.4,0.1-0.6,0-0.9c-0.4-2.1-0.4-2.1,1.5-3.2c0.8-0.4,1.6-0.7,2.2-1.3c1.8-1.5,3.5-1.7,5.5-0.4c0.4,0.2,0.9,0.2,1.4,0.3
			c0-0.4,0.1-0.8,0.1-1.3c0-0.2-0.1-0.4-0.1-0.6c-0.3-1.9-0.2-2.4,1.5-3.3c1.8-0.9,3.6-1.8,5.4-2.7c0.6-0.3,1.5-0.7,2.1-0.5
			c1.8,0.6,3.5,0.6,5.3-0.1C348.1,334.1,349,334.3,349.7,334.3z M332.7,470.7c0.1,0,0.1,0,0.2,0c-0.3,3.1-0.5,6.2-0.8,9.3
			c-0.1,0.9-0.3,1.8,0.7,2.2c0.9,0.4,1.7,0,2.4-0.6c1.7-1.5,2.3-4.5,1.5-6.5c-0.4-0.9-0.6-1.9-0.6-2.9c-0.1-2.2,0.2-4.4,1.2-6.5
			c0.3-0.7,0.4-1.6,0.3-2.3c-0.2-1.5-1.5-1.9-2.5-0.8c-1.4,1.5-2.6,3.1-2.4,5.4C332.7,468.9,332.7,469.8,332.7,470.7z M363.1,355.8
			c2.2,0,3.1-1.1,2.9-3.4c-0.3-3.7-0.6-7.4,1.8-10.6c0.3-0.4,0.4-1,0.3-1.4c-0.2-1.4,0.1-2.4,1.6-2.9c0.2-0.1,0.5-0.5,0.5-0.7
			c-0.2-0.7-2.2-1.7-3.1-1.6c-1,0.1-1.4,0.8-1.6,1.7c-0.5,2.4-0.9,4.8-2.3,6.9c-0.4,0.6-0.6,1.4-0.5,2.1c0.1,2.8-0.1,5.6-0.9,8.3
			C361.5,355.3,362,355.8,363.1,355.8z M248.5,247.3c0.1-2.6-2.2-4.8-5-4.9c-2.1,0-4.2,2.2-4.2,4.6c0,2.5,2.3,4.8,5.1,4.9
			C247,252,248.4,250.5,248.5,247.3z M360.8,253.1c-0.2-1.1-0.3-1.8-0.6-2.5c-0.7-1.9-2.2-2.6-4.1-2.1c-2.5,0.7-4.2,3.2-3.9,5.8
			c0.2,1.9,1.1,3,3.2,3.6c1.6,0.5,3.2,0,4.1-1.6C360.1,255.3,360.4,254.1,360.8,253.1z M370.4,412.4c1.1,0.1,1.6-0.7,1.8-1.7
			c0.2-1,0.2-2.1,0.3-3.2c0.1-3.4,0.9-6.5,3.2-9.2c0.3-0.3,0.6-0.7,0.7-1c0.4-0.8,0.5-1.8-0.4-2.3c-0.9-0.6-1.6,0-2.1,0.8
			c-1.4,2-2.3,4.1-2.8,6.5c-0.5,2.6-1.3,5.1-2,7.7c-0.1,0.3-0.2,0.5-0.3,0.8C368.7,411.9,369.1,412.4,370.4,412.4z M316.8,482.5
			c0,1,0.6,2.1,1.6,2.7c1,0.6,1.9,0.3,2.8-0.3c1.7-1.1,3.1-5,2.6-7c-0.3-1.1-1.2-1.6-2.3-1.3C319.5,477,316.8,480.4,316.8,482.5z
			 M186.3,315.9c0,0.2-0.1,0.4,0,0.6c0.1,0.3,0.3,0.6,0.5,0.9c0.3-0.3,0.7-0.5,0.8-0.8c0.3-1.3,0.4-2.7,2-3.3
			c0.2-0.1,0.3-0.5,0.3-0.8c0.3-1.4,0.5-2.8,0.7-4.2c0.2-1,0.5-2.1,0.8-3.1c0.6-2.2,1.3-4.5,1.9-6.7c0.1-0.2-0.1-0.7-0.3-0.7
			c-0.3,0-0.8,0.1-0.9,0.3c-0.7,1.2-1.3,2.4-2,3.6c-0.7,1.3-1.5,2.6-2.1,4c-0.5,1.1-0.6,2.2,0.3,3.2c0.7,0.9,0.6,2.9-0.3,3.5
			C186.4,313.2,186.6,314.6,186.3,315.9z M194.5,270.1c0.2,0.9,0.3,1.8,0.7,2.7c1.2,2.4,3.9,2.6,5.5,0.5c1.5-2,0.8-5.6-1.5-6.8
			c-1-0.5-2-0.4-2.9,0.2C195.2,267.5,194.5,268.6,194.5,270.1z M298.8,56.3c2.2,4.2,5.1,7.7,8.7,10.8c0.1,0.1,0.2,0.2,0.4,0.2
			c3.1,1.6,5.3,4.1,7.5,6.7c1.5,1.8,2.9,3.6,4.3,5.4c-0.9-2-1.8-4-3.3-5.5c-4.9-5.1-9.9-10-14.9-15
			C300.6,58.1,299.7,57.2,298.8,56.3z M196.5,370c0,2-0.1,3.5,0,5c0.2,1.5,0.6,3,0.9,4.4c0.1,0.2,0.4,0.6,0.5,0.6
			c0.3-0.1,0.6-0.3,0.8-0.6c0.9-1.4,1.6-2.9,2.7-4.2c0.9-1.1,1-2.2,0.3-3.3c-0.4-0.7-0.9-1.5-1.4-2.2c-0.5-0.6-0.9-0.5-1,0.3
			c-0.3,1.7-0.6,3.4-0.9,5.1c-0.2,1-0.3,2.1-0.5,3.1c-0.1,0-0.2,0-0.3-0.1C197.3,375.6,196.9,373.1,196.5,370z M326.2,422.8
			c0,1.9,1.4,2.9,2.8,1.8c1.5-1.2,2.7-2.7,3.8-4.2c0.3-0.4,0.1-1.4-0.2-1.9c-0.4-0.7-1.3-0.8-2.1-0.4c-1.9,0.8-3,2.3-4.1,4
			C326.2,422.2,326.2,422.6,326.2,422.8z M201.5,392.5c-0.4-1-0.8-2-1.3-2.8c-0.7-1.1-1.5-2-2.2-3c-0.2-0.3-0.4-1-0.7-1
			c-0.6,0-1.3,0.1-1.8,0.4c-0.8,0.4-0.8,1.3-0.5,2c0.8,1.5,1,3.5,3.1,4c0.2,0.1,0.4,0.4,0.6,0.5c0.5,0.3,1.1,0.5,1.7,0.7
			C201.1,393.6,201.3,393.2,201.5,392.5z M295.2,196.3c1.2-16,1.6-32,1.3-47.8C296.1,164.2,295.7,180.3,295.2,196.3z M399.5,311.4
			c0.6-15.5-8-33.6-16.7-38.6C393.7,282.1,398.6,296.9,399.5,311.4z M359.3,453.9c-0.1,1.4,0.5,2,1.6,2c1.2,0,2-0.7,2.2-1.8
			c0.2-1.3,0.5-2.5,1.4-3.5c0.6-0.7,0.1-1.5-0.8-1.7c-1-0.2-3.3,0.9-3.6,1.9C359.7,451.9,359.5,453,359.3,453.9z M191.1,319.9
			c-0.2-0.2-0.4-0.8-0.7-0.9c-0.4,0-0.9,0.4-1.1,0.7c-0.5,0.9-0.9,1.8-1.2,2.8c-0.7,2.1,0.9,6.1,2.8,7.1c0.1,0.1,0.7-0.3,0.7-0.4
			c0-0.6-0.1-1.2-0.3-1.7c-0.8-1.9-0.8-3.9-0.4-6C190.9,321.2,191,320.7,191.1,319.9z M304.8,193.6c0.1,0,0.3,0,0.4,0
			c0.2-15.3,0.4-30.5,0.7-45.8c-0.1,0-0.3,0-0.4,0C305.2,163.1,305,178.3,304.8,193.6z M245.3,377c-1-0.3-1.9-0.6-2.9-1
			c-5.5-2-11-4-16.4-6.1c-1.2-0.4-2.6-0.7-3-2.2c0-0.1-0.5-0.3-0.6-0.2c-0.7,0.7-1.4,0.2-2-0.1c-2.1-1-4.2-2.1-6.3-3.1
			C223.8,370.2,234.3,374.2,245.3,377z M217.3,225c0.1,0,0.2,0,0.3-0.1c-0.1-2.9-0.1-5.8-0.2-8.7c-0.1-1.4-0.1-2.7-0.3-4.1
			c-0.4-2.3-1.8-3.4-4.5-3.2c2.7,2.3,3.8,5.3,3.8,8.8c0,1.9,0.2,3.7,0.4,5.6C216.8,223.9,217.1,224.5,217.3,225z M370.7,380.1
			c0.1,0.1,0.3,0.3,0.4,0.4c0.8-0.6,1.8-1,2.5-1.8c1.1-1.2,2.1-2.5,3.1-3.8c0.9-1.2,1.7-2.5,2.5-3.7c0.1-0.2,0-0.5,0-0.8
			c0-0.1-0.3-0.2-0.4-0.1c-1,0.6-2.7,1.1-2.9,2c-0.4,1.5-1.6,2.3-2.4,3.4C372.7,377.2,371.7,378.6,370.7,380.1z M207.1,275.1
			c0.2,0.5,0.4,0.9,0.6,1.4c0.5-0.3,1-0.5,1.3-0.9c0.4-0.6,0.8-1.2,1-1.9c0.3-1.4,1.3-2.4,2.3-3.3c1.3-1.2,1.6-2.2,1-3.7
			c-0.1-0.2-0.3-0.5-0.6-0.5c-0.2,0-0.5,0.2-0.6,0.5c-0.2,0.4-0.4,0.9-0.6,1.3c-0.9,1.7-1.9,3.3-2.9,4.9c-0.2,0.3-0.3,0.8-0.5,0.8
			C207.1,273.8,207,274.3,207.1,275.1z M273.4,387c13,2.7,28.4,4,31.5,2.7C294.3,390.3,283.9,388.3,273.4,387z M338.9,207.7
			c2-2.1,3.5-4.2,5.4-5.6c1.9-1.4,4.3-2.1,6.5-3c-2.6,0.2-5.1,0.6-7.6,1c-0.9,0.2-2.3-0.1-1.3,1.7c0.1,0.2-0.4,0.7-0.6,1
			C340.1,204.1,339.4,205.6,338.9,207.7z M210.4,404.2c1-3.2,0.2-13.1-1.1-15.9C209,393.9,209.5,399.1,210.4,404.2z M159.2,427.6
			c-0.1,0-0.1,0-0.2,0c0,1.9-0.1,3.9,0,5.8c0,0.8,0.2,1.7,0.6,2.2c1.2,1.5,2.6,2.8,4,4.2c0.1,0,0.1-0.1,0.2-0.1
			C162.3,435.7,160.7,431.7,159.2,427.6z M319.1,344.9c0.1,0,0.3,0,0.4,0c-0.4-2.9,1.6-3.9,3.7-4.8c0.4-0.2,0.8-0.3,1.2-0.5
			c0.4-0.2,0.6-0.4,0-0.7c-0.1,0-0.1-0.4-0.1-0.6c0.1-0.3,0.4-0.6,0.6-0.9c-0.4,0-0.9,0-1.2,0.2c-1.9,1-3.8,2-5.6,3.1
			c-0.3,0.2-0.5,0.8-0.4,1.1C318,342.8,318.6,343.8,319.1,344.9z M272.7,202.3c0.5-9.5-0.3-27.2-1.5-29.9
			C271.7,182.5,272.2,192.6,272.7,202.3z M326.5,347.4c0.3,0.5,0.6,1.3,1.1,1.6c0.5,0.2,1.5,0.2,2-0.2c0.6-0.4,1.1-1.1,1.4-1.8
			c0.5-1.1-0.1-2.4-1.2-3c-0.9-0.4-1.7,0-2.3,1.2C327,345.8,326.8,346.5,326.5,347.4z M368.2,215.1c0.9-1.8,0.9-3.6,0.2-5.4
			c-0.8-2.2-1.4-4.4-0.9-6.7c0.1-0.3,0-0.6,0-0.9c-0.1,0-0.3,0-0.4,0c-0.2,1.9-0.3,3.8-0.5,5.7c-1.8-0.1-2-2-3.2-3.3
			c0.4,2.1,0.9,3.7,2.4,4.8c1.6,1.3,2.5,2.9,2.3,5C368.1,214.6,368.2,214.9,368.2,215.1z M386.8,394.7c-0.2-0.4-0.5-1-0.7-1.5
			c-0.5,0.4-1.2,0.6-1.6,1.1c-0.6,0.8-0.9,1.8-1.5,2.6c-0.8,1.1-0.4,2,0.1,3c0.2,0.3,0.6,0.6,1,0.6c0.2,0,0.6-0.4,0.7-0.7
			c0.6-1.2,1.1-2.4,1.6-3.7C386.6,395.8,386.6,395.3,386.8,394.7z M360.7,409.7c-0.1-0.2-0.3-0.8-0.6-0.9c-0.6-0.2-1.5-0.3-1.8,0.1
			c-0.9,0.9-1.7,1.9-2.2,3.1c-0.5,1.2,0.4,2.1,1.7,1.8C359,413.4,360.7,411.2,360.7,409.7z M370.7,345.4c0,0.3-0.1,0.9,0.1,1.3
			c0.2,0.5,0.6,0.8,0.9,1.3c0.4-0.3,1-0.6,1.2-1c0.6-0.9,1.1-1.9,1.6-2.9c0.5-0.9,0.2-1.5-0.8-1.7
			C371.7,341.8,370.7,342.7,370.7,345.4z M375.8,280.8c-0.5-2.1-1-3.9-1.4-5.7c0-0.1-0.6-0.2-0.6-0.2c-0.9,1.1-2.1,2.1-2,3.7
			c0.2,1.4,1.6,1.9,2.7,2.5C374.7,281.3,375.3,280.9,375.8,280.8z M358.9,270.9c0.1-1.7-0.1-2-1.7-2.5c-0.9-0.3-1.8-0.6-2.7-0.7
			c-0.7-0.1-1.4,0.1-2.2,0.2c0.5,0.4,1,0.8,1.5,1.2c1.3,0.9,3.1,1.3,3.7,3c0.1,0.3,0.4,0.5,0.6,0.8c0.2-0.3,0.4-0.7,0.6-1
			C358.9,271.6,358.9,271.3,358.9,270.9z M260.8,206.8c-1.1,3.3-0.8,4.3,1.9,6.2c0.1-1.4,0.4-2.6,2.1-2.6c0.2,0,0.7-0.8,0.6-1.1
			c-0.1-1.2-0.5-2.3-1.5-3.6c0,0.9,0,1.2,0.1,1.6c0.1,0.4,0.1,0.8,0.3,1.3c0.1,0.6,0,0.9-0.7,1.1c-1.2,0.4-1.7,0.2-2.2-0.9
			C261.3,208.2,261.1,207.8,260.8,206.8z M282.1,253.8c-0.1,0.2-0.3,0.5-0.4,0.9c-0.1,0.5-0.5,1.3,0.5,1.2c1.2-0.1,1.8,0.1,1.5,1.4
			c0,0.1,0.1,0.3,0.2,0.4c1,0.7,2.1,1.4,3.1,2.1c0.1,0.1,0.5,0,0.6,0c0.1-0.2,0.1-0.5,0-0.7c-0.3-0.7-0.6-1.4-1-2.1
			C285.7,255.3,284.4,254.1,282.1,253.8z M361.3,264.9c-0.8,0.2-1.2,0.2-1.6,0.4c-0.4,0.2-0.8,0.5-1.2,0.7c0.3,0.4,0.5,0.8,0.9,1.1
			c0.9,0.6,1.9,1,2.8,1.6c0.6,0.3,1.5,1.2,1.6,1.1c0.9-0.8-0.1-1.5-0.3-2.3c-0.1-0.5-0.3-1-0.7-1.3
			C362.4,265.6,361.7,265.2,361.3,264.9z M236.4,264.5c-0.1,0.1-0.8,0.3-0.8,0.4c0.1,0.5,0.4,1,0.6,1.5c0,0.1,0.3-0.1,0.4,0
			c1,0.8,2.8,0.9,2.6,2.9c0,0.2,0.7,0.6,1.1,0.7c0.2,0,0.7-0.6,0.7-0.9C241,266.8,238.8,264.6,236.4,264.5z M269.8,256.8
			c-0.1,0.4-0.2,0.8-0.1,0.8c1,0.6,0.8,1.7,1.1,2.7c0.1,0.4,0.4,0.9,0.7,1c1.1,0.3,1.6,1.1,2.3,1.9c0.3,0.4,0.8,0.6,1.2,0.8
			c0.2,0.1,0.5-0.1,0.8-0.1c-0.1-0.3-0.1-0.6-0.2-0.8c-1.2-1.6-2.3-3.2-3.5-4.7C271.5,257.7,270.6,257.4,269.8,256.8z M242.4,211.2
			c-1.2-0.3-2.3-0.6-3.3-1c-1.8-0.7-2.1-0.7-3.2,1c-0.2,0.4-0.5,0.7-0.7,1.1c-0.5,0.9-0.2,1.4,0.8,1.3c0.4-0.1,1.1-0.3,1.2-0.7
			c0.5-1.4,1.3-1.4,2.5-1C240.6,212.2,241.6,212.1,242.4,211.2z M355.1,207.1c-1.2,0.6-1.7,1.3-1.6,2.4c0,0.4-0.1,0.9-0.3,1.2
			c-0.4,0.4-1.1,0.7-1.6,1c0.5,0.4,1.1,0.8,1.6,1.3c0.4,0.4,0.6,1,0.8,1.5c0.3,0.7,0.4,1.5,0.6,2.3
			C355.2,213.6,353.9,210.4,355.1,207.1z M384.6,279.1c-0.2-1-0.3-1.8-0.5-2.6c-0.1-0.3-0.6-0.8-0.9-0.7c-0.4,0.1-0.9,0.5-0.9,0.9
			c-0.3,1.4-0.5,2.8-0.6,4.2c0,0.4,0.2,0.9,0.4,1.1c0.3,0.1,0.9,0,1.1-0.3C383.7,280.8,384.2,279.8,384.6,279.1z M183.9,313
			c1.6-7.3,3.9-14.2,7.7-20.7C187.2,298.5,184.9,305.5,183.9,313z M239,379.4c6.6,2.5,13.5,3.9,20.5,5
			C252.7,382.7,245.9,381,239,379.4z M215.4,261.8c6.7-3,13.5-5.3,21-4.9C228.8,255.9,221.9,258.1,215.4,261.8z M361.8,327.5
			c-1.8-0.9-3.4-0.8-5-0.1c-0.5,0.2-0.9,0.6-1.3,0.9c0.5,0.2,1,0.5,1.5,0.4c0.8-0.1,1.2,0.1,1,1c-0.1,0.7,0.1,1.4,0.2,2.1
			C358.9,328.9,358.9,328.9,361.8,327.5z M198.2,328.2c0.1,0.1,0.2,0.4,0.3,0.7c0.3-0.2,0.8-0.3,1-0.6c0.2-0.5,0.3-1.1,0.3-1.7
			c0.2-1.4,0.3-2.8,0.5-4.3c0-0.3,0.2-0.6,0.1-0.8c-0.1-0.4-0.4-0.7-0.6-1c-0.3,0.3-0.6,0.5-0.8,0.8c-0.2,0.3-0.2,0.7-0.2,1
			C198.7,324.3,198.5,326.1,198.2,328.2z M333.5,181.1c2.3,4.3,5.8,7.5,9.8,10.3C340.2,187.7,336.4,184.8,333.5,181.1z M241.9,214.3
			c5.8,1,11.7,1.1,17.5,0.6C253.6,214.7,247.7,214.5,241.9,214.3z M320.6,318.6c0.1-1.2-2.6-4.8-3.6-5c-0.2,0-0.5,0.1-0.5,0.2
			c-0.1,0.2-0.1,0.6,0,0.8c0.3,0.5,0.9,1,0.9,1.4c-0.4,2.1,1.5,2.1,2.6,2.8C320,318.8,320.3,318.6,320.6,318.6z M387,286.4
			c-0.4-2.1-0.7-3.8-1-5.5c0-0.2-0.4-0.3-0.6-0.4c-0.2,0.2-0.5,0.4-0.4,0.6c0.2,2,0.3,4,0.6,5.9c0.1,0.6,0.7,0.7,1.1,0.2
			C386.9,286.9,387,286.5,387,286.4z M269.1,254.2c-0.6-0.2-1-0.5-1.3-0.5c-1.2,0.2-2.4,0.5-3.5,0.9c-0.5,0.2-0.9,1-1.2,1.6
			c-0.1,0.1,0.1,0.6,0.3,0.7c0.2,0.1,0.7,0.1,0.8,0c0.8-1.5,2.4-1.4,3.7-1.9C268.3,255,268.6,254.6,269.1,254.2z M193.4,364.4
			c0.1-0.1,0.3-0.1,0.4-0.2c-1.6-2.5-2.9-5.1-5.1-7.1c-1.3-1.2-2.1-1.2-3.2,0.3c-0.5,0.7-0.8,1.4-1.2,2.1c0.6-0.4,1.1-1,1.5-1.5
			c1.3-1.6,1.6-1.6,2.9,0c0.1,0.2,0.3,0.3,0.4,0.5C190.6,360.5,192,362.4,193.4,364.4z M245.2,367c-0.9-1-1.2-2.3-2.4-2
			c-1.7,0.4-3.2,0-4.8-0.4c0,0-0.1,0.2-0.2,0.3C239.8,366.9,242.3,366.6,245.2,367z M328.1,251.6c5.3,0.5,10.6,1.2,15.6,3.3
			C338.9,252,333.6,251.6,328.1,251.6z M183.8,328.5c0.3,0.5,0.6,1.1,0.9,1.5c0.1,0.1,0.8-0.2,0.8-0.3c-0.5-1.7,0.7-3,1.1-4.5
			c0.1-0.3-0.2-0.7-0.3-1.1c-0.3,0.1-0.7,0.2-0.9,0.4C184.9,325.9,184.4,327.1,183.8,328.5z M224.1,265.4c1.4-0.6,2.8-1.2,4.2-1.8
			c0.2-0.1,0.2-0.5,0.3-0.7c-0.3-0.1-0.6-0.3-0.8-0.2c-1.4,0.4-2.9,0.8-4.3,1.2c-0.3,0.1-0.5,0.6-0.7,0.9
			C223.2,264.9,223.6,265.1,224.1,265.4z M228.4,217.6c-0.1-0.1-0.2-0.2-0.3-0.3c-2.9,3.6-5.8,7.2-8.8,10.8
			C223,225.2,225.3,221.1,228.4,217.6z M275.2,254c0.7-0.4,1.4-0.7,1.8-1.2c0.6-0.7,0-2.1-0.8-1.9c-1,0.2-1.8,1.1-2.7,1.7
			c-0.1,0,0,0.5,0.2,0.5C274.2,253.4,274.6,253.7,275.2,254z M373.2,331.9c0-0.2,0.1-0.5,0.1-0.7c-0.6,0-1.2,0-1.9-0.1
			c-0.8-0.1-1.5-0.1-1.1-1.2c0.2-0.6-0.1-0.8-0.6-0.7c-1,0.1-2,0.3-3.1,0.5c0.8,0.5,2.1,0.5,2.3,0.9
			C369.9,332.9,371.7,331.5,373.2,331.9z M334,256.9c0.7,0.2,1.5,0.4,2.3,0.6c0.2,0,0.6-0.1,0.7-0.3c0.1-0.2,0-0.6-0.1-0.7
			c-0.8-1-3-1.4-4.1-0.7c-0.4,0.3-0.5,0.8-0.8,1.3c0.4,0,0.9,0.1,1.3,0.1C333.6,257.1,333.8,257,334,256.9z M321.5,251.8
			c-4.6,0.4-8.7,1.5-13,3.7C313.1,254.3,317.2,253.1,321.5,251.8z M343.7,181.9c0.7,1.3,1.6,2.5,2.9,3.5c1.2,0.9,2.2,2,3.4,3.2
			C349,186,348.1,185.1,343.7,181.9z M369.1,296c-0.4-0.9-0.8-1.6-1.2-2.3c-0.3,0.7-0.8,1.3-1,2c-0.3,1.1,0.5,2.6,0.8,2.4
			C368.3,297.6,368.6,296.8,369.1,296z M247.2,205.8c-0.3,1.5-0.6,2.6-0.8,3.6c1.5,0,3,0,4.5,0c1.4,0,2.9,0,4.3,0
			c-0.6-0.2-1.2-0.3-1.8-0.4c-1.2-0.1-2.4-0.1-3.6-0.2c-2-0.2-2-0.2-2.4-2.2C247.3,206.4,247.3,206.2,247.2,205.8z M251.4,190.6
			c-2.9,0.5-7.9,3.3-9.4,5.4C245.1,194.2,248.3,192.3,251.4,190.6z M375,286.3c0-0.5,0.1-0.8,0-1c-0.2-0.4-0.4-0.7-0.6-1
			c-0.2,0.4-0.4,0.7-0.4,1.1c-0.1,1,0.1,2.1-0.5,3c-0.2,0.3-0.1,0.7-0.1,1.1c0,0.2,0.3,0.4,0.5,0.6c0.2-0.2,0.5-0.3,0.6-0.5
			C374.6,288.4,374.8,287.2,375,286.3z M257.3,175.3c-0.1-0.1-0.3-0.3-0.4-0.4c-1.4,1.5-3,2.9-4.3,4.5c-1.1,1.4-1,1.8,0.4,3.2
			c-0.9-1.7-0.9-2,0.4-3.5C254.7,177.8,256,176.6,257.3,175.3z M366.5,382.1c1.9-1.1,3.2-2.7,4.3-5.1
			C368.6,378.5,367.1,379.9,366.5,382.1z M224.2,202.3c0-2.3,0-4.3,0-6.4C223.1,198,222.8,200,224.2,202.3z M230.7,207.6
			c0.1,0,0.3,0,0.4-0.1c-0.5-3.3-1.1-6.7-1.6-10c-0.2,0-0.4,0.1-0.5,0.1C229.5,201,230.1,204.3,230.7,207.6z M189.7,337.7
			c-0.2,0.2-0.5,0.4-0.6,0.6c-0.3,0.8,0.9,3,1.7,3.2c0.1,0,0.5-0.4,0.5-0.5c-0.2-1-0.5-1.9-0.9-2.9C190.3,338,190,337.9,189.7,337.7
			z M347,336.3c-0.4,0.2-0.7,0.3-0.7,0.4c0.1,1,0.1,1.9,0.3,2.9c0,0.1,0.7,0.2,0.7,0.2c0.3-0.6,0.7-1.3,0.7-1.9
			C347.9,337.3,347.4,336.8,347,336.3z M369.9,288.7c-0.6,1.6,0.4,2.6,0.9,3.7c0.1,0.3,0.5,0.4,0.7,0.6c0.1-0.3,0.3-0.6,0.3-1
			C372,290.6,371.1,289.7,369.9,288.7z M186.9,335.2c0.1,0.2,0.3,0.7,0.6,1c0.2,0.2,0.9,0.2,1,0.1c0.2-0.4,0.2-0.9,0.3-1.3
			c0-0.2-0.1-0.4-0.2-0.6c-0.2-0.5-0.4-1-0.7-1.6c-0.3,0.5-0.6,1-0.8,1.5C187,334.5,187,334.7,186.9,335.2z M206.4,269.9
			c-2.3,2.1-3.4,4.8-4.1,7.7C203.6,275,205,272.4,206.4,269.9z M350.4,261.3c1.7,3.5,3.3,4.5,7,1.8
			C354.5,264.8,352.2,264.1,350.4,261.3z M382.8,289.7c-0.4-0.3-0.8-0.9-1.3-1c-0.6-0.1-1.5,2.6-1.1,3.2c0.1,0.2,0.6,0.3,0.7,0.2
			C381.7,291.4,382.2,290.7,382.8,289.7z M222.1,265.9c-0.1-0.1-0.1-0.3-0.2-0.4c-0.9-0.1-1.8-0.2-2.7-0.2c-0.1,0-0.4,0.6-0.3,0.9
			c0.1,0.3,0.5,0.6,0.7,0.6c0.8-0.1,1.5-0.4,2.2-0.6C222,266.3,222,266.1,222.1,265.9z M351.8,329.7c0-0.1,0.1-0.3,0.1-0.4
			c-0.8-0.4-2-0.3-1.7-1.7c0-0.1-0.3-0.2-0.3-0.2c-0.4,0.3-1,0.6-1.2,1c-0.1,0.2,0.3,1,0.6,1.1C350.1,329.7,350.9,329.6,351.8,329.7
			z M164.4,305c0.6-0.3,1.3-0.8,2-1c0.7-0.2,1.6-0.2,2.3-0.4c0.7-0.1,1.5-0.3,2.2-0.4C166.4,303,165.2,303.3,164.4,305z
			 M323.3,261.3c-0.2,0.2-0.6,0.5-0.6,0.6c0.2,1.1,1.2,1.3,2,1.6c0.3,0.1,0.7-0.2,1.1-0.4c-0.4-0.4-0.8-0.9-1.2-1.3
			C324.3,261.6,323.8,261.5,323.3,261.3z M305.1,257.6c-1,0.4-2.1,1.1-3.2,1.1c-1.1,0-2.2-0.7-3.8-1.2
			C301.3,259.9,303.1,259.8,305.1,257.6z M227.5,198.5c0.2-2.3,0.5-4.3,0.7-6.3C227.6,194.2,226.2,196.1,227.5,198.5z M296.1,256.4
			c-0.3-0.2-0.4-0.5-0.6-0.4c-0.7,0.1-1.5,0.3-2.2,0.5c-0.1,0-0.2,0.5-0.2,0.5c0.6,0.2,1.3,0.6,1.9,0.6
			C295.4,257.5,295.7,256.8,296.1,256.4z M327.3,336.1c0.1,0.2,0.1,0.5,0.2,0.7c0.9-0.1,1.8-0.2,2.6-0.4c0.2-0.1,0.3-0.5,0.5-0.8
			c-0.3-0.1-0.6-0.5-0.9-0.4C328.8,335.5,328.1,335.8,327.3,336.1z M360.8,196.2c-0.1-0.2-0.3-0.9-0.6-1.5c-0.2,0.7-0.5,1.4-0.7,2.1
			c-0.1,0.2,0.1,0.6,0.3,0.8c0.1,0.1,0.4,0.3,0.5,0.3c0.1,0,0.3-0.2,0.4-0.4C360.7,197.2,360.7,196.9,360.8,196.2z M346.5,395.7
			c0,0.1,0,0.2,0,0.3c2.2-0.2,4.5-0.4,6.7-0.6c0-0.1,0-0.2,0-0.2C351,395.3,348.8,395.5,346.5,395.7z M386,291
			c0.4,0.6,0.8,1,1.1,1.5c0.3-0.3,0.8-0.6,0.7-0.8c-0.2-0.6-0.6-1-0.9-1.5C386.7,290.3,386.4,290.6,386,291z M332.4,333.8
			c0.7-0.6,1.3-1.1,1.9-1.6c-0.2-0.2-0.4-0.6-0.5-0.5c-0.7,0.4-1.5,0.9-2.2,1.4C331.8,333.3,332,333.5,332.4,333.8z M219.8,199.4
			c-0.1,0-0.2,0-0.3,0.1c0,1.2,0,2.4,0,3.7c0.1,0,0.2,0,0.3,0C219.8,201.9,219.8,200.7,219.8,199.4z M246.2,262
			c1-0.7,1.8-1.2,1.5-2.4c0-0.1-0.4-0.3-0.5-0.2C246.1,259.8,246.1,260.8,246.2,262z M291.2,261.6c0.4-0.6,0.7-1.1,1-1.5
			c-0.4-0.2-0.8-0.7-1.1-0.6c-0.3,0.1-0.6,0.7-0.7,1.1C290.3,260.8,290.8,261.1,291.2,261.6z M192.4,334.7c-0.4-0.6-0.8-1-1.1-1.5
			c-0.2,0.3-0.6,0.7-0.5,1c0.1,0.5,0.4,0.9,0.7,1.4C191.7,335.3,191.9,335.1,192.4,334.7z M333.2,91.4c-0.1,0-0.2,0-0.4,0
			c-0.2,1.5-0.4,3-0.6,4.6c0,0.2,0,0.4,0.1,0.6c0.1,0,0.2,0,0.3,0C332.8,94.9,333,93.2,333.2,91.4z M265.9,179.7
			c2.2-1.9,2.4-2.5,1.7-3.8C267.2,177,266.6,178.3,265.9,179.7z M246,202.4c-1.5-0.4-3-1.1-5-0.4C242.9,202.2,244.4,202.3,246,202.4
			z M261.9,177.5c-1.3,0.3-2.2,0.6-2.6,1.6c0,0.1,0.2,0.4,0.3,0.4C260.7,179.4,261.2,178.6,261.9,177.5z M391.2,286.5
			c-0.5,0.4-0.8,0.7-0.8,0.7c0.3,0.6,0.7,1.1,1.1,1.6c0.1,0.1,0.4,0,0.5,0c0,0,0.1-0.1,0.1-0.2C391.9,288,391.6,287.4,391.2,286.5z
			 M289.1,254.5c-0.6-0.4-1-0.8-1.2-0.7c-0.3,0.1-0.7,0.6-0.7,0.9c0,0.3,0.6,0.8,0.7,0.8C288.4,255.4,288.6,255,289.1,254.5z
			 M305.8,274c-0.1,0-0.2,0.1-0.3,0.1c0,0.6-0.1,1.3,0,1.9c0,0.3,0.4,0.5,0.7,0.7c0.1-0.3,0.4-0.6,0.4-0.8
			C306.4,275.2,306,274.7,305.8,274z M348.2,268c-0.4-0.2-0.7-0.4-0.8-0.3c-0.5,0.4-0.9,0.8-1.3,1.2c0,0,0.3,0.4,0.5,0.6
			C347,269.1,347.5,268.7,348.2,268z M327.6,259c-0.5,0.5-0.9,1-1.3,1.4c0.1,0.1,0.4,0.4,0.4,0.4c0.5-0.3,0.9-0.7,1.3-1
			C328,259.7,327.8,259.5,327.6,259z M234.1,366c0.1-0.3,0.1-0.5,0.2-0.8c-0.7-0.1-1.4-0.1-2.1-0.2c0,0.1,0,0.3,0,0.4
			C232.8,365.6,233.4,365.8,234.1,366z M357.8,275.9c-0.5-0.4-0.9-0.8-1.3-1.1c-0.1,0.1-0.4,0.4-0.4,0.4c0.4,0.5,0.8,0.9,1.2,1.3
			C357.4,276.4,357.5,276.2,357.8,275.9z M294.6,272.8c-0.6-0.2-1-0.4-1.1-0.4c-0.4,0.3-0.7,0.8-1.1,1.2c0.2,0.1,0.4,0.3,0.5,0.2
			C293.5,273.6,293.9,273.3,294.6,272.8z M221.4,360.6c-0.2,0-0.3,0.1-0.5,0.1c-0.1,0.9,0,1.7,1.4,2.2
			C222,362,221.7,361.3,221.4,360.6z M357,219.1c0.4-0.4,0.8-0.7,1-1.1c0-0.1-0.4-0.6-0.5-0.6c-0.4,0.2-0.8,0.5-1.1,0.9
			C356.4,218.4,356.7,218.7,357,219.1z M232.9,262.6c0.2-0.5,0.4-0.8,0.3-1c-0.2-0.3-0.5-0.6-0.7-0.9c-0.1,0.3-0.5,0.6-0.4,0.8
			C232.1,261.8,232.5,262.1,232.9,262.6z M322.5,400.6c0,0,0-0.1,0-0.1c-1.2,0-2.4,0-3.6,0c0,0,0,0.1,0,0.1
			C320.1,400.6,321.3,400.6,322.5,400.6z"/>
		<path class="st0" d="M246.6,122.8c-1,1.5-2.1,2.9-2.9,4.5c-0.9,1.6-1.5,3.4-2.5,5c-0.2-2.1,1.2-3.7,1.8-5.5c0.7-1.8,1.6-3.5,2.4-5.3
			c0.9-1.8,1.7-3.6,2.3-5.5c-1.3,2.3-2.6,4.6-3.9,6.9c-0.2-0.1-0.3-0.1-0.5-0.2c0.6-2,1.2-3.9,1.9-5.9c1.5-4.1,3.5-7.9,5.7-11.6
			c0.6-0.9,0.7-2.1,1.1-3.2c0.2-0.5,0.4-1.1,0.7-1.5c0.8-1.3,1.6-2.5,2.6-4.1c-0.6,0.3-0.9,0.4-1.1,0.6c0-0.2-0.2-0.4-0.1-0.5
			c1.5-2.3,2.3-5.1,4.5-7c0.9-0.8,1-0.9,1.3,0.2c1.3,4.6,3.2,9,2.9,13.9c0.5-1.9,0.6-4.2,0.1-6.4c-0.5-2.1-1-4.2-1.6-6.3
			c-1.3-4.7-2.4-9.3-0.7-14.2c-0.1,0.2-0.4,0.5-0.4,0.7c-0.6,2.9-2.9,2.8-5,2.9c-2.3,0.1-3.6-1.3-4.3-3.3c-0.3-0.9-0.5-1.9-0.5-2.9
			c0.8,1.2,1.6,2.4,2.4,3.5c-2.3-4.6-3-8-1.5-10.8c0.3,1.4,0.5,2.6,0.7,3.7c0.5,2.4,1.5,3.2,3.9,2.9c2-0.2,4-0.4,6-0.8
			c1.1-0.2,1.4,0.3,1.8,1.1c1.6,2.9,3,6,5.1,8.5c3.6,4.4,7.1,8.9,12,12c2.3,1.4,4.3,3.1,6.5,4.7c2.7,2.1,5,4.6,7,7.4
			c0.1,0.2,0.3,0.4,0.3,0.6c0.2,1,0.4,1.9,0.7,2.9c-0.9,0-1.8,0.1-2.7,0.1c-4-0.1-7.9-0.5-11.8,0.7c-4.5,1.3-8,4.2-11.4,7.2
			c-1.4,1.2-1.3,1.2-2.8,0c-0.5-0.4-1-0.8-1.5-1.2c0,0,0-0.1-0.1-0.2c1.7-0.4,3.2-1.7,5.1-1c-0.1-0.3-0.1-0.4-0.1-0.4
			c-0.5-0.2-1-0.4-1.5-0.7c0.5-0.2,1.1-0.5,1.6-0.7c0.3-0.1,0.7-0.1,1.1-0.4c-1.7-0.2-3.4-0.4-5.1-0.5c0-0.1-0.1-0.2-0.1-0.2
			c1-0.3,2-0.5,3.1-0.8c0-0.1,0-0.1,0-0.2c-1.2,0.2-2.5,0.2-3.6,0.6c-3,1.1-6,2.2-8.8,3.5c-2.1,1-3.7,2.7-4.7,4.9
			c-1.2,2.4-2.6,4.6-3.7,7c-1.8,4-3.6,8-5.3,12.1c-1.6,3.7-2.5,7.5-3.1,11.6c-0.2-0.5-0.4-1-0.5-1.6c-0.4-2.5-0.1-4.9,0.5-7.3
			c2-7.6,5.2-14.8,9.5-21.4c0.2-0.3,0.3-0.7,0.4-1.1c-0.3,0-0.6,0-0.9,0.1c0.2-0.5,0.4-1.1,0.6-1.5c1.1-1.7,2.2-3.4,3.6-5.6
			c-0.6,0.4-0.8,0.4-0.9,0.6c-1.8,2.6-3.7,5.1-5.4,7.7C246.8,121.6,246.8,122.2,246.6,122.8z M265.9,83.5c0-0.9,0-1.8,0-2.7
			c-0.1,0-0.3,0-0.4-0.1c-0.2,0.9-0.3,1.9-0.4,2.8c0,0.2,0.2,0.4,0.3,0.6C265.6,83.9,265.8,83.7,265.9,83.5c0.1,0.7,0.2,1.4,0.3,2.1
			c0.2,0,0.4,0,0.5,0c0.1-1.2,0.3-2.4,0.4-3.5c-0.1,0-0.3-0.1-0.4-0.1C266.6,82.5,266.2,83,265.9,83.5z M272.5,91.8
			c-0.1,0-0.2-0.1-0.3-0.1c0-0.6,0-1.1,0-1.7c-0.1,0-0.3-0.1-0.4-0.1c-0.5,1.1-1.2,2.2-1.5,3.3c-1.5,5.4-3.3,10.6-6.4,15.2
			c0,0,0.1,0.2,0.4,0.6c1.3-1.5,2.7-2.9,3.8-4.4c2.1-2.8,4.4-5.5,7.1-7.8c0.7-0.6,1.2-1.4,1.8-2.2c0.2-0.3,0.5-0.8-0.3-0.9
			c-0.2,0-0.4-0.5-0.4-0.8c-0.2-1.1-0.6-1-1.2-0.3c-0.4,0.5-0.6,0.2-1.1,0c-1-0.5-0.6-1.3-0.9-2C272.9,91.1,272.7,91.4,272.5,91.8z
			 M280.2,101.2c-0.1,0.1-0.1,0.3-0.2,0.4c2.3,1.1,3.9,2.9,5.3,5c0.4,0.6,1,1,1.5,1.5c0.1-0.6,0.3-1.3,0.5-2.3
			c0.5,1,0.8,1.8,1.1,2.6c0.1,0.1,0.6,0.2,0.7,0.1c0.3-0.6,0.6-0.3,1-0.2c0.9,0.2,1.4-0.4,1.2-1.3c-0.4-1.4-0.9-2.7-1.5-4
			c-0.2-0.5-0.6-0.9-1.4-0.6c-1.3,0.5-2.5,0-3.4-1.1c-0.4-0.5-1-0.8-1.6-1.1c-0.3-0.1-0.7-0.1-1-0.2c0.1,0.3,0.1,0.7,0.2,0.9
			c0.2,0.4,0.6,0.8,1.1,1.5C282.3,102,281.3,101.6,280.2,101.2z M267.2,93c0.7-2.4,1.4-4.8,1.2-7.3C267.3,88,266.8,90.4,267.2,93z
			 M281.4,106.8c-0.2,0.2-0.3,0.5-0.5,0.7c0.9,0.6,1.8,1.1,2.6,1.7c0.1-0.2,0.2-0.4,0.4-0.5C283,108,282.2,107.4,281.4,106.8z"/>
		<path class="st0" d="M296.2,121.6c-0.7-0.8-1.5-1.7-2.2-2.6c2.2,0.4,3.6,1.9,5.3,3.1c-1.2-1.2-2.6-2.2-3.6-3.6c-2.4-3-5.7-3.9-9.2-4.4
			c-3.5-0.5-6.7,0.3-9.4,2.5c-3,2.4-5.6,5.2-8.3,7.8c-0.9,0.8-1.6,1.8-3.2,2.4c4.1-4.9,7.9-9.4,13.1-12.4c1.1-0.6,2.4-1.2,3.6-1.4
			c4.4-0.5,8.7-0.2,12.6,2c2.1,1.2,3.8,3,5.8,4.6c0-2.9,0-5.9,0-8.9c1.5,1.3,1.2,3,1.5,4.5c0.3,1.5,0.3,3.1,0.5,4.6
			c0.5-5.2,0.2-10.4-1.9-15.7c1.4,1.2,1.5,1.6,2.3,5.2c0.4,1.7,0.7,3.5,1.2,5.2c0.3-4.7-0.7-9-2.9-13.2c0.8,0.5,1.2,1.4,1.7,2.2
			c0.5,0.8,0.9,1.6,1.5,2.4c-0.5-3-1.1-5.8-3.2-8.3c-1.4-1.7-2.3-4-4.1-5.5c-4.7-4-9.5-7.9-14.3-11.9c-0.7-0.6-0.6,0-0.5,0.4
			c-0.4-0.2-0.9-0.3-1.2-0.5c-3.3-2.8-5.9-6.1-8.3-9.6c-2.2-3.2-4.5-6.4-6.8-9.6c1.3,4.3,3,8.4,5.5,12.1c0.5,0.8,1.1,1.5,1.7,2.3
			c2,2.8,4.2,5.3,7.1,7.2c2.4,1.6,4.8,3.2,7.2,4.8c0.6,0.4,1.2,1,1.8,1.6c3.9,4.3,7,9.1,9.4,14.4c0.3,0.7,0.4,1.5,0.2,2.3
			c-0.4-0.6-0.8-1.3-1.2-1.9c-0.1,0-0.2,0-0.2,0.1c0.1,0.7,0.2,1.5,0.3,2.5c-0.9-2-1.7-4-2.7-5.7c-1.1-1.9-2.3-3.7-3.5-5.4
			c-1.2-1.7-2.6-3.4-4.2-5c0.8,2,1.6,4,2.4,5.9c-0.1,0.1-0.3,0.1-0.4,0.2c-1.3-1.8-2.6-3.5-3.9-5.3c-0.9-1.2-1.6-2.4-2.6-3.5
			c-0.4-0.5-0.7-2.1-1.9-0.8c0,0-0.5-0.4-0.8-0.6c-2.6-3.1-5.1-6.2-7.7-9.3c-3.1-3.6-5.2-7.8-6.8-12.2c-1.3-3.5-1.7-7.1-1.8-10.8
			c0-0.4,0-0.9,0.1-1.3c0.1-0.5,0.4-0.9,0.6-1.3c0.3,0.3,0.8,0.6,1,1c0.9,1.4,1.7,2.9,2.5,4.3c3.3,5.8,7.8,10.5,13.4,14.1
			c1.4,0.9,3,1.5,3.8,3.1c0.1,0.3,0.6,0.4,0.9,0.5c2.8,1.2,5.7,2.5,8.6,3.6c2.9,1.2,5.5,3,7.7,5.1c4.3,4,8.1,8.4,10.8,13.7
			c0.9,1.7,1.5,3.5,2.3,5.5c-0.4,0-0.6,0-0.6,0c-3-5.4-7.8-9.2-12.5-13c-3.9-3.2-8-6.2-11.9-9.3c-0.3-0.2-0.6-0.3-1-0.2
			c1.5,1.3,3.1,2.5,4.6,3.8c2.9,2.5,5.9,4.9,8.5,7.6c2.6,2.8,5.4,5.8,7,9.3c2.6,5.7,3.9,11.8,0.4,18c-0.2-0.6-0.4-1.1-0.6-1.5
			c-0.5,0.3-1.3,0.5-1.5,1c-1.2,2.2-2.4,4.4-3.4,6.8c-0.6,1.4-0.7,3-1,4.6c-0.6-0.4-1.5-0.7-2.2-1.4c-0.7-0.8-1.2-1.8-1.8-2.7
			c-0.6-0.7-1.3-1.4-1.9-2C297.1,122.4,296.6,122,296.2,121.6z"/>
		<path class="st0" d="M340.9,299.5c-1.8-0.3-3.7-0.4-5.5-0.9c-2.2-0.7-3-2.3-2.4-4.6c0.7-2.8,2.5-5,4.4-7.1c0.9-1,2.3-1.4,3.6-1.1
			c2.3,0.5,4.6,1.1,6.8,2c2.4,1.1,3.5,3.3,3.6,5.9c0,2.2-0.6,3.4-2.8,4.1C346.1,298.6,343.5,299,340.9,299.5z"/>
		<path class="st0" d="M243.6,332.1c-0.3-0.3-0.6-0.6-0.8-0.9c-0.8-1.1-1.7-2.1-3.4-1.9c-0.7,0.1-1.5-0.5-2.2-0.8c-0.8-0.5-1.4-0.1-1.4,0.6
			c-0.1,1.5-0.4,2.9,0.3,4.6c0.9,2,1.1,4.5,1.3,6.7c0.3,3.4,0.6,6.7-0.5,10.1c-0.6,1.9,1,4.4,2.9,5.1c0.4,0.1,1.1,0,1.3-0.3
			c1.2-1.8,2.2-3.7,3.3-5.5c0.2-0.3-0.8-1,0.2-1.1c0.5-0.1,1.2,0,1.7,0.2c0.8,0.4,1,1.2,0.3,1.8c-1.7,1.3-2.4,3.2-3.3,5
			c-0.8,1.6-1.9,1.9-3.6,1.4c-2.4-0.8-4.3-2.4-6-4.1c-1-1-0.7-2.2-0.4-3.4c0.5-1.8,0.9-3.6,1.2-5.4c0.5-3.1,0.2-6.1-1.4-9
			c-1.6-2.9-0.5-5.6,0.8-8.2c0.2-0.4,1.2-0.6,1.9-0.6c0.7,0,1.3,0.5,2,0.7c0.7,0.2,1.4,0.6,2,0.5c1.8-0.1,2.8,0.8,3.4,2.4
			c0.2,0.7,0.4,1.4,0.6,2.1C243.8,332,243.7,332.1,243.6,332.1z"/>
		<path class="st0" d="M198.8,455.7c0.4,0.5,0.9,0.9,1.3,1.4c3.4,4.5,6.8,9.2,10.3,13.6c5.2,6.6,10.4,13.1,15.8,19.4
			c5.4,6.3,11.2,12.4,16.9,18.6c0.5,0.5,0.8,1.4,1.9,1c0.3-0.1,0.8,0.7,1.2,1.1c1.7,2.2,3.5,4.4,5.1,6.7c4,5.3,8.7,10,13.8,14.2
			c0.5,0.4,0.8,1,1.2,1.4c-1.3-0.9-2.6-1.8-3.8-2.7c-2-1.6-3.9-3.2-5.8-4.9c-0.4-0.4-0.9-0.8-1.3-1.2c-7.3-8-14.6-15.9-21.8-23.9
			c-2.4-2.7-4.8-5.4-7-8.2c-6.7-8.2-14.1-15.8-20.1-24.5c-2.3-3.2-4.5-6.5-6.7-9.8C199.4,457.3,199.2,456.5,198.8,455.7z"/>
		<path class="st0" d="M244.5,72.8c0.8,1.4,1.5,2.8,2.3,4.1c0.9,1.5,2.2,2.5,3.9,2.9c0.3,0.1,0.6,0.1,0.8,0.2c2,1.4,4.1,1.1,6.2,0.6
			c1.5-0.3,1.5-0.3,1.5,1.3c0,1.6,0.2,3.2,0.3,4.7c0.1,1.5,0,1.7-1.4,1.8c-7.8,0.7-12.2-2.4-13.7-9.9
			C243.6,75.3,243.8,74.7,244.5,72.8z M247.3,80.4c1.2,2.3,2.9,3.2,5.3,4C250.7,83,249.2,81.8,247.3,80.4z M246.5,82.5
			c1.5,2.5,2.3,3.1,4.5,3.6C249.7,85,248.2,83.9,246.5,82.5z"/>
		<path class="st0" d="M229.1,342c0.4,1.9,1,3.7,1.3,5.6c0.3,1.9-0.4,2.7-2.3,2.9c-3.7,0.5-6.3-1.7-6.3-5.5c0-2,0-4,0.1-6c0-2.1-0.2-4.2-1.3-6
			c-0.9-1.6-0.8-3.3-0.4-5.1c0.4-1.9,1.6-2.5,3.4-1.7c1.2,0.5,2.3,1.6,3.8,1c0.1-0.1,0.6,0.2,0.6,0.4c0,0.3,0,0.7-0.2,0.9
			c-1.2,1.3-2.2,1.4-3.9,0.5c-0.4-0.2-0.9-0.2-1.3-0.3c0,0.5-0.1,1,0.1,1.4c1.5,4.1,2.1,8.3,1.9,12.7c-0.1,1.5,0.2,3,0.6,4.4
			c0.4,1.4,1.5,1.9,3,1.5c1.4-0.3,0.9-1.4,0.9-2.3c-0.1-1.5-0.3-2.9-0.5-4.4C228.6,342.1,228.8,342.1,229.1,342z"/>
		<path class="st0" d="M260.4,348.2c-0.2,1.1-0.3,2.3-0.6,3.3c-0.5,1.4-5.5,3.2-6.9,2.6c-0.3-0.1-0.6-0.4-0.8-0.7c-1.3-1.9-2.6-3.8-3.7-5.8
			c-0.4-0.7-0.5-1.7-0.2-2.5c0.6-2.1,0.2-4.1-0.3-6.2c-0.3-1.5-0.5-3-0.5-4.5c0-1.4,0.5-1.6,2-1.7c0.8,0,1.5-0.4,2.3-0.4
			c0.6,0,1.4,0.2,1.6,0.6c0.5,0.7-0.2,1.1-0.7,1.5c-1.7,1.2-2.1,1.9-1.2,3.8c1,2.2,0.7,4.4,0.1,6.6c-0.3,1.3-0.1,2.4,0.6,3.5
			c0.5,0.8,0.8,1.7,1.1,2.5c0.4,1.2,0.9,1.6,2.1,1.3c1.5-0.4,3.1-0.8,3.7-2.6c0.2-0.6,0.6-1.1,0.9-1.6
			C260,348.1,260.2,348.1,260.4,348.2z"/>
		<path class="st0" d="M248.5,165.9c-0.3-0.1-0.6-0.2-0.8-0.3c-6-4.5-8.9-11.5-5.8-18.9c1.4-3.3,2.4-6.8,3.6-10.2c0.5-1.5,1.1-2.9,2.1-4.3
			c-0.2,0.7-0.3,1.3-0.5,2c-1,5.5-2.1,11-2.8,16.6c-0.7,5.4,0.6,10.3,4.1,14.6C248.5,165.5,248.4,165.7,248.5,165.9z"/>
		<path class="st0" d="M339.3,315.1c2.7-0.4,5.2,0.6,7.7,1.2c0.5,0.1,1,0.3,1.4,0.5c0.6,0.3,0.6,0.8,0,1.1c-0.6,0.3-1.2,0.6-1.8,0.6
			c-4.3,0.5-8.4,1.9-12.4,3.4c-1.1,0.4-2.2,0.7-3.3,0.9c-0.4,0.1-1.1-0.2-1.3-0.5c-0.2-0.3,0-1.1,0.3-1.3c1.6-1.3,3.3-2.6,4.9-3.8
			c0.8-0.6,1.7-1.1,2.6-1.6C337.9,315.3,338.6,315.3,339.3,315.1z"/>
		<path class="st0" d="M300.4,40.5c0.3,3.3,0.7,6.6,1,9.8c0,0.4,0,0.9,0.1,1.3c0.2,0.7,1,0.9,1.5,0.2c0.5-0.8,0.9-1.6,1.6-2.7
			c0.6,1.2,0.3,2.2,0.3,3.1c-0.1,1.2-0.2,2.5-0.4,3.7c-1-0.7-2-1.3-2.9-2.1c-1.8-1.6-3.4-3.3-5.1-4.9c-0.7-0.7-0.8-1.3-0.1-2
			c1.8-1.8,3-4,3.6-6.5C300.1,40.4,300.2,40.5,300.4,40.5z"/>
		<path class="st0" d="M218.7,335.4c0.9,2.1,1.9,4.1-0.2,6.2c-0.2,0.2-0.4,0.6-0.5,0.9c-0.1,0.7-0.6,1.3-1.3,1.1c-0.7-0.2-1.5-0.6-1.8-1.2
			c-0.4-0.7-0.5-1.6-0.7-2.5c-0.3-1.2-0.6-2.5-0.9-3.7c0-0.2-0.2-0.4-0.2-0.6c-0.4-1.5-0.2-2.7,0.6-3.2c0.8-0.5,2.7-0.2,3.6,0.6
			c0.9,0.7,0.8,1.7-0.3,1.9c-1.4,0.2-1.1,0.9-0.8,1.8c0.3,0.9,0.3,2,0.5,2.9c0.1,0.5,0.4,1.2,0.7,1.3c0.6,0.2,1.4-0.7,1.3-1.6
			c-0.1-0.8-0.4-1.5-0.5-2.3c-0.1-0.5,0-1.1,0-1.7C218.4,335.4,218.5,335.4,218.7,335.4z"/>
		<path class="st0" d="M415.3,351.3c0.4-4.5,0.8-9,1.3-13.5c0.4-3.9,0.9-7.9,1.3-11.8c0.1-0.9,0.3-1.8,0.5-2.8c0-0.2,0.3-0.4,0.4-0.4
			c0.1,0,0.4,0.2,0.4,0.4c0.1,0.6,0.1,1.3,0.1,1.9c-0.3,3.2-0.6,6.3-0.9,9.5c-0.5,4.8-1.1,9.6-1.7,14.4c-0.1,0.8-0.4,1.6-0.6,2.4
			C415.8,351.3,415.5,351.3,415.3,351.3z"/>
		<path class="st0" d="M268.2,137.9c1.6-5.4,10.5-9.2,16.8-7.3c-1.8,0.2-3.3,0.3-4.8,0.5c0,0.1,0,0.2,0,0.3c1.1,0.2,2.1,0.4,3.2,0.6
			c0,0.1,0,0.2,0,0.3c-0.8,0.1-1.6,0.2-2.6,0.4c1.4,0.7,2.6,1.3,3.8,1.8c0,0.1-0.1,0.2-0.1,0.3c-0.3,0-0.6-0.1-0.9-0.1
			c-2-0.4-4-1-6-1.3c-2.8-0.3-5.3,0.4-7.3,2.5C269.7,136.5,269.1,137.1,268.2,137.9z"/>
		<path class="st0" d="M303.1,342.9c0-2.1,1.9-4.9,3.2-5.4c1.4-0.5,2.2-0.1,1.8,1.4c-0.6,2.6-1.1,5.2-1.7,7.7c-0.1,0.4-0.4,0.7-0.7,0.9
			c-0.1,0.1-0.6-0.2-0.7-0.4C304.3,345.6,303.6,344,303.1,342.9z"/>
		<path class="st0" d="M266.4,533.2c0.4,0.2,0.9,0.4,1.3,0.7c5.5,3.9,11.1,7.7,16.6,11.6c2.6,1.8,5.2,2,7.9,0.4c2.7-1.6,5.4-3.1,8-4.6
			c-0.7,0.8-1.4,1.6-2.3,2.2c-1.7,1.2-3.5,2.3-5.3,3.3c-2.2,1.2-4.3,1.6-6.8,0.5c-2.6-1.1-4.8-2.9-7.1-4.5c-3.7-2.6-7.3-5.4-11-8.1
			C267.2,534.3,266.8,533.7,266.4,533.2z"/>
		<path class="st0" d="M311,342.1c1.1,0.5,2.3,1,3.3,1.6c0.2,0.1,0.3,1,0.2,1.3c-0.8,1.5-1,3-0.8,4.6c0,0.4,0,0.9-0.1,1.3
			c-0.2,0.7-0.9,1-1.3,0.4c-0.7-1-1.3-2-1.7-3.2c-0.5-1.3-0.6-2.6-0.9-4C309.4,343.1,310,342,311,342.1z"/>
		<path class="st0" d="M229.2,356.1c-1.6,2-1.7,2-3.3,1.6c-1.5-0.4-2.6-1.3-3.8-2.4c-0.7-0.7-1.7-1.2-2.6-1.8c-0.4-0.3-1-0.4-1.3-0.7
			c-2-2-3.6-4.2-4.9-6.8c1.6,0.6,2.8,1.7,3.7,2.9c1.7,2.2,4,3.7,6.3,5.2C225.1,355.2,226.7,356.4,229.2,356.1z"/>
		<path class="st0" d="M314.3,372.2c0.8,0.3,1.5,0.5,2.2,0.9c0.3,0.1,0.4,0.5,0.6,0.8c-0.3,0.2-0.5,0.4-0.8,0.5c-0.8,0.2-1.5,0.2-2.3,0.4
			c-0.7,0.1-0.9,0.5-0.7,1.2c0.3,1,0.3,2.1,0.3,3.2c0,0.2-0.3,0.4-0.4,0.7c-0.2-0.2-0.5-0.3-0.6-0.5c-0.4-1.3-0.7-2.7-1.1-4.1
			c-0.1-0.2,0.1-0.6,0.3-0.8c0.9-1.6,0.9-3.2,0.6-5c-0.1-0.4-0.1-0.9,0-1.2c0.2-0.8,1-0.9,1.4-0.2
			C314.8,369.4,315.2,370.8,314.3,372.2z"/>
		<path class="st0" d="M296.2,121.6c0.4,0.4,0.9,0.9,1.3,1.3c0.7,1.1,1.4,2.3,2.1,3.4c-5.4-5.5-11.7-8.7-19.6-8c1.9-1,3.9-1.2,6-1
			c3.3,0.3,6.2,1.7,9,3.5C295.3,121.1,295.8,121.3,296.2,121.6z"/>
		<path class="st0" d="M238.1,360.2c-1.2-0.2-2.5-0.5-3.7-0.7c-0.9-0.1-1.8-0.1-2.8-0.2c-0.4-0.1-0.7-0.4-1-0.7c0.3-0.4,0.5-1,0.8-1.1
			c1.4-0.4,2.8-0.7,4.2-1c0.3-0.1,0.6,0,0.8,0.1c1.2,0.6,2.5,1.1,3.6,1.8c0.3,0.2,0.4,0.8,0.6,1.2c-0.4,0.2-0.7,0.4-1.1,0.5
			c-0.5,0.1-1-0.1-1.5-0.1C238.1,360.1,238.1,360.1,238.1,360.2z"/>
		<path class="st0" d="M270.4,58.1c0.7,0.4,1.4,0.9,2.1,1.3c0.7,0.4,1.4,0.9,2.1,1c1.6,0.2,2.3,1,2.8,2.4c0.6,1.7,1.7,3.2,2.4,5
			c-4-2.4-6.7-6-9.8-9.3C270.2,58.4,270.3,58.3,270.4,58.1z"/>
		<path class="st0" d="M294.4,126.5c-1.5-0.6-2.9-1.2-4.4-1.7c-4.2-1.3-8.3-0.4-12.3,1.1c-2.4,0.8-4.8,1.6-7.2,2.4c-0.9,0.3-1.9,0.3-3,0.1
			c5.1-1.7,10.2-3.6,15.5-4.9c4.2-1,8.1,0.3,11.7,2.7C294.5,126.3,294.5,126.4,294.4,126.5z"/>
		<path class="st0" d="M215,323.4c4.3-1.6,8.6-1.7,13-0.9c-0.6,0.9-1.4,0.8-2.1,0.9c-1.5,0.2-3-0.1-4.3,1c-0.4,0.3-1.3,0.2-1.9,0.1
			C218.1,324.2,216.5,323.8,215,323.4z"/>
		<path class="st0" d="M330.4,369.1c-0.6-0.3-1.7-0.7-2.7-1.2c-0.6-0.3-0.8-0.9-0.6-1.7c0.6-1.9,1.2-2,2.8-0.8c1.2,0.8,2.5,1.4,3.7,2.1
			c0.3,0.2,0.5,0.5,0.7,0.7c-0.3,0.2-0.6,0.4-0.9,0.5C332.6,368.9,331.7,368.9,330.4,369.1z"/>
		<path class="st0" d="M387.1,480.4c0.1,0.6,0.2,1.3,0.3,1.9c-0.1,0.1-0.2,0.1-0.3,0.2c-0.7-1.1-1.4-2.2-2.2-3.4c-1.6,1.5-2.9,3.2-3,5.7
			c0,0.4-0.2,0.8-0.4,1.2c-0.2,0.5-0.6,0.9-0.9,1.3c-0.1-0.6-0.3-1.1-0.4-1.7c0,0,0,0,0,0c0.3-0.4,0.6-0.8,0.8-1.2
			c0.6-1.4,1-3,1.6-4.4c0.6-1.4,1.4-2.6,2.2-3.9c0.2-0.3,0.5-0.6,0.8-0.9c0.1,0.4,0.3,0.7,0.4,1.1
			C386.3,477.7,386.7,479,387.1,480.4L387.1,480.4z"/>
		<path class="st0" d="M240.7,340.1c0.1-0.7,0.1-1.2,0.2-1.5c0.3-0.8,0.6-1.5,1-2.3c0.2,0.8,0.3,1.6,0.5,2.3c0.3,1.3,0.7,2.6,1.1,3.9
			c0.2,0.8,0.7,1.6,0.8,2.4c0.2,0.9-0.3,1.6-1.2,1.8c-1,0.2-1-0.7-1.2-1.4c-0.2-0.9-0.4-1.8-0.6-2.7
			C241.1,341.7,240.9,340.8,240.7,340.1z"/>
		<path class="st0" d="M260.4,342c0,0.2,0,0.4,0,0.5c-0.3,0.6-0.6,1.2-0.9,1.7c-0.3-0.5-0.7-1.1-0.8-1.6c-0.2-0.9,0-1.9-0.2-2.8
			c-0.4-1.6-0.9-3.2-2.2-4.4c-0.2-0.2-0.2-0.6-0.3-0.9c0.3,0,0.7-0.1,1,0c1.6,0.5,2.9,2.2,3,4C260.1,339.6,260.3,340.8,260.4,342z"
			/>
		<path class="st0" d="M264.5,347.3c0.7-0.4,1.5-0.7,2-1.2c1.5-1.4,1.6-1.6,0.7-3.5c-0.2-0.4-0.4-0.8-0.5-1.2c-0.1-0.7-0.1-1.4-0.1-2.1
			c0.4,0.5,0.9,0.9,1.3,1.5c0.6,0.7,1.1,1.5,1.6,2.3c0.7,1.1,0.5,2.1-0.5,2.9c-0.8,0.6-1.6,1.2-2.5,1.7
			C265.7,348.2,265,347.9,264.5,347.3z"/>
		<path class="st0" d="M162.9,455c0.2,1.1,0.3,1.9,0.4,2.7c0,0.1-0.2,0.3-0.3,0.5c-0.2-0.1-0.4-0.2-0.5-0.4c-0.3-0.8-0.7-1.7-1-2.5
			c-0.1-0.4-0.3-0.8-0.4-1.1c0.5,0,1-0.1,1.4,0c2,0.6,3.9,1.3,5.9,2c0.6,0.2,1,0.3,0.6-0.6c-0.1-0.2,0-0.5,0-0.7
			c0.3,0,0.7,0,0.8,0.1c0.4,0.8,0.6,1.7,0.9,2.5c-0.3,0.1-0.8,0.4-1,0.3c-1.1-0.5-2-1.1-3.1-1.5C165.5,455.7,164.3,455.4,162.9,455z
			"/>
		<path class="st0" d="M273.4,354.5c-1.5-0.5-3-1.2-4.7-0.7c-0.8,0.3-1.4-0.3-1.4-1.2c0-0.9,0.8-0.9,1.4-0.9c0.3,0,0.7,0.1,1,0.3
			c0.7,0.6,1.4,0.6,2.2,0.3c0.1-0.1,0.3-0.1,0.4-0.1c0.8,0.1,1.6,0.3,2.4,0.4C274.2,353.3,273.8,353.9,273.4,354.5
			C273.3,354.4,273.4,354.5,273.4,354.5z"/>
		<path class="st0" d="M257,360.6c-1.1-0.5-2.3-0.9-3.3-1.4c-0.6-0.3-0.6-0.9,0.1-1.3c1.3-0.8,3.1-0.6,4.1,0.6c0.3,0.4,0.5,1,0.4,1.4
			C258.2,360.1,257.5,360.3,257,360.6z"/>
		<path class="st0" d="M250.5,358.9c-2.1,1.1-4.4,1.3-6.6,1.2c-0.3,0-0.7-0.4-0.7-0.6c0-0.2,0.3-0.7,0.5-0.8C245.9,358,248.2,358,250.5,358.9z"
			/>
		<path class="st0" d="M337.4,371.2c-0.2,0.3-0.2,0.5-0.3,0.5c-1.1,1-2.1,1.9-3.2,2.8c-0.3,0.2-0.8,0.1-1.2,0.2c0-0.4-0.1-0.9,0.1-1.2
			c0.9-1.3,1.9-2.6,3.6-2.8C336.6,370.7,337,371,337.4,371.2z"/>
		<path class="st0" d="M308.9,362.5c-0.6,0.3-0.9,0.5-1.2,0.6c-1.1,0.6-3.2-0.2-3.7-1.3c-0.1-0.2,0-0.6,0-0.6c0.8-0.2,1.7-0.6,2.4-0.5
			C307.1,361,307.7,361.7,308.9,362.5z"/>
		<path class="st0" d="M274.7,349.7c0.5,0.1,1.3,0.3,2,0.5c0.2,0.1,0.5,0.6,0.4,0.8c0,0.3-0.4,0.7-0.7,0.7c-1,0-2.1-0.1-3.1-0.3
			c-0.3-0.1-0.5-0.7-0.8-1.1c0.4-0.2,0.8-0.5,1.2-0.7C274,349.6,274.2,349.7,274.7,349.7z"/>
		<path class="st0" d="M249.9,321.2c-0.8,0.7-1.5,1.4-2.3,1.8c-0.6,0.4-1.3,0.1-1.6-0.6c-0.1-0.3-0.1-0.7,0-0.9c0.6-0.5,1.2-1,1.8-1.3
			c0.3-0.2,0.8-0.2,1.2-0.1C249.4,320.3,249.5,320.7,249.9,321.2z"/>
		<path class="st0" d="M309.7,187.7c1.1,0.3,1.6,1.1,1.6,1.9c0,0.7-0.5,1.4-0.9,2c0,0.1-0.7-0.1-0.9-0.3c-0.7-0.9-1-1.9-0.7-3
			C308.9,188.1,309.4,187.9,309.7,187.7z"/>
		<path class="st0" d="M311.7,363.4c-0.4,0.5-0.8,1.2-1.4,1.5c-0.6,0.3-1.3,0.3-2,0.3c-0.1,0-0.4-0.6-0.4-0.9c0.1-1.1,2.3-2.2,3.2-1.5
			C311.4,362.8,311.4,363.1,311.7,363.4z"/>
		<path class="st0" d="M241,324.8c-0.1,0-0.5,0.2-0.8,0.1c-0.5-0.2-1.2-0.4-1.3-0.8c-0.2-0.8,0.6-1.2,1.2-1.1c1,0.1,1.9,0.5,2.8,0.8
			c0.2,0.1,0.4,0.5,0.3,0.7c-0.1,0.2-0.4,0.3-0.7,0.4C242.2,324.9,241.7,324.8,241,324.8z"/>
		<path class="st0" d="M323.4,371.5c-1.2,0.6-1.9,1-2.7,1.2c-0.2,0-0.8-0.7-0.8-1c0.2-0.7,0.3-1.8,1.3-1.6C321.9,370.2,322.4,370.8,323.4,371.5z
			"/>
		<path class="st0" d="M262.5,354.8c0.3,0.1,0.7,0.2,1,0.3c-0.2,0.4-0.4,0.9-0.7,1.1c-0.4,0.3-0.9,0.6-1.3,0.6c-0.5,0-1-0.3-1.4-0.4
			c0.3-0.5,0.6-1.1,1.1-1.4C261.3,354.7,261.9,354.8,262.5,354.8z"/>
		<path class="st0" d="M294.8,379.3c0.5,0.8,1.1,1.2,1,1.6c-0.2,0.7-0.7,1.3-1.1,1.9c-0.4-0.6-0.9-1.1-1-1.7
			C293.6,380.6,294.3,380.1,294.8,379.3z"/>
		<path class="st0" d="M360,374c-0.2,0.1-0.5,0.5-0.6,0.5c-0.8-0.3-1.5-0.7-2.2-1.2c-0.4-0.3,0.2-1.2,0.7-1.3C358.7,371.8,360,373,360,374z"/>
		<path class="st0" d="M301.7,364.3c-0.2-0.1-0.6-0.2-0.7-0.4c-0.1-0.2,0.2-0.6,0.4-0.8c0.1-0.1,0.4-0.3,0.6-0.3c0.6,0,1.2,0,1.8,0.1
			c0.1,0,0.2,0.7,0.2,0.7c-0.5,0.2-1,0.4-1.5,0.6C302.3,364.3,302.1,364.3,301.7,364.3z"/>
		<path class="st0" d="M151.7,442.7c0.5,2.1,1.1,4.2,1.7,6.8C151.6,447.3,151.8,445,151.7,442.7z"/>
		<path class="st0" d="M328.7,374.8c0.6,0.3,1.9,0.8,1.8,0.9c-0.3,1.1-1.3,0.3-2,0.6c-0.2,0.1-0.5,0.1-0.6,0c-0.4-0.2-0.7-0.5-1.1-0.8
			c0.4-0.1,0.7-0.3,1.1-0.4c0.2-0.1,0.4,0,0.6,0C328.6,375,328.7,374.9,328.7,374.8z"/>
		<path class="st0" d="M266.9,337.8c-0.4-0.5-0.7-0.8-0.7-1.1c0-0.7,0.2-1.5,1.2-1.4c0.4,0.1,0.7,0.6,1.1,1C268,336.7,267.6,337.2,266.9,337.8z"
			/>
		<path class="st0" d="M211.1,326.4c0.1-0.6,0.1-1,0.3-1.3c0.1-0.3,0.5-0.5,0.7-0.7c0.2,0.3,0.5,0.5,0.6,0.8c0.1,0.3,0.1,0.7,0,1
			c-0.2,0.4-0.6,0.7-0.9,1C211.6,327,211.3,326.6,211.1,326.4z"/>
		<path class="st0" d="M294.6,126.2c2.4,1.7,3,2.4,3.3,3.6c-1.1-1.1-2.4-2.2-3.6-3.3C294.5,126.4,294.5,126.3,294.6,126.2z"/>
		<path class="st0" d="M406.9,300c0,2,0,4,0,5.9c-0.1,0-0.2,0-0.2,0c0-2,0-3.9,0-5.9C406.7,300.1,406.8,300,406.9,300z"/>
		<path class="st0" d="M353.8,375.3c-0.5-0.8-0.9-1.2-1-1.6c0-0.1,0.6-0.7,0.8-0.7c0.4,0,0.8,0.4,1.2,0.6C354.6,374.1,354.3,374.5,353.8,375.3z"
			/>
		<path class="st0" d="M264.2,117.4c-1.9,0.1-3.4,0.2-4.9,0.3C260.8,116.7,262.4,116.7,264.2,117.4z"/>
		<path class="st0" d="M157.7,454.4c-1.6-0.7-2.9-1.7-3.4-3.6C155.5,452,156.6,453.2,157.7,454.4L157.7,454.4z"/>
		<path class="st0" d="M157.8,454.4c1.4,0.3,2.6,0.9,3.4,2.2C159.8,456.2,158.6,455.5,157.8,454.4C157.7,454.4,157.8,454.4,157.8,454.4z"/>
		<path class="st0" d="M312.4,364.6c0.3,0.5,0.7,0.9,0.7,1c-0.3,0.4-0.7,0.6-1.1,0.9c0,0-0.6-0.5-0.6-0.7C311.6,365.4,312,365.1,312.4,364.6z"/>
		<path class="st0" d="M262.5,51.4c0.1-0.8,0.2-1.4,0.3-1.9c0.1-0.2,0.3-0.4,0.5-0.6c0.2,0.3,0.5,0.7,0.5,0.8C263.5,50.3,263.1,50.7,262.5,51.4z
			"/>
		<path class="st0" d="M258,462.4c-1.5-1.1-2.6-1.8-3.5-2.7c-1.2-1.2-1.3-2.9-0.8-4.5c1-3.3,1.8-6.5,1-10c-0.2-0.9,0-1.9,0-2.8
			c0.1-3.9,0.1-7.8-1-11.6c-0.7-2.7,0.5-3.9,3.2-3c2,0.7,3.9,1.8,5.7,2.9c0.5,0.3,0.8,1.2,0.8,1.9c0.2,7.8,0.3,15.7,0.5,23.5
			c0,1.2,0.1,2.4,0.1,3.7c0.1,3.2-0.6,3.9-3.7,3.3c-0.3-0.1-0.6-0.1-1-0.2c0-0.1,0-0.3,0-0.4c0.6-0.1,1.3-0.3,2-0.3
			c0.9-0.1,1-0.5,1-1.3c-0.1-6.5-0.3-13.1-0.3-19.6c0-2.4,0.3-4.9,0.5-7.3c0-0.6,0-1.2-0.1-1.7c0-0.2-0.5-0.4-0.6-0.4
			c-1.3,1-2.1-0.1-3.1-0.7c-0.2-0.1-0.4-0.3-0.6-0.3c-0.7-0.2-1.3-0.4-2-0.6c0,0.7,0,1.4,0.1,2.1c0.6,3.4,1.1,6.8,0.7,10.3
			c-0.2,1.3,0.2,2.7,0.2,4.1c0,1.7,0.1,3.5-0.3,5.1c-1.3,4.6-1.4,4.6,0.7,9.1C257.7,461.2,257.8,461.5,258,462.4z"/>
		<path class="st0" d="M276.1,469.2c-0.8-0.3-1.6-0.6-2.4-0.8c-0.2,0-0.7,0.3-0.8,0.6c-0.4,0.7-0.7,1.5-1.1,2.2c-0.4,0.8-1,1.4-1.3,2.2
			c-0.2,0.7-0.2,1.5,0.7,1.7c1.5,0.4,1.4,1.5,1.2,2.6c-0.4,3-0.8,6-1.4,9c-0.8,4-1.7,7.9-2.6,11.8c-0.1,0.6-0.2,1.3-0.3,1.9
			c-0.2,0.8,0,1.4,0.9,1.6c0.9,0.2,1.1,0.8,0.9,1.6c-0.2,0.9-1,0.7-1.6,0.6c-1.7-0.1-2.7-0.9-2.7-2.7c0-1.8,0.2-3.6,0.6-5.3
			c0.9-4.1,1.9-8.1,2.8-12.2c0.5-2.5,0.5-5.1-0.4-7.5c-1.4-3.5,0.6-6.1,2.4-8.7c0.7-1.1,1.9-1.1,3.1-0.6c0.4,0.2,0.8,0.4,1.1,0.7
			c0.4,0.3,0.8,0.6,1.2,0.9C276.3,468.9,276.2,469,276.1,469.2z"/>
		<path class="st0" d="M247.3,462.4c-0.1,0.8,0,1.7-0.3,2.5c-0.8,2.6-0.8,5.2-0.7,7.9c0.1,2-0.4,4.1-1.1,6.1c-0.7,2.1-2,2.2-3.6,0.7
			c-3.6-3.4-4.8-7.6-3.3-12.3c0.7-2.4,0.8-4.6,0-7c-0.5-1.3-0.5-2.8-0.5-4.3c0.1-1.7,1-2.3,2.6-1.8c1.4,0.4,2.7,1,4,1.6
			c0.8,0.3,1.2,1,0.8,1.7c-0.2,0.3-1.1,0.4-1.7,0.3c-0.8-0.1-1.5-0.5-2.2-0.8c-0.8-0.3-1.2,0.1-1.1,0.7c0,0.9,0.1,1.9,0.5,2.7
			c0.8,2.1,0.8,4.2,0.1,6.3c-0.2,0.5-0.2,1.1-0.4,1.7c-1.1,3.3,0.3,6.1,1.9,8.7c0.3,0.5,1.2,0.7,1.7,1c0.3-0.6,0.9-1.2,0.9-1.8
			c0.1-1.7,0-3.5-0.1-5.2c-0.1-2,0.1-4,0.9-5.9c0.4-1,0.6-2,0.9-3C247,462.4,247.2,462.4,247.3,462.4z"/>
		<path class="st0" d="M275.6,437.8c-1-0.7-2.3-1.3-3.1-2.3c-0.8-0.9-1.4-2.2-1.7-3.4c-0.5-2.1,0-4.1,0.7-6.1c1-2.7,1.4-5.5,0.8-8.3
			c-0.5-2-1.3-3.9-1.9-5.9c-0.3-1.1-0.6-2.2-0.7-3.4c-0.1-2.6,1.6-3.7,4-2.6c1,0.5,2,1.2,2.9,1.8c0.5,0.4,0.4,0.8-0.2,1.1
			c-0.8,0.5-1.5,0.1-2.3-0.1c-0.5-0.2-1.1-0.2-1.6-0.3c0,0.6-0.1,1.3,0.1,1.8c0.3,0.9,0.8,1.6,1.2,2.4c0.2,0.4,0.5,0.7,0.6,1.1
			c0.2,2.7,0.6,5.4,0.5,8.1c-0.2,3.1-1,6.1-1.3,9.2c-0.2,2,0.4,3.9,1.6,5.6c0.2,0.3,0.5,0.6,0.8,0.9
			C275.8,437.5,275.7,437.7,275.6,437.8z"/>
		<path class="st0" d="M279.2,470.7c1.3,0.8,1.7,2,1.4,3.3c-0.2,1.3-0.8,2.4-1.2,3.7c-0.4,1.2-0.8,2.5-0.9,3.7c-0.3,6.1-0.5,12.2-0.8,18.3
			c-0.1,1.2-0.4,2.4-0.6,3.6c-0.2,1.6-1.5,2.1-2.6,2c-1.1-0.1-2.2-0.6-3.3-0.9c-0.1,0-0.3-0.3-0.3-0.5c0-0.1,0.3-0.3,0.5-0.3
			c1-0.3,2.1-0.4,3.1-0.8c1.4-0.5,1.9-1.5,1.9-3c0-3.7,0.2-7.3,0.3-11c0.1-2.6,0.2-5.3,0.5-7.9c0.3-2,0.9-3.9,1.6-5.8
			C279.4,473.7,279.9,472.3,279.2,470.7z"/>
		<path class="st0" d="M225.7,446.4c-0.7-1.2-1.1-2.1-1.8-2.8c-2.4-2.6-1.9-5.1-0.6-8.1c1.3-2.9,1.7-6.2,0.7-9.5c-0.1-0.3-0.2-0.6-0.2-0.8
			c0.1-0.5,0.3-1.2,0.6-1.4c0.7-0.4,1.3,0.1,1.4,0.8c0.4,2,1,4.1,0.9,6.1c0,1.8-0.6,3.7-1.2,5.4c-0.7,2.1-1,4.1,0.3,6.2
			C226.8,444,226.7,444,225.7,446.4z"/>
		<path class="st0" d="M259.4,394.7c0.5,0,1.1-0.2,1.6-0.1c7.5,0.4,14.9,1.2,22,3.8c4.1,1.5,7.6,3.7,10.2,7.3c0.7,1,1.6,2,2.4,3
			c-0.1,0.1-0.2,0.2-0.3,0.3c-0.7-0.7-1.5-1.3-2-2c-3.5-4.5-8.3-6.9-13.6-8.2c-5.5-1.3-11.1-2.1-16.7-3.2c-1.2-0.2-2.4-0.4-3.6-0.6
			C259.4,395,259.4,394.8,259.4,394.7z"/>
		<path class="st0" d="M237.8,415.8c0-2,0.1-4,0-6c0-1-0.4-2.1-0.6-3.1c-0.3-1.4-0.5-2.8-0.7-4.2c-0.1-0.8,0.3-1.5,1.2-1.5
			c0.9,0,1.2,0.7,1.1,1.5c-0.2,1.6,0.5,2.9,0.9,4.4c0.4,1.3,0.4,2.8,0.3,4.2c-0.2,2.4-0.2,4.7,0.5,7c0.2,0.7,0,1.3-0.8,1.5
			c-0.9,0.2-1.7-0.1-1.9-1c-0.2-0.9-0.2-1.8-0.2-2.8C237.7,415.8,237.7,415.8,237.8,415.8z"/>
		<path class="st0" d="M213.6,450.5c-2.4,0-3-0.7-2.5-3c0.2-0.9,0.1-1.6-0.4-2.4c-1-1.4-0.8-1.6,0.8-2.2c0.3-0.1,0.6-0.3,0.7-0.6
			c1.1-1.5,2.9-1.5,3.7,0.1c0.3,0.5,0.3,1.2,0.4,1.9c0.1,1.1,0,2.3,0,3.4C216.5,449.7,215.8,450.5,213.6,450.5z M215.2,445.8
			c0,0,0.1,0,0.1,0c-0.1-0.8-0.1-1.6-0.4-2.3c-0.2-0.4-0.8-0.6-1.3-0.8c-0.1,0.4-0.4,0.9-0.4,1.3c0,0.6,0.4,1.1,0.4,1.6
			c0.1,0.8-0.1,1.6,0,2.4c0,0.4,0.4,0.7,0.6,1.1c0.3-0.3,0.7-0.5,0.7-0.9C215.1,447.4,215.1,446.6,215.2,445.8z"/>
		<path class="st0" d="M257.6,422.6c-2.5,0.1-3.2-0.6-3.5-2.8c-0.2-1.2-0.4-2.4-0.6-3.6c-0.2-1.6,0.5-2.8,2-3.4c1.4-0.6,3.4,0.5,3.6,2
			c0.1,0.8-0.3,1.2-1.1,1.2c-0.3,0-0.7-0.3-1-0.3c-0.3-0.1-0.7-0.1-1-0.2c0,0.4,0,0.8,0,1.2c0.1,0.7,0.5,1.4,0.5,2.1
			c0,1,0.2,1.6,1.3,1.9c0.3,0.1,0.8,0.9,0.7,1.3C258.4,422.3,257.7,422.5,257.6,422.6z"/>
		<path class="st0" d="M279.2,432.9c-0.1-1-0.4-1.9-0.4-2.9c0.1-4.3,0.4-8.6,0.6-12.9c0.1-2.1,0.2-4.1,0.3-6.3c0.8,0.9,0.9,2.1,0.9,3.1
			c-0.1,5-0.3,9.9-0.5,14.9c-0.1,1.4-0.2,2.7-0.4,4.1C279.6,432.9,279.4,432.9,279.2,432.9z"/>
		<path class="st0" d="M243.8,402.9c0.2,0.8,0.6,1.6,0.5,2.4c-0.3,2.5,0.1,4.9,0.7,7.2c0.4,1.7,0.7,3.5,0.9,5.3c0.1,1.1,0,2.2-1.2,2.7
			c0-1.2,0.1-2.4,0-3.5c-0.2-1.6-0.7-3.1-1.1-4.6c-0.6-2.4-0.8-4.8-0.1-7.2C243.6,404.5,243.7,403.7,243.8,402.9
			C243.9,402.9,243.8,402.9,243.8,402.9z"/>
		<path class="st0" d="M229.8,446c0.2-5.9-1.7-11.8,0.5-17.6C229.9,434.2,231.6,440.2,229.8,446z"/>
		<path class="st0" d="M257,483.3c2.7,0,2.6,0,3-2.8c0.2-1.5,0.9-3.1,0.6-4.4c-0.3-1.2-1.9-2-2.9-3c-0.3-0.3-0.5-0.6-1-1.4
			c1.9,1.1,3.4,1.9,4.9,2.9c0.4,0.3,0.7,1,0.6,1.4c-0.3,2.2-0.6,4.4-1.1,6.6C260.5,484.6,259.1,484.8,257,483.3z"/>
		<path class="st0" d="M254.8,470.6c-2.5,1.3-2.4,1.3-1.9,3.8c0.4,1.8,0.6,3.7,1,5.5c0.1,0.6,0.6,1.2,0.9,1.8c0.1,0.2,0.2,0.5,0.2,0.7
			c-0.3,0-0.6,0.1-0.8,0.1c-1.2-0.3-2-1.2-1.6-2.3c0.4-1.4,0-2.5-0.5-3.7c-0.3-0.8-0.6-1.6-0.7-2.5
			C250.7,471.3,251.7,470.3,254.8,470.6z"/>
		<path class="st0" d="M222.7,421.6c0.5-2.8,3.3-4.1,5.3-3.7c1.7,0.3,2.3,1.5,2.3,4.6c-0.4-0.6-0.7-0.9-0.9-1.3c-0.9-1.9-2.3-2.4-4.1-1.4
			C224.5,420.2,223.8,420.9,222.7,421.6z"/>
		<path class="st0" d="M230.2,401.8c1.1,0.7,0.9,1.7,0.8,2.6c-0.2,1.8-0.5,3.6-0.8,5.3c-0.1,0.4-0.6,1.1-0.8,1c-0.6,0-1.2-0.4-1.7-0.6
			c0.1-0.2,0.2-0.5,0.3-0.5c0.9,0.2,1.1-0.2,1.2-1C229.3,406.4,229.8,404.1,230.2,401.8z"/>
		<path class="st0" d="M222.8,402.7c0,0.3,0.2,0.7,0.2,1.1c0,0.3-0.2,0.6-0.3,0.9c-0.3-0.2-0.8-0.3-0.9-0.5c-0.3-1.2-0.6-2.4-0.5-3.5
			c0-0.5,1.1-1,1.7-1.3c0.4-0.2,1,0.1,1.4,0.2c0.4,0.1,0.8,0.4,1.2,0.7c-0.4,0.1-0.9,0.3-1.3,0.4C222.9,400.8,222.7,401,222.8,402.7
			z"/>
		<path class="st0" d="M243.9,402.9c-1.2-1.2-2.4-2.5-3.7-3.6c-0.5-0.4-1.4-0.4-2.1-0.6c1.2-1.2,1.9-1.4,3-0.4c1.1,1,2.1,2.2,3,3.3
			C244.3,401.8,243.9,402.5,243.9,402.9C243.8,402.9,243.9,402.9,243.9,402.9z"/>
		<path class="st0" d="M261,421.8c1.5-1.9,1.5-1.9,0.4-3.7c-0.3-0.5-0.6-1.1-0.7-1.8c1.3,0.4,2.2,1.4,2.9,2.5C264.3,420.1,263.3,421.4,261,421.8
			z"/>
		<path class="st0" d="M280.7,436.3c0.5,0.7,0.7,1.7-0.1,2.2c-0.5,0.3-1.4,0.1-2.1,0c-0.1,0-0.4-0.4-0.4-0.4c0.1-0.2,0.3-0.4,0.5-0.5
			C279.2,437.2,279.9,436.8,280.7,436.3z"/>
		<path class="st0" d="M397.1,280c-0.4,0.3-0.7,0.8-1.1,1c-0.4,0.2-0.9,0.2-1.3,0.2c0-0.5-0.2-1,0-1.4c0.2-0.8,0.9-1.3,1.8-1.2
			C397.3,278.6,397.2,279.3,397.1,280C397,280,397.1,280,397.1,280z"/>
		<path class="st0" d="M307.3,243.8c0,2.3-0.5,3.1-1.9,3c-0.1,0-0.3,0-0.4,0c-0.9-0.2-1.3-1.4-0.9-2.8c0.4-1.9,1.2-2.8,2.1-2.6
			c0.4,0.1,0.8,0.4,0.9,0.8C307.2,242.8,307.2,243.5,307.3,243.8z"/>
		<path class="st0" d="M361.8,320.8c-0.6-0.2-1.7,0-1.7-1.3c0-1.3,1.2-2.5,2.3-2.3c0.9,0.1,1.5,1,1.5,2.1C363.8,320.3,363.1,320.9,361.8,320.8z"
			/>
		<path class="st0" d="M247,247.6c-0.1,0.2-0.4,0.6-0.6,1c-0.4-0.3-0.9-0.5-1.3-0.8c-0.1-0.1-0.2-0.4-0.3-0.6c-0.1-0.9-1.1-1.9,0.1-2.7
			c0.5-0.3,1.7,1,2,2.2C247,247,247,247.2,247,247.6z"/>
		<path class="st0" d="M359.3,253c-0.3,0.7-0.3,1.3-0.6,1.6c-0.4,0.4-1.1,0.8-1.5,0.7c-0.8-0.1-0.8-0.9-0.6-1.5c0.1-0.4,0.2-0.9,0.4-1.2
			c0.4-0.4,0.9-0.8,1.3-1.1C358.6,252,359,252.5,359.3,253z"/>
		<path class="st0" d="M199,268c0.4,0.5,1,1,1.1,1.5c0.1,0.5-0.1,1.2-0.2,1.7c0,0.1-0.5,0.1-0.6,0.1c-0.4-0.8-0.8-1.7-1.1-2.6
			C198.2,268.6,198.6,268.4,199,268z"/>
	</g>
</g>
</svg>
