<?xml version="1.0" encoding="utf-8"?>
<!-- Generator: Adobe Illustrator 18.1.1, SVG Export Plug-In . SVG Version: 6.00 Build 0)  -->
<svg version="1.1" id="图层_1" xmlns="http://www.w3.org/2000/svg" xmlns:xlink="http://www.w3.org/1999/xlink" x="0px" y="0px"
	 viewBox="0 0 612 792" enable-background="new 0 0 612 792" xml:space="preserve">
<g>
	<g>
		<path d="M463.3,425.7c3.5,3.6,4.8,7.3,3,11.8c-1.4,3.3-4.2,4.8-7.4,5.6c-0.5-1.3,0.4-1.3,0.9-1.7c1.3-1.1,2.5-2.4,3.4-3.8
			c2.6-4.3,1.2-9-3.3-10.8c-8.7-3.4-17.9-4.8-27.1-6.9c-19.5-4.4-39.2-6.7-59.1-7.9c-0.7,0-1.3-0.1-2-0.1
			c-9.6,0.7-19.2-0.2-28.7-0.4c-5.1-0.1-8.2,1.2-11,4.9c-1.2,1.5-3,2.7-4.8,4.3c2.7,0.4,5.1-0.2,7.4-0.4c17.6-2.1,35.2-0.4,52.7,1.5
			c13.8,1.5,27.5,3.3,41.2,5c8.1,1,15.7,3.5,23.2,6.7c3,1.2,5.8,2.8,7.3,6.7c-1.7-0.2-3.2-0.2-4.3,0.7c-1.2,1-0.4,2.5-0.7,3.8
			c-0.4,3-0.9,5.9-1.3,9.1c2-0.9,3.1-2.6,4.8-3.4c3.9-1.7,7.1-0.2,8.1,3.9c0.7,3,0.1,5.7-0.3,8.5c-1.2,6.7-3.2,12.9-1.7,20.1
			c1.2,6.3,0,13.4-2.3,19.7c-5.4,14.8-8.2,30.2-12.5,45.1c-1.3,4.5-3,8.7-5.4,12.7c-3.4,5.7-6.8,6.9-13.2,4.7
			c-0.5,4.6-1.1,9.2-1.6,13.7c-1.5,10.8-3.4,21.6-6,32.2c-3.3,13.2-10.4,24.5-19.3,34.6c-8.1,9.2-16.5,18-25.2,26.6
			c-8.4,8.2-17.6,15.5-27.8,21.4c-6.9,4-14.8,5.1-22.8,4.7c-5.7-0.3-11.1-2-16.8-2.5c-6.3-0.7-12.7,0.1-19-0.4
			c-6-0.5-11.7-2-17.2-4.5c-3-1.3-4.3-4.3-5.6-7.1c-3.9-8.6-3.4-17.3-0.7-26.1c1-3.1,2-6.2,1.2-9.9c-3.8,6.9-8.5,13-10.1,20.7
			c-0.9,4.3,0.4,8.2,2,12c0.3,0.8,1,1.4,0.9,2c-42.1-28.9-61.6-70.6-67.4-119.9c-6.9,0.7-8-0.1-10.9-5.9c-2.7-5.4-3.6-11.1-4.5-16.9
			c-2-12.5-6.3-24.3-10.3-36.2c-1-2.8-1.5-5.7-1.6-8.7c-0.1-10.1-0.3-20.2-0.5-30.3c-0.1-2.3,0.3-4.4,0.7-6.6
			c0.5-3.1,3.3-5.4,6.7-5.9c1.1-0.1,2.3,0,3.5-0.7c-0.2-3.2-0.2-6.3-0.8-9.5c-0.8-4.3,0.7-8.2,1.1-12.2c0.2-1.4,1.9-3,3.4-3.2
			c14.3-1.6,28.6-3,43.1-3.9c16.5-1.1,33.1-0.5,49.6,0c2.8,0.1,5.8,0,9,0c-4.4-2.7-8.1-5.9-11.5-9.8c-1.3,1.4-2.8,1.4-4.4,1.3
			c-20.5-1.1-41.2-1-61.7,0.5c-11.6,0.9-23.2,2.4-34.5,4.6c-5.8,1.2-6.8,2.2-7.1,7c-0.4,6.2,1.1,9.1,6.2,10.8
			c1.9,0.7,3.8,1.1,5.8,1.5c-3.3,2.1-11.1,0-13.2-3.5c-3.2-5.1-0.8-15,4.2-16.7c-0.7-2.6-0.4-5.2-0.7-8c-0.2-3.2-0.2-5.9-3.6-8.3
			c-4.4-3.1-3.4-10.2,0.9-13.4c2.3-1.7,4.8-2.8,7.4-3.6c1.9-0.4,2.3-1.4,2.4-3.3c0.1-9.4,0.4-18.8,0.7-28.3
			c0.2-11.9,3.7-23.2,7.8-34.3c7-19.1,17.8-35.8,32.1-50.3c8.6-8.6,17.7-16.8,27.9-23.7c9.2-6.2,19.7-9,30.4-11.3
			c8.1-1.7,16.3-2.5,24.9-3.1c-0.3,5.7-0.7,11.1-0.9,16.5c-0.4,8.9-0.1,17.7,0,26.6c0.2,10.7,0,21.4-0.9,32
			c-0.7,9.1,0,18.3-0.7,27.3c-0.3,4.5-0.4,9.1-0.4,13.6c0,1.9-0.5,2.6-2.3,3.3c-23.9,8.4-33.8,35.3-20.5,57
			c6.6,10.8,16.4,16.5,29.3,17.9c16.6,1.9,35.4-9.9,39.9-29.1c0.3-1.2,0.8-2.4-1.1-3.5c1.6-0.3,2-1.2,2.1-2.4
			c1.6-18.4-10.3-35.5-28-40.4c-1.6-0.4-2.1-1.1-2.1-2.7c-0.9-23.8,1.7-47.4,2.7-71.1c0.5-15,1.5-29.9,2.4-44.9
			c0-0.9,0.1-1.7,0.2-2.7c4.3-0.4,8.3-0.3,12.5,0.1c19.9,2.2,38.4,8.6,55.4,19c5,3.1,9.5,6.9,13.7,11.1
			c14.2,14.9,27.9,30.3,37.8,48.6c4.7,8.6,7.1,18,9.4,27.4c3.7,14.9,3.9,30.1,4.7,45.2c0.1,2.3,0.1,2.4,1.3,4.9
			c0.9-3,0.7-5.7,0.8-8.3c0.8-26.1-2.8-51.3-14.9-74.9c-4.5-8.9-9.9-17-16.3-24.7c-6.8-8.2-13.8-16.1-22-22.7
			c-11-9.1-23.6-15.3-36.8-20.4c-11.6-4.6-23.5-7.2-35.7-8.3c-3.1-0.2-5.9,0.2-8.9,1c-0.9,0.2-1.4,0.3-2.3-0.2
			c-6.3-4.6-12.8-3.5-17.8,2.8c-13.3-1.4-26,1-38.7,4.8c-10.2,3.1-19.8,7.3-27.9,14.1c-10.2,8.3-20.1,16.9-27.9,27.8
			c-2.6,3.6-5.4,7.1-8,10.6c-10.3,13.9-16.1,29.6-20.3,46.2c-4.3,16.6-4,33.3-2.4,50.2c0,0.2,0,0.5-0.1,1.2c-1.3-2.6-1.3-5-1.5-7.5
			c-0.8-12.7-1.2-25.5-0.5-38.1c1.1-20.2-0.4-40.3-0.4-60.4c0-22.3,2.2-44.2,7.9-65.8c2.3-8.5,3.4-17.4,5.9-26
			c3.7-12.3,10.8-22.7,18.1-33c12.6-17.4,28.3-30.9,47.8-40.1c11-5.1,22.7-7.8,34.6-10.2c10.9-2.2,22-2.2,32.9-0.2
			c1.7,0.3,3.2-0.7,4.7-1.1c12.8-3.4,25.6-2.1,38.3,0.3c19.3,3.7,36.3,12.1,49.8,26.8c7.9,8.5,14.4,18.1,20.1,28.3
			c8.9,15.5,14.5,32.1,19.9,49.1c6.2,19.9,8,40.4,10.2,60.9c2.1,18.6,0.8,37-1,55.5c-1.2,12.8-2,25.7-3.2,38.5
			c-0.8,8.2-0.9,16.5-2.6,24.8c4.4,1.5,8.4,3.5,12.3,6.1c3.1,2.1,3.2,4.6,3.3,7.5c0.1,3.1-2.1,5.4-2.6,8.1c-1,5.2-0.1,10.6-1.1,15.7
			C464.7,423.9,464.7,425.2,463.3,425.7z M428.7,429c-1.6-0.2-3.2-0.4-4.7-0.7c-11.9-1.2-23.7-2.3-35.6-3.7
			c-21.2-2.5-42.4-3.5-63.6-2.1c-0.7,0-1.4,0.1-2,0.4c-7,3.6-14.3,5.4-22.2,4.8c-1.2,2.7-3.1,4.9-3.3,7.8c-0.4,4-1.5,8-2.2,11.9
			c-1,4.9,0.5,9.1,3.6,12.8c1.9,2.2,3.9,2.6,6.2,0.9c2-1.4,3.5-0.7,4.4,0.8c1,1.9-1.1,2.3-2.3,2.8c-1.9,0.7-3.6,1.6-4.2,3.6
			c-0.7,2.7-1.4,5.5-1.6,8.2c-0.8,10.9-1.3,21.9-1.9,32.8c-0.2,4.8-0.9,9.4-3.8,13.6c-4.4,6.3-4.5,14.3-7.9,21.1
			c4.5-3.6,8-7.9,10.1-13.2c-0.3,7.4,0.5,14.8-1.7,21.9c-0.3,0.9-0.1,1.9,0.4,2.7c3.9,6,9.4,8.9,16.6,8.5c3.2-0.1,6.3-0.3,9.5-0.4
			c4-0.1,8.1,0.2,11.8,2.2c1.2,0.7,3.3,1,3,3c-0.2,1.9-1,3.6-3.3,4.3c-3.3,0.9-6.6,2.7-9.8,3.1c-5.4,0.5-8.9,3.1-11.3,7.6
			c-0.9,1.7-1.1,3.4-1.4,5.2c-0.3,2.5-0.7,4.9-0.9,7.4c-0.1,1.1-0.5,1.9-1.6,2.1c-1.1,0.2-1.9-0.3-2.4-1.2c-0.5-0.8-0.5-1.9-1.6-2.4
			c-2.3,1.2-4,3.2-5.9,4.9c-1,0.9-1,2.1,0.1,3c1.7,1.4,3.6,3,5.4,4.4c0.8,0.7,1.4,1.2,2.6,0.9c3.2-0.9,6.3-0.4,9.5-0.2
			c9.5,0.8,18.8,2.6,28.2,3.9c6.1,0.9,12.3,2.3,18.4-0.7c1.6-0.8,2.3,0.7,2.1,2.1c-0.4,2.3-0.3,4.5,0.1,6.8c-2,0.1-2.1,0.2-2.6-0.3
			c-3-3.4-7.1-3.2-11-3.5c-8.3-0.7-16.6-1.6-25-2c-6.3-0.3-12.7-1.2-18.9,0.5c-2.6,0.8-4.8,2.4-7.5,2.7c-4.9,0.8-6.7,4.7-3.7,8.7
			c3.1,4.3,7,7.2,12.5,8.2c4.8,0.8,9.5,1.1,14.3,0c1.4-0.3,2.8-0.7,3.4,1.4c-1,1.1-2.2,1.3-3.4,1.9c-3.8,1.7-7.8,3.4-11.3,5.9
			c-1.6,1.2-2.7,2.6-3.3,4.5c-1.7,5.7-2.1,11.6-1.1,17.4c1.6,9.3,5.9,16.9,14.6,21.2c7.8,3.8,16.2,4.6,24.7,4.7c3.6,0,7-1,9.4-3.6
			c2.1-2.3,4.4-4.3,6.8-6.2c15.2-12.6,29-26.4,41.3-41.9c8.2-10.3,14.3-21.5,16.5-34.9c1.7-10.7,3.9-21.3,5.4-32.1
			c1.1-8.4,3.4-16.6,3.2-25.1c-0.3-13.4,2.2-26.7,3.2-40.1c0.5-7.4,2.2-15,2.6-22.5c0.7-11.3,1.9-22.5-2.4-33.3
			C430.3,444.3,429.5,436.8,428.7,429z M244.1,627.5c0.3-0.5,0.5-1.2,0.9-1.7c5.2-10.4,12.8-19,20.7-27.3c8-8.4,15.5-17,20.2-27.9
			c0.5-1.2,1.6-2.1,1.5-3.5c-0.8-0.1-1,0.3-1.3,0.7c-3.8,5.1-8.7,9.1-14.6,11.8c-7.8,3.6-13.8,9.3-19.1,15.8
			c-0.9,1.1-1.6,2.2-2.5,3.2c1.9-7.1,5.6-13,10.4-18.4c6.3-7.2,12.2-14.9,16.1-23.8c3.6-8.5,5.1-17.4,4.3-26.7c-1.3,0.8-1.6,2-2,3.1
			c-0.8,2.8-1.6,5.7-2.5,8.5c-2.2,7.3-6.9,12.8-13.6,16.5c-5.5,3.1-9.7,2-13-3.3c-2.7-4.5-3.2-9.5-2.7-14.5
			c1.2-12.1,4.7-23.4,11.1-33.9c1.3-2.1,3.1-3.7,4-6.2c-4.6,2.3-9,5-12.6,8.7c-13.1,13.4-16.8,30.4-16.7,48.3
			c0,11,0.1,22.1-1.5,33.1c-0.4,2.5-1.1,4.8-3.1,6.4c-0.7-0.2-0.5-0.7-0.5-1c2.2-12,0-23.4-3.9-34.8c-3.6-10.3-3.8-20.8,0.9-30.9
			c0.2-0.4,0.3-1.1-0.1-1.5c-1,0.3-1.6,1.1-2.2,1.9c-5.1,7.8-8.2,16.3-8.4,25.7c-0.2,10.6,2.3,20.8,5.5,30.8c1.9,6,3,12.1,2.8,18.8
			c-3-3.6-4.2-7.7-5.5-11.6c-4.7-14.5-5.9-29.7-8.7-44.6c-1.9-9.7-2.5-19.3-2.6-29.2c-0.1-9.1,0.4-18,2.5-26.9
			c2.7-11.9,2.6-23.5-3.5-34.6c-1.6-3-2.6-6.3-3-9.8c-0.4-4.2-0.2-8.2,0.5-12.3c-2.2,2.3-4.2,4.9-4.7,8.1
			c-1.6,9.7-3.1,19.6-3.2,29.5c-0.1,6.7-0.4,13.2-0.5,19.9c0,1.3-0.3,2.4-1.3,3.3c-1.3-0.5-1.4-2.1-2.7-3.1c0.1,1.4,0.2,2.6,0.3,3.7
			c0.7,6.7,1.6,13.3,2,20.1c1.5,23.9,4.7,47.6,11,70.8c4,14.8,8.7,29.4,15.6,42.9c9.2,18.3,24.6,31.3,39.1,45c0.1,0.1,0.3,0,0.8-0.1
			c-3.6-3.9-6.7-8.1-9.5-12.3c-3-4.4-4.2-9.3-3-14.5c2.6-11.3,8-21.2,15.8-29.7c3.3-3.6,6.8-7.1,11.4-9.2
			C259.6,609.9,253.2,621,244.1,627.5z M355.1,114.8c1.3,1,2.4,1.2,3.4,1.3c10.1,1.3,18.7,5.6,26,12.6c7.1,6.7,14.8,12.8,20,21.1
			c5.4,8.4,10.1,17.3,14.2,26.3c9.4,21,15.4,43.1,20.1,65.4c4.6,21.6,9.8,43.1,10.6,65.4c0,0.9,0.5,1.9,1,2.6
			c0.5,0.8,1.5,1.2,2.4,1.2c1.2-0.1,1.1-1.2,1-2.1c-0.4-3.7,0.3-7.5-0.3-11c-1.1-5.8-1.1-11.6-1.2-17.4c-0.1-12.5-1.5-24.7-3.7-36.9
			c-2.7-15.4-7-30.5-12.1-45.1c-3-8.4-6.7-16.7-10.4-25c-5-11.1-10.7-22.1-18.8-31.4c-11.1-12.8-25.4-21.3-41.7-26
			C362.4,114.7,359,114.6,355.1,114.8z M463.2,458c0.1-2-0.1-3.4-0.7-4.7c-0.5-1.3-1.5-2-3-1.9c-2.6,0-7.2,3.6-8,6.2
			c-3.1,10.5-5.4,21.2-9.6,31.3c-4.7,11.1-6.3,23.1-7.8,35c-1.5,12.3-2.2,24.9-3.6,37.3c-0.3,3.1,0.3,3.9,3.4,4
			c2.2,0,3.9-0.9,5.4-2.4c1.5-1.6,2.5-3.6,3.4-5.7c2.1-4.8,3.5-9.9,4.8-15.1c3.2-13.1,6-26.3,11.6-38.8c2.1-4.6,2.8-9.5,3.1-14.6
			c0.1-2.6-0.3-4.8-2.5-6.9c-5.7-5.4-5.7-10.2-0.7-16c0.5-0.7,1.1-1.4,1.7-2C462.5,462,463.2,459.8,463.2,458z M440.2,371.6
			c0.5-1.7,0.8-3.4,0.5-5c-0.3-4.6-0.9-9.2-0.2-13.8c0.7-4.3,0.9-8.6,0.1-12.9c-0.4-2.7-1.4-3.2-3.8-1.6c-0.4-2-0.2-4.6-1.9-5.6
			c-2.1-1.1-1.9-2.7-2.2-4.4c-0.3-1.7-0.5-3.4-1-5.1c-0.5-2.2-1.5-3.9-4.3-3.4c-0.3-1.4-0.5-2.6-0.8-3.8c-0.8-3.7-1.2-7.4-3-10.8
			c-0.7-1.2-1.2-2.7-3-2.2c-0.8,1.2,0.5,2.2-0.2,3.3c-2.4-3.1-2.7-7-4.5-10.2c-0.5-1.1-1-2.8-2.3-2.7c-2,0.1-2.1-1.3-2.6-2.4
			c-1.2-3-2.5-5.8-4.5-8.4c-0.8-1.1-1.6-2.2-3.1-0.7c-0.9-1.6-1.6-3.2-2.5-4.7c-0.7-1.1-1.3-2.5-2.5-2.6c-2.3-0.1-2.6-1.9-3.5-3.3
			c-1.4-2.2-2-5.5-5.8-5c-0.2,0-0.5-0.5-0.7-0.9c-1.3-3-5.4-2.7-6.8-5.7c-0.1-0.1-0.3-0.2-0.5-0.2c-2.8,0.5-3.8-1.5-5.1-3.3
			c-1.4-1.7-2.6-3.6-4.2-5.1c-1.9-1.7-3.5-4.3-6-4.6c-1.9-0.2-3-0.9-4-2.1c-1.6-2-3-1.6-3.8,0.8c-4-3.2-7.8-6.7-12.7-9
			c0.2,1.6,2,1.7,2.1,3.2c-1.4-0.5-2.7-1.1-4.2-1.5c-5-1.5-9.9-3.6-15.4-3.6c-1.3,0-2.6-0.1-3.4,1.5c0.5,0.2,0.9,0.4,1.2,0.5
			c12.3,2.1,23,8,33,15c6.4,4.6,13.9,8.1,18.4,15c0.3,0.4,0.9,1,1.3,1c2.7-0.1,3.3,2.3,4.5,3.9c0.9,1.1,1.4,3.1,3,2.7
			c2.4-0.5,3.4,1,4.4,2.3c4.9,6.2,9.6,12.7,12.9,20c0.4,0.9,0.4,2.1,1.6,2.5c1.2-0.8-0.2-2,0.5-2.8c1.6,2.7,2.3,6,4.5,8.9
			c0.8-1.5-0.4-2.7,0-4c1.4,1.3,2,3.1,2.5,4.6c1.2,3.5,2.4,7.1,3.6,10.6c0.4,1.4,1,2.4,2.5,1.4c1.6,4.6,2.1,9.4,4.4,13.6
			c1.1-2.7,0.2-5.5,0.3-8.2c2.6,5.2,2.1,11.4,4.3,17.4c1.2-2.3,0.5-4,1.1-5.7c2.4,6,1.3,12.5,2.8,18.6c1.1-2.1,1.1-4.3,1.4-6.4
			c1,3.7,0.7,7.5,1,11.3c0.1,1.7,0.7,3,2.7,1.5c0.1,3.9-0.9,7.6-0.3,11.4c1.5-0.5,1.1-2.1,2-2.8
			C439.3,369.1,438.5,370.6,440.2,371.6z M464.5,402.7c1-1.1,1-2.4,1.2-3.6c0.9-4.8-0.2-6.8-4.5-9.1c-2.4-1.2-4.9-2.2-7.5-2.7
			c-2.3-0.4-4.7-0.5-7.1-1.1c-3.7-0.9-7.6-1-11.4-1.5c-12.7-1.6-25.4-3.3-38.1-3.6c-17.2-0.5-34.2,0-51.4-0.1
			c-0.5,0-1.2-0.1-1.4,0.3c0,3.4,0,6.7,0,9.8c1,0.5,1.9,0.3,2.6,0.2c14.6-2.1,29.3-1.9,44-1.2c20.9,1,41.5,3.9,61.7,9
			C456.6,400.2,461.2,399.3,464.5,402.7z M171,465.6c3.3,1.3,4.6,3.8,4.2,7c-0.3,2.8-1.1,5.5-2.2,8.1c-1.6,4-2.1,8.3-3.9,12.3
			c-1.5,3.3,0.1,7.1,1.4,10.6c4.9,12.1,9.9,24.2,11.6,37.3c0.7,5.6,2,10.9,4.7,16c1.9,3.3,3.9,4.4,6.9,3.5
			c-3.4-20-5.1-40.2-7.5-60.3c-1-8-0.8-16.2-4-23.7c-1.4-3.2-2-6.6-2.3-10.1c-0.4-4.5-1.3-8.9-2.3-13.3c-5.6,0.7-7.8,2.3-7.9,6.3
			c-0.2,6.2,0,12.6,0,18.8C172.1,474.1,172.3,470,171,465.6z M277,472.6c-0.3-1.2-1.4-1.2-2.2-1.5c-3.4-1.5-7.1-2.3-10.7-3.3
			c-10.1-3-19.9-2.7-29.5,1.7c-3.6,1.6-7,3.7-10.7,4.8c-3,0.8-5.8,1.6-9,2.5c1.1,1.3,2.3,1.3,3.5,1.2c1.6-0.2,3.3-0.5,4.8-1.1
			c1.5-0.5,2.6-0.4,3.9,0.5c3.9,2.8,8.1,5,13,5.9c2.6,0.4,5.1,1.2,7.8,1.9c-5,8-6.4,11.5-5.8,15.1c1.6-3,3.5-5.1,5.8-7.1
			c2.5-2.2,5.1-4.4,6.9-7.3c0.5-1,1.4-1.1,2.5-1.1c4.7-0.1,9.4-0.4,14.1,0c2.2,0.2,4.4-0.1,6.4-1c0.1-4.2-0.8-7.9-3.8-10.8
			C275,472.4,276.1,473.4,277,472.6z M262.5,380.2c-0.2-0.1-0.7-0.2-1-0.2c-13.1-0.8-26.2,0.3-39.3-0.8c-1.6-0.1-2.8,1.2-4.4,1
			c-8.2-1-16.1,0.7-24,2.1c-9.2,1.6-18.3,3.8-27.1,6.6c-1.3,0.4-2.7,0.9-3.5,2.4c-1.7,3.7-0.7,8.3,2.8,11.1c-0.2-4.3,2.8-5.6,5.8-7
			c1.3-0.7,2.6-1.1,4-1.6c12.2-3.9,24.8-6,37.7-6.3c11.6-0.3,23.1,1,34.6,0.8c4.8-0.1,9.5,0,14.5,0
			C262.5,385.6,262.5,383,262.5,380.2z M456.7,405.9c0-1.6-1-2-1.7-2.2c-10.4-4.4-21.2-6.8-32.5-7.1c-1.1,0-2.3-0.1-3.1,1.5
			c2.7,1.4,5.9,1.2,9.1,2.3c-0.5,0.4-0.9,0.5-1.2,0.9c-0.3,0.3-0.7,0.8-0.4,1.3c3.6,2.5,3.6,2.5,3.4,3.6c-5.6-0.7-11.1-1.9-16.9-1.5
			c-1.5,0.1-3.3-0.1-4.4,2.5c16.7,1.1,32.8,4.7,49.2,6.8c-4.4-3.6-11-2.2-14.5-7.4c2.4,0.2,4.7,1.2,7.6,1.1c-2.2-2.2-4.8-2.4-7-4
			C448.7,404.3,452.4,405.7,456.7,405.9z M288.2,482.9c-0.4,0.2-0.8,0.2-0.8,0.3c-0.2,0.3-0.4,0.7-0.5,1c-1.2,4.4-3.8,7.9-6.6,11.4
			c-4.4,5.5-8.3,11-10.9,17.5c-0.8,1.9-1.7,3.7-1.4,5.7C279.9,509.9,288.7,499.2,288.2,482.9z M449.6,441.1c-1.2-0.7-1.2,1-2,0.5
			c0.3-1.5,1.6-2.7,1.4-4.6c-1.9,0.8-2.2,2.7-3.6,3.7c-0.2-1.3,1.2-2.3,0.7-3.6c-1-0.1-1,1.3-2.1,1c0.7-1.2,1.2-2.4,1.9-3.7
			c-1,0-1.2-0.9-1.9-1.2c-4.8,4.9-8.9,11.1-6.2,14c1.3-0.2,1.4-1.7,2.3-2.3c-0.4,3.2,1,6.1,0.5,9.5
			C445,450.9,447.7,446.3,449.6,441.1z M449.9,416.5c-0.7-1.5-2-1.5-3-2c-3.9-1.4-8-2.5-12.1-3.3c-1.6-0.3-3.4-0.5-5.1-0.7
			c-1-0.1-2.1,0.3-2.2,1.4c-0.2,1.3,1,1.5,1.9,1.7c1.4,0.3,3,0.5,4.7,1c-1.2,0.5-3,0.1-2.8,1.7c0.1,1.2,1.3,1.4,2.4,1.6
			c3.2,0.5,6.2,0.9,9.4,0.5c1.5-0.1,2.3-0.7,1.4-2.3C446.3,416.5,448,417.2,449.9,416.5z M286.2,593.5c9.2-0.1,15.2-5,13.4-11
			C295.9,587,290.2,588.8,286.2,593.5z M437.8,469.9c4.2-0.3,13.2-12.5,13.1-17.5C446.4,458.3,442.2,464,437.8,469.9z M451.4,445.2
			c-0.2-0.1-0.4-0.2-0.7-0.4c-4.4,6-8.6,12-13,18c0.3,0.2,0.7,0.4,1,0.8C444.6,458.5,448.3,452.1,451.4,445.2z M178.1,436.2
			c1.3,3.8,3.3,5.1,7.6,5.1c-3.2-1.3-1-2.2-0.3-3.4C183.2,436.8,180.9,436.5,178.1,436.2z M185.5,453.5c0.2-1.2-1.2-1.9-0.3-3.3
			c0.5-0.9-4-3.6-5.1-3.1c-0.4,0.2-0.5,0.7-0.5,1.2C179.8,450.2,183.3,453.3,185.5,453.5z M438,476c3.7-0.9,8.2-5.1,9.3-8.6
			C443.8,469.8,441,472.4,438,476z M186.6,445.7c-2.7-1.5-4.9-2.7-7.6-3.2C180.2,445.6,183.3,447,186.6,445.7z M180.6,453.2
			c0.5,4,2.8,6.6,5.2,6C184.8,456.7,183.3,454.8,180.6,453.2z M186.1,469.7c-0.3-2.5-1.7-4-4.5-5.2
			C182.4,467.4,183.8,468.9,186.1,469.7z M185.1,463.8c-0.9-2.4-2-3.8-4.8-4.8C181.5,461.5,182.4,463.1,185.1,463.8z"/>
		<path d="M275.3,385.6c-0.5-16.5,15.4-29.1,28.6-28.6c11.5,0.3,22.3,8.3,26.2,20.1c4.7,13.9-1.1,29.5-13.8,36.6
			c-8.1,4.6-16.5,4.5-24.8,0.4c-2.2-1.1-4.4-2.1-6.2-3.6C276.8,403.9,276.2,398.7,275.3,385.6z"/>
		<path d="M309,226.7c-1.7,40.3-3.4,80.7-5.1,121.1c-2.4,0.8-4.9-0.1-7.1,0.9c-0.9-1.2-0.4-2.3-0.4-3.4c1.1-35.1,2.1-70.2,3.2-105.2
			c0.1-2.2,0.3-4.5,0.1-6.7c-0.3-3.2,1.2-4.8,4-5.7C305.3,227.3,306.9,226.3,309,226.7z"/>
		<path d="M404.2,476.5c-2.1,1.7-4.5,0.9-7.2,1c2.1,1.5,4.5,2,6.6,3.1c-2,1.9-3.9-0.2-5.8,0.3c0,0.8,1.2,0.3,1,1.5
			c-3.6-0.1-6.3-2.5-9.3-4.2c-1.5,2-21.1,13.3-26.9,15.6c5.1,2.8,10.9,2.7,16.3,4.5c-0.7,2.2-2.2,3.1-4.3,3.5
			c-5,1.1-10.1,1.6-15.2,1.3c-3.4-0.2-6.3-1.3-9-3.4c-3.4-2.7-6.9-5.1-10.8-7.1c-3-1.5-4.3-1-4.8,2.2c-0.8,4.2-0.2,8.3,0.2,12.3
			c0.3,3.2,0.9,6.4,1,9.7c-10.8-14.3-16.5-30.3-15-48.4c1.5,0.9,3.5,2.1,5.6,3c2,0.9,3.8,2.2,6.4,2c-0.4-2-2-3.2-2.8-4.6
			c-3.5-5.6-3.5-6.9,1-11.9c1.4-1.5,2.6-3.3,3.9-4.8c-0.5-0.4-1.7-1.1-2.7-2c-0.9-0.8-0.9-1.9-0.4-3c0.4-0.9,1.3-0.8,2-0.7
			c6.9,1.1,13.3-0.7,19.9-2.4c7.3-2,14.5-4.3,22.3-4.6c5-0.1,10.1,0.1,14.9,1.4c5.1,1.4,9,4.7,10.7,9.9c0.5,1.5,0.9,3.2,0,4.9
			c-7.2-3.2-14.8-4.7-22.4-5.9c-8.7-1.3-17.5-1-26.1,0.3c-3.1,0.4-5.5,4-5.6,7.9c0,1.3,0.2,2.6-0.2,4.2c1.7-0.8,3.5-1.5,5.7-2.5
			c-0.5,1-0.8,1.4-1.1,2.1c12.5-3.4,24.3-2.1,36,2.8c5.6,2.4,11.3,4.4,17.3,5.4c0.8,0.1,2,0.2,1.9,1.4c-0.2,1.4-1.4,1-2.3,0.8
			c-6.8-1.1-13.1-3.8-19.5-6.1c-2.3-0.8-4.5-1.6-6.8-2.5c-5-1.9-9.7-1.2-14.8,1.3c5.2,0.7,10.1,1.4,15,2c2.1,0.2,4.6,0.7,5.6,2
			c2.3,3.2,5.8,3.7,9,5.1C396.5,475.9,400.3,476.4,404.2,476.5z"/>
		<path d="M374.1,590.1c-4.6-3.7-8.7-7-12.9-10.4c-6-5.1-11.1-10.8-15-17.7c-2.4-4.4-4.2-9.1-3.3-14.2c2.2,0.4,3.2,1.9,4.4,3.4
			c6,7.8,10.4,16.6,15.7,24.8c2.5,3.9,6.1,7.1,9.4,10.6C373.1,587.1,374.3,587.8,374.1,590.1z"/>
		<path d="M315.9,439.7c3.2,8.5,1.5,17.9,7.8,24.9c-3.9,1.4-8.5-1.5-11.8-6C308.1,453.3,311.5,445.2,315.9,439.7z"/>
		<path d="M436.4,543.2c-2-1.2-1.6-3.1-1.5-4.6c0.4-6,2.3-11.7,5.4-16.8c3.4-5.9,6.3-12,7.2-19c0.1-0.5,0.2-1.2,1.2-1.4
			c0.9,6.7-0.2,13-3.6,18.8c-3.1,5.1-5.4,10.6-7.1,16.3C437.3,538.6,436.9,540.9,436.4,543.2z"/>
		<path d="M179.8,502.7c0.1,4.2,2.4,8.2,4.3,12.2c1.4,3,2.5,6,2.4,9.4c0,1.3-0.1,2.5-1.9,3.4c-1-8.5-6.7-15.2-8-23.3
			c-0.4-2.4-0.5-4.8,0-7.2c0.4-1.7,1.3-3.1,3.6-2.8c0-5.9,0-11.7,0-17.7c2.6,1.3,3.5,5.1,3.4,14.1
			C183.6,494.9,183.8,499.3,179.8,502.7z"/>
	</g>
</g>
<g>
	<g>
		<path fill="#C4BA98" stroke="#000000" stroke-width="0.5" stroke-miterlimit="10" d="M424,662.8v-10.1h7.9v1.8h-6.1v2.7h3.3v1.8
			h-3.3v3.1L424,662.8z"/>
		<path fill="#C4BA98" stroke="#000000" stroke-width="0.5" stroke-miterlimit="10" d="M433.9,655.1c0-0.9,0.1-1.6,0.4-1.9
			c0.3-0.3,0.8-0.5,1.5-0.5h5.7c0.8,0,1.3,0.2,1.5,0.5s0.4,1,0.4,1.9v5.3c0,0.9-0.1,1.6-0.4,1.9c-0.3,0.3-0.8,0.5-1.5,0.5h-5.7
			c-0.8,0-1.3-0.2-1.5-0.5s-0.4-1-0.4-1.9V655.1z M435.7,660.9h6v-6.4h-6V660.9z"/>
		<path fill="#C4BA98" stroke="#000000" stroke-width="0.5" stroke-miterlimit="10" d="M447.3,661.2v-8.5h6.7c0.6,0,1.1,0.1,1.3,0.5
			c0.3,0.3,0.4,0.8,0.4,1.5v2.4c0,0.7-0.1,1.2-0.4,1.5c-0.3,0.3-0.7,0.5-1.3,0.5h-1l3.6,3.8H454l-3.1-3.8h-1.7v1.8L447.3,661.2z
			 M453.2,654.4h-4.1v2.8h4.1c0.3,0,0.5-0.1,0.6-0.2c0.1-0.1,0.2-0.3,0.2-0.6v-1.2c0-0.3-0.1-0.5-0.2-0.6
			C453.7,654.5,453.5,654.4,453.2,654.4z"/>
	</g>
	<g>
		<path fill="#C4BA98" stroke="#000000" stroke-width="0.5" stroke-miterlimit="10" d="M410.3,683.1c0.7-0.1,1.1,0.2,1.1,0.9v1.2h2
			c0.8,0,1,0.3,0.5,0.8h-2.5c0,1.3,0.1,2,0.3,2c0.4,0.1,0.6,0,0.9-0.1c0.9-0.2,1.3,0.1,1.2,0.9c-0.1,0.6-0.1,1.5-0.1,2.6
			c0.1,0.9-0.4,1.2-1.3,0.9c-1.1-0.4-2.1-0.4-3.3,0c-0.7,0.4-1.1,0.2-1.2-0.6s-0.3-1.8-0.5-2.9c0.1-0.7,0.6-0.9,1.4-0.6
			c0.7,0.1,1.1-0.1,1.1-0.5c0-1,0-1.9-0.1-2.8C409.5,683.5,409.7,683,410.3,683.1z M409,689.3c-0.1,1.1,0.1,1.6,0.5,1.7
			c2,0.3,2.9,0,2.8-0.9c0.2-1.2-0.6-1.7-2.5-1.4C409.3,688.7,409,688.9,409,689.3z M414.3,686.3c0.4,0,0.6,0,0.6-0.1
			c-0.1-1-0.1-1.9-0.1-2.8c-0.1-0.6,0.2-0.9,0.9-0.8c0.4,0,0.6,0.2,0.6,0.6c-0.1,0.8-0.1,1.7,0,2.8c2.9-0.4,4.3-0.4,4.2,0
			c0.2,0.3,0.1,0.4-0.1,0.4c-1.3,0.2-2.6,0.4-3.9,0.6c0.3,0.8,0.5,1.4,0.8,2c0.4-0.4,0.7-1,1.1-1.6c0.3-0.3,0.5-0.4,0.8-0.3
			c0.4,0.3,0.5,0.6,0.4,0.9c-0.5,0.7-1,1.3-1.4,1.7c1,1,2.5,1.4,4.7,1.3c0.2,0.1-0.1,0.5-0.8,1.3c-1,1-2,1.1-3,0.5
			c-0.4-0.4-1.1-1-2.1-2c-0.9,0.6-1.8,1-2.8,1.1c-0.4-0.1-0.5-0.3-0.3-0.5c0.9-0.3,1.7-0.8,2.4-1.6c-0.4-0.5-0.7-1.4-1.1-2.6
			c-0.4,0.1-0.8,0.2-1.2,0.4c-0.5,0.1-0.7-0.2-0.6-0.8C413.3,686.6,413.7,686.4,414.3,686.3z M418.5,683.3c0.3-0.6,0.6-0.8,1.1-0.5
			c0.4,0.3,0.6,0.6,0.4,1.1c-0.4,0.5-0.9,0.8-1.7,0.9c-0.4,0-0.5-0.1-0.4-0.4C418.1,684,418.3,683.7,418.5,683.3z"/>
		<path fill="#C4BA98" stroke="#000000" stroke-width="0.5" stroke-miterlimit="10" d="M428.8,686.3c0.4,0,0.7,0.1,0.9,0.4
			c-0.1,0.4-0.4,0.5-0.9,0.4c-0.5,0-1.1,0-1.6,0.1c0.2,0.3,0.1,0.5-0.3,0.8l-0.6,0.6c-0.3,0.4,0,0.6,0.6,0.6c0.5,0.1,1-0.1,1.3-0.5
			l-0.4-0.8c0.1-0.3,0.3-0.4,0.5-0.3c0.3,0.2,0.5,0.4,0.8,0.5c0.2,0.4,0.4,0.7,0.6,1.2c-0.1,0.2-0.2,0.3-0.3,0.3
			c-0.4,0.1-0.7-0.1-1.1-0.5c-0.5,1-1.1,1.3-1.7,1.1c-0.5-0.4-1-0.4-1.4-0.1c-0.2,0-0.4-0.1-0.5-0.4c-0.1-0.4,0.1-0.7,0.5-1.1
			c0.8-0.7,1.1-1.2,0.8-1.4c-0.4-0.1-0.9,0-1.6,0.3c-0.3,0.2-0.4,0.1-0.5-0.1c0.1-0.6,0.4-1,0.9-1.1L428.8,686.3L428.8,686.3z
			 M428.8,684.5c0.3,0,0.4,0.1,0.5,0.4c0,0.3-0.1,0.4-0.3,0.4H427c-0.6,0-1.2,0-1.7,0.1c-0.2-0.1-0.3-0.3-0.3-0.5
			c0.1-0.3,0.3-0.5,0.5-0.6C426.1,684.4,427.2,684.5,428.8,684.5z M432.2,688.2c-0.3-0.1-0.5-0.1-0.8,0c-0.3,0.2-0.5,0.3-0.8,0.4
			c-0.2,0-0.3,0-0.4-0.1c-0.2-1.3-0.4-2.5-0.5-3.5c-0.1-0.5,0.2-0.8,0.8-0.8c0.3,0.2,0.7,0.2,1.3,0.1c0.3-0.3,0.6-0.7,0.9-1.3
			c0.1-0.2,0.3-0.3,0.5-0.3c0.8,0.3,1,0.6,0.6,0.9c-0.3,0.3-0.5,0.5-0.6,0.6c0.6,0,1.4,0.1,2.4,0.3c0.3-0.1,0.5-0.2,0.6-0.3
			c0.3-0.1,0.5,0,0.6,0.1c0.4,0.3,0.4,0.6,0.3,1.2c-0.3,0.8-0.4,1.6-0.5,2.5l-0.4,0.3c0.4,0.3,0.4,0.5,0.1,0.6
			c-0.2,0.2-0.4,0.4-0.5,0.5c-0.2,0.1-0.1,0.2,0.1,0.4c0.4,0.1,0.6,0,0.9-0.1c-0.4-0.3-0.4-0.4-0.1-0.5c0.4,0,0.6,0,0.8,0.1
			c0.2,0.3,0.4,0.5,0.5,0.8c-0.1,0.1-0.2,0.2-0.4,0.3l-0.5-0.4c-0.2,0.5-0.5,0.7-0.9,0.6c-0.4-0.3-0.7-0.4-1.1-0.3
			c-0.3-0.2-0.4-0.4-0.3-0.6c0.2-0.2,0.4-0.4,0.5-0.6c0.1-0.2,0.2-0.4,0.4-0.8c-0.7-0.1-1.5-0.1-2.5-0.1c-0.6,2-1.8,3.5-3.5,4.3
			c-1.4,0.5-2.4,0.3-3.1-0.6c0-0.1,0.2-0.1,0.5-0.1C429.9,691.4,431.6,690.3,432.2,688.2z M432.6,684.9c-0.6,0-1.1,0.1-1.4,0.3
			c-0.2,0.5-0.1,0.8,0.3,0.8l1.4-0.1C433,685.4,432.9,685.1,432.6,684.9z M432.7,686.5c-0.4,0-1,0-1.6,0.1c0,0.6,0.1,0.9,0.4,0.9
			l0.9-0.1L432.7,686.5z M433.7,688.8c0.1-0.4,0.3-0.5,0.5-0.5c0.2,0,0.3,0.1,0.4,0.3c-0.2,0.4-0.3,0.7-0.4,1.1c0,0.4,0,0.6,0.1,0.8
			c0.4,0.4,1.1,0.7,2.1,0.9c0.9,0.1,1.7,0,2.5-0.3c0.5-0.3,0.9-0.3,1.1-0.1c-0.1,0.5-0.4,1.1-0.9,1.8c-0.6,0.5-1.1,0.7-1.6,0.5
			c-1.5-0.3-2.7-0.9-3.7-1.8c-0.4-0.5-0.6-1-0.5-1.4C433.4,689.6,433.6,689.2,433.7,688.8z M435.6,687.6c0.2-0.4,0.2-0.6,0.1-0.9
			c-0.4-0.2-1-0.3-2-0.3c-0.1,0.4-0.1,0.7-0.1,1.1C434.4,687.6,435,687.6,435.6,687.6z M433.9,685.8l1.4,0.1
			c0.4,0.1,0.5-0.1,0.5-0.5c0-0.4-0.5-0.5-1.6-0.5C434,685,433.9,685.3,433.9,685.8z"/>
		<path fill="#C4BA98" stroke="#000000" stroke-width="0.5" stroke-miterlimit="10" d="M445.4,685.7c0.2-0.4,0.3-0.5,0.4-0.5
			c0.4-0.1,0.6,0.2,0.4,0.9c-0.3,0.8-0.6,1.6-1.2,2.5c-0.4,0.7-0.9,1.2-1.3,1.6c-0.9,0.8-1.8,0.7-2.8-0.1c-0.3-0.3-0.2-0.5,0.3-0.8
			C442.7,688.5,444.1,687.3,445.4,685.7z M448.5,683.1c0.9-0.1,1.3,0.4,1.2,1.4c-0.1,2.2,0,4.6,0.1,7.3c0,1.1-0.8,1.5-2.5,1.4
			c-0.9-0.1-1.9-0.6-3-1.4c-0.2-0.4-0.1-0.6,0.3-0.6c1.7,0.5,2.7,0.6,3,0.3c0.3-0.2,0.4-2.6,0.3-7.3
			C447.8,683.4,448,683.1,448.5,683.1z M450.6,686.1c-0.3-0.4-0.2-0.6,0.1-0.8c0.2-0.1,0.4,0,0.5,0.1c1.2,1.6,3,2.9,5.5,4.1
			c-0.3,0.4-0.5,0.7-0.8,0.9c-0.8,0.7-1.5,0.7-2.2,0C452.6,689,451.5,687.5,450.6,686.1z"/>
		<path fill="#C4BA98" stroke="#000000" stroke-width="0.5" stroke-miterlimit="10" d="M463.5,687.9c-0.3,0.9-0.5,1.5-0.8,2l1.7-0.3
			c-0.1-0.4-0.1-0.7-0.1-1.1c0.1-0.4,0.4-0.6,0.9-0.6c0.4,0,0.6,0.1,0.9,0.3c0.4,0.1,0.6,0.1,0.8,0v-4.3c0-0.5,0.2-0.8,0.5-0.9
			c0.9,0,1.3,0.3,1.3,0.9c-0.1,0.4-0.1,0.8-0.1,1.1c1.8,0.1,3.4,0.1,4.6,0.1c0,0.4-0.1,0.8-0.4,1.2c-0.4,0.4-0.7,0.4-1.1,0.3
			c-1.4-0.4-2.4-0.6-3.1-0.4c-0.2,0.7-0.2,1.4,0,2.1c0.6,0.1,1.1,0,1.4-0.1c1.1-0.4,1.7,0,1.7,0.9c-0.2,0.7-0.3,1.6-0.3,2.6
			c0.2,1.1-0.2,1.5-1.2,1.2c-1.2-0.2-2.5-0.2-3.9-0.1c-1.1,0.5-1.6,0.2-1.7-0.9c0-0.3,0-0.7-0.1-1.4c-1.8,0.8-3.8,1.4-6.2,1.8
			c-0.8,0.2-1.1-0.1-1.1-0.9c0-0.4,0.4-0.7,1.3-0.8c1-0.1,2.1-0.2,3.3-0.4c0.3-1,0.4-1.9,0.4-2.8c0-0.6,0.2-0.9,0.5-0.9
			C463.6,686.4,463.8,686.9,463.5,687.9z M462.5,683.8c-0.1,1.1,0,1.5,0.3,1.4l1.8,0.1c0.4,0.4,0.5,0.6,0.1,0.8
			c-0.2,0.1-0.5,0.1-0.9,0.1c-1.8-0.4-3.5-0.2-5.4,0.4c-0.4,0.1-0.5,0-0.5-0.4c0.2-0.8,0.5-1.1,1.1-1.1c0.7,0.2,1.2,0.2,1.6,0.1
			c0.3-0.1,0.4-0.6,0.3-1.6c0.1-0.4,0.3-0.5,0.5-0.5C461.8,683.2,462.2,683.4,462.5,683.8z M461.2,689.6c-0.2,0.3-0.4,0.3-0.6,0.1
			c-0.5-0.8-0.8-1.5-0.9-2.1c-0.1-0.6,0.1-1,0.6-1.1c0.4-0.1,0.6,0.1,0.6,0.5C461,688,461.1,688.8,461.2,689.6z M468.5,689.1
			c-1.2-0.1-2,0-2.4,0.3c-0.3,0.6-0.3,1.2,0,1.8c0.1,0.4,1.1,0.6,2.9,0.4c0.8,0,1.2-0.4,1.2-1.3C470.2,689.4,469.6,689,468.5,689.1z
			"/>
	</g>
	
		<linearGradient id="SVGID_1_" gradientUnits="userSpaceOnUse" x1="365.0228" y1="251.2589" x2="365.0228" y2="251.2589" gradientTransform="matrix(1.0929 0 0 -1.0929 0 955.5428)">
		<stop  offset="0" style="stop-color:#C4BA98"/>
		<stop  offset="1.474962e-002" style="stop-color:#CEC5A9"/>
		<stop  offset="4.332456e-002" style="stop-color:#DDD7C4"/>
		<stop  offset="7.615717e-002" style="stop-color:#EAE6DA"/>
		<stop  offset="0.1145" style="stop-color:#F3F1EB"/>
		<stop  offset="0.162" style="stop-color:#FAF9F6"/>
		<stop  offset="0.2285" style="stop-color:#FEFEFD"/>
		<stop  offset="0.4133" style="stop-color:#FFFFFF"/>
		<stop  offset="0.4696" style="stop-color:#DDDBD8"/>
		<stop  offset="0.5499" style="stop-color:#B2AFA6"/>
		<stop  offset="0.6258" style="stop-color:#908B7F"/>
		<stop  offset="0.6952" style="stop-color:#787263"/>
		<stop  offset="0.7558" style="stop-color:#696252"/>
		<stop  offset="0.801" style="stop-color:#645D4C"/>
		<stop  offset="0.8499" style="stop-color:#776F5B"/>
		<stop  offset="0.9484" style="stop-color:#A89F82"/>
		<stop  offset="1" style="stop-color:#C4BA98"/>
	</linearGradient>
	
		<linearGradient id="SVGID_2_" gradientUnits="userSpaceOnUse" x1="365.0228" y1="251.2589" x2="365.0228" y2="251.2589" gradientTransform="matrix(1.0929 0 0 -1.0929 0 955.5428)">
		<stop  offset="0" style="stop-color:#C4BA98"/>
		<stop  offset="1.389108e-002" style="stop-color:#C7BD9D"/>
		<stop  offset="0.1655" style="stop-color:#E5E1D2"/>
		<stop  offset="0.2794" style="stop-color:#F8F7F3"/>
		<stop  offset="0.3418" style="stop-color:#FFFFFF"/>
		<stop  offset="0.4046" style="stop-color:#E1E0DC"/>
		<stop  offset="0.5083" style="stop-color:#B5B1A9"/>
		<stop  offset="0.6058" style="stop-color:#928D81"/>
		<stop  offset="0.6943" style="stop-color:#797364"/>
		<stop  offset="0.7708" style="stop-color:#696352"/>
		<stop  offset="0.8265" style="stop-color:#645D4C"/>
		<stop  offset="0.8691" style="stop-color:#776F5B"/>
		<stop  offset="0.955" style="stop-color:#A89F82"/>
		<stop  offset="1" style="stop-color:#C4BA98"/>
	</linearGradient>
	<path fill="url(#SVGID_1_)" stroke="url(#SVGID_2_)" stroke-width="0.5" stroke-miterlimit="10" d="M398.9,681"/>
	
		<linearGradient id="SVGID_3_" gradientUnits="userSpaceOnUse" x1="372.0536" y1="256.5826" x2="372.0536" y2="256.5826" gradientTransform="matrix(1.0929 0 0 -1.0929 0 955.5428)">
		<stop  offset="0" style="stop-color:#C4BA98"/>
		<stop  offset="1.474962e-002" style="stop-color:#CEC5A9"/>
		<stop  offset="4.332456e-002" style="stop-color:#DDD7C4"/>
		<stop  offset="7.615717e-002" style="stop-color:#EAE6DA"/>
		<stop  offset="0.1145" style="stop-color:#F3F1EB"/>
		<stop  offset="0.162" style="stop-color:#FAF9F6"/>
		<stop  offset="0.2285" style="stop-color:#FEFEFD"/>
		<stop  offset="0.4133" style="stop-color:#FFFFFF"/>
		<stop  offset="0.4696" style="stop-color:#DDDBD8"/>
		<stop  offset="0.5499" style="stop-color:#B2AFA6"/>
		<stop  offset="0.6258" style="stop-color:#908B7F"/>
		<stop  offset="0.6952" style="stop-color:#787263"/>
		<stop  offset="0.7558" style="stop-color:#696252"/>
		<stop  offset="0.801" style="stop-color:#645D4C"/>
		<stop  offset="0.8499" style="stop-color:#776F5B"/>
		<stop  offset="0.9484" style="stop-color:#A89F82"/>
		<stop  offset="1" style="stop-color:#C4BA98"/>
	</linearGradient>
	
		<linearGradient id="SVGID_4_" gradientUnits="userSpaceOnUse" x1="372.0536" y1="256.5826" x2="372.0536" y2="256.5826" gradientTransform="matrix(1.0929 0 0 -1.0929 0 955.5428)">
		<stop  offset="0" style="stop-color:#C4BA98"/>
		<stop  offset="1.389108e-002" style="stop-color:#C7BD9D"/>
		<stop  offset="0.1655" style="stop-color:#E5E1D2"/>
		<stop  offset="0.2794" style="stop-color:#F8F7F3"/>
		<stop  offset="0.3418" style="stop-color:#FFFFFF"/>
		<stop  offset="0.4046" style="stop-color:#E1E0DC"/>
		<stop  offset="0.5083" style="stop-color:#B5B1A9"/>
		<stop  offset="0.6058" style="stop-color:#928D81"/>
		<stop  offset="0.6943" style="stop-color:#797364"/>
		<stop  offset="0.7708" style="stop-color:#696352"/>
		<stop  offset="0.8265" style="stop-color:#645D4C"/>
		<stop  offset="0.8691" style="stop-color:#776F5B"/>
		<stop  offset="0.955" style="stop-color:#A89F82"/>
		<stop  offset="1" style="stop-color:#C4BA98"/>
	</linearGradient>
	<path fill="url(#SVGID_3_)" stroke="url(#SVGID_4_)" stroke-width="0.5" stroke-miterlimit="10" d="M406.6,675.1"/>
	<g>
		<g>
			<path fill="#C4BA98" stroke="#000000" stroke-width="0.5" stroke-miterlimit="10" d="M403.2,668.1h-5v3.9h2.7v2.7h-2.7v4.8
				l-1.5,0.7v-14.8h6.6V668.1"/>
			<path fill="#C4BA98" stroke="#000000" stroke-width="0.5" stroke-miterlimit="10" d="M405.1,677.8V677v-11.5h5.5
				c0.5,0,0.9,0.2,1.1,0.7c0.2,0.5,0.4,1.2,0.4,2.2v3.5c0,1-0.1,1.8-0.4,2.2c-0.2,0.5-0.6,0.7-1.1,0.7h-0.8l3,5.7h-2.2l-2.6-5.7
				h-1.4v1.9v0.8L405.1,677.8z M409.9,668.1h-3.4v4.2h3.4c0.3,0,0.4-0.1,0.5-0.3c0.1-0.2,0.1-0.5,0.1-0.9v-1.8
				c0-0.4-0.1-0.7-0.1-0.9C410.4,668.2,410.2,668.1,409.9,668.1z"/>
			<path fill="#C4BA98" stroke="#000000" stroke-width="0.5" stroke-miterlimit="10" d="M415.1,680.5v-15h1.5v15H415.1z"/>
			<path fill="#C4BA98" stroke="#000000" stroke-width="0.5" stroke-miterlimit="10" d="M419.9,680.5v-15h6.6v2.5h-5.1v3.4h3v2.5h-3
				v3.7h5.2v2.8L419.9,680.5L419.9,680.5z"/>
			<path fill="#C4BA98" stroke="#000000" stroke-width="0.5" stroke-miterlimit="10" d="M429.4,680.5v-15h1l4.6,8.8
				c0.1,0.3,0.3,0.6,0.4,0.8c0.1,0.3,0.2,0.5,0.3,0.8c0-0.8,0-1.4-0.1-1.8c0-0.4,0-0.6,0-0.8v-7.9h1.3v15h-1l-4.7-9.2
				c-0.1-0.2-0.2-0.4-0.3-0.6c-0.1-0.2-0.2-0.4-0.2-0.6c0,0.5,0,0.9,0,1.3c0,0.4,0,0.8,0,1.1v8.1H429.4L429.4,680.5z"/>
			<path fill="#C4BA98" stroke="#000000" stroke-width="0.5" stroke-miterlimit="10" d="M440.3,680.5v-15h4.2c1.2,0,2.1,0.6,2.7,1.9
				c0.6,1.3,1,3.1,1,5.5c0,1.4-0.1,2.7-0.4,3.8c-0.2,1.1-0.6,2-1.1,2.6c-0.3,0.4-0.6,0.7-1.1,0.9c-0.4,0.2-1,0.3-1.6,0.3
				L440.3,680.5L440.3,680.5z M441.8,677.6h1.9c1,0,1.8-0.4,2.2-1.1c0.4-0.7,0.6-2,0.6-3.7c0-1.5-0.2-2.7-0.5-3.5
				c-0.4-0.8-0.9-1.2-1.6-1.2h-2.7L441.8,677.6L441.8,677.6z"/>
			<path fill="#C4BA98" stroke="#000000" stroke-width="0.5" stroke-miterlimit="10" d="M456.6,668.1h-4.2v3.2h4
				c0.6,0,1.1,0.3,1.3,0.8c0.2,0.5,0.3,1.4,0.3,2.8v2.1c0,1.4-0.1,2.3-0.3,2.8c-0.2,0.5-0.6,0.8-1.3,0.8h-4c-0.6,0-1.1-0.3-1.3-0.8
				c-0.2-0.5-0.3-1.4-0.3-2.8v-0.4l1.3-0.6v1.8h4.6v-3.4h-4c-0.6,0-1.1-0.3-1.3-0.8s-0.3-1.4-0.3-2.8V669c0-1.4,0.1-2.3,0.3-2.8
				s0.6-0.8,1.3-0.8h3.7c0.6,0,1,0.2,1.3,0.7s0.4,1.3,0.4,2.6v0.3l-1.3,0.7V668.1L456.6,668.1z"/>
			<path fill="#C4BA98" stroke="#000000" stroke-width="0.5" stroke-miterlimit="10" d="M467.3,678.2V674h-4.7v5.9l-1.5,0.5v-15h1.5
				v5.8h4.7v-5.8h1.5v12.2L467.3,678.2z"/>
			<path fill="#C4BA98" stroke="#000000" stroke-width="0.5" stroke-miterlimit="10" d="M472.1,680.5v-15h1.5v15H472.1z"/>
			<path fill="#C4BA98" stroke="#000000" stroke-width="0.5" stroke-miterlimit="10" d="M477,680.5v-15h5.5c0.5,0,0.9,0.2,1.1,0.7
				c0.2,0.5,0.4,1.2,0.4,2.2v3.3c0,1-0.1,1.7-0.4,2.2c-0.2,0.5-0.6,0.7-1.1,0.7h-4.1v5.2L477,680.5z M481.8,668.1h-3.4v4h3.4
				c0.3,0,0.4-0.1,0.5-0.3c0.1-0.2,0.1-0.5,0.1-0.9v-1.6c0-0.4-0.1-0.7-0.1-0.9C482.3,668.2,482.1,668.1,481.8,668.1z"/>
		</g>
	</g>
</g>
</svg>
