<?xml version="1.0" encoding="utf-8"?>
<!-- Generator: Adobe Illustrator 18.1.1, SVG Export Plug-In . SVG Version: 6.00 Build 0)  -->
<svg version="1.1" id="图层_1" xmlns="http://www.w3.org/2000/svg" xmlns:xlink="http://www.w3.org/1999/xlink" x="0px" y="0px"
	 viewBox="0 0 560 560" enable-background="new 0 0 560 560" xml:space="preserve">
	 <style type="text/css">
	.st0{fill:#FFFFFF;}
</style>
<g>
	<g>
		<path class="st0" d="M423.9,307.2c3.2,3.3,4.4,6.7,2.7,10.8c-1.3,3-3.8,4.4-6.8,5.1c-0.5-1.2,0.4-1.2,0.8-1.6c1.2-1,2.3-2.2,3.1-3.5
			c2.4-3.9,1.1-8.2-3-9.9c-8-3.1-16.4-4.4-24.8-6.3c-17.8-4-35.9-6.1-54.1-7.2c-0.6,0-1.2-0.1-1.8-0.1c-8.8,0.6-17.6-0.2-26.3-0.4
			c-4.7-0.1-7.5,1.1-10.1,4.5c-1.1,1.4-2.7,2.5-4.4,3.9c2.5,0.4,4.7-0.2,6.8-0.4c16.1-1.9,32.2-0.4,48.2,1.4
			c12.6,1.4,25.2,3,37.7,4.6c7.4,0.9,14.4,3.2,21.2,6.1c2.7,1.1,5.3,2.6,6.7,6.1c-1.6-0.2-2.9-0.2-3.9,0.6c-1.1,0.9-0.4,2.3-0.6,3.5
			c-0.4,2.7-0.8,5.4-1.2,8.3c1.8-0.8,2.8-2.4,4.4-3.1c3.6-1.6,6.5-0.2,7.4,3.6c0.6,2.7,0.1,5.2-0.3,7.8c-1.1,6.1-2.9,11.8-1.6,18.4
			c1.1,5.8,0,12.3-2.1,18c-4.9,13.5-7.5,27.6-11.4,41.3c-1.2,4.1-2.7,8-4.9,11.6c-3.1,5.2-6.2,6.3-12.1,4.3c-0.5,4.2-1,8.4-1.5,12.5
			c-1.4,9.9-3.1,19.8-5.5,29.5c-3,12.1-9.5,22.4-17.7,31.7c-7.4,8.4-15.1,16.5-23.1,24.3c-7.7,7.5-16.1,14.2-25.4,19.6
			c-6.3,3.7-13.5,4.7-20.9,4.3c-5.2-0.3-10.2-1.8-15.4-2.3c-5.8-0.6-11.6,0.1-17.4-0.4c-5.5-0.5-10.7-1.8-15.7-4.1
			c-2.7-1.2-3.9-3.9-5.1-6.5c-3.6-7.9-3.1-15.8-0.6-23.9c0.9-2.8,1.8-5.7,1.1-9.1c-3.5,6.3-7.8,11.9-9.2,18.9
			c-0.8,3.9,0.4,7.5,1.8,11c0.3,0.7,0.9,1.3,0.8,1.8c-38.5-26.4-56.4-64.6-61.7-109.7c-6.3,0.6-7.3-0.1-10-5.4
			c-2.5-4.9-3.3-10.2-4.1-15.5c-1.8-11.4-5.8-22.2-9.4-33.1c-0.9-2.6-1.4-5.2-1.5-8c-0.1-9.2-0.3-18.5-0.5-27.7
			c-0.1-2.1,0.3-4,0.6-6c0.5-2.8,3-4.9,6.1-5.4c1-0.1,2.1,0,3.2-0.6c-0.2-2.9-0.2-5.8-0.7-8.7c-0.7-3.9,0.6-7.5,1-11.2
			c0.2-1.3,1.7-2.7,3.1-2.9c13.1-1.5,26.2-2.7,39.4-3.6c15.1-1,30.3-0.5,45.4,0c2.6,0.1,5.3,0,8.2,0c-4-2.5-7.4-5.4-10.5-9
			c-1.2,1.3-2.6,1.3-4,1.2c-18.8-1-37.7-0.9-56.5,0.5c-10.6,0.8-21.2,2.2-31.6,4.2c-5.3,1.1-6.2,2-6.5,6.4c-0.4,5.7,1,8.3,5.7,9.9
			c1.7,0.6,3.5,1,5.3,1.4c-3,1.9-10.2,0-12.1-3.2c-2.9-4.7-0.7-13.7,3.8-15.3c-0.6-2.4-0.4-4.8-0.6-7.3c-0.2-2.9-0.2-5.4-3.3-7.6
			c-4-2.8-3.1-9.3,0.8-12.3c2.1-1.6,4.4-2.6,6.8-3.3c1.7-0.4,2.1-1.3,2.2-3c0.1-8.6,0.4-17.2,0.6-25.9c0.2-10.9,3.4-21.2,7.1-31.4
			c6.4-17.5,16.3-32.8,29.4-46c7.9-7.9,16.2-15.4,25.5-21.7c8.4-5.7,18-8.2,27.8-10.3c7.4-1.6,14.9-2.3,22.8-2.8
			c-0.3,5.2-0.6,10.2-0.8,15.1c-0.4,8.1-0.1,16.2,0,24.3c0.2,9.8,0,19.6-0.8,29.3c-0.6,8.3,0,16.7-0.6,25c-0.3,4.1-0.4,8.3-0.4,12.4
			c0,1.7-0.5,2.4-2.1,3c-21.9,7.7-30.9,32.3-18.8,52.2c6,9.9,15,15.1,26.8,16.4c15.2,1.7,32.4-9.1,36.5-26.6c0.3-1.1,0.7-2.2-1-3.2
			c1.5-0.3,1.8-1.1,1.9-2.2c1.5-16.8-9.4-32.5-25.6-37c-1.5-0.4-1.9-1-1.9-2.5c-0.8-21.8,1.6-43.4,2.5-65.1
			c0.5-13.7,1.4-27.4,2.2-41.1c0-0.8,0.1-1.6,0.2-2.5c3.9-0.4,7.6-0.3,11.4,0.1c18.2,2,35.1,7.9,50.7,17.4
			c4.6,2.8,8.7,6.3,12.5,10.2c13,13.6,25.5,27.7,34.6,44.5c4.3,7.9,6.5,16.5,8.6,25.1c3.4,13.6,3.6,27.5,4.3,41.4
			c0.1,2.1,0.1,2.2,1.2,4.5c0.8-2.7,0.6-5.2,0.7-7.6c0.7-23.9-2.6-46.9-13.6-68.5c-4.1-8.1-9.1-15.6-14.9-22.6
			c-6.2-7.5-12.6-14.7-20.1-20.8c-10.1-8.3-21.6-14-33.7-18.7c-10.6-4.2-21.5-6.6-32.7-7.6c-2.8-0.2-5.4,0.2-8.1,0.9
			c-0.8,0.2-1.3,0.3-2.1-0.2c-5.8-4.2-11.7-3.2-16.3,2.6c-12.2-1.3-23.8,0.9-35.4,4.4c-9.3,2.8-18.1,6.7-25.5,12.9
			c-9.3,7.6-18.4,15.5-25.5,25.4c-2.4,3.3-4.9,6.5-7.3,9.7c-9.4,12.7-14.7,27.1-18.6,42.3c-3.9,15.2-3.7,30.5-2.2,45.9
			c0,0.2,0,0.5-0.1,1.1c-1.2-2.4-1.2-4.6-1.4-6.9c-0.7-11.6-1.1-23.3-0.5-34.9c1-18.5-0.4-36.9-0.4-55.3c0-20.4,2-40.4,7.2-60.2
			c2.1-7.8,3.1-15.9,5.4-23.8c3.4-11.3,9.9-20.8,16.6-30.2c11.5-15.9,25.9-28.3,43.7-36.7c10.1-4.7,20.8-7.1,31.7-9.3
			c10-2,20.1-2,30.1-0.2c1.6,0.3,2.9-0.6,4.3-1c11.7-3.1,23.4-1.9,35,0.3c17.7,3.4,33.2,11.1,45.6,24.5c7.2,7.8,13.2,16.6,18.4,25.9
			c8.1,14.2,13.3,29.4,18.2,44.9c5.7,18.2,7.3,37,9.3,55.7c1.9,17,0.7,33.9-0.9,50.8c-1.1,11.7-1.8,23.5-2.9,35.2
			c-0.7,7.5-0.8,15.1-2.4,22.7c4,1.4,7.7,3.2,11.3,5.6c2.8,1.9,2.9,4.2,3,6.9c0.1,2.8-1.9,4.9-2.4,7.4c-0.9,4.8-0.1,9.7-1,14.4
			C425.2,305.5,425.2,306.7,423.9,307.2z M392.3,310.2c-1.5-0.2-2.9-0.4-4.3-0.6c-10.9-1.1-21.7-2.1-32.6-3.4
			c-19.4-2.3-38.8-3.2-58.2-1.9c-0.6,0-1.3,0.1-1.8,0.4c-6.4,3.3-13.1,4.9-20.3,4.4c-1.1,2.5-2.8,4.5-3,7.1c-0.4,3.7-1.4,7.3-2,10.9
			c-0.9,4.5,0.5,8.3,3.3,11.7c1.7,2,3.6,2.4,5.7,0.8c1.8-1.3,3.2-0.6,4,0.7c0.9,1.7-1,2.1-2.1,2.6c-1.7,0.6-3.3,1.5-3.8,3.3
			c-0.6,2.5-1.3,5-1.5,7.5c-0.7,10-1.2,20-1.7,30c-0.2,4.4-0.8,8.6-3.5,12.4c-4,5.8-4.1,13.1-7.2,19.3c4.1-3.3,7.3-7.2,9.2-12.1
			c-0.3,6.8,0.5,13.5-1.6,20c-0.3,0.8-0.1,1.7,0.4,2.5c3.6,5.5,8.6,8.1,15.2,7.8c2.9-0.1,5.8-0.3,8.7-0.4c3.7-0.1,7.4,0.2,10.8,2
			c1.1,0.6,3,0.9,2.7,2.7c-0.2,1.7-0.9,3.3-3,3.9c-3,0.8-6,2.5-9,2.8c-4.9,0.5-8.1,2.8-10.3,7c-0.8,1.6-1,3.1-1.3,4.8
			c-0.3,2.3-0.6,4.5-0.8,6.8c-0.1,1-0.5,1.7-1.5,1.9c-1,0.2-1.7-0.3-2.2-1.1c-0.5-0.7-0.5-1.7-1.5-2.2c-2.1,1.1-3.7,2.9-5.4,4.5
			c-0.9,0.8-0.9,1.9,0.1,2.7c1.6,1.3,3.3,2.7,4.9,4c0.7,0.6,1.3,1.1,2.4,0.8c2.9-0.8,5.8-0.4,8.7-0.2c8.7,0.7,17.2,2.4,25.8,3.6
			c5.6,0.8,11.3,2.1,16.8-0.6c1.5-0.7,2.1,0.6,1.9,1.9c-0.4,2.1-0.3,4.1,0.1,6.2c-1.8,0.1-1.9,0.2-2.4-0.3
			c-2.7-3.1-6.5-2.9-10.1-3.2c-7.6-0.6-15.2-1.5-22.9-1.8c-5.8-0.3-11.6-1.1-17.3,0.5c-2.4,0.7-4.4,2.2-6.9,2.5
			c-4.5,0.7-6.1,4.3-3.4,8c2.8,3.9,6.4,6.6,11.4,7.5c4.4,0.7,8.7,1,13.1,0c1.3-0.3,2.6-0.6,3.1,1.3c-0.9,1-2,1.2-3.1,1.7
			c-3.5,1.6-7.1,3.1-10.3,5.4c-1.5,1.1-2.5,2.4-3,4.1c-1.6,5.2-1.9,10.6-1,15.9c1.5,8.5,5.4,15.5,13.4,19.4
			c7.1,3.5,14.8,4.2,22.6,4.3c3.3,0,6.4-0.9,8.6-3.3c1.9-2.1,4-3.9,6.2-5.7c13.9-11.5,26.5-24.2,37.8-38.3
			c7.5-9.4,13.1-19.7,15.1-31.9c1.6-9.8,3.6-19.5,4.9-29.4c1-7.7,3.1-15.2,2.9-23c-0.3-12.3,2-24.4,2.9-36.7
			c0.5-6.8,2-13.7,2.4-20.6c0.6-10.3,1.7-20.6-2.2-30.5C393.7,324.2,393,317.3,392.3,310.2z M223.4,491.8c0.3-0.5,0.5-1.1,0.8-1.6
			c4.8-9.5,11.7-17.4,18.9-25c7.3-7.7,14.2-15.6,18.5-25.5c0.5-1.1,1.5-1.9,1.4-3.2c-0.7-0.1-0.9,0.3-1.2,0.6
			c-3.5,4.7-8,8.3-13.4,10.8c-7.1,3.3-12.6,8.5-17.5,14.5c-0.8,1-1.5,2-2.3,2.9c1.7-6.5,5.1-11.9,9.5-16.8
			c5.8-6.6,11.2-13.6,14.7-21.8c3.3-7.8,4.7-15.9,3.9-24.4c-1.2,0.7-1.5,1.8-1.8,2.8c-0.7,2.6-1.5,5.2-2.3,7.8
			c-2,6.7-6.3,11.7-12.4,15.1c-5,2.8-8.9,1.8-11.9-3c-2.5-4.1-2.9-8.7-2.5-13.3c1.1-11.1,4.3-21.4,10.2-31c1.2-1.9,2.8-3.4,3.7-5.7
			c-4.2,2.1-8.2,4.6-11.5,8c-12,12.3-15.4,27.8-15.3,44.2c0,10.1,0.1,20.2-1.4,30.3c-0.4,2.3-1,4.4-2.8,5.9
			c-0.6-0.2-0.5-0.6-0.5-0.9c2-11,0-21.4-3.6-31.8c-3.3-9.4-3.5-19,0.8-28.3c0.2-0.4,0.3-1-0.1-1.4c-0.9,0.3-1.5,1-2,1.7
			c-4.7,7.1-7.5,14.9-7.7,23.5c-0.2,9.7,2.1,19,5,28.2c1.7,5.5,2.7,11.1,2.6,17.2c-2.7-3.3-3.8-7-5-10.6c-4.3-13.3-5.4-27.2-8-40.8
			c-1.7-8.9-2.3-17.7-2.4-26.7c-0.1-8.3,0.4-16.5,2.3-24.6c2.5-10.9,2.4-21.5-3.2-31.7c-1.5-2.7-2.4-5.8-2.7-9
			c-0.4-3.8-0.2-7.5,0.5-11.3c-2,2.1-3.8,4.5-4.3,7.4c-1.5,8.9-2.8,17.9-2.9,27c-0.1,6.1-0.4,12.1-0.5,18.2c0,1.2-0.3,2.2-1.2,3
			c-1.2-0.5-1.3-1.9-2.5-2.8c0.1,1.3,0.2,2.4,0.3,3.4c0.6,6.1,1.5,12.2,1.8,18.4c1.4,21.9,4.3,43.6,10.1,64.8
			c3.7,13.5,8,26.9,14.3,39.3c8.4,16.7,22.5,28.6,35.8,41.2c0.1,0.1,0.3,0,0.7-0.1c-3.3-3.6-6.1-7.4-8.7-11.3
			c-2.7-4-3.8-8.5-2.7-13.3c2.4-10.3,7.3-19.4,14.5-27.2c3-3.3,6.2-6.5,10.4-8.4C237.5,475.7,231.7,485.9,223.4,491.8z M324.9,22.7
			c1.2,0.9,2.2,1.1,3.1,1.2c9.2,1.2,17.1,5.1,23.8,11.5c6.5,6.1,13.5,11.7,18.3,19.3c4.9,7.7,9.2,15.8,13,24.1
			c8.6,19.2,14.1,39.4,18.4,59.8c4.2,19.8,9,39.4,9.7,59.8c0,0.8,0.5,1.7,0.9,2.4c0.5,0.7,1.4,1.1,2.2,1.1c1.1-0.1,1-1.1,0.9-1.9
			c-0.4-3.4,0.3-6.9-0.3-10.1c-1-5.3-1-10.6-1.1-15.9c-0.1-11.4-1.4-22.6-3.4-33.8c-2.5-14.1-6.4-27.9-11.1-41.3
			c-2.7-7.7-6.1-15.3-9.5-22.9c-4.6-10.2-9.8-20.2-17.2-28.7c-10.2-11.7-23.2-19.5-38.2-23.8C331.6,22.6,328.5,22.5,324.9,22.7z
			 M423.8,336.7c0.1-1.8-0.1-3.1-0.6-4.3c-0.5-1.2-1.4-1.8-2.7-1.7c-2.4,0-6.6,3.3-7.3,5.7c-2.8,9.6-4.9,19.4-8.8,28.6
			c-4.3,10.2-5.8,21.1-7.1,32c-1.4,11.3-2,22.8-3.3,34.1c-0.3,2.8,0.3,3.6,3.1,3.7c2,0,3.6-0.8,4.9-2.2c1.4-1.5,2.3-3.3,3.1-5.2
			c1.9-4.4,3.2-9.1,4.4-13.8c2.9-12,5.5-24.1,10.6-35.5c1.9-4.2,2.6-8.7,2.8-13.4c0.1-2.4-0.3-4.4-2.3-6.3
			c-5.2-4.9-5.2-9.3-0.6-14.6c0.5-0.6,1-1.3,1.6-1.8C423.2,340.4,423.8,338.4,423.8,336.7z M402.8,257.7c0.5-1.6,0.7-3.1,0.5-4.6
			c-0.3-4.2-0.8-8.4-0.2-12.6c0.6-3.9,0.8-7.9,0.1-11.8c-0.4-2.5-1.3-2.9-3.5-1.5c-0.4-1.8-0.2-4.2-1.7-5.1c-1.9-1-1.7-2.5-2-4
			c-0.3-1.6-0.5-3.1-0.9-4.7c-0.5-2-1.4-3.6-3.9-3.1c-0.3-1.3-0.5-2.4-0.7-3.5c-0.7-3.4-1.1-6.8-2.7-9.9c-0.6-1.1-1.1-2.5-2.7-2
			c-0.7,1.1,0.5,2-0.2,3c-2.2-2.8-2.5-6.4-4.1-9.3c-0.5-1-0.9-2.6-2.1-2.5c-1.8,0.1-1.9-1.2-2.4-2.2c-1.1-2.7-2.3-5.3-4.1-7.7
			c-0.7-1-1.5-2-2.8-0.6c-0.8-1.5-1.5-2.9-2.3-4.3c-0.6-1-1.2-2.3-2.3-2.4c-2.1-0.1-2.4-1.7-3.2-3c-1.3-2-1.8-5-5.3-4.6
			c-0.2,0-0.5-0.5-0.6-0.8c-1.2-2.7-4.9-2.5-6.2-5.2c-0.1-0.1-0.3-0.2-0.5-0.2c-2.6,0.5-3.5-1.4-4.7-3c-1.3-1.6-2.4-3.3-3.8-4.7
			c-1.7-1.6-3.2-3.9-5.5-4.2c-1.7-0.2-2.7-0.8-3.7-1.9c-1.5-1.8-2.7-1.5-3.5,0.7c-3.7-2.9-7.1-6.1-11.6-8.2c0.2,1.5,1.8,1.6,1.9,2.9
			c-1.3-0.5-2.5-1-3.8-1.4c-4.6-1.4-9.1-3.3-14.1-3.3c-1.2,0-2.4-0.1-3.1,1.4c0.5,0.2,0.8,0.4,1.1,0.5c11.3,1.9,21,7.3,30.2,13.7
			c5.9,4.2,12.7,7.4,16.8,13.7c0.3,0.4,0.8,0.9,1.2,0.9c2.5-0.1,3,2.1,4.1,3.6c0.8,1,1.3,2.8,2.7,2.5c2.2-0.5,3.1,0.9,4,2.1
			c4.5,5.7,8.8,11.6,11.8,18.3c0.4,0.8,0.4,1.9,1.5,2.3c1.1-0.7-0.2-1.8,0.5-2.6c1.5,2.5,2.1,5.5,4.1,8.1c0.7-1.4-0.4-2.5,0-3.7
			c1.3,1.2,1.8,2.8,2.3,4.2c1.1,3.2,2.2,6.5,3.3,9.7c0.4,1.3,0.9,2.2,2.3,1.3c1.5,4.2,1.9,8.6,4,12.4c1-2.5,0.2-5,0.3-7.5
			c2.4,4.8,1.9,10.4,3.9,15.9c1.1-2.1,0.5-3.7,1-5.2c2.2,5.5,1.2,11.4,2.6,17c1-1.9,1-3.9,1.3-5.9c0.9,3.4,0.6,6.9,0.9,10.3
			c0.1,1.6,0.6,2.7,2.5,1.4c0.1,3.6-0.8,7-0.3,10.4c1.4-0.5,1-1.9,1.8-2.6C402,255.4,401.2,256.8,402.8,257.7z M425,286.1
			c0.9-1,0.9-2.2,1.1-3.3c0.8-4.4-0.2-6.2-4.1-8.3c-2.2-1.1-4.5-2-6.9-2.5c-2.1-0.4-4.3-0.5-6.5-1c-3.4-0.8-7-0.9-10.4-1.4
			c-11.6-1.5-23.2-3-34.9-3.3c-15.7-0.5-31.3,0-47-0.1c-0.5,0-1.1-0.1-1.3,0.3c0,3.1,0,6.1,0,9c0.9,0.5,1.7,0.3,2.4,0.2
			c13.4-1.9,26.8-1.7,40.3-1.1c19.1,0.9,38,3.6,56.5,8.2C417.8,283.8,422,283,425,286.1z M156.5,343.7c3,1.2,4.2,3.5,3.8,6.4
			c-0.3,2.6-1,5-2,7.4c-1.5,3.7-1.9,7.6-3.6,11.3c-1.4,3,0.1,6.5,1.3,9.7c4.5,11.1,9.1,22.1,10.6,34.1c0.6,5.1,1.8,10,4.3,14.6
			c1.7,3,3.6,4,6.3,3.2c-3.1-18.3-4.7-36.8-6.9-55.2c-0.9-7.3-0.7-14.8-3.7-21.7c-1.3-2.9-1.8-6-2.1-9.2c-0.4-4.1-1.2-8.1-2.1-12.2
			c-5.1,0.6-7.1,2.1-7.2,5.8c-0.2,5.7,0,11.5,0,17.2C157.5,351.5,157.7,347.7,156.5,343.7z M253.5,350.1c-0.3-1.1-1.3-1.1-2-1.4
			c-3.1-1.4-6.5-2.1-9.8-3c-9.2-2.7-18.2-2.5-27,1.6c-3.3,1.5-6.4,3.4-9.8,4.4c-2.7,0.7-5.3,1.5-8.2,2.3c1,1.2,2.1,1.2,3.2,1.1
			c1.5-0.2,3-0.5,4.4-1c1.4-0.5,2.4-0.4,3.6,0.5c3.6,2.6,7.4,4.6,11.9,5.4c2.4,0.4,4.7,1.1,7.1,1.7c-4.6,7.3-5.9,10.5-5.3,13.8
			c1.5-2.7,3.2-4.7,5.3-6.5c2.3-2,4.7-4,6.3-6.7c0.5-0.9,1.3-1,2.3-1c4.3-0.1,8.6-0.4,12.9,0c2,0.2,4-0.1,5.9-0.9
			c0.1-3.8-0.7-7.2-3.5-9.9C251.6,349.9,252.6,350.8,253.5,350.1z M240.2,265.5c-0.2-0.1-0.6-0.2-0.9-0.2c-12-0.7-24,0.3-36-0.7
			c-1.5-0.1-2.6,1.1-4,0.9c-7.5-0.9-14.7,0.6-22,1.9c-8.4,1.5-16.7,3.5-24.8,6c-1.2,0.4-2.5,0.8-3.2,2.2c-1.6,3.4-0.6,7.6,2.6,10.2
			c-0.2-3.9,2.6-5.1,5.3-6.4c1.2-0.6,2.4-1,3.7-1.5c11.2-3.6,22.7-5.5,34.5-5.8c10.6-0.3,21.1,0.9,31.7,0.7c4.4-0.1,8.7,0,13.3,0
			C240.2,270.5,240.2,268.1,240.2,265.5z M417.9,289.1c0-1.5-0.9-1.8-1.6-2c-9.5-4-19.4-6.2-29.7-6.5c-1,0-2.1-0.1-2.8,1.4
			c2.5,1.3,5.4,1.1,8.3,2.1c-0.5,0.4-0.8,0.5-1.1,0.8c-0.3,0.3-0.6,0.7-0.4,1.2c3.3,2.3,3.3,2.3,3.1,3.3c-5.1-0.6-10.2-1.7-15.5-1.4
			c-1.4,0.1-3-0.1-4,2.3c15.3,1,30,4.3,45,6.2c-4-3.3-10.1-2-13.3-6.8c2.2,0.2,4.3,1.1,7,1c-2-2-4.4-2.2-6.4-3.7
			C410.6,287.6,414,288.9,417.9,289.1z M263.7,359.5c-0.4,0.2-0.7,0.2-0.7,0.3c-0.2,0.3-0.4,0.6-0.5,0.9c-1.1,4-3.5,7.2-6,10.4
			c-4,5-7.6,10.1-10,16c-0.7,1.7-1.6,3.4-1.3,5.2C256.1,384.2,264.2,374.4,263.7,359.5z M411.4,321.3c-1.1-0.6-1.1,0.9-1.8,0.5
			c0.3-1.4,1.5-2.5,1.3-4.2c-1.7,0.7-2,2.5-3.3,3.4c-0.2-1.2,1.1-2.1,0.6-3.3c-0.9-0.1-0.9,1.2-1.9,0.9c0.6-1.1,1.1-2.2,1.7-3.4
			c-0.9,0-1.1-0.8-1.7-1.1c-4.4,4.5-8.1,10.2-5.7,12.8c1.2-0.2,1.3-1.6,2.1-2.1c-0.4,2.9,0.9,5.6,0.5,8.7
			C407.2,330.2,409.7,326,411.4,321.3z M411.7,298.8c-0.6-1.4-1.8-1.4-2.7-1.8c-3.6-1.3-7.3-2.3-11.1-3c-1.5-0.3-3.1-0.5-4.7-0.6
			c-0.9-0.1-1.9,0.3-2,1.3c-0.2,1.2,0.9,1.4,1.7,1.6c1.3,0.3,2.7,0.5,4.3,0.9c-1.1,0.5-2.7,0.1-2.6,1.6c0.1,1.1,1.2,1.3,2.2,1.5
			c2.9,0.5,5.7,0.8,8.6,0.5c1.4-0.1,2.1-0.6,1.3-2.1C408.4,298.8,409.9,299.4,411.7,298.8z M261.9,460.7c8.4-0.1,13.9-4.6,12.3-10.1
			C270.8,454.8,265.5,456.4,261.9,460.7z M400.6,347.6c3.8-0.3,12.1-11.4,12-16C408.5,337,404.6,342.2,400.6,347.6z M413,325
			c-0.2-0.1-0.4-0.2-0.6-0.4c-4,5.5-7.9,11-11.9,16.5c0.3,0.2,0.6,0.4,0.9,0.7C406.8,337.2,410.2,331.3,413,325z M163,316.8
			c1.2,3.5,3,4.7,7,4.7c-2.9-1.2-0.9-2-0.3-3.1C167.6,317.3,165.5,317.1,163,316.8z M169.7,332.6c0.2-1.1-1.1-1.7-0.3-3
			c0.5-0.8-3.7-3.3-4.7-2.8c-0.4,0.2-0.5,0.6-0.5,1.1C164.5,329.6,167.7,332.4,169.7,332.6z M400.8,353.2c3.4-0.8,7.5-4.7,8.5-7.9
			C406.1,347.5,403.5,349.9,400.8,353.2z M170.7,325.5c-2.5-1.4-4.5-2.5-7-2.9C164.9,325.4,167.7,326.7,170.7,325.5z M165.3,332.3
			c0.5,3.7,2.6,6,4.8,5.5C169.1,335.5,167.7,333.8,165.3,332.3z M170.3,347.4c-0.3-2.3-1.6-3.7-4.1-4.8
			C166.9,345.3,168.2,346.7,170.3,347.4z M169.4,342c-0.8-2.2-1.8-3.5-4.4-4.4C166.1,339.9,166.9,341.4,169.4,342z"/>
		<path class="st0" d="M251.9,270.5c-0.5-15.1,14.1-26.6,26.2-26.2c10.5,0.3,20.4,7.6,24,18.4c4.3,12.7-1,27-12.6,33.5
			c-7.4,4.2-15.1,4.1-22.7,0.4c-2-1-4-1.9-5.7-3.3C253.3,287.2,252.7,282.5,251.9,270.5z"/>
		<path class="st0" d="M282.7,125.1c-1.6,36.9-3.1,73.8-4.7,110.8c-2.2,0.7-4.5-0.1-6.5,0.8c-0.8-1.1-0.4-2.1-0.4-3.1c1-32.1,1.9-64.2,2.9-96.3
			c0.1-2,0.3-4.1,0.1-6.1c-0.3-2.9,1.1-4.4,3.7-5.2C279.4,125.6,280.8,124.7,282.7,125.1z"/>
		<path class="st0" d="M369.9,353.7c-1.9,1.6-4.1,0.8-6.6,0.9c1.9,1.4,4.1,1.8,6,2.8c-1.8,1.7-3.6-0.2-5.3,0.3c0,0.7,1.1,0.3,0.9,1.4
			c-3.3-0.1-5.8-2.3-8.5-3.8c-1.4,1.8-19.3,12.2-24.6,14.3c4.7,2.6,10,2.5,14.9,4.1c-0.6,2-2,2.8-3.9,3.2c-4.6,1-9.2,1.5-13.9,1.2
			c-3.1-0.2-5.8-1.2-8.2-3.1c-3.1-2.5-6.3-4.7-9.9-6.5c-2.7-1.4-3.9-0.9-4.4,2c-0.7,3.8-0.2,7.6,0.2,11.3c0.3,2.9,0.8,5.9,0.9,8.9
			c-9.9-13.1-15.1-27.7-13.7-44.3c1.4,0.8,3.2,1.9,5.1,2.7c1.8,0.8,3.5,2,5.9,1.8c-0.4-1.8-1.8-2.9-2.6-4.2
			c-3.2-5.1-3.2-6.3,0.9-10.9c1.3-1.4,2.4-3,3.6-4.4c-0.5-0.4-1.6-1-2.5-1.8c-0.8-0.7-0.8-1.7-0.4-2.7c0.4-0.8,1.2-0.7,1.8-0.6
			c6.3,1,12.2-0.6,18.2-2.2c6.7-1.8,13.3-3.9,20.4-4.2c4.6-0.1,9.2,0.1,13.6,1.3c4.7,1.3,8.2,4.3,9.8,9.1c0.5,1.4,0.8,2.9,0,4.5
			c-6.6-2.9-13.5-4.3-20.5-5.4c-8-1.2-16-0.9-23.9,0.3c-2.8,0.4-5,3.7-5.1,7.2c0,1.2,0.2,2.4-0.2,3.8c1.6-0.7,3.2-1.4,5.2-2.3
			c-0.5,0.9-0.7,1.3-1,1.9c11.4-3.1,22.2-1.9,32.9,2.6c5.1,2.2,10.3,4,15.8,4.9c0.7,0.1,1.8,0.2,1.7,1.3c-0.2,1.3-1.3,0.9-2.1,0.7
			c-6.2-1-12-3.5-17.8-5.6c-2.1-0.7-4.1-1.5-6.2-2.3c-4.6-1.7-8.9-1.1-13.5,1.2c4.8,0.6,9.2,1.3,13.7,1.8c1.9,0.2,4.2,0.6,5.1,1.8
			c2.1,2.9,5.3,3.4,8.2,4.7C362.8,353.1,366.3,353.6,369.9,353.7z"/>
		<path class="st0" d="M342.3,457.6c-4.2-3.4-8-6.4-11.8-9.5c-5.5-4.7-10.2-9.9-13.7-16.2c-2.2-4-3.8-8.3-3-13c2,0.4,2.9,1.7,4,3.1
			c5.5,7.1,9.5,15.2,14.4,22.7c2.3,3.6,5.6,6.5,8.6,9.7C341.4,454.9,342.5,455.5,342.3,457.6z"/>
		<path class="st0" d="M289.1,320c2.9,7.8,1.4,16.4,7.1,22.8c-3.6,1.3-7.8-1.4-10.8-5.5C281.9,332.4,285,325,289.1,320z"/>
		<path class="st0" d="M399.3,414.7c-1.8-1.1-1.5-2.8-1.4-4.2c0.4-5.5,2.1-10.7,4.9-15.4c3.1-5.4,5.8-11,6.6-17.4c0.1-0.5,0.2-1.1,1.1-1.3
			c0.8,6.1-0.2,11.9-3.3,17.2c-2.8,4.7-4.9,9.7-6.5,14.9C400.1,410.5,399.8,412.6,399.3,414.7z"/>
		<path class="st0" d="M164.5,377.6c0.1,3.8,2.2,7.5,3.9,11.2c1.3,2.7,2.3,5.5,2.2,8.6c0,1.2-0.1,2.3-1.7,3.1c-0.9-7.8-6.1-13.9-7.3-21.3
			c-0.4-2.2-0.5-4.4,0-6.6c0.4-1.6,1.2-2.8,3.3-2.6c0-5.4,0-10.7,0-16.2c2.4,1.2,3.2,4.7,3.1,12.9
			C168,370.5,168.2,374.5,164.5,377.6z"/>
	</g>
</g>
</svg>
