<?xml version="1.0" encoding="utf-8"?>
<!-- Generator: Adobe Illustrator 21.0.0, SVG Export Plug-In . SVG Version: 6.00 Build 0)  -->
<svg version="1.1" id="图层_1" xmlns="http://www.w3.org/2000/svg" xmlns:xlink="http://www.w3.org/1999/xlink" x="0px" y="0px"
	 viewBox="0 0 560 560" style="enable-background:new 0 0 560 560;" xml:space="preserve">
	 <style type="text/css">
	.st0{fill:#FFFFFF;}
</style>
<g>
	<g>
		<path class="st0" d="M298.9,495.5c-1-1.6-2-1.3-3-1.1c-4.4,0.9-8.8,0.9-13.2,0c-5-1-8.7-3.9-11.3-8.1c-1.9-3,0.1-6.5,3.5-6.9
			c1.1-0.1,2.3-0.3,3.2-0.9c4.2-2.7,8.9-2.9,13.6-2.7c10.2,0.6,20.4,1.5,30.7,2.3c1.4,0.1,2.9,0.1,4.3,0.5c1.2,0.4,2.3,1.4,3.5,2.1
			c0.8,0.4,1.6,0.7,2.8,1.3c0-2.6,0.1-4.7,0-6.7c0-0.6-0.5-1.1-0.8-1.8c-4.1,1.9-8,2.4-12.2,1.7c-8.8-1.5-17.7-2.7-26.6-3.9
			c-3.9-0.6-7.8-0.8-11.7-0.1c-0.6,0.1-1.4,0-1.9-0.4c-1.8-1.3-3.5-2.7-5.1-4.3c-1.1-1-1-1.9-0.1-2.9c0.2-0.2,0.4-0.4,0.6-0.5
			c1.4-1.2,2.9-2.4,4.5-3.8c0.5,0.8,1,1.5,1.4,2.2c0.5,0.8,1.1,1.3,2.1,1.1c1-0.2,1.4-0.9,1.5-1.8c0.4-2.8,0.4-5.7,1.2-8.4
			c1.3-4.2,3.2-8.2,8.4-9.2c3.7-0.7,7.2-2,10.8-3.1c0.6-0.2,1.3-0.5,1.8-0.9c2-1.8,1.9-4-0.5-5.2c-1.6-0.9-3.5-1.5-5.3-1.8
			c-4.8-0.7-9.5-0.7-14.3,0c-1.4,0.2-2.7,0.2-4-0.3c-2.4-1-4.9-1.9-7.2-3.2c-2.1-1.1-3.1-3.3-4-5.5c-0.1-0.3-0.2-0.7,0-1
			c1.7-4.8,1.4-9.9,1.8-14.9c0.1-1.3,0.1-2.7-0.2-4.1c-1.2,2-2.2,4.1-3.6,6c-1.4,1.9-3.1,3.5-4.7,5.3c-0.1-0.1-0.3-0.2-0.4-0.3
			c0.1-0.4,0.1-0.9,0.3-1.3c1.3-2.7,1.9-5.6,2.9-8.4c1.4-3.9,3.3-7.7,5.1-11.4c0.7-1.5,1.4-2.8,1.5-4.6c0.3-8.9,1.1-17.7,1.6-26.6
			c0.3-4,0.3-8,1.2-12c0.6-2.8,1.5-5.2,4.7-6c1-0.2,1.9-0.9,1.9-2.1c-2.1-2.1-2.3-2.1-4.4-0.6c-1.5,1-4.1,0.5-5.4-1.1
			c-1.7-2.2-2.9-4.7-3.4-7.4c-0.2-0.8,0-1.7,0.2-2.5c0.6-3.8,1.2-7.6,2-11.3c0.4-2,1.4-3.8,2.1-5.7c0.5-1.3,1.5-1.6,2.8-1.7
			c3.3-0.4,6.6-0.8,9.9-1.5c2-0.4,4-1.1,5.8-2c2.1-1,4.4-1.4,6.7-1.5c5-0.3,10.1-0.6,15.1-0.8c1.5-0.1,3.1,0.1,4.6,0.2
			c21.9,0.7,43.6,3.7,65.3,5.8c4.4,0.4,4.6-0.6,5,5.1c0.4,6,2.1,11.7,4,17.4c2.6,7.9,2.7,15.9,1.8,24.1c-0.4,3.3-0.3,6.6-0.5,9.9
			c-0.3,3.9-0.6,7.8-1.8,11.6c-0.2,0.6-0.5,1.4-0.4,2c0.8,3.4-0.3,6.7-0.6,10.1c-0.2,2.6-0.5,5.2-0.8,7.8c-0.4,3.4-0.8,6.9-1.2,10.3
			c-0.1,0.6-0.1,1.2,0,1.8c0.8,6.7-0.5,13.3-1.5,19.8c-1,6.3-1.9,12.6-3,18.9c-1.1,6.5-2.1,13-3.7,19.3c-0.6,2.4-0.5,5-1.4,7.3
			c-1.7,4.7-4,9.1-6.6,13.3c-4.6,7.4-10,14.2-16.2,20.4c-4.3,4.3-8.3,8.9-12.7,13c-5,4.7-10.4,9.1-15.5,13.7
			c-1.6,1.4-3.1,2.9-4.6,4.5c-1.5,1.5-3.3,2.4-5.4,2.7c-8.7,1.1-17-0.3-25-3.8c-4.2-1.8-7.1-5.1-9.3-8.8c-4.8-8.2-5.1-17-2.4-26
			c0.3-1,1.1-1.9,1.8-2.6c3.3-3,7.4-4.6,11.4-6.3C297.1,496.6,297.9,496,298.9,495.5z M306.4,333c-0.4,0.5-0.8,1-1.3,1.5
			c-1.2,1.2-2.4,2.4-3.6,3.6c-2.5,2.6-2.7,4-1.1,7.1c0.6,1.2,1.4,2.3,2.2,3.5c0.5,0.8,1,1.6,1.6,2.5c-0.5,0.3-0.8,0.5-1,0.5
			c-2.6-1.1-5.1-2.3-7.6-3.5c-0.9-0.4-1.6-1.4-2.5-0.8c0.2,2.1,0.4,4.1,0.6,6c0.1,2.4,0.2,4.8,0.3,7.2c0.1,3.4,0.7,6.7,2.1,9.7
			c2.5,5.5,5.2,10.9,7.9,16.4c0.6,1.2,1.3,2.6,2.9,3.3c0.1-0.6,0.2-1,0.1-1.4c-0.5-4.1-1.3-8.1-1.6-12.2c-0.1-2.2,0.3-4.6,0.9-6.8
			c0.5-2,1.4-2.1,3.2-1.2c4.1,1.9,7.6,4.8,11.4,7.3c0.9,0.6,1.9,1.3,2.9,1.5c6.4,1.5,12.7,0.9,19-1c1.1-0.3,1.9-1,1.8-2.5
			c-4.4-1.5-9.4-1.4-13.9-3.8c0.6-0.4,0.9-0.6,1.2-0.7c4.9-1.7,9.1-4.7,13.2-7.8c0.6-0.5,1.3-0.8,2-1.1c2.7-1,5.6-1.6,7.2-4.3
			c2,1,3.7,2,5.4,2.8c1.8,0.8,4.5,0.3,6.4-1.2c-1.1-0.5-2.5-0.5-3.2-1.9c1.6-0.3,2.9-0.6,4.3-0.9c-0.5-0.6-0.9-0.8-1.4-0.8
			c-5.1,0-9.6-2.1-14.2-4.1c-0.5-0.2-1.1-0.4-1.3-0.8c-0.7-1.9-2.4-2.3-4-2.7c-0.7-0.2-1.4-0.2-2-0.4c-0.9-0.3-1.1-1-0.9-1.9
			c0.2-1,0.9-1.1,1.8-0.9c0.6,0.2,1.1,0.3,1.7,0.5c4.9,1.7,9.8,3.5,14.7,5.2c1.9,0.7,3.9,1.1,5.9,1.7c0.9,0.2,1.9,0.3,2-0.8
			c0.1-1.1-0.9-1-1.6-1.2c-6-1.9-12.1-3.6-18-5.8c-7.2-2.7-14.4-4-22.1-2.8c-1.9,0.3-3.9,0.6-5.8,0.9c-0.3-0.4-0.5-0.8-0.8-1.2
			c-1.4,0.6-2.7,1.2-4,1.7c-1.2-2.3-0.1-4.1,0.3-6c0.7-2.9,2.7-4.3,5.5-4.6c5.7-0.6,11.3-1.3,17.1-0.7c7.6,0.8,15.1,1.9,22.2,4.8
			c0.8,0.3,1.8,0.5,2.9,0.8c0.1-0.8,0.4-1.5,0.3-2.1c-0.5-2.5-1.5-4.9-3.4-6.7c-3.1-3-6.9-4.2-11-4.9c-6.8-1.1-13.5-0.3-20,1.3
			c-4.2,1.1-8.4,2.4-12.6,3.3c-4.5,1-9,2.3-13.6,1c-0.5-0.1-1.1,0.2-1.7,0.2C303,330.5,303,330.5,306.4,333z M312.7,417.7
			c0,3.1,0.3,6,1.5,8.8c2.1,5.2,5.5,9.6,9.2,13.7c4.3,4.8,9.7,8.3,14.4,12.6c0.7,0.6,1.5,1.7,3.2,1.2c-0.9-1.1-1.6-2.1-2.4-2.8
			c-4.6-4.2-8.1-9.1-11.3-14.4c-2.9-4.8-5.9-9.5-8.9-14.3c-0.6-0.9-1.5-1.7-1.9-2.7C315.7,418.2,314.5,417.8,312.7,417.7z
			 M295.5,343.8c-0.3-0.7-0.6-1.2-0.9-1.7c-1.5-2.6-2.8-5.2-3.2-8.3c-0.4-3.1-1-6.2-1.7-9.3c-0.2-0.8-0.6-1.6-1.1-3
			c-1.2,1.9-2.2,3.2-2.7,4.6c-0.8,2.1-1.7,4.3-1.9,6.5c-0.4,5.1,2.9,8.3,6.9,10.7C292.2,344.1,293.7,344.6,295.5,343.8z"/>
		<path class="st0" d="M165.3,321c0.3,3.7,0.6,7.2,0.9,11.1c-1,0.2-1.8,0.4-2.6,0.4c-3.4,0.2-6.1,2.7-6.8,6.8c-0.6,3.3-0.2,6.4-0.1,9.7
			c0.1,7.3,0.3,14.7,0.4,22c0,2.6,0.6,5,1.4,7.5c3.8,11.6,7.8,23.1,9.6,35.3c0.7,4.6,1.8,9.1,4.2,13.1c0.7,1.2,1.7,2.4,2.7,3.3
			c1,1,2.3,1.4,3.8,0.9c1.8-0.5,2.2-0.2,2.6,1.7c0.7,3.8,1.4,7.6,2,11.3c1.4,8.4,3.6,16.5,6.2,24.5c3,9.2,7.1,17.9,12,26.3
			c2.5,4.3,4.8,8.6,7.9,12.5c1.5,1.9,3,3.7,4.6,5.4c3.4,3.5,6.8,7,10.3,10.3c3.6,3.4,7.4,6.5,11.1,9.8c0.9,0.8,1.7,1.7,2.6,2.5
			c0.8,0.7,1.7,1.4,2.9,1.8c-0.2-0.5-0.4-1-0.5-1.5c-0.6-2-1.4-4-1.9-6.1c-0.5-2.1-0.5-4.2,0.3-6.3c1.4-4,2.7-8.1,5.5-11.5
			c1.2-1.5,1.9-3.4,3-5.3c0.8,1.5,0.5,2.9,0.2,4.2c-0.8,3.9-1.7,7.8-2.7,11.7c-0.6,2.2-0.8,4.3-0.2,6.6c0.8,3,1.4,6,2.3,8.9
			c1.3,3.8,3.7,6.6,7.7,7.9c4.1,1.3,8.1,2.5,12.5,2.7c2,0.1,3.9,0.4,5.9,0.6c0.9,0.1,1.9,0.1,2.8,0c4-0.7,8-0.4,12,0.4
			c3.2,0.6,6.4,1.1,9.6,1.5c5.8,0.8,11.4-0.1,16.9-1.8c2.8-0.8,5.3-2.3,7.7-3.8c9.2-5.9,17.5-12.7,25.1-20.5c2.9-3,6-5.8,8.8-8.9
			c7.1-7.7,14.4-15.3,19.9-24.3c3.8-6.2,6.4-12.8,8-19.8c2.9-12.4,5-25,6.2-37.6c0-0.3,0.2-0.6,0.3-1.1c0.6,0.2,1.2,0.3,1.7,0.5
			c2.9,0.9,5.4,0.3,7.6-1.8c2.2-2.1,3.4-4.9,4.6-7.6c2.9-6.5,4.5-13.4,6-20.4c1.5-6.9,3.2-13.6,5.7-20.2c2.1-5.6,3.3-11.5,3.9-17.5
			c0.3-2.6,0.3-5.4-0.4-8c-0.9-3.5-0.2-6.9,0.5-10.4c0.6-2.8,1.3-5.7,1.7-8.5c0.2-1.7,0.1-3.6-0.3-5.3c-0.6-3-3.4-4.4-6.3-3.2
			c-1,0.4-1.9,1.1-2.8,1.7c-0.4,0.3-0.8,0.5-1.6,1.1c0-1.1-0.2-1.8-0.1-2.5c0.3-2.1,0.7-4.2,0.9-6.3c0.3-2.4,0.4-2.6,3-2.7
			c0.3,0,0.6-0.1,1.1-0.1c-0.5-1.7-1.6-2.8-2.9-3.7c-1.8-1.1-3.7-2.3-5.6-3c-8.3-3.2-16.9-5.2-25.9-5.9c-7.4-0.6-14.8-1.8-22.1-2.7
			c-12.2-1.5-24.5-2.8-36.8-2.9c-6.6,0-13.1,0.7-19.7,1.1c-1,0.1-2,0-3.5,0c0.7-0.8,1-1.2,1.3-1.5c1.8-1.8,3.7-3.5,5.4-5.4
			c0.9-1,1.9-1.7,3.1-1.3c3.3,1.1,6.6-0.1,9.9-0.1c1.6,0,3.2,0,4.9,0c4,0.1,8,0.4,12,0.5c17.3,0.4,34.4,2.3,51.4,5.9
			c8.2,1.7,16.3,3.6,24.5,5.5c2,0.5,3.9,1.3,5.8,2.1c2.7,1.2,3.7,3.5,3.3,6.4c-0.4,2.7-2.2,4.3-4,6c-0.4,0.4-0.9,0.7-1.5,1.2
			c1.9,1.1,3-0.8,4.6-0.7c-0.7,2.4,0.5,4.3,1.8,6.3c3,4.6,2.9,4.6,2.3,10c-0.8,6.9-1.7,13.7-2.4,20.6c-0.3,3.2-0.3,6.5-0.6,9.7
			c-0.4,4.5-1.5,8.7-3.1,12.9c-2.5,6.5-4,13.2-5,20.1c-0.7,5.1-2.1,10-3.9,14.8c-1.4,3.7-2.9,7.5-4.5,11.2c-0.6,1.3-1.5,2.5-2.6,3.3
			c-2.2,1.7-4.3,3.6-7.2,4.3c-0.9,0.3-1.8,1.3-2.3,2.3c-0.7,1.4-1.1,3.1-1.4,4.6c-0.6,3.7-1,7.4-1.5,11.2c-0.5,3.6-0.8,7.1-1.5,10.6
			c-0.8,3.9-1.9,7.8-3.2,11.6c-1.5,4.3-3.3,8.4-5.1,12.6c-0.4,0.8-1,1.6-1.5,2.4c-7.7,11.2-16.6,21.5-26,31.4
			c-5.5,5.8-11.2,11.3-17.5,16.2c-3.5,2.7-7.3,5-11,7.5c-1.6,1.1-3.2,2.2-4.9,3.2c-5.7,3.2-12.1,3.2-18.4,3.6
			c-4.2,0.2-8.4,0.3-12.5-0.9c-1-0.3-2-0.3-3-0.4c-2.2-0.1-4.4-0.2-6.6-0.1c-1.9,0.1-3.7,0.3-5.6,0.6c-5.5,0.8-10.7-0.2-15.7-2.4
			c-7.4-3.1-13.8-7.8-20.2-12.5c-4.4-3.3-8.6-6.8-12.6-10.5c-3.1-2.9-5.7-6.3-8.8-9.3c-7.5-7.4-12.8-16.4-18-25.4
			c-2.3-4-3.7-8.6-5.4-13c-1-2.4-1.9-4.8-2.7-7.2c-0.4-1.3-0.6-2.8-0.9-4.2c-0.1-0.7-0.3-1.3-0.5-2c-1.7-5.5-3.5-10.9-5.2-16.4
			c-0.8-2.5-1.5-5.1-2.3-7.6c-0.9-2.8-2.6-5-5.1-6.5c-1.4-0.8-2.3-2-2.8-3.5c-0.3-0.7-0.6-1.4-1-2.1c-3.5-6.4-5.4-13.2-6.7-20.3
			c-1.4-7.5-3.6-14.8-6.6-21.8c-2.1-4.9-3-10.1-2.9-15.5c0.1-8.9-0.5-17.7-1.5-26.6c-0.3-3.3,0-6.6,0.4-9.9c0.3-2.6,2.5-3.9,4.6-5.1
			c0.4-0.3,1-0.3,1.4-0.6c1.3-0.7,2.1-1.7,2-3.3c-0.1-1.4-1.2-2.8-2.8-2.9c-2.2,0-3.8-1.2-5.6-2.2c-2.6-1.4-3.8-3.7-4.4-6.3
			c-0.6-3.1-0.5-6.3,1.2-9.2c0.9-1.6,1.8-3.3,2.5-5.1c1.4-3.4,1.7-6.8,0.1-10.2c-0.4-0.9-1.3-1.8-2.2-2.3c-1.4-0.9-2.3-2-2.7-3.5
			c-0.9-3.4-0.5-6.6,1.6-9.5c1-1.4,2-2.8,3.2-4c2.2-2.1,2.9-4.8,2.8-7.7c-0.3-7.9-0.6-15.9-1.1-23.8c-0.4-6.7-0.4-13.3,0.2-20
			c0-0.3,0-0.7,0.1-1c1.8-3,1-6.3,0.9-9.5c-0.1-4.6-0.2-9.2-0.4-13.8c-0.1-2.7-0.4-5.4-0.5-8.2c-0.1-0.9-0.1-1.9,0-2.8
			c0.6-10.1,1.1-20.1,1.9-30.2c0.5-5.4,1.4-10.8,2.4-16.2c1.1-6.2,2.6-12.4,3.6-18.6c2.1-13,6.4-25.3,10.8-37.6
			c2.5-6.9,6.9-12.9,11.2-18.9c3-4.2,6.4-8,10.2-11.4c2.5-2.2,4.8-4.6,7.1-7C209.5,37.8,218,32,228,28.6
			c13.2-4.6,26.6-8.3,40.3-10.6c1.1-0.2,2.4,0,3.5,0.1c0.6,0,1.2,0.2,1.8,0.2c3.2-0.2,6.5-0.3,9.7-0.6c1.3-0.1,2.6-0.7,3.9-1
			c0.4-0.1,0.8-0.5,1.2-0.4c3.9,0.2,7.5-1.4,11.4-1.2c2.8,0.1,5.6,0.6,8.4,0.9c6.1,0.7,12.2,1.4,18.3,2.1c1.4,0.2,2.9,0.4,4.2,0.9
			c8.3,3.2,16.6,6.4,24.8,9.7c8,3.2,14.7,8.3,19.8,15.3c4.2,5.8,8.1,11.9,12.3,17.7c5.3,7.3,8.7,15.6,13.3,23.3
			c1.9,3.1,2.8,6.3,3.8,9.7c2.2,8.1,4.3,16.2,6.5,24.2c2.5,9,4.2,18.2,5.3,27.5c0.1,0.6,0.3,1.3,0.1,1.8c-0.9,2.1-0.2,4.2,0,6.3
			c0.4,4.3,0.8,8.7,1,13c0.3,5,0.5,10.1,0.7,15.1c0,0.6,0,1.2-0.4,1.8c-0.1-1-0.4-1.9-0.4-2.9c-0.3-15.5-2.4-30.8-5-46.1
			c-1-5.6-1.9-11.3-2.9-16.9c-0.2-1.3-0.4-2.5-1.5-3.4c-0.4-0.4-0.6-1.2-0.7-1.9c-3.6-13.2-8.3-26-14.7-38.2
			c-4.5-8.6-9.6-16.9-15.9-24.4c-2.9-3.4-5.9-6.9-9.1-10c-5.4-5.3-11.6-9.5-18.6-12.4c-4.3-1.8-8.5-3.6-12.8-5.3
			c-1.2-0.5-2.4-0.9-3.7-1.1c-6.5-0.9-13-1.8-19.5-2.6c-7-0.8-14,0.1-20.8,2c-1.3,0.4-2.6,0.3-4,0.2c-9-1.1-18-1.4-27,0.3
			c-8.2,1.5-16.2,3.5-24.1,6.1c-6.4,2.1-12.5,5.2-18.1,8.8c-5.1,3.3-10,6.8-14.7,10.7c-3.5,2.9-6.5,6.6-9.6,9.9
			c-5.5,5.9-9.9,12.6-14.5,19.2c-5.4,7.8-8.8,16.6-11,25.8c-1.3,5.3-2.1,10.7-3.2,16c-1,4.6-2.2,9.1-3.2,13.7
			c-1.1,4.9-2.2,9.8-2.9,14.8c-0.5,3.4-0.3,6.9-0.4,10.4c-0.1,1.4-0.2,2.7-0.3,4.1c-0.2,1.7-0.5,3.4-0.5,5.1
			c0.2,14.8,0.4,29.6,0.8,44.3c0.1,5,0.2,10-0.8,14.9c-0.1,0.7,0,1.5,0,2.3c0.1,7.4,0,14.9,0.2,22.3c0.2,5.8,0.6,11.6,0.9,17.4
			c0.1,1,0.4,2,1,3c0-0.7-0.1-1.5-0.1-2.2c-0.8-9-1.1-18.1-0.4-27.1c0.2-2.6,0.6-5.3,1.2-7.8c1.2-5.4,2.4-10.9,4-16.2
			c1.4-4.6,3.4-8.9,5-13.4c3.8-10.5,10.9-19,17.4-27.9c5.1-6.8,10.9-12.9,17.5-18.3c2-1.7,3.6-3.9,5.8-5.4c4.3-3,8.5-6,13.2-8.4
			c13.6-6.8,28-10.3,43.2-10.1c0.9,0,1.7,0.1,2.6,0.2c0.8,0.1,1.5,0.1,2.3,0.2c1.9-3.2,4.8-4.6,8.3-5c2.6-0.2,4.9,0.6,7,2.1
			c0.7,0.5,1.3,0.9,2.3,0.6c4.3-1.4,8.6-0.9,12.9-0.4c12.5,1.3,24.1,5.6,35.5,10.6c16.7,7.3,30.6,18.2,41.7,32.7
			c0.5,0.7,1,1.4,1.6,2c5.3,5.6,9.4,11.9,13,18.7c8,15.3,13.1,31.5,14.3,48.8c0.6,8.5,0.7,17.1,0.4,25.6c0,0.8-0.2,1.6-0.3,2.4
			c-0.2,0-0.5,0-0.7,0c-0.2-0.9-0.4-1.7-0.5-2.6c-0.3-4.9-0.7-9.7-0.8-14.6c-0.5-13.8-2.8-27.3-7.2-40.5c-1.3-4-2.9-7.8-5-11.5
			c-6.5-11.4-14.1-22-23.1-31.6c-4.5-4.7-8.7-9.6-13.4-14.1c-7.7-7.2-16.9-12.1-26.8-15.8c-7.6-2.9-15.2-5.6-23.3-6.9
			c-5.7-0.9-11.5-1.5-17.3-1.3c-0.4,0-0.8,0.1-1.4,0.2c-0.1,0.9-0.2,1.9-0.3,2.8c-1.1,21-2.2,42-3.3,63c-0.5,9.6-1.1,19.1-1.5,28.7
			c-0.1,4.2,0.3,8.5,0.4,12.8c0.9,0.3,1.6,0.5,2.4,0.7c8.6,2.7,15.1,8,19.7,15.7c3.1,5.1,4.2,10.8,4.8,16.6c0.2,2,0.1,4.1-1.1,5.4
			c0.1,1.2,0.3,2.1,0.1,2.8c-1.4,5.8-4,11-8.1,15.5c-6.2,6.9-14,10.6-23.1,11.2c-3.2,0.2-6.6-0.4-9.8-1.1
			c-6.1-1.3-11.3-4.3-15.7-8.7c-5.5-5.5-9-12.2-9.9-20.1c-1.2-10.9,2-20.3,9.6-28.3c4.3-4.5,9.4-7.5,15.5-9.3
			c0.1-0.9,0.1-1.9,0.2-2.8c0.6-19.9,1.2-39.8,1.7-59.7c0.1-3.4-0.3-6.8-0.2-10.2c0.1-8.7,0.4-17.4,0.6-26.1c0.1-2,0.2-3.9,0.3-6
			c-0.6-0.1-1.1-0.2-1.6-0.2c-14.5,0.8-28.6,3.6-42.1,9.3c-1.6,0.7-3,1.6-4.4,2.6c-9,6-17,13.2-24.7,20.7
			c-13.6,13.3-23.4,29-29.9,46.9c-2.7,7.5-5.1,15.1-6,23c-0.5,4.2-0.6,8.5-0.7,12.8c-0.2,5.7-0.2,11.4-0.3,17.2
			c-0.1,3.4-0.3,3.5-3.5,4.8c-2,0.8-4.1,1.8-5.8,3.2c-2.9,2.4-3.8,6.4-1.8,9.7c0.8,1.3,2.1,2.4,3.3,3.4c0.7,0.6,1.1,1.2,1.2,2.1
			c0.2,3.2,0.4,6.5,0.6,9.7c0,0.4-0.2,1.2-0.5,1.3c-2.3,1.1-2.8,3.4-3.6,5.4c-1.1,2.6-1,5.4,0.1,8c0.4,1.1,1.1,2.3,2,2.8
			C157.5,321,161,322.2,165.3,321z M278.1,248.2c-8.4,0.6-15.5,3.7-20.2,11c-1.1,1.7-2.2,3.5-3.3,5.2c-1.2,1.7-0.8,3.8-1.2,5.6
			c-0.5,2.3-0.5,4.5-0.1,6.8c0.4,2.3,0.9,4.5,1,6.8c0.3,4,2.2,7.1,5,9.8c1.9,1.8,3.8,3.3,6.3,4.3c2.5,1,5,2.2,7.6,3
			c1.8,0.6,3.7,0.9,5.5,0.8c7.4-0.6,13.8-3.5,18.6-9.5c4.1-5.3,6-11.4,5.9-17.9c-0.1-5-1.5-9.9-4.4-14.3
			C293.7,252.4,286.9,248.7,278.1,248.2z M277.9,239.8c0.6-2,4.9-105.1,4.4-107.3c-1.8-0.3-3.3,0.5-4.9,1.1c-2,0.7-2.9,2-2.9,4.3
			c-0.1,7.9-0.4,15.7-0.7,23.6c-0.8,25.4-1.5,50.9-2.3,76.3c0,0.9,0,1.8,0,2.8C273.9,240.3,275.9,240.1,277.9,239.8z"/>
		<path class="st0" d="M207.7,400.6c-0.1,0.5,0,1-0.2,1.4c-3.6,8.3-3.5,16.8-1.1,25.3c1.4,4.9,2.9,9.8,4.2,14.8c1.3,5,0.5,10,0.2,15
			c-0.1,1.1-0.3,2.3-0.2,3.5c1.6-1.1,2.3-2.7,2.6-4.4c0.4-2.4,0.9-4.9,1.1-7.3c0.6-7.4,0.9-14.8,0.5-22.3
			c-0.5-9.9,1.3-19.4,4.9-28.6c3.9-10.1,10.9-17.6,20.4-22.8c0.2-0.1,0.5-0.1,0.9-0.1c-0.1,0.4-0.1,0.8-0.3,1
			c-7.6,9.1-10.9,19.9-12.8,31.4c-0.6,3.6-0.8,7.2,0,10.7c0.5,2.1,1.3,4.3,2.5,6.1c2.5,3.9,6.1,4.8,10.2,2.7
			c5.4-2.8,9.7-6.7,11.8-12.6c1.2-3.3,2.2-6.7,3.2-10c0.2-0.8,0.1-1.8,1.3-2.1c1,0.7,0.7,1.8,0.7,2.7c0,7.7-1.4,15.1-4.8,22.1
			c-3.5,7.1-8.2,13.4-13.4,19.3c-3.3,3.8-6.1,7.8-8.1,12.3c-0.5,1.1-0.8,2.2-0.9,3.5c0.4-0.4,0.8-0.7,1.1-1.2
			c5.1-6.6,11-12.2,18.6-15.7c4.8-2.2,8.6-5.5,11.8-9.5c0.3-0.4,0.7-0.7,1.1-1.1c0,0,0.2,0,0.5,0c-0.2,0.7-0.4,1.3-0.6,1.8
			c-4.3,9.5-10.7,17.6-17.9,25.1c-3.7,3.9-7.2,8-10.7,12.1c-3.5,4.2-6.3,8.9-8.9,13.8c-0.1,0.2-0.1,0.5-0.1,1c0.7-0.6,1.2-1,1.7-1.4
			c2.9-2.7,5.9-5.5,8.8-8.2c3.1-2.9,6.7-5,11-5.7c1.2-0.2,2.5,0,3.9,0c-0.2,0.4-0.3,0.8-0.4,0.8c-4.7,1.9-8,5.5-11.1,9.2
			c-5.6,6.5-9.5,14-11.9,22.2c-0.6,2-1,4.2-0.9,6.3c0.1,4.1,1.5,7.8,4.1,11c1.2,1.5,2.4,3.1,3.5,4.7c0.1,0.2,0,0.6,0,1.3
			c-0.7-0.5-1.2-0.7-1.6-1.1c-2.9-2.7-5.8-5.5-8.7-8.3c-1-1-1.7-2.4-3.2-2.8c-0.1,0-0.3-0.2-0.4-0.3c-1.8-3.3-5.1-5.3-7.3-8.2
			c-2.2-2.9-4.5-5.8-6.5-8.8c-3.8-5.6-6.5-11.8-9-18c-6.1-14.9-9.9-30.3-13.5-45.9c-2.9-12.5-3.7-25.2-5-37.8
			c-0.9-8.8-1.7-17.5-2.5-26.3c0-0.2,0-0.5,0.1-1.2c0.9,0.9,1.5,1.6,2.1,2.3c1.2-0.3,1.1-1.3,1.1-2.1c0.2-2.4,0.4-4.8,0.4-7.2
			c0.3-9.4,0.4-18.8,1.8-28.1c0.5-3.2,1-6.4,1.6-9.6c0.5-2.3,2.1-4,3.2-6.1c1.2,0.8,0.8,1.6,0.6,2.4c-0.2,1.1-0.4,2.2-0.4,3.3
			c0.2,6.4,0.5,12.8,0.8,19.2c0.3,6.4,2.1,12.5,3.8,18.5c1,3.6,1.3,6.9,0.4,10.5c-1.2,4.8-1.7,9.7-1.5,14.7
			c0.3,4.5,0.3,9.1,0.3,13.6c0,4.8,0.4,9.6,1.5,14.2c1.4,5.9,1.9,12,2.9,17.9c1.4,9,3.1,18,6,26.7c0.6,1.9,1.5,3.8,2.3,5.7
			c0.4,0.8,1,1.5,1.7,2.1c0-3.9,0-7.7-1-11.4c-1.8-6.5-3.6-13-5-19.6c-1.6-7.4-1.6-14.9,0.4-22.3c1.2-4.7,3.6-8.8,6.1-12.9
			c0.3-0.6,1-1,1.5-1.4C207.4,400.5,207.6,400.6,207.7,400.6z"/>
		<path class="st0" d="M410.8,207.1c-2.6-0.9-3.1-1.7-3.3-4.3c-0.6-6.7-1-13.5-2.1-20.1c-1.5-9.5-3.4-19-5.5-28.4c-2.7-12.2-5.4-24.3-8.8-36.3
			c-4.7-16.7-11.4-32.7-19.9-47.9c-4.6-8.2-11-14.7-17.6-21.1c-2.4-2.3-5-4.4-7.5-6.5c-4.6-4-10.1-6.3-16.1-7.4
			c-1.9-0.4-3.8-0.8-5.6-1.4c2.1-0.8,4.1-0.4,6.1-0.2c1.3,0.1,2.5,0.5,3.7,0.8c13.3,3.9,24.6,11,34.2,20.7c2.5,2.5,4.6,5.5,6.6,8.5
			c6.8,9.8,11.8,20.6,16.2,31.6c1.4,3.6,3.1,7.2,4.6,10.8c0.4,1,0.6,2.1,0.8,3.2c0.2,0.9,0.4,1.8,0.7,2.7
			c5.4,14.8,8.9,30.1,11.1,45.7c1.1,7.5,1.6,15.1,1.7,22.7c0.1,5.3,0,10.5,1.1,15.7c0.2,1-0.1,2.2-0.1,3.3c0,1.1,0.2,2.2,0.2,3.3
			C411.5,203.9,412.1,205.6,410.8,207.1z"/>
		<path class="st0" d="M390.7,429.6c0.4-4.7,0.6-9.4,1.1-14c1.4-12,2.9-23.9,4.4-35.9c0.1-1.1,0.5-2.2,0.8-3.2c4.4-12.7,9.1-25.4,12.2-38.6
			c0.4-1.6,1.2-2.8,2.5-3.7c1.1-0.7,2.1-1.4,3.3-2c2-1,3.5-0.4,4.2,1.7c1,3,0.9,5.8-1.4,8.3c-1.3,1.4-2.4,2.9-3.6,4.3
			c-2.5,2.9-1.8,5.9-0.2,8.8c0.9,1.6,2,3.1,3.4,4.4c1.6,1.5,1.6,3.8,1.4,6c-0.8,7.3-3.3,14.1-6.2,20.8c-1.6,3.7-2.7,7.6-3.5,11.5
			c-1.8,8.3-3.7,16.7-6.6,24.7c-0.9,2.4-2,4.7-3.2,6.9c-1.2,2.1-3.1,3.4-5.7,3.3C391.4,432.9,390.5,431.9,390.7,429.6z M395.3,413.1
			c0.2,0,0.4,0,0.6,0c0.1-0.4,0.4-0.7,0.4-1.1c1-6.3,3.4-12.2,6.6-17.6c2.6-4.4,3.7-9.1,4.2-14.1c0.1-1.2,0.3-2.5-0.8-3.7
			c-0.2,0.6-0.5,0.9-0.6,1.3c-0.4,5.4-2.6,10.3-5.3,14.8c-2.7,4.4-4.5,9.2-5.5,14.2C394.5,409,394.7,411.1,395.3,413.1z"/>
		<path class="st0" d="M382.2,200c1.8,0.4,2.5,1.6,2.9,2.7c0.7,2.2,1.4,4.4,1.9,6.6c0.4,1.8,0.7,3.7,1.1,5.7c2.7-0.6,3.4,1.3,3.9,3.3
			c0.5,2.3,0.9,4.7,1.3,7.2c2.7,0.8,2.4,3.5,3.1,5.5c0.8-0.1,1.9-0.5,2.3-0.1c0.6,0.5,1.2,1.6,1.2,2.4c0,4.3-0.1,8.7-0.2,13
			c0,2.2,0,4.4,0,6.6c0,1.9,0.2,3.8,0.2,5.6c0,0.8-0.3,1.6-0.4,2.3c-0.2,0-0.4,0-0.5,0c-0.3-0.7-0.7-1.4-1.1-2.2
			c-0.4,0.6-0.8,1.1-1.2,1.7c-0.3-0.3-0.6-0.5-0.6-0.6c0-1.9,0.2-3.7,0.2-5.6c0-1,0-2,0-3.3c-0.5-0.1-1.1-0.2-2-0.4
			c-0.2-3.4-0.4-6.9-0.6-10.3c-0.1,0-0.2,0-0.3,0c-0.3,1.5-0.7,3-1,4.5c-0.2,0-0.4,0-0.6,0c-0.1-0.7-0.3-1.3-0.4-2
			c-0.3-3.7-0.5-7.3-0.8-11c-0.1-1.1-0.1-2.2-1.2-3.2c-0.2,1.5-0.3,2.8-0.5,4.1c-0.2,0-0.5,0-0.7,0c-0.2-0.8-0.5-1.5-0.7-2.3
			c-0.5-2.9-1-5.7-1.5-8.6c-0.2-1.1-0.6-2.2-1.2-3.2c-0.5,2.2,0.6,4.4-0.5,7c-1.5-2.2-1.6-4.3-2.2-6.3c-0.6-2-1.1-4-1.6-6
			c-0.6,0-1,0-1.6,0c-2.3-4.6-3-10-6.1-14.4c0,0.9,0,1.7,0,3.2c-1.9-2.4-2.4-4.9-3.9-7.3c-0.1,0.6-0.2,0.8-0.3,1.1
			c-0.1,0.2-0.2,0.4-0.6,1c-0.5-1-1-1.8-1.4-2.6c-2.6-6.3-6.8-11.6-10.8-17c-0.6-0.8-1.3-1.6-2.1-2.2c-0.3-0.3-1-0.6-1.3-0.5
			c-1.5,0.6-2.2-0.4-3-1.3c-0.6-0.7-1.1-1.5-1.6-2.3c-0.7-1-1-2.2-2.8-2.1c-0.7,0-1.7-1.1-2.3-1.9c-1.9-2.9-4.5-4.9-7.3-6.7
			c-6.8-4.4-13.6-8.8-20.5-13.2c-2.6-1.7-5.5-2.7-8.5-3.5c-3.2-0.9-6.4-1.8-10-2.8c0.6-0.6,1-1.2,1.4-1.2c1.3-0.1,2.8-0.4,4-0.1
			c3.9,0.9,7.8,2,11.6,3.1c1,0.3,1.9,0.6,3.3,1.1c-0.7-1-1.2-1.6-1.6-2.2c0.1-0.1,0.2-0.3,0.4-0.4c3.8,2,7.1,4.8,10.4,7.5
			c0.8-0.5,1.6-1.3,2.3-1.3c0.7,0,1.4,0.8,2,1.4c0.8,0.8,1.4,1.6,2.8,1.2c0.5-0.1,1.3,0.4,1.8,0.8c2.7,2.3,5.3,4.8,7.4,7.7
			c0.6,0.8,1.2,1.8,2,2.3c1,0.6,2.4,0.7,3.4,1.2c1,0.5,1.1,2.1,2.6,2.2c0.7,0,1.4,0.7,1.9,1.2c1.1,1,1.8,2.7,3.8,2.5
			c0.6,0,1.3,1,1.8,1.7c0.6,0.9,1.1,1.9,1.7,2.9c0.6,1.1,1,2.2,2.7,2.4c0.8,0.1,1.6,1.2,2.2,2c0.9,1.3,1.5,2.7,2.3,4.2
			c1.4-0.8,2.4,0,3.1,1.2c1.3,2.2,2.4,4.5,3.6,6.8c0.6,1.1,0.6,2.7,2.6,2.6c0.5,0,1.1,1,1.4,1.7c0.9,1.9,1.6,3.8,2.4,5.7
			c0.5,1.1,1,2.3,1.7,3.9C381.9,201.6,382,200.9,382.2,200z"/>
		<path class="st0" d="M420.9,288.7c-1.8-1.7-3.9-1.7-6-2.1c-4-0.8-8-1.9-12-2.7c-25.2-5.3-50.6-7.4-76.4-6.1c-3.6,0.2-7.1,0.7-10.7,1.2
			c-1.6,0.2-2.5-0.3-2.1-1.6c0.6-2.1,0.3-4-0.1-6c-0.1-0.5,0.2-1,0.3-1.7c0.8-0.1,1.5-0.2,2.2-0.2c16.9-0.5,33.8-0.6,50.7,0.5
			c8.7,0.6,17.3,1.7,26,2.6c3.7,0.4,7.5,0.9,11.2,1.4c1.2,0.2,2.4,0.6,3.2,0.9c1.2,0,2.1-0.1,2.9,0c3.3,0.5,6.4,1.9,9.3,3.5
			c1.6,0.8,2.4,2,2.6,3.8C422.2,284.3,422.1,286.5,420.9,288.7z"/>
		<path class="st0" d="M168.7,310c-0.3,0.3-0.8,1-1.3,1.4c-0.7,0.5-0.7,1.1-0.8,1.9c-0.3,2.4-0.8,4.7-1.3,7.3c-2.2-0.6-4-1.1-5.9-1.6
			c-4.3-1.2-5.8-4.7-5.5-8.7c0.3-4.8,1.2-6,5.9-6.9c7.4-1.4,14.8-2.5,22.3-3.5c13.1-1.7,26.2-1.9,39.4-2.3c8.1-0.2,16.2,0.7,24.3,1
			c1.4,0.1,2.8-0.3,4.3-0.5c2.8,2.5,5.7,5.1,8.7,7.8c-1.3,0.9-2.8,0.8-4.1,0.7c-5.4-0.2-10.7-0.5-16.1-0.7c-4-0.2-8-0.4-12-0.5
			c-3.5,0-7,0.2-10.5,0.4c-13.3,1-26.6,2.1-39.9,3.1c-1.2,0.1-2.4,0.4-3.5,0.5C171.4,309.9,170.3,310,168.7,310z"/>
		<path class="st0" d="M160.3,345.1c0.8,3,1.3,6-0.4,9.4c-0.3-0.9-0.5-1.3-0.6-1.7c-0.6-4.4-0.9-8.8-0.3-13.3c0.5-3.6,2.3-5.5,5.8-6.1
			c1-0.1,1.5,0.2,1.6,1.2c0.5,3,1.1,6,1.6,9.1c0.3,1.7,0.4,3.4,0.7,5.1c0.3,1.7,0.8,3.3,1.3,5.1c-0.2,0.2-0.5,0.5-0.8,0.6
			c-1,0.3-1.3,1-1.2,2c0.2,2,0.5,4.1,0.5,6.1c0.1,2.4,0,4.7,0,7c-3,1.2-3.7,2.4-3.7,5.3c0.1,5.3,1.9,10,4,14.7
			c1.2,2.8,2.1,5.8,3.2,8.6c0.1,0.4,0.3,0.7,0.6,1.3c1.4-1.2,1.6-2.5,1.4-4c-0.5-4.1-2.5-7.6-4.1-11.2c-0.5-1.2-1-2.5-1.4-3.8
			c-0.5-1.6-0.8-2.9,1-4.3c0.9-0.7,1.2-2.4,1.4-3.7c0.5-3.4,1.2-6.9,0.3-10.4c-0.2-0.9,0-2,0.4-3.1c0.2,0.4,0.5,0.8,0.5,1.2
			c0.7,5.5,1.3,11,2,16.5c0.4,3.2,0.8,6.4,1.1,9.7c0.8,7.4,1.5,14.9,2.5,22.3c0.7,6,1.7,12,2.5,18c0.1,0.7-0.1,1.8-0.5,2.3
			c-0.3,0.3-1.4,0-2.1-0.2c-1.6-0.5-2.4-1.8-3.2-3.2c-2.4-4-3.5-8.3-4.1-12.8c-1.5-10.6-4.6-20.6-8.9-30.4c-1.4-3.1-2.2-6.4-3.1-9.7
			c-0.5-1.9-0.5-3.9,1.1-5.5c0.1-0.1,0.2-0.3,0.2-0.5c1.4-5.2,2.8-10.4,4.2-15.6c0.5-1.8-0.1-3.6-1.2-5.1c-0.4-0.6-1.2-1-1.8-1.5
			C160.8,344.8,160.5,344.9,160.3,345.1z"/>
		<path class="st0" d="M254.4,351c-0.8,0-1.6,0-2.8,0c2.7,2.9,3.7,6,3.5,9.7c-1.5,0.9-3,1.1-4.7,1c-4.3-0.1-8.5,0-12.8-0.1
			c-1.5,0-2.5,0.5-3.4,1.7c-1.4,1.9-3.2,3.5-4.9,5.2c-1.8,1.8-3.9,3.3-5,5.8c-0.1,0.2-0.5,0.4-1.2,0.8c-0.1-2.8,0.8-5,1.7-7
			c0.9-2.1,2.3-3.9,3.7-6c-1.5-0.4-3-0.9-4.4-1.1c-5.2-0.8-10-2.8-14.2-6c-0.8-0.6-1.6-0.7-2.6-0.4c-1.5,0.5-3,0.8-4.5,1
			c-1.1,0.2-2.2,0.3-3.2-0.9c0.6-0.3,1.1-0.6,1.6-0.7c4.9-1.1,9.6-2.9,14.1-5.2c7.8-3.8,16-5.4,24.6-3c4.1,1.2,8.2,2.3,12.3,3.4
			c0.9,0.2,1.6,0.7,2.4,1.1C254.5,350.6,254.4,350.8,254.4,351z"/>
		<path class="st0" d="M155.7,288.3c-3.1-2.7-4-7.3-2.1-10.1c0.5-0.8,1.5-1.4,2.5-1.7c2.1-0.8,4.2-1.4,6.4-1.9c10.4-2.5,20.8-5,31.4-6
			c2.2-0.2,4.4-0.5,6.6,0.1c0.9,0.2,1.9,0.2,2.7-0.2c2.8-1.2,5.7-1.1,8.5-0.5c2.8,0.6,5.5,0.8,8.4,0.5c6.1-0.7,12.3-0.5,18.4,0
			c0.8,0.1,1.7,0.1,2.5,0.4c0.4,0.2,1,0.8,1,1.3c0,1.6-0.3,3.2-0.5,4.8c-0.1,1.3-0.9,1.7-2.1,1.6c-4.1-0.2-8.2-0.3-12.3-0.5
			c-8.2-0.4-16.4-0.9-24.6-1c-4-0.1-8,0.5-12,0.8c-8.7,0.7-17.2,2.4-25.6,5c-1.5,0.5-2.9,1.1-4.3,1.7
			C158.4,283.7,155.8,284.7,155.7,288.3z"/>
		<path class="st0" d="M420.9,322.5c3.1-4.8,2.7-9.1-0.4-12.7c0.3-1.6,0.7-2.8,0.8-4c0.3-3.4,0.5-6.8,0.6-10.2c0.1-2.1,0.4-4,1.4-5.9
			c1.1-2.1,1.5-4.4,1.1-6.7c-0.3-1.8-0.9-3.3-2.8-4.2c-2.1-1-3.9-2.7-6-3.8c-1.5-0.8-3.2-1.2-4.8-1.8c1.6-9.7,1.8-19.3,2.7-28.9
			c0.8-9.4,1.7-18.7,2.4-28.1c0.6-8.6,1.1-17.2,1.7-25.8c0.1-0.9,0.2-1.8,0.4-3.1c1,1.1,0.8,2.1,0.8,3c-0.3,4.9-0.7,9.9-1.1,14.8
			c-0.2,2.5-0.7,5.1-0.8,7.6c-0.3,10.2-0.4,20.5-0.5,30.7c0,2.5,0.3,4.9,0.3,7.4c0,2,0,4-0.4,5.9c-0.8,4.1-0.7,8.1-0.5,12.2
			c0.2,3.2,1.9,5,4.8,5.9c3.7,1.2,4.8,2.7,5,6.7c0,1.2,0,2.4,0.2,3.6c0.3,2.6,0,5-0.7,7.5c-1.3,4.8-1.8,9.7-0.5,14.7
			c0.1,0.4,0.2,0.9,0.4,1.2c2.6,4.1,0.5,8.1-0.1,12.2C424.4,322.4,422.6,322,420.9,322.5z"/>
		<path class="st0" d="M415.1,299c-0.6,0-1.1,0.1-1.7,0c-13.6-2.3-27.2-4.8-41-6.2c-0.2,0-0.3-0.3-0.5-0.5c0.3-1.2,1.3-1.4,2.2-1.4
			c2.3-0.1,4.6-0.2,6.9,0c3.1,0.2,6.3,0.7,9.5,1.1c0.4-1.1,0.5-1.9-0.9-2.1c-0.1,0-0.2,0-0.3,0c-2.1-0.6-2.1-0.8-1-2.9
			c-2.3-1.2-5.2-0.5-7.3-2.1c0-0.2,0-0.4,0-0.6c0.8-0.2,1.7-0.7,2.5-0.7c1.7-0.1,3.4,0,5.1,0.2c7.5,0.9,14.8,2.4,21.9,5.2
			c1.3,0.5,2.8,0.8,3.6,2.4c-1.8,1-3.3-0.1-4.9-0.3c-1.6-0.2-3.2-0.6-4.9-0.7c1.5,0.8,3,1.5,4.9,2.6c-2.4,0.8-4.1-0.4-5.9-0.3
			c0.2,1.8,1.5,2.5,3.1,2.8c2.2,0.5,4.4,1.2,6.6,1.9c0.8,0.2,1.5,0.6,2.2,1C415.2,298.5,415.2,298.7,415.1,299z"/>
		<path class="st0" d="M264.5,360.2c0,7.9-2.1,14.9-6.9,21.1c-2.2,2.8-4.5,5.3-7.4,7.4c-1.3,1-2.5,2.2-4.2,3.7c0.3-1.5,0.4-2.8,0.9-3.7
			c1.8-3.7,3.6-7.3,5.7-10.8c1.6-2.6,3.6-5,5.4-7.4c2.1-2.7,4.1-5.5,5-8.8c0.1-0.4,0.4-0.8,0.6-1.1
			C263.7,360.3,264,360.3,264.5,360.2z"/>
		<path class="st0" d="M402.4,315.7c0.9,0.7,1.4,1,1.9,1.4c-0.3,0.7-0.5,1.3-0.8,2.1c2,0.4,0.8,1.7,0.6,3.1c1.1-1.1,1.9-2,2.7-2.8
			c0.1,0.1,0.3,0.1,0.4,0.2c-0.1,0.5-0.1,1-0.2,1.5c-0.1,0.6-0.8,1.2,0.3,1.7c0.2,0.1,0.3,0.8,0.2,1.1c-1.6,3.8-3.7,7.3-6.5,10.3
			c-0.3,0.3-0.7,0.3-1.2,0.5c-0.7-2.4,0.9-5-1-7c-2,0.9-1.8,0.9-2-1.4c-0.1-1.4,0.3-2.5,1-3.6C399.1,320.4,400.7,318.2,402.4,315.7z
			"/>
		<path class="st0" d="M407.7,301.4c-1.3-0.1-2.6-0.1-4.1-0.2c-0.1,1.3-0.8,2.1-2.3,1.9c-2.7-0.2-5.5-0.2-8.1-0.7c-2.1-0.3-2.3-1.2-0.9-3.2
			c-1.1-0.3-2.2-0.4-3.2-0.8c-0.5-0.2-1-0.8-1-1.2c0-0.4,0.6-1,1.1-1.2c0.5-0.2,1.2-0.3,1.8-0.2c5.5,0.6,10.8,2.2,16,4.1
			c0.4,0.1,0.6,0.5,1,0.8C407.9,300.9,407.8,301.1,407.7,301.4z"/>
		<path class="st0" d="M274.6,448.1c0.9,6.2-4.4,10.4-11.9,9.9C266,454,271.2,452.4,274.6,448.1z"/>
		<path class="st0" d="M397.1,342c3.8-5.3,7.6-10.5,11.8-16.3c-0.1,1,0,1.5-0.1,1.8c-2.1,5-5.2,9.4-8.8,13.5c-0.6,0.7-1.5,1.1-2.3,1.7
			C397.5,342.4,397.3,342.2,397.1,342z"/>
		<path class="st0" d="M397.2,348.3c3.9-5.2,7.6-10.1,11.4-15.1c0.1,0.1,0.3,0.1,0.4,0.2c0,0.4,0.1,0.8,0,1.1c-2.1,4.8-5.2,9-8.8,12.8
			C399.2,348.4,399,348.3,397.2,348.3z"/>
		<path class="st0" d="M166.8,318.7c2.2-0.2,4.1,0.5,6.1,1.2c0.1,1.1-2.2,1.9,0.1,3C169.6,323.3,167.6,321.8,166.8,318.7z"/>
		<path class="st0" d="M173.3,333.8c-2.6-0.1-4.7-2.2-5.3-5.1c2.4-0.9,4.7,0.6,4.8,3C172.7,332.3,173,332.9,173.3,333.8z"/>
		<path class="st0" d="M398.1,353.6c0.9-2.1,4.5-5.6,7.2-7C405,349,400.6,353.3,398.1,353.6z"/>
		<path class="st0" d="M173.7,327.1c-2.3,1-4.8,0-6.3-2.5C169.2,324.3,171.6,325.2,173.7,327.1z"/>
		<path class="st0" d="M168.9,333.6c2.3,1.5,3.8,3.1,4.7,5.5C171.3,339.2,169.4,337,168.9,333.6z"/>
		<path class="st0" d="M173.7,348.5c-2.1-0.9-3.2-2.3-3.8-4.4C172.1,344.3,173.5,345.9,173.7,348.5z"/>
		<path class="st0" d="M169.2,338.9c1.9,0.9,3,1.9,3.5,3.7C170.7,342.6,169.7,341.5,169.2,338.9z"/>
	</g>
</g>
</svg>
