<?xml version="1.0" encoding="utf-8"?>
<!-- Generator: Adobe Illustrator 18.1.1, SVG Export Plug-In . SVG Version: 6.00 Build 0)  -->
<svg version="1.1" id="图层_1" xmlns="http://www.w3.org/2000/svg" xmlns:xlink="http://www.w3.org/1999/xlink" x="0px" y="0px"
	 viewBox="0 0 612 792" enable-background="new 0 0 612 792" xml:space="preserve">
<g>
	<g>
		<path d="M146.6,668.9c-0.1-6.8,0.3-12.8,1.7-18.6c3.5-14,6.8-28.1,10.7-42c3.3-11.7,9-22.4,15.6-32.5
			c14.8-22.2,27.3-45.7,37.8-70.2c3.5-8.1,7.8-15.8,11.8-23.7c6.9-13.7,17.9-23.5,29.3-33.1c12.2-10.3,23.8-21.1,32-35.1
			c6.1-10.5,9.6-21.7,10.1-33.9c0.1-3.9,0.8-7.7,3.4-10.8c1.2-1.5,2.6-3.6,0.1-5.1c-2.6-1.6-4,0.4-5,2.3c-5,9.4-9.8,19-14.9,28.4
			c-7.8,14.5-16.1,28.6-27.4,40.8c-17.8,19.1-46.8,22.7-66.9,5.8c-2.4-2-5-3.8-8.3-1.9c-1.9,1.1-2.6,2.5-1.4,4.7
			c4.8,8.5,11.4,15.1,20.9,18.4c3.3,1.1,6.7,2.1,9.7,3.8c6.6,3.7,8.1,8.9,4.4,15.5c-3.6,6.6-9.2,11.5-14.6,16.4
			c-9.6,8.9-20.3,16.2-32.7,20.8c-9.8,3.7-17.4,10.1-22.5,19c-6.9,11.9-15.8,21.7-27.1,29.6c-6,4.2-11.5,9.3-17.2,13.9
			c-1.5,1.2-3.3,2.4-5,3.3c-9,4.3-16-0.4-15.6-10.4c0.1-3.9,1.6-7.5,3.1-11.1c7.3-19.2,19.2-35.4,32.7-50.6c3.9-4.4,8-8.6,11.9-13.1
			c1.9-2.2,3.8-4.5,2-7.5c-2-3.2-5-4.3-8.6-3.6c-2.2,0.3-4.2,1.3-5.7,2.8c-16.4,16.1-33.2,31.9-45.1,51.9
			c-3.2,5.4-5.7,10.9-7.9,16.6c-2.5,6.7-6.1,12.5-14.3,12.6c-7.7,0.2-15.8-6-18.4-13.9c-3.4-10.6-1.7-20.7,3.7-30.2
			c4.6-8.1,8.5-16.4,10.3-25.6c0.7-3.4,1.1-6.9,1.2-10.4c0.1-5.7-1.6-8.7-5.6-9.8c-4.3-1.1-9.5,1.1-11.4,5.6
			c-3.2,7.6-3.8,15.5,0.1,23.3c0.8,1.4,1.7,2.7,2.3,4.3c1.9,4.6-2.1,10.7-6.9,11.1c-1.2,0.1-2.2-0.3-2.7-1.3
			c-4.9-9.5-10.5-18.8-7.4-30.3c1.5-5.7,4-10.7,7.1-15.6c11.1-18.1,24.3-34.9,36.8-52.1c12.8-17.5,22.9-36.3,29.8-56.9
			c6.1-18.1,14.4-35.4,23.9-52.1c5.9-10.4,13.9-18.5,25.1-23.2c9.7-4,12.6-11.9,8.6-21.6c-0.9-2.2-2.1-4.4-3.4-6.3
			c-4.7-7.2-3.5-14.2,3.6-19.5c7.8-5.8,16.7-8.9,25.9-11.3c3.4-0.9,6.7-1.9,10.2-2.4c14.8-2.4,26.2-10.3,36-21.1
			c2.4-2.6,4.9-3.9,8.3-3.7c5.1,0.2,9-2.1,12.2-5.7c8.2-8.9,16.4-17.6,23.6-27.3c3.7-5,8-9.7,13.3-13.1c1.2-0.8,2.4-1.7,3.9-1.9
			c2,1.4,1.7,3.5,1.9,5.5c0.9,25.7,0.9,51.4,0.8,77c0,1.5-0.4,3.2,0.7,5c8.1-0.3,15.5-3,22.6-6.8c12.2-6.4,22.6-15.7,33.4-24.2
			c3.4-2.6,6.6-5.5,10.5-7.4c3.3-1.6,6.8-2.5,10.5-2.2c2,0.2,3.7,0.8,4,3.1c0.2,2,0,3.6-2.2,4.6c-3.5,1.4-4.9,4.3-4.4,8.1
			c0.5,3.9,3.5,5,6.8,5.7c2.8,0.5,5.6,0.4,8.4,0.1c18.4-2.1,35.8,1.6,53.2,8.1c-17.8,1.5-32.6,8.9-45.1,22.6c6.8-1,12.8-2,18.8-2.2
			c14.8-0.5,29,2,43.1,6.2c23.2,7,44.7,18.1,67.4,27c-19.9,0-39.8,0-59.7,0c0,0.7-0.1,1.1,0,1.1c11.8,7.5,22.8,16.3,35.1,23.3
			c8.1,4.6,16.8,7.3,26.1,8.2c13,1.2,24.5,6.3,35.2,13.6c11.1,7.5,20.9,16.7,31.3,25.1c1.6,1.3,2,3.1,1.5,5
			c-0.5,2.2-2.5,2.3-4.2,2.4c-3.1,0.3-5.9-0.7-8.4-2.2c-14-8.2-28.5-8-43.3-2.7c-2.6,1-5.4,1.7-7.9,3.1c-8.1,4.4-16.3,4.4-24.8,1.9
			c-6.6-2-7.8-0.9-8.3,5.9c-0.4,5.8,1.3,10.3,6,14c9,7.2,19.2,9.5,30.3,9.9c5.7,0.2,11.6,0.2,17.3-0.4c17.5-2.1,30.3,5,39.9,19.2
			c3.9,5.8,6.6,12.2,8.9,18.8c2.4,6.8,6.9,11.3,13.7,13.7c2.3,0.8,4.5,1.9,6.6,3.1c6.7,3.9,7.5,9.7,2.4,15.7
			c-2.6,3.1-6.1,5-10.1,5.4c-20.9,2.2-41.4,1.5-60.9-7.8c-7.1-3.4-13.8-7.6-19.1-13.7c-2.1-2.3-4.9-4-7.6-5.8
			c-2.1-1.4-4-0.9-5.7,1.1c-2,2.3-2.5,4.7-0.5,7.2c1.7,2.2,4.4,3.6,5.7,6c-5,5.4-7,5.7-12.6,1.9c-2.5-1.7-5-1.1-6.3,1.6
			c-0.7,1.4-1.1,3.1-1.6,4.6c-3,9.2,3.1,16.3,12.8,15.1c2.2-0.3,3.5-1.5,4.8-3.2c5.5-6.8,9.7-7.6,17.4-3.4
			c18.3,10.2,37.9,14.8,58.7,15.1c8.3,0.1,16.1-2.7,23.9-4.4c2.2-0.4,4.4-0.8,7.4-1.3c-20.5,19.8-47.2,22.5-72.7,29.7
			c8.9,3.6,16.9,6.8,24.8,10.3c11.9,5.2,22.5,12.3,29.6,23.7c3.1,5,5.5,10.3,6.7,16.2c-1.9,0.5-3-0.7-4.2-1.3
			c-23.7-12.3-49-17.3-75.5-16.2c-7.1,0.3-14.1,0.9-21.2,1c-24.5,0.1-38.9-11.6-44.5-35.5c-3.9-16.8-3.1-34-3.1-51.1
			c0-25.2,0.9-50.6-2.2-75.7c-1.6-13.4-6.7-25.6-15.7-35.8c-3-3.4-4.8-7.4-6.6-11.5c-2.3-5.1-5.6-9.3-9.8-13
			c-14.5-12.5-28.9-25-43.3-37.6c-3.2-2.7-6.9-4.2-10.7-5.2c-5.8-1.5-10.8-4.2-15.5-8c-7.2-5.8-15.5-9-24.9-8.2
			c-6.6,0.5-7.6,2.8-4.4,8.5c4.9,8.9,7,18.7,9,28.5c4.6,23.3,4,46.8,2.3,70.4c-2.3,30.9-4,62-8.9,92.6c-2.4,15.2-5.1,30.3-8.4,45.4
			c-0.3,1.6-0.7,3.4-1,5.1c1,0.1,1.2-0.5,1.4-1.1c5.2-10.8,10.4-21.7,14.6-33c1.9-4.9,3.5-9.8,4.2-15.1c1.2-10.1,5.4-19.2,8.3-28.9
			c7.7-24.9,10.3-50.5,10.9-76.4c0.4-16.7-0.1-33.4-0.2-50.2c0-1.6-0.4-3.5,0.7-4.8c1.4-0.7,2.3,0.1,3.1,0.8c3,2.3,5,5.2,5.7,9
			c4.8,29.1,10.7,58.1,7.8,88c-0.4,5-0.1,10.2,0.4,15.2c0.7,6.2-0.4,11.9-3.3,17.5c-1.4,2.7-2.4,5.7-2.7,8.7
			c-0.2,2.5,0.1,4.8,1.6,6.8c3,0,3.4-2.3,4.2-4.3c10.4-25.5,20.8-51,31.1-76.5c0.5-1.3,1.1-2.6,1.9-4.5c2.5,2.5,3.3,5.2,4,8
			c1.6,5.7,1.1,11.4,1.1,17.2c-0.1,32.1,0,64.2-0.7,96.3c-0.7,28.4,5.6,54.9,19.8,79.5c1.4,2.4,2.4,5,2.7,8.1
			c-3.6,1.7-7.1,2.3-11.1,1.1c-29.6-8.9-59.7-9.9-90.1-5.1c-22,3.5-43.9,6.8-64.7,14.9c-23.7,9.2-46.1,21.2-67.4,35.1
			c-7.9,5.1-14.6,11.7-20.3,19.1C163.8,654.7,156.1,662.2,146.6,668.9z M109.8,349.9c0.2,18.5-2.6,37-8.6,54.8
			c-4.6,13.6-10.2,26.8-13.3,40.8c-3.1,13.2-4.5,26.6-4.5,40.1c0,2.2,0.3,4.5,3.2,4.7c2.6,0.2,3.3-1.9,3.7-3.9
			c0.7-3.6,1.4-7.1,1.6-10.7c1-13.6,5.8-24.8,17-33.4c7.6-5.9,7.8-12.3,1.9-19.9c-2.7-3.5-3.7-7-2.8-11.1
			c2.6-12.5,5.1-24.9,8.2-37.2c3-11.7,9.9-20.5,20.7-26.3c3-1.5,5.8-3.3,8.5-5.2c4.7-3.3,8.1-7.7,9.7-13.3c1.6-5.9,2.5-6.3,8.7-5.8
			c1.2,0.1,2.4,0.4,3.6,0.3c3.7-0.4,5.6,0.4,5.2,4.9c-0.3,5.1,2.2,8.4,5.4,8.6c3.3,0.2,5.7-2.4,6.3-7.9c0.7-6.3,1.1-12.8,1.1-19.2
			c0-7.4-7.2-16-14.1-16.9c-2.5-0.3-6.1-1.4-7.2,1.5c-1,2.7,2.6,3.8,4.7,5c2,1.2,4,2,3.6,5s-1,5.6-4.4,6.3c-2.3,0.5-4.6,1.2-7,1.9
			c-5.6,1.5-10.8-1-16.3-1.3c-18.7-1.3-36.8,12.1-35.2,32C109.9,345.6,109.8,347.7,109.8,349.9z M61.9,491.1
			c0.1-6.6-1.1-12.8-5.7-17.8c-2.2-2.5-4.9-4-8.4-3.7c-3.5,0.3-4.6,2.1-3.4,5.5c1,2.6,3.1,4.3,5.1,6c2,1.6,3.5,3.5,3.5,6.3
			c0.2,10.7-2.6,20.3-10.2,28.2c-1.3,1.4-2.4,3-2.6,4.8c-0.5,3.2,0.9,4.3,3.8,3.2c4.6-1.6,8.1-4.6,10.7-8.6
			C59.5,507.7,61.6,499.7,61.9,491.1z M191.7,256.4c2.3,2.7,3.5,1.1,4.7-0.4c6.1-7.4,11.9-15.1,18.9-21.7c2.3-2.2,3-5,3.2-8.1
			c0.1-1.7,0.1-3.4-1.9-3.9s-3,0.9-3.6,2.4c-0.7,1.6-1.3,3.3-2.7,4.4C201.3,236.2,197.8,247.2,191.7,256.4z M31.1,545.9
			c4.7-0.8,8.6-2.4,10.3-7.4c0.8-2.3-0.4-3.8-2-5.2c-1-1-2-1-3.2-0.2C32.6,535.2,30.1,541.3,31.1,545.9z"/>
		<path d="M125.8,342.1c-4.6-5.7-2-15.7,4.7-18.3c2.3-0.9,4.7-1,7.1-0.9c5,0.1,6.4,1.9,5.4,6.8c-0.8,3.5-3.1,5.5-6.1,6.9
			c-2,0.9-3.9,1.5-5.9,2.5C129.2,339.9,127.5,341.1,125.8,342.1z"/>
	</g>
</g>
</svg>
