<?xml version="1.0" encoding="utf-8"?>
<!-- Generator: Adobe Illustrator 18.1.1, SVG Export Plug-In . SVG Version: 6.00 Build 0)  -->
<svg version="1.1" id="图层_1" xmlns="http://www.w3.org/2000/svg" xmlns:xlink="http://www.w3.org/1999/xlink" x="0px" y="0px"
	 viewBox="0 0 612 792" enable-background="new 0 0 612 792" xml:space="preserve">
<g id="图层_1_1_" display="none">
</g>
<g id="参考系" display="none">
	<line display="inline" fill="none" stroke="#000000" stroke-miterlimit="10" x1="302.2" y1="636.4" x2="302.2" y2="99.8"/>
</g>
<g id="线稿">
	<g>
		<g>
			<path d="M305.5,178.8c-62.8,0-117.8,32.5-147.9,83.8l0,0L305.5,351l147.9-88.3l0,0C423.3,211.3,368.3,178.8,305.5,178.8z
				 M253.9,314.1c0,0,1.5-3.7,7.7-9.5c5.6-5.2,9.6-7.5,13.3-9.4l26.9,49.9L253.9,314.1z M302.7,343l-25.9-49c0,0,2.8-2.5,10.5-4.8
				c6.9-2.1,12.1-1.4,15.4-1.3V343z M307.1,287.9c4.4-0.2,8.9-0.8,15.7,1.3c7.6,2.2,10.6,4.8,10.6,4.8l-26.3,49L307.1,287.9
				L307.1,287.9z M309.3,345.1l26.9-49.9c3.7,1.7,7.8,4,13.3,9.4c6.1,5.8,7.6,9.5,7.6,9.5L309.3,345.1z"/>
			<circle fill="#00D0AA" cx="305.5" cy="262.5" r="6.2"/>
			<circle fill="#FFFFFF" cx="227.3" cy="268.7" r="15.8"/>
			<g>
				<path fill="#00D0AA" d="M312.8,202.7l-6.6,42.8c-0.3,2.4-1,2.4-1.3,0l-7.4-47.3c-0.3-2.4,1.1-4.4,3.3-4.4c2.2,0,4.3,0,4.6,0
					s2.4,0,4.6,0s3.7,2.1,3.3,4.4L312.8,202.7"/>
			</g>
			<g>
				<path fill="#00D0AA" d="M286.8,205.2l12.1,41.6c0.7,2.3,0.1,2.5-1.2,0.5l-26.6-39.7c-1.3-2-0.8-4.4,1.2-5.4c2-0.9,3.8-1.9,4.2-2
					c0.3-0.1,2.2-1,4.2-2c2-0.9,4.2,0.2,4.8,2.5L286.8,205.2"/>
			</g>
			<g>
				<path fill="#00D0AA" d="M264.4,218.5l28.6,32.6c1.6,1.9,1.2,2.3-0.9,1l-40.9-24.8c-2.1-1.2-2.6-3.6-1.2-5.4
					c1.4-1.6,2.7-3.3,3-3.5s1.5-1.9,3-3.5c1.4-1.6,3.8-1.5,5.5,0.2L264.4,218.5"/>
			</g>
			<g>
				<path fill="#00D0AA" d="M249.6,239.9l39.7,17.5c2.2,1,2.1,1.5-0.3,1.3l-47.4-5.1c-2.4-0.2-3.9-2.2-3.3-4.3
					c0.5-2.1,1.1-4.2,1.2-4.5c0.1-0.3,0.7-2.4,1.2-4.5s2.8-3.1,5-2.1L249.6,239.9"/>
			</g>
			<circle fill="#FFFFFF" cx="383.6" cy="268.7" r="15.8"/>
			<g>
				<path fill="#00D0AA" d="M324.1,205.2L312,246.8c-0.7,2.3-0.1,2.5,1.2,0.5l26.6-39.7c1.3-2,0.8-4.4-1.2-5.4c-2-0.9-3.8-1.9-4.2-2
					c-0.3-0.1-2.2-1-4.2-2c-2-0.9-4.2,0.2-4.8,2.5L324.1,205.2"/>
			</g>
			<g>
				<path fill="#00D0AA" d="M346.5,218.5L318,251.1c-1.6,1.9-1.2,2.3,0.9,1l40.9-24.8c2.1-1.2,2.6-3.6,1.2-5.4
					c-1.4-1.6-2.7-3.3-3-3.5c-0.2-0.3-1.5-1.9-3-3.5c-1.4-1.6-3.8-1.5-5.5,0.2L346.5,218.5"/>
			</g>
			<g>
				<path fill="#00D0AA" d="M361.3,239.9l-39.7,17.5c-2.2,1-2.1,1.5,0.3,1.3l47.4-5.1c2.4-0.2,3.9-2.2,3.3-4.3
					c-0.7-2.1-1.1-4.2-1.2-4.5s-0.7-2.4-1.2-4.5s-2.8-3.1-5-2.1L361.3,239.9"/>
			</g>
			<path fill="none" d="M290,288.7"/>
			<path d="M305.5,357.5"/>
			<path d="M305.5,345.6l7.9,16.8c0,0-0.8,1.4-3.3,2c-2.3,0.5-3.2-0.4-3.8-0.7L305.5,345.6z"/>
			<path d="M305.5,345.6l14.2,11.9c0,0-0.1,1.6-2.1,3.2c-1.9,1.5-3.1,1-3.7,1L305.5,345.6z"/>
			<path d="M305.5,345.6l17.9,4.8c0,0,0.5,1.5-0.5,3.8c-1.1,2.2-2.3,2.2-3,2.5L305.5,345.6z"/>
			<path d="M305.5,345.6l-7.9,16.8c0,0,0.8,1.4,3.3,2c2.3,0.5,3.2-0.4,3.8-0.7L305.5,345.6z"/>
			<path d="M305.5,345.6l-14.2,11.9c0,0,0.1,1.6,2.1,3.2c1.9,1.5,3.1,1,3.7,1L305.5,345.6z"/>
			<path d="M305.5,345.6l-17.9,4.8c0,0-0.5,1.5,0.5,3.8c1.1,2.2,2.3,2.2,3,2.5L305.5,345.6z"/>
			<path d="M326.4,357.5"/>
		</g>
		<g>
			<path d="M153.1,306.7c-62.7,0-117.7,33.6-147.8,83.8l0,0l147.9,88.3L301,390.5l0,0C270.9,340.3,215.9,306.7,153.1,306.7z
				 M101.5,442.6c0,0,1.5-3.7,7.7-9.5c5.6-5.2,9.6-7.5,13.3-9.4l26.9,49.9L101.5,442.6z M149.7,471.5l-25.6-49c0,0,2.7-2.5,10.3-4.8
				c6.9-2.1,11.9-1.4,15.2-1.3v55.1L149.7,471.5L149.7,471.5z M154.1,416.4c5.5-0.2,9.2-0.8,16.1,1.3c7.6,2.2,10.4,4.8,10.4,4.8
				l-26.4,49v-55.1H154.1z M156.9,473.6l26.9-49.9c3.7,1.7,7.8,4,13.3,9.4c6.1,5.8,7.7,9.5,7.7,9.5L156.9,473.6z"/>
			<circle fill="#00D0AA" stroke="#373023" stroke-miterlimit="10" cx="153.1" cy="390.9" r="6.2"/>
			<circle fill="#FFFFFF" cx="75" cy="397.1" r="15.8"/>
			<g>
				<path fill="#00D0AA" d="M160.4,331.2l-6.6,42.8c-0.3,2.4-1,2.4-1.3,0l-7.3-47.1c-0.3-2.4,1.1-4.2,3.3-4.2s4.3,0,4.6,0
					s2.4,0,4.6,0s3.7,1.7,3.3,4.2L160.4,331.2"/>
			</g>
			<g>
				<path fill="#00D0AA" d="M134.5,333.7l12.1,41.6c0.7,2.3,0.1,2.5-1.2,0.5l-26.6-39.7c-1.3-2-0.8-4.4,1.2-5.4c2-0.9,3.8-1.9,4.2-2
					c0.3-0.1,2.2-1,4.2-2c2-0.9,4.2,0.2,4.8,2.5L134.5,333.7"/>
			</g>
			<g>
				<path fill="#00D0AA" d="M112,346.9l28.6,32.6c1.6,1.9,1.2,2.3-0.9,1l-40.9-24.8c-2.1-1.2-2.6-3.6-1.2-5.4c1.4-1.6,2.7-3.3,3-3.5
					s1.5-1.9,3-3.5s3.8-1.5,5.5,0.2L112,346.9"/>
			</g>
			<g>
				<path fill="#00D0AA" d="M97.3,368.5L137,386c2.2,1,2.1,1.5-0.3,1.3l-47.4-5.1c-2.4-0.2-3.9-2.2-3.3-4.3c0.5-2.1,1.1-4.2,1.2-4.5
					s0.7-2.4,1.2-4.5s2.8-3.1,5-2.1L97.3,368.5"/>
			</g>
			<circle fill="#FFFFFF" cx="231.2" cy="397.1" r="15.8"/>
			<g>
				<path fill="#00D0AA" d="M171.8,333.7l-12.1,41.6c-0.7,2.3-0.1,2.5,1.2,0.5l26.6-39.7c1.3-2,0.8-4.4-1.2-5.4
					c-2-0.9-3.8-1.9-4.2-2c-0.3-0.1-2.2-1-4.2-2c-2-0.9-4.2,0.2-4.8,2.5L171.8,333.7"/>
			</g>
			<g>
				<path fill="#00D0AA" d="M194.3,346.9l-28.6,32.6c-1.6,1.9-1.2,2.3,0.9,1l40.9-24.8c2.1-1.2,2.6-3.6,1.2-5.4s-2.7-3.3-3-3.5
					c-0.2-0.3-1.5-1.9-3-3.5c-1.4-1.6-3.8-1.5-5.5,0.2L194.3,346.9"/>
			</g>
			<g>
				<path fill="#00D0AA" d="M209,368.5L169.3,386c-2.2,1-2.1,1.5,0.3,1.3l47.4-5.1c2.4-0.2,3.9-2.2,3.3-4.3
					c-0.5-2.1-1.1-4.2-1.2-4.5c-0.1-0.3-0.7-2.4-1.2-4.5s-2.8-3.1-5-2.1L209,368.5"/>
			</g>
			<path fill="none" stroke="#000000" stroke-miterlimit="10" d="M137.7,417.2"/>
			<path d="M153.1,486.1"/>
			<path d="M153.1,474.1L161,491c0,0-0.8,1.4-3.3,2c-2.3,0.5-3.2-0.4-3.8-0.7L153.1,474.1z"/>
			<path d="M153.1,474.1l14.2,11.9c0,0-0.1,1.6-2.1,3.2c-1.9,1.5-3.1,1-3.7,1L153.1,474.1z"/>
			<path d="M153.1,474.1l17.9,4.8c0,0,0.5,1.5-0.5,3.8c-1.1,2.2-2.3,2.2-3,2.5L153.1,474.1z"/>
			<path d="M153.1,474.1l-7.9,16.8c0,0,0.8,1.4,3.3,2c2.3,0.5,3.2-0.4,3.8-0.7L153.1,474.1z"/>
			<path d="M153.1,474.1L138.9,486c0,0,0.1,1.6,2.1,3.2c1.9,1.5,3.1,1,3.7,1L153.1,474.1z"/>
			<path d="M153.1,474.1l-17.9,4.8c0,0-0.5,1.5,0.5,3.8c1.1,2.2,2.3,2.2,3,2.5L153.1,474.1z"/>
			<path d="M174.2,486.1"/>
		</g>
		<g>
			<path d="M309.9,390.5L309.9,390.5l147.9,88.3l147.8-88.3l0,0c-30.1-50.3-85-83.8-147.9-83.8S340,340.3,309.9,390.5z M461.5,473.6
				l26.9-49.9c3.7,1.7,7.8,4,13.3,9.4c6.1,5.8,7.6,9.5,7.6,9.5L461.5,473.6z M461.2,416.4c3.3-0.2,8.3-0.8,15.2,1.3
				c7.6,2.2,10.4,4.8,10.4,4.8l-25.6,49V416.4z M456.8,471.5l-26.8-49c0,0,3.4-2.5,10.9-4.8c6.9-2.1,10.4-1.4,15.8-1.3v55.1H456.8z
				 M406.1,442.6c0,0,1.5-3.7,7.6-9.5c5.6-5.2,9.6-7.5,13.3-9.4l26.9,49.9L406.1,442.6z"/>
			<circle fill="#00D0AA" cx="457.8" cy="390.9" r="6.2"/>
			<circle fill="#FFFFFF" cx="535.9" cy="397.1" r="15.8"/>
			<g>
				<path fill="#00D0AA" d="M450.5,331.2L457,374c0.3,2.4,1,2.4,1.3,0l7.3-47.1c0.3-2.4-1.1-4.2-3.3-4.2c-2.2,0-4.3,0-4.6,0
					c-0.3,0-2.4,0-4.6,0s-3.7,1.7-3.3,4.2L450.5,331.2"/>
			</g>
			<g>
				<path fill="#00D0AA" d="M476.4,333.7l-12.1,41.6c-0.7,2.3-0.1,2.5,1.2,0.5l26.6-39.7c1.3-2,0.8-4.4-1.2-5.4
					c-2-0.9-3.8-1.9-4.2-2c-0.3-0.1-2.2-1-4.2-2c-2-0.9-4.2,0.2-4.8,2.5L476.4,333.7"/>
			</g>
			<g>
				<path fill="#00D0AA" d="M498.9,346.9l-28.6,32.6c-1.6,1.9-1.2,2.3,0.9,1l40.9-24.8c2.1-1.2,2.6-3.6,1.2-5.4
					c-1.4-1.6-2.7-3.3-3-3.5c-0.2-0.2-1.5-1.9-3-3.5s-3.8-1.5-5.5,0.2L498.9,346.9"/>
			</g>
			<g>
				<path fill="#00D0AA" d="M513.6,368.5L474,385.9c-2.2,1-2.1,1.5,0.3,1.3l47.4-5.1c2.4-0.2,3.9-2.2,3.3-4.3
					c-0.5-2.1-1.1-4.2-1.2-4.5c-0.1-0.3-0.7-2.4-1.2-4.5s-2.8-3.1-5-2.1L513.6,368.5"/>
			</g>
			<circle fill="#FFFFFF" cx="379.7" cy="397.1" r="15.8"/>
			<g>
				<path fill="#00D0AA" d="M439.1,333.7l12.1,41.6c0.7,2.3,0.1,2.5-1.2,0.5l-26.6-39.7c-1.3-2-0.8-4.4,1.2-5.4c2-0.9,3.8-1.9,4.2-2
					c0.3-0.1,2.2-1,4.2-2c2-0.9,4.2,0.2,4.8,2.5L439.1,333.7"/>
			</g>
			<g>
				<path fill="#00D0AA" d="M416.6,346.9l28.6,32.6c1.6,1.9,1.2,2.3-0.9,1l-40.9-24.8c-2.1-1.2-2.6-3.6-1.2-5.4
					c1.4-1.6,2.7-3.3,3-3.5s1.5-1.9,3-3.5s3.8-1.5,5.5,0.2L416.6,346.9"/>
			</g>
			<g>
				<path fill="#00D0AA" d="M402,368.5l39.7,17.5c2.2,1,2.1,1.5-0.3,1.3l-47.4-5.1c-2.4-0.2-3.9-2.2-3.3-4.3
					c0.5-2.1,1.1-4.2,1.2-4.5s0.7-2.4,1.2-4.5s2.8-3.1,5-2.1L402,368.5"/>
			</g>
			<path fill="none" d="M473.2,417.2"/>
			<path d="M457.8,486.1"/>
			<path d="M457.8,474.1l-7.9,16.8c0,0,0.8,1.4,3.3,2c2.3,0.5,3.2-0.4,3.8-0.7L457.8,474.1z"/>
			<path d="M457.8,474.1L443.6,486c0,0,0.1,1.6,2.1,3.2c1.9,1.5,3.1,1,3.7,1L457.8,474.1z"/>
			<path d="M457.8,474.1l-17.9,4.8c0,0-0.5,1.5,0.5,3.8c1.1,2.2,2.3,2.2,3,2.5L457.8,474.1z"/>
			<path d="M457.8,474.1l7.9,16.8c0,0-0.8,1.4-3.3,2c-2.3,0.5-3.2-0.4-3.8-0.7L457.8,474.1z"/>
			<path d="M457.8,474.1L472,486c0,0-0.1,1.6-2.1,3.2c-1.9,1.5-3.1,1-3.7,1L457.8,474.1z"/>
			<path d="M457.8,474.1l17.9,4.8c0,0,0.5,1.5-0.5,3.8c-1.1,2.2-2.3,2.2-3,2.5L457.8,474.1z"/>
			<path d="M436.7,486.1"/>
		</g>
		<g>
			<path d="M305.5,426.9c-62.8,0-117.8,33.6-147.9,83.8l0,0L305.5,599l147.9-88.3l0,0C423.3,460.5,368.3,426.9,305.5,426.9z
				 M253.9,563.1c0,0,1.5-3.7,7.7-9.5c5.6-5.2,9.6-7.5,13.3-9.4l26.9,49.9L253.9,563.1z M302.7,591.9l-25.9-49c0,0,2.8-2.5,10.5-4.8
				c6.9-2.1,12.1-1.4,15.4-1.3V591.9z M307.1,537c4.4-0.2,8.9-0.8,15.7,1.3c7.6,2.2,10.6,4.8,10.6,4.8L307.1,592L307.1,537
				L307.1,537z M309.3,594.1l26.9-49.9c3.7,1.7,7.8,4,13.3,9.4c6.1,5.8,7.6,9.5,7.6,9.5L309.3,594.1z"/>
			<circle fill="#00D0AA" stroke="#373023" stroke-miterlimit="10" cx="305.5" cy="511.4" r="6.2"/>
			<circle fill="#FFFFFF" cx="227.3" cy="517.6" r="15.8"/>
			<g>
				<path fill="#00D0AA" d="M312.8,451.6l-6.6,42.8c-0.3,2.4-1,2.4-1.3,0l-7.3-47.2c-0.3-2.4,1.1-4.4,3.3-4.4c2.2,0,4.3,0,4.6,0
					c0.3,0,2.4,0,4.6,0s3.7,2,3.3,4.4L312.8,451.6"/>
			</g>
			<g>
				<path fill="#00D0AA" d="M286.8,454.1l12.1,41.6c0.7,2.3,0.1,2.5-1.2,0.5l-26.6-39.7c-1.3-2-0.8-4.4,1.2-5.4c2-0.9,3.8-1.9,4.2-2
					c0.3-0.1,2.2-1,4.2-2c2-0.9,4.2,0.2,4.8,2.5L286.8,454.1"/>
			</g>
			<g>
				<path fill="#00D0AA" d="M264.4,467.5L293,500c1.6,1.9,1.2,2.3-0.9,1l-40.9-24.8c-2.1-1.2-2.6-3.6-1.2-5.4c1.4-1.7,2.7-3.3,3-3.5
					c0.2-0.2,1.5-1.9,3-3.5c1.4-1.6,3.8-1.5,5.5,0.2L264.4,467.5"/>
			</g>
			<g>
				<path fill="#00D0AA" d="M249.6,488.9l39.7,17.5c2.2,1,2.1,1.5-0.3,1.3l-47.4-5.1c-2.4-0.2-3.9-2.2-3.3-4.3
					c0.5-2.1,1.1-4.2,1.2-4.5c0.1-0.3,0.7-2.4,1.2-4.5s2.8-3.1,5-2.1L249.6,488.9"/>
			</g>
			<circle fill="#FFFFFF" cx="383.6" cy="517.6" r="15.8"/>
			<g>
				<path fill="#00D0AA" d="M324.1,454.1L312,495.8c-0.7,2.3-0.1,2.5,1.2,0.5l26.6-39.7c1.3-2,0.8-4.4-1.2-5.4c-2-0.9-3.8-1.9-4.2-2
					c-0.3-0.1-2.2-1-4.2-2c-2-0.9-4.2,0.2-4.8,2.5L324.1,454.1"/>
			</g>
			<g>
				<path fill="#00D0AA" d="M346.5,467.5L318,500c-1.6,1.9-1.2,2.3,0.9,1l40.9-24.8c2.1-1.2,2.6-3.6,1.2-5.4c-1.4-1.6-2.7-3.3-3-3.5
					c-0.2-0.3-1.5-1.9-3-3.5s-3.8-1.5-5.5,0.2L346.5,467.5"/>
			</g>
			<g>
				<path fill="#00D0AA" d="M361.3,488.9l-39.7,17.5c-2.2,1-2.1,1.5,0.3,1.3l47.4-5.1c2.4-0.2,3.9-2.2,3.3-4.3
					c-0.5-2.1-1.1-4.2-1.2-4.5s-0.7-2.4-1.2-4.5s-2.8-3.1-5-2.1L361.3,488.9"/>
			</g>
			<path fill="none" stroke="#000000" stroke-miterlimit="10" d="M290,537.7"/>
			<path d="M305.5,606.6"/>
			<path d="M305.5,594.7l7.9,16.8c0,0-0.8,1.4-3.3,2c-2.3,0.5-3.2-0.4-3.8-0.7L305.5,594.7z"/>
			<path d="M305.5,594.7l14.2,11.9c0,0-0.1,1.6-2.1,3.2c-1.9,1.5-3.1,1-3.7,1L305.5,594.7z"/>
			<path d="M305.5,594.7l17.9,4.8c0,0,0.5,1.5-0.5,3.8c-1.1,2.2-2.3,2.2-3,2.5L305.5,594.7z"/>
			<path d="M305.5,594.7l-7.9,16.8c0,0,0.8,1.4,3.3,2c2.3,0.5,3.2-0.4,3.8-0.7L305.5,594.7z"/>
			<path d="M305.5,594.7l-14.2,11.9c0,0,0.1,1.6,2.1,3.2c1.9,1.5,3.1,1,3.7,1L305.5,594.7z"/>
			<path d="M305.5,594.7l-17.9,4.8c0,0-0.5,1.5,0.5,3.8c1.1,2.2,2.3,2.2,3,2.5L305.5,594.7z"/>
			<path d="M326.4,606.6"/>
		</g>
	</g>
</g>
</svg>
