<?xml version="1.0" encoding="utf-8"?>
<!-- Generator: Adobe Illustrator 18.1.1, SVG Export Plug-In . SVG Version: 6.00 Build 0)  -->
<svg version="1.1" id="图层_1" xmlns="http://www.w3.org/2000/svg" xmlns:xlink="http://www.w3.org/1999/xlink" x="0px" y="0px"
	 viewBox="0 0 612 792" enable-background="new 0 0 612 792" xml:space="preserve">
<g>
	<g>
		<path d="M306.5,327.8c15.1-0.1,30.1,0.7,44.9,2.6c3.9,0.5,6.9,2.8,9.9,5c7.9,5.7,12.3,13.4,13.3,23.2c1.2,12.7,3.1,25.4,3.2,38.1
			c0.1,9.1,0.8,18.1,0,27.1c-1.1,12.5-6.2,23.1-15.5,32.1c-6.8,6.7-14.1,9.8-23.3,9.9c-3.8,0-7.5,0.5-11.4,0.8
			c-15.8,0.9-31.7,1.3-47.6,1.5c-0.7,0-1.5-0.1-1.9,0.2c-3.3,3-6.6,1.2-9.6,0c-11.3-4.5-24.8-15.3-25.1-34
			c-0.4-20.5-1.2-41.1-3.6-61.4c-0.4-3.9-0.4-8-0.2-12c0.9-17.6,13.2-28.2,28.7-31.1c1.5-0.3,3-0.4,4.5-0.5
			C284.1,328.4,295.3,327.7,306.5,327.8z M310.9,368.1c-15.2-0.1-24,4-28.6,14.3c-5.5,12.1-4.5,24.2,2.6,35.5
			c3,4.7,7.3,8.1,12.6,9.6c12.5,3.7,23.7,1.4,32.5-8.6c8.1-9.3,10.4-20.3,5.4-31.7C330,375.1,320.1,368.8,310.9,368.1z"/>
		<path d="M133.7,552.7c-1.6,0-2.7-0.5-3.8-1.3c-20-14.9-39.5-30.3-55-50.1c-18.3-23.3-33.3-48.2-40.2-77.4c-1-4.2-2.4-8.3-3.6-12.5
			c-1.1-3.7,0-5.4,3.7-5.7c12.5-1.2,24.9-2.8,37.5-3.3c6.7-0.2,13.4,0.4,20.2,0.8c37.8,2.1,73,12.7,105.8,31.7
			c17.5,10.2,32.7,22.9,46.1,37.9c10.3,11.6,20.7,23.1,28.9,36.2c2.3,3.6,2.1,4.5-1.5,6.7c-9.4,5.8-19.7,8.2-30.6,7.9
			c-2.1-0.1-3.4-0.9-4.2-2.8c-2-5.4-5.4-9.9-9.5-13.8c-19.7-18.1-40-35.4-63.2-48.9c-18.4-10.7-38.4-15.4-59.3-16.5
			c-2.5-0.1-3.8,0.9-3.7,3.5c0.1,9,1.7,17.7,6.2,25.6c5.4,9.3,10.8,18.5,16.3,27.6c1.2,2.1,2.2,4.3,2.5,6.6
			c2.5,14.3,5.1,28.7,7.7,43.1C134.1,549.7,134.4,551.1,133.7,552.7z"/>
		<path d="M149.8,224.3c0.1-1.3,0.9-2,1.7-2.3c3.2-1.3,5-3.8,6.9-6.6c25.6-37.3,58.5-65.4,101.9-80.1c11.3-3.8,22.6-7.2,34-10.8
			c2.1-0.7,3.9-0.8,4,2.2c0.5,22.9,3.1,46,0.8,69c-3,29.3-12.1,56.7-25.2,82.9c-18.5,37-45.6,66.1-80.4,88.3c-3.2,2-4.3,1.5-4.9-2.3
			c-1.4-8.5-2.7-17-4.4-25.6c-0.8-4,0.2-7,3.4-9.7c14.4-12.7,27.6-26.3,39.9-41.1c19.8-23.7,32.1-50.8,37.7-81.1
			c0.5-3.2,1.4-6.3,1.7-9.5c0.5-4.8-1.7-6.7-6.1-5.1c-13,4.8-26.3,8.6-38.6,15.1c-9.3,4.9-19.1,7.7-29.4,9.5
			c-13.1,2.3-26,5.1-39,7.8C152.5,225.2,151,225.7,149.8,224.3z"/>
		<path d="M459,585.1c-2.1,5.1-6,8.9-9.4,12.8c-15.5,17.7-34,31.9-53.9,44.4c-19.6,12.2-39.1,24.3-60.7,32.8
			c-4.8,1.9-9.7,3.5-14.6,5.2c-2.8,1-3.8-0.2-3.8-2.8c0-0.2,0-0.4,0-0.7c0.4-19.3-1.1-38.7-0.8-58c0.9-46.3,15.2-88,44-124.5
			c8.6-10.8,17.2-21.7,27.4-31c7.1-6.4,15.1-11.6,23.3-16.4c3.3-1.9,6.7-3.5,9.5-6.1c2.7-2.6,4.9-2.4,7.1,0.9
			c1.7,2.7,3.3,5.6,4.7,8.5c1.7,3.4,3.4,6.8,5,10.2c1.5,3.2,1.2,4.7-1.7,6.4c-13.9,8.3-25.8,18.9-36.1,31.3
			c-25.2,30.4-43.4,64.2-49.4,103.7c-0.1,0.9-0.2,1.7-0.3,2.5c-0.4,2.6,0.9,3.3,3.2,2.8c17.5-3,34.4-7.4,49.2-17.9
			c3.2-2.3,7-3,10.7-3.2c12.8-0.9,25.7-1.7,38.5-2.5C453.5,583.4,456.3,583.1,459,585.1z"/>
		<path d="M342.6,278.6c11.4,0,22.1-2.1,32.5-5.5c2.4-0.8,3.4,0.5,4.5,2.1c5.1,7.3,10.7,14.3,16.9,20.9
			c16.5,17.5,36.1,30.8,57.4,41.7c18.5,9.5,37.9,16.2,58.4,19.6c3.8,0.7,4.6,0,4-3.7c-1.9-13.2-3.9-26.8-12.7-37.3
			c-7.3-8.7-9.3-18.3-10.2-28.9c-1.1-12.2-2.2-24.6-4.6-36.6c-0.2-1-0.5-2,0.4-2.6c1.3-0.9,2.3,0,3.2,0.7c9,5.9,17.3,12.7,24.7,20.4
			c24.5,26,43.5,55.8,59,88c4.4,9,7.4,18.5,7.9,28.5c0.2,3.9-0.4,4.8-4,4.9c-18.8,1-37.6,1.3-56.4,0.2c-27.1-1.5-52.8-7.7-77.4-19.6
			c-28.7-14-54.9-31.6-76.6-55.1c-9.8-10.6-18.5-22-25.9-34.3C343,281,341.8,280,342.6,278.6z"/>
		<path d="M79.8,389.9c-15.3,0.5-30.7,1.3-46,1.4c-11.1,0-8.5-0.1-7.6-8.7c1-9.7,5.6-18.1,9.8-26.6c12-23.3,24.9-46,42.1-66
			c15.8-18.5,33.4-35,54.1-48.1c18.6-11.8,39-17,60.9-17.5c14.6-0.3,29.2,0.5,43.7,1c3.6,0.1,4.4,1.1,3.2,4.4
			c-3.5,9.3-7,18.6-10.5,28c-1.1,3.1-3.4,3.8-6.3,3.9c-13.9,0.7-27.6,2-41.1,5.4c-34,8.6-60.8,27.4-78.4,58.1
			c-4.2,7.2-6.7,15.3-9.4,23.1c-1.2,3.4-0.1,4.6,3.8,4.7c9.6,0.2,19.2,0.4,28.9,0.7c4.6,0.1,5.6,1,5.9,5.4c0.7,8.6,1.3,17.3,2,25.9
			c0.3,4.4,0,4.5-4,3.5c-0.9-0.2-2-0.3-2.8-0.2C111.7,388.7,95.7,389.3,79.8,389.9L79.8,389.9z"/>
		<path d="M299.9,568.9c0.2,7.2,0.4,14.5-0.1,21.9c0,0.8-0.3,1.4-0.3,2.2c-0.4,25.5-2,51-1.1,76.5c0.1,3.8,0.4,7.5,0.4,11.4
			c-0.1,3.3-1.1,3.8-4,2.7c-29.7-10.8-57.4-25.6-82.9-44.3c-28.6-20.9-51-47.1-65.6-79.8c-7.8-17.5-11.4-35.8-12-54.8
			c-0.4-12.8-0.5-25.5-0.7-38.3c-0.1-3.9,0.8-4.5,4.4-2.7c10.3,5,20.4,10.3,30.7,15.3c2.5,1.2,2.7,3.3,2.7,5.7
			c-0.2,15.8,1.3,31.6,5.8,46.8c5.9,19.9,16.9,36.5,32,50.6c14,13.1,28.9,24.8,46.7,32.1c3.8,1.5,4.8,0.9,5.1-3.3
			c0.4-8,1.3-16.1,0.9-23.9c-0.2-4.2,1.3-5,4.4-6.1c10.4-3.9,21-7.5,31.1-12.1C297.9,568.7,298.6,568.3,299.9,568.9z"/>
		<path d="M317.5,182.9c-0.3-6.7-0.7-13.3-1.1-20.1c-0.3-5.2,0.4-10.4,0.9-15.5c0.9-9.5,0.2-19.2,0.3-28.9c0-5.5,1.3-6.6,6.7-5.7
			c11,1.7,21.3,6.2,31.7,10.2c29.3,11.3,53.3,29.8,74.1,53.1c8,9,15.8,18,23.2,27.5c10.8,14.1,18.5,29.6,22.6,47
			c4.8,20,6.8,40.2,6.6,60.8c-0.1,5.7-1.5,11.1-2.6,16.6c-0.4,2.2-1.9,2.6-3.6,1.7c-9.4-4.9-18.7-9.8-28.1-14.9
			c-2-1-1.7-2.8-1.5-4.6c0.9-10.5,0.7-20.9-0.9-31.4c-3.1-21.1-13.2-39.1-23.5-57.3c-5.6-9.9-13-18.3-22.1-25.1
			c-12.3-9.4-26.6-14.2-41.7-16.5c-1.9-0.3-3,0.5-3.1,2.4c-0.5,8.2-1.1,16.4-1.5,24.6c0,0.8,0.3,1.4,0.5,2.2c0.8,2.3,0,3.7-2.2,4.6
			c-8.9,3.8-17.3,8.4-25.8,12.8c-4.3,2.2-5.5,1.5-6-3.3C318.9,209.9,318.2,196.4,317.5,182.9z"/>
		<path d="M591,407.5c0.8,2.1,0,3.9-0.5,5.8c-12.3,45.5-36.2,83.8-70.9,115.5c-11.1,10.2-22.3,20.4-35.6,27.4
			c-19.7,10.5-40.5,18-62.9,19.6c-13.7,0.9-27.4,0-41.1-0.2c-2.4,0-3.2-1.2-2.2-3.4c4.8-9.7,9.7-19.3,14.5-29
			c0.9-1.9,2.7-1.6,4.3-1.9c19.2-1.9,37.5-7.5,55.2-14.6c27-10.8,50.1-27.2,66.1-52.1c3.9-6.1,7.1-12.6,8.5-19.8
			c1-4.9,0.3-5.9-4.7-6.6c-8.9-1.2-17.8-2.4-26.7-3.5c-2.4-0.3-3.8-1.2-4-3.7c-1.1-9.5-3-18.8-7.1-27.5c-0.3-0.7-0.2-1.4-0.3-2
			c17.2,0,34-2.8,50.9-2.7c17,0.2,34.1-0.3,51.3-0.5C587.5,408.3,589.3,407.7,591,407.5z"/>
		<path d="M176.3,280c0.2,2.3-0.7,4.2-1.3,6.1c-5.1,15.7-8.1,31.8-5.9,48.5c1.5,11.6,4.8,22.6,11.9,32.2c3.2,4.4,7.2,7.8,11.7,10.6
			c9.8,6.2,19.9,12.1,30.1,17.9c4.2,2.4,4.3,2.7,0.9,6.3c-4.5,4.6-10.2,7.7-15.1,11.7c-2.3,1.9-4.8,3.6-6.9,5.9
			c-1.9,2.1-4.5,3.1-7.3,1.4c-23.5-14-42.8-31.8-54-57.3c-5-11.6-8.4-23.7-8.3-36.4c0-6.4,1.1-12.9,1.7-19.3
			c0.1-0.9,0.4-1.9,0.1-2.5c-1.9-4.5,0.8-6.2,4.4-8.1c10.5-5.4,20.9-10.9,31.3-16.5C171.7,279.2,173.9,279.2,176.3,280z"/>
		<path d="M308,484c3.4,4.5,6.8,8.9,10.1,13.2c3.2,4.3,6.4,8.4,9.6,12.7c3.8,5.1,3.8,5.6,0.5,11.3c-7.9,13.6-19.5,23.2-32.6,31.4
			c-22,13.6-46.1,19.7-71.6,21c-4.4,0.2-8.9-0.7-13.1-1.5c-1.4-0.3-2.3-1.1-3.1-2.2c-8.2-10.9-14.1-22.7-14.9-36.7
			c-0.1-1.4-0.7-3.2,0.9-4.2c1.7-1.1,2.8,0.4,3.9,1.3c6.6,5.1,14.3,6.3,22.2,7c16.7,1.4,33,0.1,48.3-7.7c6.7-3.4,12.5-7.8,17.5-13.2
			c5.1-5.7,10.5-11.3,15.1-17.4c2.6-3.5,4.7-7.3,5.2-11.7C306.1,485.9,306.3,484.8,308,484z"/>
		<path d="M425.8,260.8c-1.3,1.4-2.3,0.8-3.2,0.2c-12.2-7-25.7-7.6-39-6c-32.3,4-56.3,20.5-70.8,50.1c-1.1,2.2-2.1,4.3-3.2,6.3
			c-2.3,4.3-4,4.4-6.4,0.2c-3.6-6.1-6.2-12.9-9.8-19c-3.3-5.6-3-10.3-0.3-16c6.4-14,16-25.1,28.4-33.9c11.5-8.1,23.6-14.8,37.3-18.5
			c14.4-3.9,28.9-3.6,43.1,0.9c3,1,5.6,2.5,7.1,5.2C414.5,240.6,420.2,250.6,425.8,260.8z"/>
		<path d="M442.4,514.9c0.1-0.4,0.1-0.9,0.3-1.2c9.4-21.2,8.2-42.9,3.1-64.8c-2.4-10.3-9.4-17.8-16.2-25.5
			c-8.6-9.9-18.9-17.3-32-20.2c-4.7-1.1-5-3-1.7-6.3c7.4-7.5,15.7-13.9,25.1-18.7c2.8-1.4,4.8-1.5,8.1,0.4
			c8.6,5.4,15.6,12.5,22.8,19.6c19.1,18.6,27.6,41.5,28.6,67.8c0.3,9.1-0.7,18-1.6,27c-0.4,4-2.4,6.7-6.1,8.4
			c-8.4,4-16.8,8.4-25.2,12.7C446.1,514.7,444.5,515.8,442.4,514.9z"/>
	</g>
</g>
</svg>
