<?xml version="1.0" encoding="utf-8"?>
<!-- Generator: Adobe Illustrator 18.1.1, SVG Export Plug-In . SVG Version: 6.00 Build 0)  -->
<svg version="1.1" id="图层_1" xmlns="http://www.w3.org/2000/svg" xmlns:xlink="http://www.w3.org/1999/xlink" x="0px" y="0px"
	 viewBox="0 0 560 560" enable-background="new 0 0 560 560" xml:space="preserve">
<g>
	<g>
		<path fill="#03060A" d="M519.1,330.1c-1.3,17.5-7,33.8-14.4,49.3c-26.9,56.6-69,98-126,124.6c-18.9,8.8-37.8,17-58.3,21.1
			c-47.7,9.5-92.6,2-135.9-19.8c-43.2-21.7-78.9-51.8-106.8-91.1c-17.4-24.5-28.2-52.1-34.1-81.5c-0.2-0.9,0-1.8,0-2.7
			c9.4,7.3,18.9,14.4,29.5,19.9c3.1,14.2,8.1,27.6,15.6,40.2c-4-12.2-5.9-24.8-7.8-37.4c2.7,0.4,5.3,0.8,8,1.3
			c0.5,1.5,1.1,2.9,1.4,4.4c2.9,15.7,7.1,31.1,13.3,45.8c7.4,17.5,16.2,34.5,29.7,47.8c16.7,16.5,36.4,29.6,58,39.5
			c5.7,2.6,10.3,5.6,15-3.1c2.8-5.2,1.2-5.4-2.1-7.3c-4.9-2.7-7.8-6.8-6.8-12.5c1.1-6.1,5.3-9.4,11.1-11.1c3.1-0.9,5.9,2.2,8.9,0.3
			c-12-5.1-15.5-8.4-14.7-15.1c0.7-6.3,4.7-9.6,10.6-11c4.1,6.4,11.4,3.6,17,5.7c2.5,1,3.7-0.4,5.2-2.6c1.5-2.3,3.2-7.4,4.8-6.3
			c4.6,3.2,6.4-0.7,9.2-2.1c0.4,0.4,0.9,0.9,1.3,1.3c0.5,2.4,1,4.9,4,5.3c-0.5,3.4,2.3,5.4,3.5,8c0.4,0.9,0.8,2.3,2.2,1.9
			c1.5-0.5,0.9-2.1,1.1-3.3c2.7-0.1,5.4-0.3,8-0.4c0.3,1.5-0.1,4,2.7,1.8c1.7-0.7,3.3-1.6,5.3-1.3c0.5-0.4,0.9-0.8,1.4-1.3
			c0,0,0,0,0,0c1.4,0,2.7,0,4.1-0.1c0.5,0.3,1.1,0.6,1.6,0.8c0.2,0.7-1.5,2.3,1,1.9c0.4-0.4,0.8-0.8,1.3-1.2
			c1.7-0.2,3.4-0.5,5.1-0.7c1.4,2.5,3.8,1.7,5.9,1.9c2.9,0.2,5.6,0.7,7.8,2.9c1,1,2.1,3.1,3.5,1.2c1-1.4,2.9-3.8,0-5.7
			c-1.9-1.2-3.4-2.8-3.6-5.2l-0.1,0c4.7-0.5,1.4-3,1.2-4.7c1.8-3.1,2.3-6.3,1.5-9.8c1.7-1.8,4.3-3,4-6.1c0.3-0.7,0.5-1.5,0.8-2.2
			c0.2-0.5,0.4-0.9,0.7-1.4c-0.1-0.8-0.3-1.5-0.4-2.3c2-1,1.8-2.8,1.7-4.6c0.4-1.2,0.8-2.3,1.2-3.5c1.2-0.3,2.9-0.3,2.3-2.1
			c-0.5-1.7-2.1-2-3.7-1.7l0.1,0c0.3-2.1,0.4-4.4,3.4-4.5c0.4-0.1,0.7,0,1,0.3c0.8,1.2,1.6,1.3,2.5,0.2c1.3-0.6,2.6-1.3,4-1.9
			c3.2,3.9,9.2-1.6,12.3,3.6c0.3,0.6,2.8-1.4,1.7-3.1c-3.4-5.3,0.1-5.5,3.9-5.6c2.9,0,4.8-1,4.9-4.2l0.4-0.2l0.4,0.1
			c3.8,2.8,7.9,0.4,11.9,0.7c-0.8-2.8,1.9-6.1-1.5-8.5c-0.2-1.3-0.5-2.6-0.7-3.9c2.1-1.3,0.7-4.1,1.9-5.2c6.6-5.9,0-7.1-3.1-9.6
			c-0.5-0.6-1-1.1-1.5-1.7c0.5-0.3,1-0.7,1.5-1c3,0.9,6,1.8,9.1,2.7c1,5.8,2.3,11.6,3,17.5c0.4,3.7,1.2,4.7,4.7,2.6
			c5.8-3.5,11.8-6.7,17.8-10c-0.1,0.3,0,0.6,0.2,0.9c0.3,2.5,1.7,1.2,2.8,0.9c2.5,0.6,6.5-1,5.9,3.8c-0.5,4.4-3.9,3.6-6.9,3.2
			c-1.8-0.2-3.8-1.2-5.6,1.6c3.2,1.2,8.2,0.3,8.5,4.6c0.2,3.3-2,6.2-5.9,6.9c-0.9,0-1.9-0.1-2.8-0.1c-0.7-9.4-6.2-1.8-9.4-2.6
			c-3.6,0.4-7.1,1.8-7.7,5.4c-0.6,3.8,0.8,7.6,5.1,9.3c-2.2,5.5-6.9,7.7-12,9.5c-2.2-2.2-2.5-0.5-2.7,1.3
			c-6.2,2.2-10.4,8.1-17.2,9.3c-2.5,0.4-4,2.1-4.5,5c-0.5,2.5-2.4,4.6-3.7,6.9c-0.9,0.9-1.8,1.8-2.7,2.6c-0.9,0-1.8,0-2.6,0
			c-2.4-1.5-5.4-2-7.1-4.7c-0.9-1.4-2.4-2.7-3.8-1.4c-1.9,1.9,0.5,3.2,1.6,4.1c2,1.7,3.6,2.8,0.2,4.8c-0.8,0.5,0.1,2,1.1,2.7
			c0,0.4-0.1,0.8-0.1,1.3c-0.9,0.9-1.8,1.7-2.7,2.6c-1.1,0.1-2.1,0.4-2.7,1.5c0,0,0.1,0,0.1,0c-0.5,0.5-0.9,0.9-1.4,1.4l0.1-0.1
			c-2,0.1-3.7,1.1-4.4,2.9c-0.4,1,0.9,1,1.7,1c0.9,3.2,1.8,6.3,2.7,10c0.6-1.6-1.2-0.4-2-0.5c-2.1-0.1-4.1,0.4-4.4,2.9
			c-0.2,1.7,0.9,2.5,2.4,2.1c1.9-0.5,3.8-1.2,4-4.5c1.8,0.4,3.6,1.3,5.4,2.1c0.9,1.3,2.1,1.2,3.5,0.9c5-0.8,5.1-0.6,3.7,4.1
			c-0.5,1.6,0.1,2.7,1.7,2.8c2.2,0.2,4.1,0.9,6.1,2c3.1,1.7,4.4-0.5,3.4-3c-2.2-5.9,0.7-8.8,5.7-10.9c8.5,0.8,13.7,4.2,14.6,10.1
			c1.5,10.4-5.2,14.4-15,16.7c2.6,1.4,4.5,1.8,4.7,3.9c-4.9,1.9-3.4,5.7-1.8,8.4c2.3,3.9,6.1,2.9,9.6,1.1c2.3-0.9,4.5-1.7,6.8-2.6
			c39.3-15.6,69.5-41,87.9-79.8c9.2-19.4,15.2-39.6,18.8-60.7c2.5-2.2,5.5,1.1,8.1-0.8c-0.7,16.2-6.7,31.3-9.9,47
			c4.9-4.6,6.6-10.8,9.3-16.4c5.1-10.7,10.3-21.5,11.2-33.7C500.1,344.3,510,337.8,519.1,330.1z M259.9,498.4
			c1.1-0.6,1.3-1.6,1.3-2.7c0.2-0.1,0.3-0.1,0.5-0.2c0.1-0.1,0.1-0.2,0.1-0.3c-0.2,0.2-0.4,0.4-0.5,0.6
			C260.2,496.3,260,497.3,259.9,498.4c-0.1,0.2-0.2,0.4-0.3,0.6C259.7,498.8,259.8,498.6,259.9,498.4z M265.3,490.4
			c-0.6,0.4-1.7,0.7-0.5,1.7C265,491.5,265.1,491,265.3,490.4c0.1-0.1,0.3-0.1,0.4-0.3c0.1-0.1,0.1-0.2,0.1-0.3
			C265.7,490,265.5,490.2,265.3,490.4z M276,459.7c-1.2,0.2-2.7-0.5-3.4,1.1c-0.1,0.2,0.3,0.9,0.5,0.9
			C274.7,462,275.4,460.8,276,459.7c0.3-0.5,0.7-0.9,1-1.4c-0.2-0.1-0.3-0.2-0.5-0.4C276.3,458.5,276.2,459.1,276,459.7z M276,449.1
			c-0.9-1.4-2.3-2.2-3.2-0.4c-0.7,1.3,1,1.4,1.9,1.6c0.3,1.3-0.6,2.9,1.3,4.4C276,452.6,276,450.9,276,449.1z M274.7,479.7
			c0.6,0.6,1.1,1.2,1.7,1.8c0.2-0.3,0.3-0.6,0.5-0.9C276.1,480.3,275.4,480,274.7,479.7c-2.6-2.3-3.1-0.5-3.6,2
			C272.5,480.9,273.6,480.3,274.7,479.7z M243.9,477.1c-1.7,0.3-3.7-0.6-5.5,0.8C240.6,478.6,242.4,478.8,243.9,477.1
			c1.3-0.3,2.9,0.6,4.1-0.8C246.4,475.3,245.1,475.7,243.9,477.1z M257.3,474.4c-1.8,0.3-3.7-0.6-5.6,0.8
			C253.9,475.9,255.7,476.1,257.3,474.4c1.3-0.3,2.8,0.6,4.1-0.8C259.7,472.7,258.4,473,257.3,474.4z M269.3,474.3
			c-0.1,0.9-1.5,2,0.4,2.5c0.3,0.1,1.1-0.1,1.2-0.3C271.4,475.2,270.2,474.8,269.3,474.3c-0.1-4.4,1.1-9.8-6.7-7.4
			c1.3,1.7,5.8,2.1,4.6,3.5C262.9,475.1,269.8,472.6,269.3,474.3z M340.1,482.4c-3.5-0.9-6.7-4.6-10.7-1.3c3.5,6.5-2.9,7.9-7,11.9
			c8.2-4.5,6.8,2,7.9,5c1,2.7,0.9,6.5,4.9,5.4c3.7-0.9,6.2-7.2,5.5-7.8C335.7,491.1,341.4,486.7,340.1,482.4z M296,466.4
			c-2.2,0.1-4.4-0.1-6.4,0.4c-2.3,0.6-1.4,2.9-1.5,4.5c-0.1,1-0.1,2.4,1.6,2c0.9-0.2,1.7-0.5,2.5-0.7
			C286.9,466.6,295.3,469.1,296,466.4z M282,455.3c1.4-4,2.8-7,1-11.9C282.9,448,280.6,450.7,282,455.3z M304.8,455.2
			c0.3-1.3-0.3-1.8-0.9-1.7c-0.7,0.2-1.6,0.8-1.9,1.4c-0.4,0.9,0.2,1.7,1.2,1.5C304,456.3,304.5,455.5,304.8,455.2z M326.9,474.1
			c0.4-0.8,0.9-1.3,0.9-1.8c0-0.9-0.5-1.6-1.5-1.3c-0.4,0.1-0.7,1-0.6,1.6C325.8,473.1,326.4,473.5,326.9,474.1z M252.7,464.5
			c-2.1-1-3.4-1-4.9-0.2C249.1,465.4,250.4,465,252.7,464.5z M281.8,487.9c0.1-1.3,2-2.8-0.2-3.9c-0.1,0.6-0.3,1.2-0.2,1.8
			C281.4,486.4,281.6,487.1,281.8,487.9z M272,507.9c-0.2-0.5-0.4-1-0.6-1.6c-0.2,0.5-0.7,1-0.7,1.5c0,0.5,0.4,0.9,0.7,1.4
			C271.6,508.8,271.8,508.5,272,507.9z M280.5,460c0.4,0.2,0.7,0.3,1.1,0.5c0.2-0.4,0.5-0.8,0.4-1.1c-0.1-0.3-0.7-0.4-1.1-0.5
			C280.8,459.3,280.6,459.7,280.5,460z M303,465.4c-0.8-0.1-1.4-0.3-2-0.3c-0.4,0-0.8,0.3-1.1,0.5c0.5,1,1.4,0.7,2.2,0.6
			C302.3,466.2,302.6,465.8,303,465.4z M231.7,479c0.4,0.2,0.7,0.6,1.1,0.6c0.7,0,2.1,0.3,1.7-0.7C234.2,478,232.7,478.3,231.7,479z
			 M221.5,481.5c-0.8-0.1-1.4-0.3-2-0.3c-0.4,0-0.8,0.3-1.1,0.5c0.5,1,1.4,0.7,2.2,0.6C220.8,482.2,221.1,481.8,221.5,481.5z
			 M466.8,405.4c0.5-0.5,1-0.9,1.2-1.5c0.1-0.3-0.2-0.7-0.3-1.1c-0.4,0.4-1,0.8-1.3,1.3C466.3,404.4,466.6,404.9,466.8,405.4z
			 M283.1,491.4c-0.1,0.8-0.3,1.4-0.3,2c0,0.4,0.3,0.8,0.5,1.1c1-0.5,0.7-1.4,0.6-2.2C283.8,492.1,283.5,491.9,283.1,491.4z
			 M274.1,496.6c0.3-1.3,0.5-1.9,0.5-2.5c0-0.4-0.3-0.8-0.4-1.1c-0.3,0.4-0.7,0.8-0.7,1.3C273.4,494.8,273.7,495.4,274.1,496.6z
			 M284.7,498.1c-0.2,0.4-0.6,0.7-0.6,1.1c0,0.7-0.3,2.1,0.7,1.8C285.7,500.6,285.5,499.1,284.7,498.1z M272.9,502.8
			c0.2-0.8,0.4-1.4,0.4-2c0-0.4-0.4-1.1-0.4-1.1c-1.1,0.3-0.7,1.3-0.7,2C272.1,502,272.5,502.3,272.9,502.8z M257.7,465.7
			c-0.4-0.2-0.7-0.5-1-0.6c-0.4,0-0.7,0.3-1.1,0.5c0.3,0.2,0.7,0.5,1,0.6C257,466.2,257.3,465.9,257.7,465.7z M324.5,479.1
			c-0.4-0.2-0.7-0.5-1.1-0.6c-0.4,0-0.7,0.3-1.1,0.5c0.3,0.2,0.7,0.5,1,0.6C323.7,479.6,324.1,479.3,324.5,479.1z M391.6,381.2
			c0.2-0.4,0.5-0.7,0.5-1.1c0-0.3-0.3-0.7-0.5-1c-0.2,0.3-0.5,0.7-0.5,1C391,380.5,391.4,380.8,391.6,381.2z M275.3,488.1
			c0.2-0.4,0.5-0.7,0.5-1.1c0-0.3-0.3-0.7-0.5-1c-0.2,0.3-0.5,0.7-0.5,1C274.8,487.4,275.1,487.7,275.3,488.1z M228.3,480.4
			c-0.4-0.2-0.7-0.5-1.1-0.5c-0.4,0-0.7,0.3-1.1,0.5c0.3,0.2,0.7,0.5,1,0.5C227.6,480.9,227.9,480.6,228.3,480.4z M281.4,480.8
			c0.1-0.1,0.3-0.2,0.4-0.3c-0.1-0.1-0.2-0.3-0.4-0.4c-0.2,0.2-0.4,0.4-0.6,0.5C281.1,480.7,281.2,480.7,281.4,480.8z"/>
		<path fill="#FAFAE9" d="M88.9,354c-2.7-0.4-5.3-0.8-8-1.3c-2.4-1.6-5.1-2.2-7.9-2.8c-10.6-5.5-20.1-12.6-29.5-19.9
			c-4.4-6.9-8.8-13.8-13.2-20.7c-4.3-6.7-6.6-14.3-7.6-21.8c-1.2-9.5-3.7-19.2-0.7-29c1.7-5.5,3.5-10.9,7.3-15.4
			c1.7-2,3.6-4.1,4.6-6.5c4.9-12,12.2-22.5,20.3-32.5c0.8-0.1,1.9,0.2,1.3-1.3c0,0-0.1,0.1-0.1,0.1c15.6-2.5,27-14.1,41.5-18.8
			c13.6-2.1,26.8-0.7,39.7,4.3c2.2,1.3,4.5,2.6,6.7,4c4.1,4,8.1,8,12.2,12.1c5.7,9.9,3.2,17.3-6.4,18.9c-7.9-1.4-9.8-4.2-6.5-10.9
			c1.5-3,0.3-3.9-1.7-5c-2.5-1.4-5-2.8-7.9-3c-4.2-0.7-8.3-1.1-12.4,0.6c-7.4,1.8-14.1,5.5-21.9,7.1c6.1-0.8,11.4,1.3,16.8,2.9
			c1.9,1.3,3.8,2.6,5.6,3.9c2,2.6,4.4,5,5.9,7.9c2.7,5.1,3.8,10.3-1.5,14.9c-5.3,4.6-9.6,2.2-14-1.4c0-1.1-0.1-2.3,0.1-3.3
			c1.7-7.4,1.2-7.9-6.7-7.3c-8,0.9-12.2,6.1-14.8,13.1c-0.9,2.4-0.3,5.4-2.9,7.1c-4.5,0.9-8.2,3.2-11.7,5.9
			c-6.9-1.9-13.4-1.8-20.6,3.4c6.6-0.3,11.9-3.6,17.2-0.5c1.4,0.8,2.3-0.7,3.4-1.3c3.9-1.8,7.8-3.6,11.7-5.4
			c3.2-0.9,6.4-1.8,9.6-2.6c3.1,0.1,6.3,0.2,9.4,0.4c4,3.4,7.5,7.5,4.7,12.9c-2.7,5.2-7.9,4.4-12.7,3.1c-1.3-2.1-2.7-3.9-4.4-0.3
			c-2.2,4.7-2.6,9.2,1.6,13.1c1.2,2.5,3.5,4,5.8,5.2c13.2,6.9,26.7,5.9,40.3,1c11.6-3.4,20.9-10.5,29.3-18.8
			c0.8-0.8,1.9-1.4,1.4-2.7c-0.8-1.9-2.1-0.5-3.3-0.4c-2.9,0.3-5.5,2.5-8.5,1.2c4.4-3.9,8.6-7.7,12.8-11.5c1.7-1.4,3.5-2.8,5.2-4.2
			c5.7-2.4,10.6-2.5,14.2,3.6c2.3,3.9,6,6.4,9.8,8.8c3.2,4.1,7.4,6.8,12.2,8.6c2.2,1.7,4.9,1.7,7.5,2c1.6,1.5,3.4,2.4,5.6,2.8
			c-3.1,6.3-6.2,12.7-9.3,19c-12,24.7-21.6,50.2-24,77.9c-1,2.8-1.5,5.8-5.7,2.6c-3.7-2.7-7.8-4.9-12-6.9c-4.4-2.1-5.8-4.7-3.1-9
			c1.1-0.6,1-1.6,1.1-2.6c2.5-3.7,4.2-7.7,5.4-12c-1.3-7.4,2.3-13.4,5.7-19.5c1-1.7,1.5-3.8,2.8-5.2c3.2-3.8-1.7-5.1-2.4-7.8
			c-0.7-2.7-3.2-0.5-4.9,0.1c-7.2,2.8-14.3,5.7-21.5,8.6c-9.9,3.4-20.2,2.7-30.4,4.3c10.5,2.1,21.1,3.8,31.7,0.5
			c5.6,0.8,10.3-2,15.4-3.5c1.3-0.4,2.8-1.3,3.7-0.2c1.2,1.6-0.4,2.7-1.5,3.8c-3.3,3.5-6.6,7.1-9.9,10.7c-4,3.1-8.1,6.2-12.1,9.3
			c-1.2-0.1-2,0.4-2.5,1.4c-1.5,0.3-2.7,1.2-3.5,2.5c-4.3,0-7.8,0.9-11.9,3.6c-6.6,4.2-15.1,2.4-22.7,0.4
			c-9.6-2.6-19.3-5.3-28.2-10.1c3.4,5.6,9.6,7.2,13.8,10.9C97.6,357.4,93.2,352.7,88.9,354z M115.5,321.9c4.2,1.3,8.4,3.2,13,1.7
			C124.3,321.7,120,321,115.5,321.9z M66.9,218.1c0,0.7,0,1.3,0,2c5.3-1.2,10.7-0.8,16-1.5c-2.5-1.4-5.1-1.1-7.6-1.6
			C72.7,216.5,69.7,217.7,66.9,218.1z"/>
		<path fill="#FAFAE7" d="M519.1,330.1c-9.2,7.6-19,14.2-29.4,20c-3.5,1-7.1,2.1-10.6,3.1c-2.5,1.9-5.6-1.4-8.1,0.8
			c-4,1.6-7.8,0.6-13.1-0.2c6-2.6,10.6-4.8,14.4-8.5c-2.5-2-4.1,0-5.8,0.7c-9.3,3.5-18.8,6.2-28.6,8.1c-10.3,2.1-17.5-6.8-27-6.8
			c-10.9-7.4-21.9-14.8-29.9-27.9c10.6,3.2,19.3,6.4,28.6,6.2c0.4,0.1,0.9,0.2,1.3,0.2c0.9,0,1.8,0,2.7,0c0.9,0,1.8,0.1,2.7,0.1
			c0.9,0,1.8,0,2.6,0c4.5,0,9.1,0.6,13.4-1.2c4.7-0.6,9.5-1.2,14.2-1.8c-4.8-2.5-9.6-0.8-14.4-0.6c-4.4,0.1-8.7,0.2-13.1,0.3
			c-1-0.6-1.9-0.6-2.9-0.1c-0.8-0.1-1.6-0.2-2.5-0.3c-1.4-0.1-2.7-0.2-4.1-0.3c-2.7-0.9-5.4-1.7-8-2.6c-2-1.6-4.4-2-6.7-2.6
			c-6-2.6-12.1-5.3-18.1-7.9c-1.5,10.2-1.5,10.2,1.9,16.8c1.1,2.1,2.3,4.3,3.2,6.5c0.7,1.8,3.3,3.4,1,5.8c-2.2,0.4-1.7,1.7-0.9,3
			c0,0,0.2,0.5,0.2,0.5c0.5,1.1,1,2.1,1.5,3.2c2.6,5.7,5.1,11.4,7.7,17.2c0.2,0.8,0.4,1.5,0.5,2.3c-5.9,3.3-12,6.5-17.8,10
			c-3.5,2.1-4.3,1.1-4.7-2.6c-0.7-5.9-2-11.7-3-17.5c-1.3-7.8-3.1-15.5-6.4-22.7c0.5-1.6-0.1-2.9-1.2-4c-1.8-6-3.3-12-6.8-17.3
			c-1.9-5.7-3.5-11.6-7.7-16.2c-1.5-6.8-5.7-12.4-8.6-18.6c2.3-1.2,4.4-3.1,6.9-3.6c7.7-1.5,13.6-5.7,19-10.9c3-2.2,6.2-4.2,8.2-7.5
			c6.5-8.2,10.4-8.5,18.6-1.6c3,2.6,6.2,5.1,9.3,7.6c1.1,1.1,2.1,2.3,3.2,3.4c-0.4,0.5-0.8,1-1.2,1.5c-1.5-0.4-3-0.8-4.5-1
			c-1.4-0.2-2.9-2-4.2-0.2c-1.6,2.2,0.8,3,1.8,4.2c3,3.3,6.2,6.1,10.2,8.2c10.2,7.9,21.6,12.7,34.6,13.1c10.5,0.9,20.5,0.1,28.3-8.2
			c5.3-5,6.5-10.2,2.8-14.8c-3.4-4.3-4.4,2.3-7,1.9c-4.2-0.8-9.3-0.3-10.5-6c-1-5,1.8-8.3,5.5-11c2.5-0.2,5.1-0.5,7.6-0.7
			c7.1,1.4,13.9,3.6,22,7.4c-2.9-4.2-5.9-5.1-8.7-6c-3.2-1.1-4.8-3.2-5.2-6.6c-1.2-8.8-6.8-13.6-16.1-14.3c-4.9-0.5-8.2,0.3-5.3,6.3
			c0.8,1.7,0.2,3.5-0.3,5.1c-4.7,3.8-9.4,4.1-14.3,0.3c-1.2-2.1-3.1-3.8-3-6.4c0.5-5.8,3.3-10.5,7-14.7c1.8-1.4,3.6-2.9,5.5-4.3
			c6.5-3.3,13.3-4.3,20.7-3.3c-9.7-1.7-18-7-27.6-8.2c-3.5-1-7.1-0.6-10.6,0.3c-5.1,1.7-11.4,2.6-6.9,10.7c1,1.9-0.1,4.2-1.3,6.1
			c-8.4,3.6-14.9,0.7-16-7.1c-0.7-4.7,2.4-7.8,4.2-11.5c3.1-3.1,6.3-6.2,9.4-9.3c2.2-1.4,4.4-2.8,6.7-4.2
			c13.3-5.9,27.1-7.4,41.4-5.4c14.8,5.6,27.4,15.8,42.8,20.2c12,15.9,23,32.5,30,51c4.9,12.8,3.6,27.2,0,40.3
			c-2.3,8.2-8.1,15.6-13.2,22.8C522.9,322.3,522.1,326.8,519.1,330.1z M506.7,259.8c-6.8-5.6-14.6-6.2-18.9-2
			C493.8,258.3,499.8,257.2,506.7,259.8z M478.5,218.9c5.9-0.1,11.7,0.3,17.6,0.5C490.3,216.5,484.4,216,478.5,218.9z"/>
		<path fill="#02070B" d="M508.6,204.5c-15.4-4.4-28-14.6-42.8-20.2c0.3-2.4-0.9-4.3-2.1-6.2c-8.3-13-18-24.8-28.8-35.6
			c-19.2-19.5-41.5-34.7-66.7-45.6c-42.8-18.5-87.2-23-132.8-13.1c-50.3,11-91.2,37.3-123.5,77.2c-5.8,7.2-11.9,14.4-15,23.3
			c-14.6,4.7-26,16.3-41.5,18.8c2.8-12.4,9-23.4,15.9-33.7c34.2-51.3,77.6-91,138.5-108.3c16.9-4.8,34.1-8,51.7-7.7
			c19.8,0.2,39.6-1.2,59.3,1.3c41.1,5,77.9,20.3,109.7,46.6c32.1,26.6,59.6,57.1,75.7,96.4C507.3,199.9,507.9,202.3,508.6,204.5z"/>
		<path fill="#02070B" d="M55.6,203.1c0.6,1.5-0.5,1.2-1.3,1.3C54.4,203.6,54.2,202.5,55.6,203.1z"/>
		<path fill="#3E3126" d="M88.9,354c4.3-1.3,8.6,3.4,12.9-0.8c-4.2-3.7-10.5-5.3-13.8-10.9c9,4.8,18.6,7.5,28.2,10.1
			c7.6,2.1,16,3.9,22.7-0.4c4.1-2.6,7.5-3.6,11.9-3.6c3,0.7,2.8,4.2,5,5.6c0.4,0.9,0.9,1.8,1.3,2.7c5.8,10.1,12,19.9,22.5,25.8
			c2.8,1.6,7.4,0.9,7.1,6.1c0,1,1.3,1.3,2.1,0.7c5.9-4.6,5.6,0.6,5.6,3.8c0,5.7,2.5,8.2,8.1,7.7c0.4,0,0.9,0,1.3,0l0,0
			c-0.5,4.3,2.5,4,5.3,4.1c3.1,3.6,10.1,2.6,10.6,9.2c-3.1,3.3-3.4,7.3-1.6,11.1c2.7,5.7,0.2,6.9-4.9,6.4c-5.9,1.4-9.9,4.7-10.6,11
			c-0.8,6.7,2.7,10,14.7,15.1c-3,1.9-5.8-1.2-8.9-0.3c-5.8,1.8-10,5.1-11.1,11.1c-1,5.7,1.9,9.9,6.8,12.5c3.4,1.8,5,2,2.1,7.3
			c-4.7,8.6-9.3,5.7-15,3.1c-21.6-9.9-41.2-22.9-58-39.5c-13.4-13.3-22.3-30.3-29.7-47.8c-6.2-14.7-10.5-30.1-13.3-45.8
			C90.1,356.9,89.4,355.5,88.9,354z"/>
		<path fill="#3E3126" d="M391.9,364.3c-0.2-0.8-0.4-1.5-0.5-2.3c3.9,0.7,7.9,1.2,11.7,2.2c3.6,1,7.2-2.9,7.1-3.2
			c-1.4-6.5,3.1-5.7,6.9-5.9c1.2,0,2.1-1.1,2.1-2.2c0-2.1-1.8-1.4-2.9-1.5c-2.2-0.2-4.4-0.1-6.6-0.1c0-0.9,0-1.8,0-2.7
			c0.4-0.4,0.9-0.9,1.3-1.3c9.5,0,16.7,8.8,27,6.8c9.8-2,19.3-4.7,28.6-8.1c1.7-0.6,3.3-2.7,5.8-0.7c-3.8,3.6-8.4,5.9-14.4,8.5
			c5.3,0.9,9.1,1.8,13.1,0.2c-3.6,21-9.6,41.3-18.8,60.7c-18.5,38.7-48.6,64.2-87.9,79.8c-2.3,0.9-4.5,1.7-6.8,2.6
			c-3.5-2.5-2.5-8.5-7.7-9.5c-0.2-2.1-2.1-2.5-4.7-3.9c9.8-2.3,16.5-6.3,15-16.7c-0.9-5.8-6.1-9.3-14.6-10.1
			c2.2-2.2,5.3-3.6,6.7-6.6c5.6-9,2.2-16.8-7.8-19.1c-3-0.7-5.6,0.5-8.3,0.4c0-0.5,0-1,0-1.4c1.3-2.3,3.2-4.5,3.7-6.9
			c0.6-2.9,2.1-4.6,4.5-5c6.8-1.2,11-7.1,17.2-9.3c1.1-0.1,2.1-0.3,2.7-1.3c5.1-1.7,9.8-4,12-9.5c5.2-3.7,12-5.3,14.8-11.9
			c3.8-0.7,6.1-3.6,5.9-6.9c-0.3-4.3-5.2-3.5-8.5-4.6c1.8-2.8,3.8-1.9,5.6-1.6c3,0.4,6.4,1.2,6.9-3.2c0.5-4.8-3.5-3.3-5.9-3.8
			c-0.7-1-1.7-1.3-2.8-0.9C392,365,391.9,364.7,391.9,364.3z"/>
		<path fill="#0DAB9C" d="M277.3,439.6c-2-0.4-3.6,0.6-5.3,1.3c-0.4-1.3-1.5-1.5-2.7-1.8c-2.7,0.1-5.4,0.3-8,0.4
			c-2.5-2-4.1-4.5-4-7.9c-2.3-4.5-6.9-8.9-0.1-13.5c3.7-1.1,7.4-2.2,11.1-3.4c1.6-0.5,3.8-1.3,1-3.4c-0.1-0.8-0.1-1.7-0.2-2.5
			c-0.3-1.8-3.1-2.9-1.6-5.1c1.8-2.5,3.9,0.1,5.8-0.1c0,0.5,0.1,0.9,0.1,1.4c-0.7,3.9-2.9,8.2,2.5,10.8c2.7,1.7,4.1,3.9,3.8,7.5
			c-0.3,3.6,0.2,7.4,0.4,11c-0.8,1.2-1.7,2.4-1.4,4c0,0,0,0,0,0C278.2,438.8,277.7,439.2,277.3,439.6z"/>
		<path fill="#101011" d="M352.2,450.4c-1.4,3-4.5,4.4-6.8,6.6c-5,2-7.8,4.9-5.7,10.9c0.9,2.5-0.3,4.7-3.4,3c-2-1.1-3.9-1.8-6.1-2
			c-1.6-0.1-2.2-1.2-1.7-2.8c1.5-4.7,1.4-4.9-3.7-4.1c-1.4,0.2-2.6,0.3-3.5-0.9c-0.9-7.8,5.3-13.8,5.3-21.4c1.3-1.8,4.3-2.3,4-5.3
			c0-0.5,0-0.9,0-1.4c0.9,0,1.8,0,2.6,0c0,0,0.1,0.1,0.1,0.1c-4.1,7.4,4.5,8.3,6.9,12.1c2.3,3.6,3.8-3.6,7-3.2
			C348.5,447.9,348.5,447.9,352.2,450.4z"/>
		<path fill="#0DAB9C" d="M325.3,390c-1.3,0.6-2.6,1.3-4,1.9c-0.8-0.1-1.7-0.1-2.5-0.2c-0.3-0.3-0.6-0.4-1-0.3
			c-2.9-1.4-2.2-5.6-5.4-6.7c-4.6-2.2-5.4-6-4.3-10.5c1.3-1,3.4-1.6,2.5-4.1c1.4,0.7,2.2,0.1,2.9-1.1c2-0.6,4-1.4,4-4.1
			c1.7-0.5,3.5-1,5.2-1.4c0.5,0.4,1,0.9,1.5,1.3c0.1,1.4,0.2,2.8,0.3,5.3c1-1.9,1.6-2.9,2.2-3.9c2.7-0.4,5.7,0.8,8-1.4
			c3,2.2,1.3,4.4,0.1,6.7c-2.1,0.2-3.5,0.8-1.7,3.2c2,2.6,2.5,5.9,3.2,9c-1.2,3.8-4,5.1-7.6,4.8C327,388.2,325.7,387.7,325.3,390z"
			/>
		<path fill="#0DAB9C" d="M312.7,411.4c-0.3,0.7-0.5,1.5-0.8,2.2c-3.3,2.8-6.2,0.8-9.2-0.6c-5-1.8-10.6-0.5-15.5-2.8
			c-0.2-1.7-0.4-3.3-0.6-5c0.7-6.1,6.3-9.4,8.2-14.8c3.6-3.5,7.5-4.5,11.8-1.1c0.6,4.6,5.2,4.5,8,6.5c0,0-0.1,0-0.1,0
			c0.5,1.3,0.9,2.5,1.4,3.8c-0.4,1.2-0.8,2.3-1.2,3.5c-1.6,1.2-3.5,2.2-1.7,4.6c0.1,0.8,0.3,1.5,0.4,2.3
			C313.1,410.5,312.9,411,312.7,411.4z"/>
		<path fill="#0BB1A2" d="M334.8,371.4c1.2-2.2,2.9-4.5-0.1-6.7c5.3-2.5-0.2-4.1-0.5-6.2c0-0.1-0.2-0.3-0.1-0.4
			c0.1-0.3,0.3-0.5,0.4-0.7c7.5-0.6,15-1.5,22.5-0.2c3.6,3.5-0.3,8,1.5,11.7c0.2,1.3,0.5,2.6,0.7,3.9c-1.9,4.7-7.8,4.1-10.4,7.8
			l-0.4-0.1c0,0-0.4,0.2-0.4,0.2c-2.9,0.7-5.6,2.8-8.8,1C337.8,378.3,336.3,374.8,334.8,371.4z"/>
		<path fill="#101011" d="M213.2,431.7c5.1,0.5,7.6-0.6,4.9-6.4c-1.8-3.8-1.5-7.8,1.6-11.1c2.1,1.7,2.8,3.6,2,6.3
			c-0.5,1.7,0.5,3.6,2.4,4.1c1.8,0.5,3-0.6,3.5-2.2c0.6-2.3,1.8-2.2,3.9-1.9c5.3,0.8,10.1,4.3,16,2.7c1.3-0.3,1.7,1.7,1.9,3
			l-0.1,0.1c-2.8,1.5-4.6,5.3-9.2,2.1c-1.6-1.1-3.3,4-4.8,6.3c-1.4,2.2-2.7,3.6-5.2,2.6C224.6,435.2,217.3,438.1,213.2,431.7z"/>
		<path fill="#04665D" d="M479.1,353.3c3.5-1,7.1-2.1,10.6-3.1c-0.9,12.2-6.2,23-11.2,33.7c-2.6,5.6-4.4,11.8-9.3,16.4
			C472.4,384.6,478.4,369.5,479.1,353.3z"/>
		<path fill="#07090C" d="M340.1,482.4c1.2,4.2-4.4,8.7,0.6,13.2c0.7,0.6-1.8,6.9-5.5,7.8c-4,1-3.9-2.8-4.9-5.4
			c-1.1-3,0.3-9.5-7.9-5c4.1-4.1,10.5-5.4,7-11.9C332.9,482,336.5,482.7,340.1,482.4z"/>
		<path fill="#04665D" d="M73,350c2.8,0.5,5.5,1.2,7.9,2.8c1.9,12.6,3.8,25.2,7.8,37.4C81.1,377.7,76.1,364.2,73,350z"/>
		<path fill="#101011" d="M391.1,386.3c-2.8,6.6-9.6,8.2-14.8,11.9c-4.3-1.7-5.8-5.5-5.1-9.3c0.6-3.6,4.2-5,7.7-5.4
			c2,4.9,6.2,1.8,9.4,2.6C389.2,386.2,390.1,386.3,391.1,386.3z"/>
		<path fill="#0DAB9C" d="M291.8,439.1c-1.7,0.2-3.4,0.5-5.1,0.7c-0.5-0.1-0.9-0.2-1.4-0.3c-0.2-0.3-0.5-0.4-0.8-0.4
			c-0.5-0.3-1.1-0.6-1.6-0.8c-0.3-1.3-0.6-2.6-0.8-3.9c0-3.1,0.1-6.2,0.1-9.3c-0.1-4.2,1.2-7,5.9-6.9c1.1,1.9,1.4,3.2-1.3,4.6
			c-3.4,1.8-3.1,5.7-2.3,8.9c0.8,3.1,3.7,2.5,6.1,2.7c2,0.2,3.9,0.8,5.8,1.1c2,0.3,5.1,0.7,5.4-1.2c0.8-5.2,6.4-8.7,5.1-14.5
			c0.4,0,0.8,0,1.1,0c0.8,3.5,0.3,6.7-1.5,9.8c-1.8,1.2-1.3,3-1.2,4.7c0,0,0.1,0,0.1,0c-1.6,2.6-4.1,3.5-6.9,4.4
			C296.1,439.2,293.7,436.1,291.8,439.1z"/>
		<path fill="#07090C" d="M326.8,439.6c-0.1,7.6-6.3,13.6-5.3,21.4c-1.8-0.9-3.6-1.8-5.3-2.7c-0.9-3.2-1.8-6.3-2.7-9.5
			c0.9-1.3,1.8-2.6,2.7-3.9c0,0-0.1,0.1-0.1,0.1c0.5-0.5,0.9-0.9,1.4-1.4c0,0-0.1,0-0.1,0c1.2,0,2.2-0.3,2.7-1.5
			c0.9-0.9,1.8-1.7,2.7-2.6C324.1,439.6,325.4,439.6,326.8,439.6z"/>
		<path fill="#101011" d="M360,331.4c3.3,7.2,5,14.9,6.4,22.7c-3-0.9-6-1.8-9.1-2.7c0.4-2.5,1.3-5-1-7.1c-1-4.2,0.6-8.8-1.8-12.8
			C356.4,331.5,358.2,331.5,360,331.4z"/>
		<path fill="#03080C" d="M339.3,381.8c3.2,1.8,5.9-0.4,8.8-1c-0.2,3.1-2.1,4.1-4.9,4.1c-3.7,0.1-7.3,0.3-3.9,5.6
			c1.1,1.7-1.4,3.7-1.7,3.1c-3.1-5.2-9.1,0.3-12.3-3.6c0.4-2.2,1.7-1.8,3.4-1.6c3.6,0.3,6.5-1.1,7.6-4.8
			C337.3,382.9,338.3,382.4,339.3,381.8z"/>
		<path fill="#03080C" d="M291.8,439.1c1.9-3,4.3,0.1,6.6-0.6c2.8-0.8,5.3-1.8,6.9-4.4c0.2,2.4,1.7,4,3.6,5.2c2.9,1.9,1,4.2,0,5.7
			c-1.4,2-2.5-0.2-3.5-1.2c-2.1-2.2-4.9-2.6-7.8-2.9C295.5,440.8,293.1,441.6,291.8,439.1z"/>
		<path fill="#101011" d="M349.7,487.6c5.2,1,4.3,7.1,7.7,9.5c-3.5,1.8-7.2,2.8-9.6-1.1C346.3,493.4,344.8,489.5,349.7,487.6z"/>
		<path fill="#03080C" d="M314.4,395.9c-2.8-2-7.3-1.9-8-6.5c1.2-2.5,3-4.4,5.9-4.6c3.2,1.1,2.5,5.3,5.4,6.7
			C314.9,391.5,314.7,393.8,314.4,395.9z"/>
		<path fill="#2B2C27" d="M357.1,357.2c-7.5-1.4-15-0.4-22.5,0.1c-0.2-0.7-0.4-1.4-0.6-2c1.6-0.2,3.2-0.4,4.8-0.6
			c0.9-0.1,1.7-0.2,2.6-0.2c1.4,0.6,1.4-0.5,1.6-1.3c0.4-0.2,0.8-0.5,1.1-0.7c3.9-1,7.8,0,11.7-0.1c0.5,0.6,1,1.1,1.5,1.7
			C357.3,355.2,357.2,356.2,357.1,357.2z"/>
		<path fill="#03080C" d="M330.8,433c0,0.5,0,0.9,0,1.4c-2.6,1.3-5.2,2.7-7.9,4c-1-0.7-1.9-2.2-1.1-2.7c3.4-2,1.8-3.1-0.2-4.8
			c-1.1-0.9-3.6-2.2-1.6-4.1c1.3-1.3,2.9,0.1,3.8,1.4C325.4,430.9,328.4,431.5,330.8,433z"/>
		<path fill="#03080C" d="M349,380.6c2.7-3.7,8.5-3.1,10.4-7.8c3.4,2.3,0.6,5.7,1.5,8.5C356.9,381,352.8,383.4,349,380.6z"/>
		<path fill="#0DAB9C" d="M355.8,352.5c-3.9,0.1-7.8-0.9-11.7,0.1c2-2,2.8-6.6,6.7-4.6c4.9,2.5,5.1-0.3,5.5-3.6
			c2.3,2.1,1.4,4.6,1,7.1C356.8,351.8,356.3,352.1,355.8,352.5z"/>
		<path fill="#03080C" d="M357.1,357.2c0.1-1,0.2-2,0.3-3.1c3.1,2.5,9.8,3.7,3.1,9.6c-1.2,1.1,0.2,3.9-1.9,5.2
			C356.8,365.2,360.7,360.7,357.1,357.2z"/>
		<path fill="#03080C" d="M388.2,386.2c-3.1-0.8-7.4,2.2-9.4-2.6C382,384.4,387.5,376.7,388.2,386.2z"/>
		<path fill="#03080C" d="M307.8,419.7c-0.4,0-0.8,0-1.1,0c0,0-0.1-0.1-0.1-0.1c-0.9-2.5-3.3-2.3-5.3-3c0.4-1.2,0.9-2.4,1.3-3.6
			c3,1.4,5.9,3.4,9.2,0.6C312.1,416.7,309.5,417.9,307.8,419.7z"/>
		<path fill="#101011" d="M257.3,431.6c-0.1,3.4,1.5,5.9,4,7.9c-0.2,1.2,0.4,2.8-1.1,3.3c-1.3,0.5-1.8-1-2.2-1.9
			c-1.2-2.7-4-4.6-3.5-8c0,0,0.1-0.1,0.1-0.1C255.5,432.5,256.4,432.1,257.3,431.6z"/>
		<path fill="#2B2C27" d="M296,466.4c-0.7,2.7-9.1,0.2-3.8,6.3c-0.8,0.2-1.7,0.5-2.5,0.7c-1.8,0.4-1.7-1-1.6-2
			c0.1-1.6-0.7-3.9,1.5-4.5C291.6,466.2,293.8,466.5,296,466.4z"/>
		<path fill="#07090C" d="M316,459.4c-0.1,2.8-2,3.5-3.9,4c-1.5,0.4-2.7-0.4-2.4-2.1c0.4-2.5,2.3-3,4.4-2.9
			C314.8,458.4,316.7,457.3,316,459.4z"/>
		<path fill="#2B2C27" d="M269.3,474.3c0.4-1.8-6.5,0.8-2.1-3.9c1.3-1.4-3.2-1.8-4.6-3.5C270.4,464.6,269.3,470,269.3,474.3
			L269.3,474.3z"/>
		<path fill="#2B2C27" d="M282,455.3c-1.4-4.6,0.9-7.3,1-11.9C284.8,448.3,283.4,451.3,282,455.3z"/>
		<path fill="#2B2C27" d="M340.1,482.4c-3.7,0.3-7.2-0.5-10.7-1.3C333.5,477.8,336.6,481.6,340.1,482.4z"/>
		<path fill="#2B2C27" d="M322.9,438.4c2.6-1.3,5.2-2.7,7.9-4c0.3,3-2.7,3.5-4,5.3c-1.3,0-2.7,0-4,0
			C322.8,439.2,322.9,438.8,322.9,438.4z"/>
		<path fill="#03080C" d="M315.8,399.6c-0.5-1.3-0.9-2.5-1.4-3.8c1.6-0.3,3.2,0,3.7,1.7C318.6,399.4,317,399.4,315.8,399.6z"/>
		<path fill="#03080C" d="M282,434.3c0.3,1.3,0.6,2.6,0.8,3.9c-1.4,0-2.7,0-4.1,0.1c-0.3-1.6,0.6-2.8,1.4-4
			C280.7,434.3,281.3,434.3,282,434.3z"/>
		<path fill="#101011" d="M254.6,433c-3.1-0.5-3.5-3-4-5.3l0.1-0.1c2.1,1.2,3.8,2.7,4,5.3L254.6,433z"/>
		<path fill="#07090C" d="M304.8,455.2c-0.3,0.3-0.8,1.1-1.5,1.2c-1,0.3-1.7-0.6-1.2-1.5c0.3-0.6,1.1-1.2,1.9-1.4
			C304.5,453.4,305.1,453.9,304.8,455.2z"/>
		<path fill="#2B2C27" d="M316.1,444.9c-0.9,1.3-1.8,2.6-2.7,3.9c-0.8,0-2.1,0-1.7-1C312.4,446,314.1,445.1,316.1,444.9z"/>
		<path fill="#101011" d="M326.9,474.1c-0.5-0.6-1.1-1-1.2-1.5c-0.1-0.5,0.2-1.4,0.6-1.6c1-0.4,1.5,0.4,1.5,1.3
			C327.8,472.9,327.4,473.3,326.9,474.1z"/>
		<path fill="#2B2C27" d="M252.7,464.5c-2.3,0.5-3.6,1-4.9-0.2C249.2,463.5,250.6,463.5,252.7,464.5z"/>
		<path fill="#2B2C27" d="M257.3,474.3c-1.5,1.8-3.3,1.6-5.5,0.8C253.6,473.8,255.5,474.7,257.3,474.3L257.3,474.3z"/>
		<path fill="#2B2C27" d="M243.9,477c-1.5,1.8-3.3,1.6-5.5,0.8C240.3,476.4,242.2,477.3,243.9,477L243.9,477z"/>
		<path fill="#2B2C27" d="M274.7,479.7c-1.1,0.6-2.2,1.2-3.6,2C271.6,479.2,272,477.4,274.7,479.7L274.7,479.7z"/>
		<path fill="#2B2C27" d="M276,449.1c0,1.7,0,3.5,0,5.6c-1.9-1.5-1-3.1-1.3-4.4C275.1,449.9,275.5,449.5,276,449.1z"/>
		<path fill="#03080C" d="M276,449.1c-0.4,0.4-0.9,0.8-1.3,1.2c-0.9-0.2-2.6-0.3-1.9-1.6C273.7,446.9,275,447.7,276,449.1z"/>
		<path fill="#03080C" d="M312.9,407.8c-1.8-2.4,0-3.5,1.7-4.6C314.7,404.9,314.9,406.8,312.9,407.8z"/>
		<path fill="#03080C" d="M305.2,434.2c-0.2-1.7-0.6-3.5,1.2-4.7C306.6,431.2,309.8,433.7,305.2,434.2z"/>
		<path fill="#2B2C27" d="M281.8,487.9c-0.1-0.7-0.3-1.4-0.4-2.1c0-0.6,0.1-1.2,0.2-1.8C283.8,485,281.9,486.5,281.8,487.9z"/>
		<path fill="#2B2C27" d="M276,459.7c-0.6,1.2-1.3,2.3-2.9,2.1c-0.2,0-0.6-0.7-0.5-0.9C273.3,459.2,274.8,459.9,276,459.7L276,459.7
			z"/>
		<path fill="#2B2C27" d="M272,507.9c-0.2,0.5-0.4,0.9-0.6,1.3c-0.2-0.5-0.7-0.9-0.7-1.4c0-0.5,0.4-1,0.7-1.5
			C271.6,506.9,271.8,507.4,272,507.9z"/>
		<path fill="#2B2C27" d="M280.5,460c0.2-0.4,0.3-0.7,0.5-1.1c0.4,0.2,0.9,0.3,1.1,0.5c0.1,0.2-0.3,0.7-0.4,1.1
			C281.2,460.4,280.9,460.2,280.5,460z"/>
		<path fill="#03080C" d="M269.4,439.1c1.1,0.2,2.2,0.5,2.7,1.8C269.2,443.1,269.6,440.6,269.4,439.1z"/>
		<path fill="#2B2C27" d="M303,465.4c-0.4,0.4-0.7,0.7-1,0.8c-0.8,0.1-1.7,0.4-2.2-0.6c0.4-0.2,0.8-0.5,1.1-0.5
			C301.6,465.1,302.2,465.3,303,465.4z"/>
		<path fill="#2B2C27" d="M269.3,474.4c0.9,0.5,2.1,0.8,1.6,2.2c-0.1,0.2-0.8,0.4-1.2,0.3C267.9,476.3,269.3,475.2,269.3,474.4
			C269.3,474.3,269.3,474.4,269.3,474.4z"/>
		<path fill="#2B2C27" d="M243.9,477.1c1.1-1.4,2.4-1.7,4.1-0.8C246.8,477.6,245.2,476.7,243.9,477.1
			C243.9,477,243.9,477.1,243.9,477.1z"/>
		<path fill="#2B2C27" d="M231.7,479c1-0.7,2.5-1,2.8-0.1c0.4,1-1.1,0.7-1.7,0.7C232.4,479.6,232.1,479.2,231.7,479z"/>
		<path fill="#03080C" d="M364.2,407.7c-0.6,1-1.6,1.2-2.7,1.3C361.8,407.2,362,405.5,364.2,407.7z"/>
		<path fill="#2B2C27" d="M257.3,474.4c1.1-1.4,2.4-1.7,4.1-0.8C260.1,474.9,258.6,474.1,257.3,474.4
			C257.3,474.3,257.3,474.4,257.3,474.4z"/>
		<path fill="#2B2C27" d="M221.5,481.5c-0.4,0.4-0.7,0.7-1,0.8c-0.8,0.1-1.7,0.4-2.2-0.6c0.4-0.2,0.8-0.5,1.1-0.5
			C220.2,481.1,220.8,481.3,221.5,481.5z"/>
		<path fill="#04665D" d="M466.8,405.4c-0.2-0.5-0.5-1-0.4-1.2c0.3-0.5,0.8-0.9,1.3-1.3c0.1,0.4,0.5,0.9,0.3,1.1
			C467.8,404.5,467.3,404.9,466.8,405.4z"/>
		<path fill="#2B2C27" d="M283.1,491.4c0.4,0.4,0.7,0.7,0.8,1c0.1,0.8,0.4,1.7-0.6,2.2c-0.2-0.4-0.5-0.8-0.5-1.1
			C282.8,492.8,283,492.2,283.1,491.4z"/>
		<path fill="#2B2C27" d="M274.1,496.6c-0.4-1.2-0.7-1.8-0.6-2.3c0-0.4,0.5-0.9,0.7-1.3c0.1,0.4,0.4,0.8,0.4,1.1
			C274.5,494.7,274.3,495.3,274.1,496.6z"/>
		<path fill="#2B2C27" d="M284.7,498.1c0.7,1,1,2.5,0.1,2.9c-1,0.4-0.7-1.1-0.7-1.8C284.1,498.9,284.5,498.5,284.7,498.1z"/>
		<path fill="#2B2C27" d="M272.9,502.8c-0.4-0.5-0.7-0.8-0.7-1.1c0-0.7-0.4-1.6,0.7-2c0,0,0.4,0.7,0.4,1.1
			C273.2,501.4,273,502,272.9,502.8z"/>
		<path fill="#2B2C27" d="M257.7,465.7c-0.4,0.2-0.8,0.5-1.1,0.5c-0.3,0-0.7-0.4-1-0.6c0.4-0.2,0.7-0.5,1.1-0.5
			C257,465.2,257.3,465.5,257.7,465.7z"/>
		<path fill="#2B2C27" d="M324.5,479.1c-0.4,0.2-0.8,0.5-1.1,0.5c-0.3,0-0.7-0.4-1-0.6c0.4-0.2,0.7-0.5,1.1-0.5
			C323.8,478.5,324.1,478.9,324.5,479.1z"/>
		<path fill="#2B2C27" d="M274.6,479.7c0.7,0.3,1.5,0.6,2.2,0.9c-0.2,0.3-0.3,0.6-0.5,0.9C275.8,480.9,275.2,480.3,274.6,479.7
			C274.7,479.7,274.6,479.7,274.6,479.7z"/>
		<path fill="#03080C" d="M392.2,365.2c1.2-0.4,2.1-0.2,2.8,0.9C393.9,366.5,392.4,367.7,392.2,365.2z"/>
		<path fill="#03080C" d="M391.6,381.2c-0.2-0.4-0.5-0.7-0.5-1c0-0.3,0.3-0.7,0.5-1c0.2,0.3,0.5,0.6,0.5,1
			C392.1,380.5,391.8,380.8,391.6,381.2z"/>
		<path fill="#2B2C27" d="M275.3,488.1c-0.2-0.4-0.5-0.7-0.5-1.1c0-0.3,0.3-0.7,0.5-1c0.2,0.3,0.5,0.7,0.5,1
			C275.8,487.4,275.5,487.7,275.3,488.1z"/>
		<path fill="#101011" d="M336.1,430.3c0,0.5,0,1,0,1.4c-0.6,1-1.6,1.2-2.6,1.3c0,0-0.1-0.1-0.1-0.1
			C334.3,432,335.2,431.2,336.1,430.3z"/>
		<path fill="#2B2C27" d="M228.3,480.4c-0.4,0.2-0.8,0.5-1.1,0.5c-0.3,0-0.7-0.4-1-0.5c0.4-0.2,0.7-0.5,1.1-0.5
			C227.6,479.9,227.9,480.2,228.3,480.4z"/>
		<path fill="#2B2C27" d="M284.4,439.1c0.3,0,0.6,0.1,0.8,0.4c0,0.5,0.1,1,0.1,1.5C283,441.4,284.6,439.8,284.4,439.1z"/>
		<path fill="#03080C" d="M318.8,391.7c0.8,0.1,1.7,0.1,2.5,0.2C320.4,393,319.5,392.9,318.8,391.7z"/>
		<path fill="#2B2C27" d="M320.1,442.2c-0.5,1.2-1.6,1.4-2.7,1.5C318,442.6,319,442.3,320.1,442.2z"/>
		<path fill="#2B2C27" d="M276,459.7c0.2-0.6,0.3-1.2,0.5-1.8c0.2,0.1,0.3,0.2,0.5,0.4C276.7,458.7,276.3,459.2,276,459.7
			C276,459.7,276,459.7,276,459.7z"/>
		<path fill="#2B2C27" d="M281.4,480.8c-0.2-0.1-0.3-0.1-0.5-0.2c0.2-0.2,0.4-0.4,0.6-0.5c0.1,0.1,0.2,0.3,0.4,0.4
			C281.7,480.6,281.5,480.7,281.4,480.8z"/>
		<path fill="#2B2C27" d="M265.3,490.4c-0.2,0.6-0.3,1.2-0.5,1.7C263.6,491.1,264.8,490.9,265.3,490.4
			C265.3,490.4,265.3,490.4,265.3,490.4z"/>
		<path fill="#2B2C27" d="M261.3,495.7c0,1.1-0.2,2.1-1.3,2.7l0,0C260,497.3,260.2,496.3,261.3,495.7L261.3,495.7z"/>
		<path fill="#03080C" d="M312.7,411.4c0.2-0.5,0.4-0.9,0.7-1.4C313.1,410.5,312.9,411,312.7,411.4z"/>
		<path fill="#101011" d="M250.5,427.7c-0.4-0.4-0.9-0.9-1.3-1.3c0,0,0.1-0.1,0.1-0.1c0.4,0.4,0.9,0.9,1.3,1.3L250.5,427.7z"/>
		<path fill="#03080C" d="M285.4,441c0-0.5-0.1-1-0.1-1.5c0.5,0.1,0.9,0.2,1.4,0.3C286.2,440.2,285.8,440.6,285.4,441z"/>
		<path fill="#2B2C27" d="M317.4,443.6c-0.5,0.5-0.9,0.9-1.4,1.4C316.5,444.5,317,444.1,317.4,443.6z"/>
		<path fill="#2B2C27" d="M265.3,490.4c0.2-0.2,0.3-0.4,0.5-0.6c0,0.1,0,0.3-0.1,0.3C265.6,490.3,265.4,490.3,265.3,490.4
			C265.3,490.4,265.3,490.4,265.3,490.4z"/>
		<path fill="#2B2C27" d="M261.3,495.8c0.2-0.2,0.4-0.4,0.5-0.6c0,0.1,0,0.3-0.1,0.3C261.6,495.6,261.4,495.7,261.3,495.8
			C261.3,495.7,261.3,495.8,261.3,495.8z"/>
		<path fill="#2B2C27" d="M259.9,498.4c-0.1,0.2-0.2,0.4-0.3,0.6C259.8,498.8,259.9,498.6,259.9,498.4
			C260,498.4,259.9,498.4,259.9,498.4z"/>
		<path fill="#03080C" d="M277.3,439.6c0.5-0.4,0.9-0.8,1.4-1.3C278.2,438.8,277.7,439.2,277.3,439.6z"/>
		<path fill="#04665D" d="M97,184.4c3.1-9,9.2-16.2,15-23.3c32.3-39.9,73.2-66.2,123.5-77.2c45.6-9.9,90-5.4,132.8,13.1
			c25.2,10.9,47.4,26.1,66.7,45.6c10.8,10.9,20.5,22.7,28.8,35.6c1.2,1.9,2.4,3.8,2.1,6.2c-14.3-2.1-28.2-0.6-41.4,5.4
			c-16.9-18.8-37.6-32.4-60.2-43.3c-1.1-0.6-2.1-0.5-2.9,0.5c-4.9-10.9-3.7-13.8,7.6-17.3c1.3-0.4,2.8-0.5,3.2-1.9
			c1.7-6.5-1.5-11.7-4.9-16.6c-2.8-4-7-5.1-11.8-4.3c-2.3,0.4-3.3,1.3-1.7,3.5c3.1,4.1,1.9,8.2,0.3,12.6c-2.4,6.7-6.5,12-12.4,16
			c-1.8-2.3-4.6-2.5-7.1-3.2c-7.1-2.1-14.6-3.2-21-7.3c-0.4-9.1-5.4-16-10.6-22.9c-5.4-7.2-13.6-11.8-17-20.9
			c-1.6-4.4-7.5-4.1-9.3,0.5c-2.8,7-8.2,11.3-13.1,16.3c-5.7,5.9-10,12.8-13.1,20.6c-1.3,3.3-1.4,5.8,0.7,8.5
			c-10.3,1.9-20.7,3.1-30.4,7.6c-11-7.9-14.1-15.7-10.9-28.5c0.8-3.2-1.6-2.5-3-2.8c-7.6-1.3-15,6-16.3,15.9
			c-0.5,3.7-0.2,6.4,4.9,7.4c8.9,1.7,10.4,5.6,7.2,14.3c-25.4,9.7-46.8,25.3-65.9,44.3C123.8,183.7,110.6,182.3,97,184.4z"/>
		<path fill="#03060A" d="M136.7,188.7c19.1-19.1,40.5-34.6,65.9-44.3c-0.5,2.4-0.8,5.2-3.3,6.1c-6.2,2.2-6.2,7.5-5.5,12
			c0.6,4.4,0.1,8.2-1.1,12.3c-5.1,18.7-7.1,37.4-1.3,56.4c-3.6,0.5-6.8,1.6-7.7,5.7c-1.2,0.8-2.4,1.6-3.6,2.4
			c-5.5,2.9-6.3,8.2-6.9,13.6c-4.2,3.8-8.5,7.6-12.8,11.5c3,1.3,5.6-1,8.5-1.2c1.2-0.1,2.5-1.5,3.3,0.4c0.5,1.3-0.6,2-1.4,2.7
			c-8.4,8.3-17.7,15.4-29.3,18.8c-5.5-4.8-7-10.9-5.5-17.8c1-4.7,2.4-10.2,6-13c7.8-6,7.3-13.8,7-22c-0.1-2.9,0.1-5.7,0.1-8.6
			c9.7-1.6,12.2-8.9,6.4-18.9c4.7-5.5,10.9-8.9,17.1-12.1c1.9-1,4.6-1.6,4.3-4.4c-1-9.7,4.1-17.2,8.2-25.1c0.6-0.2,1.2-0.4,1.7-0.6
			c-0.1-0.2-0.3-0.5-0.4-0.5c-0.5,0.3-1,0.6-1.5,1c-9.4,4.1-17.2,10.5-25.3,16.6c-5.6,4.2-9.6,10.4-16.3,13.1
			C141.2,191.3,138.9,190,136.7,188.7z"/>
		<path fill="#03080C" d="M250.7,427.6c-0.4-0.4-0.9-0.9-1.3-1.3c-0.2-1.3-0.6-3.4-1.9-3c-5.8,1.6-10.6-1.9-16-2.7
			c-2.1-0.3-3.2-0.4-3.9,1.9c-0.4,1.6-1.7,2.8-3.5,2.2c-1.9-0.6-2.9-2.4-2.4-4.1c0.8-2.8,0.1-4.7-2-6.3c-0.5-6.6-7.5-5.6-10.6-9.2
			c0.7-4.6-1.1-5.8-5.3-4.1c0,0,0,0,0,0c-0.4-0.9-0.9-1-1.3,0c-5.6,0.5-8.1-2-8.1-7.7c0-3.2,0.3-8.4-5.6-3.8
			c-0.8,0.6-2.1,0.3-2.1-0.7c0.2-5.2-4.3-4.6-7.1-6.1c-10.6-5.9-16.8-15.6-22.5-25.8c5.6-0.8,10.9,1.7,16.5,1.4
			c-2.7,4.3-1.3,6.9,3.1,9c4.2,2,8.3,4.1,12,6.9c4.2,3.1,4.7,0.2,5.7-2.6c3.7,0,7.4,0,11.1,0c0.4,0.5,0.8,1,1.2,1.5
			c3.1,1,4.4,4.8,7.9,5.2c0.5,0.2,1,0.4,1.6,0.6c1.4,1,2.6,1,3.8-0.4c0.4-0.3,0.8-0.4,1.2-0.4c1.9,0.7,1.2,3.1,2.6,4
			c3.2,5,10.2,3.5,13.7,8c0.5,0.6,2.6,0.3,3.8-0.1c4.4-1.4,11.8-11.7,12.1-16.5c0.5-0.1,0.9-0.2,1.4-0.2c3.1,1.6,5.9,1.6,7.9-1.8
			c0.3-0.1,0.4-0.4,0.3-0.7c1.1-0.9,1.3-2.1,1.4-3.4c0.8-0.4,1.6-0.8,2.4-1.2c0.8-0.1,1.6-0.3,2.3-0.4c5.9-3.4,12.4-5.7,16.4-11.7
			c0,0,0,0,0,0c1.3,0,2.7,0,4,0l0,0c0.4,0.4,0.9,0.9,1.3,1.3c0.6,0,1.1,0.1,1.7,0.1c-0.2,1.8-0.3,3.5-0.5,5.3
			c-0.5,0.2-0.9,0.4-1.4,0.7c0.6,0.2,1.2,0.4,1.9,0.6c0.4,0.4,0.7,0.9,1.1,1.3c-0.1,7.1-6.9,7.1-10.7,10.2c-1.4,0-2.8,0-4.1-0.1
			c-0.4,0.1-0.8,0.2-1.2,0.3c-2.1,2.1-3.5,4.8-7,5.4c-3.4,0.6-5.1,3.2-4.7,6.9c-0.6,1-1.1,1.9-1.7,2.9c-3.6-2.5-6.5-1.8-9.1,1.7
			c-2.1,3-5.7,14.7-5.9,18.3c-0.2,4,1.4,6.3,5.3,7.1c0.9,0.7,1.9,1.3,2.8,2c-6.7,4.6-2.2,9,0.1,13.5c-0.9,0.4-1.8,0.8-2.6,1.3
			C254.5,430.3,252.7,428.8,250.7,427.6z"/>
		<path fill="#3E3126" d="M149.2,223.6c-0.1,2.9-0.2,5.7-0.1,8.6c0.3,8.2,0.8,16-7,22c-3.6,2.8-5,8.3-6,13c-1.5,6.9,0,13,5.5,17.8
			c-13.6,4.9-27,5.9-40.3-1c-2.3-1.2-4.6-2.7-5.8-5.2c1.2-4.2,3-8.3,2.8-12.8c4.8,1.3,10,2.2,12.7-3.1c2.8-5.4-0.7-9.4-4.7-12.9
			c0.9-3.6,1.4-7.4,5.2-9.4c4.4,3.6,8.7,6,14,1.4c5.3-4.6,4.1-9.8,1.5-14.9c-1.5-2.9-3.9-5.3-5.9-7.9c5.5-3.6,8.6-9.1,11.9-14.5
			c2.9,0.2,5.4,1.6,7.9,3c2,1.1,3.2,2.1,1.7,5C139.3,219.4,141.3,222.3,149.2,223.6z"/>
		<path fill="#101011" d="M205.4,371.5c-3.7,0-7.4,0-11.1,0c2.4-27.7,12-53.2,24-77.9c3.1-6.4,6.2-12.7,9.3-19
			c0.1-1.8,0.2-3.5,0.3-5.3c0.9-0.1,1.8-0.2,2.6-0.2c-0.1,4.2-0.1,8.4,4.6,10.5c-1.3,2.2-2.1,4.8-4.5,6.1c-0.7-1.6-0.8-3.6-3.1-4.4
			c0.1,2.5,0.3,4.4,0.4,6.3c2.4,3.1,7.1,4,7.8,8.7c0.1,0.9,1.3,0.9,2.1,1.2c10.1,4.7,17.4-3,26.7-5.9c-2.5,11.7-5.9,23.1-1.8,34.6
			c-3.7,1-5.9-3.5-9.6-2.5c-0.5,0-0.9-0.1-1.2-0.5c-2.4-4.7-3.8-1.6-5.4,0.6c-0.1,0.5-0.4,0.7-0.9,0.6c-1-1.8-1.1-4.6-3.9-4.6
			c-2.1,0-2.9,1.6-3.1,3.6c-0.4,0.2-0.8,0.3-1.2,0.2c-1.2,0-2.3,0.2-2.7,1.6c0,0,0.2,0.1,0.2,0c-2.3-0.1-4.4-5.9-7-0.4
			c-1.3,0-2.7,0-4,0c-0.3-2-1.8-4.9-3.3-2.9c-3.8,5-6.3,0.5-10.4-1.2c1.4,4.2-1.4,6-2.5,8.5c-0.9,2-2.3,4.2,1.4,4.9
			c1.5,2.6-0.7,3.9-1.7,5.8c-1.7,3.3-1,7.2,2.7,7.2c7.2-0.1,12.3,5.7,19.1,5.8c-0.4,0.5-0.9,1-1.3,1.5c-5.2-1-10.5-1.9-15.7-2.9
			c-2.8-0.5-5.3-0.3-7.2,2.2C202.9,356.4,203.2,368.6,205.4,371.5z M221.5,307.4c2.8,0.3,4.1-1.1,3.8-3.9c2.1-1.2,4.2-2.3,6.3-3.5
			c3.8-2.2,0.8-4.7-0.1-6.7c-1.1-2.3-2.9-2.2-4.7-0.3c-3.9,4.3-7.1,9-7.5,15.1c-0.1,1.1-0.1,1.8,1.2,0.9
			C220.9,308.7,221.1,308,221.5,307.4z M227.3,308.4c9.5,6.3,19.9,9.4,31.4,7.3C248.1,314.1,237.4,312.4,227.3,308.4z M218.4,313.7
			c-1,0.8-1.5,1.1-1.9,1.5c0.3,0.4,0.6,1.1,1,1.3c0.8,0.2,1.8,0.1,1.7-1.1C219.2,314.8,218.7,314.3,218.4,313.7z"/>
		<path fill="#3E3126" d="M143.4,192.7c6.7-2.7,10.8-8.9,16.3-13.1c8.1-6.1,16-12.5,25.3-16.6l0.1,0.1c-4.1,7.9-9.2,15.5-8.2,25.1
			c0.3,2.8-2.4,3.4-4.3,4.4c-6.3,3.2-12.4,6.6-17.1,12.1C151.5,200.7,147.5,196.7,143.4,192.7z"/>
		<path fill="#101011" d="M159.8,319.7c7.2-2.9,14.3-5.7,21.5-8.6c1.7-0.7,4.2-2.9,4.9-0.1c0.6,2.6,5.6,4,2.4,7.8
			c-1.2,1.5-1.8,3.5-2.8,5.2c-3.5,6-7,12.1-5.7,19.5c-4.1-2.2-6.5-6.9-11.2-8.2c3.3-3.6,6.6-7.1,9.9-10.7c1.1-1.1,2.7-2.2,1.5-3.8
			c-0.9-1.2-2.4-0.2-3.7,0.2c-5.1,1.5-9.8,4.3-15.4,3.5C160.7,322.9,160.3,321.3,159.8,319.7z"/>
		<path fill="#101011" d="M180.1,239.2c1.2-0.8,2.4-1.6,3.6-2.4c2.7-1,5.4-1.9,8-2.9c3.2,7.6,6.2,15.2,12.1,21.2
			c0.2,2.1-0.7,4-1.5,5.9c-3.8-2.4-7.5-4.9-9.8-8.8c-3.6-6.2-8.5-6-14.2-3.6C176.2,244.9,180.9,242.6,180.1,239.2z"/>
		<path fill="#07090C" d="M168.8,335.3c4.7,1.4,7.1,6,11.2,8.2c-1.2,4.3-2.9,8.3-5.4,12c-6.8-2.2-10.9-9-17.9-10.9
			C160.8,341.5,164.8,338.4,168.8,335.3z"/>
		<path fill="#07090C" d="M111.5,240.6c-3.8,2-4.4,5.8-5.2,9.4c-3.1-0.1-6.3-0.2-9.4-0.4c0.9-7.3,6.5-12.7,8-19.7
			c7.9-0.6,8.4-0.1,6.7,7.3C111.4,238.3,111.5,239.5,111.5,240.6z"/>
		<path fill="#04665D" d="M104.9,230c-1.6,7-7.2,12.4-8,19.7c-3.2,0.9-6.4,1.8-9.6,2.6c0-0.7-0.1-1.4-0.1-2.1c2.6-1.7,2-4.7,2.9-7.1
			C92.7,236,96.9,230.9,104.9,230z"/>
		<path fill="#07090C" d="M133,204.7c-3.3,5.4-6.4,10.9-11.9,14.5c-1.9-1.3-3.8-2.6-5.6-3.9c0.8-3.8,5.6-5.6,5.2-10
			C124.7,203.6,128.8,204,133,204.7z"/>
		<path fill="#2B2C27" d="M159.8,319.7c0.4,1.6,0.9,3.2,1.3,4.8c-10.7,3.3-21.2,1.6-31.7-0.5C139.6,322.4,149.9,323.1,159.8,319.7z"
			/>
		<path fill="#2B2C27" d="M156.7,344.7c7,1.9,11.1,8.7,17.9,10.9c-0.1,1,0,2.1-1.1,2.6c-5.6,0.3-10.9-2.2-16.5-1.4
			c-0.4-0.9-0.9-1.8-1.3-2.7c2.6-0.1,5.3,0.3,7.4-2.6c-3.1-1.9-6-3.7-8.9-5.5C154.8,345,155.6,344.5,156.7,344.7z"/>
		<path fill="#2B2C27" d="M202.4,261c0.8-1.9,1.7-3.7,1.5-5.9c4.9,3.6,9.8,7.1,14.7,10.7c0.3,3-2.8,2.4-4,3.9
			C209.8,267.8,205.6,265.1,202.4,261z"/>
		<path fill="#04665D" d="M120.6,205.3c0.4,4.4-4.4,6.2-5.2,10c-5.4-1.6-10.7-3.7-16.8-2.9C106.5,210.8,113.3,207.1,120.6,205.3z"/>
		<path fill="#101011" d="M98.3,265.9c0.1,4.5-1.6,8.6-2.8,12.8c-4.2-3.9-3.8-8.4-1.6-13.1C95.6,262.1,97,263.9,98.3,265.9z"/>
		<path fill="#443C30" d="M75.5,257.7c-1.1,0.6-2,2.1-3.4,1.3c-5.3-3.1-10.6,0.2-17.2,0.5c7.1-5.2,13.7-5.3,20.6-3.4
			C75.5,256.6,75.5,257.2,75.5,257.7z"/>
		<path fill="#07090C" d="M154.3,346c2.9,1.8,5.9,3.6,8.9,5.5c-2.1,2.9-4.9,2.5-7.4,2.6c-2.2-1.4-2-5-5-5.6
			C151.6,347.2,152.7,346.3,154.3,346z"/>
		<path fill="#2B2C27" d="M180.1,239.2c0.8,3.4-4,5.7-1.7,9.4c-1.7,1.4-3.5,2.8-5.2,4.2C173.8,247.4,174.6,242.1,180.1,239.2z"/>
		<path fill="#443C30" d="M115.5,321.9c4.5-0.9,8.8-0.2,13,1.7C123.9,325.1,119.7,323.2,115.5,321.9z"/>
		<path fill="#0DAB9C" d="M75.5,257.7c0-0.5,0-1.1-0.1-1.6c3.6-2.7,7.3-5,11.7-5.9c0,0.7,0.1,1.4,0.1,2.1
			C83.3,254.1,79.4,255.9,75.5,257.7z"/>
		<path fill="#101011" d="M214.6,269.7c1.2-1.4,4.3-0.9,4-3.9c2.7,0,3.8,3.2,6.6,3c-0.1,2-1.5,2.5-3.1,2.8
			C219.5,271.4,216.8,271.4,214.6,269.7z"/>
		<path fill="#2B2C27" d="M66.9,218.1c2.8-0.5,5.8-1.7,8.4-1.2c2.5,0.5,5.2,0.3,7.6,1.6c-5.3,0.7-10.7,0.3-16,1.5
			C66.9,219.5,66.9,218.8,66.9,218.1z"/>
		<path fill="#443C30" d="M222.1,271.6c1.6-0.3,3-0.8,3.1-2.8c0.9,0.1,1.9,0.2,2.8,0.4c-0.1,1.8-0.2,3.5-0.3,5.3
			C225.5,274.1,223.6,273.1,222.1,271.6z"/>
		<path fill="#07090C" d="M437.6,288.4c-13-0.4-24.4-5.3-34.6-13.1c1.2-6.3,3.5-12.7-1.1-18.7c-0.3-7.8,0.9-15.9-6.3-22
			c-1.7-1.4-2.2-4.7-2-7.5c0.4-5.8-2.7-9.5-7.5-12.2c-1.7-1-3.8-1.5-4.5-3.6c3.9-0.5,6.8,3.2,10.7,2.7c0,1.7,0.9,2.6,2.7,2.7
			c5.9,17.2,6,17.3,13.4,18.6c-6-3.6-7.4-9.9-10-15.6c-0.6-1.3-2.2-2.1-3.3-3.1c-0.1-1.7-1-2.6-2.7-2.7c-2.6-4-6.6-4.1-10.7-4
			c-2.1,0-4.2-0.1-6.3-0.1c-0.3-5.3-0.5-10.6-0.8-15.9c4.1,0.2,5.9,5.9,10.3,4.8c8.7-2.2,16.3-0.1,23.6,4.5
			c-1.8,3.7-4.9,6.8-4.2,11.5c1.1,7.7,7.6,10.7,16,7.1c4,4.9,6.6,11.1,13.2,13.5c0,2.6,1.8,4.4,3,6.4c1.3,9.6,2.3,19.2-3.3,28
			c-0.8,1.3-0.2,2.5,0.6,3.6C437,277.8,436.9,283.2,437.6,288.4z M409.7,239.3c0.8,2.5,0.4,4.8,3.4,4.5
			C413.2,241.8,412.6,240.4,409.7,239.3z M414.8,247.9c-0.2-0.4-0.4-0.7-0.6-1c-0.2,0.3-0.5,0.7-0.5,1c0,0.3,0.3,0.7,0.5,1
			C414.5,248.6,414.6,248.2,414.8,247.9z"/>
		<path fill="#07090C" d="M352.1,310.1c3.5,5.3,5,11.4,6.8,17.3c-9.1-0.3-18.1-2.6-27.2-0.9c-4.5-2.7-10.1-0.3-14.8-3.1
			c-1.5-0.9-4.8,0.6-4.9,2.3c-0.3,4.9-5.5,5.8-6.9,9.6c-1.4,1-1,2.6-1.4,4c-7.1,2-11.4,8.5-18.3,10.9c-0.6-1-1.5-1.5-2.6-1.1
			c-0.2,0-0.2,0.3-0.3,0.5c1,0.2,2,0.4,3,0.6c0,1.3,0,2.6,0,4c0,0,0,0,0,0c-1.3,0-2.7,0-4,0c-1.6-0.4-2.7-3.2-4.5-1.8
			c-1.5,1.2-1.1,3.2,0.6,4.5c-1.2,2.3-3.5,2.9-5.6,3.9c-0.2,0-0.5,0-0.7,0c-0.6-2-0.8-4.2-3.2-5l0.2-0.6c-0.2-0.4-0.5-0.7-0.8-0.9
			c0.1-1,0.3-2,0.4-3c2.5-2,8-2.4,4.3-7.8l0,0c2.2,0,4.1,4,6.5,0.2c1.9-3-2.3-2.4-2.5-4.2c0.9-1.3,1.9-2.6,2.8-3.8
			c2.2-0.1,3.3-1.9,4.9-3c4.7-3.4,8.7-7.9,14.6-9.6c0.2,1,0.1,2.5,0.6,2.7c1.1,0.5,1-0.9,1.3-1.5c0.6-1.6,1.2-3.2,1.8-4.7
			c6.5-0.7,11.3-5.3,17.5-6.9c-6.6-1.6-11.6,3-17.4,4.1c-0.1-2.7-0.2-5.3-0.2-8c0.6,0,1.2,0,1.9,0.1c7.6-1.8,15.3-3.2,21.8-8.1
			c0.2-0.1,0.3-0.3,0.5-0.5c4.3,0.4,7.8,2.3,10.1,6c-0.4,1.1-2.7,1.4-1.8,2.9c1,1.7,3.1,0.7,4.7,0.9c0.4,0,0.8,0,1.1,0
			C344.1,310,348.1,310,352.1,310.1z M295.6,338c-1.8-0.7-1.6-4-4.3-3c-1.1,0.4-2.1,2.2-1.3,3.3C291.5,340.2,293.5,339.6,295.6,338z
			 M285.7,340.6c-0.8-1-1.1-1.5-1.5-1.9c-0.4,0.3-1.1,0.6-1.2,1c-0.2,0.8-0.1,1.8,1.1,1.7C284.6,341.4,285.1,340.9,285.7,340.6z
			 M281.8,345.5c-0.3,0-0.7-0.1-1-0.1c0.2,0.1,0.3,0.3,0.5,0.4C281.5,345.8,281.7,345.6,281.8,345.5z"/>
		<path fill="#443C30" d="M335.8,275.2c2.9,6.2,7.1,11.8,8.6,18.6c-2.5,1.1-0.7,6.5-5.3,5.6c-5.2-8.8-5.2-8.8-12-3.7
			c-0.6-1.3-1.8-1.6-3.1-1.8c1.9-3.2,6.8-3.8,8-6.4c1.7-3.6-4.4-4.9-5.2-8.5c-0.1-0.2-0.6-0.3-1.1-0.5c-1.4,5.4-5.3,4.9-9.8,4.4
			c0.7-3.2,5.6-5.8,1-9.3c-0.8,6.8-6.1,5.2-9.8,4.9c-7.2-0.7-14.6,0.3-21.7-2.2c-2.6-0.9-5.1-0.6-7.8-0.1
			c-6.7,1.2-13.2,4.9-20.2,1.8c-0.4-2.8-0.9-5.5-1.3-8.3c2.4,1,5,1.7,7.3,2.9c3.9,2.2,3.2-1,3.7-2.9c0.8,0,1.5,0,2.3,0
			c0.5,0.7,0.9,1.9,1.5,2c5.4,0.7,10.8,1.9,16.1,1.6c3.5-0.2,6.8-1.7,6.6-7.3c-0.3-10-0.9-20.2,1.5-30.1c0.7,0.1,1.5,0.3,2.2,0.4
			c0.5,12-2.1,24-0.7,36.8c5.3-3.8,10.4-6.4,15.9-8c2.3-0.7,5.8-2.6,1.9-5.4c-1.5-1.1-3.9-1.4-2.6-3.5c1.3-2.2,3.9-2,5.9-0.6
			c4.7,3.3,2.5,7.2,0.5,11.1c2.5,0.3,4.9,0.7,7.3,1C326.2,274.1,330.3,275.7,335.8,275.2z"/>
		<path fill="#3E3126" d="M437.6,288.4c-0.7-5.2-0.6-10.5-3.9-15c-0.8-1.1-1.4-2.3-0.6-3.6c5.5-8.8,4.6-18.4,3.3-28
			c4.8,3.8,9.6,3.5,14.3-0.3c2.7,2.4,2.4,6.9,6,8.7c-3.8,2.7-6.6,6.1-5.5,11c1.2,5.7,6.3,5.2,10.5,6c1.4,4.3,2.8,8.6,4.2,12.9
			C458.1,288.5,448.1,289.3,437.6,288.4z"/>
		<path fill="#3E3126" d="M408.3,203.2c-7.3-4.6-14.9-6.8-23.6-4.5c-4.4,1.1-6.1-4.6-10.3-4.8c-0.6-3.2-1.3-6.3-1.9-9.5
			c0.8,0.2,1.7,0.4,2.5,0.8c3.6,1.6,5.9-0.4,7.9-2.9c1.8-2.3,1.8-5,0.1-7.4c-2.1-3.1-5.3-2.8-8.4-2.1c-1.4,0.3-2.6,1.5-3.9,2.3
			c-3.4-4.7-2.5-9.7-1.1-14.8c4,0,7,2.4,10.2,4.4c13.7,8.4,25.6,18.9,37.8,29.1C414.6,197,411.5,200.1,408.3,203.2z"/>
		<path fill="#03080C" d="M417.7,193.9c-12.2-10.3-24.2-20.8-37.8-29.1c-3.2-2-6.2-4.4-10.2-4.4c0.6-6.7-5.9-8.7-8.5-13.4
			c0.8-1.1,1.8-1.1,2.9-0.5c22.6,10.9,43.3,24.4,60.2,43.3C422.2,191.1,420,192.5,417.7,193.9z"/>
		<path fill="#101011" d="M410.9,347.5c-0.4,0.4-0.9,0.9-1.3,1.3c-2,0.2-3.8-1-5.6-1.4c-7.4-1.5-13.9-6-21.7-5.7
			c0,0-0.2-0.5-0.2-0.5c0.3-1,0.6-2,0.9-3c2.3-2.4-0.3-4-1-5.8c-0.9-2.2-2.1-4.3-3.2-6.5c-3.4-6.6-3.4-6.6-1.9-16.8
			c6.1,2.6,12.1,5.3,18.1,7.9c1.4,3,3.4,4.6,6.7,2.6c2.7,0.9,5.4,1.7,8,2.6c0,0.4,0,0.8,0.1,1.2c-1.5,0.8-0.3,1.6,0,2.4
			c-9.3,0.2-18.1-3-28.6-6.2C389,332.7,400,340,410.9,347.5z"/>
		<path fill="#101011" d="M397.6,259.3c-3.1-2.5-6.2-5-9.3-7.6c-8.2-6.9-12.1-6.6-18.6,1.6c-1.2-2.6-4.1-2.3-6.1-3.5
			c3.9-6.7,6.5-13.9,8.7-21.2c8.1,0.2,14.8,4.2,16.8,11.4c1.9,6.8,5.4,11.8,9.8,16.6C398.9,257.7,398.7,258.7,397.6,259.3z"/>
		<path fill="#03060A" d="M409.6,351.4c2.2,0,4.4,0,6.6,0.1c1.1,0.1,3-0.6,2.9,1.5c0,1.1-0.9,2.2-2.1,2.2c-3.8,0.1-8.2-0.7-6.9,5.9
			c0.1,0.3-3.5,4.2-7.1,3.2c-3.8-1.1-7.8-1.5-11.7-2.2c-2.6-5.7-5.1-11.4-7.7-17.2C392.3,347.2,400.5,351.1,409.6,351.4z"/>
		<path fill="#3E3126" d="M433.4,235.3c-6.6-2.4-9.2-8.6-13.2-13.5c1.2-1.9,2.4-4.2,1.3-6.1c-4.5-8.1,1.8-9,6.9-10.7
			c2.8,6.1,6.6,11.5,12,15.6C436.7,224.8,433.9,229.5,433.4,235.3z"/>
		<path fill="#101011" d="M335.8,275.2c-5.5,0.5-9.6-1.1-10.3-7.3c3.1-4.2,0.2-9.4,2.1-13.8c1-0.1,2.1-0.1,3.1-0.2
			c0.4,3.5,1.3,7,1.2,10.5c-0.1,4.7,2,5.1,5.6,3.9c8.2-2.6,14.7-7.9,21.3-13.1c2.5,1,2.9,3.1,2.7,5.5c-5.4,5.2-11.3,9.5-19,10.9
			C340.2,272.1,338,274,335.8,275.2z"/>
		<path fill="#04665D" d="M456.3,230c9.3,0.7,15,5.5,16.1,14.3c0.5,3.5,2,5.5,5.2,6.6c2.8,1,5.8,1.8,8.7,6c-8-3.8-14.9-6.1-22-7.4
			C463.1,242.4,457.3,237.2,456.3,230z"/>
		<path fill="#07090C" d="M456.3,230c1,7.2,6.8,12.4,8.1,19.5c-2.5,0.2-5.1,0.5-7.6,0.7c-3.6-1.8-3.4-6.3-6-8.7
			c0.5-1.7,1.1-3.5,0.3-5.1C448.1,230.2,451.4,229.5,456.3,230z"/>
		<path fill="#07090C" d="M440.4,220.6c-5.4-4.1-9.1-9.5-12-15.6c3.5-0.8,7-1.3,10.6-0.3c2.3,3.8,4.6,7.7,6.9,11.5
			C444,217.7,442.2,219.1,440.4,220.6z"/>
		<path fill="#2B2C27" d="M397.6,259.3c1.1-0.6,1.3-1.6,1.3-2.7c1,0,1.9,0,2.9-0.1c4.6,6,2.3,12.4,1.1,18.7
			c-3.9-2.1-7.2-4.9-10.2-8.2c-1.1-1.2-3.4-2-1.8-4.2c1.3-1.7,2.8,0,4.2,0.2c1.5,0.2,3,0.7,4.5,1c0.9,0.4,1.9,1,2.8,0.1
			c-0.6-0.5-1.1-1-1.7-1.6C399.7,261.5,398.7,260.4,397.6,259.3z"/>
		<path fill="#04665D" d="M445.8,216.3c-2.3-3.8-4.6-7.7-6.9-11.5c9.6,1.2,17.9,6.5,27.6,8.2C459.2,212,452.3,212.9,445.8,216.3z"/>
		<path fill="#101011" d="M339,299.4c4.7,0.9,2.8-4.4,5.3-5.6c4.3,4.6,5.9,10.5,7.7,16.2c-4,0-8,0-12,0
			C339.7,306.5,339.4,302.9,339,299.4z"/>
		<path fill="#101011" d="M465.9,280.2c-1.4-4.3-2.8-8.6-4.2-12.9c2.7,0.4,3.6-6.2,7-1.9C472.3,269.9,471.2,275.2,465.9,280.2z"/>
		<path fill="#2B2C27" d="M331.6,326.5c9.1-1.7,18.1,0.7,27.2,0.9c1.1,1.1,1.6,2.4,1.2,4c-1.8,0-3.6,0.1-5.5,0.1
			c-3.6,0.6-7-0.6-10.3-1.9c-3.2-1.2-6.4-1.7-9.3,0.8c-0.9-0.6-1.9-1.1-2.8-1.7C332,328,331.8,327.2,331.6,326.5z"/>
		<path fill="#2B2C27" d="M409.6,351.4c-9.1-0.3-17.3-4.2-25.9-6.5c-0.5-1.1-1-2.1-1.5-3.2c7.8-0.3,14.4,4.2,21.7,5.7
			c1.9,0.4,3.6,1.5,5.6,1.4C409.6,349.6,409.6,350.5,409.6,351.4z"/>
		<path fill="#443C30" d="M361.6,260.8c0.1-2.4-0.3-4.4-2.7-5.5c1.6-1.8,3.2-3.6,4.8-5.5c2,1.2,4.9,0.9,6.1,3.5
			C367.7,256.6,364.6,258.6,361.6,260.8z"/>
		<path fill="#2B2C27" d="M506.7,259.8c-7-2.6-12.9-1.5-18.9-2C492.1,253.6,499.9,254.1,506.7,259.8z"/>
		<path fill="#443C30" d="M478.5,218.9c5.9-2.9,11.8-2.4,17.6,0.5C490.3,219.3,484.4,218.9,478.5,218.9z"/>
		<path fill="#07090C" d="M432.4,324.9c-4.3,1.8-8.9,1.2-13.4,1.2c0.1-1.1,0.1-2.2,0.2-3.3c4.4-0.1,8.7-0.2,13.1-0.3
			C432.2,323.3,432.3,324.1,432.4,324.9z"/>
		<path fill="#443C30" d="M432.4,324.9c-0.1-0.8-0.1-1.6-0.2-2.4c4.8-0.2,9.6-1.9,14.4,0.6C441.8,323.7,437.1,324.3,432.4,324.9z"/>
		<path fill="#443C30" d="M401.5,319.6c-3.4,2.1-5.3,0.4-6.7-2.6C397.2,317.6,399.6,318,401.5,319.6z"/>
		<path fill="#443C30" d="M409.6,323.4c0-0.4,0-0.8-0.1-1.2c1.4,0.1,2.7,0.2,4.1,0.3c0,1.2,0,2.4-0.1,3.6c-0.9,0-1.8,0-2.7,0
			C411.1,324.8,410.8,323.9,409.6,323.4z"/>
		<path fill="#443C30" d="M419.1,322.8c-0.1,1.1-0.1,2.2-0.2,3.3c-0.9,0-1.8,0-2.6,0c0-1.1-0.1-2.3-0.1-3.4
			C417.2,322.2,418.1,322.2,419.1,322.8z"/>
		<path fill="#07090C" d="M416.2,322.7c0,1.1,0.1,2.3,0.1,3.4c-0.9,0-1.8-0.1-2.7-0.1c0-1.2,0-2.4,0.1-3.6
			C414.5,322.5,415.3,322.6,416.2,322.7z"/>
		<path fill="#07090C" d="M409.6,323.4c1.2,0.5,1.5,1.4,1.3,2.6c-0.4-0.1-0.9-0.2-1.3-0.2C409.4,325,408.1,324.1,409.6,323.4z"/>
		<path fill="#2B2C27" d="M382.9,338.2c-0.3,1-0.6,2-0.9,3C381.2,339.8,380.7,338.6,382.9,338.2z"/>
		<path fill="#101011" d="M203.8,400.9c4.2-1.7,6-0.5,5.3,4.1C206.4,404.9,203.4,405.2,203.8,400.9z"/>
		<path fill="#101011" d="M202.5,400.9c0.5-0.9,0.9-0.9,1.3,0C203.4,400.9,203,400.9,202.5,400.9z"/>
		<path fill="#07090C" d="M333.5,433c1.1,0,2-0.2,2.6-1.3c2.8,0.1,5.3-1.1,8.3-0.4c10,2.3,13.4,10.1,7.8,19.1
			c-3.7-2.5-3.7-2.5-4.8-8.5c-3.2-0.4-4.7,6.8-7,3.2C337.9,441.3,329.4,440.4,333.5,433z"/>
		<path fill="#0BB1A2" d="M254.3,416.2c-3.9-0.8-5.5-3.1-5.3-7.1c0.2-3.7,3.8-15.4,5.9-18.3c2.5-3.6,5.5-4.2,9.1-1.7
			c0.9,1.5,1.8,3,4,2.5l0,0c-0.7,4.8,4.3,6.7,5.4,10.6c0,0.5,0,1,0,1.4l0,0.1c-2,0.2-4.1-2.4-5.8,0.1c-1.5,2.2,1.3,3.3,1.6,5.1
			c0.1,0.8,0.1,1.7,0.2,2.5C264.3,412.9,259.3,414.6,254.3,416.2z"/>
		<path fill="#F0EFE1" d="M286.5,405.2c0.2,1.7,0.4,3.3,0.6,5c-1,7.4-7.4,3.8-11.2,5.5c-5.4-2.5-3.2-6.8-2.5-10.8
			c2.8,0.4,4.5-1.5,6.5-2.9c0.9,0.1,1.7,0.1,2.6,0.2c0,0-0.2,0-0.2,0C283.8,403.3,285.2,404.3,286.5,405.2z"/>
		<path fill="#2B2C27" d="M275.9,415.8c3.8-1.7,10.2,1.8,11.2-5.5c4.9,2.3,10.5,1,15.5,2.8c-0.4,1.2-0.9,2.4-1.3,3.6
			c-2.2-0.4-4.4-0.8-6.6-1.3l0.1,0.1c-0.6-1.1-1.6-1.3-2.8-1.1c-3.1-0.6-4.5,0.6-4.1,3.8c-4.7,0-6,2.7-5.9,6.9
			c0.1,3.1,0,6.2-0.1,9.3c-0.6,0-1.3,0-1.9,0c-0.2-3.7-0.7-7.4-0.4-11C280,419.7,278.7,417.5,275.9,415.8z"/>
		<path fill="#04665D" d="M280,402.1c-2,1.4-3.8,3.3-6.5,2.9c0-0.5-0.1-0.9-0.1-1.4c0,0,0-0.1,0-0.1c1.1-0.5,1-0.9,0-1.4
			c-1.1-3.9-6.1-5.8-5.4-10.6c2.8,0.9,3.9,3.4,5.5,5.5c1.6,2.1,2.9,4.6,6.2,3.8C279.8,401.2,279.9,401.7,280,402.1z"/>
		<path fill="#04665D" d="M254.3,416.2c5-1.6,10-3.2,15-4.9c2.7,2.1,0.5,2.9-1,3.4c-3.6,1.3-7.4,2.3-11.1,3.4
			C256.2,417.5,255.3,416.8,254.3,416.2z"/>
		<path fill="#101011" d="M282.7,373.6c3.9-3.1,10.6-3.2,10.7-10.2c1.9,0.7,3.6,1.6,4.2,3.8c1.5,5.5,5.3,6.7,10.3,5.1
			c0.1,0.6,0.1,1.2,0.2,1.8c-1.2,4.6-0.4,8.3,4.3,10.5c-3,0.3-4.7,2.1-5.9,4.6c-4.3-3.4-8.1-2.4-11.8,1.1c-0.1-0.6-0.3-1.3-0.4-1.9
			c0.1-3.1,2-7.4-2.1-8.7C288.2,378.6,285.8,375.7,282.7,373.6z"/>
		<path fill="#101011" d="M334.2,358.5c0.3,2.1,5.8,3.7,0.5,6.2c-2.4,2.3-5.3,1.1-8,1.4c-0.5-1.1-1.4-1.3-2.5-1.3
			c-0.5-0.4-1-0.9-1.5-1.3c0.1-0.6,0.1-1.2,0.2-1.8C327.8,364.7,331.2,362.1,334.2,358.5z"/>
		<path fill="#2B2C27" d="M339.3,381.8c-1,0.6-1.9,1.2-2.9,1.7c-0.7-3.1-1.2-6.4-3.2-9c-1.8-2.4-0.4-2.9,1.7-3.2
			C336.3,374.8,337.8,378.3,339.3,381.8z"/>
		<path fill="#2B2C27" d="M324.2,364.8c1.1,0,2,0.3,2.5,1.3c-0.6,1-1.1,2-2.2,3.9C324.4,367.6,324.3,366.2,324.2,364.8z"/>
		<path fill="#2B2C27" d="M317.5,364.9c0,2.6-1.9,3.4-4,4.1c-0.2-0.2-0.5-0.5-0.7-0.7c0.9-1.9,2.8-2.6,4.5-3.5L317.5,364.9z"/>
		<path fill="#2B2C27" d="M322.9,361.7c-0.1,0.6-0.1,1.2-0.2,1.8c-1.7,0.5-3.5,1-5.2,1.4c0,0-0.1-0.2-0.1-0.2c0.8-1,1.6-1.9,2.4-2.9
			c0.7-0.7,1.3-1.3,2-2C322.2,360.5,322.5,361.1,322.9,361.7z"/>
		<path fill="#2B2C27" d="M308.1,374.1c-0.1-0.6-0.1-1.2-0.2-1.8c0.4-1.4,1.4-1.9,2.8-2.1l-0.1-0.1
			C311.6,372.5,309.5,373.1,308.1,374.1z"/>
		<path fill="#2B2C27" d="M313.5,369c-0.6,1.2-1.5,1.8-2.9,1.1c0,0,0.1,0.1,0.1,0.1c0.7-0.6,1.4-1.3,2.1-1.9
			C313.1,368.5,313.3,368.8,313.5,369z"/>
		<path fill="#2B2C27" d="M294.3,388.5c0.1,0.6,0.3,1.3,0.4,1.9c-1.8,5.4-7.5,8.8-8.2,14.8c-1.4-1-2.7-1.9-4.1-2.9
			c3-0.5,3.8-3.2,5.3-5.2C289.9,394.2,290.5,390.1,294.3,388.5z"/>
		<path fill="#F0EFE1" d="M322.9,361.7c-0.4-0.6-0.7-1.2-1.1-1.7c-0.9-3.1-0.1-5.9,1.5-8.5c0.5,0.1,0.7-0.2,0.7-0.7
			c2.3-0.9,4.5-0.4,6.8,0c2.3,0.7,2.4,2.9,3.2,4.6c0.2,0.7,0.4,1.4,0.6,2c-0.2,0.2-0.3,0.5-0.4,0.7c0,0.1,0.1,0.3,0.1,0.4
			C331.2,362.1,327.8,364.7,322.9,361.7z"/>
		<path fill="#0BB1A2" d="M287.9,418.1c-0.4-3.2,1-4.4,4.1-3.8c0.7,1.1,1.7,1.2,2.8,1.1c0,0-0.1-0.1-0.1-0.1
			c2.9,4.3,7.6,3.7,11.9,4.2c0,0,0.1,0.1,0.1,0.1c1.3,5.8-4.3,9.3-5.1,14.5c-0.3,1.9-3.4,1.5-5.4,1.2c-1.9-0.3-3.9-0.9-5.8-1.1
			c-2.4-0.2-5.3,0.4-6.1-2.7c-0.8-3.2-1.1-7.1,2.3-8.9C289.3,421.3,289,420.1,287.9,418.1z"/>
		<path fill="#0BB1A2" d="M335,330.5c2.9-2.5,6-2,9.3-0.8c3.3,1.3,6.6,2.5,10.3,1.9c2.5,4,0.8,8.6,1.8,12.8
			c-0.4,3.3-0.6,6.2-5.5,3.6c-3.9-2-4.7,2.6-6.7,4.6c-0.4,0.2-0.8,0.5-1.1,0.7c-0.3-0.3-0.6-0.6-0.8-0.9c-0.3,0.7-0.5,1.5-0.8,2.2
			c-0.9,0.1-1.7,0.2-2.6,0.3c-0.9-3.7-1-8.2-6.8-7.4C333,341.7,334,336.1,335,330.5z"/>
		<path fill="#0DAB9C" d="M332,347.4c5.8-0.8,5.9,3.7,6.8,7.4c-1.6,0.2-3.2,0.4-4.8,0.6c-0.8-1.8-0.9-4-3.2-4.6
			C330.9,349.5,330.9,348.2,332,347.4z"/>
		<path fill="#0DAB9C" d="M341.4,354.5c0.3-0.7,0.5-1.5,0.8-2.2c0.3,0.3,0.6,0.6,0.8,0.9C342.8,354.1,342.8,355.1,341.4,354.5z"/>
		<path fill="#0DAB9C" d="M306.6,419.6c-4.3-0.5-9,0.1-11.9-4.2c2.2,0.4,4.4,0.8,6.6,1.3C303.3,417.3,305.7,417.1,306.6,419.6z"/>
		<path fill="#F8F9E6" d="M327.6,254.1c-1.9,4.4,1,9.6-2.1,13.8c-2.4-0.3-4.8-0.6-7.3-1c2-3.8,4.2-7.7-0.5-11.1
			c-2-1.4-4.6-1.6-5.9,0.6c-1.2,2.1,1.1,2.4,2.6,3.5c3.9,2.8,0.3,4.7-1.9,5.4c-5.6,1.6-10.6,4.2-15.9,8c-1.4-12.8,1.2-24.8,0.7-36.8
			c0.1-0.9,0-1.8-1.1-1.7c-0.4,0-0.7,0.8-1.1,1.2c-2.3,9.9-1.7,20.1-1.5,30.1c0.1,5.6-3.1,7.1-6.6,7.3c-5.3,0.3-10.7-0.9-16.1-1.6
			c-0.6-0.1-1-1.3-1.5-2c0-2.6,0.9-5.3-1.3-8.1c-1.9,3-1.1,5.5-1,8c-0.6,1.8,0.1,5-3.7,2.9c-2.3-1.3-4.8-2-7.3-2.9
			c-1.4-1.7-3.2-2.6-5.4-2.7c-1.9-1.7-4.9-2-6.2-4.4c-0.8-1.6-1.1-3.6,0.8-4.6c2-1,2.8,0.1,2.4,2.1c-0.6,0.2-1.3,0.5-0.8,1.2
			c0.2,0.3,1.1,0,1.7,0c2.9-1.8,3.2-4.3,1-6.6c-1.9-2-4.6-1.6-6.7-0.1c-4.6,3.4-3.7,7.7-1.3,11.9c-4.8,2-6.3,0.4-5.7-4.2
			c0.3-2.8-0.1-5.7-0.2-8.6c0.8-3.5,1.1-6.9,0.1-10.4c-0.4-1.4-1.5-3.2,1-3.4c1.5-0.1,3.7-0.6,4.4,1.7c0.8,2.8,1.6,6,5.3,5.4
			c3.8-0.6,2.6-4.4,3.3-7c0.2-0.8,0.6-1.6,0.8-2.4c6.3-0.1,8.7-2.7,5.6-8.7c-0.6-1.2-0.6-2.1,0.1-2.9c1-1.2,1.2-4,3.6-2.9
			c2.7,1.3,5.4,2.8,5.5,6.6c0.2,8.4,0.6,16.8,1.1,25.2c0.1,2.2-0.6,4.6,2.2,7.1c0-10.7-0.1-20.5,0.1-30.3c0.1-5.4-1.4-10-4.8-14.1
			c-1.6-8.9-0.4-18-2.8-26.8c0.5-5.8-0.1-11.6-1.2-17.3c-0.2-3.6-0.4-7.2-0.6-10.8c-0.3-5-0.8-10.1-0.8-15.1c0-7-2-12.9-7.5-17.4
			c-2.1-2.7-2-5.2-0.7-8.5c3.1-7.7,7.4-14.7,13.1-20.6c4.9-5,10.4-9.3,13.1-16.3c1.8-4.6,7.6-4.8,9.3-0.5c3.4,9.1,11.7,13.7,17,20.9
			c5.2,6.9,10.2,13.8,10.6,22.9c-3.1,3.9-7.8,6.8-8.3,12.2c-0.7,7.4-1,14.9-1.4,22.4c-1.7,6.6-1.1,13.4-1.8,20.1
			c-0.1,0.9-0.3,1.7-0.4,2.6c-2,13.3,0.6,27.4-6.6,40c-1.2,2.2-2.1,6.5,1.4,9.5c1.8-3.7-0.4-8.2,3.6-10.5c1.9-1.1,3.5-2.5,5.5,0.1
			c1.5,2,1.9,3.1,0.5,5.6c-1.7,2.9-1.3,6.3,2.9,7.1c2.2,0.5,2.9,3.4,5.8,2.8c0.2-3.1-1.8-4.2-4-5.1c-1.6-0.6-2.8-1.1-2.4-3.2
			c1.7-8.2,0.4-10.4-7.1-12.7c3-11.9,0.8-24.2,2.8-36.1c1.4-5.4,4.4-0.5,6.5-0.9c2.7,1.7,5.4,3.4,8.1,5.1c4.3,4.3,9.9,7.7,10.5,14.7
			c0.7,4.4,1.4,8.8,2.2,13.2c1.5,8,3,16.1,4.5,24.1c-1.3,1.9-2.1,4.3-4.8,5c-0.2-6.6-2.4-8.2-8.6-6.9c-3.9,0.8-3.1,4.2-4.2,6.6
			c-0.6,0.4-0.8,0.9-0.2,1.5c0.3-0.3,0.5-0.6,0.8-0.8c1.6,0.3,2.4-0.4,2.7-2c0.5-3.1,3.2-2.8,5.1-2.3c2.9,0.8,0.4,2.8,0.3,4.2
			C326.6,247.8,326,251,327.6,254.1z M286.7,227.6c-0.5-0.9-1-1.7-1.4-2.6c-2-1.5-3.5-4.1-6.5-1.1c-3.5,3.6-4.5,11-1.4,15.8
			c1.1,1.7,2.4,5.1,4.6,3.6c4.5-3.2,6.8-7.9,5-13.8C286.7,228.9,286.7,228.2,286.7,227.6z M276.2,173.8c0,9.3,0,18.6,0,27.9
			c-0.1,1.3-0.4,2.7-0.2,3.9c0.7,3.4,1.6,8.1,5.5,8c3.6-0.1,5.2-4.5,5.3-8.2c0-12.8-0.2-25.6-0.3-38.4c0-3.1,0.1-6.2,0.1-9.3
			c0-5.8,0.4-11.6,0.1-17.3c-0.3-4.9,0.5-9.1,4.8-12c4.7-6.7,4.4-13.4-1-18.3c-5-4.6-13.1-4.5-18.1,0.1c-5.3,4.9-5.6,11.6-0.7,18.2
			c4.1,3.1,4.8,7.2,4.6,12.1c-0.3,7.5,0,15,0.1,22.6c0,0.9,0,1.7,0,2.6C276.2,168.4,276.2,171.1,276.2,173.8z"/>
		<path fill="#F8F9E6" d="M228,269.2c-0.9-0.1-1.9-0.2-2.8-0.4c-2.7,0.2-3.9-3-6.6-3c-4.9-3.6-9.8-7.1-14.7-10.7
			c-5.9-6-8.9-13.7-12.1-21.2c-0.1-0.9-0.2-1.8-0.4-2.8c-5.8-18.9-3.8-37.7,1.3-56.4c1.1-4.1,1.7-7.9,1.1-12.3
			c-0.7-4.6-0.7-9.9,5.5-12c2.5-0.9,2.8-3.7,3.3-6.1c3.2-8.8,1.7-12.6-7.2-14.3c-5.1-1-5.4-3.7-4.9-7.4c1.2-9.9,8.7-17.1,16.3-15.9
			c1.4,0.2,3.8-0.4,3,2.8c-3.1,12.8-0.1,20.6,10.9,28.5c1.5,2.5,0.9,5,0.1,7.6c-1.7,1.3-2.3,2.6-0.4,4.1c4.9,5.4,6.8,10.9,2.1,17.7
			c-2.3,3.3-3.8,7.4-4.1,11.6c-0.1,0.4-0.1,0.8-0.2,1.3c-2.6,8.7-4.3,17.6-3.5,26.8c-0.2,2-0.3,4,0.5,5.8l0.1,0.6
			c-0.2,10.7,3.6,20,10.2,28.3c3.4,4,6.9,8,7.6,13.6c-2.7,4.2-2.5,8.8-2.6,13.5C229.7,269,228.8,269.1,228,269.2z M210.2,162.6
			c2.5-0.5,4.5-1.7,4.5-4.6c0-2.9-1.5-4.6-4.4-4.6c-2.9-0.1-4.6,1.7-4.7,4.4C205.4,160.6,207.4,162.1,210.2,162.6z"/>
		<path fill="#F8F9E6" d="M363.6,249.8c-1.6,1.8-3.2,3.6-4.8,5.5c-6.6,5.1-13.1,10.4-21.3,13.1c-3.7,1.2-5.7,0.8-5.6-3.9
			c0.1-3.5-0.8-7-1.2-10.5c-0.3-3.5,0.5-6.2,3.8-8.3c2.1-1.4,3.8-3.7,4.6-6.3c1.5-1.5,2.7-3.1,2.3-5.4c0-0.9,0-1.8,0-2.7
			c3.2-1.5,4.6-4.3,5.2-7.5c2.2-12.2,3-24.5-0.4-36.6c-0.5-8.8-4.1-16.8-7.8-24.5c-1.6-3.4-1.4-5.5,0.9-8.1c3-3.4,5.3-6.9,2.3-11.7
			c-0.6-0.9,0-2.6,0.1-3.9c5.8-4,9.9-9.3,12.4-16c1.6-4.4,2.8-8.4-0.3-12.6c-1.6-2.2-0.7-3.1,1.7-3.5c4.8-0.8,9,0.3,11.8,4.3
			c3.4,4.9,6.6,10.1,4.9,16.6c-0.4,1.5-1.9,1.5-3.2,1.9c-11.3,3.4-12.5,6.4-7.6,17.3c2.5,4.6,9.1,6.7,8.5,13.4
			c-1.4,5.1-2.3,10.1,1.1,14.8c-0.5,3.3,1.2,6.2,1.7,9.3c0.6,3.2,1.3,6.3,1.9,9.5c0.3,5.3,0.5,10.6,0.8,15.9
			c-1,6.3-1.9,12.5-2.9,18.8C370.1,235.9,367.5,243.1,363.6,249.8z M354.8,161.7c2.6-1,3.1-3,2.4-5.3c-0.7-2.2-2.3-3.7-5-2.7
			c-3.9-0.2-4.6,2.5-3.8,5.2C349.1,162.1,351.4,163.6,354.8,161.7z"/>
		<path fill="#03060A" d="M218.5,179.1c0.3-4.2,1.8-8.3,4.1-11.6c4.6-6.8,2.8-12.3-2.1-17.7c3.9,0.1,7.6-0.2,9.1-5.4
			c-3.2,0.4-5.9,0.8-8.7,1.2c0.7-2.5,1.3-5.1-0.1-7.6c9.6-4.5,20.1-5.6,30.4-7.6c5.5,4.5,7.5,10.4,7.5,17.4c0,5,0.5,10.1,0.8,15.1
			c-2.8,0.7-4.8,2.8-6,5c-2.2,3.9-5.3,4.4-9.3,4.6C235.1,173.1,226.5,175,218.5,179.1z"/>
		<path fill="#07090C" d="M341.6,138.9c-0.1,1.3-0.7,3-0.1,3.9c3,4.7,0.7,8.3-2.3,11.7c-2.3,2.6-2.5,4.7-0.9,8.1
			c3.7,7.8,7.3,15.7,7.8,24.5c-16.4,0.1-21.8-5.9-17.9-20c1.3-0.7,3.4-1,3.4-2.7c0.1-2.3-2.2-2.3-3.8-3c-5.6-2.4-11.3-1.3-17-1.1
			c-0.1-1.6-0.5-3.1-2.3-3.4c-0.8-0.2-1.3,0.3-1.2,1.1c0.4,1.8,1.8,2.2,3.4,2.4c0,0.9,0.1,1.8,0.1,2.7c-2.3,0-4.7-0.1-7-0.1
			c0.5-7.5,0.7-15,1.4-22.4c0.5-5.4,5.2-8.4,8.3-12.2c6.4,4.2,13.9,5.3,21,7.3C337,136.5,339.8,136.7,341.6,138.9z"/>
		<path fill="#2B2C27" d="M191.4,231.1c0.1,0.9,0.2,1.8,0.4,2.8c-2.7,1-5.4,1.9-8,2.9C184.7,232.7,187.8,231.6,191.4,231.1z"/>
		<path fill="#3E3126" d="M185.1,163c0.5-0.3,1-0.7,1.5-1c0,0,0.2,0.3,0.4,0.5c-0.6,0.2-1.2,0.4-1.7,0.6
			C185.2,163.2,185.1,163,185.1,163z"/>
		<path fill="#0BB1A2" d="M312.9,368.3c-0.7,0.6-1.4,1.3-2.1,1.9c-1.3,0.2-2.4,0.7-2.8,2.1c-5.1,1.5-8.8,0.4-10.3-5.1
			c-0.6-2.2-2.3-3.1-4.2-3.8c-0.4-0.4-0.7-0.9-1.1-1.3c0-0.5-0.1-0.9-0.4-1.2c0.2-1.8,0.3-3.5,0.5-5.3c1.2-1.4,2.5-2.9,3.7-4.3
			c0.1,0.2,0.3,0.4,0.5,0.4c0.1,0,0.5-0.2,0.5-0.3c-0.4-5.2,2.8-7.6,7.1-9.2c2.1,4.7,7.5,4.9,10.8,8c1.5,1.4,4.6,1.4,4.7,4.1
			c0.1,3.3-3.9,1.5-5.9,4.1c3.8-0.6,5.4,0.9,6.1,3.6c-0.8,1-1.6,1.9-2.4,2.9C315.6,365.6,313.8,366.4,312.9,368.3z"/>
		<path fill="#0DAB9C" d="M253.2,373.5c-0.3,4.8-7.7,15.1-12.1,16.5c-1.2,0.4-3.3,0.7-3.8,0.1c-3.6-4.5-10.6-3-13.7-8
			c-0.5-3.3,2.4-6,1.6-9.4l-0.1,0.1c4.8-1.3,4-6.6,6.8-9.4c2.4,0.6,3,3.3,5.1,4.5c0.5-2.6,1.5-4.7,4.4-4.8c0.7,0.2,1.4,0.4,2.2,0.5
			c0.3,0.8,0.7,1.4,1.7,1.1l-0.1-0.1c-0.6,2.4,0.9,3.3,2.7,4.1l-0.1-0.1c0.1,0.8,0.5,1.4,1.4,1.4l-0.1-0.1
			C249.3,372.8,251.5,373,253.2,373.5L253.2,373.5z"/>
		<path fill="#0BB1A2" d="M294.3,388.5c-3.8,1.6-4.4,5.7-6.5,8.6c-1.5,2-2.3,4.7-5.3,5.2c0,0,0.1,0,0.2,0c0.5-2.4-1.6-3.9-2-7.4
			c-0.4,2.8-0.6,4.3-0.9,5.8c-3.4,0.9-4.6-1.7-6.2-3.8c-1.6-2.1-2.7-4.6-5.5-5.5c0,0,0,0,0,0c0.3-2.3-1.1-3.8-2.3-5.4
			c-0.4-3.6,1.3-6.2,4.7-6.9c3.5-0.7,4.9-3.3,7-5.4c0,0,0.6,0,0.6,0l0.5-0.3c1.4,0,2.8,0,4.1,0.1c3.1,2.1,5.5,5,9.5,6.3
			C296.3,381.2,294.4,385.4,294.3,388.5z"/>
		<path fill="#0BB1A2" d="M205.4,371.5c-2.2-2.8-2.5-15.1-0.4-17.9c1.9-2.5,4.4-2.7,7.2-2.2c5.2,1,10.5,1.9,15.7,2.9
			c0.3,1.3,1.9,2.1,1.2,3.7c-0.8,0.8-1.5,1.5-2.3,2.3c5.1,4.9-1.9,8.3-1.7,12.6c0,0,0.1-0.1,0.1-0.1c-2.1,1.2-2.9,3.5-4.2,5.3
			c-0.4,0-0.8,0.1-1.2,0.4c-1.3,0.1-2.5,0.2-3.8,0.4c-0.5-0.2-1-0.4-1.6-0.6c-0.7-4.8-4-5.4-7.9-5.2
			C206.2,372.5,205.8,372,205.4,371.5z"/>
		<path fill="#0BB1A2" d="M267.6,351.2c-0.1,1-0.3,2-0.4,3c-0.3,0.8,0.2,0.9,0.8,0.9c0,0-0.2,0.6-0.2,0.6c0.5,2.6,1.1,5.2,1.6,7.9
			c0,0,0-0.1,0-0.1c-1.5,0.3-2.4,1.3-2.9,2.7c-0.8,0.4-1.6,0.8-2.4,1.2c-1.4,0.7-1.5,2-1.4,3.4c0.1,0.3,0,0.6-0.3,0.7
			c-2.6,0.5-5.2,0.9-7.9,1.4c0,0-0.2-0.1-0.2-0.1c-0.5-0.4-1.1-0.8-1.6-1.2c-1.3-0.3-2-2.1-3.7-1.5c0,0,0.1,0.1,0.1,0.1
			c0.1-1-0.2-1.6-1.4-1.4c0,0,0.1,0.1,0.1,0.1c0.9-2.6-1.4-3-2.7-4.1c0,0,0.1,0.1,0.1,0.1c0-0.4,0-0.9-0.1-1.3
			c0.1-0.8-0.2-2,0.3-2.5c2.3-2.4,3.8-4.7,0.2-7.3c-0.2-0.1,0.6-1.5,0.9-2.3c0,0,0,0,0,0c0.9-0.4,1.7-0.8,2.6-1.2
			c5.2-2.6,10.2-5.8,16.4-3.4c0,0,0.3,0.5,0.3,0.5c0.2,0.4,0.4,0.9,0.7,1.3C267,349.5,267.3,350.4,267.6,351.2z"/>
		<path fill="#2B2C27" d="M304.1,342.2c-4.3,1.5-7.4,4-7.1,9.2c0,0.1-0.3,0.3-0.5,0.3c-0.2,0-0.3-0.3-0.5-0.4
			c-4.9-5.1-5,0.8-6.7,2.9c-1.3,0-2.7,0-4,0c0-1.3,0-2.6,0-4c0,0,0,0,0,0c6.8-2.4,11.2-8.9,18.3-10.9
			C303.8,340.2,303.9,341.2,304.1,342.2z"/>
		<path fill="#2B2C27" d="M281.3,354.1c1.3,0,2.7,0,4,0c-4,6-10.5,8.4-16.4,11.7c0.2-0.8,0.4-1.5,0.6-2.3c0,0,0,0.1,0,0.1
			c0.5-0.5,1-1.1,1.6-1.6c0.3-0.4,0.6-0.8,0.8-1.2c2.1-1,4.4-1.6,5.6-3.9C279.3,356.8,280.6,355.8,281.3,354.1z"/>
		<path fill="#101011" d="M289.4,354.2c1.8-2.1,1.9-8,6.7-2.9c-1.2,1.4-2.5,2.9-3.7,4.3c-0.6,0-1.1-0.1-1.7-0.1
			C290.2,355,289.8,354.6,289.4,354.2L289.4,354.2z"/>
		<path fill="#101011" d="M206.6,373c3.9-0.2,7.3,0.5,7.9,5.2C211,377.8,209.7,374,206.6,373z"/>
		<path fill="#101011" d="M221,378.1c1.3-1.8,2.1-4.1,4.2-5.3c0.7,3.3-2.1,6.1-1.6,9.4C222.2,381.1,222.9,378.8,221,378.1z"/>
		<path fill="#0DAB9C" d="M254.7,372.9c2.6-0.5,5.2-0.9,7.9-1.4c-2,3.4-4.8,3.4-7.9,1.8C254.6,373.3,254.7,372.9,254.7,372.9z"/>
		<path fill="#04665D" d="M265.7,386.1c1.2,1.6,2.6,3.2,2.3,5.4c-2.2,0.5-3-1.1-4-2.5C264.5,388,265.1,387,265.7,386.1z"/>
		<path fill="#101011" d="M216.1,378.8c1.3-0.1,2.5-0.2,3.8-0.4C218.7,379.8,217.4,379.8,216.1,378.8z"/>
		<path fill="#0DAB9C" d="M269.5,363.6c-0.2,0.8-0.4,1.5-0.6,2.3c-0.8,0.1-1.6,0.3-2.3,0.4C267.1,364.9,268,363.9,269.5,363.6z"/>
		<path fill="#101011" d="M291.8,360.8c0.3,0.3,0.4,0.8,0.4,1.2c-0.6-0.2-1.2-0.4-1.9-0.6C290.9,361.2,291.4,361,291.8,360.8z"/>
		<path fill="#0DAB9C" d="M262.8,370.8c-0.2-1.4-0.1-2.6,1.4-3.4C264.1,368.7,264,369.9,262.8,370.8z"/>
		<path fill="#0BB1A2" d="M254.7,372.9c0,0,0,0.4,0,0.4c-0.5,0.1-0.9,0.2-1.4,0.2c0,0,0.1,0,0.1,0c0.2-0.2,0.5-0.4,0.8-0.6l0.4-0.2
			L254.7,372.9z"/>
		<path fill="#2B2C27" d="M289.3,354.1c0.4,0.4,0.9,0.9,1.3,1.3C290.2,355,289.8,354.6,289.3,354.1z"/>
		<path fill="#101011" d="M278.5,373.5l-0.5,0.3c0,0-0.6,0-0.6,0C277.8,373.7,278.1,373.6,278.5,373.5z"/>
		<path fill="#F0EFE1" d="M257.3,278.1c7.1,3,13.6-0.7,20.2-1.8c2.7-0.5,5.3-0.8,7.8,0.1c7.1,2.5,14.5,1.5,21.7,2.2
			c3.7,0.3,9,1.8,9.8-4.9c4.6,3.5-0.3,6.1-1,9.3c4.4,0.4,8.4,1,9.8-4.4c0.4,0.2,1,0.3,1.1,0.5c0.9,3.5,7,4.9,5.2,8.5
			c-1.2,2.6-6.1,3.2-8,6.4c-1.7,0.7-2.4,2.8-4.9,2.6c-6.9-0.3-13.6-1.1-22.3-5.1c7.1,10.5-1.1,17.9-1,26.4c-4.4-1.6-0.6-6.5-3.5-8.7
			c-2.2,0.4-5-4.1-6.5,0.9c-1,1.6,1.1,4.7-2.5,5.1c-3.2,0.4-5.3-1.4-5.7-4.1c-1.1-6.5-6.5-0.6-9.4-3.5c-1.4-1.4-1,2.9-1.8,4.5
			c-0.5,0.9-0.6,2.1-0.9,3.1c-3.6,2.9,1.1,7.8-2.6,10.7l0,0c-4-11.5-0.7-22.9,1.8-34.6c-9.4,2.9-16.7,10.6-26.7,5.9
			c-0.8-0.4-2-0.3-2.1-1.2c-0.7-4.7-5.4-5.6-7.8-8.6c0.9-0.6,1.8-1.2,2.7-1.9c2.4-1.4,3.3-3.9,4.5-6.1c3.9-2.2,2.7,5.4,6.7,3
			c0-1.2-0.1-2.7,0-4.2c0.1-1,0.2-2.4,1.4-2.4c0.8,0,0.3,2.2,1.9,2.2C249.3,280.2,253.3,279.4,257.3,278.1z M274.5,290.2
			c1.2,1.8,2.4,3.6,3.6,5.4c1.6,3.6-4.3,8.2,2.3,11.7c-3.7-5.6,4.7-6.2,3.2-10.8c0.2-1.7,0.9-2.9,2.9-2.6c2.1,2.6-2.2,6.6,2,8.5
			c3.3-2.3,5.2-5.2,3-9.4c-1.8-0.4-2.9,2.9-5,0.9c-1.2-3.2,5.3-3,2.9-6.7c-1.2-3.4-2.4-6.9-6.9-6.9c-3.9,0-5.9,2.5-6.9,6
			c-1,0.5-2,1-2.3,2.3C272.9,289.8,273.8,290,274.5,290.2z M239.1,287.5c-1.4,3.8,0.4,5.9,3.2,6.3c6.7,0.9,9.6-4.3,13.1-8.6
			C248.9,281.7,246.2,296.5,239.1,287.5z M318.5,287.1c-6,1.1-10.5-4.8-17-3.5C308.8,291.2,312.9,292.1,318.5,287.1z M275.4,302.5
			c-1.9-4.4-0.3-9.1-7.1-11.8C271.2,295.2,269.2,300,275.4,302.5z"/>
		<path fill="#0BB1A2" d="M237.4,323.4c0.4,0.1,0.8,0,1.2-0.2c2.3,0.3,4.7,0.7,7,1c0.5,0.1,0.8-0.2,0.9-0.6c1.8-0.2,3.6-0.4,5.4-0.6
			c0.3,0.3,0.7,0.5,1.2,0.5c3.6,2.9,2.5,9.1,7.7,10.9c0.3,1.8,0.5,3.5,0.8,5.3c-1,1.3-2.1,2.5-3.1,3.8c-6.1,1.1-10.8,6.5-17.4,6.1
			c0,0,0.1,0.1,0.1,0.1c-0.5-1.4,0.9-4.7-1.3-4.1c-5.3,1.3-3.4-2.9-4.4-4.8c0.5-4-0.3-7.8-1.2-11.7c0.1-0.9,0.2-1.9,0.3-2.8
			c0.2-0.3,0.3-0.6,0.3-1c0,0-0.2-0.1-0.2-0.1C235.9,325,236.8,324.5,237.4,323.4z"/>
		<path fill="#443C30" d="M245.3,278c-1.6,0-1.1-2.2-1.9-2.2c-1.2,0-1.4,1.4-1.4,2.4c-0.1,1.5,0,3,0,4.2c-4,2.4-2.8-5.2-6.7-3
			c-4.7-2.1-4.7-6.3-4.6-10.5c0.1-4.6-0.1-9.3,2.6-13.5c0.4-1.1,1.4-1.5,2.5-1.5c0.1,2.9,0.5,5.8,0.2,8.6c-0.5,4.6,0.9,6.3,5.7,4.2
			c-2.4-4.1-3.2-8.5,1.3-11.9c2-1.5,4.7-1.9,6.7,0.1c2.2,2.3,2,4.8-1,6.6c-0.3-0.4-0.6-0.8-0.9-1.2c0.4-2.1-0.4-3.1-2.4-2.1
			c-2,1-1.7,3-0.8,4.6c1.3,2.4,4.3,2.7,6.2,4.4C246.8,269.8,244.1,272.9,245.3,278z"/>
		<path fill="#0DAB9C" d="M229.2,352.8c-6.9-0.1-11.9-5.9-19.1-5.8c-3.8,0.1-4.5-3.9-2.7-7.2c1-1.9,3.3-3.2,1.7-5.8
			c0.2-0.6,0.4-1.1,0.6-1.7c1.3,0.6,2.5,1.6,1.9,3c-2.3,5.6,1.3,6.3,5.3,6.9c1,0.2,2,0.8,3,1.2l0,0c2.1,4.6,4.8,5.6,4.6,4.2
			c-1.1-7.4,5.3-2.4,7.2-4.4c-0.9-5.4-1.7-10.6-2.6-15.7l0.3-0.3c0.8,0.3,1.5,0.7,2.3,1c0,0-0.1,0.1-0.1,0.1
			c0.6,5.8,1.3,11.7,1.9,17.5c-0.3,1-0.5,1.9-0.8,2.9C231.5,350.1,230.4,351.5,229.2,352.8z"/>
		<path fill="#F0EFE1" d="M229.2,352.8c1.2-1.3,2.3-2.7,3.5-4c2.8,0.3,5.7,0.5,8.5,0.8c0,0-0.1-0.1-0.1-0.1c-1,1.4,0.3,2.5,0.4,3.7
			c0.3,1.9,0.7,3.8,1,5.7c-2.9,1.3-5.8,2.9-9.2,2.2c-1.4-1-2.8-2-4.3-3c0.6-1.6-1-2.4-1.2-3.7C228.3,353.8,228.8,353.3,229.2,352.8z
			"/>
		<path fill="#F0EFE1" d="M221.5,307.4c-0.3,0.6-0.6,1.3-1,1.6c-1.3,0.9-1.2,0.2-1.2-0.9c0.4-6.1,3.6-10.7,7.5-15.1
			c1.8-1.9,3.6-2,4.7,0.3c0.9,2,3.9,4.5,0.1,6.7c-2.1,1.2-4.2,2.3-6.3,3.5C223.5,304.3,222.2,305.6,221.5,307.4z"/>
		<path fill="#07090C" d="M209.7,332.4c-0.2,0.6-0.4,1.1-0.6,1.7c-3.7-0.7-2.3-2.9-1.4-4.9c1.1-2.5,3.9-4.3,2.5-8.5
			c4.1,1.7,6.6,6.2,10.4,1.2c1.6-2.1,3,0.8,3.3,2.9c-1,0.9-2,1.7-2.9,2.6c-0.8,0.2-1.6,0.4-2.4,0.5c-2.4-0.8-4.8-1.5-6.8,0.8l0,0
			c-1.4,0.5-1.9,1.5-1.8,2.9C209.6,331.7,209.5,332,209.7,332.4z"/>
		<path fill="#3E3126" d="M227.3,308.4c10.1,4,20.7,5.7,31.4,7.3C247.2,317.8,236.9,314.7,227.3,308.4z"/>
		<path fill="#07090C" d="M260.8,334.3c-5.1-1.8-4.1-8-7.7-10.9c3.7-1,5.9,3.5,9.6,2.5c0,0,0,0,0,0c0.1,1.1,0.4,2.9,1.5,2.3
			c4.7-2.6,3.7,0.8,3.7,3.2C265.8,333,263.7,334.5,260.8,334.3z"/>
		<path fill="#07090C" d="M245.6,324.3c-2.3-0.3-4.7-0.7-7-1c0.2-1.9,0.9-3.6,3.1-3.6C244.5,319.7,244.6,322.5,245.6,324.3z"/>
		<path fill="#07090C" d="M231.7,328.3c-0.8-0.3-1.5-0.7-2.3-1c-0.5-0.8-1-1.6-1.5-2.5c2.6-5.6,4.7,0.3,7,0.4c0,0.4-0.1,0.7-0.3,1
			C233.1,326.2,232.1,326.8,231.7,328.3z"/>
		<path fill="#0DAB9C" d="M227.9,324.8c0.5,0.8,1,1.6,1.5,2.5c0,0-0.3,0.3-0.3,0.3c-2.7-0.1-5.4-0.2-8.2-0.2c1-0.9,2-1.7,2.9-2.6
			C225.2,324.7,226.6,324.7,227.9,324.8z"/>
		<path fill="#443C30" d="M230.7,285.6c-0.9,0.6-1.8,1.2-2.7,1.9c-0.1-1.9-0.2-3.8-0.4-6.3C229.9,282,230,284,230.7,285.6z"/>
		<path fill="#07090C" d="M251.9,323c-1.8,0.2-3.6,0.4-5.4,0.6C248.1,321.4,249.5,318.3,251.9,323z"/>
		<path fill="#3E3126" d="M221.5,307.4c0.7-1.8,2-3.1,3.8-3.9C225.5,306.3,224.3,307.7,221.5,307.4z"/>
		<path fill="#07090C" d="M218.4,313.7c0.3,0.6,0.8,1.1,0.8,1.6c0.1,1.2-0.9,1.3-1.7,1.1c-0.4-0.1-0.7-0.8-1-1.3
			C216.9,314.8,217.4,314.5,218.4,313.7z"/>
		<path fill="#07090C" d="M237.4,323.4c-0.6,1-1.5,1.5-2.7,1.6C235.1,323.6,236.2,323.5,237.4,323.4z"/>
		<path fill="#3E3126" d="M372.3,228.6c1-6.3,1.9-12.5,2.9-18.8c2.1,0,4.2,0.1,6.3,0.1c0,0.4,0,0.9,0,1.3c0.7,2.1,2.8,2.7,4.5,3.6
			c4.8,2.7,7.9,6.4,7.5,12.2c-0.2,2.8,0.3,6,2,7.5c7.2,6.1,5.9,14.2,6.3,22c-1,0-1.9,0-2.9,0.1c-4.4-4.9-7.9-9.9-9.8-16.6
			C387.1,232.8,380.4,228.7,372.3,228.6z"/>
		<path fill="#2B2C27" d="M394.9,216.5c1.1,1,2.7,1.8,3.3,3.1c2.6,5.7,4.1,11.9,10,15.6C400.9,233.9,400.8,233.7,394.9,216.5
			C394.8,216.6,394.9,216.5,394.9,216.5z"/>
		<path fill="#2B2C27" d="M381.5,211.2c0-0.4,0-0.9,0-1.3c4.1-0.1,8.1,0,10.7,4l-0.1,0.1C388.3,214.3,385.5,210.6,381.5,211.2z"/>
		<path fill="#2B2C27" d="M409.7,239.3c2.9,1.1,3.5,2.5,3.4,4.5C410.1,244,410.5,241.8,409.7,239.3z"/>
		<path fill="#2B2C27" d="M392.3,213.8c1.7,0.1,2.6,1,2.7,2.7c0,0-0.1,0.1-0.1,0.1C393.1,216.5,392.2,215.6,392.3,213.8
			C392.2,213.9,392.3,213.8,392.3,213.8z"/>
		<path fill="#2B2C27" d="M414.8,247.9c-0.2,0.4-0.4,0.7-0.6,1c-0.2-0.3-0.5-0.7-0.5-1c0-0.3,0.3-0.7,0.5-1
			C414.5,247.2,414.6,247.5,414.8,247.9z"/>
		<path fill="#0BB1A2" d="M324,350.7c0,0.5-0.2,0.7-0.7,0.7c-4-1-6.8-4.4-10.6-5.4c-5.7-1.7-7.6-5.4-7.7-10.7
			c1.4-3.8,6.6-4.7,6.9-9.6c0.1-1.7,3.4-3.1,4.9-2.3c4.7,2.8,10.3,0.4,14.8,3.1c0.2,0.8,0.4,1.5,0.5,2.3c-0.7,3.4-1.1,7-2.2,10.3
			c-1.2,3.5,1.3,10-6.5,8.9C322.9,347.8,324,349.7,324,350.7z"/>
		<path fill="#101011" d="M295.7,317.9c0-8.5,8.2-15.9,1-26.4c8.7,4.1,15.4,4.8,22.3,5.1c2.6,0.1,3.2-2,4.9-2.6
			c1.3,0.2,2.5,0.5,3.1,1.8c-0.5,1.5-1.8,2.7-1.1,4.4c-0.1,0.2-0.3,0.4-0.5,0.5c-8,0.8-15.2,3.4-21.8,8.1c-0.6,0-1.2,0-1.9-0.1
			c-0.3-0.3-0.6-0.5-0.9-0.7c-0.2-0.1-0.6,0-0.6,0c-0.6,3.4-1.2,6.7-1.7,10.1C297.6,318,296.6,317.9,295.7,317.9z"/>
		<path fill="#F0EFE1" d="M325.9,300.2c-0.7-1.7,0.7-3,1.1-4.4c6.7-5.1,6.7-5.1,12,3.7c0.3,3.5,0.7,7.1,1,10.6c-0.4,0-0.8,0-1.1,0
			c-0.5-1.6-1.5-2.8-2.9-3.8C333.7,302.5,330.2,300.6,325.9,300.2z"/>
		<path fill="#04665D" d="M305,335.2c0.1,5.4,2,9.1,7.7,10.7c3.7,1.1,6.6,4.5,10.6,5.4c-1.6,2.7-2.4,5.5-1.5,8.5
			c-0.7,0.7-1.3,1.3-2,2c-0.7-2.7-2.3-4.2-6.1-3.6c2-2.6,6-0.8,5.9-4.1c-0.1-2.7-3.2-2.7-4.7-4.1c-3.3-3.1-8.7-3.3-10.8-8
			c-0.1-1-0.3-2-0.4-3C304,337.8,303.6,336.2,305,335.2z"/>
		<path fill="#2B2C27" d="M298.3,323c-5.9,1.6-9.9,6.1-14.6,9.6c-1.6,1.1-2.7,2.9-4.9,3c0,0-0.3-0.3-0.3-0.3
			c4.7-7.8,12.3-11.9,20-15.9C298.4,320.6,298.4,321.8,298.3,323z"/>
		<path fill="#443C30" d="M303.7,308.8c6.5-4.6,13.8-7.3,21.8-8.1C319,305.6,311.2,306.9,303.7,308.8z"/>
		<path fill="#2B2C27" d="M302.1,316.7c5.8-1.1,10.8-5.7,17.4-4.1c-6.2,1.5-11,6.2-17.5,6.9C302,318.5,302.1,317.6,302.1,316.7z"/>
		<path fill="#2B2C27" d="M278.8,335.6c-0.9,1.3-1.9,2.6-2.8,3.8c-1.8,0.9-3.1,2.2-4,4c0,0,0,0,0,0c-2,1-3.4,3.1-6,2.8
			c-0.2-0.4-0.4-0.8-0.6-1.2c0.9-1,1.8-2,2.7-3c3.9-1.6,5.4-7,10.5-6.7L278.8,335.6z"/>
		<path fill="#F0EFE1" d="M302.1,316.7c0,0.9,0,1.8-0.1,2.8c-0.6,1.6-1.2,3.2-1.8,4.7c-0.3,0.7-0.2,2.1-1.3,1.5
			c-0.5-0.3-0.4-1.8-0.6-2.7c0.1-1.2,0.1-2.4,0.2-3.6c0-0.4,0-0.9,0-1.3c0.6-3.4,1.1-6.7,1.7-10.1c0,0,0.5-0.1,0.6,0
			c0.3,0.2,0.6,0.5,0.9,0.7C301.9,311.4,302,314,302.1,316.7z"/>
		<path fill="#101011" d="M265.9,346.2c2.6,0.3,4.1-1.8,6-2.8c3.6,5.4-1.9,5.8-4.3,7.8c-0.3-0.8-0.6-1.7-1-2.5
			c-0.2-0.4-0.4-0.9-0.7-1.3c0,0-0.3-0.5-0.3-0.5C265.7,346.7,265.8,346.5,265.9,346.2z"/>
		<path fill="#101011" d="M272,343.4c0.9-1.8,2.3-3.1,4-4c0.1,1.8,4.3,1.1,2.5,4.2C276.1,347.4,274.1,343.4,272,343.4z"/>
		<path fill="#101011" d="M295.6,338c-2.1,1.5-4.1,2.2-5.5,0.3c-0.8-1.1,0.2-2.8,1.3-3.3C294,334,293.8,337.4,295.6,338z"/>
		<path fill="#101011" d="M281.3,354.1c-0.7,1.7-2,2.7-3.9,2.7c-1.7-1.3-2.2-3.3-0.6-4.5C278.6,350.9,279.7,353.7,281.3,354.1z"/>
		<path fill="#101011" d="M336,306.2c1.4,0.9,2.4,2.2,2.9,3.8c-1.6-0.2-3.6,0.8-4.7-0.9C333.4,307.6,335.6,307.3,336,306.2z"/>
		<path fill="#0DAB9C" d="M271,362c-0.5,0.5-1,1.1-1.6,1.6c-0.5-2.6-1.1-5.2-1.6-7.9c2.4,0.8,2.6,3,3.2,5
			C270.9,361.2,270.8,361.6,271,362z"/>
		<path fill="#101011" d="M285.7,340.6c-0.6,0.3-1.1,0.8-1.6,0.8c-1.2,0.1-1.3-0.9-1.1-1.7c0.1-0.4,0.8-0.7,1.2-1
			C284.6,339.2,284.9,339.6,285.7,340.6z"/>
		<path fill="#101011" d="M285.4,350.2c-1-0.2-2-0.4-3-0.6c0.1-0.2,0.2-0.5,0.3-0.5C284,348.7,284.8,349.2,285.4,350.2
			C285.4,350.2,285.4,350.2,285.4,350.2z"/>
		<path fill="#101011" d="M281.8,345.5c-0.2,0.1-0.4,0.3-0.5,0.3c-0.2,0-0.3-0.2-0.5-0.4C281.2,345.4,281.5,345.5,281.8,345.5z"/>
		<path fill="#101011" d="M271,362c-0.2-0.4-0.1-0.8,0.1-1.2c0.2,0,0.5,0,0.7,0C271.6,361.2,271.3,361.6,271,362z"/>
		<path fill="#101011" d="M268,355.1c-0.6,0-1.1-0.1-0.8-0.9C267.6,354.5,267.9,354.8,268,355.1z"/>
		<path fill="#101011" d="M245.3,278c-1.2-5.1,1.6-8.3,5.4-10.9c2.2,0.1,4,1,5.4,2.7c0.4,2.8,0.9,5.5,1.3,8.3
			C253.3,279.4,249.3,280.2,245.3,278z"/>
		<path fill="#2B2C27" d="M267,269.9c-0.1-2.5-0.9-5.1,1-8c2.3,2.7,1.3,5.5,1.3,8.1C268.5,269.9,267.8,269.9,267,269.9z"/>
		<path fill="#2B2C27" d="M295,236.1c0.4-0.4,0.7-1.2,1.1-1.2c1.1-0.1,1.2,0.8,1.1,1.7C296.5,236.4,295.7,236.2,295,236.1z"/>
		<path fill="#07090C" d="M372.6,184.4c-0.6-3.1-2.2-6-1.7-9.3c1.3-0.8,2.5-2,3.9-2.3c3-0.7,6.3-1,8.4,2.1c1.6,2.4,1.7,5-0.1,7.4
			c-2,2.5-4.3,4.5-7.9,2.9C374.3,184.8,373.4,184.6,372.6,184.4z"/>
		<path fill="#443C30" d="M339.1,239.3c-0.8,2.6-2.5,4.9-4.6,6.3c-3.3,2.1-4.1,4.8-3.8,8.3c-1,0.1-2.1,0.1-3.1,0.2
			c-1.6-3.1-1-6.3-0.8-9.6c0.1-1.4,2.6-3.4-0.3-4.2c-1.9-0.5-4.5-0.8-5.1,2.3c-0.3,1.6-1.1,2.2-2.7,2c-0.2-0.2-0.4-0.5-0.6-0.7
			c1.1-2.4,0.2-5.7,4.2-6.6c6.1-1.3,8.4,0.3,8.6,6.9c2.6-0.7,3.5-3.1,4.8-5C336.8,239.3,337.9,239.3,339.1,239.3z"/>
		<path fill="#FAFAE7" d="M400.8,262.7c0.6,0.5,1.1,1,1.7,1.6c-1,0.9-1.9,0.3-2.8-0.1C400,263.6,400.4,263.2,400.8,262.7z"/>
		<path fill="#04665D" d="M324,350.7c0-1-1.2-2.9-0.5-2.8c7.8,1.1,5.3-5.4,6.5-8.9c1.1-3.3,1.5-6.8,2.2-10.3
			c0.9,0.6,1.9,1.1,2.8,1.7c-1,5.6-2,11.3-3,16.9c-1.1,0.9-1.1,2.1-1.2,3.3C328.5,350.4,326.3,349.8,324,350.7z"/>
		<path fill="#0DAB9C" d="M273.4,402.1c0.9,0.5,1,1,0,1.4C273.4,403.1,273.4,402.6,273.4,402.1z"/>
		<path fill="#2B2C27" d="M279.7,400.8c0.2-1.5,0.5-3,0.9-5.8c0.4,3.4,2.5,5,2,7.4c-0.9-0.1-1.7-0.1-2.6-0.2
			C279.9,401.7,279.8,401.2,279.7,400.8z"/>
		<path fill="#0DAB9C" d="M294.9,415.4c-1.1,0.1-2.1,0-2.8-1.1C293.2,414.1,294.2,414.3,294.9,415.4z"/>
		<path fill="#3E3126" d="M339.1,239.3c-1.1,0-2.2-0.1-3.3-0.1c-1.5-8-3-16.1-4.5-24.1c3.5-0.1,6.8-0.9,7.5-5c0.7-3.6-1.4-6-4.5-7.2
			c-1.6-0.6-3.4-0.7-5.1-1c-0.5-7-6.2-10.3-10.5-14.7c3.1-3.2,0.6-5.2-1.7-6.9c-2.6-2-5-1.3-6.4,1.8c-2.2,0.4-5.1-4.4-6.5,0.9
			c-0.7,0-1.3,0-2,0c0.7-6.7,0.1-13.5,1.8-20.1c2.3,0,4.7,0.1,7,0.1c0.4,0,0.9,0,1.3,0c-0.2,2.7,2.1,3.3,3.8,4.6
			c4.4,3.4,8.1-0.5,12.1-0.7l0.1,0.1c-3.9,14.1,1.5,20.1,17.9,20c3.4,12.2,2.6,24.4,0.4,36.6c-0.6,3.2-2,6-5.2,7.5
			c-0.9,0.1-1.9,0.2-1.9,1.3c0,1.1,1.1,1.2,1.9,1.4C341.8,236.2,340.6,237.8,339.1,239.3z"/>
		<path fill="#07090C" d="M214.8,207.2c-0.7-9.2,0.9-18,3.5-26.8c13.3-5.5,28-3.1,41.6-6.6c1.1,5.7,1.6,11.5,1.2,17.3
			c-0.6,0-1.3,0-1.9,0c-0.3-3.2-0.7-6.4-1.1-10c-8.4,3.2-14.8,8.2-20.2,14.4c-1.1-0.1-2.5-0.4-2.7,1.1c-0.1,1,1.1,1.1,1.9,1.3
			c-0.5,1.8-0.9,3.5-1.4,5.3C228.3,202.4,222.3,208.7,214.8,207.2z M229.2,200.5c0.9,0.4,1.6,1,1.9,0.8c0.7-0.4,1.5-1.1,1.7-1.8
			c0.3-1.2-0.8-1.5-1.6-1C230.5,198.8,230,199.6,229.2,200.5z"/>
		<path fill="#04665D" d="M271.6,128.4c-4.9-6.6-4.6-13.3,0.7-18.2c5-4.6,13.1-4.6,18.1-0.1c5.3,4.9,5.7,11.6,1,18.3
			C284.8,128.4,278.2,128.4,271.6,128.4z"/>
		<path fill="#07090C" d="M271.6,128.4c6.6,0,13.2,0,19.8,0c-4.3,2.9-5.1,7.1-4.8,12c0.3,5.7,0,11.5-0.1,17.3
			c-4.4,0-6.3,4.6-10.3,5.3c-0.1-7.5-0.4-15.1-0.1-22.6C276.4,135.7,275.7,131.5,271.6,128.4z"/>
		<path fill="#2B2C27" d="M263.9,217.9c3.4,4.1,4.9,8.7,4.8,14.1c-0.2,9.8-0.1,19.6-0.1,30.3c-2.8-2.4-2.1-4.9-2.2-7.1
			c-0.4-8.4-0.9-16.8-1.1-25.2c-0.1-3.9-2.8-5.4-5.5-6.6c-2.4-1.1-2.5,1.7-3.6,2.9c-0.7,0.8-0.8,1.7-0.1,2.9c3.1,6,0.7,8.6-5.6,8.7
			c0,0,0.1,0.1,0.1,0.1c-1.8-3.9,5-2,3.8-6.1c-2.2-7.6-0.5-10,7.4-12.6C262.5,218.8,263.2,218.3,263.9,217.9z"/>
		<path fill="#443C30" d="M286.5,167c0.1,12.8,0.4,25.6,0.3,38.4c0,3.7-1.7,8.1-5.3,8.2c-3.9,0.1-4.8-4.5-5.5-8
			c-0.3-1.2,0.1-2.6,0.2-3.9c0.8,0,1.5,0,2.3,0c0.3,3-0.1,6.2,4.3,9.1c1.8-12.5,2.2-24-0.1-35.5c-1.7-2.6-4.2-1.4-6.5-1.5
			c0-2.7,0-5.4,0-8.1C279.6,166.1,283.1,166.6,286.5,167z"/>
		<path fill="#2B2C27" d="M259.9,173.8c-13.7,3.5-28.3,1.1-41.6,6.6c0.1-0.4,0.1-0.8,0.2-1.3c8-4.1,16.6-6.1,25.5-6.5
			c4.1-0.2,7.1-0.8,9.3-4.6c1.2-2.2,3.2-4.3,6-5C259.5,166.6,259.7,170.2,259.9,173.8z"/>
		<path fill="#2B2C27" d="M235.6,253.9c-1.1,0.1-2,0.4-2.5,1.5c-0.7-5.5-4.2-9.6-7.6-13.6c0.9,0,1.8,0,2.7-0.1
			c1.4,0.5,1.9,2.5,3.8,2.4c1.1-2.2-2.3-6,2.5-6.8c5.8-1,9.9,0.5,10.9,7.9c1.8-6,1.8-6,5.2-7.3c0,0-0.1-0.1-0.1-0.1
			c-0.3,0.8-0.6,1.6-0.8,2.4c-0.7,2.6,0.6,6.4-3.3,7c-3.7,0.6-4.5-2.6-5.3-5.4c-0.7-2.3-2.8-1.8-4.4-1.7c-2.5,0.2-1.4,1.9-1,3.4
			C236.7,247,236.5,250.5,235.6,253.9z"/>
		<path fill="#2B2C27" d="M302,183.1c0.7,0,1.3,0,2,0c-2,12,0.2,24.3-2.8,36.1c-1.9,1.5-0.9,3.6-1.1,5.4c-4,2.3-1.8,6.9-3.6,10.5
			c-3.6-3-2.7-7.3-1.4-9.5c7.2-12.6,4.5-26.7,6.6-40C301.7,184.9,301.9,184,302,183.1z"/>
		<path fill="#2B2C27" d="M286.7,227.6c0.1,0.7,0,1.3,0.2,2c1.8,5.9-0.5,10.6-5,13.8c-2.2,1.5-3.5-1.9-4.6-3.6
			c-3.1-4.8-2.1-12.2,1.4-15.8c3-3,4.5-0.4,6.5,1.1c-6.2,2.3-8.3,5.9-6.5,11.2c0.5,1.4,0.9,3.4,2.6,3.5c1.8,0.1,2.1-2,2.9-3.2
			c0.6-0.3,0.9-0.6,0.4-1.2c-0.2-1.9-0.3-3.8-0.6-5.7C283.9,227.5,284.6,226.7,286.7,227.6z"/>
		<path fill="#101011" d="M329,201.9c1.7,0.3,3.5,0.4,5.1,1c3.2,1.3,5.2,3.6,4.5,7.2c-0.8,4.1-4,4.9-7.5,5
			C330.5,210.7,329.7,206.3,329,201.9z"/>
		<path fill="#443C30" d="M300.1,224.7c0.2-1.8-0.8-3.9,1.1-5.4c7.5,2.3,8.8,4.5,7.1,12.7c-0.4,2.1,0.8,2.6,2.4,3.2
			c2.3,0.8,4.3,2,4,5.1c-2.9,0.6-3.6-2.3-5.8-2.8c-4.1-0.9-4.6-4.2-2.9-7.1c1.4-2.4,1.1-3.6-0.5-5.6
			C303.6,222.2,301.9,223.6,300.1,224.7z"/>
		<path fill="#443C30" d="M263.9,217.9c-0.7,0.4-1.3,0.9-2,1.3c-2.7-9.2-1.6-18.8-2.7-28.2c0.6,0,1.3,0,1.9,0
			C263.5,199.9,262.3,209,263.9,217.9z"/>
		<path fill="#101011" d="M278.5,201.8c-0.8,0-1.5,0-2.3,0c0-9.3,0-18.6,0-27.9c2.3,0.1,4.8-1.1,6.5,1.5c-2.6,0.2-4.3,0.7-4.1,4.2
			C278.9,186.9,278.6,194.4,278.5,201.8z"/>
		<path fill="#F0EFE1" d="M284.3,236.6c-0.9,1.2-1.2,3.3-2.9,3.2c-1.7-0.1-2.1-2.1-2.6-3.5c-1.8-5.3,0.3-8.9,6.5-11.2
			c0.5,0.9,1,1.7,1.4,2.6c-2.1-0.9-2.7-0.1-2.5,2c0.2,1.9,0.4,3.8,0.6,5.7C284.6,235.7,284.5,236.1,284.3,236.6z"/>
		<path fill="#03060A" d="M286.5,167c-3.4-0.4-6.8-0.9-10.3-1.3c0-0.9,0-1.7,0-2.6c4-0.7,5.9-5.4,10.3-5.3
			C286.5,160.8,286.5,163.9,286.5,167z"/>
		<path fill="#101011" d="M310.5,182.2c1.4-3.1,3.7-3.8,6.4-1.8c2.3,1.7,4.8,3.7,1.7,6.9C315.9,185.6,313.2,183.9,310.5,182.2z"/>
		<path fill="#443C30" d="M248.6,261.5c-0.6,0-1.5,0.3-1.7,0c-0.5-0.7,0.2-1,0.8-1.2C248,260.7,248.3,261.1,248.6,261.5z"/>
		<path fill="#443C30" d="M318.8,244.6c-0.3,0.3-0.5,0.6-0.8,0.8c-0.6-0.6-0.5-1.1,0.2-1.5C318.4,244.1,318.6,244.4,318.8,244.6z"/>
		<path fill="#101011" d="M228.3,241.8c-0.9,0-1.8,0-2.7,0.1c-6.5-8.3-10.3-17.6-10.2-28.3c4.6-0.4,9.2-0.8,13.8-1.2
			c1.1-0.1,2.4-0.4,2.4-1.7c-0.1-2.1-1.6-1.4-2.9-1.2c-4.5,0.8-9.2,1.2-13.4,3.5c-0.9-1.9-0.8-3.9-0.5-5.8c7.5,1.5,13.6-4.8,21-4
			c-0.2,1.3-0.4,2.6-0.7,3.8C232.4,218.5,228.8,229.9,228.3,241.8z"/>
		<path fill="#101011" d="M210.2,162.6c-2.8-0.6-4.8-2-4.7-4.8c0.1-2.7,1.8-4.5,4.7-4.4c2.9,0.1,4.5,1.7,4.4,4.6
			C214.7,161,212.7,162.1,210.2,162.6z"/>
		<path fill="#443C30" d="M215.3,213c4.1-2.3,8.8-2.7,13.4-3.5c1.3-0.2,2.8-1,2.9,1.2c0.1,1.3-1.2,1.6-2.4,1.7
			c-4.6,0.4-9.2,0.8-13.8,1.2C215.4,213.6,215.3,213,215.3,213z"/>
		<path fill="#443C30" d="M220.9,145.6c2.8-0.4,5.5-0.8,8.7-1.2c-1.4,5.1-5.1,5.5-9.1,5.4C218.6,148.2,219.2,146.9,220.9,145.6z"/>
		<path fill="#101011" d="M354.8,161.7c-3.4,1.9-5.7,0.3-6.5-2.8c-0.7-2.7,0-5.4,3.8-5.2C353,156.4,353.9,159.1,354.8,161.7z"/>
		<path fill="#443C30" d="M354.8,161.7c-0.9-2.6-1.8-5.3-2.7-7.9c2.7-1,4.3,0.5,5,2.7C357.9,158.7,357.4,160.8,354.8,161.7z"/>
		<path fill="#443C30" d="M341.3,233.9c-0.9-0.2-1.9-0.2-1.9-1.4c0-1.1,1.1-1.2,1.9-1.3C341.3,232.1,341.3,233,341.3,233.9z"/>
		<path fill="#2B2C27" d="M312.1,163.1c-0.4,0-0.9,0-1.3,0c0-0.9-0.1-1.8-0.1-2.7l0.1-0.1c5.7-0.2,11.4-1.3,17,1.1
			c1.6,0.7,3.9,0.7,3.8,3c-0.1,1.7-2.1,2-3.4,2.7c0,0-0.1-0.1-0.1-0.1c-0.1-2.7-1.8-3.5-4.3-4.1C319.8,162.1,316,162.3,312.1,163.1z
			"/>
		<path fill="#2B2C27" d="M310.7,160.4c-1.6-0.2-3-0.6-3.4-2.4c-0.2-0.8,0.4-1.3,1.2-1.1C310.3,157.3,310.7,158.8,310.7,160.4
			C310.8,160.4,310.7,160.4,310.7,160.4z"/>
		<path fill="#101011" d="M229.1,358.1c1.4,1,2.8,2,4.3,3c-0.5,0.8-1,1.6-1.4,2.4c-2.8,2.8-2,8.1-6.8,9.4c-0.2-4.3,6.7-7.6,1.7-12.6
			C227.6,359.6,228.4,358.8,229.1,358.1z"/>
		<path fill="#04665D" d="M232,363.5c0.5-0.8,1-1.6,1.4-2.4c3.4,0.8,6.2-0.8,9.2-2.2c0.4,1.1,0.8,2.3,1.2,3.4c-0.9,0-1.8,0-2.3,1
			c-3,0.1-3.9,2.1-4.4,4.8C234.9,366.8,234.3,364.1,232,363.5z"/>
		<path fill="#2B2C27" d="M249.2,370.1c1.7-0.6,2.4,1.2,3.7,1.5c0.4,0.4,0.8,0.9,1.2,1.3c-0.3,0.2-0.6,0.4-0.8,0.6
			C251.5,373,249.3,372.8,249.2,370.1z"/>
		<path fill="#2B2C27" d="M245.2,364.8c1.4,1.1,3.6,1.5,2.7,4.1C246.2,368.1,244.6,367.1,245.2,364.8z"/>
		<path fill="#2B2C27" d="M241.4,363.3c0.5-1,1.4-1,2.3-1c0.2,0.4,0.2,0.7,0.3,1.1l-0.4,0.4C242.9,363.6,242.2,363.4,241.4,363.3z"
			/>
		<path fill="#2B2C27" d="M245.2,363.5c0.1,0.4,0.1,0.9,0.1,1.3c-1,0.3-1.4-0.3-1.7-1.1c0,0,0.4-0.4,0.4-0.4
			C244.4,363.5,244.8,363.5,245.2,363.5z"/>
		<path fill="#2B2C27" d="M247.9,368.8c1.2-0.2,1.5,0.4,1.4,1.4C248.4,370.1,248,369.6,247.9,368.8z"/>
		<path fill="#04665D" d="M265.9,346.2c-0.1,0.2-0.2,0.4-0.3,0.7c-6.2-2.4-11.2,0.8-16.4,3.4c-1.1-0.1-2,0.2-2.6,1.2c0,0,0,0,0,0
			c-1.7,0.6-3.4,1.1-5,1.7c-0.1-1.2-1.5-2.3-0.4-3.7c6.6,0.4,11.3-5,17.4-6.1c1.9,2.1,4.6,0.8,6.7,1.6
			C265.5,345.4,265.7,345.8,265.9,346.2z"/>
		<path fill="#0DAB9C" d="M241.6,353.2c1.7-0.6,3.4-1.1,5-1.7c-0.3,0.8-1,2.2-0.9,2.3c3.6,2.6,2.1,4.8-0.2,7.3
			c-0.5,0.5-0.2,1.6-0.3,2.5c-0.4,0-0.8-0.1-1.3-0.1c0-0.4-0.1-0.8-0.3-1.1c-0.4-1.1-0.8-2.3-1.2-3.4
			C242.2,357,241.9,355.1,241.6,353.2z"/>
		<path fill="#0DAB9C" d="M246.6,351.5c0.6-1,1.5-1.3,2.6-1.2C248.4,350.7,247.5,351.1,246.6,351.5z"/>
		<path fill="#0DAB9C" d="M254.1,372.9c-0.4-0.4-0.8-0.9-1.2-1.3c0.5,0.4,1.1,0.8,1.6,1.2C254.5,372.8,254.1,372.9,254.1,372.9z"/>
		<path fill="#04665D" d="M266,347.4c0.2,0.4,0.4,0.9,0.7,1.3C266.4,348.3,266.2,347.8,266,347.4z"/>
		<path fill="#07090C" d="M298.5,318.1c0,0.4,0,0.9,0,1.3c-7.7,4-15.3,8.1-20,15.9c-5.1-0.3-6.6,5.1-10.5,6.7
			c-0.1-1.8-1.1-2.5-2.8-2.6c2.9-5,9.3-7.2,10.9-13.3l0,0c5.2-1,9.3-3.4,11-8.8c6.8,3.1,2.2-3.5,3.9-4.6c1.6-0.7,1.4-2.1,1.3-3.5
			c3,2.2-0.9,7.1,3.5,8.7C296.6,317.9,297.6,318,298.5,318.1z"/>
		<path fill="#2B2C27" d="M287,317.3c-1.7,5.4-5.7,7.8-11,8.8c-0.6-2.3,6.6-5.3-0.6-7.1c-0.4-2.9,1.8-6.2-0.8-9.1
			c-2.7,1.9-1.8,4.7-2.8,6.8c-2.2-0.2-5.3,3.2-6.5-1.5c0.3-1,0.4-2.2,0.9-3.1c0.8-1.6,0.4-5.9,1.8-4.5c2.9,2.8,8.3-3.1,9.4,3.5
			c0.5,2.7,2.5,4.5,5.7,4.1c3.6-0.4,1.5-3.5,2.5-5.1c0.5,0,0.9,0.1,1.4,0.1C287,312.5,287,314.9,287,317.3z"/>
		<path fill="#101011" d="M265.3,315.3c1.2,4.6,4.3,1.3,6.5,1.5c0.1,2.5,1.4,3.1,3.6,2.3c7.2,1.8,0,4.7,0.6,7.1c0,0,0,0,0,0
			c-3.8,0.1-5,4.1-8.1,5.3c-0.1-2.4,0.9-5.8-3.7-3.2c-1.1,0.6-1.4-1.2-1.5-2.3C266.3,323,261.7,318.2,265.3,315.3z"/>
		<path fill="#443C30" d="M275.7,286.3c1-3.5,3-6,6.9-6c4.4,0,5.6,3.6,6.9,6.9c-3,0.2-7-1.3-7.2,3.9c-0.6,0-1.3,0-1.9,0
			C280.3,288.2,276.1,289.1,275.7,286.3z"/>
		<path fill="#2B2C27" d="M239.1,287.5c7.1,9.1,9.8-5.8,16.3-2.3c-3.4,4.3-6.4,9.4-13.1,8.6C239.6,293.4,237.7,291.3,239.1,287.5z"
			/>
		<path fill="#443C30" d="M318.5,287.1c-5.6,5-9.7,4.2-17-3.5C308,282.3,312.6,288.2,318.5,287.1z"/>
		<path fill="#2B2C27" d="M280.4,291.2c0.6,0,1.3,0,1.9,0c0.6,1.8-0.1,3.9,1.4,5.4c1.4,4.6-6.9,5.2-3.2,10.8
			c-6.6-3.6-0.7-8.1-2.3-11.7C280.1,294.8,279.9,292.8,280.4,291.2z"/>
		<path fill="#101011" d="M283.7,296.6c-1.5-1.5-0.8-3.6-1.4-5.4c0.2-5.3,4.2-3.7,7.2-3.9c2.3,3.7-4.2,3.5-2.9,6.7l0,0
			C284.6,293.7,284,294.9,283.7,296.6z"/>
		<path fill="#2B2C27" d="M286.6,294c2.1,2,3.2-1.3,5-0.9c2.2,4.2,0.3,7.1-3,9.4C284.4,300.5,288.6,296.5,286.6,294
			C286.6,294,286.6,294,286.6,294z"/>
		<path fill="#2B2C27" d="M275.4,302.5c-6.1-2.5-4.2-7.3-7.1-11.8C275,293.4,273.4,298.1,275.4,302.5z"/>
		<path fill="#101011" d="M280.4,291.2c-0.5,1.6-0.2,3.6-2.2,4.4c-1.2-1.8-2.4-3.6-3.6-5.4c-0.4-0.5-0.7-1-1.1-1.6
			c0.3-1.3,1.3-1.8,2.3-2.3C276.1,289.1,280.3,288.2,280.4,291.2z"/>
		<path fill="#443C30" d="M287,310.2c-0.5,0-0.9-0.1-1.4-0.1c1.6-4.9,4.4-0.4,6.5-0.9c0.1,1.3,0.4,2.8-1.3,3.5
			C289.5,312,289.3,309.5,287,310.2z"/>
		<path fill="#443C30" d="M273.4,288.6c0.4,0.5,0.7,1,1.1,1.6C273.8,290,272.9,289.8,273.4,288.6z"/>
		<path fill="#2B2C27" d="M268,331.4c3.1-1.2,4.3-5.2,8.1-5.3c-1.6,6.1-8,8.3-10.9,13.3c-1.2,0.1-2.4,0.2-3.5,0.3
			c-0.3-1.8-0.5-3.5-0.8-5.3C263.7,334.5,265.8,333,268,331.4z"/>
		<path fill="#2B2C27" d="M233.5,345.9c-0.6-5.8-1.3-11.7-1.9-17.5c0.9,0.2,1.8,0.4,2.6,0.6c0.9,3.8,1.7,7.7,1.2,11.7
			C233.9,342,235.3,344.6,233.5,345.9z"/>
		<path fill="#03080C" d="M261.6,339.6c1.2-0.1,2.4-0.2,3.5-0.3c1.7,0.1,2.7,0.8,2.8,2.6c-0.9,1-1.8,2-2.7,3
			c-2.2-0.8-4.9,0.5-6.7-1.6C259.6,342.1,260.6,340.9,261.6,339.6z"/>
		<path fill="#04665D" d="M233.5,345.9c1.9-1.3,0.5-3.8,2-5.2c1,1.9-0.9,6.1,4.4,4.8c2.2-0.5,0.8,2.7,1.3,4.1
			c-2.8-0.3-5.7-0.5-8.5-0.8C232.9,347.8,233.2,346.8,233.5,345.9z"/>
		<path fill="#04665D" d="M234.2,329c-0.9-0.2-1.8-0.4-2.6-0.6c0,0,0.1-0.1,0.1-0.1c0.4-1.4,1.4-2.1,2.9-2.1
			C234.4,327.1,234.3,328,234.2,329z"/>
		<path fill="#0BB1A2" d="M220.9,327.3c2.7,0.1,5.4,0.2,8.2,0.2c0.8,5.2,1.7,10.3,2.6,15.7c-1.9,2-8.3-3-7.2,4.4
			c0.2,1.4-2.5,0.4-4.6-4.2c0.1-0.2,0.2-0.4,0.3-0.6c-0.1,0.2-0.2,0.4-0.3,0.6c-1-0.4-2-1-3-1.2c-4-0.6-7.6-1.3-5.3-6.9
			c0.6-1.4-0.6-2.4-1.9-3c-0.1-0.4,0-0.6,0.3-0.9c1.5-0.4,1.9-1.5,1.8-2.9c0,0,0,0,0,0c2.1-1.3,5,3.4,6.8-0.8
			C219.4,327.7,220.1,327.5,220.9,327.3z"/>
		<path fill="#0DAB9C" d="M218.6,327.8c-1.8,4.2-4.6-0.4-6.8,0.8C213.8,326.4,216.2,327,218.6,327.8z"/>
		<path fill="#0DAB9C" d="M211.8,328.6c0,1.4-0.4,2.5-1.8,2.9C209.9,330.1,210.4,329.1,211.8,328.6z"/>
		<path fill="#07090C" d="M312.1,163.1c3.9-0.8,7.7-1,11.6-0.1c2.5,0.6,4.2,1.3,4.3,4.1c-4,0.2-7.7,4.1-12.1,0.7
			C314.2,166.4,312,165.8,312.1,163.1z"/>
		<path fill="#F8F9E6" d="M228.3,241.8c0.5-11.9,4.2-23.3,6.8-34.8c0.3-1.3,0.5-2.6,0.7-3.8c0.5-1.8,0.9-3.5,1.4-5.3
			c0.2-0.8,0.5-1.6,0.7-2.4c5.4-6.3,11.8-11.2,20.2-14.4c0.4,3.7,0.7,6.8,1.1,10c1.1,9.4,0,18.9,2.7,28.2c-7.9,2.6-9.6,5-7.4,12.6
			c1.2,4.2-5.6,2.3-3.8,6.1c-3.3,1.3-3.3,1.3-5.2,7.3c-1-7.4-5.2-8.9-10.9-7.9c-4.9,0.9-1.5,4.6-2.5,6.8
			C230.2,244.3,229.7,242.3,228.3,241.8z"/>
		<path fill="#2B2C27" d="M229.2,200.5c0.8-0.9,1.3-1.6,1.9-2c0.8-0.4,1.9-0.2,1.6,1c-0.2,0.7-1,1.4-1.7,1.8
			C230.8,201.5,230.1,200.9,229.2,200.5z"/>
		<path fill="#2B2C27" d="M237.9,195.5c-0.2,0.8-0.5,1.6-0.7,2.4c-0.8-0.2-2.1-0.3-1.9-1.3C235.4,195,236.8,195.3,237.9,195.5z"/>
		<path fill="#FAFAE9" d="M278.5,201.8c0.1-7.4,0.4-14.8,0.1-22.2c-0.2-3.5,1.5-4,4.1-4.2c2.2,11.6,1.9,23,0.1,35.5
			C278.5,207.9,278.8,204.8,278.5,201.8z"/>
		<path fill="#443C30" d="M284.3,236.6c0.1-0.4,0.3-0.8,0.4-1.2C285.2,235.9,284.9,236.3,284.3,236.6z"/>
		<path fill="#F0EFE1" d="M287,310.2c2.3-0.7,2.5,1.9,3.9,2.5c-1.8,1.1,2.8,7.7-3.9,4.6C287,314.9,287,312.5,287,310.2z"/>
		<path fill="#F0EFE1" d="M275.4,319c-2.2,0.8-3.5,0.2-3.6-2.3c1-2.1,0.1-4.9,2.8-6.8C277.2,312.8,275.1,316.1,275.4,319z"/>
		<path fill="#0DAB9C" d="M219.9,343.4c0.1-0.2,0.2-0.4,0.3-0.6C220.1,343.1,220,343.3,219.9,343.4
			C219.9,343.4,219.9,343.4,219.9,343.4z"/>
	</g>
</g>
</svg>
