<?xml version="1.0" encoding="utf-8"?>
<!-- Generator: Adobe Illustrator 18.1.1, SVG Export Plug-In . SVG Version: 6.00 Build 0)  -->
<svg version="1.1" id="图层_1" xmlns="http://www.w3.org/2000/svg" xmlns:xlink="http://www.w3.org/1999/xlink" x="0px" y="0px"
	 viewBox="0 0 560 560" enable-background="new 0 0 560 560" xml:space="preserve">
<g>
	<g>
		<path fill="#070606" d="M423.3,395.3c1.2,0.4,2.3,1.2,3.5,1.1c17.8-0.4,22.9,14.4,23.4,28c0.4,11.6-4,21.1-14.8,26.6
			c-1.7,0.9-3.8,2.3-5.4,1.9c-10.4-2.4-14.4,3.9-19,11.7c-6.4,10.7-17.5,14.3-29.5,15.3c-1.9,0.2-4.3-0.8-5.5,1
			c-1.3,2.2,1.2,3.3,2.4,4.8c5.9,7.9,0.6,20.1-9.3,21.2c-1.7,0.2-3.4,0.2-6.2,0.3c5.7,7.3,3.5,13.5-2.2,18.3
			c-4.1,3.5-9.4,3.7-14.5,1.8c-0.3-1.6-0.9-2.8-2.8-2.3c-0.5,0.2-1.2,0.8-1.3,1.4c-0.4,1.9,0.9,2.4,2.4,2.7
			c0.9,10.8-9.6,18.9-19.1,14.4c-3.7-1.8-7.2-2.8-11.3-2.4c-6,0.5-9.6-3.3-12.6-7.6c-2.5-3.6-5.3-4.8-9.9-4.6
			c-18.8,0.8-37.3-0.2-53.4-11.9c-3.3-2.4-7.4-2.4-11.4-2.4c-2,0-3.9,0-5.9-0.2c-3-0.3-27.5-16.1-29.2-18.6
			c-2.2-3.3-2.8-6.9-1.7-10.6c1.4-4.4-0.5-5.5-4.6-5.9c-14.3-1.4-25.8-7-31.7-21.3c-1.7-4.2-5.6-5.9-10.3-5.7
			c-12.1,0.4-22-7.1-24.3-18.5c-2.1-10.2-0.3-20.1,4.4-29.3c2.8-5.5,8.7-6.8,14-8.7c2.7,0.3,5.5,0,8,0.9c4.9,1.7,7.1,0.5,8-4.7
			c0.5-3.2,2.9-5.1,6.3-6.2c15.3-5.2,34.8,0.8,43.6,13.7c0.9,1.4,1.7,3.3,3.9,2.3c2-0.9,1.6-2.9,1.4-4.5c-0.5-3.8-3-6.3-5.5-9.1
			c-6.8-7.5-16.2-9-25.1-11.5c-0.4-1.6-1.4-2.6-2.9-3.2c-1.6-2.1-3.1-4.4-5-6.3c-11.7-11.3-23.5-22.5-35.2-33.8
			c-1.2-3.8-4.7-6.4-4.5-11.2c0.6-14,0.3-28,0.4-41.9c4.2-1.1,8.3-2.6,12.7-1.7c0.6,0.6,1.2,1.3,1.8,1.9c-0.3,2.6-0.3,5.1,3.4,4.8
			c3.9,2.8,8.1,3.3,12.6,1.8c6.9,0.3,12.6,4.8,19.2,5.9c0.2,0.4,0.2,0.7,0.1,1.1c0,2-0.1,4-0.1,6.1c-1.9,0.1-3.9,0.3-5.8,0.4
			c-2.4-1.2-4.9-0.5-7.3-0.2c-2,0.1-3.7,1-2.5,3.1c1.1,2,2.8,1.2,4-0.5c2.4,0.9,4.9,1.7,7.3,2.6c5,3,10.4,4,16.1,3.5
			c3.1,0.5,6.2,0.9,9.2,1.5c7,1.3,14.3,1.8,20.3,6.5c0,1.5,0,2.9,0,4.4c-12.2,1.8-24.5,4-36.9,1.5c-0.7-2-2.2-2-3.8-1.7
			c-0.6,0.1-1.3,0.2-1.9,0.2c-0.5-1.3-1.3-2.3-2.8-1.2c-1.6,0.1-3.3,0.3-4.9,0.4c-3.8-1.9-6.5-0.3-8.7,2.7c-1.9,0.9-3.8,1.2-5.8,0.8
			c-1.3-4.4-3.5-4.2-6.2-1.1c-3.4-1.2-6.3-3.7-10.2-3.9c-0.3-2.9-1.9-4.5-5.6-5.2c0.8,3.7,1.4,6.5,5.3,7.1c1.9,1.5,4.1,2.8,5.8,4.5
			c6.5,6.5,13.5,7.4,21.2,2.3c1-0.3,1.9-0.6,2.9-0.9c2,0,3.9,0,5.9-0.1c1.3,1.1,2.8,1.6,4.5,1.5c4,2.5,7.4,6,12.5,6.4
			c1.5,3.3,4.5,2.4,7,2.5c6.9,0.1,13.8,0,20.6,0c-1.8,2.2-2.6,5.6-6.2,5.9c-4.8-1.3-9.2-0.4-13.5,1.9c-4.4,0.9-9.1-0.3-13.3,2.1
			c-1.5,0.4-3.8,0.6-3.3,2.6c0.4,1.4,2.4,0.9,3.6-0.2c5.4-1,10.7,0,15.9,1.2c6,1.4,11,0.3,16.5-3.2c9-5.7,18.2-12.3,30.2-7.2
			c2.8,1.2,4.1-0.3,2.6-3.5c-3.3-6.9-6.6-13.7-14.1-17.1c1.9-6.7-1.1-8.5-7.3-7.7c-1.8,0.2-3.7-0.7-5.5-1.2c0-1,0-2.1,0-3.1
			c4.4-1.5,8.8-3,13.3-4.5c0.5-0.4,1-0.8,1.5-1.2c1.4-1,2.9-2,4.3-3c2.5,1.7,3.5,4.4,4.3,7.1c-1.8,1.2-4.4,1.5-4.1,4.6
			c0.8,2.1,2.6,3.4,4.3,4.6c0,1.4-0.2,3,1.1,4.1c0.2,2.5,0.9,4.6,2.6,6.5c4.5,4.8,6.2,10.6,5.4,17.2c-0.3,1.7-0.6,3.4-0.9,5
			c-3.1,18.2-1.3,20.4,16.7,19.5c1.4,2.5,2.4,2.2,3.2-0.4c9.9-1.9,19.6,2.2,29.5,1c0,1.5,0,3.1,0.1,4.6c-1.1,2.3-3.4,2-5.1,1.6
			c-12.3-2.9-24.5-2.3-36.9-0.2c-6.8,1.2-11.2-2-12.8-8.8c1.6-1,1.6-2.5,1.1-4.1c-1.4-2.4-0.3-7.2-5.5-5.8c-8,2.1-16.1,4.1-23.1,9
			c-11.5,8.1-16.7,24.1-11.2,34.2c1.3,2.4,3.1,4.3,5.8,3.1c2.7-1.2,0.8-3.6,0.1-5.1c-3-6.7-1.6-13.6,2-18.6c5.8-8.2,14.1-14,24.7-15
			c0.1,0.8,0.1,1.6,0.2,2.4c-5,6.8-8.2,14.2-7.3,22.9c0.2,2.3-1.5,2.7-2.9,3.6c-1.6,1.1-4.3,1-4.7,4.2c12.4,3.6,16.3-8.1,24-14.4
			c0.5,6.6-4.2,9.6-6.1,14.2c6.7-0.4,8.9-5.9,13-8.6c0.5,0.3,0.9,0.7,1.4,1c-1.3,4.6,1.1,4.8,4,2.9c4.3-2.8,9.3-5.1,11.9-9.5
			c3.9-6.7,5.6-4,8.4,0.8c3,5.3,6.9,9.8,13.6,10.6c0.5-4-4.3-5.6-3.4-10c4.4,0.7,4.9,4.6,6.8,7.1c2,2.6,3.9,5.3,9.3,6.4
			c-2.3-3.7-3.9-6.1-5.2-8.5c-0.9-1.6-3.1-3.5-0.6-5c2.2-1.3,3.6,0.9,4.4,2.6c2.6,5.3,6.5,9.1,11.9,11.4c3.5,1.9,5-1.4,7.2-2.8
			c1.6-0.6,4.8-0.7,1.4-3.3c-1.7-1.3-3.7-2.1-5.6-3.2c-2.5-2-3.2-4.7-3-7.8c0.4-6.3-1.9-11.4-7.3-14.9c0.1-0.4,0-0.8-0.3-1.2
			l-0.1,0.1c12.1-1.9,20.6,4.5,27.6,12.8c7,8.3,7.3,17.1-1,25.6c-3,3-2,6.2,3.1,5.7c4.4-0.5,8.2,0.8,12.2,2.2
			c1.7,0.6,3.1,3.2,5.2,1.6c1.9-1.5,1.7-3.8,1.4-6.1c-1.3-8.6,2.5-14.9,10.5-18.1c9.4-3.7,19.2-3.7,29.1-2.8c4.7,0.4,8.7,3.6,9.7,8
			C416.9,399.4,419.8,397.4,423.3,395.3z M359.4,477.3c-0.1-0.4-0.3-0.6-0.6-0.7c-0.8-1.6-1.8-3.4,1.1-3.7c2.1-0.3,4.4-0.1,6.5-0.1
			c4.4-0.1,7.8-2,8.6-6.3c0.7-3.9-1.3-7-5.6-8.2c-1.8-0.5-3.8-1.4-5-2.7c-6.9-7.4-15.2-7.9-24.2-5.3c-1-0.3-2-0.6-3.1-0.8
			c1.6-7.5-0.6-14.2-5.1-20c-3.2-4.1-6.3-8-6.2-13.5c-2.6,0.6-2.7,2.5-3.5,3.9c-0.5,0.5-1,0.9-1.5,1.4c-0.4,0-0.8,0-1.3,0
			c-2.5-5-7.2-6.7-12-8.4c-6.3-2.1-7.5-8-9.6-14c-2.5,2.6-1.5,5.3-2.4,7.4c-2.1,1.6-4.7,1.7-7.1,2c-2.2-2.2-6.5-3.7-3.3-8
			c3.4-4.5,0.6-7.3-2.7-11.4c-0.9,5.5-2.4,9.6-6.4,12.3c-1.7,1.2-1.6,3.4-0.9,5.4c-1.5,0.6-3,1.1-4.5,1.7c-0.6-0.4-1.2-1-1.9-1
			c-2-0.1-1.7-3.7-4-2.8c-2.6,1-0.5,3.3-1,4.9c-0.2,0.9-0.5,1.8-0.8,2.7c-2.1,0.6-3.9,0-5.7-1.1c0-2,1.3-5-1.3-5.7
			c-2.6-0.6-3,2.7-3.9,4.5c-1.8,3.5-3.1,7.2-2.2,11.3c-4.3-0.6-6.3-4.6-9.9-6.3c-2.1-5.4-6.6-6.8-11.7-6.9
			c-4.6-0.1-9.2,0.6-13.7-1.3c-3.7-1.5-5.9,1.2-7.5,4.2c-1.6,2.9-1.5,5.6,1.3,7.8c2.5,1.9,5,3.8,7.5,5.7c0.1,2.5-1.8,2.4-3.4,2.6
			c-5.1,0.7-10.2,1.4-15.3,2.2c-5.8-1.3-8.7,2.8-8.7,6.9c0,5.7,4.5,7.2,9.8,6.1c5.3,0.7,9.2,4.2,13.5,6.9c-0.5,1.9-1.1,3.9-1.6,5.8
			c-4.1,0.1-8.2-0.1-12.3,0.4c-8.9,1.1-11.2,4.3-8.6,11.8c3.1,3.8,8.5,2.9,12,5.9c7.2,5,12,5.5,17.2,1.7l0.1,0
			c0.6,1.3,1.8,1,2.8,0.8c0.7,0,1.4,0,2.1,0c9.5,2.8,17.1-1.9,24.8-6.4c-0.1,2.1-0.1,4.1-0.2,6.2c-3.6,0.4-5.8,3.1-8.4,5
			c-1.5,0.7-2.3,1.6-1,3.1l0.4,0.5c1.4,2.2,4.8,3.2,3.7,6.7c-5,2-8.7-2.7-13.3-2.6c-4.8-0.3-5.9,5.4-10,6.3
			c-0.7-2.3-1.5-4.5-2.2-6.8c2.2-1.8,7.5,1.4,7.1-3.3c-0.3-3-4.8-2.8-7.8-3.1c-1.2-0.1-2.3,0.1-3.5,0.1c-2.1-0.9-4,0.3-6,0.5
			c-1,0-2-0.1-2.9-0.1c-5,0.1-9.2,1.1-8.9,7.5c1.7,8.5,8.9,6.8,14.6,7.8c7.7,8.5,7.7,8.5,20.9,2.6c9,1.5,16-1.9,21.7-8.5
			c0.1,1.7,0.8,3.7,0.1,5c-2.2,4.2,0,5.4,3.2,7.7c7.9,5.8,16.9,7.2,26.1,8.3c1.5,0.2,2.9-0.6,3.1-2.4c1.6-1.2,3.2-1.3,4.9-0.3
			c3.1,5.8,5.1,12.6,12.8,14.3c3.1,9.8,4.9,11.1,14.4,10c2.6-0.3,4.1,1.1,6.1,1.8c4.6,3.9,9.5,5.8,13.6-0.2c3.3-4.9,0.9-8.2-4.2-9.9
			c0-0.4,0-0.9-0.1-1.3c-0.4-0.4-0.8-0.7-1.2-1.1c-0.7-0.8-1.4-1.7-2-2.5c0.2-1.1,0.5-2.2,0.7-3.3c2.3,0.9,4.5,1.8,6.8,2.6
			c0.9,1.9,1.9,2.2,3,0.2c3.2-0.5,6.4-0.3,9.2,1.5c3.7,2.5,6.5,1.2,8.7-2c2.1-3.1,2.6-6.1-0.6-9c-5.4-4.8-10.5-10-16-14.8
			c-1.6-1.4-3.7-2.5-6-2.3c-1.3,0.1-3.3-0.4-3.7,1.4c-0.4,1.6,1.2,2.4,2.4,3.2c0.2,1.5-0.5,2.5-1.8,3.1c-0.9,0-1.9,0-2.8,0
			c-3.2-0.1-6.5-0.3-8.8-3.1c1-1.5,2-3,3.1-4.6c5.5-3.7,4.9-6.7-0.3-10.5c-2.3-1.7-6.6-2.9-5.6-7.5c1,0,1.9,0.1,2.9,0.1
			c5.3,3.7,10.5,7.3,15.8,11c3.7,5.9,9,8.6,15.9,7.5c2.8-0.4,5.2,0.4,7.8,1.2c3.2,2.8,5.6,9,11.1,2.9c4.1-0.4,4.5-3.4,3.7-6.3
			c-0.9-3.3-3.8-5.5-6.6-7.4c-0.3-0.9-0.8-1.6-1.9-1.2l-0.2,0c-0.5-2-2-2.8-3.8-3.4C361.5,479.2,360.5,478.3,359.4,477.3z
			 M407.5,415.7c8.7-0.2,14.6,6.7,12,14.2c-0.9,2.5-2.4,4.4-5.3,4.2c-2-0.1-4.4-0.3-5.3-2.1c-1.3-2.7,1.6-3.6,3.2-5
			c0.9-0.8,2.3-1.3,1.7-2.8c-0.7-1.7-2.4-2.7-4.1-2.6c-4.5,0.4-8.1,1.9-8,7.5c0.1,7.2,4.5,11.5,10.3,14c5.3,2.2,9.4-1.7,12.7-5.3
			c5.8-6.4,5.2-16.1-1-22.7c-8.2-8.8-22.1-9.8-33-2.3c-11.1,7.7-19.1,18.2-26.9,29c-2.9,4.1,0,6.3,3,8.3c3.4,2.2,5.5,1.3,7.3-2.6
			c4.3-9.2,10.7-17,18-24C396.3,419.3,401.1,415.9,407.5,415.7z M140.5,426.9c-0.1,10,5.8,16.9,13.9,16.3c7.5-0.6,13-8,12.2-15.7
			c-0.4-3.4-2.6-4.5-5.2-5.5c-2.3-0.9-4.5-0.3-6.1,1.4c-2.4,2.7,1.1,3.7,1.9,5.4c0.7,1.4,1.6,2.6,0.5,4c-1,1.3-2.3,1.7-3.9,1.3
			c-5.6-1.4-8.3-9-4.7-13.6c4.1-5.4,9.7-6.3,15.7-4.2c5.9,2.1,11.1,5.3,14.2,11.1c1.5,2.8,3.6,4.6,6.2,1.5c1.8-2.1,5.5-4.3,1.8-7.9
			c-7-6.9-14.6-12.4-24.8-13.1C150.8,406.9,140.6,415.9,140.5,426.9z"/>
		<path fill="#BCA46D" d="M333,137c0.7,6.7-0.7,12.7-5.4,17.7c-0.9,1-2.6,1.8-1.4,3.6c1.2,1.8,2.6,0.6,3.9,0.2
			c8.2-2.8,17.2-4,23.6-10.9c1.5-1.6,3.5-2.5,6.1-2.7c-2.4,5.5-4.7,10.7-7,15.9c-0.9,2.2-2.8,4.4,1.5,5.5c2.1,0.6,1.2,3.5,0.9,5
			c-0.8,2.9,0,4.2,2.7,4.8c0.4,3.7-0.5,6.6-4.5,7.8c-5.5,1.1-9.2,4-10.9,9.6c-0.8,2.8,0.2,3.6,2.5,4c-1.4,1.4-2.8,2.8-4.2,4.2
			c-6.1,6.3-12.8,12.2-21.2,14.3c-5,1.3-6.5,3.1-6.1,7.7c-0.1,0.5-0.3,1.1-0.4,1.6c-2.6-0.5-7.5,3.7-7.1-3.3
			c-0.4-0.7-0.9-1.5-1.3-2.2c-1.3-7.2-1.8-7.4-7.1-3c-2.4,2-5.1,3.8-7.4,6c-2.6,2.5-4.8,3.1-7.6,0.3c-2.2-2.2-4.7-3.8-7.5-0.8
			c-1.5-0.5-3-1.4-4.6-1.6c-3.2-0.3-2.1,1.4-1.1,2.9c-3.1,0.1-3.1,2.4-3,4.6c-1.4,2.1-1.3,6.4-5.9,4.2c-0.6-3.8,0.4-8.3-4.9-9.7
			c-2.3-2.7,0.8-8.9-4.3-8.9c-9.5-0.1-12.6-8.7-19.1-12.6c-6.3-4.9-13.1-9.5-16.1-17.5c-1.1-2.6-4.4-3.8-4.5-7.1
			c2.3-0.7,3.2-2.4,3-4.7c1-1.4,1-3.3,3.7-3.5c3.1-0.2,2.1-2.2,0.8-3.8c0,0,0-0.1,0-0.1c2.3-3.8,1.1-7.9,1.5-11.9
			c4.7,2.6,9.7,4.5,15,5.6c3.5,0.7,5,0.2,3.3-3.5c-4.4-9.6-3.5-20.1-4.8-30.3c1.5-1.4,2.3-3.1,2.7-5.1c4.3-1.7,4.1,6.2,8.6,4
			c2.7-0.2,5.7,0.7,6.2-3.8c0.4-3.7,1.9-7.3,2.9-11c1.1,0.9,2.3,1.9,3.4,2.8c3.6-5.8,4.6-13,9.4-18.2c2.8,4,4.9,1,7.1-0.8
			c3.4-2.8,6.8-4.1,9.8,0.5c0.4,3.6-1.2,6.6-2.6,9.7c-6.9,2.3-6.4,8.5-6.4,13.7c0,9,5.6,11.8,13.1,7c4,2.5,7.2,1.2,8.5-2.9
			c1.3-4.3-1.3-6.1-5.5-5.9c1.1-4.9,2.7-10-3-13.3c2.2-5.4,4.4-10.8,6.6-16.3c3.1,0.3,6.1-0.1,8.9-1.6c0.6,0.2,1.2,0.5,1.8,0.7
			c0.3,4.8,0.5,9.5,0.8,14.3c0.1,4,0.2,8,0.3,12c-1.2,5.1-3.8,9.9-4,15.5c7.9-3.7,9.4-6.3,9.5-15.7c0.7-5.4,1.4-10.8,2.1-16.2
			c0.4-0.9,0.7-1.7,1.1-2.6c1.3-0.1,2.5-0.2,3.8-0.4c0.6,1.9,1.3,3.9,1.9,5.8c0,3.6,3.5,6.1,3,9.8c-0.8,8.4,0.4,16.6,2.6,24.7
			c0.7,2.6,1.6,4,4.3,3.7C331.6,135.7,332.3,136.3,333,137z M299.8,157.4c-3.2,0.1-2.4,2.2-2,4.1c-5.6,4.4-7.3,9.2-4.4,16.4
			c3.2,7.9,0.5,10.4-8,10.4c-4.8,0-7.5-4.6-12.1-4.1l0-0.1c0.4-1.4,0.9-3-0.5-4c-1-0.7-1.7,0.3-2.3,1.1c-0.8-1.6-1.6-3.3-2.4-4.9
			c4.3-2.8,3.9-6.5,2.3-10.6c1-1.8,2-3.6,3-5.3c1.2-0.6,2.2-1.8,1.1-2.7c-2-1.6-3.4-0.1-4.4,1.7c-11.5,9.5-13.3,15.9-8,28.6
			l-0.2,0.2c-2.4,0.5-5.9-1-6.8,2.7c-0.7,3.1,2,4.7,4,6.4c0.7,0.6,1.6,1.2,2.5,1.5c9.5,3.3,18,8.5,25.1,15.7c6,1.5,6.9-6,11.3-6.6
			c8.6-1.2,13.9-7.2,20-12.4c1.5-1.3,3.7-2.4,2.6-4.5c-1.6-2.9-3.8-0.4-5.7,0.1c-0.9-0.6-1.8-1.1-2.7-1.7
			c0.4-7.9,8.5-12.1,10.1-21.3c-6.2,5.5-8.7,2.8-11.1-2.3C309,161.5,306.2,156.7,299.8,157.4z M249.9,203.1c-1.4,2.9-2.2,5,0.4,6.8
			c0.4,0.3,1.7,0,1.9-0.4C253.7,206.7,252,205.1,249.9,203.1z M296.9,155.1c0.2,0.1,0.4,0.2,0.6,0.2c0.1,0,0.1-0.3,0.2-0.5
			c-0.2-0.1-0.4-0.2-0.6-0.2C297,154.6,297,155,296.9,155.1z"/>
		<path fill="#090806" d="M464.1,363.9c-3.4-0.5-6.1,0.8-8.5,3.2c-4.1,4.2-8.7,7.9-12.3,12.4c-5.7,7.4-12.5,11.1-21.9,9.7
			c-1.2-0.8-2-1.7-1.9-3.2c15.7-14,30-29.4,44.8-44.3c1.3-1.3,1.6-2.9,1.6-4.7c-0.2-22.6-0.4-45.1-0.5-67.7c0.3-2.2,0-4.3-0.9-6.4
			c1.6-3.7,1.7-7.4,0.2-11.1c1.8-11.3,0.9-22.7,0.5-34c4.6-3.8,11.6-5.5,11.6-13.3c0.5-2.5,2.1-6-1.8-6.3c-3.6-0.3-2,3.5-2.3,5.6
			c-0.1,1.2,0,2.4,0,3.6c-2.7,2.4-5.9,2.6-9.3,2c2.5-5.7,3-11.8,2.1-17.9c-0.9-5.7-4.3-8.8-10.4-7.9c-0.1-1.1-0.2-2.1-0.3-3.2
			c1.7-2.3,3.3-4.6,5-6.9c1.7-0.7,3.2-2.6,5.1-0.2c1.5,1.8,3,4,3.9-0.5c0.4-2.1,2.2-1.8,3.5-1c1.3,0.8,2.2,2,1,3.6
			c-1.6,2.3-3.1,4.5-0.5,7.1c-1.1,3.6-1.9,6.8,3.7,7.2c1.7,0.1,3.3,1.9,4.9,2.9c5.1,3.2,4.4,9.6,8.3,13.4c-1.1,0.7-1.6,1.1-1.9,1.1
			c-2.9-0.2-3.9-5.3-6.3-3.9c-3,1.7-0.9,5.7-1.2,8.7c-3.5,28.8-2,57.7-2.2,86.6c0,7.3,0.7,14.6,1.2,21.9c4,0.1,4.5-5.8,8.9-5.4
			c0,3.5-2.7,4.9-4.3,6.8c-3.7,4.7-4.9,9.5-2.1,15c0.8,1.6,2.6,3.5-0.1,5c-5.6,3.2-6.3,8.9-7.6,14.4c-1.1,4.4-1.6,9.2-5.5,12.3
			C468.2,362.4,468.2,362.4,464.1,363.9z"/>
		<path fill="#070606" d="M143.8,390.1c-3.7-0.7-7.3-1.5-11.2-0.7c-4.3,0.9-6.3-2.9-8.6-5.6c-6.6-7.7-11.8-16.6-20.1-22.9
			c1.4-1.1,4.2-1,3.6-3.7c-0.2-1-1.4-2.6-2.2-2.6c-5.4-0.1-1.6,4.2-2.8,6.2c-2.9,3.2-0.7,6,0.1,9.2c0.7,2.8-0.3,6.1-0.6,10.4
			c-4.7-5.3-1.6-11-3.9-15.5c-2.1-3.6-3.7-7.5-3.1-11.8c0.8-5.7-1.9-7.6-7.2-6.9c1-5-0.9-8.9-4.2-12.6c-5.8-6.5-7.2-14.2-4.5-22.6
			c3.8,1,4.8,5.7,9.2,6c1-35,2-69.8,3-104.7c4.2,0,7.2,3.1,11.1,4c0.1,1,0.2,2,0.3,3c-0.3,14.5-0.5,29.1-0.8,43.6
			c-1.9,1.1-4.8,1.1-5.3,4.1c2.1,2.2,5.3,0.7,7.4,2.4c-2.8,16.3-2.5,32.6-0.8,48.9c-2.1,12.9-2.7,25.3,10.7,33.4
			c2.2,1.3,3.7,3.9,5.5,5.8c9.1,9.5,18.2,19,28.3,27.5C147.4,387.3,146.5,389.4,143.8,390.1z"/>
		<path fill="#090806" d="M193.7,96.9c-4.4-2.7-3.6-8.9-8.2-11.7c-2.1-1.3,0.3-2.8,1.4-4c2.9-2.9,6.5-3,10.6-2.1
			c-0.6-2.6-1-4.4-1.6-7.2c8.4,5.2,13.6-1,19.3-4.3c4.6-2.6,8.2-4.9,10.5,2.2c0.6,2,2.4,2.2,4.2,2.2c15.7-0.2,31.3-0.4,47-0.6
			c-0.1,5-3.3,8.5-5.9,12.2c-1.1,0-2.1,0-3.2,0c-14.9-0.1-29.8,0.4-44.7-0.4c-11.9-0.7-20.3,3.7-26.1,13.7
			C195.9,96.9,194.8,96.9,193.7,96.9z"/>
		<path fill="#938F85" d="M419.5,386c-0.1,1.5,0.8,2.5,1.9,3.2c-0.6,2.4,0.7,4.2,1.8,6.1c-3.5,2.1-6.4,4.1-7.9-2.4
			c-1-4.4-4.9-7.6-9.7-8c-9.8-0.9-19.6-0.9-29.1,2.8c-8,3.2-11.8,9.6-10.5,18.1c0.4,2.3,0.6,4.6-1.4,6.1c-2.1,1.6-3.5-1-5.2-1.6
			c-3.9-1.4-7.8-2.7-12.2-2.2c-5.1,0.6-6-2.6-3.1-5.7c8.3-8.5,7.9-17.3,1-25.6c-7-8.3-15.5-14.8-27.6-12.8c0.6-0.8,0.4-1.2-0.6-1.1
			c0.2,0.3,0.5,0.7,0.7,1c0.3,0.3,0.4,0.7,0.3,1.2c-1.8-0.3-2.8,1.1-4.1,1.9c-0.1-2.4-0.2-4.9-0.3-7.3c-0.2-3.1,0.9-4.4,4.2-4.4
			c21.6-0.5,40.3,20.4,37.2,41.6c-0.2,1.6-1.3,3.6,1.4,4c2.5,0.4,3.1-1.5,2.7-3.3c-1.3-5.2,2.8-7.1,5.6-10
			c6.5-6.4,15.2-7.2,23.2-9.7c9.5,2.2,20.1-1.7,28.8,5.3C417.8,384,418.6,385,419.5,386z"/>
		<path fill="#CBB07E" d="M102.5,216.3c-3.9-0.8-6.9-4-11.1-4c-0.8-3.1-5.7-0.1-5.7-3.7c0-1.8,1.9-2.5,3.7-2.6
			c4.6,1.6,9.2,3.6,14.4,2.6c4.5,0.4,8.4,2.6,12.2,4.7c0.5,0.4,0.9,0.9,1.4,1.3l0.1,0.1c2.7,3.5,5.3,7.3,10.7,6.5
			c0.5-0.2,0.9-0.4,1.4-0.6c3.5,4.1,7.9,2,11.5,1c5.7-1.4,10.8-0.7,15.5,2.3c10.1,6.6,20.2,13.4,25.7,24.8c-1.9,7.5,0.3,13.6,6,18.7
			c2.2,2,5.3,4.7-0.4,6.6c-7.1-7.3-11-16.7-17.1-24.7c-11.4-14.8-25.5-20-41.3-14.9c-4.7-1.5-8.1-4.9-11.8-7.9
			c-0.6-0.5-1.2-1-1.8-1.6l0.1,0C113.7,218.6,109.9,214.7,102.5,216.3z"/>
		<path fill="#100E0D" d="M305.7,83.9c-0.6-0.2-1.2-0.5-1.8-0.7c-0.7-3.1-2.9-5.9-2.1-9.4c15.4,1.5,30.9,0,46.3,2.3
			c1.3,0.2,3.1,0.7,3.8-1.2c0.6-1.5-0.4-2.7-1.2-4c-1.3-1.9-4.2-2.7-4-5.9c6.6,1.2,12.5,3.2,16.5,8.9c1.9,2.7,4.8,4,8.3,3.9
			c4.3-0.1,8.2,1.4,11.6,4c0.6,1,1.2,2,1.7,3c0.1,3.2-1.8,4.3-4.7,4.2c-0.4-0.6-0.8-1.2-1.3-1.7c-0.4,0-0.9,0-1.3,0
			c0,0.2,0,0.5,0.1,0.5c0.8,0.4,1.1,0,1.2-0.7c-2.1,2-0.2,2.7,1.1,3.7c-0.5,4-2.8,6.7-6.1,8.7c0,0-0.5,0.1-0.5,0.1
			c-5.9-10-12.3-18.1-26.3-16.2c-11.5,1.6-23.4,0.7-35.1,1C309.9,83.4,307.9,83.1,305.7,83.9z"/>
		<path fill="#683687" d="M321.1,96.8c-0.6-1.9-1.3-3.9-1.9-5.8c8.2-0.9,16.4-2.7,24.6-1.5c8.8,1.3,18.9,0.8,23,11.7
			c-4.7,4.9-3,12.5-7.4,17.4c-3.6,1.9-5.7-2-8.7-2.3c-0.2-0.5-0.3-1.1-0.5-1.6c0.9-0.5,1.8-1.4,1.3-2.3c-3-4.7-8.1-6.6-12.9-7.7
			c-3.9-0.9-3.6,4.4-5.7,6.7c-0.5,0.1-1,0.1-1.5,0.2C327.3,106.9,327.8,99.3,321.1,96.8z"/>
		<path fill="#100E0D" d="M391.6,223.5c10.9-5.3,23.2-7.9,32.8-16c4.1-3.5,8.6-6.5,12.9-9.7c0.3,0.8,0.6,1.6,0.9,2.4
			c-1.4,6.3-0.6,12.7-0.6,19c0,1,0,1.9,0,2.9c-21-3.2-36.3,6.2-48.9,21.8c-1,0.2-2.1,0.3-3.1,0.5c0.6-4.2,3.1-7.6,5.3-10.9
			C393.1,230,393.7,227,391.6,223.5z"/>
		<path fill="#CBB07E" d="M360.5,217.6c-0.2,5.4,3.2,7.3,7.8,7.6c3.9,0.2,7.8-0.1,11.6-0.1c0,0.5,0,1,0,1.5c-4.9,4.6-10.2,8-17.3,9
			c-8.1,1.1-11.9,7.3-13.6,14.8c-3.8-0.7-7.2-0.4-9.1,3.7c-1.2,2.7-4,5.4,0,8c0.4,6.5-9.2,22.7-14.8,24.9c-1.3,0.5-2.8,1-4.2,0.2
			c-0.8,0.2-1.3-0.1-1.5-0.9c4.5-7.3,10.2-13.9,11.8-22.8c0.8-4.8,2.1-9.9,5.9-13.2c6.7-5.8,10.9-13.1,14.8-20.7
			c0.9-0.1,1.6-0.3,0.9-1.4c0.2-1,0.3-1.9,0.5-2.9c2.4-1.9,2.4-5,3.8-7.4C358.2,217.7,359.4,217.6,360.5,217.6z"/>
		<path fill="#938F85" d="M143.8,390.1c2.7-0.7,3.6-2.8,4-5.2c9.3-5.9,19.4-8.6,30.3-8.1c9,2.5,18.3,4,25.1,11.5
			c2.5,2.8,5,5.3,5.5,9.1c0.2,1.6,0.6,3.6-1.4,4.5c-2.2,0.9-3-0.9-3.9-2.3c-8.8-13-28.3-18.9-43.6-13.7c-3.4,1.2-5.7,3-6.3,6.2
			c-0.9,5.2-3.1,6.4-8,4.7c-2.5-0.9-5.3-0.6-8-0.9C138.3,392.4,143.2,393.6,143.8,390.1z"/>
		<path fill="#B49768" d="M353.5,183.8c4-1.2,4.9-4.1,4.5-7.8c7.6-6.8,15.2-13.7,22.8-20.6c3.2,0.9,4.6,7.4,9.5,3.3
			c0,1.8-0.1,3.6-0.1,5.4c-1.9,1.1-3.6,2.5-5.6,3.3c-9.3,3.7-18.3,7.7-19.6,19.5c-0.2,1.5-1.9,2.7-2.9,4.1c-1.8,0.1-3.6,0.1-5.4,0.2
			c-1.2-1.9,2.5-3.8,0.5-5.3c-2.2-1.7-2.3,1.8-3.7,2.3C353.5,186.8,353.5,185.3,353.5,183.8z"/>
		<path fill="#100E0D" d="M103.7,208.5c-5.1,1.1-9.7-0.9-14.4-2.6c2.2-3.9,3.4-7.5-2.2-8.8c5.6-8.3,4.3-17.2,4.4-26.7
			c1.9,1,4.1,2.7,6.6,1.3c0.8,3.4,1.4,7.1,6,7.6c0,0.5,0,0.9,0,1.4c-0.5,1.6-2.4,3.3,0.2,4.7C101.6,193.1,100.6,200.7,103.7,208.5z"
			/>
		<path fill="#090806" d="M429.5,155.6c0.5-0.8,0.9-1.7,1.5-2.5c5.2-7.7,5.1-7.7,11.3-1.3c4.4,4.6,9,8.9,13.4,13.5
			c1.7,1.7,4.7,3.2,2.5,6.6c-2.8,1.7-5.7,3.5-8.5,5.2c-2.1-2.6-2.4-6.2-5.3-8.6c-4-3.4-7.4-7.4-11.1-11.2
			C432.3,155.7,431,155.5,429.5,155.6z"/>
		<path fill="#CBB07E" d="M271,83.6c2.7-3.7,5.8-7.2,5.9-12.2c1.4-1.4,2.8-2.8,4.1-4.3c1.8,0.8,3.6,2.2,5.1-0.5
			c1.4,2,2.7,3.9,4.1,5.9c-2.7,3.1-2.5,7-2.6,10.7c-1.2,3.2-1.2,6.7-3.3,9.6c-3-4.6-6.4-3.3-9.8-0.5c-2.2,1.8-4.3,4.7-7.1,0.8
			C268.6,89.9,269.8,86.8,271,83.6z"/>
		<path fill="#CBB07E" d="M356.7,191.2c1.8-0.1,3.6-0.1,5.4-0.2c-2.8,3.5-3.2,7.4-2.2,11.6c-3.6,0.3-6,4.2-10.1,3.2
			c0-3.7-1.9-3.4-4-1.7c-5.1,3.9-10.1,7.9-15.1,11.8c-1.3,0.1-2.2,0.9-2.8,2c-2.5,1.2-4.3,3.1-5.3,5.8c-0.7,1.9,0.2,5.2-2.4,5.6
			c-3.4,0.5-2.1-3.1-2.9-4.8c-0.9-1.9-2.3-1.3-3.7-0.9c-0.4-4.5,1.1-6.4,6.1-7.7c8.4-2.1,15.1-8,21.2-14.3c2.4,0.2,4.9-1.9,7.3,0
			c2.2,1.7,2.4-0.4,3.1-1.6C354.7,198.1,354.8,194.1,356.7,191.2z"/>
		<path fill="#100E0D" d="M116.5,160.2c0.4-2.4,1.3-4.6,3.7-5.8c0,3,0.5,5.4,3.9,2.3c2.5-2.3,4.8-4.9,7.3-7.1c3.1-2.7,0.3-4.1-1-5.8
			c1.6-2.3,3.3-4.6,5.1-7.1c4.1,3.6,6.3,8.3,8.3,13c-1.1,0.9-2.2,1.9-3.3,2.8c-5.1,3.7-10,7.7-13,13.5c-1.2,0.1-2.3,0.3-3.5,0.4
			C121.6,164.4,119,162.3,116.5,160.2z"/>
		<path fill="#100E0D" d="M425.7,192.5c-6.8,5.5-15.1,7.4-23.2,9.9c-0.3-0.8-0.6-1.7-0.8-2.5c5.1-4.9,7.5-12.1,14-15.8
			c1.8,0,3.6,0,5.5,0c1.4,1.4,2.9,2.8,4.3,4.2C425.6,189.7,425.7,191.1,425.7,192.5z"/>
		<path fill="#573269" d="M174.7,159c-8.9-5.8-16.5-13.2-23.8-20.8c2.8-0.6,5.5-1.2,8.3-1.8c6.1,3.8,12.3,7.7,18.4,11.5
			c0.1,2.2,0.3,4.3,0.4,6.5c-0.1,0.5-0.1,0.9,0.1,1.4C175.9,155.6,174.9,156.9,174.7,159z M166.7,146.7c1.4,2.4,2.9,4.5,6.6,3.5
			C171.8,147.1,169.7,146.2,166.7,146.7z M163.9,143.5c-0.4-0.2-0.8-0.4-1.2-0.5c-0.2,0.4-0.6,0.9-0.5,1.2c0.1,0.3,0.7,0.4,1.1,0.6
			C163.6,144.3,163.7,143.9,163.9,143.5z M158.8,139.9c-0.2,0.1-0.4,0.1-0.6,0.2c0,0.2,0.1,0.5,0.2,0.5c0.2,0,0.4-0.1,0.6-0.1
			C158.9,140.2,158.9,140.1,158.8,139.9z"/>
		<path fill="#EFEEEF" d="M140.9,34.7c-0.4,5.3,0.6,10.2,3,14.9c2.9,5.7-0.2,13.7-6.2,16.3c-1.4,0.6-2.2,0.5-3-0.8
			c-3.1-4.9-5-11-0.5-14.8c5.6-4.6,5-9.9,5.1-15.6C139.9,34.7,140.4,34.7,140.9,34.7z"/>
		<path fill="#BCA46D" d="M180.1,188.1c1.8,1.8,3.5,3.7,5.3,5.5c-2.5,3.1-5.7,1.8-8.8,1.3c-5-0.8-10.1-1.5-15.1-2.2
			c0,0,0.1-0.2,0.1-0.2c-1.9-2.7-3.9-5.4-4.8-8.7c3.2-0.2,4.7-2,5-5.1C167.6,182.5,172.7,187.6,180.1,188.1z"/>
		<path fill="#CBB07E" d="M391.6,223.5c2.2,3.5,1.5,6.5-0.7,9.9c-2.2,3.3-4.7,6.7-5.3,10.9c-1.6-0.2-2-1.5-2.8-2.7
			c-1.7-2.6-2.4-0.9-2.7,1c-0.9,0.2-2.2,0-2.8,0.6c-2.1,1.9-4.7,4.3-6.6,1.4c-1.5-2.3,2.3-3.7,4-5.2c3.6-3.2,6.7-6.5,7.6-11.4
			c2.6-0.8,5.2-1.7,6.6-4.4C389.7,223.6,390.7,223.6,391.6,223.5z"/>
		<path fill="#B49768" d="M349.8,205.9c4,1.1,6.5-2.8,10.1-3.2c1.8,4.9,4.1,9.8,0.7,14.9c-1.2,0-2.3,0.1-3.5,0.1
			c-5.2-0.3-5.6,3.9-6.8,7.3c-1.2,0.8-1.8,2.4-4.5,1.9C349,220.2,348.9,212.9,349.8,205.9z"/>
		<path fill="#EFEEEF" d="M449.6,176.9c2.8-1.7,5.7-3.5,8.5-5.2c0.6,0.6,1.2,1.2,1.8,1.8c-1.7,2.3-3.3,4.6-5,6.9c-4.5,4-9,8-13.5,12
			c-4.1,0.7-8-0.4-11.8-1.5c0.8-0.8,1.5-1.5,2.3-2.3c0,0-0.1,0-0.1,0c5.5-2.8,11-5.3,14.9-10.4C447.9,178.1,449.2,178.4,449.6,176.9
			z"/>
		<path fill="#100E0D" d="M175.1,102.5c1.9,4.5,1.7,8.4,1.2,12.2c-0.4,3-1.2,6.3-4.9,6.4c-3.8,0.1-6.3-2.8-7.8-5.9
			c-1.6-3.2,1.1-4.9,3.3-6.5C169.4,106.8,171.9,104.9,175.1,102.5z"/>
		<path fill="#573269" d="M87.9,346.3c5.3-0.7,8,1.2,7.2,6.9c-0.6,4.3,1,8.1,3.1,11.8C86.9,364.7,84.8,360.9,87.9,346.3z"/>
		<path fill="#100E0D" d="M411.8,134.3c1.6-3.1,3.2-8.7,6-7.9c3.6,1.1,7.2,5.3,8.9,9c1.5,3.3-2.4,5.5-5.3,7.1
			c-1.1-0.3-1.7,0.1-1.7,1.2c0,0,0,0,0,0c-0.5-0.1-0.9,0-1.4,0.1c-0.5-3.4-3.6-4.3-5.8-6.1C412.3,136.7,412.1,135.5,411.8,134.3z"/>
		<path fill="#B49768" d="M206.7,224.8c0.7-2.3,1.4-4.6,0.9-7.1c0-2.7,0-5.3,0-8c4.9-2.5,6.6-6.1,4.5-11.4c0-1.4,0.1-2.8,0.1-4.1
			c1.4-0.1,2.8-0.1,4.2-0.2c1.2,0.4,1.6,1.3,1.8,2.4c-4.1,4.1-1.1,9.3-2.1,13.8c-1.7,1.1-1.4,2.8-1.5,4.5c-2,3.4-1.7,8.1-5.8,10.4
			C208.1,225.1,207.4,224.9,206.7,224.8z"/>
		<path fill="#E6E5E1" d="M116.5,160.2c2.5,2.1,5.1,4.2,7.6,6.2c3.6,5.4,10.7,7,14,12.8c-2.6,0.9-3.3,2.9-3.1,5.4c-0.3,0-0.6,0-1,0
			c0,0-0.1,0.1-0.1,0.1c-3.8-5.5-8.8-9.9-13.4-14.6c-1.1-2.2-2.5-4.2-4.7-5.5c-0.5-0.8-1-1.5-1.5-2.3
			C114.4,160.9,115,160.1,116.5,160.2z"/>
		<path fill="#100E0D" d="M180.1,188.1c-7.4-0.5-12.5-5.7-18.3-9.3c-1.7-2.2-3.4-4.4-5.1-6.6c1.6-0.5,3.1-1.1,4.7-1.6
			c0.7,1.2,1.8,1.4,3.1,1.1C169.8,177.1,177.9,179.8,180.1,188.1z"/>
		<path fill="#100E0D" d="M331.3,111.4c0.5-0.1,1-0.1,1.5-0.2c0.9,0.1,1.8,0.2,2.8,0.2c0.1,6.6,0.2,13.1,0.1,19.7
			c0,2.3,0.8,5.1-2.6,5.9c-0.7-0.7-1.4-1.3-2.1-2c-1-7.8-2-15.7-3.1-23.5C329,111.4,330.1,111.4,331.3,111.4z"/>
		<path fill="#100E0D" d="M391.8,192.6c4.8-9.3,14.2-13.5,22-19.3c0,1.9,0,3.9,0,5.8c-0.5,0.5-1,1-1.5,1.5c-5,3.7-10,7.4-15.1,11.1
			c-1.7,0.2-3.4,0.3-5.1,0.5L391.8,192.6z"/>
		<path fill="#B49768" d="M161.4,192.8c5,0.7,10.1,1.4,15.1,2.2c3.1,0.5,6.3,1.8,8.8-1.3c3.8,3.1,7.6,6.2,11.4,9.3
			c-10.9-1-21.6-3.2-31.9-6.9C163.2,195.4,161.9,194.7,161.4,192.8z"/>
		<path fill="#100E0D" d="M395.9,102.6c0.7,0.9,1.4,1.8,2.2,2.8c-3.2,6.5,0.4,7.5,5.8,7.2c3.9,4.6,0.1,6.6-3.1,8.1
			c-3.8,1.8-5.8-0.7-7-4.1c-1.6-4.7-0.1-9.2,0.9-13.7C395,102.7,395.5,102.7,395.9,102.6z"/>
		<path fill="#100E0D" d="M159.2,136.3c-2.8,0.6-5.5,1.2-8.3,1.8c-2-2.5-3.9-5-5.9-7.5c0.2-0.9,0.5-1.9,0.7-2.8
			c6.5-5.5,6.5-5.5,10,2.2C156.7,132.2,158,134.2,159.2,136.3z"/>
		<path fill="#573269" d="M161.4,170.6c-1.6,0.5-3.1,1.1-4.7,1.6c-2.3-1.2-4.5-2.4-6.8-3.6c1.8-6.1-1.8-9.7-6.1-12.9
			c0-2.1-1.3-2.9-3.2-3.2c1.1-0.9,2.2-1.9,3.3-2.8c3.2,3.6,6.3,7.1,9.5,10.7c1.3,2.3,2.9,4.2,5.2,5.5c0.5,1.5,1.5,2.6,3.1,3
			C161.6,169.5,161.5,170,161.4,170.6z"/>
		<path fill="#573269" d="M413.8,179.1c0-1.9,0-3.9,0-5.8c0.6-0.8,1.2-1.7,1.7-2.5c3.3-1.9,5.6-4.7,7.7-7.7c2.1-2.5,4.1-5,6.2-7.5
			c1.5,0,2.9,0.2,3.8,1.5c-3.2,1.4-3.8,4.5-4.6,7.4c-3,2.4-5.9,4.8-9,7.1c-2.9,2.2-2.6,4.1,0.2,6.1
			C418,178.8,416.1,179.6,413.8,179.1z"/>
		<path fill="#B49768" d="M286.1,66.7c-1.4,2.7-3.3,1.3-5.1,0.5c1.1-9.1-1.4-17.7-3.3-26.5C284.9,47.9,284.8,57.5,286.1,66.7z"/>
		<path fill="#3D2B1F" d="M390.3,158.7c-5,4.1-6.3-2.4-9.5-3.3c2.5-4,6.7-5.4,10.6-7.3c2.1,0.3,4.1,0.9,4.6,3.3
			C394.1,153.9,392.2,156.3,390.3,158.7z"/>
		<path fill="#EFEEEF" d="M419.3,23.3c0.7,3.7,0.7,6.3,2.5,8.6c1.8,2.3,1.2,5,0,7.6c-1.5,3.2-4.4,2.9-6.9,2.3
			c-3.7-0.9-1.2-3.6-0.7-5.2C415.4,32.5,417.2,28.5,419.3,23.3z"/>
		<path fill="#573269" d="M359.3,118.5c4.5-4.9,2.8-12.5,7.4-17.4c2.2-0.5,4.5-1,6.7-1.5c0,0,0.5-0.1,0.5-0.1c-3,7.3-7,14-12.8,19.5
			C360.5,118.8,359.9,118.7,359.3,118.5z"/>
		<path fill="#573269" d="M396,151.5c-0.6-2.5-2.5-3-4.6-3.3c6.4-5.2,15.1-7.1,20.5-13.9c0.2,1.2,0.5,2.4,0.7,3.6
			c-2.3,5.7-10.5,5.5-12.1,11.9C398.9,150.4,397.5,150.9,396,151.5z"/>
		<path fill="#B49768" d="M401.7,199.9c0.3,0.8,0.6,1.7,0.8,2.5c-7.6,0.5-15.4,0.5-23.1,2.7c5.1-3.6,8.5-8.3,12.4-12.6
			c0,0,0.3-0.3,0.3-0.3c-3.2,7.7,1,8.6,7.1,7.7C400.1,199.9,400.9,199.9,401.7,199.9z"/>
		<path fill="#3D2B1F" d="M178,154.3c-0.1-2.2-0.3-4.3-0.4-6.5c7.2,3.1,14.2,6.3,18.3,13.5c-0.1,0.7-0.2,1.5-0.3,2.2
			c-1-0.2-2-0.4-3-0.5C188.1,159.5,184.6,154.2,178,154.3z"/>
		<path fill="#3D2B1F" d="M464.1,363.9c4.1-1.5,4.1-1.5,4.6,4.8c0.9,2.9-3,3.6-2.9,6.3c0,2,1.5,6-2.4,5.3c-2.9-0.5-0.9-4.2-1-6.5
			C462.2,370.4,465.1,367.5,464.1,363.9z"/>
		<path fill="#573269" d="M418.3,143.9c0.5-0.1,0.9-0.2,1.4-0.1c-5.3,7-12,12.2-20.5,15c-1-2.4,0.1-4.2,1.6-5.8
			C408.1,152.7,411.4,144.8,418.3,143.9z"/>
		<path fill="#B49768" d="M211.8,145c3.9,1.4,6.1,4.9,8.9,7.6c-0.4,4,0.8,8.2-1.5,11.9c-4-5.9-4.7-13.4-9-19.1
			C210.7,145.2,211.2,145.1,211.8,145z"/>
		<path fill="#100E0D" d="M287.6,83.3c0.1-3.8-0.1-7.6,2.6-10.7c1.9,0.3,3.8,0.6,5.7,0.9c2.4,3.7,1.3,7.1-1.3,10.2
			C292.2,83.5,289.9,83.4,287.6,83.3z"/>
		<path fill="#CBB07E" d="M294.6,83.6c2.6-3.1,3.6-6.4,1.3-10.2c2.4-6,4.2-3.3,6,0.4c-0.8,3.5,1.4,6.3,2.1,9.4
			c-2.8,1.6-5.8,2-8.9,1.6C294.9,84.4,294.7,84,294.6,83.6z"/>
		<path fill="#573269" d="M441.5,192.4c4.5-4,9-8,13.5-12c0.1,1.1,0.2,2.1,0.3,3.2c-0.5,1-1,2-1.5,3c-6.9,2.4-9.5,9.4-14.7,13.6
			c-0.3,0-0.6,0-0.9,0c-0.3-0.8-0.6-1.6-0.9-2.4C437.2,194.9,440.3,194.4,441.5,192.4z"/>
		<path fill="#573269" d="M193.7,96.9c1.1,0,2.2,0,3.3-0.1c3.7,7.7,10.1,13.7,13.2,21.7c-0.1,0.7-0.2,1.4-0.3,2.1
			C203,113.8,198.8,105.1,193.7,96.9z"/>
		<path fill="#3D2B1F" d="M130.5,143.8c1.3,1.8,4.1,3.1,1,5.8c-2.6,2.2-4.8,4.9-7.3,7.1c-3.5,3.1-3.9,0.7-3.9-2.3
			C123.2,150.5,126.5,146.9,130.5,143.8z"/>
		<path fill="#573269" d="M335.5,111.4c-0.9-0.1-1.8-0.1-2.8-0.2c2-2.2,1.8-7.5,5.7-6.7c4.8,1.1,9.9,3,12.9,7.7
			c0.6,0.9-0.4,1.8-1.3,2.3C345.5,112.4,342,105,335.5,111.4z"/>
		<path fill="#B49768" d="M195.6,163.6c0.1-0.7,0.2-1.5,0.3-2.2c3.2,1.3,5,3.8,5.8,7.1c-0.6,0.2-1.2,0.3-1.7,0.5
			c-0.2-0.1-0.4-0.2-0.6-0.3c0.2,0.1,0.4,0.2,0.6,0.3c0.1,1.4,0.2,2.8,0.2,4.1c-5.8-2.4-11.5-4.8-15.6-9.8c2.2,0.4,4.3,0.9,6.5,1.3
			C193.2,166.8,194.7,166.4,195.6,163.6z"/>
		<path fill="#CBB07E" d="M400.8,153c-1.5,1.7-2.6,3.5-1.6,5.8c0,0,0.1-0.1,0.1-0.1c-1.9-0.5-2.5,0.9-3.1,2.2
			c-1.7,1.7-3.7,2.8-6,3.2c0-1.8,0.1-3.6,0.1-5.4c1.9-2.4,3.8-4.8,5.7-7.2c1.5-0.6,2.9-1.1,4.4-1.7
			C400.6,150.9,400.7,151.9,400.8,153z"/>
		<path fill="#B49768" d="M211.7,176.6c0,3.3,3.4,4.5,4.5,7.1c-2,1.6-1.1,4-1.6,6.1c-1-1-2.1-1.9-3.1-2.9c-1.9-3-3.8-5.9-5.7-8.9
			c0.1-2.1,0.1-4.3,0.2-6.4C207.9,173.2,209.8,174.9,211.7,176.6z"/>
		<path fill="#EFEEEF" d="M157.1,81.9c-5.7-1.6-10.8-4.3-14.8-8.9c0,0,0,0,0,0c1.6,0.4,3.8,1.8,4.8,1.2
			C157,68.6,155.4,77.3,157.1,81.9L157.1,81.9z"/>
		<path fill="#100E0D" d="M210,120.7c0.1-0.7,0.2-1.4,0.3-2.1c4.1,1.1,5-4.8,8.9-4.2c-2.8,3.6,0.5,11-7.2,11.6
			C211.3,124.3,210.6,122.5,210,120.7z"/>
		<path fill="#3D2B1F" d="M114.3,162.3c0.5,0.8,1,1.5,1.5,2.3c-5.3,4.4-4.5,13.3-11.8,16.2c0-0.5,0-0.9,0-1.4c0-1.4,0.1-2.8,0.1-4.2
			c4.4-2.1,6.2-5.6,5.7-10.3C111.3,164,112.8,163.1,114.3,162.3z"/>
		<path fill="#CBB07E" d="M191,164.7c-2.2-0.4-4.3-0.9-6.5-1.3c0,0-0.1-0.2-0.1-0.2c-1.5-3-3.4-5.7-6.4-7.5
			c-0.2-0.4-0.3-0.9-0.1-1.4c6.6-0.1,10.1,5.2,14.6,8.7C192.1,163.6,191.6,164.1,191,164.7z"/>
		<path fill="#100E0D" d="M359.3,118.5c0.6,0.2,1.2,0.3,1.9,0.5c-0.6,1.3-1.2,2.6-1.7,3.9c-0.6,1.4-1.3,2.8-2.8,3
			c-2.1,0.2-3-1.5-3.3-3.2c-0.4-2.4-3.2-3.8-2.7-6.5C353.6,116.5,355.7,120.4,359.3,118.5z"/>
		<path fill="#090806" d="M104.1,175.2c0,1.4-0.1,2.8-0.1,4.2c-4.6-0.5-5.2-4.1-6-7.6c-0.1-1.9-0.3-3.7-0.4-5.6c1.5,0,3-0.1,4.5-0.1
			c1.2,1.7-0.5,4.2,1.8,5.5C103.9,172.8,104,174,104.1,175.2z"/>
		<path fill="#3D2B1F" d="M481.5,192.7c-1.6-1-3.2-2.8-4.9-2.9c-5.6-0.4-4.8-3.6-3.7-7.2C477.9,184.1,481,187.3,481.5,192.7z"/>
		<path fill="#EFEEEF" d="M423.3,163.1c-2.2,3-4.5,5.8-7.7,7.7c0.1-2.2-0.4-4.5,0.3-6.5C417.5,160.1,419.9,157.9,423.3,163.1z"/>
		<path fill="#100E0D" d="M178.1,155.7c2.9,1.8,4.8,4.5,6.4,7.5c-4.4,1.3-7.2-1.3-9.8-4.2C174.9,156.9,175.9,155.6,178.1,155.7z"/>
		<path fill="#E6E5E1" d="M427.8,47.3c1.3,1.4,3.5,2.1,3.2,4c-0.3,2.3-2.2,3.8-4.6,3.9c-1.4,0.1-2.2-1.1-1.9-2.5
			C425,50.6,425.8,48.6,427.8,47.3z"/>
		<path fill="#100E0D" d="M104.1,175.2c-0.1-1.2-0.2-2.4-0.3-3.5c2.1-2.2,0.5-7.6,6-6.8C110.3,169.6,108.5,173.1,104.1,175.2z"/>
		<path fill="#573269" d="M403.9,112.5c-5.3,0.3-8.9-0.8-5.8-7.2C400.5,107.4,403.6,108.8,403.9,112.5z"/>
		<path fill="#B49768" d="M219.2,164.6c1.4,1.6,2.3,3.6-0.8,3.8c-2.7,0.1-2.7,2.1-3.7,3.5c-1.5-1.9-3-3.7-2.3-6.4
			C214.6,164.2,217.5,168.7,219.2,164.6z"/>
		<path fill="#100E0D" d="M102.5,360.8c1.2-2-2.6-6.3,2.8-6.2c0.8,0,1.9,1.6,2.2,2.6c0.6,2.7-2.2,2.6-3.6,3.7
			C103.4,360.9,103,360.8,102.5,360.8z"/>
		<path fill="#BCA46D" d="M206,171.5c-0.1,2.1-0.1,4.3-0.2,6.4c-1.9-1.6-3.8-3.2-5.6-4.8c-0.1-1.4-0.2-2.8-0.2-4.1c0,0,0,0,0,0
			c0.6-0.2,1.2-0.3,1.7-0.5c0,0-0.1,0.2-0.1,0.2c0.6,1.8,2,1.7,3.5,1.6C205.4,170.7,205.7,171.1,206,171.5z"/>
		<path fill="#B49768" d="M388.8,223.7c-1.4,2.7-3.9,3.6-6.6,4.4c-0.8-0.5-1.5-1-2.3-1.5c0-0.5,0-1,0-1.5
			C382.7,223,385.7,223.4,388.8,223.7z"/>
		<path fill="#EFEEEF" d="M162.7,41.6c2.5,3.6,1.9,5.7-0.5,7.2c-0.6,0.4-2.5,0.1-2.5-0.2C159.1,46,162,44.9,162.7,41.6z"/>
		<path fill="#100E0D" d="M102,166.1c-1.5,0-3,0.1-4.5,0.1c-1.9-2.2-1.4-4.1,1.3-4.7C102.7,160.7,101.8,163.9,102,166.1z"/>
		<path fill="#E6E5E1" d="M411,53.9c-3.6-1.4-5.6-3.4-3-7.4C410.7,48.3,411.3,50.9,411,53.9z"/>
		<path fill="#CBB07E" d="M211.5,186.8c1,1,2.1,1.9,3.1,2.9c0.6,1.5,1.2,2.9,1.8,4.4c-1.4,0.1-2.8,0.1-4.2,0.2
			C211.2,191.8,211.4,189.3,211.5,186.8z"/>
		<path fill="#573269" d="M431.9,188.6c-0.8,0.8-1.5,1.5-2.3,2.3c-1.3,0.6-2.6,1.1-4,1.7c-0.1-1.4-0.1-2.8-0.2-4.2
			C427.7,188.4,429.8,188.5,431.9,188.6z"/>
		<path fill="#100E0D" d="M344.4,529.2c-1.5-0.2-2.8-0.8-2.4-2.7c0.1-0.6,0.8-1.2,1.3-1.4c1.8-0.5,2.5,0.7,2.8,2.3
			C345.5,527.9,344.9,528.6,344.4,529.2z"/>
		<path fill="#EFEEEF" d="M211.8,145c-0.5,0.1-1.1,0.3-1.6,0.4c-1.7-1.1-1.3-2.8-1.4-4.4C211.5,141,211.8,142.8,211.8,145z"/>
		<path fill="#573269" d="M395.9,102.6c-0.5,0.1-0.9,0.2-1.4,0.3c-0.9-0.3-1.1-1.2-0.4-1.6C395.2,100.7,396,101.3,395.9,102.6z"/>
		<path fill="#573269" d="M396.2,160.9c0.6-1.3,1.1-2.8,3.1-2.2C398.9,160.4,397.5,160.6,396.2,160.9z"/>
		<path fill="#B49768" d="M205.1,170.3c-1.5,0.1-2.9,0.2-3.5-1.6C203.3,168,204.1,169.3,205.1,170.3z"/>
		<path fill="#EFEEEF" d="M158.2,43.8c-0.2,0.1-0.5,0.2-0.5,0.1c-0.1-0.2-0.1-0.4-0.2-0.6c0.2-0.1,0.5-0.2,0.5-0.1
			C158.1,43.4,158.2,43.6,158.2,43.8z"/>
		<path fill="#EFEEEF" d="M157.1,81.9c0.2,0.1,0.4,0.2,0.6,0.4C157.5,82.2,157.3,82,157.1,81.9C157.1,81.9,157.1,81.9,157.1,81.9z"
			/>
		<path fill="#EFEEEF" d="M140.9,71.6c0.5,0.5,1,1,1.5,1.5c0,0,0,0,0,0C141.8,72.6,141.3,72.1,140.9,71.6L140.9,71.6z"/>
		<path fill="#EFEEEF" d="M140.9,71.6c-0.5-0.5-1-1-1.5-1.5l0,0C139.9,70.6,140.4,71.1,140.9,71.6C140.9,71.6,140.9,71.6,140.9,71.6
			z"/>
		<path fill="#573269" d="M419.7,143.8c0-1.1,0.6-1.5,1.7-1.2C420.9,142.9,420.3,143.4,419.7,143.8z"/>
		<path fill="#EFEEEF" d="M139.4,70.1c-0.2-0.1-0.4-0.2-0.6-0.4C139,69.9,139.2,70,139.4,70.1C139.4,70.1,139.4,70.1,139.4,70.1z"/>
		<path fill="#090806" d="M388.1,377.8c-8.1,2.5-16.8,3.4-23.2,9.8c-2.9,2.8-6.9,4.8-5.6,10c0.4,1.8-0.2,3.6-2.7,3.3
			c-2.7-0.4-1.7-2.4-1.4-4c3.1-21.2-15.7-42.1-37.2-41.6c-3.3,0.1-4.4,1.4-4.2,4.4c0.2,2.4,0.2,4.9,0.3,7.3c-2.3,1.8-2.3,6-6.4,5.8
			c0-1.5,0-3.1-0.1-4.6c1.8-6.9,2.5-13.9,1.4-20.9c-1.8-10.1-0.5-19.4,9.3-27.8c-11,2.7-15.1,15-11.7,28.1
			c-1.7,10.7-4.8,13.4-15.3,13.2c-4.1-0.1-8.3-0.1-12.4,0c-14.2,0.3-17.4-2.7-18.3-17.2c3-11.9-0.5-20.8-9.5-24.2
			c-1.3-1.1-1-2.6-1.1-4.1c9.7,3.2,18-1.5,26.6-4.6c6.1-2.2,11.7-2.7,17.7,0.2c3.7,1.8,7.7,3.3,11.7,4.3c6.1,1.5,11.8,0.4,16.3-4.5
			c-0.9-3.1,2.3-6.1,0.1-9.2c0.1-0.8,0.3-1.6,0.4-2.4c8,4.6,15.9,9.1,25.6,8.9c1.1,4.1-2.5,4.2-4.3,3.9c-11.6-1.8-17,7.4-24.2,13.3
			c-3.2,2.7-5.2,6.5-6.4,10.6c-0.5,1.8-1.3,4.2,0.1,5.7c2,2,4-0.1,5.9-1c0.9-0.1,1.9-0.1,2.8-0.2c5.5,1.7,11.7,1.4,16.1,6.2
			c7.6,8.5,17,5.3,26.3,3.7c-9.7-2.9-20.1-3.9-26.5-13c0.4-4.6,4-3.3,5.7-2.1c9,6.4,15.8,1.2,22.8-3.7c10.4-3.2,21.1-5.6,31.6-2.3
			c7.4,2.3,10.4-1.3,14.4-6c-4.7-2.2-8.6,2.5-12.1,0.3c-12.5-8.1-24.8-3.9-37.2-0.1c-6.7,1.1-13.4,3.1-20.2,0.4
			c-2-0.8-3.9-1.1-2.6-3.8c4.2-2.2,8.4-4.5,12.6-6.7c15.5-5.3,32.7-5,47.7-14.6c-4.8-2.9-8.3,1.5-12.1-0.1c-1.3-3,2.7-3.2,2.9-5.4
			c7.7-6.7,15.8-12.3,26.5-12.7c3-0.1,5.6-1.8,7.6-4.2c3-3.6,6.9-4.4,11.3-3.5c0.2,1.4,0.4,2.7,0.6,4.1c-0.1,13.8-0.4,27.7-0.2,41.5
			c0.1,5.3-0.4,10.1-4,14.3C417.6,346.7,403,362.4,388.1,377.8z M284.4,355.2c1,0,1.7,0.1,2.5,0c2.3-0.2,4.9,1,6.7-1.3
			c0.3-0.4-0.4-1.7-0.9-2.4c-1.9-2.6-4.4-0.9-6.6-0.7c-0.7,0.1-1.2,0.8-1.9,1c-3,0.7-8.5-4.4-8.7,1.5
			C275.3,357.1,281.5,354.1,284.4,355.2z M300.2,317.6c-3.7,1.5-1.9,5.2-2.2,7.9c-0.2,1.4-0.8,4.2,1.9,3.4c3.1-1,4.8-4,5.1-7.3
			C305.3,318.5,302.7,318.3,300.2,317.6z M271.7,330.8c-1.9-5.3,1.6-9.9-3.2-12.6c-1.5-0.8-4.8,0.4-4.8,2.1
			C263.5,324.8,266.7,327.4,271.7,330.8z M275.1,316.2c5.2,3.3,10.2,1.2,14.8,2c1.3,0.2,3.2,0.5,3.3-1.6c0-1.8-1.7-2.4-3-2.6
			C285.1,313.2,280,312.4,275.1,316.2z M272.3,342c-4.4,2.8-7.6,4.3-6,8.6c0.6,1.7,2.3,3.4,3.8,2.5
			C274.2,350.8,271.6,346.9,272.3,342z M295.5,346.5c1.5,1.9-1.5,6.2,2.7,6.9c1.9,0.3,2.5-2.5,2.4-4.5c-0.1-2.5-0.6-5.1-3.4-5.7
			C295.1,342.8,295.5,344.8,295.5,346.5z"/>
		<path fill="#683687" d="M178.2,376.8c-10.9-0.4-21,2.3-30.3,8.1c-10.1-8.4-19.2-18-28.3-27.5c-1.9-1.9-3.3-4.5-5.5-5.8
			c-13.3-8.1-12.8-20.4-10.6-33.4c4.5-0.5,3.6-3.9,3.6-6.7c0-8.8-0.5-17.6,2.7-26.1c2.1-5.5,2.2-10.9-1.3-16c2,0.4,4,0.8,6,1.2
			l0.2,0.2c0.4,0.4,0.9,0.9,1.3,1.3c4.3,4.1,9.5,6.5,15.1,8.3c-0.1,14,0.2,28-0.4,41.9c-0.2,4.8,3.3,7.4,4.5,11.2
			c-0.6,4.9,1.9,8.5,5.4,11.4c9.4,7.7,17.3,16.9,25.6,25.7c2.5,2.6,5,5.4,9.2,2.9C176.7,374.2,177.8,375.2,178.2,376.8z"/>
		<path fill="#996FB5" d="M295.5,406.3c0.9-2.1-0.1-4.9,2.4-7.4c2,6,3.2,11.9,9.6,14c-0.3,9.8,2.8,19.8-5,28.8
			c-3.5,4.1,1.2,8.2,4.7,10.9c4.5,3.4,5-1,6.4-3.8c1.6-3.1,3-1.5,4,0.5c0.8,1.7,0.2,4,2.4,5.1c-0.6,1.3-3.2,2.7,0,4
			c-0.1,0.9-0.3,1.9-0.4,2.8c-2.3,2.5,1,4.8,0.2,7.2c-1.9,1-4.4-0.5-6,1.6c-0.5,0-1.1,0-1.6,0l0,0c-1.7-5.4-5.6-6.8-10.7-6
			c-5.5,1.1-3.9,5.5-4.1,9c0.5,5.9,1.1,11.8,1.6,17.7c0,1.5-0.1,3-0.1,4.4c-2,2-4,4-6.1,6c-5.2,1.5-1.8,5.6-2.6,8.4
			c-1.7-1.1-3.3-0.9-4.9,0.3c-7.3,0.5-11.3-3.2-13.1-10c-2.4-9.3-3.2-10.1-11.7-7.2c-3.7,1.3-5.4-0.9-7.8-2.2
			c0.5-2.4-1.3-2.7-2.9-3.3c0-0.7,0.1-1.4,0.1-2.1l0.4-0.4c1.4-0.1,2.9-0.3,4.3-0.4c11.6,1.4,15.9-2.1,12.8-12.4
			c-3-9.8,1.7-16.1,6.6-23.9c2.6,6.1-1.1,12.7,2.7,17c5,5.6,4.4,10.1,0.1,15.4c-2.4,3-2.6,6.6,1,9.1c3.6,2.5,6.9,1.5,9.9-1.5
			c1.9-1.9,2.1-4.2,2.5-6.7c1.5-9.5-3-17.2-7.1-25c-2.6-4.9-2.6-9.4,1.5-14.2c0.9,1.7,1.5,2.7,2,3.8c1,2.1,0.8,6.1,3.5,5.5
			c3.2-0.6,3.1-4.5,3-7.5c-0.1-1-0.3-2-0.7-2.8c-2-4.2-1-7.6,2.4-10.5c5.9-5,5.2-11.2,2.5-17.4C296.2,411,295.7,408.7,295.5,406.3z"
			/>
		<path fill="#683687" d="M295.5,406.3c0.2,2.4,0.7,4.7,1.7,7c2.8,6.1,3.4,12.3-2.5,17.4c-3.4,2.9-4.4,6.3-2.4,10.5
			c0.4,0.9,0.6,1.9,0.7,2.8c0.2,3,0.2,6.8-3,7.5c-2.7,0.5-2.6-3.4-3.5-5.5c-0.5-1.1-1.1-2.1-2-3.8c-4.1,4.8-4.1,9.3-1.5,14.2
			c4.1,7.8,8.6,15.5,7.1,25c-0.4,2.5-0.5,4.8-2.5,6.7c-3,2.9-6.3,4-9.9,1.5c-3.6-2.5-3.4-6.1-1-9.1c4.3-5.4,4.9-9.8-0.1-15.4
			c-3.8-4.3-0.1-10.9-2.7-17c-5,7.7-9.6,14.1-6.6,23.9c3.2,10.3-1.1,13.9-12.8,12.4c-0.4-2.3-1.8-3.6-4.1-3.9
			c-0.4-1.8-0.3-3.8-2.2-4.8c0.1-2.1,0.1-4.1,0.2-6.2c0.6-1.2,1.3-2.5,1.9-3.7c4.6-6,9.5-11.7,11.8-19.1c1.1-3.5,1.5-6.6-2.1-9
			c-1.5-4.1-2.7-8.3-5.5-11.8c-0.2-5.1,0.7-10,2.8-14.7c1.7,1.1,3.6,1.7,5.7,1.1c-1.4,10.6,3.9,17,13.2,21c2.6,1.1,4.2,1.1,6.5-0.9
			c10-8.6,10.7-10.8,5.5-24C290.8,407.9,293.4,407.9,295.5,406.3z"/>
		<path fill="#EFEEEF" d="M307.7,372.8c4.1,0.2,4.1-4.1,6.4-5.8c1.3-0.8,2.3-2.2,4.1-1.9c5.3,3.6,7.7,8.6,7.3,14.9
			c-0.2,3.1,0.4,5.8,3,7.8c0,1.3,0,2.6,0,3.9c-3.9,0.2-3.2,2.9-3,5.4c-5.4-2.3-9.4-6.1-11.9-11.4c-0.8-1.7-2.3-3.9-4.4-2.6
			c-2.5,1.5-0.3,3.4,0.6,5c1.4,2.4,2.9,4.8,5.2,8.5c-5.3-1.1-7.3-3.8-9.3-6.4c-1.9-2.5-2.4-6.4-6.8-7.1c-0.9,4.4,3.9,5.9,3.4,10
			c-6.6-0.8-10.6-5.4-13.6-10.6c-2.7-4.9-4.4-7.6-8.4-0.8c-2.6,4.5-7.7,6.7-11.9,9.5c-2.8,1.9-5.3,1.7-4-2.9
			c0.3-0.7,1.3-1.5,0.3-2.2c-1.1-0.8-1.3,0.5-1.7,1.2c-4.1,2.7-6.2,8.2-13,8.6c1.9-4.6,6.5-7.6,6.1-14.2c-7.7,6.3-11.7,18-24,14.4
			c0.4-3.2,3.1-3.1,4.7-4.2c1.4-0.9,3.1-1.3,2.9-3.6c-0.9-8.7,2.4-16.1,7.3-22.9c1.9-0.5,3.8-0.8,5.8,0c1.6,6.9,6,10,12.8,8.8
			c12.3-2.1,24.6-2.7,36.9,0.2C304.3,374.8,306.6,375.2,307.7,372.8z M241.9,386c-0.2,0.2-0.5,0.3-0.4,0.5c0.1,0.3,0.3,0.7,0.4,1
			c0.2-0.2,0.5-0.3,0.4-0.5C242.3,386.6,242.1,386.3,241.9,386z"/>
		<path fill="#938F85" d="M407.5,415.7c-6.3,0.2-11.2,3.6-15.4,7.8c-7.3,7-13.7,14.8-18,24c-1.8,3.9-3.9,4.8-7.3,2.6
			c-3-1.9-5.9-4.2-3-8.3c7.8-10.8,15.8-21.3,26.9-29c10.9-7.5,24.8-6.5,33,2.3c6.2,6.6,6.8,16.3,1,22.7c-3.3,3.7-7.5,7.6-12.7,5.3
			c-5.7-2.5-10.1-6.8-10.3-14c-0.1-5.6,3.5-7.1,8-7.5c1.7-0.1,3.4,0.9,4.1,2.6c0.6,1.5-0.8,2.1-1.7,2.8c-1.5,1.4-4.4,2.3-3.2,5
			c0.8,1.8,3.3,2,5.3,2.1c2.9,0.1,4.4-1.7,5.3-4.2C422.1,422.4,416.2,415.5,407.5,415.7z"/>
		<path fill="#E6E5E1" d="M180.9,294.2c0.1-0.4,0.1-0.7-0.1-1.1c-1.5-3.5-3.1-7-4.6-10.5c-3.8-8.7-7.5-17.5-11.6-26.1
			c-2.3-4.8-6.8-7.8-11.4-10.1c-3.3-1.7-7.1-1.9-10.5,0.6c-1.2,0.9-2.3,2.4-1.7,3.8c0.8,1.9,2.5,0.8,3.7,0.2c2.2-1,4.3-1.5,5.9,0.7
			c1.1,1.6,2,3.4,1.1,5.5c-1.2,2.7-3.5,4-6.2,4.7c-3,0.7-5.4-0.4-7.2-2.6c-4.9-6-1.4-16.5,6.2-18.5c5.2-1.4,9.6,0.6,13.8,3.4
			c11.3,7.5,14.6,19.9,19.3,31.4c2.5,6.1,5.6,11.4,11.9,14.3c4.3,8.3,12.2,11.5,20.5,13.2c3.4,0.7,7.9,1.6,10.7-2.4
			c1.7,0.3,3.1,1.3,4.6,2c3.6,1.7,15-2.8,16.6-6.5c2.4-5.4-5.2-2.4-5.2-6c0.7-2.2,2.5-1.8,4.1-1.6c1.4,1.3,1.8,3.9,4.8,2.7
			c2.8-1.1,3.3-3,2.4-5.6c1.5,0.1,2.7-0.2,3.5-1.6c2.4-0.2,4.5-2.5,7.2-1.4c0,0.5,0,1,0.2,1.4c-2.5,1.7-4.1,4-4.4,7
			c-3.2,0.8-6.3,1.7-6.5,5.8c-0.9,0.7-1.7,1.3-2.6,2c-1.4,1-2.9,2-4.3,3c-1-0.2-1.4,0.3-1.5,1.2c-4.4,1.5-8.8,3-13.3,4.5
			c-1.1,0.4-2.3,0.8-3.4,1.2c-9,0.7-17.8-0.3-26.1-4.3c-4.5-2.2-7.4-7-12.8-7.7C183.2,296,182.6,294.5,180.9,294.2z"/>
		<path fill="#938F85" d="M140.5,426.9c0.1-11,10.3-19.9,21.8-19.1c10.2,0.7,17.9,6.2,24.8,13.1c3.7,3.7,0,5.8-1.8,7.9
			c-2.6,3-4.7,1.3-6.2-1.5c-3.1-5.7-8.3-9-14.2-11.1c-6-2.1-11.6-1.2-15.7,4.2c-3.6,4.7-0.9,12.3,4.7,13.6c1.6,0.4,3-0.1,3.9-1.3
			c1.1-1.4,0.2-2.7-0.5-4c-0.8-1.7-4.3-2.7-1.9-5.4c1.6-1.7,3.8-2.3,6.1-1.4c2.6,1,4.8,2.1,5.2,5.5c0.8,7.8-4.7,15.1-12.2,15.7
			C146.3,443.8,140.4,436.8,140.5,426.9z"/>
		<path fill="#BCA46D" d="M184.2,297.1c5.4,0.7,8.2,5.6,12.8,7.7c8.3,4,17,5,26.1,4.3c0.6,1.6,1.9,1.9,3.4,1.8
			c1.8,0.4,3.8,1.4,5.5,1.2c6.2-0.8,9.2,1,7.3,7.7c-2.7,3.5,1.2,5.2,2.2,7.5c1.3,3.1,1.8,5.8-2.2,6.8c-6,1.5-11.9,4.3-18.4,3.1
			c-6.9,0-13.8,0.1-20.6,0c-2.5,0-5.5,0.8-7-2.5c3.6-0.1,7.3-0.3,10.9-0.4c8.4-0.4,18.1-6.3,19.4-11.7c0.9-0.3,2.5-0.7,2.4-1
			c-0.1-2.5-2-3.5-3.9-4.5c-6-4.7-13.3-5.2-20.3-6.5c-3.1-0.6-6.1-1-9.2-1.5c0.7-3.8-2.2-4.3-4.7-5.3c-2-0.8-5.3,0.2-5.6-3.5
			C182.9,299.3,183.5,298.2,184.2,297.1z"/>
		<path fill="#683687" d="M319.9,454.4c-2.1-1.1-1.5-3.4-2.4-5.1c-0.9-2-2.4-3.6-4-0.5c-1.4,2.7-1.8,7.2-6.4,3.8
			c-3.5-2.6-8.3-6.8-4.7-10.9c7.8-9,4.7-19,5-28.8c4.8,1.6,9.6,3.4,12,8.4c-0.2,3.4,0.6,6.6,1.4,9.9c1.7,6.9,6.1,12.3,9.1,18.5
			C326.7,451.3,322.4,451.1,319.9,454.4z"/>
		<path fill="#E6E5E1" d="M322.4,310.8c-4.5,5-10.2,6-16.3,4.5c-4-1-8-2.5-11.7-4.3c-6-2.9-11.7-2.4-17.7-0.2
			c-8.5,3.1-16.9,7.8-26.6,4.6c-1.8-1.2-3.5-2.5-4.3-4.6c5.4-1.5,12.3,2.8,16.3-4.3c6.6-4.8,13.2-8.8,21.3-2.7
			c1.3,1,2.8-0.2,4.1-0.9c6.8-4.1,12.7-2.1,18.1,2.8c4,3.7,8.2,6.3,13.9,4.2C320.4,310.2,321.4,310.5,322.4,310.8z"/>
		<path fill="#CBB07E" d="M223.5,322.6c-1.2,5.4-11,11.3-19.4,11.7c-3.6,0.2-7.3,0.3-10.9,0.4c-5.1-0.4-8.5-3.9-12.5-6.4
			c-0.6-3.1-2.1-3.6-4.5-1.5c-2,0-3.9,0-5.9,0.1c-1.1-0.2-2.1-0.1-2.9,0.9c-7.7,5.1-14.7,4.2-21.2-2.3c-1.7-1.7-3.9-3-5.8-4.5
			c0.1-0.6,0.2-1.3,0.3-1.9c3.8,0.2,6.7,2.7,10.2,3.9c1.8,2.1,3.8,2.5,6.2,1.1c2,0.3,4,0.1,5.8-0.8c3.4,0.7,6.3-0.4,8.7-2.7
			c1.6-0.1,3.3-0.3,4.9-0.4c0.2,2.2,1.3,2.2,2.8,1.2c0.6-0.1,1.3-0.2,1.9-0.2c0.4,2.5,1.8,2.8,3.8,1.7c12.4,2.5,24.6,0.4,36.9-1.5
			C222.5,321.9,223,322.2,223.5,322.6z"/>
		<path fill="#996FB5" d="M288.4,408.3c5.1,13.2,4.5,15.4-5.5,24c-2.3,1.9-3.9,2-6.5,0.9c-9.3-4-14.6-10.3-13.2-21
			c0.3-0.9,0.5-1.8,0.8-2.7c0.4-1.6-1.6-3.9,1-4.9c2.3-0.9,1.9,2.7,4,2.8c0.6,0,1.2,0.7,1.9,1c1.5,3.6,1.7,7.5,1.7,11.4
			c0,2.9,1.5,5.9,4.5,5.4c3.3-0.6,5.6-3.7,6.9-6.9c1-2.7,0.4-5.3-2.1-7.2c-2.1-1.6-4.4-3-6.6-4.4c-0.7-2-0.8-4.2,0.9-5.4
			c4-2.8,5.5-6.8,6.4-12.3c3.3,4.1,6.1,6.9,2.7,11.4C281.8,404.6,286.2,406.1,288.4,408.3z"/>
		<path fill="#CBB07E" d="M309,347.3c1.1,7.1,0.4,14-1.4,20.9c-9.9,1.2-19.6-2.9-29.5-1c-1.1,0.1-2.1,0.3-3.2,0.4
			c-17.9,1-19.8-1.2-16.7-19.5c0.3-1.7,0.6-3.4,0.9-5c0.5,0.2,0.9,0.3,1.4,0.5c0.9,14.5,4.1,17.4,18.3,17.2c4.1-0.1,8.3-0.1,12.4,0
			c10.4,0.2,13.6-2.6,15.3-13.2C307.4,347.5,308.2,347.4,309,347.3z"/>
		<path fill="#CBB07E" d="M329.6,501.4c0.9,0,1.9,0,2.8,0c3.1,3.1,6.1,6.2,9.3,9.2c1.5,1.4,3.7,2.2,5.2,0.5c1.4-1.5-0.1-3.3-1.2-4.5
			c-3.3-3.5-6.6-7.1-11.6-8.3c-1.2-0.8-2.8-1.6-2.4-3.2c0.4-1.8,2.4-1.3,3.7-1.4c2.3-0.2,4.4,0.9,6,2.3c5.4,4.8,10.6,9.9,16,14.8
			c3.3,2.9,2.8,5.9,0.6,9c-2.2,3.2-5,4.4-8.7,2c-2.7-1.8-5.9-2-9.2-1.5c-1-0.8-2-0.8-3-0.2c-2.3-0.9-4.5-1.8-6.8-2.6
			c-2.2-2.4-4.5-4.9-6.7-7.3C328.1,508.8,329.6,505.6,329.6,501.4z"/>
		<path fill="#CBB07E" d="M340.1,450.3c9-2.6,17.3-2.1,24.2,5.3c1.2,1.3,3.2,2.2,5,2.7c4.3,1.2,6.3,4.2,5.6,8.2
			c-0.7,4.4-4.2,6.3-8.6,6.3c-2.2,0-4.4-0.2-6.5,0.1c-2.9,0.4-1.9,2.1-1.1,3.7c-0.7,0.7-1.4,1.4-2.1,2c-0.8-0.5-1.7-0.9-2.4-1.6
			c-2.6-2.5-8.4-3.6-7.8-6.8c0.6-3.6,6.2-1.5,9.4-2.7c0.5-0.2,1-0.2,1.4-0.4c1.5-0.6,3.7-0.8,3.3-3.2c-0.4-2-2.3-2.4-4-2.5
			c-3.6-0.1-7.1,2.2-10.8,0.8C345.7,457.4,348.1,451.5,340.1,450.3z"/>
		<path fill="#938F85" d="M247,362.9c-10.7,1-18.9,6.8-24.7,15c-3.6,5.1-5,12-2,18.6c0.6,1.5,2.6,3.9-0.1,5.1
			c-2.7,1.2-4.5-0.7-5.8-3.1c-5.5-10.1-0.3-26.1,11.2-34.2c6.9-4.9,15-6.9,23.1-9c5.2-1.3,4.1,3.5,5.5,5.8
			C251.7,361.8,249.4,362.4,247,362.9z"/>
		<path fill="#CBB07E" d="M215.9,424.4c-2.5-1.9-5-3.8-7.5-5.7c-2.8-2.2-2.9-4.9-1.3-7.8c1.6-3,3.8-5.7,7.5-4.2
			c4.6,1.8,9.1,1.1,13.7,1.3c5.1,0.1,9.7,1.5,11.7,6.9c-0.2,1.5-1.3,2.1-2.6,2.4c-1-0.6-2-1.2-3-1.9c-1.4-1-3.2-2.1-4.2-0.1
			c-0.8,1.5,0.4,3.3,1.9,4.1c0.9,0.6,2.3,0.4,3.4,0.6c-0.6,1.8-1.3,3.5-1.9,5.3c-4.6-0.4-5.8-4.9-8.7-7.4c-1.4-1.1-3.1-2.1-4.6-0.7
			c-1.8,1.6-0.1,3.2,0.7,4.5c0.8,1.2,2.1,2,3.2,3c1.5,1.4,4.8,1.9,4.2,4.5c-0.7,2.7-3.7,2.8-6.2,2.6c-1.5-0.5-3-1.1-4.4-1.6
			C217.3,428.2,218.9,425.6,215.9,424.4z"/>
		<path fill="#CBB07E" d="M220.9,337.2c6.5,1.2,12.3-1.6,18.4-3.1c4-1,3.5-3.7,2.2-6.8c-1-2.4-4.9-4.1-2.2-7.5
			c7.5,3.4,10.8,10.2,14.1,17.1c1.5,3.2,0.1,4.7-2.6,3.5c-11.9-5.1-21.2,1.5-30.2,7.2c-5.5,3.5-10.6,4.6-16.5,3.2
			c-5.3-1.2-10.5-2.2-15.9-1.2c-0.1-0.8-0.2-1.6-0.3-2.4c4.1-2.4,8.9-1.3,13.3-2.1c4.8,1.5,9.2,0.5,13.5-1.9
			C218.3,342.8,219.1,339.5,220.9,337.2z"/>
		<path fill="#B49768" d="M215.9,424.4c3,1.2,1.4,3.8,1.7,5.8c-3.8,0.8-5.4,3.2-5.4,7.2c4.2-0.5,7.7-1,11.3-1.5c0.5,0.5,1,1,1.5,1.5
			c-2.8,4-0.6,8,0.1,11.9c-4.5,3.4-8.9,0.2-13.3-0.2c-4.2-2.8-8.1-6.3-13.5-6.9c1.4-2.8,5.3-0.3,6.7-3.1c-9.3-3.5-9.3-3.5-7.9-9.9
			c5.1-0.7,10.2-1.4,15.3-2.2C214.1,426.8,216,426.9,215.9,424.4z"/>
		<path fill="#100E0D" d="M211.8,449.2c4.4,0.4,8.8,3.6,13.3,0.2c0.9-0.1,1.9-0.2,2.8-0.2c0.5,0,1,0,1.5,0
			c6.9,0.4,13.8,0.8,20.7,1.2c-0.2,2.8-2.7,3.6-4.6,4.8c-15,0-15,0-13.1,13.3c-4.5,0.9-7.8-2.3-11.6-3.5c-5.6-3.9-10.9,1-16.4,0.6
			c-0.5-0.4-1.1-0.9-1.6-1.3c-0.1-0.5-0.1-1-0.2-1.6c4-3.8,8.5-4.7,13.6-2.6c2.5,1.9,4,1.4,4.4-1.8c0.6-1.3,3-3-0.8-3.1
			c-3.2-0.1-6.3-0.1-9.5-0.2C210.8,453.1,211.3,451.1,211.8,449.2z"/>
		<path fill="#BCA46D" d="M329.6,520.7c0.7,0.8,1.4,1.7,2,2.5c-0.2,1,0.2,1.4,1.2,1.1c0.1,0.4,0.1,0.9,0.1,1.3
			c0.5,5.3-0.9,8.9-7.3,8.3c-0.6-0.1-1.4,1.1-2.1,1.7c-2-0.7-3.6-2.1-6.1-1.8c-9.5,1.1-11.3-0.3-14.4-10c1.3-3.4,5.7-5.2,4.8-9.7
			c1.9,1.1,3.8,2.8,3.9,4.8c0.1,5,2.9,4.6,6.2,3.9c2,0,4,0,6.1,0c0.2-2.7-5.2-3.7-1.3-6.7C324.9,517.7,327.3,519.2,329.6,520.7z"/>
		<path fill="#100E0D" d="M317.9,522.9c-3.3,0.7-6.2,1.1-6.2-3.9c0-2-1.9-3.7-3.9-4.8c-2.6-2.5-7.3,0.1-9.3-3.8
			c1.1-1.1,2.2-2.2,3.3-3.2c8,0.2,6.8-3.1,2.9-7.5c-0.6-1.5-1.2-3-1.7-4.4c-0.2-1.4-0.4-2.9-0.7-4.3c1-1.4,2.3-1.6,3.8-1.3
			c3.4,8.9,9.2,15.8,17.5,20.5c2.2,2.4,4.5,4.9,6.7,7.3c-0.2,1.1-0.5,2.2-0.7,3.3c-2.3-1.5-4.7-2.9-7-4.4c-2.3-1.5-4.7-1.9-7.8-1.1
			C315.8,518.2,318.6,519.9,317.9,522.9z"/>
		<path fill="#683687" d="M252.7,490.4c2.4,1.2,4.1,3.5,7.8,2.2c8.5-2.9,9.3-2.2,11.7,7.2c1.8,6.9,5.7,10.5,13.1,10
			c-0.2,1.8-1.5,2.6-3.1,2.4c-9.2-1.1-18.2-2.5-26.1-8.3c-3.2-2.3-5.4-3.5-3.2-7.7c0.7-1.3-0.1-3.3-0.1-5
			C252.5,490.9,252.5,490.6,252.7,490.4z"/>
		<path fill="#996FB5" d="M330,449.7c-2.9-6.2-7.4-11.6-9.1-18.5c-0.8-3.3-1.7-6.5-1.4-9.9c0.4,0,0.9,0,1.3,0c0.5-0.5,1-0.9,1.5-1.4
			c0.8-1.4,1-3.3,3.5-3.9c-0.1,5.5,3.1,9.4,6.2,13.5c4.4,5.8,6.6,12.5,5.1,20C334.7,449.6,332.4,449.6,330,449.7z"/>
		<path fill="#CBB07E" d="M360.4,495.5c-2.5-0.8-5-1.6-7.8-1.2c-6.9,1.1-12.2-1.6-15.9-7.5c2.6-3.5,6.9-5.7,7.7-10.5
			c5.6,3.4,10.4,8.8,17.9,7.1l-0.1-0.1c0,0.6,0,1.2,0,1.8C361.6,488.6,363.9,492.5,360.4,495.5z"/>
		<path fill="#723C95" d="M297.3,473.1c0.2-3.6-1.4-7.9,4.1-9c3.5,2.1,5.6,6.7,10.7,6c0,0,0,0,0,0c-0.2,2.1,0.8,3.1,2.9,3
			c0.2,0.4,0.3,0.9,0.2,1.3c0.3,1.7,1,2.7,2.9,1.5l-0.1-0.2c-1,4.6,3.2,5.8,5.6,7.5c5.2,3.8,5.8,6.8,0.3,10.5
			c-5.2,0.2-9.2-3.5-9.7-7.3C312.8,475.9,305.6,474.1,297.3,473.1z"/>
		<path fill="#723C95" d="M175.3,373.5c-4.2,2.5-6.7-0.3-9.2-2.9c-8.3-8.8-16.3-17.9-25.6-25.7c-3.5-2.9-6-6.5-5.4-11.4
			c11.7,11.2,23.5,22.5,35.2,33.8C172.2,369.1,173.6,371.4,175.3,373.5z"/>
		<path fill="#683687" d="M297.3,473.1c8.3,1.1,15.5,2.8,16.9,13.4c0.5,3.8,4.5,7.5,9.7,7.3c-1,1.5-2,3-3.1,4.6
			c-5.9-2.6-8.8-8.8-14-12.5c-0.2,1.4-0.4,2.6-0.6,3.8c-1.5-0.3-2.9,0-3.8,1.3c-1.1,0-2.3-0.1-3.4-0.1
			C298.4,484.9,297.8,479,297.3,473.1z"/>
		<path fill="#CBB07E" d="M217.5,487.8c0.7,2.3,1.5,4.5,2.2,6.8c4.1-0.9,5.2-6.5,10-6.3c0.4,3.8,0.8,7.6,1.3,11.3
			c-13.3,5.9-13.3,5.9-20.9-2.6c1.1-3,2.1-6.1,3.2-9.2c0,0,0-0.1,0-0.1c0.5,0,1.1-0.1,1.6-0.1c0.9,0.1,1.9,0.1,2.8,0.2L217.5,487.8z
			"/>
		<path fill="#CBB07E" d="M130.9,280.3c-5.6-1.7-10.8-4.2-15.1-8.3c-0.4-0.4-0.9-0.9-1.3-1.3c0,0-0.2-0.2-0.2-0.2
			c-0.2-1.8-0.2-3.6,1.7-4.6c2.1,1.6,4.2,3.2,7,3.1c1.6,0.2,3.2,0.4,4.8,0.5c0.9,2,2.3,2.5,4.6,2.5c6.2-0.1,12.5,0.2,18.7,0.3
			c1.1,6.4-6.1,2.9-7.5,6.2C139.2,277.8,135.1,279.3,130.9,280.3z"/>
		<path fill="#EFEEEF" d="M330,449.7c2.3-0.1,4.7-0.1,7-0.2c1,0.3,2,0.6,3.1,0.8c8,1.1,5.6,7.1,5.6,12c-8.2-4.2-16.9-4.9-25.9-3.9
			c-3.2-1.4-0.6-2.7,0-4C322.4,451.1,326.7,451.3,330,449.7z"/>
		<path fill="#E6E5E1" d="M233.5,425.2c0.6-1.8,1.3-3.5,1.9-5.3c0.6-0.9,1.3-1.9,1.9-2.8c1.3-0.3,2.4-0.8,2.6-2.4
			c3.6,1.7,5.6,5.8,9.9,6.3c0.9,2.2,2.7,3.5,4.6,4.6c2.7,3.5,3.9,7.8,5.5,11.8c-0.9,0.2-1.9,0.5-2.8,0.7c-0.9-0.1-1.7-0.3-2.6-0.4
			c-0.6-0.2-1.2-0.3-1.7-0.5c0.5-1.9-0.6-3-1.7-4.4C246.6,427.3,240,426.6,233.5,425.2z"/>
		<path fill="#EFEEEF" d="M306.2,489.5c0.2-1.2,0.4-2.4,0.6-3.8c5.2,3.8,8.1,9.9,14,12.5c2.3,2.9,5.5,3,8.7,3.1
			c0,4.2-1.5,7.4-5.9,8.6C315.4,505.3,309.6,498.4,306.2,489.5z"/>
		<path fill="#EFEEEF" d="M220.8,465c3.9,1.2,7.1,4.4,11.6,3.5c1.5-0.1,3-0.2,4.4-0.4c3.8-0.2,7.5-0.9,10.2-3.8
			c0.7,1.3,2,1.1,3.2,1.3c-0.6,1.2-1.3,2.5-1.9,3.7c-7.7,4.5-15.3,9.1-24.8,6.4c-0.7-0.7-1.4-0.7-2.1,0c-1.1,0.2-2.2,0.5-2.8-0.8
			c0.1-0.7,0.2-1.3,0.3-2C221.3,470.6,219.9,467.6,220.8,465z"/>
		<path fill="#EFEEEF" d="M344.4,476.3c-0.8,4.8-5.1,7-7.7,10.5c-5.3-3.7-10.5-7.3-15.8-11c0.9-3.9,4.6-3.1,7.2-4.2
			c1.8,1.7,4,1.4,6.1,1.4C337.3,475.2,341.5,473.8,344.4,476.3z"/>
		<path fill="#CBB07E" d="M216.2,460c-5.1-2.1-9.6-1.1-13.6,2.6c-5.4-1.5-7.9,5.4-13.1,4.5c-2.6-7.5-0.4-10.7,8.6-11.8
			c4-0.5,8.2-0.3,12.3-0.4c3.2,0,6.3,0.1,9.5,0.2c3.8,0.1,1.4,1.8,0.8,3.1C218.7,458,217.6,459.3,216.2,460z"/>
		<path fill="#EFEEEF" d="M298.5,510.4c2,3.9,6.7,1.3,9.3,3.8c0.9,4.5-3.5,6.3-4.8,9.7c-7.7-1.7-9.7-8.5-12.8-14.3
			c0.8-2.8-2.6-6.9,2.6-8.4C294.3,504.5,294.6,508.6,298.5,510.4z"/>
		<path fill="#E6E5E1" d="M231,499.7c-0.4-3.8-0.9-7.6-1.3-11.3c4.6-0.1,8.3,4.6,13.3,2.6c3.1,0.1,4.8-2.2,6.8-3.8
			c1.6,0.5,3.4,0.9,2.9,3.3c-0.3,0.2-0.3,0.4,0,0.7C246.9,497.7,239.9,501.2,231,499.7z"/>
		<path fill="#CBB07E" d="M220.8,465c-0.9,2.6,0.5,5.6-1.8,7.9c-0.8-6.9-4.4-4.1-8.5-2.5c2.8,2.2,4.9,4.2,8,4.5
			c-5.2,3.8-10,3.3-17.2-1.7c0.5-2.3,1-4.7,1.5-7c0.5-0.2,1-0.4,1.5-0.6C209.8,466,215.2,461.1,220.8,465z"/>
		<path fill="#683687" d="M275.1,406.6c2.2,1.5,4.5,2.8,6.6,4.4c2.4,1.8,3.1,4.5,2.1,7.2c-1.3,3.2-3.6,6.3-6.9,6.9
			c-3,0.5-4.5-2.5-4.5-5.4c0-3.9-0.2-7.7-1.7-11.4C272.1,407.8,273.6,407.2,275.1,406.6z"/>
		<path fill="#BCA46D" d="M143.7,278.6c1.5-3.3,8.6,0.2,7.5-6.2c3.9,0.7,6,3.9,8.9,6c0.5,2.9,1,5.9,1.5,8.8c-4.5,1.5-8.7,1-12.6-1.8
			c-1.1-1.6-2.3-3.2-3.4-4.8C144.9,279.9,144.3,279.3,143.7,278.6z"/>
		<path fill="#CBB07E" d="M161.6,287.2c-0.5-2.9-1-5.9-1.5-8.8c5.9-0.8,10.6,3.4,16.1,4.2c1.5,3.5,3.1,7,4.6,10.5
			C174.1,292,168.5,287.5,161.6,287.2z"/>
		<path fill="#BCA46D" d="M213.3,487.9c-1.1,3-2.1,6.1-3.2,9.1c-5.7-1-12.9,0.7-14.6-7.8c5.1,0.1,7.8-2.8,8.9-7.5c1,0,2,0.1,2.9,0.1
			C206.9,486.3,209.2,488.1,213.3,487.9z"/>
		<path fill="#3D2B1F" d="M262,306.6c-3.9,7.1-10.9,2.8-16.3,4.3c-0.3-3,2.3-3.4,4.1-4.6c1.3,0.6,3.1,2.1,3.8,1.7
			c1.7-1,0.3-2.4-0.5-3.6c-1.7-2.4-3.3-4.8-5-7.2c0.2-4.2,3.3-5,6.5-5.8c2.4,0.6,2.9,2,1.9,4.1c-2.3,4.7-2.5,8.5,4.1,9.3
			C261,305.4,261.5,306,262,306.6z"/>
		<path fill="#B49768" d="M360.4,495.5c3.5-2.9,1.3-6.9,1.8-10.4c0.6-0.6,0.9-1.2,0-1.8c0,0,0.1,0.1,0.1,0.1
			c-0.4-0.6-0.8-1.2-1.2-1.8c0.5-0.5,1-1,1.5-1.6c1.8,0.5,3.3,1.4,3.8,3.4c1.7,5,3.4,9.9,5,14.9
			C365.9,504.5,363.6,498.3,360.4,495.5z"/>
		<path fill="#CBB07E" d="M197.2,429.2c-1.4,6.4-1.4,6.4,7.9,9.9c-1.4,2.8-5.3,0.3-6.7,3.1c-5.3,1.2-9.9-0.4-9.8-6.1
			C188.5,432,191.4,427.9,197.2,429.2z"/>
		<path fill="#CBB07E" d="M323.5,535.7c0.7-0.6,1.5-1.8,2.1-1.7c6.4,0.6,7.8-3,7.3-8.3c5.1,1.7,7.6,5,4.2,9.9
			C333.1,541.5,328.2,539.6,323.5,535.7z"/>
		<path fill="#CBB07E" d="M182.2,300.4c0.3,3.7,3.6,2.6,5.6,3.5c2.5,1,5.4,1.5,4.7,5.3c-5.7,0.4-11.2-0.6-16.1-3.5
			c-0.5-1.6-1-3.3-1.5-4.9c1.9-0.1,3.9-0.3,5.8-0.4C181.2,300.3,181.7,300.4,182.2,300.4z"/>
		<path fill="#996FB5" d="M254.6,425.8c-1.9-1.1-3.7-2.5-4.6-4.6c-0.9-4.1,0.4-7.8,2.2-11.3c0.9-1.8,1.3-5.1,3.9-4.5
			c2.7,0.6,1.3,3.6,1.3,5.7C255.3,415.7,254.4,420.7,254.6,425.8z"/>
		<path fill="#573269" d="M260.6,343.7c-0.5-0.2-0.9-0.3-1.4-0.5c0.8-6.5-0.9-12.4-5.4-17.2c-1.8-1.9-2.5-4-2.6-6.5
			C260.1,322.9,263.6,331.8,260.6,343.7z"/>
		<path fill="#3D2B1F" d="M334.2,498.3c5,1.2,8.3,4.8,11.6,8.3c1.1,1.2,2.6,2.9,1.2,4.5c-1.6,1.7-3.7,0.9-5.2-0.5
			c-3.2-2.9-6.2-6.1-9.3-9.2C333.7,500.8,334.3,499.8,334.2,498.3z"/>
		<path fill="#BCA46D" d="M202.8,466.2c-0.5,2.3-1,4.7-1.5,7c-3.5-3-8.9-2.1-12-5.9c5.2,0.9,7.7-6,13.1-4.5c0.1,0.5,0.1,1,0.2,1.6
			C202.7,464.9,202.8,465.5,202.8,466.2z"/>
		<path fill="#996FB5" d="M248.3,475.5c2,1.1,1.9,3.1,2.2,4.8c-0.1,1.4-0.1,2.9-0.2,4.3c0,0-0.4,0.4-0.4,0.4
			c-3.6,0.7-7-2.4-10.7-0.8c0,0-0.4-0.5-0.4-0.5c0.3-1,0.6-2.1,1-3.1C242.5,478.6,244.7,475.9,248.3,475.5z"/>
		<path fill="#CBB07E" d="M371.4,498.4c-1.7-5-3.4-9.9-5-14.9c0,0,0.2,0,0.2,0c0.6,0.4,1.3,0.8,1.9,1.2c2.8,1.9,5.7,4,6.6,7.4
			C376,494.9,375.5,497.9,371.4,498.4z"/>
		<path fill="#E6E5E1" d="M328.1,471.6c-2.6,1.1-6.3,0.3-7.2,4.2c-1,0-1.9-0.1-2.9-0.1c0,0,0.1,0.2,0.1,0.2
			c-0.2-1.9-1.8-1.3-2.9-1.5c0.1-0.5,0-0.9-0.2-1.3c-0.4-1-0.9-2-1.3-3c1.6-2.1,4.1-0.6,6-1.6c2.8,1.1,5.6,1.9,8.6,1.4
			C328.2,470.4,328.2,471,328.1,471.6z"/>
		<path fill="#CBB07E" d="M213.3,481.5c1.2,0,2.4-0.2,3.5-0.1c2.9,0.4,7.5,0.1,7.8,3.1c0.4,4.7-4.9,1.5-7.1,3.3c0,0,0.1,0.1,0.1,0.1
			c0.8-2.5-1-2.6-2.6-2.8c-0.6-0.1-1.2-0.1-1.8-0.2C213.3,483.7,213.3,482.6,213.3,481.5z"/>
		<path fill="#723C95" d="M239.3,484.3c3.7-1.6,7,1.5,10.7,0.8c0,0.7-0.1,1.4-0.1,2.1c-2.1,1.6-3.8,3.9-6.8,3.8
			C244.1,487.4,240.6,486.4,239.3,484.3z"/>
		<path fill="#CBB07E" d="M204.4,481.8c-1.1,4.7-3.8,7.6-8.9,7.5C195.2,482.9,199.3,481.9,204.4,481.8z"/>
		<path fill="#938F85" d="M248.2,297.2c1.6,2.4,3.3,4.8,5,7.2c0.8,1.2,2.2,2.6,0.5,3.6c-0.7,0.4-2.5-1.1-3.8-1.7
			c-0.8-2.7-1.8-5.4-4.3-7.1C246.4,298.5,247.3,297.9,248.2,297.2z"/>
		<path fill="#B49768" d="M218.6,474.9c-3.1-0.3-5.2-2.2-8-4.5c4.1-1.6,7.7-4.5,8.5,2.5c-0.1,0.7-0.2,1.3-0.3,2
			C218.7,474.9,218.6,474.9,218.6,474.9z"/>
		<path fill="#3D2B1F" d="M214.7,343.1c-4.2,2.5-8.7,3.5-13.5,1.9C205.4,342.7,209.9,341.8,214.7,343.1z"/>
		<path fill="#B49768" d="M213.3,481.5c0,1.1-0.1,2.2-0.1,3.3c0,1,0,2,0,3c0,0,0,0.1,0,0.1c-4.1,0.1-6.3-1.6-6-6
			C209.3,481.7,211.2,480.6,213.3,481.5z"/>
		<path fill="#938F85" d="M325.5,397.1c-0.2-2.5-0.9-5.2,3-5.4c1.4,0.9,2.8,1.8,4.2,2.6C330.4,395.7,328.9,399,325.5,397.1z"/>
		<path fill="#100E0D" d="M140.8,319.2c-0.1,0.6-0.2,1.3-0.3,1.9c-3.8-0.6-4.5-3.4-5.3-7.1C138.9,314.6,140.5,316.3,140.8,319.2z"/>
		<path fill="#BCA46D" d="M174.9,300.7c0.5,1.6,1,3.3,1.5,4.9c-2.4-0.9-4.9-1.7-7.3-2.6c-0.5-0.9-1-1.7-1.5-2.6
			C170,300.2,172.5,299.5,174.9,300.7z"/>
		<path fill="#CBB07E" d="M332.6,394.3c-1.4-0.9-2.8-1.8-4.2-2.6c0-1.3,0-2.6,0-3.9c1.9,1,3.9,1.9,5.6,3.2
			C337.4,393.6,334.2,393.6,332.6,394.3z"/>
		<path fill="#090806" d="M171.7,320.7c-2.5,2.3-5.3,3.4-8.7,2.7C165.3,320.4,168,318.8,171.7,320.7z"/>
		<path fill="#090806" d="M157.2,324.2c-2.4,1.4-4.5,1-6.2-1.1C153.7,320.1,155.8,319.8,157.2,324.2z"/>
		<path fill="#090806" d="M247,362.9c2.4-0.6,4.7-1.1,7.1-1.7c0.4,1.6,0.4,3.1-1.2,4.1c-1.9-0.9-3.8-0.5-5.8,0
			C247.1,364.6,247.1,363.8,247,362.9z"/>
		<path fill="#090806" d="M223.5,322.6c-0.5-0.4-1-0.7-1.5-1.1c0-1.5,0-2.9,0-4.4c1.9,1,3.9,2,3.9,4.5
			C226,321.9,224.4,322.3,223.5,322.6z"/>
		<path fill="#090806" d="M167.6,300.5c0.5,0.9,1,1.7,1.5,2.6c-1.2,1.7-2.9,2.5-4,0.5C163.9,301.5,165.6,300.5,167.6,300.5z"/>
		<path fill="#B49768" d="M187.9,347.2c0.1,0.8,0.2,1.6,0.3,2.4c-1.2,1-3.2,1.5-3.6,0.2C184.1,347.7,186.4,347.6,187.9,347.2z"/>
		<path fill="#B49768" d="M176.3,326.9c2.4-2.1,3.9-1.6,4.5,1.5C179.1,328.4,177.6,328,176.3,326.9z"/>
		<path fill="#090806" d="M182.2,300.4c-0.5,0-1-0.1-1.5-0.1c0-2,0.1-4,0.1-6.1c1.7,0.2,2.4,1.8,3.3,2.9
			C183.5,298.2,182.9,299.3,182.2,300.4z"/>
		<path fill="#090806" d="M145.5,280.6c1.1,1.6,2.3,3.2,3.4,4.8C145.2,285.7,145.3,283.2,145.5,280.6z"/>
		<path fill="#B49768" d="M359.4,477.3c1.1,0.9,2.1,1.8,3.2,2.8c-0.5,0.5-1,1-1.5,1.6c-1.3-0.8-2.6-1.6-3.9-2.5
			C358,478.6,358.7,478,359.4,477.3z"/>
		<path fill="#090806" d="M179.4,321.5c-1.5,1-2.7,1-2.8-1.2C178.2,319.3,178.9,320.2,179.4,321.5z"/>
		<path fill="#090806" d="M185.2,323c-2,1.1-3.4,0.8-3.8-1.7C183,321,184.5,321,185.2,323z"/>
		<path fill="#100E0D" d="M337.2,520c1.1-0.6,2.1-0.5,3,0.2C339,522.1,338,521.9,337.2,520z"/>
		<path fill="#090806" d="M275,367.7c1.1-0.1,2.1-0.3,3.2-0.4C277.4,369.9,276.4,370.2,275,367.7z"/>
		<path fill="#090806" d="M226.5,310.9c-1.5,0.1-2.8-0.2-3.4-1.8c1.1-0.4,2.3-0.8,3.4-1.2C226.5,308.9,226.5,309.9,226.5,310.9z"/>
		<path fill="#B49768" d="M167.5,327.8c0.8-1,1.8-1.1,2.9-0.9C169.4,327.2,168.4,327.5,167.5,327.8z"/>
		<path fill="#723C95" d="M239.8,480.6c-0.3,1-0.6,2.1-1,3.1C237.5,482.2,238.3,481.3,239.8,480.6z"/>
		<path fill="#CBB07E" d="M221.5,475.7c0.7-0.7,1.4-0.7,2.1,0C222.9,475.7,222.2,475.7,221.5,475.7z"/>
		<path fill="#090806" d="M239.7,303.3c0.1-0.9,0.5-1.4,1.5-1.2C240.7,302.5,240.2,302.9,239.7,303.3z"/>
		<path fill="#CBB07E" d="M359.4,477.3c-0.7,0.6-1.4,1.2-2.1,1.9c-0.2-0.1-0.4-0.3-0.6-0.5c0.7-0.7,1.4-1.4,2.1-2
			C359.1,476.7,359.3,477,359.4,477.3z"/>
		<path fill="#B49768" d="M368.6,484.7c-0.6-0.4-1.3-0.8-1.9-1.2C367.8,483.1,368.2,483.8,368.6,484.7z"/>
		<path fill="#683687" d="M322.3,419.9c-0.5,0.5-1,0.9-1.5,1.4C321.3,420.8,321.8,420.3,322.3,419.9z"/>
		<path fill="#100E0D" d="M332.8,524.3c-1,0.3-1.3-0.1-1.2-1.1C332.1,523.5,332.4,523.9,332.8,524.3z"/>
		<path fill="#070606" d="M349.8,205.9c-0.9,7.1-0.7,14.3-4,21c2.7,0.5,3.3-1.1,4.5-1.9c1,0,2,0.1,3,0.1c-0.2,1-0.3,1.9-0.5,2.9
			c-0.3,0.5-0.6,1-0.9,1.4c-3.9,7.7-8.1,15-14.8,20.7c-3.8,3.3-5.1,8.5-5.9,13.2c-1.5,9-7.2,15.5-11.8,22.8
			c-1.9-1.1-3.6-2.3-5.6-3.2c-2.2-1-2.2,0.7-2.2,2.2c-0.9,0.1-1.8,0.3-2.6,0.4c-2-2-4.3-3.3-7.2-2.8c-2.1-2.1-4.2-4.1-6.2-6.2
			c-0.5-1.4-1-2.7-1.5-4.1c6.6-5.2,6.3-7-2.4-11.7c-0.3-0.3-0.5-0.6-0.6-1c0.2-1.5,0.1-3-1.4-3.8c-0.2-2.6-0.5-5.3-0.6-7.9
			c-0.3-7-1.2-14.1,3.9-20c2.1-1,3-2.6,2.9-4.9c1.9-2.3,4-4,7.2-3c0.1,0.8,0.1,1.5,0.2,2.3c-1.5,1.4-2.9,2.8-4.4,4.2
			c-3.5,2.1-4.9,4.4-0.9,7.3c0.8,2.4-1.2,4.1-1.7,6.1c-0.7,2.9-1.6,7.1,1.4,7.8c3.5,0.8,4.8-3,4.6-6.5c1.7-0.5,3-1.1,1.1-2.9
			c-0.7-4.4,3-4.3,5.6-5.4c0.3,0,0.5-0.1,0.6-0.4c0.7,1,1.3,1.4,1.9-0.1c0.1-0.5,0.1-1,0.2-1.6c0.5-1.9,0.9-3.9,1.4-5.8
			c0.1-0.5,0.3-1.1,0.4-1.6c1.4-0.4,2.8-1,3.7,0.9c0.8,1.7-0.5,5.3,2.9,4.8c2.7-0.4,1.7-3.6,2.4-5.6c1-2.6,2.8-4.5,5.3-5.8
			c1.1,2.2,2,5.5,5,2.8c2.6-2.3-0.3-3.7-2.2-4.8c5-3.9,10-7.9,15.1-11.8C347.9,202.5,349.8,202.2,349.8,205.9z M307.7,247.3
			c1.7,0.8,3,1,2.9-1.6c5.5,0.7,10.2-6.6,16.6-1.1c1.2,1.1,6-2.9,6.2-6c0.2-3-3.4-1.6-5.2-1.6c-6.4,0-12.6,1.2-17.6,5.7
			C307.6,242.9,307.6,245.1,307.7,247.3c-0.7,0.5-1.4,1.1-2,1.7c0.3,0.2,0.6,0.4,0.9,0.6C307,248.8,307.3,248.1,307.7,247.3z
			 M322.4,251.6c0.1-1.1-0.3-2.2-1.4-2.1c-4.7,0.7-8.6,3.2-11.9,6.4c-1.1,1,0.4,2.2,1.4,2.8C313.7,260.5,322.4,255.3,322.4,251.6z"
			/>
		<path fill="#090806" d="M258.8,282.9c-2.7-1.1-4.7,1.2-7.2,1.4c-4.7-6.1-7.5-12.8-9.2-20.3c-1.4-6.1-4.5-11.9-9.2-16.4
			c-8.6-8.2-13.9-18.2-15.8-29.9c3.9,1.8,3.5,7.7,8.5,8.8c0.8-4-1.2-7.1-2.9-10.3c0.4-4.8-0.1-9.5-1-14.1c1.4,0.3,2.8,0.6,4.1,0.9
			c8.3,9.7,23,12.8,26.9,27.5c2.8-3,2.3-5.5,2.4-7.8c5.3,1.4,4.3,5.9,4.9,9.7c0.8,4.8,5.2,4.6,8.4,6.1c0.3,2.2,0.2,4.4,1,6.4
			c0.5,1.4,2.6,3.5,3.3,3.2c1.6-0.5,4.3-1.9,3.4-4.1c-2.8-6.7,0.4-15.5-7.2-20.5c-0.9-1.5-2.1-3.2,1.1-2.9c1.6,0.2,3.1,1,4.6,1.6
			c2.8,3.6,5,7.3,6.4,11.8c2.4,7.4,0,14.8,1,22.1c-1.2,0.5-1.5,1.5-1.6,2.7c-0.6,1.1-1.2,2.2-1.9,3.3c-3.2,1.1-7.4,1.7-7.6,5.6
			c-0.2,3.8,4.4,3.9,6.7,5.8C273,279.1,267.5,284.4,258.8,282.9z M262.6,245.3c-3.7-9.3-11.9-6.6-18.9-7c-1.3-0.1-3.1-0.7-3.8,1.2
			c-0.5,1.4,0.8,2.2,1.6,3.1c1.1,1.3,2.6,2.9,4.2,1c2.9-3.3,5.7-1.4,8.6-0.3C256.8,244.2,259,246,262.6,245.3z M251.6,248.6
			c-0.3,0.6-1.1,1.5-1.1,2.3c0,3.1,2.2,4.7,4.4,6.2c2.5,1.7,5.2,2.9,8.1,1.2c0.9-0.5,1.4-1.6,0.6-2.4
			C260.7,252.6,256.6,251,251.6,248.6z"/>
		<path fill="#723C95" d="M373.4,99.5c-2.2,0.5-4.5,1-6.7,1.5c-4.1-10.8-14.1-10.4-23-11.7c-8.2-1.2-16.4,0.6-24.6,1.5
			c-1.3,0.1-2.5,0.3-3.8,0.4c-1.1-2.3-2.3-4.6-3.4-7c11.7-0.2,23.6,0.6,35.1-1C361.1,81.4,367.5,89.5,373.4,99.5z"/>
		<path fill="#CBB07E" d="M282.6,256.1c-1-7.3,1.4-14.7-1-22.1c-1.4-4.5-3.6-8.2-6.4-11.8c2.8-3.1,5.3-1.4,7.5,0.8
			c2.7,2.7,5,2.1,7.6-0.3c2.3-2.2,4.9-4,7.4-6c5.3-4.4,5.8-4.2,7.1,3c-0.5,0.2-1,0.4-1.6,0.6c-3.2-1-5.4,0.7-7.2,3
			c-3.1,0.3-2.9,2.7-2.9,4.9c-5.1,5.9-4.3,13-3.9,20c0.1,2.6,0.4,5.3,0.6,7.9C287.3,256,285,256,282.6,256.1z"/>
		<path fill="#B49768" d="M300,183.6c-7,8.9-14.6,11.1-22.5,6.7c-2.5-1.4-4.4-2.9-4.2-6.1c4.6-0.5,7.3,4.1,12.1,4.1
			c8.5-0.1,11.3-2.6,8-10.4c-2.9-7.2-1.2-12,4.4-16.4C303.5,168.4,302.4,175.9,300,183.6z"/>
		<path fill="#EFEEEF" d="M300,183.6c2.3-7.7,3.5-15.3-2.2-22.1c-0.4-1.9-1.3-4,2-4.1c6.9,8.3,16.2,15.9,9.1,28.8
			c-0.6,1.1,0.1,2.9,0.2,4.3c-0.6,2.2-2.2,2.4-4,1.9c-2.3-0.7-1.8-2.5-1.2-4.1C305.6,184.1,302.9,183.8,300,183.6z"/>
		<path fill="#CBB07E" d="M288.5,123.2c-7.5,4.7-13.1,1.9-13.1-7c0-5.2-0.6-11.4,6.4-13.7c-0.7,3.5-1.3,6.9-1.9,10.4
			c0,3.2-1.7,8.2,3,8.2c4.5-0.1,2.4-5.1,2.6-8.1c0-0.5-0.2-0.9-0.4-1.4c0.3-3.8,1.2-7.3,3.4-10.4c5.8,3.4,4.1,8.4,3,13.3
			C290.5,117.4,289.5,120.3,288.5,123.2z"/>
		<path fill="#CBB07E" d="M255.6,222.7c-0.1,2.3,0.5,4.8-2.4,7.8c-3.9-14.7-18.6-17.8-26.9-27.5c1.1-3.4,4-1.2,5.9-1.9
			c6.5,3.9,9.6,12.5,19.1,12.6C256.3,213.8,253.3,220,255.6,222.7z"/>
		<path fill="#CBB07E" d="M299,226.6c1.5-1.4,2.9-2.8,4.4-4.2c0.9-0.2,1.8-0.4,2.7-0.6c-0.4,7,4.5,2.8,7.1,3.3
			c-0.5,1.9-0.9,3.9-1.4,5.8c-1.3,0.1-2.4,0.6-2.7,2.1c-2.6,1.1-6.3,1-5.6,5.4c-1.7,0.5-1.7,1.6-1.1,2.9c0.2,3.5-1.1,7.3-4.6,6.5
			c-3-0.7-2.1-4.8-1.4-7.8c0.5-2.1,2.5-3.7,1.7-6.1C298.4,231.5,298.7,229.1,299,226.6z"/>
		<path fill="#573269" d="M279.8,112.9c0.6-3.5,1.3-6.9,1.9-10.4c1.4-3.1,3-6.1,2.6-9.7c2.1-2.8,2.1-6.4,3.3-9.6
			c2.3,0.1,4.7,0.2,7,0.4c0.2,0.4,0.3,0.8,0.4,1.2c-2.2,5.4-4.4,10.8-6.6,16.3c-2.2,3.1-3.1,6.7-3.4,10.4
			C283.3,112,281.5,112.4,279.8,112.9z"/>
		<path fill="#B49768" d="M309.1,190.5c-0.1-1.5-0.8-3.2-0.2-4.3c7-12.9-2.2-20.4-9.1-28.8c6.5-0.6,9.2,4.1,11.4,8.7
			c2.4,5.1,4.9,7.8,11.1,2.3c-1.6,9.2-9.7,13.4-10.1,21.3C311.1,189.9,310.1,190.2,309.1,190.5z"/>
		<path fill="#B49768" d="M286.6,214.6c3.4-7.7,11-9.9,17.6-13.5c4.3-2.4,10.2-3.2,10.6-9.9c1.9-0.5,4.1-3,5.7-0.1
			c1.1,2.1-1.1,3.2-2.6,4.5c-6,5.1-11.4,11.1-20,12.4C293.5,208.7,292.6,216.1,286.6,214.6z"/>
		<path fill="#CBB07E" d="M269.4,223.6c7.6,5,4.4,13.8,7.2,20.5c0.9,2.1-1.8,3.5-3.4,4.1c-0.7,0.2-2.8-1.8-3.3-3.2
			c-0.8-2-0.7-4.3-1-6.4c-0.2-3.6,0.2-7.4-2.5-10.4C266.3,225.9,266.3,223.7,269.4,223.6z"/>
		<path fill="#573269" d="M271,83.6c-1.2,3.2-2.4,6.3-3.6,9.4c-4.7,5.2-5.8,12.4-9.4,18.2c-0.9-5.8-0.8-11.6-0.1-17.4
			c4.6-2.2,8.4-5.2,9.9-10.3C268.8,83.6,269.9,83.6,271,83.6z"/>
		<path fill="#CBB07E" d="M254.6,108.5c-1,3.6-2.5,7.2-2.9,11c-0.5,4.5-3.5,3.6-6.2,3.8c-0.1-3.9-0.2-7.8-0.3-11.7
			c0.7-2,1.3-4.1,2-6.1C249.8,106.1,253.6,103.7,254.6,108.5z"/>
		<path fill="#3D2B1F" d="M232.2,201.1c-2,0.6-4.8-1.5-5.9,1.9c-1.4-0.3-2.8-0.6-4.1-0.9c-1.3-1.9-2.6-3.7-3.9-5.6
			c-0.2-1.1-0.6-2-1.8-2.4c-0.6-1.5-1.2-2.9-1.8-4.4c0.5-2-0.4-4.4,1.6-6.1C219.1,191.7,225.9,196.2,232.2,201.1z"/>
		<path fill="#B49768" d="M254.6,108.5c-0.9-4.8-4.8-2.4-7.4-3c0.1-4.6,3.4-7.7,5.5-11.4c1.3-2.2,3.4-2.5,5.3-0.2
			c-0.7,5.8-0.8,11.6,0.1,17.4C256.9,110.4,255.7,109.4,254.6,108.5z"/>
		<path fill="#CBB07E" d="M327.9,111.5c1,7.8,2,15.7,3.1,23.5c-2.7,0.2-3.6-1.1-4.3-3.7c-2.2-8.1-3.3-16.3-2.6-24.7
			C325.7,107.9,325.6,110.6,327.9,111.5z"/>
		<path fill="#3D2B1F" d="M312.2,110.1c-0.1,9.4-1.6,12-9.5,15.7c0.2-5.7,2.8-10.4,4-15.5C308.6,110.2,310.4,110.1,312.2,110.1z"/>
		<path fill="#573269" d="M312.2,110.1c-1.8,0.1-3.6,0.1-5.5,0.2c-0.1-4-0.2-8-0.3-12c3.2-0.4,3.8-5.5,7.8-4.3
			C313.6,99.3,312.9,104.7,312.2,110.1z"/>
		<path fill="#CBB07E" d="M353.5,183.8c0,1.5,0,3,0,4.5c-1.8,3.9-3.8,7.7-8.3,9.1c-2.3-0.4-3.4-1.2-2.5-4
			C344.2,187.8,347.9,184.9,353.5,183.8z"/>
		<path fill="#683687" d="M314.3,93.9c-4-1.1-4.7,3.9-7.8,4.3c-0.3-4.8-0.5-9.5-0.8-14.3c2.2-0.7,4.2-0.5,6.3,0.4
			c1.1,2.3,2.3,4.6,3.4,7C315,92.2,314.7,93,314.3,93.9z"/>
		<path fill="#3D2B1F" d="M345.1,197.4c4.5-1.4,6.5-5.2,8.3-9.1c1.4-0.5,1.5-4,3.7-2.3c2,1.5-1.7,3.3-0.5,5.3
			c-1.9,2.9-2,6.9-5.4,8.8c-1,0.5-2,1-3.1,1.6c-2.4-2-4.8,0.2-7.3,0C342.3,200.2,343.7,198.8,345.1,197.4z"/>
		<path fill="#B49768" d="M288.5,123.2c1-2.9,2-5.9,3-8.8c4.2-0.2,6.8,1.7,5.5,5.9C295.7,124.5,292.5,125.8,288.5,123.2z"/>
		<path fill="#573269" d="M327.9,111.5c-2.2-0.9-2.2-3.6-3.8-4.9c0.5-3.7-3-6.2-3-9.8c6.7,2.6,6.2,10.2,10.2,14.6
			C330.1,111.4,329,111.4,327.9,111.5z"/>
		<path fill="#3D2B1F" d="M245.1,111.6c0.1,3.9,0.2,7.8,0.3,11.7c-4.5,2.2-4.3-5.7-8.6-4c0,0,0-0.6,0-0.6c3-1.6,8-1,7.1-6.7
			C244.3,111.8,244.7,111.7,245.1,111.6z"/>
		<path fill="#3D2B1F" d="M266.4,228.1c2.7,3,2.3,6.8,2.5,10.4c-3.2-1.5-7.6-1.3-8.4-6.1C265,234.5,264.9,230.3,266.4,228.1z"/>
		<path fill="#B49768" d="M268,176.4c-0.8-3.9-0.6-7.5,2.3-10.6C271.9,169.8,272.3,173.6,268,176.4z"/>
		<path fill="#CBB07E" d="M249.9,203.1c2.2,2,3.9,3.6,2.3,6.3c-0.2,0.4-1.5,0.7-1.9,0.4C247.7,208.1,248.4,205.9,249.9,203.1z"/>
		<path fill="#B49768" d="M273.3,184.1c-1.9,0-2.3-1.5-2.8-2.9c0.6-0.8,1.3-1.8,2.3-1.1C274.1,181.2,273.6,182.7,273.3,184.1z"/>
		<path fill="#E6E5E1" d="M273.3,160.4c-1.1-0.3-2.2-0.6-3.3-0.9c1-1.8,2.4-3.4,4.4-1.7C275.5,158.7,274.6,159.9,273.3,160.4z"/>
		<path fill="#683687" d="M236.9,118.7c0,0,0,0.6,0,0.6c-0.4,2-1.1,3.7-2.7,5.1c-0.2-1.9-0.6-3.8,0.4-5.6
			C235.3,118.7,236.1,118.7,236.9,118.7z"/>
		<path fill="#100E0D" d="M306,221.8c-0.9,0.2-1.8,0.4-2.7,0.6c-0.1-0.8-0.1-1.5-0.2-2.3c0.5-0.2,1-0.4,1.6-0.6
			C305.2,220.4,305.6,221.1,306,221.8z"/>
		<path fill="#B49768" d="M296.9,155.1c0.1-0.2,0.1-0.5,0.2-0.5c0.2,0,0.4,0.1,0.6,0.2c-0.1,0.2-0.1,0.5-0.2,0.5
			C297.3,155.3,297.1,155.2,296.9,155.1z"/>
		<path fill="#CBB07E" d="M388.7,243.9c12.6-15.6,27.9-25,48.9-21.8c10.5,0.6,18.2-4.3,24.2-12.5c0.6-0.1,1.2-0.1,1.8-0.2
			c3.4,0.7,6.5,0.4,9.3-2c1.3-1,2.7-2,4-3c0,7.8-7,9.5-11.6,13.3c-5.3-0.5-8.1,2-8.9,7.1c-3.3,3.5-6.9,6.4-11.4,8.2
			c-2.3-0.3-4.6-0.7-6.9-1c-12.9-3.7-22.9,2.1-31.7,10.3c-7.6,7-12.3,16.4-17,25.5c-3.9,7.7-11.2,12.9-14.6,20.8
			c-6.9,0.1-11.8,7.9-19.5,5c-2.7,0-6.9,2.4-7.4-1.5c-0.4-3.4,4.1-2,6.5-2.4c0.7-0.1,1.5-0.1,2.2-0.2c3.2-0.7,6.9-1.7,7.9-4.6
			c1.1-2.9-3.9-2.6-4.8-5c-0.1-0.4,0-0.8,0-1.3c4.3-1.7,8.4-3.9,12-6.8c4.5,6.7,5.7,6.9,10.8-0.1c3.8-5.3,6.7-11.2,9.9-16.9
			c2.1-3.7,8.1-8.8-2.8-8.4C389.4,246.4,389,244.7,388.7,243.9z"/>
		<path fill="#723C95" d="M419.5,386c-0.9-1-1.8-2-2.7-2.9c2.1-2.6,2.6-6.7,6-8c12-4.6,18.9-15.2,27.5-23.6
			c11.7-11.4,14.7-35.9,6.8-50.2c-1.9-3.5-1.7-5.8,0.8-9.1c5-6.7,3.6-10.9-4-13.9c-1.1-0.4-2.5-0.3-2.8-1.9
			c-0.3-1.9,1.2-2.4,2.4-3.2c2-1.4,5.9,0.1,6.1-3.9c1.9,0,3.8,0,5.7,0c0.2,22.6,0.3,45.1,0.5,67.7c0,1.8-0.3,3.4-1.6,4.7
			C449.6,356.6,435.3,372,419.5,386z"/>
		<path fill="#683687" d="M445,233c4.5-1.8,8.1-4.7,11.4-8.2c2.3,0.3,3.3,1.6,3.3,3.9c-0.1,5.8,2.2,11.3,1.5,17.2
			c-0.3,2.7-0.3,5.5,3.5,5.8c1.5,3.7,1.5,7.4-0.2,11.1c-8,0.3-16,1.1-23.7,3.5c-0.7-0.1-1.3-0.2-2-0.3c-0.1-0.4-0.3-0.7-0.6-0.9
			c-0.1-0.6-0.2-1.2-0.3-1.8c2.1-0.2,5.2,0.7,5.2-2.5C443.2,251.6,453.6,242.9,445,233z"/>
		<path fill="#723C95" d="M464.8,251.8c-3.8-0.3-3.9-3.2-3.5-5.8c0.7-5.9-1.6-11.4-1.5-17.2c0-2.3-1-3.6-3.3-3.9
			c0.8-5.1,3.6-7.6,8.9-7.1C465.7,229.2,466.6,240.5,464.8,251.8z"/>
		<path fill="#723C95" d="M463.6,209.4c-0.6,0.1-1.2,0.1-1.8,0.2c-1.2-3.1-2.5-6.1-2.2-9.5c0.8-5.7-2-9.8-5.8-13.5c0.5-1,1-2,1.5-3
			c6.2-0.9,9.6,2.2,10.4,7.9C466.6,197.6,466.1,203.7,463.6,209.4z"/>
		<path fill="#996FB5" d="M440.9,266.4c7.7-2.4,15.7-3.2,23.7-3.5c0.9,2,1.2,4.2,0.9,6.4c-1.9,0-3.8,0-5.7,0
			c-6.9-3.2-12.6,2.2-18.9,2.9C440.8,270.2,440.9,268.3,440.9,266.4z"/>
		<path fill="#938F85" d="M476.8,204.5c-1.3,1-2.7,2-4,3c0-1.2-0.2-2.4,0-3.6c0.2-2.1-1.3-5.9,2.3-5.6
			C478.9,198.5,477.3,202,476.8,204.5z"/>
		<path fill="#683687" d="M127.9,269.6c-1.6-0.2-3.2-0.4-4.8-0.5c-0.8-5.3-5.6-4.2-8.9-5.6l0.1,0c-1.6-2.2-3.5-2-5.5-0.8
			c-2.2,0-4.5,0.1-6.7,0.1c0.3-14.5,0.5-29.1,0.8-43.6c6.1-2,8.1,5.2,13.1,5.7c0,0-0.1,0-0.1,0c0.6,0.5,1.2,1,1.8,1.6
			c3.7,3,7.2,6.3,11.8,7.9c3,9.6-0.6,19.6,2,29.2C132,265.7,130.3,268.3,127.9,269.6z"/>
		<path fill="#723C95" d="M108.3,269.4c3.5,5.1,3.4,10.5,1.3,16c-3.2,8.5-2.7,17.3-2.7,26.1c0,2.8,0.9,6.2-3.6,6.7
			c-1.6-16.3-2-32.7,0.8-48.9C105.6,269.3,106.9,269.4,108.3,269.4z"/>
		<path fill="#938F85" d="M108.3,269.4c-1.4,0-2.8-0.1-4.2-0.1c-2.1-1.6-5.3-0.1-7.4-2.4c0.5-3,3.4-3,5.3-4.1c2.2,0,4.5-0.1,6.7-0.1
			c1.8,0.3,3.7,0.5,5.5,0.8c0,0-0.1,0-0.1,0c0.6,0.8,1.2,1.7,1.9,2.5c-1.9,1.1-1.9,2.8-1.7,4.6C112.4,270.2,110.4,269.8,108.3,269.4
			z"/>
		<path fill="#573269" d="M116,225c-5-0.5-7.1-7.7-13.1-5.7c-0.1-1-0.2-2-0.3-3C109.9,214.7,113.7,218.6,116,225z"/>
		<path fill="#683687" d="M245.1,111.6c-0.4,0.1-0.8,0.2-1.2,0.4c-3.2-0.1-6.3-0.2-9.5-0.2c-6.5-6.7-10.4,0.8-15.3,2.8
			c-3.9-0.6-4.8,5.3-8.9,4.2c-3.1-8-9.5-14.1-13.2-21.7c5.8-10,14.2-14.4,26.1-13.7c14.8,0.8,29.8,0.3,44.7,0.4
			c-1.5,5.1-5.3,8.1-9.9,10.3c-1.9-2.2-4-2-5.3,0.2c-2.1,3.6-5.5,6.7-5.5,11.4C246.5,107.5,245.8,109.5,245.1,111.6z"/>
		<path fill="#683687" d="M440.8,272.1c6.3-0.7,12-6,18.9-2.9c-0.3,4.1-4.1,2.6-6.1,3.9c-1.2,0.8-2.7,1.3-2.4,3.2
			c0.3,1.5,1.7,1.4,2.8,1.9c7.6,3,9,7.1,4,13.9c-2.5,3.3-2.7,5.7-0.8,9.1c7.9,14.3,5,38.8-6.8,50.2c-8.6,8.4-15.5,19-27.5,23.6
			c-3.4,1.3-4,5.3-6,8c-8.6-6.9-19.3-3.1-28.8-5.3c14.9-15.4,29.5-31.1,45.7-45.2c7,1.9,11.3-2.2,9.5-10.4c-3-13.3-1-26.5,0.8-39.4
			c1-7-2-6.1-6.1-6c-0.2-1.4-0.4-2.7-0.6-4.1C438.5,272.5,439.7,272.3,440.8,272.1z"/>
		<path fill="#070606" d="M317.9,363.9c-0.2-0.3-0.5-0.7-0.7-1c1,0,1.1,0.4,0.6,1.1C317.7,364,317.9,363.9,317.9,363.9z"/>
		<path fill="#100E0D" d="M127.9,269.6c2.4-1.3,4.1-3.9,3.6-6c-2.6-9.7,0.9-19.7-2-29.2c15.8-5.1,29.9,0.1,41.3,14.9
			c6.1,8,10.1,17.4,17.1,24.7c4.9,4.4,6.1,11.3,10.6,16.1c-3,0.4-6-1.3-9-0.1c-6.2-2.9-9.4-8.2-11.9-14.3
			c-4.6-11.5-7.9-24-19.3-31.4c-4.2-2.8-8.6-4.8-13.8-3.4c-7.6,2-11.1,12.5-6.2,18.5c1.8,2.2,4.3,3.3,7.2,2.6c2.7-0.7,5-2.1,6.2-4.7
			c1-2.1,0.1-3.9-1.1-5.5c-1.6-2.2-3.7-1.8-5.9-0.7c-1.2,0.6-2.9,1.7-3.7-0.2c-0.6-1.4,0.5-2.9,1.7-3.8c3.3-2.6,7.1-2.3,10.5-0.6
			c4.6,2.3,9.1,5.2,11.4,10.1c4.1,8.6,7.7,17.4,11.6,26.1c-5.5-0.8-10.2-4.9-16.1-4.2c-2.9-2.1-5-5.3-8.9-6
			c-6.2-0.1-12.5-0.4-18.7-0.3C130.2,272.1,128.8,271.6,127.9,269.6z"/>
		<path fill="#070606" d="M142.5,192.5c10.9,9.5,22.9,17.2,36,23.3c0.3,3.3-3,5.8-2,9.3c0,5,0,10.2,4.4,13.7c3.8,3,5.9,6.9,7.1,11.5
			c-2.3,0.8-4-0.6-5.7-1.6c-5.5-11.4-15.5-18.2-25.7-24.8c-4.7-3.1-9.8-3.8-15.5-2.3c-3.6,0.9-8.1,3.1-11.5-1.1
			c1.6-9.9,0.7-20.7,9.7-28C140.3,192.6,141.4,192.6,142.5,192.5z"/>
		<path fill="#683687" d="M139.3,192.6c-9,7.3-8.1,18.1-9.7,28c-0.5,0.2-0.9,0.4-1.4,0.6c-2.8-3.5-6-6.3-10.7-6.5
			c0,0-0.1-0.1-0.1-0.1c-0.5-0.4-0.9-0.9-1.4-1.3c-3.8-2.2-7.7-4.4-12.2-4.7c-3.1-7.8-2-15.4,0.6-23.1c7.1-1.5,9.4-9.6,16-11.8
			c1.9,2.3,3.8,4.4,5.5,6.8c2,2.9,3.8,6,8.1,4.3c0,0,0.1-0.1,0.1-0.1C132,189.8,136.9,190.4,139.3,192.6z"/>
		<path fill="#BCA46D" d="M182.2,248.7c1.8,1.1,3.4,2.5,5.7,1.6c3.7,0,5.4,2.1,6,5.5c-0.3,3.6,1.7,5.9,4.5,7.8
			c0.3,2-0.8,4.4,1.6,5.7c2.8,5.2,7.8,7.1,13.1,8.4c1.8,0.4,4.6,0.1,4.3,2.8c-0.3,2.3-2.9,2.1-4.9,2.1c-1.3,0-3.2-1-3.8,0.8
			c-0.7,2,1.2,3,2.5,4c3.1,2.3,6.8,2.4,10.5,2.5c2.6,0.1,5.1,1.5,4.9,3.9c-0.1,1.3-3,2.4-5.5,1c-1.8-1.1-3.9-0.4-3.6,2.6
			c-0.3,2.5-1.6,2.9-4,2.6c-6.7-0.9-11.5-4.5-15.2-9.9c-4.4-4.8-5.6-11.7-10.6-16.1c5.7-1.9,2.6-4.5,0.4-6.6
			C182.5,262.2,180.4,256.2,182.2,248.7z"/>
		<path fill="#573269" d="M117.4,214.7c4.8,0.2,7.9,3,10.7,6.5C122.7,222,120.2,218.2,117.4,214.7z"/>
		<path fill="#573269" d="M117.6,226.5c-0.6-0.5-1.2-1-1.8-1.6C116.4,225.5,117,226,117.6,226.5z"/>
		<path fill="#573269" d="M115.9,213.3c0.5,0.4,0.9,0.9,1.4,1.3C116.8,214.1,116.4,213.7,115.9,213.3z"/>
		<path fill="#100E0D" d="M234.4,111.7c3.2,0.1,6.3,0.2,9.5,0.2c0.9,5.7-4.1,5.2-7.1,6.7c-0.8,0-1.5,0.1-2.3,0.1
			C234.5,116.4,234.5,114,234.4,111.7z"/>
		<path fill="#CBB07E" d="M217.5,217.7c1.9,11.7,7.2,21.7,15.8,29.9c4.7,4.5,7.8,10.3,9.2,16.4c1.7,7.5,4.5,14.3,9.2,20.3
			c-0.8,1.4-2.1,1.7-3.5,1.6c-9.2-4.6-12-14-16.4-22.1c-0.2-0.5,0.1-1.5,0.5-2c4.3-5.8-0.2-8.4-4.2-10.8c-2.1-1.2-4-2.6-5.8-4.3
			c-3.6-6.2-8.9-10.9-15.7-11.8c-6.6-0.9-10.6-3.9-14.1-8.9c-0.5-2-1-4.1-1.6-6.1c3.6-0.3,6.3,1.6,8.9,3.8c-0.2,1.3-4,2.5-0.7,3.5
			c3.2,1,7.5,3.1,9.7-2.1c4.1-2.3,3.8-7,5.8-10.4c0.5,0,1,0,1.5,0l0,0C216.2,215.9,216.2,217.1,217.5,217.7z"/>
		<path fill="#BCA46D" d="M191,220c0.5,2,1,4.1,1.6,6.1c-1.7,1.3-1.4,3.2-1.7,5c-6.2,2,1.9,5.7-1.2,8.3c-7.9-3.9-7.1-12.3-8.7-20
			c-2.4,2.4-1.4,5.7-4.6,5.7c-1-3.5,2.3-6,2-9.3C182.7,217.2,186.8,218.6,191,220z"/>
		<path fill="#573269" d="M138.1,179.2c-3.3-5.8-10.3-7.4-14-12.8c1.2-0.1,2.3-0.3,3.5-0.4c2.1,2.3,4.9,1.2,7.4,1.5
			c1.4,6.4,7,7.9,12,10.2l-0.1,0c0.3,0.8,0.8,1,1.4,0.2c0.6-0.1,1.2-0.2,1.8-0.3l0.2-0.3c-0.1,2.8-1.7,4.7-3.4,6.7
			C143.9,182.4,141,180.8,138.1,179.2z"/>
		<path fill="#3D2B1F" d="M146.8,184c1.7-2,3.3-3.9,3.4-6.7c3.3,1.1,4.1,4.7,6.6,6.6c0.8,3.3,2.9,5.9,4.8,8.7
			C154.6,193.2,151.7,186.9,146.8,184z"/>
		<path fill="#BCA46D" d="M208.9,225.2c-2.2,5.2-6.6,3.1-9.7,2.1c-3.2-1,0.6-2.3,0.7-3.5c2.3,0.4,4.5,0.7,6.8,1.1
			C207.4,224.9,208.1,225.1,208.9,225.2z"/>
		<path fill="#573269" d="M139.3,192.6c-2.4-2.2-7.3-2.8-5.2-7.9c0.3,0,0.6,0,1,0c2.5,2.6,5,5.3,7.5,7.9
			C141.4,192.6,140.3,192.6,139.3,192.6z"/>
		<path fill="#BCA46D" d="M388.7,243.9c0.4,0.9,0.8,2.5,1.1,2.5c10.9-0.4,4.9,4.7,2.8,8.4c-3.2,5.7-6.1,11.7-9.9,16.9
			c-5.1,7-6.3,6.8-10.8,0.1c-1.5-6.8,6.5-9.6,6.7-15.7c-0.9-3,6-5.8,0.2-8.9c0.5-1.5,1.9-2.8,1.4-4.6c0.3-2,1-3.6,2.7-1
			c0.8,1.2,1.2,2.5,2.8,2.7C386.6,244.2,387.6,244,388.7,243.9z"/>
		<path fill="#723C95" d="M438.2,200.2c0.3,0,0.6,0.1,0.9,0c2.8,5.5,8.1,9.5,8.9,16.1c-2.9,3.2-6.6,3.1-10.4,2.9
			C437.6,212.9,436.8,206.5,438.2,200.2z"/>
		<path fill="#573269" d="M437.5,219.2c3.8,0.2,7.6,0.3,10.4-2.9c6.2-0.1,7.5-3.8,7.4-9.1c-0.1-3-1.7-7.4,4.2-7
			c-0.3,3.4,1,6.4,2.2,9.5c-6,8.2-13.7,13.1-24.2,12.5C437.6,221.1,437.5,220.2,437.5,219.2z"/>
		<path fill="#100E0D" d="M380,242.7c0.5,1.8-0.9,3.1-1.4,4.6c-1.5,1.4-2.9,3.1-4.6,4.1c-2.3,1.2-6.2,2-5.1,4.7
			c1.2,3.2,4.9,1.4,7.5,0.6c0.7-0.2,1.4-0.3,2.1-0.5c-0.2,6.1-8.2,8.9-6.7,15.7c-3.6,2.9-7.7,5-12,6.8c0,0.5-0.1,0.9,0,1.3
			c0.9,2.4,5.8,2.2,4.8,5c-1.1,2.9-4.8,3.9-7.9,4.6c-0.7,0.2-1.5,0.1-2.2,0.2c-2.4,0.5-6.9-1-6.5,2.4c0.4,3.9,4.7,1.5,7.4,1.5
			c0.1,1.9-0.9,3.4-2,4.8c-1.6,0.5-2.9,1.3-3.3,3c-4.1,0.8-8.1,1.3-12.3,0.5c-4.3-0.9-8.8-1.1-8.4-7.3c8.2-1.5,10.2-10.4,16.5-14.1
			c0.2-0.1,0.4-0.2,0.6-0.4c-0.2,0-0.4,0.1-0.6,0.1c-1-0.7-2-1.5-3-2.2c0.1-1.2,0.2-2.4,0.4-3.6c0.4-0.3,0.7-0.7,0.9-1.1
			c2.2-1.7,4.6-3.4,4.9-6.5c0-0.4-1-1.4-1.3-1.3c-3.4,0.6-4.1,3.5-4.9,6.2c-0.4,0.7-0.7,1.4-1.1,2.1c-1.3,0.7-1.5,1.9-1.5,3.2
			c-3.8,5.8-8.2,11.1-13.1,16.1c-4.2,0.1-4.3-3.7-5.9-6.1c1.4,0.8,2.9,0.3,4.2-0.2c5.6-2.2,15.2-18.3,14.8-24.9
			c1.4-0.2,2.7-0.5,4.1-0.7c5.6,0.6,11.3,2.1,16.7-2.8c-5.1-1-9.6-0.8-13.3-3.7c0.5-1.5,1-2.9,1.6-4.4c1.8-7.5,5.6-13.7,13.6-14.8
			c7.1-1,12.4-4.4,17.3-9c0.8,0.5,1.5,1,2.3,1.5c-0.9,4.9-4,8.2-7.6,11.4c-1.7,1.5-5.6,2.8-4,5.2c1.9,2.9,4.6,0.5,6.6-1.4
			C377.8,242.7,379.1,242.8,380,242.7z"/>
		<path fill="#E6E5E1" d="M321,287.1c1.6,2.4,1.7,6.2,5.9,6.1c0.8,0.5,1.6,1,2.4,1.5c-0.4,6.2,4,6.3,8.4,7.3
			c4.2,0.9,8.2,0.3,12.3-0.5c7.6,1.2,15,0.9,21.7-3.5c4.4-2.7,10-4.4,10.2-11c4.8-3.5,8.6-7.5,10.7-13.4c2.1-5.9,5.2-11.6,8.2-17.2
			c4.2-7.8,10-14,19.1-15.8c8.9-1.8,16.5,7.1,13.2,15.5c-1.9,5-6.2,6-10.9,4.4c-3.8-1.3-5.8-4.1-3.9-8c2.7-5.5,6.1-1.5,9.1-0.1
			c0.6,0.3,0.9,0.3,1.4-1.5c-0.2-2.5-1.9-4.8-5.5-5.4c-3.9-0.7-7.2,0.6-10.3,2.8c-8.4,5.7-11.8,14.7-14.9,23.8
			c-3.4,3.9-3,9.2-5.3,13.5c-0.3,0.4-0.6,0.8-0.9,1.2c-1.1,0.8-1.7,1.9-1.5,3.3c0,0,0-0.1,0-0.1c-3.4,3.5-6.8,6.9-10.2,10.4
			c-8.1,5.2-16.8,8.7-26.6,9.2c-1.2-2.1-3-2-4.9-1.4c-9.6,0.2-17.6-4.3-25.6-8.9c-0.6-0.6-1.1-1.3-1.7-1.9c-0.8-1-1.5-2-2.3-3
			c-1.2-4-3.8-6.9-7.3-9.1c0-1.5-0.1-3.2,2.2-2.2c1.9,0.9,3.7,2.1,5.6,3.2C319.6,287,320.2,287.3,321,287.1z"/>
		<path fill="#3D2B1F" d="M349,250.3c-0.5,1.5-1,2.9-1.6,4.4c-5,0.2-7.5,1.7-3.4,6.6c-1.4,0.2-2.7,0.5-4.1,0.7c-4-2.7-1.2-5.4,0-8
			C341.8,249.9,345.2,249.6,349,250.3z"/>
		<path fill="#3D2B1F" d="M353.3,225.1c-1,0-2-0.1-3-0.1c1.2-3.4,1.6-7.5,6.8-7.3C355.7,220.1,355.7,223.2,353.3,225.1z"/>
		<path fill="#3D2B1F" d="M351.9,229.4c0.3-0.5,0.6-1,0.9-1.4C353.5,229.1,352.8,229.3,351.9,229.4z"/>
		<path fill="#090806" d="M120.3,173.6c-6.6,2.2-8.9,10.3-16,11.8c-2.6-1.4-0.8-3.1-0.2-4.7c7.3-2.9,6.5-11.8,11.8-16.2
			c2.2,1.3,3.6,3.3,4.7,5.5C120.4,171.3,120.4,172.4,120.3,173.6z"/>
		<path fill="#723C95" d="M428.6,164.5c0.8-2.9,1.4-6,4.6-7.4c3.7,3.8,7.1,7.8,11.1,11.2c2.8,2.4,3.2,6,5.3,8.6
			c-0.5,1.5-1.7,1.2-2.8,1.2c-0.5-1.7-1.9-1.9-3.3-2C441.2,168.9,435.1,166.5,428.6,164.5z"/>
		<path fill="#100E0D" d="M330.7,216c1.9,1.1,4.8,2.4,2.2,4.8c-3,2.7-4-0.6-5-2.8C328.5,216.8,329.4,216.1,330.7,216z"/>
		<path fill="#070606" d="M348.2,201.6c1-0.5,2-1,3.1-1.6C350.6,201.2,350.4,203.3,348.2,201.6z"/>
		<path fill="#723C95" d="M135,167.5c-2.5-0.3-5.3,0.9-7.4-1.5c3-5.8,7.9-9.8,13-13.5c1.9,0.2,3.1,1.1,3.2,3.2
			c-5.7,0.9-5.9,4.4-4.3,8.9c-1.2,0.6-1.4,1.7-1.4,2.9C137,167.5,136,167.5,135,167.5z"/>
		<path fill="#683687" d="M428.6,164.5c6.4,2,12.6,4.4,14.9,11.7c-1.2,3.2-4.4,4.2-6.7,6.1c-2.1,1.7-5.6,2.3-4.9,6.2
			c0,0,0.1,0,0.1,0c-2.1-0.1-4.3-0.2-6.4-0.2c-1.4-1.4-2.9-2.8-4.3-4.2c0.5-3.3,5.7-3,5.4-6.9c-2.5-2-4.5,1-6.8,0.5
			c-2.8-1.9-3.1-3.9-0.2-6.1C422.7,169.3,425.6,166.9,428.6,164.5z"/>
		<path fill="#CBB07E" d="M401.7,199.9c-0.8,0-1.6,0-2.5,0c-0.7-2.7-1.3-5.5-2-8.2c5-3.7,10-7.4,15.1-11.1c1.6,0.7,2.9,1.8,3.4,3.5
			C409.2,187.8,406.8,195,401.7,199.9z"/>
		<path fill="#996FB5" d="M415.7,184.1c-0.5-1.8-1.8-2.8-3.4-3.5c0.5-0.5,1-1,1.5-1.5c2.2,0.5,4.2-0.3,6-1.5
			c2.3,0.5,4.4-2.4,6.8-0.5c0.2,3.9-4.9,3.7-5.4,6.9C419.4,184.1,417.6,184.1,415.7,184.1z"/>
		<path fill="#683687" d="M166.7,146.7c3-0.6,5.1,0.4,6.6,3.5C169.6,151.2,168,149.2,166.7,146.7z"/>
		<path fill="#683687" d="M163.9,143.5c-0.2,0.4-0.3,0.8-0.5,1.2c-0.4-0.2-1-0.3-1.1-0.6c-0.1-0.3,0.3-0.8,0.5-1.2
			C163.1,143.2,163.5,143.4,163.9,143.5z"/>
		<path fill="#683687" d="M158.8,139.9c0,0.2,0.1,0.3,0.1,0.5c-0.2,0.1-0.4,0.2-0.6,0.1c-0.1,0-0.1-0.3-0.2-0.5
			C158.4,140,158.6,140,158.8,139.9z"/>
		<path fill="#CBB07E" d="M156.8,183.9c-2.5-1.9-3.3-5.5-6.6-6.6c0,0-0.2,0.3-0.2,0.3c0.1-2.2-1.7-2.9-3.1-4c0,0-0.1-0.2-0.1-0.2
			c-0.1-0.4-0.2-0.8-0.4-1.2c0.2-1.4,0.3-2.8,0.5-4.2c1,0.2,2,0.4,3,0.6c2.3,1.2,4.5,2.4,6.8,3.6c1.7,2.2,3.4,4.4,5.1,6.6
			C161.5,181.9,160,183.7,156.8,183.9z"/>
		<path fill="#573269" d="M431.9,188.5c-0.7-3.9,2.8-4.5,4.9-6.2c2.3-1.9,5.5-2.9,6.7-6.1c1.4,0.1,2.8,0.3,3.3,2
			C442.9,183.2,437.3,185.8,431.9,188.5z"/>
		<path fill="#683687" d="M400.8,153c-0.1-1-0.3-2.1-0.4-3.1c1.6-6.4,9.8-6.2,12.1-11.9c2.2,1.8,5.3,2.6,5.8,6.1
			C411.4,144.8,408.1,152.7,400.8,153z"/>
		<path fill="#CBB07E" d="M218.2,196.5c1.3,1.9,2.6,3.7,3.9,5.6c0.9,4.7,1.4,9.4,1,14.1c-2.3-0.5-4.7-0.9-7-1.4c0,0,0,0,0,0
			c0.4-1.5,2.3-3,0-4.4C217.1,205.8,214.1,200.6,218.2,196.5z"/>
		<path fill="#BCA46D" d="M216.1,210.3c2.3,1.5,0.4,3,0,4.4c-0.5,0-1,0-1.5,0C214.7,213.2,214.4,211.4,216.1,210.3z"/>
		<path fill="#573269" d="M120.3,173.6c0.1-1.2,0.2-2.4,0.2-3.6c4.6,4.7,9.6,9.1,13.4,14.6c-4.4,1.7-6.1-1.4-8.1-4.3
			C124.1,178.1,122.1,175.9,120.3,173.6z"/>
		<path fill="#BCA46D" d="M397.3,191.7c0.7,2.7,1.3,5.5,2,8.2c-6.2,0.9-10.3,0-7.1-7.7C393.9,192,395.6,191.9,397.3,191.7z"/>
		<path fill="#683687" d="M149.9,168.6c-1-0.2-2-0.4-3-0.6c-1.7-2.9-4.6-3.1-7.5-3.5c-1.6-4.4-1.3-8,4.3-8.9
			C148.1,158.9,151.7,162.5,149.9,168.6z"/>
		<path fill="#BCA46D" d="M191,164.7c0.5-0.6,1-1.1,1.5-1.7c1,0.2,2,0.4,3,0.5C194.7,166.4,193.2,166.8,191,164.7z"/>
		<path fill="#683687" d="M459.6,200.1c-5.9-0.4-4.3,4.1-4.2,7c0.1,5.3-1.3,9.1-7.4,9.1c-0.8-6.5-6.1-10.6-8.9-16.1
			c5.3-4.1,7.8-11.2,14.7-13.6C457.5,190.4,460.4,194.4,459.6,200.1z"/>
		<path fill="#BCA46D" d="M199.9,169c-0.2-0.1-0.4-0.2-0.6-0.3C199.5,168.8,199.7,168.9,199.9,169C199.9,169,199.9,169,199.9,169z"
			/>
		<path fill="#100E0D" d="M311.7,285.2c3.5,2.2,6,5.1,7.3,9.1c-5.3-0.4-5.2,4.2-6.7,7.2c-0.5,1-1.4,2.4,0.3,3
			c1.4,0.5,3.3,0.6,3.5-1.3c0.3-3.4,1.8-5.4,5.2-5.9c0.6,0.6,1.1,1.3,1.7,1.9c-0.1,0.8-0.3,1.6-0.4,2.4c-6.2,0.9-3,5.2-3.1,8.3
			c-5.7,2-9.9-0.5-13.9-4.2c-5.3-4.9-11.3-6.9-18.1-2.8c-1.2,0.7-2.7,1.9-4.1,0.9c-8.1-6.1-14.7-2.1-21.3,2.7
			c-0.5-0.6-1-1.2-1.5-1.8c0.3-3.8-3.1-6-4.1-9.3c1-2.1,0.5-3.6-1.9-4.1c0.3-3.1,1.9-5.3,4.4-7c1.5,3.4-0.8,8,3.9,10.4
			c1.6,0.8,2.3,0.6,3.8,0c2.8-1.2,0.3-1.5,0-2.4c-1-3,0.7-4,3.4-3.7c3.8,0.4,6.6,2.6,9.2,5.3c3.7,3.9,7.6,3.8,11.6,0.3
			c1.6-1.4,3.4-2.8,5.1-4.1c2.4,0.1,2.9,1.9,3.5,3.7c3.1,3.7,3.4,3.7,8.5-0.5c2.3-2.3,1.2-5.1,1.1-7.7
			C310,285.5,310.8,285.3,311.7,285.2z"/>
		<path fill="#BCA46D" d="M322.4,340.4c-0.9,0.1-1.9,0.1-2.8,0.2c-0.3-11.4,9.5-20.9,21.2-20.7c-1.3,2.8,0.6,3.1,2.6,3.8
			c6.8,2.7,13.5,0.8,20.2-0.4c1.1,2.7,2.1,5.4,3.2,8.1c-7,5-13.8,10.1-22.8,3.7c-1.7-1.2-5.3-2.5-5.7,2.1c-2.9,0-5.9-0.2-8.8,0
			C326.8,337.5,323.2,335.8,322.4,340.4z"/>
		<path fill="#BCA46D" d="M391.6,286.7c0.3-0.4,0.6-0.8,0.9-1.2c4.9-2,5.8-6.5,6.5-10.9c13.1-1.5,24.3-12.2,38.5-8.4l0.6,0.2
			l0.6-0.2c0.7,0.1,1.3,0.2,2,0.3c0,1.9,0,3.8-0.1,5.7c-1.2,0.2-2.3,0.4-3.5,0.6c-4.4-1-8.2-0.2-11.3,3.5c-2,2.3-4.5,4-7.6,4.2
			c-10.7,0.4-18.9,6.1-26.5,12.7c-1.4-0.6-1.6-1.9-1.8-3.2c0,0,0,0.1,0,0.1C391.7,289.3,391.8,288,391.6,286.7z"/>
		<path fill="#CBB07E" d="M366.7,331.5c-1.1-2.7-2.1-5.4-3.2-8.1c12.4-3.8,24.7-8,37.2,0.1c3.5,2.3,7.4-2.5,12.1-0.3
			c-3.9,4.6-7,8.3-14.4,6C387.8,325.9,377.1,328.3,366.7,331.5z"/>
		<path fill="#723C95" d="M437.9,276.8c4.1-0.1,7.1-1,6.1,6c-1.8,13-3.7,26.1-0.8,39.4c1.8,8.1-2.5,12.2-9.5,10.4
			c3.5-4.2,4-9,4-14.3C437.5,304.5,437.8,290.6,437.9,276.8z"/>
		<path fill="#CBB07E" d="M340.8,319.9c-11.7-0.2-21.4,9.3-21.2,20.7c-1.9,0.9-3.9,3-5.9,1c-1.4-1.5-0.7-3.8-0.1-5.7
			c1.2-4.1,3.1-7.9,6.4-10.6c7.2-5.9,12.6-15.1,24.2-13.3c1.9,0.3,5.5,0.2,4.3-3.9c1.9-0.6,3.7-0.8,4.9,1.4c0,1.2,0,2.4,0,3.7
			C349.2,315.4,345,317.6,340.8,319.9z"/>
		<path fill="#CBB07E" d="M322.4,340.4c0.8-4.5,4.4-2.8,7.1-3c2.9-0.2,5.9,0,8.8,0c6.4,9.1,16.8,10.1,26.5,13
			c-9.4,1.6-18.8,4.7-26.3-3.7C334.1,341.7,327.9,342,322.4,340.4z"/>
		<path fill="#BCA46D" d="M353.4,313.1c0-1.2,0-2.4,0-3.7c9.7-0.5,18.4-4,26.6-9.2c3.5,1.9,6.4,0.4,9.1-1.8
			c3.7,1.6,7.2-2.8,12.1,0.1C386.1,308.2,368.8,307.9,353.4,313.1z"/>
		<path fill="#573269" d="M309,347.3c-0.8,0.1-1.6,0.2-2.4,0.3c-3.4-13.1,0.7-25.5,11.7-28.1C308.6,327.9,307.2,337.2,309,347.3z"/>
		<path fill="#CBB07E" d="M284.4,355.2c-2.9-1.1-9.1,2-9-2c0.2-5.9,5.6-0.8,8.7-1.5c0.7-0.1,1.3-0.9,1.9-1c2.2-0.2,4.7-1.9,6.6,0.7
			c0.5,0.7,1.2,2.1,0.9,2.4c-1.8,2.3-4.4,1.1-6.7,1.3C286.2,355.2,285.4,355.2,284.4,355.2z"/>
		<path fill="#E6E5E1" d="M300.2,317.6c2.6,0.7,5.2,1,4.8,3.9c-0.4,3.3-2,6.3-5.1,7.3c-2.7,0.9-2.1-2-1.9-3.4
			C298.3,322.7,296.4,319.1,300.2,317.6z"/>
		<path fill="#E6E5E1" d="M271.7,330.8c-5-3.4-8.2-6.1-8.1-10.5c0.1-1.7,3.3-2.9,4.8-2.1C273.3,320.9,269.8,325.6,271.7,330.8z"/>
		<path fill="#EFEEEF" d="M275.1,316.2c5-3.9,10-3,15-2.2c1.3,0.2,3.1,0.8,3,2.6c-0.1,2.1-1.9,1.9-3.3,1.6
			C285.2,317.4,280.2,319.6,275.1,316.2z"/>
		<path fill="#E6E5E1" d="M272.3,342c-0.8,4.9,1.9,8.8-2.2,11.2c-1.5,0.9-3.2-0.9-3.8-2.5C264.8,346.2,268,344.8,272.3,342z"/>
		<path fill="#B49768" d="M389,298.5c-2.7,2.2-5.6,3.7-9.1,1.8c3.4-3.5,6.8-6.9,10.2-10.4c0.2,1.3,0.5,2.6,1.8,3.2
			C391.7,295.3,387.8,295.5,389,298.5z"/>
		<path fill="#E6E5E1" d="M295.5,346.5c0-1.7-0.4-3.8,1.7-3.4c2.8,0.5,3.3,3.2,3.4,5.7c0.1,2-0.5,4.9-2.4,4.5
			C294.1,352.7,297.1,348.5,295.5,346.5z"/>
		<path fill="#3D2B1F" d="M319.4,310c0.1-3.1-3.1-7.5,3.1-8.3c2.2,3.1-1,6.1-0.1,9.2C321.4,310.5,320.4,310.2,319.4,310z"/>
		<path fill="#938F85" d="M114.5,270.8c0.4,0.4,0.9,0.9,1.3,1.3C115.4,271.7,115,271.2,114.5,270.8z"/>
		<path fill="#100E0D" d="M356.7,478.7c0.2,0.2,0.4,0.3,0.6,0.5c1.3,0.8,2.6,1.6,3.9,2.5c0.4,0.6,0.8,1.2,1.2,1.8
			c-7.6,1.6-12.3-3.7-17.9-7.1c-2.9-2.5-7.1-1.2-10.1-3.3c0.1-3.3,3.6-6.6,0.5-9.7c-2.2-2.3-5.2-2.6-8-0.6c-2.6,0-5.2,0.2-7.4-1.5
			c0.1-0.9,0.3-1.9,0.4-2.8c9-1,17.7-0.3,25.9,3.9c3.7,1.4,7.2-0.9,10.8-0.8c1.8,0.1,3.6,0.5,4,2.5c0.4,2.3-1.8,2.5-3.3,3.2
			c-0.4,0.2-0.9,0.2-1.4,0.4c-3.2,1.2-8.8-0.9-9.4,2.7c-0.6,3.2,5.2,4.3,7.8,6.8C354.9,477.8,355.9,478.2,356.7,478.7z"/>
		<path fill="#683687" d="M298.5,510.4c-4-1.8-4.2-5.9-5.8-9.2c2-2,4-4,6.1-6c1.4,0,2.8,0,4.2,0c0.6,1.5,1.2,3,1.7,4.4
			c-3.1,1.7-5.4,3.7-2.9,7.5C300.7,508.2,299.6,509.3,298.5,510.4z"/>
		<path fill="#573269" d="M319.5,461.2c2.2,1.7,4.8,1.5,7.4,1.5c0.5,2.4,1,4.7,1.4,7.1c-3,0.5-5.8-0.3-8.6-1.4
			C320.4,466,317.1,463.7,319.5,461.2z"/>
		<path fill="#573269" d="M312.2,470.1c-5.1,0.7-7.2-4-10.7-6C306.6,463.3,310.5,464.6,312.2,470.1z"/>
		<path fill="#723C95" d="M303,495.2c-1.4,0-2.8,0-4.2,0c0-1.5,0.1-3,0.1-4.4c1.1,0,2.3,0.1,3.4,0.1
			C302.6,492.3,302.8,493.7,303,495.2z"/>
		<path fill="#723C95" d="M250.3,484.7c0.1-1.4,0.1-2.9,0.2-4.3c2.4,0.3,3.7,1.6,4.1,3.9C253.2,484.4,251.7,484.6,250.3,484.7z"/>
		<path fill="#573269" d="M313.7,470c0.4,1,0.9,2,1.3,3c-2.1,0.1-3.1-0.9-2.9-3C312.7,470,313.2,470,313.7,470z"/>
		<path fill="#996FB5" d="M250.3,465.7c-1.2-0.2-2.5,0-3.2-1.3c0.1-1,0.1-2.1,0.2-3.1c-0.6-2-1.1-4-1.7-6c1.9-1.2,4.4-1.9,4.6-4.8
			c2.5-2.6-0.6-3.7-1.5-5.3c0-2.8,0-5.6,0-8.4c1.4,0.2,2.8,0.5,4.3,0.7c0.6,0.2,1.2,0.3,1.7,0.5c0.4,0.7,0.6,1.9,1.1,2.1
			c1.1,0.4,1.3-0.8,1.5-1.6c0.9-0.2,1.9-0.5,2.8-0.7c3.6,2.3,3.2,5.4,2.1,9C259.8,453.9,254.9,459.7,250.3,465.7z"/>
		<path fill="#090806" d="M242,386c0.2,0.3,0.4,0.6,0.4,1c0,0.1-0.3,0.3-0.4,0.5c-0.2-0.3-0.4-0.6-0.4-1
			C241.5,386.3,241.8,386.2,242,386z"/>
		<path fill="#070606" d="M263.1,387.2c0.4-0.6,0.5-1.9,1.7-1.2c1,0.7,0,1.5-0.3,2.2C264,387.9,263.6,387.5,263.1,387.2z"/>
		<path fill="#100E0D" d="M190.9,231c0.2-1.8-0.1-3.7,1.7-5c3.5,4.9,7.5,8,14.1,8.9c6.8,0.9,12.1,5.7,15.7,11.8
			c-0.8,3,1.2,5.5,1.4,8.3c-3.5,2.7-8.2,1.7-12.6,3.8c4,3.5,8.3,2.8,12.3,3.6c-1.6,6.7,4.5,10.4,6,15.9c-2.1,1.5-3.2,3.1-0.1,4.6
			c3.3,1.6,5.2,4.7,7.4,7.3c-0.1,3.6,7.6,0.6,5.2,6c-1.6,3.7-13.1,8.2-16.6,6.5c-1.5-0.7-2.9-1.7-4.6-2c-0.4-1.6-1.7-2.6-3-3.4
			c-0.4-3,1.7-3.7,3.6-2.6c2.5,1.5,5.4,0.4,5.5-1c0.2-2.4-2.4-3.8-4.9-3.9c-3.7-0.1-7.4-0.2-10.5-2.5c-1.3-1-3.2-2-2.5-4
			c0.6-1.8,2.5-0.8,3.8-0.8c2,0,4.6,0.2,4.9-2.1c0.3-2.6-2.5-2.3-4.3-2.8c-5.3-1.3-10.3-3.1-13.1-8.4c0.4-0.3,0.7-0.7,1.1-0.9
			c2.5-1,6.7,3.9,7.3-0.5c0.6-4.5-4.8-3.4-7.9-4.2c-0.7-0.2-1.5-0.1-2.2-0.1c-2.8-1.9-4.7-4.2-4.5-7.8c2,0.8,4,1.6,6.1,2.3
			c1.5,0.6,2.9,0.5,3.8-1c0.9-1.7-0.2-2.8-1.4-3.6c-2-1.4-4.1-2.6-6-4.1c-2.5-1.9-5.3-3.9-4.6-8.3c3.1,1.7,5.6,3.3,8.2,4.5
			c1.4,0.7,3.3,2.2,4.5,0.2c1.2-2-1.1-2.9-2.3-3.9C198.2,238.5,192.7,236.7,190.9,231z"/>
		<path fill="#CBB07E" d="M296,290.1c-1.7,1.4-3.4,2.7-5.1,4.1c-4,3.5-7.9,3.6-11.6-0.3c-2.6-2.7-5.4-4.8-9.2-5.3
			c-2.7-0.3-4.4,0.7-3.4,3.7c0.3,0.9,2.8,1.2,0,2.4c-1.5,0.6-2.3,0.8-3.8,0c-4.7-2.4-2.3-7.1-3.9-10.4c-0.2-0.5-0.2-0.9-0.2-1.4
			c8.7,1.5,14.1-3.8,19.4-9.4c1.5-0.9,3-1.7,4.6-2.6c1.4,0,2.7,0,4.1-0.1c2.4,0.6,4.4,2.8,7.2,1.6c0.5,1.4,1,2.7,1.5,4.1
			c-5.3,0.3-10.9-0.6-15.4,3.5c-1.7,1.5-5.4,1.5-4.3,4.9c0.8,2.5,3,4.6,5.9,5c2.9,0.3,6,0.9,8.5-1.2c2.4-1.9,5-1.7,7.7-1.3
			C297.4,288.3,296.7,289.2,296,290.1z"/>
		<path fill="#3D2B1F" d="M229.5,278.4c-1.5-5.5-7.6-9.3-6-15.9c2.6-1.1,6.1-1.8,5.6-5.4c-0.4-3-3.3-1.9-5.3-1.9
			c-0.2-2.8-2.2-5.3-1.4-8.3c1.8,1.6,3.7,3,5.8,4.3c4,2.3,8.5,5,4.2,10.8c-0.4,0.5-0.8,1.5-0.5,2c4.4,8.1,7.1,17.5,16.4,22.1
			c0.9,2.6,0.4,4.4-2.4,5.6c-3,1.2-3.4-1.4-4.8-2.7c-2-3-4.8-5.4-5.9-9C234,276.6,232,276.4,229.5,278.4z"/>
		<path fill="#B49768" d="M217.7,297.3c1.3,0.9,2.6,1.8,3,3.4c-2.8,4-7.3,3.1-10.7,2.4c-8.3-1.7-16.2-4.9-20.5-13.2
			c3-1.2,6,0.4,9,0.1c3.7,5.4,8.5,9,15.2,9.9C216.1,300.3,217.4,299.9,217.7,297.3z"/>
		<path fill="#CBB07E" d="M229.5,278.4c2.5-2,4.5-1.7,5.5,1.4c1.1,3.6,3.9,6,5.9,9c-1.7-0.2-3.4-0.6-4.1,1.6
			c-2.3-2.7-4.1-5.7-7.4-7.3C226.3,281.5,227.4,279.9,229.5,278.4z"/>
		<path fill="#100E0D" d="M252.9,437.4c-1.4-0.2-2.8-0.5-4.3-0.7c-8-6.4-9.9-6.1-12,1.8c-4.1,2.4-7.7-1.3-11.6-1
			c-0.5-0.5-1-1-1.5-1.5c-0.5-1.4-1-2.7-1.5-4.1c2.5,0.1,5.5,0.1,6.2-2.6c0.7-2.6-2.6-3.1-4.2-4.5c-1.1-1-2.4-1.8-3.2-3
			c-0.9-1.3-2.5-2.9-0.7-4.5c1.5-1.4,3.3-0.5,4.6,0.7c2.9,2.4,4.1,6.9,8.7,7.4c6.5,1.3,13.1,2.1,17.7,7.8
			C252.3,434.4,253.4,435.6,252.9,437.4z"/>
		<path fill="#3D2B1F" d="M222.1,431.9c0.5,1.4,1,2.7,1.5,4.1c-3.6,0.5-7.1,0.9-11.3,1.5c0-4,1.6-6.4,5.4-7.2
			C219.1,430.8,220.6,431.3,222.1,431.9z"/>
		<path fill="#BCA46D" d="M237.4,417.2c-0.6,0.9-1.3,1.9-1.9,2.8c-1.2-0.2-2.5-0.1-3.4-0.6c-1.5-0.9-2.7-2.6-1.9-4.1
			c1-1.9,2.8-0.9,4.2,0.1C235.4,416,236.4,416.6,237.4,417.2z"/>
		<path fill="#683687" d="M245.5,455.2c0.6,2,1.1,4,1.7,6c-5,0-7.9,3.2-10.4,7c-1.5,0.1-3,0.2-4.4,0.4
			C230.5,455.1,230.5,455.1,245.5,455.2z"/>
		<path fill="#3D2B1F" d="M216.2,460c1.4-0.7,2.6-2,4.4-1.8C220.1,461.5,218.6,462,216.2,460z"/>
		<path fill="#B49768" d="M227.9,449.2c0.5-0.7,1-0.7,1.5,0C228.9,449.2,228.4,449.2,227.9,449.2z"/>
		<path fill="#3D2B1F" d="M202.8,466.2c0-0.6-0.1-1.3-0.1-1.9c0.5,0.4,1.1,0.9,1.6,1.3C203.8,465.8,203.3,466,202.8,466.2z"/>
		<path fill="#3D2B1F" d="M317.9,522.9c0.7-3-2.1-4.8-3.1-7.8c3-0.8,5.4-0.4,7.8,1.1c-3.9,3,1.5,4,1.3,6.7
			C321.9,522.9,319.9,522.9,317.9,522.9z"/>
		<path fill="#723C95" d="M301.8,507.2c-2.5-3.8-0.2-5.8,2.9-7.5C308.7,504,309.8,507.3,301.8,507.2z"/>
		<path fill="#100E0D" d="M362.2,483.3c0.8,0.6,0.6,1.2,0,1.8C362.2,484.5,362.2,483.9,362.2,483.3z"/>
		<path fill="#070606" d="M315.2,474.4c1.1,0.2,2.7-0.4,2.9,1.5C316.3,477,315.6,476.1,315.2,474.4z"/>
		<path fill="#070606" d="M215.1,485.1c1.6,0.3,3.4,0.3,2.6,2.8c-0.9-0.1-1.9-0.1-2.8-0.2C214.9,486.8,215,485.9,215.1,485.1z"/>
		<path fill="#BCA46D" d="M215.1,485.1c-0.1,0.9-0.1,1.8-0.2,2.7c-0.5,0-1.1,0.1-1.6,0.1c0-1,0-2,0-3
			C213.9,484.9,214.5,485,215.1,485.1z"/>
		<path fill="#573269" d="M116.1,266c-0.6-0.8-1.2-1.7-1.9-2.5c3.3,1.3,8.1,0.2,8.9,5.6C120.3,269.2,118.2,267.6,116.1,266z"/>
		<path fill="#723C95" d="M257.2,438.3c-0.2,0.8-0.3,2-1.5,1.6c-0.5-0.2-0.8-1.3-1.1-2.1C255.5,438,256.4,438.2,257.2,438.3z"/>
		<path fill="#573269" d="M236.9,468.1c2.5-3.8,5.4-7,10.4-7c-0.1,1-0.1,2.1-0.2,3.1C244.3,467.3,240.7,467.9,236.9,468.1z"/>
		<path fill="#996FB5" d="M328.3,469.8c-0.5-2.4-1-4.7-1.4-7.1c2.8-2.1,5.8-1.7,8,0.6c3,3.2-0.5,6.4-0.5,9.7c-2.2,0-4.4,0.3-6.1-1.4
			C328.2,471,328.2,470.4,328.3,469.8z"/>
		<path fill="#B49768" d="M256.5,295.5c0.9,3.3,4.4,5.5,4.1,9.3C254,304,254.1,300.2,256.5,295.5z"/>
		<path fill="#BCA46D" d="M298.1,287.4c-2.7-0.3-5.3-0.6-7.7,1.3c-2.6,2-5.6,1.5-8.5,1.2c-2.9-0.3-5.1-2.5-5.9-5
			c-1.1-3.3,2.7-3.4,4.3-4.9c4.5-4,10-3.2,15.4-3.5c2.1,2.1,4.2,4.1,6.2,6.2c-0.9,1.4-3.1,2-2.8,4.2
			C298.9,287.4,298.6,287.5,298.1,287.4z"/>
		<path fill="#BCA46D" d="M310.6,242.8c5-4.5,11.1-5.7,17.6-5.7c1.8,0,5.4-1.5,5.2,1.6c-0.2,3.1-4.9,7-6.2,6
			c-6.3-5.5-11.1,1.8-16.6,1.1C310.6,244.7,310.6,243.8,310.6,242.8z"/>
		<path fill="#B49768" d="M286.9,270.9c-1.4,0-2.7,0-4.1,0.1c-2.7-2.4-3.5-5.5-3.7-8.9c0.6-1.1,1.2-2.2,1.9-3.3
			c3.5-0.6,6.9-0.3,10.1,1c0.1,0.4,0.3,0.7,0.6,1C291,264.6,289.2,267.9,286.9,270.9z"/>
		<path fill="#573269" d="M286.9,270.9c2.3-3,4.2-6.3,4.9-10.1c8.6,4.7,9,6.5,2.4,11.7C291.3,273.7,289.3,271.5,286.9,270.9z"/>
		<path fill="#E6E5E1" d="M322.4,251.6c0,3.7-8.7,8.9-11.9,7.1c-1-0.6-2.5-1.7-1.4-2.8c3.3-3.2,7.2-5.7,11.9-6.4
			C322.1,249.4,322.4,250.5,322.4,251.6z"/>
		<path fill="#E6E5E1" d="M299.1,287c-0.4-2.3,1.9-2.8,2.8-4.2c2.9-0.4,5.2,0.9,7.2,2.9c0.1,2.6,1.2,5.4-1.1,7.7
			c-0.9-0.2-1.7-0.3-2.6-0.5C306.2,287.8,303.4,286.6,299.1,287z"/>
		<path fill="#100E0D" d="M291.1,259.8c-3.3-1.3-6.7-1.7-10.1-1c0.1-1.2,0.4-2.2,1.6-2.7c2.4,0,4.7-0.1,7.1-0.1
			C291.3,256.8,291.4,258.2,291.1,259.8z"/>
		<path fill="#100E0D" d="M299,226.6c-0.3,2.4-0.6,4.9-0.9,7.3C294.1,231,295.5,228.7,299,226.6z"/>
		<path fill="#100E0D" d="M310.6,242.8c0,1,0,1.9,0.1,2.9c0.1,2.5-1.2,2.4-2.9,1.6l-0.1-0.1C307.6,245.1,307.6,242.9,310.6,242.8z"
			/>
		<path fill="#100E0D" d="M293,228.1c0-2.2-0.2-4.5,2.9-4.9C296,225.5,295.1,227.1,293,228.1z"/>
		<path fill="#100E0D" d="M302.4,241.4c-0.6-1.3-0.6-2.4,1.1-2.9C305.4,240.3,304.2,240.9,302.4,241.4z"/>
		<path fill="#100E0D" d="M307.7,247.3c-0.4,0.8-0.7,1.6-1.1,2.3c-0.3-0.2-0.6-0.4-0.9-0.6C306.4,248.4,307,247.8,307.7,247.3
			C307.6,247.2,307.7,247.3,307.7,247.3z"/>
		<path fill="#BCA46D" d="M309.1,233c0.3-1.5,1.3-2,2.7-2.1c-0.1,0.5-0.1,1-0.2,1.6c-0.6,0-1.3,0.1-1.9,0.1
			C309.6,232.9,309.4,233,309.1,233z"/>
		<path fill="#CBB07E" d="M309.7,232.6c0.6,0,1.3-0.1,1.9-0.1C311,234.1,310.4,233.6,309.7,232.6z"/>
		<path fill="#CBB07E" d="M262.6,245.3c-3.5,0.7-5.8-1.1-8.3-2c-2.9-1.1-5.7-3-8.6,0.3c-1.6,1.9-3.1,0.2-4.2-1
			c-0.8-0.9-2-1.7-1.6-3.1c0.7-1.9,2.5-1.3,3.8-1.2C250.6,238.8,258.8,236,262.6,245.3z"/>
		<path fill="#E6E5E1" d="M251.6,248.6c5,2.4,9.1,4,12.1,7.3c0.8,0.9,0.3,1.9-0.6,2.4c-3,1.7-5.7,0.5-8.1-1.2
			c-2.2-1.5-4.5-3.2-4.4-6.2C250.5,250.1,251.3,249.3,251.6,248.6z"/>
		<path fill="#573269" d="M279.2,262.1c0.1,3.4,1,6.5,3.7,8.9c-1.5,0.9-3,1.7-4.6,2.6c-2.4-1.9-7-2-6.7-5.8
			C271.8,263.8,276,263.2,279.2,262.1z"/>
		<path fill="#B49768" d="M216.1,214.8c2.3,0.5,4.7,0.9,7,1.4c1.7,3.2,3.6,6.3,2.9,10.3c-5-1.1-4.6-7-8.5-8.8
			C216.2,217.1,216.2,215.9,216.1,214.8z"/>
		<path fill="#BCA46D" d="M262,188.1c0.2,0.3,0.4,0.6,0.6,0.9c-0.3-0.2-0.6-0.5-0.8-0.7C261.8,188.3,262,188.1,262,188.1z"/>
		<path fill="#3D2B1F" d="M279.8,112.9c1.7-0.4,3.5-0.9,5.2-1.3c0.1,0.5,0.4,0.9,0.4,1.4c-0.2,3,1.8,8-2.6,8.1
			C278.1,121.1,279.8,116.1,279.8,112.9z"/>
		<path fill="#100E0D" d="M437.6,266.1c-14.3-3.8-25.4,6.9-38.5,8.4c-0.4-0.9-0.8-1.7-1.2-2.6c3.1-9.1,6.5-18,14.9-23.8
			c3.1-2.1,6.4-3.5,10.3-2.8c3.7,0.7,5.3,2.9,5.5,5.4c-0.5,1.8-0.8,1.8-1.4,1.5c-3.1-1.4-6.4-5.3-9.1,0.1c-1.9,3.9,0.1,6.7,3.9,8
			c4.7,1.6,9,0.6,10.9-4.4c3.2-8.4-4.3-17.3-13.2-15.5c-9.1,1.8-14.9,8.1-19.1,15.8c-3,5.6-6.1,11.2-8.2,17.2
			c-2.1,5.8-5.9,9.9-10.7,13.4c-2.3,0.5-4.6,1.1-6.9,1.6c3.5-7.9,10.7-13.2,14.6-20.8c4.7-9.1,9.4-18.5,17-25.5
			c8.8-8.1,18.8-13.9,31.7-10.3c-1.6,10.5,2.3,20.9,0,31.4c0.1,0.6,0.2,1.2,0.2,1.8C437.9,265.4,437.7,265.7,437.6,266.1z"/>
		<path fill="#723C95" d="M438,263.4c2.4-10.5-1.5-20.9,0-31.4c2.3,0.3,4.6,0.7,6.9,1c8.6,9.8-1.8,18.6-1.7,27.9
			C443.3,264.1,440.1,263.3,438,263.4z"/>
		<path fill="#BCA46D" d="M374.8,288.7c2.3-0.5,4.6-1.1,6.9-1.6c-0.2,6.6-5.7,8.3-10.2,11c-3.3-3.6-6.1,0.4-9.1,0.6
			c-3.1,0.2-6.2,3.8-9.2-0.2c1.1-1.4,2.1-2.9,2-4.8C362.9,296.6,367.8,288.7,374.8,288.7z"/>
		<path fill="#723C95" d="M437.6,266.1c0.1-0.4,0.3-0.7,0.7-0.9c0.3,0.2,0.5,0.5,0.6,0.9c0,0-0.6,0.2-0.6,0.2L437.6,266.1z"/>
		<path fill="#573269" d="M114.3,263.6c-1.8-0.3-3.7-0.5-5.5-0.8C110.8,261.6,112.7,261.4,114.3,263.6z"/>
		<path fill="#CBB07E" d="M190.9,231c1.8,5.7,7.3,7.5,11.3,10.9c1.2,1,3.5,1.9,2.3,3.9c-1.2,2-3.1,0.4-4.5-0.2
			c-2.6-1.2-5.1-2.8-8.2-4.5c-0.7,4.5,2.1,6.4,4.6,8.3c1.9,1.5,4.1,2.7,6,4.1c1.2,0.9,2.4,2,1.4,3.6c-0.9,1.5-2.3,1.6-3.8,1
			c-2-0.8-4-1.6-6.1-2.3c-0.6-3.4-2.4-5.5-6-5.5c-1.2-4.6-3.3-8.4-7.1-11.5c-4.4-3.5-4.4-8.7-4.4-13.7c3.2,0,2.2-3.3,4.6-5.7
			c1.6,7.7,0.8,16.1,8.7,20C192.8,236.7,184.7,233.1,190.9,231z"/>
		<path fill="#B49768" d="M198.4,263.6c0.7,0,1.5-0.1,2.2,0.1c3,0.8,8.5-0.3,7.9,4.2c-0.6,4.4-4.8-0.5-7.3,0.5
			c-0.4,0.2-0.8,0.6-1.1,0.9C197.6,268,198.7,265.6,198.4,263.6z"/>
		<path fill="#683687" d="M135,167.5c1,0,2,0,3,0c1.9,1.4,3.9,2.9,5.8,4.3c0.5,1.3,1.7,1.6,2.9,1.6c0,0,0.1,0.2,0.1,0.2
			c0,1.4,0,2.7,0.1,4.1C142,175.5,136.4,174,135,167.5z"/>
		<path fill="#3D2B1F" d="M147,177.7c0-1.4,0-2.7-0.1-4.1c1.4,1.1,3.2,1.8,3.1,4c-0.6,0.1-1.2,0.2-1.8,0.3c-0.4-0.2-0.9-0.3-1.4-0.2
			L147,177.7z"/>
		<path fill="#683687" d="M146.8,177.8c0.5-0.1,0.9,0,1.4,0.2C147.6,178.8,147.2,178.6,146.8,177.8z"/>
		<path fill="#CBB07E" d="M378.5,256.2c-0.7,0.2-1.4,0.3-2.1,0.5c-2.7,0.8-6.3,2.6-7.5-0.6c-1-2.8,2.9-3.5,5.1-4.7
			c1.8-0.9,3.1-2.7,4.6-4.1C384.5,250.4,377.6,253.2,378.5,256.2z"/>
		<path fill="#CBB07E" d="M329.2,294.7c-0.8-0.5-1.6-1-2.4-1.5c4.9-5,9.3-10.3,13.1-16.1c0.9,0.3,1.9,0.7,2.8,1c1,0.7,2,1.5,3,2.2
			c0,0,0,0.2,0,0.2C339.4,284.3,337.4,293.2,329.2,294.7z"/>
		<path fill="#E6E5E1" d="M344,261.3c-4.1-4.9-1.5-6.4,3.4-6.6c3.6,3,8.2,2.8,13.3,3.7C355.4,263.4,349.6,261.9,344,261.3z"/>
		<path fill="#B49768" d="M353.2,298.5c3,4,6.1,0.4,9.2,0.2c3-0.2,5.8-4.2,9.1-0.6c-6.7,4.4-14.1,4.7-21.7,3.5
			C350.3,299.8,351.6,299,353.2,298.5z"/>
		<path fill="#BCA46D" d="M342.6,271.8c0.8-2.7,1.6-5.6,4.9-6.2c0.4-0.1,1.4,0.9,1.3,1.3c-0.2,3.2-2.6,4.8-4.9,6.5
			C343.5,272.9,343,272.4,342.6,271.8z"/>
		<path fill="#573269" d="M342.8,278.2c-0.9-0.3-1.9-0.7-2.8-1c0-1.3,0.3-2.5,1.5-3.2c0.5,0.2,1.1,0.4,1.6,0.6
			C343,275.7,342.9,276.9,342.8,278.2z"/>
		<path fill="#BCA46D" d="M343.1,274.5c-0.5-0.2-1.1-0.4-1.6-0.6c0.4-0.7,0.7-1.4,1.1-2.1c0.5,0.5,0.9,1.1,1.4,1.6
			C343.8,273.9,343.5,274.2,343.1,274.5z"/>
		<path fill="#573269" d="M345.7,280.6c0,0,0-0.2,0-0.2c0.2,0,0.4-0.1,0.6-0.1C346.2,280.4,346,280.5,345.7,280.6z"/>
		<path fill="#3D2B1F" d="M321.2,297.3c-3.3,0.6-4.9,2.5-5.2,5.9c-0.2,1.9-2.1,1.8-3.5,1.3c-1.7-0.7-0.8-2-0.3-3
			c1.6-3,1.5-7.7,6.7-7.2C319.7,295.3,320.5,296.3,321.2,297.3z"/>
		<path fill="#B49768" d="M397.9,272c0.4,0.9,0.8,1.7,1.2,2.6c-0.8,4.5-1.6,8.9-6.5,10.9C394.9,281.2,394.5,275.9,397.9,272z"/>
		<path fill="#B49768" d="M391.6,286.7c0.1,1.4,0,2.6-1.5,3.3C389.9,288.5,390.6,287.5,391.6,286.7z"/>
		<path fill="#938F85" d="M143.9,171.8c-1.9-1.4-3.9-2.9-5.8-4.3c0-1.2,0.2-2.3,1.4-2.9c2.9,0.4,5.8,0.6,7.5,3.5
			c-0.2,1.4-0.3,2.8-0.5,4.2C145.5,172.1,144.7,172,143.9,171.8z"/>
		<path fill="#573269" d="M143.9,171.8c0.8,0.1,1.7,0.3,2.5,0.4c0.2,0.4,0.3,0.8,0.4,1.2C145.5,173.4,144.4,173.2,143.9,171.8z"/>
		<path fill="#3D2B1F" d="M299.1,287c4.3-0.4,7.1,0.9,6.4,5.9c-2,0.3-4,0.6-5.9,0.9c-0.6-1.8-1.1-3.7-3.5-3.7
			c0.7-0.9,1.4-1.8,2.2-2.7C298.6,287.5,298.9,287.4,299.1,287z"/>
		<path fill="#938F85" d="M299.5,293.8c2-0.3,4-0.6,5.9-0.9c0.9,0.2,1.7,0.3,2.6,0.5C302.9,297.5,302.5,297.5,299.5,293.8z"/>
		<path fill="#723C95" d="M248.6,445.1c-4.4-1.4-8.9-2.9-12-6.6c2.1-7.8,4-8.1,12-1.8C248.6,439.5,248.6,442.3,248.6,445.1z"/>
		<path fill="#E6E5E1" d="M223.8,255.1c2,0,4.9-1.1,5.3,1.9c0.5,3.7-3,4.4-5.6,5.4c-3.9-0.8-8.2-0.2-12.3-3.6
			C215.5,256.8,220.3,257.7,223.8,255.1z"/>
	</g>
</g>
</svg>
